<?xml version="1.0" standalone="no"?>
<!DOCTYPE svg PUBLIC "-//W3C//DTD SVG 1.1//EN" "http://www.w3.org/Graphics/SVG/1.1/DTD/svg11.dtd" >
<svg xmlns="http://www.w3.org/2000/svg">
<metadata>
Created by FontPrep 20130207 at Sat Apr 25 19:03:18 2015
 By Andrew Poes
Copyright (c) 2013 by Lucas Sharp. All rights reserved.
</metadata>
<defs>
<font id="545868f8c6e81ca4a64ed98e2cc7a393" horiz-adv-x='1024' >
  <font-face 
    font-family="SharpSansNo1-Medium"
    font-weight="760"
    font-stretch="normal"
    units-per-em="2048"
    panose-1="0 0 0 0 0 0 0 0 0 0"
    ascent="1536"
    descent="-512"
    x-height="1024"
    cap-height="1495"
    bbox="-143 -561 2753 2218"
    underline-thickness="102"
    underline-position="-102"
    unicode-range="U+0020-F60B"
  />
<missing-glyph horiz-adv-x="1843" 
d="M852 748l-580 579v-1159zM991 748l580 -580v1159zM342 1397l580 -580l579 580h-1159zM922 678l-580 -580h1159zM174 0v1495h1495v-1495h-1495z" />
    <glyph glyph-name="interrobang" unicode="&#x21;&#x3f;" horiz-adv-x="1120" 
d="M471 0v281h160v-281h-160zM846 1140q0 85 -58 147t-151 81v-113q0 -215 -16 -467q29 38 97 98t98 114t30 140zM483 1255v113q-143 -27 -231 -182l-141 65q59 115 178 190t293 75t300 -106t126 -273q0 -90 -29 -158t-73 -105q-44 -36 -95 -80t-95 -86t-73 -119t-29 -181
v-19h-125q-6 205 -6 866z" />
    <glyph glyph-name="interrobangdown" unicode="&#xa1;&#xbf;" horiz-adv-x="1120" 
d="M655 1024v-281h-159v281h159zM281 -116q0 -85 57 -147t151 -81v113q0 193 15 464q-30 -37 -96 -97t-96 -114t-31 -138zM544 -492q-174 0 -300 106t-125 278q0 173 101 258q133 112 184 160q108 102 108 306v19h125q6 -205 6 -866v-113q139 27 231 182l142 -65
q-59 -115 -178 -190q-120 -75 -294 -75z" />
    <glyph glyph-name=".notdef" horiz-adv-x="1843" 
d="M852 748l-580 579v-1159zM991 748l580 -580v1159zM342 1397l580 -580l579 580h-1159zM922 678l-580 -580h1159zM174 0v1495h1495v-1495h-1495z" />
    <glyph glyph-name=".null" horiz-adv-x="0" 
 />
    <glyph glyph-name="nonmarkingreturn" horiz-adv-x="681" 
 />
    <glyph glyph-name="space" unicode=" " horiz-adv-x="512" 
 />
    <glyph glyph-name="exclam" unicode="!" horiz-adv-x="491" 
d="M168 0v281h160v-281h-160zM168 1255v240h160v-240q0 -483 -35 -849h-90q-35 367 -35 849z" />
    <glyph glyph-name="quotedbl" unicode="&#x22;" horiz-adv-x="618" 
d="M360 1495h140v-172q0 -111 -45 -299h-49q-45 188 -46 299v172zM121 1323v172h139v-172q0 -111 -45 -299h-49q-45 188 -45 299z" />
    <glyph glyph-name="numbersign" unicode="#" horiz-adv-x="1705" 
d="M643 969v-430h422v430h-422zM1065 0v385h-422v-385h-160v385h-391v154h391v430h-391v153h391v373h160v-373h422v373h160v-373h389v-153h-389v-430h389v-154h-389v-385h-160z" />
    <glyph glyph-name="dollar" unicode="$" 
d="M293 1136q0 -92 63 -146t181 -97v481q-115 -14 -179 -80t-65 -158zM956 407q0 105 -69 167q-70 62 -195 108v-551q123 20 194 95q70 76 70 181zM694 -246h-159v230q-276 20 -463 243l121 113q141 -190 344 -211v606q-165 58 -272 130q-134 93 -134 257t108 268t296 121
v209h159v-211q256 -29 404 -225l-129 -96q-98 154 -277 182v-530q258 -89 343 -187t85 -249q0 -150 -118 -273t-308 -145v-232z" />
    <glyph glyph-name="percent" unicode="%" horiz-adv-x="1753" 
d="M133 1168q0 144 101 246q102 102 246 102t246 -102t101 -244q0 -144 -101 -246q-102 -102 -246 -102t-246 100q-102 102 -101 246zM1090 326q0 -90 60 -152t146 -63q86 0 148 62q61 63 61 153t-61 151q-62 61 -148 61t-146 -60q-60 -62 -60 -152zM145 0l1285 1495h202
l-1284 -1495h-203zM950 326q0 145 100 245q100 101 246 101q144 0 246 -102t102 -245t-100 -245q-102 -102 -246 -102t-246 101q-102 102 -102 247zM272 1169q0 -90 62 -152q62 -63 147 -63q87 0 147 62t60 153q0 89 -60 151t-146 62t-148 -62t-62 -151z" />
    <glyph glyph-name="ampersand" unicode="&#x26;" horiz-adv-x="1554" 
d="M666 119q196 0 352 123l-455 454q-72 72 -102 105q-209 -119 -209 -336q0 -135 109 -241q109 -105 305 -105zM674 -23q-150 1 -266 45q-205 78 -282 270q-34 83 -34 171q0 145 75 262t202 186q-88 119 -88 261t105 242t280 102q242 0 366 -195l-131 -86q-88 141 -235 141
q-98 0 -160 -60t-62 -148t50 -158t198 -222l436 -438q141 172 172 389h-241v150h397v-68q0 -139 -60 -292t-169 -277l252 -252h-217l-146 143q-203 -166 -442 -166z" />
    <glyph glyph-name="quotesingle" unicode="'" horiz-adv-x="378" 
d="M121 1323v172h139v-172q0 -111 -45 -299h-49q-45 188 -45 299z" />
    <glyph glyph-name="parenleft" unicode="(" horiz-adv-x="882" 
d="M270 514q0 -549 506 -895l-108 -125q-567 395 -568 1018q0 233 81 432t198 331t285 257l110 -125q-240 -168 -372 -383t-132 -510z" />
    <glyph glyph-name="parenright" unicode=")" horiz-adv-x="882" 
d="M612 512q0 295 -132 510t-371 383l110 125q168 -125 285 -257q118 -132 198 -331t80 -432q0 -623 -567 -1018l-109 125q506 346 506 895z" />
    <glyph glyph-name="asterisk" unicode="*" horiz-adv-x="892" 
d="M721 893l-240 180l37 -303h-143l35 303l-244 -182l-70 125l279 119l-279 122l72 121l242 -182l-35 299h143l-37 -299l242 180l72 -123l-279 -118l279 -119z" />
    <glyph glyph-name="plus" unicode="+" horiz-adv-x="968" 
d="M106 680v135h312v309h135v-309h311v-135h-311v-313h-135v313h-312z" />
    <glyph glyph-name="comma" unicode="," horiz-adv-x="413" 
d="M59 -240l84 418h170l-127 -418h-127z" />
    <glyph glyph-name="hyphen" unicode="-" horiz-adv-x="968" 
d="M106 442v140h758v-140h-758z" />
    <glyph glyph-name="period" unicode="." horiz-adv-x="413" 
d="M127 0v281h160v-281h-160z" />
    <glyph glyph-name="slash" unicode="/" horiz-adv-x="987" 
d="M55 0l709 1495h170l-709 -1495h-170z" />
    <glyph glyph-name="zero" unicode="0" 
d="M1077 453q0 -221 -125 -347t-352 -126t-350 126t-123 347v575q0 213 132 350q132 138 345 138t343 -138t130 -350v-575zM600 125q156 0 237 88t81 240v575q0 164 -81 253t-234 89t-235 -92t-81 -250v-573q1 -158 79 -244t234 -86z" />
    <glyph glyph-name="one" unicode="1" 
d="M86 0v154h426v1026q-30 -45 -100 -71t-144 -26h-24v166h10q135 0 200 76t64 170h154v-1341h446v-154h-1032z" />
    <glyph glyph-name="two" unicode="2" 
d="M123 0v158q0 167 132 303q111 113 247 208q137 95 150 106q12 11 54 42t56 45t44 42t41 47t33 55t21 96q0 122 -82 196t-208 74q-240 0 -355 -219l-139 74q66 129 193 209q128 80 284 80q209 0 340 -121t131 -295q0 -122 -66 -207q-37 -49 -65 -83q-56 -69 -307 -242
q-251 -172 -310 -293q-27 -56 -26 -117v-4h803v-154h-971z" />
    <glyph glyph-name="three" unicode="3" 
d="M586 -18q-328 0 -506 219l127 104q145 -180 379 -180q158 0 253 83t95 209t-104 205t-259 78h-145v152h145q147 0 237 70q89 70 89 190t-86 190q-86 71 -233 70q-100 0 -198 -47t-149 -119l-131 92q72 94 204 156t278 62q223 0 348 -112t125 -294q0 -231 -215 -332
q254 -104 254 -362q0 -194 -138 -314t-370 -120z" />
    <glyph glyph-name="four" unicode="4" 
d="M743 489v740l-483 -740h483zM743 0v344h-657v148l655 1003h162v-1006h215v-145h-215v-344h-160z" />
    <glyph glyph-name="five" unicode="5" 
d="M606 -20q-166 0 -296 72t-199 196l149 96q117 -215 346 -215q150 0 245 96t95 256t-103 254t-245 94q-201 0 -313 -153l-160 51l115 768h766v-152h-631l-72 -466q125 100 295 100q210 0 360 -129q150 -128 150 -360t-140 -370t-362 -138z" />
    <glyph glyph-name="six" unicode="6" 
d="M601 125q144 0 248 103q103 102 103 248t-103 248t-249 103q-146 0 -246 -102q-102 -101 -102 -247t102 -250q103 -103 247 -103zM1108 476q0 -212 -146 -354t-362 -142q-215 0 -359 143q-145 143 -145 341t109 353l442 678h193l-353 -539q70 16 138 17q205 -1 344 -143
t139 -354z" />
    <glyph glyph-name="seven" unicode="7" 
d="M86 1341v154h1032v-139l-622 -1356h-174l616 1341h-852z" />
    <glyph glyph-name="eight" unicode="8" 
d="M602 860q152 0 233 72t81 184t-83 186q-83 72 -229 72t-229 -72q-84 -72 -84 -186q-1 -112 79 -184t232 -72zM602 125q162 0 256 85t94 211t-92 211t-258 85t-258 -85t-92 -211t94 -211t256 -85zM598 -20q-238 0 -369 122t-131 320q0 117 62 214t174 155
q-190 113 -191 327q0 172 126 285t331 113t335 -113t130 -285q0 -211 -197 -327q111 -57 174 -155t64 -214q0 -195 -135 -319q-135 -123 -373 -123z" />
    <glyph glyph-name="nine" unicode="9" 
d="M604 668q145 0 247 102q101 102 101 248t-102 248q-102 104 -246 104t-248 -103t-104 -249t103 -248q104 -102 249 -102zM1108 1030q0 -198 -109 -352l-442 -678h-192l352 539q-57 -16 -137 -17q-205 0 -344 142q-140 142 -140 355q0 212 146 354q146 143 362 143
t360 -144t144 -342z" />
    <glyph glyph-name="colon" unicode=":" horiz-adv-x="411" 
d="M127 743v281h158v-281h-158zM127 0v281h158v-281h-158z" />
    <glyph glyph-name="semicolon" unicode=";" horiz-adv-x="413" 
d="M59 -240l84 418h170l-127 -418h-127zM127 743v281h158v-281h-158z" />
    <glyph glyph-name="less" unicode="&#x3c;" horiz-adv-x="968" 
d="M864 389l-758 293v135l758 287v-143l-592 -211l592 -218v-143z" />
    <glyph glyph-name="equal" unicode="=" horiz-adv-x="968" 
d="M106 510v135h758v-135h-758zM106 842v137h758v-137h-758z" />
    <glyph glyph-name="greater" unicode="&#x3e;" horiz-adv-x="968" 
d="M106 389v143l592 218l-592 211v143l758 -287v-135z" />
    <glyph glyph-name="question" unicode="?" horiz-adv-x="1120" 
d="M449 0v281h159v-281h-159zM455 389v19q0 240 95 345q95 106 195 179q101 73 101 207q0 104 -81 171t-204 66q-201 0 -309 -190l-141 65q59 115 178 190t293 75t300 -106t126 -264q0 -159 -81 -246q-36 -38 -80 -72q-119 -92 -166 -148q-81 -97 -81 -272v-19h-145z" />
    <glyph glyph-name="at" unicode="@" horiz-adv-x="1730" 
d="M840 299q92 0 150 68q58 69 68 163t-37 161q-46 67 -136 67t-158 -62t-76 -164q-15 -96 41 -164t148 -69zM864 -256q-317 0 -540 224q-224 224 -224 542t230 544t552 226q324 0 536 -206t212 -484q0 -186 -83 -306t-241 -120t-227 117q-92 -123 -270 -123
q-141 0 -241 102q-99 102 -80 273t127 267q107 96 251 95q144 0 217 -98l9 86h155l-41 -371q-12 -106 16 -152t102 -47q74 0 118 74q43 74 43 199q0 223 -170 387t-433 164q-262 1 -444 -183t-182 -443t176 -441t436 -182t441 184l110 -95q-101 -101 -247 -167t-308 -66z
" />
    <glyph glyph-name="A" unicode="A" horiz-adv-x="1443" 
d="M721 1280l-283 -750h568zM70 0l565 1495h172l567 -1495h-166l-145 379h-682l-143 -379h-168z" />
    <glyph glyph-name="B" unicode="B" horiz-adv-x="1294" 
d="M690 1350h-383v-506h402q133 0 207 72t73 183q0 111 -82 181t-217 70zM717 696h-410v-551h414q139 0 224 78t85 201q0 124 -82 198t-231 74zM147 0v1495h545q207 0 333 -109t126 -286q0 -227 -188 -322q111 -45 170 -138t59 -220q0 -192 -129 -306t-340 -114h-576z" />
    <glyph glyph-name="C" unicode="C" horiz-adv-x="1611" 
d="M870 -20q-317 0 -542 225q-226 225 -226 543t226 542q226 225 542 226q209 0 386 -104t280 -282l-137 -79q-78 143 -218 228t-311 85q-256 0 -430 -180t-174 -436t174 -436t430 -181q188 0 329 90q140 90 216 246l141 -74q-100 -190 -279 -302q-180 -111 -407 -111z" />
    <glyph glyph-name="D" unicode="D" horiz-adv-x="1445" 
d="M553 1348h-246v-1198h252q270 0 446 171q175 171 175 430t-171 428t-456 169zM147 0v1495h418q344 0 561 -213t217 -533q0 -321 -221 -535t-551 -214h-424z" />
    <glyph glyph-name="E" unicode="E" horiz-adv-x="1177" 
d="M147 0v1495h908v-152h-748v-518h748v-151h-748v-520h748v-154h-908z" />
    <glyph glyph-name="F" unicode="F" horiz-adv-x="1116" 
d="M147 0v1495h846v-152h-686v-518h686v-151h-686v-674h-160z" />
    <glyph glyph-name="G" unicode="G" horiz-adv-x="1730" 
d="M1630 752q0 -324 -202 -548t-538 -224q-337 0 -562 224q-226 224 -226 545t222 543t561 224q213 0 388 -104t275 -286l-139 -79q-78 145 -215 231t-309 86q-275 0 -447 -178t-172 -436t174 -438t432 -181q258 0 412 142q152 142 180 372h-600v152h766v-45z" />
    <glyph glyph-name="H" unicode="H" horiz-adv-x="1402" 
d="M1096 0v676h-789v-676h-160v1495h160v-666h789v666h159v-1495h-159z" />
    <glyph glyph-name="I" unicode="I" horiz-adv-x="491" 
d="M166 0v1495h160v-1495h-160z" />
    <glyph glyph-name="J" unicode="J" horiz-adv-x="960" 
d="M444 -20q-127 0 -226 58t-150 152l143 95q80 -160 229 -160q102 0 162 70q59 70 60 194v1106h159v-1102q1 -195 -101 -304t-276 -109z" />
    <glyph glyph-name="K" unicode="K" horiz-adv-x="1323" 
d="M307 0h-160v1495h160v-823l707 823h196l-510 -598l576 -897h-184l-504 788l-281 -329v-459z" />
    <glyph glyph-name="L" unicode="L" horiz-adv-x="1091" 
d="M147 0v1495h160v-1341h668v-154h-828z" />
    <glyph glyph-name="M" unicode="M" horiz-adv-x="1759" 
d="M147 0v1495h158l567 -784l586 784h154v-1495h-160v1237l-584 -786l-561 766v-1217h-160z" />
    <glyph glyph-name="N" unicode="N" horiz-adv-x="1513" 
d="M147 0v1495h179l880 -1241v1241h160v-1495h-170l-889 1251v-1251h-160z" />
    <glyph glyph-name="O" unicode="O" horiz-adv-x="1740" 
d="M870 131q256 0 430 180q174 181 174 437t-174 436t-430 180t-430 -180t-174 -436t174 -436t430 -181zM870 -20q-317 0 -542 225q-226 225 -226 543t226 542q226 226 542 226t542 -226t226 -542q0 -317 -225 -543q-226 -225 -543 -225z" />
    <glyph glyph-name="P" unicode="P" horiz-adv-x="1265" 
d="M604 1348h-297v-734h297q180 0 286 104t107 263q-1 159 -107 263t-286 104zM147 0v1495h467q242 0 394 -146q152 -145 152 -367t-152 -370q-152 -147 -394 -147h-307v-465h-160z" />
    <glyph glyph-name="Q" unicode="Q" horiz-adv-x="1742" 
d="M1477 763q0 241 -175 421q-176 180 -432 180t-430 -180t-174 -436t174 -436t430 -181q139 0 258 59l99 -118q-166 -92 -357 -92q-317 0 -542 225q-226 225 -226 543t226 542q226 226 542 226t542 -226t226 -533q0 -308 -217 -536l185 -221h-203l-533 647h197l254 -305
q156 180 156 421z" />
    <glyph glyph-name="R" unicode="R" horiz-adv-x="1216" 
d="M147 0v1495h459q216 0 362 -137t146 -338q0 -162 -99 -290t-267 -165l378 -565h-186l-451 684h103q162 0 262 101t100 239t-98 231q-98 92 -262 93h-287v-1348h-160z" />
    <glyph glyph-name="S" unicode="S" horiz-adv-x="1153" 
d="M575 -20q-336 0 -528 274l135 102q150 -231 393 -231q139 0 229 80q89 80 89 189t-72 181q-56 56 -221 113q-166 58 -226 84t-128 75q-137 97 -136 271t132 286t327 112q291 0 463 -226l-127 -94q-113 178 -338 178q-125 0 -210 -70t-85 -167q0 -96 70 -166
q47 -47 176 -94q33 -12 111 -39t126 -46q48 -20 111 -58q64 -38 100 -79q90 -101 89 -260q1 -159 -135 -287t-345 -128z" />
    <glyph glyph-name="T" unicode="T" horiz-adv-x="1247" 
d="M545 0v1348h-451v147h1059v-147h-448v-1348h-160z" />
    <glyph glyph-name="U" unicode="U" horiz-adv-x="1296" 
d="M647 -20q-219 0 -363 145t-145 362v1008h160v-1016q0 -143 100 -245q99 -102 247 -103q148 0 250 102q101 102 101 246v1016h160v-1008q1 -215 -145 -361t-365 -146z" />
    <glyph glyph-name="V" unicode="V" horiz-adv-x="1392" 
d="M614 0l-544 1495h166l460 -1266l459 1266h168l-547 -1495h-162z" />
    <glyph glyph-name="W" unicode="W" horiz-adv-x="2191" 
d="M512 0l-438 1495h170l356 -1247l414 1247h153l410 -1249l377 1249h164l-461 -1495h-162l-408 1245l-411 -1245h-164z" />
    <glyph glyph-name="X" unicode="X" horiz-adv-x="1341" 
d="M1094 0l-424 643l-422 -643h-180l510 768l-476 727h181l391 -592l389 592h180l-477 -717l508 -778h-180z" />
    <glyph glyph-name="Y" unicode="Y" horiz-adv-x="1267" 
d="M555 0v711l-496 784h179l397 -633l395 633h178l-493 -782v-713h-160z" />
    <glyph glyph-name="Z" unicode="Z" horiz-adv-x="1234" 
d="M123 0v147l801 1196h-777v152h965v-145l-801 -1196h801v-154h-989z" />
    <glyph glyph-name="bracketleft" unicode="[" horiz-adv-x="770" 
d="M106 -471v1966h560v-152h-400v-1662h400v-152h-560z" />
    <glyph glyph-name="backslash" unicode="\" horiz-adv-x="987" 
d="M764 0l-709 1495h170l709 -1495h-170z" />
    <glyph glyph-name="bracketright" unicode="]" horiz-adv-x="770" 
d="M106 -471v149h400v1665h-400v152h560v-1966h-560z" />
    <glyph glyph-name="asciicircum" unicode="^" horiz-adv-x="1019" 
d="M197 1090l247 344h129l252 -344h-163l-152 213l-150 -213h-163z" />
    <glyph glyph-name="underscore" unicode="_" horiz-adv-x="1173" 
d="M106 -158v138h963v-138h-963z" />
    <glyph glyph-name="grave" unicode="`" horiz-adv-x="1019" 
d="M567 1143l-297 332h203l242 -332h-148z" />
    <glyph glyph-name="a" unicode="a" horiz-adv-x="1294" 
d="M635 123q159 0 269 114q110 113 110 275t-111 276t-269 113q-158 0 -268 -114q-108 -113 -108 -275t108 -276t269 -113zM623 -20q-223 0 -374 156t-151 377q0 222 150 377t375 154q102 0 207 -50t169 -138v168h158v-1024h-158v168q-63 -88 -169 -138t-207 -50z" />
    <glyph glyph-name="b" unicode="b" horiz-adv-x="1290" 
d="M656 901q-160 0 -270 -114q-110 -113 -110 -275t110 -276t269 -113q160 0 269 114q108 113 108 275t-108 276t-268 113zM668 -20q-104 0 -210 50t-167 138v-168h-152v1495h154v-637q61 88 165 137t210 49q224 0 374 -154t150 -377q0 -221 -150 -377t-374 -156z" />
    <glyph glyph-name="c" unicode="c" horiz-adv-x="1202" 
d="M637 -20q-231 0 -385 154t-154 381q0 226 155 378t382 151q164 0 293 -84t186 -221l-143 -61q-100 223 -338 223q-159 0 -267 -114q-108 -115 -108 -277t110 -274t273 -113q238 0 338 237l145 -61q-66 -147 -188 -233t-299 -86z" />
    <glyph glyph-name="d" unicode="d" horiz-adv-x="1290" 
d="M635 123q159 0 269 114q110 113 110 275t-111 276t-269 113q-158 0 -268 -114q-108 -113 -108 -275t108 -276t269 -113zM623 -20q-223 0 -374 156t-151 377q0 222 150 377t375 154q102 0 206 -49t168 -137v637h154v-1495h-152v168q-63 -88 -169 -138t-207 -50z" />
    <glyph glyph-name="e" unicode="e" horiz-adv-x="1253" 
d="M636 903q-142 0 -244 -83t-132 -214h731q-23 139 -117 218q-96 79 -238 79zM637 -20q-242 0 -390 147q-149 147 -149 377t151 386q151 154 378 154t377 -142t149 -374v-67h-901q14 -152 123 -246t262 -94q240 0 346 211l137 -68q-149 -284 -483 -284z" />
    <glyph glyph-name="f" unicode="f" horiz-adv-x="720" 
d="M66 881v143h176v80q0 227 82 309t307 82h14v-145q-160 0 -202 -44t-42 -204v-78h244v-143h-244v-881h-159v881h-176z" />
    <glyph glyph-name="g" unicode="g" horiz-adv-x="1296" 
d="M635 123q159 0 269 114q110 113 110 275t-111 276t-269 113q-158 0 -268 -114q-108 -113 -108 -275t108 -276t269 -113zM623 -20q-223 0 -374 156t-151 377q0 222 150 377t375 154q102 0 207 -50t169 -138v168h158v-1006q0 -233 -137 -375t-369 -143q-360 0 -481 283
l156 51q82 -195 325 -194q164 0 257 103t93 271v156q-61 -88 -167 -139t-211 -51z" />
    <glyph glyph-name="h" unicode="h" horiz-adv-x="1222" 
d="M139 0v1495h156v-621q119 170 337 170t337 -126t118 -349v-569h-159v569q0 154 -79 243t-223 89t-236 -96t-93 -238v-567h-158z" />
    <glyph glyph-name="i" unicode="i" horiz-adv-x="434" 
d="M137 1202v293h160v-293h-160zM137 0v1024h160v-1024h-160z" />
    <glyph glyph-name="j" unicode="j" horiz-adv-x="434" 
d="M137 1202v293h160v-293h-160zM-109 -469v152q156 0 201 43t45 198v1100h160v-1102q0 -223 -83 -307t-298 -84h-25z" />
    <glyph glyph-name="k" unicode="k" horiz-adv-x="1097" 
d="M295 0h-156v1495h156v-1028l545 557h200l-424 -434l426 -590h-184l-356 496l-207 -211v-285z" />
    <glyph glyph-name="l" unicode="l" horiz-adv-x="438" 
d="M139 0v1495h160v-1495h-160z" />
    <glyph glyph-name="m" unicode="m" horiz-adv-x="1947" 
d="M137 0v1024h156v-139q111 160 328 159q266 0 364 -208q51 96 147 152t224 56q217 0 337 -120t119 -322v-602h-159v612q0 129 -81 210t-214 81t-219 -83t-86 -224v-596h-158v631q0 123 -79 197t-212 75q-133 0 -221 -87t-88 -238v-578h-158z" />
    <glyph glyph-name="n" unicode="n" horiz-adv-x="1218" 
d="M137 0v1024h156v-152q119 172 337 172t337 -126t118 -349v-569h-159v569q0 154 -79 243t-223 89t-237 -96q-92 -96 -92 -238v-567h-158z" />
    <glyph glyph-name="o" unicode="o" horiz-adv-x="1259" 
d="M629 123q157 0 265 114q108 113 108 275t-110 276q-108 114 -264 113q-156 0 -262 -114q-108 -113 -108 -275t108 -276t263 -113zM630 -20q-222 0 -377 154t-155 378q0 225 155 379q155 153 377 153t377 -154t155 -378q0 -225 -155 -379q-155 -153 -377 -153z" />
    <glyph glyph-name="p" unicode="p" horiz-adv-x="1288" 
d="M654 901q-160 0 -270 -114q-110 -113 -110 -275t110 -276t269 -113q160 0 269 114q108 113 108 275t-108 276t-268 113zM666 -20q-113 0 -213 45t-162 131v-627h-154v1495h152v-168q61 88 167 138t210 50q224 0 374 -154t150 -377q0 -221 -150 -377t-374 -156z" />
    <glyph glyph-name="q" unicode="q" horiz-adv-x="1290" 
d="M635 123q159 0 269 114q110 113 110 275t-111 276t-269 113q-158 0 -268 -114q-108 -113 -108 -275t108 -276t269 -113zM623 -20q-223 0 -374 156t-151 377q0 222 150 377t375 154q102 0 207 -50t169 -138v168h152v-1495h-154v627q-61 -86 -162 -131t-212 -45z" />
    <glyph glyph-name="r" unicode="r" horiz-adv-x="796" 
d="M137 0v1024h158v-147q86 147 285 147h127v-147h-127q-154 0 -219 -82t-64 -265v-530h-160z" />
    <glyph glyph-name="s" unicode="s" horiz-adv-x="972" 
d="M258 752q0 -66 65 -100t173 -57t157 -39t107 -50q116 -67 114 -211q0 -117 -99 -216t-294 -99q-268 0 -428 196l125 103q129 -160 309 -160q111 0 171 50q60 49 60 111t-38 94q-39 32 -78 43t-87 23t-56 13q-9 2 -51 12q-106 25 -195 77q-111 65 -111 196q0 132 104 220
t269 89q117 0 220 -41t169 -117l-116 -98q-109 121 -273 120q-101 0 -159 -46q-58 -47 -58 -113z" />
    <glyph glyph-name="t" unicode="t" horiz-adv-x="743" 
d="M70 881v143h176v242l160 88v-330h241v-143h-241v-488q0 -155 44 -199t197 -44v-150h-22q-223 0 -301 81t-78 310v490h-176z" />
    <glyph glyph-name="u" unicode="u" horiz-adv-x="1218" 
d="M586 -20q-221 0 -337 124t-116 351v569h160v-569q0 -154 79 -243t223 -89t236 96t93 238v567h157v-1024h-155v152q-119 -172 -340 -172z" />
    <glyph glyph-name="v" unicode="v" horiz-adv-x="1075" 
d="M459 0l-398 1024h172l308 -809l303 809h170l-398 -1024h-157z" />
    <glyph glyph-name="w" unicode="w" horiz-adv-x="1769" 
d="M412 0l-338 1024h168l258 -799l303 799h153l312 -803l262 803h166l-346 -1024h-154l-317 805l-310 -805h-157z" />
    <glyph glyph-name="x" unicode="x" horiz-adv-x="1091" 
d="M43 0l403 520l-385 504h189l297 -389l297 389h190l-391 -502l408 -522h-195l-313 401l-305 -401h-195z" />
    <glyph glyph-name="y" unicode="y" horiz-adv-x="1146" 
d="M272 -473l232 532l-443 965h175l352 -782l325 782h172l-645 -1497h-168z" />
    <glyph glyph-name="z" unicode="z" horiz-adv-x="1093" 
d="M102 0v152l689 725h-670v147h864v-152l-690 -727h696v-145h-889z" />
    <glyph glyph-name="braceleft" unicode="{" horiz-adv-x="825" 
d="M741 -471h-22q-256 0 -353 96t-98 348v246q0 127 -35 171t-157 44v150q124 0 158 44t34 171v252q0 252 98 348t353 96h22v-145q-195 0 -255 -60t-60 -241v-252q0 -119 -32 -189t-105 -100q77 -32 107 -100t30 -187v-246q0 -182 60 -241t255 -60v-145z" />
    <glyph glyph-name="bar" unicode="|" horiz-adv-x="411" 
d="M127 -471v1966h160v-1966h-160z" />
    <glyph glyph-name="braceright" unicode="}" horiz-adv-x="825" 
d="M86 -471v147q195 0 255 60t60 239v246q0 119 31 188t107 99q-76 32 -107 100t-31 189v252q0 180 -60 239t-255 60v147h23q256 0 353 -96t97 -348v-252q0 -127 35 -171t158 -44v-150q-123 0 -158 -44t-35 -171v-246q0 -252 -97 -348t-353 -96h-23z" />
    <glyph glyph-name="asciitilde" unicode="~" horiz-adv-x="968" 
d="M618 1280q70 0 76 96h125q-2 -112 -53 -176q-104 -131 -326 2q-61 39 -100 39q-66 0 -72 -94h-129q3 109 57 175t135 64q81 0 168 -53t119 -53z" />
    <glyph glyph-name="exclamdown" unicode="&#xa1;" horiz-adv-x="491" 
d="M168 743v281h160v-281h-160zM168 -471v240q0 485 35 849h90q35 -365 35 -849v-240h-160z" />
    <glyph glyph-name="cent" unicode="&#xa2;" 
d="M559 -266v252q-203 29 -333 177t-130 351t131 349t332 175v252h160v-252q141 -18 252 -98t162 -201l-144 -61q-47 106 -138 164t-210 59q-161 0 -273 -114q-112 -113 -112 -275t114 -276t279 -113q123 -1 213 65t135 172l146 -61q-57 -131 -166 -214t-258 -101v-250h-160
z" />
    <glyph glyph-name="sterling" unicode="&#xa3;" 
d="M340 104q115 0 166 84q-106 96 -187 97q-43 0 -69 -26q-26 -27 -25 -67q0 -40 32 -64t83 -24zM123 700v129h194q-84 139 -84 300t119 274t287 113q262 0 412 -224l-138 -86q-55 84 -119 123q-65 39 -160 39t-167 -70t-72 -190t101 -279h460v-129h-381q106 -178 107 -342
q0 -66 -23 -129q113 -104 179 -104q43 -1 60 23t17 75v189h162v-183q1 -139 -65 -194t-174 -55t-242 126q-96 -127 -254 -126q-118 0 -188 61t-70 157t63 155q63 61 174 61t226 -86v22q0 102 -35 180t-102 170h-287z" />
    <glyph glyph-name="currency" unicode="&#xa4;" horiz-adv-x="1583" 
d="M801 352q157 0 265 114t108 276t-109 275t-265 113t-262 -114q-108 -114 -108 -275t108 -275t263 -114zM798 209q-179 0 -321 106l-188 -196l-94 94l188 195q-113 141 -113 330t111 333l-191 201l95 94l190 -201q141 109 323 109t322 -107l180 189l95 -94l-178 -187
q117 -143 117 -337t-122 -337l179 -182l-95 -94l-180 184q-139 -100 -318 -100z" />
    <glyph glyph-name="yen" unicode="&#xa5;" 
d="M182 635v131h342v22l-446 707h178l348 -555l346 555h178l-444 -704v-25h338v-131h-338v-225h338v-131h-338v-279h-160v279h-342v131h342v225h-342z" />
    <glyph glyph-name="brokenbar" unicode="&#xa6;" horiz-adv-x="495" 
d="M127 -471v860h160v-860h-160zM127 635v860h160v-860h-160z" />
    <glyph glyph-name="section" unicode="&#xa7;" horiz-adv-x="1236" 
d="M969 721q0 65 -89 107q-88 42 -222 70t-207 54q-87 -8 -139 -57t-52 -120t85 -111t224 -72q139 -30 215 -53q92 23 139 70q46 48 46 112zM887 277q0 82 -111 120q-37 15 -254 67t-315 118t-98 178q0 86 56 154t146 96q-119 74 -119 208t113 217t303 82t306 -89
q114 -88 133 -214l-152 -34q-31 211 -295 211q-110 0 -184 -44t-74 -130q0 -37 18 -64t76 -51q100 -41 174 -54q75 -14 88 -18q226 -55 324 -121t98 -178q0 -79 -56 -151t-144 -101q116 -67 116 -199t-118 -218q-120 -84 -316 -83t-324 95q-126 94 -145 225l160 39
q10 -98 95 -164t213 -66t207 44q79 43 79 125z" />
    <glyph glyph-name="dieresis" unicode="&#xa8;" horiz-adv-x="1032" 
d="M291 1157v285h158v-285h-158zM565 1157v285h158v-285h-158z" />
    <glyph glyph-name="copyright" unicode="&#xa9;" horiz-adv-x="1734" 
d="M877 340q-174 0 -292 119t-118 289t119 288t291 119q115 0 209 -56t147 -149l-135 -82q-29 60 -89 100q-61 40 -151 40t-166 -77t-76 -185t76 -183q76 -76 168 -76t154 41q61 41 88 107l137 -76q-51 -99 -148 -159t-214 -60zM868 121q260 0 438 183q177 184 177 444
t-177 443q-178 183 -438 183t-437 -183t-177 -443t177 -444t437 -183zM868 -20q-317 0 -542 225q-226 225 -226 543t226 542q226 226 542 226t542 -226t226 -542q0 -317 -225 -543q-226 -225 -543 -225z" />
    <glyph glyph-name="ordfeminine" unicode="&#xaa;" horiz-adv-x="839" 
d="M424 1001q82 1 136 59t54 140t-54 139t-137 57t-139 -56t-56 -140t56 -142q58 -58 140 -57zM409 891q-121 0 -211 85t-89 224q0 139 90 223q91 84 211 84t200 -84v72h119v-592h-119v74q-80 -86 -201 -86z" />
    <glyph glyph-name="guillemotleft" unicode="&#xab;" horiz-adv-x="950" 
d="M817 227l-332 238v94l332 238v-117l-233 -170l233 -168v-115zM465 227l-332 238v94l332 238v-117l-234 -170l234 -168v-115z" />
    <glyph glyph-name="logicalnot" unicode="&#xac;" horiz-adv-x="1234" 
d="M1004 416v510h-947v153h1106v-663h-159z" />
    <glyph glyph-name="uni00AD" unicode="&#xad;" horiz-adv-x="968" 
d="M106 442v140h758v-140h-758z" />
    <glyph glyph-name="registered" unicode="&#xae;" horiz-adv-x="823" 
d="M420 1282h-45v-78h45q49 0 49 39t-49 39zM436 1356q117 0 117 -118q0 -58 -68 -85l66 -109h-96l-80 144v-144h-82v312h143zM413 967q93 -1 155 65t63 160q-1 94 -63 161t-155 67t-157 -67q-63 -67 -63 -161t63 -160q64 -65 157 -65zM413 881q-130 0 -222 91
q-91 91 -91 221t91 221t221 91t222 -91q91 -91 91 -221t-91 -221t-221 -91z" />
    <glyph glyph-name="macron" unicode="&#xaf;" horiz-adv-x="1019" 
d="M242 1143v137h540v-137h-540z" />
    <glyph glyph-name="degree" unicode="&#xb0;" horiz-adv-x="882" 
d="M442 1122q53 0 92 39q38 39 37 90q0 51 -37 90q-38 39 -92 39t-91 -39q-38 -39 -38 -90t38 -90t91 -39zM442 989q-108 0 -186 78q-78 79 -78 187t78 185t186 77t186 -77q77 -77 77 -186t-77 -187t-186 -77z" />
    <glyph glyph-name="plusminus" unicode="&#xb1;" horiz-adv-x="968" 
d="M106 260v137h758v-137h-758zM106 885v137h312v309h135v-309h311v-137h-311v-312h-135v312h-312z" />
    <glyph glyph-name="twosuperior" unicode="&#xb2;" horiz-adv-x="692" 
d="M72 631v135q0 68 39 130t78 96q41 34 137 100t123 103q27 36 27 79t-37 76q-36 33 -97 32q-106 0 -162 -122l-123 61q84 186 285 186q125 1 202 -69t77 -172q0 -64 -37 -122t-74 -88q-36 -30 -104 -76t-98 -69t-60 -63t-31 -80h406v-137h-551z" />
    <glyph glyph-name="threesuperior" unicode="&#xb3;" horiz-adv-x="657" 
d="M41 1362q79 145 285 145q106 1 181 -65t75 -182t-105 -181q123 -67 123 -191t-77 -197t-210 -73q-174 0 -278 123l123 93q59 -84 155 -84q63 0 104 35q40 37 40 95t-45 93t-119 35h-88v135h88q71 0 111 35t40 88t-37 85q-38 32 -102 31q-92 0 -143 -88z" />
    <glyph glyph-name="acute" unicode="&#xb4;" horiz-adv-x="1019" 
d="M270 1143l240 332h205l-297 -332h-148z" />
    <glyph glyph-name="mu" unicode="&#xb5;" horiz-adv-x="1224" 
d="M588 -20q-174 0 -291 126v-577h-160v1495h162v-557q0 -158 85 -251t223 -93t231 96q92 96 92 238v567h157v-1024h-155v152q-119 -172 -344 -172z" />
    <glyph glyph-name="mu" unicode="&#x3bc;" horiz-adv-x="1224" 
d="M588 -20q-174 0 -291 126v-577h-160v1495h162v-557q0 -158 85 -251t223 -93t231 96q92 96 92 238v567h157v-1024h-155v152q-119 -172 -344 -172z" />
    <glyph glyph-name="paragraph" unicode="&#xb6;" horiz-adv-x="1234" 
d="M707 0v618h-187q-190 0 -317 127t-127 311t127 312q127 127 315 127h592v-1495h-141v1350h-123v-1350h-139z" />
    <glyph glyph-name="periodcentered" unicode="&#xb7;" horiz-adv-x="413" 
d="M127 371v280h160v-280h-160z" />
    <glyph glyph-name="cedilla" unicode="&#xb8;" horiz-adv-x="1019" 
d="M494 -479q-178 0 -299 114l124 76q92 -73 163 -73t111 24t40 59q0 74 -146 74h-84v205h134v-106q109 0 177 -48t66 -128q0 -80 -84 -138t-202 -59z" />
    <glyph glyph-name="onesuperior" unicode="&#xb9;" horiz-adv-x="600" 
d="M66 631v137h172v502q-18 -29 -60 -48t-82 -20h-14v152h6q78 0 116 43t38 98h139v-727h164v-137h-479z" />
    <glyph glyph-name="ordmasculine" unicode="&#xba;" horiz-adv-x="831" 
d="M417 1008q79 0 133 55t54 135t-54 137t-133 57t-134 -56q-55 -58 -55 -137t54 -135q56 -56 135 -56zM417 891q-128 0 -218 90t-90 218t90 218t218 90t217 -90t89 -218t-89 -218t-217 -90z" />
    <glyph glyph-name="guillemotright" unicode="&#xbb;" horiz-adv-x="950" 
d="M133 229v115l236 168l-236 170v117l332 -238v-94zM485 229v115l236 168l-236 170v117l332 -238v-94z" />
    <glyph glyph-name="onequarter" unicode="&#xbc;" horiz-adv-x="1652" 
d="M1321 330v317l-223 -317h223zM66 631v137h172v502q-18 -29 -60 -48t-82 -20h-14v152h6q78 0 116 43t38 98h139v-727h164v-137h-479zM223 0l1080 1495h186l-1079 -1495h-187zM1321 0v199h-379v131l373 534h147v-534h125v-131h-125v-199h-141z" />
    <glyph glyph-name="onehalf" unicode="&#xbd;" horiz-adv-x="1732" 
d="M66 631v137h172v502q-18 -29 -60 -48t-82 -20h-14v152h6q78 0 116 43t38 98h139v-727h164v-137h-479zM1104 0v135q0 68 39 130t79 96q40 35 136 101t123 102t27 79t-37 76q-36 33 -97 33q-106 0 -162 -123l-122 61q84 186 284 187q125 0 202 -70t77 -172q0 -63 -37 -121
t-74 -89q-37 -30 -104 -76t-98 -68q-30 -23 -60 -63t-31 -81h406v-137h-551zM223 0l1080 1495h186l-1079 -1495h-187z" />
    <glyph glyph-name="threequarters" unicode="&#xbe;" horiz-adv-x="1652" 
d="M1321 330v317l-223 -317h223zM41 1362q79 145 285 145q106 1 181 -65t75 -182t-105 -181q123 -67 123 -191t-77 -197t-210 -73q-174 0 -278 123l123 93q59 -84 155 -84q63 0 104 35q40 37 40 95t-45 93t-119 35h-88v135h88q71 0 111 35t40 88t-37 85q-38 32 -102 31
q-92 0 -143 -88zM223 0l1080 1495h186l-1079 -1495h-187zM1321 0v199h-379v131l373 534h147v-534h125v-131h-125v-199h-141z" />
    <glyph glyph-name="questiondown" unicode="&#xbf;" horiz-adv-x="1120" 
d="M510 743v281h160v-281h-160zM536 -492q-174 0 -300 106t-125 264q0 159 80 246q36 38 80 72q119 92 166 148q83 99 81 272v19h146v-19q0 -121 -29 -212t-73 -140q-89 -99 -189 -172q-101 -73 -101 -207q0 -104 81 -171t204 -66q201 0 309 190l142 -65q-59 -115 -178 -190
q-120 -75 -294 -75z" />
    <glyph glyph-name="Agrave" unicode="&#xc0;" horiz-adv-x="1443" 
d="M639 1614l-297 332h203l241 -332h-147zM721 1280l-283 -750h568zM70 0l565 1495h172l567 -1495h-166l-145 379h-682l-143 -379h-168z" />
    <glyph glyph-name="Aacute" unicode="&#xc1;" horiz-adv-x="1443" 
d="M629 1614l239 332h205l-297 -332h-147zM721 1280l-283 -750h568zM70 0l565 1495h172l567 -1495h-166l-145 379h-682l-143 -379h-168z" />
    <glyph glyph-name="Acircumflex" unicode="&#xc2;" horiz-adv-x="1443" 
d="M395 1614l244 332h135l244 -332h-164l-147 205l-146 -205h-166zM721 1280l-283 -750h568zM70 0l565 1495h172l567 -1495h-166l-145 379h-682l-143 -379h-168z" />
    <glyph glyph-name="Atilde" unicode="&#xc3;" horiz-adv-x="1443" 
d="M354 1614q0 110 56 178t138 68q81 0 173 -56t131 -57q80 0 80 106h127q0 -115 -53 -181q-108 -136 -338 1q-78 45 -111 45q-76 0 -76 -104h-127zM721 1280l-283 -750h568zM70 0l565 1495h172l567 -1495h-166l-145 379h-682l-143 -379h-168z" />
    <glyph glyph-name="Adieresis" unicode="&#xc4;" horiz-adv-x="1443" 
d="M500 1628v285h157v-285h-157zM774 1628v285h158v-285h-158zM721 1280l-283 -750h568zM70 0l565 1495h172l567 -1495h-166l-145 379h-682l-143 -379h-168z" />
    <glyph glyph-name="Aring" unicode="&#xc5;" horiz-adv-x="1443" 
d="M710 1509q40 0 70 29t29 69q0 39 -30 69q-29 30 -69 30t-69 -30t-29 -70t29 -68q29 -29 69 -29zM721 1280l-283 -750h568zM710 1827q92 1 158 -63q64 -64 64 -170t-98 -171l540 -1423h-166l-145 379h-682l-143 -379h-168l534 1413q-113 66 -112 193q0 92 63 156t155 65z
" />
    <glyph glyph-name="AE" unicode="&#xc6;" horiz-adv-x="2101" 
d="M834 1255l-351 -737h521zM1946 1495v-152h-971l121 -518h850v-151h-816l121 -520h695v-154h-822l-86 371h-624l-176 -371h-181l709 1495h1180z" />
    <glyph glyph-name="Ccedilla" unicode="&#xc7;" horiz-adv-x="1611" 
d="M868 -479q-178 0 -299 114l125 76q92 -73 162 -73t112 24q40 25 40 59q0 74 -146 74h-84v191q-288 35 -482 252t-194 522t226 530t542 226q209 0 386 -104t280 -282l-137 -79q-78 143 -218 228t-311 85q-256 0 -430 -180t-174 -436t174 -436t430 -181q188 0 329 90
q140 90 216 246l141 -74q-94 -180 -263 -291t-382 -120v-88q109 0 177 -48t67 -128q0 -80 -84 -138t-203 -59z" />
    <glyph glyph-name="Egrave" unicode="&#xc8;" horiz-adv-x="1177" 
d="M539 1614l-297 332h202l242 -332h-147zM147 0v1495h908v-152h-748v-518h748v-151h-748v-520h748v-154h-908z" />
    <glyph glyph-name="Eacute" unicode="&#xc9;" horiz-adv-x="1177" 
d="M483 1614l240 332h205l-297 -332h-148zM147 0v1495h908v-152h-748v-518h748v-151h-748v-520h748v-154h-908z" />
    <glyph glyph-name="Ecircumflex" unicode="&#xca;" horiz-adv-x="1177" 
d="M276 1614l244 332h135l244 -332h-164l-147 205l-146 -205h-166zM147 0v1495h908v-152h-748v-518h748v-151h-748v-520h748v-154h-908z" />
    <glyph glyph-name="Edieresis" unicode="&#xcb;" horiz-adv-x="1177" 
d="M657 1628v285h158v-285h-158zM383 1628v285h158v-285h-158zM147 0v1495h908v-152h-748v-518h748v-151h-748v-520h748v-154h-908z" />
    <glyph glyph-name="Igrave" unicode="&#xcc;" horiz-adv-x="491" 
d="M170 1614l-297 332h203l241 -332h-147zM166 0v1495h160v-1495h-160z" />
    <glyph glyph-name="Iacute" unicode="&#xcd;" horiz-adv-x="491" 
d="M160 1614l239 332h205l-297 -332h-147zM166 0v1495h160v-1495h-160z" />
    <glyph glyph-name="Icircumflex" unicode="&#xce;" horiz-adv-x="491" 
d="M-72 1614l244 332h135l244 -332h-164l-147 205l-146 -205h-166zM166 0v1495h160v-1495h-160z" />
    <glyph glyph-name="Idieresis" unicode="&#xcf;" horiz-adv-x="491" 
d="M166 0v1495h160v-1495h-160zM-39 1628v285h158v-285h-158zM371 1628v285h157v-285h-157z" />
    <glyph glyph-name="Eth" unicode="&#xd0;" horiz-adv-x="1499" 
d="M602 1348h-237v-521h438v-155h-438v-522h243q270 0 450 171q179 171 179 429t-175 428t-460 170zM47 672v155h158v668h413q344 0 562 -213t217 -533q0 -321 -221 -535t-551 -214h-420v672h-158z" />
    <glyph glyph-name="Ntilde" unicode="&#xd1;" horiz-adv-x="1513" 
d="M399 1614q1 110 57 178t137 68t173 -56t131 -57q80 0 80 106h127q0 -115 -53 -181q-108 -136 -338 1q-78 45 -111 45q-76 0 -76 -104h-127zM147 0v1495h179l880 -1241v1241h160v-1495h-170l-889 1251v-1251h-160z" />
    <glyph glyph-name="Ograve" unicode="&#xd2;" horiz-adv-x="1740" 
d="M791 1614l-297 332h202l242 -332h-147zM870 131q256 0 430 180q174 181 174 437t-174 436t-430 180t-430 -180t-174 -436t174 -436t430 -181zM870 -20q-317 0 -542 225q-226 225 -226 543t226 542q226 226 542 226t542 -226t226 -542q0 -317 -225 -543
q-226 -225 -543 -225z" />
    <glyph glyph-name="Oacute" unicode="&#xd3;" horiz-adv-x="1740" 
d="M782 1614l240 332h205l-297 -332h-148zM870 131q256 0 430 180q174 181 174 437t-174 436t-430 180t-430 -180t-174 -436t174 -436t430 -181zM870 -20q-317 0 -542 225q-226 225 -226 543t226 542q226 226 542 226t542 -226t226 -542q0 -317 -225 -543
q-226 -225 -543 -225z" />
    <glyph glyph-name="Ocircumflex" unicode="&#xd4;" horiz-adv-x="1740" 
d="M551 1614l244 332h135l244 -332h-164l-148 205l-145 -205h-166zM870 131q256 0 430 180q174 181 174 437t-174 436t-430 180t-430 -180t-174 -436t174 -436t430 -181zM870 -20q-317 0 -542 225q-226 225 -226 543t226 542q226 226 542 226t542 -226t226 -542
q0 -317 -225 -543q-226 -225 -543 -225z" />
    <glyph glyph-name="Otilde" unicode="&#xd5;" horiz-adv-x="1740" 
d="M504 1614q0 110 56 178t138 68t172 -56q92 -56 131 -57q80 0 80 106h127q0 -115 -53 -181q-108 -135 -338 1q-78 45 -110 45q-76 0 -76 -104h-127zM870 131q256 0 430 180q174 181 174 437t-174 436t-430 180t-430 -180t-174 -436t174 -436t430 -181zM870 -20
q-317 0 -542 225q-226 225 -226 543t226 542q226 226 542 226t542 -226t226 -542q0 -317 -225 -543q-226 -225 -543 -225z" />
    <glyph glyph-name="Odieresis" unicode="&#xd6;" horiz-adv-x="1740" 
d="M870 131q256 0 430 180q174 181 174 437t-174 436t-430 180t-430 -180t-174 -436t174 -436t430 -181zM870 -20q-317 0 -542 225q-226 225 -226 543t226 542q226 226 542 226t542 -226t226 -542q0 -317 -225 -543q-226 -225 -543 -225zM651 1628v285h158v-285h-158z
M926 1628v285h157v-285h-157z" />
    <glyph glyph-name="multiply" unicode="&#xd7;" horiz-adv-x="968" 
d="M236 401l-95 95l250 249l-250 252l95 95l249 -252l250 250l94 -95l-249 -250l249 -247l-94 -95l-250 248z" />
    <glyph glyph-name="Oslash" unicode="&#xd8;" horiz-adv-x="1740" 
d="M870 131q256 0 430 180q174 181 174 437t-174 436l-741 -967q139 -86 311 -86zM266 746q0 -258 176 -439l742 969q-143 88 -314 88q-256 0 -430 -180t-174 -438zM102 748q0 317 226 542t542 226q219 0 408 -117l74 96h186l-143 -188q243 -227 243 -551t-225 -550
t-543 -226q-221 0 -405 114l-72 -94h-186l141 184q-118 106 -182 252t-64 312z" />
    <glyph glyph-name="Ugrave" unicode="&#xd9;" horiz-adv-x="1296" 
d="M580 1614l-297 332h202l242 -332h-147zM647 -20q-219 0 -363 145t-145 362v1008h160v-1016q0 -143 100 -245q99 -102 247 -103q148 0 250 102q101 102 101 246v1016h160v-1008q1 -215 -145 -361t-365 -146z" />
    <glyph glyph-name="Uacute" unicode="&#xda;" horiz-adv-x="1296" 
d="M647 -20q-219 0 -363 145t-145 362v1008h160v-1016q0 -143 100 -245q99 -102 247 -103q148 0 250 102q101 102 101 246v1016h160v-1008q1 -215 -145 -361t-365 -146zM547 1614l239 332h205l-297 -332h-147z" />
    <glyph glyph-name="Ucircumflex" unicode="&#xdb;" horiz-adv-x="1296" 
d="M328 1614l243 332h136l243 -332h-164l-147 205l-145 -205h-166zM647 -20q-219 0 -363 145t-145 362v1008h160v-1016q0 -143 100 -245q99 -102 247 -103q148 0 250 102q101 102 101 246v1016h160v-1008q1 -215 -145 -361t-365 -146z" />
    <glyph glyph-name="Udieresis" unicode="&#xdc;" horiz-adv-x="1296" 
d="M647 -20q-219 0 -363 145t-145 362v1008h160v-1016q0 -143 100 -245q99 -102 247 -103q148 0 250 102q101 102 101 246v1016h160v-1008q1 -215 -145 -361t-365 -146zM432 1628v285h158v-285h-158zM707 1628v285h157v-285h-157z" />
    <glyph glyph-name="Yacute" unicode="&#xdd;" horiz-adv-x="1267" 
d="M541 1614l239 332h205l-297 -332h-147zM555 0v711l-496 784h179l397 -633l395 633h178l-493 -782v-713h-160z" />
    <glyph glyph-name="Thorn" unicode="&#xde;" horiz-adv-x="1165" 
d="M596 1032h-289v-532h289q139 0 221 74t82 193q0 121 -82 193t-221 72zM147 0v1495h160v-313h301q203 0 330 -115t127 -299t-127 -300t-330 -116h-301v-352h-160z" />
    <glyph glyph-name="germandbls" unicode="&#xdf;" horiz-adv-x="1130" 
d="M-96 -469v150q135 0 184 55t49 192v1159q-4 185 110 301t300 116t302 -114q116 -112 116 -282q0 -217 -187 -317q117 -49 187 -147t69 -226q0 -190 -118 -312t-316 -122q-125 0 -201 41v151q82 -47 198 -47t196 84q79 84 79 204t-90 203t-233 82h-39v148h39q109 0 183 74
t75 183q0 109 -73 185q-74 76 -186 76t-186 -72t-73 -192v-1174q0 -215 -81 -307t-278 -92h-26z" />
    <glyph glyph-name="agrave" unicode="&#xe0;" horiz-adv-x="1294" 
d="M569 1143l-297 332h203l242 -332h-148zM635 123q159 0 269 114q110 113 110 275t-111 276t-269 113q-158 0 -268 -114q-108 -113 -108 -275t108 -276t269 -113zM623 -20q-223 0 -374 156t-151 377q0 222 150 377t375 154q102 0 207 -50t169 -138v168h158v-1024h-158v168
q-63 -88 -169 -138t-207 -50z" />
    <glyph glyph-name="aacute" unicode="&#xe1;" horiz-adv-x="1294" 
d="M530 1143l240 332h205l-297 -332h-148zM635 123q159 0 269 114q110 113 110 275t-111 276t-269 113q-158 0 -268 -114q-108 -113 -108 -275t108 -276t269 -113zM623 -20q-223 0 -374 156t-151 377q0 222 150 377t375 154q102 0 207 -50t169 -138v168h158v-1024h-158v168
q-63 -88 -169 -138t-207 -50z" />
    <glyph glyph-name="acircumflex" unicode="&#xe2;" horiz-adv-x="1294" 
d="M356 1143l244 332h135l244 -332h-164l-147 205l-146 -205h-166zM635 123q159 0 269 114q110 113 110 275t-111 276t-269 113q-158 0 -268 -114q-108 -113 -108 -275t108 -276t269 -113zM623 -20q-223 0 -374 156t-151 377q0 222 150 377t375 154q102 0 207 -50t169 -138
v168h158v-1024h-158v168q-63 -88 -169 -138t-207 -50z" />
    <glyph glyph-name="atilde" unicode="&#xe3;" horiz-adv-x="1294" 
d="M315 1143q1 111 57 179t137 67t173 -57t131 -56q80 0 80 106h127q0 -116 -53 -182q-108 -136 -338 2q-78 45 -111 45q-76 0 -76 -104h-127zM635 123q159 0 269 114q110 113 110 275t-111 276t-269 113q-158 0 -268 -114q-108 -113 -108 -275t108 -276t269 -113zM623 -20
q-223 0 -374 156t-151 377q0 222 150 377t375 154q102 0 207 -50t169 -138v168h158v-1024h-158v168q-63 -88 -169 -138t-207 -50z" />
    <glyph glyph-name="adieresis" unicode="&#xe4;" horiz-adv-x="1294" 
d="M449 1157v285h157v-285h-157zM723 1157v285h158v-285h-158zM635 123q159 0 269 114q110 113 110 275t-111 276t-269 113q-158 0 -268 -114q-108 -113 -108 -275t108 -276t269 -113zM623 -20q-223 0 -374 156t-151 377q0 222 150 377t375 154q102 0 207 -50t169 -138v168
h158v-1024h-158v168q-63 -88 -169 -138t-207 -50z" />
    <glyph glyph-name="aring" unicode="&#xe5;" horiz-adv-x="1294" 
d="M640 1251q40 0 70 29t30 69q0 39 -30 69t-70 30t-69 -30t-29 -70t30 -68q28 -29 68 -29zM422 1349q0 91 63 155t155 65t158 -63q64 -64 64 -156t-64 -157t-157 -65q-92 0 -156 65q-63 65 -63 156zM635 123q159 0 269 114q110 113 110 275t-111 276t-269 113
q-158 0 -268 -114q-108 -113 -108 -275t108 -276t269 -113zM623 -20q-223 0 -374 156t-151 377q0 222 150 377t375 154q102 0 207 -50t169 -138v168h158v-1024h-158v168q-63 -88 -169 -138t-207 -50z" />
    <glyph glyph-name="ae" unicode="&#xe6;" horiz-adv-x="1966" 
d="M1346 903q-142 0 -243 -83t-132 -214h731q-23 139 -118 218q-96 79 -238 79zM476 111q122 0 220 82t127 176q-14 59 -14 107t4 89q-29 -42 -148 -72q-44 -11 -162 -35t-186 -66t-67 -128q0 -153 226 -153zM1350 -20q-154 0 -274 62t-189 173q-55 -98 -169 -167
q-114 -68 -280 -68t-256 76q-90 77 -92 208t94 203t271 111q23 4 75 16t76 17q23 5 65 17t60 22t42 26q42 27 42 90q1 62 -67 106t-201 46q-133 0 -212 -68t-79 -174v-6h-147v4q0 170 118 270q119 100 322 100q141 0 243 -47t144 -133q154 180 391 180t387 -142t150 -374
v-65h-901q15 -152 123 -247t264 -95q240 0 346 211l137 -68q-149 -284 -483 -284z" />
    <glyph glyph-name="ccedilla" unicode="&#xe7;" horiz-adv-x="1202" 
d="M651 -479q-178 0 -299 114l125 76q93 -73 163 -73t111 24q40 25 40 59q0 74 -146 74h-84v191q-205 25 -334 173t-129 365t155 369t382 151q164 0 293 -84t186 -221l-143 -61q-100 223 -338 223q-159 0 -267 -114q-108 -115 -108 -277t110 -274t273 -113q238 0 338 237
l145 -61q-129 -291 -430 -317v-88q108 0 176 -48t68 -128t-84 -138t-203 -59z" />
    <glyph glyph-name="egrave" unicode="&#xe8;" horiz-adv-x="1253" 
d="M571 1143l-297 332h203l242 -332h-148zM636 903q-142 0 -244 -83t-132 -214h731q-23 139 -117 218q-96 79 -238 79zM637 -20q-242 0 -390 147q-149 147 -149 377t151 386q151 154 378 154t377 -142t149 -374v-67h-901q14 -152 123 -246t262 -94q240 0 346 211l137 -68
q-149 -284 -483 -284z" />
    <glyph glyph-name="eacute" unicode="&#xe9;" horiz-adv-x="1253" 
d="M532 1143l240 332h205l-297 -332h-148zM636 903q-142 0 -244 -83t-132 -214h731q-23 139 -117 218q-96 79 -238 79zM637 -20q-242 0 -390 147q-149 147 -149 377t151 386q151 154 378 154t377 -142t149 -374v-67h-901q14 -152 123 -246t262 -94q240 0 346 211l137 -68
q-149 -284 -483 -284z" />
    <glyph glyph-name="ecircumflex" unicode="&#xea;" horiz-adv-x="1253" 
d="M317 1143l244 332h135l244 -332h-164l-147 205l-146 -205h-166zM636 903q-142 0 -244 -83t-132 -214h731q-23 139 -117 218q-96 79 -238 79zM637 -20q-242 0 -390 147q-149 147 -149 377t151 386q151 154 378 154t377 -142t149 -374v-67h-901q14 -152 123 -246t262 -94
q240 0 346 211l137 -68q-149 -284 -483 -284z" />
    <glyph glyph-name="edieresis" unicode="&#xeb;" horiz-adv-x="1253" 
d="M696 1157v285h158v-285h-158zM422 1157v285h158v-285h-158zM636 903q-142 0 -244 -83t-132 -214h731q-23 139 -117 218q-96 79 -238 79zM637 -20q-242 0 -390 147q-149 147 -149 377t151 386q151 154 378 154t377 -142t149 -374v-67h-901q14 -152 123 -246t262 -94
q240 0 346 211l137 -68q-149 -284 -483 -284z" />
    <glyph glyph-name="igrave" unicode="&#xec;" horiz-adv-x="434" 
d="M154 1143l-297 332h202l242 -332h-147zM137 0v1024h160v-1024h-160z" />
    <glyph glyph-name="iacute" unicode="&#xed;" horiz-adv-x="434" 
d="M137 0v1024h160v-1024h-160zM141 1143l240 332h205l-297 -332h-148z" />
    <glyph glyph-name="icircumflex" unicode="&#xee;" horiz-adv-x="434" 
d="M-98 1143l243 332h136l243 -332h-164l-147 205l-145 -205h-166zM137 0v1024h160v-1024h-160z" />
    <glyph glyph-name="idieresis" unicode="&#xef;" horiz-adv-x="434" 
d="M137 0v1024h160v-1024h-160zM-80 1157v285h160v-285h-160zM354 1157v285h160v-285h-160z" />
    <glyph glyph-name="eth" unicode="&#xf0;" horiz-adv-x="1236" 
d="M620 135q144 1 247 105t103 248t-102 250t-247 106t-249 -104t-106 -250q0 -146 105 -250t249 -105zM1130 489q0 -211 -147 -355t-363 -144t-365 143q-148 143 -149 356q0 213 144 357t336 145q192 0 301 -98q-80 143 -250 303l-145 -121h-177l236 197q-102 88 -291 223
h244q113 -92 158 -133l157 133h174l-250 -209q387 -385 387 -797z" />
    <glyph glyph-name="ntilde" unicode="&#xf1;" horiz-adv-x="1218" 
d="M238 1143q0 111 56 179t137 67t173 -57t131 -56q80 0 80 106h127q0 -116 -53 -182q-108 -136 -338 2q-78 45 -111 45q-76 0 -75 -104h-127zM137 0v1024h156v-152q119 172 337 172t337 -126t118 -349v-569h-159v569q0 154 -79 243t-223 89t-237 -96q-92 -96 -92 -238v-567
h-158z" />
    <glyph glyph-name="ograve" unicode="&#xf2;" horiz-adv-x="1259" 
d="M565 1143l-297 332h203l242 -332h-148zM629 123q157 0 265 114q108 113 108 275t-110 276q-108 114 -264 113q-156 0 -262 -114q-108 -113 -108 -275t108 -276t263 -113zM630 -20q-222 0 -377 154t-155 378q0 225 155 379q155 153 377 153t377 -154t155 -378
q0 -225 -155 -379q-155 -153 -377 -153z" />
    <glyph glyph-name="oacute" unicode="&#xf3;" horiz-adv-x="1259" 
d="M629 123q157 0 265 114q108 113 108 275t-110 276q-108 114 -264 113q-156 0 -262 -114q-108 -113 -108 -275t108 -276t263 -113zM630 -20q-222 0 -377 154t-155 378q0 225 155 379q155 153 377 153t377 -154t155 -378q0 -225 -155 -379q-155 -153 -377 -153zM532 1143
l240 332h205l-297 -332h-148z" />
    <glyph glyph-name="ocircumflex" unicode="&#xf4;" horiz-adv-x="1259" 
d="M317 1143l244 332h135l244 -332h-164l-147 205l-146 -205h-166zM629 123q157 0 265 114q108 113 108 275t-110 276q-108 114 -264 113q-156 0 -262 -114q-108 -113 -108 -275t108 -276t263 -113zM630 -20q-222 0 -377 154t-155 378q0 225 155 379q155 153 377 153
t377 -154t155 -378q0 -225 -155 -379q-155 -153 -377 -153z" />
    <glyph glyph-name="otilde" unicode="&#xf5;" horiz-adv-x="1259" 
d="M283 1143q0 111 56 179t137 67t173 -57t131 -56q80 0 80 106h127q0 -116 -53 -182q-108 -136 -338 2q-78 45 -111 45q-76 0 -75 -104h-127zM629 123q157 0 265 114q108 113 108 275t-110 276q-108 114 -264 113q-156 0 -262 -114q-108 -113 -108 -275t108 -276t263 -113z
M630 -20q-222 0 -377 154t-155 378q0 225 155 379q155 153 377 153t377 -154t155 -378q0 -225 -155 -379q-155 -153 -377 -153z" />
    <glyph glyph-name="odieresis" unicode="&#xf6;" horiz-adv-x="1259" 
d="M629 123q157 0 265 114q108 113 108 275t-110 276q-108 114 -264 113q-156 0 -262 -114q-108 -113 -108 -275t108 -276t263 -113zM630 -20q-222 0 -377 154t-155 378q0 225 155 379q155 153 377 153t377 -154t155 -378q0 -225 -155 -379q-155 -153 -377 -153zM422 1157
v285h158v-285h-158zM696 1157v285h158v-285h-158z" />
    <glyph glyph-name="divide" unicode="&#xf7;" horiz-adv-x="968" 
d="M418 328v245h135v-245h-135zM418 920v245h135v-245h-135zM106 680v135h758v-135h-758z" />
    <glyph glyph-name="oslash" unicode="&#xf8;" horiz-adv-x="1259" 
d="M629 901q-155 1 -263 -113t-108 -268t90 -264l459 598q-82 47 -178 47zM629 123q157 0 265 114t108 266t-93 265l-460 -598q82 -47 180 -47zM629 -20q-152 0 -271 71l-39 -51h-167l100 133q-154 150 -154 377t155 381t376 153q141 0 268 -71l39 51h170l-102 -133
q158 -152 158 -378t-155 -380q-155 -153 -378 -153z" />
    <glyph glyph-name="ugrave" unicode="&#xf9;" horiz-adv-x="1218" 
d="M545 1143l-297 332h203l241 -332h-147zM586 -20q-221 0 -337 124t-116 351v569h160v-569q0 -154 79 -243t223 -89t236 96t93 238v567h157v-1024h-155v152q-119 -172 -340 -172z" />
    <glyph glyph-name="uacute" unicode="&#xfa;" horiz-adv-x="1218" 
d="M506 1143l239 332h205l-297 -332h-147zM586 -20q-221 0 -337 124t-116 351v569h160v-569q0 -154 79 -243t223 -89t236 96t93 238v567h157v-1024h-155v152q-119 -172 -340 -172z" />
    <glyph glyph-name="ucircumflex" unicode="&#xfb;" horiz-adv-x="1218" 
d="M287 1143l243 332h136l243 -332h-164l-147 205l-145 -205h-166zM586 -20q-221 0 -337 124t-116 351v569h160v-569q0 -154 79 -243t223 -89t236 96t93 238v567h157v-1024h-155v152q-119 -172 -340 -172z" />
    <glyph glyph-name="udieresis" unicode="&#xfc;" horiz-adv-x="1218" 
d="M666 1157v285h157v-285h-157zM391 1157v285h158v-285h-158zM586 -20q-221 0 -337 124t-116 351v569h160v-569q0 -154 79 -243t223 -89t236 96t93 238v567h157v-1024h-155v152q-119 -172 -340 -172z" />
    <glyph glyph-name="yacute" unicode="&#xfd;" horiz-adv-x="1146" 
d="M479 1143l240 332h205l-297 -332h-148zM272 -473l232 532l-443 965h175l352 -782l325 782h172l-645 -1497h-168z" />
    <glyph glyph-name="thorn" unicode="&#xfe;" horiz-adv-x="1292" 
d="M665 123q159 0 265 116q106 117 106 277t-104 272t-265 113q-161 0 -273 -114q-112 -113 -112 -273t112 -276t271 -115zM1194 516q0 -224 -150 -380t-379 -156q-228 0 -374 174v-625h-152v1966h152v-633q70 82 170 132t211 50q227 0 375 -152q147 -153 147 -376z" />
    <glyph glyph-name="ydieresis" unicode="&#xff;" horiz-adv-x="1146" 
d="M637 1157v285h158v-285h-158zM362 1157v285h158v-285h-158zM272 -473l232 532l-443 965h175l352 -782l325 782h172l-645 -1497h-168z" />
    <glyph glyph-name="Amacron" unicode="&#x100;" horiz-adv-x="1443" 
d="M442 1614v137h541v-137h-541zM721 1280l-283 -750h568zM70 0l565 1495h172l567 -1495h-166l-145 379h-682l-143 -379h-168z" />
    <glyph glyph-name="amacron" unicode="&#x101;" horiz-adv-x="1294" 
d="M410 1143v137h540v-137h-540zM635 123q159 0 269 114q110 113 110 275t-111 276t-269 113q-158 0 -268 -114q-108 -113 -108 -275t108 -276t269 -113zM623 -20q-223 0 -374 156t-151 377q0 222 150 377t375 154q102 0 207 -50t169 -138v168h158v-1024h-158v168
q-63 -88 -169 -138t-207 -50z" />
    <glyph glyph-name="Abreve" unicode="&#x102;" horiz-adv-x="1443" 
d="M1040 1939q0 -141 -90 -237t-247 -96q-156 0 -240 94t-84 239h135q0 -98 50 -155t145 -60q92 2 142 60t50 155h139zM721 1280l-283 -750h568zM70 0l565 1495h172l567 -1495h-166l-145 379h-682l-143 -379h-168z" />
    <glyph glyph-name="abreve" unicode="&#x103;" horiz-adv-x="1294" 
d="M985 1464q0 -142 -91 -238t-247 -96q-155 0 -239 94t-84 240h135q0 -98 50 -155t144 -60q93 1 143 59t50 156h139zM635 123q159 0 269 114q110 113 110 275t-111 276t-269 113q-158 0 -268 -114q-108 -113 -108 -275t108 -276t269 -113zM623 -20q-223 0 -374 156
t-151 377q0 222 150 377t375 154q102 0 207 -50t169 -138v168h158v-1024h-158v168q-63 -88 -169 -138t-207 -50z" />
    <glyph glyph-name="Aogonek" unicode="&#x104;" horiz-adv-x="1443" 
d="M721 1280l-283 -750h568zM1118 -225q0 -89 126 -87q60 0 142 70l125 -86q-129 -114 -263 -114t-212 59t-78 147q0 152 234 275l-129 340h-682l-143 -379h-168l565 1495h172l567 -1495q-156 -94 -206 -138t-50 -87z" />
    <glyph glyph-name="aogonek" unicode="&#x105;" horiz-adv-x="1294" 
d="M635 123q159 0 269 114q110 113 110 275t-111 276t-269 113q-158 0 -268 -114q-108 -113 -108 -275t108 -276t269 -113zM623 -20q-223 0 -374 156t-151 377q0 222 150 377t375 154q102 0 207 -50t169 -138v168h158v-1024q-162 -129 -162 -215q0 -41 28 -68q29 -27 85 -27
t119 54l90 -111q-106 -77 -226 -77t-183 64q-62 65 -62 159q0 131 153 256v133q-63 -88 -169 -138t-207 -50z" />
    <glyph glyph-name="Cacute" unicode="&#x106;" horiz-adv-x="1611" 
d="M870 -20q-317 0 -542 225q-226 225 -226 543t226 542q226 225 542 226q209 0 386 -104t280 -282l-137 -79q-78 143 -218 228t-311 85q-256 0 -430 -180t-174 -436t174 -436t430 -181q188 0 329 90q140 90 216 246l141 -74q-100 -190 -279 -302q-180 -111 -407 -111z
M780 1614l240 332h205l-297 -332h-148z" />
    <glyph glyph-name="cacute" unicode="&#x107;" horiz-adv-x="1202" 
d="M637 -20q-231 0 -385 154t-154 381q0 226 155 378t382 151q164 0 293 -84t186 -221l-143 -61q-100 223 -338 223q-159 0 -267 -114q-108 -115 -108 -277t110 -274t273 -113q238 0 338 237l145 -61q-66 -147 -188 -233t-299 -86zM532 1143l240 332h205l-297 -332h-148z
" />
    <glyph glyph-name="Ccircumflex" unicode="&#x108;" horiz-adv-x="1611" 
d="M557 1614l244 332h135l244 -332h-164l-148 205l-145 -205h-166zM870 -20q-317 0 -542 225q-226 225 -226 543t226 542q226 225 542 226q209 0 386 -104t280 -282l-137 -79q-78 143 -218 228t-311 85q-256 0 -430 -180t-174 -436t174 -436t430 -181q188 0 329 90
q140 90 216 246l141 -74q-100 -190 -279 -302q-180 -111 -407 -111z" />
    <glyph glyph-name="ccircumflex" unicode="&#x109;" horiz-adv-x="1202" 
d="M317 1143l244 332h135l244 -332h-164l-147 205l-146 -205h-166zM637 -20q-231 0 -385 154t-154 381q0 226 155 378t382 151q164 0 293 -84t186 -221l-143 -61q-100 223 -338 223q-159 0 -267 -114q-108 -115 -108 -277t110 -274t273 -113q238 0 338 237l145 -61
q-66 -147 -188 -233t-299 -86z" />
    <glyph glyph-name="Cdotaccent" unicode="&#x10a;" horiz-adv-x="1611" 
d="M807 1628v285h158v-285h-158zM870 -20q-317 0 -542 225q-226 225 -226 543t226 542q226 225 542 226q209 0 386 -104t280 -282l-137 -79q-78 143 -218 228t-311 85q-256 0 -430 -180t-174 -436t174 -436t430 -181q188 0 329 90q140 90 216 246l141 -74
q-100 -190 -279 -302q-180 -111 -407 -111z" />
    <glyph glyph-name="cdotaccent" unicode="&#x10b;" horiz-adv-x="1202" 
d="M553 1157v285h158v-285h-158zM637 -20q-231 0 -385 154t-154 381q0 226 155 378t382 151q164 0 293 -84t186 -221l-143 -61q-100 223 -338 223q-159 0 -267 -114q-108 -115 -108 -277t110 -274t273 -113q238 0 338 237l145 -61q-66 -147 -188 -233t-299 -86z" />
    <glyph glyph-name="Ccaron" unicode="&#x10c;" horiz-adv-x="1611" 
d="M793 1614l-244 332h164l145 -205l148 205h163l-243 -332h-133zM870 -20q-317 0 -542 225q-226 225 -226 543t226 542q226 225 542 226q209 0 386 -104t280 -282l-137 -79q-78 143 -218 228t-311 85q-256 0 -430 -180t-174 -436t174 -436t430 -181q188 0 329 90
q140 90 216 246l141 -74q-100 -190 -279 -302q-180 -111 -407 -111z" />
    <glyph glyph-name="ccaron" unicode="&#x10d;" horiz-adv-x="1202" 
d="M557 1143l-244 332h164l146 -205l147 205h164l-244 -332h-133zM637 -20q-231 0 -385 154t-154 381q0 226 155 378t382 151q164 0 293 -84t186 -221l-143 -61q-100 223 -338 223q-159 0 -267 -114q-108 -115 -108 -277t110 -274t273 -113q238 0 338 237l145 -61
q-66 -147 -188 -233t-299 -86z" />
    <glyph glyph-name="Dcaron" unicode="&#x10e;" horiz-adv-x="1445" 
d="M539 1614l-244 332h164l145 -205l148 205h163l-243 -332h-133zM553 1348h-246v-1198h252q270 0 446 171q175 171 175 430t-171 428t-456 169zM147 0v1495h418q344 0 561 -213t217 -533q0 -321 -221 -535t-551 -214h-424z" />
    <glyph glyph-name="dcaron" unicode="&#x10f;" horiz-adv-x="1368" 
d="M1288 1118l84 377h146l-121 -377h-109zM635 123q159 0 269 114q110 113 110 275t-111 276t-269 113q-158 0 -268 -114q-108 -113 -108 -275t108 -276t269 -113zM623 -20q-223 0 -374 156t-151 377q0 222 150 377t375 154q102 0 206 -49t168 -137v637h154v-1495h-152v168
q-63 -88 -169 -138t-207 -50z" />
    <glyph glyph-name="Dcroat" unicode="&#x110;" horiz-adv-x="1499" 
d="M602 1348h-237v-521h438v-155h-438v-522h243q270 0 450 171q179 171 179 429t-175 428t-460 170zM47 672v155h158v668h413q344 0 562 -213t217 -533q0 -321 -221 -535t-551 -214h-420v672h-158z" />
    <glyph glyph-name="dcroat" unicode="&#x111;" horiz-adv-x="1331" 
d="M635 123q159 0 269 114q110 113 110 275t-111 276t-269 113q-158 0 -268 -114q-108 -113 -108 -275t108 -276t269 -113zM850 1176v143h147v176h154v-176h115v-143h-115v-1176h-152v168q-63 -88 -169 -138t-207 -50q-223 0 -374 156t-151 377q0 222 150 377t375 154
q102 0 206 -49t168 -137v318h-147z" />
    <glyph glyph-name="Emacron" unicode="&#x112;" horiz-adv-x="1177" 
d="M319 1614v137h541v-137h-541zM147 0v1495h908v-152h-748v-518h748v-151h-748v-520h748v-154h-908z" />
    <glyph glyph-name="emacron" unicode="&#x113;" horiz-adv-x="1253" 
d="M367 1143v137h540v-137h-540zM636 903q-142 0 -244 -83t-132 -214h731q-23 139 -117 218q-96 79 -238 79zM637 -20q-242 0 -390 147q-149 147 -149 377t151 386q151 154 378 154t377 -142t149 -374v-67h-901q14 -152 123 -246t262 -94q240 0 346 211l137 -68
q-149 -284 -483 -284z" />
    <glyph glyph-name="Ebreve" unicode="&#x114;" horiz-adv-x="1177" 
d="M590 1606q-156 0 -240 94t-84 239h135q1 -98 51 -155t144 -60q92 2 142 60t50 155h140q0 -141 -91 -237t-247 -96zM147 0v1495h908v-152h-748v-518h748v-151h-748v-520h748v-154h-908z" />
    <glyph glyph-name="ebreve" unicode="&#x115;" horiz-adv-x="1253" 
d="M967 1464q0 -142 -91 -238t-247 -96t-240 94t-84 240h135q0 -98 50 -155t145 -60q92 1 142 59t50 156h140zM636 903q-142 0 -244 -83t-132 -214h731q-23 139 -117 218q-96 79 -238 79zM637 -20q-242 0 -390 147q-149 147 -149 377t151 386q151 154 378 154t377 -142
t149 -374v-67h-901q14 -152 123 -246t262 -94q240 0 346 211l137 -68q-149 -284 -483 -284z" />
    <glyph glyph-name="Edotaccent" unicode="&#x116;" horiz-adv-x="1177" 
d="M541 1628v285h157v-285h-157zM147 0v1495h908v-152h-748v-518h748v-151h-748v-520h748v-154h-908z" />
    <glyph glyph-name="edotaccent" unicode="&#x117;" horiz-adv-x="1253" 
d="M563 1157v285h158v-285h-158zM636 903q-142 0 -244 -83t-132 -214h731q-23 139 -117 218q-96 79 -238 79zM637 -20q-242 0 -390 147q-149 147 -149 377t151 386q151 154 378 154t377 -142t149 -374v-67h-901q14 -152 123 -246t262 -94q240 0 346 211l137 -68
q-149 -284 -483 -284z" />
    <glyph glyph-name="Eogonek" unicode="&#x118;" horiz-adv-x="1177" 
d="M799 -225q-1 -89 125 -87q60 0 143 70l125 -86q-130 -114 -264 -114t-212 59t-77 147q0 129 166 236h-658v1495h908v-152h-748v-518h748v-151h-748v-520h748v-154q-156 -94 -206 -138t-50 -87z" />
    <glyph glyph-name="eogonek" unicode="&#x119;" horiz-adv-x="1253" 
d="M636 903q-142 0 -244 -83t-132 -214h731q-23 139 -117 218q-96 79 -238 79zM596 -207q0 -86 126 -86q60 0 142 70l125 -86q-129 -115 -263 -115t-212 59t-78 159t117 192q-207 25 -331 168t-124 362t151 374q151 154 378 154t377 -142t149 -374v-67h-901
q14 -152 123 -246t262 -94q240 0 346 211l137 -68q-98 -184 -274 -250q-152 -90 -201 -134t-49 -87z" />
    <glyph glyph-name="Ecaron" unicode="&#x11a;" horiz-adv-x="1179" 
d="M520 1614l-244 332h164l146 -205l147 205h164l-244 -332h-133zM147 0v1495h908v-152h-748v-518h748v-151h-748v-520h748v-154h-908z" />
    <glyph glyph-name="ecaron" unicode="&#x11b;" horiz-adv-x="1253" 
d="M571 1143l-243 332h164l145 -205l147 205h164l-243 -332h-134zM636 903q-142 0 -244 -83t-132 -214h731q-23 139 -117 218q-96 79 -238 79zM637 -20q-242 0 -390 147q-149 147 -149 377t151 386q151 154 378 154t377 -142t149 -374v-67h-901q14 -152 123 -246t262 -94
q240 0 346 211l137 -68q-149 -284 -483 -284z" />
    <glyph glyph-name="Gcircumflex" unicode="&#x11c;" horiz-adv-x="1730" 
d="M551 1614l244 332h135l244 -332h-164l-148 205l-145 -205h-166zM1630 752q0 -324 -202 -548t-538 -224q-337 0 -562 224q-226 224 -226 545t222 543t561 224q213 0 388 -104t275 -286l-139 -79q-78 145 -215 231t-309 86q-275 0 -447 -178t-172 -436t174 -438t432 -181
q258 0 412 142q152 142 180 372h-600v152h766v-45z" />
    <glyph glyph-name="gcircumflex" unicode="&#x11d;" horiz-adv-x="1296" 
d="M334 1143l244 332h135l243 -332h-163l-148 205l-145 -205h-166zM635 123q159 0 269 114q110 113 110 275t-111 276t-269 113q-158 0 -268 -114q-108 -113 -108 -275t108 -276t269 -113zM623 -20q-223 0 -374 156t-151 377q0 222 150 377t375 154q102 0 207 -50t169 -138
v168h158v-1006q0 -233 -137 -375t-369 -143q-360 0 -481 283l156 51q82 -195 325 -194q164 0 257 103t93 271v156q-61 -88 -167 -139t-211 -51z" />
    <glyph glyph-name="Gbreve" unicode="&#x11e;" horiz-adv-x="1730" 
d="M854 1606q-156 0 -240 94t-84 239h136q0 -98 50 -155t144 -60q92 2 142 60t51 155h139q0 -141 -91 -237t-247 -96zM1630 752q0 -324 -202 -548t-538 -224q-337 0 -562 224q-226 224 -226 545t222 543t561 224q213 0 388 -104t275 -286l-139 -79q-78 145 -215 231t-309 86
q-275 0 -447 -178t-172 -436t174 -438t432 -181q258 0 412 142q152 142 180 372h-600v152h766v-45z" />
    <glyph glyph-name="gbreve" unicode="&#x11f;" horiz-adv-x="1296" 
d="M977 1464q0 -142 -91 -238t-247 -96t-240 94t-84 240h136q0 -98 50 -155t144 -60q92 1 142 59t51 156h139zM635 123q159 0 269 114q110 113 110 275t-111 276t-269 113q-158 0 -268 -114q-108 -113 -108 -275t108 -276t269 -113zM623 -20q-223 0 -374 156t-151 377
q0 222 150 377t375 154q102 0 207 -50t169 -138v168h158v-1006q0 -233 -137 -375t-369 -143q-360 0 -481 283l156 51q82 -195 325 -194q164 0 257 103t93 271v156q-61 -88 -167 -139t-211 -51z" />
    <glyph glyph-name="Gdotaccent" unicode="&#x120;" horiz-adv-x="1730" 
d="M791 1628v285h157v-285h-157zM1630 752q0 -324 -202 -548t-538 -224q-337 0 -562 224q-226 224 -226 545t222 543t561 224q213 0 388 -104t275 -286l-139 -79q-78 145 -215 231t-309 86q-275 0 -447 -178t-172 -436t174 -438t432 -181q258 0 412 142q152 142 180 372
h-600v152h766v-45z" />
    <glyph glyph-name="gdotaccent" unicode="&#x121;" horiz-adv-x="1296" 
d="M545 1157v285h157v-285h-157zM635 123q159 0 269 114q110 113 110 275t-111 276t-269 113q-158 0 -268 -114q-108 -113 -108 -275t108 -276t269 -113zM623 -20q-223 0 -374 156t-151 377q0 222 150 377t375 154q102 0 207 -50t169 -138v168h158v-1006q0 -233 -137 -375
t-369 -143q-360 0 -481 283l156 51q82 -195 325 -194q164 0 257 103t93 271v156q-61 -88 -167 -139t-211 -51z" />
    <glyph glyph-name="Gcommaaccent" unicode="&#x122;" horiz-adv-x="1730" 
d="M838 -541h-109l84 418h145zM1630 752q0 -324 -202 -548t-538 -224q-337 0 -562 224q-226 224 -226 545t222 543t561 224q213 0 388 -104t275 -286l-139 -79q-78 145 -215 231t-309 86q-275 0 -447 -178t-172 -436t174 -438t432 -181q258 0 412 142q152 142 180 372h-600
v152h766v-45z" />
    <glyph glyph-name="gcommaaccent" unicode="&#x123;" horiz-adv-x="1296" 
d="M684 1126h-109l84 418h146zM635 123q159 0 269 114q110 113 110 275t-111 276t-269 113q-158 0 -268 -114q-108 -113 -108 -275t108 -276t269 -113zM623 -20q-223 0 -374 156t-151 377q0 222 150 377t375 154q102 0 207 -50t169 -138v168h158v-1006q0 -233 -137 -375
t-369 -143q-360 0 -481 283l156 51q82 -195 325 -194q164 0 257 103t93 271v156q-61 -88 -167 -139t-211 -51z" />
    <glyph glyph-name="Hcircumflex" unicode="&#x124;" horiz-adv-x="1402" 
d="M387 1614l244 332h135l244 -332h-164l-148 205l-145 -205h-166zM1096 0v676h-789v-676h-160v1495h160v-666h789v666h159v-1495h-159z" />
    <glyph glyph-name="hcircumflex" unicode="&#x125;" horiz-adv-x="1222" 
d="M-98 1593l243 332h136l243 -332h-164l-147 205l-145 -205h-166zM139 0v1495h156v-621q119 170 337 170t337 -126t118 -349v-569h-159v569q0 154 -79 243t-223 89t-236 -96t-93 -238v-567h-158z" />
    <glyph glyph-name="Hbar" unicode="&#x126;" horiz-adv-x="1484" 
d="M344 1100v-271h789v271h-789zM45 1100v123h139v272h160v-272h789v272h159v-272h131v-123h-131v-1100h-159v676h-789v-676h-160v1100h-139z" />
    <glyph glyph-name="hbar" unicode="&#x127;" horiz-adv-x="1263" 
d="M72 1176v143h108v176h156v-176h151v-143h-151v-302q119 170 337 170t337 -126t118 -349v-569h-159v569q0 154 -79 243t-223 89q-145 0 -237 -96t-92 -238v-567h-158v1176h-108z" />
    <glyph glyph-name="Itilde" unicode="&#x128;" horiz-adv-x="491" 
d="M-94 1614q0 110 56 178t138 68t172 -56q92 -56 131 -57q80 0 80 106h127q0 -115 -53 -181q-108 -135 -338 1q-78 45 -110 45q-76 0 -76 -104h-127zM166 0v1495h160v-1495h-160z" />
    <glyph glyph-name="itilde" unicode="&#x129;" horiz-adv-x="434" 
d="M-135 1143q0 111 56 179q55 68 137 67t174 -57t130 -56q80 0 80 106h127q0 -116 -53 -182q-108 -135 -338 2q-78 45 -110 45q-76 0 -76 -104h-127zM137 0v1024h160v-1024h-160z" />
    <glyph glyph-name="Imacron" unicode="&#x12a;" horiz-adv-x="491" 
d="M-29 1614v137h541v-137h-541zM166 0v1495h160v-1495h-160z" />
    <glyph glyph-name="imacron" unicode="&#x12b;" horiz-adv-x="434" 
d="M-55 1143v137h540v-137h-540zM137 0v1024h160v-1024h-160z" />
    <glyph glyph-name="Ibreve" unicode="&#x12c;" horiz-adv-x="491" 
d="M569 1939q-1 -141 -91 -237t-246 -96t-240 94t-84 239h135q0 -98 50 -155t145 -60q92 2 142 60t50 155h139zM166 0v1495h160v-1495h-160z" />
    <glyph glyph-name="ibreve" unicode="&#x12d;" horiz-adv-x="434" 
d="M549 1464q0 -142 -91 -238t-247 -96t-240 94t-84 240h136q0 -98 50 -155t144 -60q92 1 142 59t51 156h139zM137 0v1024h160v-1024h-160z" />
    <glyph glyph-name="Iogonek" unicode="&#x12e;" horiz-adv-x="491" 
d="M259 -444q-120 0 -182 64t-63 159q0 129 152 254v1462h160v-1495q-162 -129 -162 -215q0 -41 28 -68t84 -27t119 54l90 -111q-106 -77 -226 -77z" />
    <glyph glyph-name="iogonek" unicode="&#x12f;" horiz-adv-x="434" 
d="M137 1202v293h160v-293h-160zM231 -444q-120 0 -183 64q-62 65 -62 159q0 129 151 254v991h160v-1024q-162 -129 -162 -215q0 -41 28 -68q29 -27 85 -27t119 54l90 -111q-106 -77 -226 -77z" />
    <glyph glyph-name="Idotaccent" unicode="&#x130;" horiz-adv-x="491" 
d="M166 1628v285h158v-285h-158zM166 0v1495h160v-1495h-160z" />
    <glyph glyph-name="dotlessi" unicode="&#x131;" horiz-adv-x="434" 
d="M137 0v1024h160v-1024h-160z" />
    <glyph glyph-name="IJ" unicode="&#x132;" horiz-adv-x="1181" 
d="M127 0v1495h160v-1495h-160zM481 0v150h193q221 0 221 260v1085h160v-1087q0 -408 -373 -408h-201z" />
    <glyph glyph-name="ij" unicode="&#x133;" horiz-adv-x="786" 
d="M489 1202v293h160v-293h-160zM137 1202v293h160v-293h-160zM137 0v1024h160v-1024h-160zM137 -469v152h107q156 0 200 43t45 198v1100h160v-1102q0 -223 -83 -307t-298 -84h-131z" />
    <glyph glyph-name="Jcircumflex" unicode="&#x134;" horiz-adv-x="960" 
d="M426 1614l244 332h135l244 -332h-164l-148 205l-145 -205h-166zM444 -20q-127 0 -226 58t-150 152l143 95q80 -160 229 -160q102 0 162 70q59 70 60 194v1106h159v-1102q1 -195 -101 -304t-276 -109z" />
    <glyph glyph-name="jcircumflex" unicode="&#x135;" horiz-adv-x="436" 
d="M-98 1143l243 332h136l243 -332h-164l-147 205l-145 -205h-166zM-109 -469v152q156 0 201 43t45 198v1100h162v-1102q0 -227 -81 -309t-302 -82h-25z" />
    <glyph glyph-name="Kcommaaccent" unicode="&#x136;" horiz-adv-x="1323" 
d="M639 -541h-109l84 418h146zM307 0h-160v1495h160v-823l707 823h196l-510 -598l576 -897h-184l-504 788l-281 -329v-459z" />
    <glyph glyph-name="kcommaaccent" unicode="&#x137;" horiz-adv-x="1097" 
d="M516 -520h-108l84 418h145zM295 0h-156v1495h156v-1028l545 557h200l-424 -434l426 -590h-184l-356 496l-207 -211v-285z" />
    <glyph glyph-name="kgreenlandic" unicode="&#x138;" horiz-adv-x="1097" 
d="M295 0h-156v1024h156v-557l545 557h200l-424 -434l426 -590h-184l-356 496l-207 -211v-285z" />
    <glyph glyph-name="Lacute" unicode="&#x139;" horiz-adv-x="1091" 
d="M137 1614l240 332h205l-297 -332h-148zM147 0v1495h160v-1341h668v-154h-828z" />
    <glyph glyph-name="lacute" unicode="&#x13a;" horiz-adv-x="438" 
d="M139 0v1495h160v-1495h-160zM143 1593l240 332h205l-297 -332h-148z" />
    <glyph glyph-name="Lcommaaccent" unicode="&#x13b;" horiz-adv-x="1091" 
d="M508 -541h-109l84 418h146zM147 0v1495h160v-1341h668v-154h-828z" />
    <glyph glyph-name="lcommaaccent" unicode="&#x13c;" horiz-adv-x="438" 
d="M139 0v1495h160v-1495h-160zM182 -520h-108l84 418h145z" />
    <glyph glyph-name="Lcaron" unicode="&#x13d;" horiz-adv-x="1091" 
d="M598 1118l84 377h145l-120 -377h-109zM147 0v1495h160v-1341h668v-154h-828z" />
    <glyph glyph-name="lcaron" unicode="&#x13e;" horiz-adv-x="503" 
d="M424 1118l84 377h145l-121 -377h-108zM127 0v1495h160v-1495h-160z" />
    <glyph glyph-name="Ldot" unicode="&#x13f;" horiz-adv-x="1099" 
d="M817 594v285h158v-285h-158zM147 0v1495h160v-1341h668v-154h-828z" />
    <glyph glyph-name="ldot" unicode="&#x140;" horiz-adv-x="737" 
d="M500 414v284h157v-284h-157zM139 0v1495h160v-1495h-160z" />
    <glyph glyph-name="Lslash" unicode="&#x141;" horiz-adv-x="1148" 
d="M205 1495h160v-563l190 55v-115l-190 -55v-663h667v-154h-827v770l-178 -51v115l178 51v610z" />
    <glyph glyph-name="lslash" unicode="&#x142;" horiz-adv-x="579" 
d="M209 1495h162v-639l184 55v-118l-184 -54v-739h-162v692l-184 -53v117l184 53v686z" />
    <glyph glyph-name="Nacute" unicode="&#x143;" horiz-adv-x="1513" 
d="M686 1614l240 332h204l-296 -332h-148zM147 0v1495h179l880 -1241v1241h160v-1495h-170l-889 1251v-1251h-160z" />
    <glyph glyph-name="nacute" unicode="&#x144;" horiz-adv-x="1218" 
d="M524 1143l240 332h205l-297 -332h-148zM137 0v1024h156v-152q119 172 337 172t337 -126t118 -349v-569h-159v569q0 154 -79 243t-223 89t-237 -96q-92 -96 -92 -238v-567h-158z" />
    <glyph glyph-name="Ncommaaccent" unicode="&#x145;" horiz-adv-x="1513" 
d="M700 -541h-108l84 418h145zM147 0v1495h179l880 -1241v1241h160v-1495h-170l-889 1251v-1251h-160z" />
    <glyph glyph-name="ncommaaccent" unicode="&#x146;" horiz-adv-x="1218" 
d="M586 -520h-109l84 418h146zM137 0v1024h156v-152q119 172 337 172t337 -126t118 -349v-569h-159v569q0 154 -79 243t-223 89t-237 -96q-92 -96 -92 -238v-567h-158z" />
    <glyph glyph-name="Ncaron" unicode="&#x147;" horiz-adv-x="1513" 
d="M690 1614l-244 332h164l146 -205l147 205h164l-244 -332h-133zM147 0v1495h179l880 -1241v1241h160v-1495h-170l-889 1251v-1251h-160z" />
    <glyph glyph-name="ncaron" unicode="&#x148;" horiz-adv-x="1218" 
d="M535 1143l-244 332h164l145 -205l148 205h163l-243 -332h-133zM137 0v1024h156v-152q119 172 337 172t337 -126t118 -349v-569h-159v569q0 154 -79 243t-223 89t-237 -96q-92 -96 -92 -238v-567h-158z" />
    <glyph glyph-name="Eng" unicode="&#x14a;" horiz-adv-x="1513" 
d="M942 -449v154h43q127 0 174 56t47 200v39l-899 1251v-1251h-160v1495h179l880 -1227v1227h160v-1536q0 -205 -85 -306t-282 -102h-57z" />
    <glyph glyph-name="eng" unicode="&#x14b;" horiz-adv-x="1218" 
d="M678 -469v152q156 0 202 43t46 198v645q0 154 -79 243t-223 89t-237 -96q-92 -96 -92 -238v-567h-158v1024h156v-152q119 172 337 172t337 -126t118 -349v-647q-1 -227 -81 -309t-302 -82h-24z" />
    <glyph glyph-name="Omacron" unicode="&#x14c;" horiz-adv-x="1740" 
d="M870 131q256 0 430 180q174 181 174 437t-174 436t-430 180t-430 -180t-174 -436t174 -436t430 -181zM870 -20q-317 0 -542 225q-226 225 -226 543t226 542q226 226 542 226t542 -226t226 -542q0 -317 -225 -543q-226 -225 -543 -225zM592 1614v137h541v-137h-541z" />
    <glyph glyph-name="omacron" unicode="&#x14d;" horiz-adv-x="1259" 
d="M629 123q157 0 265 114q108 113 108 275t-110 276q-108 114 -264 113q-156 0 -262 -114q-108 -113 -108 -275t108 -276t263 -113zM630 -20q-222 0 -377 154t-155 378q0 225 155 379q155 153 377 153t377 -154t155 -378q0 -225 -155 -379q-155 -153 -377 -153zM362 1143
v137h541v-137h-541z" />
    <glyph glyph-name="Obreve" unicode="&#x14e;" horiz-adv-x="1740" 
d="M1192 1942q0 -142 -91 -238t-247 -96t-240 94t-84 240h136q0 -98 50 -156t144 -60q92 2 142 60t51 156h139zM870 131q256 0 430 180q174 181 174 437t-174 436t-430 180t-430 -180t-174 -436t174 -436t430 -181zM870 -20q-317 0 -542 225q-226 225 -226 543t226 542
q226 226 542 226t542 -226t226 -542q0 -317 -225 -543q-226 -225 -543 -225z" />
    <glyph glyph-name="obreve" unicode="&#x14f;" horiz-adv-x="1259" 
d="M963 1464q0 -142 -91 -238t-247 -96t-240 94t-84 240h135q0 -98 50 -155t145 -60q92 1 142 59t50 156h140zM629 123q157 0 265 114q108 113 108 275t-110 276q-108 114 -264 113q-156 0 -262 -114q-108 -113 -108 -275t108 -276t263 -113zM630 -20q-222 0 -377 154
t-155 378q0 225 155 379q155 153 377 153t377 -154t155 -378q0 -225 -155 -379q-155 -153 -377 -153z" />
    <glyph glyph-name="Ohungarumlaut" unicode="&#x150;" horiz-adv-x="1740" 
d="M870 131q256 0 430 180q174 181 174 437t-174 436t-430 180t-430 -180t-174 -436t174 -436t430 -181zM870 -20q-317 0 -542 225q-226 225 -226 543t226 542q226 226 542 226t542 -226t226 -542q0 -317 -225 -543q-226 -225 -543 -225zM918 1614l241 332h193l-297 -332
h-137zM627 1614l239 332h193l-297 -332h-135z" />
    <glyph glyph-name="ohungarumlaut" unicode="&#x151;" horiz-adv-x="1259" 
d="M629 123q157 0 265 114q108 113 108 275t-110 276q-108 114 -264 113q-156 0 -262 -114q-108 -113 -108 -275t108 -276t263 -113zM630 -20q-222 0 -377 154t-155 378q0 225 155 379q155 153 377 153t377 -154t155 -378q0 -225 -155 -379q-155 -153 -377 -153zM702 1143
l242 332h193l-297 -332h-138zM412 1143l239 332h193l-297 -332h-135z" />
    <glyph glyph-name="OE" unicode="&#x152;" horiz-adv-x="2506" 
d="M262 749q0 -253 177 -433t426 -179q249 0 425 170t187 416v49q-11 246 -187 417t-425 171t-426 -179t-177 -432zM1477 0v297q-100 -147 -259 -232t-350 -85q-317 0 -541 225q-225 225 -225 543t224 542q224 225 542 226q190 0 350 -85t259 -233v297h907v-152h-748v-518
h748v-151h-748v-520h748v-154h-907z" />
    <glyph glyph-name="oe" unicode="&#x153;" horiz-adv-x="2164" 
d="M1546 903q-142 0 -244 -83q-101 -83 -133 -214h732q-23 139 -118 218t-237 79zM629 123q157 0 265 114q108 113 108 275t-110 276q-108 114 -264 113q-156 0 -262 -114q-108 -113 -108 -275t108 -276t263 -113zM629 -20q-221 0 -376 154t-155 378q0 225 155 379t376 153
q143 0 263 -68t191 -181q70 117 189 183t266 66q225 0 375 -142t149 -374v-65h-901q14 -152 123 -247t264 -95q240 0 346 211l138 -68q-150 -285 -484 -284q-158 0 -280 66t-189 179q-71 -113 -191 -179t-259 -66z" />
    <glyph glyph-name="Racute" unicode="&#x154;" horiz-adv-x="1216" 
d="M449 1614l239 332h205l-297 -332h-147zM147 0v1495h459q216 0 362 -137t146 -338q0 -162 -99 -290t-267 -165l378 -565h-186l-451 684h103q162 0 262 101t100 239t-98 231q-98 92 -262 93h-287v-1348h-160z" />
    <glyph glyph-name="racute" unicode="&#x155;" horiz-adv-x="796" 
d="M356 1143l240 332h205l-297 -332h-148zM137 0v1024h158v-147q86 147 285 147h127v-147h-127q-154 0 -219 -82t-64 -265v-530h-160z" />
    <glyph glyph-name="Rcommaaccent" unicode="&#x156;" horiz-adv-x="1216" 
d="M575 -541h-108l84 418h145zM147 0v1495h459q216 0 362 -137t146 -338q0 -162 -99 -290t-267 -165l378 -565h-186l-451 684h103q162 0 262 101t100 239t-98 231q-98 92 -262 93h-287v-1348h-160z" />
    <glyph glyph-name="rcommaaccent" unicode="&#x157;" horiz-adv-x="796" 
d="M178 -520h-108l84 418h145zM137 0v1024h158v-147q86 147 285 147h127v-147h-127q-154 0 -219 -82t-64 -265v-530h-160z" />
    <glyph glyph-name="Rcaron" unicode="&#x158;" horiz-adv-x="1216" 
d="M500 1614l-244 332h164l145 -205l148 205h164l-244 -332h-133zM147 0v1495h459q216 0 362 -137t146 -338q0 -162 -99 -290t-267 -165l378 -565h-186l-451 684h103q162 0 262 101t100 239t-98 231q-98 92 -262 93h-287v-1348h-160z" />
    <glyph glyph-name="rcaron" unicode="&#x159;" horiz-adv-x="796" 
d="M352 1143l-243 332h163l146 -205l147 205h164l-244 -332h-133zM137 0v1024h158v-147q86 147 285 147h127v-147h-127q-154 0 -219 -82t-64 -265v-530h-160z" />
    <glyph glyph-name="Sacute" unicode="&#x15a;" horiz-adv-x="1153" 
d="M575 -20q-336 0 -528 274l135 102q150 -231 393 -231q139 0 229 80q89 80 89 189t-72 181q-56 56 -221 113q-166 58 -226 84t-128 75q-137 97 -136 271t132 286t327 112q291 0 463 -226l-127 -94q-113 178 -338 178q-125 0 -210 -70t-85 -167q0 -96 70 -166
q47 -47 176 -94q33 -12 111 -39t126 -46q48 -20 111 -58q64 -38 100 -79q90 -101 89 -260q1 -159 -135 -287t-345 -128zM496 1614l239 332h205l-297 -332h-147z" />
    <glyph glyph-name="sacute" unicode="&#x15b;" horiz-adv-x="972" 
d="M258 752q0 -66 65 -100t173 -57t157 -39t107 -50q116 -67 114 -211q0 -117 -99 -216t-294 -99q-268 0 -428 196l125 103q129 -160 309 -160q111 0 171 50q60 49 60 111t-38 94q-39 32 -78 43t-87 23t-56 13q-9 2 -51 12q-106 25 -195 77q-111 65 -111 196q0 132 104 220
t269 89q117 0 220 -41t169 -117l-116 -98q-109 121 -273 120q-101 0 -159 -46q-58 -47 -58 -113zM387 1143l240 332h204l-296 -332h-148z" />
    <glyph glyph-name="Scircumflex" unicode="&#x15c;" horiz-adv-x="1153" 
d="M272 1614l244 332h135l244 -332h-164l-147 205l-146 -205h-166zM575 -20q-336 0 -528 274l135 102q150 -231 393 -231q139 0 229 80q89 80 89 189t-72 181q-56 56 -221 113q-166 58 -226 84t-128 75q-137 97 -136 271t132 286t327 112q291 0 463 -226l-127 -94
q-113 178 -338 178q-125 0 -210 -70t-85 -167q0 -96 70 -166q47 -47 176 -94q33 -12 111 -39t126 -46q48 -20 111 -58q64 -38 100 -79q90 -101 89 -260q1 -159 -135 -287t-345 -128z" />
    <glyph glyph-name="scircumflex" unicode="&#x15d;" horiz-adv-x="972" 
d="M166 1143l244 332h135l243 -332h-163l-148 205l-145 -205h-166zM258 752q0 -66 65 -100t173 -57t157 -39t107 -50q116 -67 114 -211q0 -117 -99 -216t-294 -99q-268 0 -428 196l125 103q129 -160 309 -160q111 0 171 50q60 49 60 111t-38 94q-39 32 -78 43t-87 23t-56 13
q-9 2 -51 12q-106 25 -195 77q-111 65 -111 196q0 132 104 220t269 89q117 0 220 -41t169 -117l-116 -98q-109 121 -273 120q-101 0 -159 -46q-58 -47 -58 -113z" />
    <glyph glyph-name="Scedilla" unicode="&#x15e;" horiz-adv-x="1153" 
d="M588 -479q-178 0 -299 114l125 76q92 -73 162 -73t111 24q40 24 40 59q0 74 -145 74h-84v189q-281 27 -451 270l135 102q150 -231 393 -231q139 0 229 80q89 80 89 189t-72 181q-56 56 -221 113q-166 58 -226 84t-128 75q-137 97 -136 271t132 286t327 112
q291 0 463 -226l-127 -94q-113 178 -338 178q-125 0 -210 -70t-85 -167q0 -96 70 -166q47 -47 176 -94q33 -12 111 -39t126 -46q48 -20 111 -58q64 -38 100 -79q90 -101 89 -254q0 -153 -118 -277t-306 -142v-88q109 0 177 -48t66 -128q0 -80 -83 -139q-84 -58 -203 -58z
" />
    <glyph glyph-name="scedilla" unicode="&#x15f;" horiz-adv-x="972" 
d="M258 752q0 -66 65 -100t173 -57t157 -39t107 -50q116 -67 114 -211q0 -109 -86 -204t-253 -109v-88q109 0 177 -48t66 -128q0 -80 -84 -138t-202 -59q-178 0 -299 114l124 76q92 -73 163 -73t111 24t40 59q0 74 -146 74h-84v191q-215 25 -348 190l125 103
q129 -160 309 -160q111 0 171 50q60 49 60 111t-38 94q-39 32 -78 43t-87 23t-56 13q-9 2 -51 12q-106 25 -195 77q-111 65 -111 196q0 132 104 220t269 89q117 0 220 -41t169 -117l-116 -98q-109 121 -273 120q-101 0 -159 -46q-58 -47 -58 -113z" />
    <glyph glyph-name="Scaron" unicode="&#x160;" horiz-adv-x="1153" 
d="M522 1614l-243 332h163l146 -205l147 205h164l-244 -332h-133zM575 -20q-336 0 -528 274l135 102q150 -231 393 -231q139 0 229 80q89 80 89 189t-72 181q-56 56 -221 113q-166 58 -226 84t-128 75q-137 97 -136 271t132 286t327 112q291 0 463 -226l-127 -94
q-113 178 -338 178q-125 0 -210 -70t-85 -167q0 -96 70 -166q47 -47 176 -94q33 -12 111 -39t126 -46q48 -20 111 -58q64 -38 100 -79q90 -101 89 -260q1 -159 -135 -287t-345 -128z" />
    <glyph glyph-name="scaron" unicode="&#x161;" horiz-adv-x="972" 
d="M406 1143l-244 332h164l145 -205l147 205h164l-243 -332h-133zM258 752q0 -66 65 -100t173 -57t157 -39t107 -50q116 -67 114 -211q0 -117 -99 -216t-294 -99q-268 0 -428 196l125 103q129 -160 309 -160q111 0 171 50q60 49 60 111t-38 94q-39 32 -78 43t-87 23t-56 13
q-9 2 -51 12q-106 25 -195 77q-111 65 -111 196q0 132 104 220t269 89q117 0 220 -41t169 -117l-116 -98q-109 121 -273 120q-101 0 -159 -46q-58 -47 -58 -113z" />
    <glyph glyph-name="Tcommaaccent" unicode="&#x162;" horiz-adv-x="1247" 
d="M545 0v1348h-451v147h1059v-147h-448v-1348h-160zM575 -541h-108l84 418h145z" />
    <glyph glyph-name="tcommaaccent" unicode="&#x163;" horiz-adv-x="743" 
d="M375 -520h-109l84 418h146zM70 881v143h176v242l160 88v-330h241v-143h-241v-488q0 -155 44 -199t197 -44v-150h-22q-223 0 -301 81t-78 310v490h-176z" />
    <glyph glyph-name="Tcaron" unicode="&#x164;" horiz-adv-x="1247" 
d="M547 1614l-244 332h164l145 -205l148 205h164l-244 -332h-133zM545 0v1348h-451v147h1059v-147h-448v-1348h-160z" />
    <glyph glyph-name="tcaron" unicode="&#x165;" horiz-adv-x="743" 
d="M512 1139l84 377h145l-120 -377h-109zM70 881v143h176v242l160 88v-330h241v-143h-241v-488q0 -155 44 -199t197 -44v-150h-22q-223 0 -301 81t-78 310v490h-176z" />
    <glyph glyph-name="Tbar" unicode="&#x166;" horiz-adv-x="1247" 
d="M352 772v148h193v428h-451v147h1059v-147h-448v-428h188v-148h-188v-772h-160v772h-193z" />
    <glyph glyph-name="tbar" unicode="&#x167;" horiz-adv-x="743" 
d="M70 881v143h176v242l160 88v-330h241v-143h-241v-279h233v-137h-233v-72q0 -155 44 -199t197 -44v-150h-22q-223 0 -301 81t-78 310v74h-148v137h148v279h-176z" />
    <glyph glyph-name="Utilde" unicode="&#x168;" horiz-adv-x="1296" 
d="M297 1614q0 110 56 178q55 68 137 68t174 -56t131 -57q80 0 79 106h127q0 -115 -53 -181q-108 -135 -338 1q-78 45 -110 45q-76 0 -76 -104h-127zM647 -20q-219 0 -363 145t-145 362v1008h160v-1016q0 -143 100 -245q99 -102 247 -103q148 0 250 102q101 102 101 246
v1016h160v-1008q1 -215 -145 -361t-365 -146z" />
    <glyph glyph-name="utilde" unicode="&#x169;" horiz-adv-x="1218" 
d="M248 1143q0 111 56 179t138 67t172 -57q92 -56 131 -56q80 0 80 106h127q0 -116 -53 -182q-108 -135 -338 2q-78 45 -110 45q-76 0 -76 -104h-127zM586 -20q-221 0 -337 124t-116 351v569h160v-569q0 -154 79 -243t223 -89t236 96t93 238v567h157v-1024h-155v152
q-119 -172 -340 -172z" />
    <glyph glyph-name="Umacron" unicode="&#x16a;" horiz-adv-x="1296" 
d="M373 1614v137h540v-137h-540zM647 -20q-219 0 -363 145t-145 362v1008h160v-1016q0 -143 100 -245q99 -102 247 -103q148 0 250 102q101 102 101 246v1016h160v-1008q1 -215 -145 -361t-365 -146z" />
    <glyph glyph-name="umacron" unicode="&#x16b;" horiz-adv-x="1218" 
d="M332 1143v137h540v-137h-540zM586 -20q-221 0 -337 124t-116 351v569h160v-569q0 -154 79 -243t223 -89t236 96t93 238v567h157v-1024h-155v152q-119 -172 -340 -172z" />
    <glyph glyph-name="Ubreve" unicode="&#x16c;" horiz-adv-x="1296" 
d="M633 1606q-156 0 -240 94t-84 239h135q0 -98 50 -155t145 -60q92 2 142 60t50 155h140q0 -141 -91 -237t-247 -96zM647 -20q-219 0 -363 145t-145 362v1008h160v-1016q0 -143 100 -245q99 -102 247 -103q148 0 250 102q101 102 101 246v1016h160v-1008q1 -215 -145 -361
t-365 -146z" />
    <glyph glyph-name="ubreve" unicode="&#x16d;" horiz-adv-x="1218" 
d="M930 1464q0 -142 -91 -238t-247 -96t-240 94t-84 240h135q1 -98 51 -155t144 -60q92 1 142 59t51 156h139zM586 -20q-221 0 -337 124t-116 351v569h160v-569q0 -154 79 -243t223 -89t236 96t93 238v567h157v-1024h-155v152q-119 -172 -340 -172z" />
    <glyph glyph-name="Uring" unicode="&#x16e;" horiz-adv-x="1296" 
d="M647 -20q-219 0 -363 145t-145 362v1008h160v-1016q0 -143 100 -245q99 -102 247 -103q148 0 250 102q101 102 101 246v1016h160v-1008q1 -215 -145 -361t-365 -146zM638 1729q40 1 70 29t30 68t-30 70t-70 29q-40 0 -69 -30q-29 -29 -29 -69t29 -69q29 -28 69 -28z
M639 1606q-92 0 -156 64q-63 65 -63 156q0 92 63 156t155 64t158 -64q64 -64 64 -155q0 -92 -64 -157q-65 -64 -157 -64z" />
    <glyph glyph-name="uring" unicode="&#x16f;" horiz-adv-x="1218" 
d="M601 1257q40 0 70 29q29 29 29 69q0 39 -30 69t-69 30q-40 0 -69 -30q-28 -30 -28 -70t28 -68q28 -29 69 -29zM602 1135q-92 0 -156 64q-63 65 -63 156t63 155q64 64 156 65t157 -63t65 -156t-65 -157q-65 -64 -157 -64zM586 -20q-221 0 -337 124t-116 351v569h160v-569
q0 -154 79 -243t223 -89t236 96t93 238v567h157v-1024h-155v152q-119 -172 -340 -172z" />
    <glyph glyph-name="Uhungarumlaut" unicode="&#x170;" horiz-adv-x="1296" 
d="M686 1614l242 332h192l-297 -332h-137zM395 1614l240 332h192l-297 -332h-135zM647 -20q-219 0 -363 145t-145 362v1008h160v-1016q0 -143 100 -245q99 -102 247 -103q148 0 250 102q101 102 101 246v1016h160v-1008q1 -215 -145 -361t-365 -146z" />
    <glyph glyph-name="uhungarumlaut" unicode="&#x171;" horiz-adv-x="1218" 
d="M373 1143l239 332h193l-297 -332h-135zM664 1143l241 332h193l-297 -332h-137zM586 -20q-221 0 -337 124t-116 351v569h160v-569q0 -154 79 -243t223 -89t236 96t93 238v567h157v-1024h-155v152q-119 -172 -340 -172z" />
    <glyph glyph-name="Uogonek" unicode="&#x172;" horiz-adv-x="1296" 
d="M537 -223q-1 -89 125 -87q60 0 143 70l125 -86q-130 -114 -264 -114t-212 59t-77 148q0 123 151 227q-174 37 -282 173t-107 320v1008h160v-1016q0 -143 100 -245q99 -102 247 -103q148 0 250 102q101 102 101 246v1016h160v-1008q0 -180 -103 -315t-272 -176
q-150 -92 -198 -134t-47 -85z" />
    <glyph glyph-name="uogonek" unicode="&#x173;" horiz-adv-x="1218" 
d="M586 -20q-221 0 -337 124t-116 351v569h160v-569q0 -154 79 -243t223 -89t236 96t93 238v567h157v-1024q-162 -129 -161 -215q0 -41 28 -68t84 -27t119 54l90 -111q-106 -77 -226 -77t-182 64t-63 159q0 131 156 256v117q-119 -172 -340 -172z" />
    <glyph glyph-name="Wcircumflex" unicode="&#x174;" horiz-adv-x="2191" 
d="M774 1614l244 332h135l244 -332h-164l-148 205l-145 -205h-166zM512 0l-438 1495h170l356 -1247l414 1247h153l410 -1249l377 1249h164l-461 -1495h-162l-408 1245l-411 -1245h-164z" />
    <glyph glyph-name="wcircumflex" unicode="&#x175;" horiz-adv-x="1769" 
d="M573 1143l244 332h135l244 -332h-164l-147 205l-146 -205h-166zM412 0l-338 1024h168l258 -799l303 799h153l312 -803l262 803h166l-346 -1024h-154l-317 805l-310 -805h-157z" />
    <glyph glyph-name="Ycircumflex" unicode="&#x176;" horiz-adv-x="1267" 
d="M317 1614l244 332h135l244 -332h-164l-147 205l-146 -205h-166zM555 0v711l-496 784h179l397 -633l395 633h178l-493 -782v-713h-160z" />
    <glyph glyph-name="ycircumflex" unicode="&#x177;" horiz-adv-x="1146" 
d="M256 1143l244 332h135l244 -332h-164l-148 205l-145 -205h-166zM272 -473l232 532l-443 965h175l352 -782l325 782h172l-645 -1497h-168z" />
    <glyph glyph-name="Ydieresis" unicode="&#x178;" horiz-adv-x="1267" 
d="M692 1628v285h158v-285h-158zM418 1628v285h157v-285h-157zM555 0v711l-496 784h179l397 -633l395 633h178l-493 -782v-713h-160z" />
    <glyph glyph-name="Zacute" unicode="&#x179;" horiz-adv-x="1234" 
d="M520 1614l240 332h205l-297 -332h-148zM123 0v147l801 1196h-777v152h965v-145l-801 -1196h801v-154h-989z" />
    <glyph glyph-name="zacute" unicode="&#x17a;" horiz-adv-x="1093" 
d="M465 1143l240 332h204l-297 -332h-147zM102 0v152l689 725h-670v147h864v-152l-690 -727h696v-145h-889z" />
    <glyph glyph-name="Zdotaccent" unicode="&#x17b;" horiz-adv-x="1234" 
d="M549 1628v285h158v-285h-158zM123 0v147l801 1196h-777v152h965v-145l-801 -1196h801v-154h-989z" />
    <glyph glyph-name="zdotaccent" unicode="&#x17c;" horiz-adv-x="1093" 
d="M483 1157v285h158v-285h-158zM102 0v152l689 725h-670v147h864v-152l-690 -727h696v-145h-889z" />
    <glyph glyph-name="Zcaron" unicode="&#x17d;" horiz-adv-x="1234" 
d="M553 1614l-244 332h164l145 -205l148 205h164l-244 -332h-133zM123 0v147l801 1196h-777v152h965v-145l-801 -1196h801v-154h-989z" />
    <glyph glyph-name="zcaron" unicode="&#x17e;" horiz-adv-x="1093" 
d="M494 1143l-244 332h164l145 -205l148 205h163l-243 -332h-133zM102 0v152l689 725h-670v147h864v-152l-690 -727h696v-145h-889z" />
    <glyph glyph-name="florin" unicode="&#x192;" 
d="M229 696v142h328l86 260q70 223 168 310t260 87h12v-145q-105 0 -169 -56t-111 -211l-82 -245h291v-142h-336l-98 -299q-74 -229 -164 -313t-279 -84h-14v147q127 -1 185 53t112 214l92 282h-281z" />
    <glyph glyph-name="Aringacute" unicode="&#x1fa;" horiz-adv-x="1443" 
d="M710 1511q40 0 70 29t29 69q0 39 -30 69q-29 30 -69 30t-69 -30t-29 -70t29 -68q29 -29 69 -29zM627 1886l239 332h205l-297 -332h-147zM721 1280l-283 -750h568zM710 1829q92 1 158 -63q64 -64 64 -170t-98 -171l540 -1425h-166l-145 379h-682l-143 -379h-168l534 1415
q-113 61 -112 193q0 92 63 156t155 65z" />
    <glyph glyph-name="aringacute" unicode="&#x1fb;" horiz-adv-x="1294" 
d="M644 1251q40 0 70 29t30 69q0 39 -30 69t-70 30t-69 -30t-29 -70t30 -68q28 -29 68 -29zM559 1626l240 332h205l-297 -332h-148zM426 1349q0 91 63 155t155 65t158 -63q64 -64 64 -156t-64 -157t-157 -65q-92 0 -156 65q-63 65 -63 156zM635 123q159 0 269 114
q110 113 110 275t-111 276t-269 113q-158 0 -268 -114q-108 -113 -108 -275t108 -276t269 -113zM623 -20q-223 0 -374 156t-151 377q0 222 150 377t375 154q102 0 207 -50t169 -138v168h158v-1024h-158v168q-63 -88 -169 -138t-207 -50z" />
    <glyph glyph-name="AEacute" unicode="&#x1fc;" horiz-adv-x="2254" 
d="M1165 1614l240 332h205l-297 -332h-148zM924 1255l-351 -737h521zM2036 1495v-152h-971l121 -518h850v-151h-815l120 -520h695v-154h-822l-86 371h-624l-176 -371h-181l709 1495h1180z" />
    <glyph glyph-name="aeacute" unicode="&#x1fd;" horiz-adv-x="1966" 
d="M872 1143l240 332h205l-297 -332h-148zM1346 903q-142 0 -243 -83t-132 -214h731q-23 139 -118 218q-96 79 -238 79zM476 111q122 0 220 82t127 176q-14 59 -14 107t4 89q-29 -42 -148 -72q-44 -11 -162 -35t-186 -66t-67 -128q0 -153 226 -153zM1350 -20q-154 0 -274 62
t-189 173q-55 -98 -169 -167q-114 -68 -280 -68t-256 76q-90 77 -92 208t94 203t271 111q23 4 75 16t76 17q23 5 65 17t60 22t42 26q42 27 42 90q1 62 -67 106t-201 46q-133 0 -212 -68t-79 -174v-6h-147v4q0 170 118 270q119 100 322 100q141 0 243 -47t144 -133
q154 180 391 180t387 -142t150 -374v-65h-901q15 -152 123 -247t264 -95q240 0 346 211l137 -68q-149 -284 -483 -284z" />
    <glyph glyph-name="Oslashacute" unicode="&#x1fe;" horiz-adv-x="1740" 
d="M776 1614l240 332h205l-297 -332h-148zM870 131q256 0 430 180q174 181 174 437t-174 436l-741 -967q139 -86 311 -86zM266 746q0 -258 176 -439l742 969q-143 88 -314 88q-256 0 -430 -180t-174 -438zM102 748q0 317 226 542t542 226q219 0 408 -117l74 96h186
l-143 -188q243 -227 243 -551t-225 -550t-543 -226q-221 0 -405 114l-72 -94h-186l141 184q-118 106 -182 252t-64 312z" />
    <glyph glyph-name="oslashacute" unicode="&#x1ff;" horiz-adv-x="1259" 
d="M532 1143l240 332h205l-297 -332h-148zM629 901q-155 1 -263 -113t-108 -268t90 -264l459 598q-82 47 -178 47zM629 123q157 0 265 114t108 266t-93 265l-460 -598q82 -47 180 -47zM629 -20q-152 0 -271 71l-39 -51h-167l100 133q-154 150 -154 377t155 381t376 153
q141 0 268 -71l39 51h170l-102 -133q158 -152 158 -378t-155 -380q-155 -153 -378 -153z" />
    <glyph glyph-name="Scommaaccent" unicode="&#x218;" horiz-adv-x="1153" 
d="M575 -20q-336 0 -528 274l135 102q150 -231 393 -231q139 0 229 80q89 80 89 189t-72 181q-56 56 -221 113q-166 58 -226 84t-128 75q-137 97 -136 271t132 286t327 112q291 0 463 -226l-127 -94q-113 178 -338 178q-125 0 -210 -70t-85 -167q0 -96 70 -166
q47 -47 176 -94q33 -12 111 -39t126 -46q48 -20 111 -58q64 -38 100 -79q90 -101 89 -260q1 -159 -135 -287t-345 -128zM549 -520h-109l84 418h146z" />
    <glyph glyph-name="scommaaccent" unicode="&#x219;" horiz-adv-x="972" 
d="M258 752q0 -66 65 -100t173 -57t157 -39t107 -50q116 -67 114 -211q0 -117 -99 -216t-294 -99q-268 0 -428 196l125 103q129 -160 309 -160q111 0 171 50q60 49 60 111t-38 94q-39 32 -78 43t-87 23t-56 13q-9 2 -51 12q-106 25 -195 77q-111 65 -111 196q0 132 104 220
t269 89q117 0 220 -41t169 -117l-116 -98q-109 121 -273 120q-101 0 -159 -46q-58 -47 -58 -113zM438 -530h-108l84 417h145z" />
    <glyph glyph-name="dotlessj" unicode="&#x237;" horiz-adv-x="436" 
d="M-109 -469v152q156 0 201 43t45 198v1100h162v-1102q0 -227 -81 -309t-302 -82h-25z" />
    <glyph glyph-name="circumflex" unicode="&#x2c6;" horiz-adv-x="1019" 
d="M199 1143l243 332h136l243 -332h-164l-147 205l-145 -205h-166z" />
    <glyph glyph-name="caron" unicode="&#x2c7;" horiz-adv-x="1019" 
d="M442 1143l-243 332h163l146 -205l147 205h164l-244 -332h-133z" />
    <glyph glyph-name="breve" unicode="&#x2d8;" horiz-adv-x="1019" 
d="M840 1464q0 -142 -91 -238t-247 -96t-240 94t-84 240h135q1 -98 51 -155t144 -60q92 1 142 59t50 156h140z" />
    <glyph glyph-name="dotaccent" unicode="&#x2d9;" horiz-adv-x="1032" 
d="M418 1157v285h157v-285h-157z" />
    <glyph glyph-name="ring" unicode="&#x2da;" horiz-adv-x="1019" 
d="M505 1257q39 0 69 29t30 69q0 39 -30 69t-70 30t-68 -30t-28 -70t28 -68q28 -29 69 -29zM506 1135q-92 0 -156 64q-63 65 -63 156t63 155q64 64 156 65t157 -63t65 -156t-65 -157q-65 -64 -157 -64z" />
    <glyph glyph-name="ogonek" unicode="&#x2db;" horiz-adv-x="1019" 
d="M381 -227q1 -89 127 -87q60 0 141 70l125 -86q-129 -114 -263 -114t-212 59t-78 144t66 158t223 149l127 -68q-156 -94 -206 -138t-50 -87z" />
    <glyph glyph-name="tilde" unicode="&#x2dc;" horiz-adv-x="1019" 
d="M154 1143q0 111 56 179t137 67t173 -57t131 -56q80 0 80 106h127q0 -116 -53 -182q-108 -136 -338 2q-78 45 -111 45q-76 0 -75 -104h-127z" />
    <glyph glyph-name="hungarumlaut" unicode="&#x2dd;" horiz-adv-x="1019" 
d="M436 1143l242 332h192l-297 -332h-137zM145 1143l240 332h193l-297 -332h-136z" />
    <glyph glyph-name="uni0328" unicode="&#x328;" horiz-adv-x="1019" 
d="M577 -444q-120 0 -183 64q-62 65 -62 159q0 145 194 287l117 -66q-162 -129 -162 -215q0 -41 28 -68q29 -27 85 -27t119 54l90 -111q-106 -77 -226 -77z" />
    <glyph glyph-name="pi" unicode="&#x3c0;" horiz-adv-x="1538" 
d="M88 1339v156h1364v-156h-295v-929q0 -136 46 -198t155 -62h90v-150h-98q-186 0 -270 102q-83 102 -83 306v931h-481v-1339h-160v1339h-268z" />
    <glyph glyph-name="pi" unicode="&#x3d6;" horiz-adv-x="1538" 
d="M88 1339v156h1364v-156h-295v-929q0 -136 46 -198t155 -62h90v-150h-98q-186 0 -270 102q-83 102 -83 306v931h-481v-1339h-160v1339h-268z" />
    <glyph glyph-name="uni0E3F" unicode="&#xe3f;" horiz-adv-x="1081" 
d="M805 1026q0 80 -52 128t-147 54v-370q96 4 148 56q51 52 51 132zM285 1210v-372h182v372h-182zM823 485q0 188 -217 201v-405q98 4 158 61q59 57 59 143zM285 688v-407h182v407h-182zM127 135v1221h340v139h139v-141q164 -8 260 -96t97 -230q0 -182 -156 -260
q174 -80 174 -285q0 -158 -101 -250t-274 -98v-135h-139v135h-340z" />
    <glyph glyph-name="Wgrave" unicode="&#x1e80;" horiz-adv-x="2191" 
d="M1010 1614l-297 332h202l242 -332h-147zM512 0l-438 1495h170l356 -1247l414 1247h153l410 -1249l377 1249h164l-461 -1495h-162l-408 1245l-411 -1245h-164z" />
    <glyph glyph-name="wgrave" unicode="&#x1e81;" horiz-adv-x="1769" 
d="M809 1143l-297 332h203l241 -332h-147zM412 0l-338 1024h168l258 -799l303 799h153l312 -803l262 803h166l-346 -1024h-154l-317 805l-310 -805h-157z" />
    <glyph glyph-name="Wacute" unicode="&#x1e82;" horiz-adv-x="2191" 
d="M1001 1614l240 332h205l-297 -332h-148zM512 0l-438 1495h170l356 -1247l414 1247h153l410 -1249l377 1249h164l-461 -1495h-162l-408 1245l-411 -1245h-164z" />
    <glyph glyph-name="wacute" unicode="&#x1e83;" horiz-adv-x="1769" 
d="M807 1143l240 332h204l-297 -332h-147zM412 0l-338 1024h168l258 -799l303 799h153l312 -803l262 803h166l-346 -1024h-154l-317 805l-310 -805h-157z" />
    <glyph glyph-name="Wdieresis" unicode="&#x1e84;" horiz-adv-x="2191" 
d="M1151 1628v285h158v-285h-158zM877 1628v285h157v-285h-157zM512 0l-438 1495h170l356 -1247l414 1247h153l410 -1249l377 1249h164l-461 -1495h-162l-408 1245l-411 -1245h-164z" />
    <glyph glyph-name="wdieresis" unicode="&#x1e85;" horiz-adv-x="1769" 
d="M950 1157v285h158v-285h-158zM676 1157v285h158v-285h-158zM412 0l-338 1024h168l258 -799l303 799h153l312 -803l262 803h166l-346 -1024h-154l-317 805l-310 -805h-157z" />
    <glyph glyph-name="Ygrave" unicode="&#x1ef2;" horiz-adv-x="1267" 
d="M557 1614l-297 332h203l242 -332h-148zM555 0v711l-496 784h179l397 -633l395 633h178l-493 -782v-713h-160z" />
    <glyph glyph-name="ygrave" unicode="&#x1ef3;" horiz-adv-x="1146" 
d="M502 1143l-297 332h203l241 -332h-147zM272 -473l232 532l-443 965h175l352 -782l325 782h172l-645 -1497h-168z" />
    <glyph glyph-name="figuredash" unicode="&#x2012;" horiz-adv-x="1380" 
d="M106 442v140h1168v-140h-1168z" />
    <glyph glyph-name="endash" unicode="&#x2013;" horiz-adv-x="1073" 
d="M106 442v140h861v-140h-861z" />
    <glyph glyph-name="emdash" unicode="&#x2014;" horiz-adv-x="1482" 
d="M106 442v140h1270v-140h-1270z" />
    <glyph glyph-name="uni2015" unicode="&#x2015;" horiz-adv-x="2097" 
d="M106 442v140h1885v-140h-1885z" />
    <glyph glyph-name="doublebar" unicode="&#x2016;" horiz-adv-x="763" 
d="M477 -471v1966h160v-1966h-160zM127 -471v1966h160v-1966h-160z" />
    <glyph glyph-name="quoteleft" unicode="&#x2018;" horiz-adv-x="409" 
d="M233 1495l86 -418h-106l-133 418h153z" />
    <glyph glyph-name="quoteright" unicode="&#x2019;" horiz-adv-x="409" 
d="M193 1077h-107l86 418h154z" />
    <glyph glyph-name="quotesinglbase" unicode="&#x201a;" horiz-adv-x="411" 
d="M170 -240h-107l87 418h153z" />
    <glyph glyph-name="reversequoteleft" unicode="&#x201b;" horiz-adv-x="409" 
d="M193 1077h-107l86 418h154z" />
    <glyph glyph-name="quotedblleft" unicode="&#x201c;" horiz-adv-x="653" 
d="M479 1495l84 -418h-102l-127 418h145zM233 1495l86 -418h-102l-129 418h145z" />
    <glyph glyph-name="quotedblright" unicode="&#x201d;" horiz-adv-x="653" 
d="M438 1077h-106l86 418h153zM193 1077h-107l86 418h154z" />
    <glyph glyph-name="quotedblbase" unicode="&#x201e;" horiz-adv-x="655" 
d="M422 -240h-107l86 418h154zM176 -240h-106l86 418h153z" />
    <glyph glyph-name="reversequotedblleft" unicode="&#x201f;" horiz-adv-x="653" 
d="M438 1077h-106l86 418h153zM193 1077h-107l86 418h154z" />
    <glyph glyph-name="dagger" unicode="&#x2020;" horiz-adv-x="1179" 
d="M127 883v141h381v471h160v-471h387v-141h-387v-883h-160v883h-381z" />
    <glyph glyph-name="daggerdbl" unicode="&#x2021;" horiz-adv-x="1179" 
d="M127 942v139h381v414h160v-414h387v-139h-387v-373h387v-139h-387v-430h-160v430h-381v139h381v373h-381z" />
    <glyph glyph-name="bullet" unicode="&#x2022;" horiz-adv-x="686" 
d="M344 362q-61 0 -105 44t-44 106q0 61 44 105q44 45 105 45q62 0 106 -44t44 -106t-44 -106t-106 -44z" />
    <glyph glyph-name="ellipsis" unicode="&#x2026;" horiz-adv-x="1017" 
d="M731 0v281h160v-281h-160zM428 0v281h162v-281h-162zM127 0v281h160v-281h-160z" />
    <glyph glyph-name="perthousand" unicode="&#x2030;" horiz-adv-x="2582" 
d="M2101 111q86 0 148 62q61 63 61 153t-61 151t-147 61t-147 -60q-61 -62 -61 -152t60 -152t147 -63zM2101 -23q-143 -1 -244 101t-101 248t100 245q102 101 246 101t246 -102t101 -245q-1 -144 -103 -246t-245 -102zM481 954q87 0 147 62t60 153q0 89 -60 151t-146 62
t-148 -61t-62 -151t62 -154q62 -62 147 -62zM480 821q-144 -1 -246 101t-101 246q0 144 101 246q102 102 246 102t246 -102t101 -244q1 -144 -101 -246t-246 -103zM1296 111q86 0 148 62q61 63 61 153t-61 151q-62 61 -148 61t-146 -60q-60 -62 -60 -152t60 -152t146 -63z
M1297 -23q-144 -1 -245 101q-102 102 -102 248t100 245q100 101 246 101q144 0 246 -102t102 -245q0 -144 -101 -246q-102 -102 -246 -102zM145 0l1285 1495h202l-1284 -1495h-203z" />
    <glyph glyph-name="minute" unicode="&#x2032;" horiz-adv-x="409" 
d="M193 1077h-107l86 418h154z" />
    <glyph glyph-name="second" unicode="&#x2033;" horiz-adv-x="653" 
d="M438 1077h-106l86 418h153zM193 1077h-107l86 418h154z" />
    <glyph glyph-name="tripleprime" unicode="&#x2034;" horiz-adv-x="858" 
d="M600 1323v172h139v-172q0 -111 -45 -299h-49q-45 188 -45 299zM360 1495h140v-172q0 -111 -45 -299h-49q-45 188 -46 299v172zM121 1323v172h139v-172q0 -111 -45 -299h-49q-45 188 -45 299z" />
    <glyph glyph-name="guilsinglleft" unicode="&#x2039;" horiz-adv-x="598" 
d="M459 217l-318 244v102l318 244v-127l-223 -168l223 -168v-127z" />
    <glyph glyph-name="guilsinglright" unicode="&#x203a;" horiz-adv-x="598" 
d="M141 219v125l221 168l-221 170v127l318 -244v-102z" />
    <glyph glyph-name="fraction" unicode="&#x2044;" horiz-adv-x="1372" 
d="M55 0l1080 1495h186l-1079 -1495h-187z" />
    <glyph glyph-name="uni2070" unicode="&#x2070;" horiz-adv-x="995" 
d="M498 758q125 0 213 90t88 216t-88 215t-213 89t-212 -89t-87 -215t87 -216t212 -90zM498 618q-184 0 -314 130t-129 315q0 184 129 314q130 130 314 130t313 -130t129 -314q0 -185 -129 -315t-313 -130z" />
    <glyph glyph-name="uni2074" unicode="&#x2074;" horiz-adv-x="776" 
d="M444 961v317l-223 -317h223zM444 631v198h-378v132l372 534h148v-534h125v-132h-125v-198h-142z" />
    <glyph glyph-name="uni2075" unicode="&#x2075;" horiz-adv-x="700" 
d="M364 618q-116 0 -193 46t-114 116l131 80q53 -109 164 -108q63 0 107 43q43 43 43 111t-43 113q-43 44 -109 44q-104 0 -155 -96l-129 61l63 467h475v-135h-360l-29 -213q66 47 147 47q121 0 203 -77t82 -208t-84 -211q-83 -80 -199 -80z" />
    <glyph glyph-name="uni2076" unicode="&#x2076;" horiz-adv-x="722" 
d="M528 919q0 69 -50 117t-119 49q-69 0 -117 -49q-48 -48 -47 -118q-1 -70 47 -119t117 -49t119 50t50 119zM670 914q0 -128 -88 -212t-221 -84q-132 0 -219 86t-87 212q0 124 66 219l231 360h168l-190 -291q37 8 59 8q119 0 200 -85t81 -213z" />
    <glyph glyph-name="uni2077" unicode="&#x2077;" horiz-adv-x="669" 
d="M63 1358v137h541v-125l-317 -739h-154l320 727h-390z" />
    <glyph glyph-name="uni2078" unicode="&#x2078;" horiz-adv-x="692" 
d="M345 1153q48 0 77 31t29 79q0 47 -29 79t-77 32t-76 -32q-27 -32 -27 -80t28 -78q28 -31 75 -31zM344 750q59 0 96 38t37 96t-36 97t-96 39t-96 -39t-36 -96t36 -96t95 -39zM346 618q-125 0 -200 77q-74 77 -74 199t110 193q-84 61 -84 169t70 180t177 72t179 -72
t72 -178t-88 -168q110 -72 110 -195t-74 -200t-198 -77z" />
    <glyph glyph-name="uni2079" unicode="&#x2079;" horiz-adv-x="722" 
d="M362 1040q70 0 118 50t48 120t-48 119t-118 49t-118 -50t-49 -120q1 -70 49 -119t118 -49zM53 1211q0 128 88 212t219 84q132 0 220 -86t88 -208t-66 -222l-229 -360h-172l192 293q-27 -8 -59 -9q-117 0 -199 84t-82 212z" />
    <glyph glyph-name="uni207A" unicode="&#x207a;" horiz-adv-x="575" 
d="M70 1004v120h159v156h119v-156h158v-120h-158v-160h-119v160h-159z" />
    <glyph glyph-name="uni207B" unicode="&#x207b;" horiz-adv-x="575" 
d="M70 1004v120h436v-120h-436z" />
    <glyph glyph-name="uni207C" unicode="&#x207c;" horiz-adv-x="575" 
d="M70 901v121h436v-121h-436zM70 1098v121h436v-121h-436z" />
    <glyph glyph-name="uni207D" unicode="&#x207d;" horiz-adv-x="552" 
d="M203 1082q0 -274 260 -453l-92 -119q-315 219 -315 565t311 574l94 -117q-258 -176 -258 -450z" />
    <glyph glyph-name="uni207E" unicode="&#x207e;" horiz-adv-x="552" 
d="M350 1081q0 274 -258 451l94 117q152 -115 232 -250t80 -320q-1 -350 -316 -569l-92 119q260 178 260 452z" />
    <glyph glyph-name="uni2080" unicode="&#x2080;" horiz-adv-x="995" 
d="M498 127q125 0 213 90t88 216t-88 215t-213 89t-212 -89t-87 -215t87 -216t212 -90zM498 -12q-184 0 -314 130q-129 130 -129 314t129 314q130 130 314 130t313 -130t129 -314t-129 -314t-313 -130z" />
    <glyph glyph-name="uni2081" unicode="&#x2081;" horiz-adv-x="600" 
d="M66 0v137h172v502q-18 -29 -60 -48t-82 -20h-14v152h6q78 0 116 43t38 98h139v-727h164v-137h-479z" />
    <glyph glyph-name="uni2082" unicode="&#x2082;" horiz-adv-x="692" 
d="M72 0v135q0 68 39 130t78 96q41 35 137 101t123 102t27 79t-37 76q-36 33 -97 33q-106 0 -162 -123l-123 61q84 186 285 187q125 0 202 -70t77 -172q0 -63 -37 -121t-74 -89q-36 -30 -104 -76q-68 -47 -98 -69t-60 -62t-31 -81h406v-137h-551z" />
    <glyph glyph-name="uni2083" unicode="&#x2083;" horiz-adv-x="657" 
d="M41 731q79 146 285 146q106 0 181 -66q75 -65 75 -181t-105 -181q123 -66 123 -191q0 -126 -77 -198t-210 -72q-174 0 -278 123l123 92q59 -84 155 -84q63 0 104 36q40 36 40 94t-45 93t-119 35h-88v135h88q71 0 111 35t40 88t-37 85q-38 32 -102 32q-92 0 -143 -88z" />
    <glyph glyph-name="uni2084" unicode="&#x2084;" horiz-adv-x="776" 
d="M444 330v317l-223 -317h223zM444 0v199h-378v131l372 534h148v-534h125v-131h-125v-199h-142z" />
    <glyph glyph-name="uni2085" unicode="&#x2085;" horiz-adv-x="700" 
d="M647 278q0 -130 -84 -210q-83 -80 -199 -80t-193 46t-114 116l131 79q53 -109 164 -108q63 0 107 43q43 44 43 112t-43 112t-109 44q-104 0 -155 -96l-129 61l63 467h475v-135h-360l-29 -213q66 47 147 47q121 0 203 -77t82 -208z" />
    <glyph glyph-name="uni2086" unicode="&#x2086;" horiz-adv-x="722" 
d="M195 287q-1 -70 47 -119t117 -49t119 50t50 119t-50 118t-119 49t-117 -49t-47 -119zM670 284q0 -128 -88 -212t-221 -84q-132 0 -219 86t-87 211t66 219l231 360h168l-190 -291q37 8 59 9q119 0 200 -85t81 -213z" />
    <glyph glyph-name="uni2087" unicode="&#x2087;" horiz-adv-x="669" 
d="M63 727v137h541v-125l-317 -739h-154l320 727h-390z" />
    <glyph glyph-name="uni2088" unicode="&#x2088;" horiz-adv-x="692" 
d="M345 522q48 0 77 31t29 79t-29 80t-77 32t-76 -32q-27 -32 -27 -80t28 -79t75 -31zM344 119q59 0 96 39t37 96t-36 96t-96 39t-96 -39t-36 -96t36 -96t95 -39zM346 -12q-125 0 -200 77q-74 77 -74 199t110 193q-84 61 -84 169t70 179q70 72 177 72t179 -72
q72 -73 72 -179t-88 -167q110 -72 110 -195q0 -124 -74 -200t-198 -76z" />
    <glyph glyph-name="uni2089" unicode="&#x2089;" horiz-adv-x="722" 
d="M362 410q70 0 118 50t48 120t-48 118t-118 50q-70 0 -118 -50t-49 -120q1 -70 49 -119t118 -49zM334 285q-117 0 -199 84t-82 212t88 212t219 84q132 0 220 -86t88 -208t-66 -223l-229 -360h-172l192 293q-27 -8 -59 -8z" />
    <glyph glyph-name="uni208A" unicode="&#x208a;" horiz-adv-x="575" 
d="M70 373v121h159v155h119v-155h158v-121h-158v-160h-119v160h-159z" />
    <glyph glyph-name="uni208B" unicode="&#x208b;" horiz-adv-x="575" 
d="M70 373v121h436v-121h-436z" />
    <glyph glyph-name="uni208C" unicode="&#x208c;" horiz-adv-x="575" 
d="M70 270v121h436v-121h-436zM70 467v121h436v-121h-436z" />
    <glyph glyph-name="uni208D" unicode="&#x208d;" horiz-adv-x="552" 
d="M203 451q0 -274 260 -453l-92 -119q-315 219 -315 565t311 574l94 -117q-258 -176 -258 -450z" />
    <glyph glyph-name="uni208E" unicode="&#x208e;" horiz-adv-x="552" 
d="M350 450q0 274 -258 451l94 117q152 -115 232 -250t80 -319q-1 -351 -316 -570l-92 119q260 178 260 452z" />
    <glyph glyph-name="uni20A1" unicode="&#x20a1;" horiz-adv-x="1605" 
d="M575 205q53 -29 113 -47l465 1134q-49 29 -111 45zM264 734q0 -270 209 -455l442 1083l-47 2q-256 0 -430 -180t-174 -450zM100 748q0 317 226 542t542 226q59 0 107 -9l88 213h137l-100 -241q63 -20 110 -45l119 286h137l-145 -354q129 -94 213 -236l-137 -79
q-53 96 -137 168l-447 -1086q18 -2 55 -2q188 0 329 90q140 90 216 246l141 -74q-100 -190 -279 -302t-407 -111q-53 0 -114 10l-97 -236h-135l107 262q-53 16 -111 47l-127 -309h-133l154 375q-144 109 -228 269t-84 350z" />
    <glyph glyph-name="uni20A2" unicode="&#x20a2;" horiz-adv-x="1605" 
d="M868 -20q-317 0 -542 225q-226 225 -226 543t226 542q226 225 542 226q209 0 386 -104t280 -282l-137 -79q-78 143 -218 228t-311 85q-256 0 -430 -180t-174 -422t144 -416t364 -209v703h158v-148q86 147 284 148h136v-148h-136q-154 0 -218 -82t-64 -264v-213
q166 13 289 103t192 231l141 -74q-100 -190 -279 -302q-180 -111 -407 -111z" />
    <glyph glyph-name="franc" unicode="&#x20a3;" horiz-adv-x="1095" 
d="M127 0v1495h846v-152h-686v-350h686v-147h-686v-197h686v-147h-686v-502h-160z" />
    <glyph glyph-name="lira" unicode="&#x20a4;" horiz-adv-x="1390" 
d="M352 104q121 0 185 97q-106 96 -199 96q-115 0 -115 -96q0 -43 36 -70t93 -27zM145 598v129h297q-51 94 -69 147h-228v130h193q-8 43 -8 108q0 184 116 294q117 110 310 110q262 0 420 -203l-129 -99q-51 82 -120 122t-181 40t-186 -72q-73 -72 -73 -190q0 -53 11 -110
h460v-130h-421q25 -63 65 -147h356v-129h-299q81 -204 27 -373q130 -117 234 -117t152 61q48 60 48 202v41h162v-62q0 -371 -344 -370q-160 0 -309 133q-100 -133 -275 -133q-134 0 -202 61t-68 159t68 160t184 62t242 -98l2 36q0 98 -68 238h-367z" />
    <glyph glyph-name="uni20A6" unicode="&#x20a6;" horiz-adv-x="1689" 
d="M1294 537h-207l207 -291v291zM395 942h226l-226 318v-318zM1294 662v155h-405l110 -155h295zM395 817v-155h426l-110 155h-316zM72 817v125h164v553h172l391 -553h495v553h160v-553h164v-125h-164v-155h164v-125h-164v-537h-164l-381 537h-514v-537h-159v537h-164v125
h164v155h-164z" />
    <glyph glyph-name="peseta" unicode="&#x20a7;" horiz-adv-x="2619" 
d="M584 1348h-297v-734h297q180 0 286 104t107 263q-1 159 -107 263t-286 104zM2122 0h-461q-223 0 -301 81t-78 310v490h-154q-33 -184 -178 -300t-356 -116h-307v-465h-160v1495h467q227 0 377 -133t166 -338h145v242l160 88v-330h241v-143h-241v-488q0 -155 44 -199
t197 -44h445q113 0 172 43t59 116q0 45 -38 76t-87 45t-133 31q-145 28 -237 78q-115 63 -115 211q0 120 103 208t270 89q117 0 220 -41t169 -117l-117 -98q-109 121 -272 120q-102 0 -160 -46t-57 -102q0 -56 40 -88q41 -32 77 -43q50 -15 157 -37q196 -39 270 -108
t72 -178q0 -139 -95 -224t-304 -85z" />
    <glyph glyph-name="uni20A8" unicode="&#x20a8;" horiz-adv-x="2017" 
d="M1919 295q1 -133 -105 -227t-316 -93q-406 0 -654 207q-123 102 -212 220t-177 282h116q162 0 263 101q100 101 100 239t-98 231q-98 92 -263 93h-286v-1348h-160v1495h459q217 0 362 -137q146 -138 146 -322t-104 -313t-281 -162q92 -135 192 -228t251 -155
q150 -62 310 -63q160 0 231 51t70 129q0 47 -39 79t-91 47t-133 33q-267 60 -325 172q-28 52 -28 124q0 120 103 208t270 89q117 0 220 -41t169 -117l-117 -98q-109 121 -272 120q-102 0 -160 -46q-58 -47 -57 -113q0 -66 61 -98t186 -60l21 -4q258 -60 319 -169
q29 -52 29 -126z" />
    <glyph glyph-name="uni20A9" unicode="&#x20a9;" horiz-adv-x="2252" 
d="M553 537l82 -289l96 289h-178zM1516 537l96 -293l88 293h-184zM1122 1245l-100 -303h201zM473 817l43 -155h256l51 155h-350zM1423 817l52 -155h264l47 155h-363zM981 817l-51 -155h385l-51 155h-283zM72 817v125h198l-161 553h170l157 -553h428l185 553h153l180 -553
h441l166 553h163l-170 -553h199v-125h-237l-50 -155h287v-125h-326l-163 -537h-162l-174 537h-467l-178 -537h-164l-158 537h-317v125h280l-45 155h-235z" />
    <glyph glyph-name="uni20AA" unicode="&#x20aa;" horiz-adv-x="1468" 
d="M477 0v1167q90 0 125 -38t35 -130v-849h260q157 0 221 80t64 274v991h159v-991q-1 -268 -111 -386t-339 -118h-414zM127 0v1495h405q232 0 346 -119t113 -385v-522q0 -92 -35 -130t-125 -38v690q0 190 -67 273q-68 82 -225 82h-252v-1346h-160z" />
    <glyph glyph-name="Euro" unicode="&#x20ac;" 
d="M348 455q0 -330 325 -330q167 0 249 117l122 -101q-127 -161 -368 -161t-365 126q-123 127 -123 347v8h-129v127h129v319h-129v127h129q2 209 134 345q132 137 351 137q218 0 349 -152l-109 -100q-81 106 -241 106t-241 -90t-83 -246h533l-23 -127h-510v-319h459
l-21 -127h-438v-6z" />
    <glyph glyph-name="uni20AE" unicode="&#x20ae;" horiz-adv-x="1255" 
d="M549 1348h-451v147h1059v-147h-448v-344l280 116v-125l-280 -116v-172l280 116v-125l-280 -116v-582h-160v516l-283 -115v125l283 115v172l-283 -115v125l283 115v410z" />
    <glyph glyph-name="uni20B1" unicode="&#x20b1;" horiz-adv-x="1464" 
d="M692 614q229 0 334 162h-631v-162h297zM692 1348h-297v-166h635q-105 166 -338 166zM1085 979q0 29 -8 78h-682v-156h682q8 49 8 78zM72 1057v125h164v313h466q180 0 314 -85t192 -228h185v-125h-152q6 -37 6 -78t-6 -78h152v-125h-185q-59 -143 -192 -227t-314 -84h-307
v-465h-159v776h-164v125h164v156h-164z" />
    <glyph glyph-name="published" unicode="&#x2117;" horiz-adv-x="1734" 
d="M920 782h-172v-309h172q70 0 112 47t43 113q1 65 -43 107t-112 42zM598 123v788h340q125 0 206 -80q81 -81 81 -201t-76 -206t-207 -86h-194v-215h-150zM868 -115q260 -1 438 183t177 444q0 260 -177 443q-178 183 -438 183t-437 -182q-177 -184 -177 -444t177 -444
t437 -183zM868 -256q-317 0 -542 225q-226 225 -226 543t226 542q226 226 542 226t542 -225t226 -543t-225 -543q-226 -225 -543 -225z" />
    <glyph glyph-name="servicemark" unicode="&#x2120;" horiz-adv-x="1333" 
d="M270 887q-145 0 -215 100l105 76q43 -72 108 -72q35 0 59 23q23 24 23 56t-27 50q-28 18 -68 30t-80 30q-39 18 -67 57t-28 105t53 108q53 43 131 43q117 0 191 -86l-105 -68q-31 49 -77 49q-83 1 -85 -55q0 -33 43 -53t97 -34t96 -57q43 -44 43 -119q-1 -75 -55 -129
t-142 -54zM569 901v594h109l217 -289l227 289h101v-594h-117v402l-211 -261l-211 263v-404h-115z" />
    <glyph glyph-name="trademark" unicode="&#x2122;" horiz-adv-x="1398" 
d="M272 901v488h-188v106h489v-106h-186v-488h-115zM635 901v594h108l218 -289l227 289h100v-594h-117v402l-210 -261l-211 263v-404h-115z" />
    <glyph glyph-name="uni2153" unicode="&#x2153;" horiz-adv-x="1697" 
d="M66 631v137h172v502q-18 -29 -60 -48t-82 -20h-14v152h6q78 0 116 43t38 98h139v-727h164v-137h-479zM1081 731q79 146 285 146q106 0 182 -66q74 -65 74 -181t-104 -181q122 -66 122 -191t-76 -198q-77 -72 -210 -72q-174 0 -279 123l123 92q59 -84 156 -84q63 0 103 36
t40 94t-45 93t-119 35h-88v135h88q72 0 112 35t40 88t-38 85t-101 32q-92 0 -144 -88zM223 0l1080 1495h186l-1079 -1495h-187z" />
    <glyph glyph-name="uni2154" unicode="&#x2154;" horiz-adv-x="1697" 
d="M1081 731q79 146 285 146q106 0 182 -66q74 -65 74 -181t-104 -181q122 -66 122 -191t-76 -198q-77 -72 -210 -72q-174 0 -279 123l123 92q59 -84 156 -84q63 0 103 36t40 94t-45 93t-119 35h-88v135h88q72 0 112 35t40 88t-38 85t-101 32q-92 0 -144 -88zM72 631v135
q0 68 39 130t78 96q41 34 137 100t123 103q27 36 27 79t-37 76q-36 33 -97 32q-106 0 -162 -122l-123 61q84 186 285 186q125 1 202 -69t77 -172q0 -64 -37 -122t-74 -88q-36 -30 -104 -76t-98 -69t-60 -63t-31 -80h406v-137h-551zM223 0l1080 1495h186l-1079 -1495h-187z
" />
    <glyph glyph-name="uni2155" unicode="&#x2155;" horiz-adv-x="1740" 
d="M66 631v137h172v502q-18 -29 -60 -48t-82 -20h-14v152h6q78 0 116 43t38 98h139v-727h164v-137h-479zM1688 278q0 -130 -84 -210t-200 -80t-193 46t-113 116l131 79q53 -109 164 -108q63 0 106 43q43 44 43 112t-43 112t-108 44q-104 0 -156 -96l-129 61l63 467h476v-135
h-361l-29 -213q66 47 148 47q121 0 203 -77t82 -208zM223 0l1080 1495h186l-1079 -1495h-187z" />
    <glyph glyph-name="uni2156" unicode="&#x2156;" horiz-adv-x="1740" 
d="M72 631v135q0 68 39 130t78 96q41 34 137 100t123 103q27 36 27 79t-37 76q-36 33 -97 32q-106 0 -162 -122l-123 61q84 186 285 186q125 1 202 -69t77 -172q0 -64 -37 -122t-74 -88q-36 -30 -104 -76t-98 -69t-60 -63t-31 -80h406v-137h-551zM1688 278q0 -130 -84 -210
t-200 -80t-193 46t-113 116l131 79q53 -109 164 -108q63 0 106 43q43 44 43 112t-43 112t-108 44q-104 0 -156 -96l-129 61l63 467h476v-135h-361l-29 -213q66 47 148 47q121 0 203 -77t82 -208zM223 0l1080 1495h186l-1079 -1495h-187z" />
    <glyph glyph-name="uni2157" unicode="&#x2157;" horiz-adv-x="1740" 
d="M41 1362q79 145 285 145q106 1 181 -65t75 -182t-105 -181q123 -67 123 -191t-77 -197t-210 -73q-174 0 -278 123l123 93q59 -84 155 -84q63 0 104 35q40 37 40 95t-45 93t-119 35h-88v135h88q71 0 111 35t40 88t-37 85q-38 32 -102 31q-92 0 -143 -88zM1688 278
q0 -130 -84 -210t-200 -80t-193 46t-113 116l131 79q53 -109 164 -108q63 0 106 43q43 44 43 112t-43 112t-108 44q-104 0 -156 -96l-129 61l63 467h476v-135h-361l-29 -213q66 47 148 47q121 0 203 -77t82 -208zM223 0l1080 1495h186l-1079 -1495h-187z" />
    <glyph glyph-name="uni2158" unicode="&#x2158;" horiz-adv-x="1740" 
d="M444 961v317l-223 -317h223zM1688 278q0 -130 -84 -210t-200 -80t-193 46t-113 116l131 79q53 -109 164 -108q63 0 106 43q43 44 43 112t-43 112t-108 44q-104 0 -156 -96l-129 61l63 467h476v-135h-361l-29 -213q66 47 148 47q121 0 203 -77t82 -208zM223 0l1080 1495
h186l-1079 -1495h-187zM444 631v198h-378v132l372 534h148v-534h125v-132h-125v-198h-142z" />
    <glyph glyph-name="uni2159" unicode="&#x2159;" horiz-adv-x="1619" 
d="M1092 287q0 -70 48 -119t116 -49q69 0 119 50t50 119t-50 118t-119 49q-68 0 -116 -49t-48 -119zM66 631v137h172v502q-18 -29 -60 -48t-82 -20h-14v152h6q78 0 116 43t38 98h139v-727h164v-137h-479zM223 0l1080 1495h186l-1079 -1495h-187zM1259 -12q-132 0 -220 86
q-87 86 -87 211t66 219l231 360h168l-190 -291q37 8 59 9q119 0 200 -85t81 -213t-88 -212t-220 -84z" />
    <glyph glyph-name="uni215A" unicode="&#x215a;" horiz-adv-x="1619" 
d="M1092 287q0 -70 48 -119t116 -49q69 0 119 50t50 119t-50 118t-119 49q-68 0 -116 -49t-48 -119zM364 618q-116 0 -193 46t-114 116l131 80q53 -109 164 -108q63 0 107 43q43 43 43 111t-43 113q-43 44 -109 44q-104 0 -155 -96l-129 61l63 467h475v-135h-360l-29 -213
q66 47 147 47q121 0 203 -77t82 -208t-84 -211q-83 -80 -199 -80zM223 0l1080 1495h186l-1079 -1495h-187zM1259 -12q-132 0 -220 86q-87 86 -87 211t66 219l231 360h168l-190 -291q37 8 59 9q119 0 200 -85t81 -213t-88 -212t-220 -84z" />
    <glyph glyph-name="uni215B" unicode="&#x215b;" horiz-adv-x="1732" 
d="M1282 632q0 -48 28 -79t75 -31q48 0 77 31t29 79t-29 80t-77 32q-47 0 -75 -32t-28 -80zM1384 119q59 0 97 39q37 39 37 96t-36 96t-96 39t-97 -39q-36 -39 -36 -96t36 -96t95 -39zM66 631v137h172v502q-18 -29 -60 -48t-82 -20h-14v152h6q78 0 116 43t38 98h139v-727
h164v-137h-479zM223 0l1080 1495h186l-1079 -1495h-187zM1386 -12q-126 0 -200 77t-74 199t111 193q-84 61 -84 169t69 179q70 72 177 72t179 -72q72 -73 72 -179t-88 -167q111 -72 111 -195q0 -124 -74 -200t-199 -76z" />
    <glyph glyph-name="uni215C" unicode="&#x215c;" horiz-adv-x="1732" 
d="M1282 632q0 -48 28 -79t75 -31q48 0 77 31t29 79t-29 80t-77 32q-47 0 -75 -32t-28 -80zM1384 119q59 0 97 39q37 39 37 96t-36 96t-96 39t-97 -39q-36 -39 -36 -96t36 -96t95 -39zM41 1362q79 145 285 145q106 1 181 -65t75 -182t-105 -181q123 -67 123 -191t-77 -197
t-210 -73q-174 0 -278 123l123 93q59 -84 155 -84q63 0 104 35q40 37 40 95t-45 93t-119 35h-88v135h88q71 0 111 35t40 88t-37 85q-38 32 -102 31q-92 0 -143 -88zM223 0l1080 1495h186l-1079 -1495h-187zM1386 -12q-126 0 -200 77t-74 199t111 193q-84 61 -84 169t69 179
q70 72 177 72t179 -72q72 -73 72 -179t-88 -167q111 -72 111 -195q0 -124 -74 -200t-199 -76z" />
    <glyph glyph-name="uni215D" unicode="&#x215d;" horiz-adv-x="1732" 
d="M1282 632q0 -48 28 -79t75 -31q48 0 77 31t29 79t-29 80t-77 32q-47 0 -75 -32t-28 -80zM1384 119q59 0 97 39q37 39 37 96t-36 96t-96 39t-97 -39q-36 -39 -36 -96t36 -96t95 -39zM364 618q-116 0 -193 46t-114 116l131 80q53 -109 164 -108q63 0 107 43q43 43 43 111
t-43 113q-43 44 -109 44q-104 0 -155 -96l-129 61l63 467h475v-135h-360l-29 -213q66 47 147 47q121 0 203 -77t82 -208t-84 -211q-83 -80 -199 -80zM223 0l1080 1495h186l-1079 -1495h-187zM1386 -12q-126 0 -200 77t-74 199t111 193q-84 61 -84 169t69 179q70 72 177 72
t179 -72q72 -73 72 -179t-88 -167q111 -72 111 -195q0 -124 -74 -200t-199 -76z" />
    <glyph glyph-name="uni215E" unicode="&#x215e;" horiz-adv-x="1568" 
d="M1222 522q48 0 76 31t29 79q0 48 -29 80q-28 32 -76 32t-76 -32t-28 -80t28 -79t76 -31zM1221 119q59 0 96 39t37 96t-36 96t-96 39t-96 -39t-36 -96t36 -96t95 -39zM63 1358v137h541v-125l-317 -739h-154l320 727h-390zM59 0l1080 1495h186l-1079 -1495h-187zM1223 -12
q-125 0 -200 77t-75 199t111 193q-84 61 -84 169t69 179q70 72 178 72t179 -72q72 -73 72 -179t-89 -167q111 -72 111 -195q1 -124 -73 -200t-199 -76z" />
    <glyph glyph-name="uni215F" unicode="&#x215f;" horiz-adv-x="1540" 
d="M66 631v137h172v502q-18 -29 -60 -48t-82 -20h-14v152h6q78 0 116 43t38 98h139v-727h164v-137h-479zM223 0l1080 1495h186l-1079 -1495h-187z" />
    <glyph glyph-name="arrowleft" unicode="&#x2190;" horiz-adv-x="1835" 
d="M1688 829v-153h-1340q84 -60 172 -158t142 -190l-134 -88q-72 137 -186 266q-115 129 -240 199v96q125 71 240 199t186 266l134 -88q-52 -92 -142 -190t-172 -159h1340z" />
    <glyph glyph-name="arrowup" unicode="&#x2191;" horiz-adv-x="1835" 
d="M815 0v1292q-63 -82 -159 -169t-185 -138l-88 133q137 72 266 187t199 239h96q70 -126 199 -240t266 -186l-88 -133q-92 53 -189 141t-157 170v-1296h-160z" />
    <glyph glyph-name="arrowright" unicode="&#x2192;" horiz-adv-x="1835" 
d="M102 676v153h1338q-195 147 -312 347l136 90q70 -137 184 -268q115 -130 240 -199v-94q-124 -70 -240 -198t-188 -267l-132 88q50 92 140 189t174 159h-1340z" />
    <glyph glyph-name="arrowdown" unicode="&#x2193;" horiz-adv-x="1835" 
d="M811 1495h160v-1298q59 82 157 171t191 142l88 -133q-137 -72 -266 -187t-199 -239h-96q-70 125 -199 239t-266 187l88 133q90 -51 185 -137t157 -168v1290z" />
    <glyph glyph-name="uni2196" unicode="&#x2196;" horiz-adv-x="1835" 
d="M1401 137l-946 944q14 -94 8 -228t-33 -237l-156 33q48 145 56 313t-29 316l68 70q151 -39 317 -30t313 56l31 -155q-104 -29 -239 -35t-230 10l950 -948z" />
    <glyph glyph-name="uni2197" unicode="&#x2197;" horiz-adv-x="1835" 
d="M389 135l-108 111l944 944q-242 -35 -465 27l33 155q145 -47 313 -55t315 29l70 -68q-39 -152 -30 -318t57 -313l-156 -31q-61 227 -25 469z" />
    <glyph glyph-name="uni2198" unicode="&#x2198;" horiz-adv-x="1835" 
d="M1421 156q-151 40 -317 30t-313 -57l-31 156q102 27 238 33t231 -9l-950 948l110 109l944 -946q-14 94 -8 228t35 239l156 -33q-48 -145 -56 -313t29 -316z" />
    <glyph glyph-name="uni2199" unicode="&#x2199;" horiz-adv-x="1835" 
d="M997 131q-145 47 -313 55t-315 -28l-70 67q39 152 30 318t-57 313l156 31q27 -103 33 -239t-8 -230l948 950l108 -111l-946 -946q240 33 467 -24z" />
    <glyph glyph-name="partialdiff" unicode="&#x2202;" horiz-adv-x="1236" 
d="M620 135q144 1 247 105t103 248t-102 250t-247 106t-249 -104t-106 -250q0 -146 105 -250t249 -105zM619 -10q-216 0 -364 143t-149 356q0 213 144 357t336 145q192 0 301 -98q-156 272 -627 602h244q627 -487 626 -1006q0 -211 -148 -355t-363 -144z" />
    <glyph glyph-name="increment" unicode="&#x2206;" horiz-adv-x="1837" 
d="M920 1206l-607 -1052h1213zM1796 0h-1755l879 1520z" />
    <glyph glyph-name="product" unicode="&#x220f;" horiz-adv-x="1538" 
d="M88 1339v156h1364v-156h-270v-1339h-160v1339h-506v-1339h-160v1339h-268z" />
    <glyph glyph-name="summation" unicode="&#x2211;" horiz-adv-x="1153" 
d="M72 0v164l536 612l-516 557v162h989v-152h-788l520 -569l-547 -620h815v-154h-1009z" />
    <glyph glyph-name="minus" unicode="&#x2212;" horiz-adv-x="968" 
d="M106 680v137h758v-137h-758z" />
    <glyph glyph-name="radical" unicode="&#x221a;" horiz-adv-x="1615" 
d="M92 862v162h311l320 -856l610 1327h176l-698 -1495h-190l-332 862h-197z" />
    <glyph glyph-name="infinity" unicode="&#x221e;" horiz-adv-x="1925" 
d="M1414 584q77 0 138 61t60 143q0 82 -60 144t-139 61q-78 0 -156 -51t-186 -149q111 -101 189 -155t154 -54zM511 580q77 0 156 52t191 156q-219 201 -342 201q-82 0 -143 -61q-61 -62 -61 -144t60 -143q62 -61 139 -61zM514 438q-146 0 -248 102t-102 246t102 246
t248 103q109 0 215 -65t236 -179q127 115 232 179t214 65q145 -1 247 -103t101 -246q0 -144 -101 -245q-101 -102 -247 -103q-105 0 -211 67t-237 187q-131 -122 -237 -188t-212 -66z" />
    <glyph glyph-name="integral" unicode="&#x222b;" horiz-adv-x="720" 
d="M-2 -393v145q160 0 202 45t42 203v1104q0 227 82 309t307 82h14v-145q-160 0 -202 -44t-42 -204v-1102q0 -229 -82 -311t-307 -82h-14z" />
    <glyph glyph-name="approxequal" unicode="&#x2248;" horiz-adv-x="942" 
d="M278 684q70 0 199 -38t197 -38t176 47v-141q-82 -47 -167 -47t-216 38q-131 37 -193 37t-182 -55v142q116 55 186 55zM278 1024q76 0 200 -39t190 -39t182 51v-141q-90 -51 -173 -51t-209 39q-126 38 -194 38t-182 -53v142q110 53 186 53z" />
    <glyph glyph-name="notequal" unicode="&#x2260;" horiz-adv-x="968" 
d="M864 979v-137h-270l-96 -197h366v-135h-432l-63 -133h-146l64 133h-181v135h246l97 197h-343v137h410l68 139h145l-67 -139h202z" />
    <glyph glyph-name="equivalence" unicode="&#x2261;" horiz-adv-x="968" 
d="M106 1008v137h758v-137h-758zM106 346v133h758v-133h-758zM106 676v135h758v-135h-758z" />
    <glyph glyph-name="lessequal" unicode="&#x2264;" horiz-adv-x="968" 
d="M104 326v137h758v-137h-758zM862 553l-758 291v137l758 285v-142l-590 -213l590 -217v-141z" />
    <glyph glyph-name="greaterequal" unicode="&#x2265;" horiz-adv-x="968" 
d="M104 326v137h758v-137h-758zM104 553v141l590 217l-590 213v142l758 -285v-137z" />
    <glyph glyph-name="squaremultiply" unicode="&#x22a0;" horiz-adv-x="1896" 
d="M659 348l-94 94l293 306l-297 311l94 94l295 -309l295 309l94 -94l-297 -311l289 -302l-94 -94l-287 299zM365 1341v-1187h1167v1187h-1167zM205 0v1495h1487v-1495h-1487z" />
    <glyph glyph-name="house" unicode="&#x2302;" horiz-adv-x="1789" 
d="M1585 0h-1380v874l690 662l690 -662v-874z" />
    <glyph glyph-name="blacksquare" unicode="&#x25a0;" horiz-adv-x="1896" 
d="M205 0v1495h1487v-1495h-1487z" />
    <glyph glyph-name="blacksquare" unicode="&#xe740;" horiz-adv-x="1896" 
d="M205 0v1495h1487v-1495h-1487z" />
    <glyph glyph-name="whitesquare" unicode="&#x25a1;" horiz-adv-x="1896" 
d="M365 1341v-1187h1167v1187h-1167zM205 0v1495h1487v-1495h-1487z" />
    <glyph glyph-name="blacksmallsquare" unicode="&#x25aa;" horiz-adv-x="1433" 
d="M205 0v1024h1024v-1024h-1024z" />
    <glyph glyph-name="whitesmallsquare" unicode="&#x25ab;" horiz-adv-x="1433" 
d="M365 870v-716h704v716h-704zM205 0v1024h1024v-1024h-1024z" />
    <glyph glyph-name="triagup" unicode="&#x25b2;" horiz-adv-x="1837" 
d="M1796 0h-1755l879 1520z" />
    <glyph glyph-name="triagrt" unicode="&#x25ba;" horiz-adv-x="1837" 
d="M205 -117v1755l1519 -876z" />
    <glyph glyph-name="triagdn" unicode="&#x25bc;" horiz-adv-x="1837" 
d="M41 1495h1755l-876 -1520z" />
    <glyph glyph-name="triaglf" unicode="&#x25c4;" horiz-adv-x="1837" 
d="M1632 1638v-1755l-1519 879z" />
    <glyph glyph-name="lozenge" unicode="&#x25ca;" horiz-adv-x="1726" 
d="M268 750l582 -580l577 578l-581 579zM850 -33l-782 783l778 778l782 -783z" />
    <glyph glyph-name="whitecircle" unicode="&#x25cb;" horiz-adv-x="1898" 
d="M950 131q256 0 430 180q174 181 174 437t-174 436t-430 180t-430 -180t-174 -436t174 -436t430 -181zM950 -20q-317 0 -542 225q-226 225 -226 543t226 542q226 226 542 226t542 -226t226 -542q0 -317 -225 -543q-226 -225 -543 -225z" />
    <glyph glyph-name="whitecircle" unicode="&#x25ef;" horiz-adv-x="1898" 
d="M950 131q256 0 430 180q174 181 174 437t-174 436t-430 180t-430 -180t-174 -436t174 -436t430 -181zM950 -20q-317 0 -542 225q-226 225 -226 543t226 542q226 226 542 226t542 -226t226 -542q0 -317 -225 -543q-226 -225 -543 -225z" />
    <glyph glyph-name="bullseye" unicode="&#x25ce;" horiz-adv-x="1898" 
d="M950 590q-63 0 -108 46t-45 112t45 112t108 45q62 0 108 -46q46 -45 46 -111t-46 -112t-108 -46zM950 434q127 0 215 90t88 221t-88 221t-215 91q-127 0 -214 -90q-87 -89 -87 -221t87 -222t214 -90zM1409 745q0 -195 -133 -327q-132 -132 -324 -131q-192 0 -325 132
q-133 133 -133 327t133 326t325 132t324 -132q133 -132 133 -327zM950 131q256 0 430 180q174 181 174 437t-174 436t-430 180t-430 -180t-174 -436t174 -436t430 -181zM950 -20q-317 0 -542 225q-226 225 -226 543t226 542q226 226 542 226t542 -226t226 -542
q0 -317 -225 -543q-226 -225 -543 -225z" />
    <glyph glyph-name="blackcircle" unicode="&#x25cf;" horiz-adv-x="1898" 
d="M950 -20q-317 0 -542 225q-226 225 -226 543t226 542q226 226 542 226t542 -226t226 -542q0 -317 -225 -543q-226 -225 -543 -225z" />
    <glyph glyph-name="uni25E2" unicode="&#x25e2;" horiz-adv-x="1837" 
d="M1788 1092l-1241 -1242l-455 1696z" />
    <glyph glyph-name="uni25E3" unicode="&#x25e3;" horiz-adv-x="1837" 
d="M1294 -150l-1241 1242l1696 454z" />
    <glyph glyph-name="uni25E4" unicode="&#x25e4;" horiz-adv-x="1837" 
d="M1755 -111l-1696 455l1241 1241z" />
    <glyph glyph-name="uni25E5" unicode="&#x25e5;" horiz-adv-x="1837" 
d="M1786 334l-1696 -453l457 1696z" />
    <glyph glyph-name="uni2605" unicode="&#x2605;" horiz-adv-x="1843" 
d="M1151 621l147 -447l-383 277l-380 -277l147 449l-381 276l469 -2l148 446l145 -446l471 -2z" />
    <glyph glyph-name="ballotboxwithx" unicode="&#x2612;" horiz-adv-x="1433" 
d="M532 776l181 -174l178 184l94 -94l-176 -182l184 -178l-94 -94l-184 176l-174 -183l-95 95l175 180l-183 176zM365 870v-716h704v716h-704zM205 0v1024h1024v-1024h-1024z" />
    <glyph glyph-name="uni263C" unicode="&#x263c;" horiz-adv-x="1900" 
d="M580 516l-232 -176l-61 94l272 115zM1309 983l231 176l62 -94l-273 -115zM743 365l-112 -273l-96 58l178 235zM1145 1135l112 272l97 -57l-178 -236zM1176 385l178 -235l-97 -58l-112 273zM713 1114l-178 236l96 57l112 -272zM1329 549l273 -113l-58 -96l-235 178z
M559 950l-272 113l57 96l236 -178zM1376 770l291 35v-111l-291 35v41zM512 729l-291 -35v111l291 -35v-41zM965 317l34 -290h-110l35 290h41zM924 1182l-35 291h110l-34 -291h-41zM588 748q0 145 105 250q105 106 251 106t250 -106q106 -106 106 -250t-105 -250t-251 -106
t-251 105q-105 106 -105 251z" />
    <glyph glyph-name="uni263E" unicode="&#x263e;" horiz-adv-x="1611" 
d="M1094 1262q-203 0 -346 -151q-144 -151 -144 -363t144 -364q144 -151 346 -151q66 0 145 25q-166 -117 -365 -117q-250 0 -428 178q-178 179 -178 429t178 428t428 178q199 0 365 -117q-94 25 -145 25z" />
    <glyph glyph-name="spade" unicode="&#x2660;" horiz-adv-x="1884" 
d="M1217 0h-531q55 102 81 154t69 190q43 137 43 250q-43 -121 -131 -200t-224 -79q-136 1 -240 97q-103 96 -104 227q0 168 106 307t376 354l286 230h2l287 -230q263 -211 365 -350t102 -311q0 -131 -94 -226t-232 -95t-230 78q-93 79 -136 198q0 -225 167 -525
q38 -67 38 -69z" />
    <glyph glyph-name="club" unicode="&#x2663;" horiz-adv-x="1884" 
d="M532 266q-152 0 -257 106t-105 257q0 150 105 256t257 106q39 0 86 -14q-39 84 -38 178q0 150 104 255q104 106 254 106t255 -106t105 -255q0 -92 -38 -180q45 16 94 16q150 0 255 -105t105 -256t-105 -257t-257 -107q-115 0 -203 66t-131 174q16 -138 78 -266
q61 -128 90 -180t33 -60h-531q164 307 186 508q-45 -110 -136 -176t-206 -66z" />
    <glyph glyph-name="heart" unicode="&#x2665;" horiz-adv-x="1884" 
d="M182 1118q0 168 109 283t265 115t259 -94q104 -94 121 -236q18 143 122 236q104 94 259 94q157 0 271 -116t114 -282t-108 -354t-367 -477l-291 -322l-289 322q-256 285 -360 474q-105 189 -105 357z" />
    <glyph glyph-name="diamond" unicode="&#x2666;" horiz-adv-x="1884" 
d="M272 799l670 821l670 -821l-670 -819z" />
    <glyph glyph-name="uni267B" unicode="&#x267b;" horiz-adv-x="1886" 
d="M1571 1006l133 -226q18 -29 18 -84q2 -92 -72 -167t-143 -74l-223 387zM879 72h-261q-47 0 -86 24q-82 48 -110 152t10 155h447v-331zM403 1143l129 229q23 37 66 60q88 45 186 18t131 -86l-223 -387zM797 1493h372q45 -2 69 -5q24 -4 54 -24t54 -61l53 -94l84 47
l-119 -322l-332 62l78 45l-137 241q-27 45 -71 72t-75 33l-30 4v2zM377 227h-4l-185 324q-20 39 -28 61q-23 63 20 136l56 94l-82 47l335 59l113 -319l-78 47q-135 -231 -139 -242q-25 -43 -27 -95t9 -81zM1329 72h-110v-97l-218 263l218 260v-95h278q51 0 97 26t67 50
l20 25l2 -4l-186 -322q-27 -39 -40 -56q-13 -18 -47 -34t-81 -16z" />
    <glyph glyph-name="uni267C" unicode="&#x267c;" horiz-adv-x="1886" 
d="M1153 492v71l-170 -201l170 -202v73h84q53 -1 80 19t51 63l145 250l-2 2q-53 -76 -143 -75h-215zM1528 784l-101 174l-225 -129l174 -301q54 0 112 58t56 133q0 36 -16 65zM498 354h2q-37 84 6 162l108 186l62 -36l-88 247l-260 -45l63 -37l-43 -73q-18 -31 -20 -61
t4 -44t22 -49zM680 233h203v259h-348q-29 -41 -7 -122t86 -118q33 -19 66 -19zM817 1335v-2q94 -8 137 -84l109 -186l-62 -37l259 -47l90 250l-64 -37l-43 74q-27 45 -56 57q-30 12 -81 12h-289zM623 1241l-101 -176l223 -129l173 299q-25 47 -102 67t-144 -14
q-39 -24 -49 -47zM1714 750q0 -320 -225 -544t-545 -224t-545 224t-225 544t225 545q225 227 545 227t544 -226q226 -226 226 -546z" />
    <glyph glyph-name="uni267D" unicode="&#x267d;" horiz-adv-x="1886" 
d="M1153 233v-73l-170 202l170 201v-71h215q41 0 77 18t50 39l16 18l2 -2l-145 -250q-16 -29 -28 -43q-33 -37 -103 -39h-84zM1427 958l101 -174q16 -29 16 -65q2 -74 -56 -132t-112 -59l-174 301zM500 354h-2l-144 250q-16 35 -22 49t-4 44t20 61l43 73l-63 37l260 45
l88 -247l-62 36l-108 -186q-18 -35 -20 -75t6 -64zM883 233h-203q-33 0 -66 19q-63 37 -86 118t7 122h348v-259zM817 1335h289q51 0 81 -12t56 -57l43 -74l64 37l-90 -250l-259 47l62 37l-109 186q-18 33 -53 55t-59 25l-25 4v2zM522 1065l101 176q10 23 49 47q68 35 144 15
t102 -68l-173 -299zM211 751q0 -305 215 -519t519 -214t517 214t213 519q0 304 -213 518t-517 214t-519 -214t-215 -518zM1714 750q0 -320 -225 -544t-545 -224t-545 224t-225 544t225 545q225 227 545 227t544 -226q226 -226 226 -546z" />
    <glyph glyph-name="mediumwhitecircle" unicode="&#x26aa;" horiz-adv-x="1429" 
d="M715 123q157 0 265 114q108 113 108 275t-110 276q-108 114 -264 113q-156 0 -262 -114q-108 -113 -108 -275t108 -276t263 -113zM716 -20q-222 0 -377 154t-155 378q0 225 155 379q155 153 377 153t377 -154t155 -378q0 -225 -155 -379q-155 -153 -377 -153z" />
    <glyph glyph-name="mediumblackcircle" unicode="&#x26ab;" horiz-adv-x="1429" 
d="M715 -20q-221 0 -376 156t-155 376q0 221 155 377q155 155 376 155t376 -156t155 -376q0 -221 -155 -377q-155 -155 -376 -155z" />
    <glyph glyph-name="anglebracketleft" unicode="&#x3008;" horiz-adv-x="753" 
d="M530 -471l-467 983l467 983h170l-467 -983l467 -983h-170z" />
    <glyph glyph-name="anglebracketright" unicode="&#x3009;" horiz-adv-x="753" 
d="M233 -471h-170l467 983l-467 983h170l467 -983z" />
    <glyph glyph-name="cordinal" unicode="&#xe181;" horiz-adv-x="800" 
d="M416 891q-127 0 -217 90t-90 218t90 218t217 90q84 0 156 -42t112 -111l-102 -60q-53 98 -166 99q-82 -1 -136 -57t-54 -137t54 -137q56 -56 136 -56q121 0 172 106l104 -55q-90 -166 -276 -166z" />
    <glyph glyph-name="p.smcp" unicode="&#xe200;" horiz-adv-x="1081" 
d="M524 1073h-223v-553h223q133 0 213 79t80 198t-80 197t-213 79zM143 0v1221h394q193 0 317 -122t125 -303q0 -181 -125 -303t-319 -122h-234v-371h-158z" />
    <glyph glyph-name="p.smcp" unicode="&#xf770;" horiz-adv-x="1081" 
d="M524 1073h-223v-553h223q133 0 213 79t80 198t-80 197t-213 79zM143 0v1221h394q193 0 317 -122t125 -303q0 -181 -125 -303t-319 -122h-234v-371h-158z" />
    <glyph glyph-name="a.smcp" unicode="&#xe201;" horiz-adv-x="1189" 
d="M596 1008l-213 -576h426zM57 0l453 1221h168l455 -1221h-164l-105 281h-538l-103 -281h-166z" />
    <glyph glyph-name="a.smcp" unicode="&#xf761;" horiz-adv-x="1189" 
d="M596 1008l-213 -576h426zM57 0l453 1221h168l455 -1221h-164l-105 281h-538l-103 -281h-166z" />
    <glyph glyph-name="b.smcp" unicode="&#xe202;" horiz-adv-x="1095" 
d="M573 1075h-272v-373h283q106 0 162 52t56 138q0 85 -60 134t-169 49zM594 553h-293v-408h301q110 1 174 57t64 150t-62 148t-184 53zM143 0v1221h426q179 0 285 -88t106 -251t-147 -245q184 -78 184 -289q-1 -162 -109 -255t-290 -93h-455z" />
    <glyph glyph-name="b.smcp" unicode="&#xf762;" horiz-adv-x="1095" 
d="M573 1075h-272v-373h283q106 0 162 52t56 138q0 85 -60 134t-169 49zM594 553h-293v-408h301q110 1 174 57t64 150t-62 148t-184 53zM143 0v1221h426q179 0 285 -88t106 -251t-147 -245q184 -78 184 -289q-1 -162 -109 -255t-290 -93h-455z" />
    <glyph glyph-name="c.smcp" unicode="&#xe203;" horiz-adv-x="1353" 
d="M727 -16q-268 0 -448 184q-181 184 -181 444t184 442t441 183q176 0 327 -92t228 -244l-141 -74q-59 117 -168 190t-244 73q-199 0 -332 -142t-133 -340q0 -199 135 -338t328 -139q147 0 256 77t166 204l147 -66q-82 -168 -230 -265t-335 -97z" />
    <glyph glyph-name="c.smcp" unicode="&#xf763;" horiz-adv-x="1353" 
d="M727 -16q-268 0 -448 184q-181 184 -181 444t184 442t441 183q176 0 327 -92t228 -244l-141 -74q-59 117 -168 190t-244 73q-199 0 -332 -142t-133 -340q0 -199 135 -338t328 -139q147 0 256 77t166 204l147 -66q-82 -168 -230 -265t-335 -97z" />
    <glyph glyph-name="d.smcp" unicode="&#xe204;" horiz-adv-x="1218" 
d="M469 1073h-168v-923h174q213 0 347 131t134 333t-130 330q-130 129 -357 129zM143 0v1221h340q287 0 462 -173q175 -172 175 -436t-179 -438t-452 -174h-346z" />
    <glyph glyph-name="d.smcp" unicode="&#xf764;" horiz-adv-x="1218" 
d="M469 1073h-168v-923h174q213 0 347 131t134 333t-130 330q-130 129 -357 129zM143 0v1221h340q287 0 462 -173q175 -172 175 -436t-179 -438t-452 -174h-346z" />
    <glyph glyph-name="e.smcp" unicode="&#xe205;" horiz-adv-x="993" 
d="M143 0v1221h736v-148h-578v-387h578v-147h-578v-389h578v-150h-736z" />
    <glyph glyph-name="e.smcp" unicode="&#xf765;" horiz-adv-x="993" 
d="M143 0v1221h736v-148h-578v-387h578v-147h-578v-389h578v-150h-736z" />
    <glyph glyph-name="f.smcp" unicode="&#xe206;" horiz-adv-x="933" 
d="M143 0v1221h691v-148h-533v-387h533v-147h-533v-539h-158z" />
    <glyph glyph-name="f.smcp" unicode="&#xf766;" horiz-adv-x="933" 
d="M143 0v1221h691v-148h-533v-387h533v-147h-533v-539h-158z" />
    <glyph glyph-name="g.smcp" unicode="&#xe207;" horiz-adv-x="1437" 
d="M733 -16q-270 0 -452 183t-183 443q0 260 184 444t449 183q177 0 321 -85t224 -230l-139 -82q-61 114 -167 182t-239 68q-203 0 -337 -142t-134 -339q0 -198 133 -338t325 -140q192 -1 308 105q117 106 145 274h-460v152h628v-52q0 -262 -168 -444t-438 -182z" />
    <glyph glyph-name="g.smcp" unicode="&#xf767;" horiz-adv-x="1437" 
d="M733 -16q-270 0 -452 183t-183 443q0 260 184 444t449 183q177 0 321 -85t224 -230l-139 -82q-61 114 -167 182t-239 68q-203 0 -337 -142t-134 -339q0 -198 133 -338t325 -140q192 -1 308 105q117 106 145 274h-460v152h628v-52q0 -262 -168 -444t-438 -182z" />
    <glyph glyph-name="h.smcp" unicode="&#xe208;" horiz-adv-x="1198" 
d="M897 0v539h-596v-539h-158v1221h158v-533h596v533h158v-1221h-158z" />
    <glyph glyph-name="h.smcp" unicode="&#xf768;" horiz-adv-x="1198" 
d="M897 0v539h-596v-539h-158v1221h158v-533h596v533h158v-1221h-158z" />
    <glyph glyph-name="i.smcp" unicode="&#xe209;" horiz-adv-x="468" 
d="M154 0v1221h161v-1221h-161z" />
    <glyph glyph-name="i.smcp" unicode="&#xf769;" horiz-adv-x="468" 
d="M154 0v1221h161v-1221h-161z" />
    <glyph glyph-name="j.smcp" unicode="&#xe20a;" horiz-adv-x="823" 
d="M690 336q0 -170 -84 -261t-220 -91q-134 0 -222 55t-125 147l149 74q49 -129 179 -129q77 0 121 53t44 144v893h158v-885z" />
    <glyph glyph-name="j.smcp" unicode="&#xf76a;" horiz-adv-x="823" 
d="M690 336q0 -170 -84 -261t-220 -91q-134 0 -222 55t-125 147l149 74q49 -129 179 -129q77 0 121 53t44 144v893h158v-885z" />
    <glyph glyph-name="k.smcp" unicode="&#xe20b;" horiz-adv-x="1128" 
d="M301 0h-158v1221h158v-621l557 621h195l-435 -482l453 -739h-180l-385 629l-205 -228v-401z" />
    <glyph glyph-name="k.smcp" unicode="&#xf76b;" horiz-adv-x="1128" 
d="M301 0h-158v1221h158v-621l557 621h195l-435 -482l453 -739h-180l-385 629l-205 -228v-401z" />
    <glyph glyph-name="l.smcp" unicode="&#xe20c;" horiz-adv-x="915" 
d="M143 0v1221h158v-1069h518v-152h-676z" />
    <glyph glyph-name="l.smcp" unicode="&#xf76c;" horiz-adv-x="915" 
d="M143 0v1221h158v-1069h518v-152h-676z" />
    <glyph glyph-name="m.smcp" unicode="&#xe20d;" horiz-adv-x="1482" 
d="M143 0v1221h156l444 -617l445 617h151v-1221h-157v948l-439 -606l-442 612v-954h-158z" />
    <glyph glyph-name="m.smcp" unicode="&#xf76d;" horiz-adv-x="1482" 
d="M143 0v1221h156l444 -617l445 617h151v-1221h-157v948l-439 -606l-442 612v-954h-158z" />
    <glyph glyph-name="n.smcp" unicode="&#xe20e;" horiz-adv-x="1288" 
d="M143 0v1221h176l668 -965v965h158v-1221h-168l-676 975v-975h-158z" />
    <glyph glyph-name="n.smcp" unicode="&#xf76e;" horiz-adv-x="1288" 
d="M143 0v1221h176l668 -965v965h158v-1221h-168l-676 975v-975h-158z" />
    <glyph glyph-name="o.smcp" unicode="&#xe20f;" horiz-adv-x="1447" 
d="M723 131q195 0 329 140t134 339t-134 339q-134 141 -329 141t-329 -140t-134 -340q0 -199 134 -339t329 -140zM723 -16q-260 0 -442 183t-183 443q0 260 182 444t443 183q260 0 443 -183q184 -184 184 -444t-184 -443t-443 -183z" />
    <glyph glyph-name="o.smcp" unicode="&#xf76f;" horiz-adv-x="1447" 
d="M723 131q195 0 329 140t134 339t-134 339q-134 141 -329 141t-329 -140t-134 -340q0 -199 134 -339t329 -140zM723 -16q-260 0 -442 183t-183 443q0 260 182 444t443 183q260 0 443 -183q184 -184 184 -444t-184 -443t-443 -183z" />
    <glyph glyph-name="q.smcp" unicode="&#xe211;" horiz-adv-x="1447" 
d="M723 -16q-260 0 -442 183t-183 443q0 260 182 444t443 183q260 0 443 -183q184 -184 184 -436t-166 -430l153 -188h-200l-441 551h195l194 -242q101 129 101 315t-134 325q-134 141 -329 141t-329 -140t-134 -340q0 -199 134 -339t329 -140q104 0 199 45l94 -119
q-141 -73 -293 -73z" />
    <glyph glyph-name="q.smcp" unicode="&#xf771;" horiz-adv-x="1447" 
d="M723 -16q-260 0 -442 183t-183 443q0 260 182 444t443 183q260 0 443 -183q184 -184 184 -436t-166 -430l153 -188h-200l-441 551h195l194 -242q101 129 101 315t-134 325q-134 141 -329 141t-329 -140t-134 -340q0 -199 134 -339t329 -140q104 0 199 45l94 -119
q-141 -73 -293 -73z" />
    <glyph glyph-name="r.smcp" unicode="&#xe212;" horiz-adv-x="1046" 
d="M143 0v1221h379q184 0 304 -114t120 -282q0 -129 -76 -231t-206 -137l299 -457h-189l-364 571h92q129 0 205 78q75 77 75 183t-67 174q-68 68 -201 67h-209v-1073h-162z" />
    <glyph glyph-name="r.smcp" unicode="&#xf772;" horiz-adv-x="1046" 
d="M143 0v1221h379q184 0 304 -114t120 -282q0 -129 -76 -231t-206 -137l299 -457h-189l-364 571h92q129 0 205 78q75 77 75 183t-67 174q-68 68 -201 67h-209v-1073h-162z" />
    <glyph glyph-name="s.smcp" unicode="&#xe213;" horiz-adv-x="978" 
d="M487 -16q-270 0 -442 221l139 108q113 -182 301 -182q102 0 169 60t67 136t-41 120t-105 71t-141 52q-78 24 -125 44t-103 60q-112 81 -112 229q0 147 110 241t271 93q242 0 389 -180l-129 -99q-86 139 -258 140q-95 0 -157 -52t-62 -138t77 -132q60 -36 202 -84
q142 -47 234 -109q114 -79 114 -232q0 -155 -111 -261t-287 -106z" />
    <glyph glyph-name="s.smcp" unicode="&#xf773;" horiz-adv-x="978" 
d="M487 -16q-270 0 -442 221l139 108q113 -182 301 -182q102 0 169 60t67 136t-41 120t-105 71t-141 52q-78 24 -125 44t-103 60q-112 81 -112 229q0 147 110 241t271 93q242 0 389 -180l-129 -99q-86 139 -258 140q-95 0 -157 -52t-62 -138t77 -132q60 -36 202 -84
q142 -47 234 -109q114 -79 114 -232q0 -155 -111 -261t-287 -106z" />
    <glyph glyph-name="t.smcp" unicode="&#xe214;" horiz-adv-x="1046" 
d="M444 0v1069h-356v152h870v-152h-354v-1069h-160z" />
    <glyph glyph-name="t.smcp" unicode="&#xf774;" horiz-adv-x="1046" 
d="M444 0v1069h-356v152h870v-152h-354v-1069h-160z" />
    <glyph glyph-name="u.smcp" unicode="&#xe215;" horiz-adv-x="1099" 
d="M549 -16q-184 0 -300 112t-116 301v824h158v-832q-1 -117 71 -187t188 -71q116 0 188 71t71 187v832h158v-824q0 -189 -117 -301t-301 -112z" />
    <glyph glyph-name="u.smcp" unicode="&#xf775;" horiz-adv-x="1099" 
d="M549 -16q-184 0 -300 112t-116 301v824h158v-832q-1 -117 71 -187t188 -71q116 0 188 71t71 187v832h158v-824q0 -189 -117 -301t-301 -112z" />
    <glyph glyph-name="v.smcp" unicode="&#xe216;" horiz-adv-x="1144" 
d="M489 0l-432 1221h166l348 -994l349 994h167l-436 -1221h-162z" />
    <glyph glyph-name="v.smcp" unicode="&#xf776;" horiz-adv-x="1144" 
d="M489 0l-432 1221h166l348 -994l349 994h167l-436 -1221h-162z" />
    <glyph glyph-name="w.smcp" unicode="&#xe217;" horiz-adv-x="1789" 
d="M410 0l-349 1221h168l269 -973l311 973h152l311 -985l295 985h162l-375 -1221h-162l-307 971l-312 -971h-163z" />
    <glyph glyph-name="w.smcp" unicode="&#xf777;" horiz-adv-x="1789" 
d="M410 0l-349 1221h168l269 -973l311 973h152l311 -985l295 985h162l-375 -1221h-162l-307 971l-312 -971h-163z" />
    <glyph glyph-name="x.smcp" unicode="&#xe218;" horiz-adv-x="1107" 
d="M874 0l-315 492l-315 -492h-187l414 621l-389 600h174l305 -471l295 471h184l-389 -596l400 -625h-177z" />
    <glyph glyph-name="x.smcp" unicode="&#xf778;" horiz-adv-x="1107" 
d="M874 0l-315 492l-315 -492h-187l414 621l-389 600h174l305 -471l295 471h184l-389 -596l400 -625h-177z" />
    <glyph glyph-name="y.smcp" unicode="&#xe219;" horiz-adv-x="1071" 
d="M457 0v575l-402 646h174l303 -494l308 494h176l-402 -646v-575h-157z" />
    <glyph glyph-name="y.smcp" unicode="&#xf779;" horiz-adv-x="1071" 
d="M457 0v575l-402 646h174l303 -494l308 494h176l-402 -646v-575h-157z" />
    <glyph glyph-name="z.smcp" unicode="&#xe21a;" horiz-adv-x="1007" 
d="M96 0v147l621 922h-600v152h788v-146l-620 -921h620v-154h-809z" />
    <glyph glyph-name="z.smcp" unicode="&#xf77a;" horiz-adv-x="1007" 
d="M96 0v147l621 922h-600v152h788v-146l-620 -921h620v-154h-809z" />
    <glyph glyph-name="anocross.smcp" unicode="&#xe220;" horiz-adv-x="1189" 
d="M57 0l453 1221h168l455 -1221h-164l-373 1008l-373 -1008h-166z" />
    <glyph glyph-name="aacute.smcp" unicode="&#xe221;" horiz-adv-x="1189" 
d="M516 1339l240 332h205l-297 -332h-148zM596 1008l-213 -576h426zM57 0l453 1221h168l455 -1221h-164l-105 281h-538l-103 -281h-166z" />
    <glyph glyph-name="aacute.smcp" unicode="&#xf7e1;" horiz-adv-x="1189" 
d="M516 1339l240 332h205l-297 -332h-148zM596 1008l-213 -576h426zM57 0l453 1221h168l455 -1221h-164l-105 281h-538l-103 -281h-166z" />
    <glyph glyph-name="agrave.smcp" unicode="&#xe222;" horiz-adv-x="1189" 
d="M512 1339l-297 332h203l241 -332h-147zM596 1008l-213 -576h426zM57 0l453 1221h168l455 -1221h-164l-105 281h-538l-103 -281h-166z" />
    <glyph glyph-name="agrave.smcp" unicode="&#xf7e0;" horiz-adv-x="1189" 
d="M512 1339l-297 332h203l241 -332h-147zM596 1008l-213 -576h426zM57 0l453 1221h168l455 -1221h-164l-105 281h-538l-103 -281h-166z" />
    <glyph glyph-name="acircumflex.smcp" unicode="&#xe223;" horiz-adv-x="1189" 
d="M279 1323l243 332h135l244 -332h-164l-147 205l-146 -205h-165zM596 1008l-213 -576h426zM57 0l453 1221h168l455 -1221h-164l-105 281h-538l-103 -281h-166z" />
    <glyph glyph-name="acircumflex.smcp" unicode="&#xf7e2;" horiz-adv-x="1189" 
d="M279 1323l243 332h135l244 -332h-164l-147 205l-146 -205h-165zM596 1008l-213 -576h426zM57 0l453 1221h168l455 -1221h-164l-105 281h-538l-103 -281h-166z" />
    <glyph glyph-name="adieresis.smcp" unicode="&#xe224;" horiz-adv-x="1189" 
d="M381 1354v284h158v-284h-158zM655 1354v284h158v-284h-158zM596 1008l-213 -576h426zM57 0l453 1221h168l455 -1221h-164l-105 281h-538l-103 -281h-166z" />
    <glyph glyph-name="adieresis.smcp" unicode="&#xf7e4;" horiz-adv-x="1189" 
d="M381 1354v284h158v-284h-158zM655 1354v284h158v-284h-158zM596 1008l-213 -576h426zM57 0l453 1221h168l455 -1221h-164l-105 281h-538l-103 -281h-166z" />
    <glyph glyph-name="atilde.smcp" unicode="&#xe225;" horiz-adv-x="1189" 
d="M242 1339q0 111 56 179q108 131 312 12q90 -57 129 -57q80 0 80 106h127q0 -115 -53 -181t-139 -67q-86 1 -182 57q-95 56 -128 56q-76 0 -75 -105h-127zM596 1008l-213 -576h426zM57 0l453 1221h168l455 -1221h-164l-105 281h-538l-103 -281h-166z" />
    <glyph glyph-name="atilde.smcp" unicode="&#xf7e3;" horiz-adv-x="1189" 
d="M242 1339q0 111 56 179q108 131 312 12q90 -57 129 -57q80 0 80 106h127q0 -115 -53 -181t-139 -67q-86 1 -182 57q-95 56 -128 56q-76 0 -75 -105h-127zM596 1008l-213 -576h426zM57 0l453 1221h168l455 -1221h-164l-105 281h-538l-103 -281h-166z" />
    <glyph glyph-name="aring.smcp" unicode="&#xe226;" horiz-adv-x="1189" 
d="M591 1235q39 0 69 29q30 28 30 68t-30 70t-70 30t-68 -30t-28 -70t28 -68t69 -29zM596 1008l-213 -576h426zM57 0l424 1141q-109 63 -108 190q0 92 63 157q64 64 156 64t157 -63t64 -158q0 -123 -106 -188l426 -1143h-164l-105 281h-538l-103 -281h-166z" />
    <glyph glyph-name="aring.smcp" unicode="&#xf7e5;" horiz-adv-x="1189" 
d="M591 1235q39 0 69 29q30 28 30 68t-30 70t-70 30t-68 -30t-28 -70t28 -68t69 -29zM596 1008l-213 -576h426zM57 0l424 1141q-109 63 -108 190q0 92 63 157q64 64 156 64t157 -63t64 -158q0 -123 -106 -188l426 -1143h-164l-105 281h-538l-103 -281h-166z" />
    <glyph glyph-name="amacron.smcp" unicode="&#xe228;" horiz-adv-x="1189" 
d="M319 1339v138h541v-138h-541zM596 1008l-213 -576h426zM57 0l453 1221h168l455 -1221h-164l-105 281h-538l-103 -281h-166z" />
    <glyph glyph-name="amacron.smcp" unicode="&#xf641;" horiz-adv-x="1189" 
d="M319 1339v138h541v-138h-541zM596 1008l-213 -576h426zM57 0l453 1221h168l455 -1221h-164l-105 281h-538l-103 -281h-166z" />
    <glyph glyph-name="abreve.smcp" unicode="&#xe229;" horiz-adv-x="1189" 
d="M922 1659q0 -141 -91 -237t-247 -97q-156 0 -240 94t-84 240h135q0 -97 50 -155q49 -58 143 -58t144 57t50 156h140zM596 1008l-213 -576h426zM57 0l453 1221h168l455 -1221h-164l-105 281h-538l-103 -281h-166z" />
    <glyph glyph-name="abreve.smcp" unicode="&#xf640;" horiz-adv-x="1189" 
d="M922 1659q0 -141 -91 -237t-247 -97q-156 0 -240 94t-84 240h135q0 -97 50 -155q49 -58 143 -58t144 57t50 156h140zM596 1008l-213 -576h426zM57 0l453 1221h168l455 -1221h-164l-105 281h-538l-103 -281h-166z" />
    <glyph glyph-name="aringacute.smcp" unicode="&#xe22d;" horiz-adv-x="1189" 
d="M591 1235q39 0 69 29q30 28 30 68t-30 70t-70 30t-68 -30t-28 -70t28 -68t69 -29zM508 1624l240 332h204l-297 -332h-147zM596 1008l-213 -576h426zM57 0l424 1141q-109 63 -108 190q0 92 63 157q64 64 156 64t157 -63t64 -158q0 -123 -106 -188l426 -1143h-164l-105 281
h-538l-103 -281h-166z" />
    <glyph glyph-name="aringacute.smcp" unicode="&#xf625;" horiz-adv-x="1189" 
d="M591 1235q39 0 69 29q30 28 30 68t-30 70t-70 30t-68 -30t-28 -70t28 -68t69 -29zM508 1624l240 332h204l-297 -332h-147zM596 1008l-213 -576h426zM57 0l424 1141q-109 63 -108 190q0 92 63 157q64 64 156 64t157 -63t64 -158q0 -123 -106 -188l426 -1143h-164l-105 281
h-538l-103 -281h-166z" />
    <glyph glyph-name="aogonek.smcp" unicode="&#xe22f;" horiz-adv-x="1189" 
d="M596 1008l-213 -576h426zM877 -225q-1 -89 125 -87q60 0 143 70l125 -86q-130 -114 -264 -114t-212 59t-77 147q0 150 235 277l-88 240h-538l-103 -281h-166l453 1221h168l455 -1221q-156 -94 -206 -138t-50 -87z" />
    <glyph glyph-name="aogonek.smcp" unicode="&#xf642;" horiz-adv-x="1189" 
d="M596 1008l-213 -576h426zM877 -225q-1 -89 125 -87q60 0 143 70l125 -86q-130 -114 -264 -114t-212 59t-77 147q0 150 235 277l-88 240h-538l-103 -281h-166l453 1221h168l455 -1221q-156 -94 -206 -138t-50 -87z" />
    <glyph glyph-name="edieresis.smcp" unicode="&#xe230;" horiz-adv-x="993" 
d="M582 1354v284h157v-284h-157zM307 1354v284h158v-284h-158zM143 0v1221h736v-148h-578v-387h578v-147h-578v-389h578v-150h-736z" />
    <glyph glyph-name="edieresis.smcp" unicode="&#xf7eb;" horiz-adv-x="993" 
d="M582 1354v284h157v-284h-157zM307 1354v284h158v-284h-158zM143 0v1221h736v-148h-578v-387h578v-147h-578v-389h578v-150h-736z" />
    <glyph glyph-name="ae.smcp" unicode="&#xe231;" horiz-adv-x="1753" 
d="M696 991l-264 -567h383zM1638 1221v-152h-792l80 -381h712v-151h-682l80 -383h602v-154h-733l-59 276h-484l-129 -276h-174l578 1221h1001z" />
    <glyph glyph-name="ae.smcp" unicode="&#xf7e6;" horiz-adv-x="1753" 
d="M696 991l-264 -567h383zM1638 1221v-152h-792l80 -381h712v-151h-682l80 -383h602v-154h-733l-59 276h-484l-129 -276h-174l578 1221h1001z" />
    <glyph glyph-name="aeacute.smcp" unicode="&#xe232;" horiz-adv-x="1767" 
d="M940 1339l240 332h204l-297 -332h-147zM698 991l-264 -567h383zM1640 1221v-152h-792l80 -381h712v-151h-682l80 -383h602v-154h-733l-59 276h-483l-129 -276h-175l578 1221h1001z" />
    <glyph glyph-name="aeacute.smcp" unicode="&#xf624;" horiz-adv-x="1767" 
d="M940 1339l240 332h204l-297 -332h-147zM698 991l-264 -567h383zM1640 1221v-152h-792l80 -381h712v-151h-682l80 -383h602v-154h-733l-59 276h-483l-129 -276h-175l578 1221h1001z" />
    <glyph glyph-name="cacute.smcp" unicode="&#xe234;" horiz-adv-x="1353" 
d="M727 -16q-268 0 -448 184q-181 184 -181 444t184 442t441 183q176 0 327 -92t228 -244l-141 -74q-59 117 -168 190t-244 73q-199 0 -332 -142t-133 -340q0 -199 135 -338t328 -139q147 0 256 77t166 204l147 -66q-82 -168 -230 -265t-335 -97zM637 1339l240 332h204
l-297 -332h-147z" />
    <glyph glyph-name="cacute.smcp" unicode="&#xf643;" horiz-adv-x="1353" 
d="M727 -16q-268 0 -448 184q-181 184 -181 444t184 442t441 183q176 0 327 -92t228 -244l-141 -74q-59 117 -168 190t-244 73q-199 0 -332 -142t-133 -340q0 -199 135 -338t328 -139q147 0 256 77t166 204l147 -66q-82 -168 -230 -265t-335 -97zM637 1339l240 332h204
l-297 -332h-147z" />
    <glyph glyph-name="ccircumflex.smcp" unicode="&#xe235;" horiz-adv-x="1353" 
d="M420 1333l244 332h135l243 -332h-163l-148 205l-145 -205h-166zM727 -16q-268 0 -448 184q-181 184 -181 444t184 442t441 183q176 0 327 -92t228 -244l-141 -74q-59 117 -168 190t-244 73q-199 0 -332 -142t-133 -340q0 -199 135 -338t328 -139q147 0 256 77t166 204
l147 -66q-82 -168 -230 -265t-335 -97z" />
    <glyph glyph-name="ccircumflex.smcp" unicode="&#xf628;" horiz-adv-x="1353" 
d="M420 1333l244 332h135l243 -332h-163l-148 205l-145 -205h-166zM727 -16q-268 0 -448 184q-181 184 -181 444t184 442t441 183q176 0 327 -92t228 -244l-141 -74q-59 117 -168 190t-244 73q-199 0 -332 -142t-133 -340q0 -199 135 -338t328 -139q147 0 256 77t166 204
l147 -66q-82 -168 -230 -265t-335 -97z" />
    <glyph glyph-name="ccaron.smcp" unicode="&#xe236;" horiz-adv-x="1353" 
d="M662 1339l-244 332h164l145 -205l147 205h164l-243 -332h-133zM727 -16q-268 0 -448 184q-181 184 -181 444t184 442t441 183q176 0 327 -92t228 -244l-141 -74q-59 117 -168 190t-244 73q-199 0 -332 -142t-133 -340q0 -199 135 -338t328 -139q147 0 256 77t166 204
l147 -66q-82 -168 -230 -265t-335 -97z" />
    <glyph glyph-name="ccaron.smcp" unicode="&#xf644;" horiz-adv-x="1353" 
d="M662 1339l-244 332h164l145 -205l147 205h164l-243 -332h-133zM727 -16q-268 0 -448 184q-181 184 -181 444t184 442t441 183q176 0 327 -92t228 -244l-141 -74q-59 117 -168 190t-244 73q-199 0 -332 -142t-133 -340q0 -199 135 -338t328 -139q147 0 256 77t166 204
l147 -66q-82 -168 -230 -265t-335 -97z" />
    <glyph glyph-name="cdotaccent.smcp" unicode="&#xe237;" horiz-adv-x="1353" 
d="M657 1354v284h158v-284h-158zM727 -16q-268 0 -448 184q-181 184 -181 444t184 442t441 183q176 0 327 -92t228 -244l-141 -74q-59 117 -168 190t-244 73q-199 0 -332 -142t-133 -340q0 -199 135 -338t328 -139q147 0 256 77t166 204l147 -66q-82 -168 -230 -265
t-335 -97z" />
    <glyph glyph-name="cdotaccent.smcp" unicode="&#xf629;" horiz-adv-x="1353" 
d="M657 1354v284h158v-284h-158zM727 -16q-268 0 -448 184q-181 184 -181 444t184 442t441 183q176 0 327 -92t228 -244l-141 -74q-59 117 -168 190t-244 73q-199 0 -332 -142t-133 -340q0 -199 135 -338t328 -139q147 0 256 77t166 204l147 -66q-82 -168 -230 -265
t-335 -97z" />
    <glyph glyph-name="ccedilla.smcp" unicode="&#xe238;" horiz-adv-x="1353" 
d="M715 -479q-178 0 -299 114l125 76q93 -73 163 -73t110 24t40 59q0 74 -145 74h-84v197q-229 35 -378 211q-149 177 -149 423t184 428t441 183q176 0 327 -92t228 -244l-141 -74q-59 117 -168 190t-244 73q-199 0 -332 -142t-133 -340q0 -199 135 -338t328 -139
q147 0 256 77t166 204l147 -66q-78 -160 -218 -256t-316 -104v-92q108 0 176 -48t68 -128t-84 -139q-84 -58 -203 -58z" />
    <glyph glyph-name="ccedilla.smcp" unicode="&#xf7e7;" horiz-adv-x="1353" 
d="M715 -479q-178 0 -299 114l125 76q93 -73 163 -73t110 24t40 59q0 74 -145 74h-84v197q-229 35 -378 211q-149 177 -149 423t184 428t441 183q176 0 327 -92t228 -244l-141 -74q-59 117 -168 190t-244 73q-199 0 -332 -142t-133 -340q0 -199 135 -338t328 -139
q147 0 256 77t166 204l147 -66q-78 -160 -218 -256t-316 -104v-92q108 0 176 -48t68 -128t-84 -139q-84 -58 -203 -58z" />
    <glyph glyph-name="dcaron.smcp" unicode="&#xe239;" horiz-adv-x="1218" 
d="M483 1339l-243 332h163l146 -205l147 205h164l-244 -332h-133zM469 1073h-168v-923h174q213 0 347 131t134 333t-130 330q-130 129 -357 129zM143 0v1221h340q287 0 462 -173q175 -172 175 -436t-179 -438t-452 -174h-346z" />
    <glyph glyph-name="dcaron.smcp" unicode="&#xf645;" horiz-adv-x="1218" 
d="M483 1339l-243 332h163l146 -205l147 205h164l-244 -332h-133zM469 1073h-168v-923h174q213 0 347 131t134 333t-130 330q-130 129 -357 129zM143 0v1221h340q287 0 462 -173q175 -172 175 -436t-179 -438t-452 -174h-346z" />
    <glyph glyph-name="dcroat.smcp" unicode="&#xe23c;" horiz-adv-x="1275" 
d="M657 543h-299v-393h174q213 0 348 131q134 131 134 333t-130 330q-130 129 -358 129h-168v-387h299v-143zM57 543v143h144v535h340q287 0 461 -173q174 -172 176 -436q0 -264 -180 -438t-451 -174h-346v543h-144z" />
    <glyph glyph-name="dcroat.smcp" unicode="&#xf646;" horiz-adv-x="1275" 
d="M657 543h-299v-393h174q213 0 348 131q134 131 134 333t-130 330q-130 129 -358 129h-168v-387h299v-143zM57 543v143h144v535h340q287 0 461 -173q174 -172 176 -436q0 -264 -180 -438t-451 -174h-346v543h-144z" />
    <glyph glyph-name="eacute.smcp" unicode="&#xe23d;" horiz-adv-x="993" 
d="M399 1339l240 332h205l-297 -332h-148zM143 0v1221h736v-148h-578v-387h578v-147h-578v-389h578v-150h-736z" />
    <glyph glyph-name="eacute.smcp" unicode="&#xf7e9;" horiz-adv-x="993" 
d="M399 1339l240 332h205l-297 -332h-148zM143 0v1221h736v-148h-578v-387h578v-147h-578v-389h578v-150h-736z" />
    <glyph glyph-name="egrave.smcp" unicode="&#xe23e;" horiz-adv-x="993" 
d="M473 1339l-297 332h203l242 -332h-148zM143 0v1221h736v-148h-578v-387h578v-147h-578v-389h578v-150h-736z" />
    <glyph glyph-name="egrave.smcp" unicode="&#xf7e8;" horiz-adv-x="993" 
d="M473 1339l-297 332h203l242 -332h-148zM143 0v1221h736v-148h-578v-387h578v-147h-578v-389h578v-150h-736z" />
    <glyph glyph-name="ecircumflex.smcp" unicode="&#xe23f;" horiz-adv-x="993" 
d="M205 1339l244 332h135l243 -332h-163l-148 205l-145 -205h-166zM143 0v1221h736v-148h-578v-387h578v-147h-578v-389h578v-150h-736z" />
    <glyph glyph-name="ecircumflex.smcp" unicode="&#xf7ea;" horiz-adv-x="993" 
d="M205 1339l244 332h135l243 -332h-163l-148 205l-145 -205h-166zM143 0v1221h736v-148h-578v-387h578v-147h-578v-389h578v-150h-736z" />
    <glyph glyph-name="gcommaaccent.smcp" unicode="&#xe240;" horiz-adv-x="1437" 
d="M680 -561h-109l84 418h146zM733 -16q-270 0 -452 183t-183 443q0 260 184 444t449 183q177 0 321 -85t224 -230l-139 -82q-61 114 -167 182t-239 68q-203 0 -337 -142t-134 -339q0 -198 133 -338t325 -140q192 -1 308 105q117 106 145 274h-460v152h628v-52
q0 -262 -168 -444t-438 -182z" />
    <glyph glyph-name="gcommaaccent.smcp" unicode="&#xf64c;" horiz-adv-x="1437" 
d="M680 -561h-109l84 418h146zM733 -16q-270 0 -452 183t-183 443q0 260 184 444t449 183q177 0 321 -85t224 -230l-139 -82q-61 114 -167 182t-239 68q-203 0 -337 -142t-134 -339q0 -198 133 -338t325 -140q192 -1 308 105q117 106 145 274h-460v152h628v-52
q0 -262 -168 -444t-438 -182z" />
    <glyph glyph-name="ecaron.smcp" unicode="&#xe241;" horiz-adv-x="993" 
d="M446 1339l-243 332h164l145 -205l147 205h164l-243 -332h-134zM143 0v1221h736v-148h-578v-387h578v-147h-578v-389h578v-150h-736z" />
    <glyph glyph-name="ecaron.smcp" unicode="&#xf647;" horiz-adv-x="993" 
d="M446 1339l-243 332h164l145 -205l147 205h164l-243 -332h-134zM143 0v1221h736v-148h-578v-387h578v-147h-578v-389h578v-150h-736z" />
    <glyph glyph-name="emacron.smcp" unicode="&#xe242;" horiz-adv-x="993" 
d="M242 1339v138h540v-138h-540zM143 0v1221h736v-148h-578v-387h578v-147h-578v-389h578v-150h-736z" />
    <glyph glyph-name="emacron.smcp" unicode="&#xf649;" horiz-adv-x="993" 
d="M242 1339v138h540v-138h-540zM143 0v1221h736v-148h-578v-387h578v-147h-578v-389h578v-150h-736z" />
    <glyph glyph-name="ebreve.smcp" unicode="&#xe243;" horiz-adv-x="993" 
d="M844 1659q0 -141 -91 -237t-247 -97q-156 0 -240 94t-84 240h135q1 -97 51 -155t143 -58t143 57t51 156h139zM143 0v1221h736v-148h-578v-387h578v-147h-578v-389h578v-150h-736z" />
    <glyph glyph-name="ebreve.smcp" unicode="&#xf62a;" horiz-adv-x="993" 
d="M844 1659q0 -141 -91 -237t-247 -97q-156 0 -240 94t-84 240h135q1 -97 51 -155t143 -58t143 57t51 156h139zM143 0v1221h736v-148h-578v-387h578v-147h-578v-389h578v-150h-736z" />
    <glyph glyph-name="edotaccent.smcp" unicode="&#xe246;" horiz-adv-x="993" 
d="M451 1354v284h157v-284h-157zM143 0v1221h736v-148h-578v-387h578v-147h-578v-389h578v-150h-736z" />
    <glyph glyph-name="edotaccent.smcp" unicode="&#xf648;" horiz-adv-x="993" 
d="M451 1354v284h157v-284h-157zM143 0v1221h736v-148h-578v-387h578v-147h-578v-389h578v-150h-736z" />
    <glyph glyph-name="eogonek.smcp" unicode="&#xe249;" horiz-adv-x="993" 
d="M623 -225q-1 -89 125 -87q60 0 143 70l125 -86q-130 -114 -264 -114t-212 59t-77 147q0 129 166 236h-486v1221h736v-148h-578v-387h578v-147h-578v-389h578v-150q-156 -94 -206 -138t-50 -87z" />
    <glyph glyph-name="eogonek.smcp" unicode="&#xf64a;" horiz-adv-x="993" 
d="M623 -225q-1 -89 125 -87q60 0 143 70l125 -86q-130 -114 -264 -114t-212 59t-77 147q0 129 166 236h-486v1221h736v-148h-578v-387h578v-147h-578v-389h578v-150q-156 -94 -206 -138t-50 -87z" />
    <glyph glyph-name="gcircumflex.smcp" unicode="&#xe24b;" horiz-adv-x="1437" 
d="M410 1337l243 332h135l244 -332h-164l-147 205l-146 -205h-165zM733 -16q-270 0 -452 183t-183 443q0 260 184 444t449 183q177 0 321 -85t224 -230l-139 -82q-61 114 -167 182t-239 68q-203 0 -337 -142t-134 -339q0 -198 133 -338t325 -140q192 -1 308 105
q117 106 145 274h-460v152h628v-52q0 -262 -168 -444t-438 -182z" />
    <glyph glyph-name="gcircumflex.smcp" unicode="&#xf62c;" horiz-adv-x="1437" 
d="M410 1337l243 332h135l244 -332h-164l-147 205l-146 -205h-165zM733 -16q-270 0 -452 183t-183 443q0 260 184 444t449 183q177 0 321 -85t224 -230l-139 -82q-61 114 -167 182t-239 68q-203 0 -337 -142t-134 -339q0 -198 133 -338t325 -140q192 -1 308 105
q117 106 145 274h-460v152h628v-52q0 -262 -168 -444t-438 -182z" />
    <glyph glyph-name="gbreve.smcp" unicode="&#xe24e;" horiz-adv-x="1437" 
d="M1055 1671q0 -141 -91 -237t-247 -97q-156 1 -240 95t-84 239h135q0 -98 50 -155t145 -60q92 2 142 60t50 155h140zM733 -16q-270 0 -452 183t-183 443q0 260 184 444t449 183q177 0 321 -85t224 -230l-139 -82q-61 114 -167 182t-239 68q-203 0 -337 -142t-134 -339
q0 -198 133 -338t325 -140q192 -1 308 105q117 106 145 274h-460v152h628v-52q0 -262 -168 -444t-438 -182z" />
    <glyph glyph-name="gbreve.smcp" unicode="&#xf64b;" horiz-adv-x="1437" 
d="M1055 1671q0 -141 -91 -237t-247 -97q-156 1 -240 95t-84 239h135q0 -98 50 -155t145 -60q92 2 142 60t50 155h140zM733 -16q-270 0 -452 183t-183 443q0 260 184 444t449 183q177 0 321 -85t224 -230l-139 -82q-61 114 -167 182t-239 68q-203 0 -337 -142t-134 -339
q0 -198 133 -338t325 -140q192 -1 308 105q117 106 145 274h-460v152h628v-52q0 -262 -168 -444t-438 -182z" />
    <glyph glyph-name="gdotaccent.smcp" unicode="&#xe24f;" horiz-adv-x="1437" 
d="M651 1354v284h158v-284h-158zM733 -16q-270 0 -452 183t-183 443q0 260 184 444t449 183q177 0 321 -85t224 -230l-139 -82q-61 114 -167 182t-239 68q-203 0 -337 -142t-134 -339q0 -198 133 -338t325 -140q192 -1 308 105q117 106 145 274h-460v152h628v-52
q0 -262 -168 -444t-438 -182z" />
    <glyph glyph-name="gdotaccent.smcp" unicode="&#xf62d;" horiz-adv-x="1437" 
d="M651 1354v284h158v-284h-158zM733 -16q-270 0 -452 183t-183 443q0 260 184 444t449 183q177 0 321 -85t224 -230l-139 -82q-61 114 -167 182t-239 68q-203 0 -337 -142t-134 -339q0 -198 133 -338t325 -140q192 -1 308 105q117 106 145 274h-460v152h628v-52
q0 -262 -168 -444t-438 -182z" />
    <glyph glyph-name="hcircumflex.smcp" unicode="&#xe253;" horiz-adv-x="1198" 
d="M281 1337l243 332h135l244 -332h-164l-147 205l-146 -205h-165zM897 0v539h-596v-539h-158v1221h158v-533h596v533h158v-1221h-158z" />
    <glyph glyph-name="hcircumflex.smcp" unicode="&#xf62f;" horiz-adv-x="1198" 
d="M281 1337l243 332h135l244 -332h-164l-147 205l-146 -205h-165zM897 0v539h-596v-539h-158v1221h158v-533h596v533h158v-1221h-158z" />
    <glyph glyph-name="hbar.smcp" unicode="&#xe257;" horiz-adv-x="1304" 
d="M354 881v-193h596v193h-596zM950 0v539h-596v-539h-157v881h-144v149h144v191h157v-191h596v191h158v-191h143v-149h-143v-881h-158z" />
    <glyph glyph-name="hbar.smcp" unicode="&#xf62e;" horiz-adv-x="1304" 
d="M354 881v-193h596v193h-596zM950 0v539h-596v-539h-157v881h-144v149h144v191h157v-191h596v191h158v-191h143v-149h-143v-881h-158z" />
    <glyph glyph-name="iacute.smcp" unicode="&#xe258;" horiz-adv-x="468" 
d="M154 0v1221h161v-1221h-161zM147 1339l240 332h205l-297 -332h-148z" />
    <glyph glyph-name="iacute.smcp" unicode="&#xf7ed;" horiz-adv-x="468" 
d="M154 0v1221h161v-1221h-161zM147 1339l240 332h205l-297 -332h-148z" />
    <glyph glyph-name="igrave.smcp" unicode="&#xe259;" horiz-adv-x="468" 
d="M154 0v1221h161v-1221h-161zM158 1339l-297 332h202l242 -332h-147z" />
    <glyph glyph-name="igrave.smcp" unicode="&#xf7ec;" horiz-adv-x="468" 
d="M154 0v1221h161v-1221h-161zM158 1339l-297 332h202l242 -332h-147z" />
    <glyph glyph-name="icircumflex.smcp" unicode="&#xe25a;" horiz-adv-x="468" 
d="M-82 1323l244 332h135l244 -332h-164l-148 205l-145 -205h-166zM154 0v1221h161v-1221h-161z" />
    <glyph glyph-name="icircumflex.smcp" unicode="&#xf7ee;" horiz-adv-x="468" 
d="M-82 1323l244 332h135l244 -332h-164l-148 205l-145 -205h-166zM154 0v1221h161v-1221h-161z" />
    <glyph glyph-name="idieresis.smcp" unicode="&#xe25b;" horiz-adv-x="468" 
d="M154 0v1221h161v-1221h-161zM-51 1354v284h157v-284h-157zM365 1354v284h157v-284h-157z" />
    <glyph glyph-name="idieresis.smcp" unicode="&#xf7ef;" horiz-adv-x="468" 
d="M154 0v1221h161v-1221h-161zM-51 1354v284h157v-284h-157zM365 1354v284h157v-284h-157z" />
    <glyph glyph-name="itilde.smcp" unicode="&#xe25c;" horiz-adv-x="468" 
d="M154 0v1221h161v-1221h-161zM-119 1339q1 111 57 179q109 131 312 12q90 -57 129 -57q80 0 80 106h127q0 -115 -54 -181t-139 -67q-86 1 -181 57t-128 56q-76 0 -76 -105h-127z" />
    <glyph glyph-name="itilde.smcp" unicode="&#xf632;" horiz-adv-x="468" 
d="M154 0v1221h161v-1221h-161zM-119 1339q1 111 57 179q109 131 312 12q90 -57 129 -57q80 0 80 106h127q0 -115 -54 -181t-139 -67q-86 1 -181 57t-128 56q-76 0 -76 -105h-127z" />
    <glyph glyph-name="imacron.smcp" unicode="&#xe25e;" horiz-adv-x="468" 
d="M154 0v1221h161v-1221h-161zM-41 1339v138h541v-138h-541z" />
    <glyph glyph-name="imacron.smcp" unicode="&#xf64d;" horiz-adv-x="468" 
d="M154 0v1221h161v-1221h-161zM-41 1339v138h541v-138h-541z" />
    <glyph glyph-name="ibreve.smcp" unicode="&#xe25f;" horiz-adv-x="468" 
d="M154 0v1221h161v-1221h-161zM563 1659q0 -141 -91 -237t-247 -97q-155 0 -239 94t-84 240h135q0 -97 50 -155t143 -58t144 57q50 57 50 156h139z" />
    <glyph glyph-name="ibreve.smcp" unicode="&#xf630;" horiz-adv-x="468" 
d="M154 0v1221h161v-1221h-161zM563 1659q0 -141 -91 -237t-247 -97q-155 0 -239 94t-84 240h135q0 -97 50 -155t143 -58t144 57q50 57 50 156h139z" />
    <glyph glyph-name="idotaccent.smcp" unicode="&#xe262;" horiz-adv-x="468" 
d="M154 1337v285h157v-285h-157zM154 0v1221h161v-1221h-161z" />
    <glyph glyph-name="idotaccent.smcp" unicode="&#xf666;" horiz-adv-x="468" 
d="M154 1337v285h157v-285h-157zM154 0v1221h161v-1221h-161z" />
    <glyph glyph-name="iogonek.smcp" unicode="&#xe264;" horiz-adv-x="468" 
d="M249 -444q-120 0 -182 64t-63 159q0 127 150 252v1190h161v-1221q-162 -129 -161 -215q0 -41 28 -68t84 -27t119 54l90 -111q-106 -77 -226 -77z" />
    <glyph glyph-name="iogonek.smcp" unicode="&#xf64e;" horiz-adv-x="468" 
d="M249 -444q-120 0 -182 64t-63 159q0 127 150 252v1190h161v-1221q-162 -129 -161 -215q0 -41 28 -68t84 -27t119 54l90 -111q-106 -77 -226 -77z" />
    <glyph glyph-name="jcircumflex.smcp" unicode="&#xe265;" horiz-adv-x="823" 
d="M289 1319l243 332h136l243 -332h-163l-148 205l-145 -205h-166zM690 336q0 -170 -84 -261t-220 -91q-134 0 -222 55t-125 147l149 74q49 -129 179 -129q77 0 121 53t44 144v893h158v-885z" />
    <glyph glyph-name="jcircumflex.smcp" unicode="&#xf633;" horiz-adv-x="823" 
d="M289 1319l243 332h136l243 -332h-163l-148 205l-145 -205h-166zM690 336q0 -170 -84 -261t-220 -91q-134 0 -222 55t-125 147l149 74q49 -129 179 -129q77 0 121 53t44 144v893h158v-885z" />
    <glyph glyph-name="kcommaaccent.smcp" unicode="&#xe268;" horiz-adv-x="1128" 
d="M545 -520h-109l84 418h146zM301 0h-158v1221h158v-621l557 621h195l-435 -482l453 -739h-180l-385 629l-205 -228v-401z" />
    <glyph glyph-name="kcommaaccent.smcp" unicode="&#xf64f;" horiz-adv-x="1128" 
d="M545 -520h-109l84 418h146zM301 0h-158v1221h158v-621l557 621h195l-435 -482l453 -739h-180l-385 629l-205 -228v-401z" />
    <glyph glyph-name="lacute.smcp" unicode="&#xe26b;" horiz-adv-x="915" 
d="M137 1339l240 332h205l-297 -332h-148zM143 0v1221h158v-1069h518v-152h-676z" />
    <glyph glyph-name="lacute.smcp" unicode="&#xf650;" horiz-adv-x="915" 
d="M137 1339l240 332h205l-297 -332h-148zM143 0v1221h158v-1069h518v-152h-676z" />
    <glyph glyph-name="lcaron.smcp" unicode="&#xe26c;" horiz-adv-x="915" 
d="M612 844l84 377h146l-121 -377h-109zM143 0v1221h158v-1069h518v-152h-676z" />
    <glyph glyph-name="lcaron.smcp" unicode="&#xf651;" horiz-adv-x="915" 
d="M612 844l84 377h146l-121 -377h-109zM143 0v1221h158v-1069h518v-152h-676z" />
    <glyph glyph-name="lcommaaccent.smcp" unicode="&#xe26d;" horiz-adv-x="915" 
d="M440 -520h-108l84 418h145zM143 0v1221h158v-1069h518v-152h-676z" />
    <glyph glyph-name="lcommaaccent.smcp" unicode="&#xf652;" horiz-adv-x="915" 
d="M440 -520h-108l84 418h145zM143 0v1221h158v-1069h518v-152h-676z" />
    <glyph glyph-name="ldot.smcp" unicode="&#xe271;" horiz-adv-x="915" 
d="M659 520v285h158v-285h-158zM143 0v1221h158v-1069h518v-152h-676z" />
    <glyph glyph-name="ldot.smcp" unicode="&#xf634;" horiz-adv-x="915" 
d="M659 520v285h158v-285h-158zM143 0v1221h158v-1069h518v-152h-676z" />
    <glyph glyph-name="lslash.smcp" unicode="&#xe272;" horiz-adv-x="962" 
d="M190 1221h158v-543l357 166v-139l-357 -164v-389h518v-152h-676v469l-155 -72v138l155 71v615z" />
    <glyph glyph-name="lslash.smcp" unicode="&#xf6f9;" horiz-adv-x="962" 
d="M190 1221h158v-543l357 166v-139l-357 -164v-389h518v-152h-676v469l-155 -72v138l155 71v615z" />
    <glyph glyph-name="nacute.smcp" unicode="&#xe276;" horiz-adv-x="1288" 
d="M573 1323l240 332h205l-297 -332h-148zM143 0v1221h176l668 -965v965h158v-1221h-168l-676 975v-975h-158z" />
    <glyph glyph-name="nacute.smcp" unicode="&#xf653;" horiz-adv-x="1288" 
d="M573 1323l240 332h205l-297 -332h-148zM143 0v1221h176l668 -965v965h158v-1221h-168l-676 975v-975h-158z" />
    <glyph glyph-name="ntilde.smcp" unicode="&#xe279;" horiz-adv-x="1288" 
d="M297 1339q0 111 56 179q108 132 313 12q90 -57 129 -57q80 0 79 106h127q0 -115 -53 -181t-139 -67q-85 1 -181 57t-128 56q-76 0 -76 -105h-127zM143 0v1221h176l668 -965v965h158v-1221h-168l-676 975v-975h-158z" />
    <glyph glyph-name="ncaron.smcp" unicode="&#xe27a;" horiz-adv-x="1288" 
d="M582 1323l-244 332h164l145 -205l148 205h163l-243 -332h-133zM143 0v1221h176l668 -965v965h158v-1221h-168l-676 975v-975h-158z" />
    <glyph glyph-name="ncaron.smcp" unicode="&#xf654;" horiz-adv-x="1288" 
d="M582 1323l-244 332h164l145 -205l148 205h163l-243 -332h-133zM143 0v1221h176l668 -965v965h158v-1221h-168l-676 975v-975h-158z" />
    <glyph glyph-name="ncommaaccent.smcp" unicode="&#xe27d;" horiz-adv-x="1288" 
d="M621 -520h-109l84 418h145zM143 0v1221h176l668 -965v965h158v-1221h-168l-676 975v-975h-158z" />
    <glyph glyph-name="ncommaaccent.smcp" unicode="&#xf655;" horiz-adv-x="1288" 
d="M621 -520h-109l84 418h145zM143 0v1221h176l668 -965v965h158v-1221h-168l-676 975v-975h-158z" />
    <glyph glyph-name="oacute.smcp" unicode="&#xe281;" horiz-adv-x="1447" 
d="M723 131q195 0 329 140t134 339t-134 339q-134 141 -329 141t-329 -140t-134 -340q0 -199 134 -339t329 -140zM723 -16q-260 0 -442 183t-183 443q0 260 182 444t443 183q260 0 443 -183q184 -184 184 -444t-184 -443t-443 -183zM621 1339l239 332h205l-297 -332h-147z
" />
    <glyph glyph-name="oacute.smcp" unicode="&#xf7f3;" horiz-adv-x="1447" 
d="M723 131q195 0 329 140t134 339t-134 339q-134 141 -329 141t-329 -140t-134 -340q0 -199 134 -339t329 -140zM723 -16q-260 0 -442 183t-183 443q0 260 182 444t443 183q260 0 443 -183q184 -184 184 -444t-184 -443t-443 -183zM621 1339l239 332h205l-297 -332h-147z
" />
    <glyph glyph-name="ograve.smcp" unicode="&#xe282;" horiz-adv-x="1447" 
d="M649 1339l-297 332h203l242 -332h-148zM723 131q195 0 329 140t134 339t-134 339q-134 141 -329 141t-329 -140t-134 -340q0 -199 134 -339t329 -140zM723 -16q-260 0 -442 183t-183 443q0 260 182 444t443 183q260 0 443 -183q184 -184 184 -444t-184 -443t-443 -183z
" />
    <glyph glyph-name="ograve.smcp" unicode="&#xf7f2;" horiz-adv-x="1447" 
d="M649 1339l-297 332h203l242 -332h-148zM723 131q195 0 329 140t134 339t-134 339q-134 141 -329 141t-329 -140t-134 -340q0 -199 134 -339t329 -140zM723 -16q-260 0 -442 183t-183 443q0 260 182 444t443 183q260 0 443 -183q184 -184 184 -444t-184 -443t-443 -183z
" />
    <glyph glyph-name="ocircumflex.smcp" unicode="&#xe283;" horiz-adv-x="1447" 
d="M412 1331l243 332h136l243 -332h-164l-147 205l-145 -205h-166zM723 131q195 0 329 140t134 339t-134 339q-134 141 -329 141t-329 -140t-134 -340q0 -199 134 -339t329 -140zM723 -16q-260 0 -442 183t-183 443q0 260 182 444t443 183q260 0 443 -183q184 -184 184 -444
t-184 -443t-443 -183z" />
    <glyph glyph-name="ocircumflex.smcp" unicode="&#xf7f4;" horiz-adv-x="1447" 
d="M412 1331l243 332h136l243 -332h-164l-147 205l-145 -205h-166zM723 131q195 0 329 140t134 339t-134 339q-134 141 -329 141t-329 -140t-134 -340q0 -199 134 -339t329 -140zM723 -16q-260 0 -442 183t-183 443q0 260 182 444t443 183q260 0 443 -183q184 -184 184 -444
t-184 -443t-443 -183z" />
    <glyph glyph-name="odieresis.smcp" unicode="&#xe284;" horiz-adv-x="1447" 
d="M723 131q195 0 329 140t134 339t-134 339q-134 141 -329 141t-329 -140t-134 -340q0 -199 134 -339t329 -140zM723 -16q-260 0 -442 183t-183 443q0 260 182 444t443 183q260 0 443 -183q184 -184 184 -444t-184 -443t-443 -183zM512 1352v284h158v-284h-158zM786 1352
v284h158v-284h-158z" />
    <glyph glyph-name="odieresis.smcp" unicode="&#xf7f6;" horiz-adv-x="1447" 
d="M723 131q195 0 329 140t134 339t-134 339q-134 141 -329 141t-329 -140t-134 -340q0 -199 134 -339t329 -140zM723 -16q-260 0 -442 183t-183 443q0 260 182 444t443 183q260 0 443 -183q184 -184 184 -444t-184 -443t-443 -183zM512 1352v284h158v-284h-158zM786 1352
v284h158v-284h-158z" />
    <glyph glyph-name="otilde.smcp" unicode="&#xe285;" horiz-adv-x="1447" 
d="M373 1339q0 111 56 179q108 131 312 12q90 -57 129 -57q80 0 80 106h127q0 -115 -53 -181q-54 -66 -140 -67q-86 1 -181 57t-128 56q-76 0 -75 -105h-127zM723 131q195 0 329 140t134 339t-134 339q-134 141 -329 141t-329 -140t-134 -340q0 -199 134 -339t329 -140z
M723 -16q-260 0 -442 183t-183 443q0 260 182 444t443 183q260 0 443 -183q184 -184 184 -444t-184 -443t-443 -183z" />
    <glyph glyph-name="otilde.smcp" unicode="&#xf7f5;" horiz-adv-x="1447" 
d="M373 1339q0 111 56 179q108 131 312 12q90 -57 129 -57q80 0 80 106h127q0 -115 -53 -181q-54 -66 -140 -67q-86 1 -181 57t-128 56q-76 0 -75 -105h-127zM723 131q195 0 329 140t134 339t-134 339q-134 141 -329 141t-329 -140t-134 -340q0 -199 134 -339t329 -140z
M723 -16q-260 0 -442 183t-183 443q0 260 182 444t443 183q260 0 443 -183q184 -184 184 -444t-184 -443t-443 -183z" />
    <glyph glyph-name="omacron.smcp" unicode="&#xe287;" horiz-adv-x="1447" 
d="M723 131q195 0 329 140t134 339t-134 339q-134 141 -329 141t-329 -140t-134 -340q0 -199 134 -339t329 -140zM723 -16q-260 0 -442 183t-183 443q0 260 182 444t443 183q260 0 443 -183q184 -184 184 -444t-184 -443t-443 -183zM455 1339v138h540v-138h-540z" />
    <glyph glyph-name="omacron.smcp" unicode="&#xf657;" horiz-adv-x="1447" 
d="M723 131q195 0 329 140t134 339t-134 339q-134 141 -329 141t-329 -140t-134 -340q0 -199 134 -339t329 -140zM723 -16q-260 0 -442 183t-183 443q0 260 182 444t443 183q260 0 443 -183q184 -184 184 -444t-184 -443t-443 -183zM455 1339v138h540v-138h-540z" />
    <glyph glyph-name="obreve.smcp" unicode="&#xe288;" horiz-adv-x="1447" 
d="M1053 1671q0 -141 -91 -237t-247 -97q-156 1 -240 95t-84 239h135q0 -98 50 -155t145 -60q92 2 142 60t50 155h140zM723 131q195 0 329 140t134 339t-134 339q-134 141 -329 141t-329 -140t-134 -340q0 -199 134 -339t329 -140zM723 -16q-260 0 -442 183t-183 443
q0 260 182 444t443 183q260 0 443 -183q184 -184 184 -444t-184 -443t-443 -183z" />
    <glyph glyph-name="obreve.smcp" unicode="&#xf635;" horiz-adv-x="1447" 
d="M1053 1671q0 -141 -91 -237t-247 -97q-156 1 -240 95t-84 239h135q0 -98 50 -155t145 -60q92 2 142 60t50 155h140zM723 131q195 0 329 140t134 339t-134 339q-134 141 -329 141t-329 -140t-134 -340q0 -199 134 -339t329 -140zM723 -16q-260 0 -442 183t-183 443
q0 260 182 444t443 183q260 0 443 -183q184 -184 184 -444t-184 -443t-443 -183z" />
    <glyph glyph-name="ohungarumlaut.smcp" unicode="&#xe28a;" horiz-adv-x="1447" 
d="M723 131q195 0 329 140t134 339t-134 339q-134 141 -329 141t-329 -140t-134 -340q0 -199 134 -339t329 -140zM723 -16q-260 0 -442 183t-183 443q0 260 182 444t443 183q260 0 443 -183q184 -184 184 -444t-184 -443t-443 -183zM786 1339l242 332h193l-297 -332h-138z
M496 1339l239 332h193l-297 -332h-135z" />
    <glyph glyph-name="ohungarumlaut.smcp" unicode="&#xf656;" horiz-adv-x="1447" 
d="M723 131q195 0 329 140t134 339t-134 339q-134 141 -329 141t-329 -140t-134 -340q0 -199 134 -339t329 -140zM723 -16q-260 0 -442 183t-183 443q0 260 182 444t443 183q260 0 443 -183q184 -184 184 -444t-184 -443t-443 -183zM786 1339l242 332h193l-297 -332h-138z
M496 1339l239 332h193l-297 -332h-135z" />
    <glyph glyph-name="oslash.smcp" unicode="&#xe295;" horiz-adv-x="1447" 
d="M723 137q195 0 330 138q135 137 135 327t-121 328l-571 -735q104 -58 227 -58zM258 616q0 -190 123 -329l571 735q-106 61 -229 61q-195 0 -330 -139q-135 -138 -135 -328zM723 -16q-172 0 -322 88l-57 -72h-186l127 162q-187 182 -187 445t182 447t443 183
q170 0 326 -92l59 76h184l-129 -166q187 -181 187 -443t-184 -445t-443 -183z" />
    <glyph glyph-name="oslash.smcp" unicode="&#xf7f8;" horiz-adv-x="1447" 
d="M723 137q195 0 330 138q135 137 135 327t-121 328l-571 -735q104 -58 227 -58zM258 616q0 -190 123 -329l571 735q-106 61 -229 61q-195 0 -330 -139q-135 -138 -135 -328zM723 -16q-172 0 -322 88l-57 -72h-186l127 162q-187 182 -187 445t182 447t443 183
q170 0 326 -92l59 76h184l-129 -166q187 -181 187 -443t-184 -445t-443 -183z" />
    <glyph glyph-name="oslashacute.smcp" unicode="&#xe296;" horiz-adv-x="1452" 
d="M629 1339l239 332h205l-297 -332h-147zM725 137q195 0 330 138q135 137 135 327t-121 328l-571 -735q104 -58 227 -58zM260 616q0 -190 123 -329l571 735q-106 61 -229 61q-195 0 -330 -139q-135 -138 -135 -328zM725 -16q-172 0 -322 88l-57 -72h-186l127 162
q-187 182 -187 445t182 447t443 183q170 0 326 -92l59 76h184l-129 -166q187 -181 187 -443t-184 -445t-443 -183z" />
    <glyph glyph-name="oslashacute.smcp" unicode="&#xf627;" horiz-adv-x="1452" 
d="M629 1339l239 332h205l-297 -332h-147zM725 137q195 0 330 138q135 137 135 327t-121 328l-571 -735q104 -58 227 -58zM260 616q0 -190 123 -329l571 735q-106 61 -229 61q-195 0 -330 -139q-135 -138 -135 -328zM725 -16q-172 0 -322 88l-57 -72h-186l127 162
q-187 182 -187 445t182 447t443 183q170 0 326 -92l59 76h184l-129 -166q187 -181 187 -443t-184 -445t-443 -183z" />
    <glyph glyph-name="oe.smcp" unicode="&#xe298;" horiz-adv-x="2035" 
d="M720 131q192 0 326 133q132 133 140 326v20q0 199 -134 339q-134 141 -329 141t-329 -140t-134 -340q0 -199 134 -339t326 -140zM1186 0v211q-174 -227 -448 -227t-457 183q-182 183 -183 443q0 260 182 444t456 183q274 0 450 -229v213h735v-148h-578v-387h578v-147
h-578v-389h578v-150h-735z" />
    <glyph glyph-name="oe.smcp" unicode="&#xf6fa;" horiz-adv-x="2035" 
d="M720 131q192 0 326 133q132 133 140 326v20q0 199 -134 339q-134 141 -329 141t-329 -140t-134 -340q0 -199 134 -339t326 -140zM1186 0v211q-174 -227 -448 -227t-457 183q-182 183 -183 443q0 260 182 444t456 183q274 0 450 -229v213h735v-148h-578v-387h578v-147
h-578v-389h578v-150h-735z" />
    <glyph glyph-name="racute.smcp" unicode="&#xe29a;" horiz-adv-x="1046" 
d="M418 1339l239 332h205l-297 -332h-147zM143 0v1221h379q184 0 304 -114t120 -282q0 -129 -76 -231t-206 -137l299 -457h-189l-364 571h92q129 0 205 78q75 77 75 183t-67 174q-68 68 -201 67h-209v-1073h-162z" />
    <glyph glyph-name="racute.smcp" unicode="&#xf658;" horiz-adv-x="1046" 
d="M418 1339l239 332h205l-297 -332h-147zM143 0v1221h379q184 0 304 -114t120 -282q0 -129 -76 -231t-206 -137l299 -457h-189l-364 571h92q129 0 205 78q75 77 75 183t-67 174q-68 68 -201 67h-209v-1073h-162z" />
    <glyph glyph-name="rcaron.smcp" unicode="&#xe29b;" horiz-adv-x="1046" 
d="M479 1339l-243 332h163l146 -205l147 205h164l-244 -332h-133zM143 0v1221h379q184 0 304 -114t120 -282q0 -129 -76 -231t-206 -137l299 -457h-189l-364 571h92q129 0 205 78q75 77 75 183t-67 174q-68 68 -201 67h-209v-1073h-162z" />
    <glyph glyph-name="rcaron.smcp" unicode="&#xf659;" horiz-adv-x="1046" 
d="M479 1339l-243 332h163l146 -205l147 205h164l-244 -332h-133zM143 0v1221h379q184 0 304 -114t120 -282q0 -129 -76 -231t-206 -137l299 -457h-189l-364 571h92q129 0 205 78q75 77 75 183t-67 174q-68 68 -201 67h-209v-1073h-162z" />
    <glyph glyph-name="rcommaaccent.smcp" unicode="&#xe29e;" horiz-adv-x="1046" 
d="M489 -520h-108l84 418h145zM143 0v1221h379q184 0 304 -114t120 -282q0 -129 -76 -231t-206 -137l299 -457h-189l-364 571h92q129 0 205 78q75 77 75 183t-67 174q-68 68 -201 67h-209v-1073h-162z" />
    <glyph glyph-name="rcommaaccent.smcp" unicode="&#xf65a;" horiz-adv-x="1046" 
d="M489 -520h-108l84 418h145zM143 0v1221h379q184 0 304 -114t120 -282q0 -129 -76 -231t-206 -137l299 -457h-189l-364 571h92q129 0 205 78q75 77 75 183t-67 174q-68 68 -201 67h-209v-1073h-162z" />
    <glyph glyph-name="ucircumflex.smcp" unicode="&#xe300;" horiz-adv-x="1099" 
d="M227 1339l244 332h135l244 -332h-164l-147 205l-146 -205h-166zM549 -16q-184 0 -300 112t-116 301v824h158v-832q-1 -117 71 -187t188 -71q116 0 188 71t71 187v832h158v-824q0 -189 -117 -301t-301 -112z" />
    <glyph glyph-name="ucircumflex.smcp" unicode="&#xf7fb;" horiz-adv-x="1099" 
d="M227 1339l244 332h135l244 -332h-164l-147 205l-146 -205h-166zM549 -16q-184 0 -300 112t-116 301v824h158v-832q-1 -117 71 -187t188 -71q116 0 188 71t71 187v832h158v-824q0 -189 -117 -301t-301 -112z" />
    <glyph glyph-name="sacute.smcp" unicode="&#xe302;" horiz-adv-x="978" 
d="M487 -16q-270 0 -442 221l139 108q113 -182 301 -182q102 0 169 60t67 136t-41 120t-105 71t-141 52q-78 24 -125 44t-103 60q-112 81 -112 229q0 147 110 241t271 93q242 0 389 -180l-129 -99q-86 139 -258 140q-95 0 -157 -52t-62 -138t77 -132q60 -36 202 -84
q142 -47 234 -109q114 -79 114 -232q0 -155 -111 -261t-287 -106zM389 1339l240 332h205l-297 -332h-148z" />
    <glyph glyph-name="sacute.smcp" unicode="&#xf65b;" horiz-adv-x="978" 
d="M487 -16q-270 0 -442 221l139 108q113 -182 301 -182q102 0 169 60t67 136t-41 120t-105 71t-141 52q-78 24 -125 44t-103 60q-112 81 -112 229q0 147 110 241t271 93q242 0 389 -180l-129 -99q-86 139 -258 140q-95 0 -157 -52t-62 -138t77 -132q60 -36 202 -84
q142 -47 234 -109q114 -79 114 -232q0 -155 -111 -261t-287 -106zM389 1339l240 332h205l-297 -332h-148z" />
    <glyph glyph-name="scircumflex.smcp" unicode="&#xe303;" horiz-adv-x="978" 
d="M162 1337l244 332h135l243 -332h-163l-148 205l-145 -205h-166zM487 -16q-270 0 -442 221l139 108q113 -182 301 -182q102 0 169 60t67 136t-41 120t-105 71t-141 52q-78 24 -125 44t-103 60q-112 81 -112 229q0 147 110 241t271 93q242 0 389 -180l-129 -99
q-86 139 -258 140q-95 0 -157 -52t-62 -138t77 -132q60 -36 202 -84q142 -47 234 -109q114 -79 114 -232q0 -155 -111 -261t-287 -106z" />
    <glyph glyph-name="scircumflex.smcp" unicode="&#xf636;" horiz-adv-x="978" 
d="M162 1337l244 332h135l243 -332h-163l-148 205l-145 -205h-166zM487 -16q-270 0 -442 221l139 108q113 -182 301 -182q102 0 169 60t67 136t-41 120t-105 71t-141 52q-78 24 -125 44t-103 60q-112 81 -112 229q0 147 110 241t271 93q242 0 389 -180l-129 -99
q-86 139 -258 140q-95 0 -157 -52t-62 -138t77 -132q60 -36 202 -84q142 -47 234 -109q114 -79 114 -232q0 -155 -111 -261t-287 -106z" />
    <glyph glyph-name="scaron.smcp" unicode="&#xe304;" horiz-adv-x="978" 
d="M418 1339l-244 332h164l145 -205l148 205h164l-244 -332h-133zM487 -16q-270 0 -442 221l139 108q113 -182 301 -182q102 0 169 60t67 136t-41 120t-105 71t-141 52q-78 24 -125 44t-103 60q-112 81 -112 229q0 147 110 241t271 93q242 0 389 -180l-129 -99
q-86 139 -258 140q-95 0 -157 -52t-62 -138t77 -132q60 -36 202 -84q142 -47 234 -109q114 -79 114 -232q0 -155 -111 -261t-287 -106z" />
    <glyph glyph-name="scaron.smcp" unicode="&#xf6fd;" horiz-adv-x="978" 
d="M418 1339l-244 332h164l145 -205l148 205h164l-244 -332h-133zM487 -16q-270 0 -442 221l139 108q113 -182 301 -182q102 0 169 60t67 136t-41 120t-105 71t-141 52q-78 24 -125 44t-103 60q-112 81 -112 229q0 147 110 241t271 93q242 0 389 -180l-129 -99
q-86 139 -258 140q-95 0 -157 -52t-62 -138t77 -132q60 -36 202 -84q142 -47 234 -109q114 -79 114 -232q0 -155 -111 -261t-287 -106z" />
    <glyph glyph-name="scommaaccent.smcp" unicode="&#xe305;" horiz-adv-x="978" 
d="M487 -16q-270 0 -442 221l139 108q113 -182 301 -182q102 0 169 60t67 136t-41 120t-105 71t-141 52q-78 24 -125 44t-103 60q-112 81 -112 229q0 147 110 241t271 93q242 0 389 -180l-129 -99q-86 139 -258 140q-95 0 -157 -52t-62 -138t77 -132q60 -36 202 -84
q142 -47 234 -109q114 -79 114 -232q0 -155 -111 -261t-287 -106zM432 -520h-108l84 418h145z" />
    <glyph glyph-name="scommaaccent.smcp" unicode="&#xf65d;" horiz-adv-x="978" 
d="M487 -16q-270 0 -442 221l139 108q113 -182 301 -182q102 0 169 60t67 136t-41 120t-105 71t-141 52q-78 24 -125 44t-103 60q-112 81 -112 229q0 147 110 241t271 93q242 0 389 -180l-129 -99q-86 139 -258 140q-95 0 -157 -52t-62 -138t77 -132q60 -36 202 -84
q142 -47 234 -109q114 -79 114 -232q0 -155 -111 -261t-287 -106zM432 -520h-108l84 418h145z" />
    <glyph glyph-name="scedilla.smcp" unicode="&#xe306;" horiz-adv-x="978" 
d="M469 -479q-178 0 -299 114l125 76q93 -73 163 -73t110 24t40 59q0 74 -145 74h-84v199q-199 33 -334 211l139 108q113 -182 301 -182q102 0 169 60t67 136t-41 120t-105 71t-141 52q-78 24 -125 44t-103 60q-112 81 -112 229q0 147 110 241t271 93q242 0 389 -180
l-129 -99q-86 139 -258 140q-95 0 -157 -52t-62 -138t77 -132q60 -36 202 -84q142 -47 234 -109q114 -79 114 -229q1 -150 -103 -256t-270 -114v-90q108 0 176 -48t68 -128t-84 -138t-203 -59z" />
    <glyph glyph-name="scedilla.smcp" unicode="&#xf65c;" horiz-adv-x="978" 
d="M469 -479q-178 0 -299 114l125 76q93 -73 163 -73t110 24t40 59q0 74 -145 74h-84v199q-199 33 -334 211l139 108q113 -182 301 -182q102 0 169 60t67 136t-41 120t-105 71t-141 52q-78 24 -125 44t-103 60q-112 81 -112 229q0 147 110 241t271 93q242 0 389 -180
l-129 -99q-86 139 -258 140q-95 0 -157 -52t-62 -138t77 -132q60 -36 202 -84q142 -47 234 -109q114 -79 114 -229q1 -150 -103 -256t-270 -114v-90q108 0 176 -48t68 -128t-84 -138t-203 -59z" />
    <glyph glyph-name="tcaron.smcp" unicode="&#xe309;" horiz-adv-x="1046" 
d="M457 1339l-244 332h164l145 -205l148 205h164l-244 -332h-133zM444 0v1069h-356v152h870v-152h-354v-1069h-160z" />
    <glyph glyph-name="tcaron.smcp" unicode="&#xf65e;" horiz-adv-x="1046" 
d="M457 1339l-244 332h164l145 -205l148 205h164l-244 -332h-133zM444 0v1069h-356v152h870v-152h-354v-1069h-160z" />
    <glyph glyph-name="tcommaaccent.smcp" unicode="&#xe30a;" horiz-adv-x="1046" 
d="M444 0v1069h-356v152h870v-152h-354v-1069h-160zM473 -520h-108l84 418h145z" />
    <glyph glyph-name="tcommaaccent.smcp" unicode="&#xf65f;" horiz-adv-x="1046" 
d="M444 0v1069h-356v152h870v-152h-354v-1069h-160zM473 -520h-108l84 418h145z" />
    <glyph glyph-name="tbar.smcp" unicode="&#xe30d;" horiz-adv-x="1046" 
d="M815 543h-211v-543h-160v543h-213v151h213v375h-356v152h870v-152h-354v-375h211v-151z" />
    <glyph glyph-name="tbar.smcp" unicode="&#xf637;" horiz-adv-x="1046" 
d="M815 543h-211v-543h-160v543h-213v151h213v375h-356v152h870v-152h-354v-375h211v-151z" />
    <glyph glyph-name="uacute.smcp" unicode="&#xe30e;" horiz-adv-x="1099" 
d="M549 -16q-184 0 -300 112t-116 301v824h158v-832q-1 -117 71 -187t188 -71q116 0 188 71t71 187v832h158v-824q0 -189 -117 -301t-301 -112zM436 1319l240 332h205l-297 -332h-148z" />
    <glyph glyph-name="uacute.smcp" unicode="&#xf7fa;" horiz-adv-x="1099" 
d="M549 -16q-184 0 -300 112t-116 301v824h158v-832q-1 -117 71 -187t188 -71q116 0 188 71t71 187v832h158v-824q0 -189 -117 -301t-301 -112zM436 1319l240 332h205l-297 -332h-148z" />
    <glyph glyph-name="ugrave.smcp" unicode="&#xe30f;" horiz-adv-x="1099" 
d="M479 1319l-297 332h203l242 -332h-148zM549 -16q-184 0 -300 112t-116 301v824h158v-832q-1 -117 71 -187t188 -71q116 0 188 71t71 187v832h158v-824q0 -189 -117 -301t-301 -112z" />
    <glyph glyph-name="ugrave.smcp" unicode="&#xf7f9;" horiz-adv-x="1099" 
d="M479 1319l-297 332h203l242 -332h-148zM549 -16q-184 0 -300 112t-116 301v824h158v-832q-1 -117 71 -187t188 -71q116 0 188 71t71 187v832h158v-824q0 -189 -117 -301t-301 -112z" />
    <glyph glyph-name="wdieresis.smcp" unicode="&#xe310;" horiz-adv-x="1789" 
d="M952 1354v284h158v-284h-158zM678 1354v284h158v-284h-158zM410 0l-349 1221h168l269 -973l311 973h152l311 -985l295 985h162l-375 -1221h-162l-307 971l-312 -971h-163z" />
    <glyph glyph-name="wdieresis.smcp" unicode="&#xf63c;" horiz-adv-x="1789" 
d="M952 1354v284h158v-284h-158zM678 1354v284h158v-284h-158zM410 0l-349 1221h168l269 -973l311 973h152l311 -985l295 985h162l-375 -1221h-162l-307 971l-312 -971h-163z" />
    <glyph glyph-name="udieresis.smcp" unicode="&#xe311;" horiz-adv-x="1099" 
d="M549 -16q-184 0 -300 112t-116 301v824h158v-832q-1 -117 71 -187t188 -71q116 0 188 71t71 187v832h158v-824q0 -189 -117 -301t-301 -112zM336 1354v284h158v-284h-158zM610 1354v284h158v-284h-158z" />
    <glyph glyph-name="udieresis.smcp" unicode="&#xf7fc;" horiz-adv-x="1099" 
d="M549 -16q-184 0 -300 112t-116 301v824h158v-832q-1 -117 71 -187t188 -71q116 0 188 71t71 187v832h158v-824q0 -189 -117 -301t-301 -112zM336 1354v284h158v-284h-158zM610 1354v284h158v-284h-158z" />
    <glyph glyph-name="utilde.smcp" unicode="&#xe312;" horiz-adv-x="1099" 
d="M190 1339q0 111 56 179q109 131 313 12q90 -57 129 -57q80 0 80 106h127q0 -115 -53 -181q-54 -66 -140 -67q-86 1 -181 57t-128 56q-76 0 -76 -105h-127zM549 -16q-184 0 -300 112t-116 301v824h158v-832q-1 -117 71 -187t188 -71q116 0 188 71t71 187v832h158v-824
q0 -189 -117 -301t-301 -112z" />
    <glyph glyph-name="utilde.smcp" unicode="&#xf639;" horiz-adv-x="1099" 
d="M190 1339q0 111 56 179q109 131 313 12q90 -57 129 -57q80 0 80 106h127q0 -115 -53 -181q-54 -66 -140 -67q-86 1 -181 57t-128 56q-76 0 -76 -105h-127zM549 -16q-184 0 -300 112t-116 301v824h158v-832q-1 -117 71 -187t188 -71q116 0 188 71t71 187v832h158v-824
q0 -189 -117 -301t-301 -112z" />
    <glyph glyph-name="uring.smcp" unicode="&#xe313;" horiz-adv-x="1099" 
d="M549 -16q-184 0 -300 112t-116 301v824h158v-832q-1 -117 71 -187t188 -71q116 0 188 71t71 187v832h158v-824q0 -189 -117 -301t-301 -112zM446 1533q0 -41 29 -69t69 -28t70 28t29 69q0 40 -30 70q-29 29 -69 29t-69 -30t-29 -69zM766 1534q0 -92 -64 -156t-157 -65
q-92 0 -156 64q-63 65 -63 156t63 156t155 65t158 -64q64 -64 64 -156z" />
    <glyph glyph-name="uring.smcp" unicode="&#xf663;" horiz-adv-x="1099" 
d="M549 -16q-184 0 -300 112t-116 301v824h158v-832q-1 -117 71 -187t188 -71q116 0 188 71t71 187v832h158v-824q0 -189 -117 -301t-301 -112zM446 1533q0 -41 29 -69t69 -28t70 28t29 69q0 40 -30 70q-29 29 -69 29t-69 -30t-29 -69zM766 1534q0 -92 -64 -156t-157 -65
q-92 0 -156 64q-63 65 -63 156t63 156t155 65t158 -64q64 -64 64 -156z" />
    <glyph glyph-name="umacron.smcp" unicode="&#xe315;" horiz-adv-x="1099" 
d="M281 1339v138h540v-138h-540zM549 -16q-184 0 -300 112t-116 301v824h158v-832q-1 -117 71 -187t188 -71q116 0 188 71t71 187v832h158v-824q0 -189 -117 -301t-301 -112z" />
    <glyph glyph-name="umacron.smcp" unicode="&#xf661;" horiz-adv-x="1099" 
d="M281 1339v138h540v-138h-540zM549 -16q-184 0 -300 112t-116 301v824h158v-832q-1 -117 71 -187t188 -71q116 0 188 71t71 187v832h158v-824q0 -189 -117 -301t-301 -112z" />
    <glyph glyph-name="ubreve.smcp" unicode="&#xe316;" horiz-adv-x="1099" 
d="M883 1649q0 -141 -91 -237t-247 -97q-156 0 -240 94t-84 240h135q0 -97 50 -155t144 -58q93 0 143 57t50 156h140zM549 -16q-184 0 -300 112t-116 301v824h158v-832q-1 -117 71 -187t188 -71q116 0 188 71t71 187v832h158v-824q0 -189 -117 -301t-301 -112z" />
    <glyph glyph-name="ubreve.smcp" unicode="&#xf638;" horiz-adv-x="1099" 
d="M883 1649q0 -141 -91 -237t-247 -97q-156 0 -240 94t-84 240h135q0 -97 50 -155t144 -58q93 0 143 57t50 156h140zM549 -16q-184 0 -300 112t-116 301v824h158v-832q-1 -117 71 -187t188 -71q116 0 188 71t71 187v832h158v-824q0 -189 -117 -301t-301 -112z" />
    <glyph glyph-name="uhungarumlaut.smcp" unicode="&#xe318;" horiz-adv-x="1099" 
d="M586 1323l241 332h193l-297 -332h-137zM295 1323l240 332h192l-297 -332h-135zM549 -16q-184 0 -300 112t-116 301v824h158v-832q-1 -117 71 -187t188 -71q116 0 188 71t71 187v832h158v-824q0 -189 -117 -301t-301 -112z" />
    <glyph glyph-name="uhungarumlaut.smcp" unicode="&#xf660;" horiz-adv-x="1099" 
d="M586 1323l241 332h193l-297 -332h-137zM295 1323l240 332h192l-297 -332h-135zM549 -16q-184 0 -300 112t-116 301v824h158v-832q-1 -117 71 -187t188 -71q116 0 188 71t71 187v832h158v-824q0 -189 -117 -301t-301 -112z" />
    <glyph glyph-name="uogonek.smcp" unicode="&#xe31b;" horiz-adv-x="1099" 
d="M481 -209q1 -86 127 -86q60 0 142 70l124 -86q-129 -115 -263 -115t-212 59t-77 148q0 117 131 213q-145 27 -233 133q-87 106 -87 270v824h158v-832q-1 -117 71 -187t188 -71q116 0 188 71t71 187v832h158v-824q-1 -137 -63 -235t-171 -144l4 -2q-156 -94 -206 -138
t-50 -87z" />
    <glyph glyph-name="uogonek.smcp" unicode="&#xf662;" horiz-adv-x="1099" 
d="M481 -209q1 -86 127 -86q60 0 142 70l124 -86q-129 -115 -263 -115t-212 59t-77 148q0 117 131 213q-145 27 -233 133q-87 106 -87 270v824h158v-832q-1 -117 71 -187t188 -71q116 0 188 71t71 187v832h158v-824q-1 -137 -63 -235t-171 -144l4 -2q-156 -94 -206 -138
t-50 -87z" />
    <glyph glyph-name="wacute.smcp" unicode="&#xe31d;" horiz-adv-x="1789" 
d="M809 1339l240 332h204l-297 -332h-147zM410 0l-349 1221h168l269 -973l311 973h152l311 -985l295 985h162l-375 -1221h-162l-307 971l-312 -971h-163z" />
    <glyph glyph-name="wacute.smcp" unicode="&#xf63a;" horiz-adv-x="1789" 
d="M809 1339l240 332h204l-297 -332h-147zM410 0l-349 1221h168l269 -973l311 973h152l311 -985l295 985h162l-375 -1221h-162l-307 971l-312 -971h-163z" />
    <glyph glyph-name="wgrave.smcp" unicode="&#xe31e;" horiz-adv-x="1789" 
d="M813 1339l-297 332h203l242 -332h-148zM410 0l-349 1221h168l269 -973l311 973h152l311 -985l295 985h162l-375 -1221h-162l-307 971l-312 -971h-163z" />
    <glyph glyph-name="wgrave.smcp" unicode="&#xf63d;" horiz-adv-x="1789" 
d="M813 1339l-297 332h203l242 -332h-148zM410 0l-349 1221h168l269 -973l311 973h152l311 -985l295 985h162l-375 -1221h-162l-307 971l-312 -971h-163z" />
    <glyph glyph-name="wcircumflex.smcp" unicode="&#xe31f;" horiz-adv-x="1789" 
d="M573 1327l244 332h135l244 -332h-164l-147 205l-146 -205h-166zM410 0l-349 1221h168l269 -973l311 973h152l311 -985l295 985h162l-375 -1221h-162l-307 971l-312 -971h-163z" />
    <glyph glyph-name="wcircumflex.smcp" unicode="&#xf63b;" horiz-adv-x="1789" 
d="M573 1327l244 332h135l244 -332h-164l-147 205l-146 -205h-166zM410 0l-349 1221h168l269 -973l311 973h152l311 -985l295 985h162l-375 -1221h-162l-307 971l-312 -971h-163z" />
    <glyph glyph-name="yacute.smcp" unicode="&#xe321;" horiz-adv-x="1071" 
d="M438 1323l240 332h205l-297 -332h-148zM457 0v575l-402 646h174l303 -494l308 494h176l-402 -646v-575h-157z" />
    <glyph glyph-name="yacute.smcp" unicode="&#xf7fd;" horiz-adv-x="1071" 
d="M438 1323l240 332h205l-297 -332h-148zM457 0v575l-402 646h174l303 -494l308 494h176l-402 -646v-575h-157z" />
    <glyph glyph-name="ygrave.smcp" unicode="&#xe322;" horiz-adv-x="1097" 
d="M485 1323l-297 332h203l242 -332h-148zM471 0v575l-401 646h174l303 -494l307 494h176l-401 -646v-575h-158z" />
    <glyph glyph-name="ygrave.smcp" unicode="&#xf63f;" horiz-adv-x="1097" 
d="M485 1323l-297 332h203l242 -332h-148zM471 0v575l-401 646h174l303 -494l307 494h176l-401 -646v-575h-158z" />
    <glyph glyph-name="ycircumflex.smcp" unicode="&#xe323;" horiz-adv-x="1071" 
d="M217 1337l244 332h135l244 -332h-164l-148 205l-145 -205h-166zM457 0v575l-402 646h174l303 -494l308 494h176l-402 -646v-575h-157z" />
    <glyph glyph-name="ycircumflex.smcp" unicode="&#xf63e;" horiz-adv-x="1071" 
d="M217 1337l244 332h135l244 -332h-164l-148 205l-145 -205h-166zM457 0v575l-402 646h174l303 -494l308 494h176l-402 -646v-575h-157z" />
    <glyph glyph-name="ydieresis.smcp" unicode="&#xe324;" horiz-adv-x="1071" 
d="M596 1337v285h158v-285h-158zM322 1337v285h157v-285h-157zM457 0v575l-402 646h174l303 -494l308 494h176l-402 -646v-575h-157z" />
    <glyph glyph-name="ydieresis.smcp" unicode="&#xf7ff;" horiz-adv-x="1071" 
d="M596 1337v285h158v-285h-158zM322 1337v285h157v-285h-157zM457 0v575l-402 646h174l303 -494l308 494h176l-402 -646v-575h-157z" />
    <glyph glyph-name="ij.smcp" unicode="&#xe327;" horiz-adv-x="940" 
d="M127 0v1221h162v-1221h-162zM446 0v147h43q99 1 133 47t33 144v883h158v-875q0 -178 -71 -262t-250 -84h-46z" />
    <glyph glyph-name="ij.smcp" unicode="&#xf631;" horiz-adv-x="940" 
d="M127 0v1221h162v-1221h-162zM446 0v147h43q99 1 133 47t33 144v883h158v-875q0 -178 -71 -262t-250 -84h-46z" />
    <glyph glyph-name="zacute.smcp" unicode="&#xe328;" horiz-adv-x="1007" 
d="M393 1339l240 332h205l-297 -332h-148zM96 0v147l621 922h-600v152h788v-146l-620 -921h620v-154h-809z" />
    <glyph glyph-name="zacute.smcp" unicode="&#xf664;" horiz-adv-x="1007" 
d="M393 1339l240 332h205l-297 -332h-148zM96 0v147l621 922h-600v152h788v-146l-620 -921h620v-154h-809z" />
    <glyph glyph-name="zcaron.smcp" unicode="&#xe329;" horiz-adv-x="1007" 
d="M438 1339l-243 332h163l146 -205l147 205h164l-244 -332h-133zM96 0v147l621 922h-600v152h788v-146l-620 -921h620v-154h-809z" />
    <glyph glyph-name="zcaron.smcp" unicode="&#xf6ff;" horiz-adv-x="1007" 
d="M438 1339l-243 332h163l146 -205l147 205h164l-244 -332h-133zM96 0v147l621 922h-600v152h788v-146l-620 -921h620v-154h-809z" />
    <glyph glyph-name="zdotaccent.smcp" unicode="&#xe32a;" horiz-adv-x="1007" 
d="M440 1354v284h158v-284h-158zM96 0v147l621 922h-600v152h788v-146l-620 -921h620v-154h-809z" />
    <glyph glyph-name="zdotaccent.smcp" unicode="&#xf665;" horiz-adv-x="1007" 
d="M440 1354v284h158v-284h-158zM96 0v147l621 922h-600v152h788v-146l-620 -921h620v-154h-809z" />
    <glyph glyph-name="eng.smcp" unicode="&#xe32b;" horiz-adv-x="1288" 
d="M737 -469v152q158 0 203 42t45 199v64l-684 987v-975h-158v1221h176l668 -965v965h158v-1299q0 -227 -81 -309t-302 -82h-25z" />
    <glyph glyph-name="eng.smcp" unicode="&#xf62b;" horiz-adv-x="1288" 
d="M737 -469v152q158 0 203 42t45 199v64l-684 987v-975h-158v1221h176l668 -965v965h158v-1299q0 -227 -81 -309t-302 -82h-25z" />
    <glyph glyph-name="eth.smcp" unicode="&#xe32c;" horiz-adv-x="1275" 
d="M657 543h-299v-393h174q213 0 348 131q134 131 134 333t-130 330q-130 129 -358 129h-168v-387h299v-143zM57 543v143h144v535h340q287 0 461 -173q174 -172 176 -436q0 -264 -180 -438t-451 -174h-346v543h-144z" />
    <glyph glyph-name="eth.smcp" unicode="&#xf7f0;" horiz-adv-x="1275" 
d="M657 543h-299v-393h174q213 0 348 131q134 131 134 333t-130 330q-130 129 -358 129h-168v-387h299v-143zM57 543v143h144v535h340q287 0 461 -173q174 -172 176 -436q0 -264 -180 -438t-451 -174h-346v543h-144z" />
    <glyph glyph-name="thorn.smcp" unicode="&#xe32d;" horiz-adv-x="1089" 
d="M600 827h-289v-434h289q104 1 166 63t63 154q0 92 -62 155q-63 62 -167 62zM154 0v1221h157v-246h297q166 -1 274 -105t108 -261t-108 -261t-276 -104h-295v-244h-157z" />
    <glyph glyph-name="thorn.smcp" unicode="&#xf7fe;" horiz-adv-x="1089" 
d="M600 827h-289v-434h289q104 1 166 63t63 154q0 92 -62 155q-63 62 -167 62zM154 0v1221h157v-246h297q166 -1 274 -105t108 -261t-108 -261t-276 -104h-295v-244h-157z" />
    <glyph glyph-name="ordfeminine.smcp" unicode="&#xe351;" horiz-adv-x="831" 
d="M416 1343l-80 -206h160zM121 901l231 594h129l234 -594h-127l-47 121h-248l-47 -121h-125z" />
    <glyph glyph-name="ordmasculine.smcp" unicode="&#xe352;" horiz-adv-x="831" 
d="M417 1008q79 0 133 55t54 135t-54 137t-133 57t-134 -56q-55 -58 -55 -137t54 -135q56 -56 135 -56zM417 891q-128 0 -218 90t-90 218t90 218t218 90t217 -90t89 -218t-89 -218t-217 -90z" />
    <glyph glyph-name="cordinal.smcp" unicode="&#xe353;" horiz-adv-x="800" 
d="M416 891q-127 0 -217 90t-90 218t90 218t217 90q84 0 156 -42t112 -111l-102 -60q-53 98 -166 99q-82 -1 -136 -57t-54 -137t54 -137q56 -56 136 -56q121 0 172 106l104 -55q-90 -166 -276 -166z" />
    <glyph glyph-name="fi" unicode="&#xe38c;" horiz-adv-x="1073" 
d="M786 1202v293h160v-293h-160zM786 0v1024h160v-1024h-160zM74 881v143h176v80q0 227 82 309t307 82h14v-145q-159 0 -201 -44t-42 -204v-78h243v-143h-243v-881h-160v881h-176z" />
    <glyph glyph-name="fi" unicode="&#xfb01;" horiz-adv-x="1073" 
d="M786 1202v293h160v-293h-160zM786 0v1024h160v-1024h-160zM74 881v143h176v80q0 227 82 309t307 82h14v-145q-159 0 -201 -44t-42 -204v-78h243v-143h-243v-881h-160v881h-176z" />
    <glyph glyph-name="fl" unicode="&#xe38d;" horiz-adv-x="1073" 
d="M786 0v1495h160v-1495h-160zM74 881v143h176v80q0 227 82 309t307 82h14v-145q-159 0 -201 -44t-42 -204v-78h243v-143h-243v-881h-160v881h-176z" />
    <glyph glyph-name="fl" unicode="&#xfb02;" horiz-adv-x="1073" 
d="M786 0v1495h160v-1495h-160zM74 881v143h176v80q0 227 82 309t307 82h14v-145q-159 0 -201 -44t-42 -204v-78h243v-143h-243v-881h-160v881h-176z" />
    <glyph glyph-name="ampersand.smcp" unicode="&#xe401;" horiz-adv-x="1347" 
d="M262 387q0 -109 80 -183t222 -73q142 0 259 84l-331 332q-55 55 -80 82q-150 -86 -150 -242zM553 -16q-211 0 -332 116t-121 279q0 115 60 208t159 150q-67 96 -67 214t90 202t236 84q219 0 315 -178l-141 -74q-59 113 -172 113q-72 0 -117 -44t-45 -113t40 -124
t163 -178l315 -317q102 127 129 284h-199v152h359v-70q0 -114 -50 -238t-139 -229l219 -221h-217l-112 113q-162 -129 -373 -129z" />
    <glyph glyph-name="ampersand.smcp" unicode="&#xf726;" horiz-adv-x="1347" 
d="M262 387q0 -109 80 -183t222 -73q142 0 259 84l-331 332q-55 55 -80 82q-150 -86 -150 -242zM553 -16q-211 0 -332 116t-121 279q0 115 60 208t159 150q-67 96 -67 214t90 202t236 84q219 0 315 -178l-141 -74q-59 113 -172 113q-72 0 -117 -44t-45 -113t40 -124
t163 -178l315 -317q102 127 129 284h-199v152h359v-70q0 -114 -50 -238t-139 -229l219 -221h-217l-112 113q-162 -129 -373 -129z" />
    <glyph glyph-name="invertedbreve" unicode="&#xe411;" horiz-adv-x="1019" 
d="M178 1141q0 145 84 239t240 94t247 -96t91 -237h-140q0 98 -50 155t-142 60q-94 -2 -144 -60t-51 -155h-135z" />
    <glyph glyph-name="doublegrave" unicode="&#xe412;" horiz-adv-x="1019" 
d="M717 1143l-277 332h189l221 -332h-133zM434 1143l-276 332h188l221 -332h-133z" />
    <glyph glyph-name="caronSlovak" unicode="&#xe413;" horiz-adv-x="1019" 
d="M416 1098l84 377h145l-121 -377h-108z" />
    <glyph glyph-name="commaaccent" unicode="&#xe414;" horiz-adv-x="1032" 
d="M492 -510h-109l84 418h145z" />
    <glyph glyph-name="commaaccent" unicode="&#xf6c3;" horiz-adv-x="1032" 
d="M492 -510h-109l84 418h145z" />
    <glyph glyph-name="dotbelow" unicode="&#xe415;" horiz-adv-x="1032" 
d="M418 -377v285h157v-285h-157z" />
    <glyph glyph-name="altcedilla" unicode="&#xe416;" horiz-adv-x="1019" 
d="M494 -479q-182 0 -293 112l125 80q80 -74 168 -73q59 0 99 22t40 59q0 74 -150 74h-28v99h39q130 2 208 -44t78 -128q0 -84 -80 -142t-206 -59z" />
    <glyph glyph-name="exclamdown.cap" unicode="&#xe441;" horiz-adv-x="491" 
d="M168 1214v281h160v-281h-160zM168 0v240q0 485 35 850h90q35 -365 35 -850v-240h-160z" />
    <glyph glyph-name="questiondown.cap" unicode="&#xe444;" horiz-adv-x="1120" 
d="M510 1214v281h160v-281h-160zM536 -20q-174 0 -300 105t-125 264q0 159 80 246q36 38 80 72q119 92 166 148q83 99 81 272v19h146v-19q0 -121 -29 -211t-73 -140q-87 -98 -189 -173q-101 -74 -101 -207q0 -104 81 -171t204 -66q201 0 309 190l142 -65q-59 -116 -178 -190
q-120 -74 -294 -74z" />
    <glyph glyph-name="guilsinglleft.cap" unicode="&#xe451;" horiz-adv-x="598" 
d="M459 455l-318 243v103l318 243v-126l-223 -168l223 -168v-127z" />
    <glyph glyph-name="guilsinglright.cap" unicode="&#xe452;" horiz-adv-x="598" 
d="M141 455v125l221 168l-221 170v126l318 -243v-103z" />
    <glyph glyph-name="guillemotleft.cap" unicode="&#xe453;" horiz-adv-x="950" 
d="M817 465l-332 237v95l332 237v-116l-233 -170l233 -168v-115zM465 465l-332 237v95l332 237v-116l-234 -170l234 -168v-115z" />
    <glyph glyph-name="guillemotright.cap" unicode="&#xe454;" horiz-adv-x="950" 
d="M133 465v115l236 168l-236 170v116l332 -237v-95zM485 465v115l236 168l-236 170v116l332 -237v-95z" />
    <glyph glyph-name="slash.cap" unicode="&#xe461;" horiz-adv-x="987" 
d="M55 0l709 1495h170l-709 -1495h-170z" />
    <glyph glyph-name="backslash.cap" unicode="&#xe462;" horiz-adv-x="987" 
d="M764 0l-709 1495h170l709 -1495h-170z" />
    <glyph glyph-name="bar.cap" unicode="&#xe463;" horiz-adv-x="411" 
d="M127 -246v1966h160v-1966h-160z" />
    <glyph glyph-name="doublebar.cap" unicode="&#xe464;" horiz-adv-x="763" 
d="M477 -246v1966h160v-1966h-160zM127 -246v1966h160v-1966h-160z" />
    <glyph glyph-name="brokenbar.cap" unicode="&#xe465;" horiz-adv-x="495" 
d="M127 -246v860h160v-860h-160zM127 860v860h160v-860h-160z" />
    <glyph glyph-name="bullet.cap" unicode="&#xe466;" horiz-adv-x="686" 
d="M344 594q-61 0 -105 44t-44 105t44 105t105 45q62 0 106 -44q44 -43 44 -105t-44 -106t-106 -44z" />
    <glyph glyph-name="slash.smcp" unicode="&#xe467;" horiz-adv-x="892" 
d="M74 0l579 1221h168l-577 -1221h-170z" />
    <glyph glyph-name="backslash.smcp" unicode="&#xe468;" horiz-adv-x="892" 
d="M653 0l-579 1221h170l577 -1221h-168z" />
    <glyph glyph-name="bar.smcp" unicode="&#xe469;" horiz-adv-x="413" 
d="M127 -201v1606h162v-1606h-162z" />
    <glyph glyph-name="doublebar.smcp" unicode="&#xe46a;" horiz-adv-x="763" 
d="M477 -201v1606h162v-1606h-162zM127 -201v1606h162v-1606h-162z" />
    <glyph glyph-name="onethirdemdash" unicode="&#xe471;" horiz-adv-x="868" 
d="M106 442v140h656v-140h-656z" />
    <glyph glyph-name="threequarteremdash" unicode="&#xe472;" horiz-adv-x="1277" 
d="M106 442v140h1065v-140h-1065z" />
    <glyph glyph-name="periodcentered.cap" unicode="&#xe481;" horiz-adv-x="413" 
d="M127 371v280h160v-280h-160z" />
    <glyph glyph-name="hyphen.cap" unicode="&#xe482;" horiz-adv-x="968" 
d="M106 442v140h758v-140h-758z" />
    <glyph glyph-name="onethirdemdash.cap" unicode="&#xe483;" horiz-adv-x="868" 
d="M106 442v140h656v-140h-656z" />
    <glyph glyph-name="endash.cap" unicode="&#xe484;" horiz-adv-x="1073" 
d="M106 442v140h861v-140h-861z" />
    <glyph glyph-name="threequarteremdash.cap" unicode="&#xe485;" horiz-adv-x="1277" 
d="M106 442v140h1065v-140h-1065z" />
    <glyph glyph-name="emdash.cap" unicode="&#xe486;" horiz-adv-x="1482" 
d="M106 442v140h1270v-140h-1270z" />
    <glyph glyph-name="figuredash.cap" unicode="&#xe487;" horiz-adv-x="1380" 
d="M106 442v140h1168v-140h-1168z" />
    <glyph glyph-name="uni2015.cap" unicode="&#xe488;" horiz-adv-x="2097" 
d="M106 442v140h1885v-140h-1885z" />
    <glyph glyph-name="anglebracketright.smcp" unicode="&#xe490;" horiz-adv-x="690" 
d="M252 -201h-170l381 803l-381 803h170l381 -803z" />
    <glyph glyph-name="parenleft.cap" unicode="&#xe491;" horiz-adv-x="882" 
d="M270 745q0 -549 506 -895l-108 -124q-567 395 -568 1017q0 233 81 433t198 330q117 132 285 257l110 -125q-240 -168 -372 -383t-132 -510z" />
    </font>
</defs>
</svg>
