<?xml version="1.0" standalone="no"?>
<!DOCTYPE svg PUBLIC "-//W3C//DTD SVG 1.1//EN" "http://www.w3.org/Graphics/SVG/1.1/DTD/svg11.dtd" >
<svg xmlns="http://www.w3.org/2000/svg">
<metadata>
Created by FontPrep 20130207 at Sat Apr 25 19:03:05 2015
 By Andrew Poes
Copyright (c) 2013 by Lucas Sharp. All rights reserved.
</metadata>
<defs>
<font id="f6e4a387fb9a734b9589684a3d5e8d48" horiz-adv-x='1024' >
  <font-face 
    font-family="SharpSansNo1-Bold"
    font-weight="780"
    font-stretch="normal"
    units-per-em="2048"
    panose-1="0 0 0 0 0 0 0 0 0 0"
    ascent="1536"
    descent="-512"
    x-height="1024"
    cap-height="1495"
    bbox="-170 -541 2905.01 2257"
    underline-thickness="102"
    underline-position="-102"
    unicode-range="U+0020-F60B"
  />
<missing-glyph horiz-adv-x="1843" 
d="M852 748l-580 579v-1159zM991 748l580 -580v1159zM342 1397l580 -580l579 580h-1159zM922 678l-580 -580h1159zM174 0v1495h1495v-1495h-1495z" />
    <glyph glyph-name="interrobang" unicode="&#x21;&#x3f;" horiz-adv-x="1054" 
d="M707 1090q0 109 -97 157q0 -182 -12 -377q39 44 56 64t35 64t18 92zM356 0v281h281v-281h-281zM991 1085q0 -106 -41 -179q-41 -74 -98 -114q-58 -40 -116 -82t-99 -117t-41 -185v-25h-197q-27 532 -26 868q-90 -49 -115 -157l-264 88q37 152 167 242q129 90 339 92
q210 0 350 -119t141 -312z" />
    <glyph glyph-name="interrobangdown" unicode="&#xa1;&#xbf;" horiz-adv-x="1054" 
d="M348 -66q0 -111 96 -157q0 162 11 377q-39 -42 -55 -62t-34 -64t-18 -94zM698 1024v-281h-280v281h280zM554 -492q-210 0 -350 119t-141 312q0 106 41 179q40 74 98 114t116 82t100 117q41 75 41 185v25h196q27 -537 27 -868q86 47 115 157l264 -88q-37 -152 -167 -243
t-340 -91z" />
    <glyph glyph-name=".notdef" horiz-adv-x="1843" 
d="M852 748l-580 579v-1159zM991 748l580 -580v1159zM342 1397l580 -580l579 580h-1159zM922 678l-580 -580h1159zM174 0v1495h1495v-1495h-1495z" />
    <glyph glyph-name=".null" horiz-adv-x="0" 
 />
    <glyph glyph-name="nonmarkingreturn" horiz-adv-x="681" 
 />
    <glyph glyph-name="space" unicode=" " horiz-adv-x="501" 
 />
    <glyph glyph-name="exclam" unicode="!" horiz-adv-x="423" 
d="M72 0v281h280v-281h-280zM72 1255v240h280v-240q0 -446 -63 -872h-154q-63 426 -63 872z" />
    <glyph glyph-name="quotedbl" unicode="&#x22;" horiz-adv-x="663" 
d="M373 1495h219v-172q0 -47 -27 -153t-45 -146h-78q-18 43 -44 148t-25 151v172zM72 1495h219v-172q0 -47 -27 -153t-45 -146h-78q-18 43 -44 148t-25 151v172z" />
    <glyph glyph-name="numbersign" unicode="#" horiz-adv-x="1638" 
d="M635 930v-344h352v344h-352zM987 0v313h-352v-313h-285v313h-299v273h299v344h-299v272h299v293h285v-293h352v293h285v-293h315v-272h-315v-344h315v-273h-315v-313h-285z" />
    <glyph glyph-name="dollar" unicode="$" 
d="M365 1102q0 -96 114 -139v278q-114 -43 -114 -139zM868 449q0 88 -120 139v-314q55 25 88 72q32 48 32 103zM756 -246h-285v240q-268 49 -446 254l260 205q68 -117 194 -170v383q-176 53 -288 149q-111 96 -111 260t108 281q109 117 283 149v215h285v-221
q199 -43 354 -201l-236 -178q-49 72 -126 107v-346q159 -51 284 -149t125 -273q1 -175 -107 -303t-294 -164v-238z" />
    <glyph glyph-name="percent" unicode="%" horiz-adv-x="1685" 
d="M41 1149q-1 151 107 259t260 108t260 -108t106 -260q0 -152 -108 -258q-108 -108 -258 -108q-152 0 -260 108t-107 259zM1149 344q0 -53 38 -91t91 -38t91 38t38 91t-38 91t-91 38t-91 -38t-38 -91zM20 0l1285 1495h360l-1284 -1495h-361zM911 344q0 152 108 260
q107 108 259 107q152 0 260 -108q108 -107 107 -259q0 -152 -108 -260q-107 -108 -259 -107q-152 -1 -260 107t-107 260zM279 1149q1 -51 39 -90t90 -39t90 39q39 39 39 90t-39 90t-90 39t-90 -39t-39 -90z" />
    <glyph glyph-name="ampersand" unicode="&#x26;" horiz-adv-x="1531" 
d="M324 467q0 -100 81 -170t211 -70t234 64l-309 313q-17 17 -45 43q-27 26 -37 39q-135 -82 -135 -219zM41 465q0 266 258 418q-70 115 -70 245q0 166 123 277t307 111q338 0 441 -283l-279 -98q-37 127 -151 127q-62 0 -102 -38t-40 -108t42 -127t206 -225l277 -279
q86 123 118 269h-251v270h534v-131q0 -139 -59 -295t-164 -289l305 -309h-389l-117 115q-190 -137 -399 -138q-156 0 -275 43q-210 76 -283 272q-32 83 -32 173z" />
    <glyph glyph-name="quotesingle" unicode="'" horiz-adv-x="362" 
d="M72 1495h219v-172q0 -47 -27 -153t-45 -146h-78q-18 43 -44 148t-25 151v172z" />
    <glyph glyph-name="parenleft" unicode="(" horiz-adv-x="790" 
d="M41 512q0 334 140 576t407 436l190 -205q-438 -293 -438 -810t448 -796l-176 -233q-571 385 -571 1032z" />
    <glyph glyph-name="parenright" unicode=")" horiz-adv-x="790" 
d="M451 505q0 517 -439 810l191 205q266 -195 406 -437t141 -575q0 -647 -572 -1032l-176 233q449 279 449 796z" />
    <glyph glyph-name="asterisk" unicode="*" horiz-adv-x="825" 
d="M664 848l-175 156l46 -232h-244l47 232l-180 -156l-119 213l221 74l-221 77l125 209l174 -155l-47 231h244l-48 -235l181 159l120 -213l-229 -75l229 -76z" />
    <glyph glyph-name="plus" unicode="+" horiz-adv-x="901" 
d="M72 627v239h262v258h235v-258h260v-239h-260v-260h-235v260h-262z" />
    <glyph glyph-name="comma" unicode="," horiz-adv-x="423" 
d="M43 -240l70 418h247l-143 -418h-174z" />
    <glyph glyph-name="hyphen" unicode="-" horiz-adv-x="901" 
d="M72 401v240h757v-240h-757z" />
    <glyph glyph-name="period" unicode="." horiz-adv-x="423" 
d="M72 0v281h280v-281h-280z" />
    <glyph glyph-name="slash" unicode="/" horiz-adv-x="1048" 
d="M20 0l709 1495h301l-708 -1495h-302z" />
    <glyph glyph-name="zero" unicode="0" 
d="M600 -20q-240 0 -374 133t-134 354v549q0 215 144 357q144 143 368 143t366 -144t142 -354v-551q0 -221 -136 -354t-376 -133zM600 262q106 0 166 62t61 155v527q0 104 -59 166q-58 62 -164 62t-166 -64q-60 -65 -61 -164v-525q1 -95 59 -157t164 -62z" />
    <glyph glyph-name="one" unicode="1" 
d="M92 0v272h373v801q-35 -53 -104 -88t-138 -35h-22v299h10q135 0 200 76t64 170h275v-1223h362v-272h-1020z" />
    <glyph glyph-name="two" unicode="2" 
d="M92 0v268q0 184 144 320q72 68 132 112t202 132q142 90 190 133q70 67 70 137t-59 119q-60 49 -169 49q-201 0 -297 -211l-246 123q159 334 565 334q216 0 356 -119t140 -295t-135 -298q-70 -62 -123 -99q-54 -37 -202 -129t-205 -146q-76 -78 -78 -158h735v-272h-1020z
" />
    <glyph glyph-name="three" unicode="3" 
d="M612 -20q-194 0 -326 66t-241 210l248 178q113 -195 321 -194q106 0 176 55q68 55 68 145t-56 140t-167 51h-197v262h193q113 0 166 57q53 58 53 136t-62 130t-176 52t-180 -43t-115 -142l-247 123q160 309 546 310q222 0 366 -115t144 -295q0 -221 -174 -338
q190 -104 191 -332q1 -200 -143 -328t-388 -128z" />
    <glyph glyph-name="four" unicode="4" 
d="M688 563v506l-311 -506h311zM688 0v303h-606v260l571 932h312v-932h157v-260h-157v-303h-277z" />
    <glyph glyph-name="five" unicode="5" 
d="M616 -20q-220 0 -358 78q-139 78 -207 212l277 160q32 -86 104 -137t172 -51t176 74t76 189q0 113 -71 191t-189 78q-166 0 -264 -147l-254 131l106 737h895v-266h-671l-39 -264q117 70 270 69q217 0 360 -138t143 -378t-152 -388q-154 -150 -374 -150z" />
    <glyph glyph-name="six" unicode="6" 
d="M340 504q0 -110 76 -188t184 -78t184 78q78 78 78 189t-79 189t-185 78t-182 -79t-76 -189zM662 1018q203 0 342 -146t139 -373t-154 -373t-386 -146t-387 150t-155 361q0 212 115 383l383 621h336l-315 -489q41 12 82 12z" />
    <glyph glyph-name="seven" unicode="7" 
d="M92 1223v272h1020v-248l-588 -1247h-303l592 1223h-721z" />
    <glyph glyph-name="eight" unicode="8" 
d="M605 903q110 0 171 52t62 132q0 79 -60 133t-166 54t-170 -53t-63 -135q0 -82 58 -132q58 -51 168 -51zM342 447q0 -94 66 -155t191 -61q126 -1 196 61q69 62 69 156t-68 156q-69 62 -191 62q-123 0 -193 -62t-70 -157zM600 -20q-252 0 -392 124t-140 348q0 222 182 345
q-131 111 -131 298t135 304t355 117q221 0 355 -117t134 -305t-140 -299q178 -123 178 -343t-142 -346t-394 -126z" />
    <glyph glyph-name="nine" unicode="9" 
d="M606 723q106 0 182 79q76 78 76 188t-76 189t-184 79t-184 -80q-78 -78 -78 -188t79 -188t185 -79zM543 475q-203 -1 -342 147t-139 374t153 372q154 146 386 148q232 0 387 -150t155 -362t-115 -383l-383 -621h-336l312 483q-35 -8 -78 -8z" />
    <glyph glyph-name="colon" unicode=":" horiz-adv-x="423" 
d="M72 743v281h280v-281h-280zM72 0v281h280v-281h-280z" />
    <glyph glyph-name="semicolon" unicode=";" horiz-adv-x="423" 
d="M43 -240l70 418h247l-143 -418h-174zM72 743v281h280v-281h-280z" />
    <glyph glyph-name="less" unicode="&#x3c;" horiz-adv-x="901" 
d="M829 350l-757 275v239l757 273v-248l-450 -146l450 -145v-248z" />
    <glyph glyph-name="equal" unicode="=" horiz-adv-x="901" 
d="M72 453v239h757v-239h-757zM72 795v239h757v-239h-757z" />
    <glyph glyph-name="greater" unicode="&#x3e;" horiz-adv-x="901" 
d="M72 350v248l450 145l-450 146v248l757 -273v-239z" />
    <glyph glyph-name="question" unicode="?" horiz-adv-x="1054" 
d="M352 0v281h281v-281h-281zM367 385v23q0 137 34 236q35 98 84 150t99 92q49 40 84 89q34 49 34 121t-52 122t-134 50t-134 -48t-71 -126l-264 88q39 154 159 244t320 90t333 -119q132 -119 132 -312q1 -91 -27 -159t-69 -107t-90 -80t-90 -77t-69 -103q-28 -66 -28 -151
v-23h-251z" />
    <glyph glyph-name="at" unicode="@" horiz-adv-x="1609" 
d="M764 371q68 0 117 47t56 116q7 70 -32 116t-107 46t-121 -47q-52 -47 -54 -114q-7 -70 33 -117t108 -47zM805 -256q-317 0 -541 224q-223 224 -223 542t223 544t541 226q170 0 316 -59q147 -59 243 -157t150 -220q54 -123 55 -254q1 -180 -97 -306t-260 -126t-243 112
q-84 -111 -256 -110q-133 0 -233 100q-99 100 -82 271t130 269t238 97q125 0 195 -76l8 64h223l-39 -371q-16 -135 82 -135q47 0 79 59t32 152q0 184 -151 328t-384 143q-233 0 -391 -161t-158 -389t158 -389t392 -161t396 180l170 -139q-106 -122 -256 -190t-317 -68z" />
    <glyph glyph-name="A" unicode="A" horiz-adv-x="1404" 
d="M702 1090l-192 -558h385zM29 0l530 1495h287l530 -1495h-297l-90 260h-573l-90 -260h-297z" />
    <glyph glyph-name="B" unicode="B" horiz-adv-x="1167" 
d="M551 1233h-184v-332h182q238 0 237 174q0 82 -55 120t-180 38zM573 635h-206v-373h221q252 0 252 189q0 96 -58 140t-209 44zM82 0v1495h467q250 0 387 -109q137 -108 137 -306t-162 -294q215 -100 215 -330t-142 -344q-142 -112 -396 -112h-506z" />
    <glyph glyph-name="C" unicode="C" horiz-adv-x="1505" 
d="M809 -20q-340 0 -554 221t-214 550t221 547t547 218q207 0 381 -100t274 -271l-250 -160q-135 250 -405 250q-209 0 -347 -140t-138 -345q0 -206 137 -346t342 -140q147 0 256 76t168 203l260 -137q-99 -194 -279 -310t-399 -116z" />
    <glyph glyph-name="D" unicode="D" horiz-adv-x="1320" 
d="M457 1231h-90v-967h102q238 0 382 136t144 352t-136 348q-136 131 -402 131zM82 0v1495h407q369 0 580 -210q211 -211 211 -535t-219 -537t-559 -213h-420z" />
    <glyph glyph-name="E" unicode="E" horiz-adv-x="1034" 
d="M82 0v1495h887v-272h-602v-336h602v-273h-602v-342h602v-272h-887z" />
    <glyph glyph-name="F" unicode="F" horiz-adv-x="999" 
d="M82 0v1495h846v-272h-561v-336h561v-273h-561v-614h-285z" />
    <glyph glyph-name="G" unicode="G" horiz-adv-x="1589" 
d="M1548 727q0 -311 -204 -529t-536 -218q-333 0 -550 224t-217 546t218 544t546 222q227 0 404 -104t276 -279l-250 -152q-139 258 -428 258q-203 0 -343 -144t-140 -349q0 -206 140 -348t353 -142q160 0 272 84t152 229h-469v273h776v-115z" />
    <glyph glyph-name="H" unicode="H" horiz-adv-x="1296" 
d="M930 0v612h-563v-612h-285v1495h285v-610h563v610h284v-1495h-284z" />
    <glyph glyph-name="I" unicode="I" horiz-adv-x="468" 
d="M92 0v1495h285v-1495h-285z" />
    <glyph glyph-name="J" unicode="J" horiz-adv-x="1030" 
d="M524 -20q-196 0 -323 93t-164 251l282 90q15 -74 65 -121t125 -47t115 52t40 134v1063h284v-1036q0 -227 -114 -354q-114 -125 -310 -125z" />
    <glyph glyph-name="K" unicode="K" horiz-adv-x="1261" 
d="M367 0h-285v1495h285v-602l483 602h346l-471 -582l512 -913h-324l-391 715l-155 -195v-520z" />
    <glyph glyph-name="L" unicode="L" horiz-adv-x="978" 
d="M82 0v1495h285v-1223h540v-272h-825z" />
    <glyph glyph-name="M" unicode="M" horiz-adv-x="1628" 
d="M82 0v1495h283l448 -623l465 623h268v-1495h-284v1036l-451 -608l-444 602v-1030h-285z" />
    <glyph glyph-name="N" unicode="N" horiz-adv-x="1406" 
d="M82 0v1495h324l634 -1006v1006h285v-1495h-303l-655 1038v-1038h-285z" />
    <glyph glyph-name="O" unicode="O" horiz-adv-x="1611" 
d="M805 260q201 0 342 143t141 345t-141 344q-141 143 -342 143t-341 -142t-140 -345q0 -204 140 -346t341 -142zM806 -20q-318 0 -542 224q-223 224 -223 542t223 544q224 226 542 226t542 -224t223 -544q0 -319 -223 -544q-224 -224 -542 -224z" />
    <glyph glyph-name="P" unicode="P" horiz-adv-x="1185" 
d="M575 1231h-208v-541h208q119 0 196 78t77 193t-77 193t-196 77zM82 0v1495h514q229 0 384 -155q155 -156 155 -380t-155 -379t-386 -155h-227v-426h-285z" />
    <glyph glyph-name="Q" unicode="Q" horiz-adv-x="1611" 
d="M805 1235q-201 0 -341 -142t-140 -345q0 -204 140 -346t341 -142q68 0 139 21l178 -234q-152 -68 -317 -67q-317 0 -541 224q-223 224 -223 542t223 544q224 226 542 226t542 -224t223 -544q0 -279 -170 -488l203 -260h-349l-563 739h340l187 -241q70 119 69 250
q0 201 -141 344t-342 143z" />
    <glyph glyph-name="R" unicode="R" horiz-adv-x="1173" 
d="M82 0v1495h469q251 0 401 -142t150 -360q0 -147 -73 -268t-216 -176l340 -549h-326l-448 739h139q152 0 224 79t73 175q0 236 -297 236h-151v-1229h-285z" />
    <glyph glyph-name="S" unicode="S" horiz-adv-x="1153" 
d="M590 -20q-350 0 -586 268l260 205q117 -201 324 -201q104 0 164 57q59 57 59 126t-47 110t-90 57q-115 43 -181 61q-239 67 -326 166q-36 41 -63 108t-26 148q0 183 141 307t356 124q170 0 286 -56t218 -162l-235 -178q-94 141 -266 142q-96 0 -150 -46t-55 -120
q1 -72 67 -112t146 -66t122 -40q216 -74 308 -171q92 -101 92 -275t-141 -313t-377 -139z" />
    <glyph glyph-name="T" unicode="T" horiz-adv-x="1181" 
d="M449 0v1223h-398v272h1079v-272h-397v-1223h-284z" />
    <glyph glyph-name="U" unicode="U" horiz-adv-x="1243" 
d="M621 -20q-242 0 -391 139q-148 139 -148 399v977h285v-995q1 -109 73 -183q72 -73 180 -73t182 74q75 74 75 182v995h284v-977q0 -260 -149 -399t-391 -139z" />
    <glyph glyph-name="V" unicode="V" horiz-adv-x="1343" 
d="M528 0l-499 1495h295l348 -1061l348 1061h295l-500 -1495h-287z" />
    <glyph glyph-name="W" unicode="W" horiz-adv-x="2088" 
d="M451 0l-424 1495h297l278 -1034l307 1034h281l307 -1030l275 1030h288l-422 -1495h-280l-309 1044l-308 -1044h-290z" />
    <glyph glyph-name="X" unicode="X" horiz-adv-x="1288" 
d="M948 0l-305 506l-303 -506h-320l455 756l-446 739h319l295 -491l297 491h320l-449 -739l457 -756h-320z" />
    <glyph glyph-name="Y" unicode="Y" horiz-adv-x="1288" 
d="M500 0v709l-475 786h313l305 -514l307 514h314l-480 -793v-702h-284z" />
    <glyph glyph-name="Z" unicode="Z" horiz-adv-x="1132" 
d="M72 0v262l651 961h-629v272h967v-260l-653 -963h653v-272h-989z" />
    <glyph glyph-name="bracketleft" unicode="[" horiz-adv-x="702" 
d="M72 -471v1966h559v-272h-275v-1422h275v-272h-559z" />
    <glyph glyph-name="backslash" unicode="\" horiz-adv-x="1048" 
d="M729 0l-709 1495h302l708 -1495h-301z" />
    <glyph glyph-name="bracketright" unicode="]" horiz-adv-x="702" 
d="M72 -471v272h274v1422h-274v272h559v-1966h-559z" />
    <glyph glyph-name="asciicircum" unicode="^" horiz-adv-x="964" 
d="M152 1126l243 349h174l244 -349h-211l-121 181l-119 -181h-210z" />
    <glyph glyph-name="underscore" unicode="_" horiz-adv-x="901" 
d="M72 -260v240h757v-240h-757z" />
    <glyph glyph-name="grave" unicode="`" horiz-adv-x="964" 
d="M520 1126l-307 349h262l234 -349h-189z" />
    <glyph glyph-name="a" unicode="a" horiz-adv-x="1196" 
d="M315 514q0 -120 79 -198t194 -78q116 0 190 80t74 196q0 115 -75 195q-75 79 -189 79t-194 -78q-79 -78 -79 -196zM540 -20q-190 0 -344 141q-155 141 -155 391q0 172 78 297q147 235 420 235q190 0 305 -120v100h280v-1024h-280v115q-114 -135 -304 -135z" />
    <glyph glyph-name="b" unicode="b" horiz-adv-x="1187" 
d="M344 514q0 -116 74 -196t190 -80q115 0 194 78t79 198q0 119 -79 197q-79 77 -194 77q-116 0 -190 -80t-74 -194zM1155 512q1 -250 -153 -391t-348 -141t-302 131v-111h-280v1495h280v-584q109 133 303 133t339 -129q73 -63 117 -167t44 -236z" />
    <glyph glyph-name="c" unicode="c" horiz-adv-x="1095" 
d="M571 -20q-221 0 -375 156t-155 376q0 221 155 377t375 155q172 0 302 -88t192 -235l-250 -107q-29 74 -95 119t-162 45t-172 -78t-75 -188q0 -110 76 -188t171 -78t162 45t95 119l250 -107q-61 -147 -191 -235t-303 -88z" />
    <glyph glyph-name="d" unicode="d" horiz-adv-x="1196" 
d="M315 514q0 -120 79 -198t194 -78q116 0 190 80t74 196q0 115 -75 195q-75 79 -189 79t-194 -78q-79 -78 -79 -196zM540 -20q-190 0 -344 141q-155 141 -155 391q0 172 78 297q147 235 420 235q190 0 305 -120v571h280v-1495h-280v115q-114 -135 -304 -135z" />
    <glyph glyph-name="e" unicode="e" horiz-adv-x="1144" 
d="M575 799q-87 0 -153 -44t-98 -118h495q-56 162 -244 162zM582 -20q-236 0 -388 154t-153 376q0 223 156 379q155 155 381 155t375 -152q148 -153 149 -378v-102h-791q25 -86 95 -136t166 -51q188 0 264 160l223 -133q-69 -124 -191 -198t-286 -74z" />
    <glyph glyph-name="f" unicode="f" horiz-adv-x="749" 
d="M51 772v252h174v27q-1 252 97 348t354 96h22v-262q-128 0 -160 -32t-32 -152v-25h192v-252h-192v-772h-281v772h-174z" />
    <glyph glyph-name="g" unicode="g" horiz-adv-x="1196" 
d="M315 514q0 -120 79 -198t194 -78q116 0 190 80t74 196q0 115 -75 195q-75 79 -189 79t-194 -78q-79 -78 -79 -196zM540 -20q-190 0 -344 141q-155 141 -155 391q0 172 78 297q147 235 420 235q188 0 305 -131v111h280v-995q0 -227 -139 -375t-389 -148q-186 0 -327 84
q-140 84 -206 211l248 140q86 -174 285 -174q112 -1 180 73t68 178v97q-114 -135 -304 -135z" />
    <glyph glyph-name="h" unicode="h" horiz-adv-x="1091" 
d="M72 0v1495h278v-584q111 133 288 133t280 -110q102 -111 102 -309v-625h-285v586q0 219 -188 219q-86 1 -140 -61t-55 -185v-559h-280z" />
    <glyph glyph-name="i" unicode="i" horiz-adv-x="423" 
d="M72 1126v281h280v-281h-280zM72 0v1024h280v-1024h-280z" />
    <glyph glyph-name="j" unicode="j" horiz-adv-x="423" 
d="M72 1126v281h280v-281h-280zM-121 -471v262q127 0 160 32t33 152v1049h280v-1051q0 -250 -94 -347t-338 -97h-41z" />
    <glyph glyph-name="k" unicode="k" horiz-adv-x="1110" 
d="M352 0h-280v1495h280v-924l377 453h326l-373 -442l393 -582h-307l-279 410l-137 -162v-248z" />
    <glyph glyph-name="l" unicode="l" horiz-adv-x="423" 
d="M72 0v1495h280v-1495h-280z" />
    <glyph glyph-name="m" unicode="m" horiz-adv-x="1718" 
d="M72 0v1024h278v-109q102 129 273 129q221 0 315 -161q116 161 314 161t296 -110t99 -309v-625h-285v588q0 217 -178 217q-84 1 -134 -61t-51 -185v-559h-284v588q0 217 -178 217q-85 1 -135 -61t-50 -185v-559h-280z" />
    <glyph glyph-name="n" unicode="n" horiz-adv-x="1091" 
d="M72 0v1024h278v-115q106 135 286 135t282 -110q102 -111 102 -309v-625h-285v588q0 104 -48 160t-137 57t-143 -61t-55 -185v-559h-280z" />
    <glyph glyph-name="o" unicode="o" horiz-adv-x="1142" 
d="M570 778q-108 0 -182 -78t-73 -188q-1 -110 73 -188t182 -78t184 79t76 187t-76 188q-76 78 -184 78zM571 -20q-221 0 -375 156t-155 376q0 221 155 377q156 155 376 155t375 -156t155 -376t-155 -376t-376 -156z" />
    <glyph glyph-name="p" unicode="p" horiz-adv-x="1187" 
d="M344 514q0 -116 74 -196t190 -80q115 0 194 78t79 198q0 119 -79 197q-79 77 -194 77q-116 0 -190 -80t-74 -194zM1155 512q1 -250 -153 -391t-350 -141t-300 120v-571h-280v1495h280v-117q113 137 305 137t337 -129q73 -63 117 -167t44 -236z" />
    <glyph glyph-name="q" unicode="q" horiz-adv-x="1196" 
d="M315 514q0 -120 79 -198t194 -78q116 0 190 80t74 196q0 115 -75 195q-75 79 -189 79t-194 -78q-79 -78 -79 -196zM542 -20q-192 0 -346 141q-155 141 -155 391q0 172 78 297q147 235 420 235q188 0 305 -131v111h280v-1495h-280v573q-110 -122 -302 -122z" />
    <glyph glyph-name="r" unicode="r" horiz-adv-x="800" 
d="M72 0v1024h278v-168q80 168 283 168h112v-272h-178q-113 0 -164 -64t-51 -205v-483h-280z" />
    <glyph glyph-name="s" unicode="s" horiz-adv-x="956" 
d="M494 221q66 0 104 27q38 28 37 64q0 36 -51 56q-64 25 -191 45q-127 21 -236 86q-110 66 -110 211q0 146 118 241t302 93q311 0 434 -237l-248 -105q-45 113 -188 113q-65 1 -99 -23t-34 -59t44 -52t146 -37t156 -40q54 -18 114 -53q124 -73 123 -229q0 -129 -114 -237
q-115 -107 -320 -105q-358 0 -471 276l269 104q55 -139 215 -139z" />
    <glyph glyph-name="t" unicode="t" horiz-adv-x="759" 
d="M51 772v252h174v240l281 153v-393h192v-252h-192v-326q0 -120 33 -152t159 -32v-262h-41q-244 0 -338 97t-94 347v328h-174z" />
    <glyph glyph-name="u" unicode="u" horiz-adv-x="1091" 
d="M454 -20q-177 0 -280 110q-102 111 -102 309v625h284v-588q0 -104 48 -160t138 -57t143 61q54 62 54 185v559h281v-1024h-279v113q-110 -133 -287 -133z" />
    <glyph glyph-name="v" unicode="v" horiz-adv-x="1116" 
d="M420 0l-387 1024h289l239 -666l234 666h284l-377 -1024h-282z" />
    <glyph glyph-name="w" unicode="w" horiz-adv-x="1810" 
d="M395 0l-344 1026l281 -2l209 -653l233 653h279l219 -653l221 653h279l-365 -1024h-270l-230 651l-239 -651h-273z" />
    <glyph glyph-name="x" unicode="x" horiz-adv-x="1150" 
d="M31 0l377 520l-363 504h342l199 -287l194 287h330l-354 -506l383 -518h-342l-215 299l-209 -299h-342z" />
    <glyph glyph-name="y" unicode="y" horiz-adv-x="1128" 
d="M223 -473l209 518l-407 979h294l252 -631l236 631h291l-594 -1497h-281z" />
    <glyph glyph-name="z" unicode="z" horiz-adv-x="1048" 
d="M61 0v250l539 526h-530v248h907v-252l-539 -524h549v-248h-926z" />
    <glyph glyph-name="braceleft" unicode="{" horiz-adv-x="757" 
d="M707 -471h-23q-256 0 -353 96t-98 348v197q0 125 -33 165q-34 40 -159 40v262q125 0 159 40t33 165v209q-1 252 97 348t354 96h23v-262q-127 0 -160 -32t-33 -152v-209q0 -258 -156 -334q156 -76 156 -334v-197q0 -121 33 -153t160 -31v-262z" />
    <glyph glyph-name="bar" unicode="|" horiz-adv-x="428" 
d="M72 -471v1966h284v-1966h-284z" />
    <glyph glyph-name="braceright" unicode="}" horiz-adv-x="757" 
d="M51 -471v262q127 0 160 32t33 152v197q0 133 36 213t117 121q-82 41 -117 121q-36 80 -36 213v209q0 121 -33 153t-160 31v262h23q256 0 353 -96t97 -348v-209q0 -125 34 -165t159 -40v-262q-125 0 -159 -40t-34 -165v-197q0 -252 -97 -348t-353 -96h-23z" />
    <glyph glyph-name="asciitilde" unicode="~" horiz-adv-x="964" 
d="M129 1178q0 124 57 200q56 76 144 76t168 -49t108 -49q55 0 56 90h161q0 -129 -55 -203t-160 -74q-74 1 -154 49t-110 48q-53 0 -53 -88h-162z" />
    <glyph glyph-name="exclamdown" unicode="&#xa1;" horiz-adv-x="423" 
d="M72 743v281h280v-281h-280zM72 -471v240q0 446 63 872h154q63 -426 63 -872v-240h-280z" />
    <glyph glyph-name="cent" unicode="&#xa2;" 
d="M475 -266v266q-182 49 -298 201q-116 153 -116 347t116 346t298 200v268h285v-262q135 -31 237 -118t156 -212l-252 -108q-35 84 -108 135q-75 51 -183 51t-193 -87t-85 -214t85 -214t193 -87t183 51q74 51 108 133l252 -106q-53 -127 -155 -213t-238 -117v-260h-285z
" />
    <glyph glyph-name="sterling" unicode="&#xa3;" 
d="M344 246q-39 0 -39 -39t52 -39t87 35q-61 43 -100 43zM111 672v225h110q-35 88 -35 190q0 195 124 312t320 117t313 -80q116 -80 159 -224l-271 -96q-39 152 -184 152q-84 0 -128 -48t-44 -129t49 -194h394v-225h-285q70 -166 69 -322q0 -57 -14 -106q39 -39 74 -39
q35 -1 47 23t12 96v165h291v-157q0 -190 -60 -272t-221 -80q-115 0 -237 96q-88 -98 -213 -99q-313 0 -313 234q0 106 69 175t171 69t186 -47q-21 82 -113 209q-27 38 -37 55h-233z" />
    <glyph glyph-name="currency" unicode="&#xa4;" horiz-adv-x="1583" 
d="M798 475q108 0 183 79q76 80 76 188t-76 187q-75 79 -183 79t-182 -78t-74 -189t74 -189t182 -77zM795 209q-137 0 -260 67l-263 -270l-206 203l268 274q-66 115 -66 257t68 266l-275 288l209 197l271 -283q121 66 258 66t254 -64l258 265l207 -201l-261 -266
q72 -123 72 -270t-74 -267l263 -272l-207 -199l-262 270q-117 -61 -254 -61z" />
    <glyph glyph-name="yen" unicode="&#xa5;" 
d="M162 573v230h297v51l-414 641h320l239 -397l240 397h315l-416 -645v-47h299v-230h-299v-157h299v-230h-299v-186h-284v186h-297v230h297v157h-297z" />
    <glyph glyph-name="brokenbar" unicode="&#xa6;" horiz-adv-x="428" 
d="M72 -471v860h284v-860h-284zM72 635v860h284v-860h-284z" />
    <glyph glyph-name="section" unicode="&#xa7;" horiz-adv-x="1173" 
d="M854 690q0 51 -72 81q-72 29 -200 59t-187 57q-76 -25 -76 -79t72 -84t202 -60t193 -54q68 29 68 80zM600 213q84 0 127 26q43 27 43 69t-59 68t-232 62q-215 51 -329 124t-113 210q0 80 48 144t126 98q-63 80 -64 182q0 139 114 230q115 90 305 90t317 -83t161 -200
l-268 -76q-10 59 -66 99t-139 40q-158 0 -157 -88q0 -49 70 -83q70 -35 246 -75q177 -40 292 -114t115 -207q0 -158 -156 -233q70 -74 70 -179q0 -143 -131 -241q-132 -98 -328 -97t-334 94q-137 93 -174 216l283 78q18 -68 84 -111q65 -43 149 -43z" />
    <glyph glyph-name="dieresis" unicode="&#xa8;" horiz-adv-x="964" 
d="M152 1126v281h280v-281h-280zM535 1126v281h280v-281h-280z" />
    <glyph glyph-name="copyright" unicode="&#xa9;" horiz-adv-x="1611" 
d="M819 334q-182 0 -301 120t-119 294t120 294t300 119q121 0 220 -63t145 -162l-217 -98q-10 40 -49 70t-110 30t-125 -55t-54 -135t54 -136q55 -56 123 -55q68 0 110 31t55 71l223 -77q-47 -109 -147 -179q-101 -69 -228 -69zM266 748q0 -229 155 -390t383 -161
q228 -1 388 161t160 390t-160 389t-388 161t-383 -160t-155 -390zM806 -20q-318 0 -542 224q-223 224 -223 542t223 544q224 226 542 226t542 -224t223 -544q0 -319 -223 -544q-224 -224 -542 -224z" />
    <glyph glyph-name="ordfeminine" unicode="&#xaa;" horiz-adv-x="739" 
d="M355 1079q50 0 82 35t32 85t-32 85t-82 35t-84 -33q-33 -33 -33 -85t34 -87t83 -35zM303 891q-98 0 -182 79q-84 80 -84 230t86 228t183 79q97 0 157 -63v51h205v-594h-205v62q-62 -72 -160 -72z" />
    <glyph glyph-name="guillemotleft" unicode="&#xab;" horiz-adv-x="978" 
d="M887 213l-377 231v158l377 232v-191l-203 -121l203 -119v-190zM469 213l-377 231v158l377 232v-191l-203 -121l203 -119v-190z" />
    <glyph glyph-name="logicalnot" unicode="&#xac;" horiz-adv-x="1234" 
d="M879 313v473h-822v273h1106v-746h-284z" />
    <glyph glyph-name="uni00AD" unicode="&#xad;" horiz-adv-x="901" 
d="M72 401v240h757v-240h-757z" />
    <glyph glyph-name="registered" unicode="&#xae;" horiz-adv-x="712" 
d="M367 1272h-45v-66h45q41 0 41 33t-41 33zM213 1042v316h158q69 0 109 -30t40 -81q0 -76 -65 -100l59 -98q59 63 59 152t-63 151q-62 62 -154 63q-92 0 -152 -62q-60 -63 -60 -155t60 -156t150 -63q90 0 154 63h-109l-77 148v-148h-109zM356 881q-131 0 -223 93t-92 224
t92 224q92 94 223 94q132 0 224 -94t92 -224q0 -131 -92 -224t-224 -93z" />
    <glyph glyph-name="macron" unicode="&#xaf;" horiz-adv-x="964" 
d="M213 1126v177h541v-177h-541z" />
    <glyph glyph-name="degree" unicode="&#xb0;" horiz-adv-x="815" 
d="M408 1020q51 0 90 39t39 90t-39 90t-90 39q-50 0 -90 -39t-40 -90t40 -90q39 -39 90 -39zM408 782q-152 0 -260 108t-108 260t108 258q108 108 260 108t260 -108t106 -260q0 -152 -107 -258q-107 -108 -259 -108z" />
    <glyph glyph-name="plusminus" unicode="&#xb1;" horiz-adv-x="901" 
d="M72 238v239h757v-239h-757zM72 852v240h262v258h235v-258h260v-240h-260v-260h-235v260h-262z" />
    <glyph glyph-name="twosuperior" unicode="&#xb2;" horiz-adv-x="675" 
d="M27 631v172q1 115 65 185t169 124q105 53 128 81q48 55 4 93q-20 18 -59 19q-82 0 -125 -111l-203 104q100 209 332 209q141 1 229 -73t88 -187t-67 -181t-227 -148q-57 -31 -69 -45q-11 -13 -13 -25h370v-217h-622z" />
    <glyph glyph-name="threesuperior" unicode="&#xb3;" horiz-adv-x="665" 
d="M324 618q-207 0 -316 109l178 160q54 -55 108 -55q106 -1 103 69q0 66 -116 66h-91v204h86q102 0 103 70q0 61 -77 61t-112 -55l-167 146q51 53 128 84t152 30q145 0 235 -69q89 -70 89 -180t-84 -177q104 -65 104 -185t-89 -199t-234 -79z" />
    <glyph glyph-name="acute" unicode="&#xb4;" horiz-adv-x="964" 
d="M213 1126l233 349h263l-308 -349h-188z" />
    <glyph glyph-name="mu" unicode="&#xb5;" horiz-adv-x="1071" 
d="M61 -471v1495h285v-532q0 -270 186 -271q86 1 142 61t55 183v559h281v-1024h-279v98q-96 -119 -252 -118q-72 0 -139 30v-481h-279z" />
    <glyph glyph-name="mu" unicode="&#x3bc;" horiz-adv-x="1071" 
d="M61 -471v1495h285v-532q0 -270 186 -271q86 1 142 61t55 183v559h281v-1024h-279v98q-96 -119 -252 -118q-72 0 -139 30v-481h-279z" />
    <glyph glyph-name="paragraph" unicode="&#xb6;" horiz-adv-x="1353" 
d="M672 0v618h-187q-190 0 -317 127t-127 311t127 312q127 127 315 127h799v-1495h-244v1231h-123v-1231h-243z" />
    <glyph glyph-name="periodcentered" unicode="&#xb7;" horiz-adv-x="423" 
d="M72 381v281h280v-281h-280z" />
    <glyph glyph-name="cedilla" unicode="&#xb8;" horiz-adv-x="964" 
d="M422 -492q-148 0 -283 121l160 97q85 -68 143 -68t90 17t33 44q0 55 -116 56h-105v225h174v-109q113 4 174 -41q62 -44 62 -130t-92 -149t-240 -63z" />
    <glyph glyph-name="onesuperior" unicode="&#xb9;" horiz-adv-x="610" 
d="M27 631v217h166v332q-41 -53 -130 -54h-12v224h6q78 0 111 44t33 101h227v-647h160v-217h-561z" />
    <glyph glyph-name="ordmasculine" unicode="&#xba;" horiz-adv-x="686" 
d="M343 1085q46 0 78 33t32 80t-32 81t-78 34t-77 -33q-30 -33 -30 -81t30 -81t77 -33zM344 891q-127 0 -217 90t-90 218t90 218t217 90t216 -90t89 -218t-89 -218t-216 -90z" />
    <glyph glyph-name="guillemotright" unicode="&#xbb;" horiz-adv-x="978" 
d="M92 213v190l203 119l-203 121v191l377 -232v-158zM510 213v190l203 119l-203 121v191l377 -232v-158z" />
    <glyph glyph-name="onequarter" unicode="&#xbc;" horiz-adv-x="1753" 
d="M1382 369v147l-102 -147h102zM27 631v217h166v332q-41 -53 -130 -54h-12v224h6q78 0 111 44t33 101h227v-647h160v-217h-561zM1382 0v170h-344v207l342 487h219v-495h127v-199h-127v-170h-217zM172 0l1079 1495h328l-1079 -1495h-328z" />
    <glyph glyph-name="onehalf" unicode="&#xbd;" horiz-adv-x="1783" 
d="M27 631v217h166v332q-41 -53 -130 -54h-12v224h6q78 0 111 44t33 101h227v-647h160v-217h-561zM1135 0v172q1 116 65 186t167 123t129 81q49 56 5 93q-20 18 -59 19q-82 0 -125 -111l-203 105q100 209 332 209q141 0 229 -74t88 -187t-67 -181t-227 -148q-56 -31 -68 -44
t-15 -26h371v-217h-622zM172 0l1079 1495h328l-1079 -1495h-328z" />
    <glyph glyph-name="threequarters" unicode="&#xbe;" horiz-adv-x="1767" 
d="M1397 369v147l-103 -147h103zM324 618q-207 0 -316 109l178 160q54 -55 108 -55q106 -1 103 69q0 66 -116 66h-91v204h86q102 0 103 70q0 61 -77 61t-112 -55l-167 146q51 53 128 84t152 30q145 0 235 -69q89 -70 89 -180t-84 -177q104 -65 104 -185t-89 -199t-234 -79z
M1397 0v170h-344v207l342 487h219v-495h127v-199h-127v-170h-217zM186 0l1080 1495h327l-1079 -1495h-328z" />
    <glyph glyph-name="questiondown" unicode="&#xbf;" horiz-adv-x="1054" 
d="M422 743v281h280v-281h-280zM528 -492q-200 0 -332 119t-133 312q0 91 28 159t69 107t90 80t90 77t69 103q28 66 27 151v23h252v-23q0 -137 -35 -236q-35 -98 -84 -150t-98 -92q-119 -97 -119 -204q0 -78 52 -128t134 -50t135 48q52 48 70 126l265 -88
q-39 -154 -159 -244q-121 -90 -321 -90z" />
    <glyph glyph-name="Agrave" unicode="&#xc0;" horiz-adv-x="1404" 
d="M614 1597l-307 349h262l234 -349h-189zM702 1090l-192 -558h385zM29 0l530 1495h287l530 -1495h-297l-90 260h-573l-90 -260h-297z" />
    <glyph glyph-name="Aacute" unicode="&#xc1;" horiz-adv-x="1404" 
d="M608 1597l234 349h262l-307 -349h-189zM702 1090l-192 -558h385zM29 0l530 1495h287l530 -1495h-297l-90 260h-573l-90 -260h-297z" />
    <glyph glyph-name="Acircumflex" unicode="&#xc2;" horiz-adv-x="1404" 
d="M702 1090l-192 -558h385zM371 1597l243 349h174l244 -349h-211l-121 181l-118 -181h-211zM29 0l530 1495h287l530 -1495h-297l-90 260h-573l-90 -260h-297z" />
    <glyph glyph-name="Atilde" unicode="&#xc3;" horiz-adv-x="1404" 
d="M702 1090l-192 -558h385zM354 1597q0 125 58 201t144 76q87 0 167 -49t108 -49q55 0 56 90h162q1 -129 -55 -203t-145 -74q-89 1 -170 49t-110 48q-53 0 -53 -89h-162zM29 0l530 1495h287l530 -1495h-297l-90 260h-573l-90 -260h-297z" />
    <glyph glyph-name="Adieresis" unicode="&#xc4;" horiz-adv-x="1404" 
d="M371 1597v281h280v-281h-280zM754 1597v281h280v-281h-280zM702 1090l-192 -558h385zM29 0l530 1495h287l530 -1495h-297l-90 260h-573l-90 -260h-297z" />
    <glyph glyph-name="Aring" unicode="&#xc5;" horiz-adv-x="1404" 
d="M700 1659q-33 -1 -56 -25t-23 -57q-1 -33 21 -57t52 -25h13q33 2 55 26q22 25 22 57t-26 56t-58 25zM702 1090l-192 -558h385zM702 1817q100 0 170 -71t70 -170t-68 -167l502 -1409h-297l-90 260h-573l-90 -260h-297l499 1409q-66 70 -66 168t70 169t170 71z" />
    <glyph glyph-name="AE" unicode="&#xc6;" horiz-adv-x="1910" 
d="M807 1087l-252 -565h391zM1845 1495v-272h-782l86 -336h696v-273h-626l86 -342h540v-272h-770l-63 258h-576l-114 -258h-297l680 1495h1140z" />
    <glyph glyph-name="Ccedilla" unicode="&#xc7;" horiz-adv-x="1505" 
d="M780 -492q-148 0 -282 121l159 97q85 -68 143 -68t91 17t33 44q0 55 -117 56h-105v213q-299 35 -480 248q-181 212 -181 528t221 534t547 218q207 0 381 -100t274 -271l-250 -160q-135 250 -405 250q-209 0 -347 -140t-138 -345q0 -206 137 -346t342 -140q147 0 256 76
t168 203l260 -137q-92 -180 -253 -293t-357 -129v-93q113 4 174 -41q61 -44 61 -130t-92 -149t-240 -63z" />
    <glyph glyph-name="Egrave" unicode="&#xc8;" horiz-adv-x="1034" 
d="M451 1597l-308 349h263l233 -349h-188zM82 0v1495h887v-272h-602v-336h602v-273h-602v-342h602v-272h-887z" />
    <glyph glyph-name="Eacute" unicode="&#xc9;" horiz-adv-x="1034" 
d="M412 1597l233 349h262l-307 -349h-188zM82 0v1495h887v-272h-602v-336h602v-273h-602v-342h602v-272h-887z" />
    <glyph glyph-name="Ecircumflex" unicode="&#xca;" horiz-adv-x="1034" 
d="M195 1597l243 349h174l244 -349h-211l-121 181l-118 -181h-211zM82 0v1495h887v-272h-602v-336h602v-273h-602v-342h602v-272h-887z" />
    <glyph glyph-name="Edieresis" unicode="&#xcb;" horiz-adv-x="1034" 
d="M203 1597v281h280v-281h-280zM586 1597v281h280v-281h-280zM82 0v1495h887v-272h-602v-336h602v-273h-602v-342h602v-272h-887z" />
    <glyph glyph-name="Igrave" unicode="&#xcc;" horiz-adv-x="468" 
d="M141 1597l-307 349h262l234 -349h-189zM92 0v1495h285v-1495h-285z" />
    <glyph glyph-name="Iacute" unicode="&#xcd;" horiz-adv-x="468" 
d="M143 1597l234 349h262l-307 -349h-189zM92 0v1495h285v-1495h-285z" />
    <glyph glyph-name="Icircumflex" unicode="&#xce;" horiz-adv-x="468" 
d="M-94 1597l244 349h174l243 -349h-211l-120 181l-119 -181h-211zM92 0v1495h285v-1495h-285z" />
    <glyph glyph-name="Idieresis" unicode="&#xcf;" horiz-adv-x="468" 
d="M92 0v1495h285v-1495h-285zM-117 1597v281h281v-281h-281zM307 1597v281h281v-281h-281z" />
    <glyph glyph-name="Eth" unicode="&#xd0;" horiz-adv-x="1419" 
d="M555 1231h-90v-361h334v-239h-334v-367h102q238 0 382 136q145 136 145 352t-136 348q-136 131 -403 131zM41 631v239h139v625h408q370 0 580 -210q210 -211 210 -535t-219 -537t-559 -213h-420v631h-139z" />
    <glyph glyph-name="Ntilde" unicode="&#xd1;" horiz-adv-x="1406" 
d="M352 1597q0 125 58 201t144 76q87 0 167 -49t108 -49q55 0 56 90h162q1 -129 -55 -203t-161 -74q-75 1 -155 49t-109 48q-53 0 -53 -89h-162zM82 0v1495h324l634 -1006v1006h285v-1495h-303l-655 1038v-1038h-285z" />
    <glyph glyph-name="Ograve" unicode="&#xd2;" horiz-adv-x="1611" 
d="M711 1597l-308 349h263l233 -349h-188zM805 260q201 0 342 143t141 345t-141 344q-141 143 -342 143t-341 -142t-140 -345q0 -204 140 -346t341 -142zM806 -20q-318 0 -542 224q-223 224 -223 542t223 544q224 226 542 226t542 -224t223 -544q0 -319 -223 -544
q-224 -224 -542 -224z" />
    <glyph glyph-name="Oacute" unicode="&#xd3;" horiz-adv-x="1611" 
d="M698 1597l234 349h262l-307 -349h-189zM805 260q201 0 342 143t141 345t-141 344q-141 143 -342 143t-341 -142t-140 -345q0 -204 140 -346t341 -142zM806 -20q-318 0 -542 224q-223 224 -223 542t223 544q224 226 542 226t542 -224t223 -544q0 -319 -223 -544
q-224 -224 -542 -224z" />
    <glyph glyph-name="Ocircumflex" unicode="&#xd4;" horiz-adv-x="1611" 
d="M467 1597l244 349h174l243 -349h-210l-121 181l-119 -181h-211zM805 260q201 0 342 143t141 345t-141 344q-141 143 -342 143t-341 -142t-140 -345q0 -204 140 -346t341 -142zM806 -20q-318 0 -542 224q-223 224 -223 542t223 544q224 226 542 226t542 -224t223 -544
q0 -319 -223 -544q-224 -224 -542 -224z" />
    <glyph glyph-name="Otilde" unicode="&#xd5;" horiz-adv-x="1611" 
d="M446 1597q0 125 58 201t144 76q88 0 168 -49t108 -49q55 0 55 90h162q1 -129 -55 -203t-145 -74q-89 1 -169 49t-110 48q-53 0 -54 -89h-162zM805 260q201 0 342 143t141 345t-141 344q-141 143 -342 143t-341 -142t-140 -345q0 -204 140 -346t341 -142zM806 -20
q-318 0 -542 224q-223 224 -223 542t223 544q224 226 542 226t542 -224t223 -544q0 -319 -223 -544q-224 -224 -542 -224z" />
    <glyph glyph-name="Odieresis" unicode="&#xd6;" horiz-adv-x="1611" 
d="M461 1597v281h280v-281h-280zM844 1597v281h280v-281h-280zM805 260q201 0 342 143t141 345t-141 344q-141 143 -342 143t-341 -142t-140 -345q0 -204 140 -346t341 -142zM806 -20q-318 0 -542 224q-223 224 -223 542t223 544q224 226 542 226t542 -224t223 -544
q0 -319 -223 -544q-224 -224 -542 -224z" />
    <glyph glyph-name="multiply" unicode="&#xd7;" horiz-adv-x="901" 
d="M238 365l-166 165l213 213l-215 215l166 166l215 -215l215 215l165 -166l-215 -215l213 -213l-165 -165l-213 213z" />
    <glyph glyph-name="Oslash" unicode="&#xd8;" horiz-adv-x="1611" 
d="M805 260q201 0 342 143t141 345q0 154 -88 278l-588 -725q89 -41 193 -41zM324 748q0 -162 90 -287l592 729q-96 45 -201 45q-201 0 -341 -142t-140 -345zM805 -20q-201 0 -375 96l-61 -76h-328l192 236q-193 215 -193 522t224 532q223 225 541 226q199 0 381 -103l67 82
h328l-199 -244q188 -219 189 -503q0 -320 -223 -544t-543 -224z" />
    <glyph glyph-name="Ugrave" unicode="&#xd9;" horiz-adv-x="1243" 
d="M545 1597l-307 349h262l233 -349h-188zM621 -20q-242 0 -391 139q-148 139 -148 399v977h285v-995q1 -109 73 -183q72 -73 180 -73t182 74q75 74 75 182v995h284v-977q0 -260 -149 -399t-391 -139z" />
    <glyph glyph-name="Uacute" unicode="&#xda;" horiz-adv-x="1243" 
d="M512 1597l233 349h263l-308 -349h-188zM621 -20q-242 0 -391 139q-148 139 -148 399v977h285v-995q1 -109 73 -183q72 -73 180 -73t182 74q75 74 75 182v995h284v-977q0 -260 -149 -399t-391 -139z" />
    <glyph glyph-name="Ucircumflex" unicode="&#xdb;" horiz-adv-x="1243" 
d="M291 1597l244 349h174l243 -349h-211l-120 181l-119 -181h-211zM621 -20q-242 0 -391 139q-148 139 -148 399v977h285v-995q1 -109 73 -183q72 -73 180 -73t182 74q75 74 75 182v995h284v-977q0 -260 -149 -399t-391 -139z" />
    <glyph glyph-name="Udieresis" unicode="&#xdc;" horiz-adv-x="1243" 
d="M299 1597v281h281v-281h-281zM682 1597v281h281v-281h-281zM621 -20q-242 0 -391 139q-148 139 -148 399v977h285v-995q1 -109 73 -183q72 -73 180 -73t182 74q75 74 75 182v995h284v-977q0 -260 -149 -399t-391 -139z" />
    <glyph glyph-name="Yacute" unicode="&#xdd;" horiz-adv-x="1288" 
d="M541 1597l233 349h262l-307 -349h-188zM500 0v709l-475 786h313l305 -514l307 514h314l-480 -793v-702h-284z" />
    <glyph glyph-name="Thorn" unicode="&#xde;" horiz-adv-x="1140" 
d="M596 973h-229v-428h229q94 0 153 62q58 63 58 153q-1 90 -59 152t-152 61zM82 0v1495h285v-258h245q205 0 341 -138q137 -138 137 -340t-136 -340t-344 -138h-243v-281h-285z" />
    <glyph glyph-name="germandbls" unicode="&#xdf;" horiz-adv-x="1060" 
d="M-121 -471v262q127 0 160 32t33 152v1059q-6 207 112 332q119 125 331 125t336 -118q124 -119 124 -307t-160 -298q0 -2 -2 -2t-4 -2q90 -39 150 -129t61 -203q0 -199 -133 -326t-346 -126q-70 0 -103 6v245h99q86 1 141 57t55 141t-67 143q-68 58 -181 59h-47v254h47
q100 0 160 53q59 53 60 133t-49 131t-132 51q-188 0 -188 -190v-1090q0 -254 -87 -349t-329 -95h-41z" />
    <glyph glyph-name="agrave" unicode="&#xe0;" horiz-adv-x="1196" 
d="M473 1126l-307 349h262l234 -349h-189zM315 514q0 -120 79 -198t194 -78q116 0 190 80t74 196q0 115 -75 195q-75 79 -189 79t-194 -78q-79 -78 -79 -196zM540 -20q-190 0 -344 141q-155 141 -155 391q0 172 78 297q147 235 420 235q190 0 305 -120v100h280v-1024h-280
v115q-114 -135 -304 -135z" />
    <glyph glyph-name="aacute" unicode="&#xe1;" horiz-adv-x="1196" 
d="M430 1126l234 349h262l-308 -349h-188zM315 514q0 -120 79 -198t194 -78q116 0 190 80t74 196q0 115 -75 195q-75 79 -189 79t-194 -78q-79 -78 -79 -196zM540 -20q-190 0 -344 141q-155 141 -155 391q0 172 78 297q147 235 420 235q190 0 305 -120v100h280v-1024h-280
v115q-114 -135 -304 -135z" />
    <glyph glyph-name="acircumflex" unicode="&#xe2;" horiz-adv-x="1196" 
d="M293 1126l244 349h174l243 -349h-211l-120 181l-119 -181h-211zM315 514q0 -120 79 -198t194 -78q116 0 190 80t74 196q0 115 -75 195q-75 79 -189 79t-194 -78q-79 -78 -79 -196zM540 -20q-190 0 -344 141q-155 141 -155 391q0 172 78 297q147 235 420 235
q190 0 305 -120v100h280v-1024h-280v115q-114 -135 -304 -135z" />
    <glyph glyph-name="atilde" unicode="&#xe3;" horiz-adv-x="1196" 
d="M250 1126q0 125 57 201t145 76t167 -49q80 -49 108 -49q55 0 55 90h162q0 -129 -55 -203t-160 -74q-75 0 -155 48t-109 48q-53 0 -53 -88h-162zM315 514q0 -120 79 -198t194 -78q116 0 190 80t74 196q0 115 -75 195q-75 79 -189 79t-194 -78q-79 -78 -79 -196zM540 -20
q-190 0 -344 141q-155 141 -155 391q0 172 78 297q147 235 420 235q190 0 305 -120v100h280v-1024h-280v115q-114 -135 -304 -135z" />
    <glyph glyph-name="adieresis" unicode="&#xe4;" horiz-adv-x="1196" 
d="M276 1126v281h281v-281h-281zM659 1126v281h281v-281h-281zM315 514q0 -120 79 -198t194 -78q116 0 190 80t74 196q0 115 -75 195q-75 79 -189 79t-194 -78q-79 -78 -79 -196zM540 -20q-190 0 -344 141q-155 141 -155 391q0 172 78 297q147 235 420 235q190 0 305 -120
v100h280v-1024h-280v115q-114 -135 -304 -135z" />
    <glyph glyph-name="aring" unicode="&#xe5;" horiz-adv-x="1196" 
d="M568 1270q34 0 59 24t25 57q0 35 -26 59q-24 24 -58 24t-58 -25t-23 -59q-1 -34 23 -56q24 -24 58 -24zM568 1112q-99 0 -169 70q-69 70 -69 169t69 170q70 71 169 71t170 -72q71 -70 71 -169t-71 -169t-170 -70zM315 514q0 -120 79 -198t194 -78q116 0 190 80t74 196
q0 115 -75 195q-75 79 -189 79t-194 -78q-79 -78 -79 -196zM540 -20q-190 0 -344 141q-155 141 -155 391q0 172 78 297q147 235 420 235q190 0 305 -120v100h280v-1024h-280v115q-114 -135 -304 -135z" />
    <glyph glyph-name="ae" unicode="&#xe6;" horiz-adv-x="1810" 
d="M1241 799q-85 0 -149 -41t-97 -111h486q-64 152 -240 152zM317 281q1 -70 109 -70t194 79q85 79 85 142v49q-10 -33 -205 -80q-98 -25 -141 -51q-42 -27 -42 -69zM1249 -20q-274 0 -424 202q-55 -90 -165 -146t-244 -56q-188 0 -282 79q-93 80 -93 213t84 209t240 119
q205 50 253 69t64 35t16 46q0 28 -40 52t-131 24t-144 -49q-53 -48 -53 -120v-6h-254v4q0 185 121 287t349 102t343 -133q149 133 363 133t366 -154t151 -378v-90h-792q23 -90 93 -143t168 -53q97 0 168 46q71 47 105 123l232 -94q-61 -145 -195 -233t-299 -88z" />
    <glyph glyph-name="ccedilla" unicode="&#xe7;" horiz-adv-x="1095" 
d="M560 -492q-148 0 -281 121l159 97q86 -68 144 -68t90 17q33 17 33 44q0 55 -117 56h-105v213q-190 31 -316 178t-126 357t155 366t375 155q172 0 302 -88t192 -235l-250 -107q-29 74 -95 119t-162 45t-172 -78t-75 -188q0 -110 76 -188t171 -78t162 45t95 119l250 -107
q-53 -127 -159 -212t-249 -105v-95q113 4 174 -41q61 -44 61 -130t-92 -149t-240 -63z" />
    <glyph glyph-name="egrave" unicode="&#xe8;" horiz-adv-x="1144" 
d="M575 799q-87 0 -153 -44t-98 -118h495q-56 162 -244 162zM500 1126l-307 349h262l233 -349h-188zM582 -20q-236 0 -388 154t-153 376q0 223 156 379q155 155 381 155t375 -152q148 -153 149 -378v-102h-791q25 -86 95 -136t166 -51q188 0 264 160l223 -133
q-69 -124 -191 -198t-286 -74z" />
    <glyph glyph-name="eacute" unicode="&#xe9;" horiz-adv-x="1144" 
d="M575 799q-87 0 -153 -44t-98 -118h495q-56 162 -244 162zM457 1126l233 349h262l-307 -349h-188zM582 -20q-236 0 -388 154t-153 376q0 223 156 379q155 155 381 155t375 -152q148 -153 149 -378v-102h-791q25 -86 95 -136t166 -51q188 0 264 160l223 -133
q-69 -124 -191 -198t-286 -74z" />
    <glyph glyph-name="ecircumflex" unicode="&#xea;" horiz-adv-x="1144" 
d="M575 799q-87 0 -153 -44t-98 -118h495q-56 162 -244 162zM233 1126l244 349h174l244 -349h-211l-121 181l-119 -181h-211zM582 -20q-236 0 -388 154t-153 376q0 223 156 379q155 155 381 155t375 -152q148 -153 149 -378v-102h-791q25 -86 95 -136t166 -51q188 0 264 160
l223 -133q-69 -124 -191 -198t-286 -74z" />
    <glyph glyph-name="edieresis" unicode="&#xeb;" horiz-adv-x="1144" 
d="M575 799q-87 0 -153 -44t-98 -118h495q-56 162 -244 162zM240 1126v281h280v-281h-280zM623 1126v281h280v-281h-280zM582 -20q-236 0 -388 154t-153 376q0 223 156 379q155 155 381 155t375 -152q148 -153 149 -378v-102h-791q25 -86 95 -136t166 -51q188 0 264 160
l223 -133q-69 -124 -191 -198t-286 -74z" />
    <glyph glyph-name="igrave" unicode="&#xec;" horiz-adv-x="423" 
d="M154 1126l-308 349h263l233 -349h-188zM72 0v1024h280v-1024h-280z" />
    <glyph glyph-name="iacute" unicode="&#xed;" horiz-adv-x="423" 
d="M80 1126l233 349h262l-307 -349h-188zM72 0v1024h280v-1024h-280z" />
    <glyph glyph-name="icircumflex" unicode="&#xee;" horiz-adv-x="423" 
d="M-119 1126l244 349h174l244 -349h-211l-121 181l-119 -181h-211zM72 0v1024h280v-1024h-280z" />
    <glyph glyph-name="idieresis" unicode="&#xef;" horiz-adv-x="423" 
d="M72 0v1024h280v-1024h-280zM-141 1126v281h280v-281h-280zM283 1126v281h280v-281h-280z" />
    <glyph glyph-name="eth" unicode="&#xf0;" horiz-adv-x="1148" 
d="M571 246q104 0 182 79q77 79 77 187t-74 188q-74 78 -182 78t-183 -76q-76 -76 -76 -190t76 -190t180 -76zM1102 526q0 -231 -154 -389q-154 -157 -374 -157t-376 152t-157 377q0 223 143 367t357 144q100 0 176 -43q-61 86 -166 180l-98 -82h-240l223 185
q-106 90 -315 235h389q55 -43 104 -86l103 86h237l-227 -190q375 -375 375 -779z" />
    <glyph glyph-name="ntilde" unicode="&#xf1;" horiz-adv-x="1091" 
d="M201 1128q0 125 57 201q56 76 144 76t168 -49t108 -49q55 0 55 90h162q0 -129 -55 -203t-160 -74q-74 0 -154 48t-110 49q-53 0 -54 -89h-161zM72 0v1024h278v-115q106 135 286 135t282 -110q102 -111 102 -309v-625h-285v588q0 104 -48 160t-137 57t-143 -61t-55 -185
v-559h-280z" />
    <glyph glyph-name="ograve" unicode="&#xf2;" horiz-adv-x="1142" 
d="M485 1126l-307 349h262l234 -349h-189zM570 778q-108 0 -182 -78t-73 -188q-1 -110 73 -188t182 -78t184 79t76 187t-76 188q-76 78 -184 78zM571 -20q-221 0 -375 156t-155 376q0 221 155 377q156 155 376 155t375 -156t155 -376t-155 -376t-376 -156z" />
    <glyph glyph-name="oacute" unicode="&#xf3;" horiz-adv-x="1142" 
d="M469 1126l233 349h263l-308 -349h-188zM570 778q-108 0 -182 -78t-73 -188q-1 -110 73 -188t182 -78t184 79t76 187t-76 188q-76 78 -184 78zM571 -20q-221 0 -375 156t-155 376q0 221 155 377q156 155 376 155t375 -156t155 -376t-155 -376t-376 -156z" />
    <glyph glyph-name="ocircumflex" unicode="&#xf4;" horiz-adv-x="1142" 
d="M240 1126l243 349h174l244 -349h-211l-121 181l-118 -181h-211zM570 778q-108 0 -182 -78t-73 -188q-1 -110 73 -188t182 -78t184 79t76 187t-76 188q-76 78 -184 78zM571 -20q-221 0 -375 156t-155 376q0 221 155 377q156 155 376 155t375 -156t155 -376t-155 -376
t-376 -156z" />
    <glyph glyph-name="otilde" unicode="&#xf5;" horiz-adv-x="1142" 
d="M233 1126q-1 125 57 201t146 76t166 -49q80 -49 109 -49q55 0 55 90h162q0 -129 -56 -203t-144 -74q-90 0 -170 48t-109 48q-53 0 -54 -88h-162zM570 778q-108 0 -182 -78t-73 -188q-1 -110 73 -188t182 -78t184 79t76 187t-76 188q-76 78 -184 78zM571 -20
q-221 0 -375 156t-155 376q0 221 155 377q156 155 376 155t375 -156t155 -376t-155 -376t-376 -156z" />
    <glyph glyph-name="odieresis" unicode="&#xf6;" horiz-adv-x="1142" 
d="M240 1126v281h280v-281h-280zM623 1126v281h280v-281h-280zM570 778q-108 0 -182 -78t-73 -188q-1 -110 73 -188t182 -78t184 79t76 187t-76 188q-76 78 -184 78zM571 -20q-221 0 -375 156t-155 376q0 221 155 377q156 155 376 155t375 -156t155 -376t-155 -376
t-376 -156z" />
    <glyph glyph-name="divide" unicode="&#xf7;" horiz-adv-x="901" 
d="M334 307v238h237v-238h-237zM334 948v238h237v-238h-237zM72 627v239h757v-239h-757z" />
    <glyph glyph-name="oslash" unicode="&#xf8;" horiz-adv-x="1142" 
d="M311 512q0 -59 23 -115l301 373q-41 8 -64 8q-111 0 -185 -78t-75 -188zM571 246q109 0 185 78t75 188q0 59 -26 117l-303 -375q30 -8 69 -8zM571 -20q-133 0 -243 57l-31 -37h-285l144 178q-115 143 -115 349t155 362t375 155q129 0 240 -57l31 37h284l-143 -176
q119 -147 119 -352q0 -204 -155 -360t-376 -156z" />
    <glyph glyph-name="ugrave" unicode="&#xf9;" horiz-adv-x="1091" 
d="M457 1126l-307 349h262l233 -349h-188zM454 -20q-177 0 -280 110q-102 111 -102 309v625h284v-588q0 -104 48 -160t138 -57t143 61q54 62 54 185v559h281v-1024h-279v113q-110 -133 -287 -133z" />
    <glyph glyph-name="uacute" unicode="&#xfa;" horiz-adv-x="1091" 
d="M440 1126l234 349h262l-307 -349h-189zM454 -20q-177 0 -280 110q-102 111 -102 309v625h284v-588q0 -104 48 -160t138 -57t143 61q54 62 54 185v559h281v-1024h-279v113q-110 -133 -287 -133z" />
    <glyph glyph-name="ucircumflex" unicode="&#xfb;" horiz-adv-x="1091" 
d="M213 1126l244 349h174l243 -349h-210l-121 181l-119 -181h-211zM454 -20q-177 0 -280 110q-102 111 -102 309v625h284v-588q0 -104 48 -160t138 -57t143 61q54 62 54 185v559h281v-1024h-279v113q-110 -133 -287 -133z" />
    <glyph glyph-name="udieresis" unicode="&#xfc;" horiz-adv-x="1091" 
d="M594 1126v281h280v-281h-280zM211 1126v281h281v-281h-281zM454 -20q-177 0 -280 110q-102 111 -102 309v625h284v-588q0 -104 48 -160t138 -57t143 61q54 62 54 185v559h281v-1024h-279v113q-110 -133 -287 -133z" />
    <glyph glyph-name="yacute" unicode="&#xfd;" horiz-adv-x="1128" 
d="M463 1126l233 349h262l-307 -349h-188zM223 -473l209 518l-407 979h294l252 -631l236 631h291l-594 -1497h-281z" />
    <glyph glyph-name="thorn" unicode="&#xfe;" horiz-adv-x="1179" 
d="M344 514q0 -116 74 -196t190 -80q115 0 194 78t79 198q0 119 -79 197q-79 77 -194 77q-116 0 -190 -80t-74 -194zM656 -20q-192 0 -304 143v-594h-280v1966h280v-588q110 137 306 137t342 -139t146 -391t-148 -393q-150 -141 -342 -141z" />
    <glyph glyph-name="ydieresis" unicode="&#xff;" horiz-adv-x="1128" 
d="M623 1126v281h280v-281h-280zM240 1126v281h280v-281h-280zM223 -473l209 518l-407 979h294l252 -631l236 631h291l-594 -1497h-281z" />
    <glyph glyph-name="Amacron" unicode="&#x100;" horiz-adv-x="1404" 
d="M434 1597v177h541v-177h-541zM702 1090l-192 -558h385zM29 0l530 1495h287l530 -1495h-297l-90 260h-573l-90 -260h-297z" />
    <glyph glyph-name="amacron" unicode="&#x101;" horiz-adv-x="1196" 
d="M352 1126v177h541v-177h-541zM315 514q0 -120 79 -198t194 -78q116 0 190 80t74 196q0 115 -75 195q-75 79 -189 79t-194 -78q-79 -78 -79 -196zM540 -20q-190 0 -344 141q-155 141 -155 391q0 172 78 297q147 235 420 235q190 0 305 -120v100h280v-1024h-280v115
q-114 -135 -304 -135z" />
    <glyph glyph-name="Abreve" unicode="&#x102;" horiz-adv-x="1404" 
d="M702 1090l-192 -558h385zM1032 1935q0 -152 -90 -250t-247 -98t-241 96t-83 252h176q0 -190 153 -196q154 6 154 196h178zM29 0l530 1495h287l530 -1495h-297l-90 260h-573l-90 -260h-297z" />
    <glyph glyph-name="abreve" unicode="&#x103;" horiz-adv-x="1196" 
d="M589 1116q-157 0 -241 96t-84 252h176q0 -190 154 -196q154 6 154 196h178q0 -152 -90 -250t-247 -98zM315 514q0 -120 79 -198t194 -78q116 0 190 80t74 196q0 115 -75 195q-75 79 -189 79t-194 -78q-79 -78 -79 -196zM540 -20q-190 0 -344 141q-155 141 -155 391
q0 172 78 297q147 235 420 235q190 0 305 -120v100h280v-1024h-280v115q-114 -135 -304 -135z" />
    <glyph glyph-name="Aogonek" unicode="&#x104;" horiz-adv-x="1404" 
d="M702 1090l-192 -558h385zM1196 -465q-131 0 -213 65t-82 158q0 141 174 252l-86 250h-573l-90 -260h-297l530 1495h287l530 -1495q-174 -115 -220 -154t-46 -77q0 -61 86 -62q49 0 123 57l164 -110q-57 -51 -136 -85t-151 -34z" />
    <glyph glyph-name="aogonek" unicode="&#x105;" horiz-adv-x="1196" 
d="M315 514q0 -120 79 -198t194 -78q116 0 190 80t74 196q0 115 -75 195q-75 79 -189 79t-194 -78q-79 -78 -79 -196zM540 -20q-190 0 -344 141q-155 141 -155 391q0 172 78 297q147 235 420 235q190 0 305 -120v100h280v-1024h-10q-109 -66 -163 -126t-54 -101
q0 -68 76 -68q51 0 102 64l164 -113q-121 -127 -276 -127q-117 0 -193 62t-78 159q-6 143 152 264v101q-114 -135 -304 -135z" />
    <glyph glyph-name="Cacute" unicode="&#x106;" horiz-adv-x="1505" 
d="M713 1597l233 349h262l-307 -349h-188zM809 -20q-340 0 -554 221t-214 550t221 547t547 218q207 0 381 -100t274 -271l-250 -160q-135 250 -405 250q-209 0 -347 -140t-138 -345q0 -206 137 -346t342 -140q147 0 256 76t168 203l260 -137q-99 -194 -279 -310t-399 -116z
" />
    <glyph glyph-name="cacute" unicode="&#x107;" horiz-adv-x="1095" 
d="M471 1126l234 349h262l-308 -349h-188zM571 -20q-221 0 -375 156t-155 376q0 221 155 377t375 155q172 0 302 -88t192 -235l-250 -107q-29 74 -95 119t-162 45t-172 -78t-75 -188q0 -110 76 -188t171 -78t162 45t95 119l250 -107q-61 -147 -191 -235t-303 -88z" />
    <glyph glyph-name="Ccircumflex" unicode="&#x108;" horiz-adv-x="1505" 
d="M487 1597l244 349h174l244 -349h-211l-121 181l-119 -181h-211zM809 -20q-340 0 -554 221t-214 550t221 547t547 218q207 0 381 -100t274 -271l-250 -160q-135 250 -405 250q-209 0 -347 -140t-138 -345q0 -206 137 -346t342 -140q147 0 256 76t168 203l260 -137
q-99 -194 -279 -310t-399 -116z" />
    <glyph glyph-name="ccircumflex" unicode="&#x109;" horiz-adv-x="1095" 
d="M248 1126l244 349h174l243 -349h-211l-120 181l-119 -181h-211zM571 -20q-221 0 -375 156t-155 376q0 221 155 377t375 155q172 0 302 -88t192 -235l-250 -107q-29 74 -95 119t-162 45t-172 -78t-75 -188q0 -110 76 -188t171 -78t162 45t95 119l250 -107
q-61 -147 -191 -235t-303 -88z" />
    <glyph glyph-name="Cdotaccent" unicode="&#x10a;" horiz-adv-x="1505" 
d="M682 1597v281h281v-281h-281zM809 -20q-340 0 -554 221t-214 550t221 547t547 218q207 0 381 -100t274 -271l-250 -160q-135 250 -405 250q-209 0 -347 -140t-138 -345q0 -206 137 -346t342 -140q147 0 256 76t168 203l260 -137q-99 -194 -279 -310t-399 -116z" />
    <glyph glyph-name="cdotaccent" unicode="&#x10b;" horiz-adv-x="1095" 
d="M436 1126v281h281v-281h-281zM571 -20q-221 0 -375 156t-155 376q0 221 155 377t375 155q172 0 302 -88t192 -235l-250 -107q-29 74 -95 119t-162 45t-172 -78t-75 -188q0 -110 76 -188t171 -78t162 45t95 119l250 -107q-61 -147 -191 -235t-303 -88z" />
    <glyph glyph-name="Ccaron" unicode="&#x10c;" horiz-adv-x="1505" 
d="M727 1597l-244 349h211l119 -181l121 181h211l-244 -349h-174zM809 -20q-340 0 -554 221t-214 550t221 547t547 218q207 0 381 -100t274 -271l-250 -160q-135 250 -405 250q-209 0 -347 -140t-138 -345q0 -206 137 -346t342 -140q147 0 256 76t168 203l260 -137
q-99 -194 -279 -310t-399 -116z" />
    <glyph glyph-name="ccaron" unicode="&#x10d;" horiz-adv-x="1095" 
d="M494 1126l-244 349h211l119 -181l120 181h211l-243 -349h-174zM571 -20q-221 0 -375 156t-155 376q0 221 155 377t375 155q172 0 302 -88t192 -235l-250 -107q-29 74 -95 119t-162 45t-172 -78t-75 -188q0 -110 76 -188t171 -78t162 45t95 119l250 -107
q-61 -147 -191 -235t-303 -88z" />
    <glyph glyph-name="Dcaron" unicode="&#x10e;" horiz-adv-x="1320" 
d="M455 1597l-244 349h211l119 -181l121 181h210l-243 -349h-174zM457 1231h-90v-967h102q238 0 382 136t144 352t-136 348q-136 131 -402 131zM82 0v1495h407q369 0 580 -210q211 -211 211 -535t-219 -537t-559 -213h-420z" />
    <glyph glyph-name="dcaron" unicode="&#x10f;" horiz-adv-x="1343" 
d="M1208 1147l49 348h228l-103 -348h-174zM315 514q0 -120 79 -198t194 -78q116 0 190 80t74 196q0 115 -75 195q-75 79 -189 79t-194 -78q-79 -78 -79 -196zM540 -20q-190 0 -344 141q-155 141 -155 391q0 172 78 297q147 235 420 235q190 0 305 -120v571h280v-1495h-280
v115q-114 -135 -304 -135z" />
    <glyph glyph-name="Dcroat" unicode="&#x110;" horiz-adv-x="1419" 
d="M555 1231h-90v-361h334v-239h-334v-367h102q238 0 382 136q145 136 145 352t-136 348q-136 131 -403 131zM41 631v239h139v625h408q370 0 580 -210q210 -211 210 -535t-219 -537t-559 -213h-420v631h-139z" />
    <glyph glyph-name="dcroat" unicode="&#x111;" horiz-adv-x="1196" 
d="M315 514q0 -120 79 -198t194 -78q116 0 190 80t74 196q0 115 -75 195q-75 79 -189 79t-194 -78q-79 -78 -79 -196zM715 1126v177h129v192h280v-192h131v-177h-131v-1126h-280v115q-115 -135 -304 -135t-344 141t-155 391q0 172 78 297q147 235 420 235q190 0 305 -120
v202h-129z" />
    <glyph glyph-name="Emacron" unicode="&#x112;" horiz-adv-x="1034" 
d="M256 1597v177h541v-177h-541zM82 0v1495h887v-272h-602v-336h602v-273h-602v-342h602v-272h-887z" />
    <glyph glyph-name="emacron" unicode="&#x113;" horiz-adv-x="1144" 
d="M575 799q-87 0 -153 -44t-98 -118h495q-56 162 -244 162zM303 1126v177h541v-177h-541zM582 -20q-236 0 -388 154t-153 376q0 223 156 379q155 155 381 155t375 -152q148 -153 149 -378v-102h-791q25 -86 95 -136t166 -51q188 0 264 160l223 -133q-69 -124 -191 -198
t-286 -74z" />
    <glyph glyph-name="Ebreve" unicode="&#x114;" horiz-adv-x="1034" 
d="M864 1935q0 -152 -90 -250t-247 -98t-241 96t-83 252h176q0 -190 153 -196q154 6 154 196h178zM82 0v1495h887v-272h-602v-336h602v-273h-602v-342h602v-272h-887z" />
    <glyph glyph-name="ebreve" unicode="&#x115;" horiz-adv-x="1144" 
d="M575 799q-87 0 -153 -44t-98 -118h495q-56 162 -244 162zM568 1116q-156 0 -240 96t-84 252h176q0 -190 153 -196q154 6 154 196h178q0 -152 -90 -250t-247 -98zM582 -20q-236 0 -388 154t-153 376q0 223 156 379q155 155 381 155t375 -152q148 -153 149 -378v-102h-791
q25 -86 95 -136t166 -51q188 0 264 160l223 -133q-69 -124 -191 -198t-286 -74z" />
    <glyph glyph-name="Edotaccent" unicode="&#x116;" horiz-adv-x="1034" 
d="M422 1597v281h280v-281h-280zM82 0v1495h887v-272h-602v-336h602v-273h-602v-342h602v-272h-887z" />
    <glyph glyph-name="edotaccent" unicode="&#x117;" horiz-adv-x="1144" 
d="M575 799q-87 0 -153 -44t-98 -118h495q-56 162 -244 162zM436 1126v281h281v-281h-281zM582 -20q-236 0 -388 154t-153 376q0 223 156 379q155 155 381 155t375 -152q148 -153 149 -378v-102h-791q25 -86 95 -136t166 -51q188 0 264 160l223 -133q-69 -124 -191 -198
t-286 -74z" />
    <glyph glyph-name="Eogonek" unicode="&#x118;" horiz-adv-x="1034" 
d="M82 0v1495h887v-272h-602v-336h602v-273h-602v-342h602v-272q-174 -115 -220 -154t-47 -77q0 -61 86 -62q49 0 123 57l164 -110q-57 -51 -136 -85t-151 -34q-131 0 -213 65t-81 158q0 131 157 242h-569z" />
    <glyph glyph-name="eogonek" unicode="&#x119;" horiz-adv-x="1144" 
d="M575 799q-87 0 -153 -44t-98 -118h495q-56 162 -244 162zM557 -465q-131 0 -213 65t-82 158q0 135 160 242q-174 49 -278 189q-103 140 -103 323q0 221 156 377q155 155 381 155t375 -152q148 -153 149 -378v-102h-791q25 -86 95 -136t166 -51q188 0 264 160l223 -133
q-111 -199 -324 -252q-174 -117 -219 -155t-45 -76q0 -61 86 -62q49 0 123 57l164 -110q-57 -51 -136 -85t-151 -34z" />
    <glyph glyph-name="Ecaron" unicode="&#x11a;" horiz-adv-x="1034" 
d="M436 1597l-243 349h210l119 -181l121 181h211l-244 -349h-174zM82 0v1495h887v-272h-602v-336h602v-273h-602v-342h602v-272h-887z" />
    <glyph glyph-name="ecaron" unicode="&#x11b;" horiz-adv-x="1144" 
d="M575 799q-87 0 -153 -44t-98 -118h495q-56 162 -244 162zM489 1126l-243 349h211l118 -181l121 181h211l-243 -349h-175zM582 -20q-236 0 -388 154t-153 376q0 223 156 379q155 155 381 155t375 -152q148 -153 149 -378v-102h-791q25 -86 95 -136t166 -51q188 0 264 160
l223 -133q-69 -124 -191 -198t-286 -74z" />
    <glyph glyph-name="Gcircumflex" unicode="&#x11c;" horiz-adv-x="1589" 
d="M475 1597l244 349h174l244 -349h-211l-121 181l-119 -181h-211zM1548 727q0 -311 -204 -529t-536 -218q-333 0 -550 224t-217 546t218 544t546 222q227 0 404 -104t276 -279l-250 -152q-139 258 -428 258q-203 0 -343 -144t-140 -349q0 -206 140 -348t353 -142
q160 0 272 84t152 229h-469v273h776v-115z" />
    <glyph glyph-name="gcircumflex" unicode="&#x11d;" horiz-adv-x="1196" 
d="M270 1126l244 349h174l244 -349h-211l-121 181l-119 -181h-211zM315 514q0 -120 79 -198t194 -78q116 0 190 80t74 196q0 115 -75 195q-75 79 -189 79t-194 -78q-79 -78 -79 -196zM540 -20q-190 0 -344 141q-155 141 -155 391q0 172 78 297q147 235 420 235
q188 0 305 -131v111h280v-995q0 -227 -139 -375t-389 -148q-186 0 -327 84q-140 84 -206 211l248 140q86 -174 285 -174q112 -1 180 73t68 178v97q-114 -135 -304 -135z" />
    <glyph glyph-name="Gbreve" unicode="&#x11e;" horiz-adv-x="1589" 
d="M1135 1935q0 -152 -90 -250t-247 -98t-241 96t-84 252h176q0 -190 154 -196q154 6 153 196h179zM1548 727q0 -311 -204 -529t-536 -218q-333 0 -550 224t-217 546t218 544t546 222q227 0 404 -104t276 -279l-250 -152q-139 258 -428 258q-203 0 -343 -144t-140 -349
q0 -206 140 -348t353 -142q160 0 272 84t152 229h-469v273h776v-115z" />
    <glyph glyph-name="gbreve" unicode="&#x11f;" horiz-adv-x="1196" 
d="M595 1116q-157 0 -241 96t-84 252h176q0 -190 154 -196q154 6 154 196h178q0 -152 -90 -250t-247 -98zM315 514q0 -120 79 -198t194 -78q116 0 190 80t74 196q0 115 -75 195q-75 79 -189 79t-194 -78q-79 -78 -79 -196zM540 -20q-190 0 -344 141q-155 141 -155 391
q0 172 78 297q147 235 420 235q188 0 305 -131v111h280v-995q0 -227 -139 -375t-389 -148q-186 0 -327 84q-140 84 -206 211l248 140q86 -174 285 -174q112 -1 180 73t68 178v97q-114 -135 -304 -135z" />
    <glyph glyph-name="Gdotaccent" unicode="&#x120;" horiz-adv-x="1589" 
d="M672 1597v281h280v-281h-280zM1548 727q0 -311 -204 -529t-536 -218q-333 0 -550 224t-217 546t218 544t546 222q227 0 404 -104t276 -279l-250 -152q-139 258 -428 258q-203 0 -343 -144t-140 -349q0 -206 140 -348t353 -142q160 0 272 84t152 229h-469v273h776v-115z
" />
    <glyph glyph-name="gdotaccent" unicode="&#x121;" horiz-adv-x="1196" 
d="M432 1126v281h281v-281h-281zM315 514q0 -120 79 -198t194 -78q116 0 190 80t74 196q0 115 -75 195q-75 79 -189 79t-194 -78q-79 -78 -79 -196zM540 -20q-190 0 -344 141q-155 141 -155 391q0 172 78 297q147 235 420 235q188 0 305 -131v111h280v-995q0 -227 -139 -375
t-389 -148q-186 0 -327 84q-140 84 -206 211l248 140q86 -174 285 -174q112 -1 180 73t68 178v97q-114 -135 -304 -135z" />
    <glyph glyph-name="Gcommaaccent" unicode="&#x122;" horiz-adv-x="1589" 
d="M811 -510h-174l70 418h247zM1548 727q0 -311 -204 -529t-536 -218q-333 0 -550 224t-217 546t218 544t546 222q227 0 404 -104t276 -279l-250 -152q-139 258 -428 258q-203 0 -343 -144t-140 -349q0 -206 140 -348t353 -142q160 0 272 84t152 229h-469v273h776v-115z" />
    <glyph glyph-name="gcommaaccent" unicode="&#x123;" horiz-adv-x="1196" 
d="M664 1126h-175l70 418h248zM315 514q0 -120 79 -198t194 -78q116 0 190 80t74 196q0 115 -75 195q-75 79 -189 79t-194 -78q-79 -78 -79 -196zM540 -20q-190 0 -344 141q-155 141 -155 391q0 172 78 297q147 235 420 235q188 0 305 -131v111h280v-995q0 -227 -139 -375
t-389 -148q-186 0 -327 84q-140 84 -206 211l248 140q86 -174 285 -174q112 -1 180 73t68 178v97q-114 -135 -304 -135z" />
    <glyph glyph-name="Hcircumflex" unicode="&#x124;" horiz-adv-x="1296" 
d="M315 1597l244 349h174l244 -349h-211l-121 181l-119 -181h-211zM930 0v612h-563v-612h-285v1495h285v-610h563v610h284v-1495h-284z" />
    <glyph glyph-name="hcircumflex" unicode="&#x125;" horiz-adv-x="1091" 
d="M-121 1597l244 349h174l244 -349h-211l-121 181l-119 -181h-211zM72 0v1495h278v-584q111 133 288 133t280 -110q102 -111 102 -309v-625h-285v586q0 219 -188 219q-86 1 -140 -61t-55 -185v-559h-280z" />
    <glyph glyph-name="Hbar" unicode="&#x126;" horiz-adv-x="1419" 
d="M428 1081v-196h563v196h-563zM29 1081v217h114v197h285v-197h563v197h285v-197h115v-217h-115v-1081h-285v612h-563v-612h-285v1081h-114z" />
    <glyph glyph-name="hbar" unicode="&#x127;" horiz-adv-x="1091" 
d="M-55 1143v176h127v176h278v-176h135v-176h-135v-232q111 133 288 133t280 -110q102 -111 102 -309v-625h-285v586q0 219 -188 219q-86 1 -140 -61t-55 -185v-559h-280v1143h-127z" />
    <glyph glyph-name="Itilde" unicode="&#x128;" horiz-adv-x="468" 
d="M-96 1597q0 125 57 201t145 76t166 -49q80 -49 109 -49q55 0 55 90h162q0 -129 -55 -203t-160 -74q-75 1 -155 49t-109 48q-53 0 -53 -89h-162zM92 0v1495h285v-1495h-285z" />
    <glyph glyph-name="itilde" unicode="&#x129;" horiz-adv-x="423" 
d="M-129 1126q0 125 57 201q56 76 144 76t168 -49t108 -49q55 0 55 90h162q0 -129 -55 -203t-160 -74q-74 0 -154 48t-110 48q-53 0 -53 -88h-162zM72 0v1024h280v-1024h-280z" />
    <glyph glyph-name="Imacron" unicode="&#x12a;" horiz-adv-x="468" 
d="M-35 1597v177h541v-177h-541zM92 0v1495h285v-1495h-285z" />
    <glyph glyph-name="imacron" unicode="&#x12b;" horiz-adv-x="423" 
d="M-57 1126v177h540v-177h-540zM72 0v1024h280v-1024h-280z" />
    <glyph glyph-name="Ibreve" unicode="&#x12c;" horiz-adv-x="468" 
d="M563 1935q0 -152 -90 -250t-247 -98q-156 0 -240 96t-84 252h176q0 -190 153 -196q154 6 154 196h178zM92 0v1495h285v-1495h-285z" />
    <glyph glyph-name="ibreve" unicode="&#x12d;" horiz-adv-x="423" 
d="M204 1116q-157 0 -241 96t-84 252h176q0 -190 154 -196q154 6 153 196h179q0 -152 -90 -250t-247 -98zM72 0v1024h280v-1024h-280z" />
    <glyph glyph-name="Iogonek" unicode="&#x12e;" horiz-adv-x="468" 
d="M217 -471q-117 0 -193 62t-77 159q-2 141 145 260v1485h285v-1495h-8q-109 -66 -163 -126t-54 -101q0 -68 75 -68q51 0 103 64l164 -113q-121 -127 -277 -127z" />
    <glyph glyph-name="iogonek" unicode="&#x12f;" horiz-adv-x="423" 
d="M72 1126v281h280v-281h-280zM195 -471q-117 0 -193 62t-78 159q-2 145 148 262v1012h280v-1024h-6q-109 -66 -163 -126t-54 -101q0 -68 76 -68q51 0 102 64l164 -113q-120 -127 -276 -127z" />
    <glyph glyph-name="Idotaccent" unicode="&#x130;" horiz-adv-x="468" 
d="M92 1597v281h281v-281h-281zM92 0v1495h285v-1495h-285z" />
    <glyph glyph-name="dotlessi" unicode="&#x131;" horiz-adv-x="423" 
d="M72 0v1024h280v-1024h-280z" />
    <glyph glyph-name="IJ" unicode="&#x132;" horiz-adv-x="1005" 
d="M82 0v1495h285v-1495h-285zM485 0v279h9q92 -1 118 25t27 118v1073h285v-1063q-2 -252 -79 -342t-321 -90h-39z" />
    <glyph glyph-name="ij" unicode="&#x133;" horiz-adv-x="827" 
d="M72 1126v281h280v-281h-280zM72 0v1024h280v-1024h-280zM475 1126v281h281v-281h-281zM72 -389v262h211q127 0 159 32t33 152v967h281v-969q0 -250 -94 -347t-338 -97h-252z" />
    <glyph glyph-name="Jcircumflex" unicode="&#x134;" horiz-adv-x="1030" 
d="M465 1597l244 349h174l243 -349h-211l-120 181l-119 -181h-211zM524 -20q-196 0 -323 93t-164 251l282 90q15 -74 65 -121t125 -47t115 52t40 134v1063h284v-1036q0 -227 -114 -354q-114 -125 -310 -125z" />
    <glyph glyph-name="jcircumflex" unicode="&#x135;" horiz-adv-x="425" 
d="M-119 1126l244 349h174l244 -349h-211l-121 181l-119 -181h-211zM-121 -471v262q127 0 160 32t33 152v1049h282v-1051q0 -250 -95 -347t-339 -97h-41z" />
    <glyph glyph-name="Kcommaaccent" unicode="&#x136;" horiz-adv-x="1261" 
d="M627 -510h-174l69 418h248zM367 0h-285v1495h285v-602l483 602h346l-471 -582l512 -913h-324l-391 715l-155 -195v-520z" />
    <glyph glyph-name="kcommaaccent" unicode="&#x137;" horiz-adv-x="1110" 
d="M543 -510h-174l69 418h248zM352 0h-280v1495h280v-924l377 453h326l-373 -442l393 -582h-307l-279 410l-137 -162v-248z" />
    <glyph glyph-name="kgreenlandic" unicode="&#x138;" horiz-adv-x="1110" 
d="M352 0h-280v1024h280v-453l377 453h326l-373 -442l393 -582h-307l-279 410l-137 -162v-248z" />
    <glyph glyph-name="Lacute" unicode="&#x139;" horiz-adv-x="978" 
d="M127 1597l233 349h263l-308 -349h-188zM82 0v1495h285v-1223h540v-272h-825z" />
    <glyph glyph-name="lacute" unicode="&#x13a;" horiz-adv-x="423" 
d="M115 1597l233 349h262l-307 -349h-188zM72 0v1495h280v-1495h-280z" />
    <glyph glyph-name="Lcommaaccent" unicode="&#x13b;" horiz-adv-x="978" 
d="M475 -510h-174l70 418h247zM82 0v1495h285v-1223h540v-272h-825z" />
    <glyph glyph-name="lcommaaccent" unicode="&#x13c;" horiz-adv-x="423" 
d="M190 -510h-174l70 418h248zM72 0v1495h280v-1495h-280z" />
    <glyph glyph-name="Lcaron" unicode="&#x13d;" horiz-adv-x="978" 
d="M471 1147l49 348h228l-103 -348h-174zM82 0v1495h285v-1223h540v-272h-825z" />
    <glyph glyph-name="lcaron" unicode="&#x13e;" horiz-adv-x="571" 
d="M440 1147l49 348h228l-103 -348h-174zM72 0v1495h280v-1495h-280z" />
    <glyph glyph-name="Ldot" unicode="&#x13f;" horiz-adv-x="978" 
d="M627 598v281h280v-281h-280zM82 0v1495h285v-1223h540v-272h-825z" />
    <glyph glyph-name="ldot" unicode="&#x140;" horiz-adv-x="806" 
d="M455 383v281h280v-281h-280zM72 0v1495h280v-1495h-280z" />
    <glyph glyph-name="Lslash" unicode="&#x141;" horiz-adv-x="1071" 
d="M174 1495h285v-582l325 105v-203l-325 -104v-439h540v-272h-825v618l-139 -43v203l139 43v674z" />
    <glyph glyph-name="lslash" unicode="&#x142;" horiz-adv-x="768" 
d="M236 1495h280v-510l199 57v-202l-199 -58v-782h-280v700l-183 -53v203l183 53v592z" />
    <glyph glyph-name="Nacute" unicode="&#x143;" horiz-adv-x="1406" 
d="M627 1597l233 349h262l-307 -349h-188zM82 0v1495h324l634 -1006v1006h285v-1495h-303l-655 1038v-1038h-285z" />
    <glyph glyph-name="nacute" unicode="&#x144;" horiz-adv-x="1091" 
d="M479 1126l234 349h262l-307 -349h-189zM72 0v1024h278v-115q106 135 286 135t282 -110q102 -111 102 -309v-625h-285v588q0 104 -48 160t-137 57t-143 -61t-55 -185v-559h-280z" />
    <glyph glyph-name="Ncommaaccent" unicode="&#x145;" horiz-adv-x="1406" 
d="M680 -510h-174l69 418h248zM82 0v1495h324l634 -1006v1006h285v-1495h-303l-655 1038v-1038h-285z" />
    <glyph glyph-name="ncommaaccent" unicode="&#x146;" horiz-adv-x="1091" 
d="M571 -510h-174l70 418h248zM72 0v1024h278v-115q106 135 286 135t282 -110q102 -111 102 -309v-625h-285v588q0 104 -48 160t-137 57t-143 -61t-55 -185v-559h-280z" />
    <glyph glyph-name="Ncaron" unicode="&#x147;" horiz-adv-x="1406" 
d="M623 1597l-244 349h211l119 -181l120 181h211l-243 -349h-174zM82 0v1495h324l634 -1006v1006h285v-1495h-303l-655 1038v-1038h-285z" />
    <glyph glyph-name="ncaron" unicode="&#x148;" horiz-adv-x="1091" 
d="M477 1126l-244 349h211l119 -181l121 181h211l-244 -349h-174zM72 0v1024h278v-115q106 135 286 135t282 -110q102 -111 102 -309v-625h-285v588q0 104 -48 160t-137 57t-143 -61t-55 -185v-559h-280z" />
    <glyph glyph-name="Eng" unicode="&#x14a;" horiz-adv-x="1406" 
d="M891 -424v279h10q86 1 113 27t26 108v67l-673 1000v-1057h-285v1495h324l634 -942v942h285v-1495q-2 -242 -89 -333t-306 -91h-39z" />
    <glyph glyph-name="eng" unicode="&#x14b;" horiz-adv-x="1091" 
d="M543 -471v262q127 0 159 32t33 152v613q0 104 -48 160t-137 57t-143 -61t-55 -185v-559h-280v1024h278v-115q106 135 286 135t282 -110q102 -111 102 -309v-652q0 -250 -96 -347t-340 -97h-41z" />
    <glyph glyph-name="Omacron" unicode="&#x14c;" horiz-adv-x="1611" 
d="M524 1597v177h541v-177h-541zM805 260q201 0 342 143t141 345t-141 344q-141 143 -342 143t-341 -142t-140 -345q0 -204 140 -346t341 -142zM806 -20q-318 0 -542 224q-223 224 -223 542t223 544q224 226 542 226t542 -224t223 -544q0 -319 -223 -544
q-224 -224 -542 -224z" />
    <glyph glyph-name="omacron" unicode="&#x14d;" horiz-adv-x="1142" 
d="M303 1126v177h541v-177h-541zM570 778q-108 0 -182 -78t-73 -188q-1 -110 73 -188t182 -78t184 79t76 187t-76 188q-76 78 -184 78zM571 -20q-221 0 -375 156t-155 376q0 221 155 377q156 155 376 155t375 -156t155 -376t-155 -376t-376 -156z" />
    <glyph glyph-name="Obreve" unicode="&#x14e;" horiz-adv-x="1611" 
d="M1122 1935q0 -152 -90 -250t-246 -98q-157 0 -241 96t-84 252h176q0 -190 154 -196q154 6 153 196h178zM805 260q201 0 342 143t141 345t-141 344q-141 143 -342 143t-341 -142t-140 -345q0 -204 140 -346t341 -142zM806 -20q-318 0 -542 224q-223 224 -223 542t223 544
q224 226 542 226t542 -224t223 -544q0 -319 -223 -544q-224 -224 -542 -224z" />
    <glyph glyph-name="obreve" unicode="&#x14f;" horiz-adv-x="1142" 
d="M564 1116q-156 0 -240 96t-84 252h176q0 -190 153 -196q154 6 154 196h178q0 -152 -90 -250t-247 -98zM570 778q-108 0 -182 -78t-73 -188q-1 -110 73 -188t182 -78t184 79t76 187t-76 188q-76 78 -184 78zM571 -20q-221 0 -375 156t-155 376q0 221 155 377
q156 155 376 155t375 -156t155 -376t-155 -376t-376 -156z" />
    <glyph glyph-name="Ohungarumlaut" unicode="&#x150;" horiz-adv-x="1611" 
d="M860 1597l234 349h247l-307 -349h-174zM518 1597l234 349h247l-307 -349h-174zM805 260q201 0 342 143t141 345t-141 344q-141 143 -342 143t-341 -142t-140 -345q0 -204 140 -346t341 -142zM806 -20q-318 0 -542 224q-223 224 -223 542t223 544q224 226 542 226
t542 -224t223 -544q0 -319 -223 -544q-224 -224 -542 -224z" />
    <glyph glyph-name="ohungarumlaut" unicode="&#x151;" horiz-adv-x="1142" 
d="M649 1126l234 349h247l-307 -349h-174zM307 1126l234 349h247l-307 -349h-174zM570 778q-108 0 -182 -78t-73 -188q-1 -110 73 -188t182 -78t184 79t76 187t-76 188q-76 78 -184 78zM571 -20q-221 0 -375 156t-155 376q0 221 155 377q156 155 376 155t375 -156t155 -376
t-155 -376t-376 -156z" />
    <glyph glyph-name="OE" unicode="&#x152;" horiz-adv-x="2240" 
d="M805 260q201 0 342 143t141 345v20q-8 195 -148 331t-338 136t-338 -142t-140 -345q0 -204 140 -346t341 -142zM1288 0v164q-201 -184 -483 -184q-317 0 -541 224q-223 224 -223 542t223 544q223 225 541 226q281 0 483 -187v166h887v-272h-602v-336h602v-273h-602v-342
h602v-272h-887z" />
    <glyph glyph-name="oe" unicode="&#x153;" horiz-adv-x="1933" 
d="M1364 799q-84 0 -149 -41t-97 -111h486q-64 152 -240 152zM570 778q-110 0 -184 -78t-75 -188q1 -110 75 -188t184 -78t186 78t76 188t-76 188t-186 78zM582 -20q-232 0 -386 156t-155 376q0 221 155 377t375 155q250 0 396 -182q152 182 387 182t387 -154t151 -378v-90
h-792q24 -90 94 -143t167 -53t168 46q71 47 105 123l232 -94q-60 -145 -194 -233t-300 -88q-260 0 -407 178q-151 -178 -383 -178z" />
    <glyph glyph-name="Racute" unicode="&#x154;" horiz-adv-x="1173" 
d="M426 1597l233 349h263l-308 -349h-188zM82 0v1495h469q251 0 401 -142t150 -360q0 -147 -73 -268t-216 -176l340 -549h-326l-448 739h139q152 0 224 79t73 175q0 236 -297 236h-151v-1229h-285z" />
    <glyph glyph-name="racute" unicode="&#x155;" horiz-adv-x="800" 
d="M311 1126l234 349h262l-307 -349h-189zM72 0v1024h278v-168q80 168 283 168h112v-272h-178q-113 0 -164 -64t-51 -205v-483h-280z" />
    <glyph glyph-name="Rcommaaccent" unicode="&#x156;" horiz-adv-x="1173" 
d="M584 -510h-174l69 418h248zM82 0v1495h469q251 0 401 -142t150 -360q0 -147 -73 -268t-216 -176l340 -549h-326l-448 739h139q152 0 224 79t73 175q0 236 -297 236h-151v-1229h-285z" />
    <glyph glyph-name="rcommaaccent" unicode="&#x157;" horiz-adv-x="800" 
d="M211 -510h-174l69 418h248zM72 0v1024h278v-168q80 168 283 168h112v-272h-178q-113 0 -164 -64t-51 -205v-483h-280z" />
    <glyph glyph-name="Rcaron" unicode="&#x158;" horiz-adv-x="1173" 
d="M457 1597l-244 349h211l119 -181l121 181h210l-243 -349h-174zM82 0v1495h469q251 0 401 -142t150 -360q0 -147 -73 -268t-216 -176l340 -549h-326l-448 739h139q152 0 224 79t73 175q0 236 -297 236h-151v-1229h-285z" />
    <glyph glyph-name="rcaron" unicode="&#x159;" horiz-adv-x="800" 
d="M311 1126l-243 349h211l118 -181l121 181h211l-244 -349h-174zM72 0v1024h278v-168q80 168 283 168h112v-272h-178q-113 0 -164 -64t-51 -205v-483h-280z" />
    <glyph glyph-name="Sacute" unicode="&#x15a;" horiz-adv-x="1153" 
d="M453 1597l233 349h262l-307 -349h-188zM590 -20q-350 0 -586 268l260 205q117 -201 324 -201q104 0 164 57q59 57 59 126t-47 110t-90 57q-115 43 -181 61q-239 67 -326 166q-36 41 -63 108t-26 148q0 183 141 307t356 124q170 0 286 -56t218 -162l-235 -178
q-94 141 -266 142q-96 0 -150 -46t-55 -120q1 -72 67 -112t146 -66t122 -40q216 -74 308 -171q92 -101 92 -275t-141 -313t-377 -139z" />
    <glyph glyph-name="sacute" unicode="&#x15b;" horiz-adv-x="956" 
d="M262 1126l234 349h262l-307 -349h-189zM494 221q66 0 104 27q38 28 37 64q0 36 -51 56q-64 25 -191 45q-127 21 -236 86q-110 66 -110 211q0 146 118 241t302 93q311 0 434 -237l-248 -105q-45 113 -188 113q-65 1 -99 -23t-34 -59t44 -52t146 -37t156 -40
q54 -18 114 -53q124 -73 123 -229q0 -129 -114 -237q-115 -107 -320 -105q-358 0 -471 276l269 104q55 -139 215 -139z" />
    <glyph glyph-name="Scircumflex" unicode="&#x15c;" horiz-adv-x="1153" 
d="M236 1597l243 349h174l244 -349h-211l-121 181l-119 -181h-210zM590 -20q-350 0 -586 268l260 205q117 -201 324 -201q104 0 164 57q59 57 59 126t-47 110t-90 57q-115 43 -181 61q-239 67 -326 166q-36 41 -63 108t-26 148q0 183 141 307t356 124q170 0 286 -56
t218 -162l-235 -178q-94 141 -266 142q-96 0 -150 -46t-55 -120q1 -72 67 -112t146 -66t122 -40q216 -74 308 -171q92 -101 92 -275t-141 -313t-377 -139z" />
    <glyph glyph-name="scircumflex" unicode="&#x15d;" horiz-adv-x="956" 
d="M53 1126l244 349h174l244 -349h-211l-121 181l-119 -181h-211zM494 221q66 0 104 27q38 28 37 64q0 36 -51 56q-64 25 -191 45q-127 21 -236 86q-110 66 -110 211q0 146 118 241t302 93q311 0 434 -237l-248 -105q-45 113 -188 113q-65 1 -99 -23t-34 -59t44 -52t146 -37
t156 -40q54 -18 114 -53q124 -73 123 -229q0 -129 -114 -237q-115 -107 -320 -105q-358 0 -471 276l269 104q55 -139 215 -139z" />
    <glyph glyph-name="Scedilla" unicode="&#x15e;" horiz-adv-x="1153" 
d="M546 -492q-148 0 -282 121l160 97q86 -68 144 -68t90 17t32 44q0 55 -117 56h-104v213q-270 39 -465 260l260 205q117 -201 324 -201q104 0 164 57q59 57 59 126t-47 110t-90 57q-115 43 -181 61q-239 67 -326 166q-36 41 -63 108t-26 148q0 183 141 307t356 124
q170 0 286 -56t218 -162l-235 -178q-94 141 -266 142q-96 0 -150 -46t-55 -120q1 -72 67 -112t146 -66t122 -40q216 -74 308 -171q92 -101 92 -270t-126 -304t-339 -151v-91q113 4 174 -41q61 -44 61 -130t-92 -149t-240 -63z" />
    <glyph glyph-name="scedilla" unicode="&#x15f;" horiz-adv-x="956" 
d="M368 -492q-148 0 -282 121l160 97q86 -68 143 -68t90 17t33 44q0 55 -117 56h-104v225h10q-211 53 -291 256l269 104q55 -139 215 -139q66 0 104 27q38 28 37 64q0 36 -51 56q-64 25 -191 45q-127 21 -236 86q-110 66 -110 211q0 146 118 241t302 93q311 0 434 -237
l-248 -105q-45 113 -188 113q-65 1 -99 -23t-34 -59t44 -52t146 -37t156 -40q54 -18 114 -53q124 -73 123 -229q-1 -129 -115 -237t-319 -105h-16v-89q113 4 174 -41q61 -44 61 -130t-92 -149t-240 -63z" />
    <glyph glyph-name="Scaron" unicode="&#x160;" horiz-adv-x="1153" 
d="M492 1597l-244 349h211l119 -181l120 181h211l-243 -349h-174zM590 -20q-350 0 -586 268l260 205q117 -201 324 -201q104 0 164 57q59 57 59 126t-47 110t-90 57q-115 43 -181 61q-239 67 -326 166q-36 41 -63 108t-26 148q0 183 141 307t356 124q170 0 286 -56t218 -162
l-235 -178q-94 141 -266 142q-96 0 -150 -46t-55 -120q1 -72 67 -112t146 -66t122 -40q216 -74 308 -171q92 -101 92 -275t-141 -313t-377 -139z" />
    <glyph glyph-name="scaron" unicode="&#x161;" horiz-adv-x="956" 
d="M309 1126l-243 349h210l119 -181l121 181h211l-244 -349h-174zM494 221q66 0 104 27q38 28 37 64q0 36 -51 56q-64 25 -191 45q-127 21 -236 86q-110 66 -110 211q0 146 118 241t302 93q311 0 434 -237l-248 -105q-45 113 -188 113q-65 1 -99 -23t-34 -59t44 -52t146 -37
t156 -40q54 -18 114 -53q124 -73 123 -229q0 -129 -114 -237q-115 -107 -320 -105q-358 0 -471 276l269 104q55 -139 215 -139z" />
    <glyph glyph-name="Tcommaaccent" unicode="&#x162;" horiz-adv-x="1222" 
d="M592 -510h-174l69 418h248zM475 0v1223h-397v272h1079v-272h-397v-1223h-285z" />
    <glyph glyph-name="tcommaaccent" unicode="&#x163;" horiz-adv-x="759" 
d="M391 -510h-174l70 418h248zM51 772v252h174v240l281 153v-393h192v-252h-192v-326q0 -120 33 -152t159 -32v-262h-41q-244 0 -338 97t-94 347v328h-174z" />
    <glyph glyph-name="Tcaron" unicode="&#x164;" horiz-adv-x="1222" 
d="M520 1597l-244 349h211l119 -181l121 181h211l-244 -349h-174zM475 0v1223h-397v272h1079v-272h-397v-1223h-285z" />
    <glyph glyph-name="tcaron" unicode="&#x165;" horiz-adv-x="759" 
d="M614 1159l50 348h227l-103 -348h-174zM51 772v252h174v240l281 153v-393h192v-252h-192v-326q0 -120 33 -152t159 -32v-262h-41q-244 0 -338 97t-94 347v328h-174z" />
    <glyph glyph-name="Tbar" unicode="&#x166;" horiz-adv-x="1222" 
d="M215 612v273h260v338h-397v272h1079v-272h-397v-338h248v-273h-248v-612h-285v612h-260z" />
    <glyph glyph-name="tbar" unicode="&#x167;" horiz-adv-x="759" 
d="M51 799v225h174v240l281 153v-393h192v-225h-192v-152h192v-225h-192q0 -112 34 -142t158 -30v-250h-41q-241 0 -335 92t-97 330h-174v225h174v152h-174z" />
    <glyph glyph-name="Utilde" unicode="&#x168;" horiz-adv-x="1243" 
d="M256 1597q0 125 57 201t145 76t167 -49q80 -49 108 -49q55 0 55 90h162q0 -129 -55 -203t-160 -74q-75 1 -155 49t-109 48q-53 0 -53 -89h-162zM621 -20q-242 0 -391 139q-148 139 -148 399v977h285v-995q1 -109 73 -183q72 -73 180 -73t182 74q75 74 75 182v995h284
v-977q0 -260 -149 -399t-391 -139z" />
    <glyph glyph-name="utilde" unicode="&#x169;" horiz-adv-x="1091" 
d="M201 1126q0 125 57 201q56 76 144 76t168 -49t108 -49q55 0 55 90h162q0 -129 -55 -203t-160 -74q-74 0 -154 48t-110 48q-53 0 -54 -88h-161zM454 -20q-177 0 -280 110q-102 111 -102 309v625h284v-588q0 -104 48 -160t138 -57t143 61q54 62 54 185v559h281v-1024h-279
v113q-110 -133 -287 -133z" />
    <glyph glyph-name="Umacron" unicode="&#x16a;" horiz-adv-x="1243" 
d="M350 1597v177h541v-177h-541zM621 -20q-242 0 -391 139q-148 139 -148 399v977h285v-995q1 -109 73 -183q72 -73 180 -73t182 74q75 74 75 182v995h284v-977q0 -260 -149 -399t-391 -139z" />
    <glyph glyph-name="umacron" unicode="&#x16b;" horiz-adv-x="1091" 
d="M276 1126v177h541v-177h-541zM454 -20q-177 0 -280 110q-102 111 -102 309v625h284v-588q0 -104 48 -160t138 -57t143 61q54 62 54 185v559h281v-1024h-279v113q-110 -133 -287 -133z" />
    <glyph glyph-name="Ubreve" unicode="&#x16c;" horiz-adv-x="1243" 
d="M961 1935q0 -152 -90 -250t-247 -98t-241 96t-84 252h176q0 -190 154 -196q154 6 153 196h179zM621 -20q-242 0 -391 139q-148 139 -148 399v977h285v-995q1 -109 73 -183q72 -73 180 -73t182 74q75 74 75 182v995h284v-977q0 -260 -149 -399t-391 -139z" />
    <glyph glyph-name="ubreve" unicode="&#x16d;" horiz-adv-x="1091" 
d="M874 1464q0 -152 -90 -250t-246 -98q-157 0 -241 96t-84 252h176q0 -190 154 -196q154 6 153 196h178zM454 -20q-177 0 -280 110q-102 111 -102 309v625h284v-588q0 -104 48 -160t138 -57t143 61q54 62 54 185v559h281v-1024h-279v113q-110 -133 -287 -133z" />
    <glyph glyph-name="Uring" unicode="&#x16e;" horiz-adv-x="1243" 
d="M617 1645q34 -1 59 23q24 24 24 56t-24 59q-25 25 -59 25q-33 0 -57 -24t-24 -59q0 -34 24 -57q23 -23 57 -23zM858 1726q0 -100 -71 -170t-170 -69q-99 -1 -169 69t-69 169q0 99 70 170q71 71 169 71t169 -70t71 -170zM621 -20q-242 0 -391 139q-148 139 -148 399v977
h285v-995q1 -109 73 -183q72 -73 180 -73t182 74q75 74 75 182v995h284v-977q0 -260 -149 -399t-391 -139z" />
    <glyph glyph-name="uring" unicode="&#x16f;" horiz-adv-x="1091" 
d="M548 1276q34 0 58 24t25 56q0 32 -25 58q-24 26 -58 26t-58 -25t-24 -59t24 -57t58 -23zM548 1118q-99 0 -169 70t-70 169t70 170t169 71t170 -70q70 -70 70 -170t-70 -170t-170 -70zM454 -20q-177 0 -280 110q-102 111 -102 309v625h284v-588q0 -104 48 -160t138 -57
t143 61q54 62 54 185v559h281v-1024h-279v113q-110 -133 -287 -133z" />
    <glyph glyph-name="Uhungarumlaut" unicode="&#x170;" horiz-adv-x="1243" 
d="M668 1597l233 349h248l-307 -349h-174zM326 1597l233 349h248l-307 -349h-174zM621 -20q-242 0 -391 139q-148 139 -148 399v977h285v-995q1 -109 73 -183q72 -73 180 -73t182 74q75 74 75 182v995h284v-977q0 -260 -149 -399t-391 -139z" />
    <glyph glyph-name="uhungarumlaut" unicode="&#x171;" horiz-adv-x="1091" 
d="M279 1126l233 349h248l-307 -349h-174zM621 1126l233 349h248l-307 -349h-174zM454 -20q-177 0 -280 110q-102 111 -102 309v625h284v-588q0 -104 48 -160t138 -57t143 61q54 62 54 185v559h281v-1024h-279v113q-110 -133 -287 -133z" />
    <glyph glyph-name="Uogonek" unicode="&#x172;" horiz-adv-x="1243" 
d="M645 -455q-131 0 -213 65t-82 159q0 125 133 225q-184 35 -293 170t-108 354v977h285v-995q1 -109 73 -183q72 -73 180 -73t182 74q75 74 75 182v995h284v-977q0 -199 -90 -328t-246 -180q-174 -116 -220 -154t-46 -77q0 -61 86 -62q49 0 123 58l164 -111
q-57 -51 -136 -85t-151 -34z" />
    <glyph glyph-name="uogonek" unicode="&#x173;" horiz-adv-x="1091" 
d="M856 -471q-116 0 -192 62t-78 159q-6 147 155 268v95q-111 -133 -287 -133t-280 110q-102 111 -102 309v625h284v-588q0 -104 48 -160t138 -57t143 61q54 62 54 185v559h281v-1024h-12q-109 -66 -163 -126t-54 -101q0 -68 75 -68q51 0 103 64l164 -113
q-121 -127 -277 -127z" />
    <glyph glyph-name="Wcircumflex" unicode="&#x174;" horiz-adv-x="2088" 
d="M715 1597l243 349h175l243 -349h-211l-121 181l-118 -181h-211zM451 0l-424 1495h297l278 -1034l307 1034h281l307 -1030l275 1030h288l-422 -1495h-280l-309 1044l-308 -1044h-290z" />
    <glyph glyph-name="wcircumflex" unicode="&#x175;" horiz-adv-x="1810" 
d="M575 1126l244 349h174l244 -349h-211l-121 181l-119 -181h-211zM395 0l-344 1026l281 -2l209 -653l233 653h279l219 -653l221 653h279l-365 -1024h-270l-230 651l-239 -651h-273z" />
    <glyph glyph-name="Ycircumflex" unicode="&#x176;" horiz-adv-x="1288" 
d="M313 1597l244 349h174l244 -349h-211l-121 181l-119 -181h-211zM500 0v709l-475 786h313l305 -514l307 514h314l-480 -793v-702h-284z" />
    <glyph glyph-name="ycircumflex" unicode="&#x177;" horiz-adv-x="1128" 
d="M233 1126l244 349h174l244 -349h-211l-121 181l-119 -181h-211zM223 -473l209 518l-407 979h294l252 -631l236 631h291l-594 -1497h-281z" />
    <glyph glyph-name="Ydieresis" unicode="&#x178;" horiz-adv-x="1288" 
d="M694 1597v281h281v-281h-281zM311 1597v281h281v-281h-281zM500 0v709l-475 786h313l305 -514l307 514h314l-480 -793v-702h-284z" />
    <glyph glyph-name="Zacute" unicode="&#x179;" horiz-adv-x="1132" 
d="M453 1597l233 349h262l-307 -349h-188zM72 0v262l651 961h-629v272h967v-260l-653 -963h653v-272h-989z" />
    <glyph glyph-name="zacute" unicode="&#x17a;" horiz-adv-x="1048" 
d="M426 1126l233 349h263l-308 -349h-188zM61 0v250l539 526h-530v248h907v-252l-539 -524h549v-248h-926z" />
    <glyph glyph-name="Zdotaccent" unicode="&#x17b;" horiz-adv-x="1132" 
d="M436 1597v281h281v-281h-281zM72 0v262l651 961h-629v272h967v-260l-653 -963h653v-272h-989z" />
    <glyph glyph-name="zdotaccent" unicode="&#x17c;" horiz-adv-x="1048" 
d="M391 1126v281h281v-281h-281zM61 0v250l539 526h-530v248h907v-252l-539 -524h549v-248h-926z" />
    <glyph glyph-name="Zcaron" unicode="&#x17d;" horiz-adv-x="1132" 
d="M492 1597l-244 349h211l119 -181l120 181h211l-243 -349h-174zM72 0v262l651 961h-629v272h967v-260l-653 -963h653v-272h-989z" />
    <glyph glyph-name="zcaron" unicode="&#x17e;" horiz-adv-x="1048" 
d="M449 1126l-244 349h211l119 -181l120 181h211l-243 -349h-174zM61 0v250l539 526h-530v248h907v-252l-539 -524h549v-248h-926z" />
    <glyph glyph-name="florin" unicode="&#x192;" 
d="M92 621v251h393l50 179q68 246 200 345q133 99 357 99h22v-262q-142 0 -202 -37t-91 -147l-49 -177h340v-251h-410l-49 -177q-69 -244 -187 -344t-327 -100h-47v262q125 0 186 40q60 40 89 144l47 175h-322z" />
    <glyph glyph-name="Aringacute" unicode="&#x1fa;" horiz-adv-x="1404" 
d="M700 1661q-32 0 -56 -25q-24 -24 -24 -58t24 -58q23 -24 57 -23q34 0 59 24q24 25 24 57t-26 58t-58 25zM606 1909l234 348h262l-307 -348h-189zM702 1090l-192 -558h385zM702 1819q100 0 170 -70t70 -170t-68 -168l502 -1411h-297l-90 260h-573l-90 -260h-297l499 1411
q-66 70 -66 168t70 169t170 71z" />
    <glyph glyph-name="aringacute" unicode="&#x1fb;" horiz-adv-x="1191" 
d="M568 1270q34 0 59 24t25 57q0 35 -26 59q-24 24 -58 24t-58 -25t-23 -59q-1 -34 23 -56q24 -24 58 -24zM471 1663l234 348h262l-308 -348h-188zM568 1112q-99 0 -169 70q-69 70 -69 169t69 170q70 71 169 71t170 -72q71 -70 71 -169t-71 -169t-170 -70zM315 514
q0 -120 79 -198t194 -78q116 0 190 80t74 196q0 115 -75 195q-75 79 -189 79t-194 -78q-79 -78 -79 -196zM540 -20q-190 0 -344 141q-155 141 -155 391q0 172 78 297q147 235 420 235q190 0 305 -120v100h280v-1024h-280v115q-114 -135 -304 -135z" />
    <glyph glyph-name="AEacute" unicode="&#x1fc;" horiz-adv-x="1904" 
d="M995 1597l234 349h262l-307 -349h-189zM807 1087l-252 -565h391zM1845 1495v-272h-782l86 -336h696v-273h-626l86 -342h540v-272h-770l-63 258h-576l-114 -258h-297l680 1495h1140z" />
    <glyph glyph-name="aeacute" unicode="&#x1fd;" horiz-adv-x="1810" 
d="M1241 799q-85 0 -149 -41t-97 -111h486q-64 152 -240 152zM317 281q1 -70 109 -70t194 79q85 79 85 142v49q-10 -33 -205 -80q-98 -25 -141 -51q-42 -27 -42 -69zM809 1126l233 349h263l-308 -349h-188zM1249 -20q-274 0 -424 202q-55 -90 -165 -146t-244 -56
q-188 0 -282 79q-93 80 -93 213t84 209t240 119q205 50 253 69t64 35t16 46q0 28 -40 52t-131 24t-144 -49q-53 -48 -53 -120v-6h-254v4q0 185 121 287t349 102t343 -133q149 133 363 133t366 -154t151 -378v-90h-792q23 -90 93 -143t168 -53q97 0 168 46q71 47 105 123
l232 -94q-61 -145 -195 -233t-299 -88z" />
    <glyph glyph-name="Oslashacute" unicode="&#x1fe;" horiz-adv-x="1611" 
d="M678 1597l233 349h263l-308 -349h-188zM805 260q201 0 342 143t141 345q0 154 -88 278l-588 -725q89 -41 193 -41zM324 748q0 -162 90 -287l592 729q-96 45 -201 45q-201 0 -341 -142t-140 -345zM805 -20q-201 0 -375 96l-61 -76h-328l192 236q-193 215 -193 522t224 532
q223 225 541 226q199 0 381 -103l67 82h328l-199 -244q188 -219 189 -503q0 -320 -223 -544t-543 -224z" />
    <glyph glyph-name="oslashacute" unicode="&#x1ff;" horiz-adv-x="1142" 
d="M311 512q0 -59 23 -115l301 373q-41 8 -64 8q-111 0 -185 -78t-75 -188zM571 246q109 0 185 78t75 188q0 59 -26 117l-303 -375q30 -8 69 -8zM473 1126l234 349h262l-307 -349h-189zM571 -20q-133 0 -243 57l-31 -37h-285l144 178q-115 143 -115 349t155 362t375 155
q129 0 240 -57l31 37h284l-143 -176q119 -147 119 -352q0 -204 -155 -360t-376 -156z" />
    <glyph glyph-name="Scommaaccent" unicode="&#x218;" horiz-adv-x="1153" 
d="M553 -510h-174l70 418h247zM590 -20q-350 0 -586 268l260 205q117 -201 324 -201q104 0 164 57q59 57 59 126t-47 110t-90 57q-115 43 -181 61q-239 67 -326 166q-36 41 -63 108t-26 148q0 183 141 307t356 124q170 0 286 -56t218 -162l-235 -178q-94 141 -266 142
q-96 0 -150 -46t-55 -120q1 -72 67 -112t146 -66t122 -40q216 -74 308 -171q92 -101 92 -275t-141 -313t-377 -139z" />
    <glyph glyph-name="scommaaccent" unicode="&#x219;" horiz-adv-x="956" 
d="M393 -510h-174l70 418h248zM494 221q66 0 104 27q38 28 37 64q0 36 -51 56q-64 25 -191 45q-127 21 -236 86q-110 66 -110 211q0 146 118 241t302 93q311 0 434 -237l-248 -105q-45 113 -188 113q-65 1 -99 -23t-34 -59t44 -52t146 -37t156 -40q54 -18 114 -53
q124 -73 123 -229q0 -129 -114 -237q-115 -107 -320 -105q-358 0 -471 276l269 104q55 -139 215 -139z" />
    <glyph glyph-name="dotlessj" unicode="&#x237;" horiz-adv-x="425" 
d="M-121 -471v262q127 0 160 32t33 152v1049h282v-1051q0 -250 -95 -347t-339 -97h-41z" />
    <glyph glyph-name="circumflex" unicode="&#x2c6;" horiz-adv-x="964" 
d="M152 1126l243 349h174l244 -349h-211l-121 181l-119 -181h-210z" />
    <glyph glyph-name="caron" unicode="&#x2c7;" horiz-adv-x="964" 
d="M393 1126l-243 349h210l119 -181l121 181h211l-244 -349h-174z" />
    <glyph glyph-name="breve" unicode="&#x2d8;" horiz-adv-x="964" 
d="M474 1116q-157 0 -241 96t-83 252h176q0 -190 153 -196q154 6 154 196h178q0 -152 -90 -250t-247 -98z" />
    <glyph glyph-name="dotaccent" unicode="&#x2d9;" horiz-adv-x="964" 
d="M322 1126v281h280v-281h-280z" />
    <glyph glyph-name="ring" unicode="&#x2da;" horiz-adv-x="964" 
d="M479 1440q-33 0 -57 -25t-23 -59q-1 -34 23 -56q24 -24 58 -24t59 24t24 56q1 32 -25 58t-59 26zM480 1118q-99 0 -169 70q-69 70 -69 169t69 170q70 71 170 71t170 -70t70 -170t-71 -170t-170 -70z" />
    <glyph glyph-name="ogonek" unicode="&#x2db;" horiz-adv-x="964" 
d="M473 -465q-131 0 -213 65q-82 66 -82 156t68 167t239 163l168 -86q-174 -115 -220 -154t-46 -77q0 -61 86 -62q49 0 123 57l164 -110q-57 -51 -136 -85t-151 -34z" />
    <glyph glyph-name="tilde" unicode="&#x2dc;" horiz-adv-x="964" 
d="M129 1126q0 125 57 201q56 76 144 76t168 -49t108 -49q55 0 56 90h161q0 -129 -55 -203t-160 -74q-74 0 -154 48t-110 48q-53 0 -53 -88h-162z" />
    <glyph glyph-name="hungarumlaut" unicode="&#x2dd;" horiz-adv-x="964" 
d="M412 1126l233 349h248l-307 -349h-174zM70 1126l233 349h248l-307 -349h-174z" />
    <glyph glyph-name="uni0328" unicode="&#x328;" horiz-adv-x="964" 
d="M504 -471q-117 0 -193 62q-76 63 -78 161q-1 98 61 174t191 160l170 -86q-109 -66 -163 -126t-54 -101q0 -68 76 -68q51 0 102 64l164 -113q-120 -127 -276 -127z" />
    <glyph glyph-name="pi" unicode="&#x3c0;" horiz-adv-x="1597" 
d="M74 1223v272h1450v-272h-260l-2 -801q0 -92 26 -118t119 -25h49v-279h-80q-244 0 -320 90t-79 342l2 791h-373v-1223h-284v1223h-248z" />
    <glyph glyph-name="pi" unicode="&#x3d6;" horiz-adv-x="1597" 
d="M74 1223v272h1450v-272h-260l-2 -801q0 -92 26 -118t119 -25h49v-279h-80q-244 0 -320 90t-79 342l2 791h-373v-1223h-284v1223h-248z" />
    <glyph glyph-name="uni0E3F" unicode="&#xe3f;" horiz-adv-x="997" 
d="M674 987q0 88 -96 105v-211q96 18 96 106zM676 501q0 93 -98 113v-231q98 25 98 118zM352 1096v-219h84v219h-84zM352 621v-246h84v246h-84zM72 125v1221h364v149h142v-152q182 -12 278 -99t96 -248t-135 -240q143 -82 145 -256t-100 -266t-284 -107v-127h-142v125h-364z
" />
    <glyph glyph-name="Wgrave" unicode="&#x1e80;" horiz-adv-x="2088" 
d="M942 1597l-307 349h262l233 -349h-188zM451 0l-424 1495h297l278 -1034l307 1034h281l307 -1030l275 1030h288l-422 -1495h-280l-309 1044l-308 -1044h-290z" />
    <glyph glyph-name="wgrave" unicode="&#x1e81;" horiz-adv-x="1810" 
d="M811 1126l-307 349h262l233 -349h-188zM395 0l-344 1026l281 -2l209 -653l233 653h279l219 -653l221 653h279l-365 -1024h-270l-230 651l-239 -651h-273z" />
    <glyph glyph-name="Wacute" unicode="&#x1e82;" horiz-adv-x="2088" 
d="M946 1597l234 349h262l-307 -349h-189zM451 0l-424 1495h297l278 -1034l307 1034h281l307 -1030l275 1030h288l-422 -1495h-280l-309 1044l-308 -1044h-290z" />
    <glyph glyph-name="wacute" unicode="&#x1e83;" horiz-adv-x="1810" 
d="M817 1126l234 349h262l-307 -349h-189zM395 0l-344 1026l281 -2l209 -653l233 653h279l219 -653l221 653h279l-365 -1024h-270l-230 651l-239 -651h-273z" />
    <glyph glyph-name="Wdieresis" unicode="&#x1e84;" horiz-adv-x="2088" 
d="M715 1597v281h280v-281h-280zM1098 1597v281h280v-281h-280zM451 0l-424 1495h297l278 -1034l307 1034h281l307 -1030l275 1030h288l-422 -1495h-280l-309 1044l-308 -1044h-290z" />
    <glyph glyph-name="wdieresis" unicode="&#x1e85;" horiz-adv-x="1810" 
d="M575 1126v281h281v-281h-281zM958 1126v281h281v-281h-281zM395 0l-344 1026l281 -2l209 -653l233 653h279l219 -653l221 653h279l-365 -1024h-270l-230 651l-239 -651h-273z" />
    <glyph glyph-name="Ygrave" unicode="&#x1ef2;" horiz-adv-x="1288" 
d="M545 1597l-307 349h262l233 -349h-188zM500 0v709l-475 786h313l305 -514l307 514h314l-480 -793v-702h-284z" />
    <glyph glyph-name="ygrave" unicode="&#x1ef3;" horiz-adv-x="1128" 
d="M465 1126l-307 349h262l233 -349h-188zM223 -473l209 518l-407 979h294l252 -631l236 631h291l-594 -1497h-281z" />
    <glyph glyph-name="figuredash" unicode="&#x2012;" horiz-adv-x="1269" 
d="M72 401v240h1126v-240h-1126z" />
    <glyph glyph-name="endash" unicode="&#x2013;" horiz-adv-x="962" 
d="M72 401v240h819v-240h-819z" />
    <glyph glyph-name="emdash" unicode="&#x2014;" horiz-adv-x="1372" 
d="M72 401v240h1228v-240h-1228z" />
    <glyph glyph-name="uni2015" unicode="&#x2015;" horiz-adv-x="1986" 
d="M72 401v240h1843v-240h-1843z" />
    <glyph glyph-name="doublebar" unicode="&#x2016;" horiz-adv-x="835" 
d="M479 -471v1966h285v-1966h-285zM72 -471v1966h284v-1966h-284z" />
    <glyph glyph-name="quoteleft" unicode="&#x2018;" horiz-adv-x="423" 
d="M293 1495l69 -418h-174l-143 418h248z" />
    <glyph glyph-name="quoteright" unicode="&#x2019;" horiz-adv-x="423" 
d="M229 1077h-174l70 418h248z" />
    <glyph glyph-name="quotesinglbase" unicode="&#x201a;" horiz-adv-x="423" 
d="M217 -240h-174l70 418h247z" />
    <glyph glyph-name="reversequoteleft" unicode="&#x201b;" horiz-adv-x="423" 
d="M229 1077h-174l70 418h248z" />
    <glyph glyph-name="quotedblleft" unicode="&#x201c;" horiz-adv-x="757" 
d="M635 1495l70 -418h-175l-143 418h248zM301 1495l70 -418h-174l-144 418h248z" />
    <glyph glyph-name="quotedblright" unicode="&#x201d;" horiz-adv-x="757" 
d="M563 1077h-174l70 418h248zM229 1077h-174l70 418h248z" />
    <glyph glyph-name="quotedblbase" unicode="&#x201e;" horiz-adv-x="757" 
d="M551 -240h-174l69 418h248zM217 -240h-174l70 418h247z" />
    <glyph glyph-name="reversequotedblleft" unicode="&#x201f;" horiz-adv-x="757" 
d="M563 1077h-174l70 418h248zM229 1077h-174l70 418h248z" />
    <glyph glyph-name="dagger" unicode="&#x2020;" horiz-adv-x="1071" 
d="M72 770v254h321v471h285v-471h321v-254h-321v-770h-285v770h-321z" />
    <glyph glyph-name="daggerdbl" unicode="&#x2021;" horiz-adv-x="1071" 
d="M72 889v250h321v356h285v-356h321v-250h-321v-264h321v-250h-321v-375h-285v375h-321v250h321v264h-321z" />
    <glyph glyph-name="bullet" unicode="&#x2022;" horiz-adv-x="815" 
d="M408 291q-96 -1 -164 67t-68 164t68 164t164 68t164 -68t67 -164q1 -96 -67 -164t-164 -67z" />
    <glyph glyph-name="ellipsis" unicode="&#x2026;" horiz-adv-x="1189" 
d="M838 0v281h280v-281h-280zM455 0v281h280v-281h-280zM72 0v281h280v-281h-280z" />
    <glyph glyph-name="perthousand" unicode="&#x2030;" horiz-adv-x="2459" 
d="M2052 215q53 0 91 38t38 91t-38 91t-91 38t-91 -38t-38 -91t38 -91t91 -38zM2052 -23q-152 0 -260 108q-108 107 -106 259q0 152 108 260t258 107q152 0 260 -108q108 -107 107 -259q1 -152 -107 -260t-260 -107zM408 1020q51 0 90 39t39 90t-39 90t-90 39q-50 0 -90 -39
t-40 -90t40 -90q39 -39 90 -39zM408 782q-152 0 -260 108t-108 260t108 258q108 108 260 108t260 -108t106 -260q0 -152 -107 -258q-107 -108 -259 -108zM1278 215q53 0 91 38t38 91t-38 91t-91 38t-91 -38t-38 -91t38 -91t91 -38zM1278 -23q-152 0 -260 108
q-108 107 -107 259q0 152 108 260q107 108 259 107q152 0 260 -108q108 -107 107 -259q1 -152 -107 -260t-260 -107zM20 0l1285 1495h360l-1284 -1495h-361z" />
    <glyph glyph-name="minute" unicode="&#x2032;" horiz-adv-x="423" 
d="M229 1077h-174l70 418h248z" />
    <glyph glyph-name="second" unicode="&#x2033;" horiz-adv-x="757" 
d="M563 1077h-174l70 418h248zM229 1077h-174l70 418h248z" />
    <glyph glyph-name="tripleprime" unicode="&#x2034;" horiz-adv-x="964" 
d="M674 1495h219v-172q0 -47 -27 -153t-45 -146h-78q-18 43 -44 148t-25 151v172zM373 1495h219v-172q0 -47 -27 -153t-45 -146h-78q-18 43 -44 148t-25 151v172zM72 1495h219v-172q0 -47 -27 -153t-45 -146h-78q-18 43 -44 148t-25 151v172z" />
    <glyph glyph-name="guilsinglleft" unicode="&#x2039;" horiz-adv-x="561" 
d="M455 193l-349 243v174l349 244v-211l-181 -121l181 -119v-210z" />
    <glyph glyph-name="guilsinglright" unicode="&#x203a;" horiz-adv-x="561" 
d="M106 195v211l181 118l-181 121v211l349 -244v-174z" />
    <glyph glyph-name="fraction" unicode="&#x2044;" horiz-adv-x="1445" 
d="M20 0l1080 1495h327l-1079 -1495h-328z" />
    <glyph glyph-name="uni2070" unicode="&#x2070;" horiz-adv-x="925" 
d="M462 850q89 0 146 61q58 61 58 151t-58 152t-146 62t-146 -62t-58 -152q0 -89 57 -151q58 -61 147 -61zM905 1063q0 -185 -129 -315t-314 -130q-186 0 -314 130t-128 315q0 184 128 314t314 130t314 -130q129 -130 129 -314z" />
    <glyph glyph-name="uni2074" unicode="&#x2074;" horiz-adv-x="741" 
d="M371 999v148l-103 -148h103zM371 631v170h-344v207l342 487h219v-496h127v-198h-127v-170h-217z" />
    <glyph glyph-name="uni2075" unicode="&#x2075;" horiz-adv-x="653" 
d="M319 618q-217 0 -311 160l225 119q25 -57 86 -57q37 0 60 22t23 59q0 35 -24 57t-63 21q-61 0 -84 -53l-213 74l66 475h496v-215h-316l-12 -86q43 16 98 16q129 0 207 -76t78 -212q0 -135 -89 -220q-90 -84 -227 -84z" />
    <glyph glyph-name="uni2076" unicode="&#x2076;" horiz-adv-x="720" 
d="M360 836q45 0 77 30t32 76q0 45 -32 76t-77 31q-44 0 -74 -31t-30 -76q0 -46 30 -76t74 -30zM360 618q-150 0 -244 92t-96 219q0 126 86 263l191 303h268l-153 -242q124 -4 206 -90t83 -224q1 -137 -95 -229t-246 -92z" />
    <glyph glyph-name="uni2077" unicode="&#x2077;" horiz-adv-x="626" 
d="M27 1278v217h573v-205l-295 -659h-252l301 647h-327z" />
    <glyph glyph-name="uni2078" unicode="&#x2078;" horiz-adv-x="669" 
d="M335 1176q34 0 54 19t21 50q0 31 -20 51t-54 20q-35 0 -55 -20q-21 -20 -21 -51t20 -50t55 -19zM334 819q38 0 64 25q26 24 26 60t-26 61t-64 25t-64 -26q-24 -24 -24 -60t24 -60t64 -25zM335 618q-134 0 -221 78t-87 196t79 200q-55 60 -55 168t78 178t205 70t206 -70
t78 -193q0 -88 -51 -151q76 -76 76 -198t-87 -200t-221 -78z" />
    <glyph glyph-name="uni2079" unicode="&#x2079;" horiz-adv-x="720" 
d="M360 1077q45 0 76 31t31 76t-31 76q-31 30 -76 30q-46 0 -76 -30t-30 -76q0 -45 30 -76t76 -31zM20 1187q0 138 96 229t244 91q150 0 245 -92t95 -218t-86 -263l-190 -303h-266l151 243q-123 4 -206 90t-83 223z" />
    <glyph glyph-name="uni207A" unicode="&#x207a;" horiz-adv-x="501" 
d="M31 967v190h127v123h184v-123h127v-190h-127v-123h-184v123h-127z" />
    <glyph glyph-name="uni207B" unicode="&#x207b;" horiz-adv-x="501" 
d="M31 967v188h438v-188h-438z" />
    <glyph glyph-name="uni207C" unicode="&#x207c;" horiz-adv-x="489" 
d="M27 864v183h436v-183h-436zM27 1075v180h436v-180h-436z" />
    <glyph glyph-name="uni207D" unicode="&#x207d;" horiz-adv-x="544" 
d="M45 1056q0 380 307 619l142 -190q-213 -160 -213 -425t213 -431l-142 -191q-307 238 -307 618z" />
    <glyph glyph-name="uni207E" unicode="&#x207e;" horiz-adv-x="544" 
d="M264 1060q0 265 -213 425l142 190q307 -239 307 -619t-307 -618l-142 191q213 166 213 431z" />
    <glyph glyph-name="uni2080" unicode="&#x2080;" horiz-adv-x="925" 
d="M462 645q-88 0 -146 -62q-58 -61 -58 -151t58 -152t146 -61q89 -1 146 61t58 152q0 90 -58 152t-146 61zM462 -12q-185 0 -314 130q-128 130 -128 314t128 314t314 130t314 -130q129 -130 129 -314t-129 -314t-314 -130z" />
    <glyph glyph-name="uni2081" unicode="&#x2081;" horiz-adv-x="610" 
d="M27 0v217h166v332q-41 -53 -130 -53h-12v223h6q78 0 111 44t33 101h227v-647h160v-217h-561z" />
    <glyph glyph-name="uni2082" unicode="&#x2082;" horiz-adv-x="675" 
d="M27 0v172q1 116 65 186t167 123t129 81q49 56 5 93q-20 18 -59 19q-82 0 -125 -111l-203 105q100 209 332 209q141 0 229 -74t88 -187t-67 -181t-227 -148q-56 -31 -68 -44t-14 -26h370v-217h-622z" />
    <glyph glyph-name="uni2083" unicode="&#x2083;" horiz-adv-x="665" 
d="M324 -12q-207 0 -316 108l178 160q53 -55 123 -55q39 0 64 18t24 51q0 66 -116 66h-91v205h86q102 0 103 69q0 62 -77 62t-112 -56l-167 146q51 53 128 84t152 31q145 0 235 -70q90 -69 89 -179q0 -110 -84 -177q104 -66 104 -186q0 -121 -89 -199t-234 -78z" />
    <glyph glyph-name="uni2084" unicode="&#x2084;" horiz-adv-x="741" 
d="M371 369v147l-103 -147h103zM371 0v170h-344v207l342 487h219v-495h127v-199h-127v-170h-217z" />
    <glyph glyph-name="uni2085" unicode="&#x2085;" horiz-adv-x="653" 
d="M319 -12q-217 0 -311 159l225 119q25 -57 86 -57q37 1 60 23t23 58t-24 58t-74 21q-50 0 -73 -54l-213 74l66 475h496v-215h-316l-12 -86q43 16 98 17q129 0 207 -77t78 -212q1 -135 -89 -219t-227 -84z" />
    <glyph glyph-name="uni2086" unicode="&#x2086;" horiz-adv-x="720" 
d="M360 205q45 0 77 31q32 32 32 76t-32 75t-77 31q-44 0 -74 -31t-30 -76t30 -75t74 -31zM360 -12q-150 0 -244 92t-96 218q0 126 86 263l191 303h268l-153 -241q124 -5 206 -91t83 -224t-95 -229t-246 -91z" />
    <glyph glyph-name="uni2087" unicode="&#x2087;" horiz-adv-x="626" 
d="M27 647v217h573v-205l-295 -659h-252l301 647h-327z" />
    <glyph glyph-name="uni2088" unicode="&#x2088;" horiz-adv-x="669" 
d="M335 545q34 0 54 19t21 50q0 32 -20 52t-54 20q-35 0 -55 -20q-21 -20 -21 -52t20 -50q20 -19 55 -19zM334 188q38 0 64 25t26 61t-26 60t-64 24t-64 -24q-24 -24 -24 -61t24 -61t64 -24zM643 265q0 -121 -87 -199t-221 -78t-221 78t-87 196t79 199q-55 61 -55 169
t78 177q78 70 205 70t206 -70t78 -193q0 -88 -51 -151q76 -76 76 -198z" />
    <glyph glyph-name="uni2089" unicode="&#x2089;" horiz-adv-x="720" 
d="M360 446q45 0 76 31t31 76t-31 76t-76 31q-46 0 -76 -32q-30 -30 -30 -75t30 -76t76 -31zM20 556q0 138 96 229t244 91q150 0 245 -92t95 -218t-86 -263l-190 -303h-266l151 244q-123 4 -206 89t-83 223z" />
    <glyph glyph-name="uni208A" unicode="&#x208a;" horiz-adv-x="501" 
d="M31 336v190h127v123h184v-123h127v-190h-127v-123h-184v123h-127z" />
    <glyph glyph-name="uni208B" unicode="&#x208b;" horiz-adv-x="501" 
d="M31 336v188h438v-188h-438z" />
    <glyph glyph-name="uni208C" unicode="&#x208c;" horiz-adv-x="489" 
d="M27 233v183h436v-183h-436zM27 444v181h436v-181h-436z" />
    <glyph glyph-name="uni208D" unicode="&#x208d;" horiz-adv-x="544" 
d="M45 425q0 380 307 619l142 -190q-213 -160 -213 -425t213 -431l-142 -191q-307 238 -307 618z" />
    <glyph glyph-name="uni208E" unicode="&#x208e;" horiz-adv-x="544" 
d="M264 429q0 265 -213 425l142 190q307 -240 307 -620t-307 -617l-142 191q213 166 213 431z" />
    <glyph glyph-name="uni20A1" unicode="&#x20a1;" horiz-adv-x="1505" 
d="M541 338q37 -23 94 -45l369 901q-45 23 -99 31zM324 756q0 -184 106 -318l324 795q-188 -20 -309 -156q-121 -137 -121 -321zM803 264q135 0 238 68t167 180l256 -147q-104 -177 -273 -281t-382 -104q-51 0 -145 12l-97 -238h-153l110 273q-45 16 -94 43l-129 -316h-151
l161 393q-129 107 -199 263t-71 338q0 332 221 550t547 218l59 -3l86 207h156l-96 -233q39 -10 96 -33l111 266h155l-139 -336q141 -94 227 -239l-250 -160q-43 76 -90 123l-348 -844h27z" />
    <glyph glyph-name="uni20A2" unicode="&#x20a2;" horiz-adv-x="1505" 
d="M809 -20q-340 0 -554 221t-214 550t221 547t547 218q207 0 381 -100t274 -271l-250 -160q-135 250 -405 250q-209 0 -347 -140t-138 -347q0 -150 78 -270t206 -175v600h279v-168q80 168 282 168h52v-272h-117q-113 1 -164 -63t-51 -206v-92q231 41 340 269l256 -142
q-101 -193 -279 -305t-397 -112z" />
    <glyph glyph-name="franc" unicode="&#x20a3;" horiz-adv-x="989" 
d="M72 0v1495h846v-272h-562v-199h562v-240h-562v-120h562v-240h-562v-424h-284z" />
    <glyph glyph-name="lira" unicode="&#x20a4;" horiz-adv-x="1445" 
d="M385 143q70 0 119 43q-86 47 -137 47t-52 -40q0 -50 70 -50zM176 487v205h268q-43 68 -57 92h-211v205h133q-6 37 -6 82q0 195 133 320q132 125 330 125t321 -79t166 -220l-270 -97q-39 147 -201 148q-94 0 -152 -56t-58 -122t8 -101h430v-205h-359q29 -61 41 -92h318
v-205h-254q10 -57 10 -109t-14 -114q118 -59 192 -59t107 38t32 126v100h291v-137q0 -352 -362 -352q-172 0 -359 112q-111 -115 -264 -115q-285 0 -285 213q0 96 72 160q144 127 408 4l2 19q0 57 -23 114h-387z" />
    <glyph glyph-name="uni20A6" unicode="&#x20a6;" horiz-adv-x="1652" 
d="M1122 596h-78l78 -139v139zM530 932h80l-80 143v-143zM1122 733v62h-186l33 -62h153zM530 795v-62h189l-33 62h-156zM61 795v137h185v563h303l311 -563h262v563h285v-563h184v-137h-184v-62h184v-137h-184v-596h-283l-329 596h-265v-596h-284v596h-185v137h185v62h-185z
" />
    <glyph glyph-name="peseta" unicode="&#x20a7;" horiz-adv-x="2871" 
d="M565 1231h-209v-541h209q119 0 196 78t77 193t-77 193t-196 77zM1700 0q-244 0 -338 97t-94 347v328h-174v4q-58 -158 -194 -254t-316 -96h-228v-426h-284v1495h514q212 0 362 -134t172 -337h148v240l280 153v-393h213v-252h-213v-326q0 -120 33 -152t160 -32h500
q141 0 141 78q0 37 -47 53q-47 15 -99 23t-102 16q-51 8 -81 14t-86 28t-90 50t-58 77q-25 50 -25 116q0 145 112 237t296 90q322 0 446 -237l-248 -105q-45 113 -183 113t-138 -78q0 -49 182 -75l12 -3l25 -4q263 -35 333 -166q32 -59 31 -141q0 -146 -103 -248t-331 -100
h-528z" />
    <glyph glyph-name="uni20A8" unicode="&#x20a8;" horiz-adv-x="2021" 
d="M508 739q152 0 224 79t73 175q0 236 -297 236h-152v-1229h-284v1495h469q251 0 401 -142t150 -360q0 -139 -64 -254t-188 -176q154 -180 318 -240q164 -61 350 -61t186 78q0 55 -171 76t-294 81t-123 213q0 152 112 244t295 90q322 0 447 -237l-248 -105
q-45 113 -183 113t-138 -78q0 -49 182 -75q25 -4 69 -10t97 -23q152 -46 204 -140q32 -59 31 -141q0 -147 -109 -249q-110 -101 -362 -99q-104 0 -195 13t-215 59t-235 122q-111 77 -241 216t-248 329h139z" />
    <glyph glyph-name="uni20A9" unicode="&#x20a9;" horiz-adv-x="2205" 
d="M1153 932l-43 145l-43 -145h86zM1604 596h-95l50 -168zM713 596h-97l46 -172zM1028 795l-18 -62h202l-18 62h-166zM1450 795l18 -62h172l17 62h-207zM563 795l17 -62h174l18 62h-209zM51 795v137h187l-160 563h297l151 -563h287l168 563h260l168 -563h285l149 563h289
l-160 -563h182v-137h-221l-16 -62h237v-137h-276l-168 -596h-280l-177 596h-284l-176 -596h-291l-170 596h-281v137h242l-17 62h-225z" />
    <glyph glyph-name="uni20AA" unicode="&#x20aa;" horiz-adv-x="1650" 
d="M72 0v1495h448q651 0 651 -614v-263q2 -139 -57 -191t-227 -52v506q0 201 -79 275t-316 75h-136v-1231h-284zM479 0v1124q181 0 233 -43t52 -196v-621h135q233 0 314 75t81 275v881h285v-881q0 -614 -651 -614h-449z" />
    <glyph glyph-name="Euro" unicode="&#x20ac;" 
d="M63 838v223h189q16 197 156 325t364 130q224 0 371 -160l-215 -193q-66 72 -162 72t-154 -48t-73 -126h456l-39 -223h-421v-181h395l-35 -223h-358q12 -78 68 -125q55 -47 153 -47t166 94l256 -168q-135 -209 -424 -208q-233 0 -365 122q-131 123 -141 332h-187v223h187
v181h-187z" />
    <glyph glyph-name="uni20AE" unicode="&#x20ae;" horiz-adv-x="1222" 
d="M469 1223h-397v272h1079v-272h-397v-250l215 88v-154l-215 -88v-112l215 88v-154l-215 -88v-553h-285v436l-223 -92v154l223 92v112l-223 -92v154l223 92v367z" />
    <glyph glyph-name="uni20B1" unicode="&#x20b1;" horiz-adv-x="1488" 
d="M514 995v-61h479q2 9 2 27l-2 34h-479zM723 1231h-209v-98h422q-78 98 -213 98zM723 690q143 0 219 107h-428v-107h209zM72 995v138h157v362h514q181 0 319 -100t191 -262h185v-138h-158q2 -12 2 -34v-27h156v-137h-181q-51 -167 -190 -269t-326 -102h-227v-426h-285v797
h-157v137h157v61h-157z" />
    <glyph glyph-name="published" unicode="&#x2117;" horiz-adv-x="1611" 
d="M852 940h-102v-217h102q45 0 77 33q32 34 32 76t-32 75t-77 33zM514 348v787h379q125 0 213 -89q88 -88 88 -214t-86 -215t-213 -89h-145v-180h-236zM266 748q0 -229 155 -390t383 -161q228 -1 388 161t160 390t-160 389t-388 161t-383 -160t-155 -390zM806 -20
q-318 0 -542 224q-223 224 -223 542t223 544q224 226 542 226t542 -224t223 -544q0 -319 -223 -544q-224 -224 -542 -224z" />
    <glyph glyph-name="servicemark" unicode="&#x2120;" horiz-adv-x="1282" 
d="M279 887q-170 0 -254 121l172 108q9 -23 35 -40t56 -17t29 26q0 15 -43 29t-93 26t-93 58q-43 45 -43 123t67 132t171 54q139 0 223 -110l-152 -97q-30 50 -72 50t-42 -25q0 -8 43 -20q43 -13 93 -29t93 -62t43 -128t-63 -141q-64 -58 -170 -58zM557 901v594h191
l139 -182l149 182h174v-594h-200v283l-127 -142l-125 142v-283h-201z" />
    <glyph glyph-name="trademark" unicode="&#x2122;" horiz-adv-x="1327" 
d="M199 901v408h-148v186h490v-186h-144v-408h-198zM602 901v594h191l139 -182l149 182h174v-594h-200v283l-127 -142l-125 142v-283h-201z" />
    <glyph glyph-name="uni2153" unicode="&#x2153;" horiz-adv-x="1816" 
d="M27 631v217h166v332q-41 -53 -130 -54h-12v224h6q78 0 111 44t33 101h227v-647h160v-217h-561zM1475 -12q-207 0 -316 108l178 160q51 -55 123 -55q39 0 64 18t24 51q0 66 -116 66h-91v205h86q102 0 103 69q0 62 -77 62t-112 -56l-167 146q51 53 128 84t152 31
q144 0 234 -70q90 -69 90 -179t-84 -177q104 -66 104 -186q0 -121 -89 -199t-234 -78zM172 0l1079 1495h328l-1079 -1495h-328z" />
    <glyph glyph-name="uni2154" unicode="&#x2154;" horiz-adv-x="1878" 
d="M1536 -12q-207 0 -315 108l178 160q51 -55 123 -55q40 0 64 18t24 51q0 66 -117 66h-90v205h86q102 0 102 69q0 62 -77 62t-111 -56l-168 146q51 53 128 84t153 31q145 0 234 -70q89 -69 89 -179t-84 -177q105 -66 105 -186q0 -121 -90 -199t-234 -78zM27 631v172
q1 115 65 185t169 124q105 53 128 81q48 55 4 93q-20 18 -59 19q-82 0 -125 -111l-203 104q100 209 332 209q141 1 229 -73t88 -187t-67 -181t-227 -148q-57 -31 -69 -45q-11 -13 -13 -25h370v-217h-622zM233 0l1080 1495h327l-1079 -1495h-328z" />
    <glyph glyph-name="uni2155" unicode="&#x2155;" horiz-adv-x="1734" 
d="M27 631v217h166v332q-41 -53 -130 -54h-12v224h6q78 0 111 44t33 101h227v-647h160v-217h-561zM1401 -12q-217 0 -311 159l225 119q25 -57 86 -57q37 1 59 23t23 58q0 36 -24 58t-62 21q-61 0 -84 -54l-213 74l65 475h496v-215h-315l-13 -86q43 16 99 17q128 0 206 -77
t78 -212t-89 -219t-226 -84zM172 0l1079 1495h328l-1079 -1495h-328z" />
    <glyph glyph-name="uni2156" unicode="&#x2156;" horiz-adv-x="1798" 
d="M1780 291q0 -135 -90 -219t-210 -84q-234 0 -327 159l225 119q25 -57 86 -57q37 1 60 23q22 22 22 58t-24 58t-73 21q-50 0 -73 -54l-213 74l66 475h495v-215h-315l-12 -86q43 16 98 17q129 0 207 -77t78 -212zM27 631v172q1 115 65 185t169 124q105 53 128 81
q48 55 4 93q-20 18 -59 19q-82 0 -125 -111l-203 104q100 209 332 209q141 1 229 -73t88 -187t-67 -181t-227 -148q-57 -31 -69 -45q-11 -13 -13 -25h370v-217h-622zM233 0l1080 1495h327l-1079 -1495h-328z" />
    <glyph glyph-name="uni2157" unicode="&#x2157;" horiz-adv-x="1748" 
d="M324 618q-207 0 -316 109l178 160q54 -55 108 -55q106 -1 103 69q0 66 -116 66h-91v204h86q102 0 103 70q0 61 -77 61t-112 -55l-167 146q51 53 128 84t152 30q145 0 235 -69q89 -70 89 -180t-84 -177q104 -65 104 -185t-89 -199t-234 -79zM1731 291q1 -135 -89 -219
t-210 -84q-234 0 -328 159l225 119q25 -57 86 -57q37 1 60 23t23 58t-24 58t-74 21q-50 0 -73 -54l-213 74l66 475h495v-215h-315l-12 -86q43 16 98 17q129 0 207 -77t78 -212zM186 0l1080 1495h327l-1079 -1495h-328z" />
    <glyph glyph-name="uni2158" unicode="&#x2158;" horiz-adv-x="1736" 
d="M371 999v148l-103 -148h103zM371 631v170h-344v207l342 487h219v-496h127v-198h-127v-170h-217zM1420 -12q-234 0 -328 159l225 119q25 -57 86 -57q37 1 59 23t23 58q0 36 -24 58t-62 21q-61 0 -84 -54l-213 74l65 475h496v-215h-315l-13 -86q43 16 99 17q128 0 206 -77
t78 -212t-89 -219t-209 -84zM172 0l1079 1495h328l-1079 -1495h-328z" />
    <glyph glyph-name="uni2159" unicode="&#x2159;" horiz-adv-x="1814" 
d="M1454 205q45 0 77 31q32 32 32 76t-32 75t-77 31t-75 -31q-29 -31 -29 -76t30 -75t74 -31zM27 631v217h166v332q-41 -53 -130 -54h-12v224h6q78 0 111 44t33 101h227v-647h160v-217h-561zM1454 -12q-150 0 -245 92t-95 218t86 263l191 303h268l-154 -241q125 -5 207 -91
t83 -224t-95 -229t-246 -91zM172 0l1079 1495h328l-1079 -1495h-328z" />
    <glyph glyph-name="uni215A" unicode="&#x215a;" horiz-adv-x="1808" 
d="M1448 205q45 0 77 31q31 32 31 76t-31 75q-32 31 -77 31t-75 -31t-30 -76t30 -75t75 -31zM319 618q-217 0 -311 160l225 119q25 -57 86 -57q37 0 60 22t23 59q0 35 -24 57t-63 21q-61 0 -84 -53l-213 74l66 475h496v-215h-316l-12 -86q43 16 98 16q129 0 207 -76t78 -212
q0 -135 -89 -220q-90 -84 -227 -84zM1448 -12q-150 0 -245 92t-95 218t86 263l190 303h269l-154 -241q125 -5 207 -91t83 -224t-95 -229t-246 -91zM166 0l1079 1495h328l-1079 -1495h-328z" />
    <glyph glyph-name="uni215B" unicode="&#x215b;" horiz-adv-x="1753" 
d="M1418 545q34 0 55 19q20 19 20 50q0 32 -19 52q-18 20 -54 20t-56 -20t-20 -52t20 -50q20 -19 54 -19zM1417 188q39 0 65 25t26 61t-26 60t-65 24t-63 -24t-25 -61q1 -37 25 -61t63 -24zM27 631v217h166v332q-41 -53 -130 -54h-12v224h6q78 0 111 44t33 101h227v-647h160
v-217h-561zM1418 -12q-134 0 -221 78t-87 196t80 199q-55 61 -55 169t77 177q78 70 205 70t206 -70t79 -193q0 -88 -51 -151q75 -76 75 -198q0 -121 -87 -199t-221 -78zM172 0l1079 1495h328l-1079 -1495h-328z" />
    <glyph glyph-name="uni215C" unicode="&#x215c;" horiz-adv-x="1767" 
d="M1434 686q-36 0 -56 -20t-20 -52t20 -50q20 -19 55 -19q34 0 54 19t20 50q0 32 -19 52t-54 20zM1432 188q38 0 64 25t26 61t-26 60t-64 24t-64 -24q-25 -24 -25 -61t25 -61t64 -24zM324 618q-207 0 -316 109l178 160q54 -55 108 -55q106 -1 103 69q0 66 -116 66h-91v204
h86q102 0 103 70q0 61 -77 61t-112 -55l-167 146q51 53 128 84t152 30q145 0 235 -69q89 -70 89 -180t-84 -177q104 -65 104 -185t-89 -199t-234 -79zM1741 265q0 -121 -87 -199t-221 -78t-222 78q-87 78 -87 196t80 199q-55 61 -55 169t78 177q78 70 205 70q128 0 206 -70
t78 -193q0 -88 -51 -151q76 -76 76 -198zM186 0l1080 1495h327l-1079 -1495h-328z" />
    <glyph glyph-name="uni215D" unicode="&#x215d;" horiz-adv-x="1746" 
d="M1412 545q34 0 54 19t21 50q1 32 -19 52t-55 20t-55 -20t-20 -52t20 -50q20 -19 54 -19zM1411 188q39 0 65 25t26 61t-26 60t-65 24t-63 -24t-25 -61q1 -37 25 -61t63 -24zM319 618q-217 0 -311 160l225 119q25 -57 86 -57q37 0 60 22t23 59q0 35 -24 57t-63 21
q-61 0 -84 -53l-213 74l66 475h496v-215h-316l-12 -86q43 16 98 16q129 0 207 -76t78 -212q0 -135 -89 -220q-90 -84 -227 -84zM1412 -12q-134 0 -221 78t-87 196t80 199q-56 61 -56 169t78 177q78 70 205 70t206 -70t79 -193q0 -88 -51 -151q75 -76 75 -198
q0 -121 -87 -199t-221 -78zM166 0l1079 1495h328l-1079 -1495h-328z" />
    <glyph glyph-name="uni215E" unicode="&#x215e;" horiz-adv-x="1699" 
d="M1365 545q34 0 54 19t21 50q0 32 -20 52t-54 20q-35 0 -55 -20q-21 -20 -21 -52t20 -50q20 -19 55 -19zM1364 188q38 0 64 25t26 61t-26 60t-64 24t-64 -24q-24 -24 -24 -61t24 -61t64 -24zM27 1278v217h573v-205l-295 -659h-252l301 647h-327zM1673 265q0 -121 -87 -199
t-221 -78t-221 78t-87 196t80 199q-55 61 -55 169t77 177q78 70 205 70t206 -70t79 -193q0 -88 -52 -151q76 -76 76 -198zM119 0l1079 1495h328l-1080 -1495h-327z" />
    <glyph glyph-name="uni215F" unicode="&#x215f;" horiz-adv-x="1597" 
d="M27 631v217h166v332q-41 -53 -130 -54h-12v224h6q78 0 111 44t33 101h227v-647h160v-217h-561zM172 0l1079 1495h328l-1079 -1495h-328z" />
    <glyph glyph-name="arrowleft" unicode="&#x2190;" horiz-adv-x="1835" 
d="M1647 883v-273h-1053q160 -109 274 -321l-229 -160q-78 164 -207 311t-280 242v119q147 100 277 272t165 293l254 -135q-74 -197 -260 -348h1059z" />
    <glyph glyph-name="arrowup" unicode="&#x2191;" horiz-adv-x="1835" 
d="M764 0v1059q-154 -190 -348 -260l-135 254q121 35 293 165t272 277h108q98 -145 270 -276t294 -166l-136 -254q-197 72 -346 256v-1055h-272z" />
    <glyph glyph-name="arrowright" unicode="&#x2192;" horiz-adv-x="1835" 
d="M152 610v273h1058q-188 150 -260 348l254 135q35 -121 165 -293t278 -272v-119q-152 -94 -281 -242t-207 -311l-229 160q109 209 272 321h-1050z" />
    <glyph glyph-name="arrowdown" unicode="&#x2193;" horiz-adv-x="1835" 
d="M762 1495h272v-1059q152 186 348 260l136 -254q-121 -34 -293 -164t-273 -278h-108q-98 145 -270 276t-293 166l135 254q193 -72 346 -258v1057z" />
    <glyph glyph-name="uni2196" unicode="&#x2196;" horiz-adv-x="1835" 
d="M1350 123l-748 747q23 -244 -63 -428l-275 84q61 109 90 317t-2 396l76 76q186 -33 394 -4t317 90l84 -275q-186 -88 -426 -63l745 -748z" />
    <glyph glyph-name="uni2197" unicode="&#x2197;" horiz-adv-x="1835" 
d="M457 123l-193 192l748 748q-242 -25 -428 63l84 275q108 -61 316 -90t396 2l76 -76q-33 -186 -4 -394t90 -317l-274 -84q-88 186 -64 426z" />
    <glyph glyph-name="uni2198" unicode="&#x2198;" horiz-adv-x="1835" 
d="M1442 266q-186 33 -394 4t-317 -90l-84 275q184 86 426 63l-745 748l192 192l748 -747q-25 242 63 428l275 -84q-61 -109 -90 -317t2 -396z" />
    <glyph glyph-name="uni2199" unicode="&#x2199;" horiz-adv-x="1835" 
d="M1141 119q-109 61 -317 90t-396 -2l-76 76q33 186 4 394t-90 316l275 84q86 -184 63 -426l748 746l192 -193l-747 -747q244 23 428 -64z" />
    <glyph glyph-name="partialdiff" unicode="&#x2202;" horiz-adv-x="1148" 
d="M571 246q104 0 182 79q77 79 77 187t-74 188q-74 78 -182 78t-183 -76q-76 -76 -76 -190t76 -190t180 -76zM1102 526q0 -230 -154 -388t-374 -158t-376 152t-157 377q0 223 143 367t357 144q100 0 176 -43q-162 217 -596 518h418q563 -438 563 -969z" />
    <glyph glyph-name="increment" unicode="&#x2206;" horiz-adv-x="1837" 
d="M918 977l-406 -705h811zM1796 0h-1755l879 1520z" />
    <glyph glyph-name="product" unicode="&#x220f;" horiz-adv-x="1597" 
d="M74 1223v272h1450v-272h-248v-1223h-285v1223h-385v-1223h-284v1223h-248z" />
    <glyph glyph-name="summation" unicode="&#x2211;" horiz-adv-x="1153" 
d="M72 0v305l446 461l-432 457v272h995v-272h-630l432 -457l-477 -494h675v-272h-1009z" />
    <glyph glyph-name="minus" unicode="&#x2212;" horiz-adv-x="901" 
d="M72 627v239h757v-239h-757z" />
    <glyph glyph-name="radical" unicode="&#x221a;" horiz-adv-x="1615" 
d="M92 776v248h373l254 -684l526 1155h303l-702 -1495h-277l-299 776h-178z" />
    <glyph glyph-name="infinity" unicode="&#x221e;" horiz-adv-x="1822" 
d="M1313 657q51 0 90 38t39 91q0 54 -39 92t-90 37q-94 0 -234 -129q140 -129 234 -129zM510 657q100 0 235 129q-135 129 -235 129q-51 1 -90 -37t-39 -92t39 -91q39 -38 90 -38zM510 420q-152 0 -260 108t-107 258q0 152 108 260t259 107q186 0 403 -205q213 205 400 205
q151 1 259 -107t108 -260t-108 -260t-259 -106q-109 0 -203 53t-197 150q-219 -203 -403 -203z" />
    <glyph glyph-name="integral" unicode="&#x222b;" horiz-adv-x="747" 
d="M33 -442v262q127 0 160 30t32 150v1051q-1 252 97 348t354 96h22v-262q-128 0 -160 -32t-32 -152v-1047q0 -252 -97 -348t-354 -96h-22z" />
    <glyph glyph-name="approxequal" unicode="&#x2248;" horiz-adv-x="901" 
d="M257 737q69 0 199 -38q130 -37 198 -37t175 47v-240q-83 -47 -167 -47t-216 38t-193 38q-62 0 -181 -56v240q115 55 185 55zM258 1077q76 0 200 -39t190 -39t181 52v-240q-91 -51 -173 -51t-208 39t-194 39q-67 0 -182 -54v240q111 53 186 53z" />
    <glyph glyph-name="notequal" unicode="&#x2260;" horiz-adv-x="901" 
d="M829 1034v-239h-258l-45 -103h303v-239h-409l-64 -144h-198l61 144h-147v239h252l43 103h-295v239h399l64 144h208l-65 -144h151z" />
    <glyph glyph-name="equivalence" unicode="&#x2261;" horiz-adv-x="901" 
d="M72 965v239h757v-239h-757zM72 281v239h757v-239h-757zM72 623v239h757v-239h-757z" />
    <glyph glyph-name="lessequal" unicode="&#x2264;" horiz-adv-x="901" 
d="M70 229v240h757v-240h-757zM827 532l-757 275v240l757 272v-248l-450 -145l450 -146v-248z" />
    <glyph glyph-name="greaterequal" unicode="&#x2265;" horiz-adv-x="901" 
d="M70 229v240h757v-240h-757zM70 532v248l450 146l-450 145v248l757 -272v-240z" />
    <glyph glyph-name="squaremultiply" unicode="&#x22a0;" horiz-adv-x="1896" 
d="M698 330l-168 164l250 258l-252 262l168 164l248 -256l252 258l168 -164l-256 -264l254 -260l-168 -164l-250 256zM489 1223v-951h918v951h-918zM205 0v1495h1487v-1495h-1487z" />
    <glyph glyph-name="house" unicode="&#x2302;" horiz-adv-x="1789" 
d="M1585 0h-1380v874l690 662l690 -662v-874z" />
    <glyph glyph-name="blacksquare" unicode="&#x25a0;" horiz-adv-x="1896" 
d="M205 0v1495h1487v-1495h-1487z" />
    <glyph glyph-name="blacksquare" unicode="&#xe740;" horiz-adv-x="1896" 
d="M205 0v1495h1487v-1495h-1487z" />
    <glyph glyph-name="whitesquare" unicode="&#x25a1;" horiz-adv-x="1896" 
d="M489 1223v-951h918v951h-918zM205 0v1495h1487v-1495h-1487z" />
    <glyph glyph-name="blacksmallsquare" unicode="&#x25aa;" horiz-adv-x="1433" 
d="M205 0v1024h1024v-1024h-1024z" />
    <glyph glyph-name="whitesmallsquare" unicode="&#x25ab;" horiz-adv-x="1433" 
d="M485 745v-466h463v466h-463zM205 0v1024h1024v-1024h-1024z" />
    <glyph glyph-name="triagup" unicode="&#x25b2;" horiz-adv-x="1837" 
d="M1796 0h-1755l879 1520z" />
    <glyph glyph-name="triagrt" unicode="&#x25ba;" horiz-adv-x="1837" 
d="M205 -117v1755l1519 -876z" />
    <glyph glyph-name="triagdn" unicode="&#x25bc;" horiz-adv-x="1837" 
d="M41 1495h1755l-876 -1520z" />
    <glyph glyph-name="triaglf" unicode="&#x25c4;" horiz-adv-x="1837" 
d="M1632 1638v-1755l-1519 879z" />
    <glyph glyph-name="lozenge" unicode="&#x25ca;" horiz-adv-x="1726" 
d="M434 752l418 -418l408 407l-418 418zM850 -33l-782 783l778 778l782 -783z" />
    <glyph glyph-name="whitecircle" unicode="&#x25cb;" horiz-adv-x="1898" 
d="M948 260q201 0 342 143q142 143 142 345t-142 344q-142 143 -342 143q-201 0 -341 -142t-140 -345q0 -204 140 -346t341 -142zM949 -20q-318 0 -541 224q-224 224 -224 542t224 544t541 226t541 -224t224 -544q0 -319 -223 -544q-224 -224 -542 -224z" />
    <glyph glyph-name="whitecircle" unicode="&#x25ef;" horiz-adv-x="1898" 
d="M948 260q201 0 342 143q142 143 142 345t-142 344q-142 143 -342 143q-201 0 -341 -142t-140 -345q0 -204 140 -346t341 -142zM949 -20q-318 0 -541 224q-224 224 -224 542t224 544t541 226t541 -224t224 -544q0 -319 -223 -544q-224 -224 -542 -224z" />
    <glyph glyph-name="bullseye" unicode="&#x25ce;" horiz-adv-x="1898" 
d="M948 512q-96 0 -165 70t-68 166t69 166t164 69q96 0 165 -70q69 -69 69 -165t-69 -166t-165 -70zM948 260q201 0 342 143q142 143 142 345t-142 344q-142 143 -342 143q-201 0 -341 -142t-140 -345q0 -204 140 -346t341 -142zM949 -20q-318 0 -541 224q-224 224 -224 542
t224 544t541 226t541 -224t224 -544q0 -319 -223 -544q-224 -224 -542 -224z" />
    <glyph glyph-name="blackcircle" unicode="&#x25cf;" horiz-adv-x="1898" 
d="M949 -20q-318 0 -541 224q-224 224 -224 542t224 544t541 226t541 -224t224 -544q0 -319 -223 -544q-224 -224 -542 -224z" />
    <glyph glyph-name="uni25E2" unicode="&#x25e2;" horiz-adv-x="1837" 
d="M1788 1092l-1241 -1242l-455 1696z" />
    <glyph glyph-name="uni25E3" unicode="&#x25e3;" horiz-adv-x="1837" 
d="M1294 -150l-1241 1242l1696 454z" />
    <glyph glyph-name="uni25E4" unicode="&#x25e4;" horiz-adv-x="1837" 
d="M1755 -111l-1696 455l1241 1241z" />
    <glyph glyph-name="uni25E5" unicode="&#x25e5;" horiz-adv-x="1837" 
d="M1786 334l-1696 -453l457 1696z" />
    <glyph glyph-name="uni2605" unicode="&#x2605;" horiz-adv-x="1843" 
d="M1151 621l147 -447l-383 277l-380 -277l147 449l-381 276l469 -2l148 446l145 -446l471 -2z" />
    <glyph glyph-name="ballotboxwithx" unicode="&#x2612;" horiz-adv-x="1433" 
d="M608 754l109 -109l110 113l136 -135l-111 -113l109 -109l-136 -135l-108 107l-107 -109l-135 135l107 109l-109 110zM451 780v-536h532v536h-532zM205 0v1024h1024v-1024h-1024z" />
    <glyph glyph-name="uni263C" unicode="&#x263c;" horiz-adv-x="1900" 
d="M580 516l-232 -176l-61 94l272 115zM1309 983l231 176l62 -94l-273 -115zM743 365l-112 -273l-96 58l178 235zM1145 1135l112 272l97 -57l-178 -236zM1176 385l178 -235l-97 -58l-112 273zM713 1114l-178 236l96 57l112 -272zM1329 549l273 -113l-58 -96l-235 178z
M559 950l-272 113l57 96l236 -178zM1376 770l291 35v-111l-291 35v41zM512 729l-291 -35v111l291 -35v-41zM965 317l34 -290h-110l35 290h41zM924 1182l-35 291h110l-34 -291h-41zM588 748q0 145 105 250q105 106 251 106t250 -106q106 -106 106 -250t-105 -250t-251 -106
t-251 105q-105 106 -105 251z" />
    <glyph glyph-name="uni263E" unicode="&#x263e;" horiz-adv-x="1611" 
d="M1094 1262q-203 0 -346 -151q-144 -151 -144 -363t144 -364q144 -151 346 -151q66 0 145 25q-166 -117 -365 -117q-250 0 -428 178q-178 179 -178 429t178 428t428 178q199 0 365 -117q-94 25 -145 25z" />
    <glyph glyph-name="spade" unicode="&#x2660;" horiz-adv-x="1884" 
d="M1217 0h-531q55 102 81 154t69 190q43 137 43 250q-43 -121 -131 -200t-224 -79q-136 1 -240 97q-103 96 -104 227q0 168 106 307t376 354l286 230h2l287 -230q263 -211 365 -350t102 -311q0 -131 -94 -226t-232 -95t-230 78q-93 79 -136 198q0 -225 167 -525
q38 -67 38 -69z" />
    <glyph glyph-name="club" unicode="&#x2663;" horiz-adv-x="1884" 
d="M532 266q-152 0 -257 106t-105 257q0 150 105 256t257 106q39 0 86 -14q-39 84 -38 178q0 150 104 255q104 106 254 106t255 -106t105 -255q0 -92 -38 -180q45 16 94 16q150 0 255 -105t105 -256t-105 -257t-257 -107q-115 0 -203 66t-131 174q16 -138 78 -266
q61 -128 90 -180t33 -60h-531q164 307 186 508q-45 -110 -136 -176t-206 -66z" />
    <glyph glyph-name="heart" unicode="&#x2665;" horiz-adv-x="1884" 
d="M182 1118q0 168 109 283t265 115t259 -94q104 -94 121 -236q18 143 122 236q104 94 259 94q157 0 271 -116t114 -282t-108 -354t-367 -477l-291 -322l-289 322q-256 285 -360 474q-105 189 -105 357z" />
    <glyph glyph-name="diamond" unicode="&#x2666;" horiz-adv-x="1884" 
d="M272 799l670 821l670 -821l-670 -819z" />
    <glyph glyph-name="uni267B" unicode="&#x267b;" horiz-adv-x="1886" 
d="M1571 1006l133 -226q18 -29 18 -84q2 -92 -72 -167t-143 -74l-223 387zM879 72h-261q-47 0 -86 24q-82 48 -110 152t10 155h447v-331zM403 1143l129 229q23 37 66 60q88 45 186 18t131 -86l-223 -387zM797 1493h372q45 -2 69 -5q24 -4 54 -24t54 -61l53 -94l84 47
l-119 -322l-332 62l78 45l-137 241q-27 45 -71 72t-75 33l-30 4v2zM377 227h-4l-185 324q-20 39 -28 61q-23 63 20 136l56 94l-82 47l335 59l113 -319l-78 47q-135 -231 -139 -242q-25 -43 -27 -95t9 -81zM1329 72h-110v-97l-218 263l218 260v-95h278q51 0 97 26t67 50
l20 25l2 -4l-186 -322q-27 -39 -40 -56q-13 -18 -47 -34t-81 -16z" />
    <glyph glyph-name="uni267C" unicode="&#x267c;" horiz-adv-x="1886" 
d="M1153 492v71l-170 -201l170 -202v73h84q53 -1 80 19t51 63l145 250l-2 2q-53 -76 -143 -75h-215zM1528 784l-101 174l-225 -129l174 -301q54 0 112 58t56 133q0 36 -16 65zM498 354h2q-37 84 6 162l108 186l62 -36l-88 247l-260 -45l63 -37l-43 -73q-18 -31 -20 -61
t4 -44t22 -49zM680 233h203v259h-348q-29 -41 -7 -122t86 -118q33 -19 66 -19zM817 1335v-2q94 -8 137 -84l109 -186l-62 -37l259 -47l90 250l-64 -37l-43 74q-27 45 -56 57q-30 12 -81 12h-289zM623 1241l-101 -176l223 -129l173 299q-25 47 -102 67t-144 -14
q-39 -24 -49 -47zM1714 750q0 -320 -225 -544t-545 -224t-545 224t-225 544t225 545q225 227 545 227t544 -226q226 -226 226 -546z" />
    <glyph glyph-name="uni267D" unicode="&#x267d;" horiz-adv-x="1886" 
d="M1153 233v-73l-170 202l170 201v-71h215q41 0 77 18t50 39l16 18l2 -2l-145 -250q-16 -29 -28 -43q-33 -37 -103 -39h-84zM1427 958l101 -174q16 -29 16 -65q2 -74 -56 -132t-112 -59l-174 301zM500 354h-2l-144 250q-16 35 -22 49t-4 44t20 61l43 73l-63 37l260 45
l88 -247l-62 36l-108 -186q-18 -35 -20 -75t6 -64zM883 233h-203q-33 0 -66 19q-63 37 -86 118t7 122h348v-259zM817 1335h289q51 0 81 -12t56 -57l43 -74l64 37l-90 -250l-259 47l62 37l-109 186q-18 33 -53 55t-59 25l-25 4v2zM522 1065l101 176q10 23 49 47q68 35 144 15
t102 -68l-173 -299zM211 751q0 -305 215 -519t519 -214t517 214t213 519q0 304 -213 518t-517 214t-519 -214t-215 -518zM1714 750q0 -320 -225 -544t-545 -224t-545 224t-225 544t225 545q225 227 545 227t544 -226q226 -226 226 -546z" />
    <glyph glyph-name="mediumwhitecircle" unicode="&#x26aa;" horiz-adv-x="1429" 
d="M714 246q108 0 183 79q76 79 76 187t-76 188q-75 78 -183 78t-182 -78t-74 -188t74 -188t182 -78zM715 -20q-221 0 -376 156t-155 376q0 221 155 377q155 155 376 155t376 -156t155 -376q0 -221 -155 -377q-155 -155 -376 -155z" />
    <glyph glyph-name="mediumblackcircle" unicode="&#x26ab;" horiz-adv-x="1429" 
d="M715 -20q-221 0 -376 156t-155 376q0 221 155 377q155 155 376 155t376 -156t155 -376q0 -221 -155 -377q-155 -155 -376 -155z" />
    <glyph glyph-name="anglebracketleft" unicode="&#x3008;" horiz-adv-x="804" 
d="M485 -471l-465 983l465 983h301l-467 -983l467 -983h-301z" />
    <glyph glyph-name="anglebracketright" unicode="&#x3009;" horiz-adv-x="804" 
d="M322 -471h-302l467 983l-467 983h302l464 -983z" />
    <glyph glyph-name="cordinal" unicode="&#xe181;" horiz-adv-x="655" 
d="M330 891q-112 0 -203 90q-90 90 -90 218t90 218q91 90 203 90t188 -51t111 -135l-180 -80q-27 72 -103 72q-45 0 -78 -34q-32 -34 -32 -81t32 -80t78 -33q74 0 103 70l180 -78q-35 -84 -111 -135t-188 -51z" />
    <glyph glyph-name="p.smcp" unicode="&#xe200;" horiz-adv-x="991" 
d="M477 963h-125v-377h125q82 0 136 53t55 135q0 82 -54 136t-137 53zM72 0v1221h415q205 0 334 -129q129 -128 129 -316t-129 -319t-336 -131h-133v-326h-280z" />
    <glyph glyph-name="p.smcp" unicode="&#xf770;" horiz-adv-x="991" 
d="M477 963h-125v-377h125q82 0 136 53t55 135q0 82 -54 136t-137 53zM72 0v1221h415q205 0 334 -129q129 -128 129 -316t-129 -319t-336 -131h-133v-326h-280z" />
    <glyph glyph-name="a.smcp" unicode="&#xe201;" horiz-adv-x="1189" 
d="M594 819l-125 -377h250zM39 0l420 1221h272l420 -1221h-285l-61 186h-422l-61 -186h-283z" />
    <glyph glyph-name="a.smcp" unicode="&#xf761;" horiz-adv-x="1189" 
d="M594 819l-125 -377h250zM39 0l420 1221h272l420 -1221h-285l-61 186h-422l-61 -186h-283z" />
    <glyph glyph-name="b.smcp" unicode="&#xe202;" horiz-adv-x="997" 
d="M487 971h-135v-219h135q154 0 154 114q0 105 -154 105zM494 496h-142v-246h146q174 0 174 127q0 61 -39 90t-139 29zM72 0v1221h405q442 0 443 -347q0 -156 -121 -235q159 -82 159 -268t-121 -279q-122 -92 -343 -92h-422z" />
    <glyph glyph-name="b.smcp" unicode="&#xf762;" horiz-adv-x="997" 
d="M487 971h-135v-219h135q154 0 154 114q0 105 -154 105zM494 496h-142v-246h146q174 0 174 127q0 61 -39 90t-139 29zM72 0v1221h405q442 0 443 -347q0 -156 -121 -235q159 -82 159 -268t-121 -279q-122 -92 -343 -92h-422z" />
    <glyph glyph-name="c.smcp" unicode="&#xe203;" horiz-adv-x="1271" 
d="M686 -16q-276 0 -454 181q-177 181 -177 447t179 446t454 179q170 0 313 -82t226 -219l-242 -152q-43 82 -122 130t-177 49q-152 -1 -249 -103t-97 -250t96 -248q96 -102 244 -102q106 0 184 54t119 147l260 -131q-81 -158 -225 -252t-332 -94z" />
    <glyph glyph-name="c.smcp" unicode="&#xf763;" horiz-adv-x="1271" 
d="M686 -16q-276 0 -454 181q-177 181 -177 447t179 446t454 179q170 0 313 -82t226 -219l-242 -152q-43 82 -122 130t-177 49q-152 -1 -249 -103t-97 -250t96 -248q96 -102 244 -102q106 0 184 54t119 147l260 -131q-81 -158 -225 -252t-332 -94z" />
    <glyph glyph-name="d.smcp" unicode="&#xe204;" horiz-adv-x="1122" 
d="M414 961h-64v-701h72q164 0 264 100t100 253t-98 251t-274 97zM72 0v1221h358q287 0 462 -173q175 -172 175 -436t-179 -438t-452 -174h-364z" />
    <glyph glyph-name="d.smcp" unicode="&#xf764;" horiz-adv-x="1122" 
d="M414 961h-64v-701h72q164 0 264 100t100 253t-98 251t-274 97zM72 0v1221h358q287 0 462 -173q175 -172 175 -436t-179 -438t-452 -174h-364z" />
    <glyph glyph-name="e.smcp" unicode="&#xe205;" horiz-adv-x="860" 
d="M72 0v1221h723v-263h-445v-215h445v-262h-445v-219h445v-262h-723z" />
    <glyph glyph-name="e.smcp" unicode="&#xf765;" horiz-adv-x="860" 
d="M72 0v1221h723v-263h-445v-215h445v-262h-445v-219h445v-262h-723z" />
    <glyph glyph-name="f.smcp" unicode="&#xe206;" horiz-adv-x="829" 
d="M72 0v1221h696v-263h-418v-215h418v-262h-418v-481h-278z" />
    <glyph glyph-name="f.smcp" unicode="&#xf766;" horiz-adv-x="829" 
d="M72 0v1221h696v-263h-418v-215h418v-262h-418v-481h-278z" />
    <glyph glyph-name="g.smcp" unicode="&#xe207;" horiz-adv-x="1316" 
d="M666 -16q-274 0 -450 182q-175 182 -175 446t177 444t450 181q186 0 329 -83t226 -222l-246 -139q-92 176 -307 176q-146 -1 -248 -103t-102 -258t100 -257t256 -101q110 0 186 53t107 150h-348v262h651v-129q0 -250 -166 -426t-440 -176z" />
    <glyph glyph-name="g.smcp" unicode="&#xf767;" horiz-adv-x="1316" 
d="M666 -16q-274 0 -450 182q-175 182 -175 446t177 444t450 181q186 0 329 -83t226 -222l-246 -139q-92 176 -307 176q-146 -1 -248 -103t-102 -258t100 -257t256 -101q110 0 186 53t107 150h-348v262h651v-129q0 -250 -166 -426t-440 -176z" />
    <glyph glyph-name="h.smcp" unicode="&#xe208;" horiz-adv-x="1075" 
d="M723 0v475h-371v-475h-280v1221h280v-469h371v469h281v-1221h-281z" />
    <glyph glyph-name="h.smcp" unicode="&#xf768;" horiz-adv-x="1075" 
d="M723 0v475h-371v-475h-280v1221h280v-469h371v469h281v-1221h-281z" />
    <glyph glyph-name="i.smcp" unicode="&#xe209;" horiz-adv-x="446" 
d="M82 0v1221h283v-1221h-283z" />
    <glyph glyph-name="i.smcp" unicode="&#xf769;" horiz-adv-x="446" 
d="M82 0v1221h283v-1221h-283z" />
    <glyph glyph-name="j.smcp" unicode="&#xe20a;" horiz-adv-x="890" 
d="M451 -16q-171 0 -274 72t-140 198l268 104q27 -117 125 -116q51 0 79 34t28 91v854h282v-836q0 -190 -98 -296q-99 -105 -270 -105z" />
    <glyph glyph-name="j.smcp" unicode="&#xf76a;" horiz-adv-x="890" 
d="M451 -16q-171 0 -274 72t-140 198l268 104q27 -117 125 -116q51 0 79 34t28 91v854h282v-836q0 -190 -98 -296q-99 -105 -270 -105z" />
    <glyph glyph-name="k.smcp" unicode="&#xe20b;" horiz-adv-x="1071" 
d="M352 0h-280v1221h280v-453l342 453h332l-369 -482l398 -739h-316l-282 535l-105 -142v-393z" />
    <glyph glyph-name="k.smcp" unicode="&#xf76b;" horiz-adv-x="1071" 
d="M352 0h-280v1221h280v-453l342 453h332l-369 -482l398 -739h-316l-282 535l-105 -142v-393z" />
    <glyph glyph-name="l.smcp" unicode="&#xe20c;" horiz-adv-x="813" 
d="M72 0v1221h280v-953h406v-268h-686z" />
    <glyph glyph-name="l.smcp" unicode="&#xf76c;" horiz-adv-x="813" 
d="M72 0v1221h280v-953h406v-268h-686z" />
    <glyph glyph-name="m.smcp" unicode="&#xe20d;" horiz-adv-x="1339" 
d="M72 0v1221h280l320 -445l332 445h266v-1221h-281v768l-319 -428l-320 432v-772h-278z" />
    <glyph glyph-name="m.smcp" unicode="&#xf76d;" horiz-adv-x="1339" 
d="M72 0v1221h280l320 -445l332 445h266v-1221h-281v768l-319 -428l-320 432v-772h-278z" />
    <glyph glyph-name="n.smcp" unicode="&#xe20e;" horiz-adv-x="1179" 
d="M72 0v1221h303l454 -721v721h279v-1221h-281l-477 754v-754h-278z" />
    <glyph glyph-name="n.smcp" unicode="&#xf76e;" horiz-adv-x="1179" 
d="M72 0v1221h303l454 -721v721h279v-1221h-281l-477 754v-754h-278z" />
    <glyph glyph-name="o.smcp" unicode="&#xe20f;" horiz-adv-x="1331" 
d="M665 260q146 0 244 102q99 102 99 248t-100 248t-243 102q-145 0 -243 -102t-98 -248t97 -248q98 -102 244 -102zM665 -16q-261 0 -443 182q-181 182 -181 443t181 445q182 184 442 183q260 0 443 -183q183 -182 183 -444t-182 -444t-443 -182z" />
    <glyph glyph-name="o.smcp" unicode="&#xf76f;" horiz-adv-x="1331" 
d="M665 260q146 0 244 102q99 102 99 248t-100 248t-243 102q-145 0 -243 -102t-98 -248t97 -248q98 -102 244 -102zM665 -16q-261 0 -443 182q-181 182 -181 443t181 445q182 184 442 183q260 0 443 -183q183 -182 183 -444t-182 -444t-443 -182z" />
    <glyph glyph-name="q.smcp" unicode="&#xe211;" horiz-adv-x="1359" 
d="M678 -16q-260 0 -441 182t-181 443t180 445q182 184 442 183q260 0 443 -183t184 -444q0 -221 -140 -397l166 -213h-305l-459 604h297l119 -155q39 78 39 161q0 146 -99 248t-243 102t-244 -102q-98 -102 -98 -248t97 -248t243 -102q47 0 80 6l174 -229
q-109 -53 -254 -53z" />
    <glyph glyph-name="q.smcp" unicode="&#xf771;" horiz-adv-x="1359" 
d="M678 -16q-260 0 -441 182t-181 443t180 445q182 184 442 183q260 0 443 -183t184 -444q0 -221 -140 -397l166 -213h-305l-459 604h297l119 -155q39 78 39 161q0 146 -99 248t-243 102t-244 -102q-98 -102 -98 -248t97 -248t243 -102q47 0 80 6l174 -229
q-109 -53 -254 -53z" />
    <glyph glyph-name="r.smcp" unicode="&#xe212;" horiz-adv-x="999" 
d="M477 963h-127v-336h127q94 0 144 51q49 51 49 121q0 164 -193 164zM72 0v1221h426q213 0 337 -120t123 -298q0 -119 -59 -214t-170 -145l264 -444h-317l-326 582v-582h-278z" />
    <glyph glyph-name="r.smcp" unicode="&#xf772;" horiz-adv-x="999" 
d="M477 963h-127v-336h127q94 0 144 51q49 51 49 121q0 164 -193 164zM72 0v1221h426q213 0 337 -120t123 -298q0 -119 -59 -214t-170 -145l264 -444h-317l-326 582v-582h-278z" />
    <glyph glyph-name="s.smcp" unicode="&#xe213;" horiz-adv-x="999" 
d="M492 1239q256 0 432 -190l-226 -175q-76 119 -204 119q-63 0 -101 -30q-37 -31 -37 -79t50 -75t103 -44q54 -17 58 -19t29 -5q25 -4 96 -36q72 -33 131 -73q121 -83 121 -250q0 -166 -120 -282t-324 -116q-291 0 -486 221l246 192q90 -152 240 -151q70 0 112 37t41 80
t-33 69t-99 52q-67 25 -79 24l-20 6q-131 34 -241 109q-111 74 -110 239q1 166 118 272q118 105 303 105z" />
    <glyph glyph-name="s.smcp" unicode="&#xf773;" horiz-adv-x="999" 
d="M492 1239q256 0 432 -190l-226 -175q-76 119 -204 119q-63 0 -101 -30q-37 -31 -37 -79t50 -75t103 -44q54 -17 58 -19t29 -5q25 -4 96 -36q72 -33 131 -73q121 -83 121 -250q0 -166 -120 -282t-324 -116q-291 0 -486 221l246 192q90 -152 240 -151q70 0 112 37t41 80
t-33 69t-99 52q-67 25 -79 24l-20 6q-131 34 -241 109q-111 74 -110 239q1 166 118 272q118 105 303 105z" />
    <glyph glyph-name="t.smcp" unicode="&#xe214;" horiz-adv-x="1009" 
d="M371 0v958h-310v263h887v-263h-305v-958h-272z" />
    <glyph glyph-name="t.smcp" unicode="&#xf774;" horiz-adv-x="1009" 
d="M371 0v958h-310v263h887v-263h-305v-958h-272z" />
    <glyph glyph-name="u.smcp" unicode="&#xe215;" horiz-adv-x="1060" 
d="M530 -16q-210 0 -334 120t-124 338v779h280v-787q0 -88 49 -141t128 -53t129 53t51 141v787h280v-779q0 -218 -124 -338t-335 -120z" />
    <glyph glyph-name="u.smcp" unicode="&#xf775;" horiz-adv-x="1060" 
d="M530 -16q-210 0 -334 120t-124 338v779h280v-787q0 -88 49 -141t128 -53t129 53t51 141v787h280v-779q0 -218 -124 -338t-335 -120z" />
    <glyph glyph-name="v.smcp" unicode="&#xe216;" horiz-adv-x="1148" 
d="M432 0l-395 1221h291l250 -783l243 783h289l-387 -1221h-291z" />
    <glyph glyph-name="v.smcp" unicode="&#xf776;" horiz-adv-x="1148" 
d="M432 0l-395 1221h291l250 -783l243 783h289l-387 -1221h-291z" />
    <glyph glyph-name="w.smcp" unicode="&#xe217;" horiz-adv-x="1738" 
d="M375 0l-338 1221h285l196 -762l217 762h279l215 -764l196 764h281l-338 -1221h-276l-218 776l-217 -776h-282z" />
    <glyph glyph-name="w.smcp" unicode="&#xf777;" horiz-adv-x="1738" 
d="M375 0l-338 1221h285l196 -762l217 762h279l215 -764l196 764h281l-338 -1221h-276l-218 776l-217 -776h-282z" />
    <glyph glyph-name="x.smcp" unicode="&#xe218;" horiz-adv-x="1101" 
d="M770 0l-219 373l-217 -373h-307l368 621l-354 600h307l207 -355l205 355h307l-358 -600l368 -621h-307z" />
    <glyph glyph-name="x.smcp" unicode="&#xf778;" horiz-adv-x="1101" 
d="M770 0l-219 373l-217 -373h-307l368 621l-354 600h307l207 -355l205 355h307l-358 -600l368 -621h-307z" />
    <glyph glyph-name="y.smcp" unicode="&#xe219;" horiz-adv-x="1101" 
d="M412 0v573l-381 648h305l219 -377l219 377h303l-383 -650v-571h-282z" />
    <glyph glyph-name="y.smcp" unicode="&#xf779;" horiz-adv-x="1101" 
d="M412 0v573l-381 648h305l219 -377l219 377h303l-383 -650v-571h-282z" />
    <glyph glyph-name="z.smcp" unicode="&#xe21a;" horiz-adv-x="929" 
d="M61 0v258l480 703h-469v260h796v-252l-485 -709h485v-260h-807z" />
    <glyph glyph-name="z.smcp" unicode="&#xf77a;" horiz-adv-x="929" 
d="M61 0v258l480 703h-469v260h796v-252l-485 -709h485v-260h-807z" />
    <glyph glyph-name="anocross.smcp" unicode="&#xe220;" horiz-adv-x="1189" 
d="M39 0l420 1221h272l420 -1221h-285l-272 819l-272 -819h-283z" />
    <glyph glyph-name="aacute.smcp" unicode="&#xe221;" horiz-adv-x="1189" 
d="M594 819l-125 -377h250zM502 1323l233 348h262l-307 -348h-188zM39 0l420 1221h272l420 -1221h-285l-61 186h-422l-61 -186h-283z" />
    <glyph glyph-name="aacute.smcp" unicode="&#xf7e1;" horiz-adv-x="1189" 
d="M594 819l-125 -377h250zM502 1323l233 348h262l-307 -348h-188zM39 0l420 1221h272l420 -1221h-285l-61 186h-422l-61 -186h-283z" />
    <glyph glyph-name="agrave.smcp" unicode="&#xe222;" horiz-adv-x="1189" 
d="M594 819l-125 -377h250zM508 1323l-307 348h262l233 -348h-188zM39 0l420 1221h272l420 -1221h-285l-61 186h-422l-61 -186h-283z" />
    <glyph glyph-name="agrave.smcp" unicode="&#xf7e0;" horiz-adv-x="1189" 
d="M594 819l-125 -377h250zM508 1323l-307 348h262l233 -348h-188zM39 0l420 1221h272l420 -1221h-285l-61 186h-422l-61 -186h-283z" />
    <glyph glyph-name="acircumflex.smcp" unicode="&#xe223;" horiz-adv-x="1189" 
d="M594 819l-125 -377h250zM264 1323l244 348h174l244 -348h-211l-121 180l-119 -180h-211zM39 0l420 1221h272l420 -1221h-285l-61 186h-422l-61 -186h-283z" />
    <glyph glyph-name="acircumflex.smcp" unicode="&#xf7e2;" horiz-adv-x="1189" 
d="M594 819l-125 -377h250zM264 1323l244 348h174l244 -348h-211l-121 180l-119 -180h-211zM39 0l420 1221h272l420 -1221h-285l-61 186h-422l-61 -186h-283z" />
    <glyph glyph-name="adieresis.smcp" unicode="&#xe224;" horiz-adv-x="1189" 
d="M594 819l-125 -377h250zM264 1323v281h281v-281h-281zM647 1323v281h281v-281h-281zM39 0l420 1221h272l420 -1221h-285l-61 186h-422l-61 -186h-283z" />
    <glyph glyph-name="adieresis.smcp" unicode="&#xf7e4;" horiz-adv-x="1189" 
d="M594 819l-125 -377h250zM264 1323v281h281v-281h-281zM647 1323v281h281v-281h-281zM39 0l420 1221h272l420 -1221h-285l-61 186h-422l-61 -186h-283z" />
    <glyph glyph-name="atilde.smcp" unicode="&#xe225;" horiz-adv-x="1189" 
d="M594 819l-125 -377h250zM244 1323q0 125 57 201t145 76t166 -50q80 -49 109 -49q55 0 55 90h162q0 -129 -55 -203t-145 -73q-90 0 -170 48t-109 48q-53 0 -53 -88h-162zM39 0l420 1221h272l420 -1221h-285l-61 186h-422l-61 -186h-283z" />
    <glyph glyph-name="atilde.smcp" unicode="&#xf7e3;" horiz-adv-x="1189" 
d="M594 819l-125 -377h250zM244 1323q0 125 57 201t145 76t166 -50q80 -49 109 -49q55 0 55 90h162q0 -129 -55 -203t-145 -73q-90 0 -170 48t-109 48q-53 0 -53 -88h-162zM39 0l420 1221h272l420 -1221h-285l-61 186h-422l-61 -186h-283z" />
    <glyph glyph-name="aring.smcp" unicode="&#xe226;" horiz-adv-x="1189" 
d="M593 1270q35 0 59 24t24 57q0 35 -25 59t-59 24t-56 -25q-24 -25 -24 -59t24 -56q24 -24 57 -24zM594 819l-125 -377h250zM354 1344q0 106 70 177t169 71t170 -72q71 -70 71 -174t-86 -179l403 -1167h-285l-61 186h-422l-61 -186h-283l401 1165q-86 73 -86 179z" />
    <glyph glyph-name="aring.smcp" unicode="&#xf7e5;" horiz-adv-x="1189" 
d="M593 1270q35 0 59 24t24 57q0 35 -25 59t-59 24t-56 -25q-24 -25 -24 -59t24 -56q24 -24 57 -24zM594 819l-125 -377h250zM354 1344q0 106 70 177t169 71t170 -72q71 -70 71 -174t-86 -179l403 -1167h-285l-61 186h-422l-61 -186h-283l401 1165q-86 73 -86 179z" />
    <glyph glyph-name="amacron.smcp" unicode="&#xe228;" horiz-adv-x="1189" 
d="M594 819l-125 -377h250zM326 1323v176h540v-176h-540zM39 0l420 1221h272l420 -1221h-285l-61 186h-422l-61 -186h-283z" />
    <glyph glyph-name="amacron.smcp" unicode="&#xf641;" horiz-adv-x="1189" 
d="M594 819l-125 -377h250zM326 1323v176h540v-176h-540zM39 0l420 1221h272l420 -1221h-285l-61 186h-422l-61 -186h-283z" />
    <glyph glyph-name="abreve.smcp" unicode="&#xe229;" horiz-adv-x="1189" 
d="M594 819l-125 -377h250zM922 1655q0 -152 -90 -250t-247 -98t-241 96t-84 252h176q0 -190 154 -197q154 6 153 197h179zM39 0l420 1221h272l420 -1221h-285l-61 186h-422l-61 -186h-283z" />
    <glyph glyph-name="abreve.smcp" unicode="&#xf640;" horiz-adv-x="1189" 
d="M594 819l-125 -377h250zM922 1655q0 -152 -90 -250t-247 -98t-241 96t-84 252h176q0 -190 154 -197q154 6 153 197h179zM39 0l420 1221h272l420 -1221h-285l-61 186h-422l-61 -186h-283z" />
    <glyph glyph-name="aringacute.smcp" unicode="&#xe22d;" horiz-adv-x="1189" 
d="M593 1270q35 0 59 24t24 57q0 35 -25 59t-59 24t-56 -25q-24 -25 -24 -59t24 -56q24 -24 57 -24zM594 819l-125 -377h250zM498 1677l233 348h262l-307 -348h-188zM354 1344q0 106 70 177t169 71t170 -72q71 -70 71 -174t-86 -179l403 -1167h-285l-61 186h-422l-61 -186
h-283l401 1165q-86 73 -86 179z" />
    <glyph glyph-name="aringacute.smcp" unicode="&#xf625;" horiz-adv-x="1189" 
d="M593 1270q35 0 59 24t24 57q0 35 -25 59t-59 24t-56 -25q-24 -25 -24 -59t24 -56q24 -24 57 -24zM594 819l-125 -377h250zM498 1677l233 348h262l-307 -348h-188zM354 1344q0 106 70 177t169 71t170 -72q71 -70 71 -174t-86 -179l403 -1167h-285l-61 186h-422l-61 -186
h-283l401 1165q-86 73 -86 179z" />
    <glyph glyph-name="aogonek.smcp" unicode="&#xe22f;" horiz-adv-x="1189" 
d="M594 819l-125 -377h250zM971 -465q-131 0 -213 65t-82 158q0 141 184 258l-55 170h-422l-61 -186h-283l420 1221h272l420 -1221q-174 -115 -220 -154t-46 -77q0 -61 86 -62q49 0 123 57l163 -110q-57 -51 -135 -85t-151 -34z" />
    <glyph glyph-name="aogonek.smcp" unicode="&#xf642;" horiz-adv-x="1189" 
d="M594 819l-125 -377h250zM971 -465q-131 0 -213 65t-82 158q0 141 184 258l-55 170h-422l-61 -186h-283l420 1221h272l420 -1221q-174 -115 -220 -154t-46 -77q0 -61 86 -62q49 0 123 57l163 -110q-57 -51 -135 -85t-151 -34z" />
    <glyph glyph-name="edieresis.smcp" unicode="&#xe230;" horiz-adv-x="856" 
d="M104 1323v281h281v-281h-281zM487 1323v281h281v-281h-281zM72 0v1221h723v-263h-445v-215h445v-262h-445v-219h445v-262h-723z" />
    <glyph glyph-name="edieresis.smcp" unicode="&#xf7eb;" horiz-adv-x="856" 
d="M104 1323v281h281v-281h-281zM487 1323v281h281v-281h-281zM72 0v1221h723v-263h-445v-215h445v-262h-445v-219h445v-262h-723z" />
    <glyph glyph-name="ae.smcp" unicode="&#xe231;" horiz-adv-x="1603" 
d="M680 793l-162 -365h225zM1542 1221v-263h-610l39 -215h571v-262h-524l39 -219h485v-262h-723l-31 174h-382l-78 -174h-303l555 1221h962z" />
    <glyph glyph-name="ae.smcp" unicode="&#xf7e6;" horiz-adv-x="1603" 
d="M680 793l-162 -365h225zM1542 1221v-263h-610l39 -215h571v-262h-524l39 -219h485v-262h-723l-31 174h-382l-78 -174h-303l555 1221h962z" />
    <glyph glyph-name="aeacute.smcp" unicode="&#xe232;" horiz-adv-x="1603" 
d="M680 793l-162 -365h225zM856 1323l234 348h262l-308 -348h-188zM1542 1221v-263h-610l39 -215h571v-262h-524l39 -219h485v-262h-723l-31 174h-382l-78 -174h-303l555 1221h962z" />
    <glyph glyph-name="aeacute.smcp" unicode="&#xf624;" horiz-adv-x="1603" 
d="M680 793l-162 -365h225zM856 1323l234 348h262l-308 -348h-188zM1542 1221v-263h-610l39 -215h571v-262h-524l39 -219h485v-262h-723l-31 174h-382l-78 -174h-303l555 1221h962z" />
    <glyph glyph-name="cacute.smcp" unicode="&#xe234;" horiz-adv-x="1271" 
d="M588 1323l233 348h262l-307 -348h-188zM686 -16q-276 0 -454 181q-177 181 -177 447t179 446t454 179q170 0 313 -82t226 -219l-242 -152q-43 82 -122 130t-177 49q-152 -1 -249 -103t-97 -250t96 -248q96 -102 244 -102q106 0 184 54t119 147l260 -131
q-81 -158 -225 -252t-332 -94z" />
    <glyph glyph-name="cacute.smcp" unicode="&#xf643;" horiz-adv-x="1271" 
d="M588 1323l233 348h262l-307 -348h-188zM686 -16q-276 0 -454 181q-177 181 -177 447t179 446t454 179q170 0 313 -82t226 -219l-242 -152q-43 82 -122 130t-177 49q-152 -1 -249 -103t-97 -250t96 -248q96 -102 244 -102q106 0 184 54t119 147l260 -131
q-81 -158 -225 -252t-332 -94z" />
    <glyph glyph-name="ccircumflex.smcp" unicode="&#xe235;" horiz-adv-x="1271" 
d="M360 1323l244 348h174l244 -348h-211l-121 180l-119 -180h-211zM686 -16q-276 0 -454 181q-177 181 -177 447t179 446t454 179q170 0 313 -82t226 -219l-242 -152q-43 82 -122 130t-177 49q-152 -1 -249 -103t-97 -250t96 -248q96 -102 244 -102q106 0 184 54t119 147
l260 -131q-81 -158 -225 -252t-332 -94z" />
    <glyph glyph-name="ccircumflex.smcp" unicode="&#xf628;" horiz-adv-x="1271" 
d="M360 1323l244 348h174l244 -348h-211l-121 180l-119 -180h-211zM686 -16q-276 0 -454 181q-177 181 -177 447t179 446t454 179q170 0 313 -82t226 -219l-242 -152q-43 82 -122 130t-177 49q-152 -1 -249 -103t-97 -250t96 -248q96 -102 244 -102q106 0 184 54t119 147
l260 -131q-81 -158 -225 -252t-332 -94z" />
    <glyph glyph-name="ccaron.smcp" unicode="&#xe236;" horiz-adv-x="1271" 
d="M604 1323l-244 348h211l119 -180l121 180h211l-244 -348h-174zM686 -16q-276 0 -454 181q-177 181 -177 447t179 446t454 179q170 0 313 -82t226 -219l-242 -152q-43 82 -122 130t-177 49q-152 -1 -249 -103t-97 -250t96 -248q96 -102 244 -102q106 0 184 54t119 147
l260 -131q-81 -158 -225 -252t-332 -94z" />
    <glyph glyph-name="ccaron.smcp" unicode="&#xf644;" horiz-adv-x="1271" 
d="M604 1323l-244 348h211l119 -180l121 180h211l-244 -348h-174zM686 -16q-276 0 -454 181q-177 181 -177 447t179 446t454 179q170 0 313 -82t226 -219l-242 -152q-43 82 -122 130t-177 49q-152 -1 -249 -103t-97 -250t96 -248q96 -102 244 -102q106 0 184 54t119 147
l260 -131q-81 -158 -225 -252t-332 -94z" />
    <glyph glyph-name="cdotaccent.smcp" unicode="&#xe237;" horiz-adv-x="1271" 
d="M551 1323v281h280v-281h-280zM686 -16q-276 0 -454 181q-177 181 -177 447t179 446t454 179q170 0 313 -82t226 -219l-242 -152q-43 82 -122 130t-177 49q-152 -1 -249 -103t-97 -250t96 -248q96 -102 244 -102q106 0 184 54t119 147l260 -131q-81 -158 -225 -252
t-332 -94z" />
    <glyph glyph-name="cdotaccent.smcp" unicode="&#xf629;" horiz-adv-x="1271" 
d="M551 1323v281h280v-281h-280zM686 -16q-276 0 -454 181q-177 181 -177 447t179 446t454 179q170 0 313 -82t226 -219l-242 -152q-43 82 -122 130t-177 49q-152 -1 -249 -103t-97 -250t96 -248q96 -102 244 -102q106 0 184 54t119 147l260 -131q-81 -158 -225 -252
t-332 -94z" />
    <glyph glyph-name="ccedilla.smcp" unicode="&#xe238;" horiz-adv-x="1271" 
d="M656 -492q-148 0 -283 121l159 97q86 -68 144 -68t90 17q33 17 33 44q0 55 -117 56h-104v217q-233 35 -378 208q-144 174 -144 426t178 432q179 180 454 179q170 0 313 -82t226 -219l-242 -152q-43 82 -122 130t-177 49q-152 -1 -249 -103t-97 -250t96 -248
q96 -102 244 -102q106 0 184 54t119 147l260 -131q-162 -311 -491 -342v-97q113 4 174 -41q61 -44 61 -130t-92 -149q-91 -63 -239 -63z" />
    <glyph glyph-name="ccedilla.smcp" unicode="&#xf7e7;" horiz-adv-x="1271" 
d="M656 -492q-148 0 -283 121l159 97q86 -68 144 -68t90 17q33 17 33 44q0 55 -117 56h-104v217q-233 35 -378 208q-144 174 -144 426t178 432q179 180 454 179q170 0 313 -82t226 -219l-242 -152q-43 82 -122 130t-177 49q-152 -1 -249 -103t-97 -250t96 -248
q96 -102 244 -102q106 0 184 54t119 147l260 -131q-162 -311 -491 -342v-97q113 4 174 -41q61 -44 61 -130t-92 -149q-91 -63 -239 -63z" />
    <glyph glyph-name="dcaron.smcp" unicode="&#xe239;" horiz-adv-x="1122" 
d="M416 1323l-244 348h211l119 -180l121 180h211l-244 -348h-174zM414 961h-64v-701h72q164 0 264 100t100 253t-98 251t-274 97zM72 0v1221h358q287 0 462 -173q175 -172 175 -436t-179 -438t-452 -174h-364z" />
    <glyph glyph-name="dcaron.smcp" unicode="&#xf645;" horiz-adv-x="1122" 
d="M416 1323l-244 348h211l119 -180l121 180h211l-244 -348h-174zM414 961h-64v-701h72q164 0 264 100t100 253t-98 251t-274 97zM72 0v1221h358q287 0 462 -173q175 -172 175 -436t-179 -438t-452 -174h-364z" />
    <glyph glyph-name="dcroat.smcp" unicode="&#xe23c;" horiz-adv-x="1196" 
d="M664 496h-240v-236h70q164 0 264 99t100 253t-97 251t-274 98h-63v-236h240v-229zM41 496v229h102v496h361q285 0 461 -173q176 -172 176 -436t-179 -438t-452 -174h-367v496h-102z" />
    <glyph glyph-name="dcroat.smcp" unicode="&#xf646;" horiz-adv-x="1196" 
d="M664 496h-240v-236h70q164 0 264 99t100 253t-97 251t-274 98h-63v-236h240v-229zM41 496v229h102v496h361q285 0 461 -173q176 -172 176 -436t-179 -438t-452 -174h-367v496h-102z" />
    <glyph glyph-name="eacute.smcp" unicode="&#xe23d;" horiz-adv-x="856" 
d="M328 1323l233 348h262l-307 -348h-188zM72 0v1221h723v-263h-445v-215h445v-262h-445v-219h445v-262h-723z" />
    <glyph glyph-name="eacute.smcp" unicode="&#xf7e9;" horiz-adv-x="856" 
d="M328 1323l233 348h262l-307 -348h-188zM72 0v1221h723v-263h-445v-215h445v-262h-445v-219h445v-262h-723z" />
    <glyph glyph-name="egrave.smcp" unicode="&#xe23e;" horiz-adv-x="856" 
d="M385 1323l-307 348h262l233 -348h-188zM72 0v1221h723v-263h-445v-215h445v-262h-445v-219h445v-262h-723z" />
    <glyph glyph-name="egrave.smcp" unicode="&#xf7e8;" horiz-adv-x="856" 
d="M385 1323l-307 348h262l233 -348h-188zM72 0v1221h723v-263h-445v-215h445v-262h-445v-219h445v-262h-723z" />
    <glyph glyph-name="ecircumflex.smcp" unicode="&#xe23f;" horiz-adv-x="856" 
d="M109 1323l243 348h174l244 -348h-211l-121 180l-119 -180h-210zM72 0v1221h723v-263h-445v-215h445v-262h-445v-219h445v-262h-723z" />
    <glyph glyph-name="ecircumflex.smcp" unicode="&#xf7ea;" horiz-adv-x="856" 
d="M109 1323l243 348h174l244 -348h-211l-121 180l-119 -180h-210zM72 0v1221h723v-263h-445v-215h445v-262h-445v-219h445v-262h-723z" />
    <glyph glyph-name="gcommaaccent.smcp" unicode="&#xe240;" horiz-adv-x="1316" 
d="M655 -510h-174l70 418h248zM666 -16q-274 0 -450 182q-175 182 -175 446t177 444t450 181q186 0 329 -83t226 -222l-246 -139q-92 176 -307 176q-146 -1 -248 -103t-102 -258t100 -257t256 -101q110 0 186 53t107 150h-348v262h651v-129q0 -250 -166 -426t-440 -176z" />
    <glyph glyph-name="gcommaaccent.smcp" unicode="&#xf64c;" horiz-adv-x="1316" 
d="M655 -510h-174l70 418h248zM666 -16q-274 0 -450 182q-175 182 -175 446t177 444t450 181q186 0 329 -83t226 -222l-246 -139q-92 176 -307 176q-146 -1 -248 -103t-102 -258t100 -257t256 -101q110 0 186 53t107 150h-348v262h651v-129q0 -250 -166 -426t-440 -176z" />
    <glyph glyph-name="ecaron.smcp" unicode="&#xe241;" horiz-adv-x="856" 
d="M360 1323l-243 348h211l118 -180l121 180h211l-243 -348h-175zM72 0v1221h723v-263h-445v-215h445v-262h-445v-219h445v-262h-723z" />
    <glyph glyph-name="ecaron.smcp" unicode="&#xf647;" horiz-adv-x="856" 
d="M360 1323l-243 348h211l118 -180l121 180h211l-243 -348h-175zM72 0v1221h723v-263h-445v-215h445v-262h-445v-219h445v-262h-723z" />
    <glyph glyph-name="emacron.smcp" unicode="&#xe242;" horiz-adv-x="856" 
d="M170 1323v176h541v-176h-541zM72 0v1221h723v-263h-445v-215h445v-262h-445v-219h445v-262h-723z" />
    <glyph glyph-name="emacron.smcp" unicode="&#xf649;" horiz-adv-x="856" 
d="M170 1323v176h541v-176h-541zM72 0v1221h723v-263h-445v-215h445v-262h-445v-219h445v-262h-723z" />
    <glyph glyph-name="ebreve.smcp" unicode="&#xe243;" horiz-adv-x="856" 
d="M788 1655q0 -152 -90 -250t-246 -98q-157 0 -241 96t-84 252h176q0 -190 154 -197q154 6 153 197h178zM72 0v1221h723v-263h-445v-215h445v-262h-445v-219h445v-262h-723z" />
    <glyph glyph-name="ebreve.smcp" unicode="&#xf62a;" horiz-adv-x="856" 
d="M788 1655q0 -152 -90 -250t-246 -98q-157 0 -241 96t-84 252h176q0 -190 154 -197q154 6 153 197h178zM72 0v1221h723v-263h-445v-215h445v-262h-445v-219h445v-262h-723z" />
    <glyph glyph-name="edotaccent.smcp" unicode="&#xe246;" horiz-adv-x="856" 
d="M297 1323v281h281v-281h-281zM72 0v1221h723v-263h-445v-215h445v-262h-445v-219h445v-262h-723z" />
    <glyph glyph-name="edotaccent.smcp" unicode="&#xf648;" horiz-adv-x="856" 
d="M297 1323v281h281v-281h-281zM72 0v1221h723v-263h-445v-215h445v-262h-445v-219h445v-262h-723z" />
    <glyph glyph-name="eogonek.smcp" unicode="&#xe249;" horiz-adv-x="856" 
d="M72 0v1221h723v-263h-445v-215h445v-262h-445v-219h445v-262q-175 -115 -221 -154t-46 -77q0 -61 86 -62q49 0 123 57l164 -110q-57 -51 -136 -85t-151 -34q-131 0 -213 65t-82 158q0 131 158 242h-405z" />
    <glyph glyph-name="eogonek.smcp" unicode="&#xf64a;" horiz-adv-x="856" 
d="M72 0v1221h723v-263h-445v-215h445v-262h-445v-219h445v-262q-175 -115 -221 -154t-46 -77q0 -61 86 -62q49 0 123 57l164 -110q-57 -51 -136 -85t-151 -34q-131 0 -213 65t-82 158q0 131 158 242h-405z" />
    <glyph glyph-name="gcircumflex.smcp" unicode="&#xe24b;" horiz-adv-x="1316" 
d="M348 1323l244 348h174l244 -348h-211l-121 180l-119 -180h-211zM666 -16q-274 0 -450 182q-175 182 -175 446t177 444t450 181q186 0 329 -83t226 -222l-246 -139q-92 176 -307 176q-146 -1 -248 -103t-102 -258t100 -257t256 -101q110 0 186 53t107 150h-348v262h651
v-129q0 -250 -166 -426t-440 -176z" />
    <glyph glyph-name="gcircumflex.smcp" unicode="&#xf62c;" horiz-adv-x="1316" 
d="M348 1323l244 348h174l244 -348h-211l-121 180l-119 -180h-211zM666 -16q-274 0 -450 182q-175 182 -175 446t177 444t450 181q186 0 329 -83t226 -222l-246 -139q-92 176 -307 176q-146 -1 -248 -103t-102 -258t100 -257t256 -101q110 0 186 53t107 150h-348v262h651
v-129q0 -250 -166 -426t-440 -176z" />
    <glyph glyph-name="gbreve.smcp" unicode="&#xe24e;" horiz-adv-x="1316" 
d="M673 1307q-157 0 -241 96t-84 252h176q0 -190 154 -197q154 6 153 197h179q0 -152 -90 -250t-247 -98zM666 -16q-274 0 -450 182q-175 182 -175 446t177 444t450 181q186 0 329 -83t226 -222l-246 -139q-92 176 -307 176q-146 -1 -248 -103t-102 -258t100 -257t256 -101
q110 0 186 53t107 150h-348v262h651v-129q0 -250 -166 -426t-440 -176z" />
    <glyph glyph-name="gbreve.smcp" unicode="&#xf64b;" horiz-adv-x="1316" 
d="M673 1307q-157 0 -241 96t-84 252h176q0 -190 154 -197q154 6 153 197h179q0 -152 -90 -250t-247 -98zM666 -16q-274 0 -450 182q-175 182 -175 446t177 444t450 181q186 0 329 -83t226 -222l-246 -139q-92 176 -307 176q-146 -1 -248 -103t-102 -258t100 -257t256 -101
q110 0 186 53t107 150h-348v262h651v-129q0 -250 -166 -426t-440 -176z" />
    <glyph glyph-name="gdotaccent.smcp" unicode="&#xe24f;" horiz-adv-x="1316" 
d="M537 1323v281h280v-281h-280zM666 -16q-274 0 -450 182q-175 182 -175 446t177 444t450 181q186 0 329 -83t226 -222l-246 -139q-92 176 -307 176q-146 -1 -248 -103t-102 -258t100 -257t256 -101q110 0 186 53t107 150h-348v262h651v-129q0 -250 -166 -426t-440 -176z
" />
    <glyph glyph-name="gdotaccent.smcp" unicode="&#xf62d;" horiz-adv-x="1316" 
d="M537 1323v281h280v-281h-280zM666 -16q-274 0 -450 182q-175 182 -175 446t177 444t450 181q186 0 329 -83t226 -222l-246 -139q-92 176 -307 176q-146 -1 -248 -103t-102 -258t100 -257t256 -101q110 0 186 53t107 150h-348v262h651v-129q0 -250 -166 -426t-440 -176z
" />
    <glyph glyph-name="hcircumflex.smcp" unicode="&#xe253;" horiz-adv-x="1075" 
d="M209 1323l244 348h174l243 -348h-211l-120 180l-119 -180h-211zM723 0v475h-371v-475h-280v1221h280v-469h371v469h281v-1221h-281z" />
    <glyph glyph-name="hcircumflex.smcp" unicode="&#xf62f;" horiz-adv-x="1075" 
d="M209 1323l244 348h174l243 -348h-211l-120 180l-119 -180h-211zM723 0v475h-371v-475h-280v1221h280v-469h371v469h281v-1221h-281z" />
    <glyph glyph-name="hbar.smcp" unicode="&#xe257;" horiz-adv-x="1116" 
d="M373 825v-114h370v114h-370zM743 0v434h-370v-434h-281v825h-72v277h72v119h281v-119h370v119h281v-119h70v-277h-70v-825h-281z" />
    <glyph glyph-name="hbar.smcp" unicode="&#xf62e;" horiz-adv-x="1116" 
d="M373 825v-114h370v114h-370zM743 0v434h-370v-434h-281v825h-72v277h72v119h281v-119h370v119h281v-119h70v-277h-70v-825h-281z" />
    <glyph glyph-name="iacute.smcp" unicode="&#xe258;" horiz-adv-x="446" 
d="M82 0v1221h283v-1221h-283zM125 1323l233 348h263l-308 -348h-188z" />
    <glyph glyph-name="iacute.smcp" unicode="&#xf7ed;" horiz-adv-x="446" 
d="M82 0v1221h283v-1221h-283zM125 1323l233 348h263l-308 -348h-188z" />
    <glyph glyph-name="igrave.smcp" unicode="&#xe259;" horiz-adv-x="446" 
d="M82 0v1221h283v-1221h-283zM137 1323l-307 348h262l234 -348h-189z" />
    <glyph glyph-name="igrave.smcp" unicode="&#xf7ec;" horiz-adv-x="446" 
d="M82 0v1221h283v-1221h-283zM137 1323l-307 348h262l234 -348h-189z" />
    <glyph glyph-name="icircumflex.smcp" unicode="&#xe25a;" horiz-adv-x="446" 
d="M-86 1323l244 348h174l243 -348h-210l-121 180l-119 -180h-211zM82 0v1221h283v-1221h-283z" />
    <glyph glyph-name="icircumflex.smcp" unicode="&#xf7ee;" horiz-adv-x="446" 
d="M-86 1323l244 348h174l243 -348h-210l-121 180l-119 -180h-211zM82 0v1221h283v-1221h-283z" />
    <glyph glyph-name="idieresis.smcp" unicode="&#xe25b;" horiz-adv-x="446" 
d="M82 0v1221h283v-1221h-283zM-133 1323v281h280v-281h-280zM342 1323v281h281v-281h-281z" />
    <glyph glyph-name="idieresis.smcp" unicode="&#xf7ef;" horiz-adv-x="446" 
d="M82 0v1221h283v-1221h-283zM-133 1323v281h280v-281h-280zM342 1323v281h281v-281h-281z" />
    <glyph glyph-name="itilde.smcp" unicode="&#xe25c;" horiz-adv-x="446" 
d="M82 0v1221h283v-1221h-283zM-106 1323q0 125 57 201t145 76t166 -50q80 -49 109 -49q55 0 55 90h162q0 -129 -56 -203t-144 -73q-90 0 -170 48t-109 48q-53 0 -54 -88h-161z" />
    <glyph glyph-name="itilde.smcp" unicode="&#xf632;" horiz-adv-x="446" 
d="M82 0v1221h283v-1221h-283zM-106 1323q0 125 57 201t145 76t166 -50q80 -49 109 -49q55 0 55 90h162q0 -129 -56 -203t-144 -73q-90 0 -170 48t-109 48q-53 0 -54 -88h-161z" />
    <glyph glyph-name="imacron.smcp" unicode="&#xe25e;" horiz-adv-x="446" 
d="M82 0v1221h283v-1221h-283zM-49 1323v176h541v-176h-541z" />
    <glyph glyph-name="imacron.smcp" unicode="&#xf64d;" horiz-adv-x="446" 
d="M82 0v1221h283v-1221h-283zM-49 1323v176h541v-176h-541z" />
    <glyph glyph-name="ibreve.smcp" unicode="&#xe25f;" horiz-adv-x="446" 
d="M82 0v1221h283v-1221h-283zM218 1307q-157 0 -241 96t-83 252h176q0 -190 153 -197q154 6 154 197h178q0 -152 -90 -250t-247 -98z" />
    <glyph glyph-name="ibreve.smcp" unicode="&#xf630;" horiz-adv-x="446" 
d="M82 0v1221h283v-1221h-283zM218 1307q-157 0 -241 96t-83 252h176q0 -190 153 -197q154 6 154 197h178q0 -152 -90 -250t-247 -98z" />
    <glyph glyph-name="idotaccent.smcp" unicode="&#xe262;" horiz-adv-x="446" 
d="M84 1323v281h281v-281h-281zM82 0v1221h283v-1221h-283z" />
    <glyph glyph-name="idotaccent.smcp" unicode="&#xf666;" horiz-adv-x="446" 
d="M84 1323v281h281v-281h-281zM82 0v1221h283v-1221h-283z" />
    <glyph glyph-name="iogonek.smcp" unicode="&#xe264;" horiz-adv-x="446" 
d="M213 -471q-117 0 -193 62t-77 159q-2 137 139 256v1215h283v-1221q-109 -66 -163 -126t-55 -101q0 -68 76 -68q51 0 103 64l163 -113q-120 -127 -276 -127z" />
    <glyph glyph-name="iogonek.smcp" unicode="&#xf64e;" horiz-adv-x="446" 
d="M213 -471q-117 0 -193 62t-77 159q-2 137 139 256v1215h283v-1221q-109 -66 -163 -126t-55 -101q0 -68 76 -68q51 0 103 64l163 -113q-120 -127 -276 -127z" />
    <glyph glyph-name="jcircumflex.smcp" unicode="&#xe265;" horiz-adv-x="890" 
d="M346 1323l244 348h174l244 -348h-211l-121 180l-119 -180h-211zM451 -16q-171 0 -274 72t-140 198l268 104q27 -117 125 -116q51 0 79 34t28 91v854h282v-836q0 -190 -98 -296q-99 -105 -270 -105z" />
    <glyph glyph-name="jcircumflex.smcp" unicode="&#xf633;" horiz-adv-x="890" 
d="M346 1323l244 348h174l244 -348h-211l-121 180l-119 -180h-211zM451 -16q-171 0 -274 72t-140 198l268 104q27 -117 125 -116q51 0 79 34t28 91v854h282v-836q0 -190 -98 -296q-99 -105 -270 -105z" />
    <glyph glyph-name="kcommaaccent.smcp" unicode="&#xe268;" horiz-adv-x="1071" 
d="M520 -500h-174l70 418h248zM352 0h-280v1221h280v-453l342 453h332l-369 -482l398 -739h-316l-282 535l-105 -142v-393z" />
    <glyph glyph-name="kcommaaccent.smcp" unicode="&#xf64f;" horiz-adv-x="1071" 
d="M520 -500h-174l70 418h248zM352 0h-280v1221h280v-453l342 453h332l-369 -482l398 -739h-316l-282 535l-105 -142v-393z" />
    <glyph glyph-name="lacute.smcp" unicode="&#xe26b;" horiz-adv-x="813" 
d="M113 1323l233 348h262l-307 -348h-188zM72 0v1221h280v-953h406v-268h-686z" />
    <glyph glyph-name="lacute.smcp" unicode="&#xf650;" horiz-adv-x="813" 
d="M113 1323l233 348h262l-307 -348h-188zM72 0v1221h280v-953h406v-268h-686z" />
    <glyph glyph-name="lcaron.smcp" unicode="&#xe26c;" horiz-adv-x="813" 
d="M498 872l49 349h227l-102 -349h-174zM72 0v1221h280v-953h406v-268h-686z" />
    <glyph glyph-name="lcaron.smcp" unicode="&#xf651;" horiz-adv-x="813" 
d="M498 872l49 349h227l-102 -349h-174zM72 0v1221h280v-953h406v-268h-686z" />
    <glyph glyph-name="lcommaaccent.smcp" unicode="&#xe26d;" horiz-adv-x="813" 
d="M397 -520h-174l70 418h248zM72 0v1221h280v-953h406v-268h-686z" />
    <glyph glyph-name="lcommaaccent.smcp" unicode="&#xf652;" horiz-adv-x="813" 
d="M397 -520h-174l70 418h248zM72 0v1221h280v-953h406v-268h-686z" />
    <glyph glyph-name="ldot.smcp" unicode="&#xe271;" horiz-adv-x="811" 
d="M475 504v280h281v-280h-281zM72 0v1221h280v-953h404v-268h-684z" />
    <glyph glyph-name="ldot.smcp" unicode="&#xf634;" horiz-adv-x="811" 
d="M475 504v280h281v-280h-281zM72 0v1221h280v-953h404v-268h-684z" />
    <glyph glyph-name="lslash.smcp" unicode="&#xe272;" horiz-adv-x="884" 
d="M143 1221h281v-435l270 80v-202l-270 -80v-316h405v-268h-686v504l-118 -35v203l118 35v514z" />
    <glyph glyph-name="lslash.smcp" unicode="&#xf6f9;" horiz-adv-x="884" 
d="M143 1221h281v-435l270 80v-202l-270 -80v-316h405v-268h-686v504l-118 -35v203l118 35v514z" />
    <glyph glyph-name="nacute.smcp" unicode="&#xe276;" horiz-adv-x="1179" 
d="M506 1323l233 348h262l-307 -348h-188zM72 0v1221h303l454 -721v721h279v-1221h-281l-477 754v-754h-278z" />
    <glyph glyph-name="nacute.smcp" unicode="&#xf653;" horiz-adv-x="1179" 
d="M506 1323l233 348h262l-307 -348h-188zM72 0v1221h303l454 -721v721h279v-1221h-281l-477 754v-754h-278z" />
    <glyph glyph-name="ntilde.smcp" unicode="&#xe279;" horiz-adv-x="1179" 
d="M252 1323q0 125 57 201t145 76t167 -50q80 -49 108 -49q55 0 55 90h162q0 -129 -55 -203t-145 -73q-90 0 -170 48t-109 48q-53 0 -53 -88h-162zM72 0v1221h303l454 -721v721h279v-1221h-281l-477 754v-754h-278z" />
    <glyph glyph-name="ncaron.smcp" unicode="&#xe27a;" horiz-adv-x="1179" 
d="M516 1307l-244 348h211l119 -180l121 180h211l-244 -348h-174zM72 0v1221h303l454 -721v721h279v-1221h-281l-477 754v-754h-278z" />
    <glyph glyph-name="ncaron.smcp" unicode="&#xf654;" horiz-adv-x="1179" 
d="M516 1307l-244 348h211l119 -180l121 180h211l-244 -348h-174zM72 0v1221h303l454 -721v721h279v-1221h-281l-477 754v-754h-278z" />
    <glyph glyph-name="ncommaaccent.smcp" unicode="&#xe27d;" horiz-adv-x="1179" 
d="M590 -520h-174l69 418h248zM72 0v1221h303l454 -721v721h279v-1221h-281l-477 754v-754h-278z" />
    <glyph glyph-name="ncommaaccent.smcp" unicode="&#xf655;" horiz-adv-x="1179" 
d="M590 -520h-174l69 418h248zM72 0v1221h303l454 -721v721h279v-1221h-281l-477 754v-754h-278z" />
    <glyph glyph-name="oacute.smcp" unicode="&#xe281;" horiz-adv-x="1331" 
d="M565 1323l234 348h262l-307 -348h-189zM665 260q146 0 244 102q99 102 99 248t-100 248t-243 102q-145 0 -243 -102t-98 -248t97 -248q98 -102 244 -102zM665 -16q-261 0 -443 182q-181 182 -181 443t181 445q182 184 442 183q260 0 443 -183q183 -182 183 -444
t-182 -444t-443 -182z" />
    <glyph glyph-name="oacute.smcp" unicode="&#xf7f3;" horiz-adv-x="1331" 
d="M565 1323l234 348h262l-307 -348h-189zM665 260q146 0 244 102q99 102 99 248t-100 248t-243 102q-145 0 -243 -102t-98 -248t97 -248q98 -102 244 -102zM665 -16q-261 0 -443 182q-181 182 -181 443t181 445q182 184 442 183q260 0 443 -183q183 -182 183 -444
t-182 -444t-443 -182z" />
    <glyph glyph-name="ograve.smcp" unicode="&#xe282;" horiz-adv-x="1331" 
d="M600 1323l-307 348h262l233 -348h-188zM665 260q146 0 244 102q99 102 99 248t-100 248t-243 102q-145 0 -243 -102t-98 -248t97 -248q98 -102 244 -102zM665 -16q-261 0 -443 182q-181 182 -181 443t181 445q182 184 442 183q260 0 443 -183q183 -182 183 -444
t-182 -444t-443 -182z" />
    <glyph glyph-name="ograve.smcp" unicode="&#xf7f2;" horiz-adv-x="1331" 
d="M600 1323l-307 348h262l233 -348h-188zM665 260q146 0 244 102q99 102 99 248t-100 248t-243 102q-145 0 -243 -102t-98 -248t97 -248q98 -102 244 -102zM665 -16q-261 0 -443 182q-181 182 -181 443t181 445q182 184 442 183q260 0 443 -183q183 -182 183 -444
t-182 -444t-443 -182z" />
    <glyph glyph-name="ocircumflex.smcp" unicode="&#xe283;" horiz-adv-x="1331" 
d="M334 1323l244 348h174l243 -348h-211l-120 180l-119 -180h-211zM665 260q146 0 244 102q99 102 99 248t-100 248t-243 102q-145 0 -243 -102t-98 -248t97 -248q98 -102 244 -102zM665 -16q-261 0 -443 182q-181 182 -181 443t181 445q182 184 442 183q260 0 443 -183
q183 -182 183 -444t-182 -444t-443 -182z" />
    <glyph glyph-name="ocircumflex.smcp" unicode="&#xf7f4;" horiz-adv-x="1331" 
d="M334 1323l244 348h174l243 -348h-211l-120 180l-119 -180h-211zM665 260q146 0 244 102q99 102 99 248t-100 248t-243 102q-145 0 -243 -102t-98 -248t97 -248q98 -102 244 -102zM665 -16q-261 0 -443 182q-181 182 -181 443t181 445q182 184 442 183q260 0 443 -183
q183 -182 183 -444t-182 -444t-443 -182z" />
    <glyph glyph-name="odieresis.smcp" unicode="&#xe284;" horiz-adv-x="1331" 
d="M334 1323v281h280v-281h-280zM717 1323v281h280v-281h-280zM665 260q146 0 244 102q99 102 99 248t-100 248t-243 102q-145 0 -243 -102t-98 -248t97 -248q98 -102 244 -102zM665 -16q-261 0 -443 182q-181 182 -181 443t181 445q182 184 442 183q260 0 443 -183
q183 -182 183 -444t-182 -444t-443 -182z" />
    <glyph glyph-name="odieresis.smcp" unicode="&#xf7f6;" horiz-adv-x="1331" 
d="M334 1323v281h280v-281h-280zM717 1323v281h280v-281h-280zM665 260q146 0 244 102q99 102 99 248t-100 248t-243 102q-145 0 -243 -102t-98 -248t97 -248q98 -102 244 -102zM665 -16q-261 0 -443 182q-181 182 -181 443t181 445q182 184 442 183q260 0 443 -183
q183 -182 183 -444t-182 -444t-443 -182z" />
    <glyph glyph-name="otilde.smcp" unicode="&#xe285;" horiz-adv-x="1331" 
d="M340 1323q0 125 57 201t145 76t167 -50q80 -49 108 -49q55 0 55 90h162q0 -129 -55 -203t-145 -73q-90 0 -170 48t-109 48q-53 0 -53 -88h-162zM665 260q146 0 244 102q99 102 99 248t-100 248t-243 102q-145 0 -243 -102t-98 -248t97 -248q98 -102 244 -102zM665 -16
q-261 0 -443 182q-181 182 -181 443t181 445q182 184 442 183q260 0 443 -183q183 -182 183 -444t-182 -444t-443 -182z" />
    <glyph glyph-name="otilde.smcp" unicode="&#xf7f5;" horiz-adv-x="1331" 
d="M340 1323q0 125 57 201t145 76t167 -50q80 -49 108 -49q55 0 55 90h162q0 -129 -55 -203t-145 -73q-90 0 -170 48t-109 48q-53 0 -53 -88h-162zM665 260q146 0 244 102q99 102 99 248t-100 248t-243 102q-145 0 -243 -102t-98 -248t97 -248q98 -102 244 -102zM665 -16
q-261 0 -443 182q-181 182 -181 443t181 445q182 184 442 183q260 0 443 -183q183 -182 183 -444t-182 -444t-443 -182z" />
    <glyph glyph-name="omacron.smcp" unicode="&#xe287;" horiz-adv-x="1331" 
d="M393 1323v176h541v-176h-541zM665 260q146 0 244 102q99 102 99 248t-100 248t-243 102q-145 0 -243 -102t-98 -248t97 -248q98 -102 244 -102zM665 -16q-261 0 -443 182q-181 182 -181 443t181 445q182 184 442 183q260 0 443 -183q183 -182 183 -444t-182 -444
t-443 -182z" />
    <glyph glyph-name="omacron.smcp" unicode="&#xf657;" horiz-adv-x="1331" 
d="M393 1323v176h541v-176h-541zM665 260q146 0 244 102q99 102 99 248t-100 248t-243 102q-145 0 -243 -102t-98 -248t97 -248q98 -102 244 -102zM665 -16q-261 0 -443 182q-181 182 -181 443t181 445q182 184 442 183q260 0 443 -183q183 -182 183 -444t-182 -444
t-443 -182z" />
    <glyph glyph-name="obreve.smcp" unicode="&#xe288;" horiz-adv-x="1331" 
d="M995 1655q1 -152 -89 -250t-247 -98t-241 96t-84 252h176q0 -190 154 -197q154 6 153 197h178zM665 260q146 0 244 102q99 102 99 248t-100 248t-243 102q-145 0 -243 -102t-98 -248t97 -248q98 -102 244 -102zM665 -16q-261 0 -443 182q-181 182 -181 443t181 445
q182 184 442 183q260 0 443 -183q183 -182 183 -444t-182 -444t-443 -182z" />
    <glyph glyph-name="obreve.smcp" unicode="&#xf635;" horiz-adv-x="1331" 
d="M995 1655q1 -152 -89 -250t-247 -98t-241 96t-84 252h176q0 -190 154 -197q154 6 153 197h178zM665 260q146 0 244 102q99 102 99 248t-100 248t-243 102q-145 0 -243 -102t-98 -248t97 -248q98 -102 244 -102zM665 -16q-261 0 -443 182q-181 182 -181 443t181 445
q182 184 442 183q260 0 443 -183q183 -182 183 -444t-182 -444t-443 -182z" />
    <glyph glyph-name="ohungarumlaut.smcp" unicode="&#xe28a;" horiz-adv-x="1331" 
d="M735 1317l234 348h248l-308 -348h-174zM393 1317l234 348h247l-307 -348h-174zM665 260q146 0 244 102q99 102 99 248t-100 248t-243 102q-145 0 -243 -102t-98 -248t97 -248q98 -102 244 -102zM665 -16q-261 0 -443 182q-181 182 -181 443t181 445q182 184 442 183
q260 0 443 -183q183 -182 183 -444t-182 -444t-443 -182z" />
    <glyph glyph-name="ohungarumlaut.smcp" unicode="&#xf656;" horiz-adv-x="1331" 
d="M735 1317l234 348h248l-308 -348h-174zM393 1317l234 348h247l-307 -348h-174zM665 260q146 0 244 102q99 102 99 248t-100 248t-243 102q-145 0 -243 -102t-98 -248t97 -248q98 -102 244 -102zM665 -16q-261 0 -443 182q-181 182 -181 443t181 445q182 184 442 183
q260 0 443 -183q183 -182 183 -444t-182 -444t-443 -182z" />
    <glyph glyph-name="oslash.smcp" unicode="&#xe295;" horiz-adv-x="1331" 
d="M664 260q147 0 245 102t99 248q0 88 -43 170l-414 -501q52 -19 113 -19zM324 610q0 -92 43 -174l417 502q-57 23 -120 23q-144 0 -242 -103t-98 -248zM664 -16q-160 0 -297 73l-48 -57h-313l174 211q-139 171 -139 415t181 428t442 183q160 0 303 -78l51 62h313
l-180 -217q139 -176 139 -394q0 -262 -182 -444t-444 -182z" />
    <glyph glyph-name="oslash.smcp" unicode="&#xf7f8;" horiz-adv-x="1331" 
d="M664 260q147 0 245 102t99 248q0 88 -43 170l-414 -501q52 -19 113 -19zM324 610q0 -92 43 -174l417 502q-57 23 -120 23q-144 0 -242 -103t-98 -248zM664 -16q-160 0 -297 73l-48 -57h-313l174 211q-139 171 -139 415t181 428t442 183q160 0 303 -78l51 62h313
l-180 -217q139 -176 139 -394q0 -262 -182 -444t-444 -182z" />
    <glyph glyph-name="oslashacute.smcp" unicode="&#xe296;" horiz-adv-x="1331" 
d="M553 1323l233 348h263l-308 -348h-188zM664 260q147 0 245 102t99 248q0 88 -43 170l-414 -501q52 -19 113 -19zM324 610q0 -92 43 -174l417 502q-57 23 -120 23q-144 0 -242 -103t-98 -248zM664 -16q-160 0 -297 73l-48 -57h-313l174 211q-139 171 -139 415t181 428
t442 183q160 0 303 -78l51 62h313l-180 -217q139 -176 139 -394q0 -262 -182 -444t-444 -182z" />
    <glyph glyph-name="oslashacute.smcp" unicode="&#xf627;" horiz-adv-x="1331" 
d="M553 1323l233 348h263l-308 -348h-188zM664 260q147 0 245 102t99 248q0 88 -43 170l-414 -501q52 -19 113 -19zM324 610q0 -92 43 -174l417 502q-57 23 -120 23q-144 0 -242 -103t-98 -248zM664 -16q-160 0 -297 73l-48 -57h-313l174 211q-139 171 -139 415t181 428
t442 183q160 0 303 -78l51 62h313l-180 -217q139 -176 139 -394q0 -262 -182 -444t-444 -182z" />
    <glyph glyph-name="oe.smcp" unicode="&#xe298;" horiz-adv-x="1800" 
d="M665 260q146 0 244 102q99 102 99 248t-100 248t-243 102q-145 0 -243 -102t-98 -248t97 -248q98 -102 244 -102zM1016 0v104q-150 -121 -352 -120q-260 0 -442 182q-181 182 -181 443t181 445t442 183q203 0 352 -123v107h723v-263h-445v-215h445v-262h-445v-219h445
v-262h-723z" />
    <glyph glyph-name="oe.smcp" unicode="&#xf6fa;" horiz-adv-x="1800" 
d="M665 260q146 0 244 102q99 102 99 248t-100 248t-243 102q-145 0 -243 -102t-98 -248t97 -248q98 -102 244 -102zM1016 0v104q-150 -121 -352 -120q-260 0 -442 182q-181 182 -181 443t181 445t442 183q203 0 352 -123v107h723v-263h-445v-215h445v-262h-445v-219h445
v-262h-723z" />
    <glyph glyph-name="racute.smcp" unicode="&#xe29a;" horiz-adv-x="999" 
d="M348 1323l234 348h262l-307 -348h-189zM477 963h-127v-336h127q94 0 144 51q49 51 49 121q0 164 -193 164zM72 0v1221h426q213 0 337 -120t123 -298q0 -119 -59 -214t-170 -145l264 -444h-317l-326 582v-582h-278z" />
    <glyph glyph-name="racute.smcp" unicode="&#xf658;" horiz-adv-x="999" 
d="M348 1323l234 348h262l-307 -348h-189zM477 963h-127v-336h127q94 0 144 51q49 51 49 121q0 164 -193 164zM72 0v1221h426q213 0 337 -120t123 -298q0 -119 -59 -214t-170 -145l264 -444h-317l-326 582v-582h-278z" />
    <glyph glyph-name="rcaron.smcp" unicode="&#xe29b;" horiz-adv-x="999" 
d="M477 963h-127v-336h127q94 0 144 51q49 51 49 121q0 164 -193 164zM397 1323l-243 348h211l118 -180l121 180h211l-244 -348h-174zM72 0v1221h426q213 0 337 -120t123 -298q0 -119 -59 -214t-170 -145l264 -444h-317l-326 582v-582h-278z" />
    <glyph glyph-name="rcaron.smcp" unicode="&#xf659;" horiz-adv-x="999" 
d="M477 963h-127v-336h127q94 0 144 51q49 51 49 121q0 164 -193 164zM397 1323l-243 348h211l118 -180l121 180h211l-244 -348h-174zM72 0v1221h426q213 0 337 -120t123 -298q0 -119 -59 -214t-170 -145l264 -444h-317l-326 582v-582h-278z" />
    <glyph glyph-name="rcommaaccent.smcp" unicode="&#xe29e;" horiz-adv-x="999" 
d="M485 -516h-174l70 418h248zM477 963h-127v-336h127q94 0 144 51q49 51 49 121q0 164 -193 164zM72 0v1221h426q213 0 337 -120t123 -298q0 -119 -59 -214t-170 -145l264 -444h-317l-326 582v-582h-278z" />
    <glyph glyph-name="rcommaaccent.smcp" unicode="&#xf65a;" horiz-adv-x="999" 
d="M485 -516h-174l70 418h248zM477 963h-127v-336h127q94 0 144 51q49 51 49 121q0 164 -193 164zM72 0v1221h426q213 0 337 -120t123 -298q0 -119 -59 -214t-170 -145l264 -444h-317l-326 582v-582h-278z" />
    <glyph glyph-name="ucircumflex.smcp" unicode="&#xe300;" horiz-adv-x="1060" 
d="M205 1323l244 348h174l243 -348h-211l-120 180l-119 -180h-211zM530 -16q-210 0 -334 120t-124 338v779h280v-787q0 -88 49 -141t128 -53t129 53t51 141v787h280v-779q0 -218 -124 -338t-335 -120z" />
    <glyph glyph-name="ucircumflex.smcp" unicode="&#xf7fb;" horiz-adv-x="1060" 
d="M205 1323l244 348h174l243 -348h-211l-120 180l-119 -180h-211zM530 -16q-210 0 -334 120t-124 338v779h280v-787q0 -88 49 -141t128 -53t129 53t51 141v787h280v-779q0 -218 -124 -338t-335 -120z" />
    <glyph glyph-name="sacute.smcp" unicode="&#xe302;" horiz-adv-x="999" 
d="M393 1323l234 348h262l-307 -348h-189zM492 1239q256 0 432 -190l-226 -175q-76 119 -204 119q-63 0 -101 -30q-37 -31 -37 -79t50 -75t103 -44q54 -17 58 -19t29 -5q25 -4 96 -36q72 -33 131 -73q121 -83 121 -250q0 -166 -120 -282t-324 -116q-291 0 -486 221l246 192
q90 -152 240 -151q70 0 112 37t41 80t-33 69t-99 52q-67 25 -79 24l-20 6q-131 34 -241 109q-111 74 -110 239q1 166 118 272q118 105 303 105z" />
    <glyph glyph-name="sacute.smcp" unicode="&#xf65b;" horiz-adv-x="999" 
d="M393 1323l234 348h262l-307 -348h-189zM492 1239q256 0 432 -190l-226 -175q-76 119 -204 119q-63 0 -101 -30q-37 -31 -37 -79t50 -75t103 -44q54 -17 58 -19t29 -5q25 -4 96 -36q72 -33 131 -73q121 -83 121 -250q0 -166 -120 -282t-324 -116q-291 0 -486 221l246 192
q90 -152 240 -151q70 0 112 37t41 80t-33 69t-99 52q-67 25 -79 24l-20 6q-131 34 -241 109q-111 74 -110 239q1 166 118 272q118 105 303 105z" />
    <glyph glyph-name="scircumflex.smcp" unicode="&#xe303;" horiz-adv-x="999" 
d="M182 1323l244 348h174l244 -348h-211l-121 180l-119 -180h-211zM492 1239q256 0 432 -190l-226 -175q-76 119 -204 119q-63 0 -101 -30q-37 -31 -37 -79t50 -75t103 -44q54 -17 58 -19t29 -5q25 -4 96 -36q72 -33 131 -73q121 -83 121 -250q0 -166 -120 -282t-324 -116
q-291 0 -486 221l246 192q90 -152 240 -151q70 0 112 37t41 80t-33 69t-99 52q-67 25 -79 24l-20 6q-131 34 -241 109q-111 74 -110 239q1 166 118 272q118 105 303 105z" />
    <glyph glyph-name="scircumflex.smcp" unicode="&#xf636;" horiz-adv-x="999" 
d="M182 1323l244 348h174l244 -348h-211l-121 180l-119 -180h-211zM492 1239q256 0 432 -190l-226 -175q-76 119 -204 119q-63 0 -101 -30q-37 -31 -37 -79t50 -75t103 -44q54 -17 58 -19t29 -5q25 -4 96 -36q72 -33 131 -73q121 -83 121 -250q0 -166 -120 -282t-324 -116
q-291 0 -486 221l246 192q90 -152 240 -151q70 0 112 37t41 80t-33 69t-99 52q-67 25 -79 24l-20 6q-131 34 -241 109q-111 74 -110 239q1 166 118 272q118 105 303 105z" />
    <glyph glyph-name="scaron.smcp" unicode="&#xe304;" horiz-adv-x="999" 
d="M428 1323l-244 348h211l119 -180l121 180h211l-244 -348h-174zM492 1239q256 0 432 -190l-226 -175q-76 119 -204 119q-63 0 -101 -30q-37 -31 -37 -79t50 -75t103 -44q54 -17 58 -19t29 -5q25 -4 96 -36q72 -33 131 -73q121 -83 121 -250q0 -166 -120 -282t-324 -116
q-291 0 -486 221l246 192q90 -152 240 -151q70 0 112 37t41 80t-33 69t-99 52q-67 25 -79 24l-20 6q-131 34 -241 109q-111 74 -110 239q1 166 118 272q118 105 303 105z" />
    <glyph glyph-name="scaron.smcp" unicode="&#xf6fd;" horiz-adv-x="999" 
d="M428 1323l-244 348h211l119 -180l121 180h211l-244 -348h-174zM492 1239q256 0 432 -190l-226 -175q-76 119 -204 119q-63 0 -101 -30q-37 -31 -37 -79t50 -75t103 -44q54 -17 58 -19t29 -5q25 -4 96 -36q72 -33 131 -73q121 -83 121 -250q0 -166 -120 -282t-324 -116
q-291 0 -486 221l246 192q90 -152 240 -151q70 0 112 37t41 80t-33 69t-99 52q-67 25 -79 24l-20 6q-131 34 -241 109q-111 74 -110 239q1 166 118 272q118 105 303 105z" />
    <glyph glyph-name="scommaaccent.smcp" unicode="&#xe305;" horiz-adv-x="999" 
d="M481 -510h-174l70 418h248zM492 1239q256 0 432 -190l-226 -175q-76 119 -204 119q-63 0 -101 -30q-37 -31 -37 -79t50 -75t103 -44q54 -17 58 -19t29 -5q25 -4 96 -36q72 -33 131 -73q121 -83 121 -250q0 -166 -120 -282t-324 -116q-291 0 -486 221l246 192
q90 -152 240 -151q70 0 112 37t41 80t-33 69t-99 52q-67 25 -79 24l-20 6q-131 34 -241 109q-111 74 -110 239q1 166 118 272q118 105 303 105z" />
    <glyph glyph-name="scommaaccent.smcp" unicode="&#xf65d;" horiz-adv-x="999" 
d="M481 -510h-174l70 418h248zM492 1239q256 0 432 -190l-226 -175q-76 119 -204 119q-63 0 -101 -30q-37 -31 -37 -79t50 -75t103 -44q54 -17 58 -19t29 -5q25 -4 96 -36q72 -33 131 -73q121 -83 121 -250q0 -166 -120 -282t-324 -116q-291 0 -486 221l246 192
q90 -152 240 -151q70 0 112 37t41 80t-33 69t-99 52q-67 25 -79 24l-20 6q-131 34 -241 109q-111 74 -110 239q1 166 118 272q118 105 303 105z" />
    <glyph glyph-name="scedilla.smcp" unicode="&#xe306;" horiz-adv-x="999" 
d="M492 1239q256 0 432 -190l-226 -175q-76 119 -204 119q-63 0 -101 -30q-37 -31 -37 -79t50 -75t103 -44q54 -17 58 -19t29 -5q25 -4 96 -36q72 -33 131 -73q121 -83 121 -242q0 -160 -102 -272t-277 -130v-97q113 4 174 -41q61 -44 61 -130t-92 -149t-240 -63t-282 121
l160 97q86 -68 144 -68t90 17q33 17 32 44q0 55 -116 56h-105v217q-221 31 -377 213l246 192q90 -152 240 -151q70 0 112 37t41 80t-33 69t-99 52q-67 25 -79 24l-20 6q-131 34 -241 109q-111 74 -110 239q1 166 118 272q118 105 303 105z" />
    <glyph glyph-name="scedilla.smcp" unicode="&#xf65c;" horiz-adv-x="999" 
d="M492 1239q256 0 432 -190l-226 -175q-76 119 -204 119q-63 0 -101 -30q-37 -31 -37 -79t50 -75t103 -44q54 -17 58 -19t29 -5q25 -4 96 -36q72 -33 131 -73q121 -83 121 -242q0 -160 -102 -272t-277 -130v-97q113 4 174 -41q61 -44 61 -130t-92 -149t-240 -63t-282 121
l160 97q86 -68 144 -68t90 17q33 17 32 44q0 55 -116 56h-105v217q-221 31 -377 213l246 192q90 -152 240 -151q70 0 112 37t41 80t-33 69t-99 52q-67 25 -79 24l-20 6q-131 34 -241 109q-111 74 -110 239q1 166 118 272q118 105 303 105z" />
    <glyph glyph-name="tcaron.smcp" unicode="&#xe309;" horiz-adv-x="1009" 
d="M422 1323l-244 348h211l119 -180l121 180h211l-244 -348h-174zM375 0v958h-309v263h886v-263h-305v-958h-272z" />
    <glyph glyph-name="tcaron.smcp" unicode="&#xf65e;" horiz-adv-x="1009" 
d="M422 1323l-244 348h211l119 -180l121 180h211l-244 -348h-174zM375 0v958h-309v263h886v-263h-305v-958h-272z" />
    <glyph glyph-name="tcommaaccent.smcp" unicode="&#xe30a;" horiz-adv-x="1009" 
d="M489 -541h-174l70 418h248zM375 0v958h-309v263h886v-263h-305v-958h-272z" />
    <glyph glyph-name="tcommaaccent.smcp" unicode="&#xf65f;" horiz-adv-x="1009" 
d="M489 -541h-174l70 418h248zM375 0v958h-309v263h886v-263h-305v-958h-272z" />
    <glyph glyph-name="tbar.smcp" unicode="&#xe30d;" horiz-adv-x="1009" 
d="M846 428h-203v-428h-272v428h-207v262h207v268h-310v263h887v-263h-305v-268h203v-262z" />
    <glyph glyph-name="tbar.smcp" unicode="&#xf637;" horiz-adv-x="1009" 
d="M846 428h-203v-428h-272v428h-207v262h207v268h-310v263h887v-263h-305v-268h203v-262z" />
    <glyph glyph-name="uacute.smcp" unicode="&#xe30e;" horiz-adv-x="1060" 
d="M408 1323l233 348h262l-307 -348h-188zM530 -16q-210 0 -334 120t-124 338v779h280v-787q0 -88 49 -141t128 -53t129 53t51 141v787h280v-779q0 -218 -124 -338t-335 -120z" />
    <glyph glyph-name="uacute.smcp" unicode="&#xf7fa;" horiz-adv-x="1060" 
d="M408 1323l233 348h262l-307 -348h-188zM530 -16q-210 0 -334 120t-124 338v779h280v-787q0 -88 49 -141t128 -53t129 53t51 141v787h280v-779q0 -218 -124 -338t-335 -120z" />
    <glyph glyph-name="ugrave.smcp" unicode="&#xe30f;" horiz-adv-x="1060" 
d="M440 1317l-307 348h262l234 -348h-189zM530 -16q-210 0 -334 120t-124 338v779h280v-787q0 -88 49 -141t128 -53t129 53t51 141v787h280v-779q0 -218 -124 -338t-335 -120z" />
    <glyph glyph-name="ugrave.smcp" unicode="&#xf7f9;" horiz-adv-x="1060" 
d="M440 1317l-307 348h262l234 -348h-189zM530 -16q-210 0 -334 120t-124 338v779h280v-787q0 -88 49 -141t128 -53t129 53t51 141v787h280v-779q0 -218 -124 -338t-335 -120z" />
    <glyph glyph-name="wdieresis.smcp" unicode="&#xe310;" horiz-adv-x="1738" 
d="M545 1323v281h280v-281h-280zM928 1323v281h280v-281h-280zM375 0l-338 1221h285l196 -762l217 762h279l215 -764l196 764h281l-338 -1221h-276l-218 776l-217 -776h-282z" />
    <glyph glyph-name="wdieresis.smcp" unicode="&#xf63c;" horiz-adv-x="1738" 
d="M545 1323v281h280v-281h-280zM928 1323v281h280v-281h-280zM375 0l-338 1221h285l196 -762l217 762h279l215 -764l196 764h281l-338 -1221h-276l-218 776l-217 -776h-282z" />
    <glyph glyph-name="udieresis.smcp" unicode="&#xe311;" horiz-adv-x="1060" 
d="M203 1323v281h280v-281h-280zM586 1323v281h280v-281h-280zM530 -16q-210 0 -334 120t-124 338v779h280v-787q0 -88 49 -141t128 -53t129 53t51 141v787h280v-779q0 -218 -124 -338t-335 -120z" />
    <glyph glyph-name="udieresis.smcp" unicode="&#xf7fc;" horiz-adv-x="1060" 
d="M203 1323v281h280v-281h-280zM586 1323v281h280v-281h-280zM530 -16q-210 0 -334 120t-124 338v779h280v-787q0 -88 49 -141t128 -53t129 53t51 141v787h280v-779q0 -218 -124 -338t-335 -120z" />
    <glyph glyph-name="utilde.smcp" unicode="&#xe312;" horiz-adv-x="1060" 
d="M180 1323q0 125 58 201t144 76q87 0 167 -50q80 -49 108 -49q55 0 56 90h161q0 -129 -55 -203t-145 -73q-90 0 -170 48t-109 48q-53 0 -53 -88h-162zM530 -16q-210 0 -334 120t-124 338v779h280v-787q0 -88 49 -141t128 -53t129 53t51 141v787h280v-779q0 -218 -124 -338
t-335 -120z" />
    <glyph glyph-name="utilde.smcp" unicode="&#xf639;" horiz-adv-x="1060" 
d="M180 1323q0 125 58 201t144 76q87 0 167 -50q80 -49 108 -49q55 0 56 90h161q0 -129 -55 -203t-145 -73q-90 0 -170 48t-109 48q-53 0 -53 -88h-162zM530 -16q-210 0 -334 120t-124 338v779h280v-787q0 -88 49 -141t128 -53t129 53t51 141v787h280v-779q0 -218 -124 -338
t-335 -120z" />
    <glyph glyph-name="uring.smcp" unicode="&#xe313;" horiz-adv-x="1060" 
d="M531 1624q-33 0 -57 -25t-24 -59t24 -56q23 -24 57 -24t59 24q24 24 24 56t-24 58t-59 26zM772 1542q0 -100 -71 -170t-170 -69q-99 -1 -169 69t-70 169t70 170t169 71t170 -70t71 -170zM530 -16q-210 0 -334 120t-124 338v779h280v-787q0 -88 49 -141t128 -53t129 53
t51 141v787h280v-779q0 -218 -124 -338t-335 -120z" />
    <glyph glyph-name="uring.smcp" unicode="&#xf663;" horiz-adv-x="1060" 
d="M531 1624q-33 0 -57 -25t-24 -59t24 -56q23 -24 57 -24t59 24q24 24 24 56t-24 58t-59 26zM772 1542q0 -100 -71 -170t-170 -69q-99 -1 -169 69t-70 169t70 170t169 71t170 -70t71 -170zM530 -16q-210 0 -334 120t-124 338v779h280v-787q0 -88 49 -141t128 -53t129 53
t51 141v787h280v-779q0 -218 -124 -338t-335 -120z" />
    <glyph glyph-name="umacron.smcp" unicode="&#xe315;" horiz-adv-x="1060" 
d="M264 1323v176h541v-176h-541zM530 -16q-210 0 -334 120t-124 338v779h280v-787q0 -88 49 -141t128 -53t129 53t51 141v787h280v-779q0 -218 -124 -338t-335 -120z" />
    <glyph glyph-name="umacron.smcp" unicode="&#xf661;" horiz-adv-x="1060" 
d="M264 1323v176h541v-176h-541zM530 -16q-210 0 -334 120t-124 338v779h280v-787q0 -88 49 -141t128 -53t129 53t51 141v787h280v-779q0 -218 -124 -338t-335 -120z" />
    <glyph glyph-name="ubreve.smcp" unicode="&#xe316;" horiz-adv-x="1060" 
d="M866 1651q0 -152 -90 -250t-246 -98q-157 0 -241 96t-84 252h176q0 -190 154 -197q154 6 153 197h178zM530 -16q-210 0 -334 120t-124 338v779h280v-787q0 -88 49 -141t128 -53t129 53t51 141v787h280v-779q0 -218 -124 -338t-335 -120z" />
    <glyph glyph-name="ubreve.smcp" unicode="&#xf638;" horiz-adv-x="1060" 
d="M866 1651q0 -152 -90 -250t-246 -98q-157 0 -241 96t-84 252h176q0 -190 154 -197q154 6 153 197h178zM530 -16q-210 0 -334 120t-124 338v779h280v-787q0 -88 49 -141t128 -53t129 53t51 141v787h280v-779q0 -218 -124 -338t-335 -120z" />
    <glyph glyph-name="uhungarumlaut.smcp" unicode="&#xe318;" horiz-adv-x="1060" 
d="M590 1323l233 348h248l-307 -348h-174zM248 1323l233 348h248l-307 -348h-174zM530 -16q-210 0 -334 120t-124 338v779h280v-787q0 -88 49 -141t128 -53t129 53t51 141v787h280v-779q0 -218 -124 -338t-335 -120z" />
    <glyph glyph-name="uhungarumlaut.smcp" unicode="&#xf660;" horiz-adv-x="1060" 
d="M590 1323l233 348h248l-307 -348h-174zM248 1323l233 348h248l-307 -348h-174zM530 -16q-210 0 -334 120t-124 338v779h280v-787q0 -88 49 -141t128 -53t129 53t51 141v787h280v-779q0 -218 -124 -338t-335 -120z" />
    <glyph glyph-name="uogonek.smcp" unicode="&#xe31b;" horiz-adv-x="1060" 
d="M569 -434q-131 0 -213 64t-82 170t117 200q-151 37 -235 151t-84 291v779h280v-787q0 -88 49 -141t128 -53t129 53t51 141v787h280v-779q1 -158 -67 -266t-191 -158q-160 -104 -204 -142t-44 -77q0 -61 86 -61q49 0 123 57l164 -110q-57 -51 -136 -85t-151 -34z" />
    <glyph glyph-name="uogonek.smcp" unicode="&#xf662;" horiz-adv-x="1060" 
d="M569 -434q-131 0 -213 64t-82 170t117 200q-151 37 -235 151t-84 291v779h280v-787q0 -88 49 -141t128 -53t129 53t51 141v787h280v-779q1 -158 -67 -266t-191 -158q-160 -104 -204 -142t-44 -77q0 -61 86 -61q49 0 123 57l164 -110q-57 -51 -136 -85t-151 -34z" />
    <glyph glyph-name="wacute.smcp" unicode="&#xe31d;" horiz-adv-x="1738" 
d="M780 1323l234 348h262l-307 -348h-189zM375 0l-338 1221h285l196 -762l217 762h279l215 -764l196 764h281l-338 -1221h-276l-218 776l-217 -776h-282z" />
    <glyph glyph-name="wacute.smcp" unicode="&#xf63a;" horiz-adv-x="1738" 
d="M780 1323l234 348h262l-307 -348h-189zM375 0l-338 1221h285l196 -762l217 762h279l215 -764l196 764h281l-338 -1221h-276l-218 776l-217 -776h-282z" />
    <glyph glyph-name="wgrave.smcp" unicode="&#xe31e;" horiz-adv-x="1738" 
d="M782 1323l-307 348h262l234 -348h-189zM375 0l-338 1221h285l196 -762l217 762h279l215 -764l196 764h281l-338 -1221h-276l-218 776l-217 -776h-282z" />
    <glyph glyph-name="wgrave.smcp" unicode="&#xf63d;" horiz-adv-x="1738" 
d="M782 1323l-307 348h262l234 -348h-189zM375 0l-338 1221h285l196 -762l217 762h279l215 -764l196 764h281l-338 -1221h-276l-218 776l-217 -776h-282z" />
    <glyph glyph-name="wcircumflex.smcp" unicode="&#xe31f;" horiz-adv-x="1738" 
d="M547 1315l244 348h174l243 -348h-211l-120 180l-119 -180h-211zM375 0l-338 1221h285l196 -762l217 762h279l215 -764l196 764h281l-338 -1221h-276l-218 776l-217 -776h-282z" />
    <glyph glyph-name="wcircumflex.smcp" unicode="&#xf63b;" horiz-adv-x="1738" 
d="M547 1315l244 348h174l243 -348h-211l-120 180l-119 -180h-211zM375 0l-338 1221h285l196 -762l217 762h279l215 -764l196 764h281l-338 -1221h-276l-218 776l-217 -776h-282z" />
    <glyph glyph-name="yacute.smcp" unicode="&#xe321;" horiz-adv-x="1101" 
d="M451 1307l233 348h262l-307 -348h-188zM412 0v573l-381 648h305l219 -377l219 377h303l-383 -650v-571h-282z" />
    <glyph glyph-name="yacute.smcp" unicode="&#xf7fd;" horiz-adv-x="1101" 
d="M451 1307l233 348h262l-307 -348h-188zM412 0v573l-381 648h305l219 -377l219 377h303l-383 -650v-571h-282z" />
    <glyph glyph-name="ygrave.smcp" unicode="&#xe322;" horiz-adv-x="1101" 
d="M463 1307l-307 348h262l233 -348h-188zM412 0v573l-381 648h305l219 -377l219 377h303l-383 -650v-571h-282z" />
    <glyph glyph-name="ygrave.smcp" unicode="&#xf63f;" horiz-adv-x="1101" 
d="M463 1307l-307 348h262l233 -348h-188zM412 0v573l-381 648h305l219 -377l219 377h303l-383 -650v-571h-282z" />
    <glyph glyph-name="ycircumflex.smcp" unicode="&#xe323;" horiz-adv-x="1101" 
d="M223 1323l244 348h174l244 -348h-211l-121 180l-119 -180h-211zM412 0v573l-381 648h305l219 -377l219 377h303l-383 -650v-571h-282z" />
    <glyph glyph-name="ycircumflex.smcp" unicode="&#xf63e;" horiz-adv-x="1101" 
d="M223 1323l244 348h174l244 -348h-211l-121 180l-119 -180h-211zM412 0v573l-381 648h305l219 -377l219 377h303l-383 -650v-571h-282z" />
    <glyph glyph-name="ydieresis.smcp" unicode="&#xe324;" horiz-adv-x="1101" 
d="M604 1323v281h281v-281h-281zM221 1323v281h281v-281h-281zM412 0v573l-381 648h305l219 -377l219 377h303l-383 -650v-571h-282z" />
    <glyph glyph-name="ydieresis.smcp" unicode="&#xf7ff;" horiz-adv-x="1101" 
d="M604 1323v281h281v-281h-281zM221 1323v281h281v-281h-281zM412 0v573l-381 648h305l219 -377l219 377h303l-383 -650v-571h-282z" />
    <glyph glyph-name="ij.smcp" unicode="&#xe327;" horiz-adv-x="925" 
d="M72 0v1221h282v-1221h-282zM442 0v258h11q75 2 97 28t21 107v828h283v-820q0 -237 -85 -319t-308 -82h-19z" />
    <glyph glyph-name="ij.smcp" unicode="&#xf631;" horiz-adv-x="925" 
d="M72 0v1221h282v-1221h-282zM442 0v258h11q75 2 97 28t21 107v828h283v-820q0 -237 -85 -319t-308 -82h-19z" />
    <glyph glyph-name="zacute.smcp" unicode="&#xe328;" horiz-adv-x="929" 
d="M352 1323l234 348h262l-307 -348h-189zM61 0v258l480 703h-469v260h796v-252l-485 -709h485v-260h-807z" />
    <glyph glyph-name="zacute.smcp" unicode="&#xf664;" horiz-adv-x="929" 
d="M352 1323l234 348h262l-307 -348h-189zM61 0v258l480 703h-469v260h796v-252l-485 -709h485v-260h-807z" />
    <glyph glyph-name="zcaron.smcp" unicode="&#xe329;" horiz-adv-x="929" 
d="M387 1323l-244 348h211l119 -180l121 180h211l-244 -348h-174zM61 0v258l480 703h-469v260h796v-252l-485 -709h485v-260h-807z" />
    <glyph glyph-name="zcaron.smcp" unicode="&#xf6ff;" horiz-adv-x="929" 
d="M387 1323l-244 348h211l119 -180l121 180h211l-244 -348h-174zM61 0v258l480 703h-469v260h796v-252l-485 -709h485v-260h-807z" />
    <glyph glyph-name="zdotaccent.smcp" unicode="&#xe32a;" horiz-adv-x="929" 
d="M326 1323v281h280v-281h-280zM61 0v258l480 703h-469v260h796v-252l-485 -709h485v-260h-807z" />
    <glyph glyph-name="zdotaccent.smcp" unicode="&#xf665;" horiz-adv-x="929" 
d="M326 1323v281h280v-281h-280zM61 0v258l480 703h-469v260h796v-252l-485 -709h485v-260h-807z" />
    <glyph glyph-name="eng.smcp" unicode="&#xe32b;" horiz-adv-x="1179" 
d="M635 -471v262q127 0 160 32t32 152v39l-477 744v-758h-278v1221h303l454 -711v711h279v-1248q0 -250 -94 -347t-338 -97h-41z" />
    <glyph glyph-name="eng.smcp" unicode="&#xf62b;" horiz-adv-x="1179" 
d="M635 -471v262q127 0 160 32t32 152v39l-477 744v-758h-278v1221h303l454 -711v711h279v-1248q0 -250 -94 -347t-338 -97h-41z" />
    <glyph glyph-name="eth.smcp" unicode="&#xe32c;" horiz-adv-x="1196" 
d="M664 496h-240v-236h70q164 0 264 99t100 253t-97 251t-274 98h-63v-236h240v-229zM41 496v229h102v496h361q285 0 461 -173q176 -172 176 -436t-179 -438t-452 -174h-367v496h-102z" />
    <glyph glyph-name="eth.smcp" unicode="&#xf7f0;" horiz-adv-x="1196" 
d="M664 496h-240v-236h70q164 0 264 99t100 253t-97 251t-274 98h-63v-236h240v-229zM41 496v229h102v496h361q285 0 461 -173q176 -172 176 -436t-179 -438t-452 -174h-367v496h-102z" />
    <glyph glyph-name="thorn.smcp" unicode="&#xe32d;" horiz-adv-x="946" 
d="M481 764h-129v-297h129q66 0 109 42q43 41 43 107t-43 107t-109 41zM72 0v1221h280v-197h131q191 0 307 -118t116 -291t-114 -291t-311 -117h-129v-207h-280z" />
    <glyph glyph-name="thorn.smcp" unicode="&#xf7fe;" horiz-adv-x="946" 
d="M481 764h-129v-297h129q66 0 109 42q43 41 43 107t-43 107t-109 41zM72 0v1221h280v-197h131q191 0 307 -118t116 -291t-114 -291t-311 -117h-129v-207h-280z" />
    <glyph glyph-name="ordfeminine.smcp" unicode="&#xe351;" horiz-adv-x="692" 
d="M385 1135l-37 112l-39 -112h76zM25 901l202 594h236l205 -594h-207l-23 70h-182l-23 -70h-208z" />
    <glyph glyph-name="ordmasculine.smcp" unicode="&#xe352;" horiz-adv-x="686" 
d="M343 1085q46 0 78 33t32 80t-32 81t-78 34t-77 -33q-30 -33 -30 -81t30 -81t77 -33zM344 891q-127 0 -217 90t-90 218t90 218t217 90t216 -90t89 -218t-89 -218t-216 -90z" />
    <glyph glyph-name="cordinal.smcp" unicode="&#xe353;" horiz-adv-x="655" 
d="M330 891q-112 0 -203 90q-90 90 -90 218t90 218q91 90 203 90t188 -51t111 -135l-180 -80q-27 72 -103 72q-45 0 -78 -34q-32 -34 -32 -81t32 -80t78 -33q74 0 103 70l180 -78q-35 -84 -111 -135t-188 -51z" />
    <glyph glyph-name="fi" unicode="&#xe38c;" horiz-adv-x="1153" 
d="M801 1126v281h280v-281h-280zM801 0v1024h280v-1024h-280zM51 772v252h174v27q-1 252 97 348t354 96h22v-262q-128 0 -160 -32t-32 -152v-25h192v-252h-192v-772h-281v772h-174z" />
    <glyph glyph-name="fi" unicode="&#xfb01;" horiz-adv-x="1153" 
d="M801 1126v281h280v-281h-280zM801 0v1024h280v-1024h-280zM51 772v252h174v27q-1 252 97 348t354 96h22v-262q-128 0 -160 -32t-32 -152v-25h192v-252h-192v-772h-281v772h-174z" />
    <glyph glyph-name="fl" unicode="&#xe38d;" horiz-adv-x="1153" 
d="M801 0v1495h280v-1495h-280zM51 772v252h174v27q-1 252 97 348t354 96h22v-262q-128 0 -160 -32t-32 -152v-25h192v-252h-192v-772h-281v772h-174z" />
    <glyph glyph-name="fl" unicode="&#xfb02;" horiz-adv-x="1153" 
d="M801 0v1495h280v-1495h-280zM51 772v252h174v27q-1 252 97 348t354 96h22v-262q-128 0 -160 -32t-32 -152v-25h192v-252h-192v-772h-281v772h-174z" />
    <glyph glyph-name="ampersand.smcp" unicode="&#xe401;" horiz-adv-x="1306" 
d="M315 391q-1 -78 57 -124t140 -46t152 29l-211 213q-33 33 -60 57q-78 -51 -78 -129zM526 -18q-248 0 -366 116t-119 281q0 209 190 336q-53 94 -53 190q0 143 102 237t265 95q266 0 377 -223l-271 -117q-25 90 -98 90q-39 1 -65 -23t-26 -65t34 -85q33 -44 147 -161
q23 -20 33 -32l194 -195q61 88 86 182h-192v258h471v-125q0 -256 -191 -489l248 -252h-374l-76 74q-152 -92 -316 -92z" />
    <glyph glyph-name="ampersand.smcp" unicode="&#xf726;" horiz-adv-x="1306" 
d="M315 391q-1 -78 57 -124t140 -46t152 29l-211 213q-33 33 -60 57q-78 -51 -78 -129zM526 -18q-248 0 -366 116t-119 281q0 209 190 336q-53 94 -53 190q0 143 102 237t265 95q266 0 377 -223l-271 -117q-25 90 -98 90q-39 1 -65 -23t-26 -65t34 -85q33 -44 147 -161
q23 -20 33 -32l194 -195q61 88 86 182h-192v258h471v-125q0 -256 -191 -489l248 -252h-374l-76 74q-152 -92 -316 -92z" />
    <glyph glyph-name="invertedbreve" unicode="&#xe411;" horiz-adv-x="964" 
d="M150 1126q0 156 83 252q84 96 241 96t247 -98t90 -250h-178q0 190 -154 197q-154 -6 -153 -197h-176z" />
    <glyph glyph-name="doublegrave" unicode="&#xe412;" horiz-adv-x="964" 
d="M723 1126l-307 349h262l233 -349h-188zM383 1126l-307 349h262l233 -349h-188z" />
    <glyph glyph-name="caronSlovak" unicode="&#xe413;" horiz-adv-x="964" 
d="M385 1126l49 349h228l-103 -349h-174z" />
    <glyph glyph-name="commaaccent" unicode="&#xe414;" horiz-adv-x="964" 
d="M487 -510h-174l70 418h248z" />
    <glyph glyph-name="commaaccent" unicode="&#xf6c3;" horiz-adv-x="964" 
d="M487 -510h-174l70 418h248z" />
    <glyph glyph-name="dotbelow" unicode="&#xe415;" horiz-adv-x="964" 
d="M322 -383v281h280v-281h-280z" />
    <glyph glyph-name="altcedilla" unicode="&#xe416;" horiz-adv-x="964" 
d="M459 -492q-211 0 -318 119l160 101q59 -70 156 -70q45 0 77 16t31 43q0 57 -116 58h-15v116h51q125 2 197 -46t72 -133q0 -84 -88 -144t-207 -60z" />
    <glyph glyph-name="exclamdown.cap" unicode="&#xe441;" horiz-adv-x="423" 
d="M72 1214v281h280v-281h-280zM72 0v240q0 446 63 872h154q63 -426 63 -872v-240h-280z" />
    <glyph glyph-name="questiondown.cap" unicode="&#xe444;" horiz-adv-x="1054" 
d="M422 1214v281h280v-281h-280zM528 -20q-200 0 -332 118t-133 312q0 90 28 158t69 108q41 39 90 80t90 78q41 36 69 102t27 151v23h252v-23q0 -137 -35 -236t-84 -151t-98 -91q-119 -97 -119 -203q0 -78 52 -128t134 -50t135 47q52 48 70 126l265 -88q-39 -153 -159 -243
q-121 -90 -321 -90z" />
    <glyph glyph-name="guilsinglleft.cap" unicode="&#xe451;" horiz-adv-x="561" 
d="M455 418l-349 244v174l349 243v-211l-181 -120l181 -119v-211z" />
    <glyph glyph-name="guilsinglright.cap" unicode="&#xe452;" horiz-adv-x="561" 
d="M106 420v211l181 119l-181 120v211l349 -243v-174z" />
    <glyph glyph-name="guillemotleft.cap" unicode="&#xe453;" horiz-adv-x="978" 
d="M887 438l-377 232v157l377 232v-191l-203 -120l203 -119v-191zM469 438l-377 232v157l377 232v-191l-203 -120l203 -119v-191z" />
    <glyph glyph-name="guillemotright.cap" unicode="&#xe454;" horiz-adv-x="978" 
d="M92 438v191l203 119l-203 120v191l377 -232v-157zM510 438v191l203 119l-203 120v191l377 -232v-157z" />
    <glyph glyph-name="slash.cap" unicode="&#xe461;" horiz-adv-x="1048" 
d="M20 0l709 1495h301l-708 -1495h-302z" />
    <glyph glyph-name="backslash.cap" unicode="&#xe462;" horiz-adv-x="1048" 
d="M729 0l-709 1495h302l708 -1495h-301z" />
    <glyph glyph-name="bar.cap" unicode="&#xe463;" horiz-adv-x="428" 
d="M72 -246v1966h284v-1966h-284z" />
    <glyph glyph-name="doublebar.cap" unicode="&#xe464;" horiz-adv-x="835" 
d="M479 -246v1966h285v-1966h-285zM72 -246v1966h284v-1966h-284z" />
    <glyph glyph-name="brokenbar.cap" unicode="&#xe465;" horiz-adv-x="428" 
d="M72 -246v860h284v-860h-284zM72 860v860h284v-860h-284z" />
    <glyph glyph-name="bullet.cap" unicode="&#xe466;" horiz-adv-x="815" 
d="M408 516q-96 0 -164 68t-68 164t68 164t164 67q96 0 164 -68q68 -67 67 -163q1 -96 -67 -164t-164 -68z" />
    <glyph glyph-name="slash.smcp" unicode="&#xe467;" horiz-adv-x="931" 
d="M33 0l579 1221h289l-579 -1221h-289z" />
    <glyph glyph-name="backslash.smcp" unicode="&#xe468;" horiz-adv-x="931" 
d="M612 0l-579 1221h289l579 -1221h-289z" />
    <glyph glyph-name="bar.smcp" unicode="&#xe469;" horiz-adv-x="417" 
d="M72 -201v1606h274v-1606h-274z" />
    <glyph glyph-name="doublebar.smcp" unicode="&#xe46a;" horiz-adv-x="815" 
d="M469 -201v1606h274v-1606h-274zM72 -201v1606h274v-1606h-274z" />
    <glyph glyph-name="onethirdemdash" unicode="&#xe471;" horiz-adv-x="798" 
d="M72 401v240h655v-240h-655z" />
    <glyph glyph-name="threequarteremdash" unicode="&#xe472;" horiz-adv-x="1167" 
d="M72 401v240h1024v-240h-1024z" />
    <glyph glyph-name="periodcentered.cap" unicode="&#xe481;" horiz-adv-x="423" 
d="M72 606v281h280v-281h-280z" />
    <glyph glyph-name="hyphen.cap" unicode="&#xe482;" horiz-adv-x="901" 
d="M72 627v239h757v-239h-757z" />
    <glyph glyph-name="onethirdemdash.cap" unicode="&#xe483;" horiz-adv-x="798" 
d="M72 627v239h655v-239h-655z" />
    <glyph glyph-name="endash.cap" unicode="&#xe484;" horiz-adv-x="962" 
d="M72 627v239h819v-239h-819z" />
    <glyph glyph-name="threequarteremdash.cap" unicode="&#xe485;" horiz-adv-x="1167" 
d="M72 627v239h1024v-239h-1024z" />
    <glyph glyph-name="emdash.cap" unicode="&#xe486;" horiz-adv-x="1372" 
d="M72 627v239h1228v-239h-1228z" />
    <glyph glyph-name="figuredash.cap" unicode="&#xe487;" horiz-adv-x="1269" 
d="M72 627v239h1126v-239h-1126z" />
    <glyph glyph-name="uni2015.cap" unicode="&#xe488;" horiz-adv-x="1986" 
d="M72 627v239h1843v-239h-1843z" />
    <glyph glyph-name="anglebracketright.smcp" unicode="&#xe490;" horiz-adv-x="702" 
d="M309 -201h-291l381 801l-383 805h291l381 -805z" />
    <glyph glyph-name="parenleft.cap" unicode="&#xe491;" horiz-adv-x="790" 
d="M41 727q0 334 140 576t407 436l190 -205q-438 -293 -438 -810t448 -796l-176 -233q-571 385 -571 1032z" />
    <glyph glyph-name="parenright.cap" unicode="&#xe492;" horiz-adv-x="790" 
d="M451 724q0 517 -439 810l191 205q266 -195 406 -437t141 -575q-1 -647 -572 -1032l-176 233q449 279 449 796z" />
    <glyph glyph-name="bracketleft.cap" unicode="&#xe493;" horiz-adv-x="702" 
d="M72 -246v1966h559v-272h-275v-1421h275v-273h-559z" />
    <glyph glyph-name="bracketright.cap" unicode="&#xe494;" horiz-adv-x="702" 
d="M72 -246v273h274v1421h-274v272h559v-1966h-559z" />
    <glyph glyph-name="braceleft.cap" unicode="&#xe495;" horiz-adv-x="757" 
d="M707 -246h-23q-256 0 -353 96t-98 349v196q0 125 -33 165q-34 40 -159 40v262q125 0 159 40t33 165v209q-1 252 97 348t354 96h23v-262q-127 0 -160 -32t-33 -152v-209q0 -258 -156 -334q156 -76 156 -334v-196q0 -121 33 -153t160 -32v-262z" />
    <glyph glyph-name="braceright.cap" unicode="&#xe496;" horiz-adv-x="757" 
d="M51 -246v262q127 0 160 32t33 153v196q0 133 36 213t117 121q-82 41 -117 121q-36 80 -36 213v209q0 120 -33 152t-160 32v262h23q256 0 353 -96t97 -348v-209q0 -125 34 -165t159 -40v-262q-125 0 -159 -40t-34 -165v-196q0 -253 -97 -349t-353 -96h-23z" />
    <glyph glyph-name="anglebracketleft.cap" unicode="&#xe497;" horiz-adv-x="804" 
d="M485 -246l-465 983l465 983h301l-467 -983l467 -983h-301z" />
    <glyph glyph-name="anglebracketright.cap" unicode="&#xe498;" horiz-adv-x="804" 
d="M322 -246h-302l467 983l-467 983h302l464 -983z" />
    <glyph glyph-name="parenleft.smcp" unicode="&#xe499;" horiz-adv-x="657" 
d="M41 604q0 281 116 485t337 363l168 -225q-152 -102 -241 -261t-89 -362q0 -414 336 -616l-156 -254q-471 317 -471 870z" />
    <glyph glyph-name="parenleft.smcp" unicode="&#xf618;" horiz-adv-x="657" 
d="M41 604q0 281 116 485t337 363l168 -225q-152 -102 -241 -261t-89 -362q0 -414 336 -616l-156 -254q-471 317 -471 870z" />
    <glyph glyph-name="parenright.smcp" unicode="&#xe49a;" horiz-adv-x="657" 
d="M326 604q0 203 -89 362t-241 261l168 225q221 -160 337 -364t115 -484q0 -553 -471 -870l-155 254q336 203 336 616z" />
    <glyph glyph-name="parenright.smcp" unicode="&#xf619;" horiz-adv-x="657" 
d="M326 604q0 203 -89 362t-241 261l168 225q221 -160 337 -364t115 -484q0 -553 -471 -870l-155 254q336 203 336 616z" />
    <glyph glyph-name="bracketleft.smcp" unicode="&#xe49b;" horiz-adv-x="632" 
d="M72 -201v1606h489v-262h-215v-1082h215v-262h-489z" />
    <glyph glyph-name="bracketleft.smcp" unicode="&#xf60e;" horiz-adv-x="632" 
d="M72 -201v1606h489v-262h-215v-1082h215v-262h-489z" />
    <glyph glyph-name="bracketright.smcp" unicode="&#xe49c;" horiz-adv-x="632" 
d="M72 -201v262h215v1082h-215v262h489v-1606h-489z" />
    <glyph glyph-name="bracketright.smcp" unicode="&#xf60f;" horiz-adv-x="632" 
d="M72 -201v262h215v1082h-215v262h489v-1606h-489z" />
    <glyph glyph-name="braceleft.smcp" unicode="&#xe49d;" horiz-adv-x="684" 
d="M590 -201q-217 0 -296 77t-79 286v143q0 104 -25 134t-118 30v254q94 0 118 30t25 134v155q0 207 80 285t295 78h22v-254q-82 0 -106 -23t-23 -96v-147q-1 -119 -25 -187t-87 -102q63 -36 88 -104t24 -185v-137q0 -74 24 -96t105 -23v-252h-22z" />
    </font>
</defs>
</svg>
