<?xml version="1.0" standalone="no"?>
<!DOCTYPE svg PUBLIC "-//W3C//DTD SVG 1.1//EN" "http://www.w3.org/Graphics/SVG/1.1/DTD/svg11.dtd" >
<svg xmlns="http://www.w3.org/2000/svg">
<metadata>
Created by FontPrep 20130207 at Sat Apr 25 19:03:11 2015
 By Andrew Poes
Copyright (c) 2013 by Lucas Sharp. All rights reserved.
</metadata>
<defs>
<font id="12bfbe7f4325f96a9b7eefb334860b80" horiz-adv-x='1024' >
  <font-face 
    font-family="SharpSansNo1-BookItalic"
    font-weight="755"
    font-style="italic"
    font-stretch="normal"
    units-per-em="2048"
    panose-1="1 0 0 0 0 0 0 0 0 0"
    ascent="1536"
    descent="-512"
    x-height="1024"
    cap-height="1495"
    bbox="-258 -881 3602 2218"
    underline-thickness="102"
    underline-position="-102"
    unicode-range="U+0020-F60B"
  />
<missing-glyph horiz-adv-x="1843" 
d="M852 748l-580 579v-1159zM991 748l580 -580v1159zM342 1397l580 -580l579 580h-1159zM922 678l-580 -580h1159zM174 0v1495h1495v-1495h-1495z" />
    <glyph glyph-name="interrobang" unicode="&#x21;&#x3f;" horiz-adv-x="1081" 
d="M352 0l49 281h119l-49 -281h-119zM861 1302q-54 74 -156 99l-25 -146q-37 -213 -107 -526q54 81 158 162q37 29 72 59q75 65 94 172q18 106 -36 180zM616 1516q195 0 314 -115t89 -278t-141 -243q-110 -80 -203 -163q-48 -43 -90 -123t-61 -186l-4 -17h-94
q48 359 135 864l27 158q-168 -10 -281 -123l-78 82q66 64 171 104t216 40z" />
    <glyph glyph-name="interrobangdown" unicode="&#xa1;&#xbf;" horiz-adv-x="1081" 
d="M535 743l49 281h118l-49 -281h-118zM155 -117q-15 -87 39 -161t156 -99l25 146q37 213 106 526q-69 -104 -185 -187q-117 -83 -141 -225zM438 -492q-194 0 -312 115t-87 284t177 269q60 43 123 91q62 48 116 136q53 88 75 213l5 17h94q-48 -359 -135 -864l-27 -158
q170 10 283 123l75 -82q-66 -64 -171 -104t-216 -40z" />
    <glyph glyph-name=".notdef" horiz-adv-x="1843" 
d="M852 748l-580 579v-1159zM991 748l580 -580v1159zM342 1397l580 -580l579 580h-1159zM922 678l-580 -580h1159zM174 0v1495h1495v-1495h-1495z" />
    <glyph glyph-name=".null" horiz-adv-x="0" 
 />
    <glyph glyph-name="nonmarkingreturn" horiz-adv-x="681" 
 />
    <glyph glyph-name="space" unicode=" " horiz-adv-x="520" 
 />
    <glyph glyph-name="exclam" unicode="!" horiz-adv-x="471" 
d="M76 0l49 281h119l-49 -281h-119zM172 414q37 346 125 841l41 240h119l-41 -240q-86 -483 -174 -841h-70z" />
    <glyph glyph-name="quotedbl" unicode="&#x22;" horiz-adv-x="559" 
d="M451 1024q-4 123 22 299l31 172h96l-31 -172q-20 -133 -80 -299h-38zM231 1024q-4 123 23 299l31 172h96l-31 -172q-20 -133 -80 -299h-39z" />
    <glyph glyph-name="numbersign" unicode="#" horiz-adv-x="1685" 
d="M700 981l-79 -451h454l80 451h-455zM983 0l74 418h-455l-74 -418h-118l73 418h-405l20 112h404l80 451h-406l21 113h403l72 401h119l-72 -401h455l71 401h119l-72 -401h402l-21 -113h-399l-80 -451h401l-20 -112h-399l-74 -418h-119z" />
    <glyph glyph-name="dollar" unicode="$" 
d="M698 1409q-148 -1 -238 -63t-108 -170t50 -178q68 -69 206 -132l94 543h-4zM575 90q155 2 251 72t116 194q20 123 -48 202q-69 79 -212 149zM565 -20h-8l-33 -189h-104l35 197q-285 39 -416 272l111 64q102 -193 323 -228l115 654q-76 36 -118 58t-100 64
q-167 119 -132 326q23 141 147 229q125 88 328 89h8l33 182h104l-35 -191q236 -39 371 -217l-100 -71q-106 150 -289 182l-103 -578q94 -45 150 -79t118 -91q124 -115 93 -296t-158 -279t-340 -98z" />
    <glyph glyph-name="percent" unicode="%" horiz-adv-x="1732" 
d="M1204 78q102 0 175 60t89 158t-46 182q-62 83 -164 83t-174 -61q-71 -62 -88 -160t45 -180q61 -82 163 -82zM1196 -23q-144 0 -234 113t-66 255q26 142 128 228t244 86q142 1 233 -113t67 -255t-126 -228q-102 -86 -246 -86zM560 934q102 0 174 60q73 60 89 160t-46 181
q-63 82 -165 82t-173 -61q-71 -60 -88 -160t45 -181t164 -81zM550 834q-144 0 -234 114q-91 114 -66 254q25 142 128 228q102 86 244 86t234 -114t66 -255t-126 -227q-102 -86 -246 -86zM63 0l1547 1495h151l-1546 -1495h-152z" />
    <glyph glyph-name="ampersand" unicode="&#x26;" horiz-adv-x="1531" 
d="M597 82q216 0 407 139l-410 506q-57 70 -84 107q-141 -62 -221 -142t-104 -220t86 -266q110 -124 326 -124zM584 -23q-188 0 -316 80q-127 80 -173 196t-25 243q45 276 381 422q-98 158 -74 294q18 132 128 218t273 86q111 0 198 -52t124 -137l-107 -51q-23 61 -83 98
t-154 37t-170 -56q-76 -55 -91 -145t29 -177t162 -236l406 -500q190 184 262 457h-348l18 110h465l-10 -57q-27 -155 -110 -311t-208 -277l180 -219h-149l-119 143q-223 -166 -489 -166z" />
    <glyph glyph-name="quotesingle" unicode="'" horiz-adv-x="339" 
d="M270 1024h-39q-4 123 23 299l31 172h96l-31 -172q-21 -133 -80 -299z" />
    <glyph glyph-name="parenleft" unicode="(" horiz-adv-x="827" 
d="M594 -408l-84 -86q-213 168 -325 456t-52 630q59 342 268 587t473 357l56 -94q-260 -117 -440 -333t-240 -531q-51 -318 43 -570t301 -416z" />
    <glyph glyph-name="parenright" unicode=")" horiz-adv-x="827" 
d="M219 1446l84 86q213 -168 325 -453t52 -629t-265 -596q-206 -253 -464 -362l-57 98q256 115 433 337t236 540q51 315 -43 565t-301 414z" />
    <glyph glyph-name="asterisk" unicode="*" horiz-adv-x="870" 
d="M776 907l-225 183l-29 -320h-108l86 322l-295 -187l-39 94l315 136l-266 137l70 92l229 -186l27 317h108l-82 -315l289 182l41 -94l-315 -133l264 -134z" />
    <glyph glyph-name="plus" unicode="+" horiz-adv-x="948" 
d="M113 696l18 103h330l57 325h100l-57 -325h328l-19 -103h-327l-58 -329h-100l57 329h-329z" />
    <glyph glyph-name="comma" unicode="," horiz-adv-x="362" 
d="M-68 -240l162 418h113l-199 -418h-76z" />
    <glyph glyph-name="hyphen" unicode="-" horiz-adv-x="948" 
d="M90 473l19 100h757l-18 -100h-758z" />
    <glyph glyph-name="period" unicode="." horiz-adv-x="362" 
d="M18 0l52 281h116l-49 -281h-119z" />
    <glyph glyph-name="slash" unicode="/" horiz-adv-x="921" 
d="M-59 0l968 1495h131l-968 -1495h-131z" />
    <glyph glyph-name="zero" unicode="0" 
d="M571 84q145 0 242 91q96 91 123 243l98 565q33 186 -44 307t-246 121t-267 -92t-125 -248l-98 -567q-31 -176 51 -298t266 -122zM565 -20q-243 0 -357 154t-73 382l101 567q35 195 162 314q128 119 352 119t332 -156q110 -156 69 -389l-100 -565q-35 -194 -159 -310
t-327 -116z" />
    <glyph glyph-name="one" unicode="1" 
d="M401 1128h-22l22 121h11q135 0 213 76t94 170h112l-243 -1384h426l-19 -111h-964l16 111h422l205 1159q-37 -58 -114 -100t-159 -42z" />
    <glyph glyph-name="two" unicode="2" 
d="M748 1413q-111 0 -210 -48t-159 -128l-98 51q81 104 203 166t270 62q204 0 328 -120t94 -292t-194 -305q-87 -72 -148 -113t-175 -112q-113 -70 -171 -110q-189 -130 -246 -221q-39 -60 -52 -126l-2 -4h816l-19 -113h-940l21 121q33 180 244 349q114 90 320 218
q206 127 288 201q122 109 144 229t-70 208q-92 87 -244 87z" />
    <glyph glyph-name="three" unicode="3" 
d="M546 -20q-186 0 -319 64t-186 163l102 61q113 -182 389 -182q156 0 268 79t138 222t-70 239q-94 96 -260 97h-151l18 108h146q157 0 275 78t142 209t-73 215q-96 84 -254 84q-231 0 -375 -170l-86 64q74 90 194 147t271 58q215 0 341 -118t93 -298q-23 -117 -106 -203
t-214 -127q127 -51 187 -159t37 -249q-31 -178 -175 -280q-146 -102 -332 -102z" />
    <glyph glyph-name="four" unicode="4" 
d="M233 471h562l143 823zM713 0l63 365h-688l12 108l873 1022h119l-181 -1024h215l-20 -106h-213l-64 -365h-116z" />
    <glyph glyph-name="five" unicode="5" 
d="M494 -20q-150 0 -265 58t-172 159l111 57q100 -168 332 -168q160 0 284 95t162 264q39 169 -51 300t-275 131t-317 -120l-102 49l209 690h786l-18 -111h-689l-147 -489q129 88 307 88q225 -2 343 -167t70 -378q-48 -214 -200 -336t-368 -122z" />
    <glyph glyph-name="six" unicode="6" 
d="M567 84q141 0 254 95t141 250t-70 286t-274 131q-143 0 -256 -98t-137 -244q-31 -168 67 -294t275 -126zM1071 406q-35 -184 -174 -304t-352 -121t-342 157t-90 378q25 147 118 266l596 713h144l-492 -577q80 27 162 26q217 0 342 -162t88 -376z" />
    <glyph glyph-name="seven" unicode="7" 
d="M207 0l887 1384h-818l21 111h946l-18 -102l-883 -1393h-135z" />
    <glyph glyph-name="eight" unicode="8" 
d="M669 846q138 0 239 73t123 197t-59 209q-80 86 -228 86t-240 -72q-92 -71 -114 -195t60 -211t219 -87zM624 743q-166 0 -276 -86t-132 -226q-24 -139 66 -241t262 -102q173 0 278 84t129 225t-69 243q-92 102 -258 103zM541 -20q-223 0 -348 134t-91 335q20 125 110 221
t224 143q-86 53 -130 145t-23 211q27 154 150 250q125 97 317 97t307 -123t86 -293q-20 -117 -97 -199t-186 -121q106 -59 166 -167t39 -232q-31 -177 -166 -289t-358 -112z" />
    <glyph glyph-name="nine" unicode="9" 
d="M668 639q145 0 259 98q115 98 143 257t-72 288t-262 129q-160 0 -273 -96t-141 -254t68 -290q98 -132 278 -132zM328 0l481 567q-72 -27 -164 -26q-219 1 -346 161t-88 381q35 187 175 309t355 123t346 -161t91 -383q-25 -158 -127 -277l-580 -694h-143z" />
    <glyph glyph-name="colon" unicode=":" horiz-adv-x="362" 
d="M152 743l49 281h116l-49 -281h-116zM18 0l52 281h116l-49 -281h-119z" />
    <glyph glyph-name="semicolon" unicode=";" horiz-adv-x="362" 
d="M-68 -240l162 418h113l-199 -418h-76zM152 743l49 281h116l-49 -281h-116z" />
    <glyph glyph-name="less" unicode="&#x3c;" horiz-adv-x="948" 
d="M819 401l-704 299l18 101l809 291l-20 -109l-674 -235l592 -242z" />
    <glyph glyph-name="equal" unicode="=" horiz-adv-x="948" 
d="M84 528l18 101h758l-18 -101h-758zM143 858l19 103h758l-19 -103h-758z" />
    <glyph glyph-name="greater" unicode="&#x3e;" horiz-adv-x="948" 
d="M63 401l21 111l672 233l-588 242l18 103l703 -297l-19 -101z" />
    <glyph glyph-name="question" unicode="?" horiz-adv-x="1030" 
d="M293 0l49 281h119l-49 -281h-119zM606 1413q-84 0 -165 -35t-134 -88l-78 82q66 64 171 104t216 40q195 0 314 -115t88 -284t-196 -269q-68 -43 -138 -91t-128 -136t-81 -213l-4 -17h-106q16 140 81 250q64 111 133 163t135 94t119 96q52 54 64 130q23 131 -62 210
t-229 79z" />
    <glyph glyph-name="at" unicode="@" horiz-adv-x="1726" 
d="M906 772q-108 0 -196 -87t-106 -195t33 -178t153 -70t178 76q75 76 101 188q31 110 -12 188t-151 78zM803 -272q-236 0 -408 116t-244 312q-73 195 -32 426q53 298 285 490t542 192q215 0 383 -104t245 -277q77 -171 46 -349t-119 -288t-233 -111q-88 0 -143 43
q-54 43 -70 111q-106 -154 -291 -154q-143 -1 -220 105t-50 257q26 151 142 265t271 112q86 0 144 -40q57 -41 79 -107l33 135h107l-96 -370q-68 -248 108 -248q84 0 146 88t87 226t-33 281q-58 142 -200 232t-336 90q-262 0 -468 -169t-251 -423q-35 -190 21 -358t206 -274
q148 -106 357 -107q291 0 492 227l83 -73q-227 -256 -583 -256z" />
    <glyph glyph-name="A" unicode="A" horiz-adv-x="1404" 
d="M858 1337l-452 -807h612zM-18 0l841 1495h119l303 -1495h-121l-84 418h-698l-233 -418h-127z" />
    <glyph glyph-name="B" unicode="B" horiz-adv-x="1320" 
d="M854 1389h-426l-100 -570h485q125 0 215 76q90 77 110 193t-61 208q-80 92 -223 93zM782 715h-473l-106 -604h502q143 1 241 79t121 207t-61 224q-85 94 -224 94zM868 1495q194 0 304 -128t79 -294q-18 -109 -87 -193t-175 -126q109 -50 165 -152t32 -229
q-29 -165 -163 -269t-327 -104h-633l263 1495h542z" />
    <glyph glyph-name="C" unicode="C" horiz-adv-x="1632" 
d="M848 -20q-350 0 -546 250t-134 601q51 295 289 490t540 195q215 0 383 -100t248 -273l-115 -53q-141 313 -530 313q-252 0 -453 -167t-245 -421q-51 -289 109 -506t464 -217q176 0 330 84t246 232l106 -52q-106 -176 -288 -276t-404 -100z" />
    <glyph glyph-name="D" unicode="D" horiz-adv-x="1441" 
d="M688 1386h-262l-223 -1275h350q258 -1 453 163q196 164 242 438t-116 474q-163 200 -444 200zM545 0h-482l263 1495h381q325 -4 521 -241t140 -554q-56 -316 -284 -508t-539 -192z" />
    <glyph glyph-name="E" unicode="E" horiz-adv-x="1193" 
d="M63 0l263 1495h915l-20 -111h-795l-100 -569h796l-20 -110h-795l-104 -594h794l-18 -111h-916z" />
    <glyph glyph-name="F" unicode="F" horiz-adv-x="1118" 
d="M63 0l263 1495h845l-18 -111h-727l-102 -579h727l-21 -113h-725l-121 -692h-121z" />
    <glyph glyph-name="G" unicode="G" horiz-adv-x="1736" 
d="M859 -20q-343 0 -550 252t-145 602q51 294 280 488t533 194q213 0 379 -100t260 -269l-113 -60q-170 315 -536 316q-254 0 -448 -167t-238 -417q-33 -186 29 -352t214 -269t357 -104q256 0 432 162t221 410h-655l20 110h776l-6 -37q-35 -327 -251 -543t-559 -216z" />
    <glyph glyph-name="H" unicode="H" horiz-adv-x="1345" 
d="M981 0l121 692h-797l-121 -692h-121l263 1495h120l-120 -690h796l121 690h119l-262 -1495h-119z" />
    <glyph glyph-name="I" unicode="I" horiz-adv-x="466" 
d="M84 0l262 1495h119l-262 -1495h-119z" />
    <glyph glyph-name="J" unicode="J" horiz-adv-x="1015" 
d="M430 -20q-164 0 -265 71q-101 72 -136 189l110 36q66 -186 281 -186q125 0 205 79t100 208l199 1118h118l-196 -1108q-32 -191 -142 -299t-274 -108z" />
    <glyph glyph-name="K" unicode="K" horiz-adv-x="1327" 
d="M1053 0l-398 811l-395 -373l-76 -438h-121l263 1495h120l-155 -891l944 891h156l-643 -608l434 -887h-129z" />
    <glyph glyph-name="L" unicode="L" horiz-adv-x="1099" 
d="M63 0l263 1495h120l-243 -1382h708l-18 -113h-830z" />
    <glyph glyph-name="M" unicode="M" horiz-adv-x="1773" 
d="M63 0l263 1495h108l459 -836l790 836h107l-262 -1495h-119l223 1286l-766 -811l-456 823l-226 -1298h-121z" />
    <glyph glyph-name="N" unicode="N" horiz-adv-x="1464" 
d="M63 0l263 1495h127l682 -1302l229 1302h119l-262 -1495h-117l-690 1313l-230 -1313h-121z" />
    <glyph glyph-name="O" unicode="O" horiz-adv-x="1746" 
d="M874 90q244 0 437 166t237 416q33 182 -26 349q-60 167 -208 275t-353 109q-248 0 -442 -167t-238 -419q-49 -299 123 -514t470 -215zM864 -20q-350 0 -556 252t-144 602q51 298 280 490t523 192q237 0 413 -126t250 -323t35 -412q-53 -297 -279 -486t-522 -189z" />
    <glyph glyph-name="P" unicode="P" horiz-adv-x="1263" 
d="M721 1389h-295l-139 -801h350q190 0 318 104t159 278q32 174 -82 296q-114 123 -311 123zM737 1495q240 0 386 -155q147 -155 109 -378t-200 -353t-399 -130h-365l-84 -479h-121l263 1495h411z" />
    <glyph glyph-name="Q" unicode="Q" horiz-adv-x="1748" 
d="M860 -20q-350 0 -554 252t-142 602q51 294 283 488t526 194q233 0 408 -125t249 -321t35 -406q-53 -295 -281 -490q76 -61 175 -61h38l-20 -113h-37q-86 0 -155 33t-111 83q-82 99 -159 215q-34 50 -87 83t-117 32h-41l21 113h39q120 0 191 -68t118 -138t66 -95
q195 160 241 412q33 182 -27 349q-61 167 -209 275t-352 109q-246 0 -440 -167t-237 -419q-49 -297 121 -511t466 -214q133 0 256 53q43 -59 78 -90q-162 -75 -342 -75z" />
    <glyph glyph-name="R" unicode="R" horiz-adv-x="1241" 
d="M1022 0q-156 0 -272 106t-166 258q-51 152 -47 310h143q164 0 274 92t134 244q26 152 -76 263q-102 112 -277 116h-307l-244 -1389h-121l263 1495h428q221 1 355 -149t97 -365q-31 -176 -169 -293t-343 -117h-35q19 -186 123 -323t260 -137h33l-22 -111h-31z" />
    <glyph glyph-name="S" unicode="S" horiz-adv-x="1118" 
d="M504 -20q-330 0 -492 266l109 69q55 -102 154 -163q99 -62 237 -62t236 72q96 72 118 188q23 139 -59 223t-250 164q-288 137 -333 289q-22 74 -7 166q25 145 147 234q122 90 282 90t277 -60q116 -60 183 -168l-100 -65q-111 188 -347 188q-133 0 -219 -63t-102 -168
q-24 -137 82 -224q55 -44 97 -68t124 -63t138 -75q57 -36 117 -94q123 -119 89 -314q-29 -162 -159 -262t-322 -100z" />
    <glyph glyph-name="T" unicode="T" horiz-adv-x="1230" 
d="M586 0h-121l244 1384h-453l18 111h1026l-20 -111h-453z" />
    <glyph glyph-name="U" unicode="U" horiz-adv-x="1316" 
d="M592 -20q-232 0 -359 148t-83 394l169 973h121l-174 -985q-32 -182 58 -301t297 -119q159 0 273 99t142 253l185 1053h120l-184 -1046q-39 -219 -186 -345q-147 -124 -379 -124z" />
    <glyph glyph-name="V" unicode="V" horiz-adv-x="1366" 
d="M645 0h-115l-288 1495h118l254 -1323l725 1323h127z" />
    <glyph glyph-name="W" unicode="W" horiz-adv-x="2160" 
d="M1552 0h-118l-215 1317l-670 -1317h-121l-178 1495h123l149 -1309l668 1309h115l215 -1315l610 1315h125z" />
    <glyph glyph-name="X" unicode="X" horiz-adv-x="1337" 
d="M1049 0l-347 676l-579 -676h-139l665 780l-360 715h125l319 -623l531 623h139l-617 -727l390 -768h-127z" />
    <glyph glyph-name="Y" unicode="Y" horiz-adv-x="1255" 
d="M473 0l127 719l-360 776h122l316 -674l545 674h137l-643 -790l-125 -705h-119z" />
    <glyph glyph-name="Z" unicode="Z" horiz-adv-x="1218" 
d="M1012 0h-983l18 109l1057 1275h-809l18 111h955l-19 -109l-1056 -1275h837z" />
    <glyph glyph-name="bracketleft" unicode="[" horiz-adv-x="817" 
d="M-25 -471l344 1966h560l-19 -111h-440l-309 -1744h440l-19 -111h-557z" />
    <glyph glyph-name="backslash" unicode="\" horiz-adv-x="921" 
d="M653 0l-448 1495h123l450 -1495h-125z" />
    <glyph glyph-name="bracketright" unicode="]" horiz-adv-x="817" 
d="M-39 -471l19 109h438l309 1746h-438l18 111h559l-346 -1966h-559z" />
    <glyph glyph-name="asciicircum" unicode="^" horiz-adv-x="1007" 
d="M289 1057l315 342h88l199 -342h-119l-137 241l-217 -241h-129z" />
    <glyph glyph-name="underscore" unicode="_" horiz-adv-x="948" 
d="M-33 -193l21 101h757l-18 -101h-760z" />
    <glyph glyph-name="grave" unicode="`" horiz-adv-x="1007" 
d="M680 1157l-231 318h151l186 -318h-106z" />
    <glyph glyph-name="a" unicode="a" horiz-adv-x="1331" 
d="M604 86q158 0 282 109t156 285t-72 318q-103 140 -302 140q-162 0 -288 -105t-156 -283t78 -322q108 -142 302 -142zM594 -20q-246 0 -385 177t-96 421q37 202 193 334t358 132q154 0 264 -74t153 -194l45 248h117l-139 -770q-14 -82 8 -118t92 -36h27l-21 -100h-61
q-82 0 -124 46t-40 126q-145 -192 -391 -192z" />
    <glyph glyph-name="b" unicode="b" horiz-adv-x="1308" 
d="M649 88q156 0 282 106q127 106 157 279q30 175 -76 319t-299 146q-160 0 -288 -111t-158 -287q-31 -176 77 -314t305 -138zM649 -20q-157 0 -265 72t-157 194l-43 -246h-116l262 1495h116q-74 -416 -112 -639q150 188 390 188t377 -179q138 -179 95 -421
q-34 -204 -190 -334t-357 -130z" />
    <glyph glyph-name="c" unicode="c" horiz-adv-x="1196" 
d="M602 -20q-250 0 -391 177t-98 418q35 205 192 337q158 132 363 132q156 0 276 -74t176 -196l-104 -53q-102 217 -352 217q-160 0 -286 -105t-156 -283t81 -322q111 -142 305 -142q113 0 212 54t159 151l106 -51q-75 -120 -203 -190t-280 -70z" />
    <glyph glyph-name="d" unicode="d" horiz-adv-x="1337" 
d="M604 86q158 0 281 109t155 285t-72 318q-103 140 -302 140q-160 0 -287 -105t-157 -283t78 -322q108 -142 304 -142zM592 -20q-246 0 -384 178t-95 420q35 202 191 334t358 132q152 0 262 -72t155 -190l131 713h115l-223 -1241q-16 -80 10 -117t94 -37h25l-21 -100h-59
q-168 0 -168 170q-145 -190 -391 -190z" />
    <glyph glyph-name="e" unicode="e" horiz-adv-x="1206" 
d="M705 942q-158 0 -293 -92t-181 -248q229 -82 395 -82t263 53q96 53 111 145t-61 158t-234 66zM625 -20q-272 0 -414 171q-141 171 -98 420q37 213 210 343t383 130t322 -101t87 -237q-23 -136 -147 -213t-328 -77t-425 88q-17 -186 97 -304t321 -118t338 156l92 -60
q-166 -198 -438 -198z" />
    <glyph glyph-name="f" unicode="f" horiz-adv-x="714" 
d="M743 1495h35l-18 -109h-25q-141 0 -193 -47t-83 -217l-19 -98h252l-18 -100h-250l-164 -942q-35 -201 -112 -273t-248 -71h-52l19 110h22q127 0 180 48q52 48 76 186l164 942h-217l19 100h215l18 100q39 227 119 299t280 72z" />
    <glyph glyph-name="g" unicode="g" horiz-adv-x="1310" 
d="M604 86q158 0 281 109t155 285t-72 318q-103 140 -302 140q-160 0 -287 -105t-157 -283t78 -322q108 -142 304 -142zM588 -20q-242 0 -380 178t-95 420q35 202 191 334t358 132q154 0 264 -74t155 -196l45 250h119l-178 -1004q-92 -512 -537 -512q-168 0 -288 76
t-170 205l118 39q80 -213 349 -213q174 -1 275 107t134 296l2 7q0 8 3 21q3 12 6 30l14 84q-143 -180 -385 -180z" />
    <glyph glyph-name="h" unicode="h" horiz-adv-x="1236" 
d="M1112 100h33l-21 -100h-59q-211 0 -162 246l60 309q31 170 -42 279q-73 108 -234 108t-265 -99t-135 -259l-103 -584h-116l262 1495h114l-110 -618q139 167 355 167t324 -141t66 -352l-57 -301q-16 -82 3 -116t87 -34z" />
    <glyph glyph-name="i" unicode="i" horiz-adv-x="460" 
d="M268 1167l54 299h114l-51 -299h-117zM264 0q-201 0 -158 246l138 778h116l-135 -772q-25 -152 92 -152h29l-20 -100h-62z" />
    <glyph glyph-name="j" unicode="j" horiz-adv-x="442" 
d="M285 1167l53 299h115l-52 -299h-116zM-213 -467h-33l19 109q147 0 201 50t85 214l201 1118h117l-199 -1120q-39 -219 -118 -295t-273 -76z" />
    <glyph glyph-name="k" unicode="k" horiz-adv-x="1114" 
d="M973 0q-115 0 -157 30t-103 134l-203 364l-274 -231l-52 -297h-116l262 1495h116l-184 -1053l688 582h154l-508 -432l213 -375q43 -76 73 -96t103 -21h31l-19 -100h-24z" />
    <glyph glyph-name="l" unicode="l" horiz-adv-x="462" 
d="M268 0q-203 0 -157 258l217 1237h116l-217 -1237q-14 -84 9 -121t86 -37h26l-20 -100h-60z" />
    <glyph glyph-name="m" unicode="m" horiz-adv-x="1961" 
d="M131 924h-29l19 100h59q150 0 160 -158q129 178 367 178q117 0 207 -62t126 -165q60 109 162 168t225 59q213 0 315 -139t62 -354l-59 -301q-31 -150 90 -150h35l-21 -100h-69q-94 0 -135 63t-17 183l60 309q31 170 -39 279q-69 108 -221 108t-243 -93t-120 -241
l-119 -608h-117l119 604q29 142 -44 240t-218 98q-301 0 -373 -358l-114 -584h-117l145 766q31 158 -96 158z" />
    <glyph glyph-name="n" unicode="n" horiz-adv-x="1261" 
d="M131 924h-29l19 100h59q74 0 116 -41t44 -121q146 182 368 182t330 -141t66 -352l-57 -301q-16 -82 3 -116t87 -34h32l-20 -100h-59q-211 0 -162 246l59 309q31 170 -42 279q-73 108 -233 108t-266 -100q-104 -100 -137 -262l-110 -580h-117l145 766q31 158 -96 158z" />
    <glyph glyph-name="o" unicode="o" horiz-adv-x="1267" 
d="M606 86q156 0 282 105t156 279t-77 322q-109 146 -305 146q-158 0 -284 -105t-157 -283t79 -320q110 -144 306 -144zM600 -20q-250 0 -390 177t-97 421q35 202 193 334t360 132q250 0 391 -181t98 -421q-37 -202 -193 -332t-362 -130z" />
    <glyph glyph-name="p" unicode="p" horiz-adv-x="1331" 
d="M670 88q156 0 282 106t154 267q34 187 -72 331t-301 146q-160 0 -287 -111q-126 -111 -156 -287t76 -314t304 -138zM674 -20q-158 0 -266 72t-158 198l-127 -721h-119l221 1237q29 158 -98 158h-27l21 100h61q82 0 122 -48t36 -132q158 200 402 200t380 -179t97 -421
q-37 -204 -191 -334t-354 -130z" />
    <glyph glyph-name="q" unicode="q" horiz-adv-x="1306" 
d="M602 86q158 0 281 109t155 285t-71 318q-104 140 -303 140q-160 0 -287 -105t-156 -283t79 -322q108 -142 302 -142zM587 -20q-241 0 -380 177t-96 421q35 202 191 334t360 132q156 0 266 -74t153 -198l45 252h117l-262 -1495h-117q70 387 113 635q-149 -184 -390 -184z
" />
    <glyph glyph-name="r" unicode="r" horiz-adv-x="825" 
d="M131 924h-29l19 100h57q168 0 162 -184q129 184 367 184h100l-21 -117h-88q-164 0 -262 -91t-129 -253l-108 -563h-117l145 766q31 158 -96 158z" />
    <glyph glyph-name="s" unicode="s" horiz-adv-x="1007" 
d="M492 -20q-156 0 -270 60t-181 161l102 65q113 -184 349 -184q116 0 184 50t78 122t-28 105q-24 22 -56 46t-149 64q-118 39 -166 61q-137 64 -169 154q-18 53 -6 125q20 111 122 175t234 64q134 0 238 -48t168 -123l-94 -64q-113 135 -311 135q-98 0 -163 -39t-79 -117
t49 -123t176 -85t163 -64t103 -62q110 -80 87 -206q-23 -127 -123 -200q-101 -72 -258 -72z" />
    <glyph glyph-name="t" unicode="t" horiz-adv-x="673" 
d="M459 0q-211 0 -276 80t-25 297l96 545h-168l18 102h168l43 244l127 63l-55 -307h262l-18 -102h-262l-95 -543q-30 -168 10 -222t203 -55l-16 -102h-12z" />
    <glyph glyph-name="u" unicode="u" horiz-adv-x="1241" 
d="M540 -18q-217 0 -320 139t-62 352l57 293q14 86 -7 122q-22 36 -89 36h-27l17 100h73q197 0 150 -252l-58 -301q-33 -171 39 -279t230 -108t259 102t128 258l110 580h117l-145 -766q-29 -158 94 -158h33l-19 -100h-63q-160 0 -162 156q-138 -174 -355 -174z" />
    <glyph glyph-name="v" unicode="v" horiz-adv-x="1189" 
d="M510 -20q-217 0 -308 128t-48 347l61 311q16 80 -4 119t-86 39h-31l17 100h71q92 0 134 -63t18 -189l-68 -342q-31 -158 34 -252t204 -94q176 0 291 142t157 370t-12 428h119q45 -230 1 -468t-188 -407t-362 -169z" />
    <glyph glyph-name="w" unicode="w" horiz-adv-x="1935" 
d="M502 -20q-205 0 -296 138t-48 355l57 293q31 158 -94 158h-27l17 100h71q199 0 152 -252l-60 -301q-34 -172 28 -280q62 -107 212 -107t248 105t125 255l110 580h115l-113 -610q-29 -154 37 -242t205 -88q180 0 297 142t159 366t-14 432h119q43 -246 6 -442
q-47 -262 -192 -432t-375 -170q-135 0 -224 60t-114 177q-66 -113 -170 -175t-231 -62z" />
    <glyph glyph-name="x" unicode="x" horiz-adv-x="1146" 
d="M219 924h-57l16 96h51q139 0 189 -37t108 -186l74 -187l399 414l144 2l-500 -520l98 -244q43 -110 79 -136t136 -26h48l-17 -100h-39q-145 0 -195 37t-110 182l-82 211l-414 -430h-147l516 532l-90 222q-45 114 -78 142t-129 28z" />
    <glyph glyph-name="y" unicode="y" horiz-adv-x="1216" 
d="M467 -492q-157 0 -273 79t-159 206l112 35q78 -213 328 -213q305 0 377 403l20 109q-133 -145 -341 -145t-311 139t-62 352l57 293q14 86 -7 122q-22 36 -89 36h-25l17 100h71q197 0 152 -252l-60 -301q-33 -171 39 -279t230 -108t259 102t128 258l110 580h115
l-186 -1004q-43 -250 -163 -381t-339 -131z" />
    <glyph glyph-name="z" unicode="z" horiz-adv-x="1163" 
d="M43 0l16 102l885 818h-723l19 104h884l-20 -102l-885 -820h752l-19 -102h-909z" />
    <glyph glyph-name="braceleft" unicode="{" horiz-adv-x="837" 
d="M565 -471q-256 0 -337 96t-35 348l47 265q23 127 -4 173t-150 46l20 112q121 0 165 44t67 173l45 265q45 252 158 348t370 96h23l-19 -106q-215 0 -297 -69t-116 -271l-47 -265q-21 -122 -63 -186t-124 -88q131 -51 90 -270l-47 -265q-35 -203 23 -271t274 -69l-20 -106
h-23z" />
    <glyph glyph-name="bar" unicode="|" horiz-adv-x="391" 
d="M-31 -471l346 1966h119l-346 -1966h-119z" />
    <glyph glyph-name="braceright" unicode="}" horiz-adv-x="866" 
d="M324 1495q256 0 336 -96t36 -348l-49 -267q-23 -127 4 -173t150 -46l-21 -114q-121 0 -165 -44t-66 -174l-43 -260q-45 -252 -159 -348t-370 -96h-22l16 106q217 0 299 69t117 271l45 261q20 118 62 184t122 90q-72 28 -91 96t3 176l50 267q34 203 -24 271t-273 69
l20 106h23z" />
    <glyph glyph-name="asciitilde" unicode="~" horiz-adv-x="911" 
d="M454 1421q73 0 156 -59q86 -53 123 -53q82 0 113 100h94q-23 -95 -81 -151t-133 -56t-159 56t-125 55q-78 0 -106 -101h-94q23 94 81 152t131 57z" />
    <glyph glyph-name="exclamdown" unicode="&#xa1;" horiz-adv-x="471" 
d="M205 743l49 281h119l-49 -281h-119zM-8 -471l41 240q94 528 172 841h69q-41 -381 -122 -841l-41 -240h-119z" />
    <glyph glyph-name="cent" unicode="&#xa2;" 
d="M598 88q258 0 377 225l104 -53q-73 -135 -201 -207t-286 -73l-43 -246h-119l45 256q-201 38 -299 198t-60 378t188 345q151 127 358 133l43 246h118l-45 -254q125 -20 216 -93t130 -177l-106 -55q-72 225 -342 227q-166 0 -290 -101t-158 -292t70 -324t300 -133z" />
    <glyph glyph-name="sterling" unicode="&#xa3;" 
d="M236 70q113 0 178 94q-104 80 -183 80t-90 -74q-8 -44 20 -72t75 -28zM471 350q0 54 -5 87q-5 34 -7 51q-1 18 -11 58t-13 54t-15 59t-14 58h-205l18 102h162q-97 441 115 609q109 87 280 88q240 0 363 -195l-95 -66q-57 82 -119 118t-157 36q-246 0 -293 -244
q-25 -141 19 -346h452l-18 -102h-414q57 -256 55 -327q-2 -70 -8 -102t-26 -89q96 -74 143 -94q47 -21 96 -21t78 29t41 96l8 57h127l-12 -71q-20 -117 -82 -166t-168 -49q-107 0 -279 131q-92 -131 -249 -131q-102 0 -160 56q-57 56 -41 138q32 166 205 166q96 0 213 -84
q16 40 16 94z" />
    <glyph glyph-name="currency" unicode="&#xa4;" horiz-adv-x="1583" 
d="M1106 1030q-115 129 -287 136q-172 6 -297 -112t-132 -296q-6 -178 108 -306t287 -136q173 -7 297 112t131 296t-107 306zM1241 125l-145 170q-137 -92 -325 -86t-337 145l-244 -219l-67 76l248 217q-107 145 -101 341t150 343l-156 193l76 65l158 -192q144 100 332 94
t333 -142l228 205l65 -73l-225 -205q109 -147 101 -349t-158 -350l143 -168z" />
    <glyph glyph-name="yen" unicode="&#xa5;" horiz-adv-x="1202" 
d="M201 807l18 98h379l-281 590h127l234 -500l420 500h141l-502 -590h375l-18 -98h-387l-43 -240h387l-17 -98h-387l-84 -469h-117l84 469h-385l17 98h385l43 240h-389z" />
    <glyph glyph-name="brokenbar" unicode="&#xa6;" horiz-adv-x="391" 
d="M-25 -471l152 860h119l-152 -860h-119zM170 635l152 860h118l-151 -860h-119z" />
    <glyph glyph-name="section" unicode="&#xa7;" horiz-adv-x="1212" 
d="M349 692q87 -55 247 -95t244 -79q78 23 127 67t58 95q18 99 -86 154q-83 44 -246 87q-163 42 -234 78q-166 -53 -180 -159q-16 -92 70 -148zM566 78q124 0 210 49t105 141q20 115 -138 178q-55 20 -231 64t-276 120q-100 75 -76 210q12 72 73 127t154 77q-97 80 -75 208
t142 197t278 68t270 -57q110 -56 157 -137l-117 -39q-34 59 -116 98t-183 39q-291 0 -321 -178q-17 -115 129 -170q77 -29 180 -55t157 -44q138 -45 207 -112q69 -68 52 -157q-15 -89 -77 -147t-150 -87q98 -78 77 -201q-18 -140 -142 -216t-296 -75t-305 73t-178 181
l121 37q39 -84 142 -138t227 -54z" />
    <glyph glyph-name="dieresis" unicode="&#xa8;" horiz-adv-x="1011" 
d="M444 1167l50 285h116l-51 -285h-115zM682 1167l51 285h115l-49 -285h-117z" />
    <glyph glyph-name="copyright" unicode="&#xa9;" horiz-adv-x="1755" 
d="M895 344q-184 0 -287 131q-102 131 -73 301t153 274q125 103 283 103q115 0 199 -53t126 -144l-102 -49q-66 141 -231 142q-115 0 -207 -76t-115 -200t51 -224t213 -100q76 -1 147 37t111 104l97 -47q-54 -95 -150 -147t-215 -52zM881 84q249 0 443 166t239 422
q33 184 -28 353q-60 169 -211 279t-357 109q-254 0 -450 -168t-241 -426q-34 -188 30 -356q64 -167 216 -273t359 -106zM870 -20q-350 0 -556 252t-146 602q54 298 282 490t521 192q229 0 404 -118t255 -317t39 -426q-51 -295 -279 -485t-520 -190z" />
    <glyph glyph-name="ordfeminine" unicode="&#xaa;" horiz-adv-x="880" 
d="M496 973q94 1 166 65t87 156t-43 162t-154 70t-166 -58q-69 -57 -84 -154t42 -170q58 -71 152 -71zM811 903q-47 0 -73 30t-23 81q-87 -123 -225 -123t-217 94q-79 95 -57 233t114 214q94 76 196 76t163 -46q60 -45 83 -114l27 147h90l-78 -436q-18 -82 53 -82h21
l-13 -74h-61z" />
    <glyph glyph-name="guillemotleft" unicode="&#xab;" horiz-adv-x="897" 
d="M385 229l-264 244l14 80l350 244l-18 -103l-266 -186l202 -184zM715 229l-264 244l14 80l350 244l-16 -103l-269 -186l203 -184z" />
    <glyph glyph-name="logicalnot" unicode="&#xac;" horiz-adv-x="1257" 
d="M1008 408l94 520h-965l21 112h1085l-117 -632h-118z" />
    <glyph glyph-name="uni00AD" unicode="&#xad;" horiz-adv-x="948" 
d="M90 473l19 100h757l-18 -100h-758z" />
    <glyph glyph-name="registered" unicode="&#xae;" horiz-adv-x="759" 
d="M541 1362q49 0 79 -35t21 -80q-16 -88 -106 -92l63 -111h-72l-92 166h68q66 0 71 41q4 29 -12 39t-51 10h-70l-43 -256h-67l55 318h156zM454 944q108 0 181 64q74 64 92 166q18 104 -46 191q-65 87 -172 87t-181 -63t-93 -169t46 -191t173 -85zM513 1516q132 0 218 -106
t63 -240q-22 -132 -118 -210t-228 -79q-132 0 -218 104q-85 103 -61 237t118 214t226 80z" />
    <glyph glyph-name="macron" unicode="&#xaf;" horiz-adv-x="1007" 
d="M338 1157l18 103h541l-18 -103h-541z" />
    <glyph glyph-name="degree" unicode="&#xb0;" horiz-adv-x="866" 
d="M561 1157q53 0 91 38t38 91t-38 91t-91 38t-91 -38t-38 -91t38 -91t91 -38zM561 1059q-94 -1 -162 67t-67 162q0 94 67 161q68 67 162 67t162 -67t68 -162t-68 -161t-162 -67z" />
    <glyph glyph-name="plusminus" unicode="&#xb1;" horiz-adv-x="948" 
d="M39 268l18 103h758l-18 -103h-758zM150 895l18 102h328l57 328h102l-57 -328h328l-19 -102h-327l-58 -328h-102l57 328h-327z" />
    <glyph glyph-name="twosuperior" unicode="&#xb2;" horiz-adv-x="712" 
d="M510 1417q-121 0 -186 -100l-88 45q94 147 278 147q123 -1 196 -71t54 -171t-96 -165q-78 -63 -172 -116q-93 -54 -134 -83q-40 -29 -80 -74t-49 -94v-2h435l-17 -100h-549l17 102q18 100 93 171t175 130t120 72q19 14 45 32q74 50 93 95q37 83 -12 132q-49 50 -123 50z
" />
    <glyph glyph-name="threesuperior" unicode="&#xb3;" horiz-adv-x="663" 
d="M352 621q-90 1 -158 39t-98 94l97 55q43 -88 165 -88q74 0 123 37q49 36 61 106t-33 118q-46 48 -122 48h-74l17 100h69q78 0 132 38q55 38 65 102t-32 104t-122 39q-80 0 -147 -74l-82 64q94 106 248 106q119 -1 189 -75t48 -179q-23 -129 -149 -182q59 -37 87 -97
t13 -134q-43 -221 -297 -221z" />
    <glyph glyph-name="acute" unicode="&#xb4;" horiz-adv-x="1007" 
d="M393 1157l301 318h154l-342 -318h-113z" />
    <glyph glyph-name="mu" unicode="&#xb5;" horiz-adv-x="1228" 
d="M535 82q139 0 244 97t134 245l113 600h117l-144 -766q-29 -158 97 -158h30l-18 -100h-61q-168 0 -160 176q-141 -196 -373 -196t-326 172l-108 -623h-115l264 1495h117q-90 -510 -94 -532q-35 -180 37 -295t246 -115z" />
    <glyph glyph-name="mu" unicode="&#x3bc;" horiz-adv-x="1228" 
d="M535 82q139 0 244 97t134 245l113 600h117l-144 -766q-29 -158 97 -158h30l-18 -100h-61q-168 0 -160 176q-141 -196 -373 -196t-326 172l-108 -623h-115l264 1495h117q-90 -510 -94 -532q-35 -180 37 -295t246 -115z" />
    <glyph glyph-name="paragraph" unicode="&#xb6;" horiz-adv-x="1153" 
d="M659 1495h531l-262 -1495h-105l244 1389h-125l-244 -1389h-104l108 618h-178q-192 2 -300 140t-74 321q34 184 178 300q145 116 331 116z" />
    <glyph glyph-name="periodcentered" unicode="&#xb7;" horiz-adv-x="362" 
d="M102 379l50 280h116l-49 -280h-117z" />
    <glyph glyph-name="cedilla" unicode="&#xb8;" horiz-adv-x="1007" 
d="M340 -465q-180 0 -289 115l101 57q78 -82 194 -82q72 0 118 26q46 27 54 71t-34 70t-126 26h-65l33 182h100l-23 -113q121 -4 177 -53t43 -127q-12 -78 -91 -125t-192 -47z" />
    <glyph glyph-name="onesuperior" unicode="&#xb9;" horiz-adv-x="579" 
d="M227 1241h-12l21 113h6q78 0 123 43t53 98h102l-133 -764h168l-16 -100h-439l17 100h162l102 586q-19 -33 -63 -55t-91 -21z" />
    <glyph glyph-name="ordmasculine" unicode="&#xba;" horiz-adv-x="815" 
d="M505 977q93 0 160 56q67 57 81 147t-41 167q-57 77 -151 77t-161 -58q-66 -57 -81 -150q-16 -93 42 -166t151 -73zM501 891q-128 0 -211 98q-83 97 -65 227q17 130 111 210t221 81q127 0 211 -99t66 -237q-20 -121 -112 -201t-221 -79z" />
    <glyph glyph-name="guillemotright" unicode="&#xbb;" horiz-adv-x="897" 
d="M188 795l265 -244l-15 -80l-350 -244l18 103l269 186l-203 184zM520 795l264 -244l-14 -80l-350 -244l16 103l269 186l-203 184z" />
    <glyph glyph-name="onequarter" unicode="&#xbc;" horiz-adv-x="1667" 
d="M1042 297h283l70 397zM227 1241h-12l21 113h6q78 0 123 43t53 98h102l-133 -764h168l-16 -100h-439l17 100h162l102 586q-19 -33 -63 -55t-91 -21zM199 0l1337 1495h143l-1337 -1495h-143zM1274 0l35 199h-406l15 98l505 567h107l-100 -567h135l-17 -98h-135l-35 -199
h-104z" />
    <glyph glyph-name="onehalf" unicode="&#xbd;" horiz-adv-x="1712" 
d="M227 1241h-12l21 113h6q78 0 123 43t53 98h102l-133 -764h168l-16 -100h-439l17 100h162l102 586q-19 -33 -63 -55t-91 -21zM1393 784q-121 0 -187 -100l-88 45q94 147 279 148q123 0 195 -71t53 -184q-20 -113 -182 -218q-33 -22 -105 -64t-113 -70q-115 -81 -129 -168
v-2h434l-16 -100h-549l16 102q17 100 93 171t210 149q193 113 222 177q39 85 -18 143q-42 42 -115 42zM135 0l1338 1495h143l-1337 -1495h-144z" />
    <glyph glyph-name="threequarters" unicode="&#xbe;" horiz-adv-x="1669" 
d="M1044 297h283l70 397zM352 618q-90 0 -158 39t-98 95l97 55q43 -88 165 -88q74 0 123 37q49 36 61 106t-33 118q-46 48 -122 48h-74l17 100h69q78 0 132 38q55 38 65 102t-32 104t-122 39q-80 0 -147 -74l-82 64q94 106 248 106q119 -1 189 -75t48 -179
q-23 -129 -149 -182q59 -37 87 -97t13 -134q-43 -222 -297 -222zM201 0l1337 1495h143l-1337 -1495h-143zM1276 0l35 199h-406l15 98l505 567h107l-100 -567h135l-17 -98h-135l-35 -199h-104z" />
    <glyph glyph-name="questiondown" unicode="&#xbf;" horiz-adv-x="1030" 
d="M723 1024l-49 -281h-119l49 281h119zM399 -492q-195 0 -313 115t-86 284q31 169 196 269q70 43 138 91t126 136t81 213l4 17h108q-14 -123 -64 -222q-51 -98 -105 -147q-113 -102 -227 -172q-115 -70 -138 -196q-23 -125 62 -205t229 -80q84 0 166 35t135 88l75 -82
q-66 -64 -171 -104t-216 -40z" />
    <glyph glyph-name="Agrave" unicode="&#xc0;" horiz-adv-x="1404" 
d="M846 1628l-232 318h152l186 -318h-106zM858 1337l-452 -807h612zM-18 0l841 1495h119l303 -1495h-121l-84 418h-698l-233 -418h-127z" />
    <glyph glyph-name="Aacute" unicode="&#xc1;" horiz-adv-x="1404" 
d="M846 1628l301 318h153l-342 -318h-112zM858 1337l-452 -807h612zM-18 0l841 1495h119l303 -1495h-121l-84 418h-698l-233 -418h-127z" />
    <glyph glyph-name="Acircumflex" unicode="&#xc2;" horiz-adv-x="1404" 
d="M606 1628l299 318h101l188 -318h-121l-131 223l-209 -223h-127zM858 1337l-452 -807h612zM-18 0l841 1495h119l303 -1495h-121l-84 418h-698l-233 -418h-127z" />
    <glyph glyph-name="Atilde" unicode="&#xc3;" horiz-adv-x="1404" 
d="M758 1851q78 0 176 -61q94 -63 145 -64q90 0 115 117h96q-20 -103 -80 -163t-147 -60q-31 0 -47 4t-26 6t-22 9q-14 7 -20 9t-19 11q-13 8 -17 10t-18 12q-98 66 -144 66t-76 -32t-39 -87h-94q16 98 77 160q62 62 140 63zM858 1337l-452 -807h612zM-18 0l841 1495h119
l303 -1495h-121l-84 418h-698l-233 -418h-127z" />
    <glyph glyph-name="Adieresis" unicode="&#xc4;" horiz-adv-x="1404" 
d="M725 1638l49 285h117l-51 -285h-115zM963 1638l51 285h114l-49 -285h-116zM858 1337l-452 -807h612zM-18 0l841 1495h119l303 -1495h-121l-84 418h-698l-233 -418h-127z" />
    <glyph glyph-name="Aring" unicode="&#xc5;" horiz-adv-x="1404" 
d="M880 1505q48 0 84 30t45 76t-21 84t-77 38t-82 -29t-44 -76t19 -85t76 -38zM858 1337l-452 -807h612zM924 1823q86 0 140 -72t32 -160q-29 -119 -142 -161l291 -1430h-121l-84 418h-698l-233 -418h-127l806 1436q-55 29 -80 87q-26 58 -9 131t79 121t146 48z" />
    <glyph glyph-name="AE" unicode="&#xc6;" horiz-adv-x="2052" 
d="M1008 1323l-537 -801h588zM-14 0l999 1495h1102l-19 -113h-950l39 -577h809l-20 -111h-783l39 -581h641l-18 -113h-731l-27 414h-670l-276 -414h-135z" />
    <glyph glyph-name="Ccedilla" unicode="&#xc7;" horiz-adv-x="1632" 
d="M788 -469q-180 0 -288 115l100 57q78 -82 195 -82q71 0 117 26q46 27 54 71t-33 70q-42 26 -126 26h-66l31 170q-319 30 -491 274t-113 573q51 295 289 490t540 195q215 0 383 -100t248 -273l-115 -53q-141 313 -530 313q-252 0 -453 -167t-245 -421q-51 -289 109 -506
t464 -217q176 0 330 84t246 232l106 -52q-104 -172 -279 -271t-391 -105l-18 -97q121 -4 176 -53t43 -127t-91 -125t-192 -47z" />
    <glyph glyph-name="Egrave" unicode="&#xc8;" horiz-adv-x="1193" 
d="M774 1628l-231 318h151l187 -318h-107zM63 0l263 1495h915l-20 -111h-795l-100 -569h796l-20 -110h-795l-104 -594h794l-18 -111h-916z" />
    <glyph glyph-name="Eacute" unicode="&#xc9;" horiz-adv-x="1193" 
d="M723 1628l301 318h154l-342 -318h-113zM63 0l263 1495h915l-20 -111h-795l-100 -569h796l-20 -110h-795l-104 -594h794l-18 -111h-916z" />
    <glyph glyph-name="Ecircumflex" unicode="&#xca;" horiz-adv-x="1193" 
d="M512 1628l299 318h100l189 -318h-121l-131 223l-209 -223h-127zM63 0l263 1495h915l-20 -111h-795l-100 -569h796l-20 -110h-795l-104 -594h794l-18 -111h-916z" />
    <glyph glyph-name="Edieresis" unicode="&#xcb;" horiz-adv-x="1193" 
d="M868 1638l52 285h114l-49 -285h-117zM631 1638l49 285h117l-52 -285h-114zM63 0l263 1495h915l-20 -111h-795l-100 -569h796l-20 -110h-795l-104 -594h794l-18 -111h-916z" />
    <glyph glyph-name="Igrave" unicode="&#xcc;" horiz-adv-x="466" 
d="M375 1628l-232 318h152l186 -318h-106zM84 0l262 1495h119l-262 -1495h-119z" />
    <glyph glyph-name="Iacute" unicode="&#xcd;" horiz-adv-x="466" 
d="M375 1628l301 318h153l-342 -318h-112zM84 0l262 1495h119l-262 -1495h-119z" />
    <glyph glyph-name="Icircumflex" unicode="&#xce;" horiz-adv-x="466" 
d="M135 1628l299 318h101l188 -318h-121l-131 223l-209 -223h-127zM84 0l262 1495h119l-262 -1495h-119z" />
    <glyph glyph-name="Idieresis" unicode="&#xcf;" horiz-adv-x="466" 
d="M260 1638l49 285h117l-51 -285h-115zM498 1638l51 285h115l-50 -285h-116zM84 0l262 1495h119l-262 -1495h-119z" />
    <glyph glyph-name="Eth" unicode="&#xd0;" horiz-adv-x="1495" 
d="M606 111q256 0 453 168q197 167 243 437t-118 470q-162 200 -443 200h-262l-100 -567h469l-17 -100h-469l-106 -608h350zM598 0h-481l125 719h-160l18 100h160l119 676h381q215 -2 381 -112q165 -109 241 -293t37 -398q-53 -300 -283 -496t-538 -196z" />
    <glyph glyph-name="Ntilde" unicode="&#xd1;" horiz-adv-x="1464" 
d="M809 1851q78 0 176 -61q94 -63 145 -64q90 0 115 117h96q-20 -103 -79 -163t-148 -60q-31 0 -47 4q-15 4 -25 6t-23 9t-19 9q-11 4 -36 21q-117 78 -163 78q-45 0 -75 -32t-40 -87h-94q16 98 78 160t139 63zM63 0l263 1495h127l682 -1302l229 1302h119l-262 -1495h-117
l-690 1313l-230 -1313h-121z" />
    <glyph glyph-name="Ograve" unicode="&#xd2;" horiz-adv-x="1746" 
d="M1012 1628l-232 318h152l186 -318h-106zM874 90q244 0 437 166t237 416q33 182 -26 349q-60 167 -208 275t-353 109q-248 0 -442 -167t-238 -419q-49 -299 123 -514t470 -215zM864 -20q-350 0 -556 252t-144 602q51 298 280 490t523 192q237 0 413 -126t250 -323t35 -412
q-53 -297 -279 -486t-522 -189z" />
    <glyph glyph-name="Oacute" unicode="&#xd3;" horiz-adv-x="1746" 
d="M874 90q244 0 437 166t237 416q33 182 -26 349q-60 167 -208 275t-353 109q-248 0 -442 -167t-238 -419q-49 -299 123 -514t470 -215zM864 -20q-350 0 -556 252t-144 602q51 298 280 490t523 192q237 0 413 -126t250 -323t35 -412q-53 -297 -279 -486t-522 -189z
M983 1628l301 318h154l-342 -318h-113z" />
    <glyph glyph-name="Ocircumflex" unicode="&#xd4;" horiz-adv-x="1746" 
d="M748 1628l299 318h100l188 -318h-121l-131 223l-209 -223h-126zM874 90q244 0 437 166t237 416q33 182 -26 349q-60 167 -208 275t-353 109q-248 0 -442 -167t-238 -419q-49 -299 123 -514t470 -215zM864 -20q-350 0 -556 252t-144 602q51 298 280 490t523 192
q237 0 413 -126t250 -323t35 -412q-53 -297 -279 -486t-522 -189z" />
    <glyph glyph-name="Otilde" unicode="&#xd5;" horiz-adv-x="1746" 
d="M920 1851q78 0 176 -61q94 -63 145 -64q90 0 115 117h96q-20 -103 -80 -163t-147 -60q-31 0 -47 4t-26 6t-22 9q-14 7 -20 9t-19 11q-13 8 -17 10t-18 12q-98 66 -144 66t-76 -32t-39 -87h-95q16 98 78 160t140 63zM874 90q244 0 437 166t237 416q33 182 -26 349
q-60 167 -208 275t-353 109q-248 0 -442 -167t-238 -419q-49 -299 123 -514t470 -215zM864 -20q-350 0 -556 252t-144 602q51 298 280 490t523 192q237 0 413 -126t250 -323t35 -412q-53 -297 -279 -486t-522 -189z" />
    <glyph glyph-name="Odieresis" unicode="&#xd6;" horiz-adv-x="1746" 
d="M874 90q244 0 437 166t237 416q33 182 -26 349q-60 167 -208 275t-353 109q-248 0 -442 -167t-238 -419q-49 -299 123 -514t470 -215zM864 -20q-350 0 -556 252t-144 602q51 298 280 490t523 192q237 0 413 -126t250 -323t35 -412q-53 -297 -279 -486t-522 -189z
M846 1638l49 285h117l-51 -285h-115zM1083 1638l52 285h114l-49 -285h-117z" />
    <glyph glyph-name="multiply" unicode="&#xd7;" horiz-adv-x="948" 
d="M182 412l-59 71l311 265l-215 264l80 69l217 -264l305 260l60 -71l-306 -261l213 -258l-81 -69l-213 258z" />
    <glyph glyph-name="Oslash" unicode="&#xd8;" horiz-adv-x="1744" 
d="M886 94q232 0 425 164t237 414q27 145 -10 285t-127 247l-915 -987q158 -123 390 -123zM944 1405q-234 0 -426 -166t-237 -420q-53 -313 139 -532l917 989q-159 129 -393 129zM880 -20q-276 0 -468 149l-119 -129h-139l184 199q-113 121 -160 285t-14 350q51 298 280 490
t505 192t466 -154l125 133h139l-188 -205q111 -123 157 -288t15 -347q-51 -295 -279 -485t-504 -190z" />
    <glyph glyph-name="Ugrave" unicode="&#xd9;" horiz-adv-x="1316" 
d="M795 1606l-232 317h152l186 -317h-106zM592 -20q-232 0 -359 148t-83 394l169 973h121l-174 -985q-32 -182 58 -301t297 -119q159 0 273 99t142 253l185 1053h120l-184 -1046q-39 -219 -186 -345q-147 -124 -379 -124z" />
    <glyph glyph-name="Uacute" unicode="&#xda;" horiz-adv-x="1316" 
d="M592 -20q-232 0 -359 148t-83 394l169 973h121l-174 -985q-32 -182 58 -301t297 -119q159 0 273 99t142 253l185 1053h120l-184 -1046q-39 -219 -186 -345q-147 -124 -379 -124zM766 1610l301 317h154l-342 -317h-113z" />
    <glyph glyph-name="Ucircumflex" unicode="&#xdb;" horiz-adv-x="1316" 
d="M557 1628l299 318h100l189 -318h-121l-131 223l-209 -223h-127zM592 -20q-232 0 -359 148t-83 394l169 973h121l-174 -985q-32 -182 58 -301t297 -119q159 0 273 99t142 253l185 1053h120l-184 -1046q-39 -219 -186 -345q-147 -124 -379 -124z" />
    <glyph glyph-name="Udieresis" unicode="&#xdc;" horiz-adv-x="1316" 
d="M592 -20q-232 0 -359 148t-83 394l169 973h121l-174 -985q-32 -182 58 -301t297 -119q159 0 273 99t142 253l185 1053h120l-184 -1046q-39 -219 -186 -345q-147 -124 -379 -124zM672 1622l49 285h117l-52 -285h-114zM909 1622l52 285h114l-49 -285h-117z" />
    <glyph glyph-name="Yacute" unicode="&#xdd;" horiz-adv-x="1255" 
d="M741 1610l301 317h154l-342 -317h-113zM473 0l127 719l-360 776h122l316 -674l545 674h137l-643 -790l-125 -705h-119z" />
    <glyph glyph-name="Thorn" unicode="&#xde;" horiz-adv-x="1191" 
d="M682 1079h-328l-108 -616h372q147 0 246 81q98 81 122 214t-64 227t-240 94zM696 1190q197 0 318 -128t90 -312t-163 -290q-132 -108 -331 -108h-383l-61 -352h-121l262 1495h121l-53 -305h321z" />
    <glyph glyph-name="germandbls" unicode="&#xdf;" horiz-adv-x="1163" 
d="M717 1509q182 0 282 -131t70 -297q-20 -111 -99 -189t-184 -110q133 -32 204 -154t42 -276t-149 -261q-121 -105 -308 -105q-73 0 -149 26t-115 62l31 96q36 -32 102 -56t127 -24q137 0 232 81q94 81 118 216q25 135 -61 239t-242 103h-34l16 107h37q109 0 204 70
t117 191q22 120 -48 215q-72 95 -196 95t-211 -78t-110 -215l-213 -1200q-35 -201 -133 -293t-278 -92h-19l19 109q139 0 203 64t89 208l213 1198q35 193 148 297t295 104z" />
    <glyph glyph-name="agrave" unicode="&#xe0;" horiz-adv-x="1331" 
d="M682 1157l-231 318h151l186 -318h-106zM604 86q158 0 282 109t156 285t-72 318q-103 140 -302 140q-162 0 -288 -105t-156 -283t78 -322q108 -142 302 -142zM594 -20q-246 0 -385 177t-96 421q37 202 193 334t358 132q154 0 264 -74t153 -194l45 248h117l-139 -770
q-14 -82 8 -118t92 -36h27l-21 -100h-61q-82 0 -124 46t-40 126q-145 -192 -391 -192z" />
    <glyph glyph-name="aacute" unicode="&#xe1;" horiz-adv-x="1331" 
d="M653 1157l301 318h154l-342 -318h-113zM604 86q158 0 282 109t156 285t-72 318q-103 140 -302 140q-162 0 -288 -105t-156 -283t78 -322q108 -142 302 -142zM594 -20q-246 0 -385 177t-96 421q37 202 193 334t358 132q154 0 264 -74t153 -194l45 248h117l-139 -770
q-14 -82 8 -118t92 -36h27l-21 -100h-61q-82 0 -124 46t-40 126q-145 -192 -391 -192z" />
    <glyph glyph-name="acircumflex" unicode="&#xe2;" horiz-adv-x="1331" 
d="M455 1157l299 318h100l188 -318h-120l-131 223l-209 -223h-127zM604 86q158 0 282 109t156 285t-72 318q-103 140 -302 140q-162 0 -288 -105t-156 -283t78 -322q108 -142 302 -142zM594 -20q-246 0 -385 177t-96 421q37 202 193 334t358 132q154 0 264 -74t153 -194
l45 248h117l-139 -770q-14 -82 8 -118t92 -36h27l-21 -100h-61q-82 0 -124 46t-40 126q-145 -192 -391 -192z" />
    <glyph glyph-name="atilde" unicode="&#xe3;" horiz-adv-x="1331" 
d="M626 1380q78 0 177 -61q94 -63 145 -64q90 0 115 117h96q-19 -104 -79 -164t-148 -59q-31 0 -47 4q-15 4 -25 6t-23 9q-13 8 -19 10t-20 10q-12 8 -16 10t-19 12q-99 66 -145 66q-44 0 -74 -32t-40 -87h-94q16 99 77 161t139 62zM604 86q158 0 282 109t156 285t-72 318
q-103 140 -302 140q-162 0 -288 -105t-156 -283t78 -322q108 -142 302 -142zM594 -20q-246 0 -385 177t-96 421q37 202 193 334t358 132q154 0 264 -74t153 -194l45 248h117l-139 -770q-14 -82 8 -118t92 -36h27l-21 -100h-61q-82 0 -124 46t-40 126q-145 -192 -391 -192z
" />
    <glyph glyph-name="adieresis" unicode="&#xe4;" horiz-adv-x="1331" 
d="M569 1167l49 285h117l-51 -285h-115zM807 1167l51 285h115l-49 -285h-117zM604 86q158 0 282 109t156 285t-72 318q-103 140 -302 140q-162 0 -288 -105t-156 -283t78 -322q108 -142 302 -142zM594 -20q-246 0 -385 177t-96 421q37 202 193 334t358 132q154 0 264 -74
t153 -194l45 248h117l-139 -770q-14 -82 8 -118t92 -36h27l-21 -100h-61q-82 0 -124 46t-40 126q-145 -192 -391 -192z" />
    <glyph glyph-name="aring" unicode="&#xe5;" horiz-adv-x="1331" 
d="M796 1460q-46 0 -81 -28t-44 -76q-9 -47 19 -85t75 -38q48 0 84 30q36 29 45 75t-21 84q-31 38 -77 38zM810 1550q85 0 139 -72t34 -153q-21 -82 -81 -132t-146 -50t-140 70q-54 71 -34 156t82 133t146 48zM604 86q158 0 282 109t156 285t-72 318q-103 140 -302 140
q-162 0 -288 -105t-156 -283t78 -322q108 -142 302 -142zM594 -20q-246 0 -385 177t-96 421q37 202 193 334t358 132q154 0 264 -74t153 -194l45 248h117l-139 -770q-14 -82 8 -118t92 -36h27l-21 -100h-61q-82 0 -124 46t-40 126q-145 -192 -391 -192z" />
    <glyph glyph-name="ae" unicode="&#xe6;" horiz-adv-x="1972" 
d="M451 76q132 0 249 81t181 191q-16 90 -4 182q0 4 12 52q-35 -31 -112 -54t-229 -49q-152 -27 -231 -67q-80 -40 -95 -132t41 -148t188 -56zM1472 942q-157 0 -292 -92t-183 -246q219 -84 391 -84t267 54q96 54 111 146t-61 158q-76 64 -233 64zM423 -20q-171 0 -252 85
t-62 209q16 142 142 209q100 53 309 92q208 39 274 68q90 45 103 120t-56 132q-71 57 -219 57t-248 -68t-121 -188h-107q27 164 158 256t330 92q145 0 236 -51t120 -137q176 188 447 188q201 0 315 -99t91 -235t-149 -215t-335 -79t-420 90q-15 -188 99 -306t319 -118
t340 147l88 -63q-164 -186 -439 -186q-170 0 -292 70t-179 196q-73 -110 -197 -188t-295 -78z" />
    <glyph glyph-name="ccedilla" unicode="&#xe7;" horiz-adv-x="1196" 
d="M504 -467q-180 0 -289 115l100 57q78 -82 195 -82q72 0 118 26q46 27 54 71t-34 70t-126 26h-65l30 176q-201 39 -307 206q-106 166 -69 374t194 340q158 132 363 132q156 0 276 -74t176 -196l-104 -53q-102 217 -352 217q-160 0 -286 -105t-156 -283t81 -322
q111 -142 305 -142q113 0 212 54t159 151l106 -51q-75 -121 -203 -191t-280 -69l-16 2l-19 -97q121 -4 176 -53t43 -127t-90 -125t-192 -47z" />
    <glyph glyph-name="egrave" unicode="&#xe8;" horiz-adv-x="1206" 
d="M670 1157l-232 318h152l186 -318h-106zM705 942q-158 0 -293 -92t-181 -248q229 -82 395 -82t263 53q96 53 111 145t-61 158t-234 66zM625 -20q-272 0 -414 171q-141 171 -98 420q37 213 210 343t383 130t322 -101t87 -237q-23 -136 -147 -213t-328 -77t-425 88
q-17 -186 97 -304t321 -118t338 156l92 -60q-166 -198 -438 -198z" />
    <glyph glyph-name="eacute" unicode="&#xe9;" horiz-adv-x="1206" 
d="M641 1157l301 318h154l-342 -318h-113zM705 942q-158 0 -293 -92t-181 -248q229 -82 395 -82t263 53q96 53 111 145t-61 158t-234 66zM625 -20q-272 0 -414 171q-141 171 -98 420q37 213 210 343t383 130t322 -101t87 -237q-23 -136 -147 -213t-328 -77t-425 88
q-17 -186 97 -304t321 -118t338 156l92 -60q-166 -198 -438 -198z" />
    <glyph glyph-name="ecircumflex" unicode="&#xea;" horiz-adv-x="1206" 
d="M424 1157l299 318h100l189 -318h-121l-131 223l-209 -223h-127zM705 942q-158 0 -293 -92t-181 -248q229 -82 395 -82t263 53q96 53 111 145t-61 158t-234 66zM625 -20q-272 0 -414 171q-141 171 -98 420q37 213 210 343t383 130t322 -101t87 -237q-23 -136 -147 -213
t-328 -77t-425 88q-17 -186 97 -304t321 -118t338 156l92 -60q-166 -198 -438 -198z" />
    <glyph glyph-name="edieresis" unicode="&#xeb;" horiz-adv-x="1206" 
d="M807 1167l51 285h115l-49 -285h-117zM569 1167l49 285h117l-51 -285h-115zM705 942q-158 0 -293 -92t-181 -248q229 -82 395 -82t263 53q96 53 111 145t-61 158t-234 66zM625 -20q-272 0 -414 171q-141 171 -98 420q37 213 210 343t383 130t322 -101t87 -237
q-23 -136 -147 -213t-328 -77t-425 88q-17 -186 97 -304t321 -118t338 156l92 -60q-166 -198 -438 -198z" />
    <glyph glyph-name="igrave" unicode="&#xec;" horiz-adv-x="460" 
d="M268 1157l-231 318h151l187 -318h-107zM264 0q-201 0 -158 246l138 778h116l-135 -772q-25 -152 92 -152h29l-20 -100h-62z" />
    <glyph glyph-name="iacute" unicode="&#xed;" horiz-adv-x="460" 
d="M254 1157l301 318h154l-342 -318h-113zM264 0q-201 0 -158 246l138 778h116l-135 -772q-25 -152 92 -152h29l-20 -100h-62z" />
    <glyph glyph-name="icircumflex" unicode="&#xee;" horiz-adv-x="460" 
d="M33 1157l299 318h100l189 -318h-121l-131 223l-209 -223h-127zM264 0q-201 0 -158 246l138 778h116l-135 -772q-25 -152 92 -152h29l-20 -100h-62z" />
    <glyph glyph-name="idieresis" unicode="&#xef;" horiz-adv-x="460" 
d="M145 1167l50 285h116l-51 -285h-115zM383 1167l51 285h115l-49 -285h-117zM264 0q-201 0 -158 246l138 778h116l-135 -772q-25 -152 92 -152h29l-20 -100h-62z" />
    <glyph glyph-name="eth" unicode="&#xf0;" horiz-adv-x="1277" 
d="M608 84q154 0 279 105t153 264q37 184 -68 330t-304 147q-158 0 -283 -104t-158 -278q-33 -176 75 -320t306 -144zM588 -20q-226 0 -369 166t-111 392t189 360q158 134 360 134q242 0 361 -190q-78 215 -285 434l-262 -82l16 88l185 57q-66 61 -176 156h174
q63 -57 123 -117l256 82l-15 -88l-182 -57q385 -434 305 -869q-39 -210 -191 -338t-378 -128z" />
    <glyph glyph-name="ntilde" unicode="&#xf1;" horiz-adv-x="1261" 
d="M618 1380q78 0 177 -61q94 -63 145 -64q90 0 115 117h96q-19 -104 -79 -164t-148 -59q-30 0 -47 4t-26 6t-23 9q-14 8 -19 10q-6 2 -19 10q-12 8 -16 10t-19 12q-99 66 -145 66t-74 -32q-30 -32 -40 -87h-95q15 99 77 161t140 62zM131 924h-29l19 100h59q74 0 116 -41
t44 -121q146 182 368 182t330 -141t66 -352l-57 -301q-16 -82 3 -116t87 -34h32l-20 -100h-59q-211 0 -162 246l59 309q31 170 -42 279q-73 108 -233 108t-266 -100q-104 -100 -137 -262l-110 -580h-117l145 766q31 158 -96 158z" />
    <glyph glyph-name="ograve" unicode="&#xf2;" horiz-adv-x="1267" 
d="M668 1157l-232 318h152l186 -318h-106zM606 86q156 0 282 105t156 279t-77 322q-109 146 -305 146q-158 0 -284 -105t-157 -283t79 -320q110 -144 306 -144zM600 -20q-250 0 -390 177t-97 421q35 202 193 334t360 132q250 0 391 -181t98 -421q-37 -202 -193 -332
t-362 -130z" />
    <glyph glyph-name="oacute" unicode="&#xf3;" horiz-adv-x="1267" 
d="M606 86q156 0 282 105t156 279t-77 322q-109 146 -305 146q-158 0 -284 -105t-157 -283t79 -320q110 -144 306 -144zM600 -20q-250 0 -390 177t-97 421q35 202 193 334t360 132q250 0 391 -181t98 -421q-37 -202 -193 -332t-362 -130zM643 1157l301 318h154l-342 -318
h-113z" />
    <glyph glyph-name="ocircumflex" unicode="&#xf4;" horiz-adv-x="1267" 
d="M403 1157l299 318h101l188 -318h-121l-131 223l-209 -223h-127zM606 86q156 0 282 105t156 279t-77 322q-109 146 -305 146q-158 0 -284 -105t-157 -283t79 -320q110 -144 306 -144zM600 -20q-250 0 -390 177t-97 421q35 202 193 334t360 132q250 0 391 -181t98 -421
q-37 -202 -193 -332t-362 -130z" />
    <glyph glyph-name="otilde" unicode="&#xf5;" horiz-adv-x="1267" 
d="M557 1380q78 0 176 -61q94 -63 146 -64q90 0 114 117h97q-20 -104 -80 -164t-148 -59q-29 0 -46 4t-26 6q-8 2 -22 9q-14 8 -20 10q-14 6 -36 20q-117 78 -163 78q-45 0 -75 -32t-40 -87h-94q16 99 78 161t139 62zM606 86q156 0 282 105t156 279t-77 322
q-109 146 -305 146q-158 0 -284 -105t-157 -283t79 -320q110 -144 306 -144zM600 -20q-250 0 -390 177t-97 421q35 202 193 334t360 132q250 0 391 -181t98 -421q-37 -202 -193 -332t-362 -130z" />
    <glyph glyph-name="odieresis" unicode="&#xf6;" horiz-adv-x="1267" 
d="M606 86q156 0 282 105t156 279t-77 322q-109 146 -305 146q-158 0 -284 -105t-157 -283t79 -320q110 -144 306 -144zM600 -20q-250 0 -390 177t-97 421q35 202 193 334t360 132q250 0 391 -181t98 -421q-37 -202 -193 -332t-362 -130zM520 1167l49 285h117l-51 -285h-115
zM758 1167l51 285h115l-50 -285h-116z" />
    <glyph glyph-name="divide" unicode="&#xf7;" horiz-adv-x="948" 
d="M379 334l45 248h100l-43 -248h-102zM481 909l43 250h103l-45 -250h-101zM113 696l18 103h758l-19 -103h-757z" />
    <glyph glyph-name="oslash" unicode="&#xf8;" horiz-adv-x="1265" 
d="M616 86q146 0 272 105t154 268q35 190 -79 338l-592 -637q99 -74 245 -74zM652 938q-148 0 -274 -106t-158 -286t85 -323l592 637q-97 78 -245 78zM652 1044q190 0 323 -100l74 80h122l-131 -141q74 -86 105 -201t10 -240q-37 -202 -193 -332t-348 -130t-321 96l-70 -76
h-125l127 137q-160 180 -112 441q35 202 193 334q156 132 346 132z" />
    <glyph glyph-name="ugrave" unicode="&#xf9;" horiz-adv-x="1241" 
d="M633 1157l-232 318h152l186 -318h-106zM540 -18q-217 0 -320 139t-62 352l57 293q14 86 -7 122q-22 36 -89 36h-27l17 100h73q197 0 150 -252l-58 -301q-33 -171 39 -279t230 -108t259 102t128 258l110 580h117l-145 -766q-29 -158 94 -158h33l-19 -100h-63
q-160 0 -162 156q-138 -174 -355 -174z" />
    <glyph glyph-name="uacute" unicode="&#xfa;" horiz-adv-x="1241" 
d="M596 1157l301 318h154l-342 -318h-113zM540 -18q-217 0 -320 139t-62 352l57 293q14 86 -7 122q-22 36 -89 36h-27l17 100h73q197 0 150 -252l-58 -301q-33 -171 39 -279t230 -108t259 102t128 258l110 580h117l-145 -766q-29 -158 94 -158h33l-19 -100h-63
q-160 0 -162 156q-138 -174 -355 -174z" />
    <glyph glyph-name="ucircumflex" unicode="&#xfb;" horiz-adv-x="1241" 
d="M393 1157l299 318h101l188 -318h-121l-131 223l-209 -223h-127zM540 -18q-217 0 -320 139t-62 352l57 293q14 86 -7 122q-22 36 -89 36h-27l17 100h73q197 0 150 -252l-58 -301q-33 -171 39 -279t230 -108t259 102t128 258l110 580h117l-145 -766q-29 -158 94 -158h33
l-19 -100h-63q-160 0 -162 156q-138 -174 -355 -174z" />
    <glyph glyph-name="udieresis" unicode="&#xfc;" horiz-adv-x="1241" 
d="M772 1167l51 285h115l-49 -285h-117zM535 1167l49 285h116l-51 -285h-114zM540 -18q-217 0 -320 139t-62 352l57 293q14 86 -7 122q-22 36 -89 36h-27l17 100h73q197 0 150 -252l-58 -301q-33 -171 39 -279t230 -108t259 102t128 258l110 580h117l-145 -766
q-29 -158 94 -158h33l-19 -100h-63q-160 0 -162 156q-138 -174 -355 -174z" />
    <glyph glyph-name="yacute" unicode="&#xfd;" horiz-adv-x="1216" 
d="M573 1157l301 318h154l-342 -318h-113zM467 -492q-157 0 -273 79t-159 206l112 35q78 -213 328 -213q305 0 377 403l20 109q-133 -145 -341 -145t-311 139t-62 352l57 293q14 86 -7 122q-22 36 -89 36h-25l17 100h71q197 0 152 -252l-60 -301q-33 -171 39 -279t230 -108
t259 102t128 258l110 580h115l-186 -1004q-43 -250 -163 -381t-339 -131z" />
    <glyph glyph-name="thorn" unicode="&#xfe;" horiz-adv-x="1302" 
d="M641 88q158 0 284 108t152 269q35 189 -70 331t-298 142q-160 0 -287 -115t-157 -293q-29 -178 73 -310t303 -132zM647 -20q-162 -2 -268 76t-150 204l-127 -731h-116l346 1966h117q-72 -399 -115 -647q158 196 395 196t369 -175t90 -418q-36 -209 -190 -340t-351 -131z
" />
    <glyph glyph-name="ydieresis" unicode="&#xff;" horiz-adv-x="1216" 
d="M743 1167l52 285h114l-49 -285h-117zM506 1167l49 285h117l-51 -285h-115zM467 -492q-157 0 -273 79t-159 206l112 35q78 -213 328 -213q305 0 377 403l20 109q-133 -145 -341 -145t-311 139t-62 352l57 293q14 86 -7 122q-22 36 -89 36h-25l17 100h71q197 0 152 -252
l-60 -301q-33 -171 39 -279t230 -108t259 102t128 258l110 580h115l-186 -1004q-43 -250 -163 -381t-339 -131z" />
    <glyph glyph-name="Amacron" unicode="&#x100;" horiz-adv-x="1404" 
d="M633 1628l18 103h541l-18 -103h-541zM858 1337l-452 -807h612zM-18 0l841 1495h119l303 -1495h-121l-84 418h-698l-233 -418h-127z" />
    <glyph glyph-name="amacron" unicode="&#x101;" horiz-adv-x="1331" 
d="M502 1157l18 103h541l-19 -103h-540zM604 86q158 0 282 109t156 285t-72 318q-103 140 -302 140q-162 0 -288 -105t-156 -283t78 -322q108 -142 302 -142zM594 -20q-246 0 -385 177t-96 421q37 202 193 334t358 132q154 0 264 -74t153 -194l45 248h117l-139 -770
q-14 -82 8 -118t92 -36h27l-21 -100h-61q-82 0 -124 46t-40 126q-145 -192 -391 -192z" />
    <glyph glyph-name="Abreve" unicode="&#x102;" horiz-adv-x="1404" 
d="M898 1620q-156 0 -230 94t-50 228h103q-18 -98 34 -165q53 -67 159 -67t175 66t87 166h104q-25 -134 -126 -228t-256 -94zM858 1337l-452 -807h612zM-18 0l841 1495h119l303 -1495h-121l-84 418h-698l-233 -418h-127z" />
    <glyph glyph-name="abreve" unicode="&#x103;" horiz-adv-x="1331" 
d="M751 1143q-155 0 -230 94t-50 227h102q-18 -98 34 -165t159 -67q108 0 176 66t86 166h105q-25 -135 -126 -228t-256 -93zM604 86q158 0 282 109t156 285t-72 318q-103 140 -302 140q-162 0 -288 -105t-156 -283t78 -322q108 -142 302 -142zM594 -20q-246 0 -385 177
t-96 421q37 202 193 334t358 132q154 0 264 -74t153 -194l45 248h117l-139 -770q-14 -82 8 -118t92 -36h27l-21 -100h-61q-82 0 -124 46t-40 126q-145 -192 -391 -192z" />
    <glyph glyph-name="Aogonek" unicode="&#x104;" horiz-adv-x="1404" 
d="M858 1337l-452 -807h612zM1067 -430q-111 0 -175 61t-50 141t76 139q62 58 200 122l-78 385h-698l-233 -418h-127l841 1495h119l303 -1495q-158 -80 -218 -126q-61 -46 -69 -95t27 -81t94 -32q98 0 197 80l82 -65q-139 -111 -291 -111z" />
    <glyph glyph-name="aogonek" unicode="&#x105;" horiz-adv-x="1331" 
d="M604 86q158 0 282 109t156 285t-72 318q-103 140 -302 140q-162 0 -288 -105t-156 -283t78 -322q108 -142 302 -142zM594 -20q-246 0 -385 177t-96 421q37 202 193 334t358 132q154 0 264 -74t153 -194l45 248h117l-139 -770q-14 -82 8 -118t92 -36h27l-21 -100
q-158 -80 -218 -126t-68 -95t26 -81t94 -32q98 0 197 80l82 -65q-139 -111 -291 -111q-112 0 -176 61t-50 139t72 135q56 56 181 115q-74 39 -74 152q-145 -192 -391 -192z" />
    <glyph glyph-name="Cacute" unicode="&#x106;" horiz-adv-x="1632" 
d="M848 -20q-350 0 -546 250t-134 601q51 295 289 490t540 195q215 0 383 -100t248 -273l-115 -53q-141 313 -530 313q-252 0 -453 -167t-245 -421q-51 -289 109 -506t464 -217q176 0 330 84t246 232l106 -52q-106 -176 -288 -276t-404 -100zM1010 1628l301 318h153
l-342 -318h-112z" />
    <glyph glyph-name="cacute" unicode="&#x107;" horiz-adv-x="1196" 
d="M602 -20q-250 0 -391 177t-98 418q35 205 192 337q158 132 363 132q156 0 276 -74t176 -196l-104 -53q-102 217 -352 217q-160 0 -286 -105t-156 -283t81 -322q111 -142 305 -142q113 0 212 54t159 151l106 -51q-75 -120 -203 -190t-280 -70zM664 1157l301 318h153
l-342 -318h-112z" />
    <glyph glyph-name="Ccircumflex" unicode="&#x108;" horiz-adv-x="1632" 
d="M772 1628l299 318h100l189 -318h-121l-131 223l-209 -223h-127zM848 -20q-350 0 -546 250t-134 601q51 295 289 490t540 195q215 0 383 -100t248 -273l-115 -53q-141 313 -530 313q-252 0 -453 -167t-245 -421q-51 -289 109 -506t464 -217q176 0 330 84t246 232l106 -52
q-106 -176 -288 -276t-404 -100z" />
    <glyph glyph-name="ccircumflex" unicode="&#x109;" horiz-adv-x="1196" 
d="M446 1157l299 318h101l188 -318h-121l-131 223l-209 -223h-127zM602 -20q-250 0 -391 177t-98 418q35 205 192 337q158 132 363 132q156 0 276 -74t176 -196l-104 -53q-102 217 -352 217q-160 0 -286 -105t-156 -283t81 -322q111 -142 305 -142q113 0 212 54t159 151
l106 -51q-75 -120 -203 -190t-280 -70z" />
    <glyph glyph-name="Cdotaccent" unicode="&#x10a;" horiz-adv-x="1632" 
d="M1014 1638l49 285h117l-50 -285h-116zM848 -20q-350 0 -546 250t-134 601q51 295 289 490t540 195q215 0 383 -100t248 -273l-115 -53q-141 313 -530 313q-252 0 -453 -167t-245 -421q-51 -289 109 -506t464 -217q176 0 330 84t246 232l106 -52q-106 -176 -288 -276
t-404 -100z" />
    <glyph glyph-name="cdotaccent" unicode="&#x10b;" horiz-adv-x="1196" 
d="M678 1167l49 285h117l-49 -285h-117zM602 -20q-250 0 -391 177t-98 418q35 205 192 337q158 132 363 132q156 0 276 -74t176 -196l-104 -53q-102 217 -352 217q-160 0 -286 -105t-156 -283t81 -322q111 -142 305 -142q113 0 212 54t159 151l106 -51q-75 -120 -203 -190
t-280 -70z" />
    <glyph glyph-name="Ccaron" unicode="&#x10c;" horiz-adv-x="1632" 
d="M1001 1628l-188 318h123l129 -224l211 224h125l-299 -318h-101zM848 -20q-350 0 -546 250t-134 601q51 295 289 490t540 195q215 0 383 -100t248 -273l-115 -53q-141 313 -530 313q-252 0 -453 -167t-245 -421q-51 -289 109 -506t464 -217q176 0 330 84t246 232l106 -52
q-106 -176 -288 -276t-404 -100z" />
    <glyph glyph-name="ccaron" unicode="&#x10d;" horiz-adv-x="1196" 
d="M686 1157l-188 318h123l129 -224l211 224h124l-299 -318h-100zM602 -20q-250 0 -391 177t-98 418q35 205 192 337q158 132 363 132q156 0 276 -74t176 -196l-104 -53q-102 217 -352 217q-160 0 -286 -105t-156 -283t81 -322q111 -142 305 -142q113 0 212 54t159 151
l106 -51q-75 -120 -203 -190t-280 -70z" />
    <glyph glyph-name="Dcaron" unicode="&#x10e;" horiz-adv-x="1441" 
d="M764 1628l-189 318h123l129 -224l211 224h125l-299 -318h-100zM688 1386h-262l-223 -1275h350q258 -1 453 163q196 164 242 438t-116 474q-163 200 -444 200zM545 0h-482l263 1495h381q325 -4 521 -241t140 -554q-56 -316 -284 -508t-539 -192z" />
    <glyph glyph-name="dcaron" unicode="&#x10f;" horiz-adv-x="1394" 
d="M1389 1176l223 317h125l-246 -317h-102zM604 86q158 0 281 109t155 285t-72 318q-103 140 -302 140q-160 0 -287 -105t-157 -283t78 -322q108 -142 304 -142zM592 -20q-246 0 -384 178t-95 420q35 202 191 334t358 132q152 0 262 -72t155 -190l131 713h115l-223 -1241
q-16 -80 10 -117t94 -37h25l-21 -100h-59q-168 0 -168 170q-145 -190 -391 -190z" />
    <glyph glyph-name="Dcroat" unicode="&#x110;" horiz-adv-x="1495" 
d="M606 111q256 0 453 168q197 167 243 437t-118 470q-162 200 -443 200h-262l-100 -567h469l-17 -100h-469l-106 -608h350zM598 0h-481l125 719h-160l18 100h160l119 676h381q215 -2 381 -112q165 -109 241 -293t37 -398q-53 -300 -283 -496t-538 -196z" />
    <glyph glyph-name="dcroat" unicode="&#x111;" horiz-adv-x="1357" 
d="M604 86q158 0 281 109t155 285t-72 318q-103 140 -302 140q-160 0 -287 -105t-157 -283t78 -322q108 -142 304 -142zM1206 100h25l-21 -100h-59q-168 0 -168 170q-145 -190 -391 -190t-384 178t-95 420q35 202 191 334t358 132q152 0 262 -72t155 -190l70 385h-281l15 78
h280l47 250h115l-45 -250h137l-12 -78h-139l-164 -913q-16 -80 10 -117t94 -37z" />
    <glyph glyph-name="Emacron" unicode="&#x112;" horiz-adv-x="1193" 
d="M539 1628l18 103h541l-19 -103h-540zM63 0l263 1495h915l-20 -111h-795l-100 -569h796l-20 -110h-795l-104 -594h794l-18 -111h-916z" />
    <glyph glyph-name="emacron" unicode="&#x113;" horiz-adv-x="1206" 
d="M455 1157l18 103h541l-19 -103h-540zM705 942q-158 0 -293 -92t-181 -248q229 -82 395 -82t263 53q96 53 111 145t-61 158t-234 66zM625 -20q-272 0 -414 171q-141 171 -98 420q37 213 210 343t383 130t322 -101t87 -237q-23 -136 -147 -213t-328 -77t-425 88
q-17 -186 97 -304t321 -118t338 156l92 -60q-166 -198 -438 -198z" />
    <glyph glyph-name="Ebreve" unicode="&#x114;" horiz-adv-x="1193" 
d="M800 1620q-155 0 -230 94t-50 228h103q-19 -98 33 -165t159 -67t175 66t87 166h105q-25 -134 -126 -228t-256 -94zM63 0l263 1495h915l-20 -111h-795l-100 -569h796l-20 -110h-795l-104 -594h794l-18 -111h-916z" />
    <glyph glyph-name="ebreve" unicode="&#x115;" horiz-adv-x="1206" 
d="M736 1143q-156 0 -230 94t-49 227h102q-18 -98 34 -165t159 -67q108 0 176 66t86 166h104q-25 -135 -126 -228t-256 -93zM705 942q-158 0 -293 -92t-181 -248q229 -82 395 -82t263 53q96 53 111 145t-61 158t-234 66zM625 -20q-272 0 -414 171q-141 171 -98 420
q37 213 210 343t383 130t322 -101t87 -237q-23 -136 -147 -213t-328 -77t-425 88q-17 -186 97 -304t321 -118t338 156l92 -60q-166 -198 -438 -198z" />
    <glyph glyph-name="Edotaccent" unicode="&#x116;" horiz-adv-x="1193" 
d="M772 1638l49 285h117l-49 -285h-117zM63 0l263 1495h915l-20 -111h-795l-100 -569h796l-20 -110h-795l-104 -594h794l-18 -111h-916z" />
    <glyph glyph-name="edotaccent" unicode="&#x117;" horiz-adv-x="1206" 
d="M666 1167l49 285h116l-49 -285h-116zM705 942q-158 0 -293 -92t-181 -248q229 -82 395 -82t263 53q96 53 111 145t-61 158t-234 66zM625 -20q-272 0 -414 171q-141 171 -98 420q37 213 210 343t383 130t322 -101t87 -237q-23 -136 -147 -213t-328 -77t-425 88
q-17 -186 97 -304t321 -118t338 156l92 -60q-166 -198 -438 -198z" />
    <glyph glyph-name="Eogonek" unicode="&#x118;" horiz-adv-x="1193" 
d="M813 -334q98 0 197 80l82 -65q-139 -111 -291 -111q-111 0 -175 61t-48 148q20 123 208 221h-723l263 1495h915l-20 -111h-795l-100 -569h796l-20 -110h-795l-104 -594h794l-18 -111q-158 -80 -218 -126q-61 -46 -69 -95t27 -81t94 -32z" />
    <glyph glyph-name="eogonek" unicode="&#x119;" horiz-adv-x="1206" 
d="M705 942q-158 0 -293 -92t-181 -248q229 -82 395 -82t263 53q96 53 111 145t-61 158t-234 66zM489 -440q-111 0 -175 61t-48 148q20 123 215 225q-205 43 -305 204q-100 162 -63 374t210 342t383 130t322 -101t87 -237q-23 -136 -147 -213t-328 -77t-425 88
q-17 -186 97 -304t321 -118t338 156l92 -60q-158 -188 -416 -196q-145 -76 -201 -121t-64 -93q-9 -48 26 -80t94 -32q98 0 196 80l82 -66q-139 -110 -291 -110z" />
    <glyph glyph-name="Ecaron" unicode="&#x11a;" horiz-adv-x="1193" 
d="M760 1628l-189 318h123l129 -224l211 224h125l-299 -318h-100zM63 0l263 1495h915l-20 -111h-795l-100 -569h796l-20 -110h-795l-104 -594h794l-18 -111h-916z" />
    <glyph glyph-name="ecaron" unicode="&#x11b;" horiz-adv-x="1206" 
d="M680 1157l-188 318h122l129 -224l211 224h125l-299 -318h-100zM705 942q-158 0 -293 -92t-181 -248q229 -82 395 -82t263 53q96 53 111 145t-61 158t-234 66zM625 -20q-272 0 -414 171q-141 171 -98 420q37 213 210 343t383 130t322 -101t87 -237q-23 -136 -147 -213
t-328 -77t-425 88q-17 -186 97 -304t321 -118t338 156l92 -60q-166 -198 -438 -198z" />
    <glyph glyph-name="Gcircumflex" unicode="&#x11c;" horiz-adv-x="1736" 
d="M715 1628l299 318h100l189 -318h-121l-131 223l-209 -223h-127zM859 -20q-343 0 -550 252t-145 602q51 294 280 488t533 194q213 0 379 -100t260 -269l-113 -60q-170 315 -536 316q-254 0 -448 -167t-238 -417q-33 -186 29 -352t214 -269t357 -104q256 0 432 162t221 410
h-655l20 110h776l-6 -37q-35 -327 -251 -543t-559 -216z" />
    <glyph glyph-name="gcircumflex" unicode="&#x11d;" horiz-adv-x="1310" 
d="M451 1157l299 318h100l188 -318h-120l-132 223l-208 -223h-127zM604 86q158 0 281 109t155 285t-72 318q-103 140 -302 140q-160 0 -287 -105t-157 -283t78 -322q108 -142 304 -142zM588 -20q-242 0 -380 178t-95 420q35 202 191 334t358 132q154 0 264 -74t155 -196
l45 250h119l-178 -1004q-92 -512 -537 -512q-168 0 -288 76t-170 205l118 39q80 -213 349 -213q174 -1 275 107t134 296l2 7q0 8 3 21q3 12 6 30l14 84q-143 -180 -385 -180z" />
    <glyph glyph-name="Gbreve" unicode="&#x11e;" horiz-adv-x="1736" 
d="M1023 1620q-155 0 -229 94t-51 228h103q-18 -98 34 -165t158 -67t176 66q68 66 86 166h105q-25 -134 -126 -228t-256 -94zM859 -20q-343 0 -550 252t-145 602q51 294 280 488t533 194q213 0 379 -100t260 -269l-113 -60q-170 315 -536 316q-254 0 -448 -167t-238 -417
q-33 -186 29 -352t214 -269t357 -104q256 0 432 162t221 410h-655l20 110h776l-6 -37q-35 -327 -251 -543t-559 -216z" />
    <glyph glyph-name="gbreve" unicode="&#x11f;" horiz-adv-x="1310" 
d="M759 1143q-155 0 -230 94t-50 227h103q-18 -98 34 -165t158 -67q108 0 176 66t86 166h105q-25 -135 -126 -228t-256 -93zM604 86q158 0 281 109t155 285t-72 318q-103 140 -302 140q-160 0 -287 -105t-157 -283t78 -322q108 -142 304 -142zM588 -20q-242 0 -380 178
t-95 420q35 202 191 334t358 132q154 0 264 -74t155 -196l45 250h119l-178 -1004q-92 -512 -537 -512q-168 0 -288 76t-170 205l118 39q80 -213 349 -213q174 -1 275 107t134 296l2 7q0 8 3 21q3 12 6 30l14 84q-143 -180 -385 -180z" />
    <glyph glyph-name="Gdotaccent" unicode="&#x120;" horiz-adv-x="1736" 
d="M969 1638l49 285h117l-50 -285h-116zM859 -20q-343 0 -550 252t-145 602q51 294 280 488t533 194q213 0 379 -100t260 -269l-113 -60q-170 315 -536 316q-254 0 -448 -167t-238 -417q-33 -186 29 -352t214 -269t357 -104q256 0 432 162t221 410h-655l20 110h776l-6 -37
q-35 -327 -251 -543t-559 -216z" />
    <glyph glyph-name="gdotaccent" unicode="&#x121;" horiz-adv-x="1310" 
d="M659 1167l50 285h116l-49 -285h-117zM604 86q158 0 281 109t155 285t-72 318q-103 140 -302 140q-160 0 -287 -105t-157 -283t78 -322q108 -142 304 -142zM588 -20q-242 0 -380 178t-95 420q35 202 191 334t358 132q154 0 264 -74t155 -196l45 250h119l-178 -1004
q-92 -512 -537 -512q-168 0 -288 76t-170 205l118 39q80 -213 349 -213q174 -1 275 107t134 296l2 7q0 8 3 21q3 12 6 30l14 84q-143 -180 -385 -180z" />
    <glyph glyph-name="Gcommaaccent" unicode="&#x122;" horiz-adv-x="1736" 
d="M594 -551l164 418h108l-194 -418h-78zM859 -20q-343 0 -550 252t-145 602q51 294 280 488t533 194q213 0 379 -100t260 -269l-113 -60q-170 315 -536 316q-254 0 -448 -167t-238 -417q-33 -186 29 -352t214 -269t357 -104q256 0 432 162t221 410h-655l20 110h776l-6 -37
q-35 -327 -251 -543t-559 -216z" />
    <glyph glyph-name="gcommaaccent" unicode="&#x123;" horiz-adv-x="1310" 
d="M682 1141l164 418h108l-194 -418h-78zM604 86q158 0 281 109t155 285t-72 318q-103 140 -302 140q-160 0 -287 -105t-157 -283t78 -322q108 -142 304 -142zM588 -20q-242 0 -380 178t-95 420q35 202 191 334t358 132q154 0 264 -74t155 -196l45 250h119l-178 -1004
q-92 -512 -537 -512q-168 0 -288 76t-170 205l118 39q80 -213 349 -213q174 -1 275 107t134 296l2 7q0 8 3 21q3 12 6 30l14 84q-143 -180 -385 -180z" />
    <glyph glyph-name="Hcircumflex" unicode="&#x124;" horiz-adv-x="1345" 
d="M565 1628l299 318h101l188 -318h-121l-131 223l-209 -223h-127zM979 0l121 692h-797l-121 -692h-121l263 1495h120l-120 -690h796l121 690h119l-262 -1495h-119z" />
    <glyph glyph-name="hcircumflex" unicode="&#x125;" horiz-adv-x="1236" 
d="M121 1599l299 318h100l189 -318h-121l-131 224l-209 -224h-127zM1112 100h33l-21 -100h-59q-211 0 -162 246l60 309q31 170 -42 279q-73 108 -234 108t-265 -99t-135 -259l-103 -584h-116l262 1495h114l-110 -618q139 167 355 167t324 -141t66 -352l-57 -301
q-16 -82 3 -116t87 -34z" />
    <glyph glyph-name="Hbar" unicode="&#x126;" horiz-adv-x="1404" 
d="M406 1106l-52 -301h797l51 301h-796zM137 1106l17 92h147l53 297h121l-53 -297h797l53 297h119l-54 -297h146l-17 -92h-145l-193 -1106h-118l120 692h-796l-121 -692h-121l193 1106h-148z" />
    <glyph glyph-name="hbar" unicode="&#x127;" horiz-adv-x="1251" 
d="M1126 100h33l-20 -100h-60q-211 0 -161 246l59 309q31 170 -42 279q-73 108 -234 108t-265 -99t-135 -259l-102 -584h-117l215 1225h-127l12 78h127l35 192h115l-35 -192l303 2l-14 -78l-303 -2l-62 -348q140 167 356 167t324 -141t66 -352l-58 -301q-16 -82 3 -116
t87 -34z" />
    <glyph glyph-name="Itilde" unicode="&#x128;" horiz-adv-x="466" 
d="M309 1851q78 0 176 -61q2 -2 38 -24t42 -25t24 -9t42 -6q90 0 114 117h97q-20 -103 -80 -163t-148 -60q-29 0 -46 4t-26 6q-8 2 -22 9t-20 9q-14 6 -36 21q-117 78 -163 78q-45 0 -75 -32t-40 -87h-94q16 98 78 160t139 63zM84 0l262 1495h119l-262 -1495h-119z" />
    <glyph glyph-name="itilde" unicode="&#x129;" horiz-adv-x="460" 
d="M180 1380q78 0 176 -61q94 -63 146 -64q90 0 114 117h97q-19 -104 -79 -164t-149 -59q-29 0 -46 4t-26 6t-23 9q-14 8 -19 10q-14 6 -36 20q-117 78 -163 78q-45 0 -75 -32t-40 -87h-94q15 99 77 161t140 62zM264 0q-201 0 -158 246l138 778h116l-135 -772
q-25 -152 92 -152h29l-20 -100h-62z" />
    <glyph glyph-name="Imacron" unicode="&#x12a;" horiz-adv-x="466" 
d="M158 1628l18 103h541l-19 -103h-540zM84 0l262 1495h119l-262 -1495h-119z" />
    <glyph glyph-name="imacron" unicode="&#x12b;" horiz-adv-x="460" 
d="M59 1157l19 103h540l-18 -103h-541zM264 0q-201 0 -158 246l138 778h116l-135 -772q-25 -152 92 -152h29l-20 -100h-62z" />
    <glyph glyph-name="Ibreve" unicode="&#x12c;" horiz-adv-x="466" 
d="M439 1620q-155 0 -229 94t-50 228h102q-18 -98 34 -165t159 -67t175 66t87 166h104q-25 -134 -126 -228t-256 -94zM84 0l262 1495h119l-262 -1495h-119z" />
    <glyph glyph-name="ibreve" unicode="&#x12d;" horiz-adv-x="460" 
d="M325 1143q-155 0 -230 94t-50 227h102q-18 -98 34 -165t159 -67q108 0 176 66t86 166h105q-25 -135 -126 -228t-256 -93zM264 0q-201 0 -158 246l138 778h116l-135 -772q-25 -152 92 -152h29l-20 -100h-62z" />
    <glyph glyph-name="Iogonek" unicode="&#x12e;" horiz-adv-x="466" 
d="M29 -430q-111 0 -175 61t-50 141t78 140q64 59 208 125l256 1458h119l-262 -1493l4 -2q-158 -80 -218 -126q-61 -46 -69 -95t27 -81t94 -32q98 0 197 80l81 -65q-138 -111 -290 -111z" />
    <glyph glyph-name="iogonek" unicode="&#x12f;" horiz-adv-x="460" 
d="M268 1167l54 299h114l-51 -299h-117zM152 -430q-111 0 -176 61q-64 61 -50 139t70 133q56 56 176 115q-96 45 -66 228l138 778h116l-135 -772q-25 -152 92 -152h29l-20 -98l4 -2q-158 -80 -218 -126t-68 -95t26 -81q35 -32 94 -32q98 0 196 80l82 -65
q-138 -111 -290 -111z" />
    <glyph glyph-name="Idotaccent" unicode="&#x130;" horiz-adv-x="466" 
d="M369 1638l49 285h117l-50 -285h-116zM84 0l262 1495h119l-262 -1495h-119z" />
    <glyph glyph-name="dotlessi" unicode="&#x131;" horiz-adv-x="460" 
d="M264 0q-201 0 -158 246l138 778h116l-135 -772q-25 -152 92 -152h29l-20 -100h-62z" />
    <glyph glyph-name="IJ" unicode="&#x132;" horiz-adv-x="1171" 
d="M72 0l262 1495h119l-263 -1495h-118zM582 113q260 0 305 272l196 1110h121l-196 -1102q-32 -197 -136 -295t-299 -98h-192l18 113h183z" />
    <glyph glyph-name="ij" unicode="&#x133;" horiz-adv-x="741" 
d="M590 1167l53 299h117l-51 -299h-119zM102 -215q152 0 205 47t86 213l172 979h119l-174 -981q-39 -219 -118 -293t-275 -74h-113l19 109h79zM264 1167l51 299h117l-51 -299h-117zM176 0h-117l179 1024h118z" />
    <glyph glyph-name="Jcircumflex" unicode="&#x134;" horiz-adv-x="1015" 
d="M698 1628l299 318h101l188 -318h-121l-131 223l-209 -223h-127zM430 -20q-164 0 -265 71q-101 72 -136 189l110 36q66 -186 281 -186q125 0 205 79t100 208l199 1118h118l-196 -1108q-32 -191 -142 -299t-274 -108z" />
    <glyph glyph-name="jcircumflex" unicode="&#x135;" horiz-adv-x="442" 
d="M37 1157l299 318h100l189 -318h-121l-131 223l-209 -223h-127zM-225 -469h-33l20 111q158 0 212 48t85 216l201 1118h117l-199 -1120q-39 -221 -120 -297t-283 -76z" />
    <glyph glyph-name="Kcommaaccent" unicode="&#x136;" horiz-adv-x="1325" 
d="M365 -551l163 418h109l-195 -418h-77zM1053 0l-398 811l-395 -373l-76 -438h-121l263 1495h120l-155 -891l944 891h156l-643 -608l434 -887h-129z" />
    <glyph glyph-name="kcommaaccent" unicode="&#x137;" horiz-adv-x="1114" 
d="M272 -524l164 418h109l-195 -418h-78zM973 0q-115 0 -157 30t-103 134l-203 364l-274 -231l-52 -297h-116l262 1495h116l-184 -1053l688 582h154l-508 -432l213 -375q43 -76 73 -96t103 -21h31l-19 -100h-24z" />
    <glyph glyph-name="kgreenlandic" unicode="&#x138;" horiz-adv-x="1103" 
d="M965 0q-117 0 -160 30t-100 134l-197 348l-279 -248l-45 -264h-116l178 1022h116l-106 -604l682 606h154l-496 -444l203 -363q43 -76 73 -96t103 -21h33l-19 -100h-24z" />
    <glyph glyph-name="Lacute" unicode="&#x139;" horiz-adv-x="1099" 
d="M356 1628l301 318h154l-342 -318h-113zM63 0l263 1495h120l-243 -1382h708l-18 -113h-830z" />
    <glyph glyph-name="lacute" unicode="&#x13a;" horiz-adv-x="462" 
d="M340 1599l301 318h154l-342 -318h-113zM268 0q-203 0 -157 258l217 1237h116l-217 -1237q-14 -84 9 -121t86 -37h26l-20 -100h-60z" />
    <glyph glyph-name="Lcommaaccent" unicode="&#x13b;" horiz-adv-x="1099" 
d="M229 -551l164 418h109l-195 -418h-78zM63 0l263 1495h120l-243 -1382h708l-18 -113h-830z" />
    <glyph glyph-name="lcommaaccent" unicode="&#x13c;" horiz-adv-x="462" 
d="M-8 -524l164 418h108l-194 -418h-78zM268 0q-203 0 -157 258l217 1237h116l-217 -1237q-14 -84 9 -121t86 -37h26l-20 -100h-60z" />
    <glyph glyph-name="Lcaron" unicode="&#x13d;" horiz-adv-x="1099" 
d="M655 1178l224 317h125l-246 -317h-103zM63 0l263 1495h120l-243 -1382h708l-18 -113h-830z" />
    <glyph glyph-name="lcaron" unicode="&#x13e;" horiz-adv-x="641" 
d="M479 1178l223 317h125l-245 -317h-103zM268 0q-203 0 -157 258l217 1237h116l-217 -1237q-14 -84 9 -121t86 -37h26l-20 -100h-60z" />
    <glyph glyph-name="Ldot" unicode="&#x13f;" horiz-adv-x="1110" 
d="M860 537l49 284h117l-49 -284h-117zM63 0l263 1495h120l-243 -1382h708l-18 -113h-830z" />
    <glyph glyph-name="ldot" unicode="&#x140;" horiz-adv-x="677" 
d="M424 424l49 285h117l-49 -285h-117zM268 0q-203 0 -157 258l217 1237h116l-217 -1237q-14 -84 9 -121t86 -37h26l-20 -100h-60z" />
    <glyph glyph-name="Lslash" unicode="&#x141;" horiz-adv-x="1144" 
d="M68 680l18 90l172 49l119 676h121l-113 -639l408 119l-19 -90l-405 -117l-115 -655h709l-19 -113h-829l127 731z" />
    <glyph glyph-name="lslash" unicode="&#x142;" horiz-adv-x="589" 
d="M387 100h27l-21 -100h-59q-203 0 -158 258l80 455l-211 -66l14 84l211 66l123 698h117l-117 -661l228 71l-15 -84l-227 -71l-86 -492q-13 -84 9 -121t85 -37z" />
    <glyph glyph-name="Nacute" unicode="&#x143;" horiz-adv-x="1464" 
d="M864 1628l301 318h154l-342 -318h-113zM63 0l263 1495h127l682 -1302l229 1302h119l-262 -1495h-117l-690 1313l-230 -1313h-121z" />
    <glyph glyph-name="nacute" unicode="&#x144;" horiz-adv-x="1261" 
d="M709 1157l301 318h153l-342 -318h-112zM131 924h-29l19 100h59q74 0 116 -41t44 -121q146 182 368 182t330 -141t66 -352l-57 -301q-16 -82 3 -116t87 -34h32l-20 -100h-59q-211 0 -162 246l59 309q31 170 -42 279q-73 108 -233 108t-266 -100q-104 -100 -137 -262
l-110 -580h-117l145 766q31 158 -96 158z" />
    <glyph glyph-name="Ncommaaccent" unicode="&#x145;" horiz-adv-x="1464" 
d="M406 -551l163 418h109l-195 -418h-77zM63 0l263 1495h127l682 -1302l229 1302h119l-262 -1495h-117l-690 1313l-230 -1313h-121z" />
    <glyph glyph-name="ncommaaccent" unicode="&#x146;" horiz-adv-x="1261" 
d="M354 -524l164 418h109l-195 -418h-78zM131 924h-29l19 100h59q74 0 116 -41t44 -121q146 182 368 182t330 -141t66 -352l-57 -301q-16 -82 3 -116t87 -34h32l-20 -100h-59q-211 0 -162 246l59 309q31 170 -42 279q-73 108 -233 108t-266 -100q-104 -100 -137 -262
l-110 -580h-117l145 766q31 158 -96 158z" />
    <glyph glyph-name="Ncaron" unicode="&#x147;" horiz-adv-x="1464" 
d="M885 1628l-189 318h123l129 -224l211 224h125l-299 -318h-100zM63 0l263 1495h127l682 -1302l229 1302h119l-262 -1495h-117l-690 1313l-230 -1313h-121z" />
    <glyph glyph-name="ncaron" unicode="&#x148;" horiz-adv-x="1261" 
d="M690 1157l-188 318h123l129 -224l211 224h125l-299 -318h-101zM131 924h-29l19 100h59q74 0 116 -41t44 -121q146 182 368 182t330 -141t66 -352l-57 -301q-16 -82 3 -116t87 -34h32l-20 -100h-59q-211 0 -162 246l59 309q31 170 -42 279q-73 108 -233 108t-266 -100
q-104 -100 -137 -262l-110 -580h-117l145 766q31 158 -96 158z" />
    <glyph glyph-name="Eng" unicode="&#x14a;" horiz-adv-x="1464" 
d="M793 -322q141 0 209 69t92 210l8 47l-688 1309l-230 -1313h-121l263 1495h127l682 -1302l229 1302h119l-269 -1530q-37 -217 -133 -309t-297 -92h-127l23 114h113z" />
    <glyph glyph-name="eng" unicode="&#x14b;" horiz-adv-x="1243" 
d="M131 924h-29l19 100h59q74 0 116 -41t44 -121q144 182 366 182t328 -140t70 -353l-117 -647q-39 -225 -120 -299t-289 -74h-35l18 111q166 0 222 46t87 218l117 649q31 170 -43 279q-74 108 -234 108t-264 -100t-137 -262l-110 -580h-117l145 766q31 158 -96 158z" />
    <glyph glyph-name="Omacron" unicode="&#x14c;" horiz-adv-x="1746" 
d="M874 90q244 0 437 166t237 416q33 182 -26 349q-60 167 -208 275t-353 109q-248 0 -442 -167t-238 -419q-49 -299 123 -514t470 -215zM864 -20q-350 0 -556 252t-144 602q51 298 280 490t523 192q237 0 413 -126t250 -323t35 -412q-53 -297 -279 -486t-522 -189z
M750 1628l18 103h541l-19 -103h-540z" />
    <glyph glyph-name="omacron" unicode="&#x14d;" horiz-adv-x="1267" 
d="M606 86q156 0 282 105t156 279t-77 322q-109 146 -305 146q-158 0 -284 -105t-157 -283t79 -320q110 -144 306 -144zM600 -20q-250 0 -390 177t-97 421q35 202 193 334t360 132q250 0 391 -181t98 -421q-37 -202 -193 -332t-362 -130zM410 1157l18 103h541l-19 -103h-540
z" />
    <glyph glyph-name="Obreve" unicode="&#x14e;" horiz-adv-x="1746" 
d="M1031 1622q-155 0 -229 94t-50 228h102q-18 -98 34 -165t158 -67t176 66q69 66 87 166h104q-25 -134 -126 -228t-256 -94zM874 90q244 0 437 166t237 416q33 182 -26 349q-60 167 -208 275t-353 109q-248 0 -442 -167t-238 -419q-49 -299 123 -514t470 -215zM864 -20
q-350 0 -556 252t-144 602q51 298 280 490t523 192q237 0 413 -126t250 -323t35 -412q-53 -297 -279 -486t-522 -189z" />
    <glyph glyph-name="obreve" unicode="&#x14f;" horiz-adv-x="1267" 
d="M699 1143q-155 0 -229 94t-50 227h102q-18 -98 34 -165t159 -67t175 66t87 166h104q-25 -135 -126 -228t-256 -93zM606 86q156 0 282 105t156 279t-77 322q-109 146 -305 146q-158 0 -284 -105t-157 -283t79 -320q110 -144 306 -144zM600 -20q-250 0 -390 177t-97 421
q35 202 193 334t360 132q250 0 391 -181t98 -421q-37 -202 -193 -332t-362 -130z" />
    <glyph glyph-name="Ohungarumlaut" unicode="&#x150;" horiz-adv-x="1746" 
d="M874 90q244 0 437 166t237 416q33 182 -26 349q-60 167 -208 275t-353 109q-248 0 -442 -167t-238 -419q-49 -299 123 -514t470 -215zM864 -20q-350 0 -556 252t-144 602q51 298 280 490t523 192q237 0 413 -126t250 -323t35 -412q-53 -297 -279 -486t-522 -189z
M1098 1628l299 318h145l-340 -318h-104zM836 1628l301 318h145l-340 -318h-106z" />
    <glyph glyph-name="ohungarumlaut" unicode="&#x151;" horiz-adv-x="1267" 
d="M606 86q156 0 282 105t156 279t-77 322q-109 146 -305 146q-158 0 -284 -105t-157 -283t79 -320q110 -144 306 -144zM600 -20q-250 0 -390 177t-97 421q35 202 193 334t360 132q250 0 391 -181t98 -421q-37 -202 -193 -332t-362 -130zM739 1157l299 318h146l-340 -318
h-105zM477 1157l301 318h146l-340 -318h-107z" />
    <glyph glyph-name="OE" unicode="&#x152;" horiz-adv-x="2560" 
d="M877 94q241 0 437 176t240 428q51 281 -112 494q-164 213 -471 213q-250 0 -448 -167t-242 -419q-33 -186 29 -352q62 -165 213 -269t354 -104zM864 -20q-350 0 -556 252t-144 602q52 294 286 488t527 194q239 0 409 -120t234 -321l74 420h913l-18 -113h-797l-102 -577
h796l-20 -111h-795l-102 -581h794l-18 -113h-913l55 319q-111 -159 -273 -249t-350 -90z" />
    <glyph glyph-name="oe" unicode="&#x153;" horiz-adv-x="2234" 
d="M1646 942q-157 0 -292 -92t-180 -248q225 -82 392 -82t263 54q95 54 111 146t-60 158q-76 64 -234 64zM606 86q154 0 280 105t160 277t-76 320q-110 150 -311 150q-159 0 -281 -104t-151 -267q-37 -189 71 -335t308 -146zM602 -20q-252 0 -394 180t-93 428
q39 200 195 328t358 128q160 0 280 -85t172 -222q74 143 220 225t330 82t298 -99t88 -235q-24 -136 -148 -215t-333 -79t-420 88q-15 -186 99 -304t317 -118t342 147l88 -63q-168 -186 -440 -186q-176 0 -299 74t-177 206q-72 -131 -201 -206q-130 -74 -282 -74z" />
    <glyph glyph-name="Racute" unicode="&#x154;" horiz-adv-x="1241" 
d="M649 1628l301 318h154l-342 -318h-113zM1022 0q-156 0 -272 106t-166 258q-51 152 -47 310h143q164 0 274 92t134 244q26 152 -76 263q-102 112 -277 116h-307l-244 -1389h-121l263 1495h428q221 1 355 -149t97 -365q-31 -176 -169 -293t-343 -117h-35q19 -186 123 -323
t260 -137h33l-22 -111h-31z" />
    <glyph glyph-name="racute" unicode="&#x155;" horiz-adv-x="825" 
d="M379 1157l301 318h154l-342 -318h-113zM131 924h-29l19 100h57q168 0 162 -184q129 184 367 184h100l-21 -117h-88q-164 0 -262 -91t-129 -253l-108 -563h-117l145 766q31 158 -96 158z" />
    <glyph glyph-name="Rcommaaccent" unicode="&#x156;" horiz-adv-x="1241" 
d="M270 -510l164 418h109l-195 -418h-78zM1022 0q-156 0 -272 106t-166 258q-51 152 -47 310h143q164 0 274 92t134 244q26 152 -76 263q-102 112 -277 116h-307l-244 -1389h-121l263 1495h428q221 1 355 -149t97 -365q-31 -176 -169 -293t-343 -117h-35q19 -186 123 -323
t260 -137h33l-22 -111h-31z" />
    <glyph glyph-name="rcommaaccent" unicode="&#x157;" horiz-adv-x="825" 
d="M-86 -524l164 418h108l-194 -418h-78zM131 924h-29l19 100h57q168 0 162 -184q129 184 367 184h100l-21 -117h-88q-164 0 -262 -91t-129 -253l-108 -563h-117l145 766q31 158 -96 158z" />
    <glyph glyph-name="Rcaron" unicode="&#x158;" horiz-adv-x="1241" 
d="M705 1628l-189 318h123l129 -224l211 224h125l-299 -318h-100zM1022 0q-156 0 -272 106t-166 258q-51 152 -47 310h143q164 0 274 92t134 244q26 152 -76 263q-102 112 -277 116h-307l-244 -1389h-121l263 1495h428q221 1 355 -149t97 -365q-31 -176 -169 -293t-343 -117
h-35q19 -186 123 -323t260 -137h33l-22 -111h-31z" />
    <glyph glyph-name="rcaron" unicode="&#x159;" horiz-adv-x="825" 
d="M434 1157l-188 318h123l129 -224l211 224h125l-299 -318h-101zM131 924h-29l19 100h57q168 0 162 -184q129 184 367 184h100l-21 -117h-88q-164 0 -262 -91t-129 -253l-108 -563h-117l145 766q31 158 -96 158z" />
    <glyph glyph-name="Sacute" unicode="&#x15a;" horiz-adv-x="1118" 
d="M504 -20q-330 0 -492 266l109 69q55 -102 154 -163q99 -62 237 -62t236 72q96 72 118 188q23 139 -59 223t-250 164q-288 137 -333 289q-22 74 -7 166q25 145 147 234q122 90 282 90t277 -60q116 -60 183 -168l-100 -65q-111 188 -347 188q-133 0 -219 -63t-102 -168
q-24 -137 82 -224q55 -44 97 -68t124 -63t138 -75q57 -36 117 -94q123 -119 89 -314q-29 -162 -159 -262t-322 -100zM647 1628l301 318h154l-342 -318h-113z" />
    <glyph glyph-name="sacute" unicode="&#x15b;" horiz-adv-x="1007" 
d="M492 -20q-156 0 -270 60t-181 161l102 65q113 -184 349 -184q116 0 184 50t78 122t-28 105q-24 22 -56 46t-149 64q-118 39 -166 61q-137 64 -169 154q-18 53 -6 125q20 111 122 175t234 64q134 0 238 -48t168 -123l-94 -64q-113 135 -311 135q-98 0 -163 -39t-79 -117
t49 -123t176 -85t163 -64t103 -62q110 -80 87 -206q-23 -127 -123 -200q-101 -72 -258 -72zM528 1157l301 318h154l-342 -318h-113z" />
    <glyph glyph-name="Scircumflex" unicode="&#x15c;" horiz-adv-x="1118" 
d="M422 1628l299 318h100l189 -318h-121l-131 223l-209 -223h-127zM504 -20q-330 0 -492 266l109 69q55 -102 154 -163q99 -62 237 -62t236 72q96 72 118 188q23 139 -59 223t-250 164q-288 137 -333 289q-22 74 -7 166q25 145 147 234q122 90 282 90t277 -60
q116 -60 183 -168l-100 -65q-111 188 -347 188q-133 0 -219 -63t-102 -168q-24 -137 82 -224q55 -44 97 -68t124 -63t138 -75q57 -36 117 -94q123 -119 89 -314q-29 -162 -159 -262t-322 -100z" />
    <glyph glyph-name="scircumflex" unicode="&#x15d;" horiz-adv-x="1007" 
d="M317 1157l299 318h101l188 -318h-121l-131 223l-209 -223h-127zM492 -20q-156 0 -270 60t-181 161l102 65q113 -184 349 -184q116 0 184 50t78 122t-28 105q-24 22 -56 46t-149 64q-118 39 -166 61q-137 64 -169 154q-18 53 -6 125q20 111 122 175t234 64q134 0 238 -48
t168 -123l-94 -64q-113 135 -311 135q-98 0 -163 -39t-79 -117t49 -123t176 -85t163 -64t103 -62q110 -80 87 -206q-23 -127 -123 -200q-101 -72 -258 -72z" />
    <glyph glyph-name="Scedilla" unicode="&#x15e;" horiz-adv-x="1118" 
d="M387 -471q-180 0 -289 115l101 57q78 -82 194 -82q72 0 118 26q46 27 54 71t-34 70t-125 26h-66l33 180q-236 49 -361 254l109 69q55 -102 154 -163q99 -62 237 -62t236 72q96 72 118 188q23 139 -59 223t-250 164q-288 137 -333 289q-22 74 -7 166q25 145 147 234
q122 90 282 90t277 -60q116 -60 183 -168l-100 -65q-111 188 -347 188q-133 0 -219 -63t-102 -168q-24 -137 82 -224q55 -44 97 -68t124 -63t138 -75q57 -36 117 -94q123 -119 89 -314q-29 -162 -159 -262t-322 -100q-23 0 -35 2l-18 -101q121 -4 176 -53t43 -127t-91 -125
t-192 -47z" />
    <glyph glyph-name="scedilla" unicode="&#x15f;" horiz-adv-x="1007" 
d="M358 -471q-180 0 -288 115l100 57q78 -82 195 -82q71 0 117 26q46 27 54 71t-33 70q-42 26 -126 26h-66l33 182h8q-203 45 -311 207l102 65q113 -184 349 -184q116 0 184 50t78 122t-28 105q-24 22 -56 46t-149 64q-118 39 -166 61q-137 64 -169 154q-18 53 -6 125
q20 111 122 175t234 64q134 0 238 -48t168 -123l-94 -64q-113 135 -311 135q-98 0 -163 -39t-79 -117t49 -123t176 -85t163 -64t103 -62q110 -80 87 -206q-23 -127 -123 -200t-265 -72l-43 2l-20 -101q121 -4 176 -53t43 -127t-91 -125t-192 -47z" />
    <glyph glyph-name="Scaron" unicode="&#x160;" horiz-adv-x="1118" 
d="M672 1628l-189 318h123l129 -224l211 224h125l-299 -318h-100zM504 -20q-330 0 -492 266l109 69q55 -102 154 -163q99 -62 237 -62t236 72q96 72 118 188q23 139 -59 223t-250 164q-288 137 -333 289q-22 74 -7 166q25 145 147 234q122 90 282 90t277 -60
q116 -60 183 -168l-100 -65q-111 188 -347 188q-133 0 -219 -63t-102 -168q-24 -137 82 -224q55 -44 97 -68t124 -63t138 -75q57 -36 117 -94q123 -119 89 -314q-29 -162 -159 -262t-322 -100z" />
    <glyph glyph-name="scaron" unicode="&#x161;" horiz-adv-x="1007" 
d="M569 1157l-188 318h123l129 -224l211 224h125l-299 -318h-101zM492 -20q-156 0 -270 60t-181 161l102 65q113 -184 349 -184q116 0 184 50t78 122t-28 105q-24 22 -56 46t-149 64q-118 39 -166 61q-137 64 -169 154q-18 53 -6 125q20 111 122 175t234 64q134 0 238 -48
t168 -123l-94 -64q-113 135 -311 135q-98 0 -163 -39t-79 -117t49 -123t176 -85t163 -64t103 -62q110 -80 87 -206q-23 -127 -123 -200q-101 -72 -258 -72z" />
    <glyph glyph-name="Tcommaaccent" unicode="&#x162;" horiz-adv-x="1230" 
d="M299 -551l164 418h108l-194 -418h-78zM586 0h-121l244 1384h-453l18 111h1026l-20 -111h-453z" />
    <glyph glyph-name="tcommaaccent" unicode="&#x163;" horiz-adv-x="673" 
d="M86 -524l164 418h108l-194 -418h-78zM459 0q-211 0 -276 80t-25 297l96 545h-168l18 102h168l43 244l127 63l-55 -307h262l-18 -102h-262l-95 -543q-30 -168 10 -222t203 -55l-16 -102h-12z" />
    <glyph glyph-name="Tcaron" unicode="&#x164;" horiz-adv-x="1230" 
d="M770 1628l-188 318h123l129 -224l210 224h125l-299 -318h-100zM586 0h-121l244 1384h-453l18 111h1026l-20 -111h-453z" />
    <glyph glyph-name="tcaron" unicode="&#x165;" horiz-adv-x="673" 
d="M526 1147l224 317h124l-245 -317h-103zM459 0q-211 0 -276 80t-25 297l96 545h-168l18 102h168l43 244l127 63l-55 -307h262l-18 -102h-262l-95 -543q-30 -168 10 -222t203 -55l-16 -102h-12z" />
    <glyph glyph-name="Tbar" unicode="&#x166;" horiz-adv-x="1230" 
d="M586 0h-121l135 772h-209l19 109h211l88 503h-453l18 111h1026l-20 -111h-453l-88 -503h211l-18 -109h-211z" />
    <glyph glyph-name="tbar" unicode="&#x167;" horiz-adv-x="675" 
d="M459 0q-213 0 -277 77q-63 77 -24 296l20 123h-164l19 100h164l57 326h-168l18 102h168l43 244l127 63l-55 -307h262l-18 -102h-260l-58 -326h262l-20 -100h-260l-21 -121q-30 -172 10 -222t203 -51l-16 -102h-12z" />
    <glyph glyph-name="Utilde" unicode="&#x168;" horiz-adv-x="1316" 
d="M723 1851q78 0 176 -61q94 -63 145 -64q90 0 115 117h96q-20 -103 -79 -163t-148 -60q-31 0 -47 4q-15 4 -25 6t-23 9t-19 9q-11 4 -36 21q-117 78 -162 78q-46 0 -76 -32t-40 -87h-94q16 98 78 160t139 63zM592 -20q-232 0 -359 148t-83 394l169 973h121l-174 -985
q-32 -182 58 -301t297 -119q159 0 273 99t142 253l185 1053h120l-184 -1046q-39 -219 -186 -345q-147 -124 -379 -124z" />
    <glyph glyph-name="utilde" unicode="&#x169;" horiz-adv-x="1241" 
d="M563 1380q78 0 176 -61q94 -63 146 -64q90 0 114 117h97q-20 -104 -80 -164t-148 -59q-29 0 -46 4t-26 6q-8 2 -22 9q-14 8 -20 10q-14 6 -36 20q-117 78 -163 78q-45 0 -75 -32t-40 -87h-94q16 99 78 161t139 62zM540 -18q-217 0 -320 139t-62 352l57 293q14 86 -7 122
q-22 36 -89 36h-27l17 100h73q197 0 150 -252l-58 -301q-33 -171 39 -279t230 -108t259 102t128 258l110 580h117l-145 -766q-29 -158 94 -158h33l-19 -100h-63q-160 0 -162 156q-138 -174 -355 -174z" />
    <glyph glyph-name="Umacron" unicode="&#x16a;" horiz-adv-x="1316" 
d="M582 1628l18 103h541l-19 -103h-540zM592 -20q-232 0 -359 148t-83 394l169 973h121l-174 -985q-32 -182 58 -301t297 -119q159 0 273 99t142 253l185 1053h120l-184 -1046q-39 -219 -186 -345q-147 -124 -379 -124z" />
    <glyph glyph-name="umacron" unicode="&#x16b;" horiz-adv-x="1241" 
d="M428 1157l18 103h541l-18 -103h-541zM540 -18q-217 0 -320 139t-62 352l57 293q14 86 -7 122q-22 36 -89 36h-27l17 100h73q197 0 150 -252l-58 -301q-33 -171 39 -279t230 -108t259 102t128 258l110 580h117l-145 -766q-29 -158 94 -158h33l-19 -100h-63
q-160 0 -162 156q-138 -174 -355 -174z" />
    <glyph glyph-name="Ubreve" unicode="&#x16c;" horiz-adv-x="1316" 
d="M851 1616q-155 0 -229 94t-51 227h103q-18 -99 34 -165t158 -66t176 66q68 66 86 165h105q-25 -135 -126 -228t-256 -93zM592 -20q-232 0 -359 148t-83 394l169 973h121l-174 -985q-32 -182 58 -301t297 -119q159 0 273 99t142 253l185 1053h120l-184 -1046
q-39 -219 -186 -345q-147 -124 -379 -124z" />
    <glyph glyph-name="ubreve" unicode="&#x16d;" horiz-adv-x="1241" 
d="M697 1143q-155 0 -229 94t-50 227h102q-18 -98 34 -165t159 -67t175 66t87 166h104q-25 -135 -126 -228t-256 -93zM540 -18q-217 0 -320 139t-62 352l57 293q14 86 -7 122q-22 36 -89 36h-27l17 100h73q197 0 150 -252l-58 -301q-33 -171 39 -279t230 -108t259 102
t128 258l110 580h117l-145 -766q-29 -158 94 -158h33l-19 -100h-63q-160 0 -162 156q-138 -174 -355 -174z" />
    <glyph glyph-name="Uring" unicode="&#x16e;" horiz-adv-x="1316" 
d="M592 -20q-232 0 -359 148t-83 394l169 973h121l-174 -985q-32 -182 58 -301t297 -119q159 0 273 99t142 253l185 1053h120l-184 -1046q-39 -219 -186 -345q-147 -124 -379 -124zM855 1696q48 0 84 30t45 75q9 46 -20 84q-30 38 -77 38t-82 -29q-35 -30 -44 -76t19 -84
t75 -38zM846 1606q-86 0 -139 70t-34 156q19 85 81 133t146 48q85 1 139 -71t34 -154q-21 -82 -81 -132t-146 -50z" />
    <glyph glyph-name="uring" unicode="&#x16f;" horiz-adv-x="1241" 
d="M706 1239q48 0 84 30q36 29 45 75t-21 84t-77 38t-82 -28t-44 -76q-9 -47 19 -85t76 -38zM696 1149q-86 0 -139 71q-53 72 -34 156t81 132t146 48q85 0 140 -71q54 -72 34 -154t-81 -132t-147 -50zM540 -18q-217 0 -320 139t-62 352l57 293q14 86 -7 122q-22 36 -89 36
h-27l17 100h73q197 0 150 -252l-58 -301q-33 -171 39 -279t230 -108t259 102t128 258l110 580h117l-145 -766q-29 -158 94 -158h33l-19 -100h-63q-160 0 -162 156q-138 -174 -355 -174z" />
    <glyph glyph-name="Uhungarumlaut" unicode="&#x170;" horiz-adv-x="1316" 
d="M899 1628l299 318h145l-339 -318h-105zM637 1628l301 318h145l-340 -318h-106zM592 -20q-232 0 -359 148t-83 394l169 973h121l-174 -985q-32 -182 58 -301t297 -119q159 0 273 99t142 253l185 1053h120l-184 -1046q-39 -219 -186 -345q-147 -124 -379 -124z" />
    <glyph glyph-name="uhungarumlaut" unicode="&#x171;" horiz-adv-x="1241" 
d="M752 1157l299 318h145l-340 -318h-104zM489 1157l302 318h145l-340 -318h-107zM540 -18q-217 0 -320 139t-62 352l57 293q14 86 -7 122q-22 36 -89 36h-27l17 100h73q197 0 150 -252l-58 -301q-33 -171 39 -279t230 -108t259 102t128 258l110 580h117l-145 -766
q-29 -158 94 -158h33l-19 -100h-63q-160 0 -162 156q-138 -174 -355 -174z" />
    <glyph glyph-name="Uogonek" unicode="&#x172;" horiz-adv-x="1316" 
d="M504 -436q-112 0 -176 61t-47 148q20 121 202 219q-190 35 -281 177t-52 353l169 973h121l-174 -985q-32 -182 58 -301t297 -119q159 0 273 99t142 253l185 1053h120l-184 -1046q-37 -205 -171 -329t-331 -138q-141 -72 -195 -117t-64 -93t26 -80q35 -32 94 -32
q98 0 197 80l82 -66q-139 -110 -291 -110z" />
    <glyph glyph-name="uogonek" unicode="&#x173;" horiz-adv-x="1241" 
d="M540 -18q-217 0 -320 139t-62 352l57 293q14 86 -7 122q-22 36 -89 36h-27l17 100h73q197 0 150 -252l-58 -301q-33 -171 39 -279t230 -108t259 102t128 258l110 580h117l-145 -766q-29 -158 94 -158h33l-19 -98l6 -2q-158 -80 -218 -126t-68 -95t26 -81t95 -32
q98 0 196 80l82 -65q-139 -111 -291 -111q-112 0 -176 61t-50 139t70 133q56 56 175 113q-70 35 -72 140q-138 -174 -355 -174z" />
    <glyph glyph-name="Wcircumflex" unicode="&#x174;" horiz-adv-x="2160" 
d="M965 1628l299 318h100l188 -318h-120l-132 223l-208 -223h-127zM1552 0h-118l-215 1317l-670 -1317h-121l-178 1495h123l149 -1309l668 1309h115l215 -1315l610 1315h125z" />
    <glyph glyph-name="wcircumflex" unicode="&#x175;" horiz-adv-x="1935" 
d="M752 1157l299 318h100l188 -318h-120l-132 223l-208 -223h-127zM502 -20q-205 0 -296 138t-48 355l57 293q31 158 -94 158h-27l17 100h71q199 0 152 -252l-60 -301q-34 -172 28 -280q62 -107 212 -107t248 105t125 255l110 580h115l-113 -610q-29 -154 37 -242t205 -88
q180 0 297 142t159 366t-14 432h119q43 -246 6 -442q-47 -262 -192 -432t-375 -170q-135 0 -224 60t-114 177q-66 -113 -170 -175t-231 -62z" />
    <glyph glyph-name="Ycircumflex" unicode="&#x176;" horiz-adv-x="1255" 
d="M526 1618l299 317h101l188 -317h-121l-131 223l-209 -223h-127zM473 0l127 719l-360 776h122l316 -674l545 674h137l-643 -790l-125 -705h-119z" />
    <glyph glyph-name="ycircumflex" unicode="&#x177;" horiz-adv-x="1216" 
d="M377 1157l299 318h100l189 -318h-121l-131 223l-209 -223h-127zM467 -492q-157 0 -273 79t-159 206l112 35q78 -213 328 -213q305 0 377 403l20 109q-133 -145 -341 -145t-311 139t-62 352l57 293q14 86 -7 122q-22 36 -89 36h-25l17 100h71q197 0 152 -252l-60 -301
q-33 -171 39 -279t230 -108t259 102t128 258l110 580h115l-186 -1004q-43 -250 -163 -381t-339 -131z" />
    <glyph glyph-name="Ydieresis" unicode="&#x178;" horiz-adv-x="1255" 
d="M872 1624l52 285h114l-49 -285h-117zM635 1624l49 285h117l-51 -285h-115zM473 0l127 719l-360 776h122l316 -674l545 674h137l-643 -790l-125 -705h-119z" />
    <glyph glyph-name="Zacute" unicode="&#x179;" horiz-adv-x="1218" 
d="M711 1628l301 318h153l-342 -318h-112zM1012 0h-983l18 109l1057 1275h-809l18 111h955l-19 -109l-1056 -1275h837z" />
    <glyph glyph-name="zacute" unicode="&#x17a;" horiz-adv-x="1163" 
d="M602 1157l301 318h154l-342 -318h-113zM43 0l16 102l885 818h-723l19 104h884l-20 -102l-885 -820h752l-19 -102h-909z" />
    <glyph glyph-name="Zdotaccent" unicode="&#x17b;" horiz-adv-x="1218" 
d="M741 1638l50 285h116l-49 -285h-117zM1012 0h-983l18 109l1057 1275h-809l18 111h955l-19 -109l-1056 -1275h837z" />
    <glyph glyph-name="zdotaccent" unicode="&#x17c;" horiz-adv-x="1163" 
d="M623 1167l49 285h116l-49 -285h-116zM43 0l16 102l885 818h-723l19 104h884l-20 -102l-885 -820h752l-19 -102h-909z" />
    <glyph glyph-name="Zcaron" unicode="&#x17d;" horiz-adv-x="1218" 
d="M750 1628l-189 318h123l129 -224l211 224h125l-299 -318h-100zM1012 0h-983l18 109l1057 1275h-809l18 111h955l-19 -109l-1056 -1275h837z" />
    <glyph glyph-name="zcaron" unicode="&#x17e;" horiz-adv-x="1163" 
d="M633 1157l-189 318h123l129 -224l211 224h125l-299 -318h-100zM43 0l16 102l885 818h-723l19 104h884l-20 -102l-885 -820h752l-19 -102h-909z" />
    <glyph glyph-name="florin" unicode="&#x192;" 
d="M1231 1495h20l-22 -100q-180 -1 -265 -57t-147 -216l-102 -295h418l-21 -106h-434l-125 -359q-80 -214 -185 -288t-323 -74h-12l18 104q178 0 254 58t141 229l115 330h-397l18 106h416l113 322q77 201 193 273t327 73z" />
    <glyph glyph-name="Aringacute" unicode="&#x1fa;" horiz-adv-x="1404" 
d="M880 1503q48 0 84 30t45 76t-21 84t-77 38t-82 -29t-44 -76t19 -85t76 -38zM870 1898l301 318h154l-342 -318h-113zM858 1337l-452 -807h612zM924 1821q86 0 140 -72t32 -160q-29 -119 -142 -162l291 -1427h-121l-84 418h-698l-233 -418h-127l806 1434q-55 29 -80 87
q-26 58 -9 131t79 121t146 48z" />
    <glyph glyph-name="aringacute" unicode="&#x1fb;" horiz-adv-x="1347" 
d="M790 1460q-48 0 -82 -28t-43 -76q-9 -47 19 -85t75 -38q48 0 84 30q36 29 45 75t-21 84t-77 38zM752 1622l301 317h153l-342 -317h-112zM804 1550q86 0 139 -72q54 -72 34 -153q-21 -82 -81 -132t-146 -50t-140 70q-54 71 -34 156t81 133t147 48zM606 86q158 0 282 109
t156 285t-72 318q-103 140 -302 140q-162 0 -288 -105t-156 -283t78 -322q108 -142 302 -142zM596 -20q-246 0 -385 177t-96 421q37 202 193 334t358 132q154 0 264 -74t153 -194l45 248h117l-139 -770q-14 -82 8 -118t92 -36h27l-21 -100h-61q-82 0 -124 46t-40 126
q-145 -192 -391 -192z" />
    <glyph glyph-name="AEacute" unicode="&#x1fc;" horiz-adv-x="2154" 
d="M1331 1628l301 318h154l-342 -318h-113zM1008 1323l-537 -801h588zM-14 0l999 1495h1102l-19 -113h-950l39 -577h809l-20 -111h-783l39 -581h641l-18 -113h-731l-27 414h-670l-276 -414h-135z" />
    <glyph glyph-name="aeacute" unicode="&#x1fd;" horiz-adv-x="1957" 
d="M971 1143l301 317h153l-342 -317h-112zM451 76q132 0 249 81t181 191q-16 90 -4 182q0 4 12 52q-35 -31 -112 -54t-229 -49q-152 -27 -231 -67q-80 -40 -95 -132t41 -148t188 -56zM1472 942q-157 0 -292 -92t-183 -246q219 -84 391 -84t267 54q96 54 111 146t-61 158
q-76 64 -233 64zM423 -20q-171 0 -252 85t-62 209q16 142 142 209q100 53 309 92q208 39 274 68q90 45 103 120t-56 132q-71 57 -219 57t-248 -68t-121 -188h-107q27 164 158 256t330 92q145 0 236 -51t120 -137q176 188 447 188q201 0 315 -99t91 -235t-149 -215t-335 -79
t-420 90q-15 -188 99 -306t319 -118t340 147l88 -63q-164 -186 -439 -186q-170 0 -292 70t-179 196q-73 -110 -197 -188t-295 -78z" />
    <glyph glyph-name="Oslashacute" unicode="&#x1fe;" horiz-adv-x="1755" 
d="M991 1628l301 318h154l-342 -318h-113zM892 94q232 0 424 164t236 414q27 145 -10 285t-127 247l-915 -987q160 -123 392 -123zM948 1405q-234 0 -426 -166t-237 -420q-53 -313 139 -532l917 989q-160 129 -393 129zM884 -20q-276 0 -468 149l-119 -129h-139l184 199
q-113 121 -160 285t-14 350q50 298 280 490t506 192t465 -154l125 133h139l-188 -205q111 -123 157 -288t15 -347q-51 -295 -279 -485t-504 -190z" />
    <glyph glyph-name="oslashacute" unicode="&#x1ff;" horiz-adv-x="1275" 
d="M635 1157l301 318h154l-342 -318h-113zM620 86q146 0 272 105t158 281t-83 325l-592 -637q99 -74 245 -74zM656 938q-148 0 -274 -106t-158 -286t85 -323l592 637q-97 78 -245 78zM656 1044q190 0 323 -100l74 80h123l-132 -141q74 -86 105 -201t10 -240
q-37 -202 -193 -332t-348 -130t-321 96l-70 -76h-125l127 137q-160 180 -112 441q35 202 193 334q156 132 346 132z" />
    <glyph glyph-name="Scommaaccent" unicode="&#x218;" horiz-adv-x="1118" 
d="M504 -20q-330 0 -492 266l109 69q55 -102 154 -163q99 -62 237 -62t236 72q96 72 118 188q23 139 -59 223t-250 164q-288 137 -333 289q-22 74 -7 166q25 145 147 234q122 90 282 90t277 -60q116 -60 183 -168l-100 -65q-111 188 -347 188q-133 0 -219 -63t-102 -168
q-24 -137 82 -224q55 -44 97 -68t124 -63t138 -75q57 -36 117 -94q123 -119 89 -314q-29 -162 -159 -262t-322 -100zM209 -547l164 418h108l-194 -418h-78z" />
    <glyph glyph-name="scommaaccent" unicode="&#x219;" horiz-adv-x="1007" 
d="M492 -20q-156 0 -270 60t-181 161l102 65q113 -184 349 -184q116 0 184 50t78 122t-28 105q-24 22 -56 46t-149 64q-118 39 -166 61q-137 64 -169 154q-18 53 -6 125q20 111 122 175t234 64q134 0 238 -48t168 -123l-94 -64q-113 135 -311 135q-98 0 -163 -39t-79 -117
t49 -123t176 -85t163 -64t103 -62q110 -80 87 -206q-23 -127 -123 -200q-101 -72 -258 -72zM188 -524l164 418h109l-195 -418h-78z" />
    <glyph glyph-name="dotlessj" unicode="&#x237;" horiz-adv-x="442" 
d="M-225 -469h-33l20 111q158 0 212 48t85 216l201 1118h117l-199 -1120q-39 -221 -120 -297t-283 -76z" />
    <glyph glyph-name="circumflex" unicode="&#x2c6;" horiz-adv-x="1007" 
d="M313 1157l299 318h101l188 -318h-121l-131 223l-209 -223h-127z" />
    <glyph glyph-name="caron" unicode="&#x2c7;" horiz-adv-x="1007" 
d="M561 1157l-188 318h123l129 -224l211 224h125l-299 -318h-101z" />
    <glyph glyph-name="breve" unicode="&#x2d8;" horiz-adv-x="1007" 
d="M619 1143q-155 0 -229 94t-50 227h102q-18 -98 34 -165t159 -67t175 66t87 166h104q-25 -135 -126 -228t-256 -93z" />
    <glyph glyph-name="dotaccent" unicode="&#x2d9;" horiz-adv-x="1011" 
d="M530 1167l50 285h116l-49 -285h-117z" />
    <glyph glyph-name="ring" unicode="&#x2da;" horiz-adv-x="1007" 
d="M661 1466q-47 0 -81 -28t-44 -76q-10 -47 18 -85t76 -38t84 30q36 29 45 75t-21 84t-77 38zM674 1556q86 0 140 -72t34 -153q-20 -82 -80 -132t-147 -50q-86 0 -140 71q-53 72 -33 156t80 132t146 48z" />
    <glyph glyph-name="ogonek" unicode="&#x2db;" horiz-adv-x="1007" 
d="M324 -430q-111 0 -176 61q-66 61 -50 143t87 145q71 62 235 134l82 -53q-158 -80 -218 -126t-68 -95t26 -81q35 -32 94 -32q98 0 196 80l82 -65q-138 -111 -290 -111z" />
    <glyph glyph-name="tilde" unicode="&#x2dc;" horiz-adv-x="1007" 
d="M467 1380q78 0 176 -61q94 -63 145 -64q90 0 115 117h96q-20 -104 -79 -164t-148 -59q-31 0 -47 4q-15 4 -25 6t-23 9q-13 8 -19 10q-11 4 -36 20q-117 78 -163 78q-45 0 -75 -32t-40 -87h-94q16 99 78 161t139 62z" />
    <glyph glyph-name="hungarumlaut" unicode="&#x2dd;" horiz-adv-x="1007" 
d="M539 1157l299 318h145l-340 -318h-104zM276 1157l302 318h145l-340 -318h-107z" />
    <glyph glyph-name="pi" unicode="&#x3c0;" horiz-adv-x="1572" 
d="M1315 111h104l-18 -111h-113q-174 0 -228 98t-22 285l174 1001h-546l-244 -1384h-119l242 1384h-305l20 111h1395l-21 -111h-301l-176 -1003q-27 -152 8 -211t150 -59z" />
    <glyph glyph-name="pi" unicode="&#x3d6;" horiz-adv-x="1572" 
d="M1315 111h104l-18 -111h-113q-174 0 -228 98t-22 285l174 1001h-546l-244 -1384h-119l242 1384h-305l20 111h1395l-21 -111h-301l-176 -1003q-27 -152 8 -211t150 -59z" />
    <glyph glyph-name="uni0E3F" unicode="&#xe3f;" horiz-adv-x="1110" 
d="M721 1251h-6l-78 -436h49q104 -1 175 61t81 155t-51 157t-170 63zM385 1251l-78 -436h228l77 436h-227zM289 711l-82 -463h227l82 463h-227zM647 711h-29l-79 -463h61q110 0 182 57t90 161t-46 174q-64 71 -179 71zM590 137h-72l-22 -137h-105l25 137h-344l213 1221h346
l24 137h103l-25 -137q156 0 249 -97t73 -239q-9 -90 -65 -163t-146 -109q84 -43 125 -123t22 -183q-25 -139 -131 -223t-270 -84z" />
    <glyph glyph-name="Wgrave" unicode="&#x1e80;" horiz-adv-x="2160" 
d="M1202 1628l-231 318h151l187 -318h-107zM1552 0h-118l-215 1317l-670 -1317h-121l-178 1495h123l149 -1309l668 1309h115l215 -1315l610 1315h125z" />
    <glyph glyph-name="wgrave" unicode="&#x1e81;" horiz-adv-x="1935" 
d="M1014 1157l-232 318h152l186 -318h-106zM502 -20q-205 0 -296 138t-48 355l57 293q31 158 -94 158h-27l17 100h71q199 0 152 -252l-60 -301q-34 -172 28 -280q62 -107 212 -107t248 105t125 255l110 580h115l-113 -610q-29 -154 37 -242t205 -88q180 0 297 142t159 366
t-14 432h119q43 -246 6 -442q-47 -262 -192 -432t-375 -170q-135 0 -224 60t-114 177q-66 -113 -170 -175t-231 -62z" />
    <glyph glyph-name="Wacute" unicode="&#x1e82;" horiz-adv-x="2160" 
d="M1212 1628l301 318h154l-342 -318h-113zM1552 0h-118l-215 1317l-670 -1317h-121l-178 1495h123l149 -1309l668 1309h115l215 -1315l610 1315h125z" />
    <glyph glyph-name="wacute" unicode="&#x1e83;" horiz-adv-x="1935" 
d="M1018 1157l301 318h154l-343 -318h-112zM502 -20q-205 0 -296 138t-48 355l57 293q31 158 -94 158h-27l17 100h71q199 0 152 -252l-60 -301q-34 -172 28 -280q62 -107 212 -107t248 105t125 255l110 580h115l-113 -610q-29 -154 37 -242t205 -88q180 0 297 142t159 366
t-14 432h119q43 -246 6 -442q-47 -262 -192 -432t-375 -170q-135 0 -224 60t-114 177q-66 -113 -170 -175t-231 -62z" />
    <glyph glyph-name="Wdieresis" unicode="&#x1e84;" horiz-adv-x="2160" 
d="M1325 1638l51 285h115l-49 -285h-117zM1087 1638l50 285h116l-51 -285h-115zM1552 0h-118l-215 1317l-670 -1317h-121l-178 1495h123l149 -1309l668 1309h115l215 -1315l610 1315h125z" />
    <glyph glyph-name="wdieresis" unicode="&#x1e85;" horiz-adv-x="1935" 
d="M1137 1167l51 285h115l-50 -285h-116zM899 1167l49 285h117l-51 -285h-115zM502 -20q-205 0 -296 138t-48 355l57 293q31 158 -94 158h-27l17 100h71q199 0 152 -252l-60 -301q-34 -172 28 -280q62 -107 212 -107t248 105t125 255l110 580h115l-113 -610
q-29 -154 37 -242t205 -88q180 0 297 142t159 366t-14 432h119q43 -246 6 -442q-47 -262 -192 -432t-375 -170q-135 0 -224 60t-114 177q-66 -113 -170 -175t-231 -62z" />
    <glyph glyph-name="Ygrave" unicode="&#x1ef2;" horiz-adv-x="1273" 
d="M770 1599l-231 318h151l187 -318h-107zM481 0l127 719l-360 776h123l315 -674l545 674h137l-643 -790l-125 -705h-119z" />
    <glyph glyph-name="ygrave" unicode="&#x1ef3;" horiz-adv-x="1224" 
d="M637 1157l-231 318h151l186 -318h-106zM483 -492q-157 0 -273 79t-159 206l113 35q78 -213 328 -213q305 0 376 403l21 109q-133 -145 -341 -145t-311 139t-63 352l57 293q14 86 -7 122q-22 36 -89 36h-24l16 100h72q197 0 151 -252l-59 -301q-33 -171 39 -279t230 -108
t258 102q101 102 128 258l111 580h114l-186 -1004q-43 -250 -163 -381t-339 -131z" />
    <glyph glyph-name="figuredash" unicode="&#x2012;" horiz-adv-x="1355" 
d="M90 473l19 100h1155l-19 -100h-1155z" />
    <glyph glyph-name="endash" unicode="&#x2013;" horiz-adv-x="1036" 
d="M90 473l19 100h847l-18 -100h-848z" />
    <glyph glyph-name="emdash" unicode="&#x2014;" horiz-adv-x="1458" 
d="M90 473l19 100h1257l-18 -100h-1258z" />
    <glyph glyph-name="uni2015" unicode="&#x2015;" horiz-adv-x="2072" 
d="M90 473l19 100h1871l-18 -100h-1872z" />
    <glyph glyph-name="doublebar" unicode="&#x2016;" horiz-adv-x="739" 
d="M307 -471l346 1966h119l-346 -1966h-119zM-31 -471l346 1966h119l-346 -1966h-119z" />
    <glyph glyph-name="quoteleft" unicode="&#x2018;" horiz-adv-x="360" 
d="M346 1495l16 -418h-77l-49 418h110z" />
    <glyph glyph-name="quoteright" unicode="&#x2019;" horiz-adv-x="360" 
d="M244 1077h-78l162 418h112z" />
    <glyph glyph-name="quotesinglbase" unicode="&#x201a;" horiz-adv-x="362" 
d="M-84 -240l164 418h110l-196 -418h-78z" />
    <glyph glyph-name="reversequoteleft" unicode="&#x201b;" horiz-adv-x="360" 
d="M244 1077h-78l162 418h112z" />
    <glyph glyph-name="quotedblleft" unicode="&#x201c;" horiz-adv-x="575" 
d="M348 1495l19 -418h-80l-49 418h110zM565 1495l15 -418h-78l-49 418h112z" />
    <glyph glyph-name="quotedblright" unicode="&#x201d;" horiz-adv-x="575" 
d="M459 1077h-80l166 418h110zM244 1077h-78l162 418h112z" />
    <glyph glyph-name="quotedblbase" unicode="&#x201e;" horiz-adv-x="577" 
d="M131 -240l164 418h111l-197 -418h-78zM-84 -240l164 418h110l-196 -418h-78z" />
    <glyph glyph-name="reversequotedblleft" unicode="&#x201f;" horiz-adv-x="575" 
d="M459 1077h-80l166 418h110zM244 1077h-78l162 418h112z" />
    <glyph glyph-name="dagger" unicode="&#x2020;" horiz-adv-x="1171" 
d="M180 920l21 104h399l84 471h119l-84 -471h409l-20 -104h-408l-159 -920h-119l160 920h-402z" />
    <glyph glyph-name="daggerdbl" unicode="&#x2021;" horiz-adv-x="1171" 
d="M188 958l19 105h401l76 432h119l-76 -432h408l-19 -105h-407l-72 -407h407l-18 -102h-408l-77 -449h-119l78 449h-402l19 102h401l72 407h-402z" />
    <glyph glyph-name="bullet" unicode="&#x2022;" horiz-adv-x="600" 
d="M318 395q-50 0 -86 36t-35 87q0 51 35 87q36 36 86 36t86 -36t36 -87t-36 -87t-86 -36z" />
    <glyph glyph-name="ellipsis" unicode="&#x2026;" horiz-adv-x="913" 
d="M571 0l50 281h116l-49 -281h-117zM295 0l49 281h119l-49 -281h-119zM18 0l52 281h116l-49 -281h-119z" />
    <glyph glyph-name="perthousand" unicode="&#x2030;" horiz-adv-x="2560" 
d="M2026 78q102 0 175 60t89 158t-46 182q-62 83 -164 83t-174 -61q-71 -62 -88 -160t45 -180q61 -82 163 -82zM2089 659q141 1 233 -113t68 -255t-127 -227q-101 -86 -245 -87q-144 0 -235 113t-65 255t127 228q102 86 244 86zM1204 78q102 0 175 60t89 158t-46 182
q-62 83 -164 83t-174 -61q-71 -62 -88 -160t45 -180q61 -82 163 -82zM1196 -23q-144 0 -234 113t-66 255q26 142 128 228t244 86q142 1 233 -113t67 -255t-126 -228q-102 -86 -246 -86zM560 934q102 0 174 60q73 60 89 160t-46 181q-63 82 -165 82t-173 -61
q-71 -60 -88 -160t45 -181t164 -81zM550 834q-144 0 -234 114q-91 114 -66 254q25 142 128 228q102 86 244 86t234 -114t66 -255t-126 -227q-102 -86 -246 -86zM63 0l1547 1495h151l-1546 -1495h-152z" />
    <glyph glyph-name="minute" unicode="&#x2032;" horiz-adv-x="360" 
d="M244 1077h-78l162 418h112z" />
    <glyph glyph-name="second" unicode="&#x2033;" horiz-adv-x="575" 
d="M459 1077h-80l166 418h110zM244 1077h-78l162 418h112z" />
    <glyph glyph-name="tripleprime" unicode="&#x2034;" horiz-adv-x="778" 
d="M670 1024q-4 123 22 299l31 172h96l-31 -172q-20 -133 -79 -299h-39zM451 1024q-4 123 22 299l31 172h96l-31 -172q-20 -133 -80 -299h-38zM231 1024q-4 123 23 299l31 172h96l-31 -172q-20 -133 -80 -299h-39z" />
    <glyph glyph-name="guilsinglleft" unicode="&#x2039;" horiz-adv-x="567" 
d="M385 229l-264 244l14 80l350 244l-18 -103l-266 -186l202 -184z" />
    <glyph glyph-name="guilsinglright" unicode="&#x203a;" horiz-adv-x="567" 
d="M188 795l265 -244l-15 -80l-350 -244l18 103l269 186l-203 184z" />
    <glyph glyph-name="fraction" unicode="&#x2044;" horiz-adv-x="1351" 
d="M-23 0l1338 1495h143l-1337 -1495h-144z" />
    <glyph glyph-name="uni2070" unicode="&#x2070;" horiz-adv-x="1021" 
d="M648 1407q-144 0 -246 -87q-102 -88 -126 -230t65 -254t231 -111q142 0 242 87q99 87 124 226t-61 254q-85 115 -229 115zM560 621q-186 0 -304 146q-118 145 -86 331q33 186 166 299t305 112q203 0 319 -148q116 -147 83 -331q-32 -184 -164 -297q-133 -112 -319 -112z
" />
    <glyph glyph-name="uni2074" unicode="&#x2074;" horiz-adv-x="768" 
d="M258 928h283l69 397zM489 631l35 198h-405l14 99l506 567h106l-100 -567h135l-16 -99h-135l-35 -198h-105z" />
    <glyph glyph-name="uni2075" unicode="&#x2075;" horiz-adv-x="729" 
d="M397 618q-217 0 -272 177l102 45q37 -123 176 -123q78 0 139 47q60 47 75 129t-28 143q-44 61 -132 62q-125 0 -199 -113l-90 37l141 473h473l-18 -102h-383l-78 -258q69 59 187 59t188 -92t46 -214t-111 -196t-216 -74z" />
    <glyph glyph-name="uni2076" unicode="&#x2076;" horiz-adv-x="743" 
d="M419 717q85 0 144 50t75 134t-37 152q-52 67 -136 67t-144 -53q-61 -53 -75 -137t37 -148t136 -65zM489 1212q127 0 201 -98t52 -220t-106 -198q-85 -76 -222 -77t-216 97t-57 230q14 84 80 162l326 387h127l-246 -291q41 8 61 8z" />
    <glyph glyph-name="uni2077" unicode="&#x2077;" horiz-adv-x="698" 
d="M193 631l469 764h-431l17 100h547l-17 -92l-465 -772h-120z" />
    <glyph glyph-name="uni2078" unicode="&#x2078;" horiz-adv-x="710" 
d="M467 1139q63 0 112 37q48 37 58 94t-28 99t-104 42q-67 0 -111 -34t-55 -93t27 -102t101 -43zM395 721q80 0 130 42q51 41 63 109t-33 117t-120 49t-130 -42t-65 -110t32 -116q42 -49 123 -49zM387 621q-125 1 -197 79t-51 195q23 139 162 207q-84 74 -63 198
q16 90 92 150t184 59t174 -75t49 -172q-27 -133 -137 -183q113 -80 88 -223q-18 -102 -97 -168t-204 -67z" />
    <glyph glyph-name="uni2079" unicode="&#x2079;" horiz-adv-x="727" 
d="M464 1022q81 0 138 51q58 51 72 132t-34 143t-131 63q-83 0 -140 -49t-71 -130q-14 -82 36 -146q49 -64 130 -64zM444 932q-126 0 -200 93t-52 214t112 196q91 75 216 75t203 -96q78 -95 55 -224q-16 -82 -73 -154l-328 -403h-131l252 303q-18 -4 -54 -4z" />
    <glyph glyph-name="uni207A" unicode="&#x207a;" horiz-adv-x="571" 
d="M152 1020l16 90h174l31 172h90l-31 -172h172l-16 -90h-172l-31 -174h-90l31 174h-174z" />
    <glyph glyph-name="uni207B" unicode="&#x207b;" horiz-adv-x="571" 
d="M152 1020l16 90h436l-16 -90h-436z" />
    <glyph glyph-name="uni207C" unicode="&#x207c;" horiz-adv-x="571" 
d="M133 920l17 90h438l-17 -90h-438zM168 1114l16 90h439l-17 -90h-438z" />
    <glyph glyph-name="uni207D" unicode="&#x207d;" horiz-adv-x="544" 
d="M479 559l-76 -82q-123 94 -190 264q-68 170 -33 364t158 341t270 211l56 -90q-142 -59 -242 -181t-133 -290q-29 -170 25 -310t165 -227z" />
    <glyph glyph-name="uni207E" unicode="&#x207e;" horiz-adv-x="544" 
d="M240 1569l75 82q123 -97 193 -267t35 -364t-152 -340q-117 -145 -276 -211l-56 88q307 133 375 475q29 168 -27 308t-167 229z" />
    <glyph glyph-name="uni2080" unicode="&#x2080;" horiz-adv-x="1021" 
d="M460 92q142 0 241 87t124 226t-61 254t-230 115t-244 -87q-101 -87 -126 -229t64 -254q90 -112 232 -112zM544 877q188 -1 303 -149q116 -148 84 -332t-165 -296q-132 -112 -318 -112t-305 146t-86 332t166 298q133 113 321 113z" />
    <glyph glyph-name="uni2081" unicode="&#x2081;" horiz-adv-x="579" 
d="M115 610h-13l21 113h6q78 0 123 43t53 98h103l-134 -764h168l-16 -100h-438l16 100h162l102 586q-20 -32 -63 -54t-90 -22z" />
    <glyph glyph-name="uni2082" unicode="&#x2082;" horiz-adv-x="712" 
d="M397 784q-121 0 -186 -100l-88 45q94 147 278 148q123 0 196 -71t52 -185t-181 -217q-34 -22 -106 -64t-112 -70q-115 -81 -129 -168v-2h434l-16 -100h-549l16 102q18 100 93 171t208 149t174 116q41 39 50 61q38 88 -11 136q-49 49 -123 49z" />
    <glyph glyph-name="uni2083" unicode="&#x2083;" horiz-adv-x="663" 
d="M240 -12q-90 0 -159 39t-97 94l96 55q43 -88 166 -88q74 0 123 37t61 107t-34 117q-46 48 -122 48h-73l16 101h70q78 0 132 38t64 102q11 64 -31 102q-42 40 -122 40t-148 -73l-82 63q94 106 230 106t207 -74q70 -75 49 -179q-23 -129 -150 -183q59 -37 87 -97t14 -134
q-43 -221 -297 -221z" />
    <glyph glyph-name="uni2084" unicode="&#x2084;" horiz-adv-x="768" 
d="M145 297h283l70 397zM377 0l35 199h-406l14 98l506 567h107l-101 -567h136l-17 -98h-135l-35 -199h-104z" />
    <glyph glyph-name="uni2085" unicode="&#x2085;" horiz-adv-x="729" 
d="M287 -12q-217 0 -273 176l103 45q37 -123 176 -123q78 0 138 47q59 47 75 129t-28 144t-132 61q-125 0 -199 -113l-90 37l142 473h473l-19 -102h-383l-77 -258q69 59 187 59t188 -92t45 -214q-24 -122 -110 -196q-87 -73 -216 -73z" />
    <glyph glyph-name="uni2086" unicode="&#x2086;" horiz-adv-x="743" 
d="M306 86q85 0 145 50q59 50 74 134t-37 152t-136 68t-144 -54q-60 -53 -74 -137q-14 -85 36 -149q51 -64 136 -64zM377 582q127 0 201 -98t52 -221q-22 -121 -106 -197q-86 -76 -223 -77t-216 96t-56 230q16 84 80 162l325 387h127l-246 -291q41 8 62 9z" />
    <glyph glyph-name="uni2087" unicode="&#x2087;" horiz-adv-x="698" 
d="M80 0l469 764h-430l16 100h547l-16 -92l-465 -772h-121z" />
    <glyph glyph-name="uni2088" unicode="&#x2088;" horiz-adv-x="710" 
d="M354 506q63 0 112 37q48 37 58 94t-27 99q-39 42 -105 42t-110 -34t-57 -89q-10 -63 28 -106t101 -43zM283 88q80 0 130 42t62 110t-33 116q-46 48 -120 50q-74 0 -129 -42t-65 -110t32 -117q43 -49 123 -49zM274 -12q-124 0 -196 79t-51 195q23 139 161 207
q-84 74 -63 199q16 90 92 149q75 59 183 59t174 -74q66 -75 51 -173q-27 -133 -138 -183q113 -80 88 -223q-18 -103 -97 -169t-204 -66z" />
    <glyph glyph-name="uni2089" unicode="&#x2089;" horiz-adv-x="727" 
d="M351 389q81 0 138 51t71 132q14 82 -33 144q-48 62 -131 62t-140 -49q-56 -49 -70 -130t35 -145t130 -65zM332 299q-125 0 -200 93q-76 93 -54 214t113 196t216 75q125 1 203 -95t56 -225q-16 -82 -74 -154l-328 -403h-131l252 303q-18 -4 -53 -4z" />
    <glyph glyph-name="uni208A" unicode="&#x208a;" horiz-adv-x="571" 
d="M39 387l16 90h174l31 172h90l-31 -172h173l-17 -90h-172l-31 -174h-90l31 174h-174z" />
    <glyph glyph-name="uni208B" unicode="&#x208b;" horiz-adv-x="571" 
d="M39 387l16 90h437l-17 -90h-436z" />
    <glyph glyph-name="uni208C" unicode="&#x208c;" horiz-adv-x="571" 
d="M20 287l17 90h438l-16 -90h-439zM55 481l17 90h438l-16 -90h-439z" />
    <glyph glyph-name="uni208D" unicode="&#x208d;" horiz-adv-x="544" 
d="M367 -74l-76 -82q-123 94 -191 264t-32 364t157 341q123 147 271 211l55 -90q-141 -59 -241 -180t-132 -291q-30 -169 24 -309t165 -228z" />
    <glyph glyph-name="uni208E" unicode="&#x208e;" horiz-adv-x="544" 
d="M143 936l76 82q123 -96 193 -266t34 -365t-152 -340t-276 -211l-55 88q307 133 375 475q28 169 -28 309t-167 228z" />
    <glyph glyph-name="uni20A1" unicode="&#x20a1;" horiz-adv-x="1656" 
d="M508 199q74 -51 149 -76l617 1223q-78 35 -164 47zM985 1403q-249 0 -451 -167t-247 -421q-29 -158 11 -304t138 -249l574 1141h-25zM999 1516q43 0 66 -3l104 207h107l-113 -223q94 -20 160 -53l139 276h107l-162 -321q152 -102 223 -256l-112 -53q-61 133 -162 206
l-604 -1196q70 -8 110 -8q174 0 328 84t248 232l106 -52q-109 -176 -290 -276t-402 -100q-72 0 -154 14l-120 -240h-107l133 264q-78 27 -149 72l-170 -336h-105l199 396q-133 120 -189 298t-20 383q51 295 289 490t540 195z" />
    <glyph glyph-name="uni20A2" unicode="&#x20a2;" horiz-adv-x="1656" 
d="M852 -20q-352 0 -548 250t-134 601q51 295 289 490t540 195q215 0 383 -100t248 -273l-112 -53q-141 313 -533 313q-249 0 -451 -167t-247 -420t75 -457t363 -255l88 459q31 158 -96 158h-27l17 100h57q168 0 162 -184q129 184 366 184h140l-23 -114h-125
q-164 1 -262 -91t-129 -254l-53 -270h22q174 0 328 84t248 232l106 -52q-109 -176 -290 -276t-402 -100z" />
    <glyph glyph-name="franc" unicode="&#x20a3;" horiz-adv-x="1112" 
d="M45 0l262 1495h846l-18 -111h-727l-74 -423h725l-21 -113h-723l-39 -215h725l-18 -109h-725l-92 -524h-121z" />
    <glyph glyph-name="lira" unicode="&#x20a4;" horiz-adv-x="1488" 
d="M289 57q150 0 239 129q-154 115 -243 115q-59 0 -97 -29q-38 -28 -48 -82q-9 -54 34 -94t115 -39zM950 78q127 0 192 66t93 227l10 57h123l-14 -72q-35 -196 -126 -286t-259 -90t-367 149q-117 -152 -311 -152q-121 0 -193 65t-53 173q17 78 79 124t175 47t270 -116
q12 37 17 58q23 123 -41 288h-346l16 97h291q-45 102 -64 157h-196l18 97h156q-16 94 0 182q29 166 160 266t317 101q276 0 406 -205l-105 -45q-102 147 -305 147q-139 0 -235 -77t-115 -179q-18 -102 -2 -190h524l-16 -97h-482q12 -39 60 -157h391l-19 -97h-337
q75 -234 -13 -407q174 -131 301 -131z" />
    <glyph glyph-name="uni20A6" unicode="&#x20a6;" horiz-adv-x="1613" 
d="M1006 575l202 -387l68 387h-270zM489 1317l-69 -391h274zM872 829l84 -157h336l29 157h-449zM403 829l-28 -157h452l-82 157h-342zM119 829l16 97h166l100 569h123l299 -569h514l101 569h118l-100 -569h166l-18 -97h-164l-29 -157h166l-18 -97h-164l-101 -575h-112
l-303 575h-521l-100 -575h-119l101 575h-166l18 97h164l29 157h-166z" />
    <glyph glyph-name="peseta" unicode="&#x20a7;" horiz-adv-x="2658" 
d="M705 1389h-295l-140 -801h348q190 0 320 104q129 104 160 278q32 174 -82 296q-114 123 -311 123zM1688 104h391q135 0 210 46t86 119q11 72 -32 115q-44 43 -109 66t-168 59t-178 89q-98 71 -76 213q20 111 120 174t249 62q236 0 381 -170l-96 -64q-109 135 -299 135
q-97 0 -161 -38t-77 -107t36 -119q28 -30 93 -55q64 -25 126 -46q204 -69 264 -142t40 -190q-20 -115 -114 -183t-297 -68h-408q-235 0 -321 119t-54 315l86 488h-174q-40 -197 -200 -320t-392 -123h-364l-84 -479h-119l262 1495h412q215 0 360 -131t140 -340h178l43 244
l127 63l-56 -307h246l-18 -102h-246l-86 -494q-27 -158 36 -241t243 -83z" />
    <glyph glyph-name="uni20A8" unicode="&#x20a8;" horiz-adv-x="2146" 
d="M735 1495q221 0 356 -149q134 -150 97 -365q-31 -176 -169 -293t-343 -117h-10q52 -198 226 -337q93 -76 248 -118t353 -42q340 0 375 196q8 52 -29 94t-78 59q-117 48 -155 58q-213 74 -274 146q-60 72 -41 181q19 108 121 174t236 66t237 -48t169 -123l-94 -64
q-113 135 -311 135q-98 0 -164 -41t-81 -119t63 -124q60 -38 128 -62q92 -33 193 -73t148 -96q63 -73 44 -177q-45 -287 -497 -287q-201 0 -364 45t-265 115t-174 166q-125 166 -150 379h132q164 0 274 92t134 244q26 152 -76 263q-102 112 -277 116h-307l-244 -1389h-121
l262 1495h428z" />
    <glyph glyph-name="uni20A9" unicode="&#x20a9;" horiz-adv-x="2240" 
d="M756 575h-242l43 -389zM1489 575l65 -395l183 395h-248zM1253 1317l-198 -391h262zM483 829l19 -157h303l80 157h-402zM1448 829l25 -157h309l73 157h-407zM1006 829l-80 -157h432l-25 157h-327zM117 829l18 97h217l-67 569h123l65 -569h461l291 569h114l93 -569h469
l264 569h125l-269 -569h226l-17 -97h-254l-73 -157h299l-17 -97h-327l-271 -575h-119l-94 575h-497l-293 -575h-121l-70 575h-319l16 97h291l-19 157h-245z" />
    <glyph glyph-name="uni20AA" unicode="&#x20aa;" horiz-adv-x="1374" 
d="M754 111q158 0 240 82t114 256l182 1046h121l-182 -1046q-41 -229 -163 -339t-335 -110h-358l209 1194q68 0 90 -30t8 -95l-172 -958h246zM674 1495q414 0 334 -448l-107 -605q-12 -66 -44 -94t-99 -29l129 728q29 174 -23 256t-202 81h-252l-246 -1384h-121l264 1495
h367z" />
    <glyph glyph-name="Euro" unicode="&#x20ac;" 
d="M838 1516q248 0 362 -185l-98 -63q-46 74 -108 108t-163 35q-155 0 -251 -90t-125 -244l-9 -45h580l-33 -96h-563l-68 -377h504l-32 -96h-488q-20 -167 62 -273t259 -106t287 147l88 -69q-134 -182 -374 -182t-352 135t-87 348h-135l15 96h135l67 377h-137l19 96h135
l10 55q35 195 163 312t337 117z" />
    <glyph glyph-name="uni20AE" unicode="&#x20ae;" horiz-adv-x="1228" 
d="M1059 1100l-19 -96l-303 -117l-32 -189l303 117l-17 -96l-303 -117l-104 -602h-121l96 553l-297 -113l17 97l299 112l32 191l-299 -115l17 94l299 115l80 450h-453l18 111h1026l-20 -111h-453l-71 -401z" />
    <glyph glyph-name="uni20B1" unicode="&#x20b1;" horiz-adv-x="1439" 
d="M1174 909q24 68 18 158h-748l-28 -158h758zM797 1389h-297l-39 -226h708q-41 102 -140 164t-232 62zM711 588q143 0 253 60t169 165h-734l-39 -225h351zM707 479h-365l-84 -479h-119l142 813h-162l16 96h164l27 158h-164l18 96h162l59 332h412q176 0 308 -90t175 -242
h197l-16 -96h-166q7 -105 -15 -158h152l-16 -96h-168q-66 -152 -213 -243t-344 -91z" />
    <glyph glyph-name="published" unicode="&#x2117;" horiz-adv-x="1757" 
d="M936 778h-150l-61 -352h182q88 0 146 44q57 44 70 125t-40 132t-147 51zM961 877q131 -1 213 -89t62 -206t-106 -188q-86 -71 -212 -70h-211l-39 -230h-115l139 783h269zM836 -166q248 0 442 166t240 422q33 184 -28 352q-60 168 -211 278t-357 109q-254 0 -450 -167
t-241 -425q-33 -190 31 -358q64 -169 215 -273q152 -104 359 -104zM825 -270q-350 0 -556 252t-146 600q53 296 281 490t522 194q229 0 404 -118t255 -317t39 -425q-51 -295 -279 -486q-229 -190 -520 -190z" />
    <glyph glyph-name="servicemark" unicode="&#x2120;" horiz-adv-x="1388" 
d="M362 893q-129 0 -196 108l80 46q39 -74 119 -74q41 -1 71 23t34 56q5 32 -10 56q-16 24 -34 36q-18 11 -60 36t-66 43t-43 59t-10 96t60 92t125 37q119 0 176 -92l-76 -47q-34 59 -112 59t-92 -67q-6 -39 20 -64t82 -53q47 -27 72 -45t45 -60t11 -103q-8 -61 -62 -101
t-134 -41zM664 901l104 594h90l174 -311l297 311h92l-106 -594h-90l84 451l-293 -297l-185 309l-81 -463h-86z" />
    <glyph glyph-name="trademark" unicode="&#x2122;" horiz-adv-x="1417" 
d="M340 901l90 514h-201l15 80h489l-14 -80h-201l-90 -514h-88zM690 901l105 594h90l174 -309l299 309h90l-107 -594h-88l82 451l-293 -297l-184 307l-82 -461h-86z" />
    <glyph glyph-name="uni2153" unicode="&#x2153;" horiz-adv-x="1701" 
d="M227 1241h-12l21 113h6q78 0 123 43t53 98h102l-133 -764h168l-16 -100h-439l17 100h162l102 586q-19 -33 -63 -55t-91 -21zM1276 -12q-90 0 -159 39t-97 94l96 55q43 -88 166 -88q74 0 123 37t61 107t-33 117q-46 48 -122 48h-74l16 101h70q78 0 132 38q55 38 65 102
t-32 102q-42 40 -122 40t-147 -73l-82 63q94 106 230 106t206 -74q70 -75 49 -179q-23 -129 -149 -183q59 -37 87 -97t13 -134q-43 -221 -297 -221zM135 0l1338 1495h143l-1337 -1495h-144z" />
    <glyph glyph-name="uni2154" unicode="&#x2154;" horiz-adv-x="1808" 
d="M1372 -12q-90 0 -159 39t-97 94l96 55q43 -88 166 -88q74 0 123 37t61 107t-33 117q-46 48 -122 48h-74l17 101h69q78 0 132 38q55 38 65 102t-32 102q-42 40 -122 40t-147 -73l-82 63q95 106 231 106t206 -74q70 -75 48 -179q-23 -129 -149 -183q59 -37 87 -97t13 -134
q-43 -221 -297 -221zM516 1415q-121 0 -186 -100l-88 45q94 147 278 147q123 -1 196 -71t54 -171t-95 -163q-77 -63 -171 -118q-96 -54 -136 -83t-80 -74t-48 -94v-2h434l-17 -100h-548l16 102q18 100 93 171t175 130t120 72q19 14 45 32q74 50 93 95q37 84 -12 133t-123 49
zM248 0l1337 1495h144l-1338 -1495h-143z" />
    <glyph glyph-name="uni2155" unicode="&#x2155;" horiz-adv-x="1746" 
d="M227 1241h-12l21 113h6q78 0 123 43t53 98h102l-133 -764h168l-16 -100h-439l17 100h162l102 586q-19 -33 -63 -55t-91 -21zM135 0l1338 1495h143l-1337 -1495h-144zM1309 -12q-217 0 -273 176l103 45q37 -123 176 -123q78 0 138 47q59 47 75 129t-28 144t-132 61
q-125 0 -199 -113l-90 37l142 473h473l-19 -102h-383l-78 -258q70 59 188 59t188 -92t45 -214q-24 -122 -110 -196q-87 -73 -216 -73z" />
    <glyph glyph-name="uni2156" unicode="&#x2156;" horiz-adv-x="1880" 
d="M516 1415q-121 0 -186 -100l-88 45q94 147 278 147q123 -1 196 -71t54 -171t-95 -163q-77 -63 -171 -118q-96 -54 -136 -83t-80 -74t-48 -94v-2h434l-17 -100h-548l16 102q18 100 93 171t175 130t120 72q19 14 45 32q74 50 93 95q37 84 -12 133t-123 49zM248 0l1337 1495
h144l-1338 -1495h-143zM1438 -12q-217 0 -273 176l103 45q37 -123 176 -123q78 0 138 47t76 129t-29 144q-44 62 -132 61q-125 0 -199 -113l-90 37l142 473h473l-19 -102h-383l-78 -258q70 59 188 59q117 0 187 -92t46 -214t-110 -196q-87 -73 -216 -73z" />
    <glyph glyph-name="uni2157" unicode="&#x2157;" horiz-adv-x="1835" 
d="M352 618q-90 0 -158 39t-98 95l97 55q43 -88 165 -88q74 0 123 37q49 36 61 106t-33 118q-46 48 -122 48h-74l17 100h69q78 0 132 38q55 38 65 102t-32 104t-122 39q-80 0 -147 -74l-82 64q94 106 248 106q119 -1 189 -75t48 -179q-23 -129 -149 -182q59 -37 87 -97
t13 -134q-43 -222 -297 -222zM201 0l1337 1495h143l-1337 -1495h-143zM1391 -12q-217 0 -273 176l103 45q37 -123 176 -123q78 0 138 47q59 47 75 129t-28 144t-132 61q-125 0 -199 -113l-90 37l142 473h473l-19 -102h-383l-78 -258q70 59 188 59t188 -92t45 -214
q-24 -122 -110 -196q-87 -73 -216 -73z" />
    <glyph glyph-name="uni2158" unicode="&#x2158;" horiz-adv-x="1873" 
d="M258 928h283l69 397zM240 0l1337 1495h143l-1337 -1495h-143zM1430 -12q-217 0 -273 176l103 45q37 -123 176 -123q78 0 138 47t76 129t-29 144q-44 62 -132 61q-125 0 -199 -113l-90 37l141 473h474l-19 -102h-383l-78 -258q70 59 188 59q117 0 187 -92t46 -214
t-110 -196q-87 -73 -216 -73zM489 631l35 198h-405l14 99l506 567h106l-100 -567h135l-16 -99h-135l-35 -198h-105z" />
    <glyph glyph-name="uni2159" unicode="&#x2159;" horiz-adv-x="1619" 
d="M1181 86q85 0 144 50t75 134t-37 152q-52 68 -136 68q-85 0 -145 -54q-60 -53 -74 -137q-14 -85 37 -149t136 -64zM227 1241h-12l21 113h6q78 0 123 43t53 98h102l-133 -764h168l-16 -100h-439l17 100h162l102 586q-19 -33 -63 -55t-91 -21zM135 0l1338 1495h143
l-1337 -1495h-144zM1251 582q127 0 201 -98t52 -221q-22 -121 -106 -197q-85 -76 -222 -77t-217 96q-79 97 -56 230q14 82 80 162l326 387h127l-246 -291q41 8 61 9z" />
    <glyph glyph-name="uni215A" unicode="&#x215a;" horiz-adv-x="1716" 
d="M1277 86q85 0 144 50t75 134t-37 152q-52 68 -136 68t-144 -54q-61 -53 -75 -137q-14 -85 37 -149t136 -64zM231 0l1338 1495h143l-1337 -1495h-144zM401 618q-217 0 -272 177l102 45q37 -123 177 -123q78 0 138 47t76 129t-29 143q-44 61 -132 62q-125 0 -199 -113
l-90 37l141 473h473l-18 -102h-383l-78 -258q69 59 187 59t188 -92t46 -214t-111 -196t-216 -74zM1348 582q126 0 200 -98t52 -221q-22 -121 -106 -197q-85 -76 -222 -77t-216 96t-57 230q16 82 80 162l326 387h127l-246 -291q41 8 62 9z" />
    <glyph glyph-name="uni215B" unicode="&#x215b;" horiz-adv-x="1720" 
d="M1364 506q63 0 112 37q48 37 58 94t-28 99t-104 42t-110 -34t-56 -93q-11 -59 27 -102t101 -43zM1292 88q80 0 130 42t62 110t-32 116q-45 48 -120 50q-75 0 -130 -42t-65 -110q-9 -68 33 -117t122 -49zM227 1241h-12l21 113h6q78 0 123 43t53 98h102l-133 -764h168
l-16 -100h-439l17 100h162l102 586q-19 -33 -63 -55t-91 -21zM135 0l1338 1495h143l-1337 -1495h-144zM1284 -12q-125 0 -197 79t-51 195q23 139 162 207q-84 74 -63 199q16 90 92 149q75 59 183 59t174 -74q66 -75 50 -173q-27 -133 -137 -183q113 -80 88 -223
q-18 -103 -97 -169t-204 -66z" />
    <glyph glyph-name="uni215C" unicode="&#x215c;" horiz-adv-x="1787" 
d="M1430 506q63 0 111 37t58 94t-27 99q-38 42 -104 42t-111 -34q-44 -34 -57 -89q-10 -63 28 -106t102 -43zM1358 88q80 0 130 42t62 110t-32 116t-120 50q-75 0 -130 -42q-56 -42 -66 -110t33 -117t123 -49zM381 618q-90 0 -159 39t-97 95l96 55q43 -88 166 -88
q74 0 123 37q49 36 61 106t-33 118q-46 48 -122 48h-74l16 100h70q78 0 132 38t64 102t-31 104q-42 40 -122 39q-80 0 -147 -74l-82 64q94 106 247 106q119 -1 189 -75t49 -179q-23 -129 -149 -182q59 -37 87 -97t13 -134q-43 -222 -297 -222zM201 0l1337 1495h143
l-1337 -1495h-143zM1350 -12q-125 0 -197 79t-51 195q23 139 162 207q-84 74 -64 199q16 90 92 149t184 59t174 -74q66 -75 50 -173q-27 -133 -137 -183q113 -80 88 -223q-18 -103 -97 -169t-204 -66z" />
    <glyph glyph-name="uni215D" unicode="&#x215d;" horiz-adv-x="1792" 
d="M1450 506q63 0 112 37q48 37 58 94t-28 99t-104 42t-110 -34t-56 -93q-11 -59 27 -102t101 -43zM1378 88q80 0 130 42t62 110t-32 116q-45 48 -120 50q-75 0 -130 -42t-65 -110q-9 -68 33 -117t122 -49zM223 0l1338 1495h143l-1337 -1495h-144zM401 618q-217 0 -272 177
l102 45q37 -123 177 -123q78 0 138 47t76 129t-29 143q-44 61 -132 62q-125 0 -199 -113l-90 37l141 473h473l-18 -102h-383l-78 -258q69 59 187 59t188 -92t46 -214t-111 -196t-216 -74zM1370 -12q-124 0 -196 79t-52 195q23 139 162 207q-84 74 -63 199q16 90 92 149
q75 59 183 59t174 -74q66 -75 50 -173q-27 -133 -137 -183q113 -80 88 -223q-18 -103 -97 -169t-204 -66z" />
    <glyph glyph-name="uni215E" unicode="&#x215e;" horiz-adv-x="1566" 
d="M1219 506q63 0 111 37t58 94t-27 99q-39 42 -105 42t-110 -34t-55 -93t27 -102t101 -43zM1147 88q80 0 130 42t62 110q11 68 -33 116t-119 50q-75 0 -130 -42t-65 -110t32 -117q43 -49 123 -49zM193 631l469 764h-431l17 100h547l-17 -92l-465 -772h-120zM-10 0
l1337 1495h143l-1337 -1495h-143zM1139 -12q-125 0 -197 79t-51 195q23 139 162 207q-84 74 -64 199q16 90 92 149t184 59q109 0 175 -74q66 -75 49 -173q-27 -133 -137 -183q113 -80 88 -223q-18 -103 -97 -169t-204 -66z" />
    <glyph glyph-name="uni215F" unicode="&#x215f;" horiz-adv-x="1511" 
d="M227 1241h-12l21 113h6q78 0 123 43t53 98h102l-133 -764h168l-16 -100h-439l17 100h162l102 586q-19 -33 -63 -55t-91 -21zM135 0l1338 1495h143l-1337 -1495h-144z" />
    <glyph glyph-name="arrowleft" unicode="&#x2190;" horiz-adv-x="1835" 
d="M1733 807v-113h-1409q96 -62 194 -164t150 -206l-99 -64q-61 135 -183 263t-245 192v71q123 64 245 192t183 263l99 -61q-50 -104 -148 -208t-192 -165h1405z" />
    <glyph glyph-name="arrowup" unicode="&#x2191;" horiz-adv-x="1835" 
d="M911 0v1372q-61 -94 -163 -189t-205 -145l-62 99q133 59 261 182t194 244h72q63 -123 192 -245t262 -181l-63 -99q-103 48 -205 144t-164 190v-1372h-119z" />
    <glyph glyph-name="arrowright" unicode="&#x2192;" horiz-adv-x="1835" 
d="M150 694v113h1404q-96 61 -193 163t-147 208l101 63q59 -133 181 -262t245 -195v-69q-123 -63 -246 -193t-184 -262l-97 62q48 104 146 206t194 166h-1404z" />
    <glyph glyph-name="arrowdown" unicode="&#x2193;" horiz-adv-x="1835" 
d="M866 1495h117v-1380q59 94 163 192t208 150l63 -99q-133 -59 -261 -182t-193 -244h-72q-63 123 -193 245t-262 181l62 99q100 -49 202 -145t166 -189v1372z" />
    <glyph glyph-name="uni2196" unicode="&#x2196;" horiz-adv-x="1835" 
d="M344 682q51 137 55 317t-37 306l52 51q127 -41 306 -37t316 55l27 -112q-111 -39 -263 -42t-245 21l997 -995l-79 -80l-994 989q25 -95 20 -243t-42 -257z" />
    <glyph glyph-name="uni2197" unicode="&#x2197;" horiz-adv-x="1835" 
d="M428 164l-80 82l993 991q-93 -25 -243 -19t-258 42l26 112q136 -51 316 -54t305 38l53 -51q-43 -129 -38 -309t57 -316l-113 -25q-39 109 -43 259t20 245z" />
    <glyph glyph-name="uni2198" unicode="&#x2198;" horiz-adv-x="1835" 
d="M1481 178q-127 41 -307 37t-318 -55l-25 112q109 37 260 41t244 -18l-995 995l82 78l991 -993q-25 97 -19 245t42 259l112 -27q-51 -137 -54 -317t38 -306z" />
    <glyph glyph-name="uni2199" unicode="&#x2199;" horiz-adv-x="1835" 
d="M1036 162q-137 51 -317 54t-305 -38l-52 51q41 127 37 307t-55 318l113 25q37 -111 41 -263t-21 -243l996 997l79 -82l-993 -993q97 25 245 21t259 -42z" />
    <glyph glyph-name="partialdiff" unicode="&#x2202;" horiz-adv-x="1277" 
d="M608 84q154 0 279 105t153 264q37 184 -68 330t-304 147q-158 0 -283 -104t-158 -278q-33 -176 75 -320t306 -144zM588 -20q-226 0 -369 166t-111 392t189 360q158 134 360 134q242 0 361 -190q-113 322 -522 653h174q286 -252 410 -522t77 -527q-39 -210 -191 -338
t-378 -128z" />
    <glyph glyph-name="increment" unicode="&#x2206;" horiz-adv-x="1837" 
d="M1063 1282l-875 -1169h1346zM1704 0h-1745l1133 1520z" />
    <glyph glyph-name="product" unicode="&#x220f;" horiz-adv-x="1572" 
d="M240 1384l20 111h1395l-21 -111h-301l-243 -1384h-119l241 1384h-546l-244 -1384h-119l242 1384h-305z" />
    <glyph glyph-name="summation" unicode="&#x2211;" horiz-adv-x="1177" 
d="M2 0l12 100l652 680l-402 617l21 98h968l-18 -111h-832l400 -620l-627 -653h854l-20 -111h-1008z" />
    <glyph glyph-name="minus" unicode="&#x2212;" horiz-adv-x="948" 
d="M115 698l16 103h758l-17 -103h-757z" />
    <glyph glyph-name="radical" unicode="&#x221a;" horiz-adv-x="1646" 
d="M612 0l-301 911h-172l2 113h254l291 -877l830 1352h139l-926 -1499h-117z" />
    <glyph glyph-name="infinity" unicode="&#x221e;" horiz-adv-x="1925" 
d="M1435 582q81 0 142 62t59 144q0 82 -60 144t-140 61q-80 0 -161 -52t-198 -155q115 -100 196 -152t162 -52zM559 580q80 0 163 52t196 152q-113 100 -196 152t-163 53q-80 0 -142 -61q-63 -62 -63 -144t62 -143t143 -61zM546 475q-116 0 -208 91t-92 220q0 128 92 220
t208 92t218 -62t233 -176q129 115 231 176q102 62 218 62q117 0 209 -91t92 -221t-92 -220q-91 -91 -209 -91q-118 1 -220 63t-231 175q-125 -113 -229 -175t-220 -63z" />
    <glyph glyph-name="integral" unicode="&#x222b;" horiz-adv-x="714" 
d="M-102 -252q125 0 177 48t77 186l198 1142q39 227 119 299t283 72h34l-20 -109h-25q-139 0 -191 -47t-83 -217l-201 -1140q-36 -201 -112 -273t-246 -71h-53l18 110h25z" />
    <glyph glyph-name="approxequal" unicode="&#x2248;" horiz-adv-x="950" 
d="M678 594q70 0 186 47l-20 -104q-92 -47 -176 -47t-208 37q-124 38 -188 38t-190 -55l18 104q128 56 196 56t190 -38t192 -38zM734 932q66 0 192 51l-21 -104q-98 -51 -181 -51t-202 38q-118 39 -188 39t-191 -53l19 104q120 54 196 54t193 -39t183 -39z" />
    <glyph glyph-name="notequal" unicode="&#x2260;" horiz-adv-x="948" 
d="M143 858l19 103h411l78 137h90l-75 -137h254l-19 -103h-293l-127 -229h379l-18 -101h-416l-80 -143h-94l80 143h-248l18 101h285l129 229h-373z" />
    <glyph glyph-name="equivalence" unicode="&#x2261;" horiz-adv-x="948" 
d="M172 1022l18 102h758l-18 -102h-758zM55 365l19 100h757l-18 -100h-758zM113 694l18 103h758l-19 -103h-757z" />
    <glyph glyph-name="lessequal" unicode="&#x2264;" horiz-adv-x="948" 
d="M55 358l19 103h757l-18 -103h-758zM846 559l-703 297l19 102l807 289l-21 -108l-674 -234l592 -241z" />
    <glyph glyph-name="greaterequal" unicode="&#x2265;" horiz-adv-x="948" 
d="M55 358l19 103h757l-18 -103h-758zM90 559l21 111l671 233l-589 242l20 102l702 -297l-18 -100z" />
    <glyph glyph-name="squaremultiply" unicode="&#x22a0;" horiz-adv-x="1896" 
d="M641 315l-70 72l349 363l-347 358l70 70l346 -359l342 359l70 -72l-344 -356l346 -357l-70 -69l-344 354zM360 1382v-1269h1250v1269h-1250zM242 0v1495h1487v-1495h-1487z" />
    <glyph glyph-name="house" unicode="&#x2302;" horiz-adv-x="1789" 
d="M1585 0h-1380v874l690 662l690 -662v-874z" />
    <glyph glyph-name="blacksquare" unicode="&#x25a0;" horiz-adv-x="1896" 
d="M242 0v1495h1487v-1495h-1487z" />
    <glyph glyph-name="blacksquare" unicode="&#xe740;" horiz-adv-x="1896" 
d="M242 0v1495h1487v-1495h-1487z" />
    <glyph glyph-name="whitesquare" unicode="&#x25a1;" horiz-adv-x="1896" 
d="M360 1382v-1269h1250v1269h-1250zM242 0v1495h1487v-1495h-1487z" />
    <glyph glyph-name="blacksmallsquare" unicode="&#x25aa;" horiz-adv-x="1433" 
d="M205 0v1024h1024v-1024h-1024z" />
    <glyph glyph-name="whitesmallsquare" unicode="&#x25ab;" horiz-adv-x="1433" 
d="M324 911v-798h786v798h-786zM205 0v1024h1024v-1024h-1024z" />
    <glyph glyph-name="triagup" unicode="&#x25b2;" horiz-adv-x="1837" 
d="M1735 0h-1755l878 1520z" />
    <glyph glyph-name="triagrt" unicode="&#x25ba;" horiz-adv-x="1837" 
d="M281 -117v1755l1519 -876z" />
    <glyph glyph-name="triagdn" unicode="&#x25bc;" horiz-adv-x="1837" 
d="M190 1495h1756l-877 -1520z" />
    <glyph glyph-name="triaglf" unicode="&#x25c4;" horiz-adv-x="1837" 
d="M1647 1638v-1755l-1520 879z" />
    <glyph glyph-name="lozenge" unicode="&#x25ca;" horiz-adv-x="1726" 
d="M274 764l527 -633l719 602l-527 635zM788 -33l-671 807l889 754l671 -807z" />
    <glyph glyph-name="whitecircle" unicode="&#x25cb;" horiz-adv-x="1898" 
d="M985 92q273 0 459 192t186 464t-186 463t-458 191t-460 -190q-188 -192 -188 -464t188 -464t459 -192zM985 -20q-317 0 -543 225q-225 225 -225 543t225 542q224 226 542 226t544 -226t225 -542q0 -317 -225 -543q-226 -225 -543 -225z" />
    <glyph glyph-name="whitecircle" unicode="&#x25ef;" horiz-adv-x="1898" 
d="M985 92q273 0 459 192t186 464t-186 463t-458 191t-460 -190q-188 -192 -188 -464t188 -464t459 -192zM985 -20q-317 0 -543 225q-225 225 -225 543t225 542q224 226 542 226t544 -226t225 -542q0 -317 -225 -543q-226 -225 -543 -225z" />
    <glyph glyph-name="bullseye" unicode="&#x25ce;" horiz-adv-x="1898" 
d="M881 748q-1 46 31 78t78 32t78 -32t32 -78t-32 -77q-32 -32 -79 -32t-78 31q-30 31 -30 78zM989 418q135 0 230 95q94 95 94 232t-94 233q-93 96 -229 95q-136 0 -228 -94q-92 -93 -92 -233t92 -234t227 -94zM989 307q-182 0 -309 127t-127 311q0 183 127 311t309 128
t310 -127t128 -311t-128 -312q-128 -127 -310 -127zM989 92q271 0 459 192t188 464t-187 463t-459 191t-460 -190q-188 -192 -188 -464t188 -464t459 -192zM989 -20q-317 0 -543 225q-225 225 -225 543t225 542q224 226 542 226t544 -226t225 -542q0 -317 -225 -543
q-226 -225 -543 -225z" />
    <glyph glyph-name="blackcircle" unicode="&#x25cf;" horiz-adv-x="1898" 
d="M985 -20q-317 0 -543 225q-225 225 -225 543t225 542q224 226 542 226t544 -226t225 -542q0 -317 -225 -543q-226 -225 -543 -225z" />
    <glyph glyph-name="uni25E2" unicode="&#x25e2;" horiz-adv-x="1837" 
d="M1876 1092l-1241 -1242l-455 1696z" />
    <glyph glyph-name="uni25E3" unicode="&#x25e3;" horiz-adv-x="1837" 
d="M1399 -150l-1241 1242l1695 454z" />
    <glyph glyph-name="uni25E4" unicode="&#x25e4;" horiz-adv-x="1837" 
d="M1714 -111l-1696 455l1242 1241z" />
    <glyph glyph-name="uni25E5" unicode="&#x25e5;" horiz-adv-x="1837" 
d="M1772 334l-1696 -453l456 1696z" />
    <glyph glyph-name="uni2605" unicode="&#x2605;" horiz-adv-x="1843" 
d="M1186 621l147 -447l-383 277l-381 -277l148 449l-381 276l469 -2l147 446l146 -446l471 -2z" />
    <glyph glyph-name="ballotboxwithx" unicode="&#x2612;" horiz-adv-x="1433" 
d="M504 221l-70 70l211 217l-217 213l70 70l215 -213l213 219l69 -70l-211 -217l217 -213l-69 -72l-217 213zM324 911v-798h786v798h-786zM205 0v1024h1024v-1024h-1024z" />
    <glyph glyph-name="uni263C" unicode="&#x263c;" horiz-adv-x="1900" 
d="M616 516l-231 -176l-61 94l272 115zM1346 983l231 176l61 -94l-272 -115zM780 365l-112 -273l-97 58l179 235zM1182 1135l112 272l97 -57l-179 -236zM1212 385l179 -235l-97 -58l-112 273zM750 1114l-179 236l97 57l112 -272zM1366 549l272 -113l-57 -96l-235 178z
M596 950l-272 113l57 96l235 -178zM1413 770l291 35v-111l-291 35v41zM549 729l-291 -35v111l291 -35v-41zM1001 317l35 -290h-110l35 290h40zM961 1182l-35 291h110l-35 -291h-40zM625 748q0 145 105 250q104 106 250 106t252 -106t105 -250q0 -144 -105 -250
q-104 -106 -250 -106t-252 105q-105 106 -105 251z" />
    <glyph glyph-name="uni263E" unicode="&#x263e;" horiz-adv-x="1611" 
d="M1130 1262q-203 0 -346 -151t-143 -363t143 -364q143 -151 346 -151q66 0 146 25q-166 -117 -365 -117q-250 0 -428 178q-178 179 -178 429t178 428t428 178q199 0 365 -117q-95 25 -146 25z" />
    <glyph glyph-name="spade" unicode="&#x2660;" horiz-adv-x="1884" 
d="M1233 0h-531q55 102 81 154t69 190q43 137 43 250q-43 -121 -131 -200t-224 -79q-136 1 -240 97t-103 227q0 168 106 307t375 354l287 230h2l286 -230q263 -211 365 -350t102 -311q0 -131 -94 -226t-231 -95t-231 78q-93 79 -136 198q0 -225 167 -525q38 -67 38 -69z" />
    <glyph glyph-name="club" unicode="&#x2663;" horiz-adv-x="1884" 
d="M539 266q-150 0 -256 106t-107 257q0 150 106 256t257 106q39 0 86 -14q-39 84 -39 178q0 150 104 255q104 106 254 106t255 -106t106 -255q0 -92 -39 -180q45 16 94 16q150 0 255 -105t105 -256t-106 -257q-106 -107 -238 -107t-221 66q-88 66 -131 174q16 -138 78 -266
q61 -128 90 -180t33 -60h-531q164 307 187 508q-45 -110 -137 -176t-205 -66z" />
    <glyph glyph-name="heart" unicode="&#x2665;" horiz-adv-x="1884" 
d="M276 1118q0 168 109 283t265 115t259 -94q104 -94 121 -236q18 143 122 236q104 94 259 94q157 0 271 -116t114 -282t-108 -354t-367 -477l-291 -322l-289 322q-256 285 -360 474q-105 189 -105 357z" />
    <glyph glyph-name="diamond" unicode="&#x2666;" horiz-adv-x="1884" 
d="M326 799l669 821l670 -821l-670 -819z" />
    <glyph glyph-name="uni267B" unicode="&#x267b;" horiz-adv-x="1886" 
d="M1608 1006l133 -226q18 -29 18 -84q1 -92 -73 -167t-142 -74l-223 387zM915 72h-260q-47 0 -86 24q-81 48 -109 152t9 155h446v-331zM440 1143l129 229q23 37 66 60q88 45 186 18t131 -86l-223 -387zM834 1493h372q45 -2 69 -5q25 -4 55 -24t52 -61l54 -94l84 47
l-119 -322l-332 62l78 45l-137 241q-27 45 -71 72t-75 33l-30 4v2zM414 227h-4l-185 324q-20 39 -28 61q-24 64 20 136l55 94l-82 47l336 59l113 -319l-78 47q-135 -231 -139 -242q-25 -43 -27 -95t8 -81zM1366 72h-111v-97l-217 263l217 260v-95h279q51 0 97 26t67 50
l20 25l2 -4l-186 -322q-27 -39 -40 -56q-13 -18 -47 -34t-81 -16z" />
    <glyph glyph-name="uni267C" unicode="&#x267c;" horiz-adv-x="1886" 
d="M1188 492v71l-170 -201l170 -202v73h84q53 -1 80 19t51 63l145 250l-2 2q-53 -76 -143 -75h-215zM1563 784l-101 174l-225 -129l174 -301q53 0 111 58t57 133q0 36 -16 65zM532 354h3q-37 84 6 162l108 186l62 -36l-88 247l-261 -45l64 -37l-43 -73q-19 -31 -21 -61
t4 -44t23 -49zM715 233h203v259h-349q-29 -41 -6 -122t86 -118q33 -19 66 -19zM852 1335v-2q94 -8 137 -84l109 -186l-62 -37l258 -47l90 250l-63 -37l-43 74q-27 45 -56 57q-30 12 -81 12h-289zM657 1241l-100 -176l223 -129l172 299q-26 47 -102 67t-143 -14
q-40 -24 -50 -47zM1749 750q0 -320 -225 -544t-545 -224t-545 224t-225 544t225 545q224 227 544 227t546 -226t225 -546z" />
    <glyph glyph-name="uni267D" unicode="&#x267d;" horiz-adv-x="1886" 
d="M1184 233v-73l-170 202l170 201v-71h215q41 0 77 18t52 39l14 18l2 -2l-145 -250q-17 -29 -29 -43q-33 -37 -102 -39h-84zM1458 958l101 -174q16 -29 16 -65q2 -74 -56 -132t-112 -59l-174 301zM530 354h-2l-143 250q-16 35 -23 49q-6 14 -4 44t21 61l43 73l-64 37
l260 45l89 -247l-62 36l-108 -186q-19 -35 -21 -75t6 -64zM913 233h-202q-31 0 -66 19q-63 37 -86 118t6 122h348v-259zM848 1335h289q51 0 81 -12t56 -57l43 -74l63 37l-90 -250l-258 47l62 37l-109 186q-18 33 -53 55t-60 25l-24 4v2zM553 1065l100 176q10 23 49 47
q68 35 145 15t101 -68l-172 -299zM242 751q0 -305 215 -519t519 -214t517 214t213 519q0 304 -213 518t-517 214t-519 -214t-215 -518zM1745 750q0 -320 -225 -544t-545 -224t-545 224t-225 544t225 545q224 227 544 227t546 -226t225 -546z" />
    <glyph glyph-name="mediumwhitecircle" unicode="&#x26aa;" horiz-adv-x="1429" 
d="M715 86q174 0 294 125t119 301q0 176 -119 301q-120 125 -294 125t-294 -125t-120 -301t120 -301t294 -125zM715 -20q-221 0 -376 154t-155 378q0 223 155 378q155 154 376 154t377 -154t156 -378q0 -223 -156 -378q-156 -154 -377 -154z" />
    <glyph glyph-name="mediumblackcircle" unicode="&#x26ab;" horiz-adv-x="1429" 
d="M715 -20q-221 0 -376 156t-155 376q0 221 155 377q155 155 376 155t376 -156t155 -376q0 -221 -155 -377q-155 -155 -376 -155z" />
    <glyph glyph-name="anglebracketleft" unicode="&#x3008;" horiz-adv-x="800" 
d="M371 -471l-250 999l596 967h133l-606 -989l245 -977h-118z" />
    <glyph glyph-name="anglebracketright" unicode="&#x3009;" horiz-adv-x="800" 
d="M-61 -471l604 985l-244 981h117l252 -999l-596 -967h-133z" />
    <glyph glyph-name="cordinal" unicode="&#xe181;" horiz-adv-x="815" 
d="M506 891q-139 0 -220 100q-81 101 -59 231q23 130 115 208t200 78t178 -48q71 -47 101 -125l-86 -39q-47 127 -188 127q-84 0 -151 -57t-82 -150t40 -166t158 -73q135 0 203 125l78 -41q-41 -78 -117 -124t-170 -46z" />
    <glyph glyph-name="p.smcp" unicode="&#xe200;" horiz-adv-x="1058" 
d="M588 1114h-219l-111 -620h260q150 0 248 80t122 217q24 135 -63 229t-237 94zM602 1221q194 0 314 -127q120 -126 87 -312t-163 -292q-131 -105 -328 -105h-272l-68 -385h-115l213 1221h332z" />
    <glyph glyph-name="p.smcp" unicode="&#xf770;" horiz-adv-x="1058" 
d="M588 1114h-219l-111 -620h260q150 0 248 80t122 217q24 135 -63 229t-237 94zM602 1221q194 0 314 -127q120 -126 87 -312t-163 -292q-131 -105 -328 -105h-272l-68 -385h-115l213 1221h332z" />
    <glyph glyph-name="a.smcp" unicode="&#xe201;" horiz-adv-x="1171" 
d="M692 1067l-356 -641h479zM-25 0l680 1221h119l242 -1221h-117l-61 315h-564l-174 -315h-125z" />
    <glyph glyph-name="a.smcp" unicode="&#xf761;" horiz-adv-x="1171" 
d="M692 1067l-356 -641h479zM-25 0l680 1221h119l242 -1221h-117l-61 315h-564l-174 -315h-125z" />
    <glyph glyph-name="b.smcp" unicode="&#xe202;" horiz-adv-x="1112" 
d="M696 1114h-325l-78 -436h369q104 0 175 61t81 155t-52 156q-62 64 -170 64zM635 573h-361l-81 -464h382q109 0 187 59q78 58 96 160t-46 174t-177 71zM709 1221q157 -1 249 -99t72 -237q-10 -88 -63 -160t-140 -111q84 -43 126 -124q43 -82 21 -202t-134 -204t-275 -84
h-508l215 1221h437z" />
    <glyph glyph-name="b.smcp" unicode="&#xf762;" horiz-adv-x="1112" 
d="M696 1114h-325l-78 -436h369q104 0 175 61t81 155t-52 156q-62 64 -170 64zM635 573h-361l-81 -464h382q109 0 187 59q78 58 96 160t-46 174t-177 71zM709 1221q157 -1 249 -99t72 -237q-10 -88 -63 -160t-140 -111q84 -43 126 -124q43 -82 21 -202t-134 -204t-275 -84
h-508l215 1221h437z" />
    <glyph glyph-name="c.smcp" unicode="&#xe203;" horiz-adv-x="1351" 
d="M678 -18q-291 0 -451 206t-108 488q39 242 233 404t445 161q176 0 314 -87t206 -232l-115 -54q-113 264 -420 265q-196 1 -354 -135t-194 -348t90 -384q127 -172 366 -172q137 0 256 69t191 189l108 -53q-89 -149 -235 -233t-332 -84z" />
    <glyph glyph-name="c.smcp" unicode="&#xf763;" horiz-adv-x="1351" 
d="M678 -18q-291 0 -451 206t-108 488q39 242 233 404t445 161q176 0 314 -87t206 -232l-115 -54q-113 264 -420 265q-196 1 -354 -135t-194 -348t90 -384q127 -172 366 -172q137 0 256 69t191 189l108 -53q-89 -149 -235 -233t-332 -84z" />
    <glyph glyph-name="d.smcp" unicode="&#xe204;" horiz-adv-x="1222" 
d="M575 1112h-206l-179 -1003h281q199 0 351 131t192 338q36 222 -90 378t-349 156zM457 0h-400l215 1221h318q268 -2 427 -195t113 -452q-46 -258 -231 -416q-186 -158 -442 -158z" />
    <glyph glyph-name="d.smcp" unicode="&#xf764;" horiz-adv-x="1222" 
d="M575 1112h-206l-179 -1003h281q199 0 351 131t192 338q36 222 -90 378t-349 156zM457 0h-400l215 1221h318q268 -2 427 -195t113 -452q-46 -258 -231 -416q-186 -158 -442 -158z" />
    <glyph glyph-name="e.smcp" unicode="&#xe205;" horiz-adv-x="1007" 
d="M57 0l215 1221h746l-21 -111h-628l-78 -438h631l-21 -111h-629l-79 -448h628l-18 -113h-746z" />
    <glyph glyph-name="e.smcp" unicode="&#xf765;" horiz-adv-x="1007" 
d="M57 0l215 1221h746l-21 -111h-628l-78 -438h631l-21 -111h-629l-79 -448h628l-18 -113h-746z" />
    <glyph glyph-name="f.smcp" unicode="&#xe206;" horiz-adv-x="942" 
d="M57 0l215 1221h691l-19 -111h-575l-78 -444h575l-20 -111h-576l-96 -555h-117z" />
    <glyph glyph-name="f.smcp" unicode="&#xf766;" horiz-adv-x="942" 
d="M57 0l215 1221h691l-19 -111h-575l-78 -444h575l-20 -111h-576l-96 -555h-117z" />
    <glyph glyph-name="g.smcp" unicode="&#xe207;" horiz-adv-x="1456" 
d="M696 -20q-276 0 -445 208t-120 492q43 242 230 402t432 159q176 0 311 -83t211 -220l-111 -57q-131 250 -420 249q-200 0 -352 -133t-188 -347t97 -388q134 -172 376 -172q197 0 338 124t182 314h-526l22 111h645l-10 -64q-37 -259 -217 -427q-179 -168 -455 -168z" />
    <glyph glyph-name="g.smcp" unicode="&#xf767;" horiz-adv-x="1456" 
d="M696 -20q-276 0 -445 208t-120 492q43 242 230 402t432 159q176 0 311 -83t211 -220l-111 -57q-131 250 -420 249q-200 0 -352 -133t-188 -347t97 -388q134 -172 376 -172q197 0 338 124t182 314h-526l22 111h645l-10 -64q-37 -259 -217 -427q-179 -168 -455 -168z" />
    <glyph glyph-name="h.smcp" unicode="&#xe208;" horiz-adv-x="1150" 
d="M57 0l215 1221h117l-98 -555h620l99 555h116l-215 -1221h-114l96 553h-623l-96 -553h-117z" />
    <glyph glyph-name="h.smcp" unicode="&#xf768;" horiz-adv-x="1150" 
d="M57 0l215 1221h117l-98 -555h620l99 555h116l-215 -1221h-114l96 553h-623l-96 -553h-117z" />
    <glyph glyph-name="i.smcp" unicode="&#xe209;" horiz-adv-x="432" 
d="M68 0l215 1221h114l-213 -1221h-116z" />
    <glyph glyph-name="i.smcp" unicode="&#xf769;" horiz-adv-x="432" 
d="M68 0l215 1221h114l-213 -1221h-116z" />
    <glyph glyph-name="j.smcp" unicode="&#xe20a;" horiz-adv-x="845" 
d="M328 -18q-136 0 -216 61t-110 164l113 37q49 -154 204 -154q95 0 155 64t79 163l158 904h118l-163 -922q-26 -147 -114 -232t-224 -85z" />
    <glyph glyph-name="j.smcp" unicode="&#xf76a;" horiz-adv-x="845" 
d="M328 -18q-136 0 -216 61t-110 164l113 37q49 -154 204 -154q95 0 155 64t79 163l158 904h118l-163 -922q-26 -147 -114 -232t-224 -85z" />
    <glyph glyph-name="k.smcp" unicode="&#xe20b;" horiz-adv-x="1134" 
d="M852 0l-315 655l-297 -278l-66 -377h-115l213 1221h117l-121 -680l725 680h156l-522 -490l350 -731h-125z" />
    <glyph glyph-name="k.smcp" unicode="&#xf76b;" horiz-adv-x="1134" 
d="M852 0l-315 655l-297 -278l-66 -377h-115l213 1221h117l-121 -680l725 680h156l-522 -490l350 -731h-125z" />
    <glyph glyph-name="l.smcp" unicode="&#xe20c;" horiz-adv-x="923" 
d="M57 0l215 1221h117l-196 -1108h561l-19 -113h-678z" />
    <glyph glyph-name="l.smcp" unicode="&#xf76c;" horiz-adv-x="923" 
d="M57 0l215 1221h117l-196 -1108h561l-19 -113h-678z" />
    <glyph glyph-name="m.smcp" unicode="&#xe20d;" horiz-adv-x="1490" 
d="M57 0l215 1221h105l364 -654l623 654h104l-215 -1221h-116l178 1014l-596 -629l-363 647l-182 -1032h-117z" />
    <glyph glyph-name="m.smcp" unicode="&#xf76d;" horiz-adv-x="1490" 
d="M57 0l215 1221h105l364 -654l623 654h104l-215 -1221h-116l178 1014l-596 -629l-363 647l-182 -1032h-117z" />
    <glyph glyph-name="n.smcp" unicode="&#xe20e;" horiz-adv-x="1243" 
d="M57 0l215 1221h125l527 -1028l180 1028h117l-215 -1221h-115l-535 1040l-182 -1040h-117z" />
    <glyph glyph-name="n.smcp" unicode="&#xf76e;" horiz-adv-x="1243" 
d="M57 0l215 1221h125l527 -1028l180 1028h117l-215 -1221h-115l-535 1040l-182 -1040h-117z" />
    <glyph glyph-name="o.smcp" unicode="&#xe20f;" horiz-adv-x="1462" 
d="M715 90q193 0 347 132t187 329q41 223 -91 401t-374 178q-196 0 -350 -132t-188 -330q-41 -236 95 -407t374 -171zM705 -20q-287 0 -455 208t-119 492q43 244 231 402t429 159q195 0 339 -103q144 -104 204 -266q62 -162 30 -337q-43 -243 -228 -399t-431 -156z" />
    <glyph glyph-name="o.smcp" unicode="&#xf76f;" horiz-adv-x="1462" 
d="M715 90q193 0 347 132t187 329q41 223 -91 401t-374 178q-196 0 -350 -132t-188 -330q-41 -236 95 -407t374 -171zM705 -20q-287 0 -455 208t-119 492q43 244 231 402t429 159q195 0 339 -103q144 -104 204 -266q62 -162 30 -337q-43 -243 -228 -399t-431 -156z" />
    <glyph glyph-name="q.smcp" unicode="&#xe211;" horiz-adv-x="1460" 
d="M705 -20q-287 0 -455 208t-117 492q43 244 231 402t427 159q195 0 339 -103q144 -104 204 -266t28 -337q-39 -225 -221 -388q51 -35 125 -34h32l-20 -113h-31q-140 0 -213 87t-137 187q-27 41 -70 69t-94 28h-33l21 112h33q63 -1 114 -29t75 -54t66 -92t54 -81
q152 135 184 324q27 143 -19 275t-164 218t-296 86t-334 -132q-154 -132 -188 -330q-39 -236 96 -407t373 -171q106 0 200 41q39 -59 72 -88q-132 -63 -282 -63z" />
    <glyph glyph-name="q.smcp" unicode="&#xf771;" horiz-adv-x="1460" 
d="M705 -20q-287 0 -455 208t-117 492q43 244 231 402t427 159q195 0 339 -103q144 -104 204 -266t28 -337q-39 -225 -221 -388q51 -35 125 -34h32l-20 -113h-31q-140 0 -213 87t-137 187q-27 41 -70 69t-94 28h-33l21 112h33q63 -1 114 -29t75 -54t66 -92t54 -81
q152 135 184 324q27 143 -19 275t-164 218t-296 86t-334 -132q-154 -132 -188 -330q-39 -236 96 -407t373 -171q106 0 200 41q39 -59 72 -88q-132 -63 -282 -63z" />
    <glyph glyph-name="r.smcp" unicode="&#xe212;" horiz-adv-x="1062" 
d="M625 1221q186 0 297 -123t79 -301q-27 -143 -140 -240q-114 -96 -288 -96q17 -147 101 -249t205 -101h24l-20 -111h-25q-131 0 -227 86t-141 212q-44 126 -39 265h106q137 0 221 71q84 70 106 188t-58 203t-220 89h-237l-195 -1114h-117l215 1221h353z" />
    <glyph glyph-name="r.smcp" unicode="&#xf772;" horiz-adv-x="1062" 
d="M625 1221q186 0 297 -123t79 -301q-27 -143 -140 -240q-114 -96 -288 -96q17 -147 101 -249t205 -101h24l-20 -111h-25q-131 0 -227 86t-141 212q-44 126 -39 265h106q137 0 221 71q84 70 106 188t-58 203t-220 89h-237l-195 -1114h-117l215 1221h353z" />
    <glyph glyph-name="s.smcp" unicode="&#xe213;" horiz-adv-x="950" 
d="M422 -18q-150 0 -252 61q-104 61 -164 158l109 71q102 -182 301 -182q108 0 184 57t93 155t-47 163q-66 63 -168 111t-144 76q-129 82 -158 176q-18 60 -6 137q23 123 126 199q104 76 238 75q259 0 377 -190l-100 -66q-88 147 -272 147q-102 0 -168 -49t-78 -115t3 -106
q15 -41 61 -77t76 -52q31 -16 99 -50q68 -33 112 -61q132 -83 163 -189q18 -65 4 -146q-25 -135 -132 -219t-257 -84z" />
    <glyph glyph-name="s.smcp" unicode="&#xf773;" horiz-adv-x="950" 
d="M422 -18q-150 0 -252 61q-104 61 -164 158l109 71q102 -182 301 -182q108 0 184 57t93 155t-47 163q-66 63 -168 111t-144 76q-129 82 -158 176q-18 60 -6 137q23 123 126 199q104 76 238 75q259 0 377 -190l-100 -66q-88 147 -272 147q-102 0 -168 -49t-78 -115t3 -106
q15 -41 61 -77t76 -52q31 -16 99 -50q68 -33 112 -61q132 -83 163 -189q18 -65 4 -146q-25 -135 -132 -219t-257 -84z" />
    <glyph glyph-name="t.smcp" unicode="&#xe214;" horiz-adv-x="1017" 
d="M199 1110l18 111h832l-19 -111h-356l-195 -1110h-119l195 1110h-356z" />
    <glyph glyph-name="t.smcp" unicode="&#xf774;" horiz-adv-x="1017" 
d="M199 1110l18 111h832l-19 -111h-356l-195 -1110h-119l195 1110h-356z" />
    <glyph glyph-name="u.smcp" unicode="&#xe215;" horiz-adv-x="1116" 
d="M490 -18q-190 0 -293 120q-104 120 -72 318l141 801h119l-143 -809q-25 -142 46 -232t209 -90t224 77t108 195l152 859h119l-152 -856q-31 -178 -149 -281q-119 -102 -309 -102z" />
    <glyph glyph-name="u.smcp" unicode="&#xf775;" horiz-adv-x="1116" 
d="M490 -18q-190 0 -293 120q-104 120 -72 318l141 801h119l-143 -809q-25 -142 46 -232t209 -90t224 77t108 195l152 859h119l-152 -856q-31 -178 -149 -281q-119 -102 -309 -102z" />
    <glyph glyph-name="v.smcp" unicode="&#xe216;" horiz-adv-x="1134" 
d="M416 0l-228 1221h119l193 -1045l565 1045h129l-664 -1221h-114z" />
    <glyph glyph-name="v.smcp" unicode="&#xf776;" horiz-adv-x="1134" 
d="M416 0l-228 1221h119l193 -1045l565 1045h129l-664 -1221h-114z" />
    <glyph glyph-name="w.smcp" unicode="&#xe217;" horiz-adv-x="1779" 
d="M336 0l-141 1221h114l119 -1039l520 1039h117l164 -1039l479 1039h125l-573 -1221h-117l-166 1040l-522 -1040h-119z" />
    <glyph glyph-name="w.smcp" unicode="&#xf777;" horiz-adv-x="1779" 
d="M336 0l-141 1221h114l119 -1039l520 1039h117l164 -1039l479 1039h125l-573 -1221h-117l-166 1040l-522 -1040h-119z" />
    <glyph glyph-name="x.smcp" unicode="&#xe218;" horiz-adv-x="1085" 
d="M815 0l-268 537l-449 -537h-139l537 637l-291 584h125l245 -494l418 494h140l-504 -592l313 -629h-127z" />
    <glyph glyph-name="x.smcp" unicode="&#xf778;" horiz-adv-x="1085" 
d="M815 0l-268 537l-449 -537h-139l537 637l-291 584h125l245 -494l418 494h140l-504 -592l313 -629h-127z" />
    <glyph glyph-name="y.smcp" unicode="&#xe219;" horiz-adv-x="1062" 
d="M371 0l104 590l-285 631h123l238 -531l432 531h135l-526 -646l-103 -575h-118z" />
    <glyph glyph-name="y.smcp" unicode="&#xf779;" horiz-adv-x="1062" 
d="M371 0l104 590l-285 631h123l238 -531l432 531h135l-526 -646l-103 -575h-118z" />
    <glyph glyph-name="z.smcp" unicode="&#xe21a;" horiz-adv-x="993" 
d="M-2 0l20 109l828 1001h-633l16 111h783l-21 -107l-831 -1005h661l-20 -109h-803z" />
    <glyph glyph-name="z.smcp" unicode="&#xf77a;" horiz-adv-x="993" 
d="M-2 0l20 109l828 1001h-633l16 111h783l-21 -107l-831 -1005h661l-20 -109h-803z" />
    <glyph glyph-name="anocross.smcp" unicode="&#xe220;" horiz-adv-x="1171" 
d="M-25 0l680 1221h119l242 -1221h-117l-207 1067l-592 -1067h-125z" />
    <glyph glyph-name="aacute.smcp" unicode="&#xe221;" horiz-adv-x="1171" 
d="M674 1354l301 317h153l-342 -317h-112zM692 1067l-356 -641h479zM-25 0l680 1221h119l242 -1221h-117l-61 315h-564l-174 -315h-125z" />
    <glyph glyph-name="aacute.smcp" unicode="&#xf7e1;" horiz-adv-x="1171" 
d="M674 1354l301 317h153l-342 -317h-112zM692 1067l-356 -641h479zM-25 0l680 1221h119l242 -1221h-117l-61 315h-564l-174 -315h-125z" />
    <glyph glyph-name="agrave.smcp" unicode="&#xe222;" horiz-adv-x="1171" 
d="M678 1354l-232 317h152l186 -317h-106zM692 1067l-356 -641h479zM-25 0l680 1221h119l242 -1221h-117l-61 315h-564l-174 -315h-125z" />
    <glyph glyph-name="agrave.smcp" unicode="&#xf7e0;" horiz-adv-x="1171" 
d="M678 1354l-232 317h152l186 -317h-106zM692 1067l-356 -641h479zM-25 0l680 1221h119l242 -1221h-117l-61 315h-564l-174 -315h-125z" />
    <glyph glyph-name="acircumflex.smcp" unicode="&#xe223;" horiz-adv-x="1171" 
d="M430 1343l299 318h100l189 -318h-121l-131 224l-209 -224h-127zM692 1067l-356 -641h479zM-25 0l680 1221h119l242 -1221h-117l-61 315h-564l-174 -315h-125z" />
    <glyph glyph-name="acircumflex.smcp" unicode="&#xf7e2;" horiz-adv-x="1171" 
d="M430 1343l299 318h100l189 -318h-121l-131 224l-209 -224h-127zM692 1067l-356 -641h479zM-25 0l680 1221h119l242 -1221h-117l-61 315h-564l-174 -315h-125z" />
    <glyph glyph-name="adieresis.smcp" unicode="&#xe224;" horiz-adv-x="1171" 
d="M797 1364l51 285h115l-50 -285h-116zM559 1364l49 285h117l-51 -285h-115zM692 1067l-356 -641h479zM-25 0l680 1221h119l242 -1221h-117l-61 315h-564l-174 -315h-125z" />
    <glyph glyph-name="adieresis.smcp" unicode="&#xf7e4;" horiz-adv-x="1171" 
d="M797 1364l51 285h115l-50 -285h-116zM559 1364l49 285h117l-51 -285h-115zM692 1067l-356 -641h479zM-25 0l680 1221h119l242 -1221h-117l-61 315h-564l-174 -315h-125z" />
    <glyph glyph-name="atilde.smcp" unicode="&#xe225;" horiz-adv-x="1171" 
d="M928 1450q90 0 114 117h97q-19 -103 -79 -163t-149 -61q-25 1 -44 5t-28 6t-23 9t-27 12q-14 5 -23 12q-8 8 -24 18t-17 10q-86 55 -129 55t-73 -32t-40 -86h-94q15 98 77 160q122 123 316 1q94 -63 146 -63zM692 1067l-356 -641h479zM-25 0l680 1221h119l242 -1221h-117
l-61 315h-564l-174 -315h-125z" />
    <glyph glyph-name="atilde.smcp" unicode="&#xf7e3;" horiz-adv-x="1171" 
d="M928 1450q90 0 114 117h97q-19 -103 -79 -163t-149 -61q-25 1 -44 5t-28 6t-23 9t-27 12q-14 5 -23 12q-8 8 -24 18t-17 10q-86 55 -129 55t-73 -32t-40 -86h-94q15 98 77 160q122 123 316 1q94 -63 146 -63zM692 1067l-356 -641h479zM-25 0l680 1221h119l242 -1221h-117
l-61 315h-564l-174 -315h-125z" />
    <glyph glyph-name="aring.smcp" unicode="&#xe226;" horiz-adv-x="1171" 
d="M745 1458q-47 0 -81 -28t-44 -76q-10 -47 18 -85t76 -38t84 30q36 29 45 75t-21 84t-77 38zM692 1067l-356 -641h479zM758 1548q86 0 140 -72t32 -159q-29 -121 -144 -164l230 -1153h-117l-61 315h-564l-174 -315h-125l648 1161q-55 31 -81 88t-9 130t79 121
q60 48 146 48z" />
    <glyph glyph-name="aring.smcp" unicode="&#xf7e5;" horiz-adv-x="1171" 
d="M745 1458q-47 0 -81 -28t-44 -76q-10 -47 18 -85t76 -38t84 30q36 29 45 75t-21 84t-77 38zM692 1067l-356 -641h479zM758 1548q86 0 140 -72t32 -159q-29 -121 -144 -164l230 -1153h-117l-61 315h-564l-174 -315h-125l648 1161q-55 31 -81 88t-9 130t79 121
q60 48 146 48z" />
    <glyph glyph-name="amacron.smcp" unicode="&#xe228;" horiz-adv-x="1171" 
d="M469 1354l18 102h541l-18 -102h-541zM692 1067l-356 -641h479zM-25 0l680 1221h119l242 -1221h-117l-61 315h-564l-174 -315h-125z" />
    <glyph glyph-name="amacron.smcp" unicode="&#xf641;" horiz-adv-x="1171" 
d="M469 1354l18 102h541l-18 -102h-541zM692 1067l-356 -641h479zM-25 0l680 1221h119l242 -1221h-117l-61 315h-564l-174 -315h-125z" />
    <glyph glyph-name="abreve.smcp" unicode="&#xe229;" horiz-adv-x="1171" 
d="M738 1339q-156 1 -230 95t-49 227h102q-18 -98 34 -165q52 -66 159 -66q108 0 176 66t86 165h104q-25 -135 -126 -229t-256 -93zM692 1067l-356 -641h479zM-25 0l680 1221h119l242 -1221h-117l-61 315h-564l-174 -315h-125z" />
    <glyph glyph-name="abreve.smcp" unicode="&#xf640;" horiz-adv-x="1171" 
d="M738 1339q-156 1 -230 95t-49 227h102q-18 -98 34 -165q52 -66 159 -66q108 0 176 66t86 165h104q-25 -135 -126 -229t-256 -93zM692 1067l-356 -641h479zM-25 0l680 1221h119l242 -1221h-117l-61 315h-564l-174 -315h-125z" />
    <glyph glyph-name="aringacute.smcp" unicode="&#xe22d;" horiz-adv-x="1185" 
d="M751 1458q-47 0 -81 -28t-44 -76q-10 -47 18 -85t76 -38t84 30q36 29 45 75t-21 84t-77 38zM717 1624l301 318h153l-342 -318h-112zM700 1067l-356 -641h479zM764 1548q86 0 140 -72t32 -159q-29 -119 -141 -162l229 -1155h-117l-61 315h-563l-174 -315h-125l647 1161
q-57 29 -83 87t-8 131t78 121t146 48z" />
    <glyph glyph-name="aringacute.smcp" unicode="&#xf625;" horiz-adv-x="1185" 
d="M751 1458q-47 0 -81 -28t-44 -76q-10 -47 18 -85t76 -38t84 30q36 29 45 75t-21 84t-77 38zM717 1624l301 318h153l-342 -318h-112zM700 1067l-356 -641h479zM764 1548q86 0 140 -72t32 -159q-29 -119 -141 -162l229 -1155h-117l-61 315h-563l-174 -315h-125l647 1161
q-57 29 -83 87t-8 131t78 121t146 48z" />
    <glyph glyph-name="aogonek.smcp" unicode="&#xe22f;" horiz-adv-x="1171" 
d="M692 1067l-356 -641h479zM850 -334q98 0 197 80l81 -65q-139 -111 -290 -111q-112 0 -176 61t-50 141t76 140q62 59 203 123l-53 280h-564l-174 -315h-125l680 1221h119l242 -1221q-158 -80 -218 -126t-68 -95t26 -81q35 -32 94 -32z" />
    <glyph glyph-name="aogonek.smcp" unicode="&#xf642;" horiz-adv-x="1171" 
d="M692 1067l-356 -641h479zM850 -334q98 0 197 80l81 -65q-139 -111 -290 -111q-112 0 -176 61t-50 141t76 140q62 59 203 123l-53 280h-564l-174 -315h-125l680 1221h119l242 -1221q-158 -80 -218 -126t-68 -95t26 -81q35 -32 94 -32z" />
    <glyph glyph-name="edieresis.smcp" unicode="&#xe230;" horiz-adv-x="1007" 
d="M735 1364l51 285h115l-49 -285h-117zM498 1364l49 285h117l-52 -285h-114zM57 0l215 1221h746l-21 -111h-628l-78 -438h631l-21 -111h-629l-79 -448h628l-18 -113h-746z" />
    <glyph glyph-name="edieresis.smcp" unicode="&#xf7eb;" horiz-adv-x="1007" 
d="M735 1364l51 285h115l-49 -285h-117zM498 1364l49 285h117l-52 -285h-114zM57 0l215 1221h746l-21 -111h-628l-78 -438h631l-21 -111h-629l-79 -448h628l-18 -113h-746z" />
    <glyph glyph-name="ae.smcp" unicode="&#xe231;" horiz-adv-x="1740" 
d="M831 1049l-417 -627h446zM-4 0l817 1221h920l-21 -111h-768l21 -438h671l-20 -111h-647l22 -448h545l-18 -113h-639l-15 313h-524l-209 -313h-135z" />
    <glyph glyph-name="ae.smcp" unicode="&#xf7e6;" horiz-adv-x="1740" 
d="M831 1049l-417 -627h446zM-4 0l817 1221h920l-21 -111h-768l21 -438h671l-20 -111h-647l22 -448h545l-18 -113h-639l-15 313h-524l-209 -313h-135z" />
    <glyph glyph-name="aeacute.smcp" unicode="&#xe232;" horiz-adv-x="1740" 
d="M1094 1354l301 317h153l-342 -317h-112zM831 1049l-417 -627h446zM-4 0l817 1221h920l-21 -111h-768l21 -438h671l-20 -111h-647l22 -448h545l-18 -113h-639l-15 313h-524l-209 -313h-135z" />
    <glyph glyph-name="aeacute.smcp" unicode="&#xf624;" horiz-adv-x="1740" 
d="M1094 1354l301 317h153l-342 -317h-112zM831 1049l-417 -627h446zM-4 0l817 1221h920l-21 -111h-768l21 -438h671l-20 -111h-647l22 -448h545l-18 -113h-639l-15 313h-524l-209 -313h-135z" />
    <glyph glyph-name="cacute.smcp" unicode="&#xe234;" horiz-adv-x="1351" 
d="M678 -18q-291 0 -451 206t-108 488q39 242 233 404t445 161q176 0 314 -87t206 -232l-115 -54q-113 264 -420 265q-196 1 -354 -135t-194 -348t90 -384q127 -172 366 -172q137 0 256 69t191 189l108 -53q-89 -149 -235 -233t-332 -84zM774 1354l301 317h154l-342 -317
h-113z" />
    <glyph glyph-name="cacute.smcp" unicode="&#xf643;" horiz-adv-x="1351" 
d="M678 -18q-291 0 -451 206t-108 488q39 242 233 404t445 161q176 0 314 -87t206 -232l-115 -54q-113 264 -420 265q-196 1 -354 -135t-194 -348t90 -384q127 -172 366 -172q137 0 256 69t191 189l108 -53q-89 -149 -235 -233t-332 -84zM774 1354l301 317h154l-342 -317
h-113z" />
    <glyph glyph-name="ccircumflex.smcp" unicode="&#xe235;" horiz-adv-x="1351" 
d="M543 1348l299 317h100l188 -317h-120l-131 223l-209 -223h-127zM678 -18q-291 0 -451 206t-108 488q39 242 233 404t445 161q176 0 314 -87t206 -232l-115 -54q-113 264 -420 265q-196 1 -354 -135t-194 -348t90 -384q127 -172 366 -172q137 0 256 69t191 189l108 -53
q-89 -149 -235 -233t-332 -84z" />
    <glyph glyph-name="ccircumflex.smcp" unicode="&#xf628;" horiz-adv-x="1351" 
d="M543 1348l299 317h100l188 -317h-120l-131 223l-209 -223h-127zM678 -18q-291 0 -451 206t-108 488q39 242 233 404t445 161q176 0 314 -87t206 -232l-115 -54q-113 264 -420 265q-196 1 -354 -135t-194 -348t90 -384q127 -172 366 -172q137 0 256 69t191 189l108 -53
q-89 -149 -235 -233t-332 -84z" />
    <glyph glyph-name="ccaron.smcp" unicode="&#xe236;" horiz-adv-x="1351" 
d="M776 1354l-188 317h123l129 -223l211 223h125l-299 -317h-101zM678 -18q-291 0 -451 206t-108 488q39 242 233 404t445 161q176 0 314 -87t206 -232l-115 -54q-113 264 -420 265q-196 1 -354 -135t-194 -348t90 -384q127 -172 366 -172q137 0 256 69t191 189l108 -53
q-89 -149 -235 -233t-332 -84z" />
    <glyph glyph-name="ccaron.smcp" unicode="&#xf644;" horiz-adv-x="1351" 
d="M776 1354l-188 317h123l129 -223l211 223h125l-299 -317h-101zM678 -18q-291 0 -451 206t-108 488q39 242 233 404t445 161q176 0 314 -87t206 -232l-115 -54q-113 264 -420 265q-196 1 -354 -135t-194 -348t90 -384q127 -172 366 -172q137 0 256 69t191 189l108 -53
q-89 -149 -235 -233t-332 -84z" />
    <glyph glyph-name="cdotaccent.smcp" unicode="&#xe237;" horiz-adv-x="1351" 
d="M770 1364l49 285h117l-49 -285h-117zM678 -18q-291 0 -451 206t-108 488q39 242 233 404t445 161q176 0 314 -87t206 -232l-115 -54q-113 264 -420 265q-196 1 -354 -135t-194 -348t90 -384q127 -172 366 -172q137 0 256 69t191 189l108 -53q-89 -149 -235 -233t-332 -84
z" />
    <glyph glyph-name="cdotaccent.smcp" unicode="&#xf629;" horiz-adv-x="1351" 
d="M770 1364l49 285h117l-49 -285h-117zM678 -18q-291 0 -451 206t-108 488q39 242 233 404t445 161q176 0 314 -87t206 -232l-115 -54q-113 264 -420 265q-196 1 -354 -135t-194 -348t90 -384q127 -172 366 -172q137 0 256 69t191 189l108 -53q-89 -149 -235 -233t-332 -84
z" />
    <glyph glyph-name="ccedilla.smcp" unicode="&#xe238;" horiz-adv-x="1351" 
d="M588 -471q-180 0 -289 115l100 57q78 -82 195 -82q72 0 118 26q46 27 54 71t-34 70t-126 26h-65l30 178q-245 40 -371 236t-84 444t236 410t445 161q176 0 314 -87t206 -232l-115 -54q-113 264 -420 265q-196 1 -354 -135t-194 -348t90 -384q127 -172 366 -172
q137 0 256 69t191 189l108 -53q-88 -149 -234 -233t-333 -84h-6l-21 -101q121 -4 176 -53t43 -127t-90 -125t-192 -47z" />
    <glyph glyph-name="ccedilla.smcp" unicode="&#xf7e7;" horiz-adv-x="1351" 
d="M588 -471q-180 0 -289 115l100 57q78 -82 195 -82q72 0 118 26q46 27 54 71t-34 70t-126 26h-65l30 178q-245 40 -371 236t-84 444t236 410t445 161q176 0 314 -87t206 -232l-115 -54q-113 264 -420 265q-196 1 -354 -135t-194 -348t90 -384q127 -172 366 -172
q137 0 256 69t191 189l108 -53q-88 -149 -234 -233t-333 -84h-6l-21 -101q121 -4 176 -53t43 -127t-90 -125t-192 -47z" />
    <glyph glyph-name="dcaron.smcp" unicode="&#xe239;" horiz-adv-x="1222" 
d="M610 1362l-188 317h123l129 -223l211 223h125l-299 -317h-101zM575 1112h-206l-179 -1003h281q199 0 351 131t192 338q36 222 -90 378t-349 156zM457 0h-400l215 1221h318q268 -2 427 -195t113 -452q-46 -258 -231 -416q-186 -158 -442 -158z" />
    <glyph glyph-name="dcaron.smcp" unicode="&#xf645;" horiz-adv-x="1222" 
d="M610 1362l-188 317h123l129 -223l211 223h125l-299 -317h-101zM575 1112h-206l-179 -1003h281q199 0 351 131t192 338q36 222 -90 378t-349 156zM457 0h-400l215 1221h318q268 -2 427 -195t113 -452q-46 -258 -231 -416q-186 -158 -442 -158z" />
    <glyph glyph-name="dcroat.smcp" unicode="&#xe23c;" horiz-adv-x="1232" 
d="M481 109q201 0 354 131t191 344q38 212 -89 370q-126 158 -349 158h-209l-80 -453h369l-19 -100h-366l-80 -450h278zM469 0h-399l96 559h-133l18 100h133l99 562h319q266 -2 426 -195t114 -452q-46 -258 -232 -416t-441 -158z" />
    <glyph glyph-name="dcroat.smcp" unicode="&#xf646;" horiz-adv-x="1232" 
d="M481 109q201 0 354 131t191 344q38 212 -89 370q-126 158 -349 158h-209l-80 -453h369l-19 -100h-366l-80 -450h278zM469 0h-399l96 559h-133l18 100h133l99 562h319q266 -2 426 -195t114 -452q-46 -258 -232 -416t-441 -158z" />
    <glyph glyph-name="eacute.smcp" unicode="&#xe23d;" horiz-adv-x="1007" 
d="M557 1354l301 317h154l-342 -317h-113zM57 0l215 1221h746l-21 -111h-628l-78 -438h631l-21 -111h-629l-79 -448h628l-18 -113h-746z" />
    <glyph glyph-name="eacute.smcp" unicode="&#xf7e9;" horiz-adv-x="1007" 
d="M557 1354l301 317h154l-342 -317h-113zM57 0l215 1221h746l-21 -111h-628l-78 -438h631l-21 -111h-629l-79 -448h628l-18 -113h-746z" />
    <glyph glyph-name="egrave.smcp" unicode="&#xe23e;" horiz-adv-x="1007" 
d="M635 1354l-232 317h152l186 -317h-106zM57 0l215 1221h746l-21 -111h-628l-78 -438h631l-21 -111h-629l-79 -448h628l-18 -113h-746z" />
    <glyph glyph-name="egrave.smcp" unicode="&#xf7e8;" horiz-adv-x="1007" 
d="M635 1354l-232 317h152l186 -317h-106zM57 0l215 1221h746l-21 -111h-628l-78 -438h631l-21 -111h-629l-79 -448h628l-18 -113h-746z" />
    <glyph glyph-name="ecircumflex.smcp" unicode="&#xe23f;" horiz-adv-x="1007" 
d="M362 1354l300 317h100l188 -317h-121l-131 223l-209 -223h-127zM57 0l215 1221h746l-21 -111h-628l-78 -438h631l-21 -111h-629l-79 -448h628l-18 -113h-746z" />
    <glyph glyph-name="ecircumflex.smcp" unicode="&#xf7ea;" horiz-adv-x="1007" 
d="M362 1354l300 317h100l188 -317h-121l-131 223l-209 -223h-127zM57 0l215 1221h746l-21 -111h-628l-78 -438h631l-21 -111h-629l-79 -448h628l-18 -113h-746z" />
    <glyph glyph-name="gcommaaccent.smcp" unicode="&#xe240;" horiz-adv-x="1456" 
d="M455 -563l163 418h109l-195 -418h-77zM696 -20q-276 0 -445 208t-120 492q43 242 230 402t432 159q176 0 311 -83t211 -220l-111 -57q-131 250 -420 249q-200 0 -352 -133t-188 -347t97 -388q134 -172 376 -172q197 0 338 124t182 314h-526l22 111h645l-10 -64
q-37 -259 -217 -427q-179 -168 -455 -168z" />
    <glyph glyph-name="gcommaaccent.smcp" unicode="&#xf64c;" horiz-adv-x="1456" 
d="M455 -563l163 418h109l-195 -418h-77zM696 -20q-276 0 -445 208t-120 492q43 242 230 402t432 159q176 0 311 -83t211 -220l-111 -57q-131 250 -420 249q-200 0 -352 -133t-188 -347t97 -388q134 -172 376 -172q197 0 338 124t182 314h-526l22 111h645l-10 -64
q-37 -259 -217 -427q-179 -168 -455 -168z" />
    <glyph glyph-name="ecaron.smcp" unicode="&#xe241;" horiz-adv-x="1007" 
d="M612 1354l-188 317h123l129 -223l211 223h125l-299 -317h-101zM57 0l215 1221h746l-21 -111h-628l-78 -438h631l-21 -111h-629l-79 -448h628l-18 -113h-746z" />
    <glyph glyph-name="ecaron.smcp" unicode="&#xf647;" horiz-adv-x="1007" 
d="M612 1354l-188 317h123l129 -223l211 223h125l-299 -317h-101zM57 0l215 1221h746l-21 -111h-628l-78 -438h631l-21 -111h-629l-79 -448h628l-18 -113h-746z" />
    <glyph glyph-name="emacron.smcp" unicode="&#xe242;" horiz-adv-x="1007" 
d="M399 1354l19 102h540l-18 -102h-541zM57 0l215 1221h746l-21 -111h-628l-78 -438h631l-21 -111h-629l-79 -448h628l-18 -113h-746z" />
    <glyph glyph-name="emacron.smcp" unicode="&#xf649;" horiz-adv-x="1007" 
d="M399 1354l19 102h540l-18 -102h-541zM57 0l215 1221h746l-21 -111h-628l-78 -438h631l-21 -111h-629l-79 -448h628l-18 -113h-746z" />
    <glyph glyph-name="ebreve.smcp" unicode="&#xe243;" horiz-adv-x="1007" 
d="M667 1343q-155 1 -230 95t-50 227h102q-18 -98 34 -165q52 -66 159 -66q108 0 176 66t86 165h105q-25 -135 -126 -229t-256 -93zM57 0l215 1221h746l-21 -111h-628l-78 -438h631l-21 -111h-629l-79 -448h628l-18 -113h-746z" />
    <glyph glyph-name="ebreve.smcp" unicode="&#xf62a;" horiz-adv-x="1007" 
d="M667 1343q-155 1 -230 95t-50 227h102q-18 -98 34 -165q52 -66 159 -66q108 0 176 66t86 165h105q-25 -135 -126 -229t-256 -93zM57 0l215 1221h746l-21 -111h-628l-78 -438h631l-21 -111h-629l-79 -448h628l-18 -113h-746z" />
    <glyph glyph-name="edotaccent.smcp" unicode="&#xe246;" horiz-adv-x="1007" 
d="M616 1364l50 285h116l-49 -285h-117zM57 0l215 1221h746l-21 -111h-628l-78 -438h631l-21 -111h-629l-79 -448h628l-18 -113h-746z" />
    <glyph glyph-name="edotaccent.smcp" unicode="&#xf648;" horiz-adv-x="1007" 
d="M616 1364l50 285h116l-49 -285h-117zM57 0l215 1221h746l-21 -111h-628l-78 -438h631l-21 -111h-629l-79 -448h628l-18 -113h-746z" />
    <glyph glyph-name="eogonek.smcp" unicode="&#xe249;" horiz-adv-x="1007" 
d="M635 -334q98 0 196 80l82 -65q-139 -111 -290 -111q-111 0 -176 61t-48 148q20 123 209 221h-551l215 1221h746l-21 -111h-628l-78 -438h631l-21 -111h-629l-79 -448h628l-18 -113h-2q-158 -80 -218 -126q-61 -46 -69 -95t27 -81t94 -32z" />
    <glyph glyph-name="eogonek.smcp" unicode="&#xf64a;" horiz-adv-x="1007" 
d="M635 -334q98 0 196 80l82 -65q-139 -111 -290 -111q-111 0 -176 61t-48 148q20 123 209 221h-551l215 1221h746l-21 -111h-628l-78 -438h631l-21 -111h-629l-79 -448h628l-18 -113h-2q-158 -80 -218 -126q-61 -46 -69 -95t27 -81t94 -32z" />
    <glyph glyph-name="gcircumflex.smcp" unicode="&#xe24b;" horiz-adv-x="1456" 
d="M518 1354l299 317h101l188 -317h-121l-131 223l-209 -223h-127zM696 -20q-276 0 -445 208t-120 492q43 242 230 402t432 159q176 0 311 -83t211 -220l-111 -57q-131 250 -420 249q-200 0 -352 -133t-188 -347t97 -388q134 -172 376 -172q197 0 338 124t182 314h-526
l22 111h645l-10 -64q-37 -259 -217 -427q-179 -168 -455 -168z" />
    <glyph glyph-name="gcircumflex.smcp" unicode="&#xf62c;" horiz-adv-x="1456" 
d="M518 1354l299 317h101l188 -317h-121l-131 223l-209 -223h-127zM696 -20q-276 0 -445 208t-120 492q43 242 230 402t432 159q176 0 311 -83t211 -220l-111 -57q-131 250 -420 249q-200 0 -352 -133t-188 -347t97 -388q134 -172 376 -172q197 0 338 124t182 314h-526
l22 111h645l-10 -64q-37 -259 -217 -427q-179 -168 -455 -168z" />
    <glyph glyph-name="gbreve.smcp" unicode="&#xe24e;" horiz-adv-x="1456" 
d="M835 1350q-155 0 -230 94t-50 227h102q-18 -98 34 -165q52 -66 159 -66q108 0 176 66t86 165h105q-25 -135 -126 -228t-256 -93zM696 -20q-276 0 -445 208t-120 492q43 242 230 402t432 159q176 0 311 -83t211 -220l-111 -57q-131 250 -420 249q-200 0 -352 -133
t-188 -347t97 -388q134 -172 376 -172q197 0 338 124t182 314h-526l22 111h645l-10 -64q-37 -259 -217 -427q-179 -168 -455 -168z" />
    <glyph glyph-name="gbreve.smcp" unicode="&#xf64b;" horiz-adv-x="1456" 
d="M835 1350q-155 0 -230 94t-50 227h102q-18 -98 34 -165q52 -66 159 -66q108 0 176 66t86 165h105q-25 -135 -126 -228t-256 -93zM696 -20q-276 0 -445 208t-120 492q43 242 230 402t432 159q176 0 311 -83t211 -220l-111 -57q-131 250 -420 249q-200 0 -352 -133
t-188 -347t97 -388q134 -172 376 -172q197 0 338 124t182 314h-526l22 111h645l-10 -64q-37 -259 -217 -427q-179 -168 -455 -168z" />
    <glyph glyph-name="gdotaccent.smcp" unicode="&#xe24f;" horiz-adv-x="1456" 
d="M774 1364l49 285h117l-49 -285h-117zM696 -20q-276 0 -445 208t-120 492q43 242 230 402t432 159q176 0 311 -83t211 -220l-111 -57q-131 250 -420 249q-200 0 -352 -133t-188 -347t97 -388q134 -172 376 -172q197 0 338 124t182 314h-526l22 111h645l-10 -64
q-37 -259 -217 -427q-179 -168 -455 -168z" />
    <glyph glyph-name="gdotaccent.smcp" unicode="&#xf62d;" horiz-adv-x="1456" 
d="M774 1364l49 285h117l-49 -285h-117zM696 -20q-276 0 -445 208t-120 492q43 242 230 402t432 159q176 0 311 -83t211 -220l-111 -57q-131 250 -420 249q-200 0 -352 -133t-188 -347t97 -388q134 -172 376 -172q197 0 338 124t182 314h-526l22 111h645l-10 -64
q-37 -259 -217 -427q-179 -168 -455 -168z" />
    <glyph glyph-name="hcircumflex.smcp" unicode="&#xe253;" horiz-adv-x="1150" 
d="M420 1354l299 317h100l189 -317h-121l-131 223l-209 -223h-127zM57 0l215 1221h117l-98 -555h620l99 555h116l-215 -1221h-114l96 553h-623l-96 -553h-117z" />
    <glyph glyph-name="hcircumflex.smcp" unicode="&#xf62f;" horiz-adv-x="1150" 
d="M420 1354l299 317h100l189 -317h-121l-131 223l-209 -223h-127zM57 0l215 1221h117l-98 -555h620l99 555h116l-215 -1221h-114l96 553h-623l-96 -553h-117z" />
    <glyph glyph-name="hbar.smcp" unicode="&#xe257;" horiz-adv-x="1202" 
d="M352 881l-37 -215h621l39 215h-623zM117 881l20 112h119l41 228h117l-41 -228h620l41 228h117l-41 -228h127l-20 -112h-125l-156 -881h-115l97 553h-623l-96 -553h-117l156 881h-121z" />
    <glyph glyph-name="hbar.smcp" unicode="&#xf62e;" horiz-adv-x="1202" 
d="M352 881l-37 -215h621l39 215h-623zM117 881l20 112h119l41 228h117l-41 -228h620l41 228h117l-41 -228h127l-20 -112h-125l-156 -881h-115l97 553h-623l-96 -553h-117l156 881h-121z" />
    <glyph glyph-name="iacute.smcp" unicode="&#xe258;" horiz-adv-x="432" 
d="M68 0l215 1221h114l-213 -1221h-116zM311 1354l301 317h154l-342 -317h-113z" />
    <glyph glyph-name="iacute.smcp" unicode="&#xf7ed;" horiz-adv-x="432" 
d="M68 0l215 1221h114l-213 -1221h-116zM311 1354l301 317h154l-342 -317h-113z" />
    <glyph glyph-name="igrave.smcp" unicode="&#xe259;" horiz-adv-x="432" 
d="M68 0l215 1221h114l-213 -1221h-116zM305 1354l-231 317h151l187 -317h-107z" />
    <glyph glyph-name="igrave.smcp" unicode="&#xf7ec;" horiz-adv-x="432" 
d="M68 0l215 1221h114l-213 -1221h-116zM305 1354l-231 317h151l187 -317h-107z" />
    <glyph glyph-name="icircumflex.smcp" unicode="&#xe25a;" horiz-adv-x="432" 
d="M66 1348l299 317h100l188 -317h-121l-131 223l-208 -223h-127zM68 0l215 1221h114l-213 -1221h-116z" />
    <glyph glyph-name="icircumflex.smcp" unicode="&#xf7ee;" horiz-adv-x="432" 
d="M66 1348l299 317h100l188 -317h-121l-131 223l-208 -223h-127zM68 0l215 1221h114l-213 -1221h-116z" />
    <glyph glyph-name="idieresis.smcp" unicode="&#xe25b;" horiz-adv-x="432" 
d="M68 0l215 1221h114l-213 -1221h-116zM190 1364l50 285h116l-51 -285h-115zM428 1364l51 285h115l-49 -285h-117z" />
    <glyph glyph-name="idieresis.smcp" unicode="&#xf7ef;" horiz-adv-x="432" 
d="M68 0l215 1221h114l-213 -1221h-116zM190 1364l50 285h116l-51 -285h-115zM428 1364l51 285h115l-49 -285h-117z" />
    <glyph glyph-name="itilde.smcp" unicode="&#xe25c;" horiz-adv-x="432" 
d="M561 1450q90 0 115 117h96q-20 -103 -80 -163t-147 -61q-27 1 -45 5t-28 6t-22 9q-13 7 -23 10t-37 23q-26 19 -32 19q-86 55 -129 55t-73 -32t-39 -86h-94q16 98 77 160q122 124 316 1q94 -63 145 -63zM68 0l215 1221h114l-213 -1221h-116z" />
    <glyph glyph-name="itilde.smcp" unicode="&#xf632;" horiz-adv-x="432" 
d="M561 1450q90 0 115 117h96q-20 -103 -80 -163t-147 -61q-27 1 -45 5t-28 6t-22 9q-13 7 -23 10t-37 23q-26 19 -32 19q-86 55 -129 55t-73 -32t-39 -86h-94q16 98 77 160q122 124 316 1q94 -63 145 -63zM68 0l215 1221h114l-213 -1221h-116z" />
    <glyph glyph-name="imacron.smcp" unicode="&#xe25e;" horiz-adv-x="432" 
d="M68 0l215 1221h114l-213 -1221h-116zM98 1354l19 102h540l-18 -102h-541z" />
    <glyph glyph-name="imacron.smcp" unicode="&#xf64d;" horiz-adv-x="432" 
d="M68 0l215 1221h114l-213 -1221h-116zM98 1354l19 102h540l-18 -102h-541z" />
    <glyph glyph-name="ibreve.smcp" unicode="&#xe25f;" horiz-adv-x="432" 
d="M370 1350q-155 0 -230 94t-50 227h103q-19 -98 33 -165q52 -66 159 -66t175 66t87 165h105q-25 -135 -126 -228t-256 -93zM68 0l215 1221h114l-213 -1221h-116z" />
    <glyph glyph-name="ibreve.smcp" unicode="&#xf630;" horiz-adv-x="432" 
d="M370 1350q-155 0 -230 94t-50 227h103q-19 -98 33 -165q52 -66 159 -66t175 66t87 165h105q-25 -135 -126 -228t-256 -93zM68 0l215 1221h114l-213 -1221h-116z" />
    <glyph glyph-name="idotaccent.smcp" unicode="&#xe262;" horiz-adv-x="432" 
d="M309 1364l49 285h117l-49 -285h-117zM68 0l215 1221h114l-213 -1221h-116z" />
    <glyph glyph-name="idotaccent.smcp" unicode="&#xf666;" horiz-adv-x="432" 
d="M309 1364l49 285h117l-49 -285h-117zM68 0l215 1221h114l-213 -1221h-116z" />
    <glyph glyph-name="iogonek.smcp" unicode="&#xe264;" horiz-adv-x="432" 
d="M8 -430q-112 0 -176 61t-48 141t80 141q65 60 210 126l209 1182h114l-213 -1221h2q-158 -80 -218 -126t-68 -95t26 -81t94 -32q98 0 197 80l82 -65q-139 -111 -291 -111z" />
    <glyph glyph-name="iogonek.smcp" unicode="&#xf64e;" horiz-adv-x="432" 
d="M8 -430q-112 0 -176 61t-48 141t80 141q65 60 210 126l209 1182h114l-213 -1221h2q-158 -80 -218 -126t-68 -95t26 -81t94 -32q98 0 197 80l82 -65q-139 -111 -291 -111z" />
    <glyph glyph-name="jcircumflex.smcp" unicode="&#xe265;" horiz-adv-x="845" 
d="M489 1341l299 318h101l188 -318h-121l-131 224l-209 -224h-127zM328 -18q-136 0 -216 61t-110 164l113 37q49 -154 204 -154q95 0 155 64t79 163l158 904h118l-163 -922q-26 -147 -114 -232t-224 -85z" />
    <glyph glyph-name="jcircumflex.smcp" unicode="&#xf633;" horiz-adv-x="845" 
d="M489 1341l299 318h101l188 -318h-121l-131 224l-209 -224h-127zM328 -18q-136 0 -216 61t-110 164l113 37q49 -154 204 -154q95 0 155 64t79 163l158 904h118l-163 -922q-26 -147 -114 -232t-224 -85z" />
    <glyph glyph-name="kcommaaccent.smcp" unicode="&#xe268;" horiz-adv-x="1134" 
d="M285 -524l164 418h108l-195 -418h-77zM852 0l-315 655l-297 -278l-66 -377h-115l213 1221h117l-121 -680l725 680h156l-522 -490l350 -731h-125z" />
    <glyph glyph-name="kcommaaccent.smcp" unicode="&#xf64f;" horiz-adv-x="1134" 
d="M285 -524l164 418h108l-195 -418h-77zM852 0l-315 655l-297 -278l-66 -377h-115l213 1221h117l-121 -680l725 680h156l-522 -490l350 -731h-125z" />
    <glyph glyph-name="lacute.smcp" unicode="&#xe26b;" horiz-adv-x="923" 
d="M303 1354l301 317h154l-342 -317h-113zM57 0l215 1221h117l-196 -1108h561l-19 -113h-678z" />
    <glyph glyph-name="lacute.smcp" unicode="&#xf650;" horiz-adv-x="923" 
d="M303 1354l301 317h154l-342 -317h-113zM57 0l215 1221h117l-196 -1108h561l-19 -113h-678z" />
    <glyph glyph-name="lcaron.smcp" unicode="&#xe26c;" horiz-adv-x="923" 
d="M590 903l223 318h125l-246 -318h-102zM57 0l215 1221h117l-196 -1108h561l-19 -113h-678z" />
    <glyph glyph-name="lcaron.smcp" unicode="&#xf651;" horiz-adv-x="923" 
d="M590 903l223 318h125l-246 -318h-102zM57 0l215 1221h117l-196 -1108h561l-19 -113h-678z" />
    <glyph glyph-name="lcommaaccent.smcp" unicode="&#xe26d;" horiz-adv-x="923" 
d="M154 -547l163 418h109l-195 -418h-77zM57 0l215 1221h117l-196 -1108h561l-19 -113h-678z" />
    <glyph glyph-name="lcommaaccent.smcp" unicode="&#xf652;" horiz-adv-x="923" 
d="M154 -547l163 418h109l-195 -418h-77zM57 0l215 1221h117l-196 -1108h561l-19 -113h-678z" />
    <glyph glyph-name="ldot.smcp" unicode="&#xe271;" horiz-adv-x="933" 
d="M680 401l49 285h117l-49 -285h-117zM57 0l215 1221h117l-196 -1108h561l-19 -113h-678z" />
    <glyph glyph-name="ldot.smcp" unicode="&#xf634;" horiz-adv-x="933" 
d="M680 401l49 285h117l-49 -285h-117zM57 0l215 1221h117l-196 -1108h561l-19 -113h-678z" />
    <glyph glyph-name="lslash.smcp" unicode="&#xe272;" horiz-adv-x="950" 
d="M37 504l16 100l142 41l102 576h117l-97 -541l383 108l-18 -100l-383 -110l-82 -465h561l-18 -113h-678l96 543z" />
    <glyph glyph-name="lslash.smcp" unicode="&#xf6f9;" horiz-adv-x="950" 
d="M37 504l16 100l142 41l102 576h117l-97 -541l383 108l-18 -100l-383 -110l-82 -465h561l-18 -113h-678l96 543z" />
    <glyph glyph-name="nacute.smcp" unicode="&#xe276;" horiz-adv-x="1243" 
d="M688 1331l301 318h154l-342 -318h-113zM57 0l215 1221h125l527 -1028l180 1028h117l-215 -1221h-115l-535 1040l-182 -1040h-117z" />
    <glyph glyph-name="nacute.smcp" unicode="&#xf653;" horiz-adv-x="1243" 
d="M688 1331l301 318h154l-342 -318h-113zM57 0l215 1221h125l527 -1028l180 1028h117l-215 -1221h-115l-535 1040l-182 -1040h-117z" />
    <glyph glyph-name="ntilde.smcp" unicode="&#xe279;" horiz-adv-x="1243" 
d="M938 1450q90 0 115 117h96q-19 -103 -79 -163t-148 -61q-26 1 -45 5t-28 6t-23 9t-27 12q-14 5 -33 22q-19 18 -31 18q-86 55 -129 55q-42 0 -72 -32t-40 -86h-95q15 98 77 160q123 124 317 1q16 -16 31 -22q14 -5 41 -23t73 -18zM57 0l215 1221h125l527 -1028l180 1028
h117l-215 -1221h-115l-535 1040l-182 -1040h-117z" />
    <glyph glyph-name="ncaron.smcp" unicode="&#xe27a;" horiz-adv-x="1243" 
d="M711 1335l-189 318h123l129 -223l211 223h125l-299 -318h-100zM57 0l215 1221h125l527 -1028l180 1028h117l-215 -1221h-115l-535 1040l-182 -1040h-117z" />
    <glyph glyph-name="ncaron.smcp" unicode="&#xf654;" horiz-adv-x="1243" 
d="M711 1335l-189 318h123l129 -223l211 223h125l-299 -318h-100zM57 0l215 1221h125l527 -1028l180 1028h117l-215 -1221h-115l-535 1040l-182 -1040h-117z" />
    <glyph glyph-name="ncommaaccent.smcp" unicode="&#xe27d;" horiz-adv-x="1243" 
d="M313 -530l164 417h109l-195 -417h-78zM57 0l215 1221h125l527 -1028l180 1028h117l-215 -1221h-115l-535 1040l-182 -1040h-117z" />
    <glyph glyph-name="ncommaaccent.smcp" unicode="&#xf655;" horiz-adv-x="1243" 
d="M313 -530l164 417h109l-195 -417h-78zM57 0l215 1221h125l527 -1028l180 1028h117l-215 -1221h-115l-535 1040l-182 -1040h-117z" />
    <glyph glyph-name="oacute.smcp" unicode="&#xe281;" horiz-adv-x="1462" 
d="M762 1354l301 317h154l-343 -317h-112zM715 90q193 0 347 132t187 329q41 223 -91 401t-374 178q-196 0 -350 -132t-188 -330q-41 -236 95 -407t374 -171zM705 -20q-287 0 -455 208t-119 492q43 244 231 402t429 159q195 0 339 -103q144 -104 204 -266q62 -162 30 -337
q-43 -243 -228 -399t-431 -156z" />
    <glyph glyph-name="oacute.smcp" unicode="&#xf7f3;" horiz-adv-x="1462" 
d="M762 1354l301 317h154l-343 -317h-112zM715 90q193 0 347 132t187 329q41 223 -91 401t-374 178q-196 0 -350 -132t-188 -330q-41 -236 95 -407t374 -171zM705 -20q-287 0 -455 208t-119 492q43 244 231 402t429 159q195 0 339 -103q144 -104 204 -266q62 -162 30 -337
q-43 -243 -228 -399t-431 -156z" />
    <glyph glyph-name="ograve.smcp" unicode="&#xe282;" horiz-adv-x="1462" 
d="M805 1354l-232 317h152l186 -317h-106zM715 90q193 0 347 132t187 329q41 223 -91 401t-374 178q-196 0 -350 -132t-188 -330q-41 -236 95 -407t374 -171zM705 -20q-287 0 -455 208t-119 492q43 244 231 402t429 159q195 0 339 -103q144 -104 204 -266q62 -162 30 -337
q-43 -243 -228 -399t-431 -156z" />
    <glyph glyph-name="ograve.smcp" unicode="&#xf7f2;" horiz-adv-x="1462" 
d="M805 1354l-232 317h152l186 -317h-106zM715 90q193 0 347 132t187 329q41 223 -91 401t-374 178q-196 0 -350 -132t-188 -330q-41 -236 95 -407t374 -171zM705 -20q-287 0 -455 208t-119 492q43 244 231 402t429 159q195 0 339 -103q144 -104 204 -266q62 -162 30 -337
q-43 -243 -228 -399t-431 -156z" />
    <glyph glyph-name="ocircumflex.smcp" unicode="&#xe283;" horiz-adv-x="1462" 
d="M537 1352l299 317h100l188 -317h-120l-132 223l-208 -223h-127zM715 90q193 0 347 132t187 329q41 223 -91 401t-374 178q-196 0 -350 -132t-188 -330q-41 -236 95 -407t374 -171zM705 -20q-287 0 -455 208t-119 492q43 244 231 402t429 159q195 0 339 -103
q144 -104 204 -266q62 -162 30 -337q-43 -243 -228 -399t-431 -156z" />
    <glyph glyph-name="ocircumflex.smcp" unicode="&#xf7f4;" horiz-adv-x="1462" 
d="M537 1352l299 317h100l188 -317h-120l-132 223l-208 -223h-127zM715 90q193 0 347 132t187 329q41 223 -91 401t-374 178q-196 0 -350 -132t-188 -330q-41 -236 95 -407t374 -171zM705 -20q-287 0 -455 208t-119 492q43 244 231 402t429 159q195 0 339 -103
q144 -104 204 -266q62 -162 30 -337q-43 -243 -228 -399t-431 -156z" />
    <glyph glyph-name="odieresis.smcp" unicode="&#xe284;" horiz-adv-x="1462" 
d="M651 1364l49 285h117l-51 -285h-115zM889 1364l51 285h115l-49 -285h-117zM715 90q193 0 347 132t187 329q41 223 -91 401t-374 178q-196 0 -350 -132t-188 -330q-41 -236 95 -407t374 -171zM705 -20q-287 0 -455 208t-119 492q43 244 231 402t429 159q195 0 339 -103
q144 -104 204 -266q62 -162 30 -337q-43 -243 -228 -399t-431 -156z" />
    <glyph glyph-name="odieresis.smcp" unicode="&#xf7f6;" horiz-adv-x="1462" 
d="M651 1364l49 285h117l-51 -285h-115zM889 1364l51 285h115l-49 -285h-117zM715 90q193 0 347 132t187 329q41 223 -91 401t-374 178q-196 0 -350 -132t-188 -330q-41 -236 95 -407t374 -171zM705 -20q-287 0 -455 208t-119 492q43 244 231 402t429 159q195 0 339 -103
q144 -104 204 -266q62 -162 30 -337q-43 -243 -228 -399t-431 -156z" />
    <glyph glyph-name="otilde.smcp" unicode="&#xe285;" horiz-adv-x="1462" 
d="M1028 1346q-31 0 -47 4q-15 4 -25 6t-23 9t-27 11t-22 13q-8 8 -24 18t-18 10q-86 55 -129 55t-73 -31q-30 -32 -40 -87h-94q16 98 78 160q122 123 315 2q94 -63 145 -64q90 0 115 117h96q-20 -103 -79 -163t-148 -60zM715 90q193 0 347 132t187 329q41 223 -91 401
t-374 178q-196 0 -350 -132t-188 -330q-41 -236 95 -407t374 -171zM705 -20q-287 0 -455 208t-119 492q43 244 231 402t429 159q195 0 339 -103q144 -104 204 -266q62 -162 30 -337q-43 -243 -228 -399t-431 -156z" />
    <glyph glyph-name="otilde.smcp" unicode="&#xf7f5;" horiz-adv-x="1462" 
d="M1028 1346q-31 0 -47 4q-15 4 -25 6t-23 9t-27 11t-22 13q-8 8 -24 18t-18 10q-86 55 -129 55t-73 -31q-30 -32 -40 -87h-94q16 98 78 160q122 123 315 2q94 -63 145 -64q90 0 115 117h96q-20 -103 -79 -163t-148 -60zM715 90q193 0 347 132t187 329q41 223 -91 401
t-374 178q-196 0 -350 -132t-188 -330q-41 -236 95 -407t374 -171zM705 -20q-287 0 -455 208t-119 492q43 244 231 402t429 159q195 0 339 -103q144 -104 204 -266q62 -162 30 -337q-43 -243 -228 -399t-431 -156z" />
    <glyph glyph-name="omacron.smcp" unicode="&#xe287;" horiz-adv-x="1462" 
d="M565 1354l19 102h540l-18 -102h-541zM715 90q193 0 347 132t187 329q41 223 -91 401t-374 178q-196 0 -350 -132t-188 -330q-41 -236 95 -407t374 -171zM705 -20q-287 0 -455 208t-119 492q43 244 231 402t429 159q195 0 339 -103q144 -104 204 -266q62 -162 30 -337
q-43 -243 -228 -399t-431 -156z" />
    <glyph glyph-name="omacron.smcp" unicode="&#xf657;" horiz-adv-x="1462" 
d="M565 1354l19 102h540l-18 -102h-541zM715 90q193 0 347 132t187 329q41 223 -91 401t-374 178q-196 0 -350 -132t-188 -330q-41 -236 95 -407t374 -171zM705 -20q-287 0 -455 208t-119 492q43 244 231 402t429 159q195 0 339 -103q144 -104 204 -266q62 -162 30 -337
q-43 -243 -228 -399t-431 -156z" />
    <glyph glyph-name="obreve.smcp" unicode="&#xe288;" horiz-adv-x="1462" 
d="M816 1354q-156 0 -230 94t-49 227h102q-18 -98 34 -165q53 -66 159 -66t175 66t87 165h104q-25 -135 -126 -228t-256 -93zM715 90q193 0 347 132t187 329q41 223 -91 401t-374 178q-196 0 -350 -132t-188 -330q-41 -236 95 -407t374 -171zM705 -20q-287 0 -455 208
t-119 492q43 244 231 402t429 159q195 0 339 -103q144 -104 204 -266q62 -162 30 -337q-43 -243 -228 -399t-431 -156z" />
    <glyph glyph-name="obreve.smcp" unicode="&#xf635;" horiz-adv-x="1462" 
d="M816 1354q-156 0 -230 94t-49 227h102q-18 -98 34 -165q53 -66 159 -66t175 66t87 165h104q-25 -135 -126 -228t-256 -93zM715 90q193 0 347 132t187 329q41 223 -91 401t-374 178q-196 0 -350 -132t-188 -330q-41 -236 95 -407t374 -171zM705 -20q-287 0 -455 208
t-119 492q43 244 231 402t429 159q195 0 339 -103q144 -104 204 -266q62 -162 30 -337q-43 -243 -228 -399t-431 -156z" />
    <glyph glyph-name="ohungarumlaut.smcp" unicode="&#xe28a;" horiz-adv-x="1462" 
d="M893 1352l299 317h145l-340 -317h-104zM631 1352l301 317h145l-340 -317h-106zM715 90q193 0 347 132t187 329q41 223 -91 401t-374 178q-196 0 -350 -132t-188 -330q-41 -236 95 -407t374 -171zM705 -20q-287 0 -455 208t-119 492q43 244 231 402t429 159
q195 0 339 -103q144 -104 204 -266q62 -162 30 -337q-43 -243 -228 -399t-431 -156z" />
    <glyph glyph-name="ohungarumlaut.smcp" unicode="&#xf656;" horiz-adv-x="1462" 
d="M893 1352l299 317h145l-340 -317h-104zM631 1352l301 317h145l-340 -317h-106zM715 90q193 0 347 132t187 329q41 223 -91 401t-374 178q-196 0 -350 -132t-188 -330q-41 -236 95 -407t374 -171zM705 -20q-287 0 -455 208t-119 492q43 244 231 402t429 159
q195 0 339 -103q144 -104 204 -266q62 -162 30 -337q-43 -243 -228 -399t-431 -156z" />
    <glyph glyph-name="oslash.smcp" unicode="&#xe295;" horiz-adv-x="1462" 
d="M728 90q180 0 334 132t187 329q43 233 -96 407l-729 -778q124 -90 304 -90zM772 1130q-184 0 -338 -132q-153 -132 -188 -330q-43 -248 106 -420l731 782q-127 100 -311 100zM724 -20q-226 0 -380 114l-88 -94h-137l151 162q-90 98 -128 233t-11 285q43 244 231 402
t416 159q228 0 383 -129l101 109h137l-166 -179q86 -102 121 -235t10 -272q-43 -243 -228 -399q-186 -156 -412 -156z" />
    <glyph glyph-name="oslash.smcp" unicode="&#xf7f8;" horiz-adv-x="1462" 
d="M728 90q180 0 334 132t187 329q43 233 -96 407l-729 -778q124 -90 304 -90zM772 1130q-184 0 -338 -132q-153 -132 -188 -330q-43 -248 106 -420l731 782q-127 100 -311 100zM724 -20q-226 0 -380 114l-88 -94h-137l151 162q-90 98 -128 233t-11 285q43 244 231 402
t416 159q228 0 383 -129l101 109h137l-166 -179q86 -102 121 -235t10 -272q-43 -243 -228 -399q-186 -156 -412 -156z" />
    <glyph glyph-name="oslashacute.smcp" unicode="&#xe296;" horiz-adv-x="1472" 
d="M756 1354l301 317h153l-342 -317h-112zM732 90q180 0 334 132t187 329q43 233 -96 407l-729 -778q124 -90 304 -90zM776 1130q-184 0 -338 -132q-153 -132 -188 -330q-43 -248 106 -420l731 782q-127 100 -311 100zM728 -20q-226 0 -380 114l-88 -94h-137l151 162
q-90 98 -128 233t-11 285q43 244 231 402t416 159q228 0 383 -129l101 109h137l-166 -179q86 -102 121 -235t10 -272q-43 -243 -228 -399q-186 -156 -412 -156z" />
    <glyph glyph-name="oslashacute.smcp" unicode="&#xf627;" horiz-adv-x="1472" 
d="M756 1354l301 317h153l-342 -317h-112zM732 90q180 0 334 132t187 329q43 233 -96 407l-729 -778q124 -90 304 -90zM776 1130q-184 0 -338 -132q-153 -132 -188 -330q-43 -248 106 -420l731 782q-127 100 -311 100zM728 -20q-226 0 -380 114l-88 -94h-137l151 162
q-90 98 -128 233t-11 285q43 244 231 402t416 159q228 0 383 -129l101 109h137l-166 -179q86 -102 121 -235t10 -272q-43 -243 -228 -399q-186 -156 -412 -156z" />
    <glyph glyph-name="oe.smcp" unicode="&#xe298;" horiz-adv-x="2097" 
d="M715 90q186 0 336 126t190 314l4 33q37 221 -93 394t-368 173q-196 0 -350 -132t-188 -330q-41 -236 95 -407t374 -171zM710 -20q-292 0 -460 208t-119 492q43 244 231 402t429 159q190 0 323 -92t191 -250l57 322h745l-20 -111h-629l-78 -438h631l-20 -111h-629
l-80 -448h629l-19 -113h-745l37 207q-182 -227 -474 -227z" />
    <glyph glyph-name="oe.smcp" unicode="&#xf6fa;" horiz-adv-x="2097" 
d="M715 90q186 0 336 126t190 314l4 33q37 221 -93 394t-368 173q-196 0 -350 -132t-188 -330q-41 -236 95 -407t374 -171zM710 -20q-292 0 -460 208t-119 492q43 244 231 402t429 159q190 0 323 -92t191 -250l57 322h745l-20 -111h-629l-78 -438h631l-20 -111h-629
l-80 -448h629l-19 -113h-745l37 207q-182 -227 -474 -227z" />
    <glyph glyph-name="racute.smcp" unicode="&#xe29a;" horiz-adv-x="1062" 
d="M567 1354l301 317h154l-342 -317h-113zM625 1221q186 0 297 -123t79 -301q-27 -143 -140 -240q-114 -96 -288 -96q17 -147 101 -249t205 -101h24l-20 -111h-25q-131 0 -227 86t-141 212q-44 126 -39 265h106q137 0 221 71q84 70 106 188t-58 203t-220 89h-237l-195 -1114
h-117l215 1221h353z" />
    <glyph glyph-name="racute.smcp" unicode="&#xf658;" horiz-adv-x="1062" 
d="M567 1354l301 317h154l-342 -317h-113zM625 1221q186 0 297 -123t79 -301q-27 -143 -140 -240q-114 -96 -288 -96q17 -147 101 -249t205 -101h24l-20 -111h-25q-131 0 -227 86t-141 212q-44 126 -39 265h106q137 0 221 71q84 70 106 188t-58 203t-220 89h-237l-195 -1114
h-117l215 1221h353z" />
    <glyph glyph-name="rcaron.smcp" unicode="&#xe29b;" horiz-adv-x="1062" 
d="M580 1354l-189 317h123l129 -223l211 223h125l-299 -317h-100zM625 1221q186 0 297 -123t79 -301q-27 -143 -140 -240q-114 -96 -288 -96q17 -147 101 -249t205 -101h24l-20 -111h-25q-131 0 -227 86t-141 212q-44 126 -39 265h106q137 0 221 71q84 70 106 188t-58 203
t-220 89h-237l-195 -1114h-117l215 1221h353z" />
    <glyph glyph-name="rcaron.smcp" unicode="&#xf659;" horiz-adv-x="1062" 
d="M580 1354l-189 317h123l129 -223l211 223h125l-299 -317h-100zM625 1221q186 0 297 -123t79 -301q-27 -143 -140 -240q-114 -96 -288 -96q17 -147 101 -249t205 -101h24l-20 -111h-25q-131 0 -227 86t-141 212q-44 126 -39 265h106q137 0 221 71q84 70 106 188t-58 203
t-220 89h-237l-195 -1114h-117l215 1221h353z" />
    <glyph glyph-name="rcommaaccent.smcp" unicode="&#xe29e;" horiz-adv-x="1062" 
d="M225 -537l164 418h109l-195 -418h-78zM625 1221q186 0 297 -123t79 -301q-27 -143 -140 -240q-114 -96 -288 -96q17 -147 101 -249t205 -101h24l-20 -111h-25q-131 0 -227 86t-141 212q-44 126 -39 265h106q137 0 221 71q84 70 106 188t-58 203t-220 89h-237l-195 -1114
h-117l215 1221h353z" />
    <glyph glyph-name="rcommaaccent.smcp" unicode="&#xf65a;" horiz-adv-x="1062" 
d="M225 -537l164 418h109l-195 -418h-78zM625 1221q186 0 297 -123t79 -301q-27 -143 -140 -240q-114 -96 -288 -96q17 -147 101 -249t205 -101h24l-20 -111h-25q-131 0 -227 86t-141 212q-44 126 -39 265h106q137 0 221 71q84 70 106 188t-58 203t-220 89h-237l-195 -1114
h-117l215 1221h353z" />
    <glyph glyph-name="A.swsh" unicode="&#xe2e0;" horiz-adv-x="2312" 
d="M1765 1337l-444 -788h600zM498 -264q238 0 405 282l236 420h-602q-147 0 -253 -86t-131 -234q-23 -148 73 -264q96 -118 272 -118zM492 -373q-238 0 -364 158t-87 369q31 174 169 284t337 111h651l471 837h-747q-111 0 -194 -60t-103 -161q-16 -102 47 -182t182 -80
t182 90l99 -55q-98 -143 -297 -143q-166 1 -260 121t-64 266t143 229q115 84 277 84h915l305 -1495h-122l-88 438h-680l-256 -461q-195 -350 -516 -350z" />
    <glyph glyph-name="B.swsh" unicode="&#xe2e1;" horiz-adv-x="1886" 
d="M1331 733h-422l-108 -627h422q354 0 407 291q25 137 -64 237q-90 99 -235 99zM1331 840q111 0 202 68t112 175q31 164 -109 275q-140 110 -483 110q-342 0 -526 -114q-183 -115 -214 -287q-25 -131 31 -228t172 -145l-63 -100q-143 57 -215 189t-41 300q37 219 259 357
t605 137q201 0 351 -44t230 -118q162 -153 123 -340q-18 -96 -83 -171t-158 -116q123 -50 186 -160t39 -249q-33 -175 -167 -277t-368 -102h-765q-238 0 -326 -205l-100 68q125 244 413 243h242l217 1225h121l-88 -491h403z" />
    <glyph glyph-name="C.swsh" unicode="&#xe2e2;" horiz-adv-x="1716" 
d="M908 -256q-382 0 -604 276t-146 728q66 375 348 602q283 227 616 227q289 0 449 -160t115 -381q-23 -135 -132 -230t-262 -95q-219 0 -334 168l109 75q84 -129 229 -129q104 0 181 67q76 67 92 165q31 172 -95 291t-358 118q-292 0 -538 -200t-304 -533q-35 -207 1 -376
q67 -316 350 -442q129 -58 282 -58q330 0 529 268l94 -76q-240 -305 -622 -305z" />
    <glyph glyph-name="D.swsh" unicode="&#xe2e3;" horiz-adv-x="2031" 
d="M1051 1577q242 0 431 -78q355 -147 451 -494q45 -161 15 -333q-54 -312 -278 -492t-527 -180h-654q-233 0 -321 -205l-100 68q123 244 411 243h254l219 1240h119l-217 -1240h293q258 4 446 161t236 427q27 144 -10 282q-82 304 -393 427q-169 68 -388 67
q-338 0 -518 -118t-209 -291q-23 -131 35 -231t172 -148l-65 -98q-141 59 -214 192t-44 301q37 221 258 361t598 139z" />
    <glyph glyph-name="E.swsh" unicode="&#xe2e4;" horiz-adv-x="1406" 
d="M561 -317q-246 1 -384 157t-101 371q27 160 147 261q121 101 299 142q-156 72 -244 215t-55 328q43 246 243 385t458 139t396 -134t105 -318q-20 -117 -111 -194t-214 -77q-170 0 -279 107l84 86q77 -84 179 -84t158 54t71 134q23 127 -85 223t-318 95q-210 0 -370 -117
q-161 -116 -196 -320q-36 -204 108 -343t367 -140h4l-18 -112h-19q-320 0 -483 -148q-88 -80 -106 -198q-27 -164 79 -282t291 -118q303 0 480 268l102 -73q-215 -307 -588 -307z" />
    <glyph glyph-name="F.swsh" unicode="&#xe2e5;" horiz-adv-x="1859" 
d="M523 -287q-175 0 -275 117t-72 285q14 92 84 172l98 -72q-51 -51 -63 -121q-19 -112 49 -190t184 -78q231 0 281 278l225 1282h-284q-168 0 -289 -90t-148 -235q-35 -195 109 -328l-68 -96q-94 69 -138 187t-19 253q33 188 187 303q155 115 368 115h948q111 0 162 51
t69 152l21 114h119l-25 -145q-53 -283 -338 -283h-555l-104 -600h735l-21 -112h-735l-102 -592q-32 -170 -130 -268t-273 -99z" />
    <glyph glyph-name="G.swsh" unicode="&#xe2e6;" horiz-adv-x="1787" 
d="M942 -600q-158 0 -272 63t-168 172l123 46q88 -168 333 -168q186 0 308 118q121 119 151 295l76 439q-82 -177 -240 -281t-388 -104t-405 116t-253 313q-78 196 -37 425q50 294 280 488t533 194q213 0 379 -100t260 -269l-113 -60q-170 315 -536 316q-254 0 -448 -167
t-238 -417q-33 -186 28 -352t212 -269t356 -104q260 0 433 158t228 416h-659l20 108h776l-153 -868q-40 -224 -190 -366t-396 -142z" />
    <glyph glyph-name="H.swsh" unicode="&#xe2e7;" horiz-adv-x="2177" 
d="M557 -332q-209 0 -333 146t-87 344q25 145 144 258l90 -80q-96 -82 -115 -197q-27 -150 62 -254t247 -104q295 0 359 375l217 1230h-535q-104 0 -187 -60t-101 -164t48 -181q66 -78 180 -78t179 80l72 -80q-97 -106 -263 -106q-166 1 -260 115t-69 260t138 234
q114 89 267 89h668l-121 -690h799l119 672q31 178 129 279q98 102 271 102t271 -115l-88 -74q-68 82 -188 82q-225 0 -281 -287l-256 -1464h-118l120 692h-798l-99 -567q-78 -457 -481 -457z" />
    <glyph glyph-name="I.swsh" unicode="&#xe2e8;" horiz-adv-x="1769" 
d="M764 1495h780q111 0 163 52t69 151l20 114h121l-27 -145q-49 -283 -336 -283h-358l-223 -1273h618l-18 -111h-1116q-109 0 -161 -51t-71 -152l-20 -114h-119l25 145q53 283 338 283h405l223 1273h-317q-166 0 -288 -92t-148 -235q-33 -197 110 -330l-65 -98
q-93 71 -139 187t-21 251q31 190 185 309q155 119 370 119z" />
    <glyph glyph-name="J.swsh" unicode="&#xe2e9;" horiz-adv-x="1261" 
d="M549 -371q-209 -1 -333 145t-87 343q27 147 145 260l88 -82q-92 -80 -116 -212q-24 -131 65 -237q90 -106 248 -106q295 0 359 377l223 1269h-535q-104 0 -187 -60t-101 -164t48 -181q66 -78 180 -78t179 80l72 -80q-97 -106 -263 -106q-166 1 -260 115t-69 260t138 234
q114 89 267 89h668l-246 -1411q-77 -455 -483 -455z" />
    <glyph glyph-name="K.swsh" unicode="&#xe2ea;" horiz-adv-x="2250" 
d="M557 -332q-209 0 -333 146t-87 344q25 145 144 258l90 -80q-96 -82 -115 -197q-27 -150 62 -254t247 -104q295 0 359 375l217 1230h-535q-104 0 -187 -60t-101 -164t48 -181q66 -78 180 -78t179 80l72 -80q-97 -106 -263 -106q-166 1 -260 115t-69 260t138 234
q114 89 267 89h668l-160 -909l965 909h155l-655 -618l285 -582q53 -121 92 -153t131 -31h27l-21 -111h-39q-123 0 -182 53t-125 213l-260 537l-401 -379l-52 -299q-78 -457 -481 -457z" />
    <glyph glyph-name="L.swsh" unicode="&#xe2eb;" horiz-adv-x="1773" 
d="M231 -264q156 0 195 211l8 45q-110 53 -180 53t-118 -38q-48 -37 -58 -103t34 -117t119 -51zM225 -377q-133 0 -208 90q-75 91 -57 201t102 172q82 62 184 61q102 0 207 -47l196 1121q63 371 402 370q195 0 317 -145l-98 -74q-80 106 -226 107q-227 0 -276 -273
l-205 -1165q49 -29 151 -92t164 -101t148 -68q86 -32 156 -32q117 0 174 65t78 193l36 209h123l-41 -231q-59 -348 -374 -349q-131 0 -261 67q-131 67 -241 139q-111 73 -133 87q-56 -305 -318 -305z" />
    <glyph glyph-name="M.swsh" unicode="&#xe2ec;" horiz-adv-x="2351" 
d="M379 -285q-170 0 -273 120q-102 120 -73 284q18 102 90 180l84 -78q-51 -57 -62 -119q-18 -114 52 -196q69 -82 187 -82t186 66t85 182l244 1394q-53 92 -111 140t-147 49q-164 0 -201 -170l-22 -113h-119l25 131q25 121 104 191q80 70 212 70t217 -64q85 -63 153 -189
l463 -849l788 833h106l-262 -1495h-118l225 1286l-768 -811l-453 823l-217 -1235q-29 -164 -127 -256t-268 -92z" />
    <glyph glyph-name="N.swsh" unicode="&#xe2ed;" horiz-adv-x="2293" 
d="M549 -330q-209 0 -331 144t-85 348q25 150 143 258l91 -82q-100 -86 -117 -197q-27 -150 62 -255t245 -105t248 104t121 275l215 1226h-535q-104 0 -187 -60t-101 -164t48 -180q64 -77 178 -77t181 78l72 -80q-97 -106 -263 -106q-166 1 -260 115t-69 260t138 234
q114 89 267 89h668l686 -1302l225 1284q33 178 130 279q97 102 270 102t274 -115l-88 -74q-68 82 -190 82q-227 0 -279 -287l-258 -1464h-117l-686 1298l-205 -1169q-38 -211 -160 -335t-331 -124z" />
    </font>
</defs>
</svg>
