<?xml version="1.0" standalone="no"?>
<!DOCTYPE svg PUBLIC "-//W3C//DTD SVG 1.1//EN" "http://www.w3.org/Graphics/SVG/1.1/DTD/svg11.dtd" >
<svg xmlns="http://www.w3.org/2000/svg">
<metadata>
Created by FontPrep 20130207 at Sat Apr 25 19:03:14 2015
 By Andrew Poes
Copyright (c) 2013 by Lucas Sharp. All rights reserved.
</metadata>
<defs>
<font id="2fbf5a289bc751e6f4ade07c609cbe74" horiz-adv-x='1024' >
  <font-face 
    font-family="SharpSansNo1-Light"
    font-weight="740"
    font-stretch="normal"
    units-per-em="2048"
    panose-1="0 0 0 0 0 0 0 0 0 0"
    ascent="1536"
    descent="-512"
    x-height="1024"
    cap-height="1495"
    bbox="-168 -575 2724 2191"
    underline-thickness="102"
    underline-position="-102"
    unicode-range="U+0020-F60B"
  />
<missing-glyph horiz-adv-x="1843" 
d="M852 748l-580 579v-1159zM991 748l580 -580v1159zM342 1397l580 -580l579 580h-1159zM922 678l-580 -580h1159zM174 0v1495h1495v-1495h-1495z" />
    <glyph glyph-name="interrobang" unicode="&#x21;&#x3f;" horiz-adv-x="1089" 
d="M498 0v281h77v-281h-77zM885 1180q0 102 -88 180t-222 86v-191q0 -115 -10 -565q33 72 91 132t107 96q122 88 122 262zM500 1255v191q-213 -16 -316 -207l-67 31q55 110 166 178t277 68t284 -98q119 -98 119 -245q0 -148 -78 -236q-35 -38 -76 -71q-111 -90 -160 -155
q-78 -105 -78 -303v-17h-67q-4 324 -4 864z" />
    <glyph glyph-name="interrobangdown" unicode="&#xa1;&#xbf;" horiz-adv-x="1089" 
d="M584 1024v-281h-78v281h78zM508 -231q0 203 8 567q-48 -108 -156 -195q-42 -33 -80 -69q-84 -79 -83 -205q0 -125 88 -203t223 -86v191zM524 -492q-167 0 -285 98t-118 247q0 150 78 234q35 38 75 71q112 91 160 155q78 105 78 303v17h66q6 -485 6 -864v-191
q215 16 313 207l68 -31q-55 -110 -165 -178t-276 -68z" />
    <glyph glyph-name=".notdef" horiz-adv-x="1843" 
d="M852 748l-580 579v-1159zM991 748l580 -580v1159zM342 1397l580 -580l579 580h-1159zM922 678l-580 -580h1159zM174 0v1495h1495v-1495h-1495z" />
    <glyph glyph-name=".null" horiz-adv-x="0" 
 />
    <glyph glyph-name="nonmarkingreturn" horiz-adv-x="681" 
 />
    <glyph glyph-name="space" unicode=" " horiz-adv-x="526" 
 />
    <glyph glyph-name="exclam" unicode="!" horiz-adv-x="501" 
d="M215 0v281h78v-281h-78zM215 1255v240h78v-240q0 -467 -14 -835h-50q-14 369 -14 835z" />
    <glyph glyph-name="quotedbl" unicode="&#x22;" horiz-adv-x="552" 
d="M342 1323v172h70v-172q0 -166 -21 -299h-29q-20 133 -20 299zM143 1495h70v-172q0 -166 -20 -299h-29q-20 133 -21 299v172z" />
    <glyph glyph-name="numbersign" unicode="#" horiz-adv-x="1716" 
d="M618 991v-467h469v467h-469zM1087 0v453h-469v-453h-75v453h-437v71h437v467h-437v72h437v432h75v-432h469v432h76v-432h447v-72h-447v-467h447v-71h-447v-453h-76z" />
    <glyph glyph-name="dollar" unicode="$" 
d="M205 1149q0 -131 93 -198t269 -120v617q-154 -4 -258 -86t-104 -213zM1014 395q0 149 -108 221q-108 73 -265 119v-686q161 9 267 103t106 243zM643 -246h-78v228q-151 8 -273 67t-198 150l58 53q68 -84 178 -139t237 -64v707q-103 32 -163 56q-186 75 -240 179
q-35 66 -35 156q0 162 123 263t313 106v204h78v-207q266 -18 418 -206l-62 -50q-125 170 -358 189v-635q86 -27 134 -44t117 -53q68 -36 106 -75q94 -97 94 -257q0 -158 -127 -274t-322 -126v-228z" />
    <glyph glyph-name="percent" unicode="%" horiz-adv-x="1763" 
d="M176 1182q0 139 98 236q98 98 236 98t238 -98q98 -98 98 -235q0 -139 -98 -237t-236 -98t-238 97q-98 98 -98 237zM1290 580q-108 0 -186 -79t-78 -189t79 -190t187 -79q108 0 186 80q78 79 78 189t-78 189q-79 79 -188 79zM209 0l1284 1495h100l-1284 -1495h-100z
M956 311q0 139 98 237t236 97q140 0 238 -97q98 -98 98 -236t-98 -236t-238 -98t-236 96q-98 98 -98 237zM246 1182q0 -111 79 -190t187 -79t186 79t78 190q0 112 -78 190t-186 78t-188 -78q-78 -78 -78 -190z" />
    <glyph glyph-name="ampersand" unicode="&#x26;" horiz-adv-x="1564" 
d="M686 45q240 0 430 176l-534 535q-100 100 -117 118q-276 -137 -277 -411q0 -160 129 -289t369 -129zM111 446q0 172 82 292t225 190q-106 135 -107 266t97 226t264 96q106 0 194 -46t135 -118l-61 -41q-39 61 -112 101t-156 40q-129 0 -206 -77t-77 -175t53 -176
t195 -219l530 -531q100 113 160 256q59 143 70 283h-348v70h419v-25q0 -158 -68 -328t-186 -301l232 -229h-103l-178 178q-209 -198 -483 -198t-423 147q-148 147 -148 319z" />
    <glyph glyph-name="quotesingle" unicode="'" horiz-adv-x="354" 
d="M143 1495h70v-172q0 -166 -20 -299h-29q-20 133 -21 299v172z" />
    <glyph glyph-name="parenleft" unicode="(" horiz-adv-x="833" 
d="M123 511q0 642 539 1019l57 -60q-516 -348 -516 -957t524 -962l-51 -61q-553 379 -553 1021z" />
    <glyph glyph-name="parenright" unicode=")" horiz-adv-x="833" 
d="M631 512q0 313 -137 555t-379 406l57 57q539 -377 539 -1017t-553 -1023l-52 64q525 352 525 958z" />
    <glyph glyph-name="asterisk" unicode="*" horiz-adv-x="901" 
d="M741 924l-274 182l20 -338h-73l20 338l-282 -186l-37 65l305 150l-305 151l39 64l280 -187l-20 330h73l-20 -332l274 185l39 -64l-297 -147l297 -148z" />
    <glyph glyph-name="plus" unicode="+" horiz-adv-x="978" 
d="M111 715v65h346v344h65v-344h346v-65h-346v-348h-65v348h-346z" />
    <glyph glyph-name="comma" unicode="," horiz-adv-x="366" 
d="M70 -240l96 418h84l-117 -418h-63z" />
    <glyph glyph-name="hyphen" unicode="-" horiz-adv-x="978" 
d="M111 485v68h757v-68h-757z" />
    <glyph glyph-name="period" unicode="." horiz-adv-x="366" 
d="M145 0v281h78v-281h-78z" />
    <glyph glyph-name="slash" unicode="/" horiz-adv-x="909" 
d="M59 0l709 1495h82l-709 -1495h-82z" />
    <glyph glyph-name="zero" unicode="0" 
d="M602 -20q-211 0 -334 128t-123 351v567q0 221 126 355q126 135 331 135t332 -134t125 -356v-580q0 -222 -123 -344t-334 -122zM602 49q174 1 278 105t103 292v580q0 196 -103 308q-102 112 -276 112t-278 -115t-105 -305v-565q-1 -193 103 -303t278 -109z" />
    <glyph glyph-name="one" unicode="1" 
d="M111 0v72h448v1241q-23 -59 -96 -101q-74 -41 -154 -41h-22v78h10q135 0 200 76t64 170h74v-1423h459v-72h-983z" />
    <glyph glyph-name="two" unicode="2" 
d="M137 0v82q0 190 191 359q107 95 214 170t134 95t90 71q63 50 89 80t63 76q63 78 63 181q0 146 -104 240t-271 94q-270 0 -397 -270l-70 36q66 134 186 218t301 84t307 -115t126 -287q0 -118 -88 -242q-58 -79 -214 -199q-40 -31 -138 -101q-97 -70 -149 -110t-123 -108
q-130 -125 -130 -272v-8h862v-74h-942z" />
    <glyph glyph-name="three" unicode="3" 
d="M582 -20q-307 0 -469 192l61 49q63 -76 172 -124t238 -48q176 0 292 97t116 253t-119 248q-118 92 -293 92h-164v72h164q170 0 275 88q105 87 105 231t-109 231q-110 87 -276 87q-115 0 -215 -49t-155 -115l-62 45q70 78 184 132t251 55q200 0 328 -106t128 -277
q0 -131 -70 -224q-71 -92 -200 -133q141 -39 222 -136t81 -243q0 -185 -134 -301t-351 -116z" />
    <glyph glyph-name="four" unicode="4" 
d="M817 455v913l-624 -913h624zM817 0v385h-702l-9 72l711 1038h76v-1040h219v-70h-219v-385h-76z" />
    <glyph glyph-name="five" unicode="5" 
d="M584 -20q-146 0 -266 58t-191 163l70 45q135 -197 387 -197q182 0 304 125q122 126 122 320t-130 305t-305 110q-104 0 -208 -52t-148 -126l-74 23l117 741h725v-72h-663l-91 -579q59 59 153 97t189 38q209 0 360 -128q151 -127 151 -357t-140 -372q-139 -142 -362 -142z
" />
    <glyph glyph-name="six" unicode="6" 
d="M602 49q174 0 292 122t118 292t-120 291q-120 120 -290 120t-290 -120t-120 -291q0 -170 118 -292t292 -122zM603 -20q-208 0 -347 140t-139 343q0 160 88 287l491 745h92l-403 -608q104 57 223 57q205 0 342 -139t137 -343t-138 -343t-346 -139z" />
    <glyph glyph-name="seven" unicode="7" 
d="M117 1421v74h970v-68l-655 -1427h-84l658 1421h-889z" />
    <glyph glyph-name="eight" unicode="8" 
d="M602 831q158 1 253 89t95 220t-96 220t-253 88t-251 -88t-94 -220t94 -220t252 -89zM603 49q185 1 297 103t112 254t-111 256t-299 104t-299 -104t-111 -256t114 -254q112 -102 297 -103zM603 -20q-222 0 -354 120t-132 306q0 139 80 244t223 153q-113 43 -175 132
t-63 204q0 161 117 269t302 108t303 -109t118 -268q0 -113 -64 -202t-174 -134q144 -47 224 -151t79 -244q0 -184 -131 -306t-353 -122z" />
    <glyph glyph-name="nine" unicode="9" 
d="M602 621q168 1 289 121t121 290t-121 292t-289 122t-289 -122t-121 -291t121 -291q121 -121 289 -121zM594 551q-199 0 -338 140t-139 342t141 342q141 141 345 141t344 -142t140 -342q0 -156 -88 -287l-491 -745h-92l401 606q-104 -55 -223 -55z" />
    <glyph glyph-name="colon" unicode=":" horiz-adv-x="366" 
d="M145 743v281h76v-281h-76zM145 0v281h76v-281h-76z" />
    <glyph glyph-name="semicolon" unicode=";" horiz-adv-x="366" 
d="M70 -240l96 418h84l-117 -418h-63zM145 743v281h76v-281h-76z" />
    <glyph glyph-name="less" unicode="&#x3c;" horiz-adv-x="978" 
d="M868 416l-757 303v67l757 295v-73l-673 -256l673 -265v-71z" />
    <glyph glyph-name="equal" unicode="=" horiz-adv-x="978" 
d="M111 547v67h757v-67h-757zM111 872v68h757v-68h-757z" />
    <glyph glyph-name="greater" unicode="&#x3e;" horiz-adv-x="978" 
d="M111 416v71l673 265l-673 256v73l757 -295v-67z" />
    <glyph glyph-name="question" unicode="?" horiz-adv-x="1089" 
d="M479 0v281h78v-281h-78zM481 391v17q0 145 42 246q41 100 101 154t118 98q143 108 143 265q-1 121 -99 199t-243 78q-248 0 -359 -209l-67 31q55 110 165 178t276 68t285 -96q120 -96 120 -244q0 -149 -81 -240q-36 -39 -80 -73q-119 -92 -168 -156q-83 -108 -81 -299
v-17h-72z" />
    <glyph glyph-name="at" unicode="@" horiz-adv-x="1773" 
d="M911 825q-115 0 -199 -82t-100 -212t54 -219t187 -89t187 88t83 214t-42 213t-170 87zM887 -256q-317 0 -541 224q-223 224 -223 542t231 544q230 226 550 226t534 -205t215 -485q0 -172 -83 -302t-222 -130q-186 0 -224 176q-36 -76 -108 -127t-190 -51t-213 98t-78 270
q23 178 125 274q103 95 241 95q92 0 158 -49t88 -125l18 162h72l-41 -371q-29 -283 156 -283q100 1 164 105t63 256q0 254 -193 439q-194 185 -482 185t-496 -206t-207 -495q-1 -290 199 -495q200 -204 493 -204t496 217l57 -45q-104 -112 -250 -176t-309 -64z" />
    <glyph glyph-name="A" unicode="A" horiz-adv-x="1415" 
d="M709 1391l-336 -863h671zM84 0l584 1495h80l583 -1495h-80l-180 459h-727l-178 -459h-82z" />
    <glyph glyph-name="B" unicode="B" horiz-adv-x="1325" 
d="M754 1425h-516v-618h538q137 0 228 89q90 89 90 220t-98 220t-242 89zM782 737h-544v-667h542q150 0 248 96t98 237t-97 237t-247 97zM162 0v1495h596q176 0 296 -109t120 -270q0 -119 -65 -210t-175 -130q125 -39 199 -139t73 -236q0 -173 -120 -287t-302 -114h-622z
" />
    <glyph glyph-name="C" unicode="C" horiz-adv-x="1648" 
d="M881 -20q-317 0 -543 225q-225 225 -225 543t225 542q225 225 543 226q203 0 377 -100t276 -269l-64 -37q-92 154 -246 244t-343 90q-287 0 -488 -204t-201 -492t202 -493q200 -204 487 -204q197 0 359 96t251 261l68 -35q-101 -181 -281 -287t-397 -106z" />
    <glyph glyph-name="D" unicode="D" horiz-adv-x="1464" 
d="M575 1423h-337v-1351h340q294 0 494 194t200 482q0 286 -200 480t-497 195zM162 0v1495h418q328 0 550 -216q222 -215 222 -533t-224 -532t-546 -214h-420z" />
    <glyph glyph-name="E" unicode="E" horiz-adv-x="1212" 
d="M162 0v1495h919v-72h-843v-639h843v-71h-843v-639h843v-74h-919z" />
    <glyph glyph-name="F" unicode="F" horiz-adv-x="1122" 
d="M162 0v1495h846v-72h-770v-641h770v-69h-770v-713h-76z" />
    <glyph glyph-name="G" unicode="G" horiz-adv-x="1748" 
d="M1645 745q0 -325 -210 -545t-544 -220t-556 223t-222 543t226 545q226 224 554 225q211 0 382 -98t271 -267l-63 -39q-88 156 -243 244t-349 88q-297 0 -498 -203t-201 -493t198 -494q198 -203 493 -203t481 182t203 461h-693v72h771v-21z" />
    <glyph glyph-name="H" unicode="H" horiz-adv-x="1415" 
d="M1178 0v713h-940v-713h-76v1495h76v-711h940v711h75v-1495h-75z" />
    <glyph glyph-name="I" unicode="I" horiz-adv-x="438" 
d="M180 0v1495h78v-1495h-78z" />
    <glyph glyph-name="J" unicode="J" horiz-adv-x="989" 
d="M453 -20q-272 0 -367 213l68 40q78 -184 297 -184q145 0 226 91t81 241v1114h76v-1112q0 -183 -102 -293t-279 -110z" />
    <glyph glyph-name="K" unicode="K" horiz-adv-x="1337" 
d="M240 0h-78v1495h78v-965l856 965h96l-533 -602l613 -893h-90l-578 840l-364 -412v-428z" />
    <glyph glyph-name="L" unicode="L" horiz-adv-x="1089" 
d="M162 0v1495h76v-1421h751v-74h-827z" />
    <glyph glyph-name="M" unicode="M" horiz-adv-x="1785" 
d="M162 0v1495h76l645 -895l669 895h74v-1495h-78v1368l-665 -895l-645 889v-1362h-76z" />
    <glyph glyph-name="N" unicode="N" horiz-adv-x="1525" 
d="M162 0v1495h82l1044 -1376v1376h76v-1495h-80l-1046 1376v-1376h-76z" />
    <glyph glyph-name="O" unicode="O" horiz-adv-x="1763" 
d="M882 51q288 0 488 204t201 493q0 288 -201 492q-200 204 -488 204t-489 -204t-201 -492t202 -493q200 -204 488 -204zM881 -20q-317 0 -543 225q-225 225 -225 543t225 542q224 226 542 226t543 -226t225 -542t-224 -542q-226 -226 -543 -226z" />
    <glyph glyph-name="P" unicode="P" horiz-adv-x="1259" 
d="M594 1423h-356v-860h356q217 0 346 121t129 310t-129 309t-346 120zM162 0v1495h436q248 0 398 -140q150 -139 151 -359q0 -220 -151 -362t-398 -142h-360v-492h-76z" />
    <glyph glyph-name="Q" unicode="Q" horiz-adv-x="1763" 
d="M1571 750q0 286 -201 490q-200 204 -488 204t-489 -204t-201 -492t202 -493q200 -204 487 -204q180 0 344 101l51 -58q-184 -115 -395 -114q-317 0 -543 225q-225 225 -225 543t225 542q224 226 542 226t543 -226t225 -546t-235 -545l176 -199h-98l-514 586h96l293 -332
q205 209 205 496z" />
    <glyph glyph-name="R" unicode="R" horiz-adv-x="1202" 
d="M162 0v1495h452q199 0 337 -134q139 -135 139 -317t-116 -311t-294 -147l416 -586h-92l-453 645h57q170 0 287 116q117 117 117 277t-116 273t-286 112h-372v-1423h-76z" />
    <glyph glyph-name="S" unicode="S" horiz-adv-x="1130" 
d="M137 244q155 -195 428 -195q147 0 261 95t114 255q0 117 -79 201q-32 33 -92 65t-103 47t-122 41t-124 42t-111 51q-65 35 -99 72q-84 93 -85 243q0 150 123 252t307 103q266 0 418 -187l-62 -45q-119 162 -358 162q-147 0 -249 -83t-103 -204q0 -121 59 -180
q33 -33 68 -62t114 -55q78 -26 162 -53t146 -53q180 -78 234 -193q34 -70 34 -164q0 -183 -135 -301t-338 -118q-147 0 -271 58t-200 157z" />
    <glyph glyph-name="T" unicode="T" horiz-adv-x="1249" 
d="M586 0v1423h-484v72h1045v-72h-485v-1423h-76z" />
    <glyph glyph-name="U" unicode="U" horiz-adv-x="1329" 
d="M664 -20q-215 0 -362 147q-146 147 -146 358v1010h75v-1010q0 -182 126 -308q127 -126 307 -126t307 126t127 308v1010h76v-1008q0 -213 -148 -360t-362 -147z" />
    <glyph glyph-name="V" unicode="V" horiz-adv-x="1394" 
d="M657 0l-575 1495h82l532 -1389l535 1389h82l-578 -1495h-78z" />
    <glyph glyph-name="W" unicode="W" horiz-adv-x="2201" 
d="M543 0l-447 1495h84l404 -1374l477 1374h74l477 -1376l411 1376h80l-452 -1495h-78l-475 1372l-477 -1372h-78z" />
    <glyph glyph-name="X" unicode="X" horiz-adv-x="1331" 
d="M1163 0l-499 717l-496 -717h-88l541 774l-496 721h86l457 -657l450 657h90l-497 -717l540 -778h-88z" />
    <glyph glyph-name="Y" unicode="Y" horiz-adv-x="1241" 
d="M584 0v713l-508 782h88l457 -709l456 709h88l-506 -782v-713h-75z" />
    <glyph glyph-name="Z" unicode="Z" horiz-adv-x="1224" 
d="M113 0v72l901 1351h-858v72h950v-70l-903 -1351h909v-74h-999z" />
    <glyph glyph-name="bracketleft" unicode="[" horiz-adv-x="780" 
d="M111 -471v1966h559v-72h-484v-1822h484v-72h-559z" />
    <glyph glyph-name="backslash" unicode="\" horiz-adv-x="909" 
d="M768 0l-709 1495h82l709 -1495h-82z" />
    <glyph glyph-name="bracketright" unicode="]" horiz-adv-x="780" 
d="M111 -471v70h483v1824h-483v72h559v-1966h-559z" />
    <glyph glyph-name="asciicircum" unicode="^" horiz-adv-x="1038" 
d="M231 1024l261 338h49l266 -338h-82l-209 266l-201 -266h-84z" />
    <glyph glyph-name="underscore" unicode="_" horiz-adv-x="1046" 
d="M111 -88v68h825v-68h-825z" />
    <glyph glyph-name="grave" unicode="`" horiz-adv-x="1038" 
d="M606 1174l-276 301h102l252 -301h-78z" />
    <glyph glyph-name="a" unicode="a" horiz-adv-x="1312" 
d="M182 512q0 -193 132 -328t324 -135t324 135t132 328t-132 328t-324 135t-324 -135t-132 -328zM635 -20q-221 0 -376 156t-155 376q0 221 154 377t377 155q145 0 271 -78t181 -214v272h74v-1024h-74v272q-55 -136 -181 -214t-271 -78z" />
    <glyph glyph-name="b" unicode="b" horiz-adv-x="1316" 
d="M678 49q190 0 322 135t133 328q-1 193 -133 328t-322 135t-324 -135t-133 -328q-1 -193 133 -328t324 -135zM682 -20q-145 0 -270 76t-183 212v-268h-71v1495h71v-739q57 135 183 212t270 76q221 0 375 -156q153 -156 153 -376q0 -221 -153 -377q-154 -155 -375 -155z
" />
    <glyph glyph-name="c" unicode="c" horiz-adv-x="1228" 
d="M639 -20q-225 0 -380 156t-155 377q0 222 156 377t379 154q164 0 295 -88t192 -229l-71 -31q-55 127 -165 203t-251 76q-189 0 -323 -135t-134 -328t133 -328t326 -135q143 0 254 78t164 205l71 -31q-63 -145 -193 -233t-298 -88z" />
    <glyph glyph-name="d" unicode="d" horiz-adv-x="1316" 
d="M182 512q0 -193 132 -328t324 -135t324 135t132 328t-132 328t-324 135t-324 -135t-132 -328zM635 -20q-221 0 -376 156t-155 376q0 221 154 377t377 155q143 0 268 -76t182 -212v739h74v-1495h-72v272q-55 -136 -181 -214t-271 -78z" />
    <glyph glyph-name="e" unicode="e" horiz-adv-x="1267" 
d="M640 977q-187 0 -315 -122t-145 -300h903q-10 184 -133 303t-310 119zM643 -20q-246 0 -392 150q-147 150 -147 378q0 227 153 382q153 154 380 154t375 -149q147 -150 147 -375v-35h-981q8 -190 134 -314t331 -124q311 0 428 301l66 -31q-138 -337 -494 -337z" />
    <glyph glyph-name="f" unicode="f" horiz-adv-x="684" 
d="M70 956v68h174v117q0 211 70 283t278 71h8v-72q-176 0 -228 -51t-53 -233v-115h281v-68h-281v-956h-75v956h-174z" />
    <glyph glyph-name="g" unicode="g" horiz-adv-x="1314" 
d="M182 512q0 -193 132 -328t324 -135t324 135t132 328t-132 328t-324 135t-324 -135t-132 -328zM635 -20q-221 0 -376 156t-155 376q0 221 154 377t377 155q145 0 271 -78t181 -214v272h74v-1004q0 -236 -140 -374t-368 -140q-360 0 -475 281l72 27q98 -240 403 -240
q197 0 316 121t118 325v252q-55 -136 -181 -214t-271 -78z" />
    <glyph glyph-name="h" unicode="h" horiz-adv-x="1249" 
d="M158 0v1495h71v-707q49 113 160 185t252 71q209 0 335 -126t126 -343v-575h-74v578q0 182 -106 290t-282 109q-176 0 -292 -115q-117 -115 -117 -284v-578h-73z" />
    <glyph glyph-name="i" unicode="i" horiz-adv-x="378" 
d="M152 1192v303h75v-303h-75zM152 0v1024h75v-1024h-75z" />
    <glyph glyph-name="j" unicode="j" horiz-adv-x="380" 
d="M154 1192v303h75v-303h-75zM-129 -467v74q174 0 228 51t55 231v1135h75v-1137q-1 -211 -73 -283t-275 -71h-10z" />
    <glyph glyph-name="k" unicode="k" horiz-adv-x="1050" 
d="M231 0h-73v1495h73v-1116l617 645h96l-409 -426l446 -598h-88l-412 551l-250 -264v-287z" />
    <glyph glyph-name="l" unicode="l" horiz-adv-x="389" 
d="M158 0v1495h73v-1495h-73z" />
    <glyph glyph-name="m" unicode="m" horiz-adv-x="2054" 
d="M152 0v1024h73v-225q47 111 151 179t250 66q148 0 255 -74q106 -75 145 -206q43 123 158 202t266 78q207 0 332 -126t125 -330v-588h-74v592q1 170 -105 276t-276 106t-282 -102q-112 -104 -111 -274v-598h-74v610q0 166 -100 266q-101 100 -271 99q-170 0 -278 -110
t-109 -285v-580h-75z" />
    <glyph glyph-name="n" unicode="n" horiz-adv-x="1245" 
d="M152 0v1024h73v-236q49 113 160 185t252 71q207 0 334 -126t127 -343v-575h-76v578q0 182 -106 290t-280 107q-175 0 -292 -114t-117 -283v-578h-75z" />
    <glyph glyph-name="o" unicode="o" horiz-adv-x="1273" 
d="M637 49q190 0 322 135t133 328q0 193 -132 328t-323 135t-323 -135t-132 -328t132 -328t323 -135zM637 -20q-221 0 -377 154t-156 378q0 223 156 378q156 154 377 154t377 -154t156 -378q0 -223 -156 -378q-156 -154 -377 -154z" />
    <glyph glyph-name="p" unicode="p" horiz-adv-x="1310" 
d="M672 49q192 0 324 135t132 328t-132 328t-324 135t-324 -135q-133 -135 -133 -328t133 -328q132 -135 324 -135zM676 -20q-147 0 -270 74t-181 208v-733h-73v1495h73v-264q57 133 183 209t268 75q223 0 377 -156q153 -156 153 -376q0 -221 -154 -377q-155 -155 -376 -155
z" />
    <glyph glyph-name="q" unicode="q" horiz-adv-x="1312" 
d="M182 512q0 -193 132 -328t324 -135t324 135t132 328t-132 328t-324 135t-324 -135t-132 -328zM635 -20q-221 0 -376 156t-155 376q0 221 154 377t377 155q145 0 271 -78t181 -214v272h72v-1495h-74v735q-55 -136 -179 -210t-271 -74z" />
    <glyph glyph-name="r" unicode="r" horiz-adv-x="770" 
d="M152 0v1024h73v-264q43 120 145 192t240 72h66v-72h-66q-174 0 -278 -112t-105 -303v-537h-75z" />
    <glyph glyph-name="s" unicode="s" horiz-adv-x="940" 
d="M127 215q117 -168 355 -168q124 0 202 67t78 153t-53 131t-121 64q-68 18 -140 38q-247 66 -303 164q-27 47 -26 110q0 115 94 193t248 77q221 0 344 -141l-55 -45q-109 121 -289 121q-123 0 -196 -56t-73 -136t51 -125q50 -45 117 -62q249 -66 313 -96q64 -29 92 -55
q71 -68 71 -180q0 -111 -98 -200t-277 -89q-123 0 -229 53t-164 135z" />
    <glyph glyph-name="t" unicode="t" horiz-adv-x="686" 
d="M59 956v68h181v236l73 53v-289h281v-68h-281v-600q1 -180 55 -233t226 -53v-70h-10q-205 0 -275 71t-69 283v602h-181z" />
    <glyph glyph-name="u" unicode="u" horiz-adv-x="1245" 
d="M612 -20q-213 0 -339 124t-126 345v575h76v-578q-1 -182 105 -290t282 -107q176 0 293 114t117 283v578h74v-1024h-72v242q-47 -114 -158 -188t-252 -74z" />
    <glyph glyph-name="v" unicode="v" horiz-adv-x="1040" 
d="M481 0l-401 1024h82l358 -922l359 922h82l-404 -1024h-76z" />
    <glyph glyph-name="w" unicode="w" horiz-adv-x="1689" 
d="M412 0l-326 1024h80l285 -901l364 901h68l348 -907l293 907h80l-338 -1024h-68l-352 915l-369 -915h-65z" />
    <glyph glyph-name="x" unicode="x" horiz-adv-x="1075" 
d="M70 0l419 524l-397 500h90l355 -444l356 444h90l-401 -500l422 -524h-93l-376 467l-371 -467h-94z" />
    <glyph glyph-name="y" unicode="y" horiz-adv-x="1144" 
d="M303 -473l244 530l-467 967h84l422 -881l397 881h82l-680 -1497h-82z" />
    <glyph glyph-name="z" unicode="z" horiz-adv-x="1101" 
d="M100 0v72l801 882h-772v70h866v-72l-800 -882h806v-70h-901z" />
    <glyph glyph-name="braceleft" unicode="{" horiz-adv-x="835" 
d="M745 -471h-22q-256 0 -353 96t-98 348v277q0 129 -34 176q-35 47 -158 47v76q123 0 158 46t34 175v281q0 252 98 348t353 96h22v-70q-237 1 -317 -77t-80 -299v-281q0 -113 -29 -173t-100 -85q74 -23 102 -84t27 -174v-277q0 -221 80 -299t317 -77v-70z" />
    <glyph glyph-name="bar" unicode="|" horiz-adv-x="364" 
d="M145 -471v1966h76v-1966h-76z" />
    <glyph glyph-name="braceright" unicode="}" horiz-adv-x="835" 
d="M90 -471v72q238 1 318 77t79 297v277q0 113 27 174t102 84q-72 25 -100 85t-29 173v281q0 221 -79 298q-80 77 -318 76v72h23q256 0 353 -96t97 -348v-281q0 -129 35 -175t158 -46v-76q-123 0 -158 -47t-35 -176v-277q0 -252 -97 -348t-353 -96h-23z" />
    <glyph glyph-name="asciitilde" unicode="~" horiz-adv-x="894" 
d="M305 1315q68 1 166 -59t143 -60q96 0 115 107h62q-7 -82 -53 -129q-46 -48 -118 -48t-149 50l-37 20q-74 49 -127 49q-84 0 -102 -106h-72q10 80 57 128t115 48z" />
    <glyph glyph-name="exclamdown" unicode="&#xa1;" horiz-adv-x="501" 
d="M215 743v281h78v-281h-78zM215 -471v240q0 467 14 835h47q16 -420 17 -835v-240h-78z" />
    <glyph glyph-name="cent" unicode="&#xa2;" 
d="M575 -266v248q-201 12 -325 151t-125 379q0 240 125 379t325 151v248h76v-248q151 -8 265 -92t159 -233l-69 -31q-42 141 -146 215t-246 74q-180 0 -297 -122t-117 -342t118 -341q116 -121 300 -121q143 0 247 76q103 76 143 217l71 -29q-45 -155 -157 -239t-271 -92
v-248h-76z" />
    <glyph glyph-name="sterling" unicode="&#xa3;" 
d="M313 41q139 0 195 119q-126 92 -194 92t-100 -30t-32 -77t34 -75t97 -29zM186 678v63h197q-51 80 -76 126t-50 124q-26 78 -26 154q1 164 107 267q106 104 260 104t256 -62t154 -170l-70 -39q-96 199 -324 199q-139 0 -222 -84t-83 -217q-1 -60 9 -91q10 -32 15 -50
q23 -87 132 -261h407v-63h-370q106 -195 106 -352q0 -74 -22 -142q59 -46 92 -68q99 -68 182 -67q131 0 131 148v82h76v-82q0 -217 -211 -217q-91 0 -203 71q-37 25 -94 70q-80 -141 -246 -141q-96 0 -149 46t-53 122t52 122t142 47q90 0 225 -92q10 47 11 99
q0 160 -119 354h-236z" />
    <glyph glyph-name="currency" unicode="&#xa4;" horiz-adv-x="1583" 
d="M803 279q190 0 322 135q132 136 132 328t-132 327t-322 135q-189 0 -323 -135t-134 -328t134 -327t323 -135zM801 209q-199 0 -346 127l-193 -199l-49 47l193 199q-136 151 -136 357t136 358l-191 198l47 47l191 -200q147 131 347 131t347 -125l176 184l49 -45l-178 -186
q141 -152 141 -362t-141 -361l174 -180l-45 -49l-178 182q-145 -123 -344 -123z" />
    <glyph glyph-name="yen" unicode="&#xa5;" 
d="M215 752v65h356v8l-434 670h88l383 -598l385 598h88l-432 -668v-10h350v-65h-350v-271h350v-65h-350v-416h-78v416h-356v65h356v271h-356z" />
    <glyph glyph-name="brokenbar" unicode="&#xa6;" horiz-adv-x="393" 
d="M145 -471v860h76v-860h-76zM145 635v860h76v-860h-76z" />
    <glyph glyph-name="section" unicode="&#xa7;" horiz-adv-x="1243" 
d="M209 814q0 -94 69 -136q108 -69 359 -111q127 -25 209 -51q86 27 131 79q45 51 44 103t-19 87t-91 70q-72 34 -153 50q-80 16 -188 36t-183 50q-84 -20 -131 -73q-47 -52 -47 -104zM1047 282q0 -138 -123 -220q-124 -82 -320 -82t-309 94t-119 231l78 12q4 -119 96 -197
t252 -77q160 0 265 60t105 182t-154 172q-82 26 -209 50q-125 23 -193 41q-190 52 -246 131q-35 48 -35 119t49 133t138 93q-119 70 -119 204t112 211q113 77 303 77t298 -90t112 -224l-74 -12q-4 120 -91 192t-241 72t-249 -57q-97 -57 -97 -167t90 -156t240 -74t216 -44
q66 -18 136 -50q136 -62 136 -189q0 -74 -47 -137t-129 -95q129 -65 129 -203z" />
    <glyph glyph-name="dieresis" unicode="&#xa8;" horiz-adv-x="1042" 
d="M365 1178v286h73v-286h-73zM569 1178v286h74v-286h-74z" />
    <glyph glyph-name="copyright" unicode="&#xa9;" horiz-adv-x="1779" 
d="M897 342q-168 0 -286 119q-117 119 -117 285t117 285q118 118 286 118q109 0 201 -51t145 -137l-65 -43q-43 72 -118 116t-163 43q-137 0 -233 -97q-96 -96 -96 -234t96 -234t233 -96q94 0 171 48t118 126l67 -39q-53 -93 -148 -151t-208 -58zM891 49q289 0 491 205
t201 494q0 290 -202 494q-203 204 -491 204t-490 -205t-202 -493t202 -494q202 -205 491 -205zM891 -20q-317 0 -543 225q-225 225 -225 543t225 542q224 226 542 226t544 -226t225 -542q0 -317 -225 -543q-226 -225 -543 -225z" />
    <glyph glyph-name="ordfeminine" unicode="&#xaa;" horiz-adv-x="870" 
d="M451 950q104 0 174 72t69 176q0 104 -69 177q-70 73 -174 73q-103 0 -177 -72t-74 -176t74 -177q73 -73 177 -73zM440 891q-121 0 -211 88t-90 220t90 220t211 88q80 0 147 -38t103 -103v129h62v-592h-62v129q-34 -66 -102 -104t-148 -37z" />
    <glyph glyph-name="guillemotleft" unicode="&#xab;" horiz-adv-x="894" 
d="M444 244l-301 241v52l301 241v-67l-249 -201l249 -201v-65zM754 244l-303 241v52l303 241v-67l-252 -201l252 -201v-65z" />
    <glyph glyph-name="logicalnot" unicode="&#xac;" horiz-adv-x="1234" 
d="M1067 410v530h-987v74h1063v-604h-76z" />
    <glyph glyph-name="uni00AD" unicode="&#xad;" horiz-adv-x="978" 
d="M111 485v68h757v-68h-757z" />
    <glyph glyph-name="registered" unicode="&#xae;" horiz-adv-x="860" 
d="M319 1044v316h132q49 0 79 -28t31 -70q0 -86 -78 -99l82 -119h-61l-107 160h31q82 0 82 54t-80 55h-61v-269h-50zM430 930q110 0 188 79t78 189t-78 190q-78 78 -188 78t-188 -78t-78 -190t78 -190t188 -78zM430 881q-131 0 -224 93t-93 224t93 224q93 94 224 94t224 -94
q94 -94 94 -224q0 -131 -94 -224t-224 -93z" />
    <glyph glyph-name="macron" unicode="&#xaf;" horiz-adv-x="1038" 
d="M250 1174v65h541v-65h-541z" />
    <glyph glyph-name="degree" unicode="&#xb0;" horiz-adv-x="892" 
d="M446 1190q53 0 92 38q38 38 37 91q0 53 -37 91q-38 38 -92 38t-91 -38q-38 -38 -38 -91t38 -91t91 -38zM446 1126q-80 0 -137 58t-57 138q0 81 57 137q57 57 137 57t138 -56t57 -138q1 -80 -57 -138t-138 -58z" />
    <glyph glyph-name="plusminus" unicode="&#xb1;" horiz-adv-x="978" 
d="M111 274v68h757v-68h-757zM111 907v68h346v342h65v-342h346v-68h-346v-348h-65v348h-346z" />
    <glyph glyph-name="twosuperior" unicode="&#xb2;" horiz-adv-x="716" 
d="M90 631v71q0 64 43 126t87 98t123 90q79 55 114 82t71 77q37 51 37 113t-55 110t-137 48q-160 0 -228 -143l-61 30q84 174 281 174q121 -1 195 -67t75 -168q0 -62 -41 -122t-81 -92t-119 -87t-118 -85q-38 -30 -76 -81t-38 -103v-6h477v-65h-549z" />
    <glyph glyph-name="threesuperior" unicode="&#xb3;" horiz-adv-x="692" 
d="M336 618q-174 0 -270 113l59 45q72 -94 211 -94q92 0 152 52t61 134t-61 130t-156 49h-80v65h80q90 0 144 47t54 121t-54 120t-130 46t-130 -28q-52 -28 -79 -66l-57 37q90 119 272 119q102 0 174 -62q72 -61 72 -164q0 -147 -137 -203q158 -55 157 -211q0 -110 -78 -180
t-204 -70z" />
    <glyph glyph-name="acute" unicode="&#xb4;" horiz-adv-x="1038" 
d="M330 1174l252 301h102l-276 -301h-78z" />
    <glyph glyph-name="mu" unicode="&#xb5;" horiz-adv-x="1251" 
d="M152 -471v1495h75v-573q0 -176 114 -289t283 -113q168 0 284 114t116 283v578h74v-1024h-72v238q-49 -115 -158 -187q-109 -71 -245 -71t-238 62t-158 163v-676h-75z" />
    <glyph glyph-name="mu" unicode="&#x3bc;" horiz-adv-x="1251" 
d="M152 -471v1495h75v-573q0 -176 114 -289t283 -113q168 0 284 114t116 283v578h74v-1024h-72v238q-49 -115 -158 -187q-109 -71 -245 -71t-238 62t-158 163v-676h-75z" />
    <glyph glyph-name="paragraph" unicode="&#xb6;" horiz-adv-x="1120" 
d="M711 0v618h-187q-190 0 -317 127t-127 311t127 312q127 127 315 127h455v-1495h-72v1427h-123v-1427h-71z" />
    <glyph glyph-name="periodcentered" unicode="&#xb7;" horiz-adv-x="366" 
d="M145 371v280h78v-280h-78z" />
    <glyph glyph-name="cedilla" unicode="&#xb8;" horiz-adv-x="1038" 
d="M520 -453q-162 0 -268 107l61 39q95 -86 193 -86t152 35t54 86t-54 81t-144 29h-47v162h63v-113q115 0 186 -43q70 -44 70 -118t-74 -126t-192 -53z" />
    <glyph glyph-name="onesuperior" unicode="&#xb9;" horiz-adv-x="569" 
d="M84 631v65h174v666q-14 -32 -56 -56t-87 -24h-15v72h6q78 0 116 43t38 98h68v-799h168v-65h-412z" />
    <glyph glyph-name="ordmasculine" unicode="&#xba;" horiz-adv-x="892" 
d="M446 952q102 0 174 72q70 72 70 175t-70 176q-72 73 -174 73t-174 -74t-72 -176t72 -174t174 -72zM447 1507q127 0 217 -90t90 -218t-90 -218t-217 -90q-128 0 -218 90t-90 218t90 218t218 90z" />
    <glyph glyph-name="guillemotright" unicode="&#xbb;" horiz-adv-x="894" 
d="M143 244v65l248 201l-248 203v67l301 -241v-54zM451 244v65l249 201l-249 203v67l303 -241v-54z" />
    <glyph glyph-name="onequarter" unicode="&#xbc;" horiz-adv-x="1544" 
d="M1251 262v494l-346 -494h346zM84 631v65h174v666q-14 -32 -56 -56t-87 -24h-15v72h6q78 0 116 43t38 98h68v-799h168v-65h-412zM207 0l1079 1495h90l-1079 -1495h-90zM1251 0v199h-422v63l420 602h70v-602h127v-63h-127v-199h-68z" />
    <glyph glyph-name="onehalf" unicode="&#xbd;" horiz-adv-x="1671" 
d="M84 631v65h174v666q-14 -32 -56 -56t-87 -24h-15v72h6q78 0 116 43t38 98h68v-799h168v-65h-412zM1040 0v72q0 64 43 126t87 97t123 90t114 82t72 77t37 112t-56 111q-56 48 -137 48q-159 0 -227 -143l-62 30q84 174 281 175q121 0 195 -67t75 -169q0 -61 -41 -121
t-81 -93q-40 -32 -119 -87q-80 -55 -118 -85t-76 -81t-38 -102v-6h477v-66h-549zM207 0l1079 1495h90l-1079 -1495h-90z" />
    <glyph glyph-name="threequarters" unicode="&#xbe;" horiz-adv-x="1671" 
d="M1376 262v494l-346 -494h346zM336 618q-174 0 -270 113l59 45q72 -94 211 -94q92 0 152 52t61 134t-61 130t-156 49h-80v65h80q90 0 144 47t54 121t-54 120t-130 46t-130 -28q-52 -28 -79 -66l-57 37q90 119 272 119q102 0 174 -62q72 -61 72 -164q0 -147 -137 -203
q158 -55 157 -211q0 -110 -78 -180t-204 -70zM334 0l1079 1495h90l-1079 -1495h-90zM1376 0v199h-422v63l420 602h70v-602h127v-63h-127v-199h-68z" />
    <glyph glyph-name="questiondown" unicode="&#xbf;" horiz-adv-x="1089" 
d="M524 743v281h78v-281h-78zM523 -492q-166 0 -286 96t-120 246q0 151 81 238q36 39 118 102t123 119q89 117 87 307v17h74v-17q0 -123 -30 -215t-74 -141t-98 -96t-99 -81t-75 -93t-29 -137q0 -121 99 -199t245 -78q248 0 356 209l68 -31q-55 -110 -165 -178t-275 -68z
" />
    <glyph glyph-name="Agrave" unicode="&#xc0;" horiz-adv-x="1415" 
d="M664 1645l-277 301h102l252 -301h-77zM709 1391l-336 -863h671zM84 0l584 1495h80l583 -1495h-80l-180 459h-727l-178 -459h-82z" />
    <glyph glyph-name="Aacute" unicode="&#xc1;" horiz-adv-x="1415" 
d="M662 1645l251 301h103l-277 -301h-77zM709 1391l-336 -863h671zM84 0l584 1495h80l583 -1495h-80l-180 459h-727l-178 -459h-82z" />
    <glyph glyph-name="Acircumflex" unicode="&#xc2;" horiz-adv-x="1415" 
d="M424 1645l244 301h65l244 -301h-82l-195 239l-192 -239h-84zM709 1391l-336 -863h671zM84 0l584 1495h80l583 -1495h-80l-180 459h-727l-178 -459h-82z" />
    <glyph glyph-name="Atilde" unicode="&#xc3;" horiz-adv-x="1415" 
d="M342 1645q0 88 50 142t124 54q74 1 189 -69t169 -70q121 0 121 133h66q0 -94 -50 -146q-112 -116 -333 19q-104 66 -156 66t-84 -34q-33 -34 -32 -95h-64zM709 1391l-336 -863h671zM84 0l584 1495h80l583 -1495h-80l-180 459h-727l-178 -459h-82z" />
    <glyph glyph-name="Adieresis" unicode="&#xc4;" horiz-adv-x="1415" 
d="M565 1649v286h74v-286h-74zM770 1649v286h74v-286h-74zM709 1391l-336 -863h671zM84 0l584 1495h80l583 -1495h-80l-180 459h-727l-178 -459h-82z" />
    <glyph glyph-name="Aring" unicode="&#xc5;" horiz-adv-x="1415" 
d="M703 1499q50 0 89 37q38 37 38 88t-38 89t-88 38t-88 -39q-36 -39 -36 -89t36 -87t87 -37zM709 1391l-336 -863h671zM516 1631q0 71 55 126t133 55t134 -54t55 -124q0 -70 -36 -120q-36 -48 -91 -68l565 -1446h-80l-180 459h-727l-178 -459h-82l563 1444q-57 16 -94 66
t-37 121z" />
    <glyph glyph-name="AE" unicode="&#xc6;" horiz-adv-x="2148" 
d="M907 1393l-473 -879h662zM1997 1495v-72h-1020l135 -639h885v-71h-869l136 -639h733v-74h-791l-96 444h-713l-239 -444h-86l805 1495h1120z" />
    <glyph glyph-name="Ccedilla" unicode="&#xc7;" horiz-adv-x="1648" 
d="M891 -453q-162 0 -268 107l61 39q96 -86 194 -86t151 35q54 35 54 86t-54 81t-144 29h-47v144q-303 16 -514 237t-211 533t225 538q225 225 543 226q203 0 377 -100t276 -269l-64 -37q-92 154 -246 244t-343 90q-287 0 -488 -204t-201 -492t202 -493q200 -204 487 -204
q197 0 359 96t251 261l68 -35q-99 -175 -273 -281t-385 -112v-93q115 0 185 -43q70 -44 71 -118q-1 -74 -75 -126t-191 -53z" />
    <glyph glyph-name="Egrave" unicode="&#xc8;" horiz-adv-x="1224" 
d="M604 1645l-276 301h102l252 -301h-78zM162 0v1495h919v-72h-843v-639h843v-71h-843v-639h843v-74h-919z" />
    <glyph glyph-name="Eacute" unicode="&#xc9;" horiz-adv-x="1224" 
d="M551 1645l252 301h102l-276 -301h-78zM162 0v1495h919v-72h-843v-639h843v-71h-843v-639h843v-74h-919z" />
    <glyph glyph-name="Ecircumflex" unicode="&#xca;" horiz-adv-x="1224" 
d="M340 1645l244 301h65l244 -301h-82l-195 239l-192 -239h-84zM162 0v1495h919v-72h-843v-639h843v-71h-843v-639h843v-74h-919z" />
    <glyph glyph-name="Edieresis" unicode="&#xcb;" horiz-adv-x="1224" 
d="M686 1649v286h74v-286h-74zM481 1649v286h74v-286h-74zM162 0v1495h919v-72h-843v-639h843v-71h-843v-639h843v-74h-919z" />
    <glyph glyph-name="Igrave" unicode="&#xcc;" horiz-adv-x="438" 
d="M182 1645l-276 301h102l252 -301h-78zM180 0v1495h78v-1495h-78z" />
    <glyph glyph-name="Iacute" unicode="&#xcd;" horiz-adv-x="438" 
d="M178 1645l252 301h102l-276 -301h-78zM180 0v1495h78v-1495h-78z" />
    <glyph glyph-name="Icircumflex" unicode="&#xce;" horiz-adv-x="438" 
d="M-59 1645l243 301h66l244 -301h-82l-195 239l-192 -239h-84zM180 0v1495h78v-1495h-78z" />
    <glyph glyph-name="Idieresis" unicode="&#xcf;" horiz-adv-x="438" 
d="M180 0v1495h78v-1495h-78zM-23 1649v286h72v-286h-72zM389 1649v286h72v-286h-72z" />
    <glyph glyph-name="Eth" unicode="&#xd0;" horiz-adv-x="1497" 
d="M606 1423h-336v-624h508v-72h-508v-655h338q293 0 495 194t202 480t-201 482t-498 195zM45 727v72h150v696h417q328 0 549 -216q221 -215 221 -533t-223 -532t-545 -214h-419v727h-150z" />
    <glyph glyph-name="Ntilde" unicode="&#xd1;" horiz-adv-x="1525" 
d="M408 1645q0 88 50 142t124 54q74 1 188 -69t170 -70q121 0 121 133h65q0 -94 -50 -146q-111 -115 -333 19q-104 66 -155 66t-84 -34t-33 -95h-63zM162 0v1495h82l1044 -1376v1376h76v-1495h-80l-1046 1376v-1376h-76z" />
    <glyph glyph-name="Ograve" unicode="&#xd2;" horiz-adv-x="1763" 
d="M838 1645l-277 301h103l251 -301h-77zM882 51q288 0 488 204t201 493q0 288 -201 492q-200 204 -488 204t-489 -204t-201 -492t202 -493q200 -204 488 -204zM881 -20q-317 0 -543 225q-225 225 -225 543t225 542q224 226 542 226t543 -226t225 -542t-224 -542
q-226 -226 -543 -226z" />
    <glyph glyph-name="Oacute" unicode="&#xd3;" horiz-adv-x="1763" 
d="M882 51q288 0 488 204t201 493q0 288 -201 492q-200 204 -488 204t-489 -204t-201 -492t202 -493q200 -204 488 -204zM881 -20q-317 0 -543 225q-225 225 -225 543t225 542q224 226 542 226t543 -226t225 -542t-224 -542q-226 -226 -543 -226zM819 1645l252 301h103
l-277 -301h-78z" />
    <glyph glyph-name="Ocircumflex" unicode="&#xd4;" horiz-adv-x="1763" 
d="M596 1645l244 301h65l244 -301h-82l-195 239l-192 -239h-84zM882 51q288 0 488 204t201 493q0 288 -201 492q-200 204 -488 204t-489 -204t-201 -492t202 -493q200 -204 488 -204zM881 -20q-317 0 -543 225q-225 225 -225 543t225 542q224 226 542 226t543 -226t225 -542
t-224 -542q-226 -226 -543 -226z" />
    <glyph glyph-name="Otilde" unicode="&#xd5;" horiz-adv-x="1763" 
d="M512 1645q0 88 50 142t124 54q74 1 188 -69t170 -70q121 0 121 133h66q0 -94 -50 -146q-112 -116 -333 19q-104 66 -156 66t-84 -34q-33 -34 -33 -95h-63zM882 51q288 0 488 204t201 493q0 288 -201 492q-200 204 -488 204t-489 -204t-201 -492t202 -493
q200 -204 488 -204zM881 -20q-317 0 -543 225q-225 225 -225 543t225 542q224 226 542 226t543 -226t225 -542t-224 -542q-226 -226 -543 -226z" />
    <glyph glyph-name="Odieresis" unicode="&#xd6;" horiz-adv-x="1763" 
d="M882 51q288 0 488 204t201 493q0 288 -201 492q-200 204 -488 204t-489 -204t-201 -492t202 -493q200 -204 488 -204zM881 -20q-317 0 -543 225q-225 225 -225 543t225 542q224 226 542 226t543 -226t225 -542t-224 -542q-226 -226 -543 -226zM737 1649v286h74v-286h-74z
M942 1649v286h74v-286h-74z" />
    <glyph glyph-name="multiply" unicode="&#xd7;" horiz-adv-x="978" 
d="M217 426l-47 47l274 275l-274 274l47 47l275 -274l272 272l47 -47l-272 -272l272 -273l-47 -47l-272 272z" />
    <glyph glyph-name="Oslash" unicode="&#xd8;" horiz-adv-x="1763" 
d="M881 51q289 0 489 204t201 493q0 158 -66 298t-182 236l-821 -1116q174 -115 379 -115zM193 748q1 -160 67 -300t180 -237l824 1116q-176 117 -383 117q-287 0 -487 -204t-201 -492zM1649 748q1 -316 -225 -542t-543 -226q-229 0 -424 126l-78 -106h-92l110 150
q-133 108 -209 264t-75 334q0 317 225 542t543 226q233 0 426 -130l79 109h93l-113 -154q131 -109 207 -263t76 -330z" />
    <glyph glyph-name="Ugrave" unicode="&#xd9;" horiz-adv-x="1329" 
d="M635 1645l-277 301h103l252 -301h-78zM664 -20q-215 0 -362 147q-146 147 -146 358v1010h75v-1010q0 -182 126 -308q127 -126 307 -126t307 126t127 308v1010h76v-1008q0 -213 -148 -360t-362 -147z" />
    <glyph glyph-name="Uacute" unicode="&#xda;" horiz-adv-x="1329" 
d="M664 -20q-215 0 -362 147q-146 147 -146 358v1010h75v-1010q0 -182 126 -308q127 -126 307 -126t307 126t127 308v1010h76v-1008q0 -213 -148 -360t-362 -147zM600 1645l252 301h102l-276 -301h-78z" />
    <glyph glyph-name="Ucircumflex" unicode="&#xdb;" horiz-adv-x="1329" 
d="M383 1645l244 301h65l244 -301h-82l-195 239l-192 -239h-84zM664 -20q-215 0 -362 147q-146 147 -146 358v1010h75v-1010q0 -182 126 -308q127 -126 307 -126t307 126t127 308v1010h76v-1008q0 -213 -148 -360t-362 -147z" />
    <glyph glyph-name="Udieresis" unicode="&#xdc;" horiz-adv-x="1329" 
d="M664 -20q-215 0 -362 147q-146 147 -146 358v1010h75v-1010q0 -182 126 -308q127 -126 307 -126t307 126t127 308v1010h76v-1008q0 -213 -148 -360t-362 -147zM524 1649v286h74v-286h-74zM729 1649v286h74v-286h-74z" />
    <glyph glyph-name="Yacute" unicode="&#xdd;" horiz-adv-x="1241" 
d="M571 1645l252 301h103l-277 -301h-78zM584 0v713l-508 782h88l457 -709l456 709h88l-506 -782v-713h-75z" />
    <glyph glyph-name="Thorn" unicode="&#xde;" horiz-adv-x="1173" 
d="M569 1108h-342v-700h342q180 0 287 98q106 98 106 253t-106 252q-107 97 -287 97zM152 0v1495h75v-315h346q211 0 340 -117t129 -303t-128 -305t-341 -119h-346v-336h-75z" />
    <glyph glyph-name="germandbls" unicode="&#xdf;" horiz-adv-x="1122" 
d="M-109 -471v72q141 0 202 72q60 73 61 223v1230q-2 168 107 278q110 110 278 110q167 0 277 -110q110 -108 110 -269q0 -117 -60 -206t-161 -132q143 -37 227 -141t84 -248q0 -182 -117 -302t-299 -120q-125 0 -219 53l12 70q88 -53 218 -53q129 0 229 102t100 248
t-105 247q-105 100 -272 101h-33v69h33q113 0 200 90q87 91 87 221t-90 222t-220 92t-222 -88t-93 -225v-1235q0 -188 -77 -280t-242 -91h-15z" />
    <glyph glyph-name="agrave" unicode="&#xe0;" horiz-adv-x="1312" 
d="M606 1174l-276 301h102l252 -301h-78zM182 512q0 -193 132 -328t324 -135t324 135t132 328t-132 328t-324 135t-324 -135t-132 -328zM635 -20q-221 0 -376 156t-155 376q0 221 154 377t377 155q145 0 271 -78t181 -214v272h74v-1024h-74v272q-55 -136 -181 -214t-271 -78
z" />
    <glyph glyph-name="aacute" unicode="&#xe1;" horiz-adv-x="1312" 
d="M584 1174l252 301h102l-276 -301h-78zM182 512q0 -193 132 -328t324 -135t324 135t132 328t-132 328t-324 135t-324 -135t-132 -328zM635 -20q-221 0 -376 156t-155 376q0 221 154 377t377 155q145 0 271 -78t181 -214v272h74v-1024h-74v272q-55 -136 -181 -214t-271 -78
z" />
    <glyph glyph-name="acircumflex" unicode="&#xe2;" horiz-adv-x="1312" 
d="M375 1174l243 301h66l244 -301h-82l-195 239l-192 -239h-84zM182 512q0 -193 132 -328t324 -135t324 135t132 328t-132 328t-324 135t-324 -135t-132 -328zM635 -20q-221 0 -376 156t-155 376q0 221 154 377t377 155q145 0 271 -78t181 -214v272h74v-1024h-74v272
q-55 -136 -181 -214t-271 -78z" />
    <glyph glyph-name="atilde" unicode="&#xe3;" horiz-adv-x="1312" 
d="M311 1174q0 88 50 142q51 54 125 54t188 -70t170 -69q121 0 121 133h65q0 -94 -50 -146q-111 -115 -333 19q-104 66 -155 66t-84 -34t-33 -95h-64zM182 512q0 -193 132 -328t324 -135t324 135t132 328t-132 328t-324 135t-324 -135t-132 -328zM635 -20q-221 0 -376 156
t-155 376q0 221 154 377t377 155q145 0 271 -78t181 -214v272h74v-1024h-74v272q-55 -136 -181 -214t-271 -78z" />
    <glyph glyph-name="adieresis" unicode="&#xe4;" horiz-adv-x="1312" 
d="M510 1178v286h74v-286h-74zM715 1178v286h73v-286h-73zM182 512q0 -193 132 -328t324 -135t324 135t132 328t-132 328t-324 135t-324 -135t-132 -328zM635 -20q-221 0 -376 156t-155 376q0 221 154 377t377 155q145 0 271 -78t181 -214v272h74v-1024h-74v272
q-55 -136 -181 -214t-271 -78z" />
    <glyph glyph-name="aring" unicode="&#xe5;" horiz-adv-x="1312" 
d="M642 1219q50 1 88 37t38 87t-38 89t-88 38t-87 -38t-37 -90q0 -50 37 -86t87 -37zM643 1155q-78 0 -133 55t-55 133q0 77 55 133t133 56t133 -54t55 -134t-55 -134q-55 -55 -133 -55zM182 512q0 -193 132 -328t324 -135t324 135t132 328t-132 328t-324 135t-324 -135
t-132 -328zM635 -20q-221 0 -376 156t-155 376q0 221 154 377t377 155q145 0 271 -78t181 -214v272h74v-1024h-74v272q-55 -136 -181 -214t-271 -78z" />
    <glyph glyph-name="ae" unicode="&#xe6;" horiz-adv-x="2025" 
d="M188 264q0 -104 67 -162t215 -59q148 0 258 83q112 83 163 193q-33 85 -33 171t10 128q-46 -56 -176 -82q-44 -8 -188 -37q-146 -28 -231 -80q-85 -51 -85 -155zM1392 977q-180 0 -310 -119t-150 -295h907q-16 180 -141 297t-306 117zM1408 -20q-173 0 -296 72t-190 196
q-54 -106 -176 -188t-294 -80q-172 0 -254 76q-83 76 -85 204q-2 129 101 198q103 68 306 108t256 63q104 47 107 131q0 102 -82 162t-245 59q-163 0 -258 -80t-95 -211v-6h-72v4q0 162 116 259t296 97t280 -61t123 -172q72 109 189 171t256 62q225 0 375 -150t151 -376v-22
h-987q4 -190 136 -320t312 -129q180 0 298 91t157 241l70 -27q-47 -168 -185 -270t-310 -102z" />
    <glyph glyph-name="ccedilla" unicode="&#xe7;" horiz-adv-x="1228" 
d="M647 -453q-162 0 -268 107l61 39q96 -86 194 -86t151 35q55 35 55 86t-54 81t-145 29h-47v144q-211 16 -350 168q-140 152 -140 368t156 372q156 155 379 154q164 0 295 -88t192 -229l-71 -31q-55 127 -165 203t-251 76q-189 0 -323 -135t-134 -328t133 -328t326 -135
q143 0 254 78t164 205l71 -31q-61 -141 -186 -228t-287 -93v-93q115 0 186 -43q71 -44 71 -118t-76 -126q-74 -52 -191 -53z" />
    <glyph glyph-name="egrave" unicode="&#xe8;" horiz-adv-x="1267" 
d="M600 1174l-276 301h102l252 -301h-78zM640 977q-187 0 -315 -122t-145 -300h903q-10 184 -133 303t-310 119zM643 -20q-246 0 -392 150q-147 150 -147 378q0 227 153 382q153 154 380 154t375 -149q147 -150 147 -375v-35h-981q8 -190 134 -314t331 -124q311 0 428 301
l66 -31q-138 -337 -494 -337z" />
    <glyph glyph-name="eacute" unicode="&#xe9;" horiz-adv-x="1267" 
d="M580 1174l251 301h103l-277 -301h-77zM640 977q-187 0 -315 -122t-145 -300h903q-10 184 -133 303t-310 119zM643 -20q-246 0 -392 150q-147 150 -147 378q0 227 153 382q153 154 380 154t375 -149q147 -150 147 -375v-35h-981q8 -190 134 -314t331 -124q311 0 428 301
l66 -31q-138 -337 -494 -337z" />
    <glyph glyph-name="ecircumflex" unicode="&#xea;" horiz-adv-x="1267" 
d="M360 1174l244 301h66l243 -301h-82l-194 239l-193 -239h-84zM640 977q-187 0 -315 -122t-145 -300h903q-10 184 -133 303t-310 119zM643 -20q-246 0 -392 150q-147 150 -147 378q0 227 153 382q153 154 380 154t375 -149q147 -150 147 -375v-35h-981q8 -190 134 -314
t331 -124q311 0 428 301l66 -31q-138 -337 -494 -337z" />
    <glyph glyph-name="edieresis" unicode="&#xeb;" horiz-adv-x="1267" 
d="M705 1178v286h73v-286h-73zM500 1178v286h73v-286h-73zM640 977q-187 0 -315 -122t-145 -300h903q-10 184 -133 303t-310 119zM643 -20q-246 0 -392 150q-147 150 -147 378q0 227 153 382q153 154 380 154t375 -149q147 -150 147 -375v-35h-981q8 -190 134 -314t331 -124
q311 0 428 301l66 -31q-138 -337 -494 -337z" />
    <glyph glyph-name="igrave" unicode="&#xec;" horiz-adv-x="378" 
d="M158 1174l-277 301h103l252 -301h-78zM152 0v1024h75v-1024h-75z" />
    <glyph glyph-name="iacute" unicode="&#xed;" horiz-adv-x="378" 
d="M152 0v1024h75v-1024h-75zM152 1174l251 301h103l-277 -301h-77z" />
    <glyph glyph-name="icircumflex" unicode="&#xee;" horiz-adv-x="378" 
d="M-88 1174l244 301h65l244 -301h-82l-195 239l-192 -239h-84zM152 0v1024h75v-1024h-75z" />
    <glyph glyph-name="idieresis" unicode="&#xef;" horiz-adv-x="378" 
d="M152 0v1024h75v-1024h-75zM-37 1178v286h74v-286h-74zM344 1178v286h72v-286h-72z" />
    <glyph glyph-name="eth" unicode="&#xf0;" horiz-adv-x="1267" 
d="M635 53q186 0 316 132q130 133 130 319t-130 319t-316 133q-187 0 -319 -132t-132 -319t132 -320q133 -132 319 -132zM1159 504q-1 -217 -153 -369q-152 -151 -372 -151t-373 152t-153 369t152 369t367 152q252 0 385 -195q-100 221 -373 459l-231 -135h-101l291 170
q-123 102 -213 170h115q102 -80 159 -133l226 133h100l-285 -168q459 -416 459 -823z" />
    <glyph glyph-name="ntilde" unicode="&#xf1;" horiz-adv-x="1245" 
d="M262 1174q0 88 50 142t124 54t189 -70t170 -69q121 0 120 133h66q0 -94 -50 -146q-111 -115 -333 19q-104 66 -156 66t-84 -34q-33 -34 -32 -95h-64zM152 0v1024h73v-236q49 113 160 185t252 71q207 0 334 -126t127 -343v-575h-76v578q0 182 -106 290t-280 107
q-175 0 -292 -114t-117 -283v-578h-75z" />
    <glyph glyph-name="ograve" unicode="&#xf2;" horiz-adv-x="1273" 
d="M600 1174l-276 301h102l252 -301h-78zM637 49q190 0 322 135t133 328q0 193 -132 328t-323 135t-323 -135t-132 -328t132 -328t323 -135zM637 -20q-221 0 -377 154t-156 378q0 223 156 378q156 154 377 154t377 -154t156 -378q0 -223 -156 -378q-156 -154 -377 -154z" />
    <glyph glyph-name="oacute" unicode="&#xf3;" horiz-adv-x="1273" 
d="M637 49q190 0 322 135t133 328q0 193 -132 328t-323 135t-323 -135t-132 -328t132 -328t323 -135zM637 -20q-221 0 -377 154t-156 378q0 223 156 378q156 154 377 154t377 -154t156 -378q0 -223 -156 -378q-156 -154 -377 -154zM586 1174l252 301h102l-276 -301h-78z" />
    <glyph glyph-name="ocircumflex" unicode="&#xf4;" horiz-adv-x="1273" 
d="M354 1174l244 301h66l243 -301h-82l-194 239l-193 -239h-84zM637 49q190 0 322 135t133 328q0 193 -132 328t-323 135t-323 -135t-132 -328t132 -328t323 -135zM637 -20q-221 0 -377 154t-156 378q0 223 156 378q156 154 377 154t377 -154t156 -378q0 -223 -156 -378
q-156 -154 -377 -154z" />
    <glyph glyph-name="otilde" unicode="&#xf5;" horiz-adv-x="1273" 
d="M276 1174q0 88 50 142t125 54t189 -70t169 -69q121 0 121 133h65q0 -94 -50 -146q-111 -115 -333 19q-104 66 -155 66t-84 -34t-33 -95h-64zM637 49q190 0 322 135t133 328q0 193 -132 328t-323 135t-323 -135t-132 -328t132 -328t323 -135zM637 -20q-221 0 -377 154
t-156 378q0 223 156 378q156 154 377 154t377 -154t156 -378q0 -223 -156 -378q-156 -154 -377 -154z" />
    <glyph glyph-name="odieresis" unicode="&#xf6;" horiz-adv-x="1273" 
d="M637 49q190 0 322 135t133 328q0 193 -132 328t-323 135t-323 -135t-132 -328t132 -328t323 -135zM637 -20q-221 0 -377 154t-156 378q0 223 156 378q156 154 377 154t377 -154t156 -378q0 -223 -156 -378q-156 -154 -377 -154zM498 1178v286h73v-286h-73zM702 1178v286
h74v-286h-74z" />
    <glyph glyph-name="divide" unicode="&#xf7;" horiz-adv-x="978" 
d="M457 340v252h65v-252h-65zM457 901v250h65v-250h-65zM111 715v65h757v-65h-757z" />
    <glyph glyph-name="oslash" unicode="&#xf8;" horiz-adv-x="1273" 
d="M637 49q190 0 322 135q133 135 133 336t-154 340l-545 -739q111 -72 244 -72zM637 975q-191 0 -323 -135t-132 -339t156 -339l545 739q-113 74 -246 74zM637 -20q-152 0 -287 81l-45 -61h-86l76 102q-191 158 -191 396t156 392q156 155 377 154q156 0 289 -83l47 63h86
l-78 -104q188 -162 188 -396t-155 -390q-156 -154 -377 -154z" />
    <glyph glyph-name="ugrave" unicode="&#xf9;" horiz-adv-x="1245" 
d="M602 1174l-276 301h102l252 -301h-78zM612 -20q-213 0 -339 124t-126 345v575h76v-578q-1 -182 105 -290t282 -107q176 0 293 114t117 283v578h74v-1024h-72v242q-47 -114 -158 -188t-252 -74z" />
    <glyph glyph-name="uacute" unicode="&#xfa;" horiz-adv-x="1245" 
d="M559 1174l252 301h102l-276 -301h-78zM612 -20q-213 0 -339 124t-126 345v575h76v-578q-1 -182 105 -290t282 -107q176 0 293 114t117 283v578h74v-1024h-72v242q-47 -114 -158 -188t-252 -74z" />
    <glyph glyph-name="ucircumflex" unicode="&#xfb;" horiz-adv-x="1245" 
d="M340 1174l244 301h65l244 -301h-82l-195 239l-192 -239h-84zM612 -20q-213 0 -339 124t-126 345v575h76v-578q-1 -182 105 -290t282 -107q176 0 293 114t117 283v578h74v-1024h-72v242q-47 -114 -158 -188t-252 -74z" />
    <glyph glyph-name="udieresis" unicode="&#xfc;" horiz-adv-x="1245" 
d="M690 1178v286h74v-286h-74zM485 1178v286h74v-286h-74zM612 -20q-213 0 -339 124t-126 345v575h76v-578q-1 -182 105 -290t282 -107q176 0 293 114t117 283v578h74v-1024h-72v242q-47 -114 -158 -188t-252 -74z" />
    <glyph glyph-name="yacute" unicode="&#xfd;" horiz-adv-x="1144" 
d="M524 1174l252 301h103l-277 -301h-78zM303 -473l244 530l-467 967h84l422 -881l397 881h82l-680 -1497h-82z" />
    <glyph glyph-name="thorn" unicode="&#xfe;" horiz-adv-x="1318" 
d="M682 51q192 0 323 135q132 135 132 328t-131 326t-324 133t-326 -134q-133 -133 -133 -325t133 -328q134 -135 326 -135zM682 -20q-147 0 -267 74t-184 202v-727h-73v1966h73v-729q66 129 187 204t266 74q223 0 376 -154q152 -154 152 -377q0 -222 -153 -378
q-154 -155 -377 -155z" />
    <glyph glyph-name="ydieresis" unicode="&#xff;" horiz-adv-x="1144" 
d="M641 1178v286h74v-286h-74zM436 1178v286h74v-286h-74zM303 -473l244 530l-467 967h84l422 -881l397 881h82l-680 -1497h-82z" />
    <glyph glyph-name="Amacron" unicode="&#x100;" horiz-adv-x="1415" 
d="M436 1645v65h541v-65h-541zM709 1391l-336 -863h671zM84 0l584 1495h80l583 -1495h-80l-180 459h-727l-178 -459h-82z" />
    <glyph glyph-name="amacron" unicode="&#x101;" horiz-adv-x="1312" 
d="M403 1174v65h541v-65h-541zM182 512q0 -193 132 -328t324 -135t324 135t132 328t-132 328t-324 135t-324 -135t-132 -328zM635 -20q-221 0 -376 156t-155 376q0 221 154 377t377 155q145 0 271 -78t181 -214v272h74v-1024h-74v272q-55 -136 -181 -214t-271 -78z" />
    <glyph glyph-name="Abreve" unicode="&#x102;" horiz-adv-x="1415" 
d="M1034 1944q0 -122 -91 -216t-245 -94t-239 91q-86 91 -86 219h67q0 -102 69 -176t192 -72q123 0 195 74t71 174h67zM709 1391l-336 -863h671zM84 0l584 1495h80l583 -1495h-80l-180 459h-727l-178 -459h-82z" />
    <glyph glyph-name="abreve" unicode="&#x103;" horiz-adv-x="1312" 
d="M979 1464q1 -123 -91 -216t-246 -93t-239 91q-86 91 -86 218h68q0 -102 69 -175q70 -73 192 -73t194 74t71 174h68zM182 512q0 -193 132 -328t324 -135t324 135t132 328t-132 328t-324 135t-324 -135t-132 -328zM635 -20q-221 0 -376 156t-155 376q0 221 154 377t377 155
q145 0 271 -78t181 -214v272h74v-1024h-74v272q-55 -136 -181 -214t-271 -78z" />
    <glyph glyph-name="Aogonek" unicode="&#x104;" horiz-adv-x="1415" 
d="M709 1391l-336 -863h671zM1279 -412q-126 0 -196 54t-69 133q0 139 227 248l-170 436h-727l-178 -459h-82l584 1495h80l583 -1495h-4l4 -2q-133 -66 -187 -117t-54 -106t48 -88t140 -33t186 90l62 -43q-121 -113 -247 -113z" />
    <glyph glyph-name="aogonek" unicode="&#x105;" horiz-adv-x="1312" 
d="M182 512q0 -193 132 -328t324 -135t324 135t132 328t-132 328t-324 135t-324 -135t-132 -328zM635 -20q-221 0 -376 156t-155 376q0 221 154 377t377 155q145 0 271 -78t181 -214v272h74v-1024h2q-176 -139 -176 -254q0 -57 39 -93q40 -36 114 -36t158 80l48 -51
q-112 -94 -214 -94t-158 54q-56 56 -56 136q0 125 169 281v249q-55 -136 -181 -214t-271 -78z" />
    <glyph glyph-name="Cacute" unicode="&#x106;" horiz-adv-x="1648" 
d="M881 -20q-317 0 -543 225q-225 225 -225 543t225 542q225 225 543 226q203 0 377 -100t276 -269l-64 -37q-92 154 -246 244t-343 90q-287 0 -488 -204t-201 -492t202 -493q200 -204 487 -204q197 0 359 96t251 261l68 -35q-101 -181 -281 -287t-397 -106zM834 1645
l251 301h103l-277 -301h-77z" />
    <glyph glyph-name="cacute" unicode="&#x107;" horiz-adv-x="1228" 
d="M639 -20q-225 0 -380 156t-155 377q0 222 156 377t379 154q164 0 295 -88t192 -229l-71 -31q-55 127 -165 203t-251 76q-189 0 -323 -135t-134 -328t133 -328t326 -135q143 0 254 78t164 205l71 -31q-63 -145 -193 -233t-298 -88zM582 1174l252 301h102l-277 -301h-77z
" />
    <glyph glyph-name="Ccircumflex" unicode="&#x108;" horiz-adv-x="1648" 
d="M602 1645l244 301h65l244 -301h-82l-194 239l-193 -239h-84zM881 -20q-317 0 -543 225q-225 225 -225 543t225 542q225 225 543 226q203 0 377 -100t276 -269l-64 -37q-92 154 -246 244t-343 90q-287 0 -488 -204t-201 -492t202 -493q200 -204 487 -204q197 0 359 96
t251 261l68 -35q-101 -181 -281 -287t-397 -106z" />
    <glyph glyph-name="ccircumflex" unicode="&#x109;" horiz-adv-x="1228" 
d="M362 1174l244 301h66l243 -301h-81l-195 239l-193 -239h-84zM639 -20q-225 0 -380 156t-155 377q0 222 156 377t379 154q164 0 295 -88t192 -229l-71 -31q-55 127 -165 203t-251 76q-189 0 -323 -135t-134 -328t133 -328t326 -135q143 0 254 78t164 205l71 -31
q-63 -145 -193 -233t-298 -88z" />
    <glyph glyph-name="Cdotaccent" unicode="&#x10a;" horiz-adv-x="1648" 
d="M856 1649v286h76v-286h-76zM881 -20q-317 0 -543 225q-225 225 -225 543t225 542q225 225 543 226q203 0 377 -100t276 -269l-64 -37q-92 154 -246 244t-343 90q-287 0 -488 -204t-201 -492t202 -493q200 -204 487 -204q197 0 359 96t251 261l68 -35q-101 -181 -281 -287
t-397 -106z" />
    <glyph glyph-name="cdotaccent" unicode="&#x10b;" horiz-adv-x="1228" 
d="M598 1178v286h76v-286h-76zM639 -20q-225 0 -380 156t-155 377q0 222 156 377t379 154q164 0 295 -88t192 -229l-71 -31q-55 127 -165 203t-251 76q-189 0 -323 -135t-134 -328t133 -328t326 -135q143 0 254 78t164 205l71 -31q-63 -145 -193 -233t-298 -88z" />
    <glyph glyph-name="Ccaron" unicode="&#x10c;" horiz-adv-x="1648" 
d="M834 1645l-244 301h82l192 -242l195 242h84l-244 -301h-65zM881 -20q-317 0 -543 225q-225 225 -225 543t225 542q225 225 543 226q203 0 377 -100t276 -269l-64 -37q-92 154 -246 244t-343 90q-287 0 -488 -204t-201 -492t202 -493q200 -204 487 -204q197 0 359 96
t251 261l68 -35q-101 -181 -281 -287t-397 -106z" />
    <glyph glyph-name="ccaron" unicode="&#x10d;" horiz-adv-x="1228" 
d="M596 1174l-244 301h82l193 -242l194 242h84l-243 -301h-66zM639 -20q-225 0 -380 156t-155 377q0 222 156 377t379 154q164 0 295 -88t192 -229l-71 -31q-55 127 -165 203t-251 76q-189 0 -323 -135t-134 -328t133 -328t326 -135q143 0 254 78t164 205l71 -31
q-63 -145 -193 -233t-298 -88z" />
    <glyph glyph-name="Dcaron" unicode="&#x10e;" horiz-adv-x="1464" 
d="M588 1645l-244 301h82l192 -242l195 242h84l-244 -301h-65zM575 1423h-337v-1351h340q294 0 494 194t200 482q0 286 -200 480t-497 195zM162 0v1495h418q328 0 550 -216q222 -215 222 -533t-224 -532t-546 -214h-420z" />
    <glyph glyph-name="dcaron" unicode="&#x10f;" horiz-adv-x="1368" 
d="M1288 1163l119 332h76l-135 -332h-60zM182 512q0 -193 132 -328t324 -135t324 135t132 328t-132 328t-324 135t-324 -135t-132 -328zM635 -20q-221 0 -376 156t-155 376q0 221 154 377t377 155q143 0 268 -76t182 -212v739h74v-1495h-72v272q-55 -136 -181 -214t-271 -78
z" />
    <glyph glyph-name="Dcroat" unicode="&#x110;" horiz-adv-x="1497" 
d="M606 1423h-336v-624h508v-72h-508v-655h338q293 0 495 194t202 480t-201 482t-498 195zM45 727v72h150v696h417q328 0 549 -216q221 -215 221 -533t-223 -532t-545 -214h-419v727h-150z" />
    <glyph glyph-name="dcroat" unicode="&#x111;" horiz-adv-x="1329" 
d="M182 512q0 -193 132 -328t324 -135t324 135t132 328t-132 328t-324 135t-324 -135t-132 -328zM778 1184v67h307v244h74v-244h117v-67h-117v-1184h-72v272q-55 -135 -181 -214t-271 -78q-221 0 -376 156t-155 376q0 221 154 377t377 155q143 0 268 -76t182 -212v428h-307z
" />
    <glyph glyph-name="Emacron" unicode="&#x112;" horiz-adv-x="1224" 
d="M348 1645v65h541v-65h-541zM162 0v1495h919v-72h-843v-639h843v-71h-843v-639h843v-74h-919z" />
    <glyph glyph-name="emacron" unicode="&#x113;" horiz-adv-x="1267" 
d="M375 1174v65h540v-65h-540zM640 977q-187 0 -315 -122t-145 -300h903q-10 184 -133 303t-310 119zM643 -20q-246 0 -392 150q-147 150 -147 378q0 227 153 382q153 154 380 154t375 -149q147 -150 147 -375v-35h-981q8 -190 134 -314t331 -124q311 0 428 301l66 -31
q-138 -337 -494 -337z" />
    <glyph glyph-name="Ebreve" unicode="&#x114;" horiz-adv-x="1224" 
d="M956 1944q0 -122 -91 -216t-245 -94t-239 91q-86 91 -86 219h67q0 -102 69 -176t192 -72q123 0 195 74t71 174h67zM162 0v1495h919v-72h-843v-639h843v-71h-843v-639h843v-74h-919z" />
    <glyph glyph-name="ebreve" unicode="&#x115;" horiz-adv-x="1267" 
d="M973 1464q1 -123 -91 -216t-246 -93t-239 91q-86 91 -86 218h68q1 -102 69 -175t191 -73t195 74t71 174h68zM640 977q-187 0 -315 -122t-145 -300h903q-10 184 -133 303t-310 119zM643 -20q-246 0 -392 150q-147 150 -147 378q0 227 153 382q153 154 380 154t375 -149
q147 -150 147 -375v-35h-981q8 -190 134 -314t331 -124q311 0 428 301l66 -31q-138 -337 -494 -337z" />
    <glyph glyph-name="Edotaccent" unicode="&#x116;" horiz-adv-x="1224" 
d="M598 1649v286h76v-286h-76zM162 0v1495h919v-72h-843v-639h843v-71h-843v-639h843v-74h-919z" />
    <glyph glyph-name="edotaccent" unicode="&#x117;" horiz-adv-x="1267" 
d="M604 1178v286h76v-286h-76zM640 977q-187 0 -315 -122t-145 -300h903q-10 184 -133 303t-310 119zM643 -20q-246 0 -392 150q-147 150 -147 378q0 227 153 382q153 154 380 154t375 -149q147 -150 147 -375v-35h-981q8 -190 134 -314t331 -124q311 0 428 301l66 -31
q-138 -337 -494 -337z" />
    <glyph glyph-name="Eogonek" unicode="&#x118;" horiz-adv-x="1224" 
d="M162 0v1495h919v-72h-843v-639h843v-71h-843v-639h843v-74h-4l4 -2q-133 -66 -187 -117t-54 -106t48 -88t140 -33t186 90l62 -43q-121 -113 -247 -113q-125 0 -195 54t-70 133q0 125 184 225h-786z" />
    <glyph glyph-name="eogonek" unicode="&#x119;" horiz-adv-x="1267" 
d="M640 977q-187 0 -315 -122t-145 -300h903q-10 184 -133 303t-310 119zM643 -20q-246 0 -392 150q-147 150 -147 378q0 227 153 382q153 154 380 154t375 -149q147 -150 147 -375v-35h-981q8 -190 134 -314t331 -124q311 0 428 301l66 -31q-90 -225 -281 -301
q-131 -65 -185 -116q-55 -50 -55 -106t48 -89t141 -33q92 0 186 90l62 -43q-121 -113 -262 -112q-111 0 -181 53t-69 133q0 102 121 187h-19z" />
    <glyph glyph-name="Ecaron" unicode="&#x11a;" horiz-adv-x="1226" 
d="M584 1645l-244 301h82l192 -242l195 242h84l-244 -301h-65zM162 0v1495h919v-72h-843v-639h843v-71h-843v-639h843v-74h-919z" />
    <glyph glyph-name="ecaron" unicode="&#x11b;" horiz-adv-x="1267" 
d="M610 1174l-243 301h82l192 -242l195 242h84l-244 -301h-66zM640 977q-187 0 -315 -122t-145 -300h903q-10 184 -133 303t-310 119zM643 -20q-246 0 -392 150q-147 150 -147 378q0 227 153 382q153 154 380 154t375 -149q147 -150 147 -375v-35h-981q8 -190 134 -314
t331 -124q311 0 428 301l66 -31q-138 -337 -494 -337z" />
    <glyph glyph-name="Gcircumflex" unicode="&#x11c;" horiz-adv-x="1748" 
d="M600 1645l244 301h65l244 -301h-82l-194 239l-193 -239h-84zM1645 745q0 -325 -210 -545t-544 -220t-556 223t-222 543t226 545q226 224 554 225q211 0 382 -98t271 -267l-63 -39q-88 156 -243 244t-349 88q-297 0 -498 -203t-201 -493t198 -494q198 -203 493 -203
t481 182t203 461h-693v72h771v-21z" />
    <glyph glyph-name="gcircumflex" unicode="&#x11d;" horiz-adv-x="1314" 
d="M367 1174l243 301h66l244 -301h-82l-195 239l-192 -239h-84zM182 512q0 -193 132 -328t324 -135t324 135t132 328t-132 328t-324 135t-324 -135t-132 -328zM635 -20q-221 0 -376 156t-155 376q0 221 154 377t377 155q145 0 271 -78t181 -214v272h74v-1004
q0 -236 -140 -374t-368 -140q-360 0 -475 281l72 27q98 -240 403 -240q197 0 316 121t118 325v252q-55 -136 -181 -214t-271 -78z" />
    <glyph glyph-name="Gbreve" unicode="&#x11e;" horiz-adv-x="1748" 
d="M1206 1944q0 -122 -91 -216t-245 -94t-239 91q-86 91 -86 219h67q0 -102 69 -176t192 -72q123 0 195 74t71 174h67zM1645 745q0 -325 -210 -545t-544 -220t-556 223t-222 543t226 545q226 224 554 225q211 0 382 -98t271 -267l-63 -39q-88 156 -243 244t-349 88
q-297 0 -498 -203t-201 -493t198 -494q198 -203 493 -203t481 182t203 461h-693v72h771v-21z" />
    <glyph glyph-name="gbreve" unicode="&#x11f;" horiz-adv-x="1314" 
d="M975 1464q1 -123 -91 -216t-246 -93t-239 91q-86 91 -86 218h68q0 -102 69 -175q70 -73 192 -73t194 74t71 174h68zM182 512q0 -193 132 -328t324 -135t324 135t132 328t-132 328t-324 135t-324 -135t-132 -328zM635 -20q-221 0 -376 156t-155 376q0 221 154 377t377 155
q145 0 271 -78t181 -214v272h74v-1004q0 -236 -140 -374t-368 -140q-360 0 -475 281l72 27q98 -240 403 -240q197 0 316 121t118 325v252q-55 -136 -181 -214t-271 -78z" />
    <glyph glyph-name="Gdotaccent" unicode="&#x120;" horiz-adv-x="1748" 
d="M836 1649v286h75v-286h-75zM1645 745q0 -325 -210 -545t-544 -220t-556 223t-222 543t226 545q226 224 554 225q211 0 382 -98t271 -267l-63 -39q-88 156 -243 244t-349 88q-297 0 -498 -203t-201 -493t198 -494q198 -203 493 -203t481 182t203 461h-693v72h771v-21z" />
    <glyph glyph-name="gdotaccent" unicode="&#x121;" horiz-adv-x="1314" 
d="M580 1178v286h75v-286h-75zM182 512q0 -193 132 -328t324 -135t324 135t132 328t-132 328t-324 135t-324 -135t-132 -328zM635 -20q-221 0 -376 156t-155 376q0 221 154 377t377 155q145 0 271 -78t181 -214v272h74v-1004q0 -236 -140 -374t-368 -140q-360 0 -475 281
l72 27q98 -240 403 -240q197 0 316 121t118 325v252q-55 -136 -181 -214t-271 -78z" />
    <glyph glyph-name="Gcommaaccent" unicode="&#x122;" horiz-adv-x="1748" 
d="M813 -561h-57l96 418h76zM1645 745q0 -325 -210 -545t-544 -220t-556 223t-222 543t226 545q226 224 554 225q211 0 382 -98t271 -267l-63 -39q-88 156 -243 244t-349 88q-297 0 -498 -203t-201 -493t198 -494q198 -203 493 -203t481 182t203 461h-693v72h771v-21z" />
    <glyph glyph-name="gcommaaccent" unicode="&#x123;" horiz-adv-x="1314" 
d="M649 1126h-57l96 418h76zM182 512q0 -193 132 -328t324 -135t324 135t132 328t-132 328t-324 135t-324 -135t-132 -328zM635 -20q-221 0 -376 156t-155 376q0 221 154 377t377 155q145 0 271 -78t181 -214v272h74v-1004q0 -236 -140 -374t-368 -140q-360 0 -475 281
l72 27q98 -240 403 -240q197 0 316 121t118 325v252q-55 -136 -181 -214t-271 -78z" />
    <glyph glyph-name="Hcircumflex" unicode="&#x124;" horiz-adv-x="1415" 
d="M428 1645l244 301h65l244 -301h-82l-194 239l-193 -239h-84zM1174 0v713h-941v-713h-75v1495h75v-711h941v711h75v-1495h-75z" />
    <glyph glyph-name="hcircumflex" unicode="&#x125;" horiz-adv-x="1249" 
d="M-84 1610l244 301h65l244 -301h-82l-194 239l-193 -239h-84zM158 0v1495h71v-707q49 113 160 185t252 71q209 0 335 -126t126 -343v-575h-74v578q0 182 -106 290t-282 109q-176 0 -292 -115q-117 -115 -117 -284v-578h-73z" />
    <glyph glyph-name="Hbar" unicode="&#x126;" horiz-adv-x="1470" 
d="M262 1110v-326h940v326h-940zM35 1110v61h151v324h76v-324h940v324h76v-324h135v-61h-135v-1110h-76v713h-940v-713h-76v1110h-151z" />
    <glyph glyph-name="hbar" unicode="&#x127;" horiz-adv-x="1261" 
d="M23 1225v67h147v203h72v-203h280v-67h-280v-437q49 113 159 185q111 72 252 71q209 0 335 -126t126 -343v-575h-74v578q0 182 -106 290t-282 109q-176 0 -292 -115q-117 -115 -116 -284v-578h-74v1225h-147z" />
    <glyph glyph-name="Itilde" unicode="&#x128;" horiz-adv-x="423" 
d="M-127 1645q0 88 50 142t124 54q74 1 189 -69t170 -70q121 0 120 133h66q0 -94 -50 -146q-112 -116 -333 19q-103 66 -155 66t-85 -34t-32 -95h-64zM174 0v1495h78v-1495h-78z" />
    <glyph glyph-name="itilde" unicode="&#x129;" horiz-adv-x="378" 
d="M-168 1174q0 88 50 142t124 54t189 -70t170 -69q121 0 120 133h66q0 -94 -50 -146q-112 -116 -333 19q-104 66 -156 66t-84 -34q-33 -34 -32 -95h-64zM152 0v1024h75v-1024h-75z" />
    <glyph glyph-name="Imacron" unicode="&#x12a;" horiz-adv-x="438" 
d="M-51 1645v65h540v-65h-540zM180 0v1495h78v-1495h-78z" />
    <glyph glyph-name="imacron" unicode="&#x12b;" horiz-adv-x="378" 
d="M-80 1174v65h541v-65h-541zM152 0v1024h75v-1024h-75z" />
    <glyph glyph-name="Ibreve" unicode="&#x12c;" horiz-adv-x="438" 
d="M210 1634q-154 0 -239 91q-86 91 -86 219h68q0 -102 69 -176q70 -74 192 -72q122 0 194 74t71 174h68q0 -123 -91 -217q-92 -93 -246 -93zM180 0v1495h78v-1495h-78z" />
    <glyph glyph-name="ibreve" unicode="&#x12d;" horiz-adv-x="378" 
d="M186 1155q-154 0 -239 91q-86 91 -86 218h67q0 -102 69 -175t192 -73t195 74t71 174h67q0 -123 -91 -216t-245 -93zM152 0v1024h75v-1024h-75z" />
    <glyph glyph-name="Iogonek" unicode="&#x12e;" horiz-adv-x="438" 
d="M227 -451q-102 -1 -158 55t-57 136q0 129 168 278v1477h78v-1495h-4l4 -2q-176 -139 -176 -254q0 -57 39 -93t113 -36t159 80l47 -51q-111 -95 -213 -95z" />
    <glyph glyph-name="iogonek" unicode="&#x12f;" horiz-adv-x="378" 
d="M152 1192v303h75v-303h-75zM199 -449q-103 -1 -159 55t-56 136q0 129 168 278v1004h75v-1024h2q-176 -139 -176 -254q0 -57 39 -93t114 -36t159 80l47 -51q-111 -95 -213 -95z" />
    <glyph glyph-name="Idotaccent" unicode="&#x130;" horiz-adv-x="438" 
d="M182 1649v286h76v-286h-76zM180 0v1495h78v-1495h-78z" />
    <glyph glyph-name="dotlessi" unicode="&#x131;" horiz-adv-x="378" 
d="M152 0v1024h75v-1024h-75z" />
    <glyph glyph-name="IJ" unicode="&#x132;" horiz-adv-x="1081" 
d="M145 0v1495h76v-1495h-76zM436 0v72h129q137 0 216 84t79 223v1116h76v-1118q0 -173 -96 -275t-271 -102h-133z" />
    <glyph glyph-name="ij" unicode="&#x133;" horiz-adv-x="727" 
d="M500 1192v303h75v-303h-75zM152 1192v303h75v-303h-75zM152 0v1024h75v-1024h-75zM152 -344v74h90q166 0 212 49t46 207v1038h75v-1040q1 -190 -65 -259t-258 -69h-100z" />
    <glyph glyph-name="Jcircumflex" unicode="&#x134;" horiz-adv-x="989" 
d="M518 1645l244 301h65l244 -301h-82l-194 239l-193 -239h-84zM453 -20q-272 0 -367 213l68 40q78 -184 297 -184q145 0 226 91t81 241v1114h76v-1112q0 -183 -102 -293t-279 -110z" />
    <glyph glyph-name="jcircumflex" unicode="&#x135;" horiz-adv-x="380" 
d="M-86 1174l244 301h65l244 -301h-82l-195 239l-192 -239h-84zM-129 -467v74q174 0 228 51t55 231v1135h75v-1137q1 -211 -71 -283t-277 -71h-10z" />
    <glyph glyph-name="Kcommaaccent" unicode="&#x136;" horiz-adv-x="1337" 
d="M604 -561h-57l96 418h76zM240 0h-78v1495h78v-965l856 965h96l-533 -602l613 -893h-90l-578 840l-364 -412v-428z" />
    <glyph glyph-name="kcommaaccent" unicode="&#x137;" horiz-adv-x="1050" 
d="M463 -528h-57l96 417h76zM231 0h-73v1495h73v-1116l617 645h96l-409 -426l446 -598h-88l-412 551l-250 -264v-287z" />
    <glyph glyph-name="kgreenlandic" unicode="&#x138;" horiz-adv-x="1046" 
d="M227 0h-73v1024h73v-645l617 645h96l-410 -426l447 -598h-88l-412 551l-250 -264v-287z" />
    <glyph glyph-name="Lacute" unicode="&#x139;" horiz-adv-x="1089" 
d="M156 1645l252 301h102l-277 -301h-77zM162 0v1495h76v-1421h751v-74h-827z" />
    <glyph glyph-name="lacute" unicode="&#x13a;" horiz-adv-x="389" 
d="M158 0v1495h73v-1495h-73zM172 1610l252 301h102l-276 -301h-78z" />
    <glyph glyph-name="Lcommaaccent" unicode="&#x13b;" horiz-adv-x="1089" 
d="M489 -561h-57l96 418h76zM162 0v1495h76v-1421h751v-74h-827z" />
    <glyph glyph-name="lcommaaccent" unicode="&#x13c;" horiz-adv-x="389" 
d="M158 0v1495h73v-1495h-73zM137 -528h-57l96 417h76z" />
    <glyph glyph-name="Lcaron" unicode="&#x13d;" horiz-adv-x="1089" 
d="M555 1163l119 332h76l-136 -332h-59zM162 0v1495h76v-1421h751v-74h-827z" />
    <glyph glyph-name="lcaron" unicode="&#x13e;" horiz-adv-x="436" 
d="M156 0v1495h73v-1495h-73zM358 1163l119 332h76l-135 -332h-60z" />
    <glyph glyph-name="Ldot" unicode="&#x13f;" horiz-adv-x="1120" 
d="M913 590v287h76v-287h-76zM162 0v1495h76v-1421h751v-74h-827z" />
    <glyph glyph-name="ldot" unicode="&#x140;" horiz-adv-x="636" 
d="M467 434v287h76v-287h-76zM158 0v1495h73v-1495h-73z" />
    <glyph glyph-name="Lslash" unicode="&#x141;" horiz-adv-x="1150" 
d="M221 1495h76v-668l395 117v-59l-395 -117v-694h752v-74h-828v745l-201 -57v57l201 60v690z" />
    <glyph glyph-name="lslash" unicode="&#x142;" horiz-adv-x="542" 
d="M233 1495h76v-657l211 106v-63l-211 -107v-774h-76v735l-210 -104v63l210 105v696z" />
    <glyph glyph-name="Nacute" unicode="&#x143;" horiz-adv-x="1525" 
d="M735 1645l252 301h103l-277 -301h-78zM162 0v1495h82l1044 -1376v1376h76v-1495h-80l-1046 1376v-1376h-76z" />
    <glyph glyph-name="nacute" unicode="&#x144;" horiz-adv-x="1245" 
d="M586 1174l252 301h102l-276 -301h-78zM152 0v1024h73v-236q49 113 160 185t252 71q207 0 334 -126t127 -343v-575h-76v578q0 182 -106 290t-280 107q-175 0 -292 -114t-117 -283v-578h-75z" />
    <glyph glyph-name="Ncommaaccent" unicode="&#x145;" horiz-adv-x="1525" 
d="M676 -561h-58l97 418h76zM162 0v1495h82l1044 -1376v1376h76v-1495h-80l-1046 1376v-1376h-76z" />
    <glyph glyph-name="ncommaaccent" unicode="&#x146;" horiz-adv-x="1245" 
d="M580 -528h-58l96 417h76zM152 0v1024h73v-236q49 113 160 185t252 71q207 0 334 -126t127 -343v-575h-76v578q0 182 -106 290t-280 107q-175 0 -292 -114t-117 -283v-578h-75z" />
    <glyph glyph-name="Ncaron" unicode="&#x147;" horiz-adv-x="1525" 
d="M735 1645l-243 301h81l193 -242l195 242h83l-243 -301h-66zM162 0v1495h82l1044 -1376v1376h76v-1495h-80l-1046 1376v-1376h-76z" />
    <glyph glyph-name="ncaron" unicode="&#x148;" horiz-adv-x="1245" 
d="M594 1174l-244 301h82l193 -242l194 242h84l-244 -301h-65zM152 0v1024h73v-236q49 113 160 185t252 71q207 0 334 -126t127 -343v-575h-76v578q0 182 -106 290t-280 107q-175 0 -292 -114t-117 -283v-578h-75z" />
    <glyph glyph-name="Eng" unicode="&#x14a;" horiz-adv-x="1525" 
d="M915 -422v72h154q109 0 165 59t54 168v123l-1050 1378v-1378h-76v1495h82l1044 -1368v1368h76v-1620q0 -141 -73 -219t-216 -78h-160z" />
    <glyph glyph-name="eng" unicode="&#x14b;" horiz-adv-x="1247" 
d="M739 -467v74q174 0 229 51q54 51 54 231v689q0 182 -106 290t-280 107q-175 0 -292 -114t-117 -283v-578h-75v1024h73v-236q49 113 160 185t252 71q207 0 334 -126t127 -343v-688q0 -211 -72 -283t-276 -71h-11z" />
    <glyph glyph-name="Omacron" unicode="&#x14c;" horiz-adv-x="1763" 
d="M882 51q288 0 488 204t201 493q0 288 -201 492q-200 204 -488 204t-489 -204t-201 -492t202 -493q200 -204 488 -204zM881 -20q-317 0 -543 225q-225 225 -225 543t225 542q224 226 542 226t543 -226t225 -542t-224 -542q-226 -226 -543 -226zM604 1645v65h541v-65h-541z
" />
    <glyph glyph-name="omacron" unicode="&#x14d;" horiz-adv-x="1273" 
d="M637 49q190 0 322 135t133 328q0 193 -132 328t-323 135t-323 -135t-132 -328t132 -328t323 -135zM637 -20q-221 0 -377 154t-156 378q0 223 156 378q156 154 377 154t377 -154t156 -378q0 -223 -156 -378q-156 -154 -377 -154zM365 1174v65h540v-65h-540z" />
    <glyph glyph-name="Obreve" unicode="&#x14e;" horiz-adv-x="1763" 
d="M1204 1946q0 -122 -92 -216t-244 -94q-154 0 -240 91t-85 219h67q0 -102 69 -176t191 -72q122 0 195 74q72 74 72 174h67zM882 51q288 0 488 204t201 493q0 288 -201 492q-200 204 -488 204t-489 -204t-201 -492t202 -493q200 -204 488 -204zM881 -20q-317 0 -543 225
q-225 225 -225 543t225 542q224 226 542 226t543 -226t225 -542t-224 -542q-226 -226 -543 -226z" />
    <glyph glyph-name="obreve" unicode="&#x14f;" horiz-adv-x="1273" 
d="M965 1464q1 -123 -91 -216t-246 -93t-239 91q-86 91 -86 218h68q1 -102 69 -175t191 -73t195 74t71 174h68zM637 49q190 0 322 135t133 328q0 193 -132 328t-323 135t-323 -135t-132 -328t132 -328t323 -135zM637 -20q-221 0 -377 154t-156 378q0 223 156 378
q156 154 377 154t377 -154t156 -378q0 -223 -156 -378q-156 -154 -377 -154z" />
    <glyph glyph-name="Ohungarumlaut" unicode="&#x150;" horiz-adv-x="1763" 
d="M882 51q288 0 488 204t201 493q0 288 -201 492q-200 204 -488 204t-489 -204t-201 -492t202 -493q200 -204 488 -204zM881 -20q-317 0 -543 225q-225 225 -225 543t225 542q224 226 542 226t543 -226t225 -542t-224 -542q-226 -226 -543 -226zM922 1645l252 301h98
l-277 -301h-73zM715 1645l252 301h98l-277 -301h-73z" />
    <glyph glyph-name="ohungarumlaut" unicode="&#x151;" horiz-adv-x="1273" 
d="M637 49q190 0 322 135t133 328q0 193 -132 328t-323 135t-323 -135t-132 -328t132 -328t323 -135zM637 -20q-221 0 -377 154t-156 378q0 223 156 378q156 154 377 154t377 -154t156 -378q0 -223 -156 -378q-156 -154 -377 -154zM700 1174l252 301h99l-277 -301h-74z
M494 1174l251 301h99l-277 -301h-73z" />
    <glyph glyph-name="OE" unicode="&#x152;" horiz-adv-x="2635" 
d="M881 53q287 0 489 204t201 491q0 286 -202 490q-203 204 -489 204t-488 -204t-202 -490t202 -491q202 -204 489 -204zM1571 0v428q-89 -203 -273 -326t-417 -122q-317 0 -543 225q-225 225 -225 543t225 542q225 225 543 226q233 0 416 -123t274 -328v430h921v-72h-845
v-639h845v-71h-845v-639h845v-74h-921z" />
    <glyph glyph-name="oe" unicode="&#x153;" horiz-adv-x="2258" 
d="M1626 977q-182 0 -311 -119t-148 -295h906q-17 180 -141 297t-306 117zM637 49q190 0 322 135t133 328q0 193 -132 328t-323 135t-323 -135t-132 -328t132 -328t323 -135zM637 -20q-221 0 -377 154t-156 378q0 223 156 378t377 154q174 0 305 -95t186 -251
q54 156 186 251t310 95q225 0 376 -150t150 -376v-22h-985q5 -193 137 -321t311 -128t297 91t156 241l70 -27q-47 -168 -183 -270q-135 -102 -321 -102t-319 93t-185 246q-57 -151 -188 -245t-303 -94z" />
    <glyph glyph-name="Racute" unicode="&#x154;" horiz-adv-x="1200" 
d="M473 1645l252 301h102l-276 -301h-78zM162 0v1495h452q199 0 337 -134q139 -135 139 -317t-116 -311t-294 -147l416 -586h-92l-453 645h57q170 0 287 116q117 117 117 277t-116 273t-286 112h-372v-1423h-76z" />
    <glyph glyph-name="racute" unicode="&#x155;" horiz-adv-x="770" 
d="M397 1174l252 301h103l-277 -301h-78zM152 0v1024h73v-264q43 120 145 192t240 72h66v-72h-66q-174 0 -278 -112t-105 -303v-537h-75z" />
    <glyph glyph-name="Rcommaaccent" unicode="&#x156;" horiz-adv-x="1200" 
d="M530 -561h-57l96 418h76zM162 0v1495h452q199 0 337 -134q139 -135 139 -317t-116 -311t-294 -147l416 -586h-92l-453 645h57q170 0 287 116q117 117 117 277t-116 273t-286 112h-372v-1423h-76z" />
    <glyph glyph-name="rcommaaccent" unicode="&#x157;" horiz-adv-x="770" 
d="M117 -528h-58l97 417h75zM152 0v1024h73v-264q43 120 145 192t240 72h66v-72h-66q-174 0 -278 -112t-105 -303v-537h-75z" />
    <glyph glyph-name="Rcaron" unicode="&#x158;" horiz-adv-x="1200" 
d="M526 1645l-243 301h82l192 -242l195 242h84l-244 -301h-66zM162 0v1495h452q199 0 337 -134q139 -135 139 -317t-116 -311t-294 -147l416 -586h-92l-453 645h57q170 0 287 116q117 117 117 277t-116 273t-286 112h-372v-1423h-76z" />
    <glyph glyph-name="rcaron" unicode="&#x159;" horiz-adv-x="770" 
d="M379 1174l-244 301h82l193 -242l194 242h84l-244 -301h-65zM152 0v1024h73v-264q43 120 145 192t240 72h66v-72h-66q-174 0 -278 -112t-105 -303v-537h-75z" />
    <glyph glyph-name="Sacute" unicode="&#x15a;" horiz-adv-x="1130" 
d="M137 244q155 -195 428 -195q147 0 261 95t114 255q0 117 -79 201q-32 33 -92 65t-103 47t-122 41t-124 42t-111 51q-65 35 -99 72q-84 93 -85 243q0 150 123 252t307 103q266 0 418 -187l-62 -45q-119 162 -358 162q-147 0 -249 -83t-103 -204q0 -121 59 -180
q33 -33 68 -62t114 -55q78 -26 162 -53t146 -53q180 -78 234 -193q34 -70 34 -164q0 -183 -135 -301t-338 -118q-147 0 -271 58t-200 157zM514 1642l252 302h102l-276 -302h-78z" />
    <glyph glyph-name="sacute" unicode="&#x15b;" horiz-adv-x="940" 
d="M127 215q117 -168 355 -168q124 0 202 67t78 153t-53 131t-121 64q-68 18 -140 38q-247 66 -303 164q-27 47 -26 110q0 115 94 193t248 77q221 0 344 -141l-55 -45q-109 121 -289 121q-123 0 -196 -56t-73 -136t51 -125q50 -45 117 -62q249 -66 313 -96q64 -29 92 -55
q71 -68 71 -180q0 -111 -98 -200t-277 -89q-123 0 -229 53t-164 135zM408 1174l251 301h103l-277 -301h-77z" />
    <glyph glyph-name="Scircumflex" unicode="&#x15c;" horiz-adv-x="1130" 
d="M276 1645l244 301h66l243 -301h-81l-195 239l-193 -239h-84zM137 244q155 -195 428 -195q147 0 261 95t114 255q0 117 -79 201q-32 33 -92 65t-103 47t-122 41t-124 42t-111 51q-65 35 -99 72q-84 93 -85 243q0 150 123 252t307 103q266 0 418 -187l-62 -45
q-119 162 -358 162q-147 0 -249 -83t-103 -204q0 -121 59 -180q33 -33 68 -62t114 -55q78 -26 162 -53t146 -53q180 -78 234 -193q34 -70 34 -164q0 -183 -135 -301t-338 -118q-147 0 -271 58t-200 157z" />
    <glyph glyph-name="scircumflex" unicode="&#x15d;" horiz-adv-x="940" 
d="M178 1174l244 301h65l244 -301h-82l-194 239l-193 -239h-84zM127 215q117 -168 355 -168q124 0 202 67t78 153t-53 131t-121 64q-68 18 -140 38q-247 66 -303 164q-27 47 -26 110q0 115 94 193t248 77q221 0 344 -141l-55 -45q-109 121 -289 121q-123 0 -196 -56
t-73 -136t51 -125q50 -45 117 -62q249 -66 313 -96q64 -29 92 -55q71 -68 71 -180q0 -111 -98 -200t-277 -89q-123 0 -229 53t-164 135z" />
    <glyph glyph-name="Scedilla" unicode="&#x15e;" horiz-adv-x="1130" 
d="M137 244q155 -195 428 -195q147 0 261 95t114 255q0 117 -79 201q-32 33 -92 65t-103 47t-122 41t-124 42t-111 51q-65 35 -99 72q-84 93 -85 243q0 150 123 252t307 103q266 0 418 -187l-62 -45q-119 162 -358 162q-147 0 -249 -83t-103 -204q0 -121 59 -180
q33 -33 68 -62t114 -55q78 -26 162 -53t146 -53q180 -78 234 -193q34 -70 34 -164q0 -178 -127 -294t-320 -125v-93q115 0 186 -43q71 -44 71 -118t-76 -126q-74 -52 -191 -53q-162 0 -268 107l61 39q96 -86 194 -86t151 35q55 35 55 86t-54 81t-145 29h-47v144
q-276 16 -434 213z" />
    <glyph glyph-name="scedilla" unicode="&#x15f;" horiz-adv-x="940" 
d="M127 215q117 -168 355 -168q124 0 202 67t78 153t-53 131t-121 64q-68 18 -140 38q-247 66 -303 164q-27 47 -26 110q0 115 94 193t248 77q221 0 344 -141l-55 -45q-109 121 -289 121q-123 0 -196 -56t-73 -136t51 -125q50 -45 117 -62q249 -66 313 -96q64 -29 92 -55
q71 -68 71 -178q0 -109 -92 -197t-263 -94v-93q115 0 186 -43q71 -44 71 -118t-76 -126q-74 -52 -191 -53q-162 0 -268 107l61 39q96 -86 194 -86t151 35q55 35 55 86t-54 81t-145 29h-47v144q-111 8 -203 59t-147 127z" />
    <glyph glyph-name="Scaron" unicode="&#x160;" horiz-adv-x="1130" 
d="M522 1645l-243 301h81l193 -242l195 242h83l-243 -301h-66zM137 244q155 -195 428 -195q147 0 261 95t114 255q0 117 -79 201q-32 33 -92 65t-103 47t-122 41t-124 42t-111 51q-65 35 -99 72q-84 93 -85 243q0 150 123 252t307 103q266 0 418 -187l-62 -45
q-119 162 -358 162q-147 0 -249 -83t-103 -204q0 -121 59 -180q33 -33 68 -62t114 -55q78 -26 162 -53t146 -53q180 -78 234 -193q34 -70 34 -164q0 -183 -135 -301t-338 -118q-147 0 -271 58t-200 157z" />
    <glyph glyph-name="scaron" unicode="&#x161;" horiz-adv-x="940" 
d="M420 1174l-244 301h82l193 -242l194 242h84l-244 -301h-65zM127 215q117 -168 355 -168q124 0 202 67t78 153t-53 131t-121 64q-68 18 -140 38q-247 66 -303 164q-27 47 -26 110q0 115 94 193t248 77q221 0 344 -141l-55 -45q-109 121 -289 121q-123 0 -196 -56t-73 -136
t51 -125q50 -45 117 -62q249 -66 313 -96q64 -29 92 -55q71 -68 71 -180q0 -111 -98 -200t-277 -89q-123 0 -229 53t-164 135z" />
    <glyph glyph-name="Tcommaaccent" unicode="&#x162;" horiz-adv-x="1249" 
d="M586 0v1423h-484v72h1045v-72h-485v-1423h-76zM563 -561h-57l96 418h76z" />
    <glyph glyph-name="tcommaaccent" unicode="&#x163;" horiz-adv-x="686" 
d="M326 -557h-58l97 418h75zM59 956v68h181v236l73 53v-289h281v-68h-281v-600q1 -180 55 -233t226 -53v-70h-10q-205 0 -275 71t-69 283v602h-181z" />
    <glyph glyph-name="Tcaron" unicode="&#x164;" horiz-adv-x="1249" 
d="M586 1645l-244 301h82l192 -242l195 242h84l-244 -301h-65zM586 0v1423h-484v72h1045v-72h-485v-1423h-76z" />
    <glyph glyph-name="tcaron" unicode="&#x165;" horiz-adv-x="686" 
d="M465 1180l119 331h75l-135 -331h-59zM59 956v68h181v236l73 53v-289h281v-68h-281v-600q1 -180 55 -233t226 -53v-70h-10q-205 0 -275 71t-69 283v602h-181z" />
    <glyph glyph-name="Tbar" unicode="&#x166;" horiz-adv-x="1249" 
d="M326 750v69h260v604h-484v72h1045v-72h-485v-604h286v-69h-286v-750h-76v750h-260z" />
    <glyph glyph-name="tbar" unicode="&#x167;" horiz-adv-x="686" 
d="M59 956v68h181v236l73 53v-289h281v-68h-281v-368h248v-66h-248v-166q1 -180 55 -233t226 -53v-70h-10q-205 0 -275 71t-69 283v168h-168v66h168v368h-181z" />
    <glyph glyph-name="Utilde" unicode="&#x168;" horiz-adv-x="1329" 
d="M313 1645q1 88 51 142t124 54q74 1 188 -69t170 -70q121 0 121 133h65q0 -94 -50 -146q-111 -115 -333 19q-104 66 -155 66t-84 -34t-33 -95h-64zM664 -20q-215 0 -362 147q-146 147 -146 358v1010h75v-1010q0 -182 126 -308q127 -126 307 -126t307 126t127 308v1010h76
v-1008q0 -213 -148 -360t-362 -147z" />
    <glyph glyph-name="utilde" unicode="&#x169;" horiz-adv-x="1245" 
d="M260 1174q0 88 50 142t124 54t189 -70t170 -69q121 0 120 133h66q0 -94 -50 -146q-111 -115 -333 19q-104 66 -156 66t-84 -34q-33 -34 -32 -95h-64zM612 -20q-213 0 -339 124t-126 345v575h76v-578q-1 -182 105 -290t282 -107q176 0 293 114t117 283v578h74v-1024h-72
v242q-47 -114 -158 -188t-252 -74z" />
    <glyph glyph-name="Umacron" unicode="&#x16a;" horiz-adv-x="1329" 
d="M393 1645v65h541v-65h-541zM664 -20q-215 0 -362 147q-146 147 -146 358v1010h75v-1010q0 -182 126 -308q127 -126 307 -126t307 126t127 308v1010h76v-1008q0 -213 -148 -360t-362 -147z" />
    <glyph glyph-name="umacron" unicode="&#x16b;" horiz-adv-x="1245" 
d="M348 1174v65h541v-65h-541zM612 -20q-213 0 -339 124t-126 345v575h76v-578q-1 -182 105 -290t282 -107q176 0 293 114t117 283v578h74v-1024h-72v242q-47 -114 -158 -188t-252 -74z" />
    <glyph glyph-name="Ubreve" unicode="&#x16c;" horiz-adv-x="1329" 
d="M991 1944q0 -122 -91 -216q-90 -94 -244 -94t-240 91t-86 219h67q0 -102 69 -176t192 -72q122 0 194 74t72 174h67zM664 -20q-215 0 -362 147q-146 147 -146 358v1010h75v-1010q0 -182 126 -308q127 -126 307 -126t307 126t127 308v1010h76v-1008q0 -213 -148 -360
t-362 -147z" />
    <glyph glyph-name="ubreve" unicode="&#x16d;" horiz-adv-x="1245" 
d="M946 1464q0 -123 -92 -216t-244 -93q-154 0 -240 91t-85 218h67q0 -102 69 -175t191 -73t195 74q72 74 72 174h67zM612 -20q-213 0 -339 124t-126 345v575h76v-578q-1 -182 105 -290t282 -107q176 0 293 114t117 283v578h74v-1024h-72v242q-47 -114 -158 -188t-252 -74z
" />
    <glyph glyph-name="Uring" unicode="&#x16e;" horiz-adv-x="1329" 
d="M664 -20q-215 0 -362 147q-146 147 -146 358v1010h75v-1010q0 -182 126 -308q127 -126 307 -126t307 126t127 308v1010h76v-1008q0 -213 -148 -360t-362 -147zM654 1696q50 0 88 37t38 88t-38 89t-88 38t-87 -39t-37 -89t37 -87t87 -37zM655 1632q-78 0 -133 56t-55 133
q0 78 55 133t133 55t133 -54q56 -54 56 -133q0 -78 -56 -134t-133 -56z" />
    <glyph glyph-name="uring" unicode="&#x16f;" horiz-adv-x="1245" 
d="M615 1225q50 0 88 37t38 88t-38 89t-88 38t-87 -39q-36 -39 -36 -89t36 -87t87 -37zM616 1538q78 0 134 -54t55 -133q1 -79 -55 -135t-134 -55q-78 -1 -133 55t-55 134t55 133t133 55zM612 -20q-213 0 -339 124t-126 345v575h76v-578q-1 -182 105 -290t282 -107
q176 0 293 114t117 283v578h74v-1024h-72v242q-47 -114 -158 -188t-252 -74z" />
    <glyph glyph-name="Uhungarumlaut" unicode="&#x170;" horiz-adv-x="1329" 
d="M700 1645l252 301h99l-277 -301h-74zM494 1645l251 301h99l-277 -301h-73zM664 -20q-215 0 -362 147q-146 147 -146 358v1010h75v-1010q0 -182 126 -308q127 -126 307 -126t307 126t127 308v1010h76v-1008q0 -213 -148 -360t-362 -147z" />
    <glyph glyph-name="uhungarumlaut" unicode="&#x171;" horiz-adv-x="1245" 
d="M465 1174l252 301h98l-276 -301h-74zM672 1174l252 301h98l-277 -301h-73zM612 -20q-213 0 -339 124t-126 345v575h76v-578q-1 -182 105 -290t282 -107q176 0 293 114t117 283v578h74v-1024h-72v242q-47 -114 -158 -188t-252 -74z" />
    <glyph glyph-name="Uogonek" unicode="&#x172;" horiz-adv-x="1329" 
d="M681 -422q-126 0 -196 53t-69 133q0 123 174 222q-188 25 -311 166t-123 333v1010h75v-1010q0 -182 126 -308q127 -126 307 -126t307 126t127 308v1010h76v-1008q0 -197 -128 -339t-323 -164q-127 -64 -179 -114t-52 -106t48 -88q48 -33 126 -32q106 0 200 90l62 -43
q-121 -113 -247 -113z" />
    <glyph glyph-name="uogonek" unicode="&#x173;" horiz-adv-x="1245" 
d="M1063 -451q-103 -1 -159 55t-56 136q0 127 174 283v219q-47 -115 -158 -189t-252 -73q-213 0 -339 124t-126 345v575h76v-578q-1 -182 105 -290t282 -107q176 0 293 114t117 283v578h74v-1024h-4l4 -2q-176 -139 -176 -254q0 -57 38 -93t114 -36q75 0 159 80l47 -51
q-111 -95 -213 -95z" />
    <glyph glyph-name="Wcircumflex" unicode="&#x174;" horiz-adv-x="2201" 
d="M819 1645l244 301h65l244 -301h-82l-194 239l-193 -239h-84zM543 0l-447 1495h84l404 -1374l477 1374h74l477 -1376l411 1376h80l-452 -1495h-78l-475 1372l-477 -1372h-78z" />
    <glyph glyph-name="wcircumflex" unicode="&#x175;" horiz-adv-x="1689" 
d="M571 1174l244 301h66l243 -301h-82l-194 239l-193 -239h-84zM412 0l-326 1024h80l285 -901l364 901h68l348 -907l293 907h80l-338 -1024h-68l-352 915l-369 -915h-65z" />
    <glyph glyph-name="Ycircumflex" unicode="&#x176;" horiz-adv-x="1241" 
d="M340 1645l244 301h65l244 -301h-82l-195 239l-192 -239h-84zM584 0v713l-508 782h88l457 -709l456 709h88l-506 -782v-713h-75z" />
    <glyph glyph-name="ycircumflex" unicode="&#x177;" horiz-adv-x="1144" 
d="M293 1174l244 301h65l244 -301h-82l-195 239l-192 -239h-84zM303 -473l244 530l-467 967h84l422 -881l397 881h82l-680 -1497h-82z" />
    <glyph glyph-name="Ydieresis" unicode="&#x178;" horiz-adv-x="1241" 
d="M684 1649v286h74v-286h-74zM479 1649v286h74v-286h-74zM584 0v713l-508 782h88l457 -709l456 709h88l-506 -782v-713h-75z" />
    <glyph glyph-name="Zacute" unicode="&#x179;" horiz-adv-x="1224" 
d="M571 1645l252 301h103l-277 -301h-78zM113 0v72l901 1351h-858v72h950v-70l-903 -1351h909v-74h-999z" />
    <glyph glyph-name="zacute" unicode="&#x17a;" horiz-adv-x="1101" 
d="M504 1174l252 301h102l-276 -301h-78zM100 0v72l801 882h-772v70h866v-72l-800 -882h806v-70h-901z" />
    <glyph glyph-name="Zdotaccent" unicode="&#x17b;" horiz-adv-x="1224" 
d="M588 1649v286h76v-286h-76zM113 0v72l901 1351h-858v72h950v-70l-903 -1351h909v-74h-999z" />
    <glyph glyph-name="zdotaccent" unicode="&#x17c;" horiz-adv-x="1101" 
d="M518 1178v286h76v-286h-76zM100 0v72l801 882h-772v70h866v-72l-800 -882h806v-70h-901z" />
    <glyph glyph-name="Zcaron" unicode="&#x17d;" horiz-adv-x="1224" 
d="M590 1645l-244 301h82l193 -242l194 242h84l-244 -301h-65zM113 0v72l901 1351h-858v72h950v-70l-903 -1351h909v-74h-999z" />
    <glyph glyph-name="zcaron" unicode="&#x17e;" horiz-adv-x="1101" 
d="M526 1174l-243 301h82l192 -242l195 242h84l-244 -301h-66zM100 0v72l801 882h-772v70h866v-72l-800 -882h806v-70h-901z" />
    <glyph glyph-name="florin" unicode="&#x192;" 
d="M268 745v70h328l90 318q55 205 138 283t237 79h8v-70q-131 0 -193 -60t-114 -243l-86 -307h317v-70h-336l-106 -383q-59 -210 -140 -286t-268 -76h-8v70q158 0 221 59t117 246l105 370h-310z" />
    <glyph glyph-name="Aringacute" unicode="&#x1fa;" horiz-adv-x="1415" 
d="M662 1890l251 301h103l-277 -301h-77zM703 1499q50 0 89 37q38 37 38 88t-38 89t-88 38t-88 -39q-36 -39 -36 -89t36 -87t87 -37zM709 1391l-336 -863h671zM516 1631q0 71 55 126t133 55t134 -54t55 -124q0 -70 -36 -120q-36 -48 -91 -68l565 -1446h-80l-180 459h-727
l-178 -459h-82l563 1444q-57 16 -94 66t-37 121z" />
    <glyph glyph-name="aringacute" unicode="&#x1fb;" horiz-adv-x="1312" 
d="M604 1620l252 301h102l-276 -301h-78zM648 1219q50 1 88 37t38 87t-38 89t-88 38t-87 -38t-37 -90q0 -50 37 -86t87 -37zM649 1155q-78 0 -133 55t-55 133q0 77 55 133t133 56t133 -54q56 -54 56 -134t-56 -134q-56 -55 -133 -55zM182 512q0 -193 132 -328t324 -135
t324 135t132 328t-132 328t-324 135t-324 -135t-132 -328zM635 -20q-221 0 -376 156t-155 376q0 221 154 377t377 155q145 0 271 -78t181 -214v272h74v-1024h-74v272q-55 -136 -181 -214t-271 -78z" />
    <glyph glyph-name="AEacute" unicode="&#x1fc;" horiz-adv-x="2201" 
d="M1178 1645l252 301h102l-277 -301h-77zM936 1393l-473 -879h661zM2025 1495v-72h-1019l135 -639h884v-71h-868l135 -639h733v-74h-790l-96 444h-713l-240 -444h-86l805 1495h1120z" />
    <glyph glyph-name="aeacute" unicode="&#x1fd;" horiz-adv-x="2025" 
d="M942 1174l252 301h102l-276 -301h-78zM188 264q0 -104 67 -162t215 -59q148 0 258 83q112 83 163 193q-33 85 -33 171t10 128q-46 -56 -176 -82q-44 -8 -188 -37q-146 -28 -231 -80q-85 -51 -85 -155zM1392 977q-180 0 -310 -119t-150 -295h907q-16 180 -141 297
t-306 117zM1408 -20q-173 0 -296 72t-190 196q-54 -106 -176 -188t-294 -80q-172 0 -254 76q-83 76 -85 204q-2 129 101 198q103 68 306 108t256 63q104 47 107 131q0 102 -82 162t-245 59q-163 0 -258 -80t-95 -211v-6h-72v4q0 162 116 259t296 97t280 -61t123 -172
q72 109 189 171t256 62q225 0 375 -150t151 -376v-22h-987q4 -190 136 -320t312 -129q180 0 298 91t157 241l70 -27q-47 -168 -185 -270t-310 -102z" />
    <glyph glyph-name="Oslashacute" unicode="&#x1fe;" horiz-adv-x="1763" 
d="M829 1645l252 301h103l-277 -301h-78zM881 51q289 0 489 204t201 493q0 158 -66 298t-182 236l-821 -1116q174 -115 379 -115zM193 748q1 -160 67 -300t180 -237l824 1116q-176 117 -383 117q-287 0 -487 -204t-201 -492zM1649 748q1 -316 -225 -542t-543 -226
q-229 0 -424 126l-78 -106h-92l110 150q-133 108 -209 264t-75 334q0 317 225 542t543 226q233 0 426 -130l79 109h93l-113 -154q131 -109 207 -263t76 -330z" />
    <glyph glyph-name="oslashacute" unicode="&#x1ff;" horiz-adv-x="1273" 
d="M580 1174l251 301h103l-277 -301h-77zM637 49q190 0 322 135q133 135 133 336t-154 340l-545 -739q111 -72 244 -72zM637 975q-191 0 -323 -135t-132 -339t156 -339l545 739q-113 74 -246 74zM637 -20q-152 0 -287 81l-45 -61h-86l76 102q-191 158 -191 396t156 392
q156 155 377 154q156 0 289 -83l47 63h86l-78 -104q188 -162 188 -396t-155 -390q-156 -154 -377 -154z" />
    <glyph glyph-name="Scommaaccent" unicode="&#x218;" horiz-adv-x="1130" 
d="M137 244q155 -195 428 -195q147 0 261 95t114 255q0 117 -79 201q-32 33 -92 65t-103 47t-122 41t-124 42t-111 51q-65 35 -99 72q-84 93 -85 243q0 150 123 252t307 103q266 0 418 -187l-62 -45q-119 162 -358 162q-147 0 -249 -83t-103 -204q0 -121 59 -180
q33 -33 68 -62t114 -55q78 -26 162 -53t146 -53q180 -78 234 -193q34 -70 34 -164q0 -183 -135 -301t-338 -118q-147 0 -271 58t-200 157zM487 -528h-57l96 417h76z" />
    <glyph glyph-name="scommaaccent" unicode="&#x219;" horiz-adv-x="940" 
d="M127 215q117 -168 355 -168q124 0 202 67t78 153t-53 131t-121 64q-68 18 -140 38q-247 66 -303 164q-27 47 -26 110q0 115 94 193t248 77q221 0 344 -141l-55 -45q-109 121 -289 121q-123 0 -196 -56t-73 -136t51 -125q50 -45 117 -62q249 -66 313 -96q64 -29 92 -55
q71 -68 71 -180q0 -111 -98 -200t-277 -89q-123 0 -229 53t-164 135zM387 -530h-57l96 417h76z" />
    <glyph glyph-name="dotlessj" unicode="&#x237;" horiz-adv-x="380" 
d="M-129 -467v74q174 0 228 51t55 231v1135h75v-1137q1 -211 -71 -283t-277 -71h-10z" />
    <glyph glyph-name="circumflex" unicode="&#x2c6;" horiz-adv-x="1038" 
d="M242 1174l243 301h66l244 -301h-82l-195 239l-192 -239h-84z" />
    <glyph glyph-name="caron" unicode="&#x2c7;" horiz-adv-x="1038" 
d="M485 1174l-243 301h82l192 -242l195 242h84l-244 -301h-66z" />
    <glyph glyph-name="breve" unicode="&#x2d8;" horiz-adv-x="1038" 
d="M848 1464q0 -123 -92 -216t-244 -93q-154 0 -240 91t-86 218h68q0 -102 69 -175t191 -73t195 74q72 74 71 174h68z" />
    <glyph glyph-name="dotaccent" unicode="&#x2d9;" horiz-adv-x="1042" 
d="M463 1178v286h76v-286h-76z" />
    <glyph glyph-name="ring" unicode="&#x2da;" horiz-adv-x="1038" 
d="M509 1225q50 0 88 37t38 88t-38 89t-88 38t-87 -39t-37 -89t37 -87t87 -37zM698 1351q0 -79 -55 -135t-133 -55q-78 -1 -133 55t-55 134t55 133t133 55t133 -54t55 -133z" />
    <glyph glyph-name="ogonek" unicode="&#x2db;" horiz-adv-x="1038" 
d="M517 -414q-125 0 -195 54t-70 133q0 145 258 262l59 -39q-133 -66 -187 -117t-54 -106t48 -88t140 -33t186 90l62 -43q-121 -113 -247 -113z" />
    <glyph glyph-name="tilde" unicode="&#x2dc;" horiz-adv-x="1038" 
d="M158 1174q0 88 50 142t124 54t188 -70t170 -69q121 0 121 133h66q-1 -94 -51 -146q-112 -115 -332 19q-104 66 -156 66t-84 -34q-33 -34 -33 -95h-63z" />
    <glyph glyph-name="hungarumlaut" unicode="&#x2dd;" horiz-adv-x="1038" 
d="M440 1174l252 301h99l-277 -301h-74zM233 1174l252 301h99l-277 -301h-74z" />
    <glyph glyph-name="uni0328" unicode="&#x328;" horiz-adv-x="1038" 
d="M543 -451q-103 -1 -159 55t-56 136q0 129 186 295l59 -37q-176 -139 -176 -254q0 -57 39 -93t114 -36t159 80l47 -51q-111 -95 -213 -95z" />
    <glyph glyph-name="pi" unicode="&#x3c0;" horiz-adv-x="1497" 
d="M88 1421v74h1323v-74h-291v-1112q0 -238 197 -237h80v-72h-86q-266 0 -267 307v1114h-612v-1421h-76v1421h-268z" />
    <glyph glyph-name="pi" unicode="&#x3d6;" horiz-adv-x="1497" 
d="M88 1421v74h1323v-74h-291v-1112q0 -238 197 -237h80v-72h-86q-266 0 -267 307v1114h-612v-1421h-76v1421h-268z" />
    <glyph glyph-name="uni0E3F" unicode="&#xe3f;" horiz-adv-x="1112" 
d="M635 1292h-45v-487h61q113 -1 184 69t71 174t-78 174t-193 70zM645 735h-55v-526h57q119 0 198 76q79 77 79 189t-78 186t-201 75zM219 1292v-487h301v487h-301zM219 735v-526h301v526h-301zM145 141v1221h375v133h70v-133h45q150 0 248 -89t98 -224q0 -98 -52 -172
t-145 -107q98 -33 156 -112t57 -185q0 -145 -98 -239t-252 -93h-57v-141h-70v141h-375z" />
    <glyph glyph-name="Wgrave" unicode="&#x1e80;" horiz-adv-x="2201" 
d="M1057 1645l-277 301h103l252 -301h-78zM543 0l-447 1495h84l404 -1374l477 1374h74l477 -1376l411 1376h80l-452 -1495h-78l-475 1372l-477 -1372h-78z" />
    <glyph glyph-name="wgrave" unicode="&#x1e81;" horiz-adv-x="1689" 
d="M803 1174l-277 301h103l252 -301h-78zM412 0l-326 1024h80l285 -901l364 901h68l348 -907l293 907h80l-338 -1024h-68l-352 915l-369 -915h-65z" />
    <glyph glyph-name="Wacute" unicode="&#x1e82;" horiz-adv-x="2201" 
d="M1055 1645l252 301h102l-276 -301h-78zM543 0l-447 1495h84l404 -1374l477 1374h74l477 -1376l411 1376h80l-452 -1495h-78l-475 1372l-477 -1372h-78z" />
    <glyph glyph-name="wacute" unicode="&#x1e83;" horiz-adv-x="1689" 
d="M809 1174l252 301h102l-276 -301h-78zM412 0l-326 1024h80l285 -901l364 901h68l348 -907l293 907h80l-338 -1024h-68l-352 915l-369 -915h-65z" />
    <glyph glyph-name="Wdieresis" unicode="&#x1e84;" horiz-adv-x="2201" 
d="M1163 1649v286h74v-286h-74zM958 1649v286h74v-286h-74zM543 0l-447 1495h84l404 -1374l477 1374h74l477 -1376l411 1376h80l-452 -1495h-78l-475 1372l-477 -1372h-78z" />
    <glyph glyph-name="wdieresis" unicode="&#x1e85;" horiz-adv-x="1689" 
d="M918 1178v286h73v-286h-73zM713 1178v286h73v-286h-73zM412 0l-326 1024h80l285 -901l364 901h68l348 -907l293 907h80l-338 -1024h-68l-352 915l-369 -915h-65z" />
    <glyph glyph-name="Ygrave" unicode="&#x1ef2;" horiz-adv-x="1241" 
d="M584 1645l-277 301h103l252 -301h-78zM584 0v713l-508 782h88l457 -709l456 709h88l-506 -782v-713h-75z" />
    <glyph glyph-name="ygrave" unicode="&#x1ef3;" horiz-adv-x="1144" 
d="M547 1174l-277 301h103l252 -301h-78zM303 -473l244 530l-467 967h84l422 -881l397 881h82l-680 -1497h-82z" />
    <glyph glyph-name="figuredash" unicode="&#x2012;" horiz-adv-x="1388" 
d="M111 485v68h1167v-68h-1167z" />
    <glyph glyph-name="endash" unicode="&#x2013;" horiz-adv-x="1081" 
d="M111 485v68h860v-68h-860z" />
    <glyph glyph-name="emdash" unicode="&#x2014;" horiz-adv-x="1490" 
d="M111 485v68h1269v-68h-1269z" />
    <glyph glyph-name="uni2015" unicode="&#x2015;" horiz-adv-x="2105" 
d="M111 485v68h1884v-68h-1884z" />
    <glyph glyph-name="doublebar" unicode="&#x2016;" horiz-adv-x="669" 
d="M449 -471v1966h75v-1966h-75zM145 -471v1966h76v-1966h-76z" />
    <glyph glyph-name="quoteleft" unicode="&#x2018;" horiz-adv-x="362" 
d="M170 1495l96 -418h-55l-121 418h80z" />
    <glyph glyph-name="quoteright" unicode="&#x2019;" horiz-adv-x="362" 
d="M150 1077h-58l96 418h80z" />
    <glyph glyph-name="quotesinglbase" unicode="&#x201a;" horiz-adv-x="366" 
d="M127 -240h-55l96 418h80z" />
    <glyph glyph-name="reversequoteleft" unicode="&#x201b;" horiz-adv-x="362" 
d="M150 1077h-58l96 418h80z" />
    <glyph glyph-name="quotedblleft" unicode="&#x201c;" horiz-adv-x="548" 
d="M356 1495l95 -418h-54l-118 418h77zM170 1495l96 -418h-55l-117 418h76z" />
    <glyph glyph-name="quotedblright" unicode="&#x201d;" horiz-adv-x="548" 
d="M334 1077h-55l96 418h80zM150 1077h-58l96 418h80z" />
    <glyph glyph-name="quotedblbase" unicode="&#x201e;" horiz-adv-x="550" 
d="M315 -240h-55l94 418h80zM129 -240h-55l96 418h80z" />
    <glyph glyph-name="reversequotedblleft" unicode="&#x201f;" horiz-adv-x="548" 
d="M334 1077h-55l96 418h80zM150 1077h-58l96 418h80z" />
    <glyph glyph-name="dagger" unicode="&#x2020;" horiz-adv-x="1216" 
d="M145 956v68h422v471h76v-471h430v-68h-430v-956h-76v956h-422z" />
    <glyph glyph-name="daggerdbl" unicode="&#x2021;" horiz-adv-x="1216" 
d="M145 977v65h422v453h76v-453h430v-65h-430v-445h430v-67h-430v-465h-76v465h-422v67h422v445h-422z" />
    <glyph glyph-name="bullet" unicode="&#x2022;" horiz-adv-x="565" 
d="M283 422q-39 0 -67 28t-28 66t28 67q28 27 67 27t67 -28t27 -66q1 -38 -27 -66t-67 -28z" />
    <glyph glyph-name="ellipsis" unicode="&#x2026;" horiz-adv-x="864" 
d="M641 0v281h78v-281h-78zM393 0v281h78v-281h-78zM145 0v281h78v-281h-78z" />
    <glyph glyph-name="perthousand" unicode="&#x2030;" horiz-adv-x="2629" 
d="M2118 43q110 0 188 80q78 79 78 189t-79 189t-187 79t-188 -79q-79 -79 -79 -189t79 -190t188 -79zM2118 -23q-138 -1 -236 97t-98 237t97 237t237 97q140 0 236 -97q97 -96 97 -236t-97 -238t-236 -97zM512 913q108 0 186 79t78 190q0 112 -78 190t-186 78t-188 -79
q-78 -79 -78 -189t78 -190q78 -79 188 -79zM511 848q-138 0 -237 97q-98 97 -98 237t98 236q98 98 236 98t238 -98q98 -98 98 -235q0 -138 -98 -237q-99 -98 -237 -98zM1290 580q-108 0 -186 -79t-78 -189t79 -190t187 -79q108 0 186 80q78 79 78 189t-78 189
q-79 79 -188 79zM1290 -23q-139 -1 -236 97t-98 237q0 139 98 237t236 97q140 0 238 -97q98 -98 98 -236t-98 -236t-238 -99zM209 0l1284 1495h100l-1284 -1495h-100z" />
    <glyph glyph-name="minute" unicode="&#x2032;" horiz-adv-x="362" 
d="M150 1077h-58l96 418h80z" />
    <glyph glyph-name="second" unicode="&#x2033;" horiz-adv-x="548" 
d="M334 1077h-55l96 418h80zM150 1077h-58l96 418h80z" />
    <glyph glyph-name="tripleprime" unicode="&#x2034;" horiz-adv-x="751" 
d="M541 1323v172h69v-172q0 -166 -20 -299h-29q-20 133 -20 299zM342 1323v172h70v-172q0 -166 -21 -299h-29q-20 133 -20 299zM143 1495h70v-172q0 -166 -20 -299h-29q-20 133 -21 299v172z" />
    <glyph glyph-name="guilsinglleft" unicode="&#x2039;" horiz-adv-x="587" 
d="M442 240l-297 243v56l297 243v-71l-243 -201l243 -201v-69z" />
    <glyph glyph-name="guilsinglright" unicode="&#x203a;" horiz-adv-x="587" 
d="M145 242v67l244 201l-244 203v69l297 -243v-54z" />
    <glyph glyph-name="fraction" unicode="&#x2044;" horiz-adv-x="1288" 
d="M59 0l1080 1495h90l-1079 -1495h-91z" />
    <glyph glyph-name="uni2070" unicode="&#x2070;" horiz-adv-x="1038" 
d="M520 686q156 0 264 111t109 267q0 156 -109 266q-108 110 -264 110t-264 -111t-109 -267q1 -156 109 -266t264 -110zM520 618q-184 0 -314 130t-130 315q0 184 130 314t314 130t314 -130t129 -314q1 -185 -129 -315t-314 -130z" />
    <glyph glyph-name="uni2074" unicode="&#x2074;" horiz-adv-x="761" 
d="M496 893v493l-346 -493h346zM496 631v198h-422v64l420 602h69v-602h127v-64h-127v-198h-67z" />
    <glyph glyph-name="uni2075" unicode="&#x2075;" horiz-adv-x="745" 
d="M377 618q-211 0 -289 164l64 39q63 -137 225 -137q92 0 159 62q66 62 66 164t-67 163q-68 59 -160 60q-152 0 -219 -144l-66 29l66 477h458v-63h-403l-45 -336q80 100 207 100t213 -76t86 -207t-83 -213t-212 -82z" />
    <glyph glyph-name="uni2076" unicode="&#x2076;" horiz-adv-x="759" 
d="M368 682q97 0 166 70q68 70 68 167t-68 165t-165 69q-98 0 -166 -69q-68 -68 -68 -166t68 -167t165 -69zM369 618q-127 0 -214 86t-87 206q0 119 67 210l260 375h82l-215 -307q59 27 119 26q121 0 206 -86t85 -210t-88 -212t-215 -88z" />
    <glyph glyph-name="uni2077" unicode="&#x2077;" horiz-adv-x="669" 
d="M78 1430v65h528v-61l-377 -803h-75l378 799h-454z" />
    <glyph glyph-name="uni2078" unicode="&#x2078;" horiz-adv-x="712" 
d="M355 1442q-75 0 -119 -45t-46 -112q0 -67 46 -112t120 -45t120 46t46 112q0 68 -46 112t-121 44zM355 682q93 0 150 53q56 53 56 133t-56 136q-57 56 -149 55q-92 0 -147 -55q-55 -56 -55 -136t54 -133t147 -53zM465 1096q164 -64 164 -240q0 -92 -74 -165t-199 -73
q-126 0 -200 73t-74 165q0 178 166 240q-127 55 -127 188q0 94 65 159q66 65 170 65t171 -66q67 -64 67 -158q0 -133 -129 -188z" />
    <glyph glyph-name="uni2079" unicode="&#x2079;" horiz-adv-x="733" 
d="M367 989q93 0 159 67t66 161q0 95 -66 161t-160 66t-160 -67q-67 -67 -67 -161t67 -160q67 -67 161 -67zM72 1217q0 123 86 207t209 83q123 0 207 -85t85 -195q0 -110 -55 -193l-266 -403h-82l217 323q-57 -27 -117 -26q-120 0 -202 83t-82 206z" />
    <glyph glyph-name="uni207A" unicode="&#x207a;" horiz-adv-x="587" 
d="M76 1034v60h188v186h60v-186h188v-60h-188v-190h-60v190h-188z" />
    <glyph glyph-name="uni207B" unicode="&#x207b;" horiz-adv-x="587" 
d="M76 1034v60h436v-60h-436z" />
    <glyph glyph-name="uni207C" unicode="&#x207c;" horiz-adv-x="587" 
d="M76 936v59h436v-59h-436zM76 1126v60h436v-60h-436z" />
    <glyph glyph-name="uni207D" unicode="&#x207d;" horiz-adv-x="563" 
d="M94 1064q0 392 324 615l45 -55q-297 -199 -297 -557t303 -563l-43 -58q-332 226 -332 618z" />
    <glyph glyph-name="uni207E" unicode="&#x207e;" horiz-adv-x="563" 
d="M397 1067q0 358 -297 557l43 55q326 -223 326 -615t-334 -618l-41 58q303 205 303 563z" />
    <glyph glyph-name="uni2080" unicode="&#x2080;" horiz-adv-x="1038" 
d="M520 55q156 0 264 111q108 110 109 266q0 156 -109 266q-108 110 -264 111q-156 0 -264 -111q-108 -110 -109 -266q1 -156 109 -266t264 -111zM520 -12q-184 0 -314 130t-130 314t130 314t314 130t314 -130t129 -314q1 -184 -129 -314t-314 -130z" />
    <glyph glyph-name="uni2081" unicode="&#x2081;" horiz-adv-x="569" 
d="M84 0v66h174v665q-14 -33 -56 -57t-87 -23h-15v72h6q78 0 116 43t38 98h68v-798h168v-66h-412z" />
    <glyph glyph-name="uni2082" unicode="&#x2082;" horiz-adv-x="716" 
d="M90 0v72q0 64 43 126t87 97t123 90t114 82t71 77q37 50 37 112t-55 111q-55 48 -137 48q-160 0 -228 -143l-61 30q84 174 281 175q121 0 195 -67t75 -169q0 -61 -41 -121t-81 -93q-40 -32 -119 -87t-118 -85q-38 -30 -76 -81t-38 -102v-6h477v-66h-549z" />
    <glyph glyph-name="uni2083" unicode="&#x2083;" horiz-adv-x="692" 
d="M80 758q90 119 272 119q102 1 174 -61t72 -165q0 -147 -137 -202q158 -55 157 -211q0 -111 -77 -181q-78 -69 -205 -69q-174 0 -270 112l59 45q72 -94 211 -94q92 0 152 52q60 53 60 135t-60 130q-62 48 -156 48h-80v65h80q90 0 144 47t54 121t-54 120t-130 46t-130 -28
q-52 -28 -79 -66z" />
    <glyph glyph-name="uni2084" unicode="&#x2084;" horiz-adv-x="761" 
d="M496 262v494l-346 -494h346zM496 0v199h-422v63l420 602h69v-602h127v-63h-127v-199h-67z" />
    <glyph glyph-name="uni2085" unicode="&#x2085;" horiz-adv-x="745" 
d="M377 -12q-211 0 -289 164l64 38q63 -137 225 -137q92 1 159 63q66 62 66 164t-67 162q-68 59 -160 60q-152 0 -219 -144l-66 29l66 477h458v-63h-403l-45 -336q80 100 207 100t213 -76t86 -207q0 -130 -83 -212t-212 -82z" />
    <glyph glyph-name="uni2086" unicode="&#x2086;" horiz-adv-x="770" 
d="M384 51q97 0 166 70q68 70 68 167t-67 166q-68 68 -166 68t-166 -68q-67 -68 -67 -167q0 -98 68 -167t164 -69zM385 -12q-127 0 -214 86t-87 205t68 210l260 375h82l-215 -307q59 27 118 27q121 0 206 -86t85 -211t-88 -212t-215 -87z" />
    <glyph glyph-name="uni2087" unicode="&#x2087;" horiz-adv-x="669" 
d="M78 799v65h528v-61l-377 -803h-75l378 799h-454z" />
    <glyph glyph-name="uni2088" unicode="&#x2088;" horiz-adv-x="712" 
d="M355 811q-75 0 -119 -45t-46 -112q0 -68 46 -112t120 -44t120 45t46 113t-46 111q-46 44 -121 44zM154 238q0 -80 54 -134t147 -53q93 0 150 53q56 54 56 134t-56 135q-57 55 -149 55t-147 -55t-55 -135zM465 465q164 -63 164 -239q0 -92 -74 -165t-199 -73
q-126 0 -200 72t-74 166q0 178 166 239q-127 55 -127 188q0 94 65 159q66 65 170 65t171 -65t67 -159q0 -133 -129 -188z" />
    <glyph glyph-name="uni2089" unicode="&#x2089;" horiz-adv-x="733" 
d="M367 358q93 0 159 67t66 161t-66 160t-160 67q-94 0 -160 -67q-67 -66 -67 -160t67 -161t161 -67zM356 297q-120 0 -202 83t-82 206t86 207t209 84t207 -85q84 -86 85 -196q0 -110 -55 -193l-266 -403h-82l217 324q-57 -27 -117 -27z" />
    <glyph glyph-name="uni208A" unicode="&#x208a;" horiz-adv-x="587" 
d="M76 403v60h188v186h60v-186h188v-60h-188v-190h-60v190h-188z" />
    <glyph glyph-name="uni208B" unicode="&#x208b;" horiz-adv-x="587" 
d="M76 403v60h436v-60h-436z" />
    <glyph glyph-name="uni208C" unicode="&#x208c;" horiz-adv-x="587" 
d="M76 305v60h436v-60h-436zM76 496v59h436v-59h-436z" />
    <glyph glyph-name="uni208D" unicode="&#x208d;" horiz-adv-x="563" 
d="M94 434q0 391 324 615l45 -56q-297 -199 -297 -557t303 -563l-43 -57q-332 227 -332 618z" />
    <glyph glyph-name="uni208E" unicode="&#x208e;" horiz-adv-x="563" 
d="M397 436q0 358 -297 557l43 56q326 -223 326 -615t-334 -618l-41 57q303 205 303 563z" />
    <glyph glyph-name="uni20A1" unicode="&#x20a1;" horiz-adv-x="1660" 
d="M541 147q70 -43 161 -69l525 1278q-82 45 -162 65zM201 748q-1 -172 75 -320t209 -246l514 1254q-70 8 -108 8q-289 0 -489 -204t-201 -492zM123 748q0 317 225 542t543 226q70 0 135 -13l90 217h72l-96 -231q80 -23 161 -66l123 297h72l-137 -331q145 -98 233 -242
l-65 -37q-80 129 -197 209l-516 -1258q68 -10 125 -10q197 0 357 96t251 261l68 -35q-101 -181 -281 -287t-395 -106q-76 0 -154 16l-98 -242h-70l105 256q-76 23 -162 70l-133 -326h-70l148 359q-156 106 -245 273t-89 362z" />
    <glyph glyph-name="uni20A2" unicode="&#x20a2;" horiz-adv-x="1660" 
d="M891 -20q-317 0 -543 225q-225 225 -225 543t225 542q225 225 543 226q203 0 376 -100t277 -269l-65 -37q-92 154 -247 244t-341 90q-289 0 -490 -204t-201 -484t180 -480q179 -200 445 -223v738h74v-259q45 117 145 188t238 71h109v-72h-109q-172 0 -276 -113t-105 -303
v-252q193 3 351 99t247 258l68 -35q-101 -181 -281 -287t-395 -106z" />
    <glyph glyph-name="franc" unicode="&#x20a3;" horiz-adv-x="1130" 
d="M145 0v1495h846v-72h-770v-497h770v-70h-770v-238h770v-69h-770v-549h-76z" />
    <glyph glyph-name="lira" unicode="&#x20a4;" horiz-adv-x="1462" 
d="M346 39q168 0 250 141q-53 43 -87 66q-93 63 -174 63t-122 -37t-41 -97t46 -98t128 -38zM164 795v63h225q-59 125 -59 258q0 180 117 290q118 110 315 110q150 0 260 -60t168 -174l-62 -45q-100 211 -368 211q-160 0 -257 -92t-97 -232t65 -266h514v-63h-479
q8 -14 24 -39h455v-64h-416q129 -203 129 -362q0 -72 -24 -135q92 -74 169 -113t167 -39q135 0 197 69t63 244v33h76v-43q0 -199 -81 -283t-247 -83q-109 0 -193 42t-180 117q-98 -162 -297 -162q-119 1 -182 55q-64 54 -64 142t60 142t152 56q90 2 158 -34q68 -35 149 -100
q14 48 14 104t-25 126t-48 110q-24 41 -73 114h-325v64h285q-16 25 -25 39h-260z" />
    <glyph glyph-name="uni20A6" unicode="&#x20a6;" horiz-adv-x="1646" 
d="M299 930h342l-342 450v-450zM1350 580h-355l355 -465v465zM299 868v-225h559l-172 225h-387zM1350 643v225h-574l172 -225h402zM57 868v62h164v565h80l428 -565h621v565h75v-565h164v-62h-164v-225h164v-63h-164v-580h-79l-441 580h-606v-580h-78v580h-164v63h164v225
h-164z" />
    <glyph glyph-name="peseta" unicode="&#x20a7;" horiz-adv-x="2568" 
d="M578 1423h-357v-860h357q217 0 346 121t129 310t-129 309t-346 120zM2030 0h-297q-221 0 -311 90q-89 90 -89 305v561h-205q-14 -204 -162 -334t-384 -130h-361v-492h-76v1495h437q240 0 388 -132t158 -339h205v244l74 43v-287h258v-68h-258v-559q0 -184 73 -256t261 -71
h291q180 0 267 58t87 162t-133 157q-56 22 -155 47q-99 26 -144 42q-44 16 -102 47q-112 63 -112 184q1 122 95 200t248 77q223 0 346 -141l-57 -45q-109 121 -289 121q-123 0 -196 -56t-73 -136t51 -125q50 -45 119 -63q68 -19 135 -35t101 -27q34 -10 89 -35
q54 -24 82 -50q71 -65 71 -181q0 -115 -106 -193t-326 -78z" />
    <glyph glyph-name="uni20A8" unicode="&#x20a8;" horiz-adv-x="2027" 
d="M1499 -23q-690 0 -969 668h62q170 0 287 116q117 117 117 277t-116 273t-286 112h-373v-1423h-76v1495h453q199 0 337 -134q138 -133 138 -319t-122 -316t-308 -142q260 -537 856 -537q166 0 257 67t91 167q0 73 -52 117t-122 64q-70 22 -134 38t-136 38t-117 60
q-84 73 -85 182t93 187t248 77q223 0 346 -141l-57 -45q-109 121 -289 121q-124 0 -196 -56t-72 -137t47 -117q27 -22 45 -35q18 -12 66 -28t68 -21q18 -5 80 -21t100 -29q244 -77 241 -254q1 -129 -107 -217t-315 -87z" />
    <glyph glyph-name="uni20A9" unicode="&#x20a9;" horiz-adv-x="2215" 
d="M457 580l137 -461l160 461h-297zM1106 1372l-156 -442h310zM1460 580l160 -461l137 461h-297zM373 868l65 -225h336l78 225h-479zM1360 868l78 -225h340l67 225h-485zM930 868l-78 -225h506l-78 225h-350zM57 868v62h217l-168 565h82l166 -565h520l197 565h72l194 -565
h527l168 565h82l-172 -565h217v-62h-236l-68 -225h304v-63h-324l-174 -580h-80l-201 580h-551l-200 -580h-78l-174 580h-320v63h301l-65 225h-236z" />
    <glyph glyph-name="uni20AA" unicode="&#x20aa;" horiz-adv-x="1282" 
d="M449 0v1182q76 0 75 -76v-1034h248q143 0 216 84t73 235v1104h76v-1104q1 -187 -93 -289t-274 -102h-321zM145 0v1495h318q371 0 371 -391v-723q0 -76 -78 -76v799q0 158 -67 238t-224 81h-244v-1423h-76z" />
    <glyph glyph-name="Euro" unicode="&#x20ac;" 
d="M70 967v63h145q2 221 128 353q126 133 335 133t340 -150l-55 -49q-107 129 -285 129t-282 -113t-105 -303h627l-13 -63h-614v-439h545l-11 -63h-534v-4q0 -193 103 -303t292 -109q189 0 295 141l57 -51q-123 -160 -366 -159q-211 0 -334 128t-123 351v6h-145v63h145v439
h-145z" />
    <glyph glyph-name="uni20AE" unicode="&#x20ae;" horiz-adv-x="1302" 
d="M612 1423h-483v72h1045v-72h-484v-462l285 116v-65l-285 -119v-205l285 119v-66l-285 -118v-623h-78v592l-274 -113v66l274 112v205l-274 -112v67l274 111v495z" />
    <glyph glyph-name="uni20B1" unicode="&#x20b1;" horiz-adv-x="1409" 
d="M655 1423h-356v-252h795q-51 117 -165 185t-274 67zM655 563q162 0 276 70t163 188h-795v-258h356zM1128 988q0 56 -14 120h-815v-225h815q14 49 14 105zM57 1108v63h164v324h438q189 0 327 -88t192 -236h174v-63h-156q12 -56 12 -106t-12 -119h156v-62h-172
q-52 -153 -190 -241t-331 -88h-360v-492h-78v821h-164v62h164v225h-164z" />
    <glyph glyph-name="published" unicode="&#x2117;" horiz-adv-x="1779" 
d="M946 840h-219v-377h219q86 0 139 55t53 137q0 81 -54 133q-56 52 -138 52zM655 129v774h297q113 -1 187 -71q73 -70 73 -177t-68 -183t-192 -75h-225v-268h-72zM891 -186q289 0 491 204t201 494q0 289 -202 494q-203 204 -491 204t-490 -204t-202 -494q0 -289 202 -494
q202 -204 491 -204zM891 -256q-317 0 -543 225q-225 225 -225 543t225 542q224 226 542 226t544 -225t225 -543q0 -318 -225 -543q-226 -225 -543 -225z" />
    <glyph glyph-name="servicemark" unicode="&#x2120;" horiz-adv-x="1339" 
d="M256 895q-123 0 -186 84l51 41q53 -72 123 -72t103 33q34 33 34 80t-31 74t-74 41t-86 31q-44 17 -74 53t-30 96q0 59 48 101t136 42t154 -74l-51 -36q-39 55 -119 55q-49 0 -80 -27t-31 -69t47 -73q46 -30 102 -43t103 -55t47 -114t-51 -120t-135 -48zM567 901v594h56
l272 -360l274 360h52v-594h-60v490l-268 -349l-266 349v-490h-60z" />
    <glyph glyph-name="trademark" unicode="&#x2122;" horiz-adv-x="1390" 
d="M270 901v539h-202v55h462v-55h-202v-539h-58zM618 901v594h54l272 -362l277 362h51v-594h-62v488l-266 -347l-266 347v-488h-60z" />
    <glyph glyph-name="uni2153" unicode="&#x2153;" horiz-adv-x="1671" 
d="M84 631v65h174v666q-14 -32 -56 -56t-87 -24h-15v72h6q78 0 116 43t38 98h68v-799h168v-65h-412zM1059 758q89 119 271 119q102 1 174 -61t73 -165q0 -147 -137 -202q158 -55 157 -211q0 -111 -77 -181q-78 -69 -205 -69q-174 0 -271 112l60 45q72 -94 211 -94
q92 0 152 52q61 53 61 135t-62 130t-155 48h-80v65h80q90 0 144 47t54 121t-54 120q-55 46 -131 46t-128 -28t-80 -66zM207 0l1079 1495h90l-1079 -1495h-90z" />
    <glyph glyph-name="uni2154" unicode="&#x2154;" horiz-adv-x="1734" 
d="M1122 758q90 119 272 119q101 1 174 -61t72 -165q0 -147 -137 -202q158 -55 158 -211q0 -110 -78 -180t-205 -70q-174 0 -270 112l59 45q72 -94 211 -94q92 0 153 52q60 53 60 135t-61 130t-156 48h-80v65h80q90 0 145 47q54 47 54 121t-54 120t-131 46q-78 0 -130 -28
t-78 -66zM90 631v71q0 64 43 126t87 98t123 90q79 55 114 82t71 77q37 51 37 113t-55 110t-137 48q-160 0 -228 -143l-61 30q84 174 281 174q121 -1 195 -67t75 -168q0 -62 -41 -122t-81 -92t-119 -87t-118 -85q-38 -30 -76 -81t-38 -103v-6h477v-65h-549zM305 0l1079 1495
h91l-1080 -1495h-90z" />
    <glyph glyph-name="uni2155" unicode="&#x2155;" horiz-adv-x="1683" 
d="M84 631v65h174v666q-14 -32 -56 -56t-87 -24h-15v72h6q78 0 116 43t38 98h68v-799h168v-65h-412zM207 0l1079 1495h90l-1079 -1495h-90zM1313 -12q-211 0 -289 164l63 38q63 -137 226 -137q93 1 159 63t66 164t-68 162t-159 60q-152 0 -219 -144l-66 29l66 477h458v-63
h-403l-45 -336q80 100 207 100t213 -76t86 -207q0 -130 -83 -212t-212 -82z" />
    <glyph glyph-name="uni2156" unicode="&#x2156;" horiz-adv-x="1742" 
d="M90 631v71q0 64 43 126t87 98t123 90q79 55 114 82t71 77q37 51 37 113t-55 110t-137 48q-160 0 -228 -143l-61 30q84 174 281 174q121 -1 195 -67t75 -168q0 -62 -41 -122t-81 -92t-119 -87t-118 -85q-38 -30 -76 -81t-38 -103v-6h477v-65h-549zM291 0l1079 1495h90
l-1079 -1495h-90zM1374 -12q-211 0 -289 164l64 38q63 -137 225 -137q92 1 159 63t67 164t-68 162q-68 59 -160 60q-152 0 -219 -144l-66 29l66 477h459v-63h-404l-45 -336q80 100 207 100t213 -76t86 -207q0 -130 -83 -212t-212 -82z" />
    <glyph glyph-name="uni2157" unicode="&#x2157;" horiz-adv-x="1808" 
d="M336 618q-174 0 -270 113l59 45q72 -94 211 -94q92 0 152 52t61 134t-61 130t-156 49h-80v65h80q90 0 144 47t54 121t-54 120t-130 46t-130 -28q-52 -28 -79 -66l-57 37q90 119 272 119q102 0 174 -62q72 -61 72 -164q0 -147 -137 -203q158 -55 157 -211q0 -110 -78 -180
t-204 -70zM334 0l1079 1495h90l-1079 -1495h-90zM1440 -12q-211 0 -289 164l63 38q63 -137 226 -137q92 1 158 63t67 164q0 102 -68 162t-159 60q-152 0 -219 -144l-66 29l66 477h458v-63h-403l-45 -336q80 100 207 100t213 -76t86 -207q0 -130 -83 -212t-212 -82z" />
    <glyph glyph-name="uni2158" unicode="&#x2158;" horiz-adv-x="1738" 
d="M496 893v493l-346 -493h346zM264 0l1079 1495h91l-1080 -1495h-90zM1370 -12q-211 0 -289 164l64 38q63 -137 225 -137q92 1 159 63t67 164t-68 162q-68 59 -160 60q-152 0 -219 -144l-66 29l66 477h459v-63h-404l-45 -336q80 100 207 100t213 -76t86 -207
q0 -130 -83 -212t-212 -82zM496 631v198h-422v64l420 602h69v-602h127v-64h-127v-198h-67z" />
    <glyph glyph-name="uni2159" unicode="&#x2159;" horiz-adv-x="1601" 
d="M84 631v65h174v666q-14 -32 -56 -56t-87 -24h-15v72h6q78 0 116 43t38 98h68v-799h168v-65h-412zM209 0l1079 1495h90l-1079 -1495h-90zM1207 51q97 0 166 70t69 167t-68 166q-68 68 -166 68t-166 -68t-68 -167q0 -98 68 -167t165 -69zM1208 -12q-127 0 -214 86t-87 205
t68 210l260 375h82l-215 -307q59 27 119 27q121 0 205 -86t85 -211q0 -125 -88 -212t-215 -87z" />
    <glyph glyph-name="uni215A" unicode="&#x215a;" horiz-adv-x="1753" 
d="M358 0l1080 1495h90l-1079 -1495h-91zM377 618q-211 0 -289 164l64 39q63 -137 225 -137q92 0 159 62q66 62 66 164t-67 163q-68 59 -160 60q-152 0 -219 -144l-66 29l66 477h458v-63h-403l-45 -336q80 100 207 100t213 -76t86 -207t-83 -213t-212 -82zM1359 51
q97 0 166 70t69 167t-68 166q-68 68 -166 68t-166 -68t-68 -167q0 -98 68 -167t165 -69zM1360 -12q-127 0 -214 86t-87 205t67 210l260 375h82l-215 -307q59 27 119 27q121 0 206 -86t85 -211t-88 -212t-215 -87z" />
    <glyph glyph-name="uni215B" unicode="&#x215b;" horiz-adv-x="1703" 
d="M1344 811q-76 0 -120 -45t-44 -112q0 -68 46 -112t119 -44q74 0 120 45t46 113t-46 111q-46 44 -121 44zM84 631v65h174v666q-14 -32 -56 -56t-87 -24h-15v72h6q78 0 116 43t38 98h68v-799h168v-65h-412zM1143 238q0 -80 54 -134t147 -53q93 0 150 53q56 54 56 134
t-56 135t-148 55t-148 -55q-55 -55 -55 -135zM205 0l1079 1495h90l-1079 -1495h-90zM1454 465q164 -63 164 -239q0 -92 -74 -165t-198 -73q-125 0 -200 72t-75 166q0 178 166 239q-127 55 -127 188q0 94 66 159t170 65t171 -65t66 -159q0 -133 -129 -188z" />
    <glyph glyph-name="uni215C" unicode="&#x215c;" horiz-adv-x="1832" 
d="M1309 654q0 -68 46 -112t120 -44q73 0 119 45t46 113t-46 111q-46 44 -120 44t-120 -45q-45 -45 -45 -112zM1474 51q93 0 149 53q56 54 56 134t-56 135t-148 55q-91 0 -147 -55t-56 -135t54 -134q55 -53 148 -53zM336 618q-174 0 -270 113l59 45q72 -94 211 -94
q92 0 152 52t61 134t-61 130t-156 49h-80v65h80q90 0 144 47t54 121t-54 120t-130 46t-130 -28q-52 -28 -79 -66l-57 37q90 119 272 119q102 0 174 -62q72 -61 72 -164q0 -147 -137 -203q158 -55 157 -211q0 -110 -78 -180t-204 -70zM334 0l1079 1495h90l-1079 -1495h-90z
M1583 465q164 -63 164 -239q1 -92 -73 -165t-199 -73t-200 72t-75 166q0 178 166 239q-127 55 -127 188q0 94 66 159t170 65t171 -65t66 -159q0 -133 -129 -188z" />
    <glyph glyph-name="uni215D" unicode="&#x215d;" horiz-adv-x="1857" 
d="M1333 654q0 -68 46 -112t120 -44t120 45t46 113t-46 111q-46 44 -121 44t-120 -45t-45 -112zM1498 51q93 0 150 53q56 54 56 134t-56 135t-148 55t-148 -55t-56 -135t54 -134t148 -53zM358 0l1080 1495h90l-1079 -1495h-91zM377 618q-211 0 -289 164l64 39
q63 -137 225 -137q92 0 159 62q66 62 66 164t-67 163q-68 59 -160 60q-152 0 -219 -144l-66 29l66 477h458v-63h-403l-45 -336q80 100 207 100t213 -76t86 -207t-83 -213t-212 -82zM1499 -12q-125 0 -200 72t-75 166q1 178 167 239q-127 55 -127 188q0 94 65 159
q66 65 170 65t171 -65t67 -159q0 -133 -129 -188q164 -62 164 -239q0 -92 -74 -165t-199 -73z" />
    <glyph glyph-name="uni215E" unicode="&#x215e;" horiz-adv-x="1675" 
d="M1153 654q0 -68 46 -112t120 -44t120 45t46 113t-46 111q-46 44 -121 44t-120 -45t-45 -112zM166 1430v65h528v-61l-377 -803h-75l379 799h-455zM1318 51q93 0 149 53q57 54 57 134t-56 135t-149 55q-91 0 -147 -55t-56 -135t54 -134q55 -53 148 -53zM178 0l1079 1495h91
l-1080 -1495h-90zM1427 465q164 -63 164 -239q0 -92 -73 -166q-74 -72 -199 -72t-200 72t-75 166q0 177 166 239q-127 55 -127 188q0 94 66 159t170 65t171 -65t66 -159q0 -133 -129 -188z" />
    <glyph glyph-name="uni215F" unicode="&#x215f;" horiz-adv-x="1435" 
d="M84 631v65h174v666q-14 -32 -56 -56t-87 -24h-15v72h6q78 0 116 43t38 98h68v-799h168v-65h-412zM207 0l1079 1495h90l-1079 -1495h-90z" />
    <glyph glyph-name="arrowleft" unicode="&#x2190;" horiz-adv-x="1835" 
d="M1694 784v-71h-1477q106 -59 216 -169t157 -227l-64 -34q-51 133 -179 258t-249 184v47q121 61 249 186t179 259l64 -37q-47 -117 -157 -227t-216 -169h1477z" />
    <glyph glyph-name="arrowup" unicode="&#x2191;" horiz-adv-x="1835" 
d="M870 0v1456q-61 -106 -169 -214t-222 -152l-37 63q133 53 259 181t186 249h47q59 -121 185 -249t259 -181l-37 -63q-115 45 -225 151t-168 211v-1452h-78z" />
    <glyph glyph-name="arrowright" unicode="&#x2192;" horiz-adv-x="1835" 
d="M115 713v71h1476q-109 59 -217 167t-155 227l63 36q53 -133 180 -258t248 -184v-47q-121 -61 -248 -186t-180 -258l-63 36q47 117 155 226q109 109 217 170h-1476z" />
    <glyph glyph-name="arrowdown" unicode="&#x2193;" horiz-adv-x="1835" 
d="M870 1495h78v-1458q59 106 168 214t225 155l35 -64q-133 -53 -258 -181t-184 -249h-47q-61 121 -187 249t-258 181l37 64q115 -46 223 -152t168 -213v1454z" />
    <glyph glyph-name="uni2196" unicode="&#x2196;" horiz-adv-x="1835" 
d="M424 928q0 -152 -49 -269l-70 21q55 150 54 320t-44 296l33 33q129 -43 297 -44t320 54l20 -69q-117 -49 -273 -49t-274 32l1047 -1044l-49 -49l-1045 1040q33 -120 33 -272z" />
    <glyph glyph-name="uni2197" unicode="&#x2197;" horiz-adv-x="1835" 
d="M358 158l-51 51l1045 1044q-119 -35 -261 -35t-282 50l20 69q152 -55 321 -53t294 45l35 -33q-43 -129 -44 -298t54 -320l-70 -19q-94 261 -16 543z" />
    <glyph glyph-name="uni2198" unicode="&#x2198;" horiz-adv-x="1835" 
d="M1444 166q-129 43 -297 44t-320 -54l-20 69q139 49 283 48t262 -33l-1045 1046l51 49l1043 -1040q-77 282 16 541l70 -21q-55 -153 -53 -321t45 -295z" />
    <glyph glyph-name="uni2199" unicode="&#x2199;" horiz-adv-x="1835" 
d="M422 564q0 -155 -33 -271l1047 1044l49 -51l-1045 -1044q115 34 271 34t272 -49l-20 -69q-152 55 -320 53t-295 -45l-35 33q43 129 44 298t-54 320l70 19q49 -117 49 -272z" />
    <glyph glyph-name="partialdiff" unicode="&#x2202;" horiz-adv-x="1267" 
d="M635 53q186 0 316 132q130 133 130 319t-130 319t-316 133q-187 0 -319 -132t-132 -319t132 -320q133 -132 319 -132zM500 1495q659 -505 659 -975q0 -233 -152 -385q-153 -151 -373 -151t-373 152t-153 369t152 369t367 152q248 0 383 -190q-143 301 -627 659h117z" />
    <glyph glyph-name="increment" unicode="&#x2206;" horiz-adv-x="1837" 
d="M918 1372l-748 -1298h1497zM1796 0h-1755l879 1520z" />
    <glyph glyph-name="product" unicode="&#x220f;" horiz-adv-x="1497" 
d="M88 1421v74h1323v-74h-270v-1421h-76v1421h-633v-1421h-76v1421h-268z" />
    <glyph glyph-name="summation" unicode="&#x2211;" 
d="M106 0v76l558 700l-549 643v76h977v-72h-887l555 -647l-563 -702h895v-74h-986z" />
    <glyph glyph-name="minus" unicode="&#x2212;" horiz-adv-x="978" 
d="M111 715v67h757v-67h-757z" />
    <glyph glyph-name="radical" unicode="&#x221a;" horiz-adv-x="1562" 
d="M92 952v72h250l354 -936l693 1407h81l-735 -1495h-82l-366 952h-195z" />
    <glyph glyph-name="infinity" unicode="&#x221e;" horiz-adv-x="1925" 
d="M1401 584q84 0 145 61t60 143q0 82 -60 144t-130 61q-118 0 -254 -103q-46 -36 -130 -108q111 -96 198 -147t171 -51zM551 580q143 0 375 200q-80 68 -129 106t-119 72t-140 33q-70 0 -130 -62q-62 -63 -62 -145t62 -143t143 -61zM544 510q-108 0 -190 81t-82 195t82 196
q82 81 197 81q71 0 151 -39t132 -79t145 -116q90 76 142 116t133 79t151 39q115 0 195 -81t79 -196q0 -116 -80 -196t-189 -80q-110 0 -208 58t-223 165q-127 -107 -227 -165t-208 -58z" />
    <glyph glyph-name="integral" unicode="&#x222b;" horiz-adv-x="684" 
d="M-25 -442v71q179 -1 231 51t52 234v1227q0 211 72 283t276 71h8v-72q-176 0 -228 -51t-52 -233v-1227q0 -211 -72 -283t-278 -71h-9z" />
    <glyph glyph-name="approxequal" unicode="&#x2248;" horiz-adv-x="968" 
d="M292 649q74 0 200 -39t198 -39t174 52v-70q-90 -51 -172 -51t-210 39t-194 39t-182 -54v70q112 53 186 53zM290 977q78 0 202 -39t196 -39q70 0 176 53v-69q-90 -51 -172 -51t-210 38q-126 39 -194 39t-182 -53v70q106 51 184 51z" />
    <glyph glyph-name="notequal" unicode="&#x2260;" horiz-adv-x="978" 
d="M868 940v-68h-288l-123 -258h411v-67h-444l-66 -139h-75l65 139h-237v67h270l123 258h-393v68h426l67 139h74l-68 -139h258z" />
    <glyph glyph-name="equivalence" unicode="&#x2261;" horiz-adv-x="978" 
d="M111 1034v68h757v-68h-757zM111 383v66h757v-66h-757zM111 709v67h757v-67h-757z" />
    <glyph glyph-name="lessequal" unicode="&#x2264;" horiz-adv-x="978" 
d="M111 389v68h757v-68h-757zM868 565l-757 303v68l757 295v-72l-673 -258l673 -264v-72z" />
    <glyph glyph-name="greaterequal" unicode="&#x2265;" horiz-adv-x="978" 
d="M111 389v68h757v-68h-757zM111 565v72l671 264l-671 258v72l757 -295v-68z" />
    <glyph glyph-name="squaremultiply" unicode="&#x22a0;" horiz-adv-x="1896" 
d="M549 285l-45 45l405 420l-395 405l45 47l395 -405l392 403l45 -45l-392 -405l400 -410l-45 -47l-400 409zM281 1423v-1351h1335v1351h-1335zM205 0v1495h1487v-1495h-1487z" />
    <glyph glyph-name="house" unicode="&#x2302;" horiz-adv-x="1789" 
d="M1585 0h-1380v874l690 662l690 -662v-874z" />
    <glyph glyph-name="blacksquare" unicode="&#x25a0;" horiz-adv-x="1896" 
d="M205 0v1495h1487v-1495h-1487z" />
    <glyph glyph-name="blacksquare" unicode="&#xe740;" horiz-adv-x="1896" 
d="M205 0v1495h1487v-1495h-1487z" />
    <glyph glyph-name="whitesquare" unicode="&#x25a1;" horiz-adv-x="1896" 
d="M281 1423v-1351h1335v1351h-1335zM205 0v1495h1487v-1495h-1487z" />
    <glyph glyph-name="blacksmallsquare" unicode="&#x25aa;" horiz-adv-x="1433" 
d="M205 0v1024h1024v-1024h-1024z" />
    <glyph glyph-name="whitesmallsquare" unicode="&#x25ab;" horiz-adv-x="1433" 
d="M281 952v-880h872v880h-872zM205 0v1024h1024v-1024h-1024z" />
    <glyph glyph-name="triagup" unicode="&#x25b2;" horiz-adv-x="1837" 
d="M1796 0h-1755l879 1520z" />
    <glyph glyph-name="triagrt" unicode="&#x25ba;" horiz-adv-x="1837" 
d="M205 -117v1755l1519 -876z" />
    <glyph glyph-name="triagdn" unicode="&#x25bc;" horiz-adv-x="1837" 
d="M41 1495h1755l-876 -1520z" />
    <glyph glyph-name="triaglf" unicode="&#x25c4;" horiz-adv-x="1837" 
d="M1632 1638v-1755l-1519 879z" />
    <glyph glyph-name="lozenge" unicode="&#x25ca;" horiz-adv-x="1726" 
d="M166 750l684 -680l680 678l-684 679zM850 -33l-782 783l778 778l782 -783z" />
    <glyph glyph-name="whitecircle" unicode="&#x25cb;" horiz-adv-x="1898" 
d="M950 51q287 0 488 204t200 493q0 288 -200 492t-488 204t-488 -204t-200 -492t200 -493q200 -204 488 -204zM950 -20q-317 0 -542 225q-226 225 -226 543t226 542q226 226 542 226t542 -226t226 -542q0 -317 -225 -543q-226 -225 -543 -225z" />
    <glyph glyph-name="whitecircle" unicode="&#x25ef;" horiz-adv-x="1898" 
d="M950 51q287 0 488 204t200 493q0 288 -200 492t-488 204t-488 -204t-200 -492t200 -493q200 -204 488 -204zM950 -20q-317 0 -542 225q-226 225 -226 543t226 542q226 226 542 226t542 -226t226 -542q0 -317 -225 -543q-226 -225 -543 -225z" />
    <glyph glyph-name="bullseye" unicode="&#x25ce;" horiz-adv-x="1898" 
d="M950 680q-29 0 -47 18t-18 47t18 47t47 19q29 0 47 -18q19 -17 19 -47t-18 -48t-48 -18zM952 399q144 1 242 101t98 245t-98 245t-242 102q-144 0 -242 -100q-100 -100 -100 -246t100 -246t242 -101zM1370 745q0 -173 -123 -295t-296 -122t-295 122t-122 296t122 295
q122 122 295 122t296 -122t123 -296zM950 51q287 0 488 204t200 493q0 288 -200 492t-488 204t-488 -204t-200 -492t200 -493q200 -204 488 -204zM950 -20q-317 0 -542 225q-226 225 -226 543t226 542q226 226 542 226t542 -226t226 -542q0 -317 -225 -543
q-226 -225 -543 -225z" />
    <glyph glyph-name="blackcircle" unicode="&#x25cf;" horiz-adv-x="1898" 
d="M950 -20q-317 0 -542 225q-226 225 -226 543t226 542q226 226 542 226t542 -226t226 -542q0 -317 -225 -543q-226 -225 -543 -225z" />
    <glyph glyph-name="uni25E2" unicode="&#x25e2;" horiz-adv-x="1837" 
d="M1788 1092l-1241 -1242l-455 1696z" />
    <glyph glyph-name="uni25E3" unicode="&#x25e3;" horiz-adv-x="1837" 
d="M1294 -150l-1241 1242l1696 454z" />
    <glyph glyph-name="uni25E4" unicode="&#x25e4;" horiz-adv-x="1837" 
d="M1755 -111l-1696 455l1241 1241z" />
    <glyph glyph-name="uni25E5" unicode="&#x25e5;" horiz-adv-x="1837" 
d="M1786 334l-1696 -453l457 1696z" />
    <glyph glyph-name="uni2605" unicode="&#x2605;" horiz-adv-x="1843" 
d="M1151 621l147 -447l-383 277l-380 -277l147 449l-381 276l469 -2l148 446l145 -446l471 -2z" />
    <glyph glyph-name="ballotboxwithx" unicode="&#x2612;" horiz-adv-x="1433" 
d="M465 805l250 -252l248 254l45 -47l-248 -252l248 -248l-45 -45l-248 246l-246 -250l-45 47l246 250l-250 250zM281 952v-880h872v880h-872zM205 0v1024h1024v-1024h-1024z" />
    <glyph glyph-name="uni263C" unicode="&#x263c;" horiz-adv-x="1900" 
d="M580 516l-232 -176l-61 94l272 115zM1309 983l231 176l62 -94l-273 -115zM743 365l-112 -273l-96 58l178 235zM1145 1135l112 272l97 -57l-178 -236zM1176 385l178 -235l-97 -58l-112 273zM713 1114l-178 236l96 57l112 -272zM1329 549l273 -113l-58 -96l-235 178z
M559 950l-272 113l57 96l236 -178zM1376 770l291 35v-111l-291 35v41zM512 729l-291 -35v111l291 -35v-41zM965 317l34 -290h-110l35 290h41zM924 1182l-35 291h110l-34 -291h-41zM588 748q0 145 105 250q105 106 251 106t250 -106q106 -106 106 -250t-105 -250t-251 -106
t-251 105q-105 106 -105 251z" />
    <glyph glyph-name="uni263E" unicode="&#x263e;" horiz-adv-x="1611" 
d="M1094 1262q-203 0 -346 -151q-144 -151 -144 -363t144 -364q144 -151 346 -151q66 0 145 25q-166 -117 -365 -117q-250 0 -428 178q-178 179 -178 429t178 428t428 178q199 0 365 -117q-94 25 -145 25z" />
    <glyph glyph-name="spade" unicode="&#x2660;" horiz-adv-x="1884" 
d="M1217 0h-531q55 102 81 154t69 190q43 137 43 250q-43 -121 -131 -200t-224 -79q-136 1 -240 97q-103 96 -104 227q0 168 106 307t376 354l286 230h2l287 -230q263 -211 365 -350t102 -311q0 -131 -94 -226t-232 -95t-230 78q-93 79 -136 198q0 -225 167 -525
q38 -67 38 -69z" />
    <glyph glyph-name="club" unicode="&#x2663;" horiz-adv-x="1884" 
d="M532 266q-152 0 -257 106t-105 257q0 150 105 256t257 106q39 0 86 -14q-39 84 -38 178q0 150 104 255q104 106 254 106t255 -106t105 -255q0 -92 -38 -180q45 16 94 16q150 0 255 -105t105 -256t-105 -257t-257 -107q-115 0 -203 66t-131 174q16 -138 78 -266
q61 -128 90 -180t33 -60h-531q164 307 186 508q-45 -110 -136 -176t-206 -66z" />
    <glyph glyph-name="heart" unicode="&#x2665;" horiz-adv-x="1884" 
d="M182 1118q0 168 109 283t265 115t259 -94q104 -94 121 -236q18 143 122 236q104 94 259 94q157 0 271 -116t114 -282t-108 -354t-367 -477l-291 -322l-289 322q-256 285 -360 474q-105 189 -105 357z" />
    <glyph glyph-name="diamond" unicode="&#x2666;" horiz-adv-x="1884" 
d="M272 799l670 821l670 -821l-670 -819z" />
    <glyph glyph-name="uni267B" unicode="&#x267b;" horiz-adv-x="1886" 
d="M1571 1006l133 -226q18 -29 18 -84q2 -92 -72 -167t-143 -74l-223 387zM879 72h-261q-47 0 -86 24q-82 48 -110 152t10 155h447v-331zM403 1143l129 229q23 37 66 60q88 45 186 18t131 -86l-223 -387zM797 1493h372q45 -2 69 -5q24 -4 54 -24t54 -61l53 -94l84 47
l-119 -322l-332 62l78 45l-137 241q-27 45 -71 72t-75 33l-30 4v2zM377 227h-4l-185 324q-20 39 -28 61q-23 63 20 136l56 94l-82 47l335 59l113 -319l-78 47q-135 -231 -139 -242q-25 -43 -27 -95t9 -81zM1329 72h-110v-97l-218 263l218 260v-95h278q51 0 97 26t67 50
l20 25l2 -4l-186 -322q-27 -39 -40 -56q-13 -18 -47 -34t-81 -16z" />
    <glyph glyph-name="uni267C" unicode="&#x267c;" horiz-adv-x="1886" 
d="M1153 492v71l-170 -201l170 -202v73h84q53 -1 80 19t51 63l145 250l-2 2q-53 -76 -143 -75h-215zM1528 784l-101 174l-225 -129l174 -301q54 0 112 58t56 133q0 36 -16 65zM498 354h2q-37 84 6 162l108 186l62 -36l-88 247l-260 -45l63 -37l-43 -73q-18 -31 -20 -61
t4 -44t22 -49zM680 233h203v259h-348q-29 -41 -7 -122t86 -118q33 -19 66 -19zM817 1335v-2q94 -8 137 -84l109 -186l-62 -37l259 -47l90 250l-64 -37l-43 74q-27 45 -56 57q-30 12 -81 12h-289zM623 1241l-101 -176l223 -129l173 299q-25 47 -102 67t-144 -14
q-39 -24 -49 -47zM1714 750q0 -320 -225 -544t-545 -224t-545 224t-225 544t225 545q225 227 545 227t544 -226q226 -226 226 -546z" />
    <glyph glyph-name="uni267D" unicode="&#x267d;" horiz-adv-x="1886" 
d="M1153 233v-73l-170 202l170 201v-71h215q41 0 77 18t50 39l16 18l2 -2l-145 -250q-16 -29 -28 -43q-33 -37 -103 -39h-84zM1427 958l101 -174q16 -29 16 -65q2 -74 -56 -132t-112 -59l-174 301zM500 354h-2l-144 250q-16 35 -22 49t-4 44t20 61l43 73l-63 37l260 45
l88 -247l-62 36l-108 -186q-18 -35 -20 -75t6 -64zM883 233h-203q-33 0 -66 19q-63 37 -86 118t7 122h348v-259zM817 1335h289q51 0 81 -12t56 -57l43 -74l64 37l-90 -250l-259 47l62 37l-109 186q-18 33 -53 55t-59 25l-25 4v2zM522 1065l101 176q10 23 49 47q68 35 144 15
t102 -68l-173 -299zM211 751q0 -305 215 -519t519 -214t517 214t213 519q0 304 -213 518t-517 214t-519 -214t-215 -518zM1714 750q0 -320 -225 -544t-545 -224t-545 224t-225 544t225 545q225 227 545 227t544 -226q226 -226 226 -546z" />
    <glyph glyph-name="mediumwhitecircle" unicode="&#x26aa;" horiz-adv-x="1429" 
d="M715 49q190 0 322 135t132 328t-132 328t-322 135q-191 0 -323 -135t-132 -328t132 -328t323 -135zM715 -20q-221 0 -377 154t-156 378q0 223 156 378q156 154 377 154t377 -154t156 -378q0 -223 -156 -378q-156 -154 -377 -154z" />
    <glyph glyph-name="mediumblackcircle" unicode="&#x26ab;" horiz-adv-x="1429" 
d="M715 -20q-221 0 -376 156t-155 376q0 221 155 377q155 155 376 155t376 -156t155 -376q0 -221 -155 -377q-155 -155 -376 -155z" />
    <glyph glyph-name="anglebracketleft" unicode="&#x3008;" horiz-adv-x="718" 
d="M557 -471l-467 983l467 983h82l-467 -983l467 -983h-82z" />
    <glyph glyph-name="anglebracketright" unicode="&#x3009;" horiz-adv-x="718" 
d="M158 -471h-82l467 983l-467 983h82l467 -983z" />
    <glyph glyph-name="cordinal" unicode="&#xe181;" horiz-adv-x="858" 
d="M668 1303q-64 145 -236 145q-88 0 -160 -73t-72 -175t72 -176t161 -74q173 0 237 150l57 -29q-37 -82 -112 -131t-185 -49t-201 90q-90 90 -90 218t90 218t217 90q90 0 166 -48t113 -128z" />
    <glyph glyph-name="p.smcp" unicode="&#xe200;" horiz-adv-x="1062" 
d="M508 1151h-283v-682h283q172 0 273 96t102 246t-101 245t-274 95zM150 0v1221h362q201 0 325 -116t124 -295t-124 -296t-325 -117h-287v-397h-75z" />
    <glyph glyph-name="p.smcp" unicode="&#xf770;" horiz-adv-x="1062" 
d="M508 1151h-283v-682h283q172 0 273 96t102 246t-101 245t-274 95zM150 0v1221h362q201 0 325 -116t124 -295t-124 -296t-325 -117h-287v-397h-75z" />
    <glyph glyph-name="a.smcp" unicode="&#xe201;" horiz-adv-x="1169" 
d="M584 1120l-273 -702h545zM72 0l473 1221h78l475 -1221h-78l-137 348h-598l-133 -348h-80z" />
    <glyph glyph-name="a.smcp" unicode="&#xf761;" horiz-adv-x="1169" 
d="M584 1120l-273 -702h545zM72 0l473 1221h78l475 -1221h-78l-137 348h-598l-133 -348h-80z" />
    <glyph glyph-name="b.smcp" unicode="&#xe202;" horiz-adv-x="1105" 
d="M633 1151h-406v-487h422q113 0 184 70t71 174q0 103 -78 173t-193 70zM653 594h-426v-524h428q119 0 198 74t79 188t-78 188t-201 74zM154 0v1221h479q150 0 248 -88t98 -226q0 -96 -51 -170t-140 -106q100 -31 158 -111t60 -206q0 -126 -98 -220t-253 -94h-501z" />
    <glyph glyph-name="b.smcp" unicode="&#xf762;" horiz-adv-x="1105" 
d="M633 1151h-406v-487h422q113 0 184 70t71 174q0 103 -78 173t-193 70zM653 594h-426v-524h428q119 0 198 74t79 188t-78 188t-201 74zM154 0v1221h479q150 0 248 -88t98 -226q0 -96 -51 -170t-140 -106q100 -31 158 -111t60 -206q0 -126 -98 -220t-253 -94h-501z" />
    <glyph glyph-name="c.smcp" unicode="&#xe203;" horiz-adv-x="1355" 
d="M733 -18q-262 0 -444 183q-183 183 -183 446t184 445t443 183q169 0 313 -84t228 -223l-66 -37q-74 125 -198 199q-125 74 -277 73q-229 1 -389 -163t-160 -394t160 -395q160 -164 389 -164q158 0 286 80t200 213l67 -31q-82 -151 -230 -241t-323 -90z" />
    <glyph glyph-name="c.smcp" unicode="&#xf763;" horiz-adv-x="1355" 
d="M733 -18q-262 0 -444 183q-183 183 -183 446t184 445t443 183q169 0 313 -84t228 -223l-66 -37q-74 125 -198 199q-125 74 -277 73q-229 1 -389 -163t-160 -394t160 -395q160 -164 389 -164q158 0 286 80t200 213l67 -31q-82 -151 -230 -241t-323 -90z" />
    <glyph glyph-name="d.smcp" unicode="&#xe204;" horiz-adv-x="1230" 
d="M492 1151h-265v-1081h267q236 0 396 156t159 385q-1 230 -159 385t-398 155zM154 0v1221h342q270 0 449 -175q179 -174 179 -434t-181 -436t-445 -176h-344z" />
    <glyph glyph-name="d.smcp" unicode="&#xf764;" horiz-adv-x="1230" 
d="M492 1151h-265v-1081h267q236 0 396 156t159 385q-1 230 -159 385t-398 155zM154 0v1221h342q270 0 449 -175q179 -174 179 -434t-181 -436t-445 -176h-344z" />
    <glyph glyph-name="e.smcp" unicode="&#xe205;" horiz-adv-x="1021" 
d="M154 0v1221h751v-70h-676v-504h676v-69h-676v-508h676v-70h-751z" />
    <glyph glyph-name="e.smcp" unicode="&#xf765;" horiz-adv-x="1021" 
d="M154 0v1221h751v-70h-676v-504h676v-69h-676v-508h676v-70h-751z" />
    <glyph glyph-name="f.smcp" unicode="&#xe206;" horiz-adv-x="948" 
d="M154 0v1221h690v-70h-617v-506h617v-70h-617v-575h-73z" />
    <glyph glyph-name="f.smcp" unicode="&#xf766;" horiz-adv-x="948" 
d="M154 0v1221h690v-70h-617v-506h617v-70h-617v-575h-73z" />
    <glyph glyph-name="g.smcp" unicode="&#xe207;" horiz-adv-x="1454" 
d="M1354 608q0 -260 -172 -443t-442 -183q-271 0 -452 184t-182 444q0 260 184 444t445 185q175 0 317 -81t226 -218l-66 -39q-72 125 -195 196q-124 71 -282 70q-231 1 -391 -163t-160 -394t158 -394q158 -165 392 -165q234 -1 380 145t164 363h-553v72h629v-23z" />
    <glyph glyph-name="g.smcp" unicode="&#xf767;" horiz-adv-x="1454" 
d="M1354 608q0 -260 -172 -443t-442 -183q-271 0 -452 184t-182 444q0 260 184 444t445 185q175 0 317 -81t226 -218l-66 -39q-72 125 -195 196q-124 71 -282 70q-231 1 -391 -163t-160 -394t158 -394q158 -165 392 -165q234 -1 380 145t164 363h-553v72h629v-23z" />
    <glyph glyph-name="h.smcp" unicode="&#xe208;" horiz-adv-x="1202" 
d="M975 0v575h-748v-575h-73v1221h73v-576h748v576h74v-1221h-74z" />
    <glyph glyph-name="h.smcp" unicode="&#xf768;" horiz-adv-x="1202" 
d="M975 0v575h-748v-575h-73v1221h73v-576h748v576h74v-1221h-74z" />
    <glyph glyph-name="i.smcp" unicode="&#xe209;" horiz-adv-x="401" 
d="M164 0v1221h76v-1221h-76z" />
    <glyph glyph-name="i.smcp" unicode="&#xf769;" horiz-adv-x="401" 
d="M164 0v1221h76v-1221h-76z" />
    <glyph glyph-name="j.smcp" unicode="&#xe20a;" horiz-adv-x="847" 
d="M385 -18q-233 0 -311 186l69 33q72 -150 242 -150q109 0 175 73t65 183v914h73v-912q0 -145 -85 -236t-228 -91z" />
    <glyph glyph-name="j.smcp" unicode="&#xf76a;" horiz-adv-x="847" 
d="M385 -18q-233 0 -311 186l69 33q72 -150 242 -150q109 0 175 73t65 183v914h73v-912q0 -145 -85 -236t-228 -91z" />
    <glyph glyph-name="k.smcp" unicode="&#xe20b;" horiz-adv-x="1142" 
d="M229 0h-75v1221h75v-764l689 764h92l-441 -492l496 -729h-88l-461 678l-287 -320v-358z" />
    <glyph glyph-name="k.smcp" unicode="&#xf76b;" horiz-adv-x="1142" 
d="M229 0h-75v1221h75v-764l689 764h92l-441 -492l496 -729h-88l-461 678l-287 -320v-358z" />
    <glyph glyph-name="l.smcp" unicode="&#xe20c;" horiz-adv-x="931" 
d="M154 0v1221h73v-1149h604v-72h-677z" />
    <glyph glyph-name="l.smcp" unicode="&#xf76c;" horiz-adv-x="931" 
d="M154 0v1221h73v-1149h604v-72h-677z" />
    <glyph glyph-name="m.smcp" unicode="&#xe20d;" horiz-adv-x="1501" 
d="M154 0v1221h71l520 -721l535 721h70v-1221h-76v1092l-529 -715l-518 715v-1092h-73z" />
    <glyph glyph-name="m.smcp" unicode="&#xf76d;" horiz-adv-x="1501" 
d="M154 0v1221h71l520 -721l535 721h70v-1221h-76v1092l-529 -715l-518 715v-1092h-73z" />
    <glyph glyph-name="n.smcp" unicode="&#xe20e;" horiz-adv-x="1292" 
d="M154 0v1221h79l832 -1106v1106h74v-1221h-78l-834 1108v-1108h-73z" />
    <glyph glyph-name="n.smcp" unicode="&#xf76e;" horiz-adv-x="1292" 
d="M154 0v1221h79l832 -1106v1106h74v-1221h-78l-834 1108v-1108h-73z" />
    <glyph glyph-name="o.smcp" unicode="&#xe20f;" horiz-adv-x="1464" 
d="M732 51q230 0 389 165t159 394q0 230 -159 394t-389 164t-389 -164t-159 -394t159 -394q159 -165 389 -165zM731 -18q-262 0 -443 184t-182 444q0 260 182 444t443 185q263 0 445 -184q182 -185 182 -445t-182 -444t-445 -184z" />
    <glyph glyph-name="o.smcp" unicode="&#xf76f;" horiz-adv-x="1464" 
d="M732 51q230 0 389 165t159 394q0 230 -159 394t-389 164t-389 -164t-159 -394t159 -394q159 -165 389 -165zM731 -18q-262 0 -443 184t-182 444q0 260 182 444t443 185q263 0 445 -184q182 -185 182 -445t-182 -444t-445 -184z" />
    <glyph glyph-name="q.smcp" unicode="&#xe211;" horiz-adv-x="1466" 
d="M731 -18q-262 0 -443 184t-182 444q0 260 182 444t443 185q263 0 445 -184q182 -185 182 -445t-182 -446l143 -164h-98l-420 487h92l233 -266q154 164 154 391q0 228 -159 392t-389 164t-389 -164t-159 -394t159 -394q159 -165 388 -165q152 0 279 78l49 -57
q-148 -90 -328 -90z" />
    <glyph glyph-name="q.smcp" unicode="&#xf771;" horiz-adv-x="1466" 
d="M731 -18q-262 0 -443 184t-182 444q0 260 182 444t443 185q263 0 445 -184q182 -185 182 -445t-182 -446l143 -164h-98l-420 487h92l233 -266q154 164 154 391q0 228 -159 392t-389 164t-389 -164t-159 -394t159 -394q159 -165 388 -165q152 0 279 78l49 -57
q-148 -90 -328 -90z" />
    <glyph glyph-name="r.smcp" unicode="&#xe212;" horiz-adv-x="1019" 
d="M154 0v1221h372q166 0 278 -110t112 -258q0 -147 -91 -253q-90 -106 -231 -127l330 -473h-90l-369 532h51q137 0 230 94q94 94 94 221q0 128 -89 216t-229 88h-293v-1151h-75z" />
    <glyph glyph-name="r.smcp" unicode="&#xf772;" horiz-adv-x="1019" 
d="M154 0v1221h372q166 0 278 -110t112 -258q0 -147 -91 -253q-90 -106 -231 -127l330 -473h-90l-369 532h51q137 0 230 94q94 94 94 221q0 128 -89 216t-229 88h-293v-1151h-75z" />
    <glyph glyph-name="s.smcp" unicode="&#xe213;" horiz-adv-x="950" 
d="M459 -18q-233 0 -381 176l63 51q123 -158 318 -158q133 0 222 78t89 185t-64 174q-43 46 -161 91q-29 11 -105 37t-121 44t-102 56q-111 73 -111 212t102 225t253 86q219 0 348 -154l-59 -47q-98 133 -287 133q-119 -1 -200 -67t-81 -180t134 -182q52 -26 79 -34
q227 -71 339 -148q112 -76 112 -227t-108 -251t-279 -100z" />
    <glyph glyph-name="s.smcp" unicode="&#xf773;" horiz-adv-x="950" 
d="M459 -18q-233 0 -381 176l63 51q123 -158 318 -158q133 0 222 78t89 185t-64 174q-43 46 -161 91q-29 11 -105 37t-121 44t-102 56q-111 73 -111 212t102 225t253 86q219 0 348 -154l-59 -47q-98 133 -287 133q-119 -1 -200 -67t-81 -180t134 -182q52 -26 79 -34
q227 -71 339 -148q112 -76 112 -227t-108 -251t-279 -100z" />
    <glyph glyph-name="t.smcp" unicode="&#xe214;" horiz-adv-x="1050" 
d="M489 0v1149h-391v72h854v-72h-387v-1149h-76z" />
    <glyph glyph-name="t.smcp" unicode="&#xf774;" horiz-adv-x="1050" 
d="M489 0v1149h-391v72h854v-72h-387v-1149h-76z" />
    <glyph glyph-name="u.smcp" unicode="&#xe215;" horiz-adv-x="1130" 
d="M565 -18q-178 0 -297 116t-118 293v830h73v-830q1 -147 99 -243t243 -97q145 0 244 96q98 96 98 244v830h74v-830q0 -177 -119 -293t-297 -116z" />
    <glyph glyph-name="u.smcp" unicode="&#xf775;" horiz-adv-x="1130" 
d="M565 -18q-178 0 -297 116t-118 293v830h73v-830q1 -147 99 -243t243 -97q145 0 244 96q98 96 98 244v830h74v-830q0 -177 -119 -293t-297 -116z" />
    <glyph glyph-name="v.smcp" unicode="&#xe216;" horiz-adv-x="1155" 
d="M541 0l-467 1221h80l421 -1117l429 1117h77l-467 -1221h-73z" />
    <glyph glyph-name="v.smcp" unicode="&#xf776;" horiz-adv-x="1155" 
d="M541 0l-467 1221h80l421 -1117l429 1117h77l-467 -1221h-73z" />
    <glyph glyph-name="w.smcp" unicode="&#xe217;" horiz-adv-x="1796" 
d="M438 0l-358 1221h80l321 -1108l379 1108h70l379 -1108l331 1108h78l-370 -1221h-76l-377 1104l-379 -1104h-78z" />
    <glyph glyph-name="w.smcp" unicode="&#xf777;" horiz-adv-x="1796" 
d="M438 0l-358 1221h80l321 -1108l379 1108h70l379 -1108l331 1108h78l-370 -1221h-76l-377 1104l-379 -1104h-78z" />
    <glyph glyph-name="x.smcp" unicode="&#xe218;" horiz-adv-x="1089" 
d="M940 0l-393 569l-393 -569h-91l441 631l-406 590h86l365 -529l358 529h88l-403 -588l434 -633h-86z" />
    <glyph glyph-name="x.smcp" unicode="&#xf778;" horiz-adv-x="1089" 
d="M940 0l-393 569l-393 -569h-91l441 631l-406 590h86l365 -529l358 529h88l-403 -588l434 -633h-86z" />
    <glyph glyph-name="y.smcp" unicode="&#xe219;" horiz-adv-x="1067" 
d="M498 0v578l-414 643h84l364 -572l367 572h84l-412 -639v-582h-73z" />
    <glyph glyph-name="y.smcp" unicode="&#xf779;" horiz-adv-x="1067" 
d="M498 0v578l-414 643h84l364 -572l367 572h84l-412 -639v-582h-73z" />
    <glyph glyph-name="z.smcp" unicode="&#xe21a;" horiz-adv-x="1026" 
d="M109 0v70l718 1079h-698v72h789v-70l-723 -1079h720v-72h-806z" />
    <glyph glyph-name="z.smcp" unicode="&#xf77a;" horiz-adv-x="1026" 
d="M109 0v70l718 1079h-698v72h789v-70l-723 -1079h720v-72h-806z" />
    <glyph glyph-name="anocross.smcp" unicode="&#xe220;" horiz-adv-x="1169" 
d="M72 0l473 1221h78l475 -1221h-78l-436 1120l-432 -1120h-80z" />
    <glyph glyph-name="aacute.smcp" unicode="&#xe221;" horiz-adv-x="1169" 
d="M545 1370l252 301h102l-276 -301h-78zM584 1120l-273 -702h545zM72 0l473 1221h78l475 -1221h-78l-137 348h-598l-133 -348h-80z" />
    <glyph glyph-name="aacute.smcp" unicode="&#xf7e1;" horiz-adv-x="1169" 
d="M545 1370l252 301h102l-276 -301h-78zM584 1120l-273 -702h545zM72 0l473 1221h78l475 -1221h-78l-137 348h-598l-133 -348h-80z" />
    <glyph glyph-name="agrave.smcp" unicode="&#xe222;" horiz-adv-x="1169" 
d="M545 1370l-277 301h103l252 -301h-78zM584 1120l-273 -702h545zM72 0l473 1221h78l475 -1221h-78l-137 348h-598l-133 -348h-80z" />
    <glyph glyph-name="agrave.smcp" unicode="&#xf7e0;" horiz-adv-x="1169" 
d="M545 1370l-277 301h103l252 -301h-78zM584 1120l-273 -702h545zM72 0l473 1221h78l475 -1221h-78l-137 348h-598l-133 -348h-80z" />
    <glyph glyph-name="acircumflex.smcp" unicode="&#xe223;" horiz-adv-x="1169" 
d="M305 1354l244 301h65l244 -301h-82l-194 239l-193 -239h-84zM584 1120l-273 -702h545zM72 0l473 1221h78l475 -1221h-78l-137 348h-598l-133 -348h-80z" />
    <glyph glyph-name="acircumflex.smcp" unicode="&#xf7e2;" horiz-adv-x="1169" 
d="M305 1354l244 301h65l244 -301h-82l-194 239l-193 -239h-84zM584 1120l-273 -702h545zM72 0l473 1221h78l475 -1221h-78l-137 348h-598l-133 -348h-80z" />
    <glyph glyph-name="adieresis.smcp" unicode="&#xe224;" horiz-adv-x="1169" 
d="M649 1374v287h74v-287h-74zM444 1374v287h74v-287h-74zM584 1120l-273 -702h545zM72 0l473 1221h78l475 -1221h-78l-137 348h-598l-133 -348h-80z" />
    <glyph glyph-name="adieresis.smcp" unicode="&#xf7e4;" horiz-adv-x="1169" 
d="M649 1374v287h74v-287h-74zM444 1374v287h74v-287h-74zM584 1120l-273 -702h545zM72 0l473 1221h78l475 -1221h-78l-137 348h-598l-133 -348h-80z" />
    <glyph glyph-name="atilde.smcp" unicode="&#xe225;" horiz-adv-x="1169" 
d="M231 1370q1 88 51 142t124 54t188 -69q114 -70 170 -70q121 0 121 134h65q0 -95 -50 -147t-132 -52t-194 69t-162 69q-51 0 -84 -35q-33 -34 -33 -95h-64zM584 1120l-273 -702h545zM72 0l473 1221h78l475 -1221h-78l-137 348h-598l-133 -348h-80z" />
    <glyph glyph-name="atilde.smcp" unicode="&#xf7e3;" horiz-adv-x="1169" 
d="M231 1370q1 88 51 142t124 54t188 -69q114 -70 170 -70q121 0 121 134h65q0 -95 -50 -147t-132 -52t-194 69t-162 69q-51 0 -84 -35q-33 -34 -33 -95h-64zM584 1120l-273 -702h545zM72 0l473 1221h78l475 -1221h-78l-137 348h-598l-133 -348h-80z" />
    <glyph glyph-name="aring.smcp" unicode="&#xe226;" horiz-adv-x="1169" 
d="M581 1225q50 0 88 37t38 88t-38 89t-88 38t-87 -39t-37 -89t37 -87t87 -37zM584 1118l-273 -700h545zM393 1357q-1 71 55 126t134 55t133 -54t55 -124t-36 -120t-93 -69l457 -1171h-78l-137 348h-598l-133 -348h-80l452 1169q-57 17 -94 67t-37 121z" />
    <glyph glyph-name="aring.smcp" unicode="&#xf7e5;" horiz-adv-x="1169" 
d="M581 1225q50 0 88 37t38 88t-38 89t-88 38t-87 -39t-37 -89t37 -87t87 -37zM584 1118l-273 -700h545zM393 1357q-1 71 55 126t134 55t133 -54t55 -124t-36 -120t-93 -69l457 -1171h-78l-137 348h-598l-133 -348h-80l452 1169q-57 17 -94 67t-37 121z" />
    <glyph glyph-name="amacron.smcp" unicode="&#xe228;" horiz-adv-x="1169" 
d="M311 1370v66h541v-66h-541zM584 1120l-273 -702h545zM72 0l473 1221h78l475 -1221h-78l-137 348h-598l-133 -348h-80z" />
    <glyph glyph-name="amacron.smcp" unicode="&#xf641;" horiz-adv-x="1169" 
d="M311 1370v66h541v-66h-541zM584 1120l-273 -702h545zM72 0l473 1221h78l475 -1221h-78l-137 348h-598l-133 -348h-80z" />
    <glyph glyph-name="abreve.smcp" unicode="&#xe229;" horiz-adv-x="1169" 
d="M578 1354q-154 0 -240 91t-86 218h67q0 -102 69 -175t192 -73q122 0 194 74t72 174h67q0 -123 -91 -216q-90 -93 -244 -93zM584 1120l-273 -702h545zM72 0l473 1221h78l475 -1221h-78l-137 348h-598l-133 -348h-80z" />
    <glyph glyph-name="abreve.smcp" unicode="&#xf640;" horiz-adv-x="1169" 
d="M578 1354q-154 0 -240 91t-86 218h67q0 -102 69 -175t192 -73q122 0 194 74t72 174h67q0 -123 -91 -216q-90 -93 -244 -93zM584 1120l-273 -702h545zM72 0l473 1221h78l475 -1221h-78l-137 348h-598l-133 -348h-80z" />
    <glyph glyph-name="aringacute.smcp" unicode="&#xe22d;" horiz-adv-x="1169" 
d="M543 1636l252 301h102l-276 -301h-78zM581 1225q50 0 88 37t38 88t-38 89t-88 38t-87 -39t-37 -89t37 -87t87 -37zM584 1118l-273 -700h545zM393 1357q-1 71 55 126t134 55t133 -54t55 -124t-36 -120t-93 -69l457 -1171h-78l-137 348h-598l-133 -348h-80l452 1169
q-57 17 -94 67t-37 121z" />
    <glyph glyph-name="aringacute.smcp" unicode="&#xf625;" horiz-adv-x="1169" 
d="M543 1636l252 301h102l-276 -301h-78zM581 1225q50 0 88 37t38 88t-38 89t-88 38t-87 -39t-37 -89t37 -87t87 -37zM584 1118l-273 -700h545zM393 1357q-1 71 55 126t134 55t133 -54t55 -124t-36 -120t-93 -69l457 -1171h-78l-137 348h-598l-133 -348h-80l452 1169
q-57 17 -94 67t-37 121z" />
    <glyph glyph-name="aogonek.smcp" unicode="&#xe22f;" horiz-adv-x="1169" 
d="M584 1120l-273 -702h545zM854 -225q0 -55 48 -88t140 -33t187 90l61 -43q-121 -113 -247 -113q-125 0 -195 54t-70 133q0 139 232 250l-127 323h-598l-133 -348h-80l473 1221h78l475 -1221h-6l4 -2q-134 -66 -188 -117t-54 -106z" />
    <glyph glyph-name="aogonek.smcp" unicode="&#xf642;" horiz-adv-x="1169" 
d="M584 1120l-273 -702h545zM854 -225q0 -55 48 -88t140 -33t187 90l61 -43q-121 -113 -247 -113q-125 0 -195 54t-70 133q0 139 232 250l-127 323h-598l-133 -348h-80l473 1221h78l475 -1221h-6l4 -2q-134 -66 -188 -117t-54 -106z" />
    <glyph glyph-name="edieresis.smcp" unicode="&#xe230;" horiz-adv-x="1019" 
d="M612 1374v287h74v-287h-74zM408 1374v287h73v-287h-73zM154 0v1221h751v-70h-676v-504h676v-69h-676v-508h676v-70h-751z" />
    <glyph glyph-name="edieresis.smcp" unicode="&#xf7eb;" horiz-adv-x="1019" 
d="M612 1374v287h74v-287h-74zM408 1374v287h73v-287h-73zM154 0v1221h751v-70h-676v-504h676v-69h-676v-508h676v-70h-751z" />
    <glyph glyph-name="ae.smcp" unicode="&#xe231;" horiz-adv-x="1820" 
d="M766 1118l-377 -698h520zM1704 1221v-72h-866l102 -502h764v-72h-750l105 -503h645v-72h-709l-71 352h-572l-190 -352h-84l661 1221h965z" />
    <glyph glyph-name="ae.smcp" unicode="&#xf7e6;" horiz-adv-x="1820" 
d="M766 1118l-377 -698h520zM1704 1221v-72h-866l102 -502h764v-72h-750l105 -503h645v-72h-709l-71 352h-572l-190 -352h-84l661 1221h965z" />
    <glyph glyph-name="aeacute.smcp" unicode="&#xe232;" horiz-adv-x="1826" 
d="M1061 1370l252 301h102l-276 -301h-78zM766 1118l-377 -698h520zM1704 1221v-72h-866l102 -502h764v-72h-750l105 -503h645v-72h-709l-71 352h-572l-190 -352h-84l661 1221h965z" />
    <glyph glyph-name="aeacute.smcp" unicode="&#xf624;" horiz-adv-x="1826" 
d="M1061 1370l252 301h102l-276 -301h-78zM766 1118l-377 -698h520zM1704 1221v-72h-866l102 -502h764v-72h-750l105 -503h645v-72h-709l-71 352h-572l-190 -352h-84l661 1221h965z" />
    <glyph glyph-name="cacute.smcp" unicode="&#xe234;" horiz-adv-x="1355" 
d="M733 -18q-262 0 -444 183q-183 183 -183 446t184 445t443 183q169 0 313 -84t228 -223l-66 -37q-74 125 -198 199q-125 74 -277 73q-229 1 -389 -163t-160 -394t160 -395q160 -164 389 -164q158 0 286 80t200 213l67 -31q-82 -151 -230 -241t-323 -90zM696 1370l252 301
h103l-277 -301h-78z" />
    <glyph glyph-name="cacute.smcp" unicode="&#xf643;" horiz-adv-x="1355" 
d="M733 -18q-262 0 -444 183q-183 183 -183 446t184 445t443 183q169 0 313 -84t228 -223l-66 -37q-74 125 -198 199q-125 74 -277 73q-229 1 -389 -163t-160 -394t160 -395q160 -164 389 -164q158 0 286 80t200 213l67 -31q-82 -151 -230 -241t-323 -90zM696 1370l252 301
h103l-277 -301h-78z" />
    <glyph glyph-name="ccircumflex.smcp" unicode="&#xe235;" horiz-adv-x="1355" 
d="M463 1366l244 301h65l244 -301h-82l-195 240l-192 -240h-84zM733 -18q-262 0 -444 183q-183 183 -183 446t184 445t443 183q169 0 313 -84t228 -223l-66 -37q-74 125 -198 199q-125 74 -277 73q-229 1 -389 -163t-160 -394t160 -395q160 -164 389 -164q158 0 286 80
t200 213l67 -31q-82 -151 -230 -241t-323 -90z" />
    <glyph glyph-name="ccircumflex.smcp" unicode="&#xf628;" horiz-adv-x="1355" 
d="M463 1366l244 301h65l244 -301h-82l-195 240l-192 -240h-84zM733 -18q-262 0 -444 183q-183 183 -183 446t184 445t443 183q169 0 313 -84t228 -223l-66 -37q-74 125 -198 199q-125 74 -277 73q-229 1 -389 -163t-160 -394t160 -395q160 -164 389 -164q158 0 286 80
t200 213l67 -31q-82 -151 -230 -241t-323 -90z" />
    <glyph glyph-name="ccaron.smcp" unicode="&#xe236;" horiz-adv-x="1355" 
d="M709 1370l-244 301h82l192 -241l195 241h84l-244 -301h-65zM733 -18q-262 0 -444 183q-183 183 -183 446t184 445t443 183q169 0 313 -84t228 -223l-66 -37q-74 125 -198 199q-125 74 -277 73q-229 1 -389 -163t-160 -394t160 -395q160 -164 389 -164q158 0 286 80
t200 213l67 -31q-82 -151 -230 -241t-323 -90z" />
    <glyph glyph-name="ccaron.smcp" unicode="&#xf644;" horiz-adv-x="1355" 
d="M709 1370l-244 301h82l192 -241l195 241h84l-244 -301h-65zM733 -18q-262 0 -444 183q-183 183 -183 446t184 445t443 183q169 0 313 -84t228 -223l-66 -37q-74 125 -198 199q-125 74 -277 73q-229 1 -389 -163t-160 -394t160 -395q160 -164 389 -164q158 0 286 80
t200 213l67 -31q-82 -151 -230 -241t-323 -90z" />
    <glyph glyph-name="cdotaccent.smcp" unicode="&#xe237;" horiz-adv-x="1355" 
d="M705 1374v287h75v-287h-75zM733 -18q-262 0 -444 183q-183 183 -183 446t184 445t443 183q169 0 313 -84t228 -223l-66 -37q-74 125 -198 199q-125 74 -277 73q-229 1 -389 -163t-160 -394t160 -395q160 -164 389 -164q158 0 286 80t200 213l67 -31q-82 -151 -230 -241
t-323 -90z" />
    <glyph glyph-name="cdotaccent.smcp" unicode="&#xf629;" horiz-adv-x="1355" 
d="M705 1374v287h75v-287h-75zM733 -18q-262 0 -444 183q-183 183 -183 446t184 445t443 183q169 0 313 -84t228 -223l-66 -37q-74 125 -198 199q-125 74 -277 73q-229 1 -389 -163t-160 -394t160 -395q160 -164 389 -164q158 0 286 80t200 213l67 -31q-82 -151 -230 -241
t-323 -90z" />
    <glyph glyph-name="ccedilla.smcp" unicode="&#xe238;" horiz-adv-x="1355" 
d="M731 -461q-162 0 -268 107l61 39q96 -86 194 -86q98 1 151 35q55 34 55 85t-54 81t-145 30h-47v154q-244 20 -408 199t-164 435t184 438t443 183q169 0 313 -84t228 -223l-66 -37q-74 125 -198 199q-125 74 -277 73q-229 1 -389 -163t-160 -394t160 -395
q160 -164 389 -164q158 0 286 80t200 213l67 -31q-82 -149 -226 -239t-319 -92v-103q115 0 186 -43q71 -44 71 -118t-75 -127q-75 -52 -192 -52z" />
    <glyph glyph-name="ccedilla.smcp" unicode="&#xf7e7;" horiz-adv-x="1355" 
d="M731 -461q-162 0 -268 107l61 39q96 -86 194 -86q98 1 151 35q55 34 55 85t-54 81t-145 30h-47v154q-244 20 -408 199t-164 435t184 438t443 183q169 0 313 -84t228 -223l-66 -37q-74 125 -198 199q-125 74 -277 73q-229 1 -389 -163t-160 -394t160 -395
q160 -164 389 -164q158 0 286 80t200 213l67 -31q-82 -149 -226 -239t-319 -92v-103q115 0 186 -43q71 -44 71 -118t-75 -127q-75 -52 -192 -52z" />
    <glyph glyph-name="dcaron.smcp" unicode="&#xe239;" horiz-adv-x="1230" 
d="M514 1370l-244 301h82l193 -241l194 241h84l-243 -301h-66zM492 1151h-265v-1081h267q236 0 396 156t159 385q-1 230 -159 385t-398 155zM154 0v1221h342q270 0 449 -175q179 -174 179 -434t-181 -436t-445 -176h-344z" />
    <glyph glyph-name="dcaron.smcp" unicode="&#xf645;" horiz-adv-x="1230" 
d="M514 1370l-244 301h82l193 -241l194 241h84l-243 -301h-66zM492 1151h-265v-1081h267q236 0 396 156t159 385q-1 230 -159 385t-398 155zM154 0v1221h342q270 0 449 -175q179 -174 179 -434t-181 -436t-445 -176h-344z" />
    <glyph glyph-name="dcroat.smcp" unicode="&#xe23c;" horiz-adv-x="1261" 
d="M590 575h-332v-505h264q236 0 396 156t160 385q0 230 -159 385t-399 155h-262v-508h332v-68zM53 575v68h129v578h344q268 0 448 -175q180 -174 181 -434q0 -260 -181 -436t-446 -176h-346v575h-129z" />
    <glyph glyph-name="dcroat.smcp" unicode="&#xf646;" horiz-adv-x="1261" 
d="M590 575h-332v-505h264q236 0 396 156t160 385q0 230 -159 385t-399 155h-262v-508h332v-68zM53 575v68h129v578h344q268 0 448 -175q180 -174 181 -434q0 -260 -181 -436t-446 -176h-346v575h-129z" />
    <glyph glyph-name="eacute.smcp" unicode="&#xe23d;" horiz-adv-x="1019" 
d="M467 1370l252 301h102l-276 -301h-78zM154 0v1221h751v-70h-676v-504h676v-69h-676v-508h676v-70h-751z" />
    <glyph glyph-name="eacute.smcp" unicode="&#xf7e9;" horiz-adv-x="1019" 
d="M467 1370l252 301h102l-276 -301h-78zM154 0v1221h751v-70h-676v-504h676v-69h-676v-508h676v-70h-751z" />
    <glyph glyph-name="egrave.smcp" unicode="&#xe23e;" horiz-adv-x="1019" 
d="M551 1370l-277 301h103l252 -301h-78zM154 0v1221h751v-70h-676v-504h676v-69h-676v-508h676v-70h-751z" />
    <glyph glyph-name="egrave.smcp" unicode="&#xf7e8;" horiz-adv-x="1019" 
d="M551 1370l-277 301h103l252 -301h-78zM154 0v1221h751v-70h-676v-504h676v-69h-676v-508h676v-70h-751z" />
    <glyph glyph-name="ecircumflex.smcp" unicode="&#xe23f;" horiz-adv-x="1019" 
d="M264 1370l244 301h65l244 -301h-82l-194 240l-193 -240h-84zM154 0v1221h751v-70h-676v-504h676v-69h-676v-508h676v-70h-751z" />
    <glyph glyph-name="ecircumflex.smcp" unicode="&#xf7ea;" horiz-adv-x="1019" 
d="M264 1370l244 301h65l244 -301h-82l-194 240l-193 -240h-84zM154 0v1221h751v-70h-676v-504h676v-69h-676v-508h676v-70h-751z" />
    <glyph glyph-name="gcommaaccent.smcp" unicode="&#xe240;" horiz-adv-x="1454" 
d="M659 -575h-57l96 417h76zM1354 608q0 -260 -172 -443t-442 -183q-271 0 -452 184t-182 444q0 260 184 444t445 185q175 0 317 -81t226 -218l-66 -39q-72 125 -195 196q-124 71 -282 70q-231 1 -391 -163t-160 -394t158 -394q158 -165 392 -165q234 -1 380 145t164 363
h-553v72h629v-23z" />
    <glyph glyph-name="gcommaaccent.smcp" unicode="&#xf64c;" horiz-adv-x="1454" 
d="M659 -575h-57l96 417h76zM1354 608q0 -260 -172 -443t-442 -183q-271 0 -452 184t-182 444q0 260 184 444t445 185q175 0 317 -81t226 -218l-66 -39q-72 125 -195 196q-124 71 -282 70q-231 1 -391 -163t-160 -394t158 -394q158 -165 392 -165q234 -1 380 145t164 363
h-553v72h629v-23z" />
    <glyph glyph-name="ecaron.smcp" unicode="&#xe241;" horiz-adv-x="1019" 
d="M506 1370l-244 301h82l193 -241l194 241h84l-244 -301h-65zM154 0v1221h751v-70h-676v-504h676v-69h-676v-508h676v-70h-751z" />
    <glyph glyph-name="ecaron.smcp" unicode="&#xf647;" horiz-adv-x="1019" 
d="M506 1370l-244 301h82l193 -241l194 241h84l-244 -301h-65zM154 0v1221h751v-70h-676v-504h676v-69h-676v-508h676v-70h-751z" />
    <glyph glyph-name="emacron.smcp" unicode="&#xe242;" horiz-adv-x="1019" 
d="M262 1380v66h541v-66h-541zM154 0v1221h751v-70h-676v-504h676v-69h-676v-508h676v-70h-751z" />
    <glyph glyph-name="emacron.smcp" unicode="&#xf649;" horiz-adv-x="1019" 
d="M262 1380v66h541v-66h-541zM154 0v1221h751v-70h-676v-504h676v-69h-676v-508h676v-70h-751z" />
    <glyph glyph-name="ebreve.smcp" unicode="&#xe243;" horiz-adv-x="1019" 
d="M528 1362q-154 0 -239 91q-86 91 -86 218h67q0 -102 69 -175t192 -73t195 74t71 174h67q0 -123 -91 -216t-245 -93zM154 0v1221h751v-70h-676v-504h676v-69h-676v-508h676v-70h-751z" />
    <glyph glyph-name="ebreve.smcp" unicode="&#xf62a;" horiz-adv-x="1019" 
d="M528 1362q-154 0 -239 91q-86 91 -86 218h67q0 -102 69 -175t192 -73t195 74t71 174h67q0 -123 -91 -216t-245 -93zM154 0v1221h751v-70h-676v-504h676v-69h-676v-508h676v-70h-751z" />
    <glyph glyph-name="edotaccent.smcp" unicode="&#xe246;" horiz-adv-x="1019" 
d="M508 1374v287h76v-287h-76zM154 0v1221h751v-70h-676v-504h676v-69h-676v-508h676v-70h-751z" />
    <glyph glyph-name="edotaccent.smcp" unicode="&#xf648;" horiz-adv-x="1019" 
d="M508 1374v287h76v-287h-76zM154 0v1221h751v-70h-676v-504h676v-69h-676v-508h676v-70h-751z" />
    <glyph glyph-name="eogonek.smcp" unicode="&#xe249;" horiz-adv-x="1019" 
d="M154 0v1221h751v-70h-676v-504h676v-69h-676v-508h676v-70h-8l4 -2q-133 -66 -187 -117t-54 -106t48 -88t140 -33t186 90l62 -43q-121 -113 -247 -113t-196 54t-69 133q0 125 184 225h-614z" />
    <glyph glyph-name="eogonek.smcp" unicode="&#xf64a;" horiz-adv-x="1019" 
d="M154 0v1221h751v-70h-676v-504h676v-69h-676v-508h676v-70h-8l4 -2q-133 -66 -187 -117t-54 -106t48 -88t140 -33t186 90l62 -43q-121 -113 -247 -113t-196 54t-69 133q0 125 184 225h-614z" />
    <glyph glyph-name="gcircumflex.smcp" unicode="&#xe24b;" horiz-adv-x="1454" 
d="M461 1368l244 301h65l244 -301h-82l-195 240l-192 -240h-84zM1354 608q0 -260 -172 -443t-442 -183q-271 0 -452 184t-182 444q0 260 184 444t445 185q175 0 317 -81t226 -218l-66 -39q-72 125 -195 196q-124 71 -282 70q-231 1 -391 -163t-160 -394t158 -394
q158 -165 392 -165q234 -1 380 145t164 363h-553v72h629v-23z" />
    <glyph glyph-name="gcircumflex.smcp" unicode="&#xf62c;" horiz-adv-x="1454" 
d="M461 1368l244 301h65l244 -301h-82l-195 240l-192 -240h-84zM1354 608q0 -260 -172 -443t-442 -183q-271 0 -452 184t-182 444q0 260 184 444t445 185q175 0 317 -81t226 -218l-66 -39q-72 125 -195 196q-124 71 -282 70q-231 1 -391 -163t-160 -394t158 -394
q158 -165 392 -165q234 -1 380 145t164 363h-553v72h629v-23z" />
    <glyph glyph-name="gbreve.smcp" unicode="&#xe24e;" horiz-adv-x="1454" 
d="M1069 1677q1 -123 -91 -216t-246 -93t-238 91q-86 91 -86 218h67q0 -102 69 -175q70 -73 192 -73t194 74t71 174h68zM1354 608q0 -260 -172 -443t-442 -183q-271 0 -452 184t-182 444q0 260 184 444t445 185q175 0 317 -81t226 -218l-66 -39q-72 125 -195 196
q-124 71 -282 70q-231 1 -391 -163t-160 -394t158 -394q158 -165 392 -165q234 -1 380 145t164 363h-553v72h629v-23z" />
    <glyph glyph-name="gbreve.smcp" unicode="&#xf64b;" horiz-adv-x="1454" 
d="M1069 1677q1 -123 -91 -216t-246 -93t-238 91q-86 91 -86 218h67q0 -102 69 -175q70 -73 192 -73t194 74t71 174h68zM1354 608q0 -260 -172 -443t-442 -183q-271 0 -452 184t-182 444q0 260 184 444t445 185q175 0 317 -81t226 -218l-66 -39q-72 125 -195 196
q-124 71 -282 70q-231 1 -391 -163t-160 -394t158 -394q158 -165 392 -165q234 -1 380 145t164 363h-553v72h629v-23z" />
    <glyph glyph-name="gdotaccent.smcp" unicode="&#xe24f;" horiz-adv-x="1454" 
d="M705 1374v287h75v-287h-75zM1354 608q0 -260 -172 -443t-442 -183q-271 0 -452 184t-182 444q0 260 184 444t445 185q175 0 317 -81t226 -218l-66 -39q-72 125 -195 196q-124 71 -282 70q-231 1 -391 -163t-160 -394t158 -394q158 -165 392 -165q234 -1 380 145t164 363
h-553v72h629v-23z" />
    <glyph glyph-name="gdotaccent.smcp" unicode="&#xf62d;" horiz-adv-x="1454" 
d="M705 1374v287h75v-287h-75zM1354 608q0 -260 -172 -443t-442 -183q-271 0 -452 184t-182 444q0 260 184 444t445 185q175 0 317 -81t226 -218l-66 -39q-72 125 -195 196q-124 71 -282 70q-231 1 -391 -163t-160 -394t158 -394q158 -165 392 -165q234 -1 380 145t164 363
h-553v72h629v-23z" />
    <glyph glyph-name="hcircumflex.smcp" unicode="&#xe253;" horiz-adv-x="1202" 
d="M324 1368l243 301h66l244 -301h-82l-195 240l-192 -240h-84zM975 0v575h-748v-575h-73v1221h73v-576h748v576h74v-1221h-74z" />
    <glyph glyph-name="hcircumflex.smcp" unicode="&#xf62f;" horiz-adv-x="1202" 
d="M324 1368l243 301h66l244 -301h-82l-195 240l-192 -240h-84zM975 0v575h-748v-575h-73v1221h73v-576h748v576h74v-1221h-74z" />
    <glyph glyph-name="hbar.smcp" unicode="&#xe257;" horiz-adv-x="1259" 
d="M256 936v-291h748v291h-748zM1004 0v575h-748v-575h-74v936h-131v68h131v217h74v-217h748v217h73v-217h131v-68h-131v-936h-73z" />
    <glyph glyph-name="hbar.smcp" unicode="&#xf62e;" horiz-adv-x="1259" 
d="M256 936v-291h748v291h-748zM1004 0v575h-748v-575h-74v936h-131v68h131v217h74v-217h748v217h73v-217h131v-68h-131v-936h-73z" />
    <glyph glyph-name="iacute.smcp" unicode="&#xe258;" horiz-adv-x="401" 
d="M164 0v1221h76v-1221h-76zM158 1370l252 301h102l-276 -301h-78z" />
    <glyph glyph-name="iacute.smcp" unicode="&#xf7ed;" horiz-adv-x="401" 
d="M164 0v1221h76v-1221h-76zM158 1370l252 301h102l-276 -301h-78z" />
    <glyph glyph-name="igrave.smcp" unicode="&#xe259;" horiz-adv-x="401" 
d="M164 0v1221h76v-1221h-76zM162 1370l-277 301h103l252 -301h-78z" />
    <glyph glyph-name="igrave.smcp" unicode="&#xf7ec;" horiz-adv-x="401" 
d="M164 0v1221h76v-1221h-76zM162 1370l-277 301h103l252 -301h-78z" />
    <glyph glyph-name="icircumflex.smcp" unicode="&#xe25a;" horiz-adv-x="401" 
d="M-76 1350l244 301h65l244 -301h-82l-194 239l-193 -239h-84zM164 0v1221h76v-1221h-76z" />
    <glyph glyph-name="icircumflex.smcp" unicode="&#xf7ee;" horiz-adv-x="401" 
d="M-76 1350l244 301h65l244 -301h-82l-194 239l-193 -239h-84zM164 0v1221h76v-1221h-76z" />
    <glyph glyph-name="idieresis.smcp" unicode="&#xe25b;" horiz-adv-x="401" 
d="M164 0v1221h76v-1221h-76zM-27 1372v287h74v-287h-74zM358 1372v287h72v-287h-72z" />
    <glyph glyph-name="idieresis.smcp" unicode="&#xf7ef;" horiz-adv-x="401" 
d="M164 0v1221h76v-1221h-76zM-27 1372v287h74v-287h-74zM358 1372v287h72v-287h-72z" />
    <glyph glyph-name="itilde.smcp" unicode="&#xe25c;" horiz-adv-x="401" 
d="M-156 1368q0 88 50 142t125 54t189 -69q114 -70 169 -70q121 0 121 134h65q0 -95 -50 -147t-132 -52q-81 0 -193 69t-163 69t-84 -35q-33 -34 -33 -95h-64zM164 0v1221h76v-1221h-76z" />
    <glyph glyph-name="itilde.smcp" unicode="&#xf632;" horiz-adv-x="401" 
d="M-156 1368q0 88 50 142t125 54t189 -69q114 -70 169 -70q121 0 121 134h65q0 -95 -50 -147t-132 -52q-81 0 -193 69t-163 69t-84 -35q-33 -34 -33 -95h-64zM164 0v1221h76v-1221h-76z" />
    <glyph glyph-name="imacron.smcp" unicode="&#xe25e;" horiz-adv-x="401" 
d="M164 0v1221h76v-1221h-76zM-70 1370v66h541v-66h-541z" />
    <glyph glyph-name="imacron.smcp" unicode="&#xf64d;" horiz-adv-x="401" 
d="M164 0v1221h76v-1221h-76zM-70 1370v66h541v-66h-541z" />
    <glyph glyph-name="ibreve.smcp" unicode="&#xe25f;" horiz-adv-x="401" 
d="M196 1362q-154 0 -239 91q-86 91 -86 218h68q1 -102 69 -175t191 -73t195 74t71 174h67q0 -123 -91 -216t-245 -93zM164 0v1221h76v-1221h-76z" />
    <glyph glyph-name="ibreve.smcp" unicode="&#xf630;" horiz-adv-x="401" 
d="M196 1362q-154 0 -239 91q-86 91 -86 218h68q1 -102 69 -175t191 -73t195 74t71 174h67q0 -123 -91 -216t-245 -93zM164 0v1221h76v-1221h-76z" />
    <glyph glyph-name="idotaccent.smcp" unicode="&#xe262;" horiz-adv-x="401" 
d="M164 1366v287h74v-287h-74zM164 0v1221h76v-1221h-76z" />
    <glyph glyph-name="idotaccent.smcp" unicode="&#xf666;" horiz-adv-x="401" 
d="M164 1366v287h74v-287h-74zM164 0v1221h76v-1221h-76z" />
    <glyph glyph-name="iogonek.smcp" unicode="&#xe264;" horiz-adv-x="401" 
d="M209 -451q-103 -1 -159 55t-56 136q0 125 170 280v1201h76v-1221h-4l4 -2q-176 -139 -177 -254q0 -57 39 -93t114 -36t159 80l47 -51q-111 -95 -213 -95z" />
    <glyph glyph-name="iogonek.smcp" unicode="&#xf64e;" horiz-adv-x="401" 
d="M209 -451q-103 -1 -159 55t-56 136q0 125 170 280v1201h76v-1221h-4l4 -2q-176 -139 -177 -254q0 -57 39 -93t114 -36t159 80l47 -51q-111 -95 -213 -95z" />
    <glyph glyph-name="jcircumflex.smcp" unicode="&#xe265;" horiz-adv-x="847" 
d="M373 1354l243 301h66l244 -301h-82l-195 239l-192 -239h-84zM385 -18q-233 0 -311 186l69 33q72 -150 242 -150q109 0 175 73t65 183v914h73v-912q0 -145 -85 -236t-228 -91z" />
    <glyph glyph-name="jcircumflex.smcp" unicode="&#xf633;" horiz-adv-x="847" 
d="M373 1354l243 301h66l244 -301h-82l-195 239l-192 -239h-84zM385 -18q-233 0 -311 186l69 33q72 -150 242 -150q109 0 175 73t65 183v914h73v-912q0 -145 -85 -236t-228 -91z" />
    <glyph glyph-name="kcommaaccent.smcp" unicode="&#xe268;" horiz-adv-x="1142" 
d="M512 -549h-57l96 418h76zM229 0h-75v1221h75v-764l689 764h92l-441 -492l496 -729h-88l-461 678l-287 -320v-358z" />
    <glyph glyph-name="kcommaaccent.smcp" unicode="&#xf64f;" horiz-adv-x="1142" 
d="M512 -549h-57l96 418h76zM229 0h-75v1221h75v-764l689 764h92l-441 -492l496 -729h-88l-461 678l-287 -320v-358z" />
    <glyph glyph-name="lacute.smcp" unicode="&#xe26b;" horiz-adv-x="931" 
d="M154 1370l252 301h102l-277 -301h-77zM154 0v1221h73v-1149h604v-72h-677z" />
    <glyph glyph-name="lacute.smcp" unicode="&#xf650;" horiz-adv-x="931" 
d="M154 1370l252 301h102l-277 -301h-77zM154 0v1221h73v-1149h604v-72h-677z" />
    <glyph glyph-name="lcaron.smcp" unicode="&#xe26c;" horiz-adv-x="931" 
d="M504 891l119 332h75l-135 -332h-59zM154 0v1221h73v-1149h604v-72h-677z" />
    <glyph glyph-name="lcaron.smcp" unicode="&#xf651;" horiz-adv-x="931" 
d="M504 891l119 332h75l-135 -332h-59zM154 0v1221h73v-1149h604v-72h-677z" />
    <glyph glyph-name="lcommaaccent.smcp" unicode="&#xe26d;" horiz-adv-x="931" 
d="M422 -561h-57l96 418h76zM154 0v1221h73v-1149h604v-72h-677z" />
    <glyph glyph-name="lcommaaccent.smcp" unicode="&#xf652;" horiz-adv-x="931" 
d="M422 -561h-57l96 418h76zM154 0v1221h73v-1149h604v-72h-677z" />
    <glyph glyph-name="ldot.smcp" unicode="&#xe271;" horiz-adv-x="964" 
d="M754 471v287h75v-287h-75zM154 0v1221h73v-1149h604v-72h-677z" />
    <glyph glyph-name="ldot.smcp" unicode="&#xf634;" horiz-adv-x="964" 
d="M754 471v287h75v-287h-75zM154 0v1221h73v-1149h604v-72h-677z" />
    <glyph glyph-name="lslash.smcp" unicode="&#xe272;" horiz-adv-x="958" 
d="M178 1221h74v-529l373 144v-66l-373 -141v-557h604v-72h-678v600l-133 -49v63l133 52v555z" />
    <glyph glyph-name="lslash.smcp" unicode="&#xf6f9;" horiz-adv-x="958" 
d="M178 1221h74v-529l373 144v-66l-373 -141v-557h604v-72h-678v600l-133 -49v63l133 52v555z" />
    <glyph glyph-name="nacute.smcp" unicode="&#xe276;" horiz-adv-x="1292" 
d="M612 1335l252 301h103l-277 -301h-78zM154 0v1221h79l832 -1106v1106h74v-1221h-78l-834 1108v-1108h-73z" />
    <glyph glyph-name="nacute.smcp" unicode="&#xf653;" horiz-adv-x="1292" 
d="M612 1335l252 301h103l-277 -301h-78zM154 0v1221h79l832 -1106v1106h74v-1221h-78l-834 1108v-1108h-73z" />
    <glyph glyph-name="ntilde.smcp" unicode="&#xe279;" horiz-adv-x="1292" 
d="M293 1368q0 88 50 142q104 113 312 -15q115 -70 170 -70q121 0 121 134h66q0 -95 -50 -147t-132 -52t-194 69q-110 69 -162 69t-85 -35q-33 -34 -33 -95h-63zM154 0v1221h79l832 -1106v1106h74v-1221h-78l-834 1108v-1108h-73z" />
    <glyph glyph-name="ncaron.smcp" unicode="&#xe27a;" horiz-adv-x="1292" 
d="M618 1348l-243 301h82l192 -242l195 242h84l-244 -301h-66zM154 0v1221h79l832 -1106v1106h74v-1221h-78l-834 1108v-1108h-73z" />
    <glyph glyph-name="ncaron.smcp" unicode="&#xf654;" horiz-adv-x="1292" 
d="M618 1348l-243 301h82l192 -242l195 242h84l-244 -301h-66zM154 0v1221h79l832 -1106v1106h74v-1221h-78l-834 1108v-1108h-73z" />
    <glyph glyph-name="ncommaaccent.smcp" unicode="&#xe27d;" horiz-adv-x="1292" 
d="M590 -543h-58l97 418h76zM154 0v1221h79l832 -1106v1106h74v-1221h-78l-834 1108v-1108h-73z" />
    <glyph glyph-name="ncommaaccent.smcp" unicode="&#xf655;" horiz-adv-x="1292" 
d="M590 -543h-58l97 418h76zM154 0v1221h79l832 -1106v1106h74v-1221h-78l-834 1108v-1108h-73z" />
    <glyph glyph-name="oacute.smcp" unicode="&#xe281;" horiz-adv-x="1464" 
d="M674 1370l252 301h102l-276 -301h-78zM732 51q230 0 389 165t159 394q0 230 -159 394t-389 164t-389 -164t-159 -394t159 -394q159 -165 389 -165zM731 -18q-262 0 -443 184t-182 444q0 260 182 444t443 185q263 0 445 -184q182 -185 182 -445t-182 -444t-445 -184z" />
    <glyph glyph-name="oacute.smcp" unicode="&#xf7f3;" horiz-adv-x="1464" 
d="M674 1370l252 301h102l-276 -301h-78zM732 51q230 0 389 165t159 394q0 230 -159 394t-389 164t-389 -164t-159 -394t159 -394q159 -165 389 -165zM731 -18q-262 0 -443 184t-182 444q0 260 182 444t443 185q263 0 445 -184q182 -185 182 -445t-182 -444t-445 -184z" />
    <glyph glyph-name="ograve.smcp" unicode="&#xe282;" horiz-adv-x="1464" 
d="M705 1370l-277 301h102l252 -301h-77zM732 51q230 0 389 165t159 394q0 230 -159 394t-389 164t-389 -164t-159 -394t159 -394q159 -165 389 -165zM731 -18q-262 0 -443 184t-182 444q0 260 182 444t443 185q263 0 445 -184q182 -185 182 -445t-182 -444t-445 -184z" />
    <glyph glyph-name="ograve.smcp" unicode="&#xf7f2;" horiz-adv-x="1464" 
d="M705 1370l-277 301h102l252 -301h-77zM732 51q230 0 389 165t159 394q0 230 -159 394t-389 164t-389 -164t-159 -394t159 -394q159 -165 389 -165zM731 -18q-262 0 -443 184t-182 444q0 260 182 444t443 185q263 0 445 -184q182 -185 182 -445t-182 -444t-445 -184z" />
    <glyph glyph-name="ocircumflex.smcp" unicode="&#xe283;" horiz-adv-x="1464" 
d="M455 1364l243 301h66l244 -301h-82l-195 240l-192 -240h-84zM732 51q230 0 389 165t159 394q0 230 -159 394t-389 164t-389 -164t-159 -394t159 -394q159 -165 389 -165zM731 -18q-262 0 -443 184t-182 444q0 260 182 444t443 185q263 0 445 -184q182 -185 182 -445
t-182 -444t-445 -184z" />
    <glyph glyph-name="ocircumflex.smcp" unicode="&#xf7f4;" horiz-adv-x="1464" 
d="M455 1364l243 301h66l244 -301h-82l-195 240l-192 -240h-84zM732 51q230 0 389 165t159 394q0 230 -159 394t-389 164t-389 -164t-159 -394t159 -394q159 -165 389 -165zM731 -18q-262 0 -443 184t-182 444q0 260 182 444t443 185q263 0 445 -184q182 -185 182 -445
t-182 -444t-445 -184z" />
    <glyph glyph-name="odieresis.smcp" unicode="&#xe284;" horiz-adv-x="1464" 
d="M594 1372v287h74v-287h-74zM799 1372v287h73v-287h-73zM732 51q230 0 389 165t159 394q0 230 -159 394t-389 164t-389 -164t-159 -394t159 -394q159 -165 389 -165zM731 -18q-262 0 -443 184t-182 444q0 260 182 444t443 185q263 0 445 -184q182 -185 182 -445t-182 -444
t-445 -184z" />
    <glyph glyph-name="odieresis.smcp" unicode="&#xf7f6;" horiz-adv-x="1464" 
d="M594 1372v287h74v-287h-74zM799 1372v287h73v-287h-73zM732 51q230 0 389 165t159 394q0 230 -159 394t-389 164t-389 -164t-159 -394t159 -394q159 -165 389 -165zM731 -18q-262 0 -443 184t-182 444q0 260 182 444t443 185q263 0 445 -184q182 -185 182 -445t-182 -444
t-445 -184z" />
    <glyph glyph-name="otilde.smcp" unicode="&#xe285;" horiz-adv-x="1464" 
d="M375 1370q0 88 50 142q104 113 312 -15q115 -70 170 -70q121 0 121 134h66q0 -95 -50 -147t-133 -52q-82 0 -193 69q-110 69 -162 69t-85 -35q-33 -34 -33 -95h-63zM732 51q230 0 389 165t159 394q0 230 -159 394t-389 164t-389 -164t-159 -394t159 -394
q159 -165 389 -165zM731 -18q-262 0 -443 184t-182 444q0 260 182 444t443 185q263 0 445 -184q182 -185 182 -445t-182 -444t-445 -184z" />
    <glyph glyph-name="otilde.smcp" unicode="&#xf7f5;" horiz-adv-x="1464" 
d="M375 1370q0 88 50 142q104 113 312 -15q115 -70 170 -70q121 0 121 134h66q0 -95 -50 -147t-133 -52q-82 0 -193 69q-110 69 -162 69t-85 -35q-33 -34 -33 -95h-63zM732 51q230 0 389 165t159 394q0 230 -159 394t-389 164t-389 -164t-159 -394t159 -394
q159 -165 389 -165zM731 -18q-262 0 -443 184t-182 444q0 260 182 444t443 185q263 0 445 -184q182 -185 182 -445t-182 -444t-445 -184z" />
    <glyph glyph-name="omacron.smcp" unicode="&#xe287;" horiz-adv-x="1464" 
d="M461 1370v66h540v-66h-540zM732 51q230 0 389 165t159 394q0 230 -159 394t-389 164t-389 -164t-159 -394t159 -394q159 -165 389 -165zM731 -18q-262 0 -443 184t-182 444q0 260 182 444t443 185q263 0 445 -184q182 -185 182 -445t-182 -444t-445 -184z" />
    <glyph glyph-name="omacron.smcp" unicode="&#xf657;" horiz-adv-x="1464" 
d="M461 1370v66h540v-66h-540zM732 51q230 0 389 165t159 394q0 230 -159 394t-389 164t-389 -164t-159 -394t159 -394q159 -165 389 -165zM731 -18q-262 0 -443 184t-182 444q0 260 182 444t443 185q263 0 445 -184q182 -185 182 -445t-182 -444t-445 -184z" />
    <glyph glyph-name="obreve.smcp" unicode="&#xe288;" horiz-adv-x="1464" 
d="M1061 1675q1 -123 -91 -216t-246 -93t-239 91q-86 91 -86 218h68q0 -102 69 -175q70 -73 192 -73t194 74t71 174h68zM732 51q230 0 389 165t159 394q0 230 -159 394t-389 164t-389 -164t-159 -394t159 -394q159 -165 389 -165zM731 -18q-262 0 -443 184t-182 444
q0 260 182 444t443 185q263 0 445 -184q182 -185 182 -445t-182 -444t-445 -184z" />
    <glyph glyph-name="obreve.smcp" unicode="&#xf635;" horiz-adv-x="1464" 
d="M1061 1675q1 -123 -91 -216t-246 -93t-239 91q-86 91 -86 218h68q0 -102 69 -175q70 -73 192 -73t194 74t71 174h68zM732 51q230 0 389 165t159 394q0 230 -159 394t-389 164t-389 -164t-159 -394t159 -394q159 -165 389 -165zM731 -18q-262 0 -443 184t-182 444
q0 260 182 444t443 185q263 0 445 -184q182 -185 182 -445t-182 -444t-445 -184z" />
    <glyph glyph-name="ohungarumlaut.smcp" unicode="&#xe28a;" horiz-adv-x="1464" 
d="M791 1370l251 301h99l-277 -301h-73zM584 1370l252 301h98l-277 -301h-73zM732 51q230 0 389 165t159 394q0 230 -159 394t-389 164t-389 -164t-159 -394t159 -394q159 -165 389 -165zM731 -18q-262 0 -443 184t-182 444q0 260 182 444t443 185q263 0 445 -184
q182 -185 182 -445t-182 -444t-445 -184z" />
    <glyph glyph-name="ohungarumlaut.smcp" unicode="&#xf656;" horiz-adv-x="1464" 
d="M791 1370l251 301h99l-277 -301h-73zM584 1370l252 301h98l-277 -301h-73zM732 51q230 0 389 165t159 394q0 230 -159 394t-389 164t-389 -164t-159 -394t159 -394q159 -165 389 -165zM731 -18q-262 0 -443 184t-182 444q0 260 182 444t443 185q263 0 445 -184
q182 -185 182 -445t-182 -444t-445 -184z" />
    <glyph glyph-name="oslash.smcp" unicode="&#xe295;" horiz-adv-x="1464" 
d="M731 53q231 0 390 164q159 165 159 405t-184 404l-658 -889q133 -84 293 -84zM182 610q0 -260 197 -430l661 889q-137 96 -309 96q-229 0 -389 -164t-160 -391zM731 -18q-186 0 -338 96l-57 -78h-90l90 121q-229 190 -230 489q0 260 182 444t443 185q193 0 354 -109
l68 91h88l-100 -136q102 -88 159 -212t58 -263q0 -260 -182 -444t-445 -184z" />
    <glyph glyph-name="oslash.smcp" unicode="&#xf7f8;" horiz-adv-x="1464" 
d="M731 53q231 0 390 164q159 165 159 405t-184 404l-658 -889q133 -84 293 -84zM182 610q0 -260 197 -430l661 889q-137 96 -309 96q-229 0 -389 -164t-160 -391zM731 -18q-186 0 -338 96l-57 -78h-90l90 121q-229 190 -230 489q0 260 182 444t443 185q193 0 354 -109
l68 91h88l-100 -136q102 -88 159 -212t58 -263q0 -260 -182 -444t-445 -184z" />
    <glyph glyph-name="oslashacute.smcp" unicode="&#xe296;" horiz-adv-x="1466" 
d="M686 1370l252 301h102l-276 -301h-78zM731 53q231 0 390 164q159 165 159 405t-184 404l-658 -889q133 -84 293 -84zM182 610q0 -260 197 -430l661 889q-137 96 -309 96q-229 0 -389 -164t-160 -391zM731 -18q-186 0 -338 96l-57 -78h-90l90 121q-229 190 -230 489
q0 260 182 444t443 185q193 0 354 -109l68 91h88l-100 -136q102 -88 159 -212t58 -263q0 -260 -182 -444t-445 -184z" />
    <glyph glyph-name="oslashacute.smcp" unicode="&#xf627;" horiz-adv-x="1466" 
d="M686 1370l252 301h102l-276 -301h-78zM731 53q231 0 390 164q159 165 159 405t-184 404l-658 -889q133 -84 293 -84zM182 610q0 -260 197 -430l661 889q-137 96 -309 96q-229 0 -389 -164t-160 -391zM731 -18q-186 0 -338 96l-57 -78h-90l90 121q-229 190 -230 489
q0 260 182 444t443 185q193 0 354 -109l68 91h88l-100 -136q102 -88 159 -212t58 -263q0 -260 -182 -444t-445 -184z" />
    <glyph glyph-name="oe.smcp" unicode="&#xe298;" horiz-adv-x="2148" 
d="M732 51q230 0 389 165t159 394v23q-10 223 -167 379t-384 156t-386 -164t-159 -394t159 -394q159 -165 389 -165zM1280 0v328q-76 -158 -221 -252t-328 -94q-262 0 -443 184t-182 444q0 260 182 444t443 185q181 0 327 -94t222 -252v328h750v-70h-676v-504h676v-69h-676
v-508h676v-70h-750z" />
    <glyph glyph-name="oe.smcp" unicode="&#xf6fa;" horiz-adv-x="2148" 
d="M732 51q230 0 389 165t159 394v23q-10 223 -167 379t-384 156t-386 -164t-159 -394t159 -394q159 -165 389 -165zM1280 0v328q-76 -158 -221 -252t-328 -94q-262 0 -443 184t-182 444q0 260 182 444t443 185q181 0 327 -94t222 -252v328h750v-70h-676v-504h676v-69h-676
v-508h676v-70h-750z" />
    <glyph glyph-name="racute.smcp" unicode="&#xe29a;" horiz-adv-x="1019" 
d="M455 1370l252 301h102l-277 -301h-77zM154 0v1221h372q166 0 278 -110t112 -258q0 -147 -91 -253q-90 -106 -231 -127l330 -473h-90l-369 532h51q137 0 230 94q94 94 94 221q0 128 -89 216t-229 88h-293v-1151h-75z" />
    <glyph glyph-name="racute.smcp" unicode="&#xf658;" horiz-adv-x="1019" 
d="M455 1370l252 301h102l-277 -301h-77zM154 0v1221h372q166 0 278 -110t112 -258q0 -147 -91 -253q-90 -106 -231 -127l330 -473h-90l-369 532h51q137 0 230 94q94 94 94 221q0 128 -89 216t-229 88h-293v-1151h-75z" />
    <glyph glyph-name="rcaron.smcp" unicode="&#xe29b;" horiz-adv-x="1019" 
d="M492 1370l-244 301h82l192 -241l195 241h84l-244 -301h-65zM154 0v1221h372q166 0 278 -110t112 -258q0 -147 -91 -253q-90 -106 -231 -127l330 -473h-90l-369 532h51q137 0 230 94q94 94 94 221q0 128 -89 216t-229 88h-293v-1151h-75z" />
    <glyph glyph-name="rcaron.smcp" unicode="&#xf659;" horiz-adv-x="1019" 
d="M492 1370l-244 301h82l192 -241l195 241h84l-244 -301h-65zM154 0v1221h372q166 0 278 -110t112 -258q0 -147 -91 -253q-90 -106 -231 -127l330 -473h-90l-369 532h51q137 0 230 94q94 94 94 221q0 128 -89 216t-229 88h-293v-1151h-75z" />
    <glyph glyph-name="rcommaaccent.smcp" unicode="&#xe29e;" horiz-adv-x="1019" 
d="M459 -545h-58l97 418h75zM154 0v1221h372q166 0 278 -110t112 -258q0 -147 -91 -253q-90 -106 -231 -127l330 -473h-90l-369 532h51q137 0 230 94q94 94 94 221q0 128 -89 216t-229 88h-293v-1151h-75z" />
    <glyph glyph-name="rcommaaccent.smcp" unicode="&#xf65a;" horiz-adv-x="1019" 
d="M459 -545h-58l97 418h75zM154 0v1221h372q166 0 278 -110t112 -258q0 -147 -91 -253q-90 -106 -231 -127l330 -473h-90l-369 532h51q137 0 230 94q94 94 94 221q0 128 -89 216t-229 88h-293v-1151h-75z" />
    <glyph glyph-name="ucircumflex.smcp" unicode="&#xe300;" horiz-adv-x="1130" 
d="M283 1370l243 301h66l244 -301h-82l-195 240l-192 -240h-84zM565 -18q-178 0 -297 116t-118 293v830h73v-830q1 -147 99 -243t243 -97q145 0 244 96q98 96 98 244v830h74v-830q0 -177 -119 -293t-297 -116z" />
    <glyph glyph-name="ucircumflex.smcp" unicode="&#xf7fb;" horiz-adv-x="1130" 
d="M283 1370l243 301h66l244 -301h-82l-195 240l-192 -240h-84zM565 -18q-178 0 -297 116t-118 293v830h73v-830q1 -147 99 -243t243 -97q145 0 244 96q98 96 98 244v830h74v-830q0 -177 -119 -293t-297 -116z" />
    <glyph glyph-name="sacute.smcp" unicode="&#xe302;" horiz-adv-x="950" 
d="M459 -18q-233 0 -381 176l63 51q123 -158 318 -158q133 0 222 78t89 185t-64 174q-43 46 -161 91q-29 11 -105 37t-121 44t-102 56q-111 73 -111 212t102 225t253 86q219 0 348 -154l-59 -47q-98 133 -287 133q-119 -1 -200 -67t-81 -180t134 -182q52 -26 79 -34
q227 -71 339 -148q112 -76 112 -227t-108 -251t-279 -100zM420 1370l252 301h102l-276 -301h-78z" />
    <glyph glyph-name="sacute.smcp" unicode="&#xf65b;" horiz-adv-x="950" 
d="M459 -18q-233 0 -381 176l63 51q123 -158 318 -158q133 0 222 78t89 185t-64 174q-43 46 -161 91q-29 11 -105 37t-121 44t-102 56q-111 73 -111 212t102 225t253 86q219 0 348 -154l-59 -47q-98 133 -287 133q-119 -1 -200 -67t-81 -180t134 -182q52 -26 79 -34
q227 -71 339 -148q112 -76 112 -227t-108 -251t-279 -100zM420 1370l252 301h102l-276 -301h-78z" />
    <glyph glyph-name="scircumflex.smcp" unicode="&#xe303;" horiz-adv-x="950" 
d="M190 1364l244 301h66l243 -301h-81l-195 240l-193 -240h-84zM459 -18q-233 0 -381 176l63 51q123 -158 318 -158q133 0 222 78t89 185t-64 174q-43 46 -161 91q-29 11 -105 37t-121 44t-102 56q-111 73 -111 212t102 225t253 86q219 0 348 -154l-59 -47q-98 133 -287 133
q-119 -1 -200 -67t-81 -180t134 -182q52 -26 79 -34q227 -71 339 -148q112 -76 112 -227t-108 -251t-279 -100z" />
    <glyph glyph-name="scircumflex.smcp" unicode="&#xf636;" horiz-adv-x="950" 
d="M190 1364l244 301h66l243 -301h-81l-195 240l-193 -240h-84zM459 -18q-233 0 -381 176l63 51q123 -158 318 -158q133 0 222 78t89 185t-64 174q-43 46 -161 91q-29 11 -105 37t-121 44t-102 56q-111 73 -111 212t102 225t253 86q219 0 348 -154l-59 -47q-98 133 -287 133
q-119 -1 -200 -67t-81 -180t134 -182q52 -26 79 -34q227 -71 339 -148q112 -76 112 -227t-108 -251t-279 -100z" />
    <glyph glyph-name="scaron.smcp" unicode="&#xe304;" horiz-adv-x="950" 
d="M436 1370l-243 301h81l193 -241l195 241h83l-243 -301h-66zM459 -18q-233 0 -381 176l63 51q123 -158 318 -158q133 0 222 78t89 185t-64 174q-43 46 -161 91q-29 11 -105 37t-121 44t-102 56q-111 73 -111 212t102 225t253 86q219 0 348 -154l-59 -47q-98 133 -287 133
q-119 -1 -200 -67t-81 -180t134 -182q52 -26 79 -34q227 -71 339 -148q112 -76 112 -227t-108 -251t-279 -100z" />
    <glyph glyph-name="scaron.smcp" unicode="&#xf6fd;" horiz-adv-x="950" 
d="M436 1370l-243 301h81l193 -241l195 241h83l-243 -301h-66zM459 -18q-233 0 -381 176l63 51q123 -158 318 -158q133 0 222 78t89 185t-64 174q-43 46 -161 91q-29 11 -105 37t-121 44t-102 56q-111 73 -111 212t102 225t253 86q219 0 348 -154l-59 -47q-98 133 -287 133
q-119 -1 -200 -67t-81 -180t134 -182q52 -26 79 -34q227 -71 339 -148q112 -76 112 -227t-108 -251t-279 -100z" />
    <glyph glyph-name="scommaaccent.smcp" unicode="&#xe305;" horiz-adv-x="950" 
d="M459 -18q-233 0 -381 176l63 51q123 -158 318 -158q133 0 222 78t89 185t-64 174q-43 46 -161 91q-29 11 -105 37t-121 44t-102 56q-111 73 -111 212t102 225t253 86q219 0 348 -154l-59 -47q-98 133 -287 133q-119 -1 -200 -67t-81 -180t134 -182q52 -26 79 -34
q227 -71 339 -148q112 -76 112 -227t-108 -251t-279 -100zM391 -561h-57l96 418h76z" />
    <glyph glyph-name="scommaaccent.smcp" unicode="&#xf65d;" horiz-adv-x="950" 
d="M459 -18q-233 0 -381 176l63 51q123 -158 318 -158q133 0 222 78t89 185t-64 174q-43 46 -161 91q-29 11 -105 37t-121 44t-102 56q-111 73 -111 212t102 225t253 86q219 0 348 -154l-59 -47q-98 133 -287 133q-119 -1 -200 -67t-81 -180t134 -182q52 -26 79 -34
q227 -71 339 -148q112 -76 112 -227t-108 -251t-279 -100zM391 -561h-57l96 418h76z" />
    <glyph glyph-name="scedilla.smcp" unicode="&#xe306;" horiz-adv-x="950" 
d="M465 -459q-162 0 -268 107l61 39q96 -86 194 -86q98 1 151 35q54 34 54 86t-54 80q-54 30 -144 30h-47v152q-205 16 -334 174l63 51q123 -158 318 -158q133 0 222 78t89 185t-64 174q-43 46 -161 91q-29 11 -105 37t-121 44t-102 56q-111 73 -111 212t102 225t253 86
q219 0 348 -154l-59 -47q-98 133 -287 133q-119 -1 -200 -67t-81 -180t134 -182q52 -26 79 -34q227 -71 339 -148q112 -76 112 -225q0 -151 -104 -249t-267 -104v-101q115 0 185 -43q70 -44 71 -118q-1 -74 -75 -126t-191 -53z" />
    <glyph glyph-name="scedilla.smcp" unicode="&#xf65c;" horiz-adv-x="950" 
d="M465 -459q-162 0 -268 107l61 39q96 -86 194 -86q98 1 151 35q54 34 54 86t-54 80q-54 30 -144 30h-47v152q-205 16 -334 174l63 51q123 -158 318 -158q133 0 222 78t89 185t-64 174q-43 46 -161 91q-29 11 -105 37t-121 44t-102 56q-111 73 -111 212t102 225t253 86
q219 0 348 -154l-59 -47q-98 133 -287 133q-119 -1 -200 -67t-81 -180t134 -182q52 -26 79 -34q227 -71 339 -148q112 -76 112 -225q0 -151 -104 -249t-267 -104v-101q115 0 185 -43q70 -44 71 -118q-1 -74 -75 -126t-191 -53z" />
    <glyph glyph-name="tcaron.smcp" unicode="&#xe309;" horiz-adv-x="1050" 
d="M510 1368l-244 301h82l193 -242l194 242h84l-244 -301h-65zM489 0v1149h-391v72h854v-72h-387v-1149h-76z" />
    <glyph glyph-name="tcaron.smcp" unicode="&#xf65e;" horiz-adv-x="1050" 
d="M510 1368l-244 301h82l193 -242l194 242h84l-244 -301h-65zM489 0v1149h-391v72h854v-72h-387v-1149h-76z" />
    <glyph glyph-name="tcommaaccent.smcp" unicode="&#xe30a;" horiz-adv-x="1048" 
d="M489 0v1149h-391v72h854v-72h-387v-1149h-76zM467 -561h-57l96 418h76z" />
    <glyph glyph-name="tcommaaccent.smcp" unicode="&#xf65f;" horiz-adv-x="1048" 
d="M489 0v1149h-391v72h854v-72h-387v-1149h-76zM467 -561h-57l96 418h76z" />
    <glyph glyph-name="tbar.smcp" unicode="&#xe30d;" horiz-adv-x="1050" 
d="M782 586h-217v-586h-76v586h-221v69h221v494h-391v72h854v-72h-387v-494h217v-69z" />
    <glyph glyph-name="tbar.smcp" unicode="&#xf637;" horiz-adv-x="1050" 
d="M782 586h-217v-586h-76v586h-221v69h221v494h-391v72h854v-72h-387v-494h217v-69z" />
    <glyph glyph-name="uacute.smcp" unicode="&#xe30e;" horiz-adv-x="1130" 
d="M565 -18q-178 0 -297 116t-118 293v830h73v-830q1 -147 99 -243t243 -97q145 0 244 96q98 96 98 244v830h74v-830q0 -177 -119 -293t-297 -116zM502 1352l252 301h102l-276 -301h-78z" />
    <glyph glyph-name="uacute.smcp" unicode="&#xf7fa;" horiz-adv-x="1130" 
d="M565 -18q-178 0 -297 116t-118 293v830h73v-830q1 -147 99 -243t243 -97q145 0 244 96q98 96 98 244v830h74v-830q0 -177 -119 -293t-297 -116zM502 1352l252 301h102l-276 -301h-78z" />
    <glyph glyph-name="ugrave.smcp" unicode="&#xe30f;" horiz-adv-x="1130" 
d="M543 1352l-277 301h103l252 -301h-78zM565 -18q-178 0 -297 116t-118 293v830h73v-830q1 -147 99 -243t243 -97q145 0 244 96q98 96 98 244v830h74v-830q0 -177 -119 -293t-297 -116z" />
    <glyph glyph-name="ugrave.smcp" unicode="&#xf7f9;" horiz-adv-x="1130" 
d="M543 1352l-277 301h103l252 -301h-78zM565 -18q-178 0 -297 116t-118 293v830h73v-830q1 -147 99 -243t243 -97q145 0 244 96q98 96 98 244v830h74v-830q0 -177 -119 -293t-297 -116z" />
    <glyph glyph-name="wdieresis.smcp" unicode="&#xe310;" horiz-adv-x="1796" 
d="M758 1374v287h73v-287h-73zM963 1374v287h73v-287h-73zM438 0l-358 1221h80l321 -1108l379 1108h70l379 -1108l331 1108h78l-370 -1221h-76l-377 1104l-379 -1104h-78z" />
    <glyph glyph-name="wdieresis.smcp" unicode="&#xf63c;" horiz-adv-x="1796" 
d="M758 1374v287h73v-287h-73zM963 1374v287h73v-287h-73zM438 0l-358 1221h80l321 -1108l379 1108h70l379 -1108l331 1108h78l-370 -1221h-76l-377 1104l-379 -1104h-78z" />
    <glyph glyph-name="udieresis.smcp" unicode="&#xe311;" horiz-adv-x="1130" 
d="M565 -18q-178 0 -297 116t-118 293v830h73v-830q1 -147 99 -243t243 -97q145 0 244 96q98 96 98 244v830h74v-830q0 -177 -119 -293t-297 -116zM426 1374v287h74v-287h-74zM631 1374v287h74v-287h-74z" />
    <glyph glyph-name="udieresis.smcp" unicode="&#xf7fc;" horiz-adv-x="1130" 
d="M565 -18q-178 0 -297 116t-118 293v830h73v-830q1 -147 99 -243t243 -97q145 0 244 96q98 96 98 244v830h74v-830q0 -177 -119 -293t-297 -116zM426 1374v287h74v-287h-74zM631 1374v287h74v-287h-74z" />
    <glyph glyph-name="utilde.smcp" unicode="&#xe312;" horiz-adv-x="1130" 
d="M215 1370q0 88 50 142t124 54t189 -69q115 -70 170 -70q121 0 120 134h66q0 -95 -50 -147t-132 -52t-194 69q-110 69 -162 69t-85 -35q-33 -34 -32 -95h-64zM565 -18q-178 0 -297 116t-118 293v830h73v-830q1 -147 99 -243t243 -97q145 0 244 96q98 96 98 244v830h74
v-830q0 -177 -119 -293t-297 -116z" />
    <glyph glyph-name="utilde.smcp" unicode="&#xf639;" horiz-adv-x="1130" 
d="M215 1370q0 88 50 142t124 54t189 -69q115 -70 170 -70q121 0 120 134h66q0 -95 -50 -147t-132 -52t-194 69q-110 69 -162 69t-85 -35q-33 -34 -32 -95h-64zM565 -18q-178 0 -297 116t-118 293v830h73v-830q1 -147 99 -243t243 -97q145 0 244 96q98 96 98 244v830h74
v-830q0 -177 -119 -293t-297 -116z" />
    <glyph glyph-name="uring.smcp" unicode="&#xe313;" horiz-adv-x="1130" 
d="M568 1411q50 0 88 37t38 88t-38 89t-88 38t-87 -39t-37 -89t37 -87t87 -37zM569 1348q-78 0 -133 55t-55 133t55 133t133 55t133 -54q56 -54 56 -133t-56 -134t-133 -55zM565 -18q-178 0 -297 116t-118 293v830h73v-830q1 -147 99 -243t243 -97q145 0 244 96
q98 96 98 244v830h74v-830q0 -177 -119 -293t-297 -116z" />
    <glyph glyph-name="uring.smcp" unicode="&#xf663;" horiz-adv-x="1130" 
d="M568 1411q50 0 88 37t38 88t-38 89t-88 38t-87 -39t-37 -89t37 -87t87 -37zM569 1348q-78 0 -133 55t-55 133t55 133t133 55t133 -54q56 -54 56 -133t-56 -134t-133 -55zM565 -18q-178 0 -297 116t-118 293v830h73v-830q1 -147 99 -243t243 -97q145 0 244 96
q98 96 98 244v830h74v-830q0 -177 -119 -293t-297 -116z" />
    <glyph glyph-name="umacron.smcp" unicode="&#xe315;" horiz-adv-x="1130" 
d="M295 1370v66h541v-66h-541zM565 -18q-178 0 -297 116t-118 293v830h73v-830q1 -147 99 -243t243 -97q145 0 244 96q98 96 98 244v830h74v-830q0 -177 -119 -293t-297 -116z" />
    <glyph glyph-name="umacron.smcp" unicode="&#xf661;" horiz-adv-x="1130" 
d="M295 1370v66h541v-66h-541zM565 -18q-178 0 -297 116t-118 293v830h73v-830q1 -147 99 -243t243 -97q145 0 244 96q98 96 98 244v830h74v-830q0 -177 -119 -293t-297 -116z" />
    <glyph glyph-name="ubreve.smcp" unicode="&#xe316;" horiz-adv-x="1130" 
d="M899 1669q1 -123 -91 -216t-246 -93t-238 91q-86 91 -86 218h67q0 -102 69 -175q70 -73 192 -73t194 74t71 174h68zM565 -18q-178 0 -297 116t-118 293v830h73v-830q1 -147 99 -243t243 -97q145 0 244 96q98 96 98 244v830h74v-830q0 -177 -119 -293t-297 -116z" />
    <glyph glyph-name="ubreve.smcp" unicode="&#xf638;" horiz-adv-x="1130" 
d="M899 1669q1 -123 -91 -216t-246 -93t-238 91q-86 91 -86 218h67q0 -102 69 -175q70 -73 192 -73t194 74t71 174h68zM565 -18q-178 0 -297 116t-118 293v830h73v-830q1 -147 99 -243t243 -97q145 0 244 96q98 96 98 244v830h74v-830q0 -177 -119 -293t-297 -116z" />
    <glyph glyph-name="uhungarumlaut.smcp" unicode="&#xe318;" horiz-adv-x="1130" 
d="M602 1364l252 301h98l-276 -301h-74zM395 1364l252 301h98l-276 -301h-74zM565 -18q-178 0 -297 116t-118 293v830h73v-830q1 -147 99 -243t243 -97q145 0 244 96q98 96 98 244v830h74v-830q0 -177 -119 -293t-297 -116z" />
    <glyph glyph-name="uhungarumlaut.smcp" unicode="&#xf660;" horiz-adv-x="1130" 
d="M602 1364l252 301h98l-276 -301h-74zM395 1364l252 301h98l-276 -301h-74zM565 -18q-178 0 -297 116t-118 293v830h73v-830q1 -147 99 -243t243 -97q145 0 244 96q98 96 98 244v830h74v-830q0 -177 -119 -293t-297 -116z" />
    <glyph glyph-name="uogonek.smcp" unicode="&#xe31b;" horiz-adv-x="1134" 
d="M691 -395q-125 0 -195 53t-70 133q0 106 127 191q-174 4 -289 120t-114 289v830h73v-830q1 -147 99 -243t243 -97q145 0 244 96q98 96 98 244v830h74v-830q0 -129 -66 -228t-176 -147l4 -2q-133 -66 -187 -116t-54 -106t48 -89t140 -33t187 90l61 -43
q-121 -112 -247 -112z" />
    <glyph glyph-name="uogonek.smcp" unicode="&#xf662;" horiz-adv-x="1134" 
d="M691 -395q-125 0 -195 53t-70 133q0 106 127 191q-174 4 -289 120t-114 289v830h73v-830q1 -147 99 -243t243 -97q145 0 244 96q98 96 98 244v830h74v-830q0 -129 -66 -228t-176 -147l4 -2q-133 -66 -187 -116t-54 -106t48 -89t140 -33t187 90l61 -43
q-121 -112 -247 -112z" />
    <glyph glyph-name="wacute.smcp" unicode="&#xe31d;" horiz-adv-x="1796" 
d="M858 1370l252 301h102l-276 -301h-78zM438 0l-358 1221h80l321 -1108l379 1108h70l379 -1108l331 1108h78l-370 -1221h-76l-377 1104l-379 -1104h-78z" />
    <glyph glyph-name="wacute.smcp" unicode="&#xf63a;" horiz-adv-x="1796" 
d="M858 1370l252 301h102l-276 -301h-78zM438 0l-358 1221h80l321 -1108l379 1108h70l379 -1108l331 1108h78l-370 -1221h-76l-377 1104l-379 -1104h-78z" />
    <glyph glyph-name="wgrave.smcp" unicode="&#xe31e;" horiz-adv-x="1796" 
d="M858 1370l-276 301h102l252 -301h-78zM438 0l-358 1221h80l321 -1108l379 1108h70l379 -1108l331 1108h78l-370 -1221h-76l-377 1104l-379 -1104h-78z" />
    <glyph glyph-name="wgrave.smcp" unicode="&#xf63d;" horiz-adv-x="1796" 
d="M858 1370l-276 301h102l252 -301h-78zM438 0l-358 1221h80l321 -1108l379 1108h70l379 -1108l331 1108h78l-370 -1221h-76l-377 1104l-379 -1104h-78z" />
    <glyph glyph-name="wcircumflex.smcp" unicode="&#xe31f;" horiz-adv-x="1796" 
d="M616 1354l244 301h66l243 -301h-82l-194 239l-193 -239h-84zM438 0l-358 1221h80l321 -1108l379 1108h70l379 -1108l331 1108h78l-370 -1221h-76l-377 1104l-379 -1104h-78z" />
    <glyph glyph-name="wcircumflex.smcp" unicode="&#xf63b;" horiz-adv-x="1796" 
d="M616 1354l244 301h66l243 -301h-82l-194 239l-193 -239h-84zM438 0l-358 1221h80l321 -1108l379 1108h70l379 -1108l331 1108h78l-370 -1221h-76l-377 1104l-379 -1104h-78z" />
    <glyph glyph-name="yacute.smcp" unicode="&#xe321;" horiz-adv-x="1067" 
d="M487 1362l252 301h103l-277 -301h-78zM498 0v578l-414 643h84l364 -572l367 572h84l-412 -639v-582h-73z" />
    <glyph glyph-name="yacute.smcp" unicode="&#xf7fd;" horiz-adv-x="1067" 
d="M487 1362l252 301h103l-277 -301h-78zM498 0v578l-414 643h84l364 -572l367 572h84l-412 -639v-582h-73z" />
    <glyph glyph-name="ygrave.smcp" unicode="&#xe322;" horiz-adv-x="1075" 
d="M522 1364l-276 301h102l252 -301h-78zM502 0v578l-414 643h84l365 -572l366 572h84l-412 -639v-582h-73z" />
    <glyph glyph-name="ygrave.smcp" unicode="&#xf63f;" horiz-adv-x="1075" 
d="M522 1364l-276 301h102l252 -301h-78zM502 0v578l-414 643h84l365 -572l366 572h84l-412 -639v-582h-73z" />
    <glyph glyph-name="ycircumflex.smcp" unicode="&#xe323;" horiz-adv-x="1067" 
d="M260 1368l244 301h65l244 -301h-82l-194 240l-193 -240h-84zM498 0v578l-414 643h84l364 -572l367 572h84l-412 -639v-582h-73z" />
    <glyph glyph-name="ycircumflex.smcp" unicode="&#xf63e;" horiz-adv-x="1067" 
d="M260 1368l244 301h65l244 -301h-82l-194 240l-193 -240h-84zM498 0v578l-414 643h84l364 -572l367 572h84l-412 -639v-582h-73z" />
    <glyph glyph-name="ydieresis.smcp" unicode="&#xe324;" horiz-adv-x="1067" 
d="M403 1368v287h74v-287h-74zM608 1368v287h74v-287h-74zM498 0v578l-414 643h84l364 -572l367 572h84l-412 -639v-582h-73z" />
    <glyph glyph-name="ydieresis.smcp" unicode="&#xf7ff;" horiz-adv-x="1067" 
d="M403 1368v287h74v-287h-74zM608 1368v287h74v-287h-74zM498 0v578l-414 643h84l364 -572l367 572h84l-412 -639v-582h-73z" />
    <glyph glyph-name="ij.smcp" unicode="&#xe327;" horiz-adv-x="937" 
d="M145 0v1221h76v-1221h-76zM412 0v72h69q115 0 176 70t62 182v897h76v-902q0 -151 -79 -235t-235 -84h-69z" />
    <glyph glyph-name="ij.smcp" unicode="&#xf631;" horiz-adv-x="937" 
d="M145 0v1221h76v-1221h-76zM412 0v72h69q115 0 176 70t62 182v897h76v-902q0 -151 -79 -235t-235 -84h-69z" />
    <glyph glyph-name="zacute.smcp" unicode="&#xe328;" horiz-adv-x="1026" 
d="M455 1370l252 301h102l-277 -301h-77zM109 0v70l718 1079h-698v72h789v-70l-723 -1079h720v-72h-806z" />
    <glyph glyph-name="zacute.smcp" unicode="&#xf664;" horiz-adv-x="1026" 
d="M455 1370l252 301h102l-277 -301h-77zM109 0v70l718 1079h-698v72h789v-70l-723 -1079h720v-72h-806z" />
    <glyph glyph-name="zcaron.smcp" unicode="&#xe329;" horiz-adv-x="1026" 
d="M489 1370l-243 301h82l192 -241l195 241h84l-244 -301h-66zM109 0v70l718 1079h-698v72h789v-70l-723 -1079h720v-72h-806z" />
    <glyph glyph-name="zcaron.smcp" unicode="&#xf6ff;" horiz-adv-x="1026" 
d="M489 1370l-243 301h82l192 -241l195 241h84l-244 -301h-66zM109 0v70l718 1079h-698v72h789v-70l-723 -1079h720v-72h-806z" />
    <glyph glyph-name="zdotaccent.smcp" unicode="&#xe32a;" horiz-adv-x="1026" 
d="M489 1374v287h76v-287h-76zM109 0v70l718 1079h-698v72h789v-70l-723 -1079h720v-72h-806z" />
    <glyph glyph-name="zdotaccent.smcp" unicode="&#xf665;" horiz-adv-x="1026" 
d="M489 1374v287h76v-287h-76zM109 0v70l718 1079h-698v72h789v-70l-723 -1079h720v-72h-806z" />
    <glyph glyph-name="eng.smcp" unicode="&#xe32b;" horiz-adv-x="1292" 
d="M780 -467v74q176 0 231 50q54 50 54 232v107l-838 1112v-1108h-73v1221h79l832 -1102v1102h74v-1334q0 -211 -72 -283t-274 -71h-13z" />
    <glyph glyph-name="eng.smcp" unicode="&#xf62b;" horiz-adv-x="1292" 
d="M780 -467v74q176 0 231 50q54 50 54 232v107l-838 1112v-1108h-73v1221h79l832 -1102v1102h74v-1334q0 -211 -72 -283t-274 -71h-13z" />
    <glyph glyph-name="eth.smcp" unicode="&#xe32c;" horiz-adv-x="1261" 
d="M590 575h-332v-505h264q236 0 396 156t160 385q0 230 -159 385t-399 155h-262v-508h332v-68zM53 575v68h129v578h344q268 0 448 -175q180 -174 181 -434q0 -260 -181 -436t-446 -176h-346v575h-129z" />
    <glyph glyph-name="eth.smcp" unicode="&#xf7f0;" horiz-adv-x="1261" 
d="M590 575h-332v-505h264q236 0 396 156t160 385q0 230 -159 385t-399 155h-262v-508h332v-68zM53 575v68h129v578h344q268 0 448 -175q180 -174 181 -434q0 -260 -181 -436t-446 -176h-346v575h-129z" />
    <glyph glyph-name="thorn.smcp" unicode="&#xe32d;" horiz-adv-x="1038" 
d="M532 907h-305v-571h305q143 0 229 81q85 81 85 206t-86 205t-228 79zM154 0v1221h73v-244h308q174 0 280 -100q107 -100 107 -255t-106 -255t-281 -101h-308v-266h-73z" />
    <glyph glyph-name="thorn.smcp" unicode="&#xf7fe;" horiz-adv-x="1038" 
d="M532 907h-305v-571h305q143 0 229 81q85 81 85 206t-86 205t-228 79zM154 0v1221h73v-244h308q174 0 280 -100q107 -100 107 -255t-106 -255t-281 -101h-308v-266h-73z" />
    <glyph glyph-name="ordfeminine.smcp" unicode="&#xe351;" horiz-adv-x="743" 
d="M371 1415l-119 -303h240zM106 903l234 592h66l233 -592h-66l-59 150h-285l-59 -150h-64z" />
    <glyph glyph-name="ordmasculine.smcp" unicode="&#xe352;" horiz-adv-x="892" 
d="M446 952q102 0 174 72q70 72 70 175t-70 176q-72 73 -174 73t-174 -74t-72 -176t72 -174t174 -72zM447 1507q127 0 217 -90t90 -218t-90 -218t-217 -90q-128 0 -218 90t-90 218t90 218t218 90z" />
    <glyph glyph-name="cordinal.smcp" unicode="&#xe353;" horiz-adv-x="858" 
d="M668 1303q-64 145 -236 145q-88 0 -160 -73t-72 -175t72 -176t161 -74q173 0 237 150l57 -29q-37 -82 -112 -131t-185 -49t-201 90q-90 90 -90 218t90 218t217 90q90 0 166 -48t113 -128z" />
    <glyph glyph-name="fi" unicode="&#xe38c;" horiz-adv-x="1013" 
d="M788 1192v303h76v-303h-76zM788 0v1024h76v-1024h-76zM72 956v68h176v117q0 211 70 283t278 71h6v-72q-174 0 -227 -51t-53 -233v-115h280v-68h-280v-956h-74v956h-176z" />
    <glyph glyph-name="fi" unicode="&#xfb01;" horiz-adv-x="1013" 
d="M788 1192v303h76v-303h-76zM788 0v1024h76v-1024h-76zM72 956v68h176v117q0 211 70 283t278 71h6v-72q-174 0 -227 -51t-53 -233v-115h280v-68h-280v-956h-74v956h-176z" />
    <glyph glyph-name="fl" unicode="&#xe38d;" horiz-adv-x="1017" 
d="M788 0v1495h76v-1495h-76zM72 956v68h176v117q0 211 70 283t278 71h6v-72q-174 0 -227 -51t-53 -233v-115h280v-68h-280v-956h-74v956h-176z" />
    <glyph glyph-name="fl" unicode="&#xfb02;" horiz-adv-x="1017" 
d="M788 0v1495h76v-1495h-76zM72 956v68h176v117q0 211 70 283t278 71h6v-72q-174 0 -227 -51t-53 -233v-115h280v-68h-280v-956h-74v956h-176z" />
    <glyph glyph-name="ampersand.smcp" unicode="&#xe401;" horiz-adv-x="1353" 
d="M195 381q0 -129 101 -229q100 -100 290 -101q190 0 340 135l-422 424q-57 53 -92 95q-217 -109 -217 -324zM119 362q0 140 66 239q67 99 182 155q-84 100 -84 213q-1 113 79 191t218 79q92 0 164 -40t112 -103l-63 -35q-31 47 -87 79t-124 31q-104 0 -164 -59t-60 -138
q0 -78 44 -142t159 -179l416 -415q162 184 182 424h-309v69h381v-24q0 -129 -55 -269t-152 -248l193 -190h-101l-141 141q-174 -159 -394 -159t-341 120t-121 260z" />
    <glyph glyph-name="ampersand.smcp" unicode="&#xf726;" horiz-adv-x="1353" 
d="M195 381q0 -129 101 -229q100 -100 290 -101q190 0 340 135l-422 424q-57 53 -92 95q-217 -109 -217 -324zM119 362q0 140 66 239q67 99 182 155q-84 100 -84 213q-1 113 79 191t218 79q92 0 164 -40t112 -103l-63 -35q-31 47 -87 79t-124 31q-104 0 -164 -59t-60 -138
q0 -78 44 -142t159 -179l416 -415q162 184 182 424h-309v69h381v-24q0 -129 -55 -269t-152 -248l193 -190h-101l-141 141q-174 -159 -394 -159t-341 120t-121 260z" />
    <glyph glyph-name="invertedbreve" unicode="&#xe411;" horiz-adv-x="1038" 
d="M186 1171q0 127 86 219t240 91q154 0 244 -93q92 -93 92 -217h-68q0 98 -72 174q-73 75 -195 75q-123 0 -191 -74q-68 -72 -68 -175h-68z" />
    <glyph glyph-name="doublegrave" unicode="&#xe412;" horiz-adv-x="1038" 
d="M723 1174l-256 301h98l230 -301h-72zM494 1174l-283 301h96l258 -301h-71z" />
    <glyph glyph-name="caronSlovak" unicode="&#xe413;" horiz-adv-x="1038" 
d="M436 1157l119 332h76l-135 -332h-60z" />
    <glyph glyph-name="commaaccent" unicode="&#xe414;" horiz-adv-x="1042" 
d="M467 -510h-57l96 418h76z" />
    <glyph glyph-name="commaaccent" unicode="&#xf6c3;" horiz-adv-x="1042" 
d="M467 -510h-57l96 418h76z" />
    <glyph glyph-name="dotbelow" unicode="&#xe415;" horiz-adv-x="1042" 
d="M463 -379v287h76v-287h-76z" />
    <glyph glyph-name="altcedilla" unicode="&#xe416;" horiz-adv-x="1038" 
d="M520 -453q-162 0 -266 105l61 41q89 -84 189 -84t154 34t54 85t-47 81q-48 30 -139 29h-32v49h36q117 2 187 -42q69 -45 69 -119t-74 -126t-192 -53z" />
    <glyph glyph-name="exclamdown.cap" unicode="&#xe441;" horiz-adv-x="501" 
d="M215 1214v281h78v-281h-78zM215 0v240q0 467 14 835h47q16 -420 17 -835v-240h-78z" />
    <glyph glyph-name="questiondown.cap" unicode="&#xe444;" horiz-adv-x="1089" 
d="M524 1214v281h78v-281h-78zM523 -20q-166 0 -286 95t-120 246t81 238q36 39 118 102t123 119q89 117 87 307v17h74v-17q0 -123 -30 -215t-74 -141t-98 -96t-99 -81t-75 -93t-29 -137q0 -121 99 -199t245 -78q248 0 356 209l68 -31q-55 -111 -165 -178t-275 -67z" />
    <glyph glyph-name="guilsinglleft.cap" unicode="&#xe451;" horiz-adv-x="587" 
d="M442 469l-297 244v55l297 244v-72l-243 -201l243 -200v-70z" />
    <glyph glyph-name="guilsinglright.cap" unicode="&#xe452;" horiz-adv-x="587" 
d="M145 469v70l246 200l-246 201v72l297 -244v-55z" />
    <glyph glyph-name="guillemotleft.cap" unicode="&#xe453;" horiz-adv-x="894" 
d="M444 473l-301 242v51l301 242v-68l-249 -201l249 -200v-66zM754 473l-303 242v51l303 242v-68l-252 -201l252 -200v-66z" />
    <glyph glyph-name="guillemotright.cap" unicode="&#xe454;" horiz-adv-x="894" 
d="M143 473v66l248 200l-248 201v68l301 -242v-51zM451 473v66l249 200l-249 201v68l303 -242v-51z" />
    <glyph glyph-name="slash.cap" unicode="&#xe461;" horiz-adv-x="909" 
d="M59 0l709 1495h82l-709 -1495h-82z" />
    <glyph glyph-name="backslash.cap" unicode="&#xe462;" horiz-adv-x="909" 
d="M768 0l-709 1495h82l709 -1495h-82z" />
    <glyph glyph-name="bar.cap" unicode="&#xe463;" horiz-adv-x="364" 
d="M145 -246v1966h76v-1966h-76z" />
    <glyph glyph-name="doublebar.cap" unicode="&#xe464;" horiz-adv-x="669" 
d="M449 -246v1966h75v-1966h-75zM145 -246v1966h76v-1966h-76z" />
    <glyph glyph-name="brokenbar.cap" unicode="&#xe465;" horiz-adv-x="391" 
d="M145 -246v860h76v-860h-76zM145 860v860h76v-860h-76z" />
    <glyph glyph-name="bullet.cap" unicode="&#xe466;" horiz-adv-x="565" 
d="M283 649q-39 0 -67 28q-28 29 -28 67t28 66t67 28t67 -28t27 -67q1 -39 -27 -67t-67 -27z" />
    <glyph glyph-name="slash.smcp" unicode="&#xe467;" horiz-adv-x="813" 
d="M78 0l579 1221h80l-577 -1221h-82z" />
    <glyph glyph-name="backslash.smcp" unicode="&#xe468;" horiz-adv-x="813" 
d="M657 0l-579 1221h82l577 -1221h-80z" />
    <glyph glyph-name="bar.smcp" unicode="&#xe469;" horiz-adv-x="366" 
d="M145 -201v1606h76v-1606h-76z" />
    <glyph glyph-name="doublebar.smcp" unicode="&#xe46a;" horiz-adv-x="669" 
d="M451 -201v1606h75v-1606h-75zM145 -201v1606h76v-1606h-76z" />
    <glyph glyph-name="onethirdemdash" unicode="&#xe471;" horiz-adv-x="876" 
d="M111 485v68h655v-68h-655z" />
    <glyph glyph-name="threequarteremdash" unicode="&#xe472;" horiz-adv-x="1286" 
d="M111 485v68h1065v-68h-1065z" />
    <glyph glyph-name="periodcentered.cap" unicode="&#xe481;" horiz-adv-x="366" 
d="M145 526v281h78v-281h-78z" />
    <glyph glyph-name="hyphen.cap" unicode="&#xe482;" horiz-adv-x="978" 
d="M111 641v68h757v-68h-757z" />
    <glyph glyph-name="onethirdemdash.cap" unicode="&#xe483;" horiz-adv-x="876" 
d="M111 641v68h655v-68h-655z" />
    <glyph glyph-name="endash.cap" unicode="&#xe484;" horiz-adv-x="1081" 
d="M111 641v68h860v-68h-860z" />
    <glyph glyph-name="threequarteremdash.cap" unicode="&#xe485;" horiz-adv-x="1286" 
d="M111 641v68h1065v-68h-1065z" />
    <glyph glyph-name="emdash.cap" unicode="&#xe486;" horiz-adv-x="1490" 
d="M111 641v68h1269v-68h-1269z" />
    <glyph glyph-name="figuredash.cap" unicode="&#xe487;" horiz-adv-x="1388" 
d="M111 641v68h1167v-68h-1167z" />
    <glyph glyph-name="uni2015.cap" unicode="&#xe488;" horiz-adv-x="2105" 
d="M111 641v68h1884v-68h-1884z" />
    <glyph glyph-name="anglebracketright.smcp" unicode="&#xe490;" horiz-adv-x="698" 
d="M227 -201h-82l381 801l-381 805h84l381 -805z" />
    <glyph glyph-name="parenleft.cap" unicode="&#xe491;" horiz-adv-x="833" 
d="M123 741q0 643 539 1016l57 -57q-516 -348 -516 -958t524 -963l-51 -60q-553 379 -553 1022z" />
    <glyph glyph-name="parenright.cap" unicode="&#xe492;" horiz-adv-x="833" 
d="M711 741q0 -643 -553 -1022l-52 60q524 352 525 960q0 313 -137 556t-379 405l57 57q539 -373 539 -1016z" />
    <glyph glyph-name="bracketleft.cap" unicode="&#xe493;" horiz-adv-x="780" 
d="M111 -246v1966h559v-71h-484v-1823h484v-72h-559z" />
    <glyph glyph-name="bracketright.cap" unicode="&#xe494;" horiz-adv-x="780" 
d="M111 -246v70h483v1825h-483v71h559v-1966h-559z" />
    <glyph glyph-name="braceleft.cap" unicode="&#xe495;" horiz-adv-x="835" 
d="M745 -246h-22q-256 0 -353 96t-98 349v276q0 129 -34 176q-35 47 -158 47v76q123 0 158 46t34 175v281q0 252 98 348t353 96h22v-69q-237 0 -317 -78t-80 -299v-281q0 -113 -29 -173t-100 -85q74 -23 102 -84t27 -174v-276q0 -221 80 -299t317 -78v-70z" />
    <glyph glyph-name="braceright.cap" unicode="&#xe496;" horiz-adv-x="835" 
d="M90 -246v72q238 0 318 77t79 298v276q0 113 27 174t102 84q-72 25 -100 85t-29 173v281q0 221 -79 298q-80 77 -318 77v71h23q256 0 353 -96t97 -348v-281q0 -129 35 -175t158 -46v-76q-123 0 -158 -47t-35 -176v-276q0 -253 -97 -349t-353 -96h-23z" />
    </font>
</defs>
</svg>
