<?xml version="1.0" standalone="no"?>
<!DOCTYPE svg PUBLIC "-//W3C//DTD SVG 1.1//EN" "http://www.w3.org/Graphics/SVG/1.1/DTD/svg11.dtd" >
<svg xmlns="http://www.w3.org/2000/svg">
<metadata>
Created by FontPrep 20130207 at Sat Apr 25 19:03:23 2015
 By Andrew Poes
Copyright (c) 2013 by Lucas Sharp. All rights reserved.
</metadata>
<defs>
<font id="ee5684e7008614105318ff0c6766051a" horiz-adv-x='1024' >
  <font-face 
    font-family="SharpSansNo1-Semibold"
    font-weight="770"
    font-stretch="normal"
    units-per-em="2048"
    panose-1="0 0 0 0 0 0 0 0 0 0"
    ascent="1536"
    descent="-512"
    x-height="1024"
    cap-height="1495"
    bbox="-154 -535 2829.01 2236"
    underline-thickness="102"
    underline-position="-102"
    unicode-range="U+0020-F60B"
  />
<missing-glyph horiz-adv-x="1843" 
d="M852 748l-580 579v-1159zM991 748l580 -580v1159zM342 1397l580 -580l579 580h-1159zM922 678l-580 -580h1159zM174 0v1495h1495v-1495h-1495z" />
    <glyph glyph-name="interrobang" unicode="&#x21;&#x3f;" horiz-adv-x="1087" 
d="M776 1104q0 78 -41 131t-110 76v-56q0 -172 -15 -426q14 15 58 59t58 65q50 73 50 151zM414 0v281h221v-281h-221zM428 1255v58q-115 -35 -172 -172l-203 76q47 133 171 216t318 83t325 -112q132 -112 132 -292q0 -106 -41 -180t-98 -116q-56 -42 -114 -87t-99 -125
t-41 -196v-21h-162q-16 451 -16 868z" />
    <glyph glyph-name="interrobangdown" unicode="&#xa1;&#xbf;" horiz-adv-x="1087" 
d="M315 -81q0 -77 40 -130t112 -76v56q0 209 12 424q-14 -17 -56 -59t-57 -63q-51 -75 -51 -152zM678 1024v-281h-221v281h221zM550 -492q-194 0 -326 112t-132 292q0 106 41 180t98 117t115 87q57 44 98 124t41 196v23h162q16 -455 17 -870v-58q115 35 172 172l202 -76
q-47 -133 -171 -216q-123 -83 -317 -83z" />
    <glyph glyph-name=".notdef" horiz-adv-x="1843" 
d="M852 748l-580 579v-1159zM991 748l580 -580v1159zM342 1397l580 -580l579 580h-1159zM922 678l-580 -580h1159zM174 0v1495h1495v-1495h-1495z" />
    <glyph glyph-name=".null" horiz-adv-x="0" 
 />
    <glyph glyph-name="nonmarkingreturn" horiz-adv-x="681" 
 />
    <glyph glyph-name="space" unicode=" " horiz-adv-x="507" 
 />
    <glyph glyph-name="exclam" unicode="!" horiz-adv-x="458" 
d="M121 0v281h219v-281h-219zM121 1255v240h219v-240q0 -481 -49 -860h-121q-49 379 -49 860z" />
    <glyph glyph-name="quotedbl" unicode="&#x22;" horiz-adv-x="641" 
d="M367 1323v172h180v-172q0 -53 -22 -151t-38 -148h-63q-57 180 -57 299zM96 1495h180v-172q0 -53 -22 -151t-37 -148h-63q-57 180 -58 299v172z" />
    <glyph glyph-name="numbersign" unicode="#" horiz-adv-x="1673" 
d="M639 950v-387h387v387h-387zM1026 0v350h-387v-350h-221v350h-346v213h346v387h-346v213h346v332h221v-332h387v332h223v-332h353v-213h-353v-387h353v-213h-353v-350h-223z" />
    <glyph glyph-name="dollar" unicode="$" 
d="M330 1117q0 -71 46 -113t132 -76v383q-84 -19 -131 -71t-47 -123zM913 428q0 135 -192 207v-436q90 25 141 86t51 143zM1139 428q0 -160 -113 -285t-301 -155v-234h-221v234q-270 35 -455 250l191 159q100 -158 268 -196v501q-289 93 -368 248q-34 70 -34 158
q0 156 109 266t289 135v211h221v-215q225 -35 379 -213l-182 -137q-74 113 -201 150v-445q307 -101 383 -262q35 -74 35 -170z" />
    <glyph glyph-name="percent" unicode="%" horiz-adv-x="1720" 
d="M88 1160q0 148 104 252t252 104t252 -104t104 -252t-104 -252t-252 -105q-148 1 -252 105t-104 252zM1120 335q0 -71 49 -121t119 -50t119 50t49 121t-49 121t-119 50t-119 -50t-49 -121zM84 0l1284 1495h281l-1284 -1495h-281zM932 334q0 148 103 254q103 104 251 104
t254 -104q104 -104 104 -253t-104 -253t-253 -104t-252 104t-103 252zM276 1159q0 -72 50 -122t118 -50q70 0 119 50t49 122t-49 122t-119 50t-119 -50t-49 -122z" />
    <glyph glyph-name="ampersand" unicode="&#x26;" horiz-adv-x="1544" 
d="M641 174q162 0 293 92l-473 477q-172 -100 -172 -276q0 -119 95 -206t257 -87zM653 -23q-153 0 -271 43t-184 116q-133 148 -130 329q0 141 71 252q72 111 195 180q-78 121 -78 265t114 248q114 105 294 106q289 0 403 -238l-205 -92q-61 133 -194 133q-80 0 -130 -49
t-50 -128t46 -144t201 -222l357 -358q113 150 145 330h-248v208h467v-98q0 -141 -60 -295t-165 -282l276 -281h-303l-129 129q-199 -152 -422 -152z" />
    <glyph glyph-name="quotesingle" unicode="'" horiz-adv-x="370" 
d="M96 1495h180v-172q0 -53 -22 -151t-37 -148h-63q-57 180 -58 299v172z" />
    <glyph glyph-name="parenleft" unicode="(" horiz-adv-x="837" 
d="M72 512q0 338 145 581t410 435l149 -164q-471 -326 -471 -856t477 -842l-141 -180q-569 391 -569 1026z" />
    <glyph glyph-name="parenright" unicode=")" horiz-adv-x="837" 
d="M532 506q0 532 -471 854l150 166q263 -192 409 -436t146 -580q0 -635 -569 -1026l-142 178q477 312 477 844z" />
    <glyph glyph-name="asterisk" unicode="*" horiz-adv-x="860" 
d="M692 870l-209 172l43 -270h-192l41 270l-213 -172l-94 168l254 97l-254 100l98 166l211 -174l-43 270h192l-43 -270l213 172l97 -168l-258 -96l258 -99z" />
    <glyph glyph-name="plus" unicode="+" horiz-adv-x="935" 
d="M90 653v189h287v282h184v-282h287v-189h-287v-286h-184v286h-287z" />
    <glyph glyph-name="comma" unicode="," horiz-adv-x="419" 
d="M51 -240l78 418h209l-135 -418h-152z" />
    <glyph glyph-name="hyphen" unicode="-" horiz-adv-x="935" 
d="M90 422v190h758v-190h-758z" />
    <glyph glyph-name="period" unicode="." horiz-adv-x="419" 
d="M100 0v281h219v-281h-219z" />
    <glyph glyph-name="slash" unicode="/" horiz-adv-x="1017" 
d="M39 0l709 1495h235l-709 -1495h-235z" />
    <glyph glyph-name="zero" unicode="0" 
d="M1096 461q0 -221 -132 -351t-364 -130q-234 0 -362 131t-127 350v561q0 213 137 353q137 141 356 141t355 -140t137 -352v-563zM600 195q131 1 202 75t70 197v551q0 133 -69 209q-70 76 -200 76t-201 -78t-70 -207v-549q0 -127 68 -201q69 -73 200 -73z" />
    <glyph glyph-name="one" unicode="1" 
d="M90 0v213h399v911q-33 -46 -103 -76t-140 -30h-23v231h10q135 0 200 76t65 170h213v-1282h405v-213h-1026z" />
    <glyph glyph-name="two" unicode="2" 
d="M109 0v213q0 177 138 311q111 109 202 169t135 89t57 39q14 10 50 36t49 39t40 37t37 41q9 17 29 47t20 79q0 98 -70 160q-71 61 -196 61q-211 0 -319 -215l-193 98q72 144 204 228t306 84q223 0 359 -120t137 -298q0 -118 -86 -239q-76 -101 -336 -269
q-260 -167 -313 -269q-26 -50 -25 -108h770v-213h-995z" />
    <glyph glyph-name="three" unicode="3" 
d="M600 -20q-182 0 -310 60t-227 189l187 142q127 -188 350 -189q131 0 214 70t83 177t-80 172t-213 65h-172v206h170q129 0 201 64q71 64 71 162t-73 160q-74 62 -203 63q-221 0 -324 -176l-188 108q76 123 210 193t304 70q223 0 357 -114t135 -294q0 -225 -193 -334
q219 -106 219 -348q0 -194 -139 -320t-379 -126z" />
    <glyph glyph-name="four" unicode="4" 
d="M717 526v627l-398 -627h398zM717 0v324h-633v204l614 967h236v-969h186v-202h-186v-324h-217z" />
    <glyph glyph-name="five" unicode="5" 
d="M604 -20q-184 0 -318 76t-204 204l213 127q92 -201 311 -201q125 0 210 85t85 223t-87 223q-87 86 -216 86q-186 0 -289 -152l-207 92l111 752h829v-209h-649l-57 -366q119 86 282 86q216 0 362 -134t146 -370t-146 -379t-376 -143z" />
    <glyph glyph-name="six" unicode="6" 
d="M297 492q0 -126 89 -218t215 -92t216 91t90 219t-90 218q-90 91 -216 91t-215 -91t-89 -218zM1126 488q0 -220 -150 -364t-374 -144q-225 0 -374 146q-148 146 -148 352t110 368l414 649h264l-333 -514q61 14 108 14q205 0 344 -144q139 -143 139 -363z" />
    <glyph glyph-name="seven" unicode="7" 
d="M90 1282v213h1026v-192l-606 -1303h-238l605 1282h-787z" />
    <glyph glyph-name="eight" unicode="8" 
d="M604 883q131 0 202 61q71 62 71 158t-72 160t-198 63q-127 0 -199 -63q-72 -64 -72 -160t68 -158q69 -61 200 -61zM297 434q0 -110 80 -182q80 -74 224 -74t226 74t82 184t-80 184q-80 72 -224 72t-226 -74t-82 -184zM1122 448q0 -220 -139 -344t-384 -124t-380 124
t-135 344q0 221 207 347q-160 111 -160 302t130 305t343 114t345 -115t132 -303t-168 -303q209 -127 209 -347z" />
    <glyph glyph-name="nine" unicode="9" 
d="M297 1006q0 -126 91 -218t217 -92t215 91t89 219t-89 218q-89 91 -215 91t-217 -91t-91 -218zM561 500q-203 0 -342 144t-139 364t149 363q150 145 374 145t374 -146q149 -146 149 -352q0 -205 -112 -369l-412 -649h-264l332 512q-51 -12 -109 -12z" />
    <glyph glyph-name="colon" unicode=":" horiz-adv-x="417" 
d="M100 743v281h219v-281h-219zM100 0v281h219v-281h-219z" />
    <glyph glyph-name="semicolon" unicode=";" horiz-adv-x="419" 
d="M51 -240l78 418h209l-135 -418h-152zM100 743v281h219v-281h-219z" />
    <glyph glyph-name="less" unicode="&#x3c;" horiz-adv-x="935" 
d="M848 371l-758 282v189l758 278v-194l-526 -178l526 -183v-194z" />
    <glyph glyph-name="equal" unicode="=" horiz-adv-x="935" 
d="M90 481v189h758v-189h-758zM90 819v189h758v-189h-758z" />
    <glyph glyph-name="greater" unicode="&#x3e;" horiz-adv-x="935" 
d="M90 371v194l524 183l-524 178v194l758 -278v-189z" />
    <glyph glyph-name="question" unicode="?" horiz-adv-x="1087" 
d="M401 0v281h220v-281h-220zM412 387v21q0 233 89 340t181 178q93 71 92 188q0 90 -66 150q-67 59 -171 59q-178 0 -254 -182l-203 76q49 135 168 217q118 82 306 82t316 -112t129 -292q-1 -90 -29 -159t-71 -107t-94 -79q-51 -42 -94 -82t-72 -112t-29 -165v-21h-198z" />
    <glyph glyph-name="at" unicode="@" horiz-adv-x="1671" 
d="M803 336q80 0 133 57t62 138t-34 139q-44 57 -122 57t-138 -54t-67 -138q-10 -83 38 -141t128 -58zM836 -256q-317 0 -541 224q-223 224 -223 542t226 544t551 226t537 -207t213 -483q0 -182 -90 -305q-89 -123 -251 -123t-234 112q-86 -115 -262 -114q-137 0 -237 101
q-99 101 -81 272t128 267t244 97q134 0 208 -88l6 76h191l-41 -371q-18 -168 98 -168q63 0 100 67t37 175q0 204 -161 358q-162 154 -408 154t-416 -172t-170 -416t167 -416t414 -172t419 182l139 -116q-101 -110 -249 -178t-314 -68z" />
    <glyph glyph-name="A" unicode="A" horiz-adv-x="1425" 
d="M713 1188l-238 -656h475zM49 0l549 1495h229l549 -1495h-231l-117 319h-631l-114 -319h-234z" />
    <glyph glyph-name="B" unicode="B" horiz-adv-x="1230" 
d="M621 1292h-283v-420h291q129 0 195 58t65 157q-1 97 -69 151t-199 54zM645 666h-307v-461h317q131 0 206 62t75 169q0 230 -291 230zM115 0v1495h506q229 0 360 -109q131 -110 131 -308t-176 -296q223 -96 223 -350q0 -204 -136 -318t-368 -114h-540z" />
    <glyph glyph-name="C" unicode="C" horiz-adv-x="1558" 
d="M840 -20q-328 0 -548 223t-220 547t223 544t545 222q209 0 384 -102t277 -275l-194 -121q-72 133 -192 208t-275 74q-231 0 -388 -160t-157 -391t157 -391t386 -159q168 0 292 83t191 224l201 -107q-98 -193 -278 -306t-404 -113z" />
    <glyph glyph-name="D" unicode="D" horiz-adv-x="1384" 
d="M506 1290h-168v-1083h176q254 -1 414 153t160 392t-154 388t-428 150zM115 0v1495h413q356 0 570 -211q214 -210 215 -534q0 -324 -220 -537t-556 -213h-422z" />
    <glyph glyph-name="E" unicode="E" horiz-adv-x="1105" 
d="M115 0v1495h897v-211h-674v-428h674v-211h-674v-432h674v-213h-897z" />
    <glyph glyph-name="F" unicode="F" horiz-adv-x="1058" 
d="M115 0v1495h846v-211h-623v-428h623v-211h-623v-645h-223z" />
    <glyph glyph-name="G" unicode="G" horiz-adv-x="1660" 
d="M1589 739q-1 -317 -203 -538t-537 -221t-556 225t-221 546t220 543t554 222q219 0 396 -104t276 -282l-195 -116q-74 137 -196 213t-281 76q-240 0 -396 -162t-155 -393q0 -230 158 -392t380 -162t354 114t169 300h-537v211h770v-80z" />
    <glyph glyph-name="H" unicode="H" horiz-adv-x="1349" 
d="M1014 0v645h-676v-645h-223v1495h223v-637h676v637h221v-1495h-221z" />
    <glyph glyph-name="I" unicode="I" horiz-adv-x="481" 
d="M129 0v1495h223v-1495h-223z" />
    <glyph glyph-name="J" unicode="J" horiz-adv-x="995" 
d="M885 426q0 -210 -109 -328t-281 -118q-171 0 -285 76t-157 202l213 92q25 -74 79 -119t136 -45t132 62t51 164v1083h221v-1069z" />
    <glyph glyph-name="K" unicode="K" horiz-adv-x="1292" 
d="M338 0h-223v1495h223v-713l594 713h272l-491 -590l544 -905h-253l-449 752l-217 -260v-492z" />
    <glyph glyph-name="L" unicode="L" horiz-adv-x="1036" 
d="M115 0v1495h223v-1282h604v-213h-827z" />
    <glyph glyph-name="M" unicode="M" horiz-adv-x="1693" 
d="M115 0v1495h221l508 -702l524 702h211v-1495h-221v1139l-518 -699l-502 682v-1122h-223z" />
    <glyph glyph-name="N" unicode="N" horiz-adv-x="1460" 
d="M115 0v1495h252l757 -1130v1130h222v-1495h-236l-772 1149v-1149h-223z" />
    <glyph glyph-name="O" unicode="O" horiz-adv-x="1677" 
d="M295 748q0 -229 158 -390t386 -161q228 1 386 161q157 160 157 390t-157 391q-158 161 -386 161t-386 -162t-158 -390zM839 -20q-318 0 -543 225q-224 225 -224 543t224 542q224 226 542 226t543 -226t225 -542t-224 -542t-543 -226z" />
    <glyph glyph-name="P" unicode="P" horiz-adv-x="1226" 
d="M590 1290h-252v-637h252q152 0 243 90q91 89 91 227t-91 229t-243 91zM115 0v1495h491q236 -1 388 -151t153 -373q0 -223 -153 -374t-390 -151h-266v-446h-223z" />
    <glyph glyph-name="Q" unicode="Q" horiz-adv-x="1677" 
d="M295 748q0 -228 158 -390t385 -161q104 0 198 39l140 -177q-160 -80 -338 -79q-317 0 -542 225q-224 225 -224 543t224 542q224 226 542 226t543 -226t225 -525q0 -300 -193 -523l193 -242h-277l-547 694h269l219 -276q113 150 112 330q0 229 -157 391q-158 161 -386 161
t-386 -162t-158 -390z" />
    <glyph glyph-name="R" unicode="R" horiz-adv-x="1196" 
d="M115 0v1495h465q232 0 380 -139t148 -348q0 -156 -85 -281t-239 -172l357 -555h-256l-451 713h121q156 0 243 90t87 212q0 121 -84 197t-244 76h-219v-1288h-223z" />
    <glyph glyph-name="S" unicode="S" horiz-adv-x="1153" 
d="M584 -20q-346 0 -557 272l196 154q135 -217 359 -218q122 0 196 69t74 171q0 124 -145 188q-74 34 -170 64q-97 31 -145 49t-110 54t-99 77q-89 101 -89 261q0 159 137 277t342 118q293 0 484 -222l-183 -135q-102 160 -301 160q-113 0 -181 -58t-68 -142t63 -138
q23 -20 80 -46t169 -65t173 -66q61 -28 132 -78q142 -100 141 -289t-138 -323t-360 -134z" />
    <glyph glyph-name="T" unicode="T" horiz-adv-x="1214" 
d="M498 0v1286h-424v209h1069v-209h-424v-1286h-221z" />
    <glyph glyph-name="U" unicode="U" horiz-adv-x="1269" 
d="M1159 504q1 -238 -147 -381t-378 -143t-377 143q-146 143 -146 381v991h223v-1006q0 -125 86 -213t214 -88t216 88t88 213v1006h221v-991z" />
    <glyph glyph-name="V" unicode="V" horiz-adv-x="1368" 
d="M571 0l-522 1495h232l403 -1165l403 1165h232l-522 -1495h-226z" />
    <glyph glyph-name="W" unicode="W" horiz-adv-x="2140" 
d="M481 0l-430 1495h234l317 -1145l361 1145h217l358 -1147l326 1147h225l-440 -1495h-222l-358 1149l-360 -1149h-228z" />
    <glyph glyph-name="X" unicode="X" horiz-adv-x="1314" 
d="M1022 0l-365 573l-362 -573h-250l481 760l-460 735h249l344 -541l342 541h250l-463 -729l484 -766h-250z" />
    <glyph glyph-name="Y" unicode="Y" horiz-adv-x="1277" 
d="M528 0v709l-485 786h246l350 -573l352 573h246l-487 -788v-707h-222z" />
    <glyph glyph-name="Z" unicode="Z" horiz-adv-x="1183" 
d="M98 0v205l727 1079h-704v211h966v-203l-729 -1079h729v-213h-989z" />
    <glyph glyph-name="bracketleft" unicode="[" horiz-adv-x="737" 
d="M90 -471v1966h559v-211h-338v-1544h338v-211h-559z" />
    <glyph glyph-name="backslash" unicode="\" horiz-adv-x="1017" 
d="M748 0l-709 1495h235l709 -1495h-235z" />
    <glyph glyph-name="bracketright" unicode="]" horiz-adv-x="737" 
d="M90 -471v211h336v1544h-336v211h559v-1966h-559z" />
    <glyph glyph-name="asciicircum" unicode="^" horiz-adv-x="993" 
d="M174 1108l246 346h151l248 -346h-186l-137 197l-134 -197h-188z" />
    <glyph glyph-name="underscore" unicode="_" horiz-adv-x="1038" 
d="M90 -209v189h860v-189h-860z" />
    <glyph glyph-name="grave" unicode="`" horiz-adv-x="993" 
d="M545 1135l-303 340h233l238 -340h-168z" />
    <glyph glyph-name="a" unicode="a" horiz-adv-x="1245" 
d="M287 514q0 -140 93 -236q93 -98 231 -98q139 0 231 98t92 236q0 140 -92 236t-230 96t-232 -96q-93 -96 -93 -236zM580 -20q-205 0 -358 148q-152 148 -152 385t151 384q152 147 361 147q100 0 191 -40t149 -113v133h219v-1024h-219v141q-58 -77 -150 -119t-192 -42z" />
    <glyph glyph-name="b" unicode="b" horiz-adv-x="1239" 
d="M633 180q137 0 230 98t93 236q0 140 -93 236t-230 96t-229 -97t-93 -235q1 -138 93 -236t229 -98zM666 -20q-104 0 -196 42t-148 117v-139h-216v1495h218v-608q57 73 147 115t193 42q210 0 360 -147t150 -384t-152 -385t-356 -148z" />
    <glyph glyph-name="c" unicode="c" horiz-adv-x="1148" 
d="M604 -20q-225 0 -380 154q-154 154 -154 379q0 224 154 378q155 154 380 153q168 0 297 -86t189 -227l-197 -84q-39 90 -115 141t-174 52q-135 0 -227 -96t-92 -232q0 -137 93 -232t230 -96q100 0 176 56t113 145l199 -84q-62 -147 -190 -234t-302 -87z" />
    <glyph glyph-name="d" unicode="d" horiz-adv-x="1243" 
d="M287 514q0 -140 93 -236q93 -98 231 -98q139 0 231 98t92 236q0 140 -92 236t-230 96t-232 -96q-93 -96 -93 -236zM580 -20q-205 0 -358 148q-152 148 -152 385t151 384q152 147 361 147q100 0 191 -40t149 -113v604h217v-1495h-217v141q-58 -77 -150 -119t-192 -42z" />
    <glyph glyph-name="e" unicode="e" horiz-adv-x="1200" 
d="M605 852q-115 0 -199 -64t-115 -165h614q-25 111 -104 170q-80 59 -196 59zM610 -20q-240 0 -390 152t-150 376q0 225 153 381q154 155 380 155t376 -147t149 -375v-86h-847q23 -118 109 -190t204 -72q229 0 315 184l181 -100q-150 -278 -480 -278z" />
    <glyph glyph-name="f" unicode="f" horiz-adv-x="735" 
d="M59 827v197h174v53q-1 240 89 329t331 89h19v-203q-143 0 -180 -38t-37 -179v-51h217v-197h-217v-827h-222v827h-174z" />
    <glyph glyph-name="g" unicode="g" horiz-adv-x="1247" 
d="M287 514q0 -140 93 -236q93 -98 231 -98q139 0 231 98t92 236q0 140 -92 236t-230 96t-232 -96q-93 -96 -93 -236zM580 -20q-205 0 -358 148q-152 148 -152 385t151 384q152 147 361 147q100 0 190 -43t150 -116v139h219v-999q-1 -231 -139 -377t-377 -146
q-184 0 -316 79q-131 79 -192 210l202 96q84 -184 306 -184q137 0 218 89t81 224v129q-60 -77 -152 -121t-192 -44z" />
    <glyph glyph-name="h" unicode="h" horiz-adv-x="1157" 
d="M106 0v1495h218v-600q114 149 312 149t308 -118t111 -328v-598h-224v578q0 132 -62 204t-180 72t-191 -79t-72 -212v-563h-220z" />
    <glyph glyph-name="i" unicode="i" horiz-adv-x="430" 
d="M104 1165v287h222v-287h-222zM104 0v1024h222v-1024h-222z" />
    <glyph glyph-name="j" unicode="j" horiz-adv-x="430" 
d="M104 1165v287h222v-287h-222zM-115 -471v207q141 0 181 38q39 38 38 175v1075h222v-1077q0 -236 -88 -327t-320 -91h-33z" />
    <glyph glyph-name="k" unicode="k" horiz-adv-x="1103" 
d="M324 0h-218v1495h218v-979l460 508h265l-400 -438l410 -586h-246l-317 455l-172 -189v-266z" />
    <glyph glyph-name="l" unicode="l" horiz-adv-x="432" 
d="M106 0v1495h220v-1495h-220z" />
    <glyph glyph-name="m" unicode="m" horiz-adv-x="1832" 
d="M104 0v1024h218v-123q104 143 301 143q242 0 338 -184q115 184 333 184t328 -114t109 -316v-614h-224v600q0 118 -62 186q-61 68 -171 68t-179 -73t-69 -203v-578h-221v610q-1 112 -61 178t-172 66t-180 -74t-68 -211v-569h-220z" />
    <glyph glyph-name="n" unicode="n" horiz-adv-x="1155" 
d="M104 0v1024h218v-133q114 153 312 153t308 -118t111 -328v-598h-222v580q0 130 -63 202t-180 72t-191 -79t-73 -212v-563h-220z" />
    <glyph glyph-name="o" unicode="o" horiz-adv-x="1202" 
d="M600 184q131 0 223 96t92 232q0 135 -92 231q-92 97 -223 97t-222 -96t-91 -232t91 -232t222 -96zM600 -20q-221 0 -376 154t-154 378q0 223 154 378q155 154 376 154t377 -154t156 -378t-156 -378t-377 -154z" />
    <glyph glyph-name="p" unicode="p" horiz-adv-x="1239" 
d="M956 514q0 140 -93 236t-231 96t-230 -96t-93 -236q1 -140 93 -236q92 -98 230 -98t231 98t93 236zM664 1044q210 0 360 -147t150 -384t-152 -385t-369 -148q-216 0 -331 147v-598h-218v1495h218v-143q57 75 148 119t194 44z" />
    <glyph glyph-name="q" unicode="q" horiz-adv-x="1243" 
d="M287 514q0 -140 93 -236q93 -98 231 -98q139 0 231 98t92 236q0 140 -92 236t-230 96t-232 -96q-93 -96 -93 -236zM590 -20q-215 0 -368 148q-152 148 -152 385t151 384q152 147 361 147q100 0 190 -43t150 -116v139h217v-1495h-217v600q-117 -149 -332 -149z" />
    <glyph glyph-name="r" unicode="r" horiz-adv-x="798" 
d="M104 0v1024h220v-158q84 158 282 158h121v-209h-154q-133 0 -190 -73t-57 -234v-508h-222z" />
    <glyph glyph-name="s" unicode="s" horiz-adv-x="964" 
d="M678 305q0 76 -223 121q-16 4 -75 16t-130 44q-70 34 -100 64q-75 75 -75 194q1 120 111 212q111 92 285 91q283 0 412 -199l-183 -100q-76 117 -229 116q-84 0 -130 -36t-46 -75t17 -61q26 -34 228 -78q261 -57 325 -174q30 -55 30 -131q-1 -123 -107 -227t-307 -102
q-313 0 -448 237l196 102q88 -150 263 -149q88 0 137 39t49 96z" />
    <glyph glyph-name="t" unicode="t" horiz-adv-x="751" 
d="M61 827v197h175v242l221 120v-362h217v-197h-217v-407q0 -139 38 -176t179 -37v-207h-33q-233 0 -319 89t-86 329v409h-175z" />
    <glyph glyph-name="u" unicode="u" horiz-adv-x="1155" 
d="M521 -20q-199 0 -309 118t-110 330v596h224v-578q0 -130 63 -202t179 -72t190 79t73 210v563h220v-1024h-217v133q-113 -153 -313 -153z" />
    <glyph glyph-name="v" unicode="v" horiz-adv-x="1095" 
d="M440 0l-393 1024h232l272 -739l268 739h228l-388 -1024h-219z" />
    <glyph glyph-name="w" unicode="w" horiz-adv-x="1789" 
d="M403 0l-340 1026l224 -2l233 -727l268 727h218l264 -727l241 727h224l-357 -1024h-211l-272 731l-277 -731h-215z" />
    <glyph glyph-name="x" unicode="x" horiz-adv-x="1122" 
d="M37 0l391 520l-375 504h266l246 -338l248 338h260l-373 -504l396 -520h-269l-266 352l-256 -352h-268z" />
    <glyph glyph-name="y" unicode="y" horiz-adv-x="1138" 
d="M248 -473l219 526l-424 971h236l299 -711l282 711h232l-619 -1497h-225z" />
    <glyph glyph-name="z" unicode="z" horiz-adv-x="1071" 
d="M82 0v201l614 626h-600v197h885v-201l-614 -626h622v-197h-907z" />
    <glyph glyph-name="braceleft" unicode="{" horiz-adv-x="792" 
d="M725 -471h-23q-256 0 -353 96t-97 348v222q0 127 -35 169t-158 42v204q123 0 158 42t35 169v230q0 252 97 348t353 96h23v-203q-162 0 -208 -46t-46 -197v-230q0 -127 -34 -201t-113 -110q80 -37 114 -111t33 -200v-222q0 -151 46 -197t208 -46v-203z" />
    <glyph glyph-name="bar" unicode="|" horiz-adv-x="419" 
d="M100 -471v1966h222v-1966h-222z" />
    <glyph glyph-name="braceright" unicode="}" horiz-adv-x="792" 
d="M70 -471v205q160 0 206 45t48 196v222q0 125 32 201t113 110q-80 36 -113 110t-32 201v230q0 153 -48 197t-206 44v205h22q256 0 353 -96t98 -348v-230q0 -127 35 -169t157 -42v-204q-123 0 -157 -42t-35 -169v-222q1 -252 -97 -348t-354 -96h-22z" />
    <glyph glyph-name="asciitilde" unicode="~" horiz-adv-x="966" 
d="M612 1319q63 0 66 92h143q0 -119 -53 -189q-54 -70 -140 -69t-168 51t-118 49q-59 0 -61 -90h-146q1 117 57 188q105 134 308 19q82 -51 112 -51z" />
    <glyph glyph-name="exclamdown" unicode="&#xa1;" horiz-adv-x="458" 
d="M121 743v281h219v-281h-219zM121 -471v240q0 483 49 862h121q49 -379 49 -862v-240h-219z" />
    <glyph glyph-name="cent" unicode="&#xa2;" 
d="M518 -266v258q-194 40 -316 190t-122 350t124 348t314 187v260h221v-258q139 -25 246 -107q106 -83 158 -206l-197 -86q-41 96 -124 150t-187 54q-143 0 -241 -100t-99 -244q0 -144 99 -245q99 -100 245 -101q106 0 189 58t122 153l199 -84q-55 -129 -161 -214t-249 -109
v-254h-221z" />
    <glyph glyph-name="sterling" unicode="&#xa3;" 
d="M352 137q78 0 125 60q-84 70 -143 69q-31 0 -49 -18q-19 -18 -19 -47t24 -47t62 -17zM117 686v178h149q-55 115 -55 240q0 182 121 297t309 115q315 0 436 -263l-205 -92q-72 158 -231 158q-90 0 -147 -59q-58 -60 -58 -160t72 -236h430v-178h-332q86 -172 86 -332
q0 -59 -18 -116q80 -72 123 -72t57 24t14 84v177h228v-170q0 -164 -64 -233q-64 -68 -185 -68q-122 0 -251 110q-92 -113 -232 -113q-140 1 -214 63t-74 164t66 166q67 64 174 64t208 -67q-4 101 -73 215q-23 35 -74 104h-260z" />
    <glyph glyph-name="currency" unicode="&#xa4;" horiz-adv-x="1583" 
d="M800 414q132 0 224 96t92 231t-92 231t-224 97q-132 0 -222 -95q-90 -94 -90 -232t90 -233t222 -95zM798 209q-159 0 -292 88l-225 -234l-150 148l227 233q-88 133 -88 297t88 297l-231 246l152 146l231 -242q133 86 291 86t286 -84l220 225l149 -147l-217 -224
q92 -139 92 -307t-96 -303l219 -225l-149 -146l-222 226q-126 -80 -285 -80z" />
    <glyph glyph-name="yen" unicode="&#xa5;" 
d="M172 604v180h320v39l-431 672h250l293 -477l293 477h248l-430 -672v-39h317v-180h-317v-190h317v-181h-317v-233h-223v233h-320v181h320v190h-320z" />
    <glyph glyph-name="brokenbar" unicode="&#xa6;" horiz-adv-x="462" 
d="M100 -471v860h222v-860h-222zM100 635v860h222v-860h-222z" />
    <glyph glyph-name="section" unicode="&#xa7;" horiz-adv-x="1206" 
d="M911 705q0 59 -81 96t-216 67t-194 54q-59 -12 -94 -48t-35 -90q0 -52 79 -88q78 -36 232 -74q154 -37 184 -47q125 37 125 130zM602 162q106 0 167 34q60 34 60 94t-58 87t-137 44t-86 19l-20 5q-242 58 -349 127q-105 69 -105 194q0 82 51 148t133 98q-88 76 -88 204
t114 214q114 88 304 87t311 -86t148 -206l-211 -56q-12 80 -76 127t-166 47q-216 0 -215 -131q0 -67 88 -101t268 -76t287 -111q106 -70 106 -193q0 -81 -48 -145t-126 -94q90 -72 90 -202t-124 -221t-322 -90q-197 1 -329 95t-160 221l221 57q14 -84 90 -137t182 -53z" />
    <glyph glyph-name="dieresis" unicode="&#xa8;" horiz-adv-x="999" 
d="M221 1143v282h219v-282h-219zM551 1143v282h219v-282h-219z" />
    <glyph glyph-name="copyright" unicode="&#xa9;" horiz-adv-x="1673" 
d="M848 338q-178 0 -296 119t-118 291t119 292t295 119q119 0 216 -60t144 -155l-176 -90q-20 51 -69 85t-129 34t-146 -66q-66 -65 -66 -159t66 -160t146 -66t132 36t70 89l181 -76q-49 -101 -147 -167t-222 -66zM837 160q245 0 413 172t167 416q0 244 -168 416
q-169 172 -413 173q-244 0 -410 -172q-166 -171 -166 -417t166 -417t411 -171zM838 -20q-317 0 -542 225q-224 225 -224 543t224 542q224 226 542 226t541 -226q225 -226 225 -542t-224 -542t-542 -226z" />
    <glyph glyph-name="ordfeminine" unicode="&#xaa;" horiz-adv-x="790" 
d="M390 1358q-68 0 -112 -44t-44 -113t44 -115q45 -46 112 -46t110 47t43 114t-43 112t-110 45zM356 891q-108 0 -195 82t-87 226t88 226t196 82t179 -73v61h161v-592h-161v66q-73 -78 -181 -78z" />
    <glyph glyph-name="guillemotleft" unicode="&#xab;" horiz-adv-x="964" 
d="M852 221l-354 234v127l354 233v-153l-219 -144l219 -145v-152zM467 221l-354 234v127l354 233v-153l-219 -144l219 -145v-152z" />
    <glyph glyph-name="logicalnot" unicode="&#xac;" horiz-adv-x="1234" 
d="M942 365v491h-885v213h1106v-704h-221z" />
    <glyph glyph-name="uni00AD" unicode="&#xad;" horiz-adv-x="935" 
d="M90 422v190h758v-190h-758z" />
    <glyph glyph-name="registered" unicode="&#xae;" horiz-adv-x="776" 
d="M385 1272h-31v-66h31q55 0 55 33t-55 33zM254 1044v316h156q61 0 97 -33t36 -82q0 -74 -60 -100l66 -98q57 67 57 155t-63 154t-155 66t-155 -66t-63 -158t63 -158t155 -66t157 70h-103l-88 148v-148h-100zM389 881q-131 0 -224 93t-93 224t93 224q93 94 224 94t223 -94
t92 -224q0 -131 -92 -224t-223 -93z" />
    <glyph glyph-name="macron" unicode="&#xaf;" horiz-adv-x="993" 
d="M227 1135v157h541v-157h-541z" />
    <glyph glyph-name="degree" unicode="&#xb0;" horiz-adv-x="849" 
d="M426 1071q53 0 91 38t38 91t-38 91t-91 38t-91 -38t-38 -91t38 -91t91 -38zM426 887q-131 0 -223 92t-92 223t92 222q92 92 223 92t222 -92t91 -222q0 -131 -91 -223t-222 -92z" />
    <glyph glyph-name="plusminus" unicode="&#xb1;" horiz-adv-x="935" 
d="M90 250v188h758v-188h-758zM90 868v189h287v284h184v-284h287v-189h-287v-284h-184v284h-287z" />
    <glyph glyph-name="twosuperior" unicode="&#xb2;" horiz-adv-x="684" 
d="M49 631v153q0 74 39 138t82 97q44 35 138 93t115 88t21 62t-27 57q-28 25 -79 24q-94 0 -143 -116l-162 84q90 197 307 196q133 1 216 -71t83 -182t-69 -173t-143 -108t-99 -61t-52 -46q-27 -29 -28 -57h389v-178h-588z" />
    <glyph glyph-name="threesuperior" unicode="&#xb3;" horiz-adv-x="661" 
d="M319 618q-193 0 -296 117l149 125q57 -70 139 -69q51 -1 84 27t33 74t-39 71t-102 24h-88v170h86q59 0 93 27q34 26 34 68t-30 67t-81 24q-80 0 -125 -71l-143 106q96 129 272 129q135 1 217 -67t82 -178t-92 -181q113 -67 113 -189q1 -122 -83 -198t-223 -76z" />
    <glyph glyph-name="acute" unicode="&#xb4;" horiz-adv-x="993" 
d="M242 1135l237 340h234l-303 -340h-168z" />
    <glyph glyph-name="mu" unicode="&#xb5;" horiz-adv-x="1148" 
d="M100 -471v1495h224v-545q0 -143 66 -225t178 -82q114 0 188 79t73 210v563h220v-1024h-218v125q-109 -145 -296 -145q-117 0 -216 69v-520h-219z" />
    <glyph glyph-name="mu" unicode="&#x3bc;" horiz-adv-x="1148" 
d="M100 -471v1495h224v-545q0 -143 66 -225t178 -82q114 0 188 79t73 210v563h220v-1024h-218v125q-109 -145 -296 -145q-117 0 -216 69v-520h-219z" />
    <glyph glyph-name="paragraph" unicode="&#xb6;" horiz-adv-x="1294" 
d="M690 0v618h-186q-190 0 -318 127q-127 127 -127 311t127 312q127 127 316 127h694v-1495h-192v1290h-123v-1290h-191z" />
    <glyph glyph-name="periodcentered" unicode="&#xb7;" horiz-adv-x="419" 
d="M100 377v280h219v-280h-219z" />
    <glyph glyph-name="cedilla" unicode="&#xb8;" horiz-adv-x="993" 
d="M463 -485q-168 0 -295 116l141 86q89 -69 153 -69t101 20t37 51q0 66 -131 66h-94v215h153v-109q108 2 174 -44q66 -47 66 -129t-89 -142t-216 -61z" />
    <glyph glyph-name="onesuperior" unicode="&#xb9;" horiz-adv-x="606" 
d="M47 631v178h168v416q-43 -59 -135 -60h-12v187h6q78 0 112 43t35 100h185v-686h161v-178h-520z" />
    <glyph glyph-name="ordmasculine" unicode="&#xba;" horiz-adv-x="759" 
d="M381 1047q61 0 104 45q43 44 43 108t-42 109t-105 45t-107 -45t-43 -109t45 -108q44 -45 105 -45zM381 891q-127 0 -217 90t-90 218t90 218t217 90t216 -90t89 -218t-89 -218t-216 -90z" />
    <glyph glyph-name="guillemotright" unicode="&#xbb;" horiz-adv-x="964" 
d="M113 221v154l221 143l-221 146v153l354 -235v-125zM498 221v154l221 143l-221 146v153l354 -235v-125z" />
    <glyph glyph-name="onequarter" unicode="&#xbc;" horiz-adv-x="1703" 
d="M1352 350v232l-162 -232h162zM47 631v178h168v416q-43 -59 -135 -60h-12v187h6q78 0 112 43t35 100h185v-686h161v-178h-520zM1352 0v184h-361v170l357 510h184v-514h125v-166h-125v-184h-180zM199 0l1079 1495h256l-1079 -1495h-256z" />
    <glyph glyph-name="onehalf" unicode="&#xbd;" horiz-adv-x="1759" 
d="M47 631v178h168v416q-43 -59 -135 -60h-12v187h6q78 0 112 43t35 100h185v-686h161v-178h-520zM1118 0v154q0 74 39 137t82 97t137 92t116 88q21 30 21 63q1 33 -27 57t-79 25q-94 0 -143 -117l-162 84q90 197 307 197q133 0 216 -72t83 -182t-71 -174q-71 -65 -143 -109
q-72 -43 -97 -59t-51 -45t-29 -58h389v-178h-588zM199 0l1079 1495h256l-1079 -1495h-256z" />
    <glyph glyph-name="threequarters" unicode="&#xbe;" horiz-adv-x="1710" 
d="M1358 350v232l-162 -232h162zM319 618q-193 0 -296 117l149 125q57 -70 139 -69q51 -1 84 27t33 74t-39 71t-102 24h-88v170h86q59 0 93 27q34 26 34 68t-30 67t-81 24q-80 0 -125 -71l-143 106q96 129 272 129q135 1 217 -67t82 -178t-92 -181q113 -67 113 -189
q1 -122 -83 -198t-223 -76zM1358 0v184h-361v170l357 510h184v-514h125v-166h-125v-184h-180zM205 0l1079 1495h256l-1079 -1495h-256z" />
    <glyph glyph-name="questiondown" unicode="&#xbf;" horiz-adv-x="1087" 
d="M467 743v281h219v-281h-219zM534 -492q-188 0 -317 112t-129 292q0 90 29 159t71 107t94 79q52 42 95 82t72 112t28 165v21h199v-21q0 -200 -67 -304t-152 -170q-39 -30 -71 -60q-71 -68 -72 -165t66 -157t171 -59q178 0 254 182l203 -76q-49 -135 -168 -217
q-118 -82 -306 -82z" />
    <glyph glyph-name="Agrave" unicode="&#xc0;" horiz-adv-x="1425" 
d="M627 1606l-303 340h233l238 -340h-168zM713 1188l-238 -656h475zM49 0l549 1495h229l549 -1495h-231l-117 319h-631l-114 -319h-234z" />
    <glyph glyph-name="Aacute" unicode="&#xc1;" horiz-adv-x="1425" 
d="M618 1606l238 340h234l-304 -340h-168zM713 1188l-238 -656h475zM49 0l549 1495h229l549 -1495h-231l-117 319h-631l-114 -319h-234z" />
    <glyph glyph-name="Acircumflex" unicode="&#xc2;" horiz-adv-x="1425" 
d="M383 1606l244 340h153l244 -340h-186l-136 192l-131 -192h-188zM713 1188l-238 -656h475zM49 0l549 1495h229l549 -1495h-231l-117 319h-631l-114 -319h-234z" />
    <glyph glyph-name="Atilde" unicode="&#xc3;" horiz-adv-x="1425" 
d="M354 1606q0 118 58 190t140 72q83 0 173 -53q82 -53 117 -54q68 0 67 99h146q-1 -123 -55 -193t-156 -70q-70 1 -159 53t-122 52q-63 0 -63 -96h-146zM713 1188l-238 -656h475zM49 0l549 1495h229l549 -1495h-231l-117 319h-631l-114 -319h-234z" />
    <glyph glyph-name="Adieresis" unicode="&#xc4;" horiz-adv-x="1425" 
d="M434 1614v282h219v-282h-219zM764 1614v282h219v-282h-219zM713 1188l-238 -656h475zM49 0l549 1495h229l549 -1495h-231l-117 319h-631l-114 -319h-234z" />
    <glyph glyph-name="Aring" unicode="&#xc5;" horiz-adv-x="1425" 
d="M616 1591q0 -37 27 -63t64 -25q37 0 63 26q26 27 27 63q0 36 -27 64q-28 28 -64 28t-63 -28t-27 -65zM713 1188l-238 -656h475zM477 1582q0 105 67 173t163 68q95 0 163 -68t68 -168t-82 -172l520 -1415h-231l-117 319h-631l-114 -319h-234l516 1409q-88 68 -88 173z" />
    <glyph glyph-name="AE" unicode="&#xc6;" horiz-adv-x="2007" 
d="M821 1171l-301 -651h455zM1896 1495v-211h-876l104 -428h772v-211h-720l104 -432h616v-213h-796l-76 315h-598l-145 -315h-240l694 1495h1161z" />
    <glyph glyph-name="Ccedilla" unicode="&#xc7;" horiz-adv-x="1558" 
d="M829 -485q-168 0 -294 116l141 86q88 -69 152 -69t102 20q37 20 37 51q0 66 -131 66h-95v201q-293 35 -481 251q-188 217 -188 527t223 530t545 222q209 0 384 -102t277 -275l-194 -121q-72 133 -192 208t-275 74q-231 0 -388 -160t-157 -391t157 -391t386 -159
q168 0 292 83t191 224l201 -107q-92 -179 -257 -291t-370 -126v-91q109 2 175 -44q66 -47 65 -129q0 -82 -89 -143q-90 -60 -217 -60z" />
    <glyph glyph-name="Egrave" unicode="&#xc8;" horiz-adv-x="1105" 
d="M496 1606l-303 340h233l238 -340h-168zM115 0v1495h897v-211h-674v-428h674v-211h-674v-432h674v-213h-897z" />
    <glyph glyph-name="Eacute" unicode="&#xc9;" horiz-adv-x="1105" 
d="M446 1606l238 340h234l-304 -340h-168zM115 0v1495h897v-211h-674v-428h674v-211h-674v-432h674v-213h-897z" />
    <glyph glyph-name="Ecircumflex" unicode="&#xca;" horiz-adv-x="1105" 
d="M236 1606l243 340h154l244 -340h-187l-135 192l-131 -192h-188zM115 0v1495h897v-211h-674v-428h674v-211h-674v-432h674v-213h-897z" />
    <glyph glyph-name="Edieresis" unicode="&#xcb;" horiz-adv-x="1105" 
d="M623 1614v282h219v-282h-219zM293 1614v282h219v-282h-219zM115 0v1495h897v-211h-674v-428h674v-211h-674v-432h674v-213h-897z" />
    <glyph glyph-name="Igrave" unicode="&#xcc;" horiz-adv-x="481" 
d="M158 1606l-303 340h233l238 -340h-168zM129 0v1495h223v-1495h-223z" />
    <glyph glyph-name="Iacute" unicode="&#xcd;" horiz-adv-x="481" 
d="M152 1606l237 340h234l-304 -340h-167zM129 0v1495h223v-1495h-223z" />
    <glyph glyph-name="Icircumflex" unicode="&#xce;" horiz-adv-x="481" 
d="M-82 1606l244 340h153l244 -340h-186l-135 192l-132 -192h-188zM129 0v1495h223v-1495h-223z" />
    <glyph glyph-name="Idieresis" unicode="&#xcf;" horiz-adv-x="481" 
d="M129 0v1495h223v-1495h-223zM-78 1614v282h219v-282h-219zM340 1614v282h219v-282h-219z" />
    <glyph glyph-name="Eth" unicode="&#xd0;" horiz-adv-x="1460" 
d="M580 1290h-164v-440h385v-199h-385v-444h172q256 -1 417 153t161 392t-156 388t-430 150zM45 651v199h148v645h411q356 0 570 -211q214 -210 215 -534q-1 -324 -221 -537t-556 -213h-419v651h-148z" />
    <glyph glyph-name="Ntilde" unicode="&#xd1;" horiz-adv-x="1460" 
d="M375 1606q0 118 57 190q56 72 140 72t173 -53q82 -53 117 -54q68 0 68 99h145q0 -123 -54 -193t-157 -70q-70 1 -159 53t-121 52q-63 0 -64 -96h-145zM115 0v1495h252l757 -1130v1130h222v-1495h-236l-772 1149v-1149h-223z" />
    <glyph glyph-name="Ograve" unicode="&#xd2;" horiz-adv-x="1677" 
d="M752 1606l-303 340h233l238 -340h-168zM295 748q0 -229 158 -390t386 -161q228 1 386 161q157 160 157 390t-157 391q-158 161 -386 161t-386 -162t-158 -390zM839 -20q-318 0 -543 225q-224 225 -224 543t224 542q224 226 542 226t543 -226t225 -542t-224 -542
t-543 -226z" />
    <glyph glyph-name="Oacute" unicode="&#xd3;" horiz-adv-x="1677" 
d="M295 748q0 -229 158 -390t386 -161q228 1 386 161q157 160 157 390t-157 391q-158 161 -386 161t-386 -162t-158 -390zM839 -20q-318 0 -543 225q-224 225 -224 543t224 542q224 226 542 226t543 -226t225 -542t-224 -542t-543 -226zM739 1606l238 340h233l-303 -340
h-168z" />
    <glyph glyph-name="Ocircumflex" unicode="&#xd4;" horiz-adv-x="1677" 
d="M510 1606l244 340h153l244 -340h-186l-136 192l-131 -192h-188zM295 748q0 -229 158 -390t386 -161q228 1 386 161q157 160 157 390t-157 391q-158 161 -386 161t-386 -162t-158 -390zM839 -20q-318 0 -543 225q-224 225 -224 543t224 542q224 226 542 226t543 -226
t225 -542t-224 -542t-543 -226z" />
    <glyph glyph-name="Otilde" unicode="&#xd5;" horiz-adv-x="1677" 
d="M475 1606q0 118 57 190q56 72 140 72t174 -53q82 -53 117 -54q68 0 67 99h146q0 -123 -54 -193t-157 -70q-69 1 -159 53t-122 52q-63 0 -63 -96h-146zM295 748q0 -229 158 -390t386 -161q228 1 386 161q157 160 157 390t-157 391q-158 161 -386 161t-386 -162t-158 -390z
M839 -20q-318 0 -543 225q-224 225 -224 543t224 542q224 226 542 226t543 -226t225 -542t-224 -542t-543 -226z" />
    <glyph glyph-name="Odieresis" unicode="&#xd6;" horiz-adv-x="1677" 
d="M295 748q0 -229 158 -390t386 -161q228 1 386 161q157 160 157 390t-157 391q-158 161 -386 161t-386 -162t-158 -390zM839 -20q-318 0 -543 225q-224 225 -224 543t224 542q224 226 542 226t543 -226t225 -542t-224 -542t-543 -226zM555 1614v282h219v-282h-219z
M885 1614v282h219v-282h-219z" />
    <glyph glyph-name="multiply" unicode="&#xd7;" horiz-adv-x="935" 
d="M238 383l-132 131l232 231l-232 234l130 129l231 -234l233 234l131 -131l-233 -234l231 -229l-129 -129l-231 229z" />
    <glyph glyph-name="Oslash" unicode="&#xd8;" horiz-adv-x="1677" 
d="M838 197q229 1 387 161q157 160 157 376t-129 372l-669 -848q119 -61 254 -61zM295 758q0 -219 133 -375l670 850q-123 68 -260 67q-227 0 -385 -162t-158 -380zM72 750q0 316 224 540q224 225 542 226q207 0 395 -109l70 88h258l-170 -215q215 -221 215 -535
q0 -313 -224 -539t-544 -226q-211 0 -389 106l-68 -86h-256l166 209q-219 225 -219 541z" />
    <glyph glyph-name="Ugrave" unicode="&#xd9;" horiz-adv-x="1269" 
d="M563 1606l-303 340h234l237 -340h-168zM1159 504q1 -238 -147 -381t-378 -143t-377 143q-146 143 -146 381v991h223v-1006q0 -125 86 -213t214 -88t216 88t88 213v1006h221v-991z" />
    <glyph glyph-name="Uacute" unicode="&#xda;" horiz-adv-x="1269" 
d="M1159 504q1 -238 -147 -381t-378 -143t-377 143q-146 143 -146 381v991h223v-1006q0 -125 86 -213t214 -88t216 88t88 213v1006h221v-991zM528 1606l238 340h233l-303 -340h-168z" />
    <glyph glyph-name="Ucircumflex" unicode="&#xdb;" horiz-adv-x="1269" 
d="M309 1606l244 340h154l243 -340h-186l-135 192l-131 -192h-189zM1159 504q1 -238 -147 -381t-378 -143t-377 143q-146 143 -146 381v991h223v-1006q0 -125 86 -213t214 -88t216 88t88 213v1006h221v-991z" />
    <glyph glyph-name="Udieresis" unicode="&#xdc;" horiz-adv-x="1269" 
d="M1159 504q1 -238 -147 -381t-378 -143t-377 143q-146 143 -146 381v991h223v-1006q0 -125 86 -213t214 -88t216 88t88 213v1006h221v-991zM365 1614v282h219v-282h-219zM694 1614v282h219v-282h-219z" />
    <glyph glyph-name="Yacute" unicode="&#xdd;" horiz-adv-x="1277" 
d="M541 1606l237 340h234l-303 -340h-168zM528 0v709l-485 786h246l350 -573l352 573h246l-487 -788v-707h-222z" />
    <glyph glyph-name="Thorn" unicode="&#xde;" horiz-adv-x="1153" 
d="M596 1004h-258v-482h258q118 0 188 68t70 173t-70 173t-188 68zM115 0v1495h223v-285h272q205 0 336 -127t131 -319t-131 -320q-131 -127 -336 -127h-272v-317h-223z" />
    <glyph glyph-name="germandbls" unicode="&#xdf;" horiz-adv-x="1095" 
d="M-109 -471v207q133 0 174 43q40 43 39 172v1110q-4 197 112 317t316 119q200 0 319 -115q120 -115 120 -292q0 -106 -53 -188t-150 -122q116 -41 188 -134t72 -220q0 -195 -126 -320t-331 -124q-96 0 -151 24v199q39 -25 144 -25t172 71t67 173t-78 173t-207 71h-43v200
h43q104 0 171 64t67 158t-60 157t-160 63q-98 0 -160 -58q-62 -60 -63 -169v-1132q0 -236 -84 -329t-305 -93h-33z" />
    <glyph glyph-name="agrave" unicode="&#xe0;" horiz-adv-x="1245" 
d="M522 1135l-303 340h234l237 -340h-168zM287 514q0 -140 93 -236q93 -98 231 -98q139 0 231 98t92 236q0 140 -92 236t-230 96t-232 -96q-93 -96 -93 -236zM580 -20q-205 0 -358 148q-152 148 -152 385t151 384q152 147 361 147q100 0 191 -40t149 -113v133h219v-1024
h-219v141q-58 -77 -150 -119t-192 -42z" />
    <glyph glyph-name="aacute" unicode="&#xe1;" horiz-adv-x="1245" 
d="M479 1135l238 340h233l-303 -340h-168zM287 514q0 -140 93 -236q93 -98 231 -98q139 0 231 98t92 236q0 140 -92 236t-230 96t-232 -96q-93 -96 -93 -236zM580 -20q-205 0 -358 148q-152 148 -152 385t151 384q152 147 361 147q100 0 191 -40t149 -113v133h219v-1024
h-219v141q-58 -77 -150 -119t-192 -42z" />
    <glyph glyph-name="acircumflex" unicode="&#xe2;" horiz-adv-x="1245" 
d="M326 1135l243 340h154l244 -340h-187l-135 192l-131 -192h-188zM287 514q0 -140 93 -236q93 -98 231 -98q139 0 231 98t92 236q0 140 -92 236t-230 96t-232 -96q-93 -96 -93 -236zM580 -20q-205 0 -358 148q-152 148 -152 385t151 384q152 147 361 147q100 0 191 -40
t149 -113v133h219v-1024h-219v141q-58 -77 -150 -119t-192 -42z" />
    <glyph glyph-name="atilde" unicode="&#xe3;" horiz-adv-x="1245" 
d="M283 1135q0 119 57 191q56 72 140 71q84 1 170 -53t120 -54q68 0 68 99h145q0 -123 -54 -193t-157 -70q-70 0 -159 52t-121 53q-63 0 -64 -96h-145zM287 514q0 -140 93 -236q93 -98 231 -98q139 0 231 98t92 236q0 140 -92 236t-230 96t-232 -96q-93 -96 -93 -236z
M580 -20q-205 0 -358 148q-152 148 -152 385t151 384q152 147 361 147q100 0 191 -40t149 -113v133h219v-1024h-219v141q-58 -77 -150 -119t-192 -42z" />
    <glyph glyph-name="adieresis" unicode="&#xe4;" horiz-adv-x="1245" 
d="M362 1143v282h220v-282h-220zM692 1143v282h219v-282h-219zM287 514q0 -140 93 -236q93 -98 231 -98q139 0 231 98t92 236q0 140 -92 236t-230 96t-232 -96q-93 -96 -93 -236zM580 -20q-205 0 -358 148q-152 148 -152 385t151 384q152 147 361 147q100 0 191 -40
t149 -113v133h219v-1024h-219v141q-58 -77 -150 -119t-192 -42z" />
    <glyph glyph-name="aring" unicode="&#xe5;" horiz-adv-x="1245" 
d="M604 1442q-38 0 -64 -28t-26 -64t26 -62t64 -26q37 0 64 26t26 62q0 36 -26 64t-64 28zM604 1120q-96 0 -163 68t-67 163t68 163q66 68 162 67q96 0 164 -68q68 -67 68 -163t-68 -163t-164 -67zM287 514q0 -140 93 -236q93 -98 231 -98q139 0 231 98t92 236
q0 140 -92 236t-230 96t-232 -96q-93 -96 -93 -236zM580 -20q-205 0 -358 148q-152 148 -152 385t151 384q152 147 361 147q100 0 191 -40t149 -113v133h219v-1024h-219v141q-58 -77 -150 -119t-192 -42z" />
    <glyph glyph-name="ae" unicode="&#xe6;" horiz-adv-x="1888" 
d="M1293 852q-113 0 -195 -61t-115 -164h612q-27 106 -107 166q-81 59 -195 59zM446 162q121 0 213 82t107 159v97q0 10 -2 18t-2 10q-20 -47 -248 -96q-121 -26 -175 -60t-54 -100q-1 -110 161 -110zM1300 -20q-293 0 -444 219q-53 -95 -166 -157q-112 -62 -276 -62
t-255 78t-92 210q-1 133 89 207t254 115q223 50 255 66q31 16 53 28q40 22 40 70q0 49 -54 84q-54 34 -166 34t-179 -57t-66 -147v-6h-201v4q0 176 120 277t331 101q268 0 370 -155q152 155 378 155t376 -148t150 -376v-78h-848q20 -120 109 -194q88 -74 206 -74t199 52
q80 52 121 139l184 -82q-66 -141 -194 -222t-294 -81z" />
    <glyph glyph-name="ccedilla" unicode="&#xe7;" horiz-adv-x="1148" 
d="M610 -485q-168 0 -295 116l142 86q89 -69 153 -69t101 20t37 51q0 66 -132 66h-94v201q-196 29 -324 177t-128 361t154 367q155 154 380 153q168 0 297 -86t189 -227l-197 -84q-39 90 -115 141t-174 52q-135 0 -227 -96t-92 -232q0 -137 93 -232t230 -96q100 0 176 56
t113 145l199 -84q-57 -131 -166 -216t-254 -101v-93q108 2 174 -44q66 -47 66 -129t-90 -142q-89 -60 -216 -61z" />
    <glyph glyph-name="egrave" unicode="&#xe8;" horiz-adv-x="1200" 
d="M537 1135l-304 340h234l238 -340h-168zM605 852q-115 0 -199 -64t-115 -165h614q-25 111 -104 170q-80 59 -196 59zM610 -20q-240 0 -390 152t-150 376q0 225 153 381q154 155 380 155t376 -147t149 -375v-86h-847q23 -118 109 -190t204 -72q229 0 315 184l181 -100
q-150 -278 -480 -278z" />
    <glyph glyph-name="eacute" unicode="&#xe9;" horiz-adv-x="1200" 
d="M494 1135l237 340h234l-303 -340h-168zM605 852q-115 0 -199 -64t-115 -165h614q-25 111 -104 170q-80 59 -196 59zM610 -20q-240 0 -390 152t-150 376q0 225 153 381q154 155 380 155t376 -147t149 -375v-86h-847q23 -118 109 -190t204 -72q229 0 315 184l181 -100
q-150 -278 -480 -278z" />
    <glyph glyph-name="ecircumflex" unicode="&#xea;" horiz-adv-x="1200" 
d="M605 852q-115 0 -199 -64t-115 -165h614q-25 111 -104 170q-80 59 -196 59zM276 1135l244 340h154l244 -340h-187l-135 192l-131 -192h-189zM610 -20q-240 0 -390 152t-150 376q0 225 153 381q154 155 380 155t376 -147t149 -375v-86h-847q23 -118 109 -190t204 -72
q229 0 315 184l181 -100q-150 -278 -480 -278z" />
    <glyph glyph-name="edieresis" unicode="&#xeb;" horiz-adv-x="1200" 
d="M659 1143v282h220v-282h-220zM330 1143v282h219v-282h-219zM605 852q-115 0 -199 -64t-115 -165h614q-25 111 -104 170q-80 59 -196 59zM610 -20q-240 0 -390 152t-150 376q0 225 153 381q154 155 380 155t376 -147t149 -375v-86h-847q23 -118 109 -190t204 -72
q229 0 315 184l181 -100q-150 -278 -480 -278z" />
    <glyph glyph-name="igrave" unicode="&#xec;" horiz-adv-x="430" 
d="M156 1135l-303 340h233l238 -340h-168zM104 0v1024h222v-1024h-222z" />
    <glyph glyph-name="iacute" unicode="&#xed;" horiz-adv-x="430" 
d="M104 0v1024h222v-1024h-222zM111 1135l237 340h234l-303 -340h-168z" />
    <glyph glyph-name="icircumflex" unicode="&#xee;" horiz-adv-x="430" 
d="M-106 1135l243 340h154l244 -340h-187l-135 192l-131 -192h-188zM104 0v1024h222v-1024h-222z" />
    <glyph glyph-name="idieresis" unicode="&#xef;" horiz-adv-x="430" 
d="M104 0v1024h222v-1024h-222zM-111 1143v282h222v-282h-222zM319 1143v282h220v-282h-220z" />
    <glyph glyph-name="eth" unicode="&#xf0;" horiz-adv-x="1193" 
d="M596 190q125 0 215 92t90 219q0 128 -88 219t-215 91t-217 -90t-90 -220q0 -131 90 -221t215 -90zM1116 508q0 -221 -150 -373q-150 -151 -369 -151q-218 0 -371 148q-152 148 -152 366t143 363q143 144 352 145q137 0 228 -64q-76 119 -203 236l-121 -103h-209l230 191
q-125 106 -304 229h318q35 -29 129 -109l131 109h207l-240 -201q381 -379 381 -786z" />
    <glyph glyph-name="ntilde" unicode="&#xf1;" horiz-adv-x="1155" 
d="M219 1135q0 119 57 191q56 72 140 71q84 1 170 -53t121 -54q68 0 67 99h146q0 -123 -54 -193t-157 -70q-69 0 -159 52t-122 53q-63 0 -63 -96h-146zM104 0v1024h218v-133q114 153 312 153t308 -118t111 -328v-598h-222v580q0 130 -63 202t-180 72t-191 -79t-73 -212v-563
h-220z" />
    <glyph glyph-name="ograve" unicode="&#xf2;" horiz-adv-x="1202" 
d="M526 1135l-303 340h234l237 -340h-168zM600 184q131 0 223 96t92 232q0 135 -92 231q-92 97 -223 97t-222 -96t-91 -232t91 -232t222 -96zM600 -20q-221 0 -376 154t-154 378q0 223 154 378q155 154 376 154t377 -154t156 -378t-156 -378t-377 -154z" />
    <glyph glyph-name="oacute" unicode="&#xf3;" horiz-adv-x="1202" 
d="M600 184q131 0 223 96t92 232q0 135 -92 231q-92 97 -223 97t-222 -96t-91 -232t91 -232t222 -96zM600 -20q-221 0 -376 154t-154 378q0 223 154 378q155 154 376 154t377 -154t156 -378t-156 -378t-377 -154zM500 1135l237 340h234l-303 -340h-168z" />
    <glyph glyph-name="ocircumflex" unicode="&#xf4;" horiz-adv-x="1202" 
d="M279 1135l243 340h154l244 -340h-187l-135 192l-131 -192h-188zM600 184q131 0 223 96t92 232q0 135 -92 231q-92 97 -223 97t-222 -96t-91 -232t91 -232t222 -96zM600 -20q-221 0 -376 154t-154 378q0 223 154 378q155 154 376 154t377 -154t156 -378t-156 -378
t-377 -154z" />
    <glyph glyph-name="otilde" unicode="&#xf5;" horiz-adv-x="1202" 
d="M258 1135q0 119 57 191t141 71q84 1 169 -53q86 -54 120 -54q68 0 68 99h145q0 -123 -54 -193t-156 -70q-70 0 -160 52t-121 53q-63 0 -64 -96h-145zM600 184q131 0 223 96t92 232q0 135 -92 231q-92 97 -223 97t-222 -96t-91 -232t91 -232t222 -96zM600 -20
q-221 0 -376 154t-154 378q0 223 154 378q155 154 376 154t377 -154t156 -378t-156 -378t-377 -154z" />
    <glyph glyph-name="odieresis" unicode="&#xf6;" horiz-adv-x="1202" 
d="M600 184q131 0 223 96t92 232q0 135 -92 231q-92 97 -223 97t-222 -96t-91 -232t91 -232t222 -96zM600 -20q-221 0 -376 154t-154 378q0 223 154 378q155 154 376 154t377 -154t156 -378t-156 -378t-377 -154zM330 1143v282h219v-282h-219zM659 1143v282h220v-282h-220z
" />
    <glyph glyph-name="divide" unicode="&#xf7;" horiz-adv-x="935" 
d="M377 317v242h186v-242h-186zM377 934v242h186v-242h-186zM90 653v189h758v-189h-758z" />
    <glyph glyph-name="oslash" unicode="&#xf8;" horiz-adv-x="1202" 
d="M600 840q-133 0 -224 -96t-91 -216t53 -202l385 489q-55 25 -123 25zM600 184q133 0 225 96q93 96 93 218q0 120 -58 202l-385 -491q55 -25 125 -25zM600 -20q-139 0 -256 63l-35 -43h-227l123 156q-135 152 -135 366t154 368q155 155 376 154q137 0 254 -63l35 43h227
l-121 -154q137 -154 137 -368t-155 -368q-156 -154 -377 -154z" />
    <glyph glyph-name="ugrave" unicode="&#xf9;" horiz-adv-x="1155" 
d="M502 1135l-303 340h233l238 -340h-168zM521 -20q-199 0 -309 118t-110 330v596h224v-578q0 -130 63 -202t179 -72t190 79t73 210v563h220v-1024h-217v133q-113 -153 -313 -153z" />
    <glyph glyph-name="uacute" unicode="&#xfa;" horiz-adv-x="1155" 
d="M473 1135l238 340h233l-303 -340h-168zM521 -20q-199 0 -309 118t-110 330v596h224v-578q0 -130 63 -202t179 -72t190 79t73 210v563h220v-1024h-217v133q-113 -153 -313 -153z" />
    <glyph glyph-name="ucircumflex" unicode="&#xfb;" horiz-adv-x="1155" 
d="M250 1135l244 340h153l244 -340h-186l-136 192l-131 -192h-188zM521 -20q-199 0 -309 118t-110 330v596h224v-578q0 -130 63 -202t179 -72t190 79t73 210v563h220v-1024h-217v133q-113 -153 -313 -153z" />
    <glyph glyph-name="udieresis" unicode="&#xfc;" horiz-adv-x="1155" 
d="M631 1143v282h219v-282h-219zM301 1143v282h219v-282h-219zM521 -20q-199 0 -309 118t-110 330v596h224v-578q0 -130 63 -202t179 -72t190 79t73 210v563h220v-1024h-217v133q-113 -153 -313 -153z" />
    <glyph glyph-name="yacute" unicode="&#xfd;" horiz-adv-x="1138" 
d="M471 1135l238 340h233l-303 -340h-168zM248 -473l219 526l-424 971h236l299 -711l282 711h232l-619 -1497h-225z" />
    <glyph glyph-name="thorn" unicode="&#xfe;" horiz-adv-x="1236" 
d="M638 180q136 0 228 98t92 238q0 138 -91 234t-229 96t-231 -97t-93 -235t94 -236t230 -98zM660 -20q-213 0 -338 165v-616h-216v1966h216v-616q127 165 341 165t361 -145t147 -383t-149 -387t-362 -149z" />
    <glyph glyph-name="ydieresis" unicode="&#xff;" horiz-adv-x="1138" 
d="M631 1143v282h219v-282h-219zM301 1143v282h219v-282h-219zM248 -473l219 526l-424 971h236l299 -711l282 711h232l-619 -1497h-225z" />
    <glyph glyph-name="Amacron" unicode="&#x100;" horiz-adv-x="1425" 
d="M438 1606v157h541v-157h-541zM713 1188l-238 -656h475zM49 0l549 1495h229l549 -1495h-231l-117 319h-631l-114 -319h-234z" />
    <glyph glyph-name="amacron" unicode="&#x101;" horiz-adv-x="1245" 
d="M381 1135v157h541v-157h-541zM287 514q0 -140 93 -236q93 -98 231 -98q139 0 231 98t92 236q0 140 -92 236t-230 96t-232 -96q-93 -96 -93 -236zM580 -20q-205 0 -358 148q-152 148 -152 385t151 384q152 147 361 147q100 0 191 -40t149 -113v133h219v-1024h-219v141
q-58 -77 -150 -119t-192 -42z" />
    <glyph glyph-name="Abreve" unicode="&#x102;" horiz-adv-x="1425" 
d="M1036 1937q0 -145 -90 -243t-247 -97q-156 1 -240 95t-84 245h155q0 -201 175 -204q84 2 129 55t45 149h157zM713 1188l-238 -656h475zM49 0l549 1495h229l549 -1495h-231l-117 319h-631l-114 -319h-234z" />
    <glyph glyph-name="abreve" unicode="&#x103;" horiz-adv-x="1245" 
d="M954 1464q0 -144 -90 -242t-247 -98q-156 0 -240 94t-84 246h156q0 -201 174 -204q84 2 129 55t45 149h157zM287 514q0 -140 93 -236q93 -98 231 -98q139 0 231 98t92 236q0 140 -92 236t-230 96t-232 -96q-93 -96 -93 -236zM580 -20q-205 0 -358 148q-152 148 -152 385
t151 384q152 147 361 147q100 0 191 -40t149 -113v133h219v-1024h-219v141q-58 -77 -150 -119t-192 -42z" />
    <glyph glyph-name="Aogonek" unicode="&#x104;" horiz-adv-x="1425" 
d="M713 1188l-238 -656h475zM1228 -455q-138 -1 -218 61t-80 154q0 143 205 267l-107 292h-631l-114 -319h-234l549 1495h229l549 -1495h-6l4 -2q-164 -102 -212 -144t-48 -85q0 -72 100 -72q61 0 138 63l145 -98q-131 -117 -269 -117z" />
    <glyph glyph-name="aogonek" unicode="&#x105;" horiz-adv-x="1245" 
d="M287 514q0 -140 93 -236q93 -98 231 -98q139 0 231 98t92 236q0 140 -92 236t-230 96t-232 -96q-93 -96 -93 -236zM580 -20q-205 0 -358 148q-152 148 -152 385t151 384q152 147 361 147q100 0 191 -40t149 -113v133h219v-1024h-6q-188 -131 -189 -221q0 -37 25 -60
t73 -23t107 60l127 -112q-117 -102 -243 -102q-125 0 -195 64q-70 65 -72 158q-2 135 154 261v116q-58 -77 -150 -119t-192 -42z" />
    <glyph glyph-name="Cacute" unicode="&#x106;" horiz-adv-x="1558" 
d="M840 -20q-328 0 -548 223t-220 547t223 544t545 222q209 0 384 -102t277 -275l-194 -121q-72 133 -192 208t-275 74q-231 0 -388 -160t-157 -391t157 -391t386 -159q168 0 292 83t191 224l201 -107q-98 -193 -278 -306t-404 -113zM745 1606l238 340h234l-304 -340h-168z
" />
    <glyph glyph-name="cacute" unicode="&#x107;" horiz-adv-x="1148" 
d="M604 -20q-225 0 -380 154q-154 154 -154 379q0 224 154 378q155 154 380 153q168 0 297 -86t189 -227l-197 -84q-39 90 -115 141t-174 52q-135 0 -227 -96t-92 -232q0 -137 93 -232t230 -96q100 0 176 56t113 145l199 -84q-62 -147 -190 -234t-302 -87zM502 1135l237 340
h234l-303 -340h-168z" />
    <glyph glyph-name="Ccircumflex" unicode="&#x108;" horiz-adv-x="1558" 
d="M522 1606l244 340h154l243 -340h-186l-135 192l-131 -192h-189zM840 -20q-328 0 -548 223t-220 547t223 544t545 222q209 0 384 -102t277 -275l-194 -121q-72 133 -192 208t-275 74q-231 0 -388 -160t-157 -391t157 -391t386 -159q168 0 292 83t191 224l201 -107
q-98 -193 -278 -306t-404 -113z" />
    <glyph glyph-name="ccircumflex" unicode="&#x109;" horiz-adv-x="1148" 
d="M283 1135l243 340h154l244 -340h-187l-135 192l-131 -192h-188zM604 -20q-225 0 -380 154q-154 154 -154 379q0 224 154 378q155 154 380 153q168 0 297 -86t189 -227l-197 -84q-39 90 -115 141t-174 52q-135 0 -227 -96t-92 -232q0 -137 93 -232t230 -96q100 0 176 56
t113 145l199 -84q-62 -147 -190 -234t-302 -87z" />
    <glyph glyph-name="Cdotaccent" unicode="&#x10a;" horiz-adv-x="1558" 
d="M745 1614v282h220v-282h-220zM840 -20q-328 0 -548 223t-220 547t223 544t545 222q209 0 384 -102t277 -275l-194 -121q-72 133 -192 208t-275 74q-231 0 -388 -160t-157 -391t157 -391t386 -159q168 0 292 83t191 224l201 -107q-98 -193 -278 -306t-404 -113z" />
    <glyph glyph-name="cdotaccent" unicode="&#x10b;" horiz-adv-x="1148" 
d="M496 1143v282h219v-282h-219zM604 -20q-225 0 -380 154q-154 154 -154 379q0 224 154 378q155 154 380 153q168 0 297 -86t189 -227l-197 -84q-39 90 -115 141t-174 52q-135 0 -227 -96t-92 -232q0 -137 93 -232t230 -96q100 0 176 56t113 145l199 -84
q-62 -147 -190 -234t-302 -87z" />
    <glyph glyph-name="Ccaron" unicode="&#x10c;" horiz-adv-x="1558" 
d="M760 1606l-244 340h189l131 -193l135 193h186l-244 -340h-153zM840 -20q-328 0 -548 223t-220 547t223 544t545 222q209 0 384 -102t277 -275l-194 -121q-72 133 -192 208t-275 74q-231 0 -388 -160t-157 -391t157 -391t386 -159q168 0 292 83t191 224l201 -107
q-98 -193 -278 -306t-404 -113z" />
    <glyph glyph-name="ccaron" unicode="&#x10d;" horiz-adv-x="1148" 
d="M524 1135l-243 340h188l131 -193l135 193h187l-244 -340h-154zM604 -20q-225 0 -380 154q-154 154 -154 379q0 224 154 378q155 154 380 153q168 0 297 -86t189 -227l-197 -84q-39 90 -115 141t-174 52q-135 0 -227 -96t-92 -232q0 -137 93 -232t230 -96q100 0 176 56
t113 145l199 -84q-62 -147 -190 -234t-302 -87z" />
    <glyph glyph-name="Dcaron" unicode="&#x10e;" horiz-adv-x="1384" 
d="M496 1606l-244 340h188l131 -193l136 193h186l-244 -340h-153zM506 1290h-168v-1083h176q254 -1 414 153t160 392t-154 388t-428 150zM115 0v1495h413q356 0 570 -211q214 -210 215 -534q0 -324 -220 -537t-556 -213h-422z" />
    <glyph glyph-name="dcaron" unicode="&#x10f;" horiz-adv-x="1355" 
d="M1249 1133l66 362h186l-110 -362h-142zM287 514q0 -140 93 -236q93 -98 231 -98q139 0 231 98t92 236q0 140 -92 236t-230 96t-232 -96q-93 -96 -93 -236zM580 -20q-205 0 -358 148q-152 148 -152 385t151 384q152 147 361 147q100 0 191 -40t149 -113v604h217v-1495
h-217v141q-58 -77 -150 -119t-192 -42z" />
    <glyph glyph-name="Dcroat" unicode="&#x110;" horiz-adv-x="1460" 
d="M580 1290h-164v-440h385v-199h-385v-444h172q256 -1 417 153t161 392t-156 388t-430 150zM45 651v199h148v645h411q356 0 570 -211q214 -210 215 -534q-1 -324 -221 -537t-556 -213h-419v651h-148z" />
    <glyph glyph-name="dcroat" unicode="&#x111;" horiz-adv-x="1263" 
d="M287 514q0 -140 93 -236q93 -98 231 -98q139 0 231 98t92 236q0 140 -92 236t-230 96t-232 -96q-93 -96 -93 -236zM782 1151v160h140v184h217v-184h123v-160h-123v-1151h-217v141q-58 -77 -150 -119t-192 -42q-205 0 -358 148q-152 148 -152 385t151 384q152 147 361 147
q100 0 191 -40t149 -113v260h-140z" />
    <glyph glyph-name="Emacron" unicode="&#x112;" horiz-adv-x="1105" 
d="M287 1606v157h540v-157h-540zM115 0v1495h897v-211h-674v-428h674v-211h-674v-432h674v-213h-897z" />
    <glyph glyph-name="emacron" unicode="&#x113;" horiz-adv-x="1200" 
d="M334 1135v157h540v-157h-540zM605 852q-115 0 -199 -64t-115 -165h614q-25 111 -104 170q-80 59 -196 59zM610 -20q-240 0 -390 152t-150 376q0 225 153 381q154 155 380 155t376 -147t149 -375v-86h-847q23 -118 109 -190t204 -72q229 0 315 184l181 -100
q-150 -278 -480 -278z" />
    <glyph glyph-name="Ebreve" unicode="&#x114;" horiz-adv-x="1105" 
d="M895 1937q0 -145 -91 -243t-247 -97t-240 95t-84 245h156q0 -201 174 -204q84 2 129 55t45 149h158zM115 0v1495h897v-211h-674v-428h674v-211h-674v-432h674v-213h-897z" />
    <glyph glyph-name="ebreve" unicode="&#x115;" horiz-adv-x="1200" 
d="M605 852q-115 0 -199 -64t-115 -165h614q-25 111 -104 170q-80 59 -196 59zM936 1464q0 -144 -91 -242t-247 -98t-240 94t-84 246h156q0 -201 174 -204q84 2 129 55t45 149h158zM610 -20q-240 0 -390 152t-150 376q0 225 153 381q154 155 380 155t376 -147t149 -375v-86
h-847q23 -118 109 -190t204 -72q229 0 315 184l181 -100q-150 -278 -480 -278z" />
    <glyph glyph-name="Edotaccent" unicode="&#x116;" horiz-adv-x="1105" 
d="M481 1614v282h219v-282h-219zM115 0v1495h897v-211h-674v-428h674v-211h-674v-432h674v-213h-897z" />
    <glyph glyph-name="edotaccent" unicode="&#x117;" horiz-adv-x="1200" 
d="M500 1143v282h219v-282h-219zM605 852q-115 0 -199 -64t-115 -165h614q-25 111 -104 170q-80 59 -196 59zM610 -20q-240 0 -390 152t-150 376q0 225 153 381q154 155 380 155t376 -147t149 -375v-86h-847q23 -118 109 -190t204 -72q229 0 315 184l181 -100
q-150 -278 -480 -278z" />
    <glyph glyph-name="Eogonek" unicode="&#x118;" horiz-adv-x="1105" 
d="M115 0v1495h897v-211h-674v-428h674v-211h-674v-432h674v-213h-4l4 -2q-164 -102 -212 -144t-48 -85q0 -72 100 -72q61 0 137 63l146 -98q-131 -117 -269 -117q-138 -1 -219 61q-80 62 -80 154q0 131 162 240h-614z" />
    <glyph glyph-name="eogonek" unicode="&#x119;" horiz-adv-x="1200" 
d="M605 852q-115 0 -199 -64t-115 -165h614q-25 111 -104 170q-80 59 -196 59zM648 -444q-138 0 -218 61t-80 154q0 121 137 221q-190 39 -304 180q-113 141 -113 351t153 366q154 155 380 155t376 -147t149 -375v-86h-847q23 -118 109 -190t204 -72q229 0 315 184l181 -100
q-104 -190 -302 -254q-160 -98 -206 -140t-47 -85q0 -72 100 -72q61 0 137 64l146 -99q-132 -116 -270 -116z" />
    <glyph glyph-name="Ecaron" unicode="&#x11a;" horiz-adv-x="1107" 
d="M477 1606l-244 340h189l131 -193l135 193h186l-243 -340h-154zM115 0v1495h897v-211h-674v-428h674v-211h-674v-432h674v-213h-897z" />
    <glyph glyph-name="ecaron" unicode="&#x11b;" horiz-adv-x="1200" 
d="M605 852q-115 0 -199 -64t-115 -165h614q-25 111 -104 170q-80 59 -196 59zM530 1135l-243 340h188l131 -193l135 193h187l-244 -340h-154zM610 -20q-240 0 -390 152t-150 376q0 225 153 381q154 155 380 155t376 -147t149 -375v-86h-847q23 -118 109 -190t204 -72
q229 0 315 184l181 -100q-150 -278 -480 -278z" />
    <glyph glyph-name="Gcircumflex" unicode="&#x11c;" horiz-adv-x="1660" 
d="M514 1606l244 340h153l244 -340h-186l-135 192l-132 -192h-188zM1589 739q-1 -317 -203 -538t-537 -221t-556 225t-221 546t220 543t554 222q219 0 396 -104t276 -282l-195 -116q-74 137 -196 213t-281 76q-240 0 -396 -162t-155 -393q0 -230 158 -392t380 -162t354 114
t169 300h-537v211h770v-80z" />
    <glyph glyph-name="gcircumflex" unicode="&#x11d;" horiz-adv-x="1247" 
d="M303 1135l244 340h153l244 -340h-186l-135 192l-131 -192h-189zM287 514q0 -140 93 -236q93 -98 231 -98q139 0 231 98t92 236q0 140 -92 236t-230 96t-232 -96q-93 -96 -93 -236zM580 -20q-205 0 -358 148q-152 148 -152 385t151 384q152 147 361 147q100 0 190 -43
t150 -116v139h219v-999q-1 -231 -139 -377t-377 -146q-184 0 -316 79q-131 79 -192 210l202 96q84 -184 306 -184q137 0 218 89t81 224v129q-60 -77 -152 -121t-192 -44z" />
    <glyph glyph-name="Gbreve" unicode="&#x11e;" horiz-adv-x="1660" 
d="M1163 1937q0 -145 -91 -243t-247 -97q-155 1 -239 95t-84 245h155q0 -201 174 -204q84 2 130 55q45 53 45 149h157zM1589 739q-1 -317 -203 -538t-537 -221t-556 225t-221 546t220 543t554 222q219 0 396 -104t276 -282l-195 -116q-74 137 -196 213t-281 76
q-240 0 -396 -162t-155 -393q0 -230 158 -392t380 -162t354 114t169 300h-537v211h770v-80z" />
    <glyph glyph-name="gbreve" unicode="&#x11f;" horiz-adv-x="1247" 
d="M954 1464q0 -144 -90 -242t-247 -98q-156 0 -240 94t-84 246h156q0 -201 174 -204q84 2 129 55t45 149h157zM287 514q0 -140 93 -236q93 -98 231 -98q139 0 231 98t92 236q0 140 -92 236t-230 96t-232 -96q-93 -96 -93 -236zM580 -20q-205 0 -358 148q-152 148 -152 385
t151 384q152 147 361 147q100 0 190 -43t150 -116v139h219v-999q-1 -231 -139 -377t-377 -146q-184 0 -316 79q-131 79 -192 210l202 96q84 -184 306 -184q137 0 218 89t81 224v129q-60 -77 -152 -121t-192 -44z" />
    <glyph glyph-name="Gdotaccent" unicode="&#x120;" horiz-adv-x="1660" 
d="M731 1614v282h219v-282h-219zM1589 739q-1 -317 -203 -538t-537 -221t-556 225t-221 546t220 543t554 222q219 0 396 -104t276 -282l-195 -116q-74 137 -196 213t-281 76q-240 0 -396 -162t-155 -393q0 -230 158 -392t380 -162t354 114t169 300h-537v211h770v-80z" />
    <glyph glyph-name="gdotaccent" unicode="&#x121;" horiz-adv-x="1247" 
d="M489 1143v282h220v-282h-220zM287 514q0 -140 93 -236q93 -98 231 -98q139 0 231 98t92 236q0 140 -92 236t-230 96t-232 -96q-93 -96 -93 -236zM580 -20q-205 0 -358 148q-152 148 -152 385t151 384q152 147 361 147q100 0 190 -43t150 -116v139h219v-999
q-1 -231 -139 -377t-377 -146q-184 0 -316 79q-131 79 -192 210l202 96q84 -184 306 -184q137 0 218 89t81 224v129q-60 -77 -152 -121t-192 -44z" />
    <glyph glyph-name="Gcommaaccent" unicode="&#x122;" horiz-adv-x="1660" 
d="M823 -524h-141l78 418h196zM1589 739q-1 -317 -203 -538t-537 -221t-556 225t-221 546t220 543t554 222q219 0 396 -104t276 -282l-195 -116q-74 137 -196 213t-281 76q-240 0 -396 -162t-155 -393q0 -230 158 -392t380 -162t354 114t169 300h-537v211h770v-80z" />
    <glyph glyph-name="gcommaaccent" unicode="&#x123;" horiz-adv-x="1247" 
d="M674 1126h-142l78 418h197zM287 514q0 -140 93 -236q93 -98 231 -98q139 0 231 98t92 236q0 140 -92 236t-230 96t-232 -96q-93 -96 -93 -236zM580 -20q-205 0 -358 148q-152 148 -152 385t151 384q152 147 361 147q100 0 190 -43t150 -116v139h219v-999
q-1 -231 -139 -377t-377 -146q-184 0 -316 79q-131 79 -192 210l202 96q84 -184 306 -184q137 0 218 89t81 224v129q-60 -77 -152 -121t-192 -44z" />
    <glyph glyph-name="Hcircumflex" unicode="&#x124;" horiz-adv-x="1349" 
d="M352 1606l244 340h154l243 -340h-186l-135 192l-131 -192h-189zM1014 0v645h-676v-645h-223v1495h223v-637h676v637h221v-1495h-221z" />
    <glyph glyph-name="hcircumflex" unicode="&#x125;" horiz-adv-x="1157" 
d="M-109 1595l244 340h154l243 -340h-186l-135 193l-131 -193h-189zM106 0v1495h218v-600q114 149 312 149t308 -118t111 -328v-598h-224v578q0 132 -62 204t-180 72t-191 -79t-72 -212v-563h-220z" />
    <glyph glyph-name="Hbar" unicode="&#x126;" horiz-adv-x="1452" 
d="M387 1092v-234h676v234h-676zM37 1092v170h127v233h223v-233h676v233h221v-233h123v-170h-123v-1092h-221v645h-676v-645h-223v1092h-127z" />
    <glyph glyph-name="hbar" unicode="&#x127;" horiz-adv-x="1177" 
d="M8 1159v160h119v176h217v-176h143v-160h-143v-264q114 149 312 149t309 -118t110 -328v-598h-223v578q0 132 -62 204t-180 72t-192 -79q-72 -79 -72 -212v-563h-219v1159h-119z" />
    <glyph glyph-name="Itilde" unicode="&#x128;" horiz-adv-x="481" 
d="M-94 1606q0 118 57 190t141 72t172 -53q82 -53 117 -54q68 0 68 99h145q0 -123 -54 -193t-157 -70q-70 1 -159 53t-121 52q-63 0 -64 -96h-145zM129 0v1495h223v-1495h-223z" />
    <glyph glyph-name="itilde" unicode="&#x129;" horiz-adv-x="430" 
d="M-131 1135q0 119 57 191q56 72 140 71q84 1 170 -53t120 -54q68 0 68 99h145q0 -123 -54 -193t-157 -70q-70 0 -159 52t-121 53q-63 0 -64 -96h-145zM104 0v1024h222v-1024h-222z" />
    <glyph glyph-name="Imacron" unicode="&#x12a;" horiz-adv-x="481" 
d="M-31 1606v157h541v-157h-541zM129 0v1495h223v-1495h-223z" />
    <glyph glyph-name="imacron" unicode="&#x12b;" horiz-adv-x="430" 
d="M-55 1135v157h540v-157h-540zM104 0v1024h222v-1024h-222z" />
    <glyph glyph-name="Ibreve" unicode="&#x12c;" horiz-adv-x="481" 
d="M567 1937q-1 -145 -91 -243t-246 -97t-240 95t-84 245h155q0 -201 175 -204q84 2 129 55t45 149h157zM129 0v1495h223v-1495h-223z" />
    <glyph glyph-name="ibreve" unicode="&#x12d;" horiz-adv-x="430" 
d="M545 1464q0 -144 -91 -242t-247 -98t-240 94t-84 246h156q0 -201 174 -204q84 2 129 55t45 149h158zM104 0v1024h222v-1024h-222z" />
    <glyph glyph-name="Iogonek" unicode="&#x12e;" horiz-adv-x="481" 
d="M249 -459q-126 0 -196 65t-71 158q-2 133 147 254v1477h223v-1495h-4q-188 -131 -188 -221q0 -37 24 -60t73 -23q48 0 108 60l127 -112q-117 -103 -243 -103z" />
    <glyph glyph-name="iogonek" unicode="&#x12f;" horiz-adv-x="430" 
d="M104 1165v287h222v-287h-222zM222 -459q-126 0 -196 65t-71 158q-2 135 149 256v1004h222v-1024h-4q-188 -131 -189 -221q0 -37 25 -60q24 -23 72 -23t108 60l127 -112q-117 -103 -243 -103z" />
    <glyph glyph-name="Idotaccent" unicode="&#x130;" horiz-adv-x="481" 
d="M131 1614v282h219v-282h-219zM129 0v1495h223v-1495h-223z" />
    <glyph glyph-name="dotlessi" unicode="&#x131;" horiz-adv-x="430" 
d="M104 0v1024h222v-1024h-222z" />
    <glyph glyph-name="IJ" unicode="&#x132;" horiz-adv-x="1093" 
d="M104 0v1495h224v-1495h-224zM483 0v215h101q102 0 143 44t41 157v1079h221v-1075q0 -224 -85 -322t-300 -98h-121z" />
    <glyph glyph-name="ij" unicode="&#x133;" horiz-adv-x="806" 
d="M483 1165v287h219v-287h-219zM104 1165v287h222v-287h-222zM104 0v1024h222v-1024h-222zM104 -430v207h160q141 0 180 38t39 175v1034h219v-1036q0 -236 -88 -327t-317 -91h-193z" />
    <glyph glyph-name="Jcircumflex" unicode="&#x134;" horiz-adv-x="995" 
d="M446 1606l244 340h154l243 -340h-186l-135 192l-131 -192h-189zM885 426q0 -210 -109 -328t-281 -118q-171 0 -285 76t-157 202l213 92q25 -74 79 -119t136 -45t132 62t51 164v1083h221v-1069z" />
    <glyph glyph-name="jcircumflex" unicode="&#x135;" horiz-adv-x="432" 
d="M-106 1135l243 340h154l244 -340h-187l-135 192l-131 -192h-188zM-115 -471v207q141 0 181 38q39 38 38 175v1075h224v-1077q0 -240 -88 -329t-322 -89h-33z" />
    <glyph glyph-name="Kcommaaccent" unicode="&#x136;" horiz-adv-x="1292" 
d="M633 -524h-141l77 418h197zM338 0h-223v1495h223v-713l594 713h272l-491 -590l544 -905h-253l-449 752l-217 -260v-492z" />
    <glyph glyph-name="kcommaaccent" unicode="&#x137;" horiz-adv-x="1103" 
d="M528 -514h-141l78 418h197zM324 0h-218v1495h218v-979l460 508h265l-400 -438l410 -586h-246l-317 455l-172 -189v-266z" />
    <glyph glyph-name="kgreenlandic" unicode="&#x138;" horiz-adv-x="1103" 
d="M324 0h-218v1024h218v-508l460 508h265l-400 -438l410 -586h-246l-317 455l-172 -189v-266z" />
    <glyph glyph-name="Lacute" unicode="&#x139;" horiz-adv-x="1036" 
d="M133 1606l238 340h233l-303 -340h-168zM115 0v1495h223v-1282h604v-213h-827z" />
    <glyph glyph-name="lacute" unicode="&#x13a;" horiz-adv-x="432" 
d="M106 0v1495h220v-1495h-220zM129 1595l238 340h233l-303 -340h-168z" />
    <glyph glyph-name="Lcommaaccent" unicode="&#x13b;" horiz-adv-x="1036" 
d="M492 -524h-142l78 418h197zM115 0v1495h223v-1282h604v-213h-827z" />
    <glyph glyph-name="lcommaaccent" unicode="&#x13c;" horiz-adv-x="432" 
d="M106 0v1495h220v-1495h-220zM186 -514h-141l78 418h196z" />
    <glyph glyph-name="Lcaron" unicode="&#x13d;" horiz-adv-x="1036" 
d="M535 1133l65 362h186l-110 -362h-141zM115 0v1495h223v-1282h604v-213h-827z" />
    <glyph glyph-name="lcaron" unicode="&#x13e;" horiz-adv-x="538" 
d="M100 0v1495h219v-1495h-219zM432 1133l66 362h186l-111 -362h-141z" />
    <glyph glyph-name="Ldot" unicode="&#x13f;" horiz-adv-x="1040" 
d="M723 598v283h219v-283h-219zM115 0v1495h223v-1282h604v-213h-827z" />
    <glyph glyph-name="ldot" unicode="&#x140;" horiz-adv-x="772" 
d="M477 399v283h219v-283h-219zM106 0v1495h220v-1495h-220z" />
    <glyph glyph-name="Lslash" unicode="&#x141;" horiz-adv-x="1110" 
d="M188 1495h224v-571l258 80v-160l-258 -80v-551h604v-213h-828v694l-157 -47v160l157 47v641z" />
    <glyph glyph-name="lslash" unicode="&#x142;" horiz-adv-x="673" 
d="M223 1495h221v-573l191 55v-160l-191 -55v-762h-221v696l-184 -53v160l184 53v639z" />
    <glyph glyph-name="Nacute" unicode="&#x143;" horiz-adv-x="1460" 
d="M655 1606l238 340h233l-303 -340h-168zM115 0v1495h252l757 -1130v1130h222v-1495h-236l-772 1149v-1149h-223z" />
    <glyph glyph-name="nacute" unicode="&#x144;" horiz-adv-x="1155" 
d="M502 1135l237 340h234l-303 -340h-168zM104 0v1024h218v-133q114 153 312 153t308 -118t111 -328v-598h-222v580q0 130 -63 202t-180 72t-191 -79t-73 -212v-563h-220z" />
    <glyph glyph-name="Ncommaaccent" unicode="&#x145;" horiz-adv-x="1460" 
d="M690 -524h-141l78 418h196zM115 0v1495h252l757 -1130v1130h222v-1495h-236l-772 1149v-1149h-223z" />
    <glyph glyph-name="ncommaaccent" unicode="&#x146;" horiz-adv-x="1155" 
d="M578 -514h-142l78 418h197zM104 0v1024h218v-133q114 153 312 153t308 -118t111 -328v-598h-222v580q0 130 -63 202t-180 72t-191 -79t-73 -212v-563h-220z" />
    <glyph glyph-name="Ncaron" unicode="&#x147;" horiz-adv-x="1460" 
d="M655 1606l-243 340h188l131 -193l135 193h187l-244 -340h-154zM115 0v1495h252l757 -1130v1130h222v-1495h-236l-772 1149v-1149h-223z" />
    <glyph glyph-name="ncaron" unicode="&#x148;" horiz-adv-x="1155" 
d="M506 1135l-244 340h189l131 -193l135 193h186l-244 -340h-153zM104 0v1024h218v-133q114 153 312 153t308 -118t111 -328v-598h-222v580q0 130 -63 202t-180 72t-191 -79t-73 -212v-563h-220z" />
    <glyph glyph-name="Eng" unicode="&#x14a;" horiz-adv-x="1460" 
d="M918 -436v215h26q106 2 143 43t37 153v54l-786 1128v-1157h-223v1495h252l757 -1089v1089h222v-1515q0 -224 -86 -320t-295 -96h-47z" />
    <glyph glyph-name="eng" unicode="&#x14b;" horiz-adv-x="1155" 
d="M610 -471v207q141 0 182 38q40 38 39 175v631q0 130 -63 202t-180 72t-191 -79t-73 -212v-563h-220v1024h218v-133q114 153 312 153t308 -118t111 -328v-651q0 -240 -88 -329t-322 -89h-33z" />
    <glyph glyph-name="Omacron" unicode="&#x14c;" horiz-adv-x="1677" 
d="M295 748q0 -229 158 -390t386 -161q228 1 386 161q157 160 157 390t-157 391q-158 161 -386 161t-386 -162t-158 -390zM839 -20q-318 0 -543 225q-224 225 -224 543t224 542q224 226 542 226t543 -226t225 -542t-224 -542t-543 -226zM557 1606v157h541v-157h-541z" />
    <glyph glyph-name="omacron" unicode="&#x14d;" horiz-adv-x="1202" 
d="M600 184q131 0 223 96t92 232q0 135 -92 231q-92 97 -223 97t-222 -96t-91 -232t91 -232t222 -96zM600 -20q-221 0 -376 154t-154 378q0 223 154 378q155 154 376 154t377 -154t156 -378t-156 -378t-377 -154zM332 1135v157h540v-157h-540z" />
    <glyph glyph-name="Obreve" unicode="&#x14e;" horiz-adv-x="1677" 
d="M1157 1937q0 -145 -91 -243t-247 -97q-155 1 -239 95t-84 245h155q0 -201 174 -204q84 2 129 55t45 149h158zM295 748q0 -229 158 -390t386 -161q228 1 386 161q157 160 157 390t-157 391q-158 161 -386 161t-386 -162t-158 -390zM839 -20q-318 0 -543 225
q-224 225 -224 543t224 542q224 226 542 226t543 -226t225 -542t-224 -542t-543 -226z" />
    <glyph glyph-name="obreve" unicode="&#x14f;" horiz-adv-x="1202" 
d="M932 1464q0 -144 -91 -242t-247 -98t-240 94t-84 246h156q0 -201 174 -204q84 2 129 55t45 149h158zM600 184q131 0 223 96t92 232q0 135 -92 231q-92 97 -223 97t-222 -96t-91 -232t91 -232t222 -96zM600 -20q-221 0 -376 154t-154 378q0 223 154 378q155 154 376 154
t377 -154t156 -378t-156 -378t-377 -154z" />
    <glyph glyph-name="Ohungarumlaut" unicode="&#x150;" horiz-adv-x="1677" 
d="M295 748q0 -229 158 -390t386 -161q228 1 386 161q157 160 157 390t-157 391q-158 161 -386 161t-386 -162t-158 -390zM839 -20q-318 0 -543 225q-224 225 -224 543t224 542q224 226 542 226t543 -226t225 -542t-224 -542t-543 -226zM889 1606l237 340h222l-304 -340
h-155zM573 1606l236 340h221l-303 -340h-154z" />
    <glyph glyph-name="ohungarumlaut" unicode="&#x151;" horiz-adv-x="1202" 
d="M600 184q131 0 223 96t92 232q0 135 -92 231q-92 97 -223 97t-222 -96t-91 -232t91 -232t222 -96zM600 -20q-221 0 -376 154t-154 378q0 223 154 378q155 154 376 154t377 -154t156 -378t-156 -378t-377 -154zM676 1135l237 340h222l-304 -340h-155zM360 1135l236 340
h221l-303 -340h-154z" />
    <glyph glyph-name="OE" unicode="&#x152;" horiz-adv-x="2373" 
d="M838 199q227 1 386 161t158 388v22q-10 221 -167 375q-157 153 -381 153t-382 -162q-159 -162 -159 -388q0 -227 159 -388t386 -161zM1382 0v223q-213 -243 -537 -243t-549 225q-224 225 -224 543t224 542q224 226 549 226t537 -246v225h897v-211h-673v-428h673v-211
h-673v-432h673v-213h-897z" />
    <glyph glyph-name="oe" unicode="&#x153;" horiz-adv-x="2050" 
d="M1454 852q-113 0 -196 -61t-115 -164h612q-27 106 -107 166q-81 59 -194 59zM600 184q133 0 225 96q93 96 93 233q0 136 -92 231q-92 96 -226 96q-133 0 -224 -96t-91 -231q0 -137 91 -233t224 -96zM600 -20q-221 0 -376 154t-154 378q0 223 154 378q155 155 376 154
q133 0 244 -58t182 -159q150 217 424 217q227 0 378 -148t150 -376v-78h-850q20 -120 110 -194t208 -74q228 0 319 191l185 -82q-68 -141 -195 -223t-295 -80q-295 0 -438 213q-70 -101 -180 -157t-242 -56z" />
    <glyph glyph-name="Racute" unicode="&#x154;" horiz-adv-x="1196" 
d="M436 1606l238 340h233l-303 -340h-168zM115 0v1495h465q232 0 380 -139t148 -348q0 -156 -85 -281t-239 -172l357 -555h-256l-451 713h121q156 0 243 90t87 212q0 121 -84 197t-244 76h-219v-1288h-223z" />
    <glyph glyph-name="racute" unicode="&#x155;" horiz-adv-x="798" 
d="M334 1135l237 340h234l-303 -340h-168zM104 0v1024h220v-158q84 158 282 158h121v-209h-154q-133 0 -190 -73t-57 -234v-508h-222z" />
    <glyph glyph-name="Rcommaaccent" unicode="&#x156;" horiz-adv-x="1196" 
d="M580 -524h-142l78 418h197zM115 0v1495h465q232 0 380 -139t148 -348q0 -156 -85 -281t-239 -172l357 -555h-256l-451 713h121q156 0 243 90t87 212q0 121 -84 197t-244 76h-219v-1288h-223z" />
    <glyph glyph-name="rcommaaccent" unicode="&#x157;" horiz-adv-x="798" 
d="M195 -514h-142l78 418h197zM104 0v1024h220v-158q84 158 282 158h121v-209h-154q-133 0 -190 -73t-57 -234v-508h-222z" />
    <glyph glyph-name="Rcaron" unicode="&#x158;" horiz-adv-x="1196" 
d="M477 1606l-244 340h189l131 -193l135 193h186l-243 -340h-154zM115 0v1495h465q232 0 380 -139t148 -348q0 -156 -85 -281t-239 -172l357 -555h-256l-451 713h121q156 0 243 90t87 212q0 121 -84 197t-244 76h-219v-1288h-223z" />
    <glyph glyph-name="rcaron" unicode="&#x159;" horiz-adv-x="798" 
d="M332 1135l-244 340h188l132 -193l135 193h186l-244 -340h-153zM104 0v1024h220v-158q84 158 282 158h121v-209h-154q-133 0 -190 -73t-57 -234v-508h-222z" />
    <glyph glyph-name="Sacute" unicode="&#x15a;" horiz-adv-x="1153" 
d="M584 -20q-346 0 -557 272l196 154q135 -217 359 -218q122 0 196 69t74 171q0 124 -145 188q-74 34 -170 64q-97 31 -145 49t-110 54t-99 77q-89 101 -89 261q0 159 137 277t342 118q293 0 484 -222l-183 -135q-102 160 -301 160q-113 0 -181 -58t-68 -142t63 -138
q23 -20 80 -46t169 -65t173 -66q61 -28 132 -78q142 -100 141 -289t-138 -323t-360 -134zM473 1606l238 340h233l-303 -340h-168z" />
    <glyph glyph-name="sacute" unicode="&#x15b;" horiz-adv-x="964" 
d="M678 305q0 76 -223 121q-16 4 -75 16t-130 44q-70 34 -100 64q-75 75 -75 194q1 120 111 212q111 92 285 91q283 0 412 -199l-183 -100q-76 117 -229 116q-84 0 -130 -36t-46 -75t17 -61q26 -34 228 -78q261 -57 325 -174q30 -55 30 -131q-1 -123 -107 -227t-307 -102
q-313 0 -448 237l196 102q88 -150 263 -149q88 0 137 39t49 96zM324 1135l237 340h234l-303 -340h-168z" />
    <glyph glyph-name="Scircumflex" unicode="&#x15c;" horiz-adv-x="1153" 
d="M254 1606l244 340h153l244 -340h-186l-136 192l-131 -192h-188zM584 -20q-346 0 -557 272l196 154q135 -217 359 -218q122 0 196 69t74 171q0 124 -145 188q-74 34 -170 64q-97 31 -145 49t-110 54t-99 77q-89 101 -89 261q0 159 137 277t342 118q293 0 484 -222
l-183 -135q-102 160 -301 160q-113 0 -181 -58t-68 -142t63 -138q23 -20 80 -46t169 -65t173 -66q61 -28 132 -78q142 -100 141 -289t-138 -323t-360 -134z" />
    <glyph glyph-name="scircumflex" unicode="&#x15d;" horiz-adv-x="964" 
d="M111 1135l243 340h154l244 -340h-187l-135 192l-131 -192h-188zM678 305q0 76 -223 121q-16 4 -75 16t-130 44q-70 34 -100 64q-75 75 -75 194q1 120 111 212q111 92 285 91q283 0 412 -199l-183 -100q-76 117 -229 116q-84 0 -130 -36t-46 -75t17 -61q26 -34 228 -78
q261 -57 325 -174q30 -55 30 -131q-1 -123 -107 -227t-307 -102q-313 0 -448 237l196 102q88 -150 263 -149q88 0 137 39t49 96z" />
    <glyph glyph-name="Scedilla" unicode="&#x15e;" horiz-adv-x="1153" 
d="M571 -485q-168 0 -295 116l142 86q88 -69 152 -69t102 20q37 20 37 51q0 66 -131 66h-95v201q-279 33 -456 266l196 154q135 -217 359 -218q122 0 196 69t74 171q0 124 -145 188q-74 34 -170 64q-97 31 -145 49t-110 54t-99 77q-89 101 -89 261q0 159 137 277t342 118
q293 0 484 -222l-183 -135q-102 160 -301 160q-113 0 -181 -58t-68 -142t63 -138q23 -20 80 -46t169 -65t173 -66q61 -28 132 -78q142 -100 140 -298q0 -170 -122 -299t-322 -145v-93q109 2 175 -44q66 -47 65 -129q1 -82 -89 -142t-217 -61z" />
    <glyph glyph-name="scedilla" unicode="&#x15f;" horiz-adv-x="964" 
d="M436 -485q-168 0 -295 116l142 86q89 -69 153 -69t101 20t36 51q0 66 -131 66h-94v207q-215 43 -315 225l196 102q88 -150 263 -149q88 0 137 39t49 96q0 76 -223 121q-16 4 -75 16t-130 44q-70 34 -100 64q-75 75 -75 194q1 120 111 212q111 92 285 91q283 0 412 -199
l-183 -100q-76 117 -229 116q-84 0 -130 -36t-46 -75t17 -61q26 -34 228 -78q261 -57 325 -174q30 -55 30 -131q0 -121 -101 -222t-292 -107v-89q108 2 174 -44q66 -47 66 -129t-90 -142q-89 -60 -216 -61z" />
    <glyph glyph-name="Scaron" unicode="&#x160;" horiz-adv-x="1153" 
d="M506 1606l-244 340h189l131 -193l135 193h186l-244 -340h-153zM584 -20q-346 0 -557 272l196 154q135 -217 359 -218q122 0 196 69t74 171q0 124 -145 188q-74 34 -170 64q-97 31 -145 49t-110 54t-99 77q-89 101 -89 261q0 159 137 277t342 118q293 0 484 -222
l-183 -135q-102 160 -301 160q-113 0 -181 -58t-68 -142t63 -138q23 -20 80 -46t169 -65t173 -66q61 -28 132 -78q142 -100 141 -289t-138 -323t-360 -134z" />
    <glyph glyph-name="scaron" unicode="&#x161;" horiz-adv-x="964" 
d="M358 1135l-243 340h188l131 -193l135 193h187l-244 -340h-154zM678 305q0 76 -223 121q-16 4 -75 16t-130 44q-70 34 -100 64q-75 75 -75 194q1 120 111 212q111 92 285 91q283 0 412 -199l-183 -100q-76 117 -229 116q-84 0 -130 -36t-46 -75t17 -61q26 -34 228 -78
q261 -57 325 -174q30 -55 30 -131q-1 -123 -107 -227t-307 -102q-313 0 -448 237l196 102q88 -150 263 -149q88 0 137 39t49 96z" />
    <glyph glyph-name="Tcommaaccent" unicode="&#x162;" horiz-adv-x="1234" 
d="M510 0v1286h-424v209h1069v-209h-424v-1286h-221zM584 -524h-142l78 418h197z" />
    <glyph glyph-name="tcommaaccent" unicode="&#x163;" horiz-adv-x="751" 
d="M383 -514h-141l77 418h197zM61 827v197h175v242l221 120v-362h217v-197h-217v-407q0 -139 38 -176t179 -37v-207h-33q-233 0 -319 89t-86 329v409h-175z" />
    <glyph glyph-name="Tcaron" unicode="&#x164;" horiz-adv-x="1234" 
d="M532 1606l-243 340h188l131 -193l135 193h187l-244 -340h-154zM510 0v1286h-424v209h1069v-209h-424v-1286h-221z" />
    <glyph glyph-name="tcaron" unicode="&#x165;" horiz-adv-x="751" 
d="M563 1149l66 362h186l-110 -362h-142zM61 827v197h175v242l221 120v-362h217v-197h-217v-407q0 -139 38 -176t179 -37v-207h-33q-233 0 -319 89t-86 329v409h-175z" />
    <glyph glyph-name="Tbar" unicode="&#x166;" horiz-adv-x="1234" 
d="M285 692v211h225v383h-424v209h1069v-209h-424v-383h219v-211h-219v-692h-221v692h-225z" />
    <glyph glyph-name="tbar" unicode="&#x167;" horiz-adv-x="751" 
d="M61 840v184h175v242l221 120v-362h217v-184h-217v-215h213v-181h-213v-30q0 -139 38 -176t179 -37v-201h-33q-233 0 -319 89t-86 329v26h-160v181h160v215h-175z" />
    <glyph glyph-name="Utilde" unicode="&#x168;" horiz-adv-x="1269" 
d="M276 1606q0 118 58 190t140 72q83 0 173 -53q82 -53 117 -54q68 0 67 99h146q0 -123 -54 -193t-157 -70q-70 1 -159 53t-122 52q-63 0 -63 -96h-146zM1159 504q1 -238 -147 -381t-378 -143t-377 143q-146 143 -146 381v991h223v-1006q0 -125 86 -213t214 -88t216 88
t88 213v1006h221v-991z" />
    <glyph glyph-name="utilde" unicode="&#x169;" horiz-adv-x="1155" 
d="M223 1135q-1 119 57 191t141 71q83 1 169 -53t121 -54q68 0 67 99h146q0 -123 -54 -193t-157 -70q-69 0 -159 52t-122 53q-63 0 -63 -96h-146zM521 -20q-199 0 -309 118t-110 330v596h224v-578q0 -130 63 -202t179 -72t190 79t73 210v563h220v-1024h-217v133
q-113 -153 -313 -153z" />
    <glyph glyph-name="Umacron" unicode="&#x16a;" horiz-adv-x="1269" 
d="M360 1606v157h541v-157h-541zM1159 504q1 -238 -147 -381t-378 -143t-377 143q-146 143 -146 381v991h223v-1006q0 -125 86 -213t214 -88t216 88t88 213v1006h221v-991z" />
    <glyph glyph-name="umacron" unicode="&#x16b;" horiz-adv-x="1155" 
d="M303 1135v157h541v-157h-541zM521 -20q-199 0 -309 118t-110 330v596h224v-578q0 -130 63 -202t179 -72t190 79t73 210v563h220v-1024h-217v133q-113 -153 -313 -153z" />
    <glyph glyph-name="Ubreve" unicode="&#x16c;" horiz-adv-x="1269" 
d="M965 1937q0 -145 -91 -243t-247 -97t-240 95t-84 245h156q0 -201 174 -204q84 2 129 55t45 149h158zM1159 504q1 -238 -147 -381t-378 -143t-377 143q-146 143 -146 381v991h223v-1006q0 -125 86 -213t214 -88t216 88t88 213v1006h221v-991z" />
    <glyph glyph-name="ubreve" unicode="&#x16d;" horiz-adv-x="1155" 
d="M901 1464q0 -144 -91 -242t-247 -98q-155 0 -239 94t-84 246h155q0 -201 174 -204q84 2 129 55t45 149h158zM521 -20q-199 0 -309 118t-110 330v596h224v-578q0 -130 63 -202t179 -72t190 79t73 210v563h220v-1024h-217v133q-113 -153 -313 -153z" />
    <glyph glyph-name="Uring" unicode="&#x16e;" horiz-adv-x="1269" 
d="M1159 504q1 -238 -147 -381t-378 -143t-377 143q-146 143 -146 381v991h223v-1006q0 -125 86 -213t214 -88t216 88t88 213v1006h221v-991zM629 1688q37 0 63 26t27 62q0 36 -27 64q-28 28 -64 28t-63 -28t-27 -64t27 -63q27 -25 64 -25zM629 1546q-96 0 -163 68t-67 163
t67 163t163 67q96 0 164 -68q67 -67 67 -163t-68 -163t-163 -67z" />
    <glyph glyph-name="uring" unicode="&#x16f;" horiz-adv-x="1155" 
d="M666 1356q0 36 -27 64t-64 28t-63 -28t-27 -64q1 -36 27 -62t63 -26t64 26t27 62zM575 1126q-97 0 -163 68t-66 163t67 163t163 68t163 -68q68 -68 68 -164t-68 -163t-164 -67zM521 -20q-199 0 -309 118t-110 330v596h224v-578q0 -130 63 -202t179 -72t190 79t73 210v563
h220v-1024h-217v133q-113 -153 -313 -153z" />
    <glyph glyph-name="Uhungarumlaut" unicode="&#x170;" horiz-adv-x="1269" 
d="M676 1606l237 340h222l-304 -340h-155zM360 1606l236 340h221l-303 -340h-154zM1159 504q1 -238 -147 -381t-378 -143t-377 143q-146 143 -146 381v991h223v-1006q0 -125 86 -213t214 -88t216 88t88 213v1006h221v-991z" />
    <glyph glyph-name="uhungarumlaut" unicode="&#x171;" horiz-adv-x="1155" 
d="M326 1135l235 340h221l-303 -340h-153zM641 1135l238 340h221l-303 -340h-156zM521 -20q-199 0 -309 118t-110 330v596h224v-578q0 -130 63 -202t179 -72t190 79t73 210v563h220v-1024h-217v133q-113 -153 -313 -153z" />
    <glyph glyph-name="Uogonek" unicode="&#x172;" horiz-adv-x="1269" 
d="M662 -449q-138 -1 -218 61t-79 155q0 123 143 225q-180 37 -289 173t-108 339v991h223v-1006q0 -125 86 -213t214 -88t216 88t88 213v1006h221v-991q0 -188 -95 -320t-255 -180q-164 -102 -212 -144t-48 -85q0 -72 100 -72q61 0 137 64l146 -99q-132 -117 -270 -117z" />
    <glyph glyph-name="uogonek" unicode="&#x173;" horiz-adv-x="1155" 
d="M945 -459q-125 0 -195 65t-72 158q-2 137 156 263v106q-113 -153 -313 -153q-199 0 -309 118t-110 330v596h224v-578q0 -130 63 -202t179 -72t190 79t73 210v563h220v-1024h-7q-188 -131 -188 -221q0 -37 25 -60t73 -23t107 60l127 -112q-117 -103 -243 -103z" />
    <glyph glyph-name="Wcircumflex" unicode="&#x174;" horiz-adv-x="2140" 
d="M745 1606l244 340h154l243 -340h-186l-135 192l-131 -192h-189zM481 0l-430 1495h234l317 -1145l361 1145h217l358 -1147l326 1147h225l-440 -1495h-222l-358 1149l-360 -1149h-228z" />
    <glyph glyph-name="wcircumflex" unicode="&#x175;" horiz-adv-x="1789" 
d="M575 1135l244 340h154l244 -340h-187l-135 192l-131 -192h-189zM403 0l-340 1026l224 -2l233 -727l268 727h218l264 -727l241 727h224l-357 -1024h-211l-272 731l-277 -731h-215z" />
    <glyph glyph-name="Ycircumflex" unicode="&#x176;" horiz-adv-x="1277" 
d="M315 1606l244 340h154l243 -340h-186l-135 192l-131 -192h-189zM528 0v709l-485 786h246l350 -573l352 573h246l-487 -788v-707h-222z" />
    <glyph glyph-name="ycircumflex" unicode="&#x177;" horiz-adv-x="1138" 
d="M246 1135l243 340h154l244 -340h-187l-135 192l-131 -192h-188zM248 -473l219 526l-424 971h236l299 -711l282 711h232l-619 -1497h-225z" />
    <glyph glyph-name="Ydieresis" unicode="&#x178;" horiz-adv-x="1277" 
d="M694 1614v282h219v-282h-219zM365 1614v282h219v-282h-219zM528 0v709l-485 786h246l350 -573l352 573h246l-487 -788v-707h-222z" />
    <glyph glyph-name="Zacute" unicode="&#x179;" horiz-adv-x="1183" 
d="M485 1606l238 340h233l-303 -340h-168zM98 0v205l727 1079h-704v211h966v-203l-729 -1079h729v-213h-989z" />
    <glyph glyph-name="zacute" unicode="&#x17a;" horiz-adv-x="1071" 
d="M444 1135l238 340h233l-303 -340h-168zM82 0v201l614 626h-600v197h885v-201l-614 -626h622v-197h-907z" />
    <glyph glyph-name="Zdotaccent" unicode="&#x17b;" horiz-adv-x="1183" 
d="M494 1614v282h219v-282h-219zM98 0v205l727 1079h-704v211h966v-203l-729 -1079h729v-213h-989z" />
    <glyph glyph-name="zdotaccent" unicode="&#x17c;" horiz-adv-x="1071" 
d="M438 1143v282h219v-282h-219zM82 0v201l614 626h-600v197h885v-201l-614 -626h622v-197h-907z" />
    <glyph glyph-name="Zcaron" unicode="&#x17d;" horiz-adv-x="1183" 
d="M522 1606l-243 340h188l131 -193l135 193h187l-244 -340h-154zM98 0v205l727 1079h-704v211h966v-203l-729 -1079h729v-213h-989z" />
    <glyph glyph-name="zcaron" unicode="&#x17e;" horiz-adv-x="1071" 
d="M471 1135l-244 340h189l131 -193l135 193h186l-243 -340h-154zM82 0v201l614 626h-600v197h885v-201l-614 -626h622v-197h-907z" />
    <glyph glyph-name="florin" unicode="&#x192;" 
d="M162 659v197h360l68 219q68 233 183 327q116 93 308 93h19v-203q-124 0 -186 -47t-101 -178l-65 -211h315v-197h-375l-72 -237q-72 -238 -176 -330t-303 -92h-31v205q127 0 187 46q59 46 100 179l70 229h-301z" />
    <glyph glyph-name="Aringacute" unicode="&#x1fa;" horiz-adv-x="1425" 
d="M616 1593q0 -37 27 -63t64 -25q37 0 63 26q26 27 27 63q0 36 -27 64q-28 28 -64 28t-63 -28t-27 -65zM616 1896l238 340h233l-303 -340h-168zM713 1190l-238 -658h477zM477 1584q0 105 67 173t163 68q95 0 163 -68q68 -67 68 -171t-82 -169l520 -1417h-231l-117 319h-631
l-114 -319h-234l518 1409q-90 70 -90 175z" />
    <glyph glyph-name="aringacute" unicode="&#x1fb;" horiz-adv-x="1243" 
d="M606 1442q-38 0 -64 -28t-26 -64t26 -62t64 -26q37 0 64 26t26 62q0 36 -26 64t-64 28zM514 1645l238 340h233l-303 -340h-168zM606 1120q-96 0 -163 68t-67 163t68 163q66 68 162 67q96 0 164 -68q68 -67 68 -163t-68 -163t-164 -67zM287 514q0 -140 93 -236
q93 -98 231 -98q139 0 231 98t92 236q0 140 -92 236t-230 96t-232 -96q-93 -96 -93 -236zM580 -20q-205 0 -358 148q-152 148 -152 385t151 384q152 147 361 147q100 0 191 -40t149 -113v133h219v-1024h-219v141q-58 -77 -150 -119t-192 -42z" />
    <glyph glyph-name="AEacute" unicode="&#x1fc;" horiz-adv-x="2080" 
d="M1079 1606l238 340h233l-303 -340h-168zM866 1171l-301 -651h455zM1942 1495v-211h-877l104 -428h773v-211h-721l104 -432h617v-213h-797l-76 315h-598l-145 -315h-240l694 1495h1162z" />
    <glyph glyph-name="aeacute" unicode="&#x1fd;" horiz-adv-x="1888" 
d="M840 1135l237 340h234l-303 -340h-168zM1293 852q-113 0 -195 -61t-115 -164h612q-27 106 -107 166q-81 59 -195 59zM446 162q121 0 213 82t107 159v97q0 10 -2 18t-2 10q-20 -47 -248 -96q-121 -26 -175 -60t-54 -100q-1 -110 161 -110zM1300 -20q-293 0 -444 219
q-53 -95 -166 -157q-112 -62 -276 -62t-255 78t-92 210q-1 133 89 207t254 115q223 50 255 66q31 16 53 28q40 22 40 70q0 49 -54 84q-54 34 -166 34t-179 -57t-66 -147v-6h-201v4q0 176 120 277t331 101q268 0 370 -155q152 155 378 155t376 -148t150 -376v-78h-848
q20 -120 109 -194q88 -74 206 -74t199 52q80 52 121 139l184 -82q-66 -141 -194 -222t-294 -81z" />
    <glyph glyph-name="Oslashacute" unicode="&#x1fe;" horiz-adv-x="1677" 
d="M727 1606l238 340h233l-303 -340h-168zM838 197q229 1 387 161q157 160 157 376t-129 372l-669 -848q119 -61 254 -61zM295 758q0 -219 133 -375l670 850q-123 68 -260 67q-227 0 -385 -162t-158 -380zM72 750q0 316 224 540q224 225 542 226q207 0 395 -109l70 88h258
l-170 -215q215 -221 215 -535q0 -313 -224 -539t-544 -226q-211 0 -389 106l-68 -86h-256l166 209q-219 225 -219 541z" />
    <glyph glyph-name="oslashacute" unicode="&#x1ff;" horiz-adv-x="1202" 
d="M502 1135l237 340h234l-303 -340h-168zM600 840q-133 0 -224 -96t-91 -216t53 -202l385 489q-55 25 -123 25zM600 184q133 0 225 96q93 96 93 218q0 120 -58 202l-385 -491q55 -25 125 -25zM600 -20q-139 0 -256 63l-35 -43h-227l123 156q-135 152 -135 366t154 368
q155 155 376 154q137 0 254 -63l35 43h227l-121 -154q137 -154 137 -368t-155 -368q-156 -154 -377 -154z" />
    <glyph glyph-name="Scommaaccent" unicode="&#x218;" horiz-adv-x="1153" 
d="M584 -20q-346 0 -557 272l196 154q135 -217 359 -218q122 0 196 69t74 171q0 124 -145 188q-74 34 -170 64q-97 31 -145 49t-110 54t-99 77q-89 101 -89 261q0 159 137 277t342 118q293 0 484 -222l-183 -135q-102 160 -301 160q-113 0 -181 -58t-68 -142t63 -138
q23 -20 80 -46t169 -65t173 -66q61 -28 132 -78q142 -100 141 -289t-138 -323t-360 -134zM551 -514h-141l77 418h197z" />
    <glyph glyph-name="scommaaccent" unicode="&#x219;" horiz-adv-x="964" 
d="M678 305q0 76 -223 121q-16 4 -75 16t-130 44q-70 34 -100 64q-75 75 -75 194q1 120 111 212q111 92 285 91q283 0 412 -199l-183 -100q-76 117 -229 116q-84 0 -130 -36t-46 -75t17 -61q26 -34 228 -78q261 -57 325 -174q30 -55 30 -131q-1 -123 -107 -227t-307 -102
q-313 0 -448 237l196 102q88 -150 263 -149q88 0 137 39t49 96zM416 -520h-142l78 418h197z" />
    <glyph glyph-name="dotlessj" unicode="&#x237;" horiz-adv-x="432" 
d="M-115 -471v207q141 0 181 38q39 38 38 175v1075h224v-1077q0 -240 -88 -329t-322 -89h-33z" />
    <glyph glyph-name="circumflex" unicode="&#x2c6;" horiz-adv-x="993" 
d="M176 1135l244 340h153l244 -340h-186l-135 192l-131 -192h-189z" />
    <glyph glyph-name="caron" unicode="&#x2c7;" horiz-adv-x="993" 
d="M418 1135l-244 340h188l132 -193l135 193h186l-244 -340h-153z" />
    <glyph glyph-name="breve" unicode="&#x2d8;" horiz-adv-x="993" 
d="M825 1464q-1 -144 -91 -242t-246 -98t-240 94t-84 246h155q0 -201 175 -204q84 2 129 55t45 149h157z" />
    <glyph glyph-name="dotaccent" unicode="&#x2d9;" horiz-adv-x="999" 
d="M371 1143v282h219v-282h-219z" />
    <glyph glyph-name="ring" unicode="&#x2da;" horiz-adv-x="993" 
d="M403 1356q0 -36 27 -62t64 -26q38 0 64 26t26 62t-27 64t-63 28t-64 -28q-27 -28 -27 -64zM725 1356q1 -96 -67 -163t-164 -67t-163 68t-67 163t67 163t163 68t164 -68t67 -164z" />
    <glyph glyph-name="ogonek" unicode="&#x2db;" horiz-adv-x="993" 
d="M498 -455q-138 -1 -218 61t-79 150q0 88 65 163q66 75 232 157l147 -78q-164 -102 -212 -144t-48 -85q0 -72 100 -72q61 0 138 63l145 -98q-132 -117 -270 -117z" />
    <glyph glyph-name="tilde" unicode="&#x2dc;" horiz-adv-x="993" 
d="M141 1135q-1 119 57 191t141 71q83 1 169 -53t121 -54q68 0 67 99h146q0 -123 -54 -193t-157 -70q-70 0 -159 52t-122 53q-63 0 -63 -96h-146z" />
    <glyph glyph-name="hungarumlaut" unicode="&#x2dd;" horiz-adv-x="993" 
d="M424 1135l238 340h221l-303 -340h-156zM109 1135l235 340h221l-303 -340h-153z" />
    <glyph glyph-name="uni0328" unicode="&#x328;" horiz-adv-x="993" 
d="M550 -459q-126 0 -196 65t-71 158q-2 158 223 312l143 -76q-188 -131 -188 -221q1 -37 25 -60t72 -23t108 60l127 -112q-117 -103 -243 -103z" />
    <glyph glyph-name="pi" unicode="&#x3c0;" horiz-adv-x="1568" 
d="M82 1282v213h1407v-213h-279v-866q0 -115 36 -158t136 -43h70v-215h-88q-215 0 -295 96t-82 324l2 862h-428v-1282h-221v1282h-258z" />
    <glyph glyph-name="pi" unicode="&#x3d6;" horiz-adv-x="1568" 
d="M82 1282v213h1407v-213h-279v-866q0 -115 36 -158t136 -43h70v-215h-88q-215 0 -295 96t-82 324l2 862h-428v-1282h-221v1282h-258z" />
    <glyph glyph-name="uni0E3F" unicode="&#xe3f;" horiz-adv-x="1040" 
d="M739 1010q0 125 -147 141v-291q147 17 147 150zM319 1153v-295h134v295h-134zM750 494q0 139 -158 157v-321q74 10 116 54t42 110zM319 655v-327h134v327h-134zM100 131v1221h353v143h139v-145q174 -10 270 -98t96 -246q0 -160 -145 -244q158 -80 158 -273
q1 -161 -101 -253t-278 -103v-133h-139v131h-353z" />
    <glyph glyph-name="Wgrave" unicode="&#x1e80;" horiz-adv-x="2140" 
d="M977 1606l-303 340h233l238 -340h-168zM481 0l-430 1495h234l317 -1145l361 1145h217l358 -1147l326 1147h225l-440 -1495h-222l-358 1149l-360 -1149h-228z" />
    <glyph glyph-name="wgrave" unicode="&#x1e81;" horiz-adv-x="1789" 
d="M811 1135l-303 340h233l238 -340h-168zM403 0l-340 1026l224 -2l233 -727l268 727h218l264 -727l241 727h224l-357 -1024h-211l-272 731l-277 -731h-215z" />
    <glyph glyph-name="Wacute" unicode="&#x1e82;" horiz-adv-x="2140" 
d="M973 1606l237 340h234l-303 -340h-168zM481 0l-430 1495h234l317 -1145l361 1145h217l358 -1147l326 1147h225l-440 -1495h-222l-358 1149l-360 -1149h-228z" />
    <glyph glyph-name="wacute" unicode="&#x1e83;" horiz-adv-x="1789" 
d="M811 1135l238 340h233l-303 -340h-168zM403 0l-340 1026l224 -2l233 -727l268 727h218l264 -727l241 727h224l-357 -1024h-211l-272 731l-277 -731h-215z" />
    <glyph glyph-name="Wdieresis" unicode="&#x1e84;" horiz-adv-x="2140" 
d="M1124 1614v282h219v-282h-219zM795 1614v282h219v-282h-219zM481 0l-430 1495h234l317 -1145l361 1145h217l358 -1147l326 1147h225l-440 -1495h-222l-358 1149l-360 -1149h-228z" />
    <glyph glyph-name="wdieresis" unicode="&#x1e85;" horiz-adv-x="1789" 
d="M954 1143v282h220v-282h-220zM625 1143v282h219v-282h-219zM403 0l-340 1026l224 -2l233 -727l268 727h218l264 -727l241 727h224l-357 -1024h-211l-272 731l-277 -731h-215z" />
    <glyph glyph-name="Ygrave" unicode="&#x1ef2;" horiz-adv-x="1277" 
d="M551 1606l-303 340h233l238 -340h-168zM528 0v709l-485 786h246l350 -573l352 573h246l-487 -788v-707h-222z" />
    <glyph glyph-name="ygrave" unicode="&#x1ef3;" horiz-adv-x="1138" 
d="M485 1135l-303 340h234l237 -340h-168zM248 -473l219 526l-424 971h236l299 -711l282 711h232l-619 -1497h-225z" />
    <glyph glyph-name="figuredash" unicode="&#x2012;" horiz-adv-x="1325" 
d="M90 422v190h1147v-190h-1147z" />
    <glyph glyph-name="endash" unicode="&#x2013;" horiz-adv-x="1017" 
d="M90 422v190h840v-190h-840z" />
    <glyph glyph-name="emdash" unicode="&#x2014;" horiz-adv-x="1427" 
d="M90 422v190h1249v-190h-1249z" />
    <glyph glyph-name="uni2015" unicode="&#x2015;" horiz-adv-x="2041" 
d="M90 422v190h1864v-190h-1864z" />
    <glyph glyph-name="doublebar" unicode="&#x2016;" horiz-adv-x="800" 
d="M479 -471v1966h221v-1966h-221zM100 -471v1966h222v-1966h-222z" />
    <glyph glyph-name="quoteleft" unicode="&#x2018;" horiz-adv-x="417" 
d="M264 1495l78 -418h-141l-138 418h201z" />
    <glyph glyph-name="quoteright" unicode="&#x2019;" horiz-adv-x="417" 
d="M211 1077h-139l78 418h200z" />
    <glyph glyph-name="quotesinglbase" unicode="&#x201a;" horiz-adv-x="417" 
d="M195 -240h-142l78 418h201z" />
    <glyph glyph-name="reversequoteleft" unicode="&#x201b;" horiz-adv-x="417" 
d="M211 1077h-139l78 418h200z" />
    <glyph glyph-name="quotedblleft" unicode="&#x201c;" horiz-adv-x="706" 
d="M557 1495l78 -418h-139l-136 418h197zM268 1495l78 -418h-139l-135 418h196z" />
    <glyph glyph-name="quotedblright" unicode="&#x201d;" horiz-adv-x="706" 
d="M502 1077h-142l78 418h201zM211 1077h-139l78 418h200z" />
    <glyph glyph-name="quotedblbase" unicode="&#x201e;" horiz-adv-x="706" 
d="M487 -240h-141l78 418h201zM197 -240h-140l78 418h201z" />
    <glyph glyph-name="reversequotedblleft" unicode="&#x201f;" horiz-adv-x="706" 
d="M502 1077h-142l78 418h201zM211 1077h-139l78 418h200z" />
    <glyph glyph-name="dagger" unicode="&#x2020;" horiz-adv-x="1126" 
d="M100 827v197h351v471h223v-471h354v-197h-354v-827h-223v827h-351z" />
    <glyph glyph-name="daggerdbl" unicode="&#x2021;" horiz-adv-x="1126" 
d="M100 915v195h351v385h223v-385h354v-195h-354v-317h354v-195h-354v-403h-223v403h-351v195h351v317h-351z" />
    <glyph glyph-name="bullet" unicode="&#x2022;" horiz-adv-x="751" 
d="M377 328q-78 0 -134 56t-57 134q0 78 56 134t135 56q78 0 134 -56t56 -134t-56 -134t-134 -56z" />
    <glyph glyph-name="ellipsis" unicode="&#x2026;" horiz-adv-x="1103" 
d="M784 0v281h222v-281h-222zM442 0v281h222v-281h-222zM100 0v281h219v-281h-219z" />
    <glyph glyph-name="perthousand" unicode="&#x2030;" horiz-adv-x="2521" 
d="M2077 164q69 0 119 50t50 121t-50 121t-120 50t-118 -50q-49 -50 -49 -121t49 -121t119 -50zM2435 335q0 -149 -104 -253q-105 -104 -253 -105q-148 1 -252 105t-106 252q0 148 104 254q104 104 254 104q149 0 253 -104t104 -253zM444 987q70 0 119 50t49 122t-49 122
t-119 50t-118 -50t-50 -122q0 -72 49 -122t119 -50zM444 803q-147 0 -251 104q-105 104 -105 253t104 252q104 104 252 104t252 -104t104 -252t-104 -252q-105 -104 -252 -105zM1288 164q70 0 119 50t49 121t-49 121t-119 50t-119 -50t-49 -121t49 -121t119 -50zM1286 -23
q-148 1 -251 105t-103 252t103 254q103 104 251 104t254 -104q104 -104 104 -253t-104 -253q-106 -104 -254 -105zM84 0l1284 1495h281l-1284 -1495h-281z" />
    <glyph glyph-name="minute" unicode="&#x2032;" horiz-adv-x="417" 
d="M211 1077h-139l78 418h200z" />
    <glyph glyph-name="second" unicode="&#x2033;" horiz-adv-x="706" 
d="M502 1077h-142l78 418h201zM211 1077h-139l78 418h200z" />
    <glyph glyph-name="tripleprime" unicode="&#x2034;" horiz-adv-x="911" 
d="M637 1323v172h180v-172q1 -53 -21 -151t-38 -148h-64q-57 180 -57 299zM367 1323v172h180v-172q0 -53 -22 -151t-38 -148h-63q-57 180 -57 299zM96 1495h180v-172q0 -53 -22 -151t-37 -148h-63q-57 180 -58 299v172z" />
    <glyph glyph-name="guilsinglleft" unicode="&#x2039;" horiz-adv-x="579" 
d="M457 205l-332 244v139l332 243v-169l-201 -144l201 -143v-170z" />
    <glyph glyph-name="guilsinglright" unicode="&#x203a;" horiz-adv-x="579" 
d="M125 207v168l203 143l-203 146v170l332 -244v-139z" />
    <glyph glyph-name="fraction" unicode="&#x2044;" horiz-adv-x="1409" 
d="M39 0l1079 1495h256l-1079 -1495h-256z" />
    <glyph glyph-name="uni2070" unicode="&#x2070;" horiz-adv-x="960" 
d="M480 805q108 0 180 76q72 75 73 183q0 108 -73 184t-180 75q-107 0 -179 -76t-72 -183t72 -183q71 -76 179 -76zM924 1063q0 -185 -130 -315t-314 -130q-185 0 -313 130t-128 315q0 184 128 314t313 130q184 0 314 -130t130 -314z" />
    <glyph glyph-name="uni2074" unicode="&#x2074;" horiz-adv-x="759" 
d="M408 981v231l-162 -231h162zM408 631v184h-361v170l356 510h185v-514h125v-166h-125v-184h-180z" />
    <glyph glyph-name="uni2075" unicode="&#x2075;" horiz-adv-x="677" 
d="M350 618q-118 0 -197 46t-120 116l178 99q39 -82 125 -82q49 1 83 33t34 83t-34 85t-85 34q-82 0 -121 -76l-170 68l63 471h486v-174h-338l-21 -147q57 29 123 28q125 0 205 -77t80 -210t-86 -215q-87 -82 -205 -82z" />
    <glyph glyph-name="uni2076" unicode="&#x2076;" horiz-adv-x="722" 
d="M360 793q57 0 99 41q41 41 41 98t-41 96t-99 39t-96 -40q-39 -40 -39 -97t39 -97t96 -40zM686 929q0 -135 -92 -223t-233 -88q-140 0 -231 90t-91 215q0 126 76 240l211 332h217l-170 -264q8 2 22 2q123 0 207 -85t84 -219z" />
    <glyph glyph-name="uni2077" unicode="&#x2077;" horiz-adv-x="649" 
d="M45 1319v176h557v-164l-305 -700h-203l312 688h-361z" />
    <glyph glyph-name="uni2078" unicode="&#x2078;" horiz-adv-x="681" 
d="M340 1165q41 0 66 25q24 24 24 64t-24 66q-25 26 -66 26t-65 -26q-23 -26 -23 -66t24 -64t64 -25zM340 784q49 0 80 32t31 79t-31 79t-80 32t-80 -33t-31 -79t31 -78t80 -32zM340 618q-129 0 -210 78t-81 199t94 195q-67 62 -67 170t72 178q73 70 191 70q117 0 193 -72
q76 -70 76 -174t-67 -170q90 -74 90 -197t-81 -200t-210 -77z" />
    <glyph glyph-name="uni2079" unicode="&#x2079;" horiz-adv-x="722" 
d="M362 1059q57 0 97 41q39 41 39 98t-39 97t-97 40t-97 -41q-40 -41 -40 -98t40 -97t97 -40zM328 895q-123 0 -207 85t-84 219t92 221t231 87q140 0 232 -89t92 -215t-76 -240l-209 -332h-219l170 264h-22z" />
    <glyph glyph-name="uni207A" unicode="&#x207a;" horiz-adv-x="538" 
d="M51 985v156h144v139h151v-139h141v-156h-141v-141h-151v141h-144z" />
    <glyph glyph-name="uni207B" unicode="&#x207b;" horiz-adv-x="538" 
d="M51 985v156h436v-156h-436z" />
    <glyph glyph-name="uni207C" unicode="&#x207c;" horiz-adv-x="532" 
d="M49 883v151h436v-151h-436zM49 1087v150h436v-150h-436z" />
    <glyph glyph-name="uni207D" unicode="&#x207d;" horiz-adv-x="548" 
d="M51 1066q0 364 309 597l117 -154q-235 -170 -235 -438t237 -442l-117 -156q-311 229 -311 593z" />
    <glyph glyph-name="uni207E" unicode="&#x207e;" horiz-adv-x="548" 
d="M499 1064q0 -360 -311 -591l-116 156q236 174 236 442t-236 438l118 154q309 -239 309 -599z" />
    <glyph glyph-name="uni2080" unicode="&#x2080;" horiz-adv-x="960" 
d="M480 174q108 0 180 76t73 184q0 108 -73 182q-73 76 -180 76t-179 -76t-72 -183t72 -183q71 -76 179 -76zM924 432q0 -184 -130 -314t-314 -130q-185 0 -313 130t-128 314t128 314t313 130q184 0 314 -130t130 -314z" />
    <glyph glyph-name="uni2081" unicode="&#x2081;" horiz-adv-x="606" 
d="M47 0v178h168v416q-43 -59 -135 -59h-12v186h6q78 0 112 43t35 100h185v-686h161v-178h-520z" />
    <glyph glyph-name="uni2082" unicode="&#x2082;" horiz-adv-x="684" 
d="M49 0v154q0 74 39 137t82 97q44 34 138 92t115 88t21 63t-28 57t-78 25q-94 0 -143 -117l-162 84q90 197 307 197q133 0 216 -72t83 -182t-69 -173t-143 -108t-99 -61t-52 -45t-28 -58h389v-178h-588z" />
    <glyph glyph-name="uni2083" unicode="&#x2083;" horiz-adv-x="661" 
d="M319 -12q-193 0 -296 116l149 125q57 -70 139 -69q51 0 84 28t33 73q0 46 -39 71t-102 24h-88v170h86q59 0 93 27t34 69t-30 66t-81 25q-80 0 -125 -72l-143 107q96 129 272 129q135 0 217 -68q82 -69 82 -179t-92 -179q113 -66 113 -189t-83 -199q-84 -75 -223 -75z" />
    <glyph glyph-name="uni2084" unicode="&#x2084;" horiz-adv-x="759" 
d="M408 350v232l-162 -232h162zM408 0v184h-361v170l356 510h185v-514h125v-166h-125v-184h-180z" />
    <glyph glyph-name="uni2085" unicode="&#x2085;" horiz-adv-x="677" 
d="M350 -12q-118 0 -197 45t-120 117l178 98q39 -82 125 -82q49 0 83 33t34 84t-34 85t-85 33q-82 0 -121 -75l-170 67l63 471h486v-174h-338l-21 -147q57 29 123 28q125 -1 205 -77t80 -209t-86 -215q-87 -82 -205 -82z" />
    <glyph glyph-name="uni2086" unicode="&#x2086;" horiz-adv-x="722" 
d="M360 162q57 0 99 41q41 41 41 98t-41 96t-99 39t-96 -40q-39 -40 -39 -97t39 -97t96 -40zM686 298q0 -134 -92 -222t-233 -88q-140 0 -231 89t-91 215t76 240l211 332h217l-170 -264q8 2 22 2q123 0 207 -85t84 -219z" />
    <glyph glyph-name="uni2087" unicode="&#x2087;" horiz-adv-x="649" 
d="M45 688v176h557v-164l-305 -700h-203l312 688h-361z" />
    <glyph glyph-name="uni2088" unicode="&#x2088;" horiz-adv-x="681" 
d="M340 535q41 1 66 25q24 24 24 64t-24 66t-66 25q-41 0 -65 -26q-23 -25 -23 -65t23 -65q24 -24 65 -24zM340 154q49 0 80 32t31 78q0 47 -31 79t-80 32t-80 -33t-31 -79q0 -45 31 -77t80 -32zM340 -12q-129 0 -210 78t-81 198t94 195q-67 63 -67 171t72 178t191 69
q117 0 193 -71t76 -174t-67 -171q90 -74 90 -197q0 -124 -81 -200t-210 -76z" />
    <glyph glyph-name="uni2089" unicode="&#x2089;" horiz-adv-x="722" 
d="M362 428q57 0 97 41q39 41 39 98t-39 97t-97 41q-58 0 -97 -41q-40 -40 -40 -98t40 -98t97 -40zM328 264q-123 0 -207 85t-84 219t92 222t231 87q140 1 232 -89t92 -216t-76 -240l-209 -332h-219l170 264h-22z" />
    <glyph glyph-name="uni208A" unicode="&#x208a;" horiz-adv-x="538" 
d="M51 354v156h144v139h151v-139h141v-156h-141v-141h-151v141h-144z" />
    <glyph glyph-name="uni208B" unicode="&#x208b;" horiz-adv-x="538" 
d="M51 354v156h436v-156h-436z" />
    <glyph glyph-name="uni208C" unicode="&#x208c;" horiz-adv-x="532" 
d="M49 252v151h436v-151h-436zM49 457v149h436v-149h-436z" />
    <glyph glyph-name="uni208D" unicode="&#x208d;" horiz-adv-x="548" 
d="M51 434q0 364 309 598l117 -153q-235 -171 -235 -439t237 -442l-117 -156q-311 228 -311 592z" />
    <glyph glyph-name="uni208E" unicode="&#x208e;" horiz-adv-x="548" 
d="M499 434q0 -360 -311 -592l-116 156q236 174 236 442t-236 439l118 153q309 -238 309 -598z" />
    <glyph glyph-name="uni20A1" unicode="&#x20a1;" horiz-adv-x="1556" 
d="M559 272q57 -33 103 -47l417 1018q-41 25 -104 41zM295 749q0 -230 156 -393l387 944q-231 -2 -387 -162t-156 -389zM836 199q162 0 284 79t191 211l198 -110q-102 -184 -276 -292t-393 -107q-59 0 -131 10l-97 -236h-143l109 266q-49 18 -103 48l-129 -314h-141l157 385
q-137 106 -214 265t-76 344q0 326 223 546t545 222q27 0 84 -5l86 209h145l-98 -237q57 -16 106 -39l113 276h145l-141 -344q135 -94 219 -237l-192 -121q-49 88 -115 147l-397 -966h41z" />
    <glyph glyph-name="uni20A2" unicode="&#x20a2;" horiz-adv-x="1556" 
d="M840 -20q-330 0 -549 223t-219 547t223 544t545 222q209 0 384 -102t275 -275l-192 -121q-72 133 -193 208t-274 74q-231 0 -388 -160t-157 -392q0 -190 109 -337q110 -146 286 -194v655h219v-157q84 158 283 157h94v-210h-127q-133 0 -190 -73t-58 -235v-151
q139 18 244 97q104 79 166 204l199 -109q-98 -191 -278 -303t-402 -112z" />
    <glyph glyph-name="franc" unicode="&#x20a3;" horiz-adv-x="1042" 
d="M100 0v1495h846v-211h-624v-274h624v-195h-624v-158h624v-194h-624v-463h-222z" />
    <glyph glyph-name="lira" unicode="&#x20a4;" horiz-adv-x="1419" 
d="M371 125q90 0 153 70q-100 71 -177 71t-77 -69q0 -33 28 -53t73 -19zM162 682v176h205q-49 117 -50 234q0 188 125 306t326 118q326 0 446 -250l-198 -99q-70 156 -248 156q-106 0 -172 -65q-66 -64 -66 -166t52 -234h403v-176h-323q76 -170 75 -309q0 -61 -20 -129
q127 -86 216 -86t129 49t40 164v69h227v-98q0 -362 -354 -362q-164 0 -332 124q-105 -127 -255 -127q-150 1 -222 59t-72 158t70 161q70 63 180 63t238 -78q2 8 2 45t-21 96t-41 97t-61 104h-299z" />
    <glyph glyph-name="uni20A6" unicode="&#x20a6;" horiz-adv-x="1671" 
d="M1208 567h-143l143 -227v227zM463 938h151l-151 242v-242zM1208 698v109h-295l68 -109h227zM463 807v-109h303l-68 109h-235zM68 807v131h174v557h237l350 -557h379v557h224v-557h174v-131h-174v-109h174v-131h-174v-567h-224l-358 567h-387v-567h-221v567h-174v131h174
v109h-174z" />
    <glyph glyph-name="peseta" unicode="&#x20a7;" horiz-adv-x="2746" 
d="M575 1290h-253v-637h253q150 0 241 90q91 89 91 227t-91 229t-241 91zM1681 0q-233 0 -319 89t-86 329v409h-164q-45 -168 -187 -274t-335 -107h-268v-446h-222v1495h490q220 0 370 -134t168 -337h148v242l219 120v-362h227v-197h-227v-407q0 -137 39 -175t178 -38h473
q90 0 138 32q49 32 49 78q0 45 -33 69q-43 31 -150 49q-107 17 -153 27q-121 28 -186 84q-32 28 -55 76q-24 48 -23 111q0 133 108 224q109 91 283 90q285 0 417 -199l-182 -100q-80 117 -231 116q-84 0 -129 -34t-45 -73t13 -57q25 -35 200 -67l30 -6q198 -34 277 -107
q80 -73 80 -203q1 -131 -99 -225t-319 -92h-494z" />
    <glyph glyph-name="uni20A8" unicode="&#x20a8;" horiz-adv-x="2019" 
d="M1787 566q161 -74 161 -249q0 -124 -102 -227q-102 -102 -351 -102q-328 0 -591 169t-492 556h129q157 0 243 90t86 212q0 121 -85 197t-244 76h-219v-1288h-222v1495h463q236 0 383 -139t148 -348q0 -152 -83 -276t-233 -173q146 -193 322 -281t403 -90q113 0 169 36
t57 93q0 78 -216 117q-17 4 -53 11q-181 36 -242 89q-92 82 -92 207t109 216t283 90q285 0 417 -199l-182 -100q-80 117 -231 116q-84 0 -129 -34t-45 -77q0 -72 99 -99t125 -27q113 -24 138 -30q25 -7 77 -31z" />
    <glyph glyph-name="uni20A9" unicode="&#x20a9;" horiz-adv-x="2230" 
d="M586 567l63 -233l74 233h-137zM1116 1165l-72 -227h144zM1511 567l76 -237l66 237h-142zM518 807l31 -109h215l35 109h-281zM1438 807l32 -109h220l30 109h-282zM1004 807l-33 -109h293l-35 109h-225zM61 807v131h193l-160 557h234l153 -557h359l176 557h207l174 -557
h360l160 557h225l-164 -557h191v-131h-230l-32 -109h262v-131h-301l-166 -567h-221l-176 567h-375l-178 -567h-228l-164 567h-299v131h263l-33 109h-230z" />
    <glyph glyph-name="uni20AA" unicode="&#x20aa;" horiz-adv-x="1560" 
d="M479 0v1147q135 0 178 -40t43 -165v-735h199q195 0 267 78t73 274v936h221v-936q0 -285 -135 -422t-416 -137h-430zM100 0v1495h426q283 0 419 -138t136 -421v-391q2 -117 -45 -162t-176 -45v598q0 196 -74 274t-270 78h-194v-1288h-222z" />
    <glyph glyph-name="Euro" unicode="&#x20ac;" 
d="M61 872v177h158q11 203 147 335t357 132t360 -156l-161 -146q-76 88 -204 88t-197 -68q-69 -69 -79 -185h496l-31 -177h-465v-249h426l-26 -174h-400q4 -119 72 -187t201 -68t209 105l188 -133q-131 -186 -401 -186q-233 0 -361 126q-127 127 -131 343h-158v174h158v249
h-158z" />
    <glyph glyph-name="uni20AE" unicode="&#x20ae;" horiz-adv-x="1239" 
d="M510 1286h-424v209h1069v-209h-424v-297l248 103v-140l-248 -102v-143l248 102v-139l-248 -103v-567h-221v477l-254 -104v139l254 104v144l-254 -105v140l254 104v387z" />
    <glyph glyph-name="uni20B1" unicode="&#x20b1;" horiz-adv-x="1476" 
d="M709 1290h-254v-133h530q-96 133 -276 133zM709 653q182 0 276 133h-530v-133h254zM1040 970q0 19 -4 56h-581v-108h581q4 33 4 52zM72 1026v131h161v338h490q180 0 316 -93t194 -245h182v-131h-153q4 -37 4 -56t-4 -52h153v-132h-182q-55 -154 -191 -246t-319 -94h-268
v-446h-222v786h-161v132h161v108h-161z" />
    <glyph glyph-name="published" unicode="&#x2117;" horiz-adv-x="1673" 
d="M887 862h-137v-264h137q57 0 94 40t37 94t-38 92t-93 38zM557 236v788h358q125 0 210 -84t85 -208t-81 -211t-209 -87h-170v-198h-193zM837 41q245 0 413 173t167 417q0 244 -168 416q-169 172 -413 172t-410 -171t-166 -417t166 -418t411 -172zM838 -139
q-317 0 -542 225q-224 226 -224 544t224 544t542 225q318 0 541 -225q225 -226 225 -544t-224 -544t-542 -225z" />
    <glyph glyph-name="servicemark" unicode="&#x2120;" horiz-adv-x="1308" 
d="M274 887q-158 0 -233 110l137 93q35 -63 96 -64q27 0 43 15q17 15 17 40q1 39 -135 71q-51 11 -94 56q-42 45 -42 120q-1 75 59 124t152 49q127 0 207 -98l-129 -82q-29 49 -83 49t-54 -41q0 -29 137 -67q51 -14 94 -60t43 -124q1 -79 -59 -135t-156 -56zM563 901v594
h150l178 -235l188 235h138v-594h-158v342l-170 -201l-168 201v-342h-158z" />
    <glyph glyph-name="trademark" unicode="&#x2122;" horiz-adv-x="1363" 
d="M236 901v449h-168v145h489v-145h-164v-449h-157zM618 901v594h150l178 -235l189 235h137v-594h-158v342l-170 -201l-168 201v-342h-158z" />
    <glyph glyph-name="uni2153" unicode="&#x2153;" horiz-adv-x="1757" 
d="M47 631v178h168v416q-43 -59 -135 -60h-12v187h6q78 0 112 43t35 100h185v-686h161v-178h-520zM1415 -12q-193 0 -297 116l150 125q57 -70 139 -69q51 0 84 28t33 73q0 46 -39 71t-103 24h-88v170h86q59 0 94 27q34 27 34 69t-30 66t-81 25q-80 0 -125 -72l-144 107
q96 129 273 129q135 0 217 -68q82 -69 82 -179t-92 -179q112 -66 112 -189q0 -122 -83 -198t-222 -76zM199 0l1079 1495h256l-1079 -1495h-256z" />
    <glyph glyph-name="uni2154" unicode="&#x2154;" horiz-adv-x="1787" 
d="M1446 -12q-193 0 -297 116l149 125q57 -70 140 -69q51 0 84 28q32 28 32 73q0 46 -38 71q-39 25 -103 24h-88v170h86q59 0 93 27t34 69t-30 66t-81 25q-80 0 -124 -72l-144 107q96 129 273 129q135 0 217 -68q82 -69 82 -179t-93 -179q113 -66 113 -189q0 -122 -83 -198
t-222 -76zM49 631v153q0 74 39 138t82 97q44 35 138 93t115 88t21 62t-27 57q-28 25 -79 24q-94 0 -143 -116l-162 84q90 197 307 196q133 1 216 -71t83 -182t-69 -173t-143 -108t-99 -61t-52 -46q-27 -29 -28 -57h389v-178h-588zM229 0l1080 1495h256l-1080 -1495h-256z
" />
    <glyph glyph-name="uni2155" unicode="&#x2155;" horiz-adv-x="1738" 
d="M47 631v178h168v416q-43 -59 -135 -60h-12v187h6q78 0 112 43t35 100h185v-686h161v-178h-520zM1412 -12q-118 0 -198 45t-120 117l178 98q39 -82 125 -82q49 0 83 33t33 84q0 51 -33 85q-34 34 -85 33q-82 0 -121 -75l-170 67l63 471h486v-174h-338l-21 -147
q57 29 123 28q125 -1 205 -77t80 -209t-86 -215t-204 -82zM199 0l1079 1495h256l-1079 -1495h-256z" />
    <glyph glyph-name="uni2156" unicode="&#x2156;" horiz-adv-x="1769" 
d="M49 631v153q0 74 39 138t82 97q44 35 138 93t115 88t21 62t-27 57q-28 25 -79 24q-94 0 -143 -116l-162 84q90 197 307 196q133 1 216 -71t83 -182t-69 -173t-143 -108t-99 -61t-52 -46q-27 -29 -28 -57h389v-178h-588zM1733 285q-1 -133 -87 -215t-204 -82t-198 45
q-79 45 -120 117l179 98q39 -82 124 -82q49 0 83 33t34 84t-34 85t-85 33q-82 0 -120 -75l-170 67l63 471h485v-174h-337l-21 -147q57 29 123 28q125 -1 205 -77t80 -209zM229 0l1080 1495h256l-1080 -1495h-256z" />
    <glyph glyph-name="uni2157" unicode="&#x2157;" horiz-adv-x="1744" 
d="M319 618q-193 0 -296 117l149 125q57 -70 139 -69q51 -1 84 27t33 74t-39 71t-102 24h-88v170h86q59 0 93 27q34 26 34 68t-30 67t-81 24q-80 0 -125 -71l-143 106q96 129 272 129q135 1 217 -67t82 -178t-92 -181q113 -67 113 -189q1 -122 -83 -198t-223 -76zM1418 -12
q-118 0 -198 45q-79 45 -120 117l178 98q39 -82 125 -82q49 0 83 33t34 84t-34 85t-85 33q-82 0 -121 -75l-170 67l64 471h485v-174h-338l-21 -147q57 29 123 28q125 -1 205 -77t80 -209t-86 -215t-204 -82zM205 0l1079 1495h256l-1079 -1495h-256z" />
    <glyph glyph-name="uni2158" unicode="&#x2158;" horiz-adv-x="1738" 
d="M408 981v231l-162 -231h162zM408 631v184h-361v170l356 510h185v-514h125v-166h-125v-184h-180zM1412 -12q-118 0 -198 45t-120 117l178 98q39 -82 125 -82q49 0 83 33t33 84q0 51 -33 85q-34 34 -85 33q-82 0 -121 -75l-170 67l63 471h486v-174h-338l-21 -147
q57 29 123 28q125 -1 205 -77t80 -209t-86 -215t-204 -82zM199 0l1079 1495h256l-1079 -1495h-256z" />
    <glyph glyph-name="uni2159" unicode="&#x2159;" horiz-adv-x="1718" 
d="M1356 162q57 0 98 41t41 98t-41 96t-98 39t-96 -40t-39 -97t39 -97t96 -40zM47 631v178h168v416q-43 -59 -135 -60h-12v187h6q78 0 112 43t35 100h185v-686h161v-178h-520zM1357 -12q-140 0 -232 89q-91 89 -91 215t76 240l211 332h217l-170 -264q8 2 23 2q123 0 207 -85
t83 -219q0 -134 -92 -222t-232 -88zM199 0l1079 1495h256l-1079 -1495h-256z" />
    <glyph glyph-name="uni215A" unicode="&#x215a;" horiz-adv-x="1714" 
d="M1352 162q57 0 98 41t41 98t-41 96t-98 39q-56 0 -96 -40t-40 -97t40 -97q39 -40 96 -40zM350 618q-118 0 -197 46t-120 116l178 99q39 -82 125 -82q49 1 83 33t34 83t-34 85t-85 34q-82 0 -121 -76l-170 68l63 471h486v-174h-338l-21 -147q57 29 123 28q125 0 205 -77
t80 -210t-86 -215q-87 -82 -205 -82zM1353 -12q-140 0 -232 89q-91 89 -91 215t76 240l211 332h217l-170 -264q8 2 22 2q123 0 207 -85t84 -219t-92 -222t-232 -88zM195 0l1079 1495h256l-1079 -1495h-256z" />
    <glyph glyph-name="uni215B" unicode="&#x215b;" horiz-adv-x="1742" 
d="M1401 535q41 1 65 25t25 64q0 40 -25 66q-26 26 -66 25q-40 0 -64 -26q-24 -25 -24 -65t24 -65q24 -24 65 -24zM1401 154q49 0 80 32t30 78q0 47 -30 79q-31 32 -80 32t-80 -33t-31 -79q0 -45 31 -77t80 -32zM47 631v178h168v416q-43 -59 -135 -60h-12v187h6q78 0 112 43
t35 100h185v-686h161v-178h-520zM199 0l1079 1495h256l-1079 -1495h-256zM1401 -12q-129 0 -210 78t-81 198t94 195q-68 63 -68 171t74 178q72 70 190 69q118 0 194 -71t75 -174q0 -103 -67 -171q90 -74 90 -197q0 -124 -81 -200t-210 -76z" />
    <glyph glyph-name="uni215C" unicode="&#x215c;" horiz-adv-x="1751" 
d="M1409 535q41 1 66 25t25 64t-26 66q-24 26 -65 25q-41 0 -65 -26q-24 -25 -23 -65q-1 -40 23 -64t65 -25zM1409 154q49 0 80 32t31 78q0 47 -31 79t-80 32t-80 -33t-31 -79q0 -45 31 -77t80 -32zM319 618q-193 0 -296 117l149 125q57 -70 139 -69q51 -1 84 27t33 74
t-39 71t-102 24h-88v170h86q59 0 93 27q34 26 34 68t-30 67t-81 24q-80 0 -125 -71l-143 106q96 129 272 129q135 1 217 -67t82 -178t-92 -181q113 -67 113 -189q1 -122 -83 -198t-223 -76zM205 0l1079 1495h256l-1079 -1495h-256zM1409 -12q-129 0 -210 78t-81 198t94 195
q-68 63 -68 171t74 178q72 70 190 69q118 0 194 -71t76 -174t-68 -171q90 -74 90 -197q0 -124 -81 -200t-210 -76z" />
    <glyph glyph-name="uni215D" unicode="&#x215d;" horiz-adv-x="1740" 
d="M1399 535q41 1 65 25t25 64q0 40 -25 66q-26 26 -66 25q-40 0 -64 -26q-24 -25 -24 -65t24 -65q24 -24 65 -24zM1399 154q49 0 80 32t30 78q0 47 -30 79q-31 32 -80 32t-80 -33t-31 -79q0 -45 31 -77t80 -32zM350 618q-118 0 -197 46t-120 116l178 99q39 -82 125 -82
q49 1 83 33t34 83t-34 85t-85 34q-82 0 -121 -76l-170 68l63 471h486v-174h-338l-21 -147q57 29 123 28q125 0 205 -77t80 -210t-86 -215q-87 -82 -205 -82zM195 0l1079 1495h256l-1079 -1495h-256zM1399 -12q-129 0 -210 78t-81 198t94 195q-68 63 -68 171t74 178
q72 70 190 69q118 0 194 -71t75 -174q0 -103 -68 -171q91 -74 91 -197q0 -124 -81 -200t-210 -76z" />
    <glyph glyph-name="uni215E" unicode="&#x215e;" horiz-adv-x="1634" 
d="M1292 535q41 1 66 25q24 24 24 64t-24 66t-66 25q-40 0 -64 -26q-24 -25 -24 -65t24 -64t64 -25zM1292 154q49 0 80 32t31 78q0 47 -31 79t-80 32t-80 -33q-30 -33 -30 -79t30 -78q31 -31 80 -31zM45 1319v176h557v-164l-305 -700h-203l312 688h-361zM90 0l1079 1495h256
l-1079 -1495h-256zM1292 -12q-129 0 -210 78t-81 198t95 195q-68 63 -68 171t73 178t191 69q118 0 193 -71q76 -71 76 -174t-68 -171q90 -74 90 -197q0 -124 -81 -200t-210 -76z" />
    <glyph glyph-name="uni215F" unicode="&#x215f;" horiz-adv-x="1568" 
d="M47 631v178h168v416q-43 -59 -135 -60h-12v187h6q78 0 112 43t35 100h185v-686h161v-178h-520zM199 0l1079 1495h256l-1079 -1495h-256z" />
    <glyph glyph-name="arrowleft" unicode="&#x2190;" horiz-adv-x="1835" 
d="M1667 856v-213h-1196q176 -123 295 -334l-182 -125q-74 152 -196 290t-261 220v107q135 87 259 237t175 279l195 -113q-45 -98 -124 -191t-165 -157h1200z" />
    <glyph glyph-name="arrowup" unicode="&#x2191;" horiz-adv-x="1835" 
d="M791 0v1178q-156 -197 -347 -285l-112 192q130 53 280 177t236 258h102q84 -135 234 -258t280 -177l-112 -192q-197 90 -346 285v-1178h-215z" />
    <glyph glyph-name="arrowright" unicode="&#x2192;" horiz-adv-x="1835" 
d="M127 643v213h1198q-197 156 -285 348l195 113q53 -131 175 -282t257 -234v-107q-137 -84 -260 -222t-197 -288l-180 125q113 207 293 334h-1196z" />
    <glyph glyph-name="arrowdown" unicode="&#x2193;" horiz-adv-x="1835" 
d="M786 1495h218v-1178q154 197 348 287l110 -194q-130 -52 -280 -176t-234 -259h-102q-84 135 -235 258t-279 177l110 194q190 -88 344 -282v1173z" />
    <glyph glyph-name="uni2196" unicode="&#x2196;" horiz-adv-x="1835" 
d="M1376 131l-848 848q31 -250 -43 -449l-215 58q53 129 72 315q18 186 -14 357l71 71q169 -35 355 -17t315 75l57 -215q-203 -74 -446 -46l848 -847z" />
    <glyph glyph-name="uni2197" unicode="&#x2197;" horiz-adv-x="1835" 
d="M424 129l-152 152l848 847q-250 -31 -448 43l59 215q129 -53 315 -71t355 14l74 -72q-35 -170 -17 -355t72 -314l-215 -58q-74 197 -43 447z" />
    <glyph glyph-name="uni2198" unicode="&#x2198;" horiz-adv-x="1835" 
d="M1432 211q-170 35 -356 17t-314 -72l-57 215q197 74 446 43l-848 848l152 151l848 -848q-31 248 43 449l215 -60q-53 -129 -71 -315t13 -354z" />
    <glyph glyph-name="uni2199" unicode="&#x2199;" horiz-adv-x="1835" 
d="M1069 125q-127 55 -314 73t-356 -16l-73 72q35 170 16 356q-18 186 -72 316l215 57q74 -203 43 -448l848 847l152 -151l-846 -846q244 29 446 -45z" />
    <glyph glyph-name="partialdiff" unicode="&#x2202;" horiz-adv-x="1193" 
d="M596 190q125 0 215 92t90 219q0 128 -88 219t-215 91t-217 -90t-90 -220q0 -131 90 -221t215 -90zM597 -16q-218 0 -371 148q-152 148 -152 366t143 363q143 144 352 145q137 0 228 -64q-147 233 -607 553h332q594 -463 594 -987q0 -221 -150 -373q-151 -151 -369 -151z
" />
    <glyph glyph-name="increment" unicode="&#x2206;" horiz-adv-x="1837" 
d="M918 1092l-504 -879h1009zM1796 0h-1755l879 1520z" />
    <glyph glyph-name="product" unicode="&#x220f;" horiz-adv-x="1568" 
d="M82 1282v213h1407v-213h-260v-1282h-221v1282h-447v-1282h-221v1282h-258z" />
    <glyph glyph-name="summation" unicode="&#x2211;" horiz-adv-x="1153" 
d="M72 0v236l491 536l-473 506v217h991v-211h-710l477 -514l-514 -557h747v-213h-1009z" />
    <glyph glyph-name="minus" unicode="&#x2212;" horiz-adv-x="935" 
d="M90 653v189h758v-189h-758z" />
    <glyph glyph-name="radical" unicode="&#x221a;" horiz-adv-x="1615" 
d="M92 819v205h342l287 -772l569 1243h240l-701 -1495h-233l-315 819h-189z" />
    <glyph glyph-name="infinity" unicode="&#x221e;" horiz-adv-x="1873" 
d="M1362 621q68 0 117 50q49 51 49 117t-49 116t-115 50t-132 -42q-67 -42 -157 -121q181 -170 287 -170zM514 618q109 0 289 170q-178 164 -289 164q-68 0 -118 -50t-50 -117t50 -117t118 -50zM512 430q-146 0 -252 104t-106 254q0 148 105 252t253 105q111 1 212 -59
t216 -166q238 225 422 225q150 -1 254 -105t104 -252t-104 -253q-104 -104 -254 -105q-106 0 -206 59t-218 168q-115 -107 -216 -167t-210 -60z" />
    <glyph glyph-name="integral" unicode="&#x222b;" horiz-adv-x="735" 
d="M16 -418v203q143 0 181 38q37 38 36 177v1077q-1 240 89 329t331 89h19v-203q-143 0 -180 -38t-37 -179v-1073q0 -242 -89 -331t-331 -89h-19z" />
    <glyph glyph-name="approxequal" unicode="&#x2248;" horiz-adv-x="921" 
d="M664 635q68 0 176 47v-190q-82 -48 -167 -48t-216 38t-193 38t-182 -55v190q115 55 185 55q69 0 199 -37q130 -38 198 -38zM658 973q66 0 182 51v-190q-90 -52 -173 -52t-209 39t-194 39t-182 -53v190q110 53 186 53t200 -38q124 -39 190 -39z" />
    <glyph glyph-name="notequal" unicode="&#x2260;" horiz-adv-x="935" 
d="M848 1008v-189h-264l-70 -149h334v-189h-422l-64 -137h-172l62 137h-162v189h248l70 149h-318v189h404l65 141h178l-65 -141h176z" />
    <glyph glyph-name="equivalence" unicode="&#x2261;" horiz-adv-x="935" 
d="M90 987v189h758v-189h-758zM90 313v187h758v-187h-758zM90 649v189h758v-189h-758z" />
    <glyph glyph-name="lessequal" unicode="&#x2264;" horiz-adv-x="935" 
d="M88 279v188h758v-188h-758zM846 543l-758 282v189l758 278v-194l-524 -178l524 -183v-194z" />
    <glyph glyph-name="greaterequal" unicode="&#x2265;" horiz-adv-x="935" 
d="M88 279v188h758v-188h-758zM88 543v194l522 183l-522 178v194l758 -278v-189z" />
    <glyph glyph-name="squaremultiply" unicode="&#x22a0;" horiz-adv-x="1896" 
d="M680 340l-131 129l270 281l-274 286l131 129l272 -282l273 284l131 -129l-277 -286l273 -283l-131 -129l-271 278zM428 1282v-1069h1042v1069h-1042zM205 0v1495h1487v-1495h-1487z" />
    <glyph glyph-name="house" unicode="&#x2302;" horiz-adv-x="1789" 
d="M1585 0h-1380v874l690 662l690 -662v-874z" />
    <glyph glyph-name="blacksquare" unicode="&#x25a0;" horiz-adv-x="1896" 
d="M205 0v1495h1487v-1495h-1487z" />
    <glyph glyph-name="blacksquare" unicode="&#xe740;" horiz-adv-x="1896" 
d="M205 0v1495h1487v-1495h-1487z" />
    <glyph glyph-name="whitesquare" unicode="&#x25a1;" horiz-adv-x="1896" 
d="M428 1282v-1069h1042v1069h-1042zM205 0v1495h1487v-1495h-1487z" />
    <glyph glyph-name="blacksmallsquare" unicode="&#x25aa;" horiz-adv-x="1433" 
d="M205 0v1024h1024v-1024h-1024z" />
    <glyph glyph-name="whitesmallsquare" unicode="&#x25ab;" horiz-adv-x="1433" 
d="M426 809v-592h584v592h-584zM205 0v1024h1024v-1024h-1024z" />
    <glyph glyph-name="triagup" unicode="&#x25b2;" horiz-adv-x="1837" 
d="M1796 0h-1755l879 1520z" />
    <glyph glyph-name="triagrt" unicode="&#x25ba;" horiz-adv-x="1837" 
d="M205 -117v1755l1519 -876z" />
    <glyph glyph-name="triagdn" unicode="&#x25bc;" horiz-adv-x="1837" 
d="M41 1495h1755l-876 -1520z" />
    <glyph glyph-name="triaglf" unicode="&#x25c4;" horiz-adv-x="1837" 
d="M1632 1638v-1755l-1519 879z" />
    <glyph glyph-name="lozenge" unicode="&#x25ca;" horiz-adv-x="1726" 
d="M352 752l500 -500l491 493l-499 498zM850 -33l-782 783l778 778l782 -783z" />
    <glyph glyph-name="whitecircle" unicode="&#x25cb;" horiz-adv-x="1898" 
d="M949 197q228 1 386 161t158 390t-158 391t-386 161t-385 -162q-156 -162 -156 -390q0 -229 156 -391q157 -160 385 -160zM950 -20q-317 0 -541 225q-225 225 -225 543t224 542q224 226 542 226t542 -226t224 -542q0 -317 -224 -543q-225 -225 -542 -225z" />
    <glyph glyph-name="whitecircle" unicode="&#x25ef;" horiz-adv-x="1898" 
d="M949 197q228 1 386 161t158 390t-158 391t-386 161t-385 -162q-156 -162 -156 -390q0 -229 156 -391q157 -160 385 -160zM950 -20q-317 0 -541 225q-225 225 -225 543t224 542q224 226 542 226t542 -226t224 -542q0 -317 -224 -543q-225 -225 -542 -225z" />
    <glyph glyph-name="bullseye" unicode="&#x25ce;" horiz-adv-x="1898" 
d="M1145 748q0 -80 -55 -136q-56 -56 -138 -57q-82 0 -139 56q-57 57 -57 137t57 136t139 56t138 -56t55 -136zM1229 747q0 113 -79 193t-198 80q-118 0 -198 -80t-80 -194t80 -191q80 -78 198 -78t198 78q79 78 79 192zM477 747q0 201 136 341t339 140t339 -140
q136 -141 136 -341t-136 -339q-136 -140 -339 -140t-339 140t-136 339zM1520 748q0 238 -167 398t-403 161q-236 0 -402 -161q-166 -160 -167 -398q0 -238 167 -399q166 -161 402 -161t403 161t167 399zM1718 748q0 -316 -225 -542t-543 -226t-542 225q-226 225 -226 543
t226 542q226 226 542 226t542 -226t226 -542z" />
    <glyph glyph-name="blackcircle" unicode="&#x25cf;" horiz-adv-x="1898" 
d="M950 -20q-317 0 -541 225q-225 225 -225 543t224 542q224 226 542 226t542 -226t224 -542q0 -317 -224 -543q-225 -225 -542 -225z" />
    <glyph glyph-name="uni25E2" unicode="&#x25e2;" horiz-adv-x="1837" 
d="M1788 1092l-1241 -1242l-455 1696z" />
    <glyph glyph-name="uni25E3" unicode="&#x25e3;" horiz-adv-x="1837" 
d="M1294 -150l-1241 1242l1696 454z" />
    <glyph glyph-name="uni25E4" unicode="&#x25e4;" horiz-adv-x="1837" 
d="M1755 -111l-1696 455l1241 1241z" />
    <glyph glyph-name="uni25E5" unicode="&#x25e5;" horiz-adv-x="1837" 
d="M1786 334l-1696 -453l457 1696z" />
    <glyph glyph-name="uni2605" unicode="&#x2605;" horiz-adv-x="1843" 
d="M1151 621l147 -447l-383 277l-380 -277l147 449l-381 276l469 -2l148 446l145 -446l471 -2z" />
    <glyph glyph-name="ballotboxwithx" unicode="&#x2612;" horiz-adv-x="1433" 
d="M571 766l144 -143l145 149l115 -115l-144 -147l146 -143l-115 -115l-145 141l-142 -145l-114 114l141 146l-145 143zM408 825v-626h618v626h-618zM205 0v1024h1024v-1024h-1024z" />
    <glyph glyph-name="uni263C" unicode="&#x263c;" horiz-adv-x="1900" 
d="M580 516l-232 -176l-61 94l272 115zM1309 983l231 176l62 -94l-273 -115zM743 365l-112 -273l-96 58l178 235zM1145 1135l112 272l97 -57l-178 -236zM1176 385l178 -235l-97 -58l-112 273zM713 1114l-178 236l96 57l112 -272zM1329 549l273 -113l-58 -96l-235 178z
M559 950l-272 113l57 96l236 -178zM1376 770l291 35v-111l-291 35v41zM512 729l-291 -35v111l291 -35v-41zM965 317l34 -290h-110l35 290h41zM924 1182l-35 291h110l-34 -291h-41zM588 748q0 145 105 250q105 106 251 106t250 -106q106 -106 106 -250t-105 -250t-251 -106
t-251 105q-105 106 -105 251z" />
    <glyph glyph-name="uni263E" unicode="&#x263e;" horiz-adv-x="1611" 
d="M1094 1262q-203 0 -346 -151q-144 -151 -144 -363t144 -364q144 -151 346 -151q66 0 145 25q-166 -117 -365 -117q-250 0 -428 178q-178 179 -178 429t178 428t428 178q199 0 365 -117q-94 25 -145 25z" />
    <glyph glyph-name="spade" unicode="&#x2660;" horiz-adv-x="1884" 
d="M1217 0h-531q55 102 81 154t69 190q43 137 43 250q-43 -121 -131 -200t-224 -79q-136 1 -240 97q-103 96 -104 227q0 168 106 307t376 354l286 230h2l287 -230q263 -211 365 -350t102 -311q0 -131 -94 -226t-232 -95t-230 78q-93 79 -136 198q0 -225 167 -525
q38 -67 38 -69z" />
    <glyph glyph-name="club" unicode="&#x2663;" horiz-adv-x="1884" 
d="M532 266q-152 0 -257 106t-105 257q0 150 105 256t257 106q39 0 86 -14q-39 84 -38 178q0 150 104 255q104 106 254 106t255 -106t105 -255q0 -92 -38 -180q45 16 94 16q150 0 255 -105t105 -256t-105 -257t-257 -107q-115 0 -203 66t-131 174q16 -138 78 -266
q61 -128 90 -180t33 -60h-531q164 307 186 508q-45 -110 -136 -176t-206 -66z" />
    <glyph glyph-name="heart" unicode="&#x2665;" horiz-adv-x="1884" 
d="M182 1118q0 168 109 283t265 115t259 -94q104 -94 121 -236q18 143 122 236q104 94 259 94q157 0 271 -116t114 -282t-108 -354t-367 -477l-291 -322l-289 322q-256 285 -360 474q-105 189 -105 357z" />
    <glyph glyph-name="diamond" unicode="&#x2666;" horiz-adv-x="1884" 
d="M272 799l670 821l670 -821l-670 -819z" />
    <glyph glyph-name="uni267B" unicode="&#x267b;" horiz-adv-x="1886" 
d="M1571 1006l133 -226q18 -29 18 -84q2 -92 -72 -167t-143 -74l-223 387zM879 72h-261q-47 0 -86 24q-82 48 -110 152t10 155h447v-331zM403 1143l129 229q23 37 66 60q88 45 186 18t131 -86l-223 -387zM797 1493h372q45 -2 69 -5q24 -4 54 -24t54 -61l53 -94l84 47
l-119 -322l-332 62l78 45l-137 241q-27 45 -71 72t-75 33l-30 4v2zM377 227h-4l-185 324q-20 39 -28 61q-23 63 20 136l56 94l-82 47l335 59l113 -319l-78 47q-135 -231 -139 -242q-25 -43 -27 -95t9 -81zM1329 72h-110v-97l-218 263l218 260v-95h278q51 0 97 26t67 50
l20 25l2 -4l-186 -322q-27 -39 -40 -56q-13 -18 -47 -34t-81 -16z" />
    <glyph glyph-name="uni267C" unicode="&#x267c;" horiz-adv-x="1886" 
d="M1153 492v71l-170 -201l170 -202v73h84q53 -1 80 19t51 63l145 250l-2 2q-53 -76 -143 -75h-215zM1528 784l-101 174l-225 -129l174 -301q54 0 112 58t56 133q0 36 -16 65zM498 354h2q-37 84 6 162l108 186l62 -36l-88 247l-260 -45l63 -37l-43 -73q-18 -31 -20 -61
t4 -44t22 -49zM680 233h203v259h-348q-29 -41 -7 -122t86 -118q33 -19 66 -19zM817 1335v-2q94 -8 137 -84l109 -186l-62 -37l259 -47l90 250l-64 -37l-43 74q-27 45 -56 57q-30 12 -81 12h-289zM623 1241l-101 -176l223 -129l173 299q-25 47 -102 67t-144 -14
q-39 -24 -49 -47zM1714 750q0 -320 -225 -544t-545 -224t-545 224t-225 544t225 545q225 227 545 227t544 -226q226 -226 226 -546z" />
    <glyph glyph-name="uni267D" unicode="&#x267d;" horiz-adv-x="1886" 
d="M1153 233v-73l-170 202l170 201v-71h215q41 0 77 18t50 39l16 18l2 -2l-145 -250q-16 -29 -28 -43q-33 -37 -103 -39h-84zM1427 958l101 -174q16 -29 16 -65q2 -74 -56 -132t-112 -59l-174 301zM500 354h-2l-144 250q-16 35 -22 49t-4 44t20 61l43 73l-63 37l260 45
l88 -247l-62 36l-108 -186q-18 -35 -20 -75t6 -64zM883 233h-203q-33 0 -66 19q-63 37 -86 118t7 122h348v-259zM817 1335h289q51 0 81 -12t56 -57l43 -74l64 37l-90 -250l-259 47l62 37l-109 186q-18 33 -53 55t-59 25l-25 4v2zM522 1065l101 176q10 23 49 47q68 35 144 15
t102 -68l-173 -299zM211 751q0 -305 215 -519t519 -214t517 214t213 519q0 304 -213 518t-517 214t-519 -214t-215 -518zM1714 750q0 -320 -225 -544t-545 -224t-545 224t-225 544t225 545q225 227 545 227t544 -226q226 -226 226 -546z" />
    <glyph glyph-name="mediumwhitecircle" unicode="&#x26aa;" horiz-adv-x="1429" 
d="M715 184q131 0 223 96t92 232q0 135 -92 231q-92 97 -223 97t-222 -96t-91 -232t90 -232q92 -96 223 -96zM715 -20q-221 0 -376 154t-155 378q0 223 155 378q155 154 376 154t377 -154t156 -378q0 -223 -156 -378q-156 -154 -377 -154z" />
    <glyph glyph-name="mediumblackcircle" unicode="&#x26ab;" horiz-adv-x="1429" 
d="M715 -20q-221 0 -376 156t-155 376q0 221 155 377q155 155 376 155t376 -156t155 -376q0 -221 -155 -377q-155 -155 -376 -155z" />
    <glyph glyph-name="anglebracketleft" unicode="&#x3008;" horiz-adv-x="780" 
d="M508 -471l-465 983l465 983h235l-467 -983l467 -983h-235z" />
    <glyph glyph-name="anglebracketright" unicode="&#x3009;" horiz-adv-x="780" 
d="M279 -471h-236l467 983l-467 983h236l464 -983z" />
    <glyph glyph-name="cordinal" unicode="&#xe181;" horiz-adv-x="729" 
d="M74 1199q0 128 90 218t217 90q92 0 166 -46t110 -124l-141 -69q-41 86 -135 86q-63 0 -107 -45t-43 -109q0 -64 43 -109q43 -44 107 -44q100 0 137 88l144 -68q-86 -176 -298 -176q-110 0 -200 90t-90 218z" />
    <glyph glyph-name="p.smcp" unicode="&#xe200;" horiz-adv-x="1036" 
d="M502 1018h-174v-465h174q110 0 176 67q66 66 66 166t-67 166q-66 66 -175 66zM109 0v1221h403q199 0 326 -125q127 -126 127 -310t-127 -311t-328 -127h-182v-348h-219z" />
    <glyph glyph-name="p.smcp" unicode="&#xf770;" horiz-adv-x="1036" 
d="M502 1018h-174v-465h174q110 0 176 67q66 66 66 166t-67 166q-66 66 -175 66zM109 0v1221h403q199 0 326 -125q127 -126 127 -310t-127 -311t-328 -127h-182v-348h-219z" />
    <glyph glyph-name="a.smcp" unicode="&#xe201;" horiz-adv-x="1189" 
d="M596 920l-170 -482h338zM49 0l436 1221h220l438 -1221h-225l-82 233h-482l-82 -233h-223z" />
    <glyph glyph-name="a.smcp" unicode="&#xf761;" horiz-adv-x="1189" 
d="M596 920l-170 -482h338zM49 0l436 1221h220l438 -1221h-225l-82 233h-482l-82 -233h-223z" />
    <glyph glyph-name="b.smcp" unicode="&#xe202;" horiz-adv-x="1046" 
d="M530 1024h-202v-297h209q94 0 140 41t46 113q0 143 -193 143zM545 524h-217v-325h223q98 0 151 44t54 122q0 159 -211 159zM109 0v1221h415q200 0 308 -87t108 -251t-135 -244q172 -80 172 -281q2 -174 -113 -266t-317 -92h-438z" />
    <glyph glyph-name="b.smcp" unicode="&#xf762;" horiz-adv-x="1046" 
d="M530 1024h-202v-297h209q94 0 140 41t46 113q0 143 -193 143zM545 524h-217v-325h223q98 0 151 44t54 122q0 159 -211 159zM109 0v1221h415q200 0 308 -87t108 -251t-135 -244q172 -80 172 -281q2 -174 -113 -266t-317 -92h-438z" />
    <glyph glyph-name="c.smcp" unicode="&#xe203;" horiz-adv-x="1312" 
d="M707 -16q-270 0 -450 182q-179 182 -179 445t181 445t448 181q172 0 319 -87t227 -230l-192 -113q-51 99 -145 159t-209 60q-176 0 -291 -122t-115 -295t116 -293t285 -119q125 0 220 65q94 66 143 174l203 -98q-80 -162 -228 -258t-333 -96z" />
    <glyph glyph-name="c.smcp" unicode="&#xf763;" horiz-adv-x="1312" 
d="M707 -16q-270 0 -450 182q-179 182 -179 445t181 445t448 181q172 0 319 -87t227 -230l-192 -113q-51 99 -145 159t-209 60q-176 0 -291 -122t-115 -295t116 -293t285 -119q125 0 220 65q94 66 143 174l203 -98q-80 -162 -228 -258t-333 -96z" />
    <glyph glyph-name="d.smcp" unicode="&#xe204;" horiz-adv-x="1171" 
d="M442 1018h-116v-813h123q188 0 306 116q117 117 117 293t-113 290q-114 114 -317 114zM109 0v1221h348q287 0 462 -173q175 -172 175 -436t-180 -438t-451 -174h-354z" />
    <glyph glyph-name="d.smcp" unicode="&#xf764;" horiz-adv-x="1171" 
d="M442 1018h-116v-813h123q188 0 306 116q117 117 117 293t-113 290q-114 114 -317 114zM109 0v1221h348q287 0 462 -173q175 -172 175 -436t-180 -438t-451 -174h-354z" />
    <glyph glyph-name="e.smcp" unicode="&#xe205;" horiz-adv-x="927" 
d="M109 0v1221h729v-205h-512v-301h512v-205h-512v-303h512v-207h-729z" />
    <glyph glyph-name="e.smcp" unicode="&#xf765;" horiz-adv-x="927" 
d="M109 0v1221h729v-205h-512v-301h512v-205h-512v-303h512v-207h-729z" />
    <glyph glyph-name="f.smcp" unicode="&#xe206;" horiz-adv-x="882" 
d="M109 0v1221h692v-205h-475v-301h475v-205h-475v-510h-217z" />
    <glyph glyph-name="f.smcp" unicode="&#xf766;" horiz-adv-x="882" 
d="M109 0v1221h692v-205h-475v-301h475v-205h-475v-510h-217z" />
    <glyph glyph-name="g.smcp" unicode="&#xe207;" horiz-adv-x="1378" 
d="M701 -16q-272 0 -452 183q-179 183 -179 445t180 444t450 181q180 0 324 -84t225 -225l-192 -111q-53 101 -145 157t-212 56q-174 0 -292 -123t-117 -299q0 -176 116 -297t278 -121t259 79q96 79 127 212h-405v207h641v-90q0 -256 -167 -435t-439 -179z" />
    <glyph glyph-name="g.smcp" unicode="&#xf767;" horiz-adv-x="1378" 
d="M701 -16q-272 0 -452 183q-179 183 -179 445t180 444t450 181q180 0 324 -84t225 -225l-192 -111q-53 101 -145 157t-212 56q-174 0 -292 -123t-117 -299q0 -176 116 -297t278 -121t259 79q96 79 127 212h-405v207h641v-90q0 -256 -167 -435t-439 -179z" />
    <glyph glyph-name="h.smcp" unicode="&#xe208;" horiz-adv-x="1136" 
d="M811 0v508h-483v-508h-219v1221h219v-500h483v500h219v-1221h-219z" />
    <glyph glyph-name="h.smcp" unicode="&#xf768;" horiz-adv-x="1136" 
d="M811 0v508h-483v-508h-219v1221h219v-500h483v500h219v-1221h-219z" />
    <glyph glyph-name="i.smcp" unicode="&#xe209;" horiz-adv-x="458" 
d="M119 0v1221h221v-1221h-221z" />
    <glyph glyph-name="i.smcp" unicode="&#xf769;" horiz-adv-x="458" 
d="M119 0v1221h221v-1221h-221z" />
    <glyph glyph-name="j.smcp" unicode="&#xe20a;" horiz-adv-x="858" 
d="M756 360q0 -180 -92 -278t-246 -98q-152 0 -247 64t-132 173l209 88q39 -123 151 -123q63 0 100 44q36 44 36 118v873h221v-861z" />
    <glyph glyph-name="j.smcp" unicode="&#xf76a;" horiz-adv-x="858" 
d="M756 360q0 -180 -92 -278t-246 -98q-152 0 -247 64t-132 173l209 88q39 -123 151 -123q63 0 100 44q36 44 36 118v873h221v-861z" />
    <glyph glyph-name="k.smcp" unicode="&#xe20b;" horiz-adv-x="1099" 
d="M328 0h-219v1221h219v-541l448 541h264l-401 -484l424 -737h-248l-334 582l-153 -181v-401z" />
    <glyph glyph-name="k.smcp" unicode="&#xf76b;" horiz-adv-x="1099" 
d="M328 0h-219v1221h219v-541l448 541h264l-401 -484l424 -737h-248l-334 582l-153 -181v-401z" />
    <glyph glyph-name="l.smcp" unicode="&#xe20c;" horiz-adv-x="864" 
d="M109 0v1221h219v-1010h460v-211h-679z" />
    <glyph glyph-name="l.smcp" unicode="&#xf76c;" horiz-adv-x="864" 
d="M109 0v1221h219v-1010h460v-211h-679z" />
    <glyph glyph-name="m.smcp" unicode="&#xe20d;" horiz-adv-x="1411" 
d="M109 0v1221h217l381 -531l389 531h209v-1221h-220v858l-378 -516l-381 522v-864h-217z" />
    <glyph glyph-name="m.smcp" unicode="&#xf76d;" horiz-adv-x="1411" 
d="M109 0v1221h217l381 -531l389 531h209v-1221h-220v858l-378 -516l-381 522v-864h-217z" />
    <glyph glyph-name="n.smcp" unicode="&#xe20e;" horiz-adv-x="1234" 
d="M109 0v1221h239l561 -848v848h217v-1221h-223l-577 870v-870h-217z" />
    <glyph glyph-name="n.smcp" unicode="&#xf76e;" horiz-adv-x="1234" 
d="M109 0v1221h239l561 -848v848h217v-1221h-223l-577 870v-870h-217z" />
    <glyph glyph-name="o.smcp" unicode="&#xe20f;" horiz-adv-x="1390" 
d="M694 197q170 1 287 121t117 292t-117 294t-287 122t-286 -122t-115 -294q-1 -172 115 -292t286 -121zM694 -16q-260 0 -442 183t-182 443t182 444t442 183q260 0 444 -183q184 -184 183 -444q1 -260 -183 -443t-444 -183z" />
    <glyph glyph-name="o.smcp" unicode="&#xf76f;" horiz-adv-x="1390" 
d="M694 197q170 1 287 121t117 292t-117 294t-287 122t-286 -122t-115 -294q-1 -172 115 -292t286 -121zM694 -16q-260 0 -442 183t-182 443t182 444t442 183q260 0 444 -183q184 -184 183 -444q1 -260 -183 -443t-444 -183z" />
    <glyph glyph-name="q.smcp" unicode="&#xe211;" horiz-adv-x="1404" 
d="M700 -16q-260 0 -441 183t-181 443t181 444t441 183q260 0 444 -183t183 -429q0 -246 -153 -422l161 -203h-254l-448 578h246l155 -199q70 100 70 231q0 172 -117 294t-287 122t-286 -122t-115 -294q0 -172 116 -293t285 -120q78 0 140 24l135 -174q-128 -63 -275 -63z
" />
    <glyph glyph-name="q.smcp" unicode="&#xf771;" horiz-adv-x="1404" 
d="M700 -16q-260 0 -441 183t-181 443t181 444t441 183q260 0 444 -183t183 -429q0 -246 -153 -422l161 -203h-254l-448 578h246l155 -199q70 100 70 231q0 172 -117 294t-287 122t-286 -122t-115 -294q0 -172 116 -293t285 -120q78 0 140 24l135 -174q-128 -63 -275 -63z
" />
    <glyph glyph-name="r.smcp" unicode="&#xe212;" horiz-adv-x="1024" 
d="M109 0v1221h401q198 0 320 -116t122 -290q0 -123 -66 -222t-188 -142l281 -451h-254l-356 600h120q111 0 175 65q63 65 63 155t-58 144t-173 54h-168v-1018h-219z" />
    <glyph glyph-name="r.smcp" unicode="&#xf772;" horiz-adv-x="1024" 
d="M109 0v1221h401q198 0 320 -116t122 -290q0 -123 -66 -222t-188 -142l281 -451h-254l-356 600h120q111 0 175 65q63 65 63 155t-58 144t-173 54h-168v-1018h-219z" />
    <glyph glyph-name="s.smcp" unicode="&#xe213;" horiz-adv-x="989" 
d="M494 -16q-281 0 -463 221l192 151q100 -168 271 -168q86 0 140 50t54 107q0 58 -38 94t-75 51q-37 16 -87 32l-58 19q-78 25 -126 45t-105 60q-115 81 -115 238t114 256t285 99q250 0 412 -186l-178 -135q-80 129 -232 129q-80 0 -129 -42q-49 -41 -49 -97t39 -91
q71 -63 217 -100q76 -25 126 -47q51 -22 109 -62q119 -84 118 -243t-116 -270q-116 -111 -306 -111z" />
    <glyph glyph-name="s.smcp" unicode="&#xf773;" horiz-adv-x="989" 
d="M494 -16q-281 0 -463 221l192 151q100 -168 271 -168q86 0 140 50t54 107q0 58 -38 94t-75 51q-37 16 -87 32l-58 19q-78 25 -126 45t-105 60q-115 81 -115 238t114 256t285 99q250 0 412 -186l-178 -135q-80 129 -232 129q-80 0 -129 -42q-49 -41 -49 -97t39 -91
q71 -63 217 -100q76 -25 126 -47q51 -22 109 -62q119 -84 118 -243t-116 -270q-116 -111 -306 -111z" />
    <glyph glyph-name="t.smcp" unicode="&#xe214;" horiz-adv-x="1028" 
d="M408 0v1014h-332v207h878v-207h-329v-1014h-217z" />
    <glyph glyph-name="t.smcp" unicode="&#xf774;" horiz-adv-x="1028" 
d="M408 0v1014h-332v207h878v-207h-329v-1014h-217z" />
    <glyph glyph-name="u.smcp" unicode="&#xe215;" horiz-adv-x="1081" 
d="M979 420q-1 -204 -121 -320t-318 -116t-318 116t-120 320v801h220v-809q0 -102 60 -164t158 -62t159 62q60 62 61 164v809h219v-801z" />
    <glyph glyph-name="u.smcp" unicode="&#xf775;" horiz-adv-x="1081" 
d="M979 420q-1 -204 -121 -320t-318 -116t-318 116t-120 320v801h220v-809q0 -102 60 -164t158 -62t159 62q60 62 61 164v809h219v-801z" />
    <glyph glyph-name="v.smcp" unicode="&#xe216;" horiz-adv-x="1146" 
d="M461 0l-414 1221h229l299 -893l295 893h230l-412 -1221h-227z" />
    <glyph glyph-name="v.smcp" unicode="&#xf776;" horiz-adv-x="1146" 
d="M461 0l-414 1221h229l299 -893l295 893h230l-412 -1221h-227z" />
    <glyph glyph-name="w.smcp" unicode="&#xe217;" horiz-adv-x="1765" 
d="M393 0l-344 1221h227l232 -871l264 871h215l264 -879l246 879h221l-356 -1221h-219l-262 879l-265 -879h-223z" />
    <glyph glyph-name="w.smcp" unicode="&#xf777;" horiz-adv-x="1765" 
d="M393 0l-344 1221h227l232 -871l264 871h215l264 -879l246 879h221l-356 -1221h-219l-262 879l-265 -879h-223z" />
    <glyph glyph-name="x.smcp" unicode="&#xe218;" horiz-adv-x="1105" 
d="M823 0l-266 434l-268 -434h-246l391 621l-373 600h242l256 -414l250 414h246l-375 -596l385 -625h-242z" />
    <glyph glyph-name="x.smcp" unicode="&#xf778;" horiz-adv-x="1105" 
d="M823 0l-266 434l-268 -434h-246l391 621l-373 600h242l256 -414l250 414h246l-375 -596l385 -625h-242z" />
    <glyph glyph-name="y.smcp" unicode="&#xe219;" horiz-adv-x="1087" 
d="M434 0v575l-391 646h240l260 -437l264 437h240l-392 -648v-573h-221z" />
    <glyph glyph-name="y.smcp" unicode="&#xf779;" horiz-adv-x="1087" 
d="M434 0v575l-391 646h240l260 -437l264 437h240l-392 -648v-573h-221z" />
    <glyph glyph-name="z.smcp" unicode="&#xe21a;" horiz-adv-x="968" 
d="M80 0v203l549 813h-535v205h793v-199l-553 -815h553v-207h-807z" />
    <glyph glyph-name="z.smcp" unicode="&#xf77a;" horiz-adv-x="968" 
d="M80 0v203l549 813h-535v205h793v-199l-553 -815h553v-207h-807z" />
    <glyph glyph-name="anocross.smcp" unicode="&#xe220;" horiz-adv-x="1189" 
d="M49 0l436 1221h220l438 -1221h-225l-322 920l-324 -920h-223z" />
    <glyph glyph-name="aacute.smcp" unicode="&#xe221;" horiz-adv-x="1189" 
d="M508 1331l237 340h234l-303 -340h-168zM596 920l-170 -482h338zM49 0l436 1221h220l438 -1221h-225l-82 233h-482l-82 -233h-223z" />
    <glyph glyph-name="aacute.smcp" unicode="&#xf7e1;" horiz-adv-x="1189" 
d="M508 1331l237 340h234l-303 -340h-168zM596 920l-170 -482h338zM49 0l436 1221h220l438 -1221h-225l-82 233h-482l-82 -233h-223z" />
    <glyph glyph-name="agrave.smcp" unicode="&#xe222;" horiz-adv-x="1189" 
d="M512 1331l-303 340h233l238 -340h-168zM596 920l-170 -482h338zM49 0l436 1221h220l438 -1221h-225l-82 233h-482l-82 -233h-223z" />
    <glyph glyph-name="agrave.smcp" unicode="&#xf7e0;" horiz-adv-x="1189" 
d="M512 1331l-303 340h233l238 -340h-168zM596 920l-170 -482h338zM49 0l436 1221h220l438 -1221h-225l-82 233h-482l-82 -233h-223z" />
    <glyph glyph-name="acircumflex.smcp" unicode="&#xe223;" horiz-adv-x="1189" 
d="M596 920l-170 -482h338zM272 1323l244 340h154l243 -340h-186l-135 193l-131 -193h-189zM49 0l436 1221h220l438 -1221h-225l-82 233h-482l-82 -233h-223z" />
    <glyph glyph-name="acircumflex.smcp" unicode="&#xf7e2;" horiz-adv-x="1189" 
d="M596 920l-170 -482h338zM272 1323l244 340h154l243 -340h-186l-135 193l-131 -193h-189zM49 0l436 1221h220l438 -1221h-225l-82 233h-482l-82 -233h-223z" />
    <glyph glyph-name="adieresis.smcp" unicode="&#xe224;" horiz-adv-x="1189" 
d="M651 1339v283h219v-283h-219zM322 1339v283h219v-283h-219zM596 920l-170 -482h338zM49 0l436 1221h220l438 -1221h-225l-82 233h-482l-82 -233h-223z" />
    <glyph glyph-name="adieresis.smcp" unicode="&#xf7e4;" horiz-adv-x="1189" 
d="M651 1339v283h219v-283h-219zM322 1339v283h219v-283h-219zM596 920l-170 -482h338zM49 0l436 1221h220l438 -1221h-225l-82 233h-482l-82 -233h-223z" />
    <glyph glyph-name="atilde.smcp" unicode="&#xe225;" horiz-adv-x="1189" 
d="M596 920l-170 -482h338zM242 1331q0 119 57 191t141 72t172 -54q82 -53 117 -53q68 0 68 98h145q0 -123 -54 -193t-157 -69q-70 1 -159 53t-121 51q-63 0 -64 -96h-145zM49 0l436 1221h220l438 -1221h-225l-82 233h-482l-82 -233h-223z" />
    <glyph glyph-name="atilde.smcp" unicode="&#xf7e3;" horiz-adv-x="1189" 
d="M596 920l-170 -482h338zM242 1331q0 119 57 191t141 72t172 -54q82 -53 117 -53q68 0 68 98h145q0 -123 -54 -193t-157 -69q-70 1 -159 53t-121 51q-63 0 -64 -96h-145zM49 0l436 1221h220l438 -1221h-225l-82 233h-482l-82 -233h-223z" />
    <glyph glyph-name="aring.smcp" unicode="&#xe226;" horiz-adv-x="1189" 
d="M592 1253q38 0 64 26q26 27 26 63t-27 64t-63 28t-64 -28q-26 -28 -26 -65t26 -63t64 -25zM596 920l-170 -482h338zM592 1573q96 0 164 -68q68 -69 68 -177t-97 -173l416 -1155h-225l-82 233h-482l-82 -233h-223l412 1151q-99 68 -99 177t67 177t163 68z" />
    <glyph glyph-name="aring.smcp" unicode="&#xf7e5;" horiz-adv-x="1189" 
d="M592 1253q38 0 64 26q26 27 26 63t-27 64t-63 28t-64 -28q-26 -28 -26 -65t26 -63t64 -25zM596 920l-170 -482h338zM592 1573q96 0 164 -68q68 -69 68 -177t-97 -173l416 -1155h-225l-82 233h-482l-82 -233h-223l412 1151q-99 68 -99 177t67 177t163 68z" />
    <glyph glyph-name="amacron.smcp" unicode="&#xe228;" horiz-adv-x="1189" 
d="M596 920l-170 -482h338zM322 1331v158h540v-158h-540zM49 0l436 1221h220l438 -1221h-225l-82 233h-482l-82 -233h-223z" />
    <glyph glyph-name="amacron.smcp" unicode="&#xf641;" horiz-adv-x="1189" 
d="M596 920l-170 -482h338zM322 1331v158h540v-158h-540zM49 0l436 1221h220l438 -1221h-225l-82 233h-482l-82 -233h-223z" />
    <glyph glyph-name="abreve.smcp" unicode="&#xe229;" horiz-adv-x="1189" 
d="M596 920l-170 -482h338zM922 1657q0 -145 -91 -243t-247 -97q-156 0 -240 94t-84 246h156q0 -201 174 -205q84 2 129 55t45 150h158zM49 0l436 1221h220l438 -1221h-225l-82 233h-482l-82 -233h-223z" />
    <glyph glyph-name="abreve.smcp" unicode="&#xf640;" horiz-adv-x="1189" 
d="M596 920l-170 -482h338zM922 1657q0 -145 -91 -243t-247 -97q-156 0 -240 94t-84 246h156q0 -201 174 -205q84 2 129 55t45 150h158zM49 0l436 1221h220l438 -1221h-225l-82 233h-482l-82 -233h-223z" />
    <glyph glyph-name="aringacute.smcp" unicode="&#xe22d;" horiz-adv-x="1189" 
d="M592 1253q38 0 64 26q26 27 26 63t-27 64t-63 28t-64 -28q-26 -28 -26 -65t26 -63t64 -25zM502 1651l237 340h234l-303 -340h-168zM596 920l-170 -482h338zM592 1573q96 0 164 -68q68 -69 68 -177t-97 -173l416 -1155h-225l-82 233h-482l-82 -233h-223l412 1151
q-99 68 -99 177t67 177t163 68z" />
    <glyph glyph-name="aringacute.smcp" unicode="&#xf625;" horiz-adv-x="1189" 
d="M592 1253q38 0 64 26q26 27 26 63t-27 64t-63 28t-64 -28q-26 -28 -26 -65t26 -63t64 -25zM502 1651l237 340h234l-303 -340h-168zM596 920l-170 -482h338zM592 1573q96 0 164 -68q68 -69 68 -177t-97 -173l416 -1155h-225l-82 233h-482l-82 -233h-223l412 1151
q-99 68 -99 177t67 177t163 68z" />
    <glyph glyph-name="aogonek.smcp" unicode="&#xe22f;" horiz-adv-x="1189" 
d="M596 920l-170 -482h338zM881 -231q0 -72 100 -72q61 0 137 63l146 -98q-132 -117 -270 -117q-138 -1 -218 61t-80 154q0 145 211 269l-71 204h-482l-82 -233h-223l436 1221h220l438 -1221h-6l4 -2q-164 -102 -212 -144t-48 -85z" />
    <glyph glyph-name="aogonek.smcp" unicode="&#xf642;" horiz-adv-x="1189" 
d="M596 920l-170 -482h338zM881 -231q0 -72 100 -72q61 0 137 63l146 -98q-132 -117 -270 -117q-138 -1 -218 61t-80 154q0 145 211 269l-71 204h-482l-82 -233h-223l436 1221h220l438 -1221h-6l4 -2q-164 -102 -212 -144t-48 -85z" />
    <glyph glyph-name="edieresis.smcp" unicode="&#xe230;" horiz-adv-x="925" 
d="M537 1339v283h219v-283h-219zM207 1339v283h219v-283h-219zM109 0v1221h729v-205h-512v-301h512v-205h-512v-303h512v-207h-729z" />
    <glyph glyph-name="edieresis.smcp" unicode="&#xf7eb;" horiz-adv-x="925" 
d="M537 1339v283h219v-283h-219zM207 1339v283h219v-283h-219zM109 0v1221h729v-205h-512v-301h512v-205h-512v-303h512v-207h-729z" />
    <glyph glyph-name="ae.smcp" unicode="&#xe231;" horiz-adv-x="1679" 
d="M690 895l-215 -469h305zM1591 1221v-207h-702l59 -297h643v-207h-604l60 -301h544v-209h-729l-43 225h-436l-102 -225h-238l565 1221h983z" />
    <glyph glyph-name="ae.smcp" unicode="&#xf7e6;" horiz-adv-x="1679" 
d="M690 895l-215 -469h305zM1591 1221v-207h-702l59 -297h643v-207h-604l60 -301h544v-209h-729l-43 225h-436l-102 -225h-238l565 1221h983z" />
    <glyph glyph-name="aeacute.smcp" unicode="&#xe232;" horiz-adv-x="1685" 
d="M897 1331l238 340h233l-303 -340h-168zM690 895l-215 -469h305zM1591 1221v-207h-702l59 -297h643v-207h-604l60 -301h544v-209h-729l-43 225h-436l-102 -225h-238l565 1221h983z" />
    <glyph glyph-name="aeacute.smcp" unicode="&#xf624;" horiz-adv-x="1685" 
d="M897 1331l238 340h233l-303 -340h-168zM690 895l-215 -469h305zM1591 1221v-207h-702l59 -297h643v-207h-604l60 -301h544v-209h-729l-43 225h-436l-102 -225h-238l565 1221h983z" />
    <glyph glyph-name="cacute.smcp" unicode="&#xe234;" horiz-adv-x="1312" 
d="M707 -16q-270 0 -450 182q-179 182 -179 445t181 445t448 181q172 0 319 -87t227 -230l-192 -113q-51 99 -145 159t-209 60q-176 0 -291 -122t-115 -295t116 -293t285 -119q125 0 220 65q94 66 143 174l203 -98q-80 -162 -228 -258t-333 -96zM612 1331l238 340h233
l-303 -340h-168z" />
    <glyph glyph-name="cacute.smcp" unicode="&#xf643;" horiz-adv-x="1312" 
d="M707 -16q-270 0 -450 182q-179 182 -179 445t181 445t448 181q172 0 319 -87t227 -230l-192 -113q-51 99 -145 159t-209 60q-176 0 -291 -122t-115 -295t116 -293t285 -119q125 0 220 65q94 66 143 174l203 -98q-80 -162 -228 -258t-333 -96zM612 1331l238 340h233
l-303 -340h-168z" />
    <glyph glyph-name="ccircumflex.smcp" unicode="&#xe235;" horiz-adv-x="1312" 
d="M391 1327l244 340h153l244 -340h-186l-135 193l-131 -193h-189zM707 -16q-270 0 -450 182q-179 182 -179 445t181 445t448 181q172 0 319 -87t227 -230l-192 -113q-51 99 -145 159t-209 60q-176 0 -291 -122t-115 -295t116 -293t285 -119q125 0 220 65q94 66 143 174
l203 -98q-80 -162 -228 -258t-333 -96z" />
    <glyph glyph-name="ccircumflex.smcp" unicode="&#xf628;" horiz-adv-x="1312" 
d="M391 1327l244 340h153l244 -340h-186l-135 193l-131 -193h-189zM707 -16q-270 0 -450 182q-179 182 -179 445t181 445t448 181q172 0 319 -87t227 -230l-192 -113q-51 99 -145 159t-209 60q-176 0 -291 -122t-115 -295t116 -293t285 -119q125 0 220 65q94 66 143 174
l203 -98q-80 -162 -228 -258t-333 -96z" />
    <glyph glyph-name="ccaron.smcp" unicode="&#xe236;" horiz-adv-x="1312" 
d="M633 1331l-244 340h189l131 -192l135 192h186l-244 -340h-153zM707 -16q-270 0 -450 182q-179 182 -179 445t181 445t448 181q172 0 319 -87t227 -230l-192 -113q-51 99 -145 159t-209 60q-176 0 -291 -122t-115 -295t116 -293t285 -119q125 0 220 65q94 66 143 174
l203 -98q-80 -162 -228 -258t-333 -96z" />
    <glyph glyph-name="ccaron.smcp" unicode="&#xf644;" horiz-adv-x="1312" 
d="M633 1331l-244 340h189l131 -192l135 192h186l-244 -340h-153zM707 -16q-270 0 -450 182q-179 182 -179 445t181 445t448 181q172 0 319 -87t227 -230l-192 -113q-51 99 -145 159t-209 60q-176 0 -291 -122t-115 -295t116 -293t285 -119q125 0 220 65q94 66 143 174
l203 -98q-80 -162 -228 -258t-333 -96z" />
    <glyph glyph-name="cdotaccent.smcp" unicode="&#xe237;" horiz-adv-x="1312" 
d="M604 1339v283h219v-283h-219zM707 -16q-270 0 -450 182q-179 182 -179 445t181 445t448 181q172 0 319 -87t227 -230l-192 -113q-51 99 -145 159t-209 60q-176 0 -291 -122t-115 -295t116 -293t285 -119q125 0 220 65q94 66 143 174l203 -98q-80 -162 -228 -258t-333 -96
z" />
    <glyph glyph-name="cdotaccent.smcp" unicode="&#xf629;" horiz-adv-x="1312" 
d="M604 1339v283h219v-283h-219zM707 -16q-270 0 -450 182q-179 182 -179 445t181 445t448 181q172 0 319 -87t227 -230l-192 -113q-51 99 -145 159t-209 60q-176 0 -291 -122t-115 -295t116 -293t285 -119q125 0 220 65q94 66 143 174l203 -98q-80 -162 -228 -258t-333 -96
z" />
    <glyph glyph-name="ccedilla.smcp" unicode="&#xe238;" horiz-adv-x="1312" 
d="M690 -485q-168 0 -295 116l142 86q88 -69 152 -69t102 20q37 20 36 51q0 66 -131 66h-94v207q-231 35 -378 209q-146 173 -146 423t181 432t448 181q172 0 319 -87t227 -230l-192 -113q-51 99 -145 159t-209 60q-176 0 -291 -122t-115 -295t116 -293t285 -119
q125 0 220 65q94 66 143 174l203 -98q-76 -152 -209 -246t-303 -106v-95q108 2 174 -44q66 -47 66 -129t-90 -142q-89 -60 -216 -61z" />
    <glyph glyph-name="ccedilla.smcp" unicode="&#xf7e7;" horiz-adv-x="1312" 
d="M690 -485q-168 0 -295 116l142 86q88 -69 152 -69t102 20q37 20 36 51q0 66 -131 66h-94v207q-231 35 -378 209q-146 173 -146 423t181 432t448 181q172 0 319 -87t227 -230l-192 -113q-51 99 -145 159t-209 60q-176 0 -291 -122t-115 -295t116 -293t285 -119
q125 0 220 65q94 66 143 174l203 -98q-76 -152 -209 -246t-303 -106v-95q108 2 174 -44q66 -47 66 -129t-90 -142q-89 -60 -216 -61z" />
    <glyph glyph-name="dcaron.smcp" unicode="&#xe239;" horiz-adv-x="1171" 
d="M449 1331l-244 340h188l131 -192l135 192h187l-244 -340h-153zM442 1018h-116v-813h123q188 0 306 116q117 117 117 293t-113 290q-114 114 -317 114zM109 0v1221h348q287 0 462 -173q175 -172 175 -436t-180 -438t-451 -174h-354z" />
    <glyph glyph-name="dcaron.smcp" unicode="&#xf645;" horiz-adv-x="1171" 
d="M449 1331l-244 340h188l131 -192l135 192h187l-244 -340h-153zM442 1018h-116v-813h123q188 0 306 116q117 117 117 293t-113 290q-114 114 -317 114zM109 0v1221h348q287 0 462 -173q175 -172 175 -436t-180 -438t-451 -174h-354z" />
    <glyph glyph-name="dcroat.smcp" unicode="&#xe23c;" horiz-adv-x="1236" 
d="M662 520h-271v-315h123q188 0 305 116q117 117 117 293t-113 290t-315 114h-117v-311h271v-187zM49 520v187h123v514h350q287 0 462 -173q175 -172 175 -436t-179 -438t-452 -174h-356v520h-123z" />
    <glyph glyph-name="dcroat.smcp" unicode="&#xf646;" horiz-adv-x="1236" 
d="M662 520h-271v-315h123q188 0 305 116q117 117 117 293t-113 290t-315 114h-117v-311h271v-187zM49 520v187h123v514h350q287 0 462 -173q175 -172 175 -436t-179 -438t-452 -174h-356v520h-123z" />
    <glyph glyph-name="eacute.smcp" unicode="&#xe23d;" horiz-adv-x="925" 
d="M362 1331l238 340h234l-304 -340h-168zM109 0v1221h729v-205h-512v-301h512v-205h-512v-303h512v-207h-729z" />
    <glyph glyph-name="eacute.smcp" unicode="&#xf7e9;" horiz-adv-x="925" 
d="M362 1331l238 340h234l-304 -340h-168zM109 0v1221h729v-205h-512v-301h512v-205h-512v-303h512v-207h-729z" />
    <glyph glyph-name="egrave.smcp" unicode="&#xe23e;" horiz-adv-x="925" 
d="M430 1331l-303 340h233l238 -340h-168zM109 0v1221h729v-205h-512v-301h512v-205h-512v-303h512v-207h-729z" />
    <glyph glyph-name="egrave.smcp" unicode="&#xf7e8;" horiz-adv-x="925" 
d="M430 1331l-303 340h233l238 -340h-168zM109 0v1221h729v-205h-512v-301h512v-205h-512v-303h512v-207h-729z" />
    <glyph glyph-name="ecircumflex.smcp" unicode="&#xe23f;" horiz-adv-x="925" 
d="M158 1331l243 340h154l244 -340h-187l-135 193l-131 -193h-188zM109 0v1221h729v-205h-512v-301h512v-205h-512v-303h512v-207h-729z" />
    <glyph glyph-name="ecircumflex.smcp" unicode="&#xf7ea;" horiz-adv-x="925" 
d="M158 1331l243 340h154l244 -340h-187l-135 193l-131 -193h-188zM109 0v1221h729v-205h-512v-301h512v-205h-512v-303h512v-207h-729z" />
    <glyph glyph-name="gcommaaccent.smcp" unicode="&#xe240;" horiz-adv-x="1378" 
d="M668 -535h-142l78 418h197zM701 -16q-272 0 -452 183q-179 183 -179 445t180 444t450 181q180 0 324 -84t225 -225l-192 -111q-53 101 -145 157t-212 56q-174 0 -292 -123t-117 -299q0 -176 116 -297t278 -121t259 79q96 79 127 212h-405v207h641v-90q0 -256 -167 -435
t-439 -179z" />
    <glyph glyph-name="gcommaaccent.smcp" unicode="&#xf64c;" horiz-adv-x="1378" 
d="M668 -535h-142l78 418h197zM701 -16q-272 0 -452 183q-179 183 -179 445t180 444t450 181q180 0 324 -84t225 -225l-192 -111q-53 101 -145 157t-212 56q-174 0 -292 -123t-117 -299q0 -176 116 -297t278 -121t259 79q96 79 127 212h-405v207h641v-90q0 -256 -167 -435
t-439 -179z" />
    <glyph glyph-name="ecaron.smcp" unicode="&#xe241;" horiz-adv-x="925" 
d="M403 1331l-243 340h188l131 -192l135 192h187l-244 -340h-154zM109 0v1221h729v-205h-512v-301h512v-205h-512v-303h512v-207h-729z" />
    <glyph glyph-name="ecaron.smcp" unicode="&#xf647;" horiz-adv-x="925" 
d="M403 1331l-243 340h188l131 -192l135 192h187l-244 -340h-154zM109 0v1221h729v-205h-512v-301h512v-205h-512v-303h512v-207h-729z" />
    <glyph glyph-name="emacron.smcp" unicode="&#xe242;" horiz-adv-x="925" 
d="M207 1331v158h541v-158h-541zM109 0v1221h729v-205h-512v-301h512v-205h-512v-303h512v-207h-729z" />
    <glyph glyph-name="emacron.smcp" unicode="&#xf649;" horiz-adv-x="925" 
d="M207 1331v158h541v-158h-541zM109 0v1221h729v-205h-512v-301h512v-205h-512v-303h512v-207h-729z" />
    <glyph glyph-name="ebreve.smcp" unicode="&#xe243;" horiz-adv-x="925" 
d="M817 1657q0 -145 -91 -243t-247 -97q-155 0 -239 94t-84 246h155q0 -201 174 -205q84 2 129 55t45 150h158zM109 0v1221h729v-205h-512v-301h512v-205h-512v-303h512v-207h-729z" />
    <glyph glyph-name="ebreve.smcp" unicode="&#xf62a;" horiz-adv-x="925" 
d="M817 1657q0 -145 -91 -243t-247 -97q-155 0 -239 94t-84 246h155q0 -201 174 -205q84 2 129 55t45 150h158zM109 0v1221h729v-205h-512v-301h512v-205h-512v-303h512v-207h-729z" />
    <glyph glyph-name="edotaccent.smcp" unicode="&#xe246;" horiz-adv-x="925" 
d="M375 1339v283h219v-283h-219zM109 0v1221h729v-205h-512v-301h512v-205h-512v-303h512v-207h-729z" />
    <glyph glyph-name="edotaccent.smcp" unicode="&#xf648;" horiz-adv-x="925" 
d="M375 1339v283h219v-283h-219zM109 0v1221h729v-205h-512v-301h512v-205h-512v-303h512v-207h-729z" />
    <glyph glyph-name="eogonek.smcp" unicode="&#xe249;" horiz-adv-x="925" 
d="M109 0v1221h729v-205h-512v-301h512v-205h-512v-303h512v-207h-7l5 -2q-164 -102 -212 -144t-49 -85q0 -72 101 -72q61 0 137 63l145 -98q-131 -117 -269 -117q-138 -1 -218 61t-80 154q0 131 162 240h-444z" />
    <glyph glyph-name="eogonek.smcp" unicode="&#xf64a;" horiz-adv-x="925" 
d="M109 0v1221h729v-205h-512v-301h512v-205h-512v-303h512v-207h-7l5 -2q-164 -102 -212 -144t-49 -85q0 -72 101 -72q61 0 137 63l145 -98q-131 -117 -269 -117q-138 -1 -218 61t-80 154q0 131 162 240h-444z" />
    <glyph glyph-name="gcircumflex.smcp" unicode="&#xe24b;" horiz-adv-x="1378" 
d="M379 1329l244 340h153l244 -340h-186l-136 193l-131 -193h-188zM701 -16q-272 0 -452 183q-179 183 -179 445t180 444t450 181q180 0 324 -84t225 -225l-192 -111q-53 101 -145 157t-212 56q-174 0 -292 -123t-117 -299q0 -176 116 -297t278 -121t259 79q96 79 127 212
h-405v207h641v-90q0 -256 -167 -435t-439 -179z" />
    <glyph glyph-name="gcircumflex.smcp" unicode="&#xf62c;" horiz-adv-x="1378" 
d="M379 1329l244 340h153l244 -340h-186l-136 193l-131 -193h-188zM701 -16q-272 0 -452 183q-179 183 -179 445t180 444t450 181q180 0 324 -84t225 -225l-192 -111q-53 101 -145 157t-212 56q-174 0 -292 -123t-117 -299q0 -176 116 -297t278 -121t259 79q96 79 127 212
h-405v207h641v-90q0 -256 -167 -435t-439 -179z" />
    <glyph glyph-name="gbreve.smcp" unicode="&#xe24e;" horiz-adv-x="1378" 
d="M1032 1663q0 -145 -91 -243t-247 -97q-156 0 -240 94t-83 246h155q0 -201 174 -205q84 2 129 55t45 150h158zM701 -16q-272 0 -452 183q-179 183 -179 445t180 444t450 181q180 0 324 -84t225 -225l-192 -111q-53 101 -145 157t-212 56q-174 0 -292 -123t-117 -299
q0 -176 116 -297t278 -121t259 79q96 79 127 212h-405v207h641v-90q0 -256 -167 -435t-439 -179z" />
    <glyph glyph-name="gbreve.smcp" unicode="&#xf64b;" horiz-adv-x="1378" 
d="M1032 1663q0 -145 -91 -243t-247 -97q-156 0 -240 94t-83 246h155q0 -201 174 -205q84 2 129 55t45 150h158zM701 -16q-272 0 -452 183q-179 183 -179 445t180 444t450 181q180 0 324 -84t225 -225l-192 -111q-53 101 -145 157t-212 56q-174 0 -292 -123t-117 -299
q0 -176 116 -297t278 -121t259 79q96 79 127 212h-405v207h641v-90q0 -256 -167 -435t-439 -179z" />
    <glyph glyph-name="gdotaccent.smcp" unicode="&#xe24f;" horiz-adv-x="1378" 
d="M594 1339v283h219v-283h-219zM701 -16q-272 0 -452 183q-179 183 -179 445t180 444t450 181q180 0 324 -84t225 -225l-192 -111q-53 101 -145 157t-212 56q-174 0 -292 -123t-117 -299q0 -176 116 -297t278 -121t259 79q96 79 127 212h-405v207h641v-90q0 -256 -167 -435
t-439 -179z" />
    <glyph glyph-name="gdotaccent.smcp" unicode="&#xf62d;" horiz-adv-x="1378" 
d="M594 1339v283h219v-283h-219zM701 -16q-272 0 -452 183q-179 183 -179 445t180 444t450 181q180 0 324 -84t225 -225l-192 -111q-53 101 -145 157t-212 56q-174 0 -292 -123t-117 -299q0 -176 116 -297t278 -121t259 79q96 79 127 212h-405v207h641v-90q0 -256 -167 -435
t-439 -179z" />
    <glyph glyph-name="hcircumflex.smcp" unicode="&#xe253;" horiz-adv-x="1136" 
d="M246 1329l243 340h154l244 -340h-187l-135 193l-131 -193h-188zM811 0v508h-483v-508h-219v1221h219v-500h483v500h219v-1221h-219z" />
    <glyph glyph-name="hcircumflex.smcp" unicode="&#xf62f;" horiz-adv-x="1136" 
d="M246 1329l243 340h154l244 -340h-187l-135 193l-131 -193h-188zM811 0v508h-483v-508h-219v1221h219v-500h483v500h219v-1221h-219z" />
    <glyph glyph-name="hbar.smcp" unicode="&#xe257;" horiz-adv-x="1210" 
d="M365 854v-154h483v154h-483zM848 0v487h-483v-487h-220v854h-108v213h108v154h220v-154h483v154h219v-154h107v-213h-107v-854h-219z" />
    <glyph glyph-name="hbar.smcp" unicode="&#xf62e;" horiz-adv-x="1210" 
d="M365 854v-154h483v154h-483zM848 0v487h-483v-487h-220v854h-108v213h108v154h220v-154h483v154h219v-154h107v-213h-107v-854h-219z" />
    <glyph glyph-name="iacute.smcp" unicode="&#xe258;" horiz-adv-x="458" 
d="M119 0v1221h221v-1221h-221zM137 1331l238 340h233l-303 -340h-168z" />
    <glyph glyph-name="iacute.smcp" unicode="&#xf7ed;" horiz-adv-x="458" 
d="M119 0v1221h221v-1221h-221zM137 1331l238 340h233l-303 -340h-168z" />
    <glyph glyph-name="igrave.smcp" unicode="&#xe259;" horiz-adv-x="458" 
d="M119 0v1221h221v-1221h-221zM150 1331l-304 340h234l237 -340h-167z" />
    <glyph glyph-name="igrave.smcp" unicode="&#xf7ec;" horiz-adv-x="458" 
d="M119 0v1221h221v-1221h-221zM150 1331l-304 340h234l237 -340h-167z" />
    <glyph glyph-name="icircumflex.smcp" unicode="&#xe25a;" horiz-adv-x="458" 
d="M-82 1323l244 340h153l244 -340h-186l-135 193l-132 -193h-188zM119 0v1221h221v-1221h-221z" />
    <glyph glyph-name="icircumflex.smcp" unicode="&#xf7ee;" horiz-adv-x="458" 
d="M-82 1323l244 340h153l244 -340h-186l-135 193l-132 -193h-188zM119 0v1221h221v-1221h-221z" />
    <glyph glyph-name="idieresis.smcp" unicode="&#xe25b;" horiz-adv-x="458" 
d="M119 0v1221h221v-1221h-221zM-92 1339v283h219v-283h-219zM354 1339v283h219v-283h-219z" />
    <glyph glyph-name="idieresis.smcp" unicode="&#xf7ef;" horiz-adv-x="458" 
d="M119 0v1221h221v-1221h-221zM-92 1339v283h219v-283h-219zM354 1339v283h219v-283h-219z" />
    <glyph glyph-name="itilde.smcp" unicode="&#xe25c;" horiz-adv-x="458" 
d="M-113 1331q-1 119 57 191t141 72t173 -54q82 -53 117 -53q68 0 67 98h146q0 -123 -54 -193t-157 -69q-70 1 -159 53t-122 51q-63 0 -63 -96h-146zM119 0v1221h221v-1221h-221z" />
    <glyph glyph-name="itilde.smcp" unicode="&#xf632;" horiz-adv-x="458" 
d="M-113 1331q-1 119 57 191t141 72t173 -54q82 -53 117 -53q68 0 67 98h146q0 -123 -54 -193t-157 -69q-70 1 -159 53t-122 51q-63 0 -63 -96h-146zM119 0v1221h221v-1221h-221z" />
    <glyph glyph-name="imacron.smcp" unicode="&#xe25e;" horiz-adv-x="458" 
d="M119 0v1221h221v-1221h-221zM-45 1331v158h541v-158h-541z" />
    <glyph glyph-name="imacron.smcp" unicode="&#xf64d;" horiz-adv-x="458" 
d="M119 0v1221h221v-1221h-221zM-45 1331v158h541v-158h-541z" />
    <glyph glyph-name="ibreve.smcp" unicode="&#xe25f;" horiz-adv-x="458" 
d="M559 1657q0 -145 -91 -243t-247 -97q-155 0 -239 94t-84 246h155q0 -201 174 -205q84 2 129 55t45 150h158zM119 0v1221h221v-1221h-221z" />
    <glyph glyph-name="ibreve.smcp" unicode="&#xf630;" horiz-adv-x="458" 
d="M559 1657q0 -145 -91 -243t-247 -97q-155 0 -239 94t-84 246h155q0 -201 174 -205q84 2 129 55t45 150h158zM119 0v1221h221v-1221h-221z" />
    <glyph glyph-name="idotaccent.smcp" unicode="&#xe262;" horiz-adv-x="458" 
d="M121 1331v283h219v-283h-219zM119 0v1221h221v-1221h-221z" />
    <glyph glyph-name="idotaccent.smcp" unicode="&#xf666;" horiz-adv-x="458" 
d="M121 1331v283h219v-283h-219zM119 0v1221h221v-1221h-221z" />
    <glyph glyph-name="iogonek.smcp" unicode="&#xe264;" horiz-adv-x="458" 
d="M240 -459q-126 0 -196 65t-71 158q-2 133 146 254v1203h221v-1221q-188 -131 -188 -221q0 -37 24 -60t73 -23q48 0 107 60l127 -112q-117 -103 -243 -103z" />
    <glyph glyph-name="iogonek.smcp" unicode="&#xf64e;" horiz-adv-x="458" 
d="M240 -459q-126 0 -196 65t-71 158q-2 133 146 254v1203h221v-1221q-188 -131 -188 -221q0 -37 24 -60t73 -23q48 0 107 60l127 -112q-117 -103 -243 -103z" />
    <glyph glyph-name="jcircumflex.smcp" unicode="&#xe265;" horiz-adv-x="858" 
d="M317 1321l244 340h154l243 -340h-186l-135 192l-131 -192h-189zM756 360q0 -180 -92 -278t-246 -98q-152 0 -247 64t-132 173l209 88q39 -123 151 -123q63 0 100 44q36 44 36 118v873h221v-861z" />
    <glyph glyph-name="jcircumflex.smcp" unicode="&#xf633;" horiz-adv-x="858" 
d="M317 1321l244 340h154l243 -340h-186l-135 192l-131 -192h-189zM756 360q0 -180 -92 -278t-246 -98q-152 0 -247 64t-132 173l209 88q39 -123 151 -123q63 0 100 44q36 44 36 118v873h221v-861z" />
    <glyph glyph-name="kcommaaccent.smcp" unicode="&#xe268;" horiz-adv-x="1099" 
d="M532 -510h-141l78 418h197zM328 0h-219v1221h219v-541l448 541h264l-401 -484l424 -737h-248l-334 582l-153 -181v-401z" />
    <glyph glyph-name="kcommaaccent.smcp" unicode="&#xf64f;" horiz-adv-x="1099" 
d="M532 -510h-141l78 418h197zM328 0h-219v1221h219v-541l448 541h264l-401 -484l424 -737h-248l-334 582l-153 -181v-401z" />
    <glyph glyph-name="lacute.smcp" unicode="&#xe26b;" horiz-adv-x="864" 
d="M125 1331l237 340h234l-303 -340h-168zM109 0v1221h219v-1010h460v-211h-679z" />
    <glyph glyph-name="lacute.smcp" unicode="&#xf650;" horiz-adv-x="864" 
d="M125 1331l237 340h234l-303 -340h-168zM109 0v1221h219v-1010h460v-211h-679z" />
    <glyph glyph-name="lcaron.smcp" unicode="&#xe26c;" horiz-adv-x="864" 
d="M555 858l66 363h186l-111 -363h-141zM109 0v1221h219v-1010h460v-211h-679z" />
    <glyph glyph-name="lcaron.smcp" unicode="&#xf651;" horiz-adv-x="864" 
d="M555 858l66 363h186l-111 -363h-141zM109 0v1221h219v-1010h460v-211h-679z" />
    <glyph glyph-name="lcommaaccent.smcp" unicode="&#xe26d;" horiz-adv-x="864" 
d="M420 -520h-141l77 418h197zM109 0v1221h219v-1010h460v-211h-679z" />
    <glyph glyph-name="lcommaaccent.smcp" unicode="&#xf652;" horiz-adv-x="864" 
d="M420 -520h-141l77 418h197zM109 0v1221h219v-1010h460v-211h-679z" />
    <glyph glyph-name="ldot.smcp" unicode="&#xe271;" horiz-adv-x="864" 
d="M567 514v283h219v-283h-219zM109 0v1221h219v-1010h460v-211h-679z" />
    <glyph glyph-name="ldot.smcp" unicode="&#xf634;" horiz-adv-x="864" 
d="M567 514v283h219v-283h-219zM109 0v1221h219v-1010h460v-211h-679z" />
    <glyph glyph-name="lslash.smcp" unicode="&#xe272;" horiz-adv-x="923" 
d="M168 1221h219v-484l313 119v-172l-313 -117v-356h461v-211h-680v485l-137 -51v170l137 51v566z" />
    <glyph glyph-name="lslash.smcp" unicode="&#xf6f9;" horiz-adv-x="923" 
d="M168 1221h219v-484l313 119v-172l-313 -117v-356h461v-211h-680v485l-137 -51v170l137 51v566z" />
    <glyph glyph-name="nacute.smcp" unicode="&#xe276;" horiz-adv-x="1234" 
d="M539 1323l237 340h234l-303 -340h-168zM109 0v1221h239l561 -848v848h217v-1221h-223l-577 870v-870h-217z" />
    <glyph glyph-name="nacute.smcp" unicode="&#xf653;" horiz-adv-x="1234" 
d="M539 1323l237 340h234l-303 -340h-168zM109 0v1221h239l561 -848v848h217v-1221h-223l-577 870v-870h-217z" />
    <glyph glyph-name="ntilde.smcp" unicode="&#xe279;" horiz-adv-x="1234" 
d="M274 1331q0 119 58 191t140 72q83 0 173 -54q82 -53 117 -53q68 0 67 98h146q0 -123 -54 -193t-157 -69q-70 1 -159 53t-122 51q-63 0 -63 -96h-146zM109 0v1221h239l561 -848v848h217v-1221h-223l-577 870v-870h-217z" />
    <glyph glyph-name="ncaron.smcp" unicode="&#xe27a;" horiz-adv-x="1234" 
d="M549 1315l-244 340h189l131 -193l135 193h186l-244 -340h-153zM109 0v1221h239l561 -848v848h217v-1221h-223l-577 870v-870h-217z" />
    <glyph glyph-name="ncaron.smcp" unicode="&#xf654;" horiz-adv-x="1234" 
d="M549 1315l-244 340h189l131 -193l135 193h186l-244 -340h-153zM109 0v1221h239l561 -848v848h217v-1221h-223l-577 870v-870h-217z" />
    <glyph glyph-name="ncommaaccent.smcp" unicode="&#xe27d;" horiz-adv-x="1234" 
d="M604 -520h-141l78 418h196zM109 0v1221h239l561 -848v848h217v-1221h-223l-577 870v-870h-217z" />
    <glyph glyph-name="ncommaaccent.smcp" unicode="&#xf655;" horiz-adv-x="1234" 
d="M604 -520h-141l78 418h196zM109 0v1221h239l561 -848v848h217v-1221h-223l-577 870v-870h-217z" />
    <glyph glyph-name="oacute.smcp" unicode="&#xe281;" horiz-adv-x="1390" 
d="M592 1331l237 340h234l-303 -340h-168zM694 197q170 1 287 121t117 292t-117 294t-287 122t-286 -122t-115 -294q-1 -172 115 -292t286 -121zM694 -16q-260 0 -442 183t-182 443t182 444t442 183q260 0 444 -183q184 -184 183 -444q1 -260 -183 -443t-444 -183z" />
    <glyph glyph-name="oacute.smcp" unicode="&#xf7f3;" horiz-adv-x="1390" 
d="M592 1331l237 340h234l-303 -340h-168zM694 197q170 1 287 121t117 292t-117 294t-287 122t-286 -122t-115 -294q-1 -172 115 -292t286 -121zM694 -16q-260 0 -442 183t-182 443t182 444t442 183q260 0 444 -183q184 -184 183 -444q1 -260 -183 -443t-444 -183z" />
    <glyph glyph-name="ograve.smcp" unicode="&#xe282;" horiz-adv-x="1390" 
d="M625 1331l-303 340h233l238 -340h-168zM694 197q170 1 287 121t117 292t-117 294t-287 122t-286 -122t-115 -294q-1 -172 115 -292t286 -121zM694 -16q-260 0 -442 183t-182 443t182 444t442 183q260 0 444 -183q184 -184 183 -444q1 -260 -183 -443t-444 -183z" />
    <glyph glyph-name="ograve.smcp" unicode="&#xf7f2;" horiz-adv-x="1390" 
d="M625 1331l-303 340h233l238 -340h-168zM694 197q170 1 287 121t117 292t-117 294t-287 122t-286 -122t-115 -294q-1 -172 115 -292t286 -121zM694 -16q-260 0 -442 183t-182 443t182 444t442 183q260 0 444 -183q184 -184 183 -444q1 -260 -183 -443t-444 -183z" />
    <glyph glyph-name="ocircumflex.smcp" unicode="&#xe283;" horiz-adv-x="1390" 
d="M373 1327l243 340h154l244 -340h-187l-135 193l-131 -193h-188zM694 197q170 1 287 121t117 292t-117 294t-287 122t-286 -122t-115 -294q-1 -172 115 -292t286 -121zM694 -16q-260 0 -442 183t-182 443t182 444t442 183q260 0 444 -183q184 -184 183 -444
q1 -260 -183 -443t-444 -183z" />
    <glyph glyph-name="ocircumflex.smcp" unicode="&#xf7f4;" horiz-adv-x="1390" 
d="M373 1327l243 340h154l244 -340h-187l-135 193l-131 -193h-188zM694 197q170 1 287 121t117 292t-117 294t-287 122t-286 -122t-115 -294q-1 -172 115 -292t286 -121zM694 -16q-260 0 -442 183t-182 443t182 444t442 183q260 0 444 -183q184 -184 183 -444
q1 -260 -183 -443t-444 -183z" />
    <glyph glyph-name="odieresis.smcp" unicode="&#xe284;" horiz-adv-x="1390" 
d="M422 1337v283h219v-283h-219zM752 1337v283h219v-283h-219zM694 197q170 1 287 121t117 292t-117 294t-287 122t-286 -122t-115 -294q-1 -172 115 -292t286 -121zM694 -16q-260 0 -442 183t-182 443t182 444t442 183q260 0 444 -183q184 -184 183 -444q1 -260 -183 -443
t-444 -183z" />
    <glyph glyph-name="odieresis.smcp" unicode="&#xf7f6;" horiz-adv-x="1390" 
d="M422 1337v283h219v-283h-219zM752 1337v283h219v-283h-219zM694 197q170 1 287 121t117 292t-117 294t-287 122t-286 -122t-115 -294q-1 -172 115 -292t286 -121zM694 -16q-260 0 -442 183t-182 443t182 444t442 183q260 0 444 -183q184 -184 183 -444q1 -260 -183 -443
t-444 -183z" />
    <glyph glyph-name="otilde.smcp" unicode="&#xe285;" horiz-adv-x="1390" 
d="M356 1331q0 119 58 191t140 72q83 0 173 -54q82 -53 117 -53q68 0 67 98h146q-1 -123 -55 -193t-156 -69q-70 1 -159 53t-122 51q-63 0 -63 -96h-146zM694 197q170 1 287 121t117 292t-117 294t-287 122t-286 -122t-115 -294q-1 -172 115 -292t286 -121zM694 -16
q-260 0 -442 183t-182 443t182 444t442 183q260 0 444 -183q184 -184 183 -444q1 -260 -183 -443t-444 -183z" />
    <glyph glyph-name="otilde.smcp" unicode="&#xf7f5;" horiz-adv-x="1390" 
d="M356 1331q0 119 58 191t140 72q83 0 173 -54q82 -53 117 -53q68 0 67 98h146q-1 -123 -55 -193t-156 -69q-70 1 -159 53t-122 51q-63 0 -63 -96h-146zM694 197q170 1 287 121t117 292t-117 294t-287 122t-286 -122t-115 -294q-1 -172 115 -292t286 -121zM694 -16
q-260 0 -442 183t-182 443t182 444t442 183q260 0 444 -183q184 -184 183 -444q1 -260 -183 -443t-444 -183z" />
    <glyph glyph-name="omacron.smcp" unicode="&#xe287;" horiz-adv-x="1390" 
d="M424 1331v158h541v-158h-541zM694 197q170 1 287 121t117 292t-117 294t-287 122t-286 -122t-115 -294q-1 -172 115 -292t286 -121zM694 -16q-260 0 -442 183t-182 443t182 444t442 183q260 0 444 -183q184 -184 183 -444q1 -260 -183 -443t-444 -183z" />
    <glyph glyph-name="omacron.smcp" unicode="&#xf657;" horiz-adv-x="1390" 
d="M424 1331v158h541v-158h-541zM694 197q170 1 287 121t117 292t-117 294t-287 122t-286 -122t-115 -294q-1 -172 115 -292t286 -121zM694 -16q-260 0 -442 183t-182 443t182 444t442 183q260 0 444 -183q184 -184 183 -444q1 -260 -183 -443t-444 -183z" />
    <glyph glyph-name="obreve.smcp" unicode="&#xe288;" horiz-adv-x="1390" 
d="M1024 1663q0 -145 -91 -243t-247 -97q-156 0 -240 94t-84 246h156q0 -201 174 -205q84 2 129 55t45 150h158zM694 197q170 1 287 121t117 292t-117 294t-287 122t-286 -122t-115 -294q-1 -172 115 -292t286 -121zM694 -16q-260 0 -442 183t-182 443t182 444t442 183
q260 0 444 -183q184 -184 183 -444q1 -260 -183 -443t-444 -183z" />
    <glyph glyph-name="obreve.smcp" unicode="&#xf635;" horiz-adv-x="1390" 
d="M1024 1663q0 -145 -91 -243t-247 -97q-156 0 -240 94t-84 246h156q0 -201 174 -205q84 2 129 55t45 150h158zM694 197q170 1 287 121t117 292t-117 294t-287 122t-286 -122t-115 -294q-1 -172 115 -292t286 -121zM694 -16q-260 0 -442 183t-182 443t182 444t442 183
q260 0 444 -183q184 -184 183 -444q1 -260 -183 -443t-444 -183z" />
    <glyph glyph-name="ohungarumlaut.smcp" unicode="&#xe28a;" horiz-adv-x="1390" 
d="M760 1327l237 340h222l-304 -340h-155zM444 1327l236 340h221l-303 -340h-154zM694 197q170 1 287 121t117 292t-117 294t-287 122t-286 -122t-115 -294q-1 -172 115 -292t286 -121zM694 -16q-260 0 -442 183t-182 443t182 444t442 183q260 0 444 -183q184 -184 183 -444
q1 -260 -183 -443t-444 -183z" />
    <glyph glyph-name="ohungarumlaut.smcp" unicode="&#xf656;" horiz-adv-x="1390" 
d="M760 1327l237 340h222l-304 -340h-155zM444 1327l236 340h221l-303 -340h-154zM694 197q170 1 287 121t117 292t-117 294t-287 122t-286 -122t-115 -294q-1 -172 115 -292t286 -121zM694 -16q-260 0 -442 183t-182 443t182 444t442 183q260 0 444 -183q184 -184 183 -444
q1 -260 -183 -443t-444 -183z" />
    <glyph glyph-name="oslash.smcp" unicode="&#xe295;" horiz-adv-x="1390" 
d="M694 199q170 1 287 121t117 290q0 135 -78 246l-498 -620q76 -37 172 -37zM694 1022q-170 0 -286 -121t-117 -277q0 -156 80 -264l499 621q-82 41 -176 41zM694 -16q-170 0 -311 82l-51 -66h-250l149 186q-161 182 -161 433t182 435t442 183q164 0 314 -86l55 70h250
l-154 -191q162 -182 162 -431q1 -249 -183 -432t-444 -183z" />
    <glyph glyph-name="oslash.smcp" unicode="&#xf7f8;" horiz-adv-x="1390" 
d="M694 199q170 1 287 121t117 290q0 135 -78 246l-498 -620q76 -37 172 -37zM694 1022q-170 0 -286 -121t-117 -277q0 -156 80 -264l499 621q-82 41 -176 41zM694 -16q-170 0 -311 82l-51 -66h-250l149 186q-161 182 -161 433t182 435t442 183q164 0 314 -86l55 70h250
l-154 -191q162 -182 162 -431q1 -249 -183 -432t-444 -183z" />
    <glyph glyph-name="oslashacute.smcp" unicode="&#xe296;" horiz-adv-x="1392" 
d="M590 1331l237 340h234l-303 -340h-168zM694 199q170 1 287 121t117 290q0 135 -78 246l-498 -620q76 -37 172 -37zM694 1022q-170 0 -286 -121t-117 -277q0 -156 80 -264l499 621q-82 41 -176 41zM694 -16q-170 0 -311 82l-51 -66h-250l149 186q-161 182 -161 433
t182 435t442 183q164 0 314 -86l55 70h250l-154 -191q162 -182 162 -431q1 -249 -183 -432t-444 -183z" />
    <glyph glyph-name="oslashacute.smcp" unicode="&#xf627;" horiz-adv-x="1392" 
d="M590 1331l237 340h234l-303 -340h-168zM694 199q170 1 287 121t117 290q0 135 -78 246l-498 -620q76 -37 172 -37zM694 1022q-170 0 -286 -121t-117 -277q0 -156 80 -264l499 621q-82 41 -176 41zM694 -16q-170 0 -311 82l-51 -66h-250l149 186q-161 182 -161 433
t182 435t442 183q164 0 314 -86l55 70h250l-154 -191q162 -182 162 -431q1 -249 -183 -432t-444 -183z" />
    <glyph glyph-name="oe.smcp" unicode="&#xe298;" horiz-adv-x="1918" 
d="M694 197q170 1 287 121t117 292t-117 294t-287 122t-286 -122t-115 -294q-1 -172 115 -292t286 -121zM1102 0v152q-164 -168 -416 -168t-434 183t-182 443t182 444t433 183q251 0 417 -170v154h729v-205h-512v-301h512v-205h-512v-303h512v-207h-729z" />
    <glyph glyph-name="oe.smcp" unicode="&#xf6fa;" horiz-adv-x="1918" 
d="M694 197q170 1 287 121t117 292t-117 294t-287 122t-286 -122t-115 -294q-1 -172 115 -292t286 -121zM1102 0v152q-164 -168 -416 -168t-434 183t-182 443t182 444t433 183q251 0 417 -170v154h729v-205h-512v-301h512v-205h-512v-303h512v-207h-729z" />
    <glyph glyph-name="racute.smcp" unicode="&#xe29a;" horiz-adv-x="1024" 
d="M383 1331l238 340h233l-303 -340h-168zM109 0v1221h401q198 0 320 -116t122 -290q0 -123 -66 -222t-188 -142l281 -451h-254l-356 600h120q111 0 175 65q63 65 63 155t-58 144t-173 54h-168v-1018h-219z" />
    <glyph glyph-name="racute.smcp" unicode="&#xf658;" horiz-adv-x="1024" 
d="M383 1331l238 340h233l-303 -340h-168zM109 0v1221h401q198 0 320 -116t122 -290q0 -123 -66 -222t-188 -142l281 -451h-254l-356 600h120q111 0 175 65q63 65 63 155t-58 144t-173 54h-168v-1018h-219z" />
    <glyph glyph-name="rcaron.smcp" unicode="&#xe29b;" horiz-adv-x="1024" 
d="M438 1331l-243 340h188l131 -192l135 192h187l-244 -340h-154zM109 0v1221h401q198 0 320 -116t122 -290q0 -123 -66 -222t-188 -142l281 -451h-254l-356 600h120q111 0 175 65q63 65 63 155t-58 144t-173 54h-168v-1018h-219z" />
    <glyph glyph-name="rcaron.smcp" unicode="&#xf659;" horiz-adv-x="1024" 
d="M438 1331l-243 340h188l131 -192l135 192h187l-244 -340h-154zM109 0v1221h401q198 0 320 -116t122 -290q0 -123 -66 -222t-188 -142l281 -451h-254l-356 600h120q111 0 175 65q63 65 63 155t-58 144t-173 54h-168v-1018h-219z" />
    <glyph glyph-name="rcommaaccent.smcp" unicode="&#xe29e;" horiz-adv-x="1024" 
d="M487 -518h-141l78 418h197zM109 0v1221h401q198 0 320 -116t122 -290q0 -123 -66 -222t-188 -142l281 -451h-254l-356 600h120q111 0 175 65q63 65 63 155t-58 144t-173 54h-168v-1018h-219z" />
    <glyph glyph-name="rcommaaccent.smcp" unicode="&#xf65a;" horiz-adv-x="1024" 
d="M487 -518h-141l78 418h197zM109 0v1221h401q198 0 320 -116t122 -290q0 -123 -66 -222t-188 -142l281 -451h-254l-356 600h120q111 0 175 65q63 65 63 155t-58 144t-173 54h-168v-1018h-219z" />
    <glyph glyph-name="ucircumflex.smcp" unicode="&#xe300;" horiz-adv-x="1081" 
d="M217 1331l244 340h153l244 -340h-186l-135 193l-131 -193h-189zM979 420q-1 -204 -121 -320t-318 -116t-318 116t-120 320v801h220v-809q0 -102 60 -164t158 -62t159 62q60 62 61 164v809h219v-801z" />
    <glyph glyph-name="ucircumflex.smcp" unicode="&#xf7fb;" horiz-adv-x="1081" 
d="M217 1331l244 340h153l244 -340h-186l-135 193l-131 -193h-189zM979 420q-1 -204 -121 -320t-318 -116t-318 116t-120 320v801h220v-809q0 -102 60 -164t158 -62t159 62q60 62 61 164v809h219v-801z" />
    <glyph glyph-name="sacute.smcp" unicode="&#xe302;" horiz-adv-x="989" 
d="M494 -16q-281 0 -463 221l192 151q100 -168 271 -168q86 0 140 50t54 107q0 58 -38 94t-75 51q-37 16 -87 32l-58 19q-78 25 -126 45t-105 60q-115 81 -115 238t114 256t285 99q250 0 412 -186l-178 -135q-80 129 -232 129q-80 0 -129 -42q-49 -41 -49 -97t39 -91
q71 -63 217 -100q76 -25 126 -47q51 -22 109 -62q119 -84 118 -243t-116 -270q-116 -111 -306 -111zM391 1331l238 340h233l-303 -340h-168z" />
    <glyph glyph-name="sacute.smcp" unicode="&#xf65b;" horiz-adv-x="989" 
d="M494 -16q-281 0 -463 221l192 151q100 -168 271 -168q86 0 140 50t54 107q0 58 -38 94t-75 51q-37 16 -87 32l-58 19q-78 25 -126 45t-105 60q-115 81 -115 238t114 256t285 99q250 0 412 -186l-178 -135q-80 129 -232 129q-80 0 -129 -42q-49 -41 -49 -97t39 -91
q71 -63 217 -100q76 -25 126 -47q51 -22 109 -62q119 -84 118 -243t-116 -270q-116 -111 -306 -111zM391 1331l238 340h233l-303 -340h-168z" />
    <glyph glyph-name="scircumflex.smcp" unicode="&#xe303;" horiz-adv-x="989" 
d="M174 1329l244 340h153l244 -340h-186l-135 193l-132 -193h-188zM494 -16q-281 0 -463 221l192 151q100 -168 271 -168q86 0 140 50t54 107q0 58 -38 94t-75 51q-37 16 -87 32l-58 19q-78 25 -126 45t-105 60q-115 81 -115 238t114 256t285 99q250 0 412 -186l-178 -135
q-80 129 -232 129q-80 0 -129 -42q-49 -41 -49 -97t39 -91q71 -63 217 -100q76 -25 126 -47q51 -22 109 -62q119 -84 118 -243t-116 -270q-116 -111 -306 -111z" />
    <glyph glyph-name="scircumflex.smcp" unicode="&#xf636;" horiz-adv-x="989" 
d="M174 1329l244 340h153l244 -340h-186l-135 193l-132 -193h-188zM494 -16q-281 0 -463 221l192 151q100 -168 271 -168q86 0 140 50t54 107q0 58 -38 94t-75 51q-37 16 -87 32l-58 19q-78 25 -126 45t-105 60q-115 81 -115 238t114 256t285 99q250 0 412 -186l-178 -135
q-80 129 -232 129q-80 0 -129 -42q-49 -41 -49 -97t39 -91q71 -63 217 -100q76 -25 126 -47q51 -22 109 -62q119 -84 118 -243t-116 -270q-116 -111 -306 -111z" />
    <glyph glyph-name="scaron.smcp" unicode="&#xe304;" horiz-adv-x="989" 
d="M422 1331l-244 340h189l131 -192l135 192h186l-244 -340h-153zM494 -16q-281 0 -463 221l192 151q100 -168 271 -168q86 0 140 50t54 107q0 58 -38 94t-75 51q-37 16 -87 32l-58 19q-78 25 -126 45t-105 60q-115 81 -115 238t114 256t285 99q250 0 412 -186l-178 -135
q-80 129 -232 129q-80 0 -129 -42q-49 -41 -49 -97t39 -91q71 -63 217 -100q76 -25 126 -47q51 -22 109 -62q119 -84 118 -243t-116 -270q-116 -111 -306 -111z" />
    <glyph glyph-name="scaron.smcp" unicode="&#xf6fd;" horiz-adv-x="989" 
d="M422 1331l-244 340h189l131 -192l135 192h186l-244 -340h-153zM494 -16q-281 0 -463 221l192 151q100 -168 271 -168q86 0 140 50t54 107q0 58 -38 94t-75 51q-37 16 -87 32l-58 19q-78 25 -126 45t-105 60q-115 81 -115 238t114 256t285 99q250 0 412 -186l-178 -135
q-80 129 -232 129q-80 0 -129 -42q-49 -41 -49 -97t39 -91q71 -63 217 -100q76 -25 126 -47q51 -22 109 -62q119 -84 118 -243t-116 -270q-116 -111 -306 -111z" />
    <glyph glyph-name="scommaaccent.smcp" unicode="&#xe305;" horiz-adv-x="989" 
d="M494 -16q-281 0 -463 221l192 151q100 -168 271 -168q86 0 140 50t54 107q0 58 -38 94t-75 51q-37 16 -87 32l-58 19q-78 25 -126 45t-105 60q-115 81 -115 238t114 256t285 99q250 0 412 -186l-178 -135q-80 129 -232 129q-80 0 -129 -42q-49 -41 -49 -97t39 -91
q71 -63 217 -100q76 -25 126 -47q51 -22 109 -62q119 -84 118 -243t-116 -270q-116 -111 -306 -111zM457 -514h-142l78 418h197z" />
    <glyph glyph-name="scommaaccent.smcp" unicode="&#xf65d;" horiz-adv-x="989" 
d="M494 -16q-281 0 -463 221l192 151q100 -168 271 -168q86 0 140 50t54 107q0 58 -38 94t-75 51q-37 16 -87 32l-58 19q-78 25 -126 45t-105 60q-115 81 -115 238t114 256t285 99q250 0 412 -186l-178 -135q-80 129 -232 129q-80 0 -129 -42q-49 -41 -49 -97t39 -91
q71 -63 217 -100q76 -25 126 -47q51 -22 109 -62q119 -84 118 -243t-116 -270q-116 -111 -306 -111zM457 -514h-142l78 418h197z" />
    <glyph glyph-name="scedilla.smcp" unicode="&#xe306;" horiz-adv-x="989" 
d="M473 -485q-168 0 -295 116l141 86q89 -69 153 -69t101 20t37 51q0 66 -131 66h-94v207q-209 33 -354 213l192 151q100 -168 271 -168q86 0 140 50t54 107q0 58 -38 94t-75 51q-37 16 -87 32l-58 19q-78 25 -126 45t-105 60q-115 81 -115 238t114 256t285 99
q250 0 412 -186l-178 -135q-80 129 -232 129q-80 0 -129 -42q-49 -41 -49 -97t39 -91q71 -63 217 -100q76 -25 126 -47q51 -22 109 -62q119 -84 118 -237q-1 -155 -104 -263t-273 -122v-95q109 2 175 -44q66 -47 64 -129q0 -82 -89 -142t-216 -61z" />
    <glyph glyph-name="scedilla.smcp" unicode="&#xf65c;" horiz-adv-x="989" 
d="M473 -485q-168 0 -295 116l141 86q89 -69 153 -69t101 20t37 51q0 66 -131 66h-94v207q-209 33 -354 213l192 151q100 -168 271 -168q86 0 140 50t54 107q0 58 -38 94t-75 51q-37 16 -87 32l-58 19q-78 25 -126 45t-105 60q-115 81 -115 238t114 256t285 99
q250 0 412 -186l-178 -135q-80 129 -232 129q-80 0 -129 -42q-49 -41 -49 -97t39 -91q71 -63 217 -100q76 -25 126 -47q51 -22 109 -62q119 -84 118 -237q-1 -155 -104 -263t-273 -122v-95q109 2 175 -44q66 -47 64 -129q0 -82 -89 -142t-216 -61z" />
    <glyph glyph-name="tcaron.smcp" unicode="&#xe309;" horiz-adv-x="1028" 
d="M438 1331l-243 340h188l131 -192l135 192h187l-244 -340h-154zM410 0v1014h-332v207h878v-207h-329v-1014h-217z" />
    <glyph glyph-name="tcaron.smcp" unicode="&#xf65e;" horiz-adv-x="1028" 
d="M438 1331l-243 340h188l131 -192l135 192h187l-244 -340h-154zM410 0v1014h-332v207h878v-207h-329v-1014h-217z" />
    <glyph glyph-name="tcommaaccent.smcp" unicode="&#xe30a;" horiz-adv-x="1028" 
d="M410 0v1014h-332v207h878v-207h-329v-1014h-217zM481 -530h-141l78 417h196z" />
    <glyph glyph-name="tcommaaccent.smcp" unicode="&#xf65f;" horiz-adv-x="1028" 
d="M410 0v1014h-332v207h878v-207h-329v-1014h-217zM481 -530h-141l78 417h196z" />
    <glyph glyph-name="tbar.smcp" unicode="&#xe30d;" horiz-adv-x="1028" 
d="M831 485h-206v-485h-217v485h-209v207h209v322h-332v207h878v-207h-329v-322h206v-207z" />
    <glyph glyph-name="tbar.smcp" unicode="&#xf637;" horiz-adv-x="1028" 
d="M831 485h-206v-485h-217v485h-209v207h209v322h-332v207h878v-207h-329v-322h206v-207z" />
    <glyph glyph-name="uacute.smcp" unicode="&#xe30e;" horiz-adv-x="1081" 
d="M979 420q-1 -204 -121 -320t-318 -116t-318 116t-120 320v801h220v-809q0 -102 60 -164t158 -62t159 62q60 62 61 164v809h219v-801zM422 1321l237 340h234l-303 -340h-168z" />
    <glyph glyph-name="uacute.smcp" unicode="&#xf7fa;" horiz-adv-x="1081" 
d="M979 420q-1 -204 -121 -320t-318 -116t-318 116t-120 320v801h220v-809q0 -102 60 -164t158 -62t159 62q60 62 61 164v809h219v-801zM422 1321l237 340h234l-303 -340h-168z" />
    <glyph glyph-name="ugrave.smcp" unicode="&#xe30f;" horiz-adv-x="1081" 
d="M461 1317l-303 340h233l238 -340h-168zM979 420q-1 -204 -121 -320t-318 -116t-318 116t-120 320v801h220v-809q0 -102 60 -164t158 -62t159 62q60 62 61 164v809h219v-801z" />
    <glyph glyph-name="ugrave.smcp" unicode="&#xf7f9;" horiz-adv-x="1081" 
d="M461 1317l-303 340h233l238 -340h-168zM979 420q-1 -204 -121 -320t-318 -116t-318 116t-120 320v801h220v-809q0 -102 60 -164t158 -62t159 62q60 62 61 164v809h219v-801z" />
    <glyph glyph-name="wdieresis.smcp" unicode="&#xe310;" horiz-adv-x="1765" 
d="M610 1339v283h219v-283h-219zM940 1339v283h219v-283h-219zM393 0l-344 1221h227l232 -871l264 871h215l264 -879l246 879h221l-356 -1221h-219l-262 879l-265 -879h-223z" />
    <glyph glyph-name="wdieresis.smcp" unicode="&#xf63c;" horiz-adv-x="1765" 
d="M610 1339v283h219v-283h-219zM940 1339v283h219v-283h-219zM393 0l-344 1221h227l232 -871l264 871h215l264 -879l246 879h221l-356 -1221h-219l-262 879l-265 -879h-223z" />
    <glyph glyph-name="udieresis.smcp" unicode="&#xe311;" horiz-adv-x="1081" 
d="M979 420q-1 -204 -121 -320t-318 -116t-318 116t-120 320v801h220v-809q0 -102 60 -164t158 -62t159 62q60 62 61 164v809h219v-801zM268 1339v283h219v-283h-219zM598 1339v283h219v-283h-219z" />
    <glyph glyph-name="udieresis.smcp" unicode="&#xf7fc;" horiz-adv-x="1081" 
d="M979 420q-1 -204 -121 -320t-318 -116t-318 116t-120 320v801h220v-809q0 -102 60 -164t158 -62t159 62q60 62 61 164v809h219v-801zM268 1339v283h219v-283h-219zM598 1339v283h219v-283h-219z" />
    <glyph glyph-name="utilde.smcp" unicode="&#xe312;" horiz-adv-x="1081" 
d="M184 1331q0 119 58 191t140 72q83 0 173 -54q82 -53 117 -53q68 0 67 98h146q-1 -123 -55 -193t-156 -69q-70 1 -159 53t-122 51q-63 0 -63 -96h-146zM979 420q-1 -204 -121 -320t-318 -116t-318 116t-120 320v801h220v-809q0 -102 60 -164t158 -62t159 62q60 62 61 164
v809h219v-801z" />
    <glyph glyph-name="utilde.smcp" unicode="&#xf639;" horiz-adv-x="1081" 
d="M184 1331q0 119 58 191t140 72q83 0 173 -54q82 -53 117 -53q68 0 67 98h146q-1 -123 -55 -193t-156 -69q-70 1 -159 53t-122 51q-63 0 -63 -96h-146zM979 420q-1 -204 -121 -320t-318 -116t-318 116t-120 320v801h220v-809q0 -102 60 -164t158 -62t159 62q60 62 61 164
v809h219v-801z" />
    <glyph glyph-name="uring.smcp" unicode="&#xe313;" horiz-adv-x="1081" 
d="M539 1448q37 0 63 26t27 62q0 36 -27 65q-28 27 -64 27t-63 -28t-27 -64t28 -62q26 -26 63 -26zM770 1536q0 -96 -68 -162t-163 -67q-96 -1 -163 67t-67 163t67 163t163 68q95 0 163 -68t68 -164zM979 420q-1 -204 -121 -320t-318 -116t-318 116t-120 320v801h220v-809
q0 -102 60 -164t158 -62t159 62q60 62 61 164v809h219v-801z" />
    <glyph glyph-name="uring.smcp" unicode="&#xf663;" horiz-adv-x="1081" 
d="M539 1448q37 0 63 26t27 62q0 36 -27 65q-28 27 -64 27t-63 -28t-27 -64t28 -62q26 -26 63 -26zM770 1536q0 -96 -68 -162t-163 -67q-96 -1 -163 67t-67 163t67 163t163 68q95 0 163 -68t68 -164zM979 420q-1 -204 -121 -320t-318 -116t-318 116t-120 320v801h220v-809
q0 -102 60 -164t158 -62t159 62q60 62 61 164v809h219v-801z" />
    <glyph glyph-name="umacron.smcp" unicode="&#xe315;" horiz-adv-x="1081" 
d="M272 1331v158h541v-158h-541zM979 420q-1 -204 -121 -320t-318 -116t-318 116t-120 320v801h220v-809q0 -102 60 -164t158 -62t159 62q60 62 61 164v809h219v-801z" />
    <glyph glyph-name="umacron.smcp" unicode="&#xf661;" horiz-adv-x="1081" 
d="M272 1331v158h541v-158h-541zM979 420q-1 -204 -121 -320t-318 -116t-318 116t-120 320v801h220v-809q0 -102 60 -164t158 -62t159 62q60 62 61 164v809h219v-801z" />
    <glyph glyph-name="ubreve.smcp" unicode="&#xe316;" horiz-adv-x="1081" 
d="M874 1649q0 -145 -90 -243t-247 -97q-156 0 -240 94t-84 246h156q0 -201 174 -205q84 2 129 55t45 150h157zM979 420q-1 -204 -121 -320t-318 -116t-318 116t-120 320v801h220v-809q0 -102 60 -164t158 -62t159 62q60 62 61 164v809h219v-801z" />
    <glyph glyph-name="ubreve.smcp" unicode="&#xf638;" horiz-adv-x="1081" 
d="M874 1649q0 -145 -90 -243t-247 -97q-156 0 -240 94t-84 246h156q0 -201 174 -205q84 2 129 55t45 150h157zM979 420q-1 -204 -121 -320t-318 -116t-318 116t-120 320v801h220v-809q0 -102 60 -164t158 -62t159 62q60 62 61 164v809h219v-801z" />
    <glyph glyph-name="uhungarumlaut.smcp" unicode="&#xe318;" horiz-adv-x="1081" 
d="M588 1323l237 340h222l-304 -340h-155zM272 1323l236 340h221l-303 -340h-154zM979 420q-1 -204 -121 -320t-318 -116t-318 116t-120 320v801h220v-809q0 -102 60 -164t158 -62t159 62q60 62 61 164v809h219v-801z" />
    <glyph glyph-name="uhungarumlaut.smcp" unicode="&#xf660;" horiz-adv-x="1081" 
d="M588 1323l237 340h222l-304 -340h-155zM272 1323l236 340h221l-303 -340h-154zM979 420q-1 -204 -121 -320t-318 -116t-318 116t-120 320v801h220v-809q0 -102 60 -164t158 -62t159 62q60 62 61 164v809h219v-801z" />
    <glyph glyph-name="uogonek.smcp" unicode="&#xe31b;" horiz-adv-x="1081" 
d="M598 -430q-138 0 -219 61q-80 61 -80 165t123 200q-150 32 -235 142t-85 282v801h220v-809q0 -102 60 -164t158 -62t159 62q60 62 61 164v809h219v-801q-1 -144 -63 -246t-173 -151q-164 -103 -212 -145t-48 -85q0 -72 101 -72q61 0 137 64l145 -98q-130 -117 -268 -117z
" />
    <glyph glyph-name="uogonek.smcp" unicode="&#xf662;" horiz-adv-x="1081" 
d="M598 -430q-138 0 -219 61q-80 61 -80 165t123 200q-150 32 -235 142t-85 282v801h220v-809q0 -102 60 -164t158 -62t159 62q60 62 61 164v809h219v-801q-1 -144 -63 -246t-173 -151q-164 -103 -212 -145t-48 -85q0 -72 101 -72q61 0 137 64l145 -98q-130 -117 -268 -117z
" />
    <glyph glyph-name="wacute.smcp" unicode="&#xe31d;" horiz-adv-x="1765" 
d="M795 1331l237 340h234l-303 -340h-168zM393 0l-344 1221h227l232 -871l264 871h215l264 -879l246 879h221l-356 -1221h-219l-262 879l-265 -879h-223z" />
    <glyph glyph-name="wacute.smcp" unicode="&#xf63a;" horiz-adv-x="1765" 
d="M795 1331l237 340h234l-303 -340h-168zM393 0l-344 1221h227l232 -871l264 871h215l264 -879l246 879h221l-356 -1221h-219l-262 879l-265 -879h-223z" />
    <glyph glyph-name="wgrave.smcp" unicode="&#xe31e;" horiz-adv-x="1765" 
d="M799 1331l-303 340h233l238 -340h-168zM393 0l-344 1221h227l232 -871l264 871h215l264 -879l246 879h221l-356 -1221h-219l-262 879l-265 -879h-223z" />
    <glyph glyph-name="wgrave.smcp" unicode="&#xf63d;" horiz-adv-x="1765" 
d="M799 1331l-303 340h233l238 -340h-168zM393 0l-344 1221h227l232 -871l264 871h215l264 -879l246 879h221l-356 -1221h-219l-262 879l-265 -879h-223z" />
    <glyph glyph-name="wcircumflex.smcp" unicode="&#xe31f;" horiz-adv-x="1765" 
d="M561 1321l244 340h153l244 -340h-186l-135 192l-131 -192h-189zM393 0l-344 1221h227l232 -871l264 871h215l264 -879l246 879h221l-356 -1221h-219l-262 879l-265 -879h-223z" />
    <glyph glyph-name="wcircumflex.smcp" unicode="&#xf63b;" horiz-adv-x="1765" 
d="M561 1321l244 340h153l244 -340h-186l-135 192l-131 -192h-189zM393 0l-344 1221h227l232 -871l264 871h215l264 -879l246 879h221l-356 -1221h-219l-262 879l-265 -879h-223z" />
    <glyph glyph-name="yacute.smcp" unicode="&#xe321;" horiz-adv-x="1087" 
d="M444 1315l238 340h233l-303 -340h-168zM434 0v575l-391 646h240l260 -437l264 437h240l-392 -648v-573h-221z" />
    <glyph glyph-name="yacute.smcp" unicode="&#xf7fd;" horiz-adv-x="1087" 
d="M444 1315l238 340h233l-303 -340h-168zM434 0v575l-391 646h240l260 -437l264 437h240l-392 -648v-573h-221z" />
    <glyph glyph-name="ygrave.smcp" unicode="&#xe322;" horiz-adv-x="1099" 
d="M475 1315l-303 340h234l237 -340h-168zM440 0v575l-391 646h240l260 -437l264 437h240l-391 -648v-573h-222z" />
    <glyph glyph-name="ygrave.smcp" unicode="&#xf63f;" horiz-adv-x="1099" 
d="M475 1315l-303 340h234l237 -340h-168zM440 0v575l-391 646h240l260 -437l264 437h240l-391 -648v-573h-222z" />
    <glyph glyph-name="ycircumflex.smcp" unicode="&#xe323;" horiz-adv-x="1087" 
d="M221 1329l244 340h153l244 -340h-186l-135 193l-131 -193h-189zM434 0v575l-391 646h240l260 -437l264 437h240l-392 -648v-573h-221z" />
    <glyph glyph-name="ycircumflex.smcp" unicode="&#xf63e;" horiz-adv-x="1087" 
d="M221 1329l244 340h153l244 -340h-186l-135 193l-131 -193h-189zM434 0v575l-391 646h240l260 -437l264 437h240l-392 -648v-573h-221z" />
    <glyph glyph-name="ydieresis.smcp" unicode="&#xe324;" horiz-adv-x="1087" 
d="M270 1331v283h219v-283h-219zM600 1331v283h219v-283h-219zM434 0v575l-391 646h240l260 -437l264 437h240l-392 -648v-573h-221z" />
    <glyph glyph-name="ydieresis.smcp" unicode="&#xf7ff;" horiz-adv-x="1087" 
d="M270 1331v283h219v-283h-219zM600 1331v283h219v-283h-219zM434 0v575l-391 646h240l260 -437l264 437h240l-392 -648v-573h-221z" />
    <glyph glyph-name="ij.smcp" unicode="&#xe327;" horiz-adv-x="933" 
d="M100 0v1221h222v-1221h-222zM444 0v203h27q86 2 115 37t28 127v854h220v-846q0 -207 -78 -291t-279 -84h-33z" />
    <glyph glyph-name="ij.smcp" unicode="&#xf631;" horiz-adv-x="933" 
d="M100 0v1221h222v-1221h-222zM444 0v203h27q86 2 115 37t28 127v854h220v-846q0 -207 -78 -291t-279 -84h-33z" />
    <glyph glyph-name="zacute.smcp" unicode="&#xe328;" horiz-adv-x="968" 
d="M373 1331l237 340h234l-303 -340h-168zM80 0v203l549 813h-535v205h793v-199l-553 -815h553v-207h-807z" />
    <glyph glyph-name="zacute.smcp" unicode="&#xf664;" horiz-adv-x="968" 
d="M373 1331l237 340h234l-303 -340h-168zM80 0v203l549 813h-535v205h793v-199l-553 -815h553v-207h-807z" />
    <glyph glyph-name="zcaron.smcp" unicode="&#xe329;" horiz-adv-x="968" 
d="M414 1331l-244 340h188l131 -192l136 192h186l-244 -340h-153zM80 0v203l549 813h-535v205h793v-199l-553 -815h553v-207h-807z" />
    <glyph glyph-name="zcaron.smcp" unicode="&#xf6ff;" horiz-adv-x="968" 
d="M414 1331l-244 340h188l131 -192l136 192h186l-244 -340h-153zM80 0v203l549 813h-535v205h793v-199l-553 -815h553v-207h-807z" />
    <glyph glyph-name="zdotaccent.smcp" unicode="&#xe32a;" horiz-adv-x="968" 
d="M383 1339v283h219v-283h-219zM80 0v203l549 813h-535v205h793v-199l-553 -815h553v-207h-807z" />
    <glyph glyph-name="zdotaccent.smcp" unicode="&#xf665;" horiz-adv-x="968" 
d="M383 1339v283h219v-283h-219zM80 0v203l549 813h-535v205h793v-199l-553 -815h553v-207h-807z" />
    <glyph glyph-name="eng.smcp" unicode="&#xe32b;" horiz-adv-x="1234" 
d="M686 -471v207q143 0 182 37t39 176v53l-581 870v-872h-217v1221h239l561 -842v842h217v-1274q0 -240 -88 -329t-319 -89h-33z" />
    <glyph glyph-name="eng.smcp" unicode="&#xf62b;" horiz-adv-x="1234" 
d="M686 -471v207q143 0 182 37t39 176v53l-581 870v-872h-217v1221h239l561 -842v842h217v-1274q0 -240 -88 -329t-319 -89h-33z" />
    <glyph glyph-name="eth.smcp" unicode="&#xe32c;" horiz-adv-x="1236" 
d="M662 520h-271v-315h123q188 0 305 116q117 117 117 293t-113 290t-315 114h-117v-311h271v-187zM49 520v187h123v514h350q287 0 462 -173q175 -172 175 -436t-179 -438t-452 -174h-356v520h-123z" />
    <glyph glyph-name="eth.smcp" unicode="&#xf7f0;" horiz-adv-x="1236" 
d="M662 520h-271v-315h123q188 0 305 116q117 117 117 293t-113 290t-315 114h-117v-311h271v-187zM49 520v187h123v514h350q287 0 462 -173q175 -172 175 -436t-179 -438t-452 -174h-356v520h-123z" />
    <glyph glyph-name="thorn.smcp" unicode="&#xe32d;" horiz-adv-x="1017" 
d="M541 797h-209v-367h209q84 0 137 52t53 131t-52 131t-138 53zM113 0v1221h219v-222h215q178 -1 290 -111q111 -110 111 -275t-110 -277t-293 -111h-213v-225h-219z" />
    <glyph glyph-name="thorn.smcp" unicode="&#xf7fe;" horiz-adv-x="1017" 
d="M541 797h-209v-367h209q84 0 137 52t53 131t-52 131t-138 53zM113 0v1221h219v-222h215q178 -1 290 -111q111 -110 111 -275t-110 -277t-293 -111h-213v-225h-219z" />
    <glyph glyph-name="ordfeminine.smcp" unicode="&#xe351;" horiz-adv-x="761" 
d="M383 1296l-59 -159h116zM74 901l217 594h182l219 -594h-168l-35 96h-215l-34 -96h-166z" />
    <glyph glyph-name="ordmasculine.smcp" unicode="&#xe352;" horiz-adv-x="759" 
d="M381 1047q61 0 104 45q43 44 43 108t-42 109t-105 45t-107 -45t-43 -109t45 -108q44 -45 105 -45zM381 891q-127 0 -217 90t-90 218t90 218t217 90t216 -90t89 -218t-89 -218t-216 -90z" />
    <glyph glyph-name="cordinal.smcp" unicode="&#xe353;" horiz-adv-x="729" 
d="M74 1199q0 128 90 218t217 90q92 0 166 -46t110 -124l-141 -69q-41 86 -135 86q-63 0 -107 -45t-43 -109q0 -64 43 -109q43 -44 107 -44q100 0 137 88l144 -68q-86 -176 -298 -176q-110 0 -200 90t-90 218z" />
    <glyph glyph-name="fi" unicode="&#xe38c;" horiz-adv-x="1114" 
d="M795 1165v287h219v-287h-219zM795 0v1024h219v-1024h-219zM63 827v197h175v53q0 240 89 329t330 89h19v-203q-143 0 -180 -38t-37 -179v-51h217v-197h-217v-827h-221v827h-175z" />
    <glyph glyph-name="fi" unicode="&#xfb01;" horiz-adv-x="1114" 
d="M795 1165v287h219v-287h-219zM795 0v1024h219v-1024h-219zM63 827v197h175v53q0 240 89 329t330 89h19v-203q-143 0 -180 -38t-37 -179v-51h217v-197h-217v-827h-221v827h-175z" />
    <glyph glyph-name="fl" unicode="&#xe38d;" horiz-adv-x="1114" 
d="M795 0v1495h219v-1495h-219zM63 827v197h175v53q0 240 89 329t330 89h19v-203q-143 0 -180 -38t-37 -179v-51h217v-197h-217v-827h-221v827h-175z" />
    <glyph glyph-name="fl" unicode="&#xfb02;" horiz-adv-x="1114" 
d="M795 0v1495h219v-1495h-219zM63 827v197h175v53q0 240 89 329t330 89h19v-203q-143 0 -180 -38t-37 -179v-51h217v-197h-217v-827h-221v827h-175z" />
    <glyph glyph-name="ampersand.smcp" unicode="&#xe401;" horiz-adv-x="1327" 
d="M538 176q112 0 207 55l-272 275q-42 42 -72 69q-113 -70 -112 -190q1 -89 69 -149t180 -60zM215 940q0 119 96 208t250 89q244 0 346 -201l-205 -94q-43 100 -135 100q-55 0 -91 -34t-36 -88q0 -56 38 -106t171 -183l254 -258q84 113 109 235h-197v205h416v-98
q0 -117 -50 -244t-139 -235l232 -236h-295l-92 92q-156 -111 -338 -110q-238 0 -358 116t-119 281q0 221 204 348q-61 94 -61 213z" />
    <glyph glyph-name="ampersand.smcp" unicode="&#xf726;" horiz-adv-x="1327" 
d="M538 176q112 0 207 55l-272 275q-42 42 -72 69q-113 -70 -112 -190q1 -89 69 -149t180 -60zM215 940q0 119 96 208t250 89q244 0 346 -201l-205 -94q-43 100 -135 100q-55 0 -91 -34t-36 -88q0 -56 38 -106t171 -183l254 -258q84 113 109 235h-197v205h416v-98
q0 -117 -50 -244t-139 -235l232 -236h-295l-92 92q-156 -111 -338 -110q-238 0 -358 116t-119 281q0 221 204 348q-61 94 -61 213z" />
    <glyph glyph-name="invertedbreve" unicode="&#xe411;" horiz-adv-x="993" 
d="M164 1135q0 151 84 245t240 94t246 -96q90 -98 91 -243h-157q0 96 -45 149t-129 55q-174 -4 -175 -204h-155z" />
    <glyph glyph-name="doublegrave" unicode="&#xe412;" horiz-adv-x="993" 
d="M721 1135l-293 340h225l228 -340h-160zM410 1135l-293 340h225l227 -340h-159z" />
    <glyph glyph-name="caronSlovak" unicode="&#xe413;" horiz-adv-x="993" 
d="M401 1112l66 363h186l-110 -363h-142z" />
    <glyph glyph-name="commaaccent" unicode="&#xe414;" horiz-adv-x="999" 
d="M489 -510h-141l78 418h197z" />
    <glyph glyph-name="commaaccent" unicode="&#xf6c3;" horiz-adv-x="999" 
d="M489 -510h-141l78 418h197z" />
    <glyph glyph-name="dotbelow" unicode="&#xe415;" horiz-adv-x="999" 
d="M371 -381v283h219v-283h-219z" />
    <glyph glyph-name="altcedilla" unicode="&#xe416;" horiz-adv-x="993" 
d="M477 -485q-199 0 -305 114l141 90q72 -72 162 -71q53 0 89 20t36 51q0 66 -133 66h-23v106h45q129 2 204 -44q75 -47 75 -131t-84 -142t-207 -59z" />
    <glyph glyph-name="exclamdown.cap" unicode="&#xe441;" horiz-adv-x="458" 
d="M121 1214v281h219v-281h-219zM121 0v240q0 483 49 862h121q49 -379 49 -862v-240h-219z" />
    <glyph glyph-name="questiondown.cap" unicode="&#xe444;" horiz-adv-x="1087" 
d="M467 1214v281h219v-281h-219zM534 -20q-188 0 -317 112t-129 297q0 186 137 295q57 45 115 90q57 45 97 123t40 190v21h199v-21q0 -200 -67 -304t-152 -170q-39 -31 -71 -61q-71 -68 -72 -164q-1 -98 66 -156t171 -58q178 0 254 182l203 -77q-49 -133 -168 -216
q-118 -83 -306 -83z" />
    <glyph glyph-name="guilsinglleft.cap" unicode="&#xe451;" horiz-adv-x="579" 
d="M457 436l-332 244v139l332 244v-170l-201 -143l201 -144v-170z" />
    <glyph glyph-name="guilsinglright.cap" unicode="&#xe452;" horiz-adv-x="579" 
d="M125 438v168l203 144l-203 145v168l332 -244v-137z" />
    <glyph glyph-name="guillemotleft.cap" unicode="&#xe453;" horiz-adv-x="964" 
d="M852 453l-354 233v127l354 234v-154l-219 -143l219 -146v-151zM467 453l-354 233v127l354 234v-154l-219 -143l219 -146v-151z" />
    <glyph glyph-name="guillemotright.cap" unicode="&#xe454;" horiz-adv-x="964" 
d="M113 453v151l221 146l-221 143v154l354 -234v-127zM498 453v151l221 146l-221 143v154l354 -234v-127z" />
    <glyph glyph-name="slash.cap" unicode="&#xe461;" horiz-adv-x="1017" 
d="M39 0l709 1495h235l-709 -1495h-235z" />
    <glyph glyph-name="backslash.cap" unicode="&#xe462;" horiz-adv-x="1017" 
d="M748 0l-709 1495h235l709 -1495h-235z" />
    <glyph glyph-name="bar.cap" unicode="&#xe463;" horiz-adv-x="419" 
d="M100 -246v1966h222v-1966h-222z" />
    <glyph glyph-name="doublebar.cap" unicode="&#xe464;" horiz-adv-x="800" 
d="M479 -246v1966h221v-1966h-221zM100 -246v1966h222v-1966h-222z" />
    <glyph glyph-name="brokenbar.cap" unicode="&#xe465;" horiz-adv-x="462" 
d="M100 -246v860h222v-860h-222zM100 860v860h222v-860h-222z" />
    <glyph glyph-name="bullet.cap" unicode="&#xe466;" horiz-adv-x="751" 
d="M377 555q-78 0 -134 56t-57 134q0 79 56 135t135 56q78 0 134 -56t56 -134t-56 -135q-56 -56 -134 -56z" />
    <glyph glyph-name="slash.smcp" unicode="&#xe467;" horiz-adv-x="913" 
d="M53 0l580 1221h229l-579 -1221h-230z" />
    <glyph glyph-name="backslash.smcp" unicode="&#xe468;" horiz-adv-x="913" 
d="M633 0l-580 1221h230l579 -1221h-229z" />
    <glyph glyph-name="bar.smcp" unicode="&#xe469;" horiz-adv-x="415" 
d="M100 -201v1606h217v-1606h-217z" />
    <glyph glyph-name="doublebar.smcp" unicode="&#xe46a;" horiz-adv-x="790" 
d="M473 -201v1606h219v-1606h-219zM100 -201v1606h217v-1606h-217z" />
    <glyph glyph-name="onethirdemdash" unicode="&#xe471;" horiz-adv-x="833" 
d="M90 422v190h655v-190h-655z" />
    <glyph glyph-name="threequarteremdash" unicode="&#xe472;" horiz-adv-x="1222" 
d="M90 422v190h1045v-190h-1045z" />
    <glyph glyph-name="periodcentered.cap" unicode="&#xe481;" horiz-adv-x="419" 
d="M100 489v281h219v-281h-219z" />
    <glyph glyph-name="hyphen.cap" unicode="&#xe482;" horiz-adv-x="935" 
d="M90 535v190h758v-190h-758z" />
    <glyph glyph-name="onethirdemdash.cap" unicode="&#xe483;" horiz-adv-x="833" 
d="M90 535v190h655v-190h-655z" />
    <glyph glyph-name="endash.cap" unicode="&#xe484;" horiz-adv-x="1017" 
d="M90 535v190h840v-190h-840z" />
    <glyph glyph-name="threequarteremdash.cap" unicode="&#xe485;" horiz-adv-x="1222" 
d="M90 535v190h1045v-190h-1045z" />
    <glyph glyph-name="emdash.cap" unicode="&#xe486;" horiz-adv-x="1427" 
d="M90 535v190h1249v-190h-1249z" />
    <glyph glyph-name="figuredash.cap" unicode="&#xe487;" horiz-adv-x="1325" 
d="M90 535v190h1147v-190h-1147z" />
    <glyph glyph-name="uni2015.cap" unicode="&#xe488;" horiz-adv-x="2041" 
d="M90 535v190h1864v-190h-1864z" />
    <glyph glyph-name="anglebracketright.smcp" unicode="&#xe490;" horiz-adv-x="696" 
d="M281 -201h-230l381 803l-383 803h232l381 -803z" />
    <glyph glyph-name="parenleft.cap" unicode="&#xe491;" horiz-adv-x="837" 
d="M72 735q0 338 145 581t410 435l149 -164q-471 -325 -471 -855t477 -843l-141 -180q-569 391 -569 1026z" />
    <glyph glyph-name="parenright.cap" unicode="&#xe492;" horiz-adv-x="837" 
d="M532 732q0 530 -471 855l150 164q263 -193 409 -435t146 -581q0 -635 -569 -1026l-142 180q477 313 477 843z" />
    <glyph glyph-name="bracketleft.cap" unicode="&#xe493;" horiz-adv-x="737" 
d="M90 -246v1966h559v-211h-338v-1544h338v-211h-559z" />
    <glyph glyph-name="bracketright.cap" unicode="&#xe494;" horiz-adv-x="737" 
d="M90 -246v211h336v1544h-336v211h559v-1966h-559z" />
    <glyph glyph-name="braceleft.cap" unicode="&#xe495;" horiz-adv-x="792" 
d="M725 -246h-23q-256 0 -353 96t-97 349v221q0 127 -35 169t-158 42v205q123 0 158 42t35 169v229q0 252 97 348t353 96h23v-202q-162 0 -208 -46t-46 -198v-230q0 -126 -34 -200t-113 -111q80 -37 114 -111t33 -200v-221q0 -152 47 -198t207 -46v-203z" />
    <glyph glyph-name="braceright.cap" unicode="&#xe496;" horiz-adv-x="792" 
d="M70 -246v205q160 0 206 46t48 196v221q0 125 32 201q33 76 113 110q-80 37 -113 111t-32 200v230q0 152 -48 196t-206 46v204h22q256 0 353 -96t98 -348v-229q0 -127 35 -169t157 -42v-205q-123 0 -157 -42t-35 -169v-221q1 -253 -97 -349t-354 -96h-22z" />
    <glyph glyph-name="anglebracketleft.cap" unicode="&#xe497;" horiz-adv-x="780" 
d="M508 -246l-465 983l465 983h235l-467 -983l467 -983h-235z" />
    <glyph glyph-name="anglebracketright.cap" unicode="&#xe498;" horiz-adv-x="780" 
d="M279 -246h-236l467 983l-467 983h236l464 -983z" />
    <glyph glyph-name="parenleft.smcp" unicode="&#xe499;" horiz-adv-x="649" 
d="M72 608q0 260 108 448t320 341l133 -172q-338 -231 -338 -621t344 -610l-121 -193q-446 307 -446 807z" />
    <glyph glyph-name="parenleft.smcp" unicode="&#xf618;" horiz-adv-x="649" 
d="M72 608q0 260 108 448t320 341l133 -172q-338 -231 -338 -621t344 -610l-121 -193q-446 307 -446 807z" />
    <glyph glyph-name="parenright.smcp" unicode="&#xe49a;" horiz-adv-x="649" 
d="M354 604q0 389 -338 621l134 172q212 -152 320 -340t108 -449q-1 -500 -447 -807l-121 193q344 221 344 610z" />
    <glyph glyph-name="parenright.smcp" unicode="&#xf619;" horiz-adv-x="649" 
d="M354 604q0 389 -338 621l134 172q212 -152 320 -340t108 -449q-1 -500 -447 -807l-121 193q344 221 344 610z" />
    </font>
</defs>
</svg>
