<?xml version="1.0" standalone="no"?>
<!DOCTYPE svg PUBLIC "-//W3C//DTD SVG 1.1//EN" "http://www.w3.org/Graphics/SVG/1.1/DTD/svg11.dtd" >
<svg xmlns="http://www.w3.org/2000/svg">
<metadata>
Created by FontPrep 20130207 at Sat Apr 25 19:03:21 2015
 By Andrew Poes
Copyright (c) 2013 by Lucas Sharp. All rights reserved.
</metadata>
<defs>
<font id="327e7e13b9d2d9eea64f029fdf1c9432" horiz-adv-x='1024' >
  <font-face 
    font-family="SharpSansNo1-MediumItalic"
    font-weight="765"
    font-style="italic"
    font-stretch="normal"
    units-per-em="2048"
    panose-1="2 0 0 0 0 0 0 0 0 0"
    ascent="1536"
    descent="-512"
    x-height="1024"
    cap-height="1495"
    bbox="-248 -895 3557 2230"
    underline-thickness="102"
    underline-position="-102"
    unicode-range="U+0020-F60B"
  />
<missing-glyph horiz-adv-x="1843" 
d="M852 748l-580 579v-1159zM991 748l580 -580v1159zM342 1397l580 -580l579 580h-1159zM922 678l-580 -580h1159zM174 0v1495h1495v-1495h-1495z" />
    <glyph glyph-name="interrobang" unicode="&#x21;&#x3f;" horiz-adv-x="1120" 
d="M332 0l49 281h160l-49 -281h-160zM596 782q41 50 110 104q68 54 110 102t56 133t-29 151q-44 66 -130 90l-17 -107q-37 -207 -100 -473zM410 389q48 404 127 866l18 117q-143 -23 -244 -123l-102 111q67 66 183 110t233 46q201 0 321 -120t88 -291q-31 -171 -181 -274
q-63 -43 -125 -89t-116 -130t-75 -204l-5 -19h-122z" />
    <glyph glyph-name="interrobangdown" unicode="&#xa1;&#xbf;" horiz-adv-x="1120" 
d="M537 743l49 281h159l-49 -281h-159zM261 35q-42 -49 -56 -133q-13 -84 29 -150t128 -90l19 107q31 188 98 471q-41 -52 -109 -104t-109 -101zM453 -492q-201 0 -321 120t-89 290t181 275q62 43 125 89q62 46 117 130q54 84 75 204l4 19h123q-48 -404 -127 -866l-21 -117
q143 20 246 123l102 -111q-68 -66 -183 -111t-232 -45z" />
    <glyph glyph-name=".notdef" horiz-adv-x="1843" 
d="M852 748l-580 579v-1159zM991 748l580 -580v1159zM342 1397l580 -580l579 580h-1159zM922 678l-580 -580h1159zM174 0v1495h1495v-1495h-1495z" />
    <glyph glyph-name=".null" horiz-adv-x="0" 
 />
    <glyph glyph-name="nonmarkingreturn" horiz-adv-x="681" 
 />
    <glyph glyph-name="space" unicode=" " horiz-adv-x="512" 
 />
    <glyph glyph-name="exclam" unicode="!" horiz-adv-x="473" 
d="M59 0l50 281h159l-49 -281h-160zM164 406q31 375 117 849l41 240h159l-41 -240q-88 -489 -186 -849h-90z" />
    <glyph glyph-name="quotedbl" unicode="&#x22;" horiz-adv-x="600" 
d="M477 1024q-4 41 0 146t12 153l31 172h127l-31 -172q-18 -119 -90 -299h-49zM238 1024q-4 41 0 146t12 153l31 172h127l-31 -172q-18 -119 -90 -299h-49z" />
    <glyph glyph-name="numbersign" unicode="#" horiz-adv-x="1687" 
d="M723 969l-76 -430h420l76 430h-420zM973 0l67 385h-419l-68 -385h-162l68 385h-398l29 154h395l76 430h-397l29 153h395l65 373h162l-65 -373h419l66 373h162l-66 -373h381l-29 -153h-378l-76 -430h381l-29 -154h-379l-67 -385h-162z" />
    <glyph glyph-name="dollar" unicode="$" 
d="M684 1372q-123 -4 -201 -60t-94 -150q-16 -93 39 -153t172 -118zM813 204q76 63 94 165t-37 172t-172 129l-94 -537q133 8 209 71zM410 -193l30 183q-141 24 -245 102t-158 184l151 86q82 -180 279 -221l104 592q-90 43 -143 75q-159 96 -194 210q-22 72 -5 162
q25 154 153 244t327 92l30 167h140l-33 -178q231 -43 360 -221l-135 -96q-96 141 -250 172l-94 -529q88 -43 143 -77q162 -102 195 -226q20 -78 4 -176q-31 -166 -156 -266t-335 -106l-29 -173h-139z" />
    <glyph glyph-name="percent" unicode="%" horiz-adv-x="1734" 
d="M1220 113q90 0 154 54t79 141t-41 160t-145 73q-89 1 -153 -55t-78 -143q-16 -87 39 -159q56 -71 145 -71zM1204 -23q-146 0 -238 115t-66 258q26 144 131 234t250 90t238 -115t68 -259t-131 -234t-252 -89zM555 954q89 0 153 54t79 143q15 88 -39 160q-56 71 -146 71
t-153 -54t-79 -142t40 -160q55 -72 145 -72zM542 821q-148 0 -240 115q-91 115 -66 258t130 232q104 90 250 90t239 -115t67 -258t-128 -233q-104 -89 -252 -89zM39 0l1546 1495h203l-1546 -1495h-203z" />
    <glyph glyph-name="ampersand" unicode="&#x26;" horiz-adv-x="1531" 
d="M601 119q196 0 360 114l-371 463q-53 66 -76 97q-129 -55 -200 -126t-87 -186q-23 -139 77 -251t297 -111zM956 1260q-43 114 -202 114q-82 0 -150 -50t-81 -134t30 -165t166 -237l362 -452q170 176 234 403h-324l27 150h481l-12 -76q-27 -153 -108 -307t-203 -275
l188 -231h-203l-106 131q-217 -154 -471 -154q-193 0 -320 80t-171 194t-25 241q45 272 366 413q-94 150 -69 289q18 139 131 230t280 92q115 0 201 -50t125 -135z" />
    <glyph glyph-name="quotesingle" unicode="'" horiz-adv-x="360" 
d="M287 1024h-49q-4 41 0 146t12 153l31 172h127l-31 -172q-18 -119 -90 -299z" />
    <glyph glyph-name="parenleft" unicode="(" horiz-adv-x="833" 
d="M608 -387l-114 -117q-213 182 -321 464q-107 282 -49 623t267 583t488 362l75 -129q-274 -125 -443 -326t-228 -510q-95 -590 325 -950z" />
    <glyph glyph-name="parenright" unicode=")" horiz-adv-x="833" 
d="M205 1403l114 117q213 -182 321 -460t48 -622t-262 -596q-203 -252 -473 -368l-78 133q539 246 655 854q95 582 -325 942z" />
    <glyph glyph-name="asterisk" unicode="*" horiz-adv-x="874" 
d="M770 893l-207 180l-18 -303h-144l88 301l-274 -180l-49 125l299 119l-256 122l92 121l211 -182l16 299h144l-88 -297l272 178l51 -123l-301 -118l256 -119z" />
    <glyph glyph-name="plus" unicode="+" horiz-adv-x="950" 
d="M115 680l24 135h312l55 309h135l-55 -309h311l-25 -135h-309l-55 -313h-135l55 313h-313z" />
    <glyph glyph-name="comma" unicode="," horiz-adv-x="393" 
d="M-66 -240l158 418h146l-203 -418h-101z" />
    <glyph glyph-name="hyphen" unicode="-" horiz-adv-x="950" 
d="M88 455l25 135h757l-24 -135h-758z" />
    <glyph glyph-name="period" unicode="." horiz-adv-x="393" 
d="M16 0l52 281h157l-49 -281h-160z" />
    <glyph glyph-name="slash" unicode="/" horiz-adv-x="968" 
d="M-55 0l968 1495h174l-966 -1495h-176z" />
    <glyph glyph-name="zero" unicode="0" 
d="M552 121q150 0 240 84q89 84 113 223l99 565q29 166 -39 274q-67 107 -219 107t-244 -86t-117 -221l-98 -565q-29 -162 43 -272t222 -109zM542 -20q-228 0 -342 154t-73 384l100 563q35 191 167 313t358 122t339 -155q114 -155 72 -384l-100 -563q-35 -198 -164 -316
t-357 -118z" />
    <glyph glyph-name="one" unicode="1" 
d="M375 1083h-23l31 166h10q135 0 213 76t94 170h154l-236 -1343h412l-24 -152h-986l25 152h410l188 1071q-37 -59 -111 -99t-157 -41z" />
    <glyph glyph-name="two" unicode="2" 
d="M766 1376q-120 0 -212 -46t-148 -124l-134 66q78 112 205 178t281 66q207 0 331 -121t94 -295t-187 -304q-121 -103 -264 -190q-144 -88 -182 -112q-150 -93 -210 -158q-93 -99 -107 -182h781l-27 -154h-950l26 158q35 212 339 416q64 44 242 155t253 178q109 98 128 207
q19 110 -59 186q-80 76 -200 76z" />
    <glyph glyph-name="three" unicode="3" 
d="M538 -20q-192 0 -328 68t-192 177l142 82q109 -184 366 -184q145 0 249 72q103 73 126 203t-64 217t-243 87h-139l24 148h131q145 0 256 71t131 189t-65 196q-86 77 -232 76q-213 0 -350 -172l-117 82q70 96 196 160t276 64q227 0 353 -122t91 -309q-20 -106 -96 -189
t-197 -128q117 -56 171 -160t32 -241q-31 -180 -179 -284q-150 -103 -342 -103z" />
    <glyph glyph-name="four" unicode="4" 
d="M285 489h487l127 734zM686 0l59 344h-661l20 148l842 1003h160l-176 -1006h217l-27 -145h-217l-59 -344h-158z" />
    <glyph glyph-name="five" unicode="5" 
d="M492 -20q-313 0 -437 227l154 78q86 -160 293 -160q137 0 248 81t147 216q45 174 -36 296t-243 122t-274 -88l-137 67l205 676h792l-26 -152h-660l-127 -421q111 63 262 63q223 -2 342 -170t60 -397q-49 -202 -197 -320t-366 -118z" />
    <glyph glyph-name="six" unicode="6" 
d="M634 819q-148 0 -250 -91q-102 -90 -128 -234q-25 -144 63 -258q89 -114 235 -115q146 0 249 88q102 87 128 229q27 142 -61 262t-236 119zM655 952q215 0 339 -160t87 -378q-35 -186 -175 -309t-359 -124t-349 159t-92 378q10 70 49 155q38 85 85 140l571 682h193
l-478 -559q66 16 129 16z" />
    <glyph glyph-name="seven" unicode="7" 
d="M182 0l865 1343h-791l27 152h966l-24 -139l-860 -1356h-183z" />
    <glyph glyph-name="eight" unicode="8" 
d="M738 1374q-132 0 -217 -66t-103 -178q-18 -114 54 -192t202 -78q131 0 220 65t108 179q20 114 -56 192t-208 78zM551 127q154 0 249 77q96 76 118 204t-63 220t-235 91q-150 0 -248 -76q-97 -76 -119 -206t61 -220t237 -90zM544 -20q-222 0 -350 132t-94 345
q20 115 102 210t204 146q-174 131 -134 350q29 156 158 254q129 99 320 99q190 0 312 -127t91 -304q-20 -115 -91 -195t-171 -120q96 -66 147 -166t33 -213q-31 -183 -168 -297t-359 -114z" />
    <glyph glyph-name="nine" unicode="9" 
d="M654 676q148 0 251 91q102 91 127 235t-63 258q-89 114 -235 114t-248 -88t-129 -230t61 -260q88 -120 236 -120zM633 543q-215 -1 -339 159t-87 379q35 185 175 309t359 125t349 -160t92 -378q-10 -70 -48 -155t-85 -140l-572 -682h-192l475 557q-55 -14 -127 -14z" />
    <glyph glyph-name="colon" unicode=":" horiz-adv-x="393" 
d="M150 743l49 281h157l-49 -281h-157zM16 0l52 281h157l-49 -281h-160z" />
    <glyph glyph-name="semicolon" unicode=";" horiz-adv-x="393" 
d="M-66 -240l158 418h146l-203 -418h-101zM150 743l49 281h157l-49 -281h-157z" />
    <glyph glyph-name="less" unicode="&#x3c;" horiz-adv-x="950" 
d="M821 389l-704 293l24 135l807 287l-26 -146l-627 -213l553 -217z" />
    <glyph glyph-name="equal" unicode="=" horiz-adv-x="950" 
d="M86 510l25 135h757l-24 -135h-758zM145 842l25 137h758l-25 -137h-758z" />
    <glyph glyph-name="greater" unicode="&#x3e;" horiz-adv-x="950" 
d="M66 389l26 148l627 211l-551 217l25 137l704 -291l-25 -135z" />
    <glyph glyph-name="question" unicode="?" horiz-adv-x="1046" 
d="M283 0l49 281h160l-50 -281h-159zM354 389q15 141 79 252q64 113 131 165q68 52 132 93t114 92t62 123q20 117 -55 190q-76 73 -207 72q-82 0 -165 -37t-134 -90l-102 111q67 66 183 110t233 46q201 0 321 -120t86 -294q-23 -134 -118 -213q-42 -35 -91 -67
q-133 -87 -192 -146q-98 -98 -129 -268l-4 -19h-144z" />
    <glyph glyph-name="at" unicode="@" horiz-adv-x="1712" 
d="M803 276q91 0 157 66t87 162q27 98 -15 166t-136 68q-93 0 -168 -74q-75 -72 -91 -166t30 -158t136 -64zM797 -272q-233 0 -405 115q-171 116 -244 312t-33 425q53 296 286 490t549 194t518 -224t148 -522q-27 -168 -116 -276q-90 -108 -248 -109q-158 0 -210 133
q-102 -131 -262 -131t-240 110q-80 109 -52 261q26 152 139 260t267 108t218 -122l23 110h145l-90 -370q-29 -121 -6 -166q22 -45 94 -45q72 1 126 77t71 179q43 239 -107 413t-410 174t-458 -160t-240 -401q-32 -180 22 -338t193 -258t334 -100q250 0 434 188l113 -100
q-221 -227 -559 -227z" />
    <glyph glyph-name="A" unicode="A" horiz-adv-x="1406" 
d="M852 1280l-416 -750h557zM-29 0l836 1495h160l290 -1495h-163l-72 379h-670l-209 -379h-172z" />
    <glyph glyph-name="B" unicode="B" horiz-adv-x="1310" 
d="M829 1350h-372l-90 -514h419q121 0 203 68q81 68 101 176q20 106 -51 188t-210 82zM752 692h-412l-94 -542h436q137 0 227 70t112 188t-55 201t-214 83zM850 1495q210 0 318 -131t79 -299q-41 -225 -243 -315q102 -56 152 -152t28 -221q-31 -169 -170 -273t-344 -104
h-613l262 1495h531z" />
    <glyph glyph-name="C" unicode="C" horiz-adv-x="1622" 
d="M845 -20q-232 0 -405 115q-172 116 -244 311q-73 195 -34 421q51 295 288 492t547 197q213 0 386 -109t251 -283l-155 -71q-129 309 -502 309q-238 0 -425 -158t-232 -412q-44 -254 106 -456q150 -203 432 -203q170 0 316 84q145 84 231 232l145 -70q-106 -186 -289 -293
q-184 -106 -416 -106z" />
    <glyph glyph-name="D" unicode="D" horiz-adv-x="1445" 
d="M694 1348h-239l-209 -1198h321q240 0 421 156t226 412q44 254 -106 442t-414 188zM555 0h-498l262 1495h398q215 -2 380 -111q165 -110 241 -292t38 -394q-53 -310 -281 -504t-540 -194z" />
    <glyph glyph-name="E" unicode="E" horiz-adv-x="1177" 
d="M57 0l262 1495h908l-27 -149h-745l-90 -512h747l-29 -152h-745l-92 -530h745l-26 -152h-908z" />
    <glyph glyph-name="F" unicode="F" horiz-adv-x="1116" 
d="M57 0l262 1495h846l-26 -152h-684l-93 -518h687l-29 -151h-684l-117 -674h-162z" />
    <glyph glyph-name="G" unicode="G" horiz-adv-x="1724" 
d="M849 -20q-339 0 -545 252t-146 597q49 295 278 491t541 196q215 0 382 -102t257 -271l-154 -82q-152 301 -501 301q-242 0 -422 -158t-224 -391q-47 -270 113 -474t446 -204q231 0 392 140q160 140 209 362h-609l27 151h778l-10 -57q-41 -331 -257 -541t-555 -210z" />
    <glyph glyph-name="H" unicode="H" horiz-adv-x="1345" 
d="M946 0l117 672h-727l-117 -672h-162l262 1495h162l-119 -670h728l118 670h162l-262 -1495h-162z" />
    <glyph glyph-name="I" unicode="I" horiz-adv-x="493" 
d="M76 0l262 1495h162l-262 -1495h-162z" />
    <glyph glyph-name="J" unicode="J" horiz-adv-x="1026" 
d="M437 -20q-171 0 -275 78t-139 206l153 47q59 -182 254 -182q112 0 184 73t91 189l196 1104h162l-195 -1089q-35 -203 -147 -315q-113 -111 -284 -111z" />
    <glyph glyph-name="K" unicode="K" horiz-adv-x="1320" 
d="M1012 0l-369 782l-344 -327l-80 -455h-162l262 1495h162l-143 -815l860 815h209l-639 -606l418 -889h-174z" />
    <glyph glyph-name="L" unicode="L" horiz-adv-x="1093" 
d="M57 0l262 1495h162l-235 -1341h665l-26 -154h-828z" />
    <glyph glyph-name="M" unicode="M" horiz-adv-x="1759" 
d="M57 0l262 1495h144l438 -778l739 778h144l-262 -1495h-162l213 1212l-709 -743l-430 764l-215 -1233h-162z" />
    <glyph glyph-name="N" unicode="N" horiz-adv-x="1462" 
d="M57 0l262 1495h170l621 -1227l215 1227h162l-262 -1495h-158l-631 1245l-217 -1245h-162z" />
    <glyph glyph-name="O" unicode="O" horiz-adv-x="1736" 
d="M870 131q229 0 411 158q181 158 222 393q31 170 -25 326t-194 256t-328 100q-236 0 -416 -157t-223 -394q-47 -276 113 -479t440 -203zM856 -20q-348 0 -553 252t-145 597q51 297 281 492t526 195q233 0 409 -123t251 -320t36 -411q-53 -298 -279 -490t-526 -192z" />
    <glyph glyph-name="P" unicode="P" horiz-adv-x="1265" 
d="M725 1350h-270l-129 -738h315q174 0 292 98q117 98 145 258q28 158 -74 270t-279 112zM748 1495q236 0 382 -157t108 -382t-201 -357t-402 -132h-334l-82 -467h-162l262 1495h429z" />
    <glyph glyph-name="Q" unicode="Q" horiz-adv-x="1740" 
d="M828 -20q-208 0 -383 115q-173 116 -249 312q-77 196 -38 422q51 295 284 491t531 196q229 0 403 -122t249 -316t36 -406q-47 -274 -252 -469q70 -49 162 -49h39l-27 -154h-39q-108 0 -190 47t-132 115t-96 136q-109 161 -239 161h-41l28 153h39q127 0 203 -69
q43 -39 65 -63q23 -24 65 -86t54 -79q160 150 199 363q31 170 -25 327t-194 257t-326 100q-236 0 -416 -157t-223 -394q-47 -276 111 -477t434 -201q123 0 234 47q57 -80 104 -123q-162 -77 -370 -77z" />
    <glyph glyph-name="R" unicode="R" horiz-adv-x="1257" 
d="M1044 0q-164 0 -284 106t-175 262q-54 156 -48 330h129q164 0 265 84t127 223t-68 239t-261 106h-274l-236 -1350h-162l262 1495h435q229 0 366 -152t99 -370q-31 -172 -168 -290t-346 -122q25 -176 123 -293t243 -116h35l-29 -152h-33z" />
    <glyph glyph-name="S" unicode="S" horiz-adv-x="1122" 
d="M514 -20q-186 0 -312 74t-202 196l147 96q119 -215 365 -215q129 0 217 66t109 184t-67 196q-89 77 -194 126q-104 49 -146 71t-98 66q-164 126 -128 343q25 149 151 241t292 92q167 0 286 -62t188 -170l-137 -90q-104 180 -326 180q-121 0 -199 -58t-93 -153
q-23 -141 114 -229q60 -39 137 -76q76 -36 133 -65t95 -61q36 -32 68 -64t45 -61t31 -71t14 -85q-2 -43 -7 -99q-29 -166 -163 -269t-320 -103z" />
    <glyph glyph-name="T" unicode="T" horiz-adv-x="1206" 
d="M594 0h-162l236 1343h-428l26 152h1018l-27 -152h-428z" />
    <glyph glyph-name="U" unicode="U" horiz-adv-x="1300" 
d="M584 -20q-230 0 -359 144t-86 390l172 981h162l-174 -993q-29 -162 48 -268t263 -105q145 0 249 89q103 89 128 228l184 1049h162l-182 -1038q-39 -227 -187 -353q-150 -124 -380 -124z" />
    <glyph glyph-name="V" unicode="V" horiz-adv-x="1349" 
d="M657 0h-155l-271 1495h162l223 -1257l674 1257h172z" />
    <glyph glyph-name="W" unicode="W" horiz-adv-x="2136" 
d="M1546 0h-157l-191 1249l-627 -1249h-161l-174 1495h165l136 -1239l620 1239h158l190 -1245l572 1245h168z" />
    <glyph glyph-name="X" unicode="X" horiz-adv-x="1343" 
d="M1016 0l-316 637l-534 -637h-189l650 778l-351 717h170l293 -590l494 590h188l-608 -731l373 -764h-170z" />
    <glyph glyph-name="Y" unicode="Y" horiz-adv-x="1267" 
d="M457 0l127 721l-353 774h166l291 -637l508 637h184l-637 -790l-125 -705h-161z" />
    <glyph glyph-name="Z" unicode="Z" horiz-adv-x="1230" 
d="M1018 0h-985l26 147l994 1199h-760l24 149h959l-25 -145l-997 -1200h788z" />
    <glyph glyph-name="bracketleft" unicode="[" horiz-adv-x="802" 
d="M-37 -471l344 1966h559l-24 -152h-398l-294 -1662h397l-27 -152h-557z" />
    <glyph glyph-name="backslash" unicode="\" horiz-adv-x="968" 
d="M657 0l-448 1495h166l450 -1495h-168z" />
    <glyph glyph-name="bracketright" unicode="]" horiz-adv-x="802" 
d="M-47 -471l24 149h398l293 1665h-396l27 152h559l-346 -1966h-559z" />
    <glyph glyph-name="asciicircum" unicode="^" horiz-adv-x="1009" 
d="M285 1090l311 344h129l190 -344h-157l-115 215l-186 -215h-172z" />
    <glyph glyph-name="underscore" unicode="_" horiz-adv-x="950" 
d="M-39 -227l27 135h757l-24 -135h-760z" />
    <glyph glyph-name="grave" unicode="`" horiz-adv-x="1009" 
d="M666 1143l-238 332h203l180 -332h-145z" />
    <glyph glyph-name="a" unicode="a" horiz-adv-x="1327" 
d="M606 125q141 0 255 97q113 97 143 258t-65 290t-277 131q-142 0 -258 -96t-144 -258t72 -292q98 -130 274 -130zM576 -20q-232 0 -370 178t-95 420q35 202 191 334t353 132q139 0 241 -61t155 -164l36 205h158l-135 -750q-14 -78 6 -108t88 -29h27l-29 -137h-78
q-156 0 -172 141q-144 -161 -376 -161z" />
    <glyph glyph-name="b" unicode="b" horiz-adv-x="1302" 
d="M645 125q143 0 257 95t142 254t-68 292q-97 133 -276 135q-143 0 -260 -97q-116 -97 -144 -258t72 -291t277 -130zM647 -20q-139 0 -240 59t-155 164l-35 -203h-160l262 1495h160q-68 -369 -104 -590q135 139 359 139t363 -180q138 -180 97 -420q-36 -204 -190 -334
t-357 -130z" />
    <glyph glyph-name="c" unicode="c" horiz-adv-x="1189" 
d="M596 -20q-252 0 -391 178t-96 420q35 202 193 334t364 132q156 0 276 -74t176 -194l-143 -71q-90 195 -316 196q-143 0 -258 -96t-143 -258t72 -292q98 -130 274 -130q102 0 192 52q89 52 144 145l143 -70q-75 -128 -203 -200t-284 -72z" />
    <glyph glyph-name="d" unicode="d" horiz-adv-x="1333" 
d="M604 125q141 0 255 97q113 97 143 258t-65 290t-278 131q-143 0 -258 -96t-143 -258t72 -292q98 -130 274 -130zM574 -20q-232 0 -370 178t-95 420q35 202 191 334t353 132q137 0 239 -59t155 -160l122 670h158l-219 -1221q-14 -78 6 -108t88 -29h27l-29 -137h-78
q-156 0 -172 139q-144 -159 -376 -159z" />
    <glyph glyph-name="e" unicode="e" horiz-adv-x="1200" 
d="M700 907q-140 0 -262 -81t-166 -212q195 -72 348 -72q152 0 238 47q86 46 99 126t-52 136t-205 56zM626 -20q-280 0 -419 174t-96 421q37 211 208 340q172 129 382 129t324 -104t88 -242q-27 -138 -151 -218q-124 -79 -323 -79t-391 78q-4 -160 98 -260t290 -100t306 153
l125 -75q-161 -217 -441 -217z" />
    <glyph glyph-name="f" unicode="f" horiz-adv-x="733" 
d="M743 1495h48l-27 -147h-33q-121 0 -165 -41t-72 -203l-15 -80h226l-25 -137h-225l-158 -901q-37 -213 -116 -291t-257 -78h-74l25 147h33q117 0 164 44t69 178l156 901h-201l27 137h199l14 82q41 240 121 314t286 75z" />
    <glyph glyph-name="g" unicode="g" horiz-adv-x="1300" 
d="M604 125q141 0 255 97q113 97 143 258t-65 290t-278 131q-143 0 -258 -96t-143 -258t72 -292q98 -130 274 -130zM586 -20q-244 0 -382 178t-95 420q35 202 191 334t353 132q139 0 241 -61t155 -162l36 203h160l-178 -1004q-90 -512 -541 -512q-168 0 -290 77t-175 208
l160 51q74 -193 316 -192q314 0 372 377q2 10 6 36t9 50q-135 -135 -338 -135z" />
    <glyph glyph-name="h" unicode="h" horiz-adv-x="1222" 
d="M700 1044q196 0 305 -137q110 -137 68 -346l-57 -295q-16 -76 -1 -102t85 -27h33l-29 -137h-74q-121 0 -161 65t-15 193l59 307q29 154 -34 248t-208 94t-236 -92t-120 -252l-98 -563h-160l262 1495h158l-104 -580q131 129 327 129z" />
    <glyph glyph-name="i" unicode="i" horiz-adv-x="485" 
d="M258 1157l51 295h158l-51 -295h-158zM268 0q-215 0 -168 258l133 766h160l-133 -754q-10 -68 7 -100t75 -33h31l-29 -137h-76z" />
    <glyph glyph-name="j" unicode="j" horiz-adv-x="462" 
d="M270 1157l54 295h157l-51 -295h-160zM-199 -469h-47l27 147q143 0 192 44t78 200l197 1102h160l-197 -1104q-41 -229 -123 -309t-287 -80z" />
    <glyph glyph-name="k" unicode="k" horiz-adv-x="1128" 
d="M979 0q-127 0 -172 32t-109 146l-180 330l-252 -213l-51 -295h-158l262 1495h158l-176 -1003l631 532h209l-504 -428l192 -352q37 -68 66 -87t98 -20h37l-24 -137h-27z" />
    <glyph glyph-name="l" unicode="l" horiz-adv-x="487" 
d="M272 0q-118 0 -154 70t-14 204l213 1221h160l-215 -1221q-14 -76 6 -106t80 -31h29l-29 -137h-76z" />
    <glyph glyph-name="m" unicode="m" horiz-adv-x="1931" 
d="M129 887h-31l25 137h76q147 0 168 -135q133 156 350 155q102 0 190 -55t127 -147q133 203 371 202q211 0 314 -135t63 -350l-58 -293q-29 -129 80 -129h39l-28 -137h-91q-98 0 -143 68t-18 190l59 307q28 150 -32 246t-193 96t-214 -86t-108 -221l-119 -600h-159l118 598
q27 129 -33 219t-192 90t-222 -87q-89 -87 -122 -255l-110 -565h-160l141 743q14 74 -6 109t-82 35z" />
    <glyph glyph-name="n" unicode="n" horiz-adv-x="1251" 
d="M129 887h-31l25 137h76q147 0 168 -137q137 157 347 157t320 -137t68 -346l-58 -295q-16 -76 -1 -102t85 -27h33l-28 -137h-74q-121 0 -161 65t-15 193l59 307q30 154 -34 248t-208 94t-236 -93q-91 -93 -122 -255l-106 -559h-160l141 743q14 74 -6 109t-82 35z" />
    <glyph glyph-name="o" unicode="o" horiz-adv-x="1261" 
d="M604 125q143 0 257 95q115 95 143 254t-69 292t-276 135q-143 0 -258 -96t-143 -258t72 -292q98 -130 274 -130zM596 -20q-252 0 -391 178t-96 420q35 202 193 334t364 132q250 0 390 -179t97 -421q-35 -204 -191 -334t-366 -130z" />
    <glyph glyph-name="p" unicode="p" horiz-adv-x="1327" 
d="M670 125q143 0 257 95q115 95 143 254t-70 292t-260 134t-277 -97t-143 -259t74 -290q100 -129 276 -129zM676 -20q-141 0 -244 59q-102 59 -153 166l-123 -676h-160l219 1216q27 141 -94 142h-25l27 137h80q147 0 164 -150q150 170 383 170t371 -180t98 -420
q-35 -204 -189 -334t-354 -130z" />
    <glyph glyph-name="q" unicode="q" horiz-adv-x="1298" 
d="M602 125q141 0 255 97q113 97 143 258t-65 290t-278 131q-143 0 -258 -96t-143 -258t72 -292q98 -130 274 -130zM584 -20q-244 0 -382 178t-96 420q35 202 191 334t354 132q139 0 243 -61t155 -164l36 205h158l-262 -1495h-160q59 342 105 590q-139 -139 -342 -139z" />
    <glyph glyph-name="r" unicode="r" horiz-adv-x="843" 
d="M197 1024q162 0 172 -162q121 162 346 162h108l-28 -158h-93q-301 0 -362 -321l-104 -545h-160l141 743q31 143 -88 144h-31l25 137h74z" />
    <glyph glyph-name="s" unicode="s" horiz-adv-x="1005" 
d="M488 -20q-158 0 -272 62t-179 163l137 90q106 -178 318 -178q98 0 156 43t69 106t-19 86q-29 24 -45 36q-26 20 -179 73q-153 52 -240 120t-64 220q20 113 124 181t240 66q269 -2 412 -188l-131 -84q-97 137 -281 137t-208 -129q-12 -70 45 -112t163 -75t156 -59
q142 -71 175 -160q22 -56 9 -126q-20 -121 -123 -197q-104 -75 -263 -75z" />
    <glyph glyph-name="t" unicode="t" horiz-adv-x="694" 
d="M475 0q-223 0 -290 82t-27 309l86 492h-166l24 141h166l43 244l174 86l-59 -330h242l-25 -141h-242l-86 -490q-29 -160 7 -207t192 -47l-25 -139h-14z" />
    <glyph glyph-name="u" unicode="u" horiz-adv-x="1230" 
d="M523 -18q-202 0 -308 137t-65 346l55 278q14 80 -4 112t-82 32h-27l23 137h94q209 0 158 -266l-58 -297q-29 -154 33 -248t204 -94t231 98t112 248l104 559h160l-139 -743q-27 -143 86 -144h35l-25 -137h-82q-154 0 -170 127q-133 -145 -335 -145z" />
    <glyph glyph-name="v" unicode="v" horiz-adv-x="1181" 
d="M508 -20q-221 0 -312 126t-49 345l58 292q16 76 -1 110t-77 34h-35l25 137h92q96 0 140 -67t20 -199l-68 -340q-27 -135 29 -216t174 -81q160 0 265 135t145 355t-15 413h162q45 -232 1 -468t-188 -406t-366 -170z" />
    <glyph glyph-name="w" unicode="w" horiz-adv-x="1894" 
d="M492 -20q-199 0 -291 135t-49 350l53 278q31 143 -86 144h-27l25 137h92q211 0 160 -266l-60 -297q-31 -156 23 -249t187 -93q132 0 219 97t114 239l106 569h158l-112 -614q-25 -137 31 -213t175 -76q164 0 271 134q106 134 146 353t-17 416h162q47 -238 8 -442
q-48 -262 -194 -432t-378 -170q-268 0 -327 208q-143 -208 -389 -208z" />
    <glyph glyph-name="x" unicode="x" horiz-adv-x="1161" 
d="M231 887h-73l22 131h64q152 0 200 -35t111 -184l63 -158l361 383l192 2l-491 -524l94 -223q39 -94 71 -118t122 -24h65l-22 -137h-56q-150 0 -200 37t-113 182l-72 174l-368 -393h-199l506 535l-88 204q-39 98 -70 123t-119 25z" />
    <glyph glyph-name="y" unicode="y" horiz-adv-x="1200" 
d="M457 -492q-158 0 -275 81t-159 210l151 47q68 -195 295 -194q268 0 338 364l14 74q-127 -108 -313 -108t-293 137q-106 137 -65 346l55 278q14 80 -4 112t-82 32h-27l23 137h94q209 0 158 -266l-58 -297q-29 -154 33 -248t204 -94t231 98t112 248l104 559h156l-184 -1004
q-43 -250 -163 -381t-345 -131z" />
    <glyph glyph-name="z" unicode="z" horiz-adv-x="1169" 
d="M41 0l25 139l819 744h-670l27 141h886l-26 -139l-823 -746h704l-25 -139h-917z" />
    <glyph glyph-name="braceleft" unicode="{" horiz-adv-x="831" 
d="M559 -471q-256 0 -337 96t-36 348l43 248q23 127 -4 171t-149 44l26 150q121 0 165 43t67 172l43 250q45 252 158 348t370 96h23l-25 -145q-195 0 -265 -60t-101 -241l-45 -250q-20 -123 -64 -192t-129 -99q133 -57 92 -285l-45 -248q-32 -182 18 -241t244 -60l-26 -145
h-23z" />
    <glyph glyph-name="bar" unicode="|" horiz-adv-x="415" 
d="M-37 -471l346 1966h162l-346 -1966h-162z" />
    <glyph glyph-name="braceright" unicode="}" horiz-adv-x="854" 
d="M311 1495q256 0 337 -96t36 -348l-45 -252q-23 -127 4 -171t150 -44l-27 -152q-121 0 -165 -43t-66 -172l-41 -244q-45 -252 -159 -348t-370 -96h-22l24 145q195 0 265 60t102 241l43 244q20 121 63 191t125 100q-129 57 -88 287l47 252q31 182 -18 241t-244 60l27 145
h22z" />
    <glyph glyph-name="asciitilde" unicode="~" horiz-adv-x="958" 
d="M489 1442q79 0 158 -56q33 -22 43 -27t28 -15t40 -9q72 0 92 97h127q-23 -111 -85 -176q-124 -131 -321 -3q-66 43 -98 43q-68 0 -90 -94h-125q24 108 88 174t143 66z" />
    <glyph glyph-name="exclamdown" unicode="&#xa1;" horiz-adv-x="473" 
d="M188 743l50 281h159l-49 -281h-160zM-25 -471l41 240q94 520 185 849h90q-35 -399 -115 -849l-41 -240h-160z" />
    <glyph glyph-name="cent" unicode="&#xa2;" 
d="M610 125q223 0 344 197l144 -70q-74 -123 -203 -197t-281 -75l-43 -246h-161l47 264q-197 47 -292 210t-59 365q36 201 182 331q148 130 351 140l45 246h162l-47 -260q115 -28 201 -94t133 -160l-144 -71q-90 195 -323 196q-152 0 -267 -96t-143 -258t72 -292
q98 -130 282 -130z" />
    <glyph glyph-name="sterling" unicode="&#xa3;" 
d="M250 100q92 0 145 72q-89 64 -147 64t-70 -60q-6 -32 14 -54t58 -22zM758 1370q-98 0 -168 -61q-136 -121 -78 -455h485l-24 -137h-432q66 -293 41 -412q-8 -43 -25 -86q125 -98 182 -98q57 -1 81 23t34 87l12 70h172l-16 -90q-24 -127 -90 -179t-171 -52t-267 120
q-90 -121 -242 -120q-115 0 -172 59t-40 147q18 88 76 132t144 44t189 -67l2 2q0 1 3 15q8 34 2 103q-6 68 -17 113q-11 46 -20 86t-30 103h-201l25 137h143q-39 168 -14 303q29 168 144 263q116 95 296 96q242 0 371 -185l-127 -90q-58 69 -114 99t-154 30z" />
    <glyph glyph-name="currency" unicode="&#xa4;" horiz-adv-x="1583" 
d="M801 352q157 0 265 114t108 276t-109 275t-265 113t-262 -114q-108 -114 -108 -275t108 -275t263 -114zM801 209q-203 0 -350 129l-250 -225l-88 98l249 225q-92 137 -92 305q0 207 133 357l-161 192l100 88l162 -192q132 88 314 88t329 -127l229 213l88 -100l-227 -211
q96 -135 96 -308q0 -213 -143 -366l149 -174l-100 -86l-152 176q-129 -82 -286 -82z" />
    <glyph glyph-name="yen" unicode="&#xa5;" horiz-adv-x="1202" 
d="M205 805l24 131h349l-263 559h172l199 -434l369 434h190l-481 -559h358l-24 -131h-373l-39 -213h373l-23 -131h-374l-82 -461h-156l82 461h-356l22 131h358l39 213h-364z" />
    <glyph glyph-name="brokenbar" unicode="&#xa6;" horiz-adv-x="415" 
d="M-37 -471l152 860h161l-151 -860h-162zM158 635l151 860h162l-152 -860h-161z" />
    <glyph glyph-name="section" unicode="&#xa7;" horiz-adv-x="1222" 
d="M378 699q84 -48 240 -88t224 -70q143 41 164 145q17 96 -122 153q-78 30 -202 61q-125 32 -209 73q-152 -43 -164 -142q-14 -84 69 -132zM570 113q114 0 191 42t91 121q18 100 -125 156q-49 18 -229 63t-277 121q-98 76 -74 215q15 72 77 128t155 77q-91 84 -69 210
t143 199t287 72t280 -63t151 -154l-157 -47q-27 59 -101 99t-170 39q-258 0 -282 -156q-16 -88 83 -135q70 -35 200 -68q130 -34 197 -58t128 -61q122 -74 96 -217q-14 -76 -74 -134t-147 -85q86 -76 68 -194q-18 -145 -146 -225t-306 -79q-179 1 -311 79t-173 190l164 47
q33 -80 125 -131q91 -51 205 -51z" />
    <glyph glyph-name="dieresis" unicode="&#xa8;" horiz-adv-x="1013" 
d="M406 1157l49 285h159l-51 -285h-157zM678 1157l51 285h158l-49 -285h-160z" />
    <glyph glyph-name="copyright" unicode="&#xa9;" horiz-adv-x="1734" 
d="M885 342q-186 0 -290 131q-103 131 -73 315q29 158 153 262t286 105q117 0 205 -56t126 -151l-139 -65q-55 131 -205 131q-102 0 -183 -68t-100 -178t45 -197q64 -88 187 -88q70 0 132 36t99 97l129 -61q-120 -213 -372 -213zM870 121q238 0 420 159t228 402
q31 174 -27 333q-57 159 -199 260t-334 101q-244 0 -427 -158t-228 -405q-47 -274 115 -483t452 -209zM856 -20q-348 0 -553 252t-145 597q51 297 281 492t526 195q346 0 551 -255t145 -599q-51 -294 -281 -488t-524 -194z" />
    <glyph glyph-name="ordfeminine" unicode="&#xaa;" horiz-adv-x="872" 
d="M494 999q84 -1 146 57t73 138q16 84 -35 144t-136 60q-84 0 -146 -50q-62 -51 -74 -137t38 -149t134 -63zM786 903q-46 0 -72 27t-30 71q-86 -111 -214 -111t-206 91t-58 233t116 218q94 76 191 76q183 -1 228 -138l25 125h119l-76 -420q-14 -76 51 -76h21l-19 -96h-76z
" />
    <glyph glyph-name="guillemotleft" unicode="&#xab;" horiz-adv-x="931" 
d="M748 219l-275 244l19 102l360 244l-23 -131l-251 -170l192 -168zM395 219l-274 244l18 102l361 244l-23 -131l-252 -170l193 -168z" />
    <glyph glyph-name="logicalnot" unicode="&#xac;" horiz-adv-x="1267" 
d="M983 416l96 510h-946l29 153h1106l-125 -663h-160z" />
    <glyph glyph-name="uni00AD" unicode="&#xad;" horiz-adv-x="950" 
d="M88 455l25 135h757l-24 -135h-758z" />
    <glyph glyph-name="registered" unicode="&#xae;" horiz-adv-x="829" 
d="M541 1282h-35l-12 -70h38q63 0 70 33q4 25 -10 31t-51 6zM586 1356q57 0 87 -33t21 -80q-8 -76 -86 -92l58 -107h-97l-77 156l-27 -156h-84l57 312h148zM562 1432q-100 0 -168 -58q-67 -58 -84 -156q-17 -97 42 -174q58 -77 158 -77t167 58q67 57 83 153t-41 175t-157 79
zM568 1516q134 0 218 -104t62 -238t-116 -214t-229 -79q-134 0 -219 103q-85 102 -63 236q21 134 117 215t230 81z" />
    <glyph glyph-name="macron" unicode="&#xaf;" horiz-adv-x="1009" 
d="M340 1143l27 137h540l-26 -137h-541z" />
    <glyph glyph-name="degree" unicode="&#xb0;" horiz-adv-x="870" 
d="M559 1122q51 0 90 39t39 90t-39 90t-90 39t-90 -39t-39 -90t39 -90t90 -39zM559 989q-109 0 -187 78q-78 79 -77 187q0 108 78 185q79 77 187 77t184 -77t77 -186q-1 -109 -77 -187t-185 -77z" />
    <glyph glyph-name="plusminus" unicode="&#xb1;" horiz-adv-x="950" 
d="M43 260l25 137h757l-24 -137h-758zM152 885l24 137h311l56 309h135l-55 -309h311l-25 -137h-311l-53 -312h-137l55 312h-311z" />
    <glyph glyph-name="twosuperior" unicode="&#xb2;" horiz-adv-x="694" 
d="M94 631l23 135q12 68 62 130t97 96t92 62l72 44q115 70 144 107q67 85 8 145q-33 33 -92 32q-106 0 -164 -92l-119 58q96 160 287 159q124 -1 198 -71t54 -189q-14 -82 -80 -142t-198 -140t-166 -120q-36 -40 -42 -77h398l-25 -137h-549z" />
    <glyph glyph-name="threesuperior" unicode="&#xb3;" horiz-adv-x="663" 
d="M360 618q-96 0 -166 42t-100 104l131 76q37 -86 151 -86t132 118q10 58 -27 98t-100 40h-76l23 137h67q68 0 114 33t55 83t-24 82q-34 32 -87 31q-84 0 -138 -69l-110 84q90 117 252 116q127 1 197 -77t48 -192q-23 -114 -133 -171q111 -82 86 -227q-47 -222 -295 -222z
" />
    <glyph glyph-name="acute" unicode="&#xb4;" horiz-adv-x="1009" 
d="M371 1143l297 332h204l-354 -332h-147z" />
    <glyph glyph-name="mu" unicode="&#xb5;" horiz-adv-x="1236" 
d="M534 117q140 0 234 90t121 229l110 588h160l-139 -743q-12 -74 8 -109t80 -35h33l-25 -137h-80q-160 0 -168 150q-137 -170 -358 -170q-186 0 -281 126l-100 -577h-156l265 1495h159q-88 -498 -94 -532q-33 -168 29 -272t202 -103z" />
    <glyph glyph-name="mu" unicode="&#x3bc;" horiz-adv-x="1236" 
d="M534 117q140 0 234 90t121 229l110 588h160l-139 -743q-12 -74 8 -109t80 -35h33l-25 -137h-80q-160 0 -168 150q-137 -170 -358 -170q-186 0 -281 126l-100 -577h-156l265 1495h159q-88 -498 -94 -532q-33 -168 29 -272t202 -103z" />
    <glyph glyph-name="paragraph" unicode="&#xb6;" horiz-adv-x="1218" 
d="M659 1495h605l-263 -1495h-139l238 1350h-125l-236 -1350h-139l109 618h-174q-197 2 -306 140t-75 322q34 186 178 300q143 114 327 115z" />
    <glyph glyph-name="periodcentered" unicode="&#xb7;" horiz-adv-x="393" 
d="M96 379l49 280h158l-49 -280h-158z" />
    <glyph glyph-name="cedilla" unicode="&#xb8;" horiz-adv-x="1009" 
d="M336 -477q-201 0 -307 121l135 75q78 -78 178 -77q129 0 143 77q16 78 -135 78h-84l37 203h135l-22 -111q119 -6 172 -56t40 -130t-94 -130t-198 -50z" />
    <glyph glyph-name="onesuperior" unicode="&#xb9;" horiz-adv-x="589" 
d="M209 1202h-12l26 152h6q78 0 123 43t54 98h139l-129 -727h168l-23 -137h-469l23 137h157l88 510q-49 -76 -151 -76z" />
    <glyph glyph-name="ordmasculine" unicode="&#xba;" horiz-adv-x="796" 
d="M500 1004q82 0 140 51t71 127q10 84 -39 150t-131 65q-83 0 -141 -52q-58 -51 -70 -133t38 -145t132 -63zM493 891q-128 0 -211 96q-83 95 -67 225q17 130 111 212t221 83q127 0 211 -97t66 -226t-110 -211q-93 -82 -221 -82z" />
    <glyph glyph-name="guillemotright" unicode="&#xbb;" horiz-adv-x="931" 
d="M190 807l275 -244l-19 -102l-360 -244l23 131l251 168l-192 170zM543 807l274 -244l-18 -102l-361 -244l23 131l252 168l-193 170z" />
    <glyph glyph-name="onequarter" unicode="&#xbc;" horiz-adv-x="1775" 
d="M1186 330h217l53 307zM209 1202h-12l26 152h6q78 0 123 43t54 98h139l-129 -727h168l-23 -137h-469l23 137h157l88 510q-49 -76 -151 -76zM238 0l1337 1495h192l-1337 -1495h-192zM1346 0l34 199h-379l23 131l469 534h145l-94 -534h127l-22 -131h-127l-35 -199h-141z" />
    <glyph glyph-name="onehalf" unicode="&#xbd;" horiz-adv-x="1744" 
d="M211 1202h-12l26 152h6q78 0 123 43t54 98h139l-129 -727h168l-23 -137h-469l23 137h157l88 510q-49 -76 -151 -76zM1432 752q-106 0 -164 -93l-119 58q96 160 287 160q124 0 198 -71t54 -190q-14 -82 -80 -142t-198 -140t-167 -120t-41 -77h397l-24 -137h-549l23 135
q12 68 62 130t97 96q47 33 92 61l72 44q77 47 95 63t33 29q16 12 24 24q57 78 0 137q-33 33 -92 33zM141 0l1338 1495h192l-1337 -1495h-193z" />
    <glyph glyph-name="threequarters" unicode="&#xbe;" horiz-adv-x="1746" 
d="M1157 330h217l53 307zM360 618q-96 0 -166 42t-100 104l131 76q37 -86 151 -86t132 118q10 58 -27 98t-100 40h-76l23 137h67q68 0 114 33t55 83t-24 82q-34 32 -87 31q-84 0 -138 -69l-110 84q90 117 252 116q127 1 197 -77t48 -192q-23 -114 -133 -171q111 -82 86 -227
q-47 -222 -295 -222zM209 0l1337 1495h193l-1338 -1495h-192zM1317 0l35 199h-379l22 131l469 534h146l-94 -534h126l-22 -131h-127l-35 -199h-141z" />
    <glyph glyph-name="questiondown" unicode="&#xbf;" horiz-adv-x="1046" 
d="M745 1024l-49 -281h-159l49 281h159zM403 -492q-201 0 -321 120t-86 294q23 134 118 213q42 35 91 67q133 87 192 146q98 98 129 268l4 19h144q-15 -141 -79 -252q-64 -113 -131 -165q-68 -52 -132 -93t-114 -92t-62 -123q-20 -117 56 -190t206 -72q82 0 165 37t134 90
l102 -111q-67 -66 -183 -111t-233 -45z" />
    <glyph glyph-name="Agrave" unicode="&#xc0;" horiz-adv-x="1406" 
d="M829 1614l-237 332h203l180 -332h-146zM852 1280l-416 -750h557zM-29 0l836 1495h160l290 -1495h-163l-72 379h-670l-209 -379h-172z" />
    <glyph glyph-name="Aacute" unicode="&#xc1;" horiz-adv-x="1406" 
d="M829 1614l297 332h205l-354 -332h-148zM852 1280l-416 -750h557zM-29 0l836 1495h160l290 -1495h-163l-72 379h-670l-209 -379h-172z" />
    <glyph glyph-name="Acircumflex" unicode="&#xc2;" horiz-adv-x="1406" 
d="M590 1614l301 332h135l186 -332h-163l-111 205l-182 -205h-166zM852 1280l-416 -750h557zM-29 0l836 1495h160l290 -1495h-163l-72 379h-670l-209 -379h-172z" />
    <glyph glyph-name="Atilde" unicode="&#xc3;" horiz-adv-x="1406" 
d="M784 1862q84 0 168 -56t123 -57q72 0 94 104h127q-23 -115 -86 -181t-150 -66q-88 0 -172 56t-122 56q-72 0 -90 -104h-127q20 112 85 180t150 68zM852 1280l-416 -750h557zM-29 0l836 1495h160l290 -1495h-163l-72 379h-670l-209 -379h-172z" />
    <glyph glyph-name="Adieresis" unicode="&#xc4;" horiz-adv-x="1406" 
d="M690 1628l49 285h160l-51 -285h-158zM963 1628l51 285h157l-49 -285h-159zM852 1280l-416 -750h557zM-29 0l836 1495h160l290 -1495h-163l-72 379h-670l-209 -379h-172z" />
    <glyph glyph-name="Aring" unicode="&#xc5;" horiz-adv-x="1406" 
d="M915 1712q-41 0 -71 -24t-40 -66q-10 -41 14 -76t67 -35t73 26q30 25 40 65q9 40 -16 75q-26 35 -67 35zM852 1280l-416 -750h557zM932 1831q92 0 150 -78q58 -77 28 -185t-127 -155l274 -1413h-163l-72 379h-670l-209 -379h-172l795 1423q-51 35 -74 97t-2 135
q21 74 85 125q65 51 157 51z" />
    <glyph glyph-name="AE" unicode="&#xc6;" horiz-adv-x="2058" 
d="M1008 1251l-494 -733h518zM-18 0l999 1495h1110l-27 -152h-903l17 -518h794l-26 -151h-762l18 -520h651l-24 -154h-778l-13 371h-624l-248 -371h-184z" />
    <glyph glyph-name="Ccedilla" unicode="&#xc7;" horiz-adv-x="1622" 
d="M786 -481q-201 0 -307 121l135 75q78 -78 179 -77q129 0 143 77q16 78 -135 78h-84l35 193q-207 23 -356 141q-148 119 -210 304q-61 185 -24 396q51 295 288 492t547 197q213 0 386 -109t251 -283l-155 -71q-129 309 -502 309q-238 0 -425 -158t-232 -412
q-44 -254 106 -456q150 -203 432 -203q170 0 316 84q145 84 231 232l145 -70q-102 -177 -274 -283t-391 -114l-19 -97q119 -6 172 -56t40 -130t-94 -130t-198 -50z" />
    <glyph glyph-name="Egrave" unicode="&#xc8;" horiz-adv-x="1177" 
d="M743 1614l-237 332h203l180 -332h-146zM57 0l262 1495h908l-27 -149h-745l-90 -512h747l-29 -152h-745l-92 -530h745l-26 -152h-908z" />
    <glyph glyph-name="Eacute" unicode="&#xc9;" horiz-adv-x="1177" 
d="M692 1614l297 332h205l-354 -332h-148zM57 0l262 1495h908l-27 -149h-745l-90 -512h747l-29 -152h-745l-92 -530h745l-26 -152h-908z" />
    <glyph glyph-name="Ecircumflex" unicode="&#xca;" horiz-adv-x="1177" 
d="M483 1614l301 332h136l186 -332h-164l-111 205l-182 -205h-166zM57 0l262 1495h908l-27 -149h-745l-90 -512h747l-29 -152h-745l-92 -530h745l-26 -152h-908z" />
    <glyph glyph-name="Edieresis" unicode="&#xcb;" horiz-adv-x="1177" 
d="M856 1628l51 285h158l-49 -285h-160zM584 1628l49 285h160l-52 -285h-157zM57 0l262 1495h908l-27 -149h-745l-90 -512h747l-29 -152h-745l-92 -530h745l-26 -152h-908z" />
    <glyph glyph-name="Igrave" unicode="&#xcc;" horiz-adv-x="493" 
d="M367 1614l-238 332h203l180 -332h-145zM76 0l262 1495h162l-262 -1495h-162z" />
    <glyph glyph-name="Iacute" unicode="&#xcd;" horiz-adv-x="493" 
d="M365 1614l297 332h204l-354 -332h-147zM76 0l262 1495h162l-262 -1495h-162z" />
    <glyph glyph-name="Icircumflex" unicode="&#xce;" horiz-adv-x="493" 
d="M129 1614l301 332h135l187 -332h-164l-111 205l-182 -205h-166zM76 0l262 1495h162l-262 -1495h-162z" />
    <glyph glyph-name="Idieresis" unicode="&#xcf;" horiz-adv-x="493" 
d="M229 1628l50 285h159l-51 -285h-158zM502 1628l51 285h158l-49 -285h-160zM76 0l262 1495h162l-262 -1495h-162z" />
    <glyph glyph-name="Eth" unicode="&#xd0;" horiz-adv-x="1507" 
d="M629 150q240 0 421 156t226 412q45 255 -106 442t-414 188h-240l-90 -510h428l-23 -136h-428l-96 -552h322zM616 0h-497l123 702h-162l24 136h160l117 657h397q215 -2 380 -111q165 -110 241 -292t39 -394q-54 -310 -282 -504t-540 -194z" />
    <glyph glyph-name="Ntilde" unicode="&#xd1;" horiz-adv-x="1462" 
d="M826 1862q84 0 168 -56t124 -57q74 0 94 104h127q-23 -115 -86 -181t-150 -66t-185 67q-70 45 -109 45q-72 0 -90 -104h-127q20 112 85 180t149 68zM57 0l262 1495h170l621 -1227l215 1227h162l-262 -1495h-158l-631 1245l-217 -1245h-162z" />
    <glyph glyph-name="Ograve" unicode="&#xd2;" horiz-adv-x="1736" 
d="M985 1614l-237 332h202l180 -332h-145zM870 131q229 0 411 158q181 158 222 393q31 170 -25 326t-194 256t-328 100q-236 0 -416 -157t-223 -394q-47 -276 113 -479t440 -203zM856 -20q-348 0 -553 252t-145 597q51 297 281 492t526 195q233 0 409 -123t251 -320t36 -411
q-53 -298 -279 -490t-526 -192z" />
    <glyph glyph-name="Oacute" unicode="&#xd3;" horiz-adv-x="1736" 
d="M870 131q229 0 411 158q181 158 222 393q31 170 -25 326t-194 256t-328 100q-236 0 -416 -157t-223 -394q-47 -276 113 -479t440 -203zM856 -20q-348 0 -553 252t-145 597q51 297 281 492t526 195q233 0 409 -123t251 -320t36 -411q-53 -298 -279 -490t-526 -192z
M956 1614l297 332h205l-354 -332h-148z" />
    <glyph glyph-name="Ocircumflex" unicode="&#xd4;" horiz-adv-x="1736" 
d="M729 1614l301 332h135l187 -332h-164l-111 205l-182 -205h-166zM870 131q229 0 411 158q181 158 222 393q31 170 -25 326t-194 256t-328 100q-236 0 -416 -157t-223 -394q-47 -276 113 -479t440 -203zM856 -20q-348 0 -553 252t-145 597q51 297 281 492t526 195
q233 0 409 -123t251 -320t36 -411q-53 -298 -279 -490t-526 -192z" />
    <glyph glyph-name="Otilde" unicode="&#xd5;" horiz-adv-x="1736" 
d="M932 1862q84 0 169 -56t124 -57q74 0 94 104h127q-23 -115 -86 -181q-62 -66 -150 -66t-186 67q-70 45 -109 45q-72 0 -90 -104h-127q20 112 85 180t149 68zM870 131q229 0 411 158q181 158 222 393q31 170 -25 326t-194 256t-328 100q-236 0 -416 -157t-223 -394
q-47 -276 113 -479t440 -203zM856 -20q-348 0 -553 252t-145 597q51 297 281 492t526 195q233 0 409 -123t251 -320t36 -411q-53 -298 -279 -490t-526 -192z" />
    <glyph glyph-name="Odieresis" unicode="&#xd6;" horiz-adv-x="1736" 
d="M870 131q229 0 411 158q181 158 222 393q31 170 -25 326t-194 256t-328 100q-236 0 -416 -157t-223 -394q-47 -276 113 -479t440 -203zM856 -20q-348 0 -553 252t-145 597q51 297 281 492t526 195q233 0 409 -123t251 -320t36 -411q-53 -298 -279 -490t-526 -192z
M809 1628l49 285h160l-51 -285h-158zM1081 1628l52 285h157l-49 -285h-160z" />
    <glyph glyph-name="multiply" unicode="&#xd7;" horiz-adv-x="950" 
d="M197 399l-80 97l297 252l-205 251l108 93l207 -250l291 248l80 -97l-293 -248l205 -247l-111 -92l-202 245z" />
    <glyph glyph-name="Oslash" unicode="&#xd8;" horiz-adv-x="1734" 
d="M886 135q215 0 395 156q179 156 222 391q47 270 -112 477l-865 -917q145 -107 360 -107zM954 1364q-236 0 -416 -156t-223 -395q-25 -133 7 -258t108 -219l864 917q-143 111 -340 111zM856 -20q-254 0 -442 143l-115 -123h-186l202 215q-219 256 -157 614q51 297 281 492
t526 195q250 0 438 -146l119 125h186l-207 -219q101 -121 145 -281t13 -333q-51 -294 -279 -488t-524 -194z" />
    <glyph glyph-name="Ugrave" unicode="&#xd9;" horiz-adv-x="1300" 
d="M768 1597l-238 332h203l180 -332h-145zM584 -20q-230 0 -359 144t-86 390l172 981h162l-174 -993q-29 -162 48 -268t263 -105q145 0 249 89q103 89 128 228l184 1049h162l-182 -1038q-39 -227 -187 -353q-150 -124 -380 -124z" />
    <glyph glyph-name="Uacute" unicode="&#xda;" horiz-adv-x="1300" 
d="M584 -20q-230 0 -359 144t-86 390l172 981h162l-174 -993q-29 -162 48 -268t263 -105q145 0 249 89q103 89 128 228l184 1049h162l-182 -1038q-39 -227 -187 -353q-150 -124 -380 -124zM741 1602l297 331h205l-354 -331h-148z" />
    <glyph glyph-name="Ucircumflex" unicode="&#xdb;" horiz-adv-x="1300" 
d="M530 1614l301 332h136l186 -332h-164l-110 205l-183 -205h-166zM584 -20q-230 0 -359 144t-86 390l172 981h162l-174 -993q-29 -162 48 -268t263 -105q145 0 249 89q103 89 128 228l184 1049h162l-182 -1038q-39 -227 -187 -353q-150 -124 -380 -124z" />
    <glyph glyph-name="Udieresis" unicode="&#xdc;" horiz-adv-x="1300" 
d="M584 -20q-230 0 -359 144t-86 390l172 981h162l-174 -993q-29 -162 48 -268t263 -105q145 0 249 89q103 89 128 228l184 1049h162l-182 -1038q-39 -227 -187 -353q-150 -124 -380 -124zM625 1616l49 285h160l-52 -285h-157zM897 1616l51 285h158l-49 -285h-160z" />
    <glyph glyph-name="Yacute" unicode="&#xdd;" horiz-adv-x="1267" 
d="M729 1602l297 331h205l-354 -331h-148zM457 0l127 721l-353 774h166l291 -637l508 637h184l-637 -790l-125 -705h-161z" />
    <glyph glyph-name="Thorn" unicode="&#xde;" horiz-adv-x="1224" 
d="M721 1032h-342l-92 -530h375q126 0 210 70t104 185t-54 195t-201 80zM741 1182q187 0 307 -127t89 -307t-162 -288t-324 -108h-391l-61 -352h-162l262 1495h162l-55 -313h335z" />
    <glyph glyph-name="germandbls" unicode="&#xdf;" horiz-adv-x="1157" 
d="M573 -16q-65 0 -135 22t-104 49l33 133q81 -63 201 -63t206 75q86 74 108 198t-56 215t-222 92h-39l25 143h39q104 0 191 66q86 66 106 174t-42 193t-175 85t-190 -70t-97 -194l-209 -1174q-37 -211 -138 -305t-298 -94h-25l27 147q135 0 192 56t82 194l207 1164
q74 416 451 415q189 0 293 -132t71 -302q-18 -106 -90 -182t-170 -113q123 -38 185 -156t38 -249q-31 -174 -153 -281q-123 -106 -312 -106z" />
    <glyph glyph-name="agrave" unicode="&#xe0;" horiz-adv-x="1327" 
d="M655 1143l-237 332h203l180 -332h-146zM606 125q141 0 255 97q113 97 143 258t-65 290t-277 131q-142 0 -258 -96t-144 -258t72 -292q98 -130 274 -130zM576 -20q-232 0 -370 178t-95 420q35 202 191 334t353 132q139 0 241 -61t155 -164l36 205h158l-135 -750
q-14 -78 6 -108t88 -29h27l-29 -137h-78q-156 0 -172 141q-144 -161 -376 -161z" />
    <glyph glyph-name="aacute" unicode="&#xe1;" horiz-adv-x="1327" 
d="M621 1143l297 332h204l-354 -332h-147zM606 125q141 0 255 97q113 97 143 258t-65 290t-277 131q-142 0 -258 -96t-144 -258t72 -292q98 -130 274 -130zM576 -20q-232 0 -370 178t-95 420q35 202 191 334t353 132q139 0 241 -61t155 -164l36 205h158l-135 -750
q-14 -78 6 -108t88 -29h27l-29 -137h-78q-156 0 -172 141q-144 -161 -376 -161z" />
    <glyph glyph-name="acircumflex" unicode="&#xe2;" horiz-adv-x="1327" 
d="M440 1143l301 332h136l186 -332h-164l-111 205l-182 -205h-166zM606 125q141 0 255 97q113 97 143 258t-65 290t-277 131q-142 0 -258 -96t-144 -258t72 -292q98 -130 274 -130zM576 -20q-232 0 -370 178t-95 420q35 202 191 334t353 132q139 0 241 -61t155 -164l36 205
h158l-135 -750q-14 -78 6 -108t88 -29h27l-29 -137h-78q-156 0 -172 141q-144 -161 -376 -161z" />
    <glyph glyph-name="atilde" unicode="&#xe3;" horiz-adv-x="1327" 
d="M637 1391q84 -1 169 -57t124 -56q74 0 94 104h127q-23 -116 -86 -182t-151 -66t-185 68q-70 45 -108 45q-72 0 -91 -104h-127q20 113 85 181t149 67zM606 125q141 0 255 97q113 97 143 258t-65 290t-277 131q-142 0 -258 -96t-144 -258t72 -292q98 -130 274 -130z
M576 -20q-232 0 -370 178t-95 420q35 202 191 334t353 132q139 0 241 -61t155 -164l36 205h158l-135 -750q-14 -78 6 -108t88 -29h27l-29 -137h-78q-156 0 -172 141q-144 -161 -376 -161z" />
    <glyph glyph-name="adieresis" unicode="&#xe4;" horiz-adv-x="1327" 
d="M530 1157l50 285h159l-51 -285h-158zM803 1157l51 285h158l-49 -285h-160zM606 125q141 0 255 97q113 97 143 258t-65 290t-277 131q-142 0 -258 -96t-144 -258t72 -292q98 -130 274 -130zM576 -20q-232 0 -370 178t-95 420q35 202 191 334t353 132q139 0 241 -61
t155 -164l36 205h158l-135 -750q-14 -78 6 -108t88 -29h27l-29 -137h-78q-156 0 -172 141q-144 -161 -376 -161z" />
    <glyph glyph-name="aring" unicode="&#xe5;" horiz-adv-x="1327" 
d="M788 1450q-42 0 -72 -25t-39 -65t15 -76q24 -35 66 -35q44 0 74 26q30 25 39 65t-16 75q-26 35 -67 35zM745 1128q-93 0 -152 78q-57 78 -33 169t88 143q65 51 157 51t150 -78q57 -78 33 -168q-24 -91 -87 -143t-156 -52zM606 125q141 0 255 97q113 97 143 258t-65 290
t-277 131q-142 0 -258 -96t-144 -258t72 -292q98 -130 274 -130zM576 -20q-232 0 -370 178t-95 420q35 202 191 334t353 132q139 0 241 -61t155 -164l36 205h158l-135 -750q-14 -78 6 -108t88 -29h27l-29 -137h-78q-156 0 -172 141q-144 -161 -376 -161z" />
    <glyph glyph-name="ae" unicode="&#xe6;" horiz-adv-x="1923" 
d="M444 111q117 0 224 74q106 75 166 180q-19 118 6 186q-49 -41 -364 -103q-82 -16 -152 -52t-81 -114t37 -124t164 -47zM1425 907q-135 0 -257 -80t-171 -213q195 -72 347 -72t237 49q86 48 100 128t-53 134t-203 54zM405 -20q-167 0 -250 87t-67 221t131 198
q115 65 403 118q79 14 133 34q54 19 84 41q46 34 50 75q12 70 -49 118q-60 48 -196 50q-136 0 -226 -62t-109 -174h-143q27 170 157 264t334 94q131 0 221 -44t130 -119q174 164 422 163q204 0 320 -100t90 -242t-152 -221q-126 -80 -324 -80q-196 0 -393 80
q-6 -160 98 -261t289 -101t307 141l121 -84q-164 -197 -449 -196q-163 0 -281 66t-177 181q-67 -107 -187 -177t-287 -70z" />
    <glyph glyph-name="ccedilla" unicode="&#xe7;" horiz-adv-x="1189" 
d="M498 -479q-201 0 -308 121l136 75q78 -78 178 -77q129 0 143 77q16 78 -135 78h-84l35 201q-193 45 -292 210t-63 370q36 204 194 336t364 132q156 0 276 -74t176 -194l-143 -71q-90 195 -316 196q-143 0 -258 -96t-143 -258t72 -292q98 -130 274 -130q102 0 192 52
q89 52 144 145l143 -70q-75 -127 -203 -200t-284 -72l-18 -93q119 -6 172 -56t40 -130t-94 -130t-198 -50z" />
    <glyph glyph-name="egrave" unicode="&#xe8;" horiz-adv-x="1200" 
d="M653 1143l-237 332h202l181 -332h-146zM700 907q-140 0 -262 -81t-166 -212q195 -72 348 -72q152 0 238 47q86 46 99 126t-52 136t-205 56zM626 -20q-280 0 -419 174t-96 421q37 211 208 340q172 129 382 129t324 -104t88 -242q-27 -138 -151 -218q-124 -79 -323 -79
t-391 78q-4 -160 98 -260t290 -100t306 153l125 -75q-161 -217 -441 -217z" />
    <glyph glyph-name="eacute" unicode="&#xe9;" horiz-adv-x="1200" 
d="M618 1143l297 332h205l-354 -332h-148zM700 907q-140 0 -262 -81t-166 -212q195 -72 348 -72q152 0 238 47q86 46 99 126t-52 136t-205 56zM626 -20q-280 0 -419 174t-96 421q37 211 208 340q172 129 382 129t324 -104t88 -242q-27 -138 -151 -218q-124 -79 -323 -79
t-391 78q-4 -160 98 -260t290 -100t306 153l125 -75q-161 -217 -441 -217z" />
    <glyph glyph-name="ecircumflex" unicode="&#xea;" horiz-adv-x="1200" 
d="M403 1143l302 332h135l186 -332h-164l-110 205l-183 -205h-166zM700 907q-140 0 -262 -81t-166 -212q195 -72 348 -72q152 0 238 47q86 46 99 126t-52 136t-205 56zM626 -20q-280 0 -419 174t-96 421q37 211 208 340q172 129 382 129t324 -104t88 -242
q-27 -138 -151 -218q-124 -79 -323 -79t-391 78q-4 -160 98 -260t290 -100t306 153l125 -75q-161 -217 -441 -217z" />
    <glyph glyph-name="edieresis" unicode="&#xeb;" horiz-adv-x="1200" 
d="M795 1157l51 285h158l-50 -285h-159zM522 1157l49 285h160l-51 -285h-158zM700 907q-140 0 -262 -81t-166 -212q195 -72 348 -72q152 0 238 47q86 46 99 126t-52 136t-205 56zM626 -20q-280 0 -419 174t-96 421q37 211 208 340q172 129 382 129t324 -104t88 -242
q-27 -138 -151 -218q-124 -79 -323 -79t-391 78q-4 -160 98 -260t290 -100t306 153l125 -75q-161 -217 -441 -217z" />
    <glyph glyph-name="igrave" unicode="&#xec;" horiz-adv-x="485" 
d="M252 1143l-238 332h203l180 -332h-145zM268 0q-215 0 -168 258l133 766h160l-133 -754q-10 -68 7 -100t75 -33h31l-29 -137h-76z" />
    <glyph glyph-name="iacute" unicode="&#xed;" horiz-adv-x="485" 
d="M248 1143l297 332h205l-355 -332h-147zM268 0q-215 0 -168 258l133 766h160l-133 -754q-10 -68 7 -100t75 -33h31l-29 -137h-76z" />
    <glyph glyph-name="icircumflex" unicode="&#xee;" horiz-adv-x="485" 
d="M25 1143l301 332h135l186 -332h-164l-110 205l-183 -205h-165zM268 0q-215 0 -168 258l133 766h160l-133 -754q-10 -68 7 -100t75 -33h31l-29 -137h-76z" />
    <glyph glyph-name="idieresis" unicode="&#xef;" horiz-adv-x="485" 
d="M117 1157l49 285h160l-52 -285h-157zM389 1157l51 285h158l-49 -285h-160zM268 0q-215 0 -168 258l133 766h160l-133 -754q-10 -68 7 -100t75 -33h31l-29 -137h-76z" />
    <glyph glyph-name="eth" unicode="&#xf0;" horiz-adv-x="1269" 
d="M608 121q139 0 251 94t138 236q37 170 -56 304t-284 134q-141 0 -251 -93t-140 -252q-32 -159 66 -291t276 -132zM640 1026q200 0 318 -113q-74 150 -247 328l-256 -70l20 117l146 39q-88 82 -199 168h237q90 -82 127 -121l244 68l-18 -117l-144 -39q367 -426 289 -842
q-41 -213 -191 -339q-150 -125 -378 -125t-371 160t-115 386q28 228 182 364q156 136 356 136z" />
    <glyph glyph-name="ntilde" unicode="&#xf1;" horiz-adv-x="1251" 
d="M627 1391q84 -1 169 -57t124 -56q72 0 94 104h127q-23 -116 -86 -182t-151 -66t-185 68q-70 45 -109 45q-72 0 -90 -104h-127q20 113 85 181t149 67zM129 887h-31l25 137h76q147 0 168 -137q137 157 347 157t320 -137t68 -346l-58 -295q-16 -76 -1 -102t85 -27h33
l-28 -137h-74q-121 0 -161 65t-15 193l59 307q30 154 -34 248t-208 94t-236 -93q-91 -93 -122 -255l-106 -559h-160l141 743q14 74 -6 109t-82 35z" />
    <glyph glyph-name="ograve" unicode="&#xf2;" horiz-adv-x="1261" 
d="M629 1143l-238 332h203l180 -332h-145zM604 125q143 0 257 95q115 95 143 254t-69 292t-276 135q-143 0 -258 -96t-143 -258t72 -292q98 -130 274 -130zM596 -20q-252 0 -391 178t-96 420q35 202 193 334t364 132q250 0 390 -179t97 -421q-35 -204 -191 -334t-366 -130z
" />
    <glyph glyph-name="oacute" unicode="&#xf3;" horiz-adv-x="1261" 
d="M604 125q143 0 257 95q115 95 143 254t-69 292t-276 135q-143 0 -258 -96t-143 -258t72 -292q98 -130 274 -130zM596 -20q-252 0 -391 178t-96 420q35 202 193 334t364 132q250 0 390 -179t97 -421q-35 -204 -191 -334t-366 -130zM608 1143l297 332h205l-354 -332h-148z
" />
    <glyph glyph-name="ocircumflex" unicode="&#xf4;" horiz-adv-x="1261" 
d="M375 1143l301 332h135l186 -332h-163l-111 205l-182 -205h-166zM604 125q143 0 257 95q115 95 143 254t-69 292t-276 135q-143 0 -258 -96t-143 -258t72 -292q98 -130 274 -130zM596 -20q-252 0 -391 178t-96 420q35 202 193 334t364 132q250 0 390 -179t97 -421
q-35 -204 -191 -334t-366 -130z" />
    <glyph glyph-name="otilde" unicode="&#xf5;" horiz-adv-x="1261" 
d="M566 1391q84 -1 169 -57q84 -56 123 -56q72 0 94 104h127q-23 -116 -86 -182t-150 -66t-171 57q-84 56 -123 56q-72 0 -90 -104h-127q20 113 85 181t149 67zM604 125q143 0 257 95q115 95 143 254t-69 292t-276 135q-143 0 -258 -96t-143 -258t72 -292q98 -130 274 -130z
M596 -20q-252 0 -391 178t-96 420q35 202 193 334t364 132q250 0 390 -179t97 -421q-35 -204 -191 -334t-366 -130z" />
    <glyph glyph-name="odieresis" unicode="&#xf6;" horiz-adv-x="1261" 
d="M604 125q143 0 257 95q115 95 143 254t-69 292t-276 135q-143 0 -258 -96t-143 -258t72 -292q98 -130 274 -130zM596 -20q-252 0 -391 178t-96 420q35 202 193 334t364 132q250 0 390 -179t97 -421q-35 -204 -191 -334t-366 -130zM469 1157l49 285h160l-51 -285h-158z
M741 1157l52 285h157l-49 -285h-160z" />
    <glyph glyph-name="divide" unicode="&#xf7;" horiz-adv-x="950" 
d="M367 328l43 245h135l-43 -245h-135zM471 920l43 245h135l-43 -245h-135zM115 680l24 135h758l-25 -135h-757z" />
    <glyph glyph-name="oslash" unicode="&#xf8;" horiz-adv-x="1261" 
d="M619 125q128 0 242 95q113 95 141 249t-58 285l-538 -572q85 -57 213 -57zM860 840q-88 59 -216 60t-242 -95t-143 -254q-28 -158 60 -285zM648 1044q190 0 317 -94l69 74h164l-145 -156q145 -178 100 -424q-35 -204 -191 -334t-346 -130q-192 0 -317 90l-66 -70h-163
l141 150q-147 176 -102 428q35 202 193 334q156 132 346 132z" />
    <glyph glyph-name="ugrave" unicode="&#xf9;" horiz-adv-x="1230" 
d="M602 1143l-237 332h202l181 -332h-146zM523 -18q-202 0 -308 137t-65 346l55 278q14 80 -4 112t-82 32h-27l23 137h94q209 0 158 -266l-58 -297q-29 -154 33 -248t204 -94t231 98t112 248l104 559h160l-139 -743q-27 -143 86 -144h35l-25 -137h-82q-154 0 -170 127
q-133 -145 -335 -145z" />
    <glyph glyph-name="uacute" unicode="&#xfa;" horiz-adv-x="1230" 
d="M569 1143l297 332h205l-354 -332h-148zM523 -18q-202 0 -308 137t-65 346l55 278q14 80 -4 112t-82 32h-27l23 137h94q209 0 158 -266l-58 -297q-29 -154 33 -248t204 -94t231 98t112 248l104 559h160l-139 -743q-27 -143 86 -144h35l-25 -137h-82q-154 0 -170 127
q-133 -145 -335 -145z" />
    <glyph glyph-name="ucircumflex" unicode="&#xfb;" horiz-adv-x="1230" 
d="M369 1143l301 332h135l186 -332h-164l-110 205l-182 -205h-166zM523 -18q-202 0 -308 137t-65 346l55 278q14 80 -4 112t-82 32h-27l23 137h94q209 0 158 -266l-58 -297q-29 -154 33 -248t204 -94t231 98t112 248l104 559h160l-139 -743q-27 -143 86 -144h35l-25 -137
h-82q-154 0 -170 127q-133 -145 -335 -145z" />
    <glyph glyph-name="udieresis" unicode="&#xfc;" horiz-adv-x="1230" 
d="M760 1157l51 285h158l-49 -285h-160zM487 1157l50 285h159l-51 -285h-158zM523 -18q-202 0 -308 137t-65 346l55 278q14 80 -4 112t-82 32h-27l23 137h94q209 0 158 -266l-58 -297q-29 -154 33 -248t204 -94t231 98t112 248l104 559h160l-139 -743q-27 -143 86 -144h35
l-25 -137h-82q-154 0 -170 127q-133 -145 -335 -145z" />
    <glyph glyph-name="yacute" unicode="&#xfd;" horiz-adv-x="1200" 
d="M543 1143l297 332h204l-354 -332h-147zM457 -492q-158 0 -275 81t-159 210l151 47q68 -195 295 -194q268 0 338 364l14 74q-127 -108 -313 -108t-293 137q-106 137 -65 346l55 278q14 80 -4 112t-82 32h-27l23 137h94q209 0 158 -266l-58 -297q-29 -154 33 -248t204 -94
t231 98t112 248l104 559h156l-184 -1004q-43 -250 -163 -381t-345 -131z" />
    <glyph glyph-name="thorn" unicode="&#xfe;" horiz-adv-x="1292" 
d="M633 125q145 0 259 99t142 260t-67 289q-96 128 -256 128t-276 -104t-140 -258q-31 -172 63 -293t275 -121zM645 -20q-150 0 -249 64t-142 173l-121 -688h-158l347 1966h157q-63 -358 -108 -606q151 155 371 155t352 -174t88 -417q-34 -209 -188 -341t-349 -132z" />
    <glyph glyph-name="ydieresis" unicode="&#xff;" horiz-adv-x="1200" 
d="M717 1157l51 285h158l-49 -285h-160zM444 1157l50 285h159l-51 -285h-158zM457 -492q-158 0 -275 81t-159 210l151 47q68 -195 295 -194q268 0 338 364l14 74q-127 -108 -313 -108t-293 137q-106 137 -65 346l55 278q14 80 -4 112t-82 32h-27l23 137h94q209 0 158 -266
l-58 -297q-29 -154 33 -248t204 -94t231 98t112 248l104 559h156l-184 -1004q-43 -250 -163 -381t-345 -131z" />
    <glyph glyph-name="Amacron" unicode="&#x100;" horiz-adv-x="1406" 
d="M633 1614l26 137h541l-26 -137h-541zM852 1280l-416 -750h557zM-29 0l836 1495h160l290 -1495h-163l-72 379h-670l-209 -379h-172z" />
    <glyph glyph-name="amacron" unicode="&#x101;" horiz-adv-x="1327" 
d="M498 1143l26 137h541l-27 -137h-540zM606 125q141 0 255 97q113 97 143 258t-65 290t-277 131q-142 0 -258 -96t-144 -258t72 -292q98 -130 274 -130zM576 -20q-232 0 -370 178t-95 420q35 202 191 334t353 132q139 0 241 -61t155 -164l36 205h158l-135 -750
q-14 -78 6 -108t88 -29h27l-29 -137h-78q-156 0 -172 141q-144 -161 -376 -161z" />
    <glyph glyph-name="Abreve" unicode="&#x102;" horiz-adv-x="1406" 
d="M897 1606q-155 0 -227 95t-45 238h137q-18 -96 24 -154t134 -61q92 2 151 60t78 155h137q-27 -143 -130 -238t-259 -95zM852 1280l-416 -750h557zM-29 0l836 1495h160l290 -1495h-163l-72 379h-670l-209 -379h-172z" />
    <glyph glyph-name="abreve" unicode="&#x103;" horiz-adv-x="1327" 
d="M739 1130q-155 0 -227 96t-45 238h137q-18 -96 24 -154t134 -61q92 1 151 59t78 156h137q-27 -142 -130 -238t-259 -96zM606 125q141 0 255 97q113 97 143 258t-65 290t-277 131q-142 0 -258 -96t-144 -258t72 -292q98 -130 274 -130zM576 -20q-232 0 -370 178t-95 420
q35 202 191 334t353 132q139 0 241 -61t155 -164l36 205h158l-135 -750q-14 -78 6 -108t88 -29h27l-29 -137h-78q-156 0 -172 141q-144 -161 -376 -161z" />
    <glyph glyph-name="Aogonek" unicode="&#x104;" horiz-adv-x="1406" 
d="M852 1280l-416 -750h557zM1063 -446q-133 0 -202 64t-55 147q14 82 78 144q62 62 201 132l-63 338h-670l-209 -379h-172l836 1495h160l290 -1495q-172 -94 -227 -138t-63 -87q-7 -43 21 -67t77 -23q76 0 168 69l110 -86q-147 -114 -280 -114z" />
    <glyph glyph-name="aogonek" unicode="&#x105;" horiz-adv-x="1327" 
d="M606 125q141 0 255 97q113 97 143 258t-65 290t-277 131q-142 0 -258 -96t-144 -258t72 -292q98 -130 274 -130zM576 -20q-232 0 -370 178t-95 420q35 202 191 334t353 132q139 0 241 -61t155 -164l36 205h158l-135 -750q-14 -78 6 -108t88 -29h27l-29 -137
q-172 -94 -227 -138t-63 -87t20 -67q29 -24 78 -23q76 0 168 69l110 -86q-146 -114 -280 -114t-202 64t-54 145q14 80 72 141t188 127q-49 35 -60 110q-144 -161 -376 -161z" />
    <glyph glyph-name="Cacute" unicode="&#x106;" horiz-adv-x="1622" 
d="M845 -20q-232 0 -405 115q-172 116 -244 311q-73 195 -34 421q51 295 288 492t547 197q213 0 386 -109t251 -283l-155 -71q-129 309 -502 309q-238 0 -425 -158t-232 -412q-44 -254 106 -456q150 -203 432 -203q170 0 316 84q145 84 231 232l145 -70q-106 -186 -289 -293
q-184 -106 -416 -106zM983 1614l297 332h205l-355 -332h-147z" />
    <glyph glyph-name="cacute" unicode="&#x107;" horiz-adv-x="1189" 
d="M596 -20q-252 0 -391 178t-96 420q35 202 193 334t364 132q156 0 276 -74t176 -194l-143 -71q-90 195 -316 196q-143 0 -258 -96t-143 -258t72 -292q98 -130 274 -130q102 0 192 52q89 52 144 145l143 -70q-75 -128 -203 -200t-284 -72zM641 1143l297 332h205l-355 -332
h-147z" />
    <glyph glyph-name="Ccircumflex" unicode="&#x108;" horiz-adv-x="1622" 
d="M754 1614l301 332h135l186 -332h-164l-110 205l-182 -205h-166zM845 -20q-232 0 -405 115q-172 116 -244 311q-73 195 -34 421q51 295 288 492t547 197q213 0 386 -109t251 -283l-155 -71q-129 309 -502 309q-238 0 -425 -158t-232 -412q-44 -254 106 -456
q150 -203 432 -203q170 0 316 84q145 84 231 232l145 -70q-106 -186 -289 -293q-184 -106 -416 -106z" />
    <glyph glyph-name="ccircumflex" unicode="&#x109;" horiz-adv-x="1189" 
d="M426 1143l301 332h135l187 -332h-164l-111 205l-182 -205h-166zM596 -20q-252 0 -391 178t-96 420q35 202 193 334t364 132q156 0 276 -74t176 -194l-143 -71q-90 195 -316 196q-143 0 -258 -96t-143 -258t72 -292q98 -130 274 -130q102 0 192 52q89 52 144 145l143 -70
q-75 -128 -203 -200t-284 -72z" />
    <glyph glyph-name="Cdotaccent" unicode="&#x10a;" horiz-adv-x="1622" 
d="M987 1628l49 285h158l-49 -285h-158zM845 -20q-232 0 -405 115q-172 116 -244 311q-73 195 -34 421q51 295 288 492t547 197q213 0 386 -109t251 -283l-155 -71q-129 309 -502 309q-238 0 -425 -158t-232 -412q-44 -254 106 -456q150 -203 432 -203q170 0 316 84
q145 84 231 232l145 -70q-106 -186 -289 -293q-184 -106 -416 -106z" />
    <glyph glyph-name="cdotaccent" unicode="&#x10b;" horiz-adv-x="1189" 
d="M655 1157l50 285h157l-49 -285h-158zM596 -20q-252 0 -391 178t-96 420q35 202 193 334t364 132q156 0 276 -74t176 -194l-143 -71q-90 195 -316 196q-143 0 -258 -96t-143 -258t72 -292q98 -130 274 -130q102 0 192 52q89 52 144 145l143 -70q-75 -128 -203 -200
t-284 -72z" />
    <glyph glyph-name="Ccaron" unicode="&#x10c;" horiz-adv-x="1622" 
d="M979 1614l-186 332h163l111 -205l182 205h166l-303 -332h-133zM845 -20q-232 0 -405 115q-172 116 -244 311q-73 195 -34 421q51 295 288 492t547 197q213 0 386 -109t251 -283l-155 -71q-129 309 -502 309q-238 0 -425 -158t-232 -412q-44 -254 106 -456
q150 -203 432 -203q170 0 316 84q145 84 231 232l145 -70q-106 -186 -289 -293q-184 -106 -416 -106z" />
    <glyph glyph-name="ccaron" unicode="&#x10d;" horiz-adv-x="1189" 
d="M668 1143l-187 332h164l111 -205l182 205h166l-303 -332h-133zM596 -20q-252 0 -391 178t-96 420q35 202 193 334t364 132q156 0 276 -74t176 -194l-143 -71q-90 195 -316 196q-143 0 -258 -96t-143 -258t72 -292q98 -130 274 -130q102 0 192 52q89 52 144 145l143 -70
q-75 -128 -203 -200t-284 -72z" />
    <glyph glyph-name="Dcaron" unicode="&#x10e;" horiz-adv-x="1445" 
d="M735 1614l-186 332h164l110 -205l183 205h165l-303 -332h-133zM694 1348h-239l-209 -1198h321q240 0 421 156t226 412q44 254 -106 442t-414 188zM555 0h-498l262 1495h398q215 -2 380 -111q165 -110 241 -292t38 -394q-53 -310 -281 -504t-540 -194z" />
    <glyph glyph-name="dcaron" unicode="&#x10f;" horiz-adv-x="1398" 
d="M1393 1161l221 332h166l-254 -332h-133zM604 125q141 0 255 97q113 97 143 258t-65 290t-278 131q-143 0 -258 -96t-143 -258t72 -292q98 -130 274 -130zM574 -20q-232 0 -370 178t-95 420q35 202 191 334t353 132q137 0 239 -59t155 -160l122 670h158l-219 -1221
q-14 -78 6 -108t88 -29h27l-29 -137h-78q-156 0 -172 139q-144 -159 -376 -159z" />
    <glyph glyph-name="Dcroat" unicode="&#x110;" horiz-adv-x="1507" 
d="M629 150q240 0 421 156t226 412q45 255 -106 442t-414 188h-240l-90 -510h428l-23 -136h-428l-96 -552h322zM616 0h-497l123 702h-162l24 136h160l117 657h397q215 -2 380 -111q165 -110 241 -292t39 -394q-54 -310 -282 -504t-540 -194z" />
    <glyph glyph-name="dcroat" unicode="&#x111;" horiz-adv-x="1363" 
d="M602 125q141 0 255 97q113 97 143 258t-65 290t-278 131q-143 0 -258 -96t-143 -258t72 -292q98 -130 274 -130zM1200 137h27l-29 -137h-78q-156 0 -172 139q-144 -159 -376 -159t-370 178t-96 420q35 202 191 334t354 132q137 0 239 -59t154 -160l62 332h-240l19 103
h239l43 235h158l-43 -235h135l-18 -103h-135l-158 -883q-14 -78 6 -108t88 -29z" />
    <glyph glyph-name="Emacron" unicode="&#x112;" horiz-adv-x="1177" 
d="M526 1614l27 137h541l-27 -137h-541zM57 0l262 1495h908l-27 -149h-745l-90 -512h747l-29 -152h-745l-92 -530h745l-26 -152h-908z" />
    <glyph glyph-name="emacron" unicode="&#x113;" horiz-adv-x="1200" 
d="M451 1143l26 137h541l-27 -137h-540zM700 907q-140 0 -262 -81t-166 -212q195 -72 348 -72q152 0 238 47q86 46 99 126t-52 136t-205 56zM626 -20q-280 0 -419 174t-96 421q37 211 208 340q172 129 382 129t324 -104t88 -242q-27 -138 -151 -218q-124 -79 -323 -79
t-391 78q-4 -160 98 -260t290 -100t306 153l125 -75q-161 -217 -441 -217z" />
    <glyph glyph-name="Ebreve" unicode="&#x114;" horiz-adv-x="1177" 
d="M786 1606q-156 0 -228 95t-44 238h137q-18 -96 24 -154t134 -61q91 2 151 60t78 155h138q-26 -143 -130 -238t-260 -95zM57 0l262 1495h908l-27 -149h-745l-90 -512h747l-29 -152h-745l-92 -530h745l-26 -152h-908z" />
    <glyph glyph-name="ebreve" unicode="&#x115;" horiz-adv-x="1200" 
d="M725 1130q-155 0 -227 96t-45 238h137q-18 -96 24 -154t134 -61q92 1 151 59t78 156h137q-27 -142 -130 -238t-259 -96zM700 907q-140 0 -262 -81t-166 -212q195 -72 348 -72q152 0 238 47q86 46 99 126t-52 136t-205 56zM626 -20q-280 0 -419 174t-96 421
q37 211 208 340q172 129 382 129t324 -104t88 -242q-27 -138 -151 -218q-124 -79 -323 -79t-391 78q-4 -160 98 -260t290 -100t306 153l125 -75q-161 -217 -441 -217z" />
    <glyph glyph-name="Edotaccent" unicode="&#x116;" horiz-adv-x="1177" 
d="M743 1628l50 285h157l-49 -285h-158zM57 0l262 1495h908l-27 -149h-745l-90 -512h747l-29 -152h-745l-92 -530h745l-26 -152h-908z" />
    <glyph glyph-name="edotaccent" unicode="&#x117;" horiz-adv-x="1200" 
d="M643 1157l49 285h158l-49 -285h-158zM700 907q-140 0 -262 -81t-166 -212q195 -72 348 -72q152 0 238 47q86 46 99 126t-52 136t-205 56zM626 -20q-280 0 -419 174t-96 421q37 211 208 340q172 129 382 129t324 -104t88 -242q-27 -138 -151 -218q-124 -79 -323 -79
t-391 78q-4 -160 98 -260t290 -100t306 153l125 -75q-161 -217 -441 -217z" />
    <glyph glyph-name="Eogonek" unicode="&#x118;" horiz-adv-x="1177" 
d="M57 0l262 1495h908l-27 -149h-745l-90 -512h747l-29 -152h-745l-92 -530h745l-26 -152h2q-171 -94 -227 -138t-64 -87t20 -67t78 -23q76 0 168 69l111 -86q-147 -114 -281 -114t-202 64q-69 64 -52 153q23 129 201 229h-662z" />
    <glyph glyph-name="eogonek" unicode="&#x119;" horiz-adv-x="1200" 
d="M700 907q-140 0 -262 -81t-166 -212q195 -72 348 -72q152 0 238 47q86 46 99 126t-52 136t-205 56zM487 -453q-133 0 -201 65t-53 152q23 131 213 236q-190 53 -280 213q-90 161 -54 367t207 335q172 129 382 129t324 -104t88 -242q-27 -138 -151 -218q-124 -79 -323 -79
t-391 78q-4 -160 98 -260t290 -100t306 153l125 -75q-147 -201 -410 -215q-153 -86 -205 -128t-60 -85t20 -67q29 -24 91 -24t154 70l111 -86q-148 -115 -281 -115z" />
    <glyph glyph-name="Ecaron" unicode="&#x11a;" horiz-adv-x="1177" 
d="M729 1614l-186 332h164l110 -205l182 205h166l-303 -332h-133zM57 0l262 1495h908l-27 -149h-745l-90 -512h747l-29 -152h-745l-92 -530h745l-26 -152h-908z" />
    <glyph glyph-name="ecaron" unicode="&#x11b;" horiz-adv-x="1200" 
d="M659 1143l-186 332h164l111 -205l182 205h166l-303 -332h-134zM700 907q-140 0 -262 -81t-166 -212q195 -72 348 -72q152 0 238 47q86 46 99 126t-52 136t-205 56zM626 -20q-280 0 -419 174t-96 421q37 211 208 340q172 129 382 129t324 -104t88 -242q-27 -138 -151 -218
q-124 -79 -323 -79t-391 78q-4 -160 98 -260t290 -100t306 153l125 -75q-161 -217 -441 -217z" />
    <glyph glyph-name="Gcircumflex" unicode="&#x11c;" horiz-adv-x="1724" 
d="M705 1614l301 332h135l186 -332h-164l-110 205l-183 -205h-165zM849 -20q-339 0 -545 252t-146 597q49 295 278 491t541 196q215 0 382 -102t257 -271l-154 -82q-152 301 -501 301q-242 0 -422 -158t-224 -391q-47 -270 113 -474t446 -204q231 0 392 140q160 140 209 362
h-609l27 151h778l-10 -57q-41 -331 -257 -541t-555 -210z" />
    <glyph glyph-name="gcircumflex" unicode="&#x11d;" horiz-adv-x="1300" 
d="M432 1143l301 332h135l187 -332h-164l-111 205l-182 -205h-166zM604 125q141 0 255 97q113 97 143 258t-65 290t-278 131q-143 0 -258 -96t-143 -258t72 -292q98 -130 274 -130zM586 -20q-244 0 -382 178t-95 420q35 202 191 334t353 132q139 0 241 -61t155 -162l36 203
h160l-178 -1004q-90 -512 -541 -512q-168 0 -290 77t-175 208l160 51q74 -193 316 -192q314 0 372 377q2 10 6 36t9 50q-135 -135 -338 -135z" />
    <glyph glyph-name="Gbreve" unicode="&#x11e;" horiz-adv-x="1724" 
d="M1018 1606q-156 0 -228 95t-45 238h138q-19 -96 23 -154t134 -61q92 2 152 60t78 155h137q-27 -143 -130 -238t-259 -95zM849 -20q-339 0 -545 252t-146 597q49 295 278 491t541 196q215 0 382 -102t257 -271l-154 -82q-152 301 -501 301q-242 0 -422 -158t-224 -391
q-47 -270 113 -474t446 -204q231 0 392 140q160 140 209 362h-609l27 151h778l-10 -57q-41 -331 -257 -541t-555 -210z" />
    <glyph glyph-name="gbreve" unicode="&#x11f;" horiz-adv-x="1300" 
d="M748 1130q-156 0 -228 96t-45 238h137q-18 -96 24 -154t134 -61q92 1 152 59t77 156h138q-27 -142 -130 -238t-259 -96zM604 125q141 0 255 97q113 97 143 258t-65 290t-278 131q-143 0 -258 -96t-143 -258t72 -292q98 -130 274 -130zM586 -20q-244 0 -382 178t-95 420
q35 202 191 334t353 132q139 0 241 -61t155 -162l36 203h160l-178 -1004q-90 -512 -541 -512q-168 0 -290 77t-175 208l160 51q74 -193 316 -192q314 0 372 377q2 10 6 36t9 50q-135 -135 -338 -135z" />
    <glyph glyph-name="Gdotaccent" unicode="&#x120;" horiz-adv-x="1724" 
d="M950 1628l49 285h158l-49 -285h-158zM849 -20q-339 0 -545 252t-146 597q49 295 278 491t541 196q215 0 382 -102t257 -271l-154 -82q-152 301 -501 301q-242 0 -422 -158t-224 -391q-47 -270 113 -474t446 -204q231 0 392 140q160 140 209 362h-609l27 151h778l-10 -57
q-41 -331 -257 -541t-555 -210z" />
    <glyph glyph-name="gdotaccent" unicode="&#x121;" horiz-adv-x="1300" 
d="M637 1157l49 285h158l-49 -285h-158zM604 125q141 0 255 97q113 97 143 258t-65 290t-278 131q-143 0 -258 -96t-143 -258t72 -292q98 -130 274 -130zM586 -20q-244 0 -382 178t-95 420q35 202 191 334t353 132q139 0 241 -61t155 -162l36 203h160l-178 -1004
q-90 -512 -541 -512q-168 0 -290 77t-175 208l160 51q74 -193 316 -192q314 0 372 377q2 10 6 36t9 50q-135 -135 -338 -135z" />
    <glyph glyph-name="Gcommaaccent" unicode="&#x122;" horiz-adv-x="1724" 
d="M567 -541l160 418h143l-200 -418h-103zM849 -20q-339 0 -545 252t-146 597q49 295 278 491t541 196q215 0 382 -102t257 -271l-154 -82q-152 301 -501 301q-242 0 -422 -158t-224 -391q-47 -270 113 -474t446 -204q231 0 392 140q160 140 209 362h-609l27 151h778
l-10 -57q-41 -331 -257 -541t-555 -210z" />
    <glyph glyph-name="gcommaaccent" unicode="&#x123;" horiz-adv-x="1300" 
d="M668 1137l159 417h144l-201 -417h-102zM604 125q141 0 255 97q113 97 143 258t-65 290t-278 131q-143 0 -258 -96t-143 -258t72 -292q98 -130 274 -130zM586 -20q-244 0 -382 178t-95 420q35 202 191 334t353 132q139 0 241 -61t155 -162l36 203h160l-178 -1004
q-90 -512 -541 -512q-168 0 -290 77t-175 208l160 51q74 -193 316 -192q314 0 372 377q2 10 6 36t9 50q-135 -135 -338 -135z" />
    <glyph glyph-name="Hcircumflex" unicode="&#x124;" horiz-adv-x="1345" 
d="M551 1614l301 332h135l187 -332h-164l-111 205l-182 -205h-166zM942 0l117 672h-727l-117 -672h-162l262 1495h162l-119 -670h727l119 670h162l-262 -1495h-162z" />
    <glyph glyph-name="hcircumflex" unicode="&#x125;" horiz-adv-x="1222" 
d="M113 1593l301 332h135l186 -332h-164l-110 205l-182 -205h-166zM700 1044q196 0 305 -137q110 -137 68 -346l-57 -295q-16 -76 -1 -102t85 -27h33l-29 -137h-74q-121 0 -161 65t-15 193l59 307q29 154 -34 248t-208 94t-236 -92t-120 -252l-98 -563h-160l262 1495h158
l-104 -580q131 129 327 129z" />
    <glyph glyph-name="Hbar" unicode="&#x126;" horiz-adv-x="1398" 
d="M432 1100l-49 -275h727l49 275h-727zM139 1100l21 123h131l49 272h162l-49 -272h727l49 272h162l-50 -272h136l-21 -123h-135l-193 -1100h-161l116 672h-727l-116 -672h-162l192 1100h-131z" />
    <glyph glyph-name="hbar" unicode="&#x127;" horiz-adv-x="1245" 
d="M722 1044q196 0 306 -137t68 -346l-58 -295q-16 -76 -1 -102t85 -27h33l-29 -137h-73q-121 0 -161 65t-15 193l59 307q30 154 -34 248t-209 94t-235 -92t-120 -252l-98 -563h-160l211 1204h-131l18 103h131l33 188h158l-33 -188l256 2l-18 -103l-256 -2l-54 -289
q131 129 327 129z" />
    <glyph glyph-name="Itilde" unicode="&#x128;" horiz-adv-x="493" 
d="M338 1862q84 0 169 -56t124 -57q74 0 94 104h127q-23 -115 -86 -181q-62 -66 -150 -66t-186 67q-70 45 -108 45q-72 0 -91 -104h-127q20 112 85 180t149 68zM76 0l262 1495h162l-262 -1495h-162z" />
    <glyph glyph-name="itilde" unicode="&#x129;" horiz-adv-x="485" 
d="M211 1391q84 -1 169 -57t124 -56q74 0 94 104h127q-23 -116 -86 -182t-151 -66t-185 68q-70 45 -108 45q-72 0 -91 -104h-127q20 113 85 181t149 67zM268 0q-215 0 -168 258l133 766h160l-133 -754q-10 -68 7 -100t75 -33h31l-29 -137h-76z" />
    <glyph glyph-name="Imacron" unicode="&#x12a;" horiz-adv-x="493" 
d="M168 1614l27 137h540l-26 -137h-541zM76 0l262 1495h162l-262 -1495h-162z" />
    <glyph glyph-name="imacron" unicode="&#x12b;" horiz-adv-x="485" 
d="M68 1143l26 137h541l-27 -137h-540zM268 0q-215 0 -168 258l133 766h160l-133 -754q-10 -68 7 -100t75 -33h31l-29 -137h-76z" />
    <glyph glyph-name="Ibreve" unicode="&#x12c;" horiz-adv-x="493" 
d="M440 1606q-156 0 -228 95t-44 238h137q-18 -96 24 -154t134 -61q92 2 151 60t78 155h137q-27 -143 -130 -238t-259 -95zM76 0l262 1495h162l-262 -1495h-162z" />
    <glyph glyph-name="ibreve" unicode="&#x12d;" horiz-adv-x="485" 
d="M328 1130q-156 0 -228 96t-45 238h138q-19 -96 23 -154t134 -61q92 1 152 59t78 156h137q-27 -142 -130 -238t-259 -96zM268 0q-215 0 -168 258l133 766h160l-133 -754q-10 -68 7 -100t75 -33h31l-29 -137h-76z" />
    <glyph glyph-name="Iogonek" unicode="&#x12e;" horiz-adv-x="493" 
d="M45 -446q-133 0 -202 64t-53 148q16 83 81 146q66 63 213 135l254 1448h162l-262 -1495h2q-172 -94 -228 -138t-63 -87t21 -67t77 -23q76 0 168 69l111 -86q-148 -114 -281 -114z" />
    <glyph glyph-name="iogonek" unicode="&#x12f;" horiz-adv-x="485" 
d="M258 1157l51 295h158l-51 -295h-158zM153 -446q-133 0 -201 64t-54 145q14 80 71 140t185 126q-84 55 -54 229l133 766h160l-133 -754q-10 -68 7 -100t75 -33h31l-29 -135l4 -2q-172 -94 -227 -138t-63 -87t20 -67q29 -24 78 -23q76 0 168 69l110 -86
q-148 -114 -281 -114z" />
    <glyph glyph-name="Idotaccent" unicode="&#x130;" horiz-adv-x="493" 
d="M358 1628l50 285h157l-49 -285h-158zM76 0l262 1495h162l-262 -1495h-162z" />
    <glyph glyph-name="dotlessi" unicode="&#x131;" horiz-adv-x="485" 
d="M268 0q-215 0 -168 258l133 766h160l-133 -754q-10 -68 7 -100t75 -33h31l-29 -137h-76z" />
    <glyph glyph-name="IJ" unicode="&#x132;" horiz-adv-x="1222" 
d="M76 0l262 1495h162l-262 -1495h-162zM627 154q123 0 189 57t85 180l197 1104h162l-195 -1089q-35 -210 -138 -308t-313 -98h-206l26 154h193z" />
    <glyph glyph-name="ij" unicode="&#x133;" horiz-adv-x="802" 
d="M260 1157l51 295h158l-51 -295h-158zM610 1157l54 295h157l-51 -295h-160zM215 0h-158l179 1024h159zM143 -199q143 0 193 44q49 44 78 200l174 979h160l-175 -981q-41 -229 -123 -309t-286 -80h-166l25 147h120z" />
    <glyph glyph-name="Jcircumflex" unicode="&#x134;" horiz-adv-x="1026" 
d="M680 1614l301 332h135l187 -332h-164l-111 205l-182 -205h-166zM437 -20q-171 0 -275 78t-139 206l153 47q59 -182 254 -182q112 0 184 73t91 189l196 1104h162l-195 -1089q-35 -203 -147 -315q-113 -111 -284 -111z" />
    <glyph glyph-name="jcircumflex" unicode="&#x135;" horiz-adv-x="462" 
d="M31 1143l301 332h135l186 -332h-164l-110 205l-182 -205h-166zM-199 -469h-47l27 147q143 0 192 44t78 200l197 1102h160l-197 -1104q-41 -229 -123 -309t-287 -80z" />
    <glyph glyph-name="Kcommaaccent" unicode="&#x136;" horiz-adv-x="1318" 
d="M350 -541l160 418h143l-200 -418h-103zM1012 0l-369 782l-344 -327l-80 -455h-162l262 1495h162l-143 -815l860 815h209l-639 -606l418 -889h-174z" />
    <glyph glyph-name="kcommaaccent" unicode="&#x137;" horiz-adv-x="1128" 
d="M264 -520l160 418h143l-200 -418h-103zM979 0q-127 0 -172 32t-109 146l-180 330l-252 -213l-51 -295h-158l262 1495h158l-176 -1003l631 532h209l-504 -428l192 -352q37 -68 66 -87t98 -20h37l-24 -137h-27z" />
    <glyph glyph-name="kgreenlandic" unicode="&#x138;" horiz-adv-x="1114" 
d="M965 0q-91 0 -137 15t-74 48t-70 115l-168 305l-258 -235l-43 -248h-158l179 1020h157l-98 -559l618 563h209l-489 -449l182 -331q37 -68 66 -87t98 -20h39l-25 -137h-28z" />
    <glyph glyph-name="Lacute" unicode="&#x139;" horiz-adv-x="1093" 
d="M346 1614l297 332h205l-354 -332h-148zM57 0l262 1495h162l-235 -1341h665l-26 -154h-828z" />
    <glyph glyph-name="lacute" unicode="&#x13a;" horiz-adv-x="487" 
d="M332 1593l297 332h205l-355 -332h-147zM272 0q-118 0 -154 70t-14 204l213 1221h160l-215 -1221q-14 -76 6 -106t80 -31h29l-29 -137h-76z" />
    <glyph glyph-name="Lcommaaccent" unicode="&#x13b;" horiz-adv-x="1093" 
d="M213 -541l160 418h143l-201 -418h-102zM57 0l262 1495h162l-235 -1341h665l-26 -154h-828z" />
    <glyph glyph-name="lcommaaccent" unicode="&#x13c;" horiz-adv-x="487" 
d="M-18 -520l159 418h144l-201 -418h-102zM272 0q-118 0 -154 70t-14 204l213 1221h160l-215 -1221q-14 -76 6 -106t80 -31h29l-29 -137h-76z" />
    <glyph glyph-name="Lcaron" unicode="&#x13d;" horiz-adv-x="1093" 
d="M651 1163l221 332h166l-254 -332h-133zM57 0l262 1495h162l-235 -1341h665l-26 -154h-828z" />
    <glyph glyph-name="lcaron" unicode="&#x13e;" horiz-adv-x="735" 
d="M500 1163l221 332h166l-254 -332h-133zM272 0q-118 0 -154 70t-14 204l213 1221h160l-215 -1221q-14 -76 6 -106t80 -31h29l-29 -137h-76z" />
    <glyph glyph-name="Ldot" unicode="&#x13f;" horiz-adv-x="1097" 
d="M827 594l50 285h157l-49 -285h-158zM57 0l262 1495h162l-235 -1341h665l-26 -154h-828z" />
    <glyph glyph-name="ldot" unicode="&#x140;" horiz-adv-x="727" 
d="M436 414l49 284h158l-49 -284h-158zM272 0q-118 0 -154 70t-14 204l213 1221h160l-215 -1221q-14 -76 6 -106t80 -31h29l-29 -137h-76z" />
    <glyph glyph-name="Lslash" unicode="&#x141;" horiz-adv-x="1140" 
d="M72 694l24 119l172 49l111 633h162l-103 -582l375 111l-25 -119l-370 -108l-113 -643h666l-27 -154h-827l131 745z" />
    <glyph glyph-name="lslash" unicode="&#x142;" horiz-adv-x="585" 
d="M395 137h29l-29 -137h-76q-119 0 -155 70t-12 204l69 402l-184 -49l18 108l185 49l125 711h159l-116 -666l208 58l-18 -109l-211 -57l-78 -447q-14 -76 6 -106t80 -31z" />
    <glyph glyph-name="Nacute" unicode="&#x143;" horiz-adv-x="1462" 
d="M854 1614l297 332h205l-355 -332h-147zM57 0l262 1495h170l621 -1227l215 1227h162l-262 -1495h-158l-631 1245l-217 -1245h-162z" />
    <glyph glyph-name="nacute" unicode="&#x144;" horiz-adv-x="1251" 
d="M680 1143l297 332h205l-355 -332h-147zM129 887h-31l25 137h76q147 0 168 -137q137 157 347 157t320 -137t68 -346l-58 -295q-16 -76 -1 -102t85 -27h33l-28 -137h-74q-121 0 -161 65t-15 193l59 307q30 154 -34 248t-208 94t-236 -93q-91 -93 -122 -255l-106 -559h-160
l141 743q14 74 -6 109t-82 35z" />
    <glyph glyph-name="Ncommaaccent" unicode="&#x145;" horiz-adv-x="1462" 
d="M397 -541l160 418h143l-200 -418h-103zM57 0l262 1495h170l621 -1227l215 1227h162l-262 -1495h-158l-631 1245l-217 -1245h-162z" />
    <glyph glyph-name="ncommaaccent" unicode="&#x146;" horiz-adv-x="1251" 
d="M334 -520l160 418h143l-201 -418h-102zM129 887h-31l25 137h76q147 0 168 -137q137 157 347 157t320 -137t68 -346l-58 -295q-16 -76 -1 -102t85 -27h33l-28 -137h-74q-121 0 -161 65t-15 193l59 307q30 154 -34 248t-208 94t-236 -93q-91 -93 -122 -255l-106 -559h-160
l141 743q14 74 -6 109t-82 35z" />
    <glyph glyph-name="Ncaron" unicode="&#x147;" horiz-adv-x="1462" 
d="M870 1614l-186 332h164l110 -205l183 205h166l-303 -332h-134zM57 0l262 1495h170l621 -1227l215 1227h162l-262 -1495h-158l-631 1245l-217 -1245h-162z" />
    <glyph glyph-name="ncaron" unicode="&#x148;" horiz-adv-x="1251" 
d="M670 1143l-187 332h164l111 -205l182 205h166l-303 -332h-133zM129 887h-31l25 137h76q147 0 168 -137q137 157 347 157t320 -137t68 -346l-58 -295q-16 -76 -1 -102t85 -27h33l-28 -137h-74q-121 0 -161 65t-15 193l59 307q30 154 -34 248t-208 94t-236 -93
q-91 -93 -122 -255l-106 -559h-160l141 743q14 74 -6 109t-82 35z" />
    <glyph glyph-name="Eng" unicode="&#x14a;" horiz-adv-x="1462" 
d="M780 -301q133 0 195 62q61 62 82 194l8 49l-629 1241l-217 -1245h-162l262 1495h170l621 -1227l215 1227h162l-268 -1528q-41 -236 -139 -331t-312 -95h-117l31 158h98z" />
    <glyph glyph-name="eng" unicode="&#x14b;" horiz-adv-x="1224" 
d="M700 907q-144 0 -236 -93q-91 -93 -122 -255l-106 -559h-160l141 743q14 74 -6 109t-82 35h-31l25 137h76q147 0 168 -137q137 157 347 157t318 -137t68 -346l-115 -641q-41 -233 -124 -311t-298 -78h-51l27 147q157 0 207 41t79 203l117 643q30 154 -34 248t-208 94z
" />
    <glyph glyph-name="Omacron" unicode="&#x14c;" horiz-adv-x="1736" 
d="M870 131q229 0 411 158q181 158 222 393q31 170 -25 326t-194 256t-328 100q-236 0 -416 -157t-223 -394q-47 -276 113 -479t440 -203zM856 -20q-348 0 -553 252t-145 597q51 297 281 492t526 195q233 0 409 -123t251 -320t36 -411q-53 -298 -279 -490t-526 -192z
M752 1614l26 137h541l-27 -137h-540z" />
    <glyph glyph-name="omacron" unicode="&#x14d;" horiz-adv-x="1261" 
d="M604 125q143 0 257 95q115 95 143 254t-69 292t-276 135q-143 0 -258 -96t-143 -258t72 -292q98 -130 274 -130zM596 -20q-252 0 -391 178t-96 420q35 202 193 334t364 132q250 0 390 -179t97 -421q-35 -204 -191 -334t-366 -130zM397 1143l27 137h541l-27 -137h-541z
" />
    <glyph glyph-name="Obreve" unicode="&#x14e;" horiz-adv-x="1736" 
d="M1024 1608q-156 0 -228 95t-44 239h137q-18 -96 23 -155q42 -58 135 -61q92 2 151 60t78 156h137q-27 -142 -130 -238t-259 -96zM870 131q229 0 411 158q181 158 222 393q31 170 -25 326t-194 256t-328 100q-236 0 -416 -157t-223 -394q-47 -276 113 -479t440 -203z
M856 -20q-348 0 -553 252t-145 597q51 297 281 492t526 195q233 0 409 -123t251 -320t36 -411q-53 -298 -279 -490t-526 -192z" />
    <glyph glyph-name="obreve" unicode="&#x14f;" horiz-adv-x="1261" 
d="M682 1130q-156 0 -228 96t-44 238h137q-19 -96 23 -154t135 -61q92 1 151 59t78 156h137q-27 -142 -130 -238t-259 -96zM604 125q143 0 257 95q115 95 143 254t-69 292t-276 135q-143 0 -258 -96t-143 -258t72 -292q98 -130 274 -130zM596 -20q-252 0 -391 178t-96 420
q35 202 193 334t364 132q250 0 390 -179t97 -421q-35 -204 -191 -334t-366 -130z" />
    <glyph glyph-name="Ohungarumlaut" unicode="&#x150;" horiz-adv-x="1736" 
d="M870 131q229 0 411 158q181 158 222 393q31 170 -25 326t-194 256t-328 100q-236 0 -416 -157t-223 -394q-47 -276 113 -479t440 -203zM856 -20q-348 0 -553 252t-145 597q51 297 281 492t526 195q233 0 409 -123t251 -320t36 -411q-53 -298 -279 -490t-526 -192z
M1098 1614l297 332h192l-352 -332h-137zM799 1614l297 332h194l-354 -332h-137z" />
    <glyph glyph-name="ohungarumlaut" unicode="&#x151;" horiz-adv-x="1261" 
d="M604 125q143 0 257 95q115 95 143 254t-69 292t-276 135q-143 0 -258 -96t-143 -258t72 -292q98 -130 274 -130zM596 -20q-252 0 -391 178t-96 420q35 202 193 334t364 132q250 0 390 -179t97 -421q-35 -204 -191 -334t-366 -130zM731 1143l297 332h193l-353 -332h-137z
M432 1143l297 332h195l-355 -332h-137z" />
    <glyph glyph-name="OE" unicode="&#x152;" horiz-adv-x="2500" 
d="M872 135q229 0 412 165q182 166 226 416t-108 449q-153 199 -437 199q-236 0 -421 -157t-227 -394q-31 -174 27 -330t198 -252t330 -96zM973 1516q219 0 379 -102t231 -277l64 358h907l-27 -152h-747l-92 -518h747l-27 -151h-747l-92 -520h747l-24 -154h-908l46 264
q-230 -284 -576 -284t-551 252t-145 597q51 297 284 492t531 195z" />
    <glyph glyph-name="oe" unicode="&#x153;" horiz-adv-x="2101" 
d="M1603 907q-136 0 -257 -80t-168 -213q194 -72 346 -72t238 49q86 48 98 127q14 79 -54 134t-203 55zM606 125q139 0 253 95q113 95 145 252t-67 293t-282 136q-141 0 -252 -95t-143 -255t68 -293t278 -133zM598 -20q-256 0 -395 182t-90 430q41 199 196 326
q156 127 359 126q150 0 266 -74t170 -198q78 129 215 201t291 71q202 0 318 -100t91 -242t-151 -221q-126 -80 -326 -80q-199 0 -391 78q-6 -160 97 -260t287 -100t310 141l121 -84q-168 -197 -450 -196q-162 0 -279 66t-174 179q-74 -115 -197 -180t-268 -65z" />
    <glyph glyph-name="Racute" unicode="&#x154;" horiz-adv-x="1257" 
d="M631 1614l297 332h205l-355 -332h-147zM1044 0q-164 0 -284 106t-175 262q-54 156 -48 330h129q164 0 265 84t127 223t-68 239t-261 106h-274l-236 -1350h-162l262 1495h435q229 0 366 -152t99 -370q-31 -172 -168 -290t-346 -122q25 -176 123 -293t243 -116h35l-29 -152
h-33z" />
    <glyph glyph-name="racute" unicode="&#x155;" horiz-adv-x="843" 
d="M383 1143l297 332h205l-355 -332h-147zM197 1024q162 0 172 -162q121 162 346 162h108l-28 -158h-93q-301 0 -362 -321l-104 -545h-160l141 743q31 143 -88 144h-31l25 137h74z" />
    <glyph glyph-name="Rcommaaccent" unicode="&#x156;" horiz-adv-x="1257" 
d="M260 -510l160 418h143l-201 -418h-102zM1044 0q-164 0 -284 106t-175 262q-54 156 -48 330h129q164 0 265 84t127 223t-68 239t-261 106h-274l-236 -1350h-162l262 1495h435q229 0 366 -152t99 -370q-31 -172 -168 -290t-346 -122q25 -176 123 -293t243 -116h35l-29 -152
h-33z" />
    <glyph glyph-name="rcommaaccent" unicode="&#x157;" horiz-adv-x="843" 
d="M-94 -520l160 418h143l-201 -418h-102zM197 1024q162 0 172 -162q121 162 346 162h108l-28 -158h-93q-301 0 -362 -321l-104 -545h-160l141 743q31 143 -88 144h-31l25 137h74z" />
    <glyph glyph-name="Rcaron" unicode="&#x158;" horiz-adv-x="1257" 
d="M682 1614l-186 332h163l111 -205l182 205h166l-303 -332h-133zM1044 0q-164 0 -284 106t-175 262q-54 156 -48 330h129q164 0 265 84t127 223t-68 239t-261 106h-274l-236 -1350h-162l262 1495h435q229 0 366 -152t99 -370q-31 -172 -168 -290t-346 -122
q25 -176 123 -293t243 -116h35l-29 -152h-33z" />
    <glyph glyph-name="rcaron" unicode="&#x159;" horiz-adv-x="843" 
d="M428 1143l-186 332h164l110 -205l182 205h166l-303 -332h-133zM197 1024q162 0 172 -162q121 162 346 162h108l-28 -158h-93q-301 0 -362 -321l-104 -545h-160l141 743q31 143 -88 144h-31l25 137h74z" />
    <glyph glyph-name="Sacute" unicode="&#x15a;" horiz-adv-x="1122" 
d="M514 -20q-186 0 -312 74t-202 196l147 96q119 -215 365 -215q129 0 217 66t109 184t-67 196q-89 77 -194 126q-104 49 -146 71t-98 66q-164 126 -128 343q25 149 151 241t292 92q167 0 286 -62t188 -170l-137 -90q-104 180 -326 180q-121 0 -199 -58t-93 -153
q-23 -141 114 -229q60 -39 137 -76q76 -36 133 -65t95 -61q36 -32 68 -64t45 -61t31 -71t14 -85q-2 -43 -7 -99q-29 -166 -163 -269t-320 -103zM629 1614l297 332h204l-354 -332h-147z" />
    <glyph glyph-name="sacute" unicode="&#x15b;" horiz-adv-x="1003" 
d="M488 -20q-158 0 -272 62t-179 163l137 90q106 -178 318 -178q98 0 156 43t69 106t-19 86q-29 24 -45 36q-26 20 -179 73q-153 52 -240 120t-64 220q20 113 124 181t240 66q269 -2 412 -188l-131 -84q-97 137 -281 137t-208 -129q-12 -70 45 -112t163 -75t156 -59
q142 -71 175 -160q22 -56 9 -126q-20 -121 -123 -197q-104 -75 -263 -75zM502 1143l297 332h205l-355 -332h-147z" />
    <glyph glyph-name="Scircumflex" unicode="&#x15c;" horiz-adv-x="1122" 
d="M406 1614l301 332h135l186 -332h-164l-110 205l-183 -205h-165zM514 -20q-186 0 -312 74t-202 196l147 96q119 -215 365 -215q129 0 217 66t109 184t-67 196q-89 77 -194 126q-104 49 -146 71t-98 66q-164 126 -128 343q25 149 151 241t292 92q167 0 286 -62t188 -170
l-137 -90q-104 180 -326 180q-121 0 -199 -58t-93 -153q-23 -141 114 -229q60 -39 137 -76q76 -36 133 -65t95 -61q36 -32 68 -64t45 -61t31 -71t14 -85q-2 -43 -7 -99q-29 -166 -163 -269t-320 -103z" />
    <glyph glyph-name="scircumflex" unicode="&#x15d;" horiz-adv-x="1005" 
d="M295 1143l301 332h135l187 -332h-164l-111 205l-182 -205h-166zM488 -20q-158 0 -272 62t-179 163l137 90q106 -178 318 -178q98 0 156 43t69 106t-19 86q-29 24 -45 36q-26 20 -179 73q-153 52 -240 120t-64 220q20 113 124 181t240 66q269 -2 412 -188l-131 -84
q-97 137 -281 137t-208 -129q-12 -70 45 -112t163 -75t156 -59q142 -71 175 -160q22 -56 9 -126q-20 -121 -123 -197q-104 -75 -263 -75z" />
    <glyph glyph-name="Scedilla" unicode="&#x15e;" horiz-adv-x="1122" 
d="M387 -481q-201 0 -307 121l135 75q78 -78 178 -77q129 0 144 77q16 78 -136 78h-84l37 203q-229 51 -354 254l147 96q119 -215 365 -215q129 0 217 66t109 184t-67 196q-89 77 -194 126q-104 49 -146 71t-98 66q-164 126 -128 343q25 149 151 241t292 92q167 0 286 -62
t188 -170l-137 -90q-104 180 -326 180q-121 0 -199 -58t-93 -153q-23 -141 114 -229q60 -39 137 -76q76 -36 133 -65t95 -61q36 -32 68 -64t45 -61t31 -71t14 -85q-2 -43 -7 -99q-29 -166 -163 -269t-332 -103h-17l-18 -95q119 -6 172 -56t40 -130t-94 -130t-198 -50z" />
    <glyph glyph-name="scedilla" unicode="&#x15f;" horiz-adv-x="1005" 
d="M354 -481q-201 0 -307 121l135 75q78 -78 178 -77q129 0 144 77q16 78 -135 78h-84l37 203h16q-195 45 -301 209l137 90q106 -178 318 -178q98 0 156 43t69 106t-19 86q-29 24 -45 36q-26 20 -179 73q-153 52 -240 120t-64 220q20 113 124 181t240 66q269 -2 412 -188
l-131 -84q-97 137 -281 137t-208 -129q-12 -70 45 -112t163 -75t156 -59q142 -71 175 -160q22 -56 9 -126q-20 -121 -123 -197t-268 -75l-30 2l-19 -97q119 -6 172 -56t40 -130t-94 -130t-198 -50z" />
    <glyph glyph-name="Scaron" unicode="&#x160;" horiz-adv-x="1122" 
d="M657 1614l-186 332h164l110 -205l183 205h166l-303 -332h-134zM514 -20q-186 0 -312 74t-202 196l147 96q119 -215 365 -215q129 0 217 66t109 184t-67 196q-89 77 -194 126q-104 49 -146 71t-98 66q-164 126 -128 343q25 149 151 241t292 92q167 0 286 -62t188 -170
l-137 -90q-104 180 -326 180q-121 0 -199 -58t-93 -153q-23 -141 114 -229q60 -39 137 -76q76 -36 133 -65t95 -61q36 -32 68 -64t45 -61t31 -71t14 -85q-2 -43 -7 -99q-29 -166 -163 -269t-320 -103z" />
    <glyph glyph-name="scaron" unicode="&#x161;" horiz-adv-x="1005" 
d="M549 1143l-187 332h164l111 -205l182 205h166l-303 -332h-133zM488 -20q-158 0 -272 62t-179 163l137 90q106 -178 318 -178q98 0 156 43t69 106t-19 86q-29 24 -45 36q-26 20 -179 73q-153 52 -240 120t-64 220q20 113 124 181t240 66q269 -2 412 -188l-131 -84
q-97 137 -281 137t-208 -129q-12 -70 45 -112t163 -75t156 -59q142 -71 175 -160q22 -56 9 -126q-20 -121 -123 -197q-104 -75 -263 -75z" />
    <glyph glyph-name="Tcommaaccent" unicode="&#x162;" horiz-adv-x="1206" 
d="M287 -541l159 418h144l-201 -418h-102zM594 0h-162l236 1343h-428l26 152h1018l-27 -152h-428z" />
    <glyph glyph-name="tcommaaccent" unicode="&#x163;" horiz-adv-x="694" 
d="M96 -520l160 418h143l-200 -418h-103zM475 0q-223 0 -290 82t-27 309l86 492h-166l24 141h166l43 244l174 86l-59 -330h242l-25 -141h-242l-86 -490q-29 -160 7 -207t192 -47l-25 -139h-14z" />
    <glyph glyph-name="Tcaron" unicode="&#x164;" horiz-adv-x="1206" 
d="M750 1614l-187 332h164l111 -205l182 205h166l-303 -332h-133zM594 0h-162l236 1343h-428l26 152h1018l-27 -152h-428z" />
    <glyph glyph-name="tcaron" unicode="&#x165;" horiz-adv-x="694" 
d="M541 1124l221 332h166l-254 -332h-133zM475 0q-223 0 -290 82t-27 309l86 492h-166l24 141h166l43 244l174 86l-59 -330h242l-25 -141h-242l-86 -490q-29 -160 7 -207t192 -47l-25 -139h-14z" />
    <glyph glyph-name="Tbar" unicode="&#x166;" horiz-adv-x="1206" 
d="M594 0h-162l135 772h-188l24 148h189l76 423h-428l26 152h1018l-27 -152h-428l-75 -423h190l-24 -148h-191z" />
    <glyph glyph-name="tbar" unicode="&#x167;" horiz-adv-x="694" 
d="M475 0q-223 0 -290 82t-27 309l12 74h-162l27 137h160l49 281h-166l24 141h166l43 244l174 86l-59 -330h242l-25 -141h-242l-49 -281h244l-27 -137h-241l-13 -72q-29 -160 7 -207t192 -47l-25 -139h-14z" />
    <glyph glyph-name="Utilde" unicode="&#x168;" horiz-adv-x="1300" 
d="M732 1862q84 0 168 -56q85 -56 124 -57q74 0 94 104h127q-23 -115 -86 -181t-151 -66t-185 67q-70 45 -108 45q-72 0 -90 -104h-127q20 112 85 180t149 68zM584 -20q-230 0 -359 144t-86 390l172 981h162l-174 -993q-29 -162 48 -268t263 -105q145 0 249 89
q103 89 128 228l184 1049h162l-182 -1038q-39 -227 -187 -353q-150 -124 -380 -124z" />
    <glyph glyph-name="utilde" unicode="&#x169;" horiz-adv-x="1230" 
d="M580 1391q84 -1 169 -57t123 -56q74 0 95 104h127q-23 -116 -86 -182q-62 -66 -150 -66t-186 68q-70 45 -109 45q-72 0 -90 -104h-127q20 113 85 181t149 67zM523 -18q-202 0 -308 137t-65 346l55 278q14 80 -4 112t-82 32h-27l23 137h94q209 0 158 -266l-58 -297
q-29 -154 33 -248t204 -94t231 98t112 248l104 559h160l-139 -743q-27 -143 86 -144h35l-25 -137h-82q-154 0 -170 127q-133 -145 -335 -145z" />
    <glyph glyph-name="Umacron" unicode="&#x16a;" horiz-adv-x="1300" 
d="M571 1614l27 137h541l-27 -137h-541zM584 -20q-230 0 -359 144t-86 390l172 981h162l-174 -993q-29 -162 48 -268t263 -105q145 0 249 89q103 89 128 228l184 1049h162l-182 -1038q-39 -227 -187 -353q-150 -124 -380 -124z" />
    <glyph glyph-name="umacron" unicode="&#x16b;" horiz-adv-x="1230" 
d="M422 1143l27 137h540l-26 -137h-541zM523 -18q-202 0 -308 137t-65 346l55 278q14 80 -4 112t-82 32h-27l23 137h94q209 0 158 -266l-58 -297q-29 -154 33 -248t204 -94t231 98t112 248l104 559h160l-139 -743q-27 -143 86 -144h35l-25 -137h-82q-154 0 -170 127
q-133 -145 -335 -145z" />
    <glyph glyph-name="Ubreve" unicode="&#x16c;" horiz-adv-x="1300" 
d="M834 1604q-156 0 -228 95t-45 238h137q-18 -96 24 -154t134 -61q92 2 152 60t77 155h138q-27 -143 -130 -238t-259 -95zM584 -20q-230 0 -359 144t-86 390l172 981h162l-174 -993q-29 -162 48 -268t263 -105q145 0 249 89q103 89 128 228l184 1049h162l-182 -1038
q-39 -227 -187 -353q-150 -124 -380 -124z" />
    <glyph glyph-name="ubreve" unicode="&#x16d;" horiz-adv-x="1230" 
d="M682 1130q-156 0 -228 96t-44 238h137q-19 -96 23 -154t135 -61q92 1 151 59t78 156h137q-27 -142 -130 -238t-259 -96zM523 -18q-202 0 -308 137t-65 346l55 278q14 80 -4 112t-82 32h-27l23 137h94q209 0 158 -266l-58 -297q-29 -154 33 -248t204 -94t231 98t112 248
l104 559h160l-139 -743q-27 -143 86 -144h35l-25 -137h-82q-154 0 -170 127q-133 -145 -335 -145z" />
    <glyph glyph-name="Uring" unicode="&#x16e;" horiz-adv-x="1300" 
d="M584 -20q-230 0 -359 144t-86 390l172 981h162l-174 -993q-29 -162 48 -268t263 -105q145 0 249 89q103 89 128 228l184 1049h162l-182 -1038q-39 -227 -187 -353q-150 -124 -380 -124zM852 1716q43 0 74 26t40 66t-17 74q-27 35 -67 35t-71 -25q-31 -26 -40 -66t15 -75
t66 -35zM899 2036q93 0 151 -78t33 -168t-88 -142t-156 -53q-93 0 -152 78q-57 78 -33 169t88 143q65 51 157 51z" />
    <glyph glyph-name="uring" unicode="&#x16f;" horiz-adv-x="1230" 
d="M731 1456q-41 0 -72 -24t-39 -66q-8 -41 14 -76q24 -35 67 -35t73 26q30 25 40 65q9 40 -16 75q-26 35 -67 35zM748 1575q92 0 150 -78t34 -168t-88 -142t-157 -52q-93 -1 -151 77t-34 170t89 142q65 51 157 51zM523 -18q-202 0 -308 137t-65 346l55 278q14 80 -4 112
t-82 32h-27l23 137h94q209 0 158 -266l-58 -297q-29 -154 33 -248t204 -94t231 98t112 248l104 559h160l-139 -743q-27 -143 86 -144h35l-25 -137h-82q-154 0 -170 127q-133 -145 -335 -145z" />
    <glyph glyph-name="Uhungarumlaut" unicode="&#x170;" horiz-adv-x="1300" 
d="M889 1614l297 332h192l-352 -332h-137zM590 1614l297 332h194l-354 -332h-137zM584 -20q-230 0 -359 144t-86 390l172 981h162l-174 -993q-29 -162 48 -268t263 -105q145 0 249 89q103 89 128 228l184 1049h162l-182 -1038q-39 -227 -187 -353q-150 -124 -380 -124z" />
    <glyph glyph-name="uhungarumlaut" unicode="&#x171;" horiz-adv-x="1230" 
d="M748 1143l296 332h193l-352 -332h-137zM449 1143l296 332h195l-354 -332h-137zM523 -18q-202 0 -308 137t-65 346l55 278q14 80 -4 112t-82 32h-27l23 137h94q209 0 158 -266l-58 -297q-29 -154 33 -248t204 -94t231 98t112 248l104 559h160l-139 -743q-27 -143 86 -144
h35l-25 -137h-82q-154 0 -170 127q-133 -145 -335 -145z" />
    <glyph glyph-name="Uogonek" unicode="&#x172;" horiz-adv-x="1300" 
d="M512 -449q-133 0 -202 65t-52 153q23 125 195 227q-178 39 -265 176q-86 137 -49 342l172 981h162l-174 -993q-29 -162 48 -268t263 -105q145 0 249 89q103 89 128 228l184 1049h162l-182 -1038q-37 -205 -160 -327t-309 -144q-154 -86 -206 -128t-60 -85t20 -67t78 -23
q76 0 168 69l111 -86q-148 -115 -281 -115z" />
    <glyph glyph-name="uogonek" unicode="&#x173;" horiz-adv-x="1230" 
d="M523 -18q-202 0 -308 137t-65 346l55 278q14 80 -4 112t-82 32h-27l23 137h94q209 0 158 -266l-58 -297q-29 -154 33 -248t204 -94t231 98t112 248l104 559h160l-139 -743q-27 -143 86 -144h35l-25 -133l8 -4q-172 -94 -227 -138t-63 -87t20 -67q29 -24 78 -23
q76 0 168 69l110 -86q-146 -114 -280 -114t-202 64t-54 145q14 80 70 139t180 125q-51 35 -60 100q-133 -145 -335 -145z" />
    <glyph glyph-name="Wcircumflex" unicode="&#x174;" horiz-adv-x="2136" 
d="M936 1614l301 332h135l187 -332h-164l-111 205l-182 -205h-166zM1546 0h-157l-191 1249l-627 -1249h-161l-174 1495h165l136 -1239l620 1239h158l190 -1245l572 1245h168z" />
    <glyph glyph-name="wcircumflex" unicode="&#x175;" horiz-adv-x="1894" 
d="M723 1143l301 332h135l187 -332h-164l-111 205l-182 -205h-166zM492 -20q-199 0 -291 135t-49 350l53 278q31 143 -86 144h-27l25 137h92q211 0 160 -266l-60 -297q-31 -156 23 -249t187 -93q132 0 219 97t114 239l106 569h158l-112 -614q-25 -137 31 -213t175 -76
q164 0 271 134q106 134 146 353t-17 416h162q47 -238 8 -442q-48 -262 -194 -432t-378 -170q-268 0 -327 208q-143 -208 -389 -208z" />
    <glyph glyph-name="Ycircumflex" unicode="&#x176;" horiz-adv-x="1267" 
d="M516 1608l301 331h135l187 -331h-164l-111 204l-182 -204h-166zM457 0l127 721l-353 774h166l291 -637l508 637h184l-637 -790l-125 -705h-161z" />
    <glyph glyph-name="ycircumflex" unicode="&#x177;" horiz-adv-x="1200" 
d="M338 1143l301 332h135l187 -332h-164l-111 205l-182 -205h-166zM457 -492q-158 0 -275 81t-159 210l151 47q68 -195 295 -194q268 0 338 364l14 74q-127 -108 -313 -108t-293 137q-106 137 -65 346l55 278q14 80 -4 112t-82 32h-27l23 137h94q209 0 158 -266l-58 -297
q-29 -154 33 -248t204 -94t231 98t112 248l104 559h156l-184 -1004q-43 -250 -163 -381t-345 -131z" />
    <glyph glyph-name="Ydieresis" unicode="&#x178;" horiz-adv-x="1267" 
d="M877 1618l51 285h157l-49 -285h-159zM604 1618l49 285h160l-51 -285h-158zM457 0l127 721l-353 774h166l291 -637l508 637h184l-637 -790l-125 -705h-161z" />
    <glyph glyph-name="Zacute" unicode="&#x179;" horiz-adv-x="1230" 
d="M698 1614l297 332h205l-354 -332h-148zM1018 0h-985l26 147l994 1199h-760l24 149h959l-25 -145l-997 -1200h788z" />
    <glyph glyph-name="zacute" unicode="&#x17a;" horiz-adv-x="1169" 
d="M594 1143l297 332h205l-355 -332h-147zM41 0l25 139l819 744h-670l27 141h886l-26 -139l-823 -746h704l-25 -139h-917z" />
    <glyph glyph-name="Zdotaccent" unicode="&#x17b;" horiz-adv-x="1230" 
d="M729 1628l49 285h158l-49 -285h-158zM1018 0h-985l26 147l994 1199h-760l24 149h959l-25 -145l-997 -1200h788z" />
    <glyph glyph-name="zdotaccent" unicode="&#x17c;" horiz-adv-x="1169" 
d="M612 1157l50 285h157l-49 -285h-158zM41 0l25 139l819 744h-670l27 141h886l-26 -139l-823 -746h704l-25 -139h-917z" />
    <glyph glyph-name="Zcaron" unicode="&#x17d;" horiz-adv-x="1230" 
d="M741 1614l-186 332h164l110 -205l183 205h166l-304 -332h-133zM1018 0h-985l26 147l994 1199h-760l24 149h959l-25 -145l-997 -1200h788z" />
    <glyph glyph-name="zcaron" unicode="&#x17e;" horiz-adv-x="1169" 
d="M627 1143l-187 332h164l111 -205l182 205h166l-303 -332h-133zM41 0l25 139l819 744h-670l27 141h886l-26 -139l-823 -746h704l-25 -139h-917z" />
    <glyph glyph-name="florin" unicode="&#x192;" 
d="M1239 1495h27l-31 -135q-174 0 -257 -52t-147 -210l-92 -258h408l-27 -142h-430l-106 -307q-90 -229 -205 -310t-346 -81h-15l27 141q174 1 250 59t145 226l95 272h-390l27 142h412l104 293q84 211 210 287t341 75z" />
    <glyph glyph-name="Aringacute" unicode="&#x1fa;" horiz-adv-x="1406" 
d="M913 1710q-41 0 -71 -24t-40 -66q-10 -41 14 -76t67 -35t73 26q30 25 40 65q9 40 -16 75q-26 35 -67 35zM856 1894l297 332h205l-354 -332h-148zM852 1280l-416 -750h557zM930 1829q92 0 150 -78q58 -77 28 -185t-125 -155l274 -1411h-163l-72 379h-670l-209 -379h-172
l793 1421q-51 35 -74 97t-2 135q21 74 85 125q65 51 157 51z" />
    <glyph glyph-name="aringacute" unicode="&#x1fb;" horiz-adv-x="1327" 
d="M782 1450q-42 0 -72 -25t-39 -65t15 -76q24 -35 66 -35q44 0 74 26q30 25 39 65t-16 75q-26 35 -67 35zM725 1626l297 332h205l-355 -332h-147zM798 1569q92 0 150 -78t34 -168q-24 -91 -88 -143t-156 -52q-93 0 -151 78q-57 78 -33 169t88 143q64 51 156 51zM606 125
q141 0 255 97q113 97 143 258t-65 290t-277 131q-142 0 -258 -96t-144 -258t72 -292q98 -130 274 -130zM576 -20q-232 0 -370 178t-95 420q35 202 191 334t353 132q139 0 241 -61t155 -164l36 205h158l-135 -750q-14 -78 6 -108t88 -29h27l-29 -137h-78q-156 0 -172 141
q-144 -161 -376 -161z" />
    <glyph glyph-name="AEacute" unicode="&#x1fc;" horiz-adv-x="2058" 
d="M1231 1614l297 332h205l-355 -332h-147zM1008 1251l-494 -733h518zM-18 0l999 1495h1110l-27 -152h-903l17 -518h794l-26 -151h-762l18 -520h651l-24 -154h-778l-13 371h-624l-248 -371h-184z" />
    <glyph glyph-name="aeacute" unicode="&#x1fd;" horiz-adv-x="1923" 
d="M928 1120l297 332h205l-355 -332h-147zM444 111q117 0 224 74q106 75 166 180q-19 118 6 186q-49 -41 -364 -103q-82 -16 -152 -52t-81 -114t37 -124t164 -47zM1425 907q-135 0 -257 -80t-171 -213q195 -72 347 -72t237 49q86 48 100 128t-53 134t-203 54zM405 -20
q-167 0 -250 87t-67 221t131 198q115 65 403 118q79 14 133 34q54 19 84 41q46 34 50 75q12 70 -49 118q-60 48 -196 50q-136 0 -226 -62t-109 -174h-143q27 170 157 264t334 94q131 0 221 -44t130 -119q174 164 422 163q204 0 320 -100t90 -242t-152 -221
q-126 -80 -324 -80q-196 0 -393 80q-6 -160 98 -261t289 -101t307 141l121 -84q-164 -197 -449 -196q-163 0 -281 66t-177 181q-67 -107 -187 -177t-287 -70z" />
    <glyph glyph-name="Oslashacute" unicode="&#x1fe;" horiz-adv-x="1734" 
d="M956 1614l297 332h205l-354 -332h-148zM886 135q215 0 395 156q179 156 222 391q47 270 -112 477l-865 -917q145 -107 360 -107zM954 1364q-236 0 -416 -156t-223 -395q-25 -133 7 -258t108 -219l864 917q-143 111 -340 111zM856 -20q-254 0 -442 143l-115 -123h-186
l202 215q-219 256 -157 614q51 297 281 492t526 195q250 0 438 -146l119 125h186l-207 -219q101 -121 145 -281t13 -333q-51 -294 -279 -488t-524 -194z" />
    <glyph glyph-name="oslashacute" unicode="&#x1ff;" horiz-adv-x="1261" 
d="M604 1143l297 332h205l-354 -332h-148zM619 125q128 0 242 95q113 95 141 249t-58 285l-538 -572q85 -57 213 -57zM860 840q-88 59 -216 60t-242 -95t-143 -254q-28 -158 60 -285zM648 1044q190 0 317 -94l69 74h164l-145 -156q145 -178 100 -424q-35 -204 -191 -334
t-346 -130q-192 0 -317 90l-66 -70h-163l141 150q-147 176 -102 428q35 202 193 334q156 132 346 132z" />
    <glyph glyph-name="Scommaaccent" unicode="&#x218;" horiz-adv-x="1122" 
d="M514 -20q-186 0 -312 74t-202 196l147 96q119 -215 365 -215q129 0 217 66t109 184t-67 196q-89 77 -194 126q-104 49 -146 71t-98 66q-164 126 -128 343q25 149 151 241t292 92q167 0 286 -62t188 -170l-137 -90q-104 180 -326 180q-121 0 -199 -58t-93 -153
q-23 -141 114 -229q60 -39 137 -76q76 -36 133 -65t95 -61q36 -32 68 -64t45 -61t31 -71t14 -85q-2 -43 -7 -99q-29 -166 -163 -269t-320 -103zM197 -539l159 418h144l-201 -418h-102z" />
    <glyph glyph-name="scommaaccent" unicode="&#x219;" horiz-adv-x="1005" 
d="M488 -20q-158 0 -272 62t-179 163l137 90q106 -178 318 -178q98 0 156 43t69 106t-19 86q-29 24 -45 36q-26 20 -179 73q-153 52 -240 120t-64 220q20 113 124 181t240 66q269 -2 412 -188l-131 -84q-97 137 -281 137t-208 -129q-12 -70 45 -112t163 -75t156 -59
q142 -71 175 -160q22 -56 9 -126q-20 -121 -123 -197q-104 -75 -263 -75zM174 -520l160 418h143l-201 -418h-102z" />
    <glyph glyph-name="dotlessj" unicode="&#x237;" horiz-adv-x="462" 
d="M-199 -469h-47l27 147q143 0 192 44t78 200l197 1102h160l-197 -1104q-41 -229 -123 -309t-287 -80z" />
    <glyph glyph-name="circumflex" unicode="&#x2c6;" horiz-adv-x="1009" 
d="M299 1143l301 332h135l187 -332h-164l-111 205l-182 -205h-166z" />
    <glyph glyph-name="caron" unicode="&#x2c7;" horiz-adv-x="1009" 
d="M545 1143l-187 332h164l111 -205l182 205h166l-303 -332h-133z" />
    <glyph glyph-name="breve" unicode="&#x2d8;" horiz-adv-x="1009" 
d="M612 1130q-156 0 -228 96t-44 238h137q-18 -96 24 -154t134 -61q92 1 151 59t78 156h137q-27 -142 -130 -238t-259 -96z" />
    <glyph glyph-name="dotaccent" unicode="&#x2d9;" horiz-adv-x="1013" 
d="M512 1157l49 285h158l-49 -285h-158z" />
    <glyph glyph-name="ring" unicode="&#x2da;" horiz-adv-x="1009" 
d="M665 1456q-41 0 -71 -24t-40 -66q-10 -41 14 -76t67 -35t74 26q31 25 40 65t-17 75t-67 35zM622 1135q-93 0 -152 77q-58 78 -34 170t89 142q65 51 157 51t150 -78t34 -168q-25 -90 -88 -142t-156 -52z" />
    <glyph glyph-name="ogonek" unicode="&#x2db;" horiz-adv-x="1009" 
d="M342 -446q-133 0 -202 64q-70 64 -54 150t91 154t249 148l111 -70q-171 -94 -227 -138t-64 -87t20 -67t78 -23q76 0 168 69l111 -86q-148 -114 -281 -114z" />
    <glyph glyph-name="tilde" unicode="&#x2dc;" horiz-adv-x="1009" 
d="M489 1391q85 -1 169 -57t122 -56q74 0 94 104h127q-23 -116 -86 -182t-150 -66t-185 68q-70 45 -109 45q-72 0 -90 -104h-127q20 113 85 181t150 67z" />
    <glyph glyph-name="hungarumlaut" unicode="&#x2dd;" horiz-adv-x="1009" 
d="M541 1143l297 332h192l-352 -332h-137zM242 1143l297 332h194l-354 -332h-137z" />
    <glyph glyph-name="pi" unicode="&#x3c0;" horiz-adv-x="1597" 
d="M1350 150h94l-27 -150h-102q-201 0 -257 109t-20 323l160 911h-506l-235 -1343h-162l235 1343h-290l26 152h1409l-26 -152h-289l-160 -913q-31 -168 1 -224t149 -56z" />
    <glyph glyph-name="pi" unicode="&#x3d6;" horiz-adv-x="1597" 
d="M1350 150h94l-27 -150h-102q-201 0 -257 109t-20 323l160 911h-506l-235 -1343h-162l235 1343h-290l26 152h1409l-26 -152h-289l-160 -913q-31 -168 1 -224t149 -56z" />
    <glyph glyph-name="uni0E3F" unicode="&#xe3f;" horiz-adv-x="1095" 
d="M662 827q98 -1 160 53t74 132q11 78 -37 133t-138 61l-66 -379h7zM408 1208l-66 -381h176l66 381h-176zM315 684l-69 -401h176l72 401h-179zM582 283q208 0 241 188q16 88 -37 147t-155 66l-72 -401h23zM567 133h-35l-22 -133h-137l22 133h-334l213 1221h336l25 141h137
l-24 -143q152 -10 240 -110t63 -241q-27 -182 -195 -262q164 -100 129 -297q-27 -143 -135 -226t-283 -83z" />
    <glyph glyph-name="Wgrave" unicode="&#x1e80;" horiz-adv-x="2136" 
d="M1171 1614l-237 332h203l180 -332h-146zM1546 0h-157l-191 1249l-627 -1249h-161l-174 1495h165l136 -1239l620 1239h158l190 -1245l572 1245h168z" />
    <glyph glyph-name="wgrave" unicode="&#x1e81;" horiz-adv-x="1894" 
d="M977 1143l-238 332h203l180 -332h-145zM492 -20q-199 0 -291 135t-49 350l53 278q31 143 -86 144h-27l25 137h92q211 0 160 -266l-60 -297q-31 -156 23 -249t187 -93q132 0 219 97t114 239l106 569h158l-112 -614q-25 -137 31 -213t175 -76q164 0 271 134
q106 134 146 353t-17 416h162q47 -238 8 -442q-48 -262 -194 -432t-378 -170q-268 0 -327 208q-143 -208 -389 -208z" />
    <glyph glyph-name="Wacute" unicode="&#x1e82;" horiz-adv-x="2136" 
d="M1176 1614l297 332h204l-354 -332h-147zM1546 0h-157l-191 1249l-627 -1249h-161l-174 1495h165l136 -1239l620 1239h158l190 -1245l572 1245h168z" />
    <glyph glyph-name="wacute" unicode="&#x1e83;" horiz-adv-x="1894" 
d="M981 1143l297 332h205l-355 -332h-147zM492 -20q-199 0 -291 135t-49 350l53 278q31 143 -86 144h-27l25 137h92q211 0 160 -266l-60 -297q-31 -156 23 -249t187 -93q132 0 219 97t114 239l106 569h158l-112 -614q-25 -137 31 -213t175 -76q164 0 271 134
q106 134 146 353t-17 416h162q47 -238 8 -442q-48 -262 -194 -432t-378 -170q-268 0 -327 208q-143 -208 -389 -208z" />
    <glyph glyph-name="Wdieresis" unicode="&#x1e84;" horiz-adv-x="2136" 
d="M1309 1628l51 285h158l-50 -285h-159zM1036 1628l49 285h160l-51 -285h-158zM1546 0h-157l-191 1249l-627 -1249h-161l-174 1495h165l136 -1239l620 1239h158l190 -1245l572 1245h168z" />
    <glyph glyph-name="wdieresis" unicode="&#x1e85;" horiz-adv-x="1894" 
d="M1116 1157l51 285h158l-49 -285h-160zM844 1157l49 285h160l-52 -285h-157zM492 -20q-199 0 -291 135t-49 350l53 278q31 143 -86 144h-27l25 137h92q211 0 160 -266l-60 -297q-31 -156 23 -249t187 -93q132 0 219 97t114 239l106 569h158l-112 -614q-25 -137 31 -213
t175 -76q164 0 271 134q106 134 146 353t-17 416h162q47 -238 8 -442q-48 -262 -194 -432t-378 -170q-268 0 -327 208q-143 -208 -389 -208z" />
    <glyph glyph-name="Ygrave" unicode="&#x1ef2;" horiz-adv-x="1267" 
d="M748 1593l-238 332h203l180 -332h-145zM457 0l127 721l-353 774h166l291 -637l508 637h184l-637 -790l-125 -705h-161z" />
    <glyph glyph-name="ygrave" unicode="&#x1ef3;" horiz-adv-x="1200" 
d="M582 1143l-238 332h203l180 -332h-145zM457 -492q-158 0 -275 81t-159 210l151 47q68 -195 295 -194q268 0 338 364l14 74q-127 -108 -313 -108t-293 137q-106 137 -65 346l55 278q14 80 -4 112t-82 32h-27l23 137h94q209 0 158 -266l-58 -297q-29 -154 33 -248t204 -94
t231 98t112 248l104 559h156l-184 -1004q-43 -250 -163 -381t-345 -131z" />
    <glyph glyph-name="figuredash" unicode="&#x2012;" horiz-adv-x="1351" 
d="M88 455l25 135h1147l-25 -135h-1147z" />
    <glyph glyph-name="endash" unicode="&#x2013;" horiz-adv-x="1032" 
d="M88 455l25 135h839l-24 -135h-840z" />
    <glyph glyph-name="emdash" unicode="&#x2014;" horiz-adv-x="1454" 
d="M88 455l25 135h1249l-25 -135h-1249z" />
    <glyph glyph-name="uni2015" unicode="&#x2015;" horiz-adv-x="2068" 
d="M88 455l25 135h1863l-24 -135h-1864z" />
    <glyph glyph-name="doublebar" unicode="&#x2016;" horiz-adv-x="798" 
d="M330 -471l346 1966h162l-346 -1966h-162zM-37 -471l346 1966h162l-346 -1966h-162z" />
    <glyph glyph-name="quoteleft" unicode="&#x2018;" horiz-adv-x="391" 
d="M383 1495l12 -418h-102l-55 418h145z" />
    <glyph glyph-name="quoteright" unicode="&#x2019;" horiz-adv-x="391" 
d="M272 1077h-102l158 418h145z" />
    <glyph glyph-name="quotesinglbase" unicode="&#x201a;" horiz-adv-x="393" 
d="M-78 -240l158 418h145l-202 -418h-101z" />
    <glyph glyph-name="reversequoteleft" unicode="&#x201b;" horiz-adv-x="391" 
d="M272 1077h-102l158 418h145z" />
    <glyph glyph-name="quotedblleft" unicode="&#x201c;" horiz-adv-x="634" 
d="M387 1495l12 -418h-102l-55 418h145zM633 1495l10 -418h-102l-54 418h146z" />
    <glyph glyph-name="quotedblright" unicode="&#x201d;" horiz-adv-x="634" 
d="M516 1077h-102l159 418h146zM272 1077h-102l158 418h145z" />
    <glyph glyph-name="quotedblbase" unicode="&#x201e;" horiz-adv-x="636" 
d="M166 -240l160 418h145l-203 -418h-102zM-78 -240l158 418h145l-202 -418h-101z" />
    <glyph glyph-name="reversequotedblleft" unicode="&#x201f;" horiz-adv-x="634" 
d="M516 1077h-102l159 418h146zM272 1077h-102l158 418h145z" />
    <glyph glyph-name="dagger" unicode="&#x2020;" horiz-adv-x="1161" 
d="M172 883l27 141h379l84 471h161l-84 -471h387l-26 -141h-385l-154 -883h-162l154 883h-381z" />
    <glyph glyph-name="daggerdbl" unicode="&#x2021;" horiz-adv-x="1161" 
d="M182 942l27 139h381l72 414h161l-71 -414h385l-27 -139h-383l-65 -373h382l-24 -139h-383l-76 -430h-162l76 430h-383l25 139h383l65 373h-383z" />
    <glyph glyph-name="bullet" unicode="&#x2022;" horiz-adv-x="667" 
d="M348 369q-61 0 -105 44t-44 105q0 62 44 106t105 44q62 0 106 -44t44 -106t-44 -105q-44 -44 -106 -44z" />
    <glyph glyph-name="ellipsis" unicode="&#x2026;" horiz-adv-x="997" 
d="M623 0l49 281h157l-49 -281h-157zM319 0l50 281h159l-49 -281h-160zM16 0l52 281h157l-49 -281h-160z" />
    <glyph glyph-name="perthousand" unicode="&#x2030;" horiz-adv-x="2553" 
d="M2033 113q89 0 153 54t80 141q15 87 -41 160t-145 73q-88 1 -152 -55t-80 -143t40 -159q56 -71 145 -71zM2018 -23q-146 0 -238 115t-66 258q26 144 130 234q105 90 250 90t238 -115t68 -259t-130 -234q-106 -90 -252 -89zM1220 113q90 0 154 54t79 141t-41 160t-145 73
q-89 1 -153 -55t-78 -143q-16 -87 39 -159q56 -71 145 -71zM1204 -23q-146 0 -238 115t-66 258q26 144 131 234t250 90t238 -115t68 -259t-131 -234t-252 -89zM555 954q89 0 153 54t79 143q15 88 -39 160q-56 71 -146 71t-153 -54t-79 -142t40 -160q55 -72 145 -72zM542 821
q-148 0 -240 115q-91 115 -66 258t130 232q104 90 250 90t239 -115t67 -258t-128 -233q-104 -89 -252 -89zM39 0l1546 1495h203l-1546 -1495h-203z" />
    <glyph glyph-name="minute" unicode="&#x2032;" horiz-adv-x="391" 
d="M272 1077h-102l158 418h145z" />
    <glyph glyph-name="second" unicode="&#x2033;" horiz-adv-x="634" 
d="M516 1077h-102l159 418h146zM272 1077h-102l158 418h145z" />
    <glyph glyph-name="tripleprime" unicode="&#x2034;" horiz-adv-x="839" 
d="M717 1024q-4 41 0 146t12 153l31 172h127l-31 -172q-18 -119 -90 -299h-49zM477 1024q-4 41 0 146t12 153l31 172h127l-31 -172q-18 -119 -90 -299h-49zM238 1024q-4 41 0 146t12 153l31 172h127l-31 -172q-18 -119 -90 -299h-49z" />
    <glyph glyph-name="guilsinglleft" unicode="&#x2039;" horiz-adv-x="579" 
d="M395 219l-274 244l18 102l361 244l-23 -131l-252 -170l193 -168z" />
    <glyph glyph-name="guilsinglright" unicode="&#x203a;" horiz-adv-x="579" 
d="M190 807l275 -244l-19 -102l-360 -244l23 131l251 168l-192 170z" />
    <glyph glyph-name="fraction" unicode="&#x2044;" horiz-adv-x="1394" 
d="M-27 0l1338 1495h192l-1337 -1495h-193z" />
    <glyph glyph-name="uni2070" unicode="&#x2070;" horiz-adv-x="1005" 
d="M569 760q127 0 215 80t112 204t-53 226q-77 100 -206 100t-218 -79t-112 -205t55 -227q79 -99 207 -99zM552 618q-186 0 -304 146t-85 330q32 186 165 300q132 114 320 114t304 -147q116 -145 85 -329q-32 -184 -165 -299q-134 -115 -320 -115z" />
    <glyph glyph-name="uni2074" unicode="&#x2074;" horiz-adv-x="784" 
d="M309 961h217l54 307zM469 631l35 198h-379l22 132l469 534h146l-94 -534h127l-23 -132h-127l-35 -198h-141z" />
    <glyph glyph-name="uni2075" unicode="&#x2075;" horiz-adv-x="716" 
d="M401 618q-223 0 -278 187l139 59q27 -115 146 -114q61 0 107 38t60 106q14 69 -22 120q-37 51 -109 51q-102 0 -161 -96l-119 51l141 475h479l-24 -137h-359l-61 -203q56 39 160 38t174 -92t45 -214t-108 -196t-210 -73z" />
    <glyph glyph-name="uni2076" unicode="&#x2076;" horiz-adv-x="733" 
d="M419 750q71 0 121 43t61 113t-31 125q-42 56 -112 56t-120 -45q-50 -46 -62 -116t30 -123t113 -53zM500 1210q124 0 194 -96t47 -218t-105 -198t-224 -78q-144 -2 -222 96t-55 226q16 84 80 162l317 391h170l-237 -287q12 2 35 2z" />
    <glyph glyph-name="uni2077" unicode="&#x2077;" horiz-adv-x="698" 
d="M172 631l449 727h-400l23 137h557l-21 -125l-444 -739h-164z" />
    <glyph glyph-name="uni2078" unicode="&#x2078;" horiz-adv-x="704" 
d="M502 1376q-53 0 -89 -28t-45 -76q-8 -49 22 -86t81 -37t89 30q38 31 47 79t-21 83q-31 35 -84 35zM398 754q62 0 104 33q41 33 51 91t-27 98t-97 40t-103 -34q-42 -34 -52 -91t26 -97t98 -40zM388 618q-122 0 -197 80t-53 207t141 195q-68 82 -49 185q20 103 96 163
t186 59q110 1 178 -77q70 -78 53 -181q-27 -127 -120 -182q85 -81 67 -197t-99 -184t-203 -68z" />
    <glyph glyph-name="uni2079" unicode="&#x2079;" horiz-adv-x="727" 
d="M466 1047q68 0 118 44q49 45 61 113t-27 120q-38 52 -110 52t-120 -43t-59 -111t29 -122q40 -53 108 -53zM434 924q-122 0 -196 93t-52 216t116 199q93 76 222 76t207 -96q78 -95 55 -222q-16 -86 -77 -162l-318 -397h-176l240 293h-21z" />
    <glyph glyph-name="uni207A" unicode="&#x207a;" horiz-adv-x="571" 
d="M152 1004l22 120h158l28 156h121l-28 -156h157l-20 -120h-158l-29 -160h-120l28 160h-159z" />
    <glyph glyph-name="uni207B" unicode="&#x207b;" horiz-adv-x="571" 
d="M152 1004l22 120h436l-20 -120h-438z" />
    <glyph glyph-name="uni207C" unicode="&#x207c;" horiz-adv-x="571" 
d="M133 901l23 121h438l-23 -121h-438zM170 1098l20 121h439l-21 -121h-438z" />
    <glyph glyph-name="uni207D" unicode="&#x207d;" horiz-adv-x="509" 
d="M469 625l-104 -111q-113 96 -175 252q-61 156 -30 334q33 178 146 316q114 138 259 200l74 -121q-272 -123 -332 -410q-43 -282 162 -460z" />
    <glyph glyph-name="uni207E" unicode="&#x207e;" horiz-adv-x="509" 
d="M211 1495l104 111q113 -96 174 -252t29 -335t-138 -314q-108 -135 -265 -201l-74 121q272 123 332 409q43 283 -162 461z" />
    <glyph glyph-name="uni2080" unicode="&#x2080;" horiz-adv-x="1005" 
d="M454 129q128 0 216 80t112 205t-54 225q-77 100 -206 100t-218 -79q-90 -80 -112 -206t56 -226t206 -99zM534 877q188 -1 304 -147q117 -146 85 -330t-165 -298q-134 -114 -320 -114t-304 145t-86 331t165 299q133 114 321 114z" />
    <glyph glyph-name="uni2081" unicode="&#x2081;" horiz-adv-x="589" 
d="M94 571h-12l27 152h6q78 0 123 43t53 98h139l-129 -727h168l-23 -137h-469l23 137h158l88 510q-49 -76 -152 -76z" />
    <glyph glyph-name="uni2082" unicode="&#x2082;" horiz-adv-x="694" 
d="M385 752q-106 0 -164 -93l-119 58q96 160 287 160q125 0 199 -71t53 -190q-14 -82 -80 -142q-65 -60 -197 -140t-167 -120t-41 -77h397l-25 -137h-548l22 135q12 68 62 130t98 96q47 33 92 61l72 44q70 43 91 61t50 43t36 70q7 46 -26 79t-92 33z" />
    <glyph glyph-name="uni2083" unicode="&#x2083;" horiz-adv-x="663" 
d="M246 -12q-96 0 -166 42t-100 103l131 76q37 -86 141 -86q123 0 141 119q10 57 -26 97q-37 40 -101 40h-76l23 137h68q67 0 113 33t56 83t-25 82q-34 32 -87 31q-84 0 -137 -69l-111 84q90 117 252 117q127 0 198 -78t48 -192t-133 -171q111 -82 86 -227
q-47 -221 -295 -221z" />
    <glyph glyph-name="uni2084" unicode="&#x2084;" horiz-adv-x="784" 
d="M195 330h217l53 307zM354 0l35 199h-379l23 131l469 534h145l-94 -534h127l-23 -131h-127l-34 -199h-142z" />
    <glyph glyph-name="uni2085" unicode="&#x2085;" horiz-adv-x="716" 
d="M287 -12q-223 0 -279 186l139 59q27 -115 146 -114q61 0 107 38t61 99q14 76 -23 127t-108 51q-102 0 -162 -96l-119 51l141 475h480l-25 -137h-358l-62 -203q57 39 161 38t174 -92t44 -214q-25 -123 -107 -196q-83 -72 -210 -72z" />
    <glyph glyph-name="uni2086" unicode="&#x2086;" horiz-adv-x="733" 
d="M304 119q71 0 121 43q50 42 61 112t-30 126q-42 56 -112 56t-121 -44q-51 -45 -62 -116t31 -124t112 -53zM385 580q123 0 194 -96t48 -219q-23 -121 -105 -197t-225 -78t-221 95t-56 226q16 84 80 162l318 391h170l-238 -286q12 2 35 2z" />
    <glyph glyph-name="uni2087" unicode="&#x2087;" horiz-adv-x="698" 
d="M57 0l449 727h-400l23 137h557l-20 -125l-445 -739h-164z" />
    <glyph glyph-name="uni2088" unicode="&#x2088;" horiz-adv-x="704" 
d="M356 518q51 0 89 30t49 79q8 49 -23 84t-84 35t-89 -28t-45 -77t21 -86t82 -37zM284 123q62 0 103 34t51 91t-26 97q-38 40 -98 40t-103 -34t-52 -91t27 -97t98 -40zM273 -12q-123 0 -197 80t-52 206t140 195q-68 81 -48 185t95 163t185 59t180 -77q70 -78 53 -181
q-27 -127 -121 -182q84 -80 66 -196t-98 -184q-81 -68 -203 -68z" />
    <glyph glyph-name="uni2089" unicode="&#x2089;" horiz-adv-x="727" 
d="M352 416q68 0 117 44t61 112t-26 121q-39 52 -111 52t-120 -43q-48 -44 -59 -112q-10 -68 30 -121t108 -53zM319 293q-121 0 -195 93t-52 216q23 123 115 199q93 76 222 76q129 1 207 -95t56 -223q-16 -86 -78 -162l-318 -397h-176l240 293h-21z" />
    <glyph glyph-name="uni208A" unicode="&#x208a;" horiz-adv-x="571" 
d="M37 373l22 121h158l29 155h121l-29 -155h158l-21 -121h-158l-28 -160h-121l29 160h-160z" />
    <glyph glyph-name="uni208B" unicode="&#x208b;" horiz-adv-x="571" 
d="M37 373l22 121h437l-21 -121h-438z" />
    <glyph glyph-name="uni208C" unicode="&#x208c;" horiz-adv-x="571" 
d="M18 270l23 121h438l-22 -121h-439zM55 467l21 121h438l-20 -121h-439z" />
    <glyph glyph-name="uni208D" unicode="&#x208d;" horiz-adv-x="509" 
d="M354 -6l-104 -111q-113 96 -174 252t-31 334q33 178 146 316q114 138 260 200l73 -121q-272 -123 -331 -409q-44 -283 161 -461z" />
    <glyph glyph-name="uni208E" unicode="&#x208e;" horiz-adv-x="509" 
d="M121 864l104 111q113 -96 174 -252t29 -335t-138 -314q-108 -135 -265 -201l-74 121q272 123 332 409q43 283 -162 461z" />
    <glyph glyph-name="uni20A1" unicode="&#x20a1;" horiz-adv-x="1642" 
d="M535 227q55 -39 110 -57l561 1153q-57 23 -121 31zM319 807q-51 -293 119 -492l508 1047q-226 -10 -406 -167t-221 -388zM995 1516h27l100 204h144l-109 -223q61 -12 117 -37l127 260h143l-155 -317q166 -106 243 -279l-155 -71q-59 137 -156 209l-551 -1125q29 -4 86 -4
q170 0 315 84t232 232l145 -70q-106 -187 -290 -293t-416 -106q-76 0 -144 12l-114 -238h-142l131 271q-57 20 -110 55l-158 -326h-139l194 402q-127 121 -181 296t-19 375q51 295 287 492q237 197 548 197z" />
    <glyph glyph-name="uni20A2" unicode="&#x20a2;" horiz-adv-x="1642" 
d="M843 -20q-232 0 -405 115q-172 116 -244 311q-73 195 -34 421q51 295 287 492q237 197 548 197q213 0 386 -109t251 -283l-155 -71q-129 309 -502 309q-238 0 -425 -158q-188 -158 -230 -390t62 -418t312 -242l82 413q31 143 -88 144h-29l23 137h74q160 0 170 -162
q123 162 348 162h139l-29 -158h-122q-301 0 -363 -321l-47 -236h4q170 0 315 84t232 232l145 -70q-106 -187 -290 -293t-415 -106z" />
    <glyph glyph-name="franc" unicode="&#x20a3;" horiz-adv-x="1093" 
d="M37 0l262 1495h846l-27 -152h-684l-61 -350h684l-29 -151h-682l-35 -193h684l-26 -147h-682l-88 -502h-162z" />
    <glyph glyph-name="lira" unicode="&#x20a4;" horiz-adv-x="1482" 
d="M297 82q125 0 209 111q-131 100 -213 100q-106 0 -125 -88q-8 -55 28 -89t101 -34zM960 -20q-174 0 -356 139q-121 -141 -305 -142q-133 0 -206 69t-52 183q16 80 82 128q67 47 181 49t257 -101q40 116 -20 293h-351l23 129h279q-35 88 -52 147h-200l22 130h154
q-4 82 8 139q29 168 162 270t323 103q285 0 410 -213l-145 -60q-88 133 -273 133q-125 0 -211 -68q-128 -100 -110 -304h495l-22 -130h-445l49 -147h369l-22 -129h-306q55 -211 -26 -375q150 -113 264 -113t172 59q57 58 84 202l12 69h166l-16 -90q-35 -186 -128 -278
q-92 -92 -266 -92z" />
    <glyph glyph-name="uni20A6" unicode="&#x20a6;" horiz-adv-x="1638" 
d="M1059 537l137 -275l49 275h-186zM682 942l-156 309l-55 -309h211zM918 813l75 -147h275l24 147h-374zM449 813l-25 -147h399l-75 147h-299zM123 813l22 129h164l99 553h165l279 -553h463l98 553h162l-98 -553h165l-22 -129h-166l-24 -147h163l-22 -129h-164l-94 -537
h-154l-270 537h-488l-94 -537h-162l95 537h-166l22 129h166l25 147h-164z" />
    <glyph glyph-name="peseta" unicode="&#x20a7;" horiz-adv-x="2652" 
d="M707 1350h-271l-129 -738h316q173 0 291 98t146 258q28 158 -74 270t-279 112zM1710 141h354q258 0 281 144q8 51 -29 89q-36 38 -72 53q-99 42 -129 48q-29 6 -82 27q-53 22 -95 45t-54 37t-31 32q-18 18 -23 36t-15 44q-11 24 -7 50t7 59q20 113 122 179t254 63
q233 0 379 -187l-131 -84q-98 137 -272 137t-197 -125q-14 -84 105 -139q31 -13 109 -41t117 -44q109 -44 164 -113q55 -70 33 -193q-22 -122 -118 -190t-320 -68h-372q-134 0 -226 40t-130 106q-85 149 -46 319l74 418h-156q-49 -186 -208 -301t-380 -115h-333l-82 -467
h-162l262 1495h428q211 0 355 -131t141 -340h159l43 244l175 86l-60 -330h227l-24 -141h-227l-74 -424q-22 -147 32 -233t234 -85z" />
    <glyph glyph-name="uni20A8" unicode="&#x20a8;" horiz-adv-x="2127" 
d="M733 1495q229 0 367 -152t98 -370q-29 -168 -161 -285t-332 -127q60 -193 228 -314q192 -141 554 -141q313 0 340 175q8 47 -25 81t-77 54q-45 18 -87 32t-76 26q-177 57 -230 118q-76 88 -56 203t124 185t242 68q269 -2 412 -188l-131 -84q-98 137 -285 137
q-182 0 -207 -142q-13 -73 111 -130q31 -12 123 -45q92 -32 137 -54q46 -22 100 -61q105 -75 80 -219q-47 -299 -509 -299q-199 0 -359 45t-263 117t-176 171q-130 176 -159 402h129q164 0 265 84t127 223t-68 239t-260 106h-275l-235 -1350h-162l262 1495h434z" />
    <glyph glyph-name="uni20A9" unicode="&#x20a9;" horiz-adv-x="2220" 
d="M717 537h-172l30 -281zM1675 537h-174l43 -287zM1237 1251l-156 -309h203zM514 813l16 -147h250l74 147h-340zM1458 813l23 -147h254l67 147h-344zM1016 813l-74 -147h383l-22 147h-287zM121 813l22 129h195l-64 553h166l60 -553h420l276 553h158l84 -553h424l254 553
h168l-259 -553h201l-22 -129h-240l-68 -147h281l-23 -129h-319l-250 -537h-158l-81 537h-467l-269 -537h-161l-62 537h-315l22 129h277l-17 147h-233z" />
    <glyph glyph-name="uni20AA" unicode="&#x20aa;" horiz-adv-x="1470" 
d="M821 150q158 0 241 82t116 272l176 991h164l-177 -991q-47 -266 -183 -385t-367 -119h-404l211 1194q92 0 121 -38t12 -130l-158 -876h248zM713 1495q231 0 322 -119t44 -385l-88 -495q-16 -92 -58 -130t-134 -38l116 663q35 193 -15 274t-206 81h-256l-239 -1346h-164
l264 1495h414z" />
    <glyph glyph-name="Euro" unicode="&#x20ac;" 
d="M856 1516q127 0 223 -56t146 -143l-131 -86q-44 75 -98 109t-148 34q-140 0 -232 -86t-116 -221l-6 -33h532l-45 -127h-510l-55 -319h458l-43 -127h-438q-17 -150 53 -245t235 -95t265 153l121 -94q-147 -200 -391 -200t-355 134q-112 134 -90 347h-125l21 127h125
l57 319h-127l23 127h129l8 47q35 191 167 313t347 122z" />
    <glyph glyph-name="uni20AE" unicode="&#x20ae;" horiz-adv-x="1220" 
d="M1077 1120l-22 -125l-301 -114l-31 -172l301 114l-23 -125l-299 -114l-102 -584h-162l90 516l-301 -115l21 125l303 115l29 172l-301 -115l22 125l301 115l72 405h-428l26 152h1018l-26 -152h-428l-62 -337z" />
    <glyph glyph-name="uni20B1" unicode="&#x20b1;" horiz-adv-x="1464" 
d="M813 1350h-270l-29 -166h619q-43 76 -129 121t-191 45zM729 612q227 0 356 166h-643l-28 -166h315zM1151 907q23 85 18 148h-677l-27 -148h686zM836 1495q166 0 294 -84t177 -227h211l-23 -129h-164q0 -84 -8 -114q-8 -29 -8 -34h153l-22 -129h-176q-72 -143 -215 -227
t-332 -84h-334l-82 -467h-162l136 778h-162l22 129h162l27 148h-162l22 129h162l56 311h428z" />
    <glyph glyph-name="published" unicode="&#x2117;" horiz-adv-x="1736" 
d="M930 754h-131l-54 -305h162q166 0 191 145q12 76 -36 118t-132 42zM965 887q137 0 221 -92q84 -91 64 -215t-108 -196q-89 -72 -218 -73h-201l-37 -215h-156l140 791h295zM827 -129q238 0 420 159t228 402q31 174 -27 333q-56 159 -198 260t-335 101q-244 0 -427 -158
t-228 -405q-48 -274 114 -483t453 -209zM813 -270q-348 0 -553 252t-145 598q51 298 281 492t526 194q346 0 551 -255t145 -599q-50 -294 -280 -488t-525 -194z" />
    <glyph glyph-name="servicemark" unicode="&#x2120;" horiz-adv-x="1368" 
d="M360 891q-137 0 -204 113l104 59q34 -66 102 -66t84 66q7 38 -40 71q-14 8 -54 32t-64 43t-42 61t-9 101q9 58 63 97t132 39q119 0 180 -96l-98 -61q-32 53 -96 53t-74 -55q-4 -20 11 -40t29 -28t55 -31q42 -23 67 -42t45 -62t10 -106q-9 -63 -63 -105t-138 -43zM655 901
l105 594h123l147 -276l260 276h123l-106 -594h-117l76 410l-258 -262l-162 276l-76 -424h-115z" />
    <glyph glyph-name="trademark" unicode="&#x2122;" horiz-adv-x="1409" 
d="M332 901l86 488h-187l19 106h489l-18 -106h-186l-86 -488h-117zM696 901l105 594h123l147 -276l260 276h123l-106 -594h-117l76 410l-258 -262l-162 276l-76 -424h-115z" />
    <glyph glyph-name="uni2153" unicode="&#x2153;" horiz-adv-x="1746" 
d="M211 1202h-12l26 152h6q78 0 123 43t54 98h139l-129 -727h168l-23 -137h-469l23 137h157l88 510q-49 -76 -151 -76zM1329 -12q-96 0 -166 42t-100 103l131 76q37 -86 141 -86q123 0 142 119q10 57 -27 97t-100 40h-76l22 137h68q68 0 114 33t55 83t-25 82t-87 31
q-84 0 -137 -69l-110 84q90 117 251 117q127 0 198 -78t48 -192t-133 -171q111 -82 86 -227q-47 -221 -295 -221zM141 0l1338 1495h192l-1337 -1495h-193z" />
    <glyph glyph-name="uni2154" unicode="&#x2154;" horiz-adv-x="1837" 
d="M1401 -12q-96 0 -166 42t-100 103l131 76q37 -86 141 -86q123 0 141 119q10 57 -26 97q-37 40 -101 40h-75l22 137h68q68 0 114 33t54 83q10 50 -24 82t-87 31q-84 0 -137 -69l-111 84q90 117 252 117q127 0 198 -78t48 -192t-133 -171q111 -82 86 -227
q-47 -221 -295 -221zM104 631l23 135q12 68 62 130q49 62 97 96t93 62l72 44q121 74 146 108q25 35 31 73q7 38 -26 71t-92 32q-106 0 -164 -92l-119 58q96 160 287 159q125 -1 199 -71t53 -189q-14 -82 -80 -142t-198 -140t-166 -120q-36 -40 -41 -77h397l-25 -137h-549z
M238 0l1337 1495h192l-1337 -1495h-192z" />
    <glyph glyph-name="uni2155" unicode="&#x2155;" horiz-adv-x="1781" 
d="M211 1202h-12l26 152h6q78 0 123 43t54 98h139l-129 -727h168l-23 -137h-469l23 137h157l88 510q-49 -76 -151 -76zM1360 -12q-223 0 -279 186l140 59q27 -115 145 -114q61 0 108 38q46 39 60 107t-23 119t-108 51q-102 0 -162 -96l-119 51l142 475h479l-25 -137h-358
l-62 -203q57 39 161 38q103 -1 173 -92t45 -214t-107 -196q-83 -72 -210 -72zM141 0l1338 1495h192l-1337 -1495h-193z" />
    <glyph glyph-name="uni2156" unicode="&#x2156;" horiz-adv-x="1910" 
d="M104 631l23 135q12 68 62 130q49 62 97 96t93 62l72 44q121 74 146 108q25 35 31 73q7 38 -26 71t-92 32q-106 0 -164 -92l-119 58q96 160 287 159q125 -1 199 -71t53 -189q-14 -82 -80 -142t-198 -140t-166 -120q-36 -40 -41 -77h397l-25 -137h-549zM1481 -12
q-223 0 -279 186l139 59q27 -115 146 -114q61 0 107 38t61 99q14 76 -23 127t-108 51q-102 0 -162 -96l-119 51l141 475h480l-25 -137h-358l-62 -203q57 39 161 38t174 -92t44 -214q-25 -123 -107 -196q-83 -72 -210 -72zM238 0l1337 1495h192l-1337 -1495h-192z" />
    <glyph glyph-name="uni2157" unicode="&#x2157;" horiz-adv-x="1880" 
d="M358 618q-96 0 -166 42t-100 104l131 76q37 -86 151 -86t132 118q10 58 -27 98t-100 40h-76l23 137h67q68 0 114 33t55 83t-24 82q-34 32 -87 31q-84 0 -138 -69l-110 84q90 117 252 116q127 1 197 -77t48 -192q-23 -114 -133 -171q111 -82 86 -227q-47 -222 -295 -222z
M1450 -12q-223 0 -279 186l140 59q27 -115 145 -114q61 0 108 38q46 39 60 107t-22 119q-37 51 -109 51q-102 0 -162 -96l-119 51l142 475h479l-25 -137h-358l-61 -203q57 39 161 38t172 -92q70 -91 45 -214t-107 -196q-83 -72 -210 -72zM207 0l1337 1495h193l-1338 -1495
h-192z" />
    <glyph glyph-name="uni2158" unicode="&#x2158;" horiz-adv-x="1925" 
d="M309 961h217l54 307zM1495 -12q-223 0 -278 186l139 59q27 -115 145 -114q61 0 108 38q46 39 60 107t-22 119q-37 51 -109 51q-102 0 -162 -96l-119 51l142 475h479l-25 -137h-358l-61 -203q56 39 160 38t174 -92t44 -214q-25 -123 -107 -196q-83 -72 -210 -72zM252 0
l1337 1495h193l-1338 -1495h-192zM469 631l35 198h-379l22 132l469 534h146l-94 -534h127l-23 -132h-127l-35 -198h-141z" />
    <glyph glyph-name="uni2159" unicode="&#x2159;" horiz-adv-x="1648" 
d="M1220 119q70 0 120 43q50 42 62 112t-31 126q-42 56 -112 56q-71 0 -121 -44q-50 -45 -62 -116t31 -124q42 -53 113 -53zM211 1202h-12l26 152h6q78 0 123 43t54 98h139l-129 -727h168l-23 -137h-469l23 137h157l88 510q-49 -76 -151 -76zM141 0l1338 1495h192
l-1337 -1495h-193zM1300 580q123 0 194 -96t48 -219q-23 -121 -105 -197t-225 -78t-221 95t-55 226q16 84 80 162l317 391h170l-237 -286q12 2 34 2z" />
    <glyph glyph-name="uni215A" unicode="&#x215a;" horiz-adv-x="1710" 
d="M1281 119q71 0 121 43q50 42 61 112t-30 126q-42 56 -112 56t-121 -44q-51 -45 -62 -116q-12 -71 30 -124t113 -53zM401 618q-223 0 -278 187l139 59q27 -115 146 -114q61 0 107 38t60 106q14 69 -22 120q-37 51 -109 51q-102 0 -161 -96l-119 51l141 475h479l-24 -137
h-359l-61 -203q56 39 160 38t174 -92t45 -214t-108 -196t-210 -73zM203 0l1337 1495h193l-1338 -1495h-192zM1362 580q124 0 194 -96t48 -219q-22 -121 -105 -197q-82 -76 -225 -78t-221 95t-56 226q16 84 80 162l318 391h170l-238 -286q12 2 35 2z" />
    <glyph glyph-name="uni215B" unicode="&#x215b;" horiz-adv-x="1763" 
d="M1415 518q51 0 89 30t48 79q8 49 -22 84q-31 35 -84 35t-89 -28t-45 -77q-8 -49 22 -86t81 -37zM1342 123q62 0 104 34q41 34 51 91t-27 97t-97 40t-103 -34t-52 -91q-10 -57 26 -97t98 -40zM211 1202h-12l26 152h6q78 0 123 43t54 98h139l-129 -727h168l-23 -137h-469
l23 137h157l88 510q-49 -76 -151 -76zM141 0l1338 1495h192l-1337 -1495h-193zM1332 -12q-122 0 -196 80t-54 206q22 126 141 195q-69 81 -49 185t96 163t186 59t178 -77q70 -78 54 -181q-27 -127 -121 -182q85 -80 67 -196t-99 -184t-203 -68z" />
    <glyph glyph-name="uni215C" unicode="&#x215c;" horiz-adv-x="1830" 
d="M1483 518q51 0 89 30t48 79q8 49 -23 84t-84 35t-89 -28t-45 -77t22 -86t82 -37zM1410 123q62 0 103 34t51 91t-26 97q-37 40 -97 40q-59 0 -103 -34t-53 -91t27 -97t98 -40zM403 618q-95 0 -165 42t-101 104l131 76q37 -86 151 -86t132 118q10 58 -27 98t-100 40h-76
l23 137h67q68 0 114 33t55 83t-24 82q-34 32 -87 31q-84 0 -138 -69l-110 84q90 117 252 116q128 1 198 -77t47 -192t-133 -171q111 -82 86 -227q-47 -222 -295 -222zM209 0l1337 1495h193l-1338 -1495h-192zM1400 -12q-122 0 -197 80t-53 206t140 195q-68 81 -48 185
t95 163q76 59 186 59q109 0 179 -77q70 -78 53 -181q-27 -127 -121 -182q84 -80 67 -196t-98 -184t-203 -68z" />
    <glyph glyph-name="uni215D" unicode="&#x215d;" horiz-adv-x="1802" 
d="M1479 518q51 0 89 30t48 79q8 49 -23 84t-84 35t-89 -28t-45 -77t22 -86t82 -37zM1406 123q62 0 103 34t51 91t-26 97q-37 40 -97 40q-59 0 -103 -34t-53 -91t27 -97t98 -40zM401 618q-223 0 -278 187l139 59q27 -115 146 -114q61 0 107 38t60 106q14 69 -22 120
q-37 51 -109 51q-102 0 -161 -96l-119 51l141 475h479l-24 -137h-359l-61 -203q56 39 160 38t174 -92t45 -214t-108 -196t-210 -73zM205 0l1337 1495h193l-1338 -1495h-192zM1396 -12q-122 0 -197 80t-53 206t140 195q-68 81 -48 185t95 163q76 59 186 59q109 0 179 -77
q70 -78 53 -181q-27 -127 -121 -182q84 -80 67 -196t-98 -184t-203 -68z" />
    <glyph glyph-name="uni215E" unicode="&#x215e;" horiz-adv-x="1607" 
d="M1272 518q51 0 89 30t48 79q8 49 -23 84t-84 35t-89 -28t-45 -77t22 -86t82 -37zM1199 123q62 0 104 34q41 34 51 91t-27 97t-97 40t-104 -34t-52 -91q-9 -57 27 -97t98 -40zM172 631l449 727h-400l23 137h557l-21 -125l-444 -739h-164zM-2 0l1337 1495h193l-1338 -1495
h-192zM1189 -12q-122 0 -197 80t-53 206t140 195q-69 81 -49 185t96 163t186 59t180 -77q70 -78 52 -181q-27 -127 -121 -182q84 -80 67 -196t-98 -184t-203 -68z" />
    <glyph glyph-name="uni215F" unicode="&#x215f;" horiz-adv-x="1562" 
d="M211 1202h-12l26 152h6q78 0 123 43t54 98h139l-129 -727h168l-23 -137h-469l23 137h157l88 510q-49 -76 -151 -76zM141 0l1338 1495h192l-1337 -1495h-193z" />
    <glyph glyph-name="arrowleft" unicode="&#x2190;" horiz-adv-x="1835" 
d="M1729 829v-153h-1340q84 -60 172 -158t141 -190l-133 -88q-72 137 -186 266q-115 129 -240 199v96q125 71 240 199t186 266l133 -88q-53 -92 -142 -190t-171 -159h1340z" />
    <glyph glyph-name="arrowup" unicode="&#x2191;" horiz-adv-x="1835" 
d="M897 0v1292q-63 -82 -159 -169t-185 -138l-88 133q137 72 266 187t199 239h96q70 -126 199 -240t266 -186l-88 -133q-92 53 -190 141q-97 88 -156 170v-1296h-160z" />
    <glyph glyph-name="arrowright" unicode="&#x2192;" horiz-adv-x="1835" 
d="M143 676v153h1338q-195 147 -312 347l136 90q70 -137 184 -268q115 -130 240 -199v-94q-125 -70 -241 -198t-188 -267l-131 88q51 92 141 189t173 159h-1340z" />
    <glyph glyph-name="arrowdown" unicode="&#x2193;" horiz-adv-x="1835" 
d="M827 1495h160v-1298q59 82 157 171t191 142l88 -133q-137 -72 -266 -187t-199 -239h-96q-70 125 -198 239t-267 187l88 133q89 -51 185 -137t157 -168v1290z" />
    <glyph glyph-name="uni2196" unicode="&#x2196;" horiz-adv-x="1835" 
d="M315 649q47 145 55 313t-28 316l68 70q152 -39 318 -30t312 56l31 -155q-103 -29 -239 -35t-230 10l950 -948l-110 -109l-946 944q14 -94 8 -228t-33 -237z" />
    <glyph glyph-name="uni2197" unicode="&#x2197;" horiz-adv-x="1835" 
d="M430 135l-108 111l944 944q-242 -35 -465 27l33 155q145 -47 313 -55t315 29l70 -68q-39 -152 -30 -318t57 -313l-156 -31q-61 227 -25 469z" />
    <glyph glyph-name="uni2198" unicode="&#x2198;" horiz-adv-x="1835" 
d="M1462 156q-152 40 -318 30t-313 -57l-30 156q102 27 238 33t231 -9l-951 948l111 109l944 -946q-14 94 -8 228t35 239l155 -33q-47 -145 -55 -313t29 -316z" />
    <glyph glyph-name="uni2199" unicode="&#x2199;" horiz-adv-x="1835" 
d="M1038 131q-145 47 -313 55t-315 -28l-70 67q39 152 30 318t-57 313l156 31q27 -103 33 -239t-8 -230l948 950l108 -111l-946 -946q240 33 467 -24z" />
    <glyph glyph-name="partialdiff" unicode="&#x2202;" horiz-adv-x="1269" 
d="M608 121q139 0 251 94t138 236q37 170 -56 304t-284 134q-141 0 -251 -93t-140 -252q-32 -159 66 -291t276 -132zM588 -20q-228 0 -371 160t-115 386q28 228 182 364q156 136 356 136t318 -113q-135 266 -536 582h237q291 -254 419 -524t79 -527q-41 -213 -191 -339
q-150 -125 -378 -125z" />
    <glyph glyph-name="increment" unicode="&#x2206;" horiz-adv-x="1837" 
d="M1053 1194l-783 -1040h1203zM1704 0h-1745l1133 1520z" />
    <glyph glyph-name="product" unicode="&#x220f;" horiz-adv-x="1597" 
d="M240 1343l26 152h1409l-26 -152h-289l-236 -1343h-161l235 1343h-506l-235 -1343h-162l235 1343h-290z" />
    <glyph glyph-name="summation" unicode="&#x2211;" horiz-adv-x="1153" 
d="M-16 0l14 137l629 639l-379 586l28 133h971l-26 -149h-783l375 -592l-592 -602h817l-26 -152h-1028z" />
    <glyph glyph-name="minus" unicode="&#x2212;" horiz-adv-x="950" 
d="M117 680l22 137h758l-23 -137h-757z" />
    <glyph glyph-name="radical" unicode="&#x221a;" horiz-adv-x="1615" 
d="M113 870v154h295l299 -821l700 1292h186l-827 -1495h-156l-315 870h-182z" />
    <glyph glyph-name="infinity" unicode="&#x221e;" horiz-adv-x="1925" 
d="M1455 584q77 0 138 61t60 143t-61 144t-138 61q-78 0 -156 -51t-186 -149q110 -101 188 -155t155 -54zM552 580q77 0 156 52t191 156q-219 201 -342 201q-82 0 -143 -61q-62 -62 -62 -144t62 -143t138 -61zM555 438q-145 0 -247 102t-103 246q0 144 102 246t248 103
q109 0 215 -65t236 -179q127 115 232 179t214 65q144 -1 246 -103t102 -246t-101 -245q-101 -102 -247 -103q-106 0 -212 67t-236 187q-131 -122 -237 -188t-212 -66z" />
    <glyph glyph-name="integral" unicode="&#x222b;" horiz-adv-x="733" 
d="M-92 -236q117 0 164 44t69 178l195 1120q41 240 121 314t286 75h48l-27 -147h-33q-121 0 -165 -41t-72 -203l-197 -1118q-37 -213 -116 -291t-257 -78h-74l25 147h33z" />
    <glyph glyph-name="approxequal" unicode="&#x2248;" horiz-adv-x="950" 
d="M302 684q70 0 192 -38t192 -38q68 0 184 47l-26 -141q-92 -47 -176 -47t-208 38q-124 37 -188 37t-190 -55l24 142q126 55 196 55zM364 1024q76 0 193 -39t183 -39t192 51l-27 -141q-98 -51 -181 -51t-202 39q-118 38 -188 38t-191 -53l25 142q120 53 196 53z" />
    <glyph glyph-name="notequal" unicode="&#x2260;" horiz-adv-x="950" 
d="M145 842l25 137h405l80 139h117l-78 -139h234l-25 -137h-285l-110 -197h360l-24 -135h-410l-80 -143h-123l80 143h-225l25 135h276l111 197h-353z" />
    <glyph glyph-name="equivalence" unicode="&#x2261;" horiz-adv-x="950" 
d="M174 1008l25 137h757l-24 -137h-758zM55 344l25 135h758l-25 -135h-758zM115 676l24 137h758l-25 -137h-757z" />
    <glyph glyph-name="lessequal" unicode="&#x2264;" horiz-adv-x="950" 
d="M53 326l25 137h758l-25 -137h-758zM850 553l-705 291l25 137l807 285l-27 -146l-628 -211l555 -217z" />
    <glyph glyph-name="greaterequal" unicode="&#x2265;" horiz-adv-x="950" 
d="M53 326l25 137h758l-25 -137h-758zM92 553l27 147l626 211l-550 217l24 138l705 -291l-25 -135z" />
    <glyph glyph-name="squaremultiply" unicode="&#x22a0;" horiz-adv-x="1896" 
d="M694 348l-94 94l293 306l-297 311l94 94l295 -309l295 309l94 -94l-297 -311l289 -302l-94 -94l-287 299zM399 1341v-1187h1168v1187h-1168zM240 0v1495h1486v-1495h-1486z" />
    <glyph glyph-name="house" unicode="&#x2302;" horiz-adv-x="1789" 
d="M1585 0h-1380v874l690 662l690 -662v-874z" />
    <glyph glyph-name="blacksquare" unicode="&#x25a0;" horiz-adv-x="1896" 
d="M240 0v1495h1486v-1495h-1486z" />
    <glyph glyph-name="blacksquare" unicode="&#xe740;" horiz-adv-x="1896" 
d="M240 0v1495h1486v-1495h-1486z" />
    <glyph glyph-name="whitesquare" unicode="&#x25a1;" horiz-adv-x="1896" 
d="M399 1341v-1187h1168v1187h-1168zM240 0v1495h1486v-1495h-1486z" />
    <glyph glyph-name="blacksmallsquare" unicode="&#x25aa;" horiz-adv-x="1433" 
d="M205 0v1024h1024v-1024h-1024z" />
    <glyph glyph-name="whitesmallsquare" unicode="&#x25ab;" horiz-adv-x="1433" 
d="M365 870v-716h704v716h-704zM205 0v1024h1024v-1024h-1024z" />
    <glyph glyph-name="triagup" unicode="&#x25b2;" horiz-adv-x="1837" 
d="M1735 0h-1755l878 1520z" />
    <glyph glyph-name="triagrt" unicode="&#x25ba;" horiz-adv-x="1837" 
d="M287 -117v1755l1519 -876z" />
    <glyph glyph-name="triagdn" unicode="&#x25bc;" horiz-adv-x="1837" 
d="M184 1495h1755l-876 -1520z" />
    <glyph glyph-name="triaglf" unicode="&#x25c4;" horiz-adv-x="1837" 
d="M1632 1638v-1755l-1519 879z" />
    <glyph glyph-name="lozenge" unicode="&#x25ca;" horiz-adv-x="1726" 
d="M328 762l475 -574l657 549l-475 574zM786 -33l-671 807l889 754l671 -807z" />
    <glyph glyph-name="whitecircle" unicode="&#x25cb;" horiz-adv-x="1898" 
d="M981 131q256 0 430 180q174 181 174 437t-174 436t-430 180t-430 -180t-174 -436t174 -436t430 -181zM981 -20q-317 0 -543 225q-225 225 -225 543t225 542q224 226 542 226t544 -226t225 -542q0 -317 -225 -543q-226 -225 -543 -225z" />
    <glyph glyph-name="whitecircle" unicode="&#x25ef;" horiz-adv-x="1898" 
d="M981 131q256 0 430 180q174 181 174 437t-174 436t-430 180t-430 -180t-174 -436t174 -436t430 -181zM981 -20q-317 0 -543 225q-225 225 -225 543t225 542q224 226 542 226t544 -226t225 -542q0 -317 -225 -543q-226 -225 -543 -225z" />
    <glyph glyph-name="bullseye" unicode="&#x25ce;" horiz-adv-x="1898" 
d="M987 590q-63 0 -108 46t-45 112t45 112t108 45q63 0 109 -46q46 -45 45 -111q1 -66 -45 -112t-109 -46zM987 434q127 0 215 90t88 221t-88 221t-215 91q-127 0 -214 -90q-87 -89 -87 -221t87 -222t214 -90zM1446 745q0 -195 -133 -327t-325 -131q-192 0 -324 132
q-134 133 -134 327t134 326t324 132q192 0 325 -132t133 -327zM987 131q256 0 430 180q174 181 174 437t-174 436t-430 180t-430 -180t-174 -436t174 -436t430 -181zM987 -20q-317 0 -543 225q-225 225 -225 543t225 542q224 226 542 226t544 -226t225 -542
q0 -317 -225 -543q-226 -225 -543 -225z" />
    <glyph glyph-name="blackcircle" unicode="&#x25cf;" horiz-adv-x="1898" 
d="M981 -20q-317 0 -543 225q-225 225 -225 543t225 542q224 226 542 226t544 -226t225 -542q0 -317 -225 -543q-226 -225 -543 -225z" />
    <glyph glyph-name="uni25E2" unicode="&#x25e2;" horiz-adv-x="1837" 
d="M1870 1092l-1241 -1242l-455 1696z" />
    <glyph glyph-name="uni25E3" unicode="&#x25e3;" horiz-adv-x="1837" 
d="M1397 -150l-1241 1242l1695 454z" />
    <glyph glyph-name="uni25E4" unicode="&#x25e4;" horiz-adv-x="1837" 
d="M1714 -111l-1696 455l1242 1241z" />
    <glyph glyph-name="uni25E5" unicode="&#x25e5;" horiz-adv-x="1837" 
d="M1786 334l-1696 -453l457 1696z" />
    <glyph glyph-name="uni2605" unicode="&#x2605;" horiz-adv-x="1843" 
d="M1182 621l147 -447l-383 277l-381 -277l148 449l-381 276l469 -2l147 446l146 -446l471 -2z" />
    <glyph glyph-name="ballotboxwithx" unicode="&#x2612;" horiz-adv-x="1433" 
d="M541 231l-95 95l175 180l-183 176l94 94l181 -174l178 184l94 -94l-176 -182l184 -178l-94 -94l-184 176zM365 870v-716h704v716h-704zM205 0v1024h1024v-1024h-1024z" />
    <glyph glyph-name="uni263C" unicode="&#x263c;" horiz-adv-x="1900" 
d="M614 516l-231 -176l-61 94l272 115zM1343 983l232 176l61 -94l-272 -115zM778 365l-112 -273l-97 58l179 235zM1180 1135l112 272l97 -57l-179 -236zM1210 385l179 -235l-97 -58l-112 273zM748 1114l-179 236l97 57l112 -272zM1364 549l272 -113l-57 -96l-236 178z
M594 950l-272 113l57 96l235 -178zM1411 770l291 35v-111l-291 35v41zM547 729l-291 -35v111l291 -35v-41zM999 317l35 -290h-110l34 290h41zM958 1182l-34 291h110l-35 -291h-41zM623 748q0 145 105 250q104 106 250 106t252 -106t105 -250q0 -144 -105 -250
q-104 -106 -250 -106t-252 105q-105 106 -105 251z" />
    <glyph glyph-name="uni263E" unicode="&#x263e;" horiz-adv-x="1611" 
d="M1128 1262q-203 0 -346 -151t-143 -363t143 -364q143 -151 346 -151q66 0 146 25q-166 -117 -365 -117q-250 0 -428 178q-178 179 -178 429t178 428t428 178q199 0 365 -117q-95 25 -146 25z" />
    <glyph glyph-name="spade" unicode="&#x2660;" horiz-adv-x="1884" 
d="M1239 0h-530q55 102 81 154t68 190q43 137 43 250q-43 -121 -131 -200t-224 -79q-136 1 -240 97t-103 227q0 168 106 307t375 354l287 230h2l287 -230q262 -211 364 -350t102 -311q0 -131 -95 -226t-231 -95t-230 78q-93 79 -136 198q0 -225 167 -525q38 -67 38 -69z" />
    <glyph glyph-name="club" unicode="&#x2663;" horiz-adv-x="1884" 
d="M541 266q-152 0 -257 106t-106 257q0 150 106 256t257 106q39 0 86 -14q-39 84 -39 178q0 150 104 255q104 106 254 106t255 -106t106 -255q0 -92 -39 -180q45 16 94 16q150 0 255 -105t105 -256t-105 -257t-257 -107q-115 0 -203 66t-131 174q16 -138 78 -266
q61 -128 90 -180t33 -60h-531q164 307 187 508q-45 -110 -137 -176t-205 -66z" />
    <glyph glyph-name="heart" unicode="&#x2665;" horiz-adv-x="1884" 
d="M281 1118q0 168 108 283q109 115 265 115t259 -94q104 -94 121 -236q18 143 122 236q104 94 259 94q156 0 271 -116q114 -116 114 -282t-108 -354t-367 -477l-291 -322l-289 322q-256 285 -360 474t-104 357z" />
    <glyph glyph-name="diamond" unicode="&#x2666;" horiz-adv-x="1884" 
d="M326 799l669 821l670 -821l-670 -819z" />
    <glyph glyph-name="uni267B" unicode="&#x267b;" horiz-adv-x="1886" 
d="M1606 1006l133 -226q18 -29 18 -84q2 -92 -73 -167t-142 -74l-223 387zM913 72h-260q-47 0 -86 24q-81 48 -109 152t9 155h446v-331zM438 1143l129 229q23 37 66 60q88 45 186 18t131 -86l-223 -387zM831 1493h373q45 -2 69 -5q25 -4 55 -24t52 -61l54 -94l84 47
l-119 -322l-332 62l78 45l-137 241q-27 45 -71 72t-75 33l-31 4v2zM412 227h-4l-185 324q-20 39 -28 61q-24 64 20 136l55 94l-82 47l336 59l113 -319l-78 47q-135 -231 -139 -242q-25 -43 -27 -95t8 -81zM1364 72h-111v-97l-217 263l217 260v-95h279q51 0 97 26t67 50
l20 25l2 -4l-186 -322q-27 -39 -40 -56q-13 -18 -47 -34t-81 -16z" />
    <glyph glyph-name="uni267C" unicode="&#x267c;" horiz-adv-x="1886" 
d="M1184 492v71l-170 -201l170 -202v73h84q53 -1 80 19t51 63l145 250l-2 2q-53 -76 -143 -75h-215zM1559 784l-101 174l-225 -129l174 -301q53 0 111 58t57 133q0 36 -16 65zM528 354h2q-37 84 7 162l108 186l62 -36l-89 247l-260 -45l64 -37l-43 -73q-19 -31 -21 -61
t4 -44t23 -49zM711 233h202v259h-348q-29 -41 -6 -122t86 -118q35 -19 66 -19zM848 1335v-2q94 -8 137 -84l109 -186l-62 -37l258 -47l90 250l-63 -37l-43 74q-27 45 -56 57q-30 12 -81 12h-289zM653 1241l-100 -176l223 -129l172 299q-26 47 -102 67t-144 -14
q-39 -24 -49 -47zM1745 750q0 -320 -225 -544t-545 -224t-545 224t-225 544t225 545q224 227 544 227t546 -226t225 -546z" />
    <glyph glyph-name="uni267D" unicode="&#x267d;" horiz-adv-x="1886" 
d="M1180 233v-73l-170 202l170 201v-71h215q41 0 77 18t52 39l14 18l2 -2l-145 -250q-17 -29 -29 -43q-33 -37 -102 -39h-84zM1454 958l100 -174q16 -29 17 -65q1 -74 -57 -132t-111 -59l-174 301zM526 354h-2l-143 250q-16 35 -23 49q-6 14 -4 44t21 61l43 73l-64 37
l260 45l88 -247l-61 36l-109 -186q-18 -35 -20 -75t6 -64zM909 233h-202q-31 0 -66 19q-63 37 -86 118t6 122h348v-259zM844 1335h289q51 0 81 -12t56 -57l43 -74l63 37l-90 -250l-258 47l62 37l-109 186q-18 33 -53 55t-60 25l-24 4v2zM549 1065l100 176q10 23 49 47
q68 35 145 15t101 -68l-172 -299zM238 751q0 -305 215 -519t519 -214t517 214t213 519q0 304 -213 518t-517 214t-519 -214t-215 -518zM1741 750q0 -320 -225 -544t-545 -224t-545 224t-225 544t225 545q224 227 544 227t546 -226t225 -546z" />
    <glyph glyph-name="mediumwhitecircle" unicode="&#x26aa;" horiz-adv-x="1429" 
d="M715 123q157 0 265 114q108 113 108 275t-110 276q-108 114 -264 113q-156 0 -262 -114q-108 -113 -108 -275t108 -276t263 -113zM716 -20q-222 0 -377 154t-155 378q0 225 155 379q155 153 377 153t377 -154t155 -378q0 -225 -155 -379q-155 -153 -377 -153z" />
    <glyph glyph-name="mediumblackcircle" unicode="&#x26ab;" horiz-adv-x="1429" 
d="M715 -20q-221 0 -376 156t-155 376q0 221 155 377q155 155 376 155t376 -156t155 -376q0 -221 -155 -377q-155 -155 -376 -155z" />
    <glyph glyph-name="anglebracketleft" unicode="&#x3008;" horiz-adv-x="802" 
d="M334 -471l-215 1008l561 958h180l-577 -987l211 -979h-160z" />
    <glyph glyph-name="anglebracketright" unicode="&#x3009;" horiz-adv-x="802" 
d="M-68 -471l576 985l-209 981h160l215 -1008l-561 -958h-181z" />
    <glyph glyph-name="cordinal" unicode="&#xe181;" horiz-adv-x="796" 
d="M492 891q-137 0 -217 100q-79 99 -57 229t116 208t200 79q106 0 178 -45q71 -45 101 -119l-113 -53q-43 106 -161 107q-74 0 -132 -51q-59 -51 -73 -132q-14 -80 33 -144t135 -64q119 0 176 106l102 -55q-91 -166 -288 -166z" />
    <glyph glyph-name="p.smcp" unicode="&#xe200;" horiz-adv-x="1060" 
d="M588 1075h-189l-98 -557h219q133 0 220 75q88 75 108 195t-54 203q-75 84 -206 84zM608 1221q188 0 310 -129q122 -128 88 -316q-33 -188 -165 -297t-331 -108h-234l-65 -371h-158l213 1221h342z" />
    <glyph glyph-name="p.smcp" unicode="&#xf770;" horiz-adv-x="1060" 
d="M588 1075h-189l-98 -557h219q133 0 220 75q88 75 108 195t-54 203q-75 84 -206 84zM608 1221q188 0 310 -129q122 -128 88 -316q-33 -188 -165 -297t-331 -108h-234l-65 -371h-158l213 1221h342z" />
    <glyph glyph-name="a.smcp" unicode="&#xe201;" horiz-adv-x="1177" 
d="M688 1010l-315 -578h420zM-33 0l674 1221h160l229 -1221h-160l-51 281h-528l-154 -281h-170z" />
    <glyph glyph-name="a.smcp" unicode="&#xf761;" horiz-adv-x="1177" 
d="M688 1010l-315 -578h420zM-33 0l674 1221h160l229 -1221h-160l-51 281h-528l-154 -281h-170z" />
    <glyph glyph-name="b.smcp" unicode="&#xe202;" horiz-adv-x="1110" 
d="M674 1075h-275l-65 -381h303q99 0 161 54t74 134q12 81 -42 137t-156 56zM604 551h-297l-69 -401h317q100 0 172 48t88 140t-41 152t-170 61zM692 1221q164 -1 262 -103t72 -250q-23 -178 -186 -258q172 -96 137 -301q-27 -141 -143 -225t-293 -84h-488l213 1221h426z
" />
    <glyph glyph-name="b.smcp" unicode="&#xf762;" horiz-adv-x="1110" 
d="M674 1075h-275l-65 -381h303q99 0 161 54t74 134q12 81 -42 137t-156 56zM604 551h-297l-69 -401h317q100 0 172 48t88 140t-41 152t-170 61zM692 1221q164 -1 262 -103t72 -250q-23 -178 -186 -258q172 -96 137 -301q-27 -141 -143 -225t-293 -84h-488l213 1221h426z
" />
    <glyph glyph-name="c.smcp" unicode="&#xe203;" horiz-adv-x="1347" 
d="M1161 834q-105 260 -410 260q-163 0 -307 -127t-179 -324q-36 -197 81 -351t334 -155q133 0 246 69t178 189l147 -71q-88 -158 -238 -249t-349 -91q-287 0 -447 202t-111 486q41 242 234 406t446 163q178 0 322 -92t209 -244z" />
    <glyph glyph-name="c.smcp" unicode="&#xf763;" horiz-adv-x="1347" 
d="M1161 834q-105 260 -410 260q-163 0 -307 -127t-179 -324q-36 -197 81 -351t334 -155q133 0 246 69t178 189l147 -71q-88 -158 -238 -249t-349 -91q-287 0 -447 202t-111 486q41 242 234 406t446 163q178 0 322 -92t209 -244z" />
    <glyph glyph-name="d.smcp" unicode="&#xe204;" horiz-adv-x="1228" 
d="M586 1071h-189l-161 -921h251q182 0 322 122q139 123 174 319t-77 338t-320 142zM469 0h-416l213 1221h336q268 -1 427 -193t114 -450t-231 -418t-443 -160z" />
    <glyph glyph-name="d.smcp" unicode="&#xf764;" horiz-adv-x="1228" 
d="M586 1071h-189l-161 -921h251q182 0 322 122q139 123 174 319t-77 338t-320 142zM469 0h-416l213 1221h336q268 -1 427 -193t114 -450t-231 -418t-443 -160z" />
    <glyph glyph-name="e.smcp" unicode="&#xe205;" horiz-adv-x="995" 
d="M53 0l213 1221h740l-27 -152h-582l-65 -381h581l-28 -151h-580l-67 -383h579l-26 -154h-738z" />
    <glyph glyph-name="e.smcp" unicode="&#xf765;" horiz-adv-x="995" 
d="M53 0l213 1221h740l-27 -152h-582l-65 -381h581l-28 -151h-580l-67 -383h579l-26 -154h-738z" />
    <glyph glyph-name="f.smcp" unicode="&#xe206;" horiz-adv-x="933" 
d="M53 0l213 1221h692l-26 -152h-535l-65 -381h532l-26 -151h-533l-94 -537h-158z" />
    <glyph glyph-name="f.smcp" unicode="&#xf766;" horiz-adv-x="933" 
d="M53 0l213 1221h692l-26 -152h-535l-65 -381h532l-26 -151h-533l-94 -537h-158z" />
    <glyph glyph-name="g.smcp" unicode="&#xe207;" horiz-adv-x="1456" 
d="M686 -20q-272 0 -440 208t-119 488q43 242 228 404t433 161q182 0 318 -84t207 -223l-150 -76q-119 233 -383 234q-188 0 -326 -124t-173 -324t89 -358t345 -157q172 0 297 102t174 269h-486l29 151h653l-16 -94q-45 -258 -226 -418q-182 -159 -454 -159z" />
    <glyph glyph-name="g.smcp" unicode="&#xf767;" horiz-adv-x="1456" 
d="M686 -20q-272 0 -440 208t-119 488q43 242 228 404t433 161q182 0 318 -84t207 -223l-150 -76q-119 233 -383 234q-188 0 -326 -124t-173 -324t89 -358t345 -157q172 0 297 102t174 269h-486l29 151h653l-16 -94q-45 -258 -226 -418q-182 -159 -454 -159z" />
    <glyph glyph-name="h.smcp" unicode="&#xe208;" horiz-adv-x="1155" 
d="M53 0l213 1221h160l-94 -533h551l94 533h160l-215 -1221h-158l92 532h-551l-94 -532h-158z" />
    <glyph glyph-name="h.smcp" unicode="&#xf768;" horiz-adv-x="1155" 
d="M53 0l213 1221h160l-94 -533h551l94 533h160l-215 -1221h-158l92 532h-551l-94 -532h-158z" />
    <glyph glyph-name="i.smcp" unicode="&#xe209;" horiz-adv-x="464" 
d="M63 0l213 1221h158l-213 -1221h-158z" />
    <glyph glyph-name="i.smcp" unicode="&#xf769;" horiz-adv-x="464" 
d="M63 0l213 1221h158l-213 -1221h-158z" />
    <glyph glyph-name="j.smcp" unicode="&#xe20a;" horiz-adv-x="841" 
d="M322 -20q-140 0 -223 68t-111 183l155 48q41 -150 172 -150q82 0 136 56q53 56 67 145l156 891h160l-162 -918q-26 -151 -118 -237t-232 -86z" />
    <glyph glyph-name="j.smcp" unicode="&#xf76a;" horiz-adv-x="841" 
d="M322 -20q-140 0 -223 68t-111 183l155 48q41 -150 172 -150q82 0 136 56q53 56 67 145l156 891h160l-162 -918q-26 -151 -118 -237t-232 -86z" />
    <glyph glyph-name="k.smcp" unicode="&#xe20b;" horiz-adv-x="1128" 
d="M813 0l-285 635l-247 -236l-70 -399h-158l213 1221h160l-107 -598l633 598h209l-512 -486l332 -735h-168z" />
    <glyph glyph-name="k.smcp" unicode="&#xf76b;" horiz-adv-x="1128" 
d="M813 0l-285 635l-247 -236l-70 -399h-158l213 1221h160l-107 -598l633 598h209l-512 -486l332 -735h-168z" />
    <glyph glyph-name="l.smcp" unicode="&#xe20c;" horiz-adv-x="915" 
d="M53 0l213 1221h160l-188 -1067h518l-27 -154h-676z" />
    <glyph glyph-name="l.smcp" unicode="&#xf76c;" horiz-adv-x="915" 
d="M53 0l213 1221h160l-188 -1067h518l-27 -154h-676z" />
    <glyph glyph-name="m.smcp" unicode="&#xe20d;" horiz-adv-x="1482" 
d="M53 0l213 1221h144l342 -596l569 596h143l-215 -1221h-157l165 944l-538 -565l-338 588l-170 -967h-158z" />
    <glyph glyph-name="m.smcp" unicode="&#xf76d;" horiz-adv-x="1482" 
d="M53 0l213 1221h144l342 -596l569 596h143l-215 -1221h-157l165 944l-538 -565l-338 588l-170 -967h-158z" />
    <glyph glyph-name="n.smcp" unicode="&#xe20e;" horiz-adv-x="1247" 
d="M53 0l213 1221h172l465 -953l166 953h160l-215 -1221h-158l-475 973l-170 -973h-158z" />
    <glyph glyph-name="n.smcp" unicode="&#xf76e;" horiz-adv-x="1247" 
d="M53 0l213 1221h172l465 -953l166 953h160l-215 -1221h-158l-475 973l-170 -973h-158z" />
    <glyph glyph-name="o.smcp" unicode="&#xe20f;" horiz-adv-x="1458" 
d="M715 129q178 0 319 123q141 122 177 318t-87 359t-344 163q-184 0 -324 -123t-173 -307q-37 -217 88 -375t344 -158zM700 -20q-286 0 -454 206t-119 492q43 244 231 404t430 159q291 0 458 -214t121 -473t-231 -417q-186 -157 -436 -157z" />
    <glyph glyph-name="o.smcp" unicode="&#xf76f;" horiz-adv-x="1458" 
d="M715 129q178 0 319 123q141 122 177 318t-87 359t-344 163q-184 0 -324 -123t-173 -307q-37 -217 88 -375t344 -158zM700 -20q-286 0 -454 206t-119 492q43 244 231 404t430 159q291 0 458 -214t121 -473t-231 -417q-186 -157 -436 -157z" />
    <glyph glyph-name="q.smcp" unicode="&#xe211;" horiz-adv-x="1454" 
d="M700 -20q-286 0 -454 206t-119 492q43 244 231 404t430 159q193 0 337 -101q143 -101 205 -262q62 -162 30 -352t-195 -348q47 -25 107 -24h33l-27 -154h-33q-92 0 -162 40q-69 40 -109 95t-75 111q-85 136 -188 137h-35l29 154h32q110 0 172 -60q35 -33 53 -53t51 -74
q34 -54 44 -67q117 117 147 276q39 207 -82 370t-342 163q-184 0 -324 -123t-173 -307q-37 -217 88 -375t344 -158q92 0 170 33q57 -86 96 -121q-136 -61 -281 -61z" />
    <glyph glyph-name="q.smcp" unicode="&#xf771;" horiz-adv-x="1454" 
d="M700 -20q-286 0 -454 206t-119 492q43 244 231 404t430 159q193 0 337 -101q143 -101 205 -262q62 -162 30 -352t-195 -348q47 -25 107 -24h33l-27 -154h-33q-92 0 -162 40q-69 40 -109 95t-75 111q-85 136 -188 137h-35l29 154h32q110 0 172 -60q35 -33 53 -53t51 -74
q34 -54 44 -67q117 117 147 276q39 207 -82 370t-342 163q-184 0 -324 -123t-173 -307q-37 -217 88 -375t344 -158q92 0 170 33q57 -86 96 -121q-136 -61 -281 -61z" />
    <glyph glyph-name="r.smcp" unicode="&#xe212;" horiz-adv-x="1069" 
d="M627 1221q195 0 307 -125t82 -308q-25 -135 -131 -229t-273 -106q23 -133 100 -217t187 -84h23l-27 -152h-23q-208 0 -322 177t-106 411h101q133 0 211 62t98 168t-52 180t-200 77h-203l-188 -1075h-158l213 1221h361z" />
    <glyph glyph-name="r.smcp" unicode="&#xf772;" horiz-adv-x="1069" 
d="M627 1221q195 0 307 -125t82 -308q-25 -135 -131 -229t-273 -106q23 -133 100 -217t187 -84h23l-27 -152h-23q-208 0 -322 177t-106 411h101q133 0 211 62t98 168t-52 180t-200 77h-203l-188 -1075h-158l213 1221h361z" />
    <glyph glyph-name="s.smcp" unicode="&#xe213;" horiz-adv-x="956" 
d="M424 -20q-295 0 -432 229l145 96q96 -176 281 -176q98 0 164 51q66 52 77 116t-3 104q-21 66 -130 125q-34 19 -100 51t-109 58t-91 71q-94 88 -70 245q23 131 132 211q110 80 249 80q263 0 391 -197l-137 -90q-80 137 -252 138q-91 0 -149 -43t-68 -95t4 -87
q12 -34 26 -54q24 -35 119 -82l74 -37q123 -57 215 -144q91 -87 65 -240q-27 -154 -135 -242t-266 -88z" />
    <glyph glyph-name="s.smcp" unicode="&#xf773;" horiz-adv-x="956" 
d="M424 -20q-295 0 -432 229l145 96q96 -176 281 -176q98 0 164 51q66 52 77 116t-3 104q-21 66 -130 125q-34 19 -100 51t-109 58t-91 71q-94 88 -70 245q23 131 132 211q110 80 249 80q263 0 391 -197l-137 -90q-80 137 -252 138q-91 0 -149 -43t-68 -95t4 -87
q12 -34 26 -54q24 -35 119 -82l74 -37q123 -57 215 -144q91 -87 65 -240q-27 -154 -135 -242t-266 -88z" />
    <glyph glyph-name="t.smcp" unicode="&#xe214;" horiz-adv-x="999" 
d="M186 1069l25 152h825l-26 -152h-330l-186 -1069h-162l186 1069h-332z" />
    <glyph glyph-name="t.smcp" unicode="&#xf774;" horiz-adv-x="999" 
d="M186 1069l25 152h825l-26 -152h-330l-186 -1069h-162l186 1069h-332z" />
    <glyph glyph-name="u.smcp" unicode="&#xe215;" horiz-adv-x="1099" 
d="M480 -20q-190 0 -294 116t-69 318l141 807h160l-146 -824q-20 -117 39 -193t181 -75q122 0 196 67t92 173l152 852h160l-148 -842q-35 -188 -154 -294q-120 -105 -310 -105z" />
    <glyph glyph-name="u.smcp" unicode="&#xf775;" horiz-adv-x="1099" 
d="M480 -20q-190 0 -294 116t-69 318l141 807h160l-146 -824q-20 -117 39 -193t181 -75q122 0 196 67t92 173l152 852h160l-148 -842q-35 -188 -154 -294q-120 -105 -310 -105z" />
    <glyph glyph-name="v.smcp" unicode="&#xe216;" horiz-adv-x="1122" 
d="M387 0l-207 1221h160l162 -981l514 981h174l-647 -1221h-156z" />
    <glyph glyph-name="v.smcp" unicode="&#xf776;" horiz-adv-x="1122" 
d="M387 0l-207 1221h160l162 -981l514 981h174l-647 -1221h-156z" />
    <glyph glyph-name="w.smcp" unicode="&#xe217;" horiz-adv-x="1767" 
d="M322 0l-138 1221h158l104 -967l474 967h159l142 -967l440 967h168l-569 -1221h-158l-141 975l-478 -975h-161z" />
    <glyph glyph-name="w.smcp" unicode="&#xf777;" horiz-adv-x="1767" 
d="M322 0l-138 1221h158l104 -967l474 967h159l142 -967l440 967h168l-569 -1221h-158l-141 975l-478 -975h-161z" />
    <glyph glyph-name="x.smcp" unicode="&#xe218;" horiz-adv-x="1069" 
d="M770 0l-240 498l-403 -498h-186l520 637l-281 584h170l221 -459l379 459h189l-498 -596l299 -625h-170z" />
    <glyph glyph-name="x.smcp" unicode="&#xf778;" horiz-adv-x="1069" 
d="M770 0l-240 498l-403 -498h-186l520 637l-281 584h170l221 -459l379 459h189l-498 -596l299 -625h-170z" />
    <glyph glyph-name="y.smcp" unicode="&#xe219;" horiz-adv-x="1064" 
d="M346 0l105 592l-273 629h164l213 -496l395 496h185l-527 -650l-100 -571h-162z" />
    <glyph glyph-name="y.smcp" unicode="&#xf779;" horiz-adv-x="1064" 
d="M346 0l105 592l-273 629h164l213 -496l395 496h185l-527 -650l-100 -571h-162z" />
    <glyph glyph-name="z.smcp" unicode="&#xe21a;" horiz-adv-x="983" 
d="M-12 0l26 147l766 922h-583l22 152h787l-27 -146l-768 -925h608l-26 -150h-805z" />
    <glyph glyph-name="z.smcp" unicode="&#xf77a;" horiz-adv-x="983" 
d="M-12 0l26 147l766 922h-583l22 152h787l-27 -146l-768 -925h608l-26 -150h-805z" />
    <glyph glyph-name="anocross.smcp" unicode="&#xe220;" horiz-adv-x="1177" 
d="M-33 0l674 1221h160l229 -1221h-160l-182 1010l-551 -1010h-170z" />
    <glyph glyph-name="aacute.smcp" unicode="&#xe221;" horiz-adv-x="1177" 
d="M657 1339l297 332h205l-354 -332h-148zM688 1010l-315 -578h420zM-33 0l674 1221h160l229 -1221h-160l-51 281h-528l-154 -281h-170z" />
    <glyph glyph-name="aacute.smcp" unicode="&#xf7e1;" horiz-adv-x="1177" 
d="M657 1339l297 332h205l-354 -332h-148zM688 1010l-315 -578h420zM-33 0l674 1221h160l229 -1221h-160l-51 281h-528l-154 -281h-170z" />
    <glyph glyph-name="agrave.smcp" unicode="&#xe222;" horiz-adv-x="1177" 
d="M664 1339l-238 332h203l180 -332h-145zM688 1010l-315 -578h420zM-33 0l674 1221h160l229 -1221h-160l-51 281h-528l-154 -281h-170z" />
    <glyph glyph-name="agrave.smcp" unicode="&#xf7e0;" horiz-adv-x="1177" 
d="M664 1339l-238 332h203l180 -332h-145zM688 1010l-315 -578h420zM-33 0l674 1221h160l229 -1221h-160l-51 281h-528l-154 -281h-170z" />
    <glyph glyph-name="acircumflex.smcp" unicode="&#xe223;" horiz-adv-x="1177" 
d="M416 1335l301 332h135l186 -332h-164l-110 205l-182 -205h-166zM688 1010l-315 -578h420zM-33 0l674 1221h160l229 -1221h-160l-51 281h-528l-154 -281h-170z" />
    <glyph glyph-name="acircumflex.smcp" unicode="&#xf7e2;" horiz-adv-x="1177" 
d="M416 1335l301 332h135l186 -332h-164l-110 205l-182 -205h-166zM688 1010l-315 -578h420zM-33 0l674 1221h160l229 -1221h-160l-51 281h-528l-154 -281h-170z" />
    <glyph glyph-name="adieresis.smcp" unicode="&#xe224;" horiz-adv-x="1177" 
d="M526 1354l49 284h160l-51 -284h-158zM799 1354l51 284h158l-50 -284h-159zM688 1010l-315 -578h420zM-33 0l674 1221h160l229 -1221h-160l-51 281h-528l-154 -281h-170z" />
    <glyph glyph-name="adieresis.smcp" unicode="&#xf7e4;" horiz-adv-x="1177" 
d="M526 1354l49 284h160l-51 -284h-158zM799 1354l51 284h158l-50 -284h-159zM688 1010l-315 -578h420zM-33 0l674 1221h160l229 -1221h-160l-51 281h-528l-154 -281h-170z" />
    <glyph glyph-name="atilde.smcp" unicode="&#xe225;" horiz-adv-x="1177" 
d="M920 1475q72 0 94 104h127q-23 -115 -86 -181t-151 -67q-88 0 -185 68q-70 45 -109 45q-72 0 -90 -105h-127q20 113 85 181t149 68t169 -57q85 -56 124 -56zM688 1010l-315 -578h420zM-33 0l674 1221h160l229 -1221h-160l-51 281h-528l-154 -281h-170z" />
    <glyph glyph-name="atilde.smcp" unicode="&#xf7e3;" horiz-adv-x="1177" 
d="M920 1475q72 0 94 104h127q-23 -115 -86 -181t-151 -67q-88 0 -185 68q-70 45 -109 45q-72 0 -90 -105h-127q20 113 85 181t149 68t169 -57q85 -56 124 -56zM688 1010l-315 -578h420zM-33 0l674 1221h160l229 -1221h-160l-51 281h-528l-154 -281h-170z" />
    <glyph glyph-name="aring.smcp" unicode="&#xe226;" horiz-adv-x="1177" 
d="M751 1436q-41 0 -71 -25t-40 -65t14 -76q24 -35 67 -35t74 26q31 25 40 65t-17 75t-67 35zM688 1010l-315 -578h420zM768 1554q92 0 151 -77q58 -78 28 -187t-130 -155l213 -1135h-160l-51 281h-528l-154 -281h-170l633 1147q-51 37 -73 97t-1 134t85 125q65 51 157 51z
" />
    <glyph glyph-name="aring.smcp" unicode="&#xf7e5;" horiz-adv-x="1177" 
d="M751 1436q-41 0 -71 -25t-40 -65t14 -76q24 -35 67 -35t74 26q31 25 40 65t-17 75t-67 35zM688 1010l-315 -578h420zM768 1554q92 0 151 -77q58 -78 28 -187t-130 -155l213 -1135h-160l-51 281h-528l-154 -281h-170l633 1147q-51 37 -73 97t-1 134t85 125q65 51 157 51z
" />
    <glyph glyph-name="amacron.smcp" unicode="&#xe228;" horiz-adv-x="1177" 
d="M471 1339l27 138h540l-26 -138h-541zM688 1010l-315 -578h420zM-33 0l674 1221h160l229 -1221h-160l-51 281h-528l-154 -281h-170z" />
    <glyph glyph-name="amacron.smcp" unicode="&#xf641;" horiz-adv-x="1177" 
d="M471 1339l27 138h540l-26 -138h-541zM688 1010l-315 -578h420zM-33 0l674 1221h160l229 -1221h-160l-51 281h-528l-154 -281h-170z" />
    <glyph glyph-name="abreve.smcp" unicode="&#xe229;" horiz-adv-x="1177" 
d="M735 1325q-155 0 -227 95t-45 239h137q-18 -97 24 -155t134 -58t151 57t78 156h137q-27 -143 -130 -239t-259 -95zM688 1010l-315 -578h420zM-33 0l674 1221h160l229 -1221h-160l-51 281h-528l-154 -281h-170z" />
    <glyph glyph-name="abreve.smcp" unicode="&#xf640;" horiz-adv-x="1177" 
d="M735 1325q-155 0 -227 95t-45 239h137q-18 -97 24 -155t134 -58t151 57t78 156h137q-27 -143 -130 -239t-259 -95zM688 1010l-315 -578h420zM-33 0l674 1221h160l229 -1221h-160l-51 281h-528l-154 -281h-170z" />
    <glyph glyph-name="aringacute.smcp" unicode="&#xe22d;" horiz-adv-x="1177" 
d="M751 1436q-41 0 -71 -25t-40 -65t14 -76q24 -35 67 -35t74 26q31 25 40 65t-17 75t-67 35zM698 1626l297 332h205l-354 -332h-148zM688 1010l-315 -578h420zM768 1554q92 0 151 -77q58 -78 28 -187t-130 -155l213 -1135h-160l-51 281h-528l-154 -281h-170l633 1147
q-51 37 -73 97t-1 134t85 125q65 51 157 51z" />
    <glyph glyph-name="aringacute.smcp" unicode="&#xf625;" horiz-adv-x="1177" 
d="M751 1436q-41 0 -71 -25t-40 -65t14 -76q24 -35 67 -35t74 26q31 25 40 65t-17 75t-67 35zM698 1626l297 332h205l-354 -332h-148zM688 1010l-315 -578h420zM768 1554q92 0 151 -77q58 -78 28 -187t-130 -155l213 -1135h-160l-51 281h-528l-154 -281h-170l633 1147
q-51 37 -73 97t-1 134t85 125q65 51 157 51z" />
    <glyph glyph-name="aogonek.smcp" unicode="&#xe22f;" horiz-adv-x="1177" 
d="M688 1010l-315 -578h420zM835 -446q-133 0 -201 64t-54 147q14 82 77 145t205 133l-43 238h-528l-154 -281h-170l674 1221h160l229 -1221q-172 -94 -227 -138t-63 -87t20 -67q29 -24 78 -23q76 0 168 69l110 -86q-148 -114 -281 -114z" />
    <glyph glyph-name="aogonek.smcp" unicode="&#xf642;" horiz-adv-x="1177" 
d="M688 1010l-315 -578h420zM835 -446q-133 0 -201 64t-54 147q14 82 77 145t205 133l-43 238h-528l-154 -281h-170l674 1221h160l229 -1221q-172 -94 -227 -138t-63 -87t20 -67q29 -24 78 -23q76 0 168 69l110 -86q-148 -114 -281 -114z" />
    <glyph glyph-name="edieresis.smcp" unicode="&#xe230;" horiz-adv-x="993" 
d="M725 1354l51 284h158l-49 -284h-160zM453 1354l49 284h160l-52 -284h-157zM51 0l213 1221h740l-27 -152h-582l-65 -381h581l-28 -151h-580l-67 -383h579l-27 -154h-737z" />
    <glyph glyph-name="edieresis.smcp" unicode="&#xf7eb;" horiz-adv-x="993" 
d="M725 1354l51 284h158l-49 -284h-160zM453 1354l49 284h160l-52 -284h-157zM51 0l213 1221h740l-27 -152h-582l-65 -381h581l-28 -151h-580l-67 -383h579l-27 -154h-737z" />
    <glyph glyph-name="ae.smcp" unicode="&#xe231;" horiz-adv-x="1712" 
d="M813 971l-367 -547h375zM-20 0l815 1221h915l-29 -152h-710l6 -381h639l-27 -151h-610l4 -383h537l-25 -154h-668l-4 276h-477l-184 -276h-182z" />
    <glyph glyph-name="ae.smcp" unicode="&#xf7e6;" horiz-adv-x="1712" 
d="M813 971l-367 -547h375zM-20 0l815 1221h915l-29 -152h-710l6 -381h639l-27 -151h-610l4 -383h537l-25 -154h-668l-4 276h-477l-184 -276h-182z" />
    <glyph glyph-name="aeacute.smcp" unicode="&#xe232;" horiz-adv-x="1712" 
d="M1040 1339l297 332h205l-354 -332h-148zM813 971l-367 -547h375zM-20 0l815 1221h915l-29 -152h-710l6 -381h639l-27 -151h-610l4 -383h537l-25 -154h-668l-4 276h-477l-184 -276h-182z" />
    <glyph glyph-name="aeacute.smcp" unicode="&#xf624;" horiz-adv-x="1712" 
d="M1040 1339l297 332h205l-354 -332h-148zM813 971l-367 -547h375zM-20 0l815 1221h915l-29 -152h-710l6 -381h639l-27 -151h-610l4 -383h537l-25 -154h-668l-4 276h-477l-184 -276h-182z" />
    <glyph glyph-name="cacute.smcp" unicode="&#xe234;" horiz-adv-x="1347" 
d="M1161 834q-105 260 -410 260q-163 0 -307 -127t-179 -324q-36 -197 81 -351t334 -155q133 0 246 69t178 189l147 -71q-88 -158 -238 -249t-349 -91q-287 0 -447 202t-111 486q41 242 234 406t446 163q178 0 322 -92t209 -244zM750 1339l297 332h204l-354 -332h-147z" />
    <glyph glyph-name="cacute.smcp" unicode="&#xf643;" horiz-adv-x="1347" 
d="M1161 834q-105 260 -410 260q-163 0 -307 -127t-179 -324q-36 -197 81 -351t334 -155q133 0 246 69t178 189l147 -71q-88 -158 -238 -249t-349 -91q-287 0 -447 202t-111 486q41 242 234 406t446 163q178 0 322 -92t209 -244zM750 1339l297 332h204l-354 -332h-147z" />
    <glyph glyph-name="ccircumflex.smcp" unicode="&#xe235;" horiz-adv-x="1347" 
d="M520 1333l301 332h135l187 -332h-164l-111 205l-182 -205h-166zM1161 834q-105 260 -410 260q-163 0 -307 -127t-179 -324q-36 -197 81 -351t334 -155q133 0 246 69t178 189l147 -71q-88 -158 -238 -249t-349 -91q-287 0 -447 202t-111 486q41 242 234 406t446 163
q178 0 322 -92t209 -244z" />
    <glyph glyph-name="ccircumflex.smcp" unicode="&#xf628;" horiz-adv-x="1347" 
d="M520 1333l301 332h135l187 -332h-164l-111 205l-182 -205h-166zM1161 834q-105 260 -410 260q-163 0 -307 -127t-179 -324q-36 -197 81 -351t334 -155q133 0 246 69t178 189l147 -71q-88 -158 -238 -249t-349 -91q-287 0 -447 202t-111 486q41 242 234 406t446 163
q178 0 322 -92t209 -244z" />
    <glyph glyph-name="ccaron.smcp" unicode="&#xe236;" horiz-adv-x="1347" 
d="M752 1339l-187 332h164l111 -205l182 205h166l-303 -332h-133zM1161 834q-105 260 -410 260q-163 0 -307 -127t-179 -324q-36 -197 81 -351t334 -155q133 0 246 69t178 189l147 -71q-88 -158 -238 -249t-349 -91q-287 0 -447 202t-111 486q41 242 234 406t446 163
q178 0 322 -92t209 -244z" />
    <glyph glyph-name="ccaron.smcp" unicode="&#xf644;" horiz-adv-x="1347" 
d="M752 1339l-187 332h164l111 -205l182 205h166l-303 -332h-133zM1161 834q-105 260 -410 260q-163 0 -307 -127t-179 -324q-36 -197 81 -351t334 -155q133 0 246 69t178 189l147 -71q-88 -158 -238 -249t-349 -91q-287 0 -447 202t-111 486q41 242 234 406t446 163
q178 0 322 -92t209 -244z" />
    <glyph glyph-name="cdotaccent.smcp" unicode="&#xe237;" horiz-adv-x="1347" 
d="M741 1354l50 284h157l-49 -284h-158zM1161 834q-105 260 -410 260q-163 0 -307 -127t-179 -324q-36 -197 81 -351t334 -155q133 0 246 69t178 189l147 -71q-88 -158 -238 -249t-349 -91q-287 0 -447 202t-111 486q41 242 234 406t446 163q178 0 322 -92t209 -244z" />
    <glyph glyph-name="cdotaccent.smcp" unicode="&#xf629;" horiz-adv-x="1347" 
d="M741 1354l50 284h157l-49 -284h-158zM1161 834q-105 260 -410 260q-163 0 -307 -127t-179 -324q-36 -197 81 -351t334 -155q133 0 246 69t178 189l147 -71q-88 -158 -238 -249t-349 -91q-287 0 -447 202t-111 486q41 242 234 406t446 163q178 0 322 -92t209 -244z" />
    <glyph glyph-name="ccedilla.smcp" unicode="&#xe238;" horiz-adv-x="1347" 
d="M1161 834q-105 260 -410 260q-163 0 -307 -127t-179 -324q-36 -197 81 -351t334 -155q133 0 246 69t178 189l147 -71q-86 -156 -234 -247t-343 -93l-19 -97q119 -6 172 -56t40 -130t-94 -130t-198 -50q-201 0 -307 121l135 75q78 -78 179 -77q129 0 143 77q16 78 -135 78
h-84l35 201q-233 43 -356 234q-122 192 -80 438t235 410t446 163q178 0 322 -92t209 -244z" />
    <glyph glyph-name="ccedilla.smcp" unicode="&#xf7e7;" horiz-adv-x="1347" 
d="M1161 834q-105 260 -410 260q-163 0 -307 -127t-179 -324q-36 -197 81 -351t334 -155q133 0 246 69t178 189l147 -71q-86 -156 -234 -247t-343 -93l-19 -97q119 -6 172 -56t40 -130t-94 -130t-198 -50q-201 0 -307 121l135 75q78 -78 179 -77q129 0 143 77q16 78 -135 78
h-84l35 201q-233 43 -356 234q-122 192 -80 438t235 410t446 163q178 0 322 -92t209 -244z" />
    <glyph glyph-name="dcaron.smcp" unicode="&#xe239;" horiz-adv-x="1228" 
d="M578 1354l-187 332h164l111 -205l182 205h166l-303 -332h-133zM586 1071h-189l-161 -921h251q182 0 322 122q139 123 174 319t-77 338t-320 142zM469 0h-416l213 1221h336q268 -1 427 -193t114 -450t-231 -418t-443 -160z" />
    <glyph glyph-name="dcaron.smcp" unicode="&#xf645;" horiz-adv-x="1228" 
d="M578 1354l-187 332h164l111 -205l182 205h166l-303 -332h-133zM586 1071h-189l-161 -921h251q182 0 322 122q139 123 174 319t-77 338t-320 142zM469 0h-416l213 1221h336q268 -1 427 -193t114 -450t-231 -418t-443 -160z" />
    <glyph glyph-name="dcroat.smcp" unicode="&#xe23c;" horiz-adv-x="1236" 
d="M496 150q182 0 321 122t174 319q35 196 -78 338t-319 142h-188l-70 -397h332l-25 -135h-330l-69 -389h252zM477 0h-416l95 539h-140l25 135h137l96 547h336q268 -1 427 -193t114 -450t-231 -418t-443 -160z" />
    <glyph glyph-name="dcroat.smcp" unicode="&#xf646;" horiz-adv-x="1236" 
d="M496 150q182 0 321 122t174 319q35 196 -78 338t-319 142h-188l-70 -397h332l-25 -135h-330l-69 -389h252zM477 0h-416l95 539h-140l25 135h137l96 547h336q268 -1 427 -193t114 -450t-231 -418t-443 -160z" />
    <glyph glyph-name="eacute.smcp" unicode="&#xe23d;" horiz-adv-x="995" 
d="M530 1339l297 332h205l-354 -332h-148zM53 0l213 1221h740l-27 -152h-582l-65 -381h581l-28 -151h-580l-67 -383h579l-26 -154h-738z" />
    <glyph glyph-name="eacute.smcp" unicode="&#xf7e9;" horiz-adv-x="995" 
d="M530 1339l297 332h205l-354 -332h-148zM53 0l213 1221h740l-27 -152h-582l-65 -381h581l-28 -151h-580l-67 -383h579l-26 -154h-738z" />
    <glyph glyph-name="egrave.smcp" unicode="&#xe23e;" horiz-adv-x="995" 
d="M600 1339l-238 332h203l180 -332h-145zM53 0l213 1221h740l-27 -152h-582l-65 -381h581l-28 -151h-580l-67 -383h579l-26 -154h-738z" />
    <glyph glyph-name="egrave.smcp" unicode="&#xf7e8;" horiz-adv-x="995" 
d="M600 1339l-238 332h203l180 -332h-145zM53 0l213 1221h740l-27 -152h-582l-65 -381h581l-28 -151h-580l-67 -383h579l-26 -154h-738z" />
    <glyph glyph-name="ecircumflex.smcp" unicode="&#xe23f;" horiz-adv-x="995" 
d="M336 1339l301 332h135l186 -332h-163l-111 205l-182 -205h-166zM53 0l213 1221h740l-27 -152h-582l-65 -381h581l-28 -151h-580l-67 -383h579l-26 -154h-738z" />
    <glyph glyph-name="ecircumflex.smcp" unicode="&#xf7ea;" horiz-adv-x="995" 
d="M336 1339l301 332h135l186 -332h-163l-111 205l-182 -205h-166zM53 0l213 1221h740l-27 -152h-582l-65 -381h581l-28 -151h-580l-67 -383h579l-26 -154h-738z" />
    <glyph glyph-name="gcommaaccent.smcp" unicode="&#xe240;" horiz-adv-x="1456" 
d="M446 -537l160 418h144l-201 -418h-103zM686 -20q-272 0 -440 208t-119 488q43 242 228 404t433 161q182 0 318 -84t207 -223l-150 -76q-119 233 -383 234q-188 0 -326 -124t-173 -324t89 -358t345 -157q172 0 297 102t174 269h-486l29 151h653l-16 -94
q-45 -258 -226 -418q-182 -159 -454 -159z" />
    <glyph glyph-name="gcommaaccent.smcp" unicode="&#xf64c;" horiz-adv-x="1456" 
d="M446 -537l160 418h144l-201 -418h-103zM686 -20q-272 0 -440 208t-119 488q43 242 228 404t433 161q182 0 318 -84t207 -223l-150 -76q-119 233 -383 234q-188 0 -326 -124t-173 -324t89 -358t345 -157q172 0 297 102t174 269h-486l29 151h653l-16 -94
q-45 -258 -226 -418q-182 -159 -454 -159z" />
    <glyph glyph-name="ecaron.smcp" unicode="&#xe241;" horiz-adv-x="995" 
d="M588 1339l-187 332h164l111 -205l182 205h166l-303 -332h-133zM53 0l213 1221h740l-27 -152h-582l-65 -381h581l-28 -151h-580l-67 -383h579l-26 -154h-738z" />
    <glyph glyph-name="ecaron.smcp" unicode="&#xf647;" horiz-adv-x="995" 
d="M588 1339l-187 332h164l111 -205l182 205h166l-303 -332h-133zM53 0l213 1221h740l-27 -152h-582l-65 -381h581l-28 -151h-580l-67 -383h579l-26 -154h-738z" />
    <glyph glyph-name="emacron.smcp" unicode="&#xe242;" horiz-adv-x="995" 
d="M387 1339l27 138h540l-26 -138h-541zM53 0l213 1221h740l-27 -152h-582l-65 -381h581l-28 -151h-580l-67 -383h579l-26 -154h-738z" />
    <glyph glyph-name="emacron.smcp" unicode="&#xf649;" horiz-adv-x="995" 
d="M387 1339l27 138h540l-26 -138h-541zM53 0l213 1221h740l-27 -152h-582l-65 -381h581l-28 -151h-580l-67 -383h579l-26 -154h-738z" />
    <glyph glyph-name="ebreve.smcp" unicode="&#xe243;" horiz-adv-x="995" 
d="M653 1325q-155 0 -227 95t-45 239h137q-18 -97 24 -155t134 -58t151 57t78 156h137q-27 -143 -130 -239t-259 -95zM53 0l213 1221h740l-27 -152h-582l-65 -381h581l-28 -151h-580l-67 -383h579l-26 -154h-738z" />
    <glyph glyph-name="ebreve.smcp" unicode="&#xf62a;" horiz-adv-x="995" 
d="M653 1325q-155 0 -227 95t-45 239h137q-18 -97 24 -155t134 -58t151 57t78 156h137q-27 -143 -130 -239t-259 -95zM53 0l213 1221h740l-27 -152h-582l-65 -381h581l-28 -151h-580l-67 -383h579l-26 -154h-738z" />
    <glyph glyph-name="edotaccent.smcp" unicode="&#xe246;" horiz-adv-x="995" 
d="M592 1354l49 284h158l-49 -284h-158zM53 0l213 1221h740l-27 -152h-582l-65 -381h581l-28 -151h-580l-67 -383h579l-26 -154h-738z" />
    <glyph glyph-name="edotaccent.smcp" unicode="&#xf648;" horiz-adv-x="995" 
d="M592 1354l49 284h158l-49 -284h-158zM53 0l213 1221h740l-27 -152h-582l-65 -381h581l-28 -151h-580l-67 -383h579l-26 -154h-738z" />
    <glyph glyph-name="eogonek.smcp" unicode="&#xe249;" horiz-adv-x="995" 
d="M53 0l213 1221h740l-27 -152h-582l-65 -381h581l-28 -151h-580l-67 -383h579l-26 -154q-171 -94 -227 -138t-64 -87t20 -67t78 -23q76 0 168 69l111 -86q-147 -114 -281 -114t-202 64q-69 64 -52 153q23 129 201 229h-490z" />
    <glyph glyph-name="eogonek.smcp" unicode="&#xf64a;" horiz-adv-x="995" 
d="M53 0l213 1221h740l-27 -152h-582l-65 -381h581l-28 -151h-580l-67 -383h579l-26 -154q-171 -94 -227 -138t-64 -87t20 -67t78 -23q76 0 168 69l111 -86q-147 -114 -281 -114t-202 64q-69 64 -52 153q23 129 201 229h-490z" />
    <glyph glyph-name="gcircumflex.smcp" unicode="&#xe24b;" horiz-adv-x="1456" 
d="M496 1339l301 332h135l186 -332h-164l-110 205l-182 -205h-166zM686 -20q-272 0 -440 208t-119 488q43 242 228 404t433 161q182 0 318 -84t207 -223l-150 -76q-119 233 -383 234q-188 0 -326 -124t-173 -324t89 -358t345 -157q172 0 297 102t174 269h-486l29 151h653
l-16 -94q-45 -258 -226 -418q-182 -159 -454 -159z" />
    <glyph glyph-name="gcircumflex.smcp" unicode="&#xf62c;" horiz-adv-x="1456" 
d="M496 1339l301 332h135l186 -332h-164l-110 205l-182 -205h-166zM686 -20q-272 0 -440 208t-119 488q43 242 228 404t433 161q182 0 318 -84t207 -223l-150 -76q-119 233 -383 234q-188 0 -326 -124t-173 -324t89 -358t345 -157q172 0 297 102t174 269h-486l29 151h653
l-16 -94q-45 -258 -226 -418q-182 -159 -454 -159z" />
    <glyph glyph-name="gbreve.smcp" unicode="&#xe24e;" horiz-adv-x="1456" 
d="M827 1341q-155 -1 -227 95t-45 239h137q-18 -96 24 -154t134 -61q92 2 151 60t78 155h138q-27 -143 -131 -239t-259 -95zM686 -20q-272 0 -440 208t-119 488q43 242 228 404t433 161q182 0 318 -84t207 -223l-150 -76q-119 233 -383 234q-188 0 -326 -124t-173 -324
t89 -358t345 -157q172 0 297 102t174 269h-486l29 151h653l-16 -94q-45 -258 -226 -418q-182 -159 -454 -159z" />
    <glyph glyph-name="gbreve.smcp" unicode="&#xf64b;" horiz-adv-x="1456" 
d="M827 1341q-155 -1 -227 95t-45 239h137q-18 -96 24 -154t134 -61q92 2 151 60t78 155h138q-27 -143 -131 -239t-259 -95zM686 -20q-272 0 -440 208t-119 488q43 242 228 404t433 161q182 0 318 -84t207 -223l-150 -76q-119 233 -383 234q-188 0 -326 -124t-173 -324
t89 -358t345 -157q172 0 297 102t174 269h-486l29 151h653l-16 -94q-45 -258 -226 -418q-182 -159 -454 -159z" />
    <glyph glyph-name="gdotaccent.smcp" unicode="&#xe24f;" horiz-adv-x="1456" 
d="M752 1354l49 284h157l-49 -284h-157zM686 -20q-272 0 -440 208t-119 488q43 242 228 404t433 161q182 0 318 -84t207 -223l-150 -76q-119 233 -383 234q-188 0 -326 -124t-173 -324t89 -358t345 -157q172 0 297 102t174 269h-486l29 151h653l-16 -94q-45 -258 -226 -418
q-182 -159 -454 -159z" />
    <glyph glyph-name="gdotaccent.smcp" unicode="&#xf62d;" horiz-adv-x="1456" 
d="M752 1354l49 284h157l-49 -284h-157zM686 -20q-272 0 -440 208t-119 488q43 242 228 404t433 161q182 0 318 -84t207 -223l-150 -76q-119 233 -383 234q-188 0 -326 -124t-173 -324t89 -358t345 -157q172 0 297 102t174 269h-486l29 151h653l-16 -94q-45 -258 -226 -418
q-182 -159 -454 -159z" />
    <glyph glyph-name="hcircumflex.smcp" unicode="&#xe253;" horiz-adv-x="1155" 
d="M406 1339l301 332h135l186 -332h-164l-110 205l-183 -205h-165zM53 0l213 1221h160l-94 -533h551l94 533h160l-215 -1221h-158l92 532h-551l-94 -532h-158z" />
    <glyph glyph-name="hcircumflex.smcp" unicode="&#xf62f;" horiz-adv-x="1155" 
d="M406 1339l301 332h135l186 -332h-164l-110 205l-183 -205h-165zM53 0l213 1221h160l-94 -533h551l94 533h160l-215 -1221h-158l92 532h-551l-94 -532h-158z" />
    <glyph glyph-name="hbar.smcp" unicode="&#xe257;" horiz-adv-x="1216" 
d="M393 866l-31 -178h551l31 178h-551zM115 866l28 154h119l35 201h160l-37 -201h551l37 201h159l-37 -201h127l-28 -154h-125l-152 -866h-157l92 532h-551l-94 -532h-158l152 866h-121z" />
    <glyph glyph-name="hbar.smcp" unicode="&#xf62e;" horiz-adv-x="1216" 
d="M393 866l-31 -178h551l31 178h-551zM115 866l28 154h119l35 201h160l-37 -201h551l37 201h159l-37 -201h127l-28 -154h-125l-152 -866h-157l92 532h-551l-94 -532h-158l152 866h-121z" />
    <glyph glyph-name="iacute.smcp" unicode="&#xe258;" horiz-adv-x="464" 
d="M63 0l213 1221h158l-213 -1221h-158zM303 1339l297 332h205l-354 -332h-148z" />
    <glyph glyph-name="iacute.smcp" unicode="&#xf7ed;" horiz-adv-x="464" 
d="M63 0l213 1221h158l-213 -1221h-158zM303 1339l297 332h205l-354 -332h-148z" />
    <glyph glyph-name="igrave.smcp" unicode="&#xe259;" horiz-adv-x="464" 
d="M63 0l213 1221h158l-213 -1221h-158zM295 1339l-238 332h203l180 -332h-145z" />
    <glyph glyph-name="igrave.smcp" unicode="&#xf7ec;" horiz-adv-x="464" 
d="M63 0l213 1221h158l-213 -1221h-158zM295 1339l-238 332h203l180 -332h-145z" />
    <glyph glyph-name="icircumflex.smcp" unicode="&#xe25a;" horiz-adv-x="464" 
d="M63 1333l302 332h135l186 -332h-164l-110 205l-183 -205h-166zM63 0l213 1221h158l-213 -1221h-158z" />
    <glyph glyph-name="icircumflex.smcp" unicode="&#xf7ee;" horiz-adv-x="464" 
d="M63 1333l302 332h135l186 -332h-164l-110 205l-183 -205h-166zM63 0l213 1221h158l-213 -1221h-158z" />
    <glyph glyph-name="idieresis.smcp" unicode="&#xe25b;" horiz-adv-x="464" 
d="M63 0l213 1221h158l-213 -1221h-158zM168 1354l49 284h160l-51 -284h-158zM440 1354l52 284h157l-49 -284h-160z" />
    <glyph glyph-name="idieresis.smcp" unicode="&#xf7ef;" horiz-adv-x="464" 
d="M63 0l213 1221h158l-213 -1221h-158zM168 1354l49 284h160l-51 -284h-158zM440 1354l52 284h157l-49 -284h-160z" />
    <glyph glyph-name="itilde.smcp" unicode="&#xe25c;" horiz-adv-x="464" 
d="M63 0l213 1221h158l-213 -1221h-158zM565 1475q74 0 94 104h127q-23 -115 -86 -181t-150 -67q-87 0 -185 68q-70 45 -109 45q-72 0 -90 -105h-127q20 113 85 181t149 68q85 0 169 -57q84 -56 123 -56z" />
    <glyph glyph-name="itilde.smcp" unicode="&#xf632;" horiz-adv-x="464" 
d="M63 0l213 1221h158l-213 -1221h-158zM565 1475q74 0 94 104h127q-23 -115 -86 -181t-150 -67q-87 0 -185 68q-70 45 -109 45q-72 0 -90 -105h-127q20 113 85 181t149 68q85 0 169 -57q84 -56 123 -56z" />
    <glyph glyph-name="imacron.smcp" unicode="&#xe25e;" horiz-adv-x="464" 
d="M63 0l213 1221h158l-213 -1221h-158zM111 1339l26 138h541l-27 -138h-540z" />
    <glyph glyph-name="imacron.smcp" unicode="&#xf64d;" horiz-adv-x="464" 
d="M63 0l213 1221h158l-213 -1221h-158zM111 1339l26 138h541l-27 -138h-540z" />
    <glyph glyph-name="ibreve.smcp" unicode="&#xe25f;" horiz-adv-x="464" 
d="M63 0l213 1221h158l-213 -1221h-158zM379 1341q-155 -1 -227 95t-46 239h138q-18 -96 24 -154t133 -61q91 2 151 60t79 155h137q-27 -143 -130 -239t-259 -95z" />
    <glyph glyph-name="ibreve.smcp" unicode="&#xf630;" horiz-adv-x="464" 
d="M63 0l213 1221h158l-213 -1221h-158zM379 1341q-155 -1 -227 95t-46 239h138q-18 -96 24 -154t133 -61q91 2 151 60t79 155h137q-27 -143 -130 -239t-259 -95z" />
    <glyph glyph-name="idotaccent.smcp" unicode="&#xe262;" horiz-adv-x="464" 
d="M301 1354l49 284h158l-49 -284h-158zM63 0l213 1221h158l-213 -1221h-158z" />
    <glyph glyph-name="idotaccent.smcp" unicode="&#xf666;" horiz-adv-x="464" 
d="M301 1354l49 284h158l-49 -284h-158zM63 0l213 1221h158l-213 -1221h-158z" />
    <glyph glyph-name="iogonek.smcp" unicode="&#xe264;" horiz-adv-x="464" 
d="M28 -446q-134 0 -202 64t-52 148t81 148q66 64 217 135l204 1172h158l-213 -1221h2q-172 -94 -227 -138q-56 -44 -64 -87t21 -67t78 -23q76 0 168 69l110 -86q-148 -114 -281 -114z" />
    <glyph glyph-name="iogonek.smcp" unicode="&#xf64e;" horiz-adv-x="464" 
d="M28 -446q-134 0 -202 64t-52 148t81 148q66 64 217 135l204 1172h158l-213 -1221h2q-172 -94 -227 -138q-56 -44 -64 -87t21 -67t78 -23q76 0 168 69l110 -86q-148 -114 -281 -114z" />
    <glyph glyph-name="jcircumflex.smcp" unicode="&#xe265;" horiz-adv-x="841" 
d="M457 1323l301 332h135l186 -332h-164l-110 205l-182 -205h-166zM322 -20q-140 0 -223 68t-111 183l155 48q41 -150 172 -150q82 0 136 56q53 56 67 145l156 891h160l-162 -918q-26 -151 -118 -237t-232 -86z" />
    <glyph glyph-name="jcircumflex.smcp" unicode="&#xf633;" horiz-adv-x="841" 
d="M457 1323l301 332h135l186 -332h-164l-110 205l-182 -205h-166zM322 -20q-140 0 -223 68t-111 183l155 48q41 -150 172 -150q82 0 136 56q53 56 67 145l156 891h160l-162 -918q-26 -151 -118 -237t-232 -86z" />
    <glyph glyph-name="kcommaaccent.smcp" unicode="&#xe268;" horiz-adv-x="1128" 
d="M279 -520l159 418h144l-201 -418h-102zM813 0l-285 635l-247 -236l-70 -399h-158l213 1221h160l-107 -598l633 598h209l-512 -486l332 -735h-168z" />
    <glyph glyph-name="kcommaaccent.smcp" unicode="&#xf64f;" horiz-adv-x="1128" 
d="M279 -520l159 418h144l-201 -418h-102zM813 0l-285 635l-247 -236l-70 -399h-158l213 1221h160l-107 -598l633 598h209l-512 -486l332 -735h-168z" />
    <glyph glyph-name="lacute.smcp" unicode="&#xe26b;" horiz-adv-x="915" 
d="M299 1339l297 332h205l-355 -332h-147zM53 0l213 1221h160l-188 -1067h518l-27 -154h-676z" />
    <glyph glyph-name="lacute.smcp" unicode="&#xf650;" horiz-adv-x="915" 
d="M299 1339l297 332h205l-355 -332h-147zM53 0l213 1221h160l-188 -1067h518l-27 -154h-676z" />
    <glyph glyph-name="lcaron.smcp" unicode="&#xe26c;" horiz-adv-x="915" 
d="M545 889l221 332h166l-254 -332h-133zM53 0l213 1221h160l-188 -1067h518l-27 -154h-676z" />
    <glyph glyph-name="lcaron.smcp" unicode="&#xf651;" horiz-adv-x="915" 
d="M545 889l221 332h166l-254 -332h-133zM53 0l213 1221h160l-188 -1067h518l-27 -154h-676z" />
    <glyph glyph-name="lcommaaccent.smcp" unicode="&#xe26d;" horiz-adv-x="915" 
d="M141 -520l160 418h143l-200 -418h-103zM53 0l213 1221h160l-188 -1067h518l-27 -154h-676z" />
    <glyph glyph-name="lcommaaccent.smcp" unicode="&#xf652;" horiz-adv-x="915" 
d="M141 -520l160 418h143l-200 -418h-103zM53 0l213 1221h160l-188 -1067h518l-27 -154h-676z" />
    <glyph glyph-name="ldot.smcp" unicode="&#xe271;" horiz-adv-x="915" 
d="M639 414l49 284h158l-49 -284h-158zM53 0l213 1221h160l-188 -1067h518l-27 -154h-676z" />
    <glyph glyph-name="ldot.smcp" unicode="&#xf634;" horiz-adv-x="915" 
d="M639 414l49 284h158l-49 -284h-158zM53 0l213 1221h160l-188 -1067h518l-27 -154h-676z" />
    <glyph glyph-name="lslash.smcp" unicode="&#xe272;" horiz-adv-x="948" 
d="M25 467l22 135l150 43l100 576h160l-95 -525l353 105l-23 -135l-352 -105l-72 -407h518l-26 -154h-676l88 510z" />
    <glyph glyph-name="lslash.smcp" unicode="&#xf6f9;" horiz-adv-x="948" 
d="M25 467l22 135l150 43l100 576h160l-95 -525l353 105l-23 -135l-352 -105l-72 -407h518l-26 -154h-676l88 510z" />
    <glyph glyph-name="nacute.smcp" unicode="&#xe276;" horiz-adv-x="1247" 
d="M674 1323l297 332h205l-355 -332h-147zM53 0l213 1221h172l465 -953l166 953h160l-215 -1221h-158l-475 973l-170 -973h-158z" />
    <glyph glyph-name="nacute.smcp" unicode="&#xf653;" horiz-adv-x="1247" 
d="M674 1323l297 332h205l-355 -332h-147zM53 0l213 1221h172l465 -953l166 953h160l-215 -1221h-158l-475 973l-170 -973h-158z" />
    <glyph glyph-name="ntilde.smcp" unicode="&#xe279;" horiz-adv-x="1247" 
d="M924 1475q74 0 94 104h127q-23 -115 -86 -181t-151 -67q-88 0 -185 68q-70 45 -109 45q-72 0 -90 -105h-127q20 113 85 181t150 68t169 -57q84 -56 123 -56zM53 0l213 1221h172l465 -953l166 953h160l-215 -1221h-158l-475 973l-170 -973h-158z" />
    <glyph glyph-name="ncaron.smcp" unicode="&#xe27a;" horiz-adv-x="1247" 
d="M696 1325l-186 332h164l110 -205l183 205h166l-304 -332h-133zM53 0l213 1221h172l465 -953l166 953h160l-215 -1221h-158l-475 973l-170 -973h-158z" />
    <glyph glyph-name="ncaron.smcp" unicode="&#xf654;" horiz-adv-x="1247" 
d="M696 1325l-186 332h164l110 -205l183 205h166l-304 -332h-133zM53 0l213 1221h172l465 -953l166 953h160l-215 -1221h-158l-475 973l-170 -973h-158z" />
    <glyph glyph-name="ncommaaccent.smcp" unicode="&#xe27d;" horiz-adv-x="1247" 
d="M315 -520l160 418h143l-200 -418h-103zM53 0l213 1221h172l465 -953l166 953h160l-215 -1221h-158l-475 973l-170 -973h-158z" />
    <glyph glyph-name="ncommaaccent.smcp" unicode="&#xf655;" horiz-adv-x="1247" 
d="M315 -520l160 418h143l-200 -418h-103zM53 0l213 1221h172l465 -953l166 953h160l-215 -1221h-158l-475 973l-170 -973h-158z" />
    <glyph glyph-name="oacute.smcp" unicode="&#xe281;" horiz-adv-x="1458" 
d="M715 129q178 0 319 123q141 122 177 318t-87 359t-344 163q-184 0 -324 -123t-173 -307q-37 -217 88 -375t344 -158zM700 -20q-286 0 -454 206t-119 492q43 244 231 404t430 159q291 0 458 -214t121 -473t-231 -417q-186 -157 -436 -157zM754 1339l297 332h204l-354 -332
h-147z" />
    <glyph glyph-name="oacute.smcp" unicode="&#xf7f3;" horiz-adv-x="1458" 
d="M715 129q178 0 319 123q141 122 177 318t-87 359t-344 163q-184 0 -324 -123t-173 -307q-37 -217 88 -375t344 -158zM700 -20q-286 0 -454 206t-119 492q43 244 231 404t430 159q291 0 458 -214t121 -473t-231 -417q-186 -157 -436 -157zM754 1339l297 332h204l-354 -332
h-147z" />
    <glyph glyph-name="ograve.smcp" unicode="&#xe282;" horiz-adv-x="1458" 
d="M801 1339l-238 332h203l180 -332h-145zM715 129q178 0 319 123q141 122 177 318t-87 359t-344 163q-184 0 -324 -123t-173 -307q-37 -217 88 -375t344 -158zM700 -20q-286 0 -454 206t-119 492q43 244 231 404t430 159q291 0 458 -214t121 -473t-231 -417
q-186 -157 -436 -157z" />
    <glyph glyph-name="ograve.smcp" unicode="&#xf7f2;" horiz-adv-x="1458" 
d="M801 1339l-238 332h203l180 -332h-145zM715 129q178 0 319 123q141 122 177 318t-87 359t-344 163q-184 0 -324 -123t-173 -307q-37 -217 88 -375t344 -158zM700 -20q-286 0 -454 206t-119 492q43 244 231 404t430 159q291 0 458 -214t121 -473t-231 -417
q-186 -157 -436 -157z" />
    <glyph glyph-name="ocircumflex.smcp" unicode="&#xe283;" horiz-adv-x="1458" 
d="M518 1339l301 332h135l187 -332h-164l-111 205l-182 -205h-166zM715 129q178 0 319 123q141 122 177 318t-87 359t-344 163q-184 0 -324 -123t-173 -307q-37 -217 88 -375t344 -158zM700 -20q-286 0 -454 206t-119 492q43 244 231 404t430 159q291 0 458 -214t121 -473
t-231 -417q-186 -157 -436 -157z" />
    <glyph glyph-name="ocircumflex.smcp" unicode="&#xf7f4;" horiz-adv-x="1458" 
d="M518 1339l301 332h135l187 -332h-164l-111 205l-182 -205h-166zM715 129q178 0 319 123q141 122 177 318t-87 359t-344 163q-184 0 -324 -123t-173 -307q-37 -217 88 -375t344 -158zM700 -20q-286 0 -454 206t-119 492q43 244 231 404t430 159q291 0 458 -214t121 -473
t-231 -417q-186 -157 -436 -157z" />
    <glyph glyph-name="odieresis.smcp" unicode="&#xe284;" horiz-adv-x="1458" 
d="M715 129q178 0 319 123q141 122 177 318t-87 359t-344 163q-184 0 -324 -123t-173 -307q-37 -217 88 -375t344 -158zM700 -20q-286 0 -454 206t-119 492q43 244 231 404t430 159q291 0 458 -214t121 -473t-231 -417q-186 -157 -436 -157zM621 1354l49 284h159l-51 -284
h-157zM893 1354l51 284h158l-49 -284h-160z" />
    <glyph glyph-name="odieresis.smcp" unicode="&#xf7f6;" horiz-adv-x="1458" 
d="M715 129q178 0 319 123q141 122 177 318t-87 359t-344 163q-184 0 -324 -123t-173 -307q-37 -217 88 -375t344 -158zM700 -20q-286 0 -454 206t-119 492q43 244 231 404t430 159q291 0 458 -214t121 -473t-231 -417q-186 -157 -436 -157zM621 1354l49 284h159l-51 -284
h-157zM893 1354l51 284h158l-49 -284h-160z" />
    <glyph glyph-name="otilde.smcp" unicode="&#xe285;" horiz-adv-x="1458" 
d="M1038 1475q72 0 95 104h127q-23 -115 -86 -181q-62 -66 -150 -67q-88 0 -186 68q-70 45 -109 45q-72 0 -90 -105h-127q20 113 85 181t150 68t169 -57q84 -56 122 -56zM715 129q178 0 319 123q141 122 177 318t-87 359t-344 163q-184 0 -324 -123t-173 -307
q-37 -217 88 -375t344 -158zM700 -20q-286 0 -454 206t-119 492q43 244 231 404t430 159q291 0 458 -214t121 -473t-231 -417q-186 -157 -436 -157z" />
    <glyph glyph-name="otilde.smcp" unicode="&#xf7f5;" horiz-adv-x="1458" 
d="M1038 1475q72 0 95 104h127q-23 -115 -86 -181q-62 -66 -150 -67q-88 0 -186 68q-70 45 -109 45q-72 0 -90 -105h-127q20 113 85 181t150 68t169 -57q84 -56 122 -56zM715 129q178 0 319 123q141 122 177 318t-87 359t-344 163q-184 0 -324 -123t-173 -307
q-37 -217 88 -375t344 -158zM700 -20q-286 0 -454 206t-119 492q43 244 231 404t430 159q291 0 458 -214t121 -473t-231 -417q-186 -157 -436 -157z" />
    <glyph glyph-name="omacron.smcp" unicode="&#xe287;" horiz-adv-x="1458" 
d="M715 129q178 0 319 123q141 122 177 318t-87 359t-344 163q-184 0 -324 -123t-173 -307q-37 -217 88 -375t344 -158zM700 -20q-286 0 -454 206t-119 492q43 244 231 404t430 159q291 0 458 -214t121 -473t-231 -417q-186 -157 -436 -157zM571 1339l27 138h541l-27 -138
h-541z" />
    <glyph glyph-name="omacron.smcp" unicode="&#xf657;" horiz-adv-x="1458" 
d="M715 129q178 0 319 123q141 122 177 318t-87 359t-344 163q-184 0 -324 -123t-173 -307q-37 -217 88 -375t344 -158zM700 -20q-286 0 -454 206t-119 492q43 244 231 404t430 159q291 0 458 -214t121 -473t-231 -417q-186 -157 -436 -157zM571 1339l27 138h541l-27 -138
h-541z" />
    <glyph glyph-name="obreve.smcp" unicode="&#xe288;" horiz-adv-x="1458" 
d="M819 1350q-155 0 -227 95t-45 238h137q-18 -96 24 -154t134 -61q92 2 151 60t78 155h137q-27 -143 -130 -238t-259 -95zM715 129q178 0 319 123q141 122 177 318t-87 359t-344 163q-184 0 -324 -123t-173 -307q-37 -217 88 -375t344 -158zM700 -20q-286 0 -454 206
t-119 492q43 244 231 404t430 159q291 0 458 -214t121 -473t-231 -417q-186 -157 -436 -157z" />
    <glyph glyph-name="obreve.smcp" unicode="&#xf635;" horiz-adv-x="1458" 
d="M819 1350q-155 0 -227 95t-45 238h137q-18 -96 24 -154t134 -61q92 2 151 60t78 155h137q-27 -143 -130 -238t-259 -95zM715 129q178 0 319 123q141 122 177 318t-87 359t-344 163q-184 0 -324 -123t-173 -307q-37 -217 88 -375t344 -158zM700 -20q-286 0 -454 206
t-119 492q43 244 231 404t430 159q291 0 458 -214t121 -473t-231 -417q-186 -157 -436 -157z" />
    <glyph glyph-name="ohungarumlaut.smcp" unicode="&#xe28a;" horiz-adv-x="1458" 
d="M715 129q178 0 319 123q141 122 177 318t-87 359t-344 163q-184 0 -324 -123t-173 -307q-37 -217 88 -375t344 -158zM700 -20q-286 0 -454 206t-119 492q43 244 231 404t430 159q291 0 458 -214t121 -473t-231 -417q-186 -157 -436 -157zM895 1337l297 332h192l-352 -332
h-137zM596 1337l297 332h194l-354 -332h-137z" />
    <glyph glyph-name="ohungarumlaut.smcp" unicode="&#xf656;" horiz-adv-x="1458" 
d="M715 129q178 0 319 123q141 122 177 318t-87 359t-344 163q-184 0 -324 -123t-173 -307q-37 -217 88 -375t344 -158zM700 -20q-286 0 -454 206t-119 492q43 244 231 404t430 159q291 0 458 -214t121 -473t-231 -417q-186 -157 -436 -157zM895 1337l297 332h192l-352 -332
h-137zM596 1337l297 332h194l-354 -332h-137z" />
    <glyph glyph-name="oslash.smcp" unicode="&#xe295;" horiz-adv-x="1458" 
d="M732 129q160 0 302 123q141 124 175 316t-74 345l-676 -708q113 -76 273 -76zM762 1092q-166 0 -306 -123t-175 -321t79 -351l680 713q-112 82 -278 82zM700 -20q-203 0 -352 108l-84 -88h-186l172 180q-174 211 -123 498q43 244 231 404t414 159q226 0 377 -119l94 99
h187l-185 -193q166 -209 119 -489q-43 -244 -228 -402q-186 -157 -436 -157z" />
    <glyph glyph-name="oslash.smcp" unicode="&#xf7f8;" horiz-adv-x="1458" 
d="M732 129q160 0 302 123q141 124 175 316t-74 345l-676 -708q113 -76 273 -76zM762 1092q-166 0 -306 -123t-175 -321t79 -351l680 713q-112 82 -278 82zM700 -20q-203 0 -352 108l-84 -88h-186l172 180q-174 211 -123 498q43 244 231 404t414 159q226 0 377 -119l94 99
h187l-185 -193q166 -209 119 -489q-43 -244 -228 -402q-186 -157 -436 -157z" />
    <glyph glyph-name="oslashacute.smcp" unicode="&#xe296;" horiz-adv-x="1458" 
d="M729 1339l297 332h205l-354 -332h-148zM732 129q160 0 302 123q141 124 175 316t-74 345l-676 -708q113 -76 273 -76zM762 1092q-166 0 -306 -123t-175 -321t79 -351l680 713q-112 82 -278 82zM700 -20q-203 0 -352 108l-84 -88h-186l172 180q-174 211 -123 498
q43 244 231 404t414 159q226 0 377 -119l94 99h187l-185 -193q166 -209 119 -489q-43 -244 -228 -402q-186 -157 -436 -157z" />
    <glyph glyph-name="oslashacute.smcp" unicode="&#xf627;" horiz-adv-x="1458" 
d="M729 1339l297 332h205l-354 -332h-148zM732 129q160 0 302 123q141 124 175 316t-74 345l-676 -708q113 -76 273 -76zM762 1092q-166 0 -306 -123t-175 -321t79 -351l680 713q-112 82 -278 82zM700 -20q-203 0 -352 108l-84 -88h-186l172 180q-174 211 -123 498
q43 244 231 404t414 159q226 0 377 -119l94 99h187l-185 -193q166 -209 119 -489q-43 -244 -228 -402q-186 -157 -436 -157z" />
    <glyph glyph-name="oe.smcp" unicode="&#xe298;" horiz-adv-x="2043" 
d="M715 129q170 0 304 113t175 284l10 64q25 202 -94 352q-118 150 -316 150t-338 -123t-173 -307q-37 -217 88 -375t344 -158zM686 -20q-274 0 -440 206q-168 206 -119 492q43 244 231 404t430 159q170 0 294 -74t188 -204l45 258h739l-26 -152h-582l-66 -381h582l-29 -151
h-579l-68 -383h580l-27 -154h-737l26 158q-168 -178 -442 -178z" />
    <glyph glyph-name="oe.smcp" unicode="&#xf6fa;" horiz-adv-x="2043" 
d="M715 129q170 0 304 113t175 284l10 64q25 202 -94 352q-118 150 -316 150t-338 -123t-173 -307q-37 -217 88 -375t344 -158zM686 -20q-274 0 -440 206q-168 206 -119 492q43 244 231 404t430 159q170 0 294 -74t188 -204l45 258h739l-26 -152h-582l-66 -381h582l-29 -151
h-579l-68 -383h580l-27 -154h-737l26 158q-168 -178 -442 -178z" />
    <glyph glyph-name="racute.smcp" unicode="&#xe29a;" horiz-adv-x="1069" 
d="M557 1339l297 332h205l-354 -332h-148zM627 1221q195 0 307 -125t82 -308q-25 -135 -131 -229t-273 -106q23 -133 100 -217t187 -84h23l-27 -152h-23q-208 0 -322 177t-106 411h101q133 0 211 62t98 168t-52 180t-200 77h-203l-188 -1075h-158l213 1221h361z" />
    <glyph glyph-name="racute.smcp" unicode="&#xf658;" horiz-adv-x="1069" 
d="M557 1339l297 332h205l-354 -332h-148zM627 1221q195 0 307 -125t82 -308q-25 -135 -131 -229t-273 -106q23 -133 100 -217t187 -84h23l-27 -152h-23q-208 0 -322 177t-106 411h101q133 0 211 62t98 168t-52 180t-200 77h-203l-188 -1075h-158l213 1221h361z" />
    <glyph glyph-name="rcaron.smcp" unicode="&#xe29b;" horiz-adv-x="1069" 
d="M553 1339l-186 332h163l111 -205l182 205h166l-303 -332h-133zM627 1221q195 0 307 -125t82 -308q-25 -135 -131 -229t-273 -106q23 -133 100 -217t187 -84h23l-27 -152h-23q-208 0 -322 177t-106 411h101q133 0 211 62t98 168t-52 180t-200 77h-203l-188 -1075h-158
l213 1221h361z" />
    <glyph glyph-name="rcaron.smcp" unicode="&#xf659;" horiz-adv-x="1069" 
d="M553 1339l-186 332h163l111 -205l182 205h166l-303 -332h-133zM627 1221q195 0 307 -125t82 -308q-25 -135 -131 -229t-273 -106q23 -133 100 -217t187 -84h23l-27 -152h-23q-208 0 -322 177t-106 411h101q133 0 211 62t98 168t-52 180t-200 77h-203l-188 -1075h-158
l213 1221h361z" />
    <glyph glyph-name="rcommaaccent.smcp" unicode="&#xe29e;" horiz-adv-x="1069" 
d="M238 -520l159 418h144l-201 -418h-102zM627 1221q195 0 307 -125t82 -308q-25 -135 -131 -229t-273 -106q23 -133 100 -217t187 -84h23l-27 -152h-23q-208 0 -322 177t-106 411h101q133 0 211 62t98 168t-52 180t-200 77h-203l-188 -1075h-158l213 1221h361z" />
    <glyph glyph-name="rcommaaccent.smcp" unicode="&#xf65a;" horiz-adv-x="1069" 
d="M238 -520l159 418h144l-201 -418h-102zM627 1221q195 0 307 -125t82 -308q-25 -135 -131 -229t-273 -106q23 -133 100 -217t187 -84h23l-27 -152h-23q-208 0 -322 177t-106 411h101q133 0 211 62t98 168t-52 180t-200 77h-203l-188 -1075h-158l213 1221h361z" />
    <glyph glyph-name="A.swsh" unicode="&#xe2e0;" horiz-adv-x="2299" 
d="M1745 1280l-399 -721h534zM504 -236q229 0 383 267l209 377h-559q-139 0 -235 -78t-114 -205q-26 -141 64 -251t252 -110zM496 -383q-244 0 -373 162t-90 377q31 180 171 292t347 111h627l438 789h-715q-100 0 -174 -52t-91 -142q-17 -89 39 -161q57 -71 161 -71t161 84
l136 -74q-106 -158 -316 -158q-174 0 -271 126q-96 126 -62 276t150 235q116 84 286 84h940l290 -1495h-163l-78 408h-643l-236 -431q-203 -360 -534 -360z" />
    <glyph glyph-name="B.swsh" unicode="&#xe2e1;" horiz-adv-x="1863" 
d="M1284 719h-354l-101 -574h363q334 0 383 267q23 129 -61 218t-230 89zM1294 862q111 0 194 64t103 161q29 150 -101 248q-130 99 -450 99t-493 -106q-172 -106 -201 -269q-20 -119 32 -207t159 -133l-86 -135q-143 59 -219 193q-75 134 -44 304q40 225 264 363t597 137
q201 0 351 -45t230 -120q163 -154 125 -341q-35 -193 -225 -284q117 -55 174 -161t33 -243q-33 -179 -174 -283t-383 -104h-742q-221 0 -305 -190l-135 96q135 240 422 239h248l204 1162h162l-78 -445h338z" />
    <glyph glyph-name="C.swsh" unicode="&#xe2e2;" horiz-adv-x="1691" 
d="M883 -258q-174 0 -325 72t-256 198t-148 320t-2 430q40 236 192 430t352 292q200 97 414 97q293 0 453 -164t112 -387q-23 -137 -135 -233t-266 -97q-227 0 -350 177l147 104q76 -123 209 -123q92 0 157 56t81 145q29 157 -86 265t-328 108q-274 0 -506 -195t-289 -508
q-65 -397 114 -615q178 -218 480 -218q301 0 488 254l127 -103q-240 -305 -635 -305z" />
    <glyph glyph-name="D.swsh" unicode="&#xe2e3;" horiz-adv-x="2015" 
d="M1040 1581q240 0 428 -78q359 -149 455 -496q45 -163 14 -337q-55 -310 -275 -490t-521 -180h-662q-217 0 -301 -190l-133 96q131 240 418 239h256l207 1172h161l-206 -1172h266q240 4 414 154t217 401q28 140 -8 270q-78 288 -374 403q-161 62 -370 63q-317 0 -485 -112
t-197 -275q-20 -119 34 -209t161 -138l-86 -133q-143 59 -221 195t-46 307q38 229 262 369t592 141z" />
    <glyph glyph-name="E.swsh" unicode="&#xe2e4;" horiz-adv-x="1392" 
d="M571 -317q-252 1 -393 159t-104 379q25 154 134 252q110 98 273 145q-145 82 -223 222t-45 317q41 248 243 389q202 142 462 142t399 -138t106 -325q-23 -119 -117 -198t-221 -79q-174 0 -284 109l114 119q72 -78 158 -78t134 47t61 117q20 110 -77 194t-291 84
t-344 -113t-180 -300t105 -321t348 -134h5l-27 -152h-25q-218 0 -368 -81t-174 -235t72 -261q97 -106 266 -107q279 0 444 252l137 -100q-217 -305 -588 -305z" />
    <glyph glyph-name="F.swsh" unicode="&#xe2e5;" horiz-adv-x="1841" 
d="M536 -289q-184 0 -288 122t-76 296q18 104 100 195l134 -99q-57 -55 -70 -121q-16 -98 43 -169t162 -70q213 0 264 276l211 1207h-268q-158 0 -268 -79t-134 -214q-33 -186 121 -307l-88 -134q-109 68 -162 192t-29 271q33 190 188 304t374 114h907q102 0 150 48t67 145
l20 112h162l-26 -153q-57 -301 -359 -301h-493l-97 -551h699l-27 -152h-698l-94 -539q-35 -182 -137 -288q-104 -106 -288 -105z" />
    <glyph glyph-name="G.swsh" unicode="&#xe2e6;" horiz-adv-x="1771" 
d="M907 -606q-167 0 -287 70t-176 186l170 59q78 -164 314 -164q180 0 295 119t145 289l64 362q-172 -336 -582 -335q-231 0 -405 116q-173 117 -248 312q-76 195 -37 421q49 295 278 491t541 196q215 0 382 -102t257 -271l-154 -82q-152 301 -501 301q-242 0 -422 -158
t-224 -391q-47 -270 110 -474t443 -204q236 0 395 138t218 366h-615l27 149h778l-153 -862q-41 -232 -197 -382t-416 -150z" />
    <glyph glyph-name="H.swsh" unicode="&#xe2e7;" horiz-adv-x="2166" 
d="M565 -322q-215 0 -343 148t-89 354q27 152 148 269l122 -109q-90 -76 -108 -182q-25 -136 56 -232t227 -96q272 0 337 381l199 1137h-508q-92 0 -166 -54t-89 -144q-15 -91 40 -160q55 -68 153 -68t163 69l94 -112q-97 -103 -267 -103t-266 118t-70 267t141 242
q116 92 271 92h693l-119 -670h727l114 643q33 182 135 286t288 104t290 -129l-123 -99q-61 82 -173 82t-174 -71t-85 -187l-254 -1454h-162l117 672h-727l-88 -508q-82 -486 -504 -486z" />
    <glyph glyph-name="I.swsh" unicode="&#xe2e8;" horiz-adv-x="1767" 
d="M758 1495h760q102 0 151 48t66 145l20 112h164l-29 -153q-53 -301 -356 -301h-320l-208 -1194h598l-27 -152h-1085q-102 0 -150 -48t-68 -145l-20 -112h-162l27 153q57 303 358 304h367l209 1194h-299q-154 0 -266 -83t-134 -214q-33 -188 123 -312l-88 -133
q-109 68 -163 191t-29 268q33 195 187 313t374 119z" />
    <glyph glyph-name="J.swsh" unicode="&#xe2e9;" horiz-adv-x="1277" 
d="M555 -381q-215 1 -343 149t-89 353q27 152 147 268l123 -108q-90 -76 -108 -183q-25 -137 56 -232t226 -95q274 0 338 381l209 1196h-508q-92 0 -166 -54t-89 -144q-15 -91 40 -160q55 -68 153 -68t163 69l94 -112q-97 -103 -267 -103t-266 118t-70 267t141 242
q116 92 271 92h693l-244 -1391q-82 -485 -504 -485z" />
    <glyph glyph-name="K.swsh" unicode="&#xe2ea;" horiz-adv-x="2256" 
d="M565 -322q-215 0 -343 148t-89 354q27 152 148 269l122 -109q-90 -76 -108 -182q-25 -136 56 -232t227 -96q272 0 337 381l199 1137h-508q-92 0 -166 -54t-89 -144q-15 -91 40 -160q55 -68 153 -68t163 69l94 -112q-97 -103 -267 -103t-266 118t-70 267t141 242
q116 92 271 92h693l-148 -844l887 844h209l-647 -614l245 -537q53 -127 93 -160t143 -32h29l-29 -152h-47q-141 0 -209 63t-137 244l-215 471l-361 -342l-47 -272q-82 -486 -504 -486z" />
    <glyph glyph-name="L.swsh" unicode="&#xe2eb;" horiz-adv-x="1806" 
d="M258 -223q137 0 170 182l8 51q-82 43 -149 43q-143 0 -164 -127q-11 -57 29 -103t106 -46zM250 -377q-143 0 -224 99q-81 98 -61 218q21 120 111 186t219 67q74 0 168 -37l184 1065q31 180 137 280t285 101q217 0 354 -172l-135 -99q-84 119 -227 119q-209 0 -252 -250
l-197 -1124q40 -24 140 -90t154 -98t137 -62t151 -31q109 -1 162 59t74 185l36 215h168l-43 -244q-68 -369 -401 -368q-158 0 -325 97q-110 64 -190 119q-79 56 -89 62q-66 -297 -336 -297z" />
    <glyph glyph-name="M.swsh" unicode="&#xe2ec;" horiz-adv-x="2326" 
d="M387 -287q-178 0 -284 126q-105 126 -76 296q23 121 108 205l113 -107q-55 -53 -68 -116q-16 -102 46 -178t168 -76t167 61t80 168l240 1366q-94 168 -237 168t-175 -153l-25 -132h-161l30 160q25 125 111 199t222 74t222 -62t152 -180l448 -815l740 778h143l-262 -1495
h-162l213 1212l-708 -743l-428 766l-201 -1153q-31 -172 -135 -270t-281 -99z" />
    <glyph glyph-name="N.swsh" unicode="&#xe2ed;" horiz-adv-x="2277" 
d="M559 -319q-217 0 -344 148t-88 359q27 156 147 267l123 -109q-94 -80 -110 -182q-25 -138 57 -236t228 -98t230 101q85 101 113 274l201 1143h-510q-92 0 -166 -54t-89 -144q-15 -91 41 -159q56 -67 154 -67t159 65l96 -110q-97 -103 -267 -103t-266 118t-70 267t141 242
q116 92 271 92h693l622 -1229l211 1202q70 390 422 390q187 0 291 -129l-123 -99q-60 82 -172 82t-174 -71t-86 -187l-254 -1454h-160l-625 1227l-186 -1065q-41 -223 -167 -352t-343 -129z" />
    <glyph glyph-name="O.swsh" unicode="&#xe2ee;" horiz-adv-x="1869" 
d="M886 -231q-466 0 -671 325q-147 235 -84 580q37 209 170 362l145 -78q-123 -141 -153 -321q-57 -319 109 -515t465 -196q298 0 504 215t259 525t-106 540q-160 229 -443 230q-172 0 -277 -79q-106 -79 -124 -194t40 -187t169 -73q156 0 223 172l158 -45
q-111 -274 -381 -274q-184 0 -293 123t-77 303t184 293q153 113 391 111t417 -136q178 -135 250 -352t27 -465q-60 -353 -296 -601q-116 -120 -281 -192t-325 -71z" />
    <glyph glyph-name="P.swsh" unicode="&#xe2ef;" horiz-adv-x="1908" 
d="M456 -291q-185 0 -292 122q-106 122 -78 296q18 102 104 197l129 -99q-57 -55 -71 -137t47 -154t168 -71q209 0 260 284l205 1170h162l-129 -739q129 -43 299 -43t293 93q124 93 153 259q41 225 -140 388t-519 163t-504 -108t-193 -265q-18 -92 18 -171t107 -128
l-86 -133q-111 61 -167 185t-32 269q37 217 255 355q219 138 615 139q396 0 626 -212t180 -497q-39 -221 -207 -352t-420 -129q-156 -2 -303 47l-53 -311q-33 -195 -137 -307t-290 -111z" />
    <glyph glyph-name="Q.swsh" unicode="&#xe2f0;" horiz-adv-x="1740" 
d="M856 -20q-348 0 -553 252t-145 597q51 297 281 492t526 195q233 0 409 -123t251 -320t36 -411q-51 -291 -277 -486q68 -135 146 -209t194 -73h54l-29 -154h-43q-193 0 -311 136q-59 69 -96 129q-36 60 -80 157l-19 39q-72 152 -126 220t-105 93t-115 25h-90l29 153h90
q166 0 263 -112q96 -112 169 -263q150 152 188 365q31 170 -25 326t-194 256t-328 100q-236 0 -416 -157t-223 -394q-47 -276 113 -479t440 -203q123 0 236 47q45 -90 70 -133q-158 -65 -320 -65z" />
    <glyph glyph-name="R.swsh" unicode="&#xe2f1;" horiz-adv-x="1910" 
d="M444 -289q-188 0 -294 123t-78 297q18 102 100 193l131 -99q-57 -55 -70 -119q-15 -100 45 -173t166 -72q205 0 248 258l209 1198h162l-215 -1229q-66 -377 -404 -377zM1794 -268q-195 0 -349 109q-179 127 -252 386q-40 143 -40 324h78q190 0 319 92t158 260
q39 215 -145 375t-559 160q-301 0 -465 -110t-191 -263q-16 -94 20 -172t107 -127l-88 -133q-111 61 -166 184t-31 270q33 207 252 351t574 143q434 0 670 -211t180 -502q-34 -192 -182 -316t-365 -138q12 -144 61 -250t121 -166q140 -115 311 -115h21l-29 -151h-10z" />
    <glyph glyph-name="S.swsh" unicode="&#xe2f2;" horiz-adv-x="1427" 
d="M596 -358q-286 0 -442 172t-111 387q23 133 131 221q109 88 256 88q238 0 354 -191l-149 -102q-66 137 -213 137q-84 0 -146 -52t-75 -134q-27 -145 91 -260t327 -115t331 111t156 284q20 100 -10 194t-92 171q-60 77 -140 151l-160 148t-142 148q-142 167 -109 352
q27 156 149 246t286 92q162 0 274 -68t177 -174l-141 -96q-102 188 -299 188q-109 0 -185 -56t-94 -140q-29 -146 115 -293q63 -66 143 -137q80 -70 156 -150q78 -80 138 -166t88 -198t6 -232q-41 -225 -212 -376q-172 -150 -458 -150z" />
    <glyph glyph-name="T.swsh" unicode="&#xe2f3;" horiz-adv-x="1783" 
d="M638 -373q-177 0 -283 126q-105 126 -76 296q23 125 106 205l115 -109q-57 -53 -68 -116q-16 -103 46 -179t171 -75q201 0 242 231l235 1340h-381q-155 0 -267 -83t-136 -221q-16 -92 18 -174t105 -137l-88 -133q-109 68 -163 193t-30 270q33 193 190 313t374 121h870
q102 0 150 48t67 145l20 112h162l-26 -153q-57 -301 -359 -301h-344l-237 -1352q-31 -176 -133 -272q-103 -95 -280 -95z" />
    </font>
</defs>
</svg>
