<?xml version="1.0" standalone="no"?>
<!DOCTYPE svg PUBLIC "-//W3C//DTD SVG 1.1//EN" "http://www.w3.org/Graphics/SVG/1.1/DTD/svg11.dtd" >
<svg xmlns="http://www.w3.org/2000/svg" xmlns:xlink="http://www.w3.org/1999/xlink" version="1.1">
<metadata></metadata>
<defs>
<font id="quanticobold_italic" horiz-adv-x="1218" >
<font-face units-per-em="2048" ascent="1638" descent="-410" />
<missing-glyph horiz-adv-x="532" />
<glyph horiz-adv-x="0" />
<glyph horiz-adv-x="682" />
<glyph unicode=" "  horiz-adv-x="532" />
<glyph unicode="&#x09;" horiz-adv-x="532" />
<glyph unicode="&#xa0;" horiz-adv-x="532" />
<glyph unicode="!" horiz-adv-x="778" d="M195 0l38 389h390l-39 -389h-389zM328 590l41 905h352l-148 -905h-245z" />
<glyph unicode="&#x22;" horiz-adv-x="1024" d="M262 856l27 639h307l-109 -639h-225zM713 856l26 639h308l-109 -639h-225z" />
<glyph unicode="#" horiz-adv-x="1564" d="M147 338l23 209h260q15 74 40.5 203.5t29.5 152.5h-293l22 209h312q9 48 34 176t35 185h254l-69 -361h254q9 51 35 178t36 183h252l-69 -361h266l-23 -209h-284q-15 -74 -40.5 -203.5t-29.5 -152.5h317l-22 -209h-336q-5 -28 -72 -377h-254l74 377h-256 q-26 -138 -72 -377h-254l72 377h-242zM684 547h254q59 293 72 356h-256z" />
<glyph unicode="$" horiz-adv-x="1341" d="M166 127l29 272h286l-16 -163h440l37 354h-469l-223 137l61 580l252 137h144l24 242h246l-25 -242h129l224 -137l-29 -273h-287l17 164h-420l-37 -342h469l223 -137l-61 -592l-252 -137h-129l-25 -242h-246l25 242h-164z" />
<glyph unicode="%" horiz-adv-x="2050" d="M244 868l47 449l252 137h272l223 -137l-47 -449l-252 -137h-272zM362 -20l1207 1474h266l-1206 -1474h-267zM502 958h252l26 269h-252zM1159 117l49 448l252 137h273l223 -137l-49 -448l-252 -137h-273zM1417 207h252l29 268h-252z" />
<glyph unicode="&#x26;" horiz-adv-x="1361" d="M186 127l54 510l188 102l2 4l-168 103l49 461l252 137h428l223 -137l-30 -293h-287l18 184h-329l-35 -334h297l-27 -246h-297l-39 -382h412l51 491l252 137h201l-27 -246h-151l-52 -491l-251 -137h-510z" />
<glyph unicode="'" horiz-adv-x="573" d="M262 856l27 639h307l-109 -639h-225z" />
<glyph unicode="(" horiz-adv-x="784" d="M145 -272l170 1630l252 137h260l-20 -205h-232l-157 -1495h231l-22 -205h-260z" />
<glyph unicode=")" horiz-adv-x="784" d="M68 -410l22 205h232l157 1495h-231l20 205h260l224 -137l-170 -1630l-254 -138h-260z" />
<glyph unicode="*" horiz-adv-x="1329" d="M256 989l106 248l308 -125l16 342h260l-53 -342l332 125l53 -248l-338 -88l188 -266l-227 -152l-156 287h-2l-217 -287l-194 152l246 266z" />
<glyph unicode="+" horiz-adv-x="1249" d="M133 395l29 275h395l41 395h274l-41 -395h396l-29 -275h-395l-41 -395h-275l41 395h-395z" />
<glyph unicode="," horiz-adv-x="778" d="M150 -410l83 799h390l-17 -168l-289 -631h-167z" />
<glyph unicode="-" horiz-adv-x="917" d="M174 406l29 260h651l-29 -260h-651z" />
<glyph unicode="." horiz-adv-x="778" d="M195 0l38 389h390l-39 -389h-389z" />
<glyph unicode="/" horiz-adv-x="851" d="M45 -41l643 1516h266l-643 -1516h-266z" />
<glyph unicode="0" horiz-adv-x="1382" d="M186 127l125 1180l252 137h559l224 -137l-125 -1180l-252 -137h-559zM485 236h461l101 962h-461z" />
<glyph unicode="1" horiz-adv-x="1187" d="M174 0l25 246h327l95 897l-349 -189l29 269l391 211h246l-125 -1188h328l-25 -246h-942z" />
<glyph unicode="2" horiz-adv-x="1310" d="M174 0l70 674l252 137h438l39 377h-389l-19 -184h-286l30 292l252 138h488l223 -138l-62 -594l-252 -137h-438l-35 -319h676l-24 -246h-963z" />
<glyph unicode="3" horiz-adv-x="1353" d="M186 127l31 293h287l-19 -184h433l38 382h-358l27 246h358l35 334h-432l-19 -184h-286l30 293l252 137h531l223 -137l-49 -461l-189 -103l-2 -4l168 -102l-53 -510l-252 -137h-530z" />
<glyph unicode="4" horiz-adv-x="1302" d="M104 317l21 205l807 912h252l-92 -885h176l-25 -232h-176l-33 -317h-282l32 317h-680zM446 549h363l47 463h-4l-406 -459v-4z" />
<glyph unicode="5" horiz-adv-x="1341" d="M186 127l31 293h287l-19 -184h420l45 432h-665l80 766h931l-26 -246h-645l-29 -275h428l223 -137l-67 -649l-252 -137h-518z" />
<glyph unicode="6" horiz-adv-x="1320" d="M186 127l125 1180l252 137h498l223 -137l-31 -293h-286l18 184h-399l-43 -412l153 84h303l224 -137l-64 -606l-252 -137h-497zM485 236h400l41 389h-400z" />
<glyph unicode="7" horiz-adv-x="1280" d="M217 1004l45 430h1075l-18 -185l-709 -1249h-301l674 1184v4h-461l-18 -184h-287z" />
<glyph unicode="8" horiz-adv-x="1341" d="M186 127l54 510l188 102l2 4l-168 103l49 461l252 137h518l224 -137l-50 -461l-188 -103l-2 -4l168 -102l-53 -510l-252 -137h-551zM485 236h420l39 382h-420zM551 864h420l35 334h-420z" />
<glyph unicode="9" horiz-adv-x="1320" d="M186 127l31 293h287l-19 -184h400l43 411l-156 -84h-303l-223 137l65 607l252 137h498l223 -137l-125 -1180l-252 -137h-497zM545 809h399l41 389h-399z" />
<glyph unicode=":" horiz-adv-x="778" d="M195 0l38 389h390l-39 -389h-389zM264 676l41 389h389l-41 -389h-389z" />
<glyph unicode=";" horiz-adv-x="778" d="M150 -410l83 799h390l-17 -168l-289 -631h-167zM264 676l41 389h389l-41 -389h-389z" />
<glyph unicode="&#x3c;" horiz-adv-x="1351" d="M150 367l30 290l1104 369l-29 -274l-751 -238v-4l700 -238l-28 -274z" />
<glyph unicode="=" horiz-adv-x="1413" d="M188 152l27 254h1065l-27 -254h-1065zM238 618l26 254h1065l-26 -254h-1065z" />
<glyph unicode="&#x3e;" horiz-adv-x="1351" d="M172 -2l29 274l753 238v4l-702 238l29 274l1026 -369l-31 -290z" />
<glyph unicode="?" horiz-adv-x="1208" d="M285 1065l30 293l252 137h385l224 -137l-48 -451l-251 -137h-148l-37 -180h-225l10 289l252 137h125l25 233h-287l-21 -184h-286zM324 0l38 389h390l-39 -389h-389z" />
<glyph unicode="@" horiz-adv-x="2088" d="M158 -152l153 1459l252 137h1266l223 -137l-117 -1094l-252 -137h-430l-125 84l-165 -84h-166l-209 137l160 750l266 137h166l127 -84l163 84h136l-168 -799h241l97 918h-1209l-135 -1282h1237l-22 -226h-1266zM893 315h268l113 545h-268z" />
<glyph unicode="A" horiz-adv-x="1380" d="M31 0l661 1434h295l363 -1434h-283l-78 309h-536l-140 -309h-282zM565 555h363l-123 518h-4z" />
<glyph unicode="B" horiz-adv-x="1361" d="M174 0l150 1434h776l223 -138l-47 -450l-189 -103l-2 -4l168 -102l-51 -500l-252 -137h-776zM485 246h441l39 372h-441zM551 864h440l33 324h-440z" />
<glyph unicode="C" horiz-adv-x="1382" d="M186 127l125 1180l252 137h580l223 -137l-31 -293h-286l18 184h-481l-101 -962h482l18 184h287l-31 -293l-252 -137h-579z" />
<glyph unicode="D" horiz-adv-x="1464" d="M174 0l150 1434h878l223 -138l-120 -1159l-252 -137h-879zM485 246h543l98 942h-542z" />
<glyph unicode="E" horiz-adv-x="1124" d="M174 0l150 1434h858l-27 -246h-571l-33 -328h448l-26 -246h-449l-39 -368h572l-25 -246h-858z" />
<glyph unicode="F" horiz-adv-x="1103" d="M174 0l150 1434h878l-26 -246h-592l-33 -328h469l-27 -246h-469l-63 -614h-287z" />
<glyph unicode="G" horiz-adv-x="1361" d="M166 127l125 1180l252 137h579l224 -137l-31 -293h-287l19 184h-482l-100 -962h481l27 266h-236l27 246h522l-65 -621l-252 -137h-580z" />
<glyph unicode="H" horiz-adv-x="1484" d="M174 0l150 1434h286l-59 -574h563l60 574h286l-149 -1434h-287l63 614h-563l-63 -614h-287z" />
<glyph unicode="I" horiz-adv-x="634" d="M174 0l150 1434h286l-149 -1434h-287z" />
<glyph unicode="J" horiz-adv-x="1116" d="M43 127l41 395h287l-29 -286h338l125 1198h287l-138 -1307l-252 -137h-436z" />
<glyph unicode="K" horiz-adv-x="1413" d="M174 0l150 1434h286l-67 -646h4l602 646h340l-635 -672l549 -762h-344l-400 557l-157 -166l-41 -391h-287z" />
<glyph unicode="L" horiz-adv-x="1001" d="M174 0l150 1434h286l-125 -1188h490l-25 -246h-776z" />
<glyph unicode="M" horiz-adv-x="1830" d="M174 0l150 1434h381l249 -1055h4l469 1055h379l-149 -1434h-277l99 946h-4l-422 -946h-273l-225 958h-4l-100 -958h-277z" />
<glyph unicode="N" horiz-adv-x="1525" d="M174 0l150 1434h268l520 -928h4l98 928h287l-149 -1434h-269l-522 928h-4l-96 -928h-287z" />
<glyph unicode="O" horiz-adv-x="1464" d="M186 127l125 1180l252 137h641l223 -137l-124 -1180l-252 -137h-641zM485 236h543l100 962h-542z" />
<glyph unicode="P" horiz-adv-x="1280" d="M174 0l150 1434h755l224 -138l-68 -639l-252 -137h-469l-53 -520h-287zM541 766h420l43 422h-420z" />
<glyph unicode="Q" horiz-adv-x="1464" d="M186 127l125 1180l252 137h641l223 -137l-124 -1180l-252 -137l188 -400h-313l-183 400h-333zM485 236h543l100 962h-542z" />
<glyph unicode="R" horiz-adv-x="1361" d="M174 0l150 1434h776l223 -138l-66 -618l-251 -137l256 -541h-316l-252 541h-178l-55 -541h-287zM543 786h440l41 402h-440z" />
<glyph unicode="S" horiz-adv-x="1341" d="M166 127l29 272h286l-16 -163h440l37 354h-469l-223 137l61 580l252 137h518l224 -137l-29 -273h-287l17 164h-420l-37 -342h469l223 -137l-61 -592l-252 -137h-539z" />
<glyph unicode="T" horiz-adv-x="1163" d="M174 1188l27 246h1061l-27 -246h-387l-123 -1188h-287l123 1188h-387z" />
<glyph unicode="U" horiz-adv-x="1464" d="M186 127l138 1307h286l-123 -1178h543l123 1178h287l-137 -1307l-252 -137h-641z" />
<glyph unicode="V" horiz-adv-x="1400" d="M180 1434h291l264 -1084h4l490 1084h291l-662 -1434h-315z" />
<glyph unicode="W" horiz-adv-x="1966" d="M201 1434h278l139 -983h5l364 983h291l160 -979h4l344 979h278l-514 -1434h-307l-158 969h-4l-358 -969h-307z" />
<glyph unicode="X" horiz-adv-x="1353" d="M51 0l539 733l-369 701h324l233 -445l330 445h324l-519 -701l390 -733h-324l-254 477l-350 -477h-324z" />
<glyph unicode="Y" horiz-adv-x="1271" d="M180 1434h312l235 -537h4l348 537h312l-549 -824l-64 -610h-286l63 612z" />
<glyph unicode="Z" d="M92 0l19 184l749 1000v4h-604l27 246h972l-18 -185l-752 -999v-4h645l-24 -246h-1014z" />
<glyph unicode="[" horiz-adv-x="763" d="M129 -410l201 1905h477l-21 -205h-211l-157 -1495h211l-23 -205h-477z" />
<glyph unicode="\" horiz-adv-x="851" d="M205 1475h266l324 -1516h-267z" />
<glyph unicode="]" horiz-adv-x="763" d="M68 -410l22 205h211l158 1495h-211l20 205h477l-200 -1905h-477z" />
<glyph unicode="^" horiz-adv-x="1253" d="M172 778l479 656h250l340 -656h-301l-188 396h-2l-277 -396h-301z" />
<glyph unicode="_" horiz-adv-x="1232" d="M-94 -410l24 234h1334l-25 -234h-1333z" />
<glyph unicode="`" horiz-adv-x="1024" d="M492 1470h348l166 -262h-246z" />
<glyph unicode="a" d="M166 127l82 770l252 137h248l135 -84l155 84h136l-111 -1044h-135l-137 84l-154 -84h-248zM457 229h350l59 566h-350z" />
<glyph unicode="b" horiz-adv-x="1239" d="M152 -10l157 1505h281l-58 -545l156 84h268l224 -137l-82 -770l-252 -137h-268l-138 84l-153 -84h-135zM457 229h370l60 566h-371z" />
<glyph unicode="c" horiz-adv-x="1054" d="M168 137l78 750l252 137h551l-25 -240h-508l-57 -544h508l-25 -240h-551z" />
<glyph unicode="d" horiz-adv-x="1239" d="M166 127l82 770l252 137h268l135 -84l58 545h280l-158 -1505h-231l-41 84l-154 -84h-268zM457 229h370l60 566h-371z" />
<glyph unicode="e" horiz-adv-x="1157" d="M168 137l80 760l252 137h374l224 -137l-54 -489h-569l-16 -168h569l-24 -240h-613zM498 618h288l19 177h-289z" />
<glyph unicode="f" horiz-adv-x="837" d="M154 784l24 240h189l34 334l252 137h269l-25 -240h-225l-25 -231h225l-24 -240h-225l-82 -784h-281l82 784h-188z" />
<glyph unicode="g" horiz-adv-x="1239" d="M170 168l78 729l252 137h268l135 -84l156 84h135l-137 -1306l-254 -138h-557l26 240h514l29 285l-153 -84h-269zM461 270h370l56 525h-371z" />
<glyph unicode="h" horiz-adv-x="1239" d="M154 0l155 1495h281l-58 -545l156 84h268l224 -137l-95 -897h-280l82 795h-371l-82 -795h-280z" />
<glyph unicode="i" horiz-adv-x="587" d="M154 0l106 1024h281l-107 -1024h-280zM270 1214l29 281h301l-29 -281h-301z" />
<glyph unicode="j" horiz-adv-x="587" d="M-94 -410l26 240h203l125 1194h281l-135 -1296l-254 -138h-246zM270 1214l29 281h301l-29 -281h-301z" />
<glyph unicode="k" horiz-adv-x="1128" d="M154 0l155 1495h281l-92 -883h4l360 412h322l-414 -457l369 -567h-326l-229 362l-127 -141l-23 -221h-280z" />
<glyph unicode="l" horiz-adv-x="669" d="M168 137l141 1358h281l-131 -1255h205l-25 -240h-248z" />
<glyph unicode="m" horiz-adv-x="1746" d="M154 0l108 1034h232l38 -84l156 84h197l178 -110l205 110h196l224 -137l-95 -897h-280l82 795h-299l-82 -795h-281l82 795h-299l-82 -795h-280z" />
<glyph unicode="n" d="M154 0l108 1034h232l38 -84l156 84h248l223 -137l-94 -897h-281l82 795h-350l-82 -795h-280z" />
<glyph unicode="o" d="M166 127l82 770l252 137h436l223 -137l-82 -770l-252 -137h-436zM457 229h350l59 566h-350z" />
<glyph unicode="p" horiz-adv-x="1239" d="M109 -410l153 1444h232l38 -84l156 84h268l224 -137l-82 -770l-252 -137h-268l-138 84l-51 -484h-280zM457 229h370l60 566h-371z" />
<glyph unicode="q" horiz-adv-x="1239" d="M166 127l82 770l252 137h268l135 -84l156 84h135l-154 -1444h-280l51 484l-154 -84h-268zM457 229h370l60 566h-371z" />
<glyph unicode="r" horiz-adv-x="837" d="M154 0l106 1024h232l40 -84l154 84h207l-25 -240h-352l-82 -784h-280z" />
<glyph unicode="s" horiz-adv-x="1118" d="M154 0l24 240h531l16 157h-293l-223 138l37 352l252 137h553l-25 -240h-510l-16 -143h293l223 -137l-37 -367l-252 -137h-573z" />
<glyph unicode="t" horiz-adv-x="878" d="M154 784l24 240h189l18 172l297 162l-35 -334h225l-24 -240h-225l-58 -544h226l-25 -240h-268l-224 137l68 647h-188z" />
<glyph unicode="u" d="M166 127l94 897h281l-84 -795h350l84 795h280l-108 -1034h-232l-40 84l-154 -84h-248z" />
<glyph unicode="v" horiz-adv-x="1099" d="M137 1024h281l166 -672h4l307 672h281l-486 -1024h-280z" />
<glyph unicode="w" horiz-adv-x="1572" d="M158 1024h260l92 -653h4l250 653h258l115 -653h4l227 653h260l-368 -1024h-291l-113 647h-4l-248 -647h-291z" />
<glyph unicode="x" horiz-adv-x="1097" d="M31 0l426 522l-307 502h305l170 -289l231 289h305l-416 -502l322 -522h-301l-186 307l-248 -307h-301z" />
<glyph unicode="y" horiz-adv-x="1116" d="M137 1024h281l188 -602h4l301 602h281l-727 -1434h-277l240 482z" />
<glyph unicode="z" horiz-adv-x="974" d="M72 0l20 197l504 583v4h-422l25 240h790l-20 -197l-504 -583v-4h442l-24 -240h-811z" />
<glyph unicode="{" horiz-adv-x="835" d="M117 440l22 205h174l74 713l252 137h240l-21 -205h-211l-69 -665l-148 -80v-4l129 -80l-70 -666h211l-22 -205h-240l-221 138l74 712h-174z" />
<glyph unicode="|" horiz-adv-x="737" d="M190 -410l201 1905h266l-200 -1905h-267z" />
<glyph unicode="}" horiz-adv-x="835" d="M68 -410l22 205h211l70 666l145 80v4l-127 80l70 665h-211l20 205h240l223 -137l-74 -713h174l-22 -205h-174l-74 -712l-254 -138h-239z" />
<glyph unicode="~" horiz-adv-x="1376" d="M150 354l28 271l252 137h232l270 -168h153l19 168h239l-28 -270l-252 -138h-232l-272 168h-153l-17 -168h-239z" />
<glyph unicode="&#xa1;" horiz-adv-x="778" d="M162 -471l149 905h246l-43 -905h-352zM260 635l41 389h389l-41 -389h-389z" />
<glyph unicode="&#xa2;" horiz-adv-x="1075" d="M168 137l78 750l252 137h145l25 242h237l-24 -242h188l-25 -240h-528l-57 -544h528l-24 -240h-189l-26 -242h-238l27 242h-146z" />
<glyph unicode="&#xa3;" horiz-adv-x="1335" d="M131 565l21 213h157l58 529l251 137h437l223 -137l-31 -293h-286l18 184h-338l-45 -420h244l-21 -213h-244l-34 -319h440l20 184h287l-31 -293l-251 -137h-777l60 565h-158z" />
<glyph unicode="&#xa5;" horiz-adv-x="1353" d="M154 262l22 213h406l12 125h-406l23 213h293l-283 621h311l236 -537h4l348 537h312l-416 -621h293l-23 -213h-405l-13 -125h406l-23 -213h-405l-27 -262h-287l27 262h-405z" />
<glyph unicode="&#xa6;" horiz-adv-x="737" d="M190 -410l89 824h266l-88 -824h-267zM305 672l86 823h266l-86 -823h-266z" />
<glyph unicode="&#xa7;" horiz-adv-x="1357" d="M145 -272l29 272h287l-19 -164h400l30 283h-391l-223 137l45 432l189 103v4l-166 102l43 410l252 137h477l223 -137l-29 -273h-286l16 164h-379l-31 -283h392l223 -137l-45 -432l-189 -102v-4l168 -103l-43 -409l-254 -138h-497zM555 365h342l33 305h-342z" />
<glyph unicode="&#xa8;" horiz-adv-x="1114" d="M291 1219l28 276h277l-29 -276h-276zM780 1219l29 276h276l-28 -276h-277z" />
<glyph unicode="&#xa9;" horiz-adv-x="1740" d="M186 127l125 1180l252 137h918l223 -137l-125 -1180l-252 -137h-917zM438 195h901l111 1044h-901zM565 362l74 709l162 86h381l139 -86l-21 -213h-223l10 109h-235l-53 -500h235l13 108h223l-23 -213l-157 -86h-381z" />
<glyph unicode="&#xaa;" d="M154 0l24 240h912l-25 -240h-911zM209 537l82 770l252 137h248l135 -84l155 84h136l-111 -1045h-135l-137 84l-154 -84h-248zM500 639h350l59 565h-350z" />
<glyph unicode="&#xab;" horiz-adv-x="1413" d="M213 389l27 250l573 389l-29 -280l-358 -232v-2l309 -233l-28 -281zM745 389l27 250l574 389l-29 -280l-359 -232v-2l310 -233l-29 -281z" />
<glyph unicode="&#xad;" horiz-adv-x="917" d="M174 406l29 260h651l-29 -260h-651z" />
<glyph unicode="&#xae;" horiz-adv-x="1740" d="M186 127l125 1180l252 137h918l223 -137l-125 -1180l-252 -137h-917zM438 195h901l111 1044h-901zM575 283l93 868h493l142 -86l-41 -397l-148 -82l146 -303h-244l-139 297h-48l-30 -297h-224zM850 770h199l20 191h-199z" />
<glyph unicode="&#xaf;" horiz-adv-x="1226" d="M424 1229l20 198h637l-20 -198h-637z" />
<glyph unicode="&#xb0;" horiz-adv-x="1013" d="M223 868l47 449l252 137h273l223 -137l-47 -449l-252 -137h-273zM481 958h252l27 269h-252z" />
<glyph unicode="&#xb1;" horiz-adv-x="1413" d="M174 0l29 274h1065l-29 -274h-1065zM240 641l28 274h396l28 273h275l-29 -273h395l-28 -274h-396l-28 -272h-275l29 272h-395z" />
<glyph unicode="&#xb4;" horiz-adv-x="1024" d="M465 1208l219 262h348l-321 -262h-246z" />
<glyph unicode="&#xb5;" horiz-adv-x="1265" d="M154 -385l147 1409h281l-82 -784h350l82 784h280l-82 -784h170l-26 -240h-402l-38 84l-156 -84h-205l-39 -385h-280z" />
<glyph unicode="&#xb6;" horiz-adv-x="1505" d="M174 586l74 710l252 138h981l-195 -1844h-280l170 1604h-179l-170 -1604h-280l92 859h-242z" />
<glyph unicode="&#xb7;" horiz-adv-x="778" d="M250 541l41 389h389l-41 -389h-389z" />
<glyph unicode="&#xb8;" horiz-adv-x="1183" d="M340 -469l18 164h203l10 92h-194l145 213h191l-66 -96l127 -78l-20 -193l-189 -102h-225z" />
<glyph unicode="&#xba;" d="M154 0l24 240h912l-25 -240h-911zM209 537l82 770l252 137h436l223 -137l-82 -770l-252 -138h-436zM500 639h350l59 565h-350z" />
<glyph unicode="&#xbb;" horiz-adv-x="1413" d="M174 0l29 281l358 233v2l-309 232l29 280l491 -389l-27 -250zM707 0l28 281l359 233v2l-310 232l29 280l492 -389l-27 -250z" />
<glyph unicode="&#xbf;" horiz-adv-x="1208" d="M137 -334l47 451l254 137h148l37 180h225l-10 -289l-252 -137h-125l-25 -233h287l18 184h287l-31 -293l-252 -137h-385zM561 635l41 389h389l-41 -389h-389z" />
<glyph unicode="&#xc0;" horiz-adv-x="1380" d="M31 0l661 1434h295l363 -1434h-283l-78 309h-536l-140 -309h-282zM492 1869h348l166 -262h-246zM565 555h363l-123 518h-4z" />
<glyph unicode="&#xc1;" horiz-adv-x="1380" d="M31 0l661 1434h295l363 -1434h-283l-78 309h-536l-140 -309h-282zM565 555h363l-123 518h-4zM670 1608l219 262h348l-322 -262h-245z" />
<glyph unicode="&#xc2;" horiz-adv-x="1380" d="M31 0l661 1434h295l363 -1434h-283l-78 309h-536l-140 -309h-282zM428 1607l236 303h389l176 -303h-235l-150 164l-180 -164h-236zM565 555h363l-123 518h-4z" />
<glyph unicode="&#xc3;" horiz-adv-x="1380" d="M31 0l661 1434h295l363 -1434h-283l-78 309h-536l-140 -309h-282zM451 1608l26 254l205 112h57l273 -168h8l18 168h201l-27 -254l-204 -112h-58l-272 168h-8l-19 -168h-200zM565 555h363l-123 518h-4z" />
<glyph unicode="&#xc4;" horiz-adv-x="1380" d="M31 0l661 1434h295l363 -1434h-283l-78 309h-536l-140 -309h-282zM445 1608l28 276h277l-29 -276h-276zM565 555h363l-123 518h-4zM934 1608l29 276h276l-28 -276h-277z" />
<glyph unicode="&#xc5;" horiz-adv-x="1380" d="M31 0l585 1270l-120 76l45 428l176 96h330l159 -96l-45 -428l-133 -72l322 -1274h-283l-78 309h-536l-140 -309h-282zM565 555h363l-123 518h-4zM721 1444h235l23 231h-236z" />
<glyph unicode="&#xc6;" horiz-adv-x="1949" d="M-51 0l1155 1434h903l-27 -246h-571l-33 -328h449l-27 -246h-448l-39 -368h571l-24 -246h-859l31 309h-532l-246 -309h-303zM694 555h363l55 518h-4z" />
<glyph unicode="&#xc7;" horiz-adv-x="1382" d="M186 127l125 1180l252 137h580l223 -137l-31 -293h-286l18 184h-481l-101 -962h482l18 184h287l-31 -293l-252 -137h-198l-58 -86l127 -78l-20 -193l-189 -102h-225l18 164h203l10 92h-194l137 203h-190z" />
<glyph unicode="&#xc8;" horiz-adv-x="1124" d="M174 0l150 1434h858l-27 -246h-571l-33 -328h448l-26 -246h-449l-39 -368h572l-25 -246h-858zM431 1869h348l166 -262h-246z" />
<glyph unicode="&#xc9;" horiz-adv-x="1124" d="M174 0l150 1434h858l-27 -246h-571l-33 -328h448l-26 -246h-449l-39 -368h572l-25 -246h-858zM547 1608l219 262h348l-321 -262h-246z" />
<glyph unicode="&#xca;" horiz-adv-x="1124" d="M174 0l150 1434h858l-27 -246h-571l-33 -328h448l-26 -246h-449l-39 -368h572l-25 -246h-858zM340 1607l236 303h389l176 -303h-235l-150 164l-180 -164h-236z" />
<glyph unicode="&#xcb;" horiz-adv-x="1124" d="M174 0l150 1434h858l-27 -246h-571l-33 -328h448l-26 -246h-449l-39 -368h572l-25 -246h-858zM352 1608l29 276h276l-28 -276h-277zM842 1608l28 276h277l-29 -276h-276z" />
<glyph unicode="&#xcc;" horiz-adv-x="634" d="M113 1869h348l166 -262h-246zM174 0l150 1434h286l-149 -1434h-287z" />
<glyph unicode="&#xcd;" horiz-adv-x="634" d="M174 0l150 1434h286l-149 -1434h-287zM260 1608l219 262h348l-321 -262h-246z" />
<glyph unicode="&#xce;" horiz-adv-x="634" d="M45 1607l236 303h389l176 -303h-235l-150 164l-180 -164h-236zM174 0l150 1434h286l-149 -1434h-287z" />
<glyph unicode="&#xcf;" horiz-adv-x="634" d="M61 1608l29 276h277l-29 -276h-277zM174 0l150 1434h286l-149 -1434h-287zM551 1608l29 276h276l-29 -276h-276z" />
<glyph unicode="&#xd0;" horiz-adv-x="1464" d="M90 575l21 193h143l70 666h878l223 -138l-120 -1159l-252 -137h-879l59 575h-143zM485 246h543l98 942h-542l-43 -420h196l-20 -193h-197z" />
<glyph unicode="&#xd1;" horiz-adv-x="1525" d="M174 0l150 1434h268l520 -928h4l98 928h287l-149 -1434h-269l-522 928h-4l-96 -928h-287zM514 1608l27 254l205 113h57l272 -168h9l18 168h201l-27 -254l-205 -113h-57l-272 168h-9l-18 -168h-201z" />
<glyph unicode="&#xd2;" horiz-adv-x="1464" d="M186 127l125 1180l252 137h641l223 -137l-124 -1180l-252 -137h-641zM485 236h543l100 962h-542zM533 1869h348l166 -262h-246z" />
<glyph unicode="&#xd3;" horiz-adv-x="1464" d="M186 127l125 1180l252 137h641l223 -137l-124 -1180l-252 -137h-641zM485 236h543l100 962h-542zM670 1608l219 262h348l-322 -262h-245z" />
<glyph unicode="&#xd4;" horiz-adv-x="1464" d="M186 127l125 1180l252 137h641l223 -137l-124 -1180l-252 -137h-641zM479 1607l236 303h389l176 -303h-235l-150 164l-180 -164h-236zM485 236h543l100 962h-542z" />
<glyph unicode="&#xd5;" horiz-adv-x="1464" d="M186 127l125 1180l252 137h641l223 -137l-124 -1180l-252 -137h-641zM485 236h543l100 962h-542zM492 1608l26 254l205 112h57l273 -168h8l18 168h201l-27 -254l-204 -112h-58l-272 168h-8l-19 -168h-200z" />
<glyph unicode="&#xd6;" horiz-adv-x="1464" d="M186 127l125 1180l252 137h641l223 -137l-124 -1180l-252 -137h-641zM485 236h543l100 962h-542zM486 1608l28 276h277l-29 -276h-276zM975 1608l29 276h276l-28 -276h-277z" />
<glyph unicode="&#xd7;" horiz-adv-x="1290" d="M131 195l375 337l-303 338l215 195l303 -338l373 338l174 -195l-373 -338l301 -337l-213 -195l-303 338l-373 -338z" />
<glyph unicode="&#xd8;" horiz-adv-x="1464" d="M186 127l125 1180l252 137h641l223 -137l-124 -1180l-252 -137h-641zM508 461l518 737h-440zM586 236h442l76 737z" />
<glyph unicode="&#xd9;" horiz-adv-x="1464" d="M186 127l138 1307h286l-123 -1178h543l123 1178h287l-137 -1307l-252 -137h-641zM512 1869h348l166 -262h-246z" />
<glyph unicode="&#xda;" horiz-adv-x="1464" d="M186 127l138 1307h286l-123 -1178h543l123 1178h287l-137 -1307l-252 -137h-641zM700 1608l220 262h348l-322 -262h-246z" />
<glyph unicode="&#xdb;" horiz-adv-x="1464" d="M186 127l138 1307h286l-123 -1178h543l123 1178h287l-137 -1307l-252 -137h-641zM475 1607l236 303h389l176 -303h-235l-150 164l-180 -164h-236z" />
<glyph unicode="&#xdc;" horiz-adv-x="1464" d="M186 127l138 1307h286l-123 -1178h543l123 1178h287l-137 -1307l-252 -137h-641zM485 1608l29 276h277l-29 -276h-277zM975 1608l29 276h276l-29 -276h-276z" />
<glyph unicode="&#xdd;" horiz-adv-x="1271" d="M180 1434h312l235 -537h4l348 537h312l-549 -824l-64 -610h-286l63 612zM588 1607l219 262h348l-321 -262h-246z" />
<glyph unicode="&#xde;" horiz-adv-x="1320" d="M174 0l156 1495h286l-26 -262h469l223 -137l-72 -670l-252 -137h-469l-28 -289h-287zM516 535h420l47 452h-420z" />
<glyph unicode="&#xdf;" horiz-adv-x="1382" d="M115 618l26 246h185l45 432l252 138h456l224 -138l-48 -450l-161 -88l200 -121l-51 -500l-252 -137h-340l25 246h291l39 372h-291l26 246h230l33 324h-359l-168 -1598h-287l109 1028h-184z" />
<glyph unicode="&#xe0;" d="M166 127l82 770l252 137h248l135 -84l155 84h136l-111 -1044h-135l-137 84l-154 -84h-248zM449 1470h348l166 -262h-246zM457 229h350l59 566h-350z" />
<glyph unicode="&#xe1;" d="M166 127l82 770l252 137h248l135 -84l155 84h136l-111 -1044h-135l-137 84l-154 -84h-248zM457 229h350l59 566h-350zM506 1208l219 262h348l-321 -262h-246z" />
<glyph unicode="&#xe2;" d="M166 127l82 770l252 137h248l135 -84l155 84h136l-111 -1044h-135l-137 84l-154 -84h-248zM342 1208l236 303h389l176 -303h-235l-150 164l-180 -164h-236zM457 229h350l59 566h-350z" />
<glyph unicode="&#xe3;" d="M166 127l82 770l252 137h248l135 -84l155 84h136l-111 -1044h-135l-137 84l-154 -84h-248zM371 1198l26 254l205 113h57l273 -168h8l18 168h201l-26 -254l-205 -113h-58l-272 168h-8l-19 -168h-200zM457 229h350l59 566h-350z" />
<glyph unicode="&#xe4;" d="M166 127l82 770l252 137h248l135 -84l155 84h136l-111 -1044h-135l-137 84l-154 -84h-248zM367 1219l28 276h277l-29 -276h-276zM457 229h350l59 566h-350zM856 1219l29 276h276l-28 -276h-277z" />
<glyph unicode="&#xe5;" d="M166 127l82 770l252 137h248l135 -84l155 84h136l-111 -1044h-135l-137 84l-154 -84h-248zM422 1264l45 428l178 96h330l158 -96l-46 -428l-178 -97h-329zM457 229h350l59 566h-350zM647 1362h236l24 231h-235z" />
<glyph unicode="&#xe6;" horiz-adv-x="1685" d="M125 127l37 354l252 137h331l19 166h-467l25 240h469l120 -76l158 86h334l223 -137l-53 -489h-569l-17 -168h569l-24 -240h-612l-172 104l-213 -114h-187zM416 225h289l18 178h-289zM1026 618h289l18 177h-289z" />
<glyph unicode="&#xe7;" horiz-adv-x="1054" d="M168 137l78 750l252 137h551l-25 -240h-508l-57 -544h508l-25 -240h-215l-65 -96l126 -78l-20 -193l-188 -102h-226l19 164h202l11 92h-195l146 213h-146z" />
<glyph unicode="&#xe8;" horiz-adv-x="1157" d="M168 137l80 760l252 137h374l224 -137l-54 -489h-569l-16 -168h569l-24 -240h-613zM431 1470h348l166 -262h-246zM498 618h288l19 177h-289z" />
<glyph unicode="&#xe9;" horiz-adv-x="1157" d="M168 137l80 760l252 137h374l224 -137l-54 -489h-569l-16 -168h569l-24 -240h-613zM498 618h288l19 177h-289zM526 1208l219 262h349l-322 -262h-246z" />
<glyph unicode="&#xea;" horiz-adv-x="1157" d="M168 137l80 760l252 137h374l224 -137l-54 -489h-569l-16 -168h569l-24 -240h-613zM315 1208l236 303h389l176 -303h-235l-150 164l-180 -164h-236zM498 618h288l19 177h-289z" />
<glyph unicode="&#xeb;" horiz-adv-x="1157" d="M168 137l80 760l252 137h374l224 -137l-54 -489h-569l-16 -168h569l-24 -240h-613zM338 1219l29 276h276l-29 -276h-276zM498 618h288l19 177h-289zM827 1219l29 276h277l-29 -276h-277z" />
<glyph unicode="&#xec;" horiz-adv-x="587" d="M72 1470h348l166 -262h-246zM154 0l106 1024h281l-107 -1024h-280z" />
<glyph unicode="&#xed;" horiz-adv-x="587" d="M154 0l106 1024h281l-107 -1024h-280zM256 1208l219 262h348l-321 -262h-246z" />
<glyph unicode="&#xee;" horiz-adv-x="587" d="M20 1208l236 303h389l176 -303h-235l-150 164l-180 -164h-236zM154 0l106 1024h281l-107 -1024h-280z" />
<glyph unicode="&#xef;" horiz-adv-x="587" d="M39 1219l29 276h276l-29 -276h-276zM154 0l106 1024h281l-107 -1024h-280zM528 1219l29 276h277l-29 -276h-277z" />
<glyph unicode="&#xf0;" horiz-adv-x="1320" d="M186 127l62 586l252 137h303l137 -84l16 156h-219l21 192h219l8 84h-448l26 246h498l223 -137l-20 -193h120l-20 -192h-121l-84 -795l-252 -137h-497zM485 236h400l39 368h-400z" />
<glyph unicode="&#xf1;" d="M154 0l108 1034h232l38 -84l156 84h248l223 -137l-94 -897h-281l82 795h-350l-82 -795h-280zM370 1198l27 254l205 113h57l272 -168h9l18 168h201l-27 -254l-205 -113h-57l-272 168h-9l-18 -168h-201z" />
<glyph unicode="&#xf2;" d="M166 127l82 770l252 137h436l223 -137l-82 -770l-252 -137h-436zM451 1470h348l166 -262h-246zM457 229h350l59 566h-350z" />
<glyph unicode="&#xf3;" d="M166 127l82 770l252 137h436l223 -137l-82 -770l-252 -137h-436zM457 229h350l59 566h-350zM526 1208l219 262h349l-322 -262h-246z" />
<glyph unicode="&#xf4;" d="M166 127l82 770l252 137h436l223 -137l-82 -770l-252 -137h-436zM348 1208l236 303h389l176 -303h-235l-150 164l-180 -164h-236zM457 229h350l59 566h-350z" />
<glyph unicode="&#xf5;" d="M166 127l82 770l252 137h436l223 -137l-82 -770l-252 -137h-436zM371 1198l26 254l205 113h57l273 -168h8l18 168h201l-26 -254l-205 -113h-58l-272 168h-8l-19 -168h-200zM457 229h350l59 566h-350z" />
<glyph unicode="&#xf6;" d="M166 127l82 770l252 137h436l223 -137l-82 -770l-252 -137h-436zM363 1219l28 276h277l-29 -276h-276zM457 229h350l59 566h-350zM852 1219l29 276h276l-28 -276h-277z" />
<glyph unicode="&#xf7;" horiz-adv-x="1249" d="M135 416l27 254h1065l-27 -254h-1065zM442 -63l37 348h348l-36 -348h-349zM535 801l34 348h349l-35 -348h-348z" />
<glyph unicode="&#xf8;" d="M166 127l82 770l252 137h436l223 -137l-82 -770l-252 -137h-436zM475 406l307 389h-266zM541 229h266l41 387z" />
<glyph unicode="&#xf9;" d="M166 127l94 897h281l-84 -795h350l84 795h280l-108 -1034h-232l-40 84l-154 -84h-248zM492 1470h348l166 -262h-246z" />
<glyph unicode="&#xfa;" d="M166 127l94 897h281l-84 -795h350l84 795h280l-108 -1034h-232l-40 84l-154 -84h-248zM547 1208l219 262h348l-321 -262h-246z" />
<glyph unicode="&#xfb;" d="M166 127l94 897h281l-84 -795h350l84 795h280l-108 -1034h-232l-40 84l-154 -84h-248zM348 1208l236 303h389l176 -303h-235l-150 164l-180 -164h-236z" />
<glyph unicode="&#xfc;" d="M166 127l94 897h281l-84 -795h350l84 795h280l-108 -1034h-232l-40 84l-154 -84h-248zM362 1219l29 276h277l-29 -276h-277zM852 1219l29 276h276l-29 -276h-276z" />
<glyph unicode="&#xfd;" horiz-adv-x="1116" d="M137 1024h281l188 -602h4l301 602h281l-727 -1434h-277l240 482zM506 1208l219 262h348l-321 -262h-246z" />
<glyph unicode="&#xfe;" horiz-adv-x="1198" d="M88 -410l201 1905h280l-57 -545l156 84h268l223 -137l-82 -770l-252 -137h-268l-137 84l-51 -484h-281zM436 229h371l59 566h-370z" />
<glyph unicode="&#xff;" horiz-adv-x="1116" d="M137 1024h281l188 -602h4l301 602h281l-727 -1434h-277l240 482zM322 1219l28 276h277l-29 -276h-276zM811 1219l29 276h276l-29 -276h-276z" />
<glyph unicode="&#x152;" horiz-adv-x="1953" d="M188 137l121 1159l252 138h1450l-26 -246h-572l-33 -328h449l-27 -246h-448l-39 -368h571l-24 -246h-1450zM485 246h543l98 942h-542z" />
<glyph unicode="&#x153;" horiz-adv-x="1787" d="M166 127l82 770l252 137h395l127 -80l149 80h334l224 -137l-54 -489h-569l-16 -168h569l-25 -240h-571l-123 74l-156 -84h-395zM457 229h350l59 566h-350zM1128 618h289l19 177h-289z" />
<glyph unicode="&#x178;" horiz-adv-x="1271" d="M180 1434h312l235 -537h4l348 537h312l-549 -824l-64 -610h-286l63 612zM389 1608l28 276h277l-29 -276h-276zM878 1608l29 276h276l-28 -276h-277z" />
<glyph unicode="&#x2c6;" horiz-adv-x="1087" d="M270 1208l236 303h389l176 -303h-235l-150 164l-180 -164h-236z" />
<glyph unicode="&#x2dc;" horiz-adv-x="1036" d="M268 1198l27 254l205 113h57l272 -168h9l18 168h201l-27 -254l-205 -113h-57l-272 168h-9l-18 -168h-201z" />
<glyph unicode="&#x2000;" horiz-adv-x="987" />
<glyph unicode="&#x2001;" horiz-adv-x="1975" />
<glyph unicode="&#x2002;" horiz-adv-x="987" />
<glyph unicode="&#x2003;" horiz-adv-x="1975" />
<glyph unicode="&#x2004;" horiz-adv-x="658" />
<glyph unicode="&#x2005;" horiz-adv-x="493" />
<glyph unicode="&#x2006;" horiz-adv-x="329" />
<glyph unicode="&#x2007;" horiz-adv-x="329" />
<glyph unicode="&#x2008;" horiz-adv-x="246" />
<glyph unicode="&#x2009;" horiz-adv-x="395" />
<glyph unicode="&#x200a;" horiz-adv-x="109" />
<glyph unicode="&#x2010;" horiz-adv-x="917" d="M174 406l29 260h651l-29 -260h-651z" />
<glyph unicode="&#x2011;" horiz-adv-x="917" d="M174 406l29 260h651l-29 -260h-651z" />
<glyph unicode="&#x2012;" horiz-adv-x="917" d="M174 406l29 260h651l-29 -260h-651z" />
<glyph unicode="&#x2013;" horiz-adv-x="1445" d="M174 406l29 260h1179l-28 -260h-1180z" />
<glyph unicode="&#x2014;" horiz-adv-x="2015" d="M174 406l29 260h1749l-29 -260h-1749z" />
<glyph unicode="&#x2018;" horiz-adv-x="737" d="M246 696l18 168l287 631h168l-84 -799h-389z" />
<glyph unicode="&#x2019;" horiz-adv-x="737" d="M246 696l84 799h389l-17 -168l-288 -631h-168z" />
<glyph unicode="&#x201a;" horiz-adv-x="778" d="M150 -410l83 799h390l-17 -168l-289 -631h-167z" />
<glyph unicode="&#x201c;" horiz-adv-x="1310" d="M246 696l18 168l287 631h168l-84 -799h-389zM819 696l19 168l286 631h168l-84 -799h-389z" />
<glyph unicode="&#x201d;" horiz-adv-x="1310" d="M246 696l84 799h389l-17 -168l-288 -631h-168zM819 696l84 799h389l-16 -168l-289 -631h-168z" />
<glyph unicode="&#x201e;" horiz-adv-x="1351" d="M150 -410l83 799h390l-17 -168l-289 -631h-167zM723 -410l84 799h389l-16 -168l-289 -631h-168z" />
<glyph unicode="&#x2022;" horiz-adv-x="1167" d="M242 459l53 504l252 137h303l223 -137l-53 -504l-252 -137h-303z" />
<glyph unicode="&#x2026;" horiz-adv-x="2134" d="M195 0l38 389h390l-39 -389h-389zM872 0l39 389h389l-38 -389h-390zM1550 0l39 389h389l-39 -389h-389z" />
<glyph unicode="&#x202f;" horiz-adv-x="395" />
<glyph unicode="&#x2039;" horiz-adv-x="880" d="M213 389l27 250l573 389l-29 -280l-358 -232v-2l309 -233l-28 -281z" />
<glyph unicode="&#x203a;" horiz-adv-x="880" d="M174 0l29 281l358 233v2l-309 232l29 280l491 -389l-27 -250z" />
<glyph unicode="&#x205f;" horiz-adv-x="493" />
<glyph unicode="&#x20ac;" horiz-adv-x="1400" d="M100 469l19 193h157l13 110h-158l21 193h157l37 342l252 137h563l223 -137l-30 -293h-287l18 184h-464l-25 -233h436l-131 -193h-326l-12 -110h262l-129 -193h-151l-25 -233h465l19 184h286l-30 -293l-252 -137h-564l-223 137l37 342h-158z" />
<glyph unicode="&#x2122;" horiz-adv-x="1742" d="M264 1251l19 183h563l-19 -183h-188l-61 -583h-185l62 583h-191zM834 668l79 766h215l140 -473h4l233 473h213l-80 -766h-180l37 350h-4l-178 -350h-156l-100 350h-4l-37 -350h-182z" />
<glyph unicode="&#x25fc;" horiz-adv-x="1024" d="M0 0v1024h1024v-1024h-1024z" />
<glyph unicode="&#xfb01;" horiz-adv-x="1425" d="M154 784l24 240h189l34 334l252 137h785l-25 -240h-741l-25 -231h287l-25 -240h-286l-82 -784h-281l82 784h-188zM991 0l107 1024h280l-106 -1024h-281z" />
<glyph unicode="&#xfb02;" horiz-adv-x="1507" d="M154 784l24 240h189l34 334l252 137h774l-131 -1255h205l-24 -240h-248l-223 137l116 1118h-450l-25 -231h287l-25 -240h-286l-82 -784h-281l82 784h-188z" />
<glyph unicode="&#xfb03;" horiz-adv-x="2263" d="M154 784l24 240h189l34 334l252 137h371l-25 -240h-327l-25 -231h516l35 334l252 137h825l-24 -240h-783l-24 -231h328l-25 -240h-328l-82 -784h-280l82 784h-516l-82 -784h-281l82 784h-188zM1829 0l106 1024h281l-107 -1024h-280z" />
<glyph unicode="&#xfb04;" horiz-adv-x="2344" d="M154 784l24 240h189l34 334l252 137h391l-24 -240h-348l-25 -231h557l35 334l252 137h774l-131 -1255h205l-25 -240h-248l-223 137l117 1118h-451l-24 -231h266l-25 -240h-266l-82 -784h-280l82 784h-557l-82 -784h-281l82 784h-188z" />
</font>
</defs>
</svg>
