<?xml version="1.0" standalone="no"?>
<!DOCTYPE svg PUBLIC "-//W3C//DTD SVG 1.1//EN" "http://www.w3.org/Graphics/SVG/1.1/DTD/svg11.dtd" >
<svg xmlns="http://www.w3.org/2000/svg">
<metadata>
Created by FontPrep 20130207 at Tue Apr 28 17:57:58 2015
 By Andrew Poes
Copyright (c) 2011, Jovanny Lemonad (lemonad@jovanny.ru), with Reserved Font Name "Nixie"
</metadata>
<defs>
<font id="43a7326831960893e947611ec2c57f15" horiz-adv-x='1024' >
  <font-face 
    font-family="NixieOne"
    font-weight="400"
    font-stretch="normal"
    units-per-em="2048"
    panose-1="2 0 5 3 8 0 0 2 0 4"
    ascent="1638"
    descent="-410"
    x-height="1024"
    cap-height="1434"
    bbox="-300.889 -430 2271 1884"
    underline-thickness="102"
    underline-position="-102"
    unicode-range="U+0020-2122"
  />
<missing-glyph horiz-adv-x="1024" 
 />
    <glyph glyph-name=".notdef" horiz-adv-x="1024" 
 />
    <glyph glyph-name=".null" horiz-adv-x="0" 
 />
    <glyph glyph-name="nonmarkingreturn" horiz-adv-x="681" 
 />
    <glyph glyph-name="space" unicode=" " horiz-adv-x="573" 
 />
    <glyph glyph-name="exclam" unicode="!" horiz-adv-x="548" 
d="M236 379v1024q0 31 30 31t31 -31v-1024q-1 -31 -31 -31t-30 31zM369 82q0 -47 -28 -75t-75 -28t-76 27q-27 29 -26 76q0 47 28 75q28 27 74 27q47 0 75 -28t28 -74z" />
    <glyph glyph-name="quotedbl" unicode="&#x22;" horiz-adv-x="643" 
d="M424 973v430q0 31 31 31t30 -31v-430q-1 -31 -31 -31t-30 31zM158 973v430q0 31 30 31t31 -31v-430q-1 -31 -31 -31t-30 31z" />
    <glyph glyph-name="numbersign" unicode="#" horiz-adv-x="1556" 
d="M598 981l-131 -528h489l134 528h-492zM104 453h299l134 528h-293q-31 0 -31 31t31 30h307l92 367q8 25 29 25q6 0 8 -2q31 -6 22 -37l-88 -353h490l92 367q8 25 29 25q6 0 8 -2q31 -6 22 -37l-88 -353h285q31 0 31 -30t-31 -31h-301l-131 -528h293q31 0 31 -31t-31 -31
h-309l-91 -366q-8 -25 -28 -25q-6 0 -8 2q-31 6 -23 37l88 352h-491l-91 -366q-8 -25 -28 -25q-6 0 -8 2q-31 6 -23 37l88 352h-285q-31 0 -30 31q-1 31 30 31z" />
    <glyph glyph-name="dollar" unicode="$" horiz-adv-x="1277" 
d="M606 1393h-12q-207 0 -308 -85t-102 -212q0 -154 178 -234q70 -30 150 -55q72 -18 94 -27v613zM668 41h18q215 0 328 91q112 91 112 241q-1 199 -329 282l-129 37v-651zM606 -133v117q-31 2 -84 14q-172 43 -305 156q-33 29 -33 -21v-102q0 -31 -30 -31t-31 31v389
q0 31 31 31t30 -31v-154q108 -124 289 -190q57 -20 133 -31v664l-147 43q-76 25 -152 61q-184 90 -184 283q0 156 113 257t358 101h12v113q0 31 31 31t31 -31v-117q47 -8 75 -14q166 -43 299 -156q33 -29 33 20v103q0 31 31 31t31 -31v-389q0 -31 -31 -31t-31 31v143
q-110 126 -282 199q-55 23 -125 33v-625q262 -75 336 -113q184 -90 184 -273t-131 -291t-371 -107h-18v-113q0 -31 -31 -31t-31 31z" />
    <glyph glyph-name="percent" unicode="%" horiz-adv-x="1605" 
d="M915 328q0 -122 80 -205q80 -82 197 -82t197 83q79 83 79 205q0 121 -80 203t-196 82q-117 0 -197 -82t-80 -204zM1192 -20q-148 0 -243 101t-95 247t95 246q95 102 243 102t242 -102q96 -102 96 -246t-95 -246t-243 -102zM324 26q0 14 8 21l887 1370q12 21 41 10
q27 -20 8 -41l-885 -1372q-15 -22 -37 -12t-22 24zM137 1106q0 -123 80 -205t197 -82q116 0 196 82t80 205t-80 205t-196 82t-197 -82q-80 -82 -80 -205zM76 1106q0 146 95 246q95 102 243 102t242 -101q96 -101 96 -247t-96 -246q-96 -102 -242 -102q-148 0 -243 101
t-95 247z" />
    <glyph glyph-name="ampersand" unicode="&#x26;" horiz-adv-x="1431" 
d="M696 1454q113 0 207 -54t150 -143q16 -23 -15 -38q-23 -14 -43 12q-129 162 -299 162q-139 0 -223 -70t-84 -176q0 -133 156 -307l434 -492q18 -20 33 0l241 365q18 20 44 6t6 -43l-248 -371q-16 -25 4 -45l147 -168q27 -31 51 -31h136q31 -1 31 -31t-31 -30h-164
q-25 0 -53 31l-154 174q-23 20 -37 0q-195 -246 -493 -246q-174 1 -287 107t-113 271t104 269t298 150q31 8 2 43q-84 98 -126 179t-42 169q0 141 98 224t270 83zM154 348q0 -145 94 -237q96 -90 244 -91q266 0 448 228q12 14 12 25t-10 22l-356 401q-8 14 -31 15l-20 -4
q-381 -101 -381 -359z" />
    <glyph glyph-name="quotesingle" unicode="'" horiz-adv-x="376" 
d="M158 973v430q0 31 30 31t31 -31v-430q-1 -31 -31 -31t-30 31z" />
    <glyph glyph-name="parenleft" unicode="(" horiz-adv-x="575" 
d="M156 532v205q0 261 76 483t190 361q22 25 46 5t5 -38q-117 -141 -187 -351t-69 -460v-205q0 -250 71 -462t185 -349q18 -18 -6 -40q-23 -16 -45 8q-115 139 -191 360q-75 221 -75 483z" />
    <glyph glyph-name="parenright" unicode=")" horiz-adv-x="575" 
d="M358 737q0 250 -69 460q-70 210 -187 351q-8 8 -8 18t12 20q12 9 21 9l27 -14q114 -139 190 -360t76 -484v-205q0 -262 -76 -483t-190 -360q-14 -14 -27 -15l-18 7q-14 12 -15 24q0 8 8 16q115 135 186 349t70 462v205z" />
    <glyph glyph-name="asterisk" unicode="*" horiz-adv-x="917" 
d="M137 942q0 12 19 21l219 124q10 3 10 13t-10 16l-219 125q-31 14 -15 42t45 11l209 -123q33 -18 33 17v215q0 31 31 31t30 -31v-215q0 -35 33 -17l209 123q29 16 43 -10q6 -10 6 -22t-18 -21l-219 -125q-11 -6 -11 -15t11 -14l219 -124q18 -9 18 -21t-6 -22
q-14 -27 -43 -11l-209 121q-33 18 -33 -16v-205q-1 -31 -31 -31t-30 31v205q0 35 -33 16l-209 -121q-29 -16 -43 11q-6 10 -6 22z" />
    <glyph glyph-name="plus" unicode="+" horiz-adv-x="1026" 
d="M113 686h327q31 0 31 31v338q0 31 31 30q31 0 30 -30v-338q0 -31 31 -31h348q31 0 31 -31t-31 -30h-348q-31 0 -31 -31v-338q0 -31 -30 -31t-31 31v338q0 31 -31 31h-327q-31 1 -31 31t31 30z" />
    <glyph glyph-name="comma" unicode="," horiz-adv-x="495" 
d="M248 184q102 0 102 -123v-30q0 -105 -41 -181t-112 -106q-13 -6 -25 -6t-23 20t15 33q125 55 125 189v16q-29 -16 -59 -16t-58 28q-27 28 -27 74t28 74t75 28z" />
    <glyph glyph-name="hyphen" unicode="-" 
d="M186 686h799q31 0 31 -31t-31 -30h-799q-31 0 -30 30q-1 31 30 31z" />
    <glyph glyph-name="period" unicode="." horiz-adv-x="495" 
d="M145 82q0 47 28 75q28 27 75 27t75 -28q27 -28 27 -74q0 -47 -28 -75t-74 -28q-47 0 -76 27q-27 29 -27 76z" />
    <glyph glyph-name="slash" unicode="/" horiz-adv-x="1060" 
d="M94 0q-40 0 -41 29q0 10 8 18l887 1370q13 22 41 10q28 -21 8 -41l-884 -1372q-9 -14 -19 -14z" />
    <glyph glyph-name="zero" unicode="0" horiz-adv-x="1339" 
d="M669 1392q-206 0 -343 -176q-138 -176 -138 -500t138 -499q138 -176 343 -176q204 0 343 178t139 499t-139 496q-137 178 -343 178zM127 717q0 348 154 543q158 194 390 194t387 -194q154 -194 154 -543q0 -350 -154 -544t-387 -194q-232 0 -390 195q-154 195 -154 543z
" />
    <glyph glyph-name="one" unicode="1" horiz-adv-x="708" 
d="M53 1164q0 11 15 20l262 219q43 31 55 31q41 0 41 -31v-1311q0 -31 31 -31h143q31 -1 31 -31t-31 -30h-410q-31 0 -30 31q0 31 30 30h144q31 0 31 31v1239q0 20 -29 0l-227 -194q-23 -23 -39 -3t-17 30z" />
    <glyph glyph-name="two" unicode="2" horiz-adv-x="1218" 
d="M614 1454q217 0 344 -117t127 -260t-93 -249t-226 -185l-262 -143q-128 -68 -224 -159t-96 -198v-51q0 -31 31 -31h778q31 0 31 31v225q0 31 31 31t30 -31v-286q0 -31 -30 -31h-901q-31 0 -31 31v112q0 119 95 223t224 173l263 145q129 70 224 166t95 221t-111 223
t-299 99q-272 0 -448 -187q-23 -23 -43 0t0 43q208 205 491 205z" />
    <glyph glyph-name="three" unicode="3" horiz-adv-x="1230" 
d="M588 1454q228 0 354 -108q123 -109 123 -271q0 -246 -256 -323q141 -25 219 -122t78 -241q0 -186 -133 -298t-359 -111q-283 0 -491 204q-20 20 0 43t43 0q176 -186 448 -186q203 0 317 93q113 93 113 250t-95 245t-253 88h-215q-31 0 -30 31q0 31 30 30h174
q162 0 255 83q94 83 94 218t-110 225t-310 89q-200 0 -394 -166q-23 -23 -43 0t0 43q213 184 441 184z" />
    <glyph glyph-name="four" unicode="4" horiz-adv-x="1183" 
d="M29 374q0 8 6 21q190 287 225 353q156 294 156 716q0 31 30 31t31 -31q0 -369 -100 -600q-53 -131 -107 -221t-135 -203q-16 -31 23 -30h678q31 0 30 30v586q0 31 31 31t31 -31v-586q0 -31 30 -30h164q31 0 31 -31t-31 -31h-164q-31 0 -30 -31v-307q0 -30 -31 -30t-31 30
v307q0 31 -30 31h-779q-18 0 -24 14q-4 4 -4 12z" />
    <glyph glyph-name="five" unicode="5" 
d="M143 768v635q0 31 31 31h799q31 0 31 -31t-31 -31h-737q-31 0 -31 -31v-481q0 -41 31 -24q162 86 344 86q238 0 366 -120t129 -331q0 -258 -248 -395t-643 -137q-30 1 -30 31t30 30q487 0 709 205q121 109 121 279t-113 272q-113 104 -325 104t-371 -110q-27 -12 -33 -13
q-29 0 -29 31z" />
    <glyph glyph-name="six" unicode="6" horiz-adv-x="1222" 
d="M178 614q0 -274 131 -424t338 -150t320 115t113 311t-127 306q-126 110 -369 109h-334q-29 0 -41 -31q-11 -37 -21 -119t-10 -117zM279 942h315q256 0 401 -129t145 -348t-131 -352q-132 -133 -362 -133t-381 165q-150 168 -149 469q0 365 227 623t592 258q31 0 31 -31
t-31 -30q-330 0 -545 -242q-104 -119 -139 -219q-10 -31 27 -31z" />
    <glyph glyph-name="seven" unicode="7" horiz-adv-x="954" 
d="M932 1434q23 0 29 -25q0 -10 -7 -23l-151 -253q-41 -71 -126 -237t-136 -300q-111 -311 -111 -565q0 -31 -31 -31t-30 31q0 535 493 1310q14 31 -22 31h-748q-31 0 -31 -31v-225q-1 -31 -31 -31t-30 31v287q0 31 31 31h901z" />
    <glyph glyph-name="eight" unicode="8" horiz-adv-x="1318" 
d="M240 1120q0 -120 86 -198q34 -31 104 -65t102 -44l127 -41l125 41q33 10 105 46t102 65q88 76 88 196t-108 196q-109 77 -312 77t-311 -77q-108 -76 -108 -196zM178 348q0 -137 133 -222t348 -85t349 84q133 86 133 223q0 100 -62 162l-41 39q-57 46 -176 88l-63 25
l-140 45l-139 -45l-65 -25q-14 -6 -74 -31t-100 -57l-41 -39q-62 -62 -62 -162zM659 1454q225 0 353 -96t129 -252q0 -109 -72 -195q-23 -27 -93 -71t-183 -90q-27 -10 0 -21q201 -76 268 -123q141 -94 141 -256t-152 -266t-391 -104q-238 0 -391 104q-151 104 -151 264
q6 84 26 134t72 91l61 48q54 31 160 75l90 33q27 10 0 21q-106 41 -196 96q-141 92 -152 260q0 156 128 252t353 96z" />
    <glyph glyph-name="nine" unicode="9" horiz-adv-x="1222" 
d="M1044 819q0 274 -131 424t-338 150t-319 -114q-112 -115 -113 -311q0 -196 126 -306t370 -109h334q29 0 41 33q12 32 21 114t9 119zM944 492h-315q-256 0 -402 129q-145 129 -145 348t131 352t363 133t380 -167q150 -167 150 -468q0 -365 -227 -623t-592 -257
q-31 1 -31 31t31 30q330 0 544 242q105 119 140 219q10 31 -27 31z" />
    <glyph glyph-name="colon" unicode=":" horiz-adv-x="516" 
d="M258 839q-47 0 -76 27q-27 29 -26 76q0 47 28 75q28 27 74 27q47 0 75 -28q27 -28 27 -74q0 -47 -28 -75t-74 -28zM258 -21q-47 0 -76 27q-27 29 -26 76q0 47 28 75q28 27 74 27q47 0 75 -28q27 -28 27 -74q0 -47 -28 -75t-74 -28z" />
    <glyph glyph-name="semicolon" unicode=";" horiz-adv-x="516" 
d="M258 839q-47 0 -76 27q-27 29 -26 76q0 47 28 75q28 27 74 27q47 0 75 -28q27 -28 27 -74q0 -47 -28 -75t-74 -28zM258 184q102 0 102 -123v-30q0 -105 -41 -181t-112 -106q-13 -6 -25 -6t-23 20t15 33q125 55 125 189v16q-29 -16 -59 -16t-58 28q-27 28 -26 74
q0 47 27 75q28 27 75 27z" />
    <glyph glyph-name="less" unicode="&#x3c;" horiz-adv-x="1021" 
d="M880 995q14 0 20 -14q7 -13 7 -25t-16 -22l-703 -406q-29 -18 0 -36l703 -404q16 -12 16 -24t-6 -19q-8 -18 -21 -18t-22 8l-768 442q-23 12 -22 34q0 22 20 34l770 442q8 8 22 8z" />
    <glyph glyph-name="equal" unicode="=" horiz-adv-x="1187" 
d="M195 891h798q31 0 31 -31t-31 -31h-798q-31 0 -31 31t31 31zM195 481h798q31 -1 31 -31t-31 -30h-798q-31 0 -31 30t31 31z" />
    <glyph glyph-name="greater" unicode="&#x3e;" horiz-adv-x="1021" 
d="M144 27q-12 0 -21 13q-8 13 -8 24t16 24l703 404q27 18 0 36l-703 406q-16 10 -16 21t8 25t20 15q12 0 21 -8l770 -442q20 -12 20 -34t-22 -34l-768 -442q-8 -8 -20 -8z" />
    <glyph glyph-name="question" unicode="?" horiz-adv-x="1110" 
d="M440 82q0 47 28 75q28 27 75 27t75 -28t27 -74q0 -47 -28 -75q-29 -28 -75 -28t-75 27q-27 29 -27 76zM72 1044q0 186 126 298t345 112t345 -117t126 -272q0 -197 -154 -317l-131 -97q-156 -113 -156 -272q-1 -31 -31 -31t-30 31q0 172 115 268l211 170q114 91 114 235
t-110 242q-111 98 -300 98t-299 -92q-110 -94 -110 -256q0 -31 -31 -30q-30 -1 -30 30z" />
    <glyph glyph-name="at" unicode="@" horiz-adv-x="1888" 
d="M901 41q158 0 283 143q55 61 98 144v368q-43 82 -98 144q-125 143 -283 143q-157 0 -267 -121t-110 -351t109 -351q110 -119 268 -119zM104 532q0 402 246 662t603 260t604 -260t247 -662q0 -252 -83 -402t-220 -150q-164 0 -219 163q-12 41 -33 21q-164 -184 -346 -184
t-311 139t-129 393t129 393t311 139t346 -184q33 -29 33 21v112q0 31 31 31t30 -31v-768q0 -90 42 -137t116 -47q106 0 174 135t68 356q0 379 -227 619q-222 242 -560 242t-564 -242t-226 -619q0 -376 226 -618t566 -242t506 187q23 23 43 0t0 -43q-187 -205 -549 -205
t-608 260t-246 661z" />
    <glyph glyph-name="A" unicode="A" horiz-adv-x="1482" 
d="M1032 500h-581q-37 0 -50 -29l-145 -379q-14 -31 20 -31h123q31 -1 31 -31t-31 -30h-389q-31 0 -30 31q0 31 30 30h133q25 0 41 31l512 1331q10 31 46 31t44 -31l512 -1331q16 -31 41 -31h134q31 -1 31 -31t-31 -30h-390q-31 0 -30 31q0 31 30 30h123q35 0 21 31
l-146 379q-12 29 -49 29zM742 1333q-8 0 -13 -12l-280 -729q-14 -31 22 -31h541q36 0 22 31l-280 729q-4 12 -12 12z" />
    <glyph glyph-name="B" unicode="B" horiz-adv-x="1333" 
d="M360 686v-594q0 -31 31 -31h440q154 0 241 87t87 241t-87 241t-241 87h-440q-31 0 -31 -31zM360 1341v-532q0 -31 31 -31h369q129 0 213 88t84 214t-84 209t-223 83h-359q-31 0 -31 -31zM924 766q297 -59 297 -391q-1 -167 -103 -271t-287 -104h-706q-31 0 -31 30t31 31
h143q31 0 31 31v1249q0 31 -31 31h-143q-31 0 -31 31t31 31h625q164 0 266 -102t102 -257q0 -217 -194 -309z" />
    <glyph glyph-name="C" unicode="C" horiz-adv-x="1423" 
d="M119 720q0 320 180 523q180 211 465 211q250 0 448 -174q33 -27 33 20v103q0 31 31 31t31 -31v-389q0 -31 -31 -31t-31 31v143q-55 63 -129 117q-168 119 -352 119q-252 0 -418 -193q-166 -194 -166 -486t172 -482t459 -191q287 0 463 186q20 23 43 0t0 -43
q-209 -204 -515 -204t-495 206q-188 214 -188 534z" />
    <glyph glyph-name="D" unicode="D" horiz-adv-x="1503" 
d="M360 1341v-1249q0 -31 31 -31h307q279 1 452 187t173 469t-173 469t-452 186h-307q-31 0 -31 -31zM125 61h143q31 0 31 31v1249q0 31 -31 31h-143q-31 0 -31 31t31 31h573q310 0 498 -206t188 -511t-187 -511t-499 -206h-573q-31 0 -31 30t31 31z" />
    <glyph glyph-name="E" unicode="E" horiz-adv-x="1257" 
d="M125 61h143q31 0 31 31v1249q0 31 -31 31h-143q-31 0 -31 31t31 31h973q31 0 30 -31v-287q0 -31 -30 -31t-31 31v225q0 31 -31 31h-645q-31 0 -31 -31v-553q0 -31 31 -30h461q31 0 31 30v103q1 31 31 31t30 -31v-328q0 -31 -31 -31t-30 31v103q0 31 -31 30h-461
q-31 0 -31 -30v-574q0 -31 31 -31h666q31 0 30 31v225q0 31 31 31t31 -31v-286q0 -31 -31 -31h-993q-31 0 -31 30t31 31z" />
    <glyph glyph-name="F" unicode="F" horiz-adv-x="1200" 
d="M125 61h143q31 0 31 31v1249q0 31 -31 31h-143q-31 0 -31 31t31 31h973q31 0 30 -31v-287q0 -31 -30 -31t-31 31v225q0 31 -31 31h-645q-31 0 -31 -31v-553q0 -31 31 -30h481q31 0 31 30v103q0 31 31 31t31 -31v-328q0 -31 -31 -31t-31 31v103q0 31 -31 30h-481
q-31 0 -31 -30v-574q0 -31 31 -31h164q31 -1 31 -31t-31 -30h-430q-31 0 -31 30t31 31z" />
    <glyph glyph-name="G" unicode="G" horiz-adv-x="1564" 
d="M180 716q0 -292 168 -484t427 -191q259 0 470 235v390q0 31 -31 30h-122q-31 0 -31 31t31 31h389q31 0 31 -31t-31 -31h-144q-31 0 -30 -30v-635q0 -31 -31 -31t-31 31v102q0 47 -33 21q-201 -174 -428 -174q-297 0 -481 209t-184 528t180 528t465 209q248 0 448 -174
q33 -27 33 20v103q0 31 31 31t31 -31v-389q0 -31 -31 -31t-31 31v143q-55 63 -129 117q-168 119 -352 119q-252 0 -418 -193q-166 -192 -166 -484z" />
    <glyph glyph-name="H" unicode="H" horiz-adv-x="1601" 
d="M1241 788v553q0 31 -31 31h-123q-31 0 -30 31q0 31 30 31h390q31 0 31 -31t-31 -31h-144q-31 0 -30 -31v-1249q0 -31 30 -31h144q31 -1 31 -31t-31 -30h-390q-31 0 -30 31q0 31 30 30h123q31 0 31 31v574q0 31 -31 30h-819q-31 0 -31 -30v-574q0 -31 31 -31h123
q31 -1 31 -31t-31 -30h-389q-31 0 -31 31t31 30h143q31 0 31 31v1249q0 31 -31 31h-143q-31 0 -31 31t31 31h389q31 0 31 -31t-31 -31h-123q-31 0 -31 -31v-553q0 -31 31 -30h819q31 -1 31 30z" />
    <glyph glyph-name="I" unicode="I" horiz-adv-x="659" 
d="M125 61h143q31 0 31 31v1249q0 31 -31 31h-143q-31 0 -31 31t31 31h410q31 0 31 -31t-31 -31h-144q-31 0 -31 -31v-1249q0 -31 31 -31h144q31 -1 31 -31t-31 -30h-410q-31 0 -31 30t31 31z" />
    <glyph glyph-name="J" unicode="J" horiz-adv-x="1034" 
d="M397 41q137 0 223 90q85 90 85 248v962q0 31 -31 31h-144q-31 0 -30 31q0 31 30 31h410q31 0 31 -31t-31 -31h-143q-31 0 -31 -31v-962q0 -187 -100 -293t-269 -106q-113 0 -207 53t-149 143q-15 23 11 38t46 -11q129 -162 299 -162z" />
    <glyph glyph-name="K" unicode="K" horiz-adv-x="1425" 
d="M125 61h143q31 0 31 31v1249q0 31 -31 31h-143q-31 0 -31 31t31 31h389q31 0 31 -31t-31 -31h-123q-31 0 -31 -31v-757l697 757q12 11 9 21t-19 10h-134q-31 0 -30 31q0 31 30 31h420q31 0 31 -31t-31 -31h-131q-23 0 -53 -31l-473 -514l534 -735q27 -31 52 -31h133
q31 -1 31 -31t-31 -30h-410q-31 0 -31 31t31 30h133q37 0 10 31l-497 686l-271 -295v-391q0 -31 31 -31h123q31 -1 31 -31t-31 -30h-389q-31 0 -31 30t31 31z" />
    <glyph glyph-name="L" unicode="L" horiz-adv-x="1183" 
d="M125 61h143q31 0 31 31v1249q0 31 -31 31h-143q-31 0 -31 31t31 31h450q31 0 31 -31t-31 -31h-184q-31 0 -31 -31v-1249q0 -31 31 -31h656q31 0 30 31v225q0 31 31 31t31 -31v-286q0 -31 -31 -31h-983q-31 0 -31 30t31 31z" />
    <glyph glyph-name="M" unicode="M" horiz-adv-x="1990" 
d="M125 61h143q31 0 31 31v1249q0 31 -31 31h-143q-31 0 -31 31t31 31h225q35 0 51 -31l574 -1270q20 -39 41 0l573 1270q16 31 51 31h226q30 0 30 -31t-30 -31h-144q-31 0 -30 -31v-1249q0 -31 30 -31h144q30 -1 30 -31t-30 -30h-389q-31 0 -31 31t31 30h122q31 0 31 31
v1198q0 21 -9 18q-3 -1 -7 -8l-574 -1269q-16 -31 -45 -31t-45 31l-573 1269q-14 21 -17 -10v-1198q0 -31 31 -31h123q31 -1 31 -31t-31 -30h-389q-31 0 -31 30t31 31z" />
    <glyph glyph-name="N" unicode="N" horiz-adv-x="1607" 
d="M125 61h143q31 0 31 31v1249q0 31 -31 31h-143q-31 0 -31 31t31 31h225q33 0 51 -31l840 -1280q4 -8 12 -7t9 17v1208q0 31 -31 31h-123q-31 0 -31 31t31 31h389q31 0 31 -31t-31 -31h-143q-31 0 -31 -31v-1249q0 -31 31 -31h143q31 -1 31 -31t-31 -30h-225q-33 0 -51 31
l-840 1280q-4 8 -12 7t-9 -18v-1208q0 -31 31 -31h123q31 -1 31 -31t-31 -30h-389q-31 0 -31 30t31 31z" />
    <glyph glyph-name="O" unicode="O" horiz-adv-x="1609" 
d="M180 717q0 -295 172 -485t453 -191q281 0 453 190q172 189 172 485t-172 486t-454 190q-280 0 -452 -190t-172 -485zM805 -21q-310 0 -498 209t-188 530q0 320 188 528q187 208 497 208t498 -208t189 -528q0 -320 -188 -532q-188 -207 -498 -207z" />
    <glyph glyph-name="P" unicode="P" horiz-adv-x="1296" 
d="M391 635h420q348 0 348 369t-348 368h-420q-31 0 -31 -31v-675q0 -31 31 -31zM811 573h-420q-31 0 -31 -30v-451q0 -31 31 -31h164q31 -1 31 -31t-31 -30h-430q-31 0 -31 31t31 30h143q31 0 31 31v1249q0 31 -31 31h-143q-31 0 -31 31t31 31h686q203 0 306 -110t103 -320
t-102 -321q-104 -110 -307 -110z" />
    <glyph glyph-name="Q" unicode="Q" horiz-adv-x="1611" 
d="M810 41q68 0 120 10q-37 131 -125 131q-94 0 -131 -131q68 -10 136 -10zM1430 717q0 295 -172 485t-454 190q-280 0 -452 -190t-172 -485t172 -486q109 -121 258 -163q59 176 195 176q70 0 114 -44t74 -134q154 43 264 165q173 191 173 486zM1147 -123q67 0 103 28t54 2
t-8 -44q-63 -47 -149 -47q-135 0 -201 176q-66 -12 -141 -12q-309 0 -498 206q-188 213 -188 533q0 319 188 527q187 208 497 208t498 -208t189 -529q0 -263 -127 -455t-354 -254q43 -131 137 -131z" />
    <glyph glyph-name="R" unicode="R" horiz-adv-x="1409" 
d="M360 625v-533q0 -31 31 -31h123q31 -1 31 -31t-31 -30h-389q-31 0 -31 31t31 30h143q31 0 31 31v1249q0 31 -31 31h-143q-31 0 -31 31t31 31h686q197 0 303 -102t106 -288q0 -184 -106 -286t-303 -103h-10q-15 0 -23 -9t2 -21l389 -533q27 -31 52 -31h133q30 -1 30 -31
t-30 -30h-410q-31 0 -31 31t31 30h133q37 0 10 31l-409 563h-287q-31 1 -31 -30zM391 717h420q166 0 257 86q91 85 91 241t-91 242t-257 86h-420q-31 0 -31 -31v-593q0 -31 31 -31z" />
    <glyph glyph-name="S" unicode="S" horiz-adv-x="1320" 
d="M715 41q207 0 319 91t113 241q0 150 -178 229q-85 39 -315 100t-326 111q-184 90 -185 283q0 156 113 257q112 101 358 101t449 -174q33 -29 33 20v103q0 31 30 31t31 -31v-389q0 -31 -31 -31t-30 31v143q-55 63 -129 117q-168 119 -364 119t-297 -85t-101 -212
q0 -154 178 -234q84 -39 314 -100t327 -111q184 -90 184 -273t-131 -291q-131 -107 -383 -107t-456 174q-33 29 -33 -21v-102q0 -31 -31 -31t-31 31v389q0 31 31 31t31 -31v-154q55 -63 131 -112q172 -113 379 -113z" />
    <glyph glyph-name="T" unicode="T" horiz-adv-x="1265" 
d="M53 1106v297q0 31 31 31h1106q31 0 31 -31v-297q0 -31 -31 -31t-31 31v235q0 31 -31 31h-430q-31 0 -30 -31v-1249q0 -31 30 -31h144q30 -1 30 -31t-30 -30h-410q-31 0 -31 31t31 30h143q31 0 31 31v1249q0 31 -31 31h-430q-31 0 -30 -31v-235q0 -31 -31 -31t-31 31z" />
    <glyph glyph-name="U" unicode="U" horiz-adv-x="1589" 
d="M88 1434h389q31 0 31 -31t-31 -31h-123q-31 0 -30 -31v-829q0 -213 133 -342t338 -129t338 129t133 342v829q0 31 -31 31h-123q-31 0 -31 31t31 31h389q31 0 31 -31t-31 -31h-143q-31 0 -31 -31v-829q0 -233 -151 -385q-152 -147 -382 -147t-382 147q-150 150 -150 385
v829q0 31 -31 31h-143q-31 0 -31 31t31 31z" />
    <glyph glyph-name="V" unicode="V" horiz-adv-x="1482" 
d="M10 1434h389q31 0 31 -31t-31 -31h-123q-35 0 -20 -31l473 -1228q4 -12 12 -13q8 0 13 13l473 1228q14 31 -21 31h-123q-31 0 -30 31q0 31 30 31h390q31 0 31 -31t-31 -31h-134q-25 0 -41 -31l-512 -1331q-8 -30 -45 -30t-45 30l-512 1331q-16 31 -41 31h-133
q-31 0 -30 31q-1 31 30 31z" />
    <glyph glyph-name="W" unicode="W" horiz-adv-x="2074" 
d="M10 1434h389q31 0 31 -31t-31 -31h-123q-35 0 -20 -31l367 -1183q4 -12 12 -13q8 0 12 13l350 1245q10 31 41 31t41 -31l348 -1245q4 -12 13 -13q8 0 12 13l367 1183q16 31 -21 31h-123q-31 0 -30 31q0 31 30 31h389q31 0 31 -31t-31 -31h-133q-31 0 -41 -31l-411 -1331
q-8 -30 -39 -30t-39 30l-350 1250q-5 12 -15 12t-14 -12l-348 -1250q-10 -30 -39 -30t-39 30l-412 1331q-8 31 -41 31h-133q-31 0 -30 31q-1 31 30 31z" />
    <glyph glyph-name="X" unicode="X" horiz-adv-x="1353" 
d="M45 61h123q33 0 51 31l410 621q12 18 0 37l-389 591q-18 31 -52 31h-122q-31 0 -31 31t31 31h389q31 0 31 -31t-31 -31h-123q-16 0 -22 -9t1 -22l351 -532q14 -20 28 0l352 532q8 11 2 21t-22 10h-123q-31 0 -31 31t31 31h389q31 0 31 -31t-31 -31h-123q-33 0 -51 -31
l-389 -591q-12 -18 0 -37l410 -621q18 -31 51 -31h123q31 -1 31 -31t-31 -30h-389q-31 0 -31 31t31 30h122q16 -1 22 9t-1 22l-373 563q-14 20 -28 0l-371 -563q-8 -12 -2 -21t22 -10h123q31 -1 31 -31t-31 -30h-389q-31 0 -31 30t31 31z" />
    <glyph glyph-name="Y" unicode="Y" horiz-adv-x="1284" 
d="M10 1434h389q31 0 31 -31t-31 -31h-123q-16 0 -22 -9t2 -22l371 -647q14 -20 28 0l373 647q8 11 2 21t-22 10h-123q-31 0 -31 31t31 31h389q31 0 31 -31t-31 -31h-123q-33 0 -51 -31l-426 -739v-510q0 -31 31 -31h143q31 -1 31 -31t-31 -30h-410q-31 0 -30 31q0 31 30 30
h144q31 0 30 31v506l-428 743q-18 31 -51 31h-123q-31 0 -30 31q-1 31 30 31z" />
    <glyph glyph-name="Z" unicode="Z" horiz-adv-x="1259" 
d="M102 35q0 6 25 47l920 1257q12 13 6 23t-29 10h-819q-31 0 -31 -31v-225q0 -31 -31 -31t-30 31v287q0 31 30 31h983q31 0 31 -35q0 -6 -24 -47l-920 -1258q-12 -12 -6 -22t29 -11h819q31 0 30 31v225q0 31 31 31t31 -31v-286q0 -31 -31 -31h-983q-31 0 -31 35z" />
    <glyph glyph-name="bracketleft" unicode="[" horiz-adv-x="593" 
d="M219 -297v1864q0 31 31 30h266q31 -1 31 -31t-31 -30h-205q-31 0 -30 -31v-1741q0 -31 30 -30h205q31 0 31 -31t-31 -31h-266q-31 0 -31 31z" />
    <glyph glyph-name="backslash" unicode="\" horiz-adv-x="1062" 
d="M55 1403q0 21 33 29q16 0 25 -15l886 -1370q9 -8 9 -21q0 -14 -16 -20t-26 -6t-18 14l-885 1372q-8 8 -8 17z" />
    <glyph glyph-name="bracketright" unicode="]" horiz-adv-x="593" 
d="M78 -266h205q31 0 30 30v1741q0 31 -30 31h-205q-31 0 -31 31t31 30h266q31 0 31 -30v-1864q0 -31 -31 -31h-266q-31 0 -31 31t31 31z" />
    <glyph glyph-name="asciicircum" unicode="^" horiz-adv-x="956" 
d="M913 933q0 -11 -11 -19t-24 -9q-13 0 -24 17l-356 485q-8 12 -20 12t-19 -12l-357 -485q-20 -32 -45 -9q-14 7 -14 19t6 22l395 539q10 18 35 23q20 0 33 -23l395 -539q6 -10 6 -21z" />
    <glyph glyph-name="underscore" unicode="_" horiz-adv-x="1449" 
d="M418 -102h614q31 0 31 -31t-31 -31h-614q-31 0 -31 31t31 31z" />
    <glyph glyph-name="grave" unicode="`" horiz-adv-x="495" 
d="M123 1442q0 12 16 22q25 25 43 -8l183 -260q8 -8 8 -20q-1 -12 -13 -20t-24 -7q-12 0 -21 12l-184 262q-8 7 -8 19z" />
    <glyph glyph-name="a" unicode="a" 
d="M543 1044q172 0 276 -96t105 -241v-615q0 -31 30 -31h144q30 -1 30 -31t-30 -30h-205q-31 0 -31 31v114q0 48 -33 21q-53 -68 -152 -127t-224 -59q-174 0 -272 86q-97 86 -97 219t112 221t298 88h337q31 0 31 31v82q0 119 -90 197t-229 79q-197 0 -332 -104
q-27 -19 -44 5t5 40q150 120 371 120zM862 502q0 31 -31 30h-337q-172 0 -261 -67q-88 -69 -88 -179t81 -178t238 -67q157 0 294 137q61 61 104 139v185z" />
    <glyph glyph-name="b" unicode="b" horiz-adv-x="1226" 
d="M258 1403v-348q0 -31 31 -31h276q261 0 407 -134t146 -379t-122 -388t-328 -143q-127 0 -230 59q-94 59 -147 127q-33 29 -33 -21v-114q0 -31 -31 -31t-30 31v1310q0 31 -31 31h-143q-31 0 -31 31t31 31h204q31 0 31 -31zM258 932v-615q43 -78 104 -139
q136 -137 310 -137t279 126t105 346t-128 335q-129 115 -363 115h-276q-31 0 -31 -31z" />
    <glyph glyph-name="c" unicode="c" horiz-adv-x="1124" 
d="M944 768q-164 215 -395 215q-160 0 -272 -131q-111 -131 -111 -343t117 -340t303 -128q98 0 180 29q82 30 115 54t80 64q20 16 45 -8q20 -25 -2 -43q-172 -157 -404 -157t-363 150q-133 150 -133 384t129 382t327 148t351 -153q33 -31 33 20v82q0 31 31 31t31 -31v-327
q0 -31 -31 -31t-31 31v102z" />
    <glyph glyph-name="d" unicode="d" horiz-adv-x="1292" 
d="M963 932q0 31 -31 31h-277q-233 0 -362 -115t-129 -335t105 -346t279 -126t310 137q62 61 105 139v615zM963 1055v286q0 31 -31 31h-164q-31 0 -31 31t31 31h225q31 0 31 -31v-1311q0 -31 31 -31h143q31 -1 31 -31t-31 -30h-205q-31 0 -30 31v114q0 50 -33 21
q-56 -70 -154 -128t-223 -58q-207 0 -329 143t-122 387t146 380q146 134 407 134h277q31 0 31 31z" />
    <glyph glyph-name="e" unicode="e" horiz-adv-x="1161" 
d="M201 553h776q31 0 31 31q0 164 -121 280q-119 119 -302 119t-300 -131q-99 -110 -113 -268q-4 -31 29 -31zM588 41q98 0 180 29q82 30 115 54t80 64q20 16 45 -8q20 -25 -2 -43q-172 -157 -402 -157t-364 147q-133 152 -134 385q0 232 132 382t347 150q214 0 349 -135
t135 -325v-31q0 -61 -61 -61h-807q-33 0 -31 -31q12 -178 122 -299t296 -121z" />
    <glyph glyph-name="f" unicode="f" horiz-adv-x="847" 
d="M600 1454q154 0 270 -117q27 -27 4 -47t-43 0q-113 102 -233 102t-190 -80q-68 -81 -68 -237v-20q0 -31 31 -31h327q31 0 31 -31t-31 -30h-327q-31 0 -31 -31v-840q0 -31 31 -31h164q31 -1 31 -31t-31 -30h-431q-31 0 -30 31q0 31 30 30h144q31 0 31 31v840q0 31 -31 31
h-144q-30 1 -30 31t30 30h144q31 0 31 31v20q0 184 83 282q84 97 238 97z" />
    <glyph glyph-name="g" unicode="g" horiz-adv-x="1239" 
d="M219 146q-1 10 -29 20t-58 44t-30 75q0 84 109 133q27 16 0 43q-78 87 -78 239t117 248t322 96t319 -75q16 17 60 41t104 24h133q31 0 31 -30v-236q0 -31 -31 -31t-31 31v184q0 31 -31 31h-71q-31 0 -70 -14l-27 -13q-25 -23 -2 -45q78 -92 78 -225q0 -166 -116 -262
t-320 -96q-202 0 -303 65q-67 -18 -99 -41t-32 -67q0 -80 164 -80h256q532 1 532 -317t-532 -318t-533 317q0 71 41 139t113 103q14 6 14 17zM584 389q389 0 389 297t-389 297t-389 -297t389 -297zM584 143q-471 0 -471 -256t471 -256t471 256t-471 256z" />
    <glyph glyph-name="h" unicode="h" horiz-adv-x="1333" 
d="M70 61h143q31 0 31 31v1249q0 31 -31 31h-143q-31 0 -31 31t31 31h204q31 0 31 -31v-524q0 -48 33 -21q166 186 362 186t299 -106q104 -106 105 -303v-543q0 -31 31 -31h143q31 -1 31 -31t-31 -30h-389q-31 0 -31 31t31 30h123q31 0 30 31v543q0 172 -89 260t-245 88
t-296 -139q-66 -70 -107 -137v-615q0 -31 31 -31h123q31 -1 31 -31t-31 -30h-389q-31 0 -31 30t31 31z" />
    <glyph glyph-name="i" unicode="i" horiz-adv-x="585" 
d="M219 1270q0 34 24 58q25 24 59 24t56 -25q25 -23 25 -57t-24 -59q-24 -24 -58 -24t-59 23q-23 25 -23 60zM106 61h144q31 0 31 31v840q0 31 -31 31h-144q-30 1 -30 31t30 30h205q31 0 31 -31v-901q0 -31 31 -31h143q31 -1 31 -31t-31 -30h-410q-31 0 -30 31q-1 30 30 30z
" />
    <glyph glyph-name="j" unicode="j" horiz-adv-x="501" 
d="M2 -369q115 0 178 76t64 221v1004q0 31 -31 31h-143q-31 1 -31 31t31 30h204q31 0 31 -31v-1065q0 -172 -81 -265q-82 -93 -232 -93t-256 117q-27 27 -4 47t43 0q112 -103 227 -103zM182 1270q0 34 24 58t58 24t59 -24q23 -24 23 -58t-24 -59q-24 -24 -58 -24t-59 23
q-23 25 -23 60z" />
    <glyph glyph-name="k" unicode="k" horiz-adv-x="1189" 
d="M70 61h143q31 0 31 31v1249q0 31 -31 31h-143q-31 0 -31 31t31 31h204q31 0 31 -31v-1008l492 537q12 10 9 20t-20 11h-114q-31 1 -31 31t31 30h401q31 0 31 -31t-31 -30h-131q-23 0 -53 -31l-307 -334l368 -506q27 -31 51 -31h134q31 -1 31 -31t-31 -30h-390
q-31 0 -30 31q0 31 30 30h113q37 0 10 31l-331 457l-232 -254v-203q0 -31 31 -31h123q31 -1 31 -31t-31 -30h-389q-31 0 -31 30t31 31z" />
    <glyph glyph-name="l" unicode="l" horiz-adv-x="548" 
d="M70 61h143q31 0 31 31v1249q0 31 -31 31h-143q-31 0 -31 31t31 31h204q31 0 31 -31v-1311q0 -31 31 -31h143q31 -1 31 -31t-31 -30h-409q-31 0 -31 30t31 31z" />
    <glyph glyph-name="m" unicode="m" horiz-adv-x="1964" 
d="M1036 92q0 -31 31 -31h123q31 -1 31 -31t-31 -30h-369q-31 0 -30 31q0 31 30 30h123q31 0 31 31v543q0 164 -80 256t-206 92t-249 -139q-55 -61 -100 -137v-615q0 -31 31 -31h123q30 -1 30 -31t-30 -30h-390q-31 0 -30 31q-1 30 30 30h144q31 0 31 31v840q0 31 -31 31
h-144q-30 1 -30 31t30 30h205q31 0 31 -31v-114q0 -53 33 -21q160 186 315 186q121 0 208 -68t122 -194q43 76 98 131q124 131 274 131t246 -108t97 -301v-543q0 -31 30 -31h144q31 -1 31 -31t-31 -30h-389q-31 0 -31 31t31 30h122q31 0 31 31v543q0 164 -80 256t-208 92
t-253 -143q-55 -61 -98 -144l4 -61v-543z" />
    <glyph glyph-name="n" unicode="n" horiz-adv-x="1368" 
d="M104 61h144q31 0 31 31v840q0 31 -31 31h-144q-30 1 -30 31t30 30h205q31 0 31 -31v-114q0 -48 33 -21q166 186 361 186q196 0 300 -106t105 -303v-543q0 -31 30 -31h144q31 -1 31 -31t-31 -30h-389q-31 0 -31 31t31 30h123q31 0 30 31v543q0 172 -88 260t-246 88
t-297 -139q-61 -61 -106 -137v-615q0 -31 31 -31h123q30 -1 30 -31t-30 -30h-390q-31 0 -30 31q-1 30 30 30z" />
    <glyph glyph-name="o" unicode="o" horiz-adv-x="1212" 
d="M606 983q-200 0 -320 -130t-120 -344t120 -341t320 -127t320 129q121 129 121 341t-120 342t-321 130zM606 1044q226 0 364 -148t138 -384t-138 -384t-364 -148t-363 148q-139 148 -139 384t138 384t364 148z" />
    <glyph glyph-name="p" unicode="p" horiz-adv-x="1273" 
d="M612 0h-276q-31 0 -31 -31v-286q0 -31 31 -31h164q30 0 30 -31t-30 -31h-430q-31 0 -31 31t31 31h143q31 0 31 31v1249q0 31 -31 31h-143q-31 1 -31 31t31 30h204q31 0 31 -31v-114q0 -48 33 -21q55 68 151 127t226 59q205 0 327 -143t123 -387q0 -244 -146 -380
q-147 -134 -407 -134zM336 61h276q236 0 364 115t128 335t-106 346t-277 126q-172 0 -311 -139q-61 -61 -105 -137v-615q0 -31 31 -31z" />
    <glyph glyph-name="q" unicode="q" horiz-adv-x="1253" 
d="M969 -317v286q0 31 -31 31h-276q-260 0 -407 134q-146 134 -146 379t122 388q123 143 328 143q129 0 227 -61q96 -55 150 -125q33 -29 33 21v114q1 31 31 31t30 -31v-1310q0 -31 31 -31h143q31 0 31 -31t-31 -31h-430q-31 0 -31 31t31 31h164q31 0 31 31zM969 92v615
q-43 76 -105 137q-139 139 -311 139q-171 0 -277 -126t-106 -346t129 -335t363 -115h276q31 0 31 31z" />
    <glyph glyph-name="r" unicode="r" horiz-adv-x="1038" 
d="M891 983h-39q-178 0 -307 -91t-205 -226v-574q0 -31 31 -31h164q31 -1 31 -31t-31 -30h-431q-31 0 -30 31q0 31 30 30h144q31 0 31 31v840q0 31 -31 31h-144q-30 1 -30 31t30 30h205q31 0 31 -31v-162q0 -49 33 -14q195 227 479 227h100q31 0 31 -30v-256q0 -31 -31 -31
t-30 31v194q0 31 -31 31z" />
    <glyph glyph-name="s" unicode="s" horiz-adv-x="1134" 
d="M532 983q-168 0 -258 -60q-90 -59 -90 -151t85 -146t339 -90q119 -17 204 -37q84 -20 148 -75t64 -170t-111 -195t-319 -79q-113 0 -214 46t-163 107q-33 33 -33 -20v-82q0 -31 -30 -31t-31 31v327q0 31 31 31t30 -31v-102q43 -61 103 -109q131 -106 306 -106t272 61
q97 60 97 158t-88 148q-70 40 -270 70t-244 42q-115 33 -176 91q-61 57 -61 165t110 189q111 79 307 79t349 -153q31 -27 33 20v82q0 31 30 31t31 -31v-327q0 -31 -31 -31t-30 31v102q-168 215 -390 215z" />
    <glyph glyph-name="t" unicode="t" horiz-adv-x="825" 
d="M297 338q1 -145 65 -221t179 -76t227 102q23 20 43 0t-4 -47q-117 -116 -262 -116t-228 93q-82 93 -81 265v594q0 31 -31 31h-144q-31 1 -31 31t31 30h144q31 0 31 31v348q0 31 30 31t31 -31v-348q0 -31 31 -31h348q31 0 31 -31t-31 -30h-348q-31 0 -31 -31v-594z" />
    <glyph glyph-name="u" unicode="u" horiz-adv-x="1331" 
d="M53 1024h205q31 0 31 -31v-604q0 -172 89 -260t246 -88t294 137q68 72 108 139v615q0 31 -31 31h-143q-31 1 -31 31t31 30h205q31 0 30 -31v-901q0 -31 31 -31h144q30 -1 30 -31t-30 -30h-205q-31 0 -31 31v114q0 48 -33 21q-166 -186 -361 -186t-300 106
q-104 106 -105 303v543q0 31 -30 31h-144q-31 0 -30 30q-1 31 30 31z" />
    <glyph glyph-name="v" unicode="v" horiz-adv-x="1277" 
d="M29 1024h389q31 0 31 -31t-31 -30h-127q-37 0 -21 -31l357 -834q4 -12 12 -12t12 12l357 834q16 31 -21 31h-127q-31 1 -31 31t31 30h389q31 0 31 -31t-31 -30h-133q-27 0 -41 -31l-395 -922q-16 -30 -41 -30t-41 30l-395 922q-14 31 -41 31h-133q-31 1 -31 31t31 30z
" />
    <glyph glyph-name="w" unicode="w" horiz-adv-x="1769" 
d="M29 1024h389q31 0 31 -31t-31 -30h-123q-37 0 -21 -31l277 -785q4 -12 12 -12t12 12l269 846q8 31 41 31t41 -31l268 -846q4 -12 12 -12t13 12l276 785q16 31 -20 31h-123q-31 1 -31 31t31 30h389q31 0 31 -31t-31 -30h-133q-31 0 -41 -31l-326 -922q-8 -30 -35 -30
t-35 30l-266 840q-4 16 -20 16t-21 -16l-266 -840q-8 -30 -35 -30t-35 30l-325 922q-10 31 -41 31h-133q-31 1 -31 31t31 30z" />
    <glyph glyph-name="x" unicode="x" horiz-adv-x="1185" 
d="M76 61h123q25 0 51 31l293 408q12 18 0 37l-283 395q-18 31 -51 31h-123q-31 1 -31 31t31 30h389q31 0 31 -31t-31 -30h-123q-16 1 -23 -9t3 -22l246 -342q14 -20 28 0l248 342q10 12 3 21t-23 10h-123q-31 1 -31 31t31 30h389q31 0 30 -31q0 -31 -30 -30h-123
q-33 0 -51 -31l-283 -395q-12 -18 0 -37l293 -408q27 -31 51 -31h123q31 -1 31 -31t-31 -30h-389q-31 0 -31 31t31 30h123q16 -1 23 9t-3 22l-258 357q-14 20 -28 0l-256 -357q-10 -12 -4 -21t24 -10h123q31 -1 31 -31t-31 -30h-389q-31 0 -31 30t31 31z" />
    <glyph glyph-name="y" unicode="y" horiz-adv-x="1263" 
d="M326 -430q-162 0 -254 117q-27 27 -4 47t43 0q103 -102 207 -102t165 67q61 68 123 229l21 54q8 27 0 49l-424 901q-14 31 -41 31h-133q-31 1 -31 31t31 30h389q31 0 31 -31t-31 -30h-127q-37 0 -21 -31l387 -809q10 -29 23 0l313 809q14 31 -20 31h-127q-31 1 -31 31
t31 30h389q31 0 31 -31t-31 -30h-133q-25 0 -41 -31l-389 -1004q-80 -198 -152 -278t-194 -80z" />
    <glyph glyph-name="z" unicode="z" horiz-adv-x="1101" 
d="M100 35q0 20 25 47l754 848q12 10 6 21t-29 12h-651q-31 0 -31 -31v-195q0 -31 -31 -30q-31 0 -30 30v256q0 31 30 31h826q31 0 30 -35q0 -18 -24 -47l-754 -848q-12 -10 -6 -21t29 -12h653q31 0 31 31v195q0 31 30 30q31 0 31 -30v-256q0 -31 -31 -31h-827q-31 0 -31 35
z" />
    <glyph glyph-name="braceleft" unicode="{" horiz-adv-x="663" 
d="M74 666h20q195 4 195 204v461q0 123 71 195q72 72 195 71h31q30 -1 30 -31t-30 -30h-31q-205 0 -205 -205v-461q0 -180 -143 -235q143 -55 143 -236v-460q0 -205 205 -205h31q30 0 30 -31t-30 -31h-31q-123 0 -195 72t-71 195v460q0 199 -195 205h-20q-31 0 -31 31t31 31
z" />
    <glyph glyph-name="bar" unicode="|" horiz-adv-x="503" 
d="M221 -379v1782q0 31 31 31t31 -31v-1782q0 -31 -31 -31t-31 31z" />
    <glyph glyph-name="braceright" unicode="}" horiz-adv-x="663" 
d="M78 -266h31q205 0 204 205v460q0 180 144 236q-143 55 -144 235v461q0 205 -204 205h-31q-31 0 -31 31t31 30h31q123 1 195 -71t71 -195v-461q0 -201 194 -204h21q31 0 31 -31t-31 -31h-21q-195 -6 -194 -205v-460q0 -123 -72 -195t-194 -72h-31q-31 0 -31 31t31 31z" />
    <glyph glyph-name="asciitilde" unicode="~" horiz-adv-x="1073" 
d="M160 573q0 205 205 205q102 0 184 -98q88 -96 164 -96q143 0 143 143q0 31 31 31t31 -31q0 -205 -205 -205q-98 0 -187 96q-82 98 -161 99q-143 0 -144 -144q0 -31 -31 -30q-30 -1 -30 30z" />
    <glyph glyph-name="uni00A0" unicode="&#xa0;" 
d="M543 1044q172 0 276 -96t105 -241v-615q0 -31 30 -31h144q30 -1 30 -31t-30 -30h-205q-31 0 -31 31v114q0 48 -33 21q-53 -68 -152 -127t-224 -59q-174 0 -272 86q-97 86 -97 219t112 221t298 88h337q31 0 31 31v82q0 119 -90 197t-229 79q-197 0 -332 -104
q-27 -19 -44 5t5 40q150 120 371 120zM862 502q0 31 -31 30h-337q-172 0 -261 -67q-88 -69 -88 -179t81 -178t238 -67q157 0 294 137q61 61 104 139v185zM547 1413q-47 0 -75 -28q-28 -29 -28 -75t27 -75q29 -27 76 -27t75 28t27 75q1 47 -27 75t-75 27zM383 1311
q0 71 46 117t117 46t118 -46q47 -48 47 -118t-47 -116q-47 -47 -118 -47t-118 47q-45 47 -45 117z" />
    <glyph glyph-name="exclamdown" unicode="&#xa1;" horiz-adv-x="491" 
d="M215 -379v1024q0 31 31 31t30 -31v-1024q0 -31 -30 -31t-31 31zM143 942q0 47 28 75q28 27 75 27q46 0 74 -28t28 -74q0 -47 -28 -75t-74 -28t-76 27q-27 29 -27 76z" />
    <glyph glyph-name="cent" unicode="&#xa2;" horiz-adv-x="1183" 
d="M178 509q0 -212 117 -341q109 -115 262 -127v942q-158 -6 -268 -131q-111 -131 -111 -343zM557 -133v115q-186 12 -307 145q-133 153 -133 387t127 380t313 150v113q0 31 31 31t30 -31v-115q166 -18 306 -151q33 -31 32 20v82q0 31 31 31t31 -31v-327q0 -31 -31 -31
t-31 31v102q-143 188 -338 211v-938q203 6 355 147q20 16 45 -8q20 -25 -2 -43q-166 -152 -398 -157v-113q0 -31 -30 -31t-31 31z" />
    <glyph glyph-name="sterling" unicode="&#xa3;" horiz-adv-x="1183" 
d="M104 61q100 0 163 78q62 78 63 219v308q0 31 -31 30h-143q-31 0 -31 31t31 31h143q31 0 31 30v287q0 179 82 279t222 100t225 -88t85 -229q0 -31 -31 -31t-30 31q0 117 -68 187q-69 70 -181 69q-112 0 -178 -82t-65 -236v-287q0 -31 31 -30h246q30 0 30 -31t-30 -31h-246
q-31 0 -31 -30v-308q0 -209 -112 -297h542q94 0 160 67t66 169q1 31 31 31t30 -31q0 -129 -82 -213t-205 -84h-717q-31 0 -30 31q-1 30 30 30z" />
    <glyph glyph-name="currency" unicode="&#xa4;" horiz-adv-x="1337" 
d="M399 1341v-634q0 -31 31 -31h420q170 0 259 89t89 259t-89 259t-259 89h-420q-31 0 -31 -31zM164 61h143q31 0 31 31v277q0 31 -31 30h-143q-31 0 -31 31t31 31h143q31 0 31 31v92q0 31 -31 30h-143q-31 0 -31 31t31 31h143q31 0 31 31v634q0 31 -31 31h-143
q-31 0 -31 31t31 31h686q197 0 303 -106q107 -106 107 -304q0 -197 -106 -303t-304 -107h-420q-31 0 -31 -30v-92q0 -31 31 -31h574q30 0 30 -31t-30 -31h-574q-31 0 -31 -30v-277q0 -31 31 -31h164q31 -1 31 -31t-31 -30h-430q-31 0 -31 30t31 31z" />
    <glyph glyph-name="yen" unicode="&#xa5;" horiz-adv-x="1439" 
d="M88 1434h389q31 0 31 -31t-31 -31h-123q-16 0 -22 -9t2 -22l371 -647q14 -20 28 0l373 647q8 11 2 21t-23 10h-122q-31 0 -31 31t31 31h389q30 0 30 -31t-30 -31h-123q-33 0 -51 -31l-396 -686q-16 -31 21 -30h235q31 0 31 -31t-31 -31h-256q-31 0 -30 -31v-122
q0 -31 30 -31h256q31 0 31 -31t-31 -31h-256q-31 0 -30 -30v-195q0 -31 30 -31h144q30 -1 30 -31t-30 -30h-410q-31 0 -31 31t31 30h143q31 0 31 31v195q0 31 -31 30h-256q-31 0 -30 31q0 31 30 31h256q31 0 31 31v122q0 31 -31 31h-256q-31 0 -30 31q0 31 30 31h236
q33 0 18 30l-395 686q-18 31 -51 31h-123q-31 0 -31 31t31 31z" />
    <glyph glyph-name="brokenbar" unicode="&#xa6;" horiz-adv-x="524" 
d="M231 686v717q0 31 31 31t31 -31v-717q0 -31 -31 -31t-31 31zM231 -379v717q0 31 31 31t31 -31v-717q0 -31 -31 -31t-31 31z" />
    <glyph glyph-name="section" unicode="&#xa7;" horiz-adv-x="1191" 
d="M1051 -82q0 -145 -116 -236t-335 -92q-125 0 -240 36t-172 85q-24 16 -6 41t45 4q49 -36 155 -70t218 -34q190 0 290 73q99 73 99 193q0 84 -54 134t-136 82q-81 32 -227 72t-216 66q-227 86 -227 281q0 92 57 164t160 100q25 10 0 21q-100 41 -152 102t-53 166
q0 145 116 236t335 92q124 0 236 -36t176 -85q24 -16 6 -41t-45 -4q-49 36 -155 70t-218 34q-193 0 -291 -73t-98 -193q0 -84 54 -134t136 -82q81 -32 227 -72t216 -66q227 -86 227 -281q0 -90 -58 -163t-159 -101q-25 -10 0 -21q100 -40 152 -102t53 -166zM190 553
q0 -129 115 -191q58 -32 246 -83l123 -33q160 0 244 63t83 162q0 129 -114 191q-57 33 -246 83l-123 33q-160 0 -244 -64t-84 -161z" />
    <glyph glyph-name="dieresis" unicode="&#xa8;" horiz-adv-x="491" 
d="M410 1311q35 0 57 -25q25 -24 25 -58t-24 -58t-58 -24t-60 23q-23 25 -22 60q0 35 24 59t58 23zM0 1229q0 35 24 59t58 23q34 0 57 -25q25 -24 25 -58t-24 -58t-58 -24t-59 23q-23 25 -23 60z" />
    <glyph glyph-name="copyright" unicode="&#xa9;" horiz-adv-x="1798" 
d="M469 716q0 220 114 354q113 134 285 136t316 -141q33 -25 33 20v82q1 31 31 31t30 -31v-307q0 -31 -31 -31t-30 31v82q-33 43 -101 102q-127 102 -237 103q-152 0 -250 -117q-99 -116 -99 -314t104 -314t275 -115q219 0 346 207q16 23 39 4q26 -15 4 -47
q-145 -225 -389 -226q-199 -1 -319 135t-121 356zM1626 717q0 325 -207 531t-521 206t-520 -206t-206 -532t206 -531t520 -205t521 206t207 531zM111 718q0 342 228 569q228 229 560 229t559 -230q230 -227 230 -569q0 -343 -228 -571t-560 -228q-331 0 -562 227
q-227 231 -227 573z" />
    <glyph glyph-name="ordfeminine" unicode="&#xaa;" horiz-adv-x="860" 
d="M553 1096q0 31 -31 30h-153q-89 0 -137 -39t-48 -100t47 -99t119 -38t124 41q54 41 79 72v133zM123 986q0 94 63 148t183 54h153q31 0 31 31v8q0 156 -164 155q-111 0 -180 -75q-20 -20 -43 0t0 43q76 94 241 94q87 0 147 -60t60 -157v-336q0 -31 31 -31h41q31 0 31 -31
t-31 -30h-102q-31 0 -31 30v52q-91 -91 -198 -92t-169 51t-63 146z" />
    <glyph glyph-name="guillemotleft" unicode="&#xab;" horiz-adv-x="1021" 
d="M428 510q0 17 16 33l381 379q23 20 43 0t0 -43l-350 -351q-18 -18 0 -36l346 -347q20 -23 0 -43t-43 0l-375 373q-18 18 -18 35zM80 510q0 17 16 33l473 471q20 20 43 -2t0 -41l-442 -443q-18 -18 0 -36l438 -439q23 -19 0 -41t-43 -2l-467 465q-18 18 -18 35z" />
    <glyph glyph-name="logicalnot" unicode="&#xac;" horiz-adv-x="1212" 
d="M219 707h799q31 0 31 -31v-215q0 -31 -31 -31t-31 31v153q0 31 -31 31h-737q-31 0 -31 31t31 31z" />
    <glyph glyph-name="uni00AD" unicode="&#xad;" 
d="M186 686h799q31 0 31 -31t-31 -30h-799q-31 0 -30 30q-1 31 30 31z" />
    <glyph glyph-name="registered" unicode="&#xae;" horiz-adv-x="1798" 
d="M694 645v-328q0 -31 31 -30h61q31 0 31 -31t-31 -31h-286q-31 0 -31 31t31 31h102q31 0 31 30v779q0 31 -31 30h-102q-31 0 -31 31t31 31h491q135 0 216 -72t81 -184t-81 -184t-216 -72q-16 0 -23 -9t3 -22l213 -328q29 -31 51 -30h92q31 0 31 -31t-31 -31h-297
q-31 0 -31 31t31 31h68q37 0 10 30l-234 359h-149q-31 0 -31 -31zM694 1096v-328q0 -31 31 -31h266q109 -1 172 55t64 140t-63 139t-173 55h-266q-31 1 -31 -30zM1626 717q0 325 -207 531t-521 206t-520 -206t-206 -532t206 -531t520 -205t521 206t207 531zM111 718
q0 342 228 569q228 229 560 229t559 -230q230 -227 230 -569q0 -343 -228 -571t-560 -228q-331 0 -562 227q-227 231 -227 573z" />
    <glyph glyph-name="degree" unicode="&#xb0;" horiz-adv-x="901" 
d="M174 1106q0 -123 80 -205t197 -82t197 82t79 205q0 123 -80 205q-81 82 -197 82t-196 -82t-80 -205zM113 1106q0 146 95 246q94 102 242 102t243 -101t95 -247t-95 -246q-95 -102 -243 -102t-242 101q-95 101 -95 247z" />
    <glyph glyph-name="plusminus" unicode="&#xb1;" horiz-adv-x="1046" 
d="M123 686h328q31 0 30 31v338q0 31 31 31t31 -31v-338q0 -31 30 -31h349q31 0 30 -31q0 -31 -30 -30h-349q-31 0 -30 -31v-256q0 -31 -31 -31t-31 31v256q0 31 -30 31h-328q-31 1 -31 31t31 30zM123 236h799q30 0 30 -31t-30 -31h-799q-31 0 -31 31t31 31z" />
    <glyph glyph-name="uni00B2" unicode="&#xb2;" horiz-adv-x="821" 
d="M154 829v62q0 86 69 141q70 55 156 76t153 55q72 41 72 97q0 123 -205 122q-125 0 -202 -84q-15 -28 -39 -4t-4 47q102 102 245 103q266 0 267 -184q0 -117 -158 -173l-135 -40q-158 -47 -158 -156q0 -31 31 -31h327q31 0 31 31v51q0 31 31 31t31 -31v-113q0 -31 -31 -30
h-451q-30 -1 -30 30z" />
    <glyph glyph-name="uni00B3" unicode="&#xb3;" horiz-adv-x="780" 
d="M588 963q0 61 -43 97t-121 36h-133q-31 0 -31 30t31 29h133q143 0 143 114t-184 113q-121 0 -190 -75q-20 -20 -44 0t1 43q32 38 100 66t160 28t155 -46t63 -137t-102 -135q123 -45 123 -163q1 -82 -65 -128q-66 -47 -164 -47t-168 30t-107 73q-23 23 0 43t43 0
q34 -37 90 -61t115 -23q195 0 195 113z" />
    <glyph glyph-name="acute" unicode="&#xb4;" horiz-adv-x="249" 
d="M8 1196l182 260q18 31 43 8q27 -14 9 -41l-185 -262q-19 -23 -43 -7t-6 42z" />
    <glyph glyph-name="uni00B5" unicode="&#xb5;" horiz-adv-x="1409" 
d="M106 1024h205q31 0 31 -31v-622q0 -162 91 -246t250 -84t294 143q55 57 102 144v604q0 31 -30 31h-144q-31 1 -31 31t31 30h205q31 0 31 -31v-901q0 -31 30 -31h144q31 -1 31 -31t-31 -30h-205q-31 0 -31 31v114q0 51 -32 21q-166 -186 -357 -186q-246 0 -348 163v-522
q0 -31 -31 -31t-30 31v1311q0 31 -31 31h-144q-31 0 -30 30q-1 31 30 31z" />
    <glyph glyph-name="paragraph" unicode="&#xb6;" horiz-adv-x="1505" 
d="M578 512h92q31 0 30 31v798q0 31 -30 31h-92q-211 0 -326 -110t-115 -320t115 -320t326 -110zM670 451h-92q-231 0 -367 130q-135 130 -135 361q0 232 135 362t367 130h829q31 0 31 -31t-31 -31h-205q-31 0 -31 -31v-1720q-1 -31 -31 -31t-30 31v1720q0 31 -31 31h-286
q-31 0 -31 -31v-1720q0 -31 -31 -31t-31 31v799q1 31 -30 31z" />
    <glyph glyph-name="middot" unicode="&#xb7;" horiz-adv-x="516" 
d="M258 614q-47 0 -76 27q-27 29 -26 76q0 47 28 75t74 28q47 0 75 -28q27 -28 27 -75t-28 -75t-74 -28z" />
    <glyph glyph-name="cedilla" unicode="&#xb8;" horiz-adv-x="235" 
d="M31 -307q143 0 143 82q0 37 -27 59t-75 23h-31q-31 0 -31 30v113q0 31 31 31t31 -31v-82q74 0 118 -40t46 -103q0 -143 -205 -144q-31 0 -31 31t31 31z" />
    <glyph glyph-name="uni00B9" unicode="&#xb9;" horiz-adv-x="632" 
d="M119 1268q0 12 14 20l152 125q43 31 55 31q41 0 41 -31v-522q0 -31 31 -31h82q31 0 30 -31q0 -31 -30 -30h-287q-31 1 -31 31t31 30h82q31 0 30 31v450q0 23 -28 0l-117 -100q-22 -21 -45 2q-10 13 -10 25z" />
    <glyph glyph-name="ordmasculine" unicode="&#xba;" horiz-adv-x="811" 
d="M406 850q102 0 163 71t61 195t-60 196q-62 71 -164 71t-164 -71t-62 -196q0 -126 62 -196t164 -70zM119 1116q0 150 82 239t206 89t203 -90q82 -88 82 -239t-81 -239t-205 -87q-124 0 -207 88q-80 89 -80 239z" />
    <glyph glyph-name="guillemotright" unicode="&#xbb;" horiz-adv-x="1021" 
d="M942 510q0 -16 -18 -35l-467 -465q-23 -23 -43 0t0 43l438 439q18 18 0 36l-442 443q-23 23 0 41t43 2l473 -471q16 -17 16 -33zM594 510q0 -16 -19 -35l-374 -373q-20 -20 -44 0t1 43l346 347q18 18 0 36l-350 351q-25 23 -1 43t44 0l381 -379q16 -17 16 -33z" />
    <glyph glyph-name="onequarter" unicode="&#xbc;" horiz-adv-x="1376" 
d="M705 190q0 8 6 15q109 92 156 186q48 94 48 234q0 31 31 31t31 -31q0 -129 -42 -235t-112 -165h267q31 0 30 31v217q0 31 31 31t31 -31v-217q0 -31 30 -31h62q31 -1 31 -31t-31 -30h-62q-31 0 -30 -31v-113q0 -30 -31 -30t-31 30v113q0 31 -30 31h-359q-20 0 -26 16v10z
M205 26q0 14 8 21l887 1370q12 21 41 10q27 -20 8 -41l-885 -1372q-16 -22 -38 -12t-21 24zM90 1270q0 12 14 20l152 125q43 31 55 31q41 0 41 -31v-522q0 -31 31 -31h82q31 0 31 -31t-31 -30h-287q-31 1 -31 31t31 30h82q31 0 31 31v450q0 20 -29 0l-117 -100
q-22 -23 -45 2q-10 13 -10 25z" />
    <glyph glyph-name="onehalf" unicode="&#xbd;" horiz-adv-x="1380" 
d="M768 31v61q0 86 70 141t156 76t153 56q72 41 72 96q0 123 -205 123q-125 0 -203 -84q-16 -29 -43 0q-23 20 0 43q102 102 246 102q266 0 266 -184q0 -123 -158 -170l-133 -43q-160 -47 -160 -156q0 -31 31 -31h328q31 0 31 31v51q1 31 31 31t30 -31v-112q0 -31 -31 -31
h-450q-31 0 -31 31zM236 0q-40 0 -41 29q0 10 8 18l887 1370q12 22 40 10q29 -20 9 -41l-885 -1372q-8 -14 -18 -14zM80 1270q0 12 14 20l152 125q43 31 55 31q41 0 41 -31v-522q0 -31 31 -31h82q31 0 30 -31q0 -31 -30 -30h-287q-31 1 -31 31t31 30h82q31 0 31 31v450
q0 20 -29 0l-117 -100q-20 -23 -45 2q-10 13 -10 25z" />
    <glyph glyph-name="threequarters" unicode="&#xbe;" horiz-adv-x="1445" 
d="M774 190q0 8 6 15q109 92 157 186t48 234q0 31 31 31t31 -31q0 -129 -42 -235t-112 -165h266q31 0 31 31v217q0 31 31 31t30 -31v-217q0 -31 31 -31h61q31 -1 31 -31t-31 -30h-61q-31 0 -31 -31v-113q0 -31 -30 -30q-31 0 -31 30v113q0 31 -31 31h-358q-21 0 -27 16v10z
M275 26q0 14 8 21l886 1370q12 22 41 10q29 -20 9 -41l-885 -1372q-16 -22 -38 -12t-21 24zM553 963q0 61 -43 97t-121 36h-133q-31 0 -31 30t31 29h133q143 0 143 114t-184 113q-121 0 -190 -75q-23 -20 -43 0q-19 20 7 51q26 30 94 58t159 28q92 0 155 -46q64 -46 64 -137
t-102 -135q123 -45 122 -163q0 -82 -66 -128q-66 -47 -164 -47t-167 30t-106 73q-20 23 0 43t43 0q33 -37 89 -61t115 -23q195 0 195 113z" />
    <glyph glyph-name="questiondown" unicode="&#xbf;" horiz-adv-x="1089" 
d="M553 839q-45 0 -74 29t-28 74q0 45 28 74q29 28 74 28t74 -28t29 -74q0 -45 -30 -74q-28 -29 -73 -29zM82 -41q0 195 174 330l92 71q82 61 128 126t46 159q0 31 31 31t31 -31q0 -186 -154 -307l-131 -94q-156 -113 -156 -285q0 -131 111 -229t300 -98t299 92
q110 94 110 256q0 31 30 30q31 0 31 -30q0 -188 -126 -299t-346 -111t-345 117q-125 112 -125 272z" />
    <glyph glyph-name="Agrave" unicode="&#xc0;" horiz-adv-x="1482" 
d="M1032 500h-581q-37 0 -50 -29l-145 -379q-14 -31 20 -31h123q31 -1 31 -31t-31 -30h-389q-31 0 -30 31q0 31 30 30h133q25 0 41 31l512 1331q10 31 46 31t44 -31l512 -1331q16 -31 41 -31h134q31 -1 31 -31t-31 -30h-390q-31 0 -30 31q0 31 30 30h123q35 0 21 31
l-146 379q-12 29 -49 29zM742 1333q-8 0 -13 -12l-280 -729q-14 -31 22 -31h541q36 0 22 31l-280 729q-4 12 -12 12zM518 1842q0 11 17 22q10 10 22 10t21 -19l182 -260q8 -8 8 -20t-20 -23t-37 9l-185 262q-8 8 -8 19z" />
    <glyph glyph-name="Aacute" unicode="&#xc1;" horiz-adv-x="1482" 
d="M1032 500h-581q-37 0 -50 -29l-145 -379q-14 -31 20 -31h123q31 -1 31 -31t-31 -30h-389q-31 0 -30 31q0 31 30 30h133q25 0 41 31l512 1331q10 31 46 31t44 -31l512 -1331q16 -31 41 -31h134q31 -1 31 -31t-31 -30h-390q-31 0 -30 31q0 31 30 30h123q35 0 21 31
l-146 379q-12 29 -49 29zM742 1333q-8 0 -13 -12l-280 -729q-14 -31 22 -31h541q36 0 22 31l-280 729q-4 12 -12 12zM711 1574q0 12 8 21l182 260q16 36 43 9q32 -20 8 -41l-184 -262q-19 -23 -38 -11t-19 24z" />
    <glyph glyph-name="Acircumflex" unicode="&#xc2;" horiz-adv-x="1482" 
d="M1032 500h-581q-37 0 -50 -29l-145 -379q-14 -31 20 -31h123q31 -1 31 -31t-31 -30h-389q-31 0 -30 31q0 31 30 30h133q25 0 41 31l512 1331q10 31 46 31t44 -31l512 -1331q16 -31 41 -31h134q31 -1 31 -31t-31 -30h-390q-31 0 -30 31q0 31 30 30h123q35 0 21 31
l-146 379q-12 29 -49 29zM742 1333q-8 0 -13 -12l-280 -729q-14 -31 22 -31h541q36 0 22 31l-280 729q-4 12 -12 12zM739 1800q16 0 33 -16l225 -225q16 -14 11 -31q-6 -16 -22 -20t-32 8l-196 194q-18 18 -37 0l-193 -194q-12 -12 -29 -8t-22 21q-4 16 8 30l220 223
q18 18 34 18z" />
    <glyph glyph-name="Atilde" unicode="&#xc3;" horiz-adv-x="1482" 
d="M1032 500h-581q-37 0 -50 -29l-145 -379q-14 -31 20 -31h123q31 -1 31 -31t-31 -30h-389q-31 0 -30 31q0 31 30 30h133q25 0 41 31l512 1331q10 31 46 31t44 -31l512 -1331q16 -31 41 -31h134q31 -1 31 -31t-31 -30h-390q-31 0 -30 31q0 31 30 30h123q35 0 21 31
l-146 379q-12 29 -49 29zM742 1333q-8 0 -13 -12l-280 -729q-14 -31 22 -31h541q36 0 22 31l-280 729q-4 12 -12 12zM485 1559q0 86 40 135q41 49 95 49q94 0 135 -77q42 -77 99 -77q82 0 82 123q0 31 31 31t30 -31q0 -88 -39 -136t-100 -48t-97 39t-65 77t-67 37
q-82 0 -82 -122q0 -31 -31 -31t-31 31z" />
    <glyph glyph-name="Adieresis" unicode="&#xc4;" horiz-adv-x="1482" 
d="M1032 500h-581q-37 0 -50 -29l-145 -379q-14 -31 20 -31h123q31 -1 31 -31t-31 -30h-389q-31 0 -30 31q0 31 30 30h133q25 0 41 31l512 1331q10 31 46 31t44 -31l512 -1331q16 -31 41 -31h134q31 -1 31 -31t-31 -30h-390q-31 0 -30 31q0 31 30 30h123q35 0 21 31
l-146 379q-12 29 -49 29zM742 1333q-8 0 -13 -12l-280 -729q-14 -31 22 -31h541q36 0 22 31l-280 729q-4 12 -12 12zM823 1608q0 34 24 58q25 24 59 24t58 -24t24 -58t-24 -59q-24 -24 -58 -24t-60 23q-23 25 -23 60zM578 1690q35 0 57 -25q25 -23 25 -57t-24 -59
q-24 -24 -58 -24t-60 23q-23 25 -22 60q0 34 24 58t58 24z" />
    <glyph glyph-name="Aring" unicode="&#xc5;" horiz-adv-x="1484" 
d="M842 1556q0 47 -29 75t-72 28t-71 -28t-29 -75q0 -46 29 -74q30 -28 72 -28t71 28t29 74zM742 1333q-8 0 -13 -12l-280 -729q-14 -31 22 -31h541q36 0 22 31l-280 729q-4 12 -12 12zM1032 500h-581q-37 0 -50 -29l-145 -379q-14 -31 20 -31h123q31 -1 31 -31t-31 -30
h-389q-31 0 -30 31q0 31 30 30h133q25 0 41 31l504 1309q-109 37 -108 155q0 70 45 117t117 47t118 -47q47 -47 47 -109q0 -129 -112 -163l503 -1309q16 -31 41 -31h134q31 -1 31 -31t-31 -30h-390q-31 0 -30 31q0 31 30 30h123q35 0 21 31l-146 379q-12 29 -49 29z" />
    <glyph glyph-name="AE" unicode="&#xc6;" horiz-adv-x="1974" 
d="M1016 645v696q0 31 -31 31h-22q-25 0 -41 -31l-387 -696q-14 -31 22 -31h428q31 0 31 31zM1016 92v430q0 31 -31 31h-469q-37 0 -49 -29l-240 -432q-14 -31 21 -31h123q31 -1 31 -31t-31 -30h-389q-31 0 -31 31t31 30h133q25 0 41 31l721 1301q18 41 53 41h885
q31 0 30 -31v-287q-1 -31 -31 -31t-30 31v225q0 31 -31 31h-645q-31 0 -31 -31v-553q0 -31 31 -30h461q31 0 30 30v103q0 31 31 31t31 -31v-328q0 -31 -31 -31t-31 31v103q0 31 -30 30h-461q-31 0 -31 -30v-574q0 -31 31 -31h666q31 0 30 31v225q0 31 31 31t31 -31v-286
q0 -31 -31 -31h-973q-31 0 -31 31t31 30h123q31 0 31 31z" />
    <glyph glyph-name="Ccedilla" unicode="&#xc7;" horiz-adv-x="1425" 
d="M121 720q0 320 180 523q180 211 465 211q250 0 448 -174q33 -27 33 20v103q0 31 31 31t31 -31v-389q0 -31 -31 -31t-31 31v143q-55 63 -129 117q-168 119 -352 119q-252 0 -418 -193q-166 -194 -166 -486t172 -482t459 -191q287 0 463 186q23 23 43 0t0 -43
q-209 -205 -512 -204h-14v-62q75 0 119 -40t44 -103q0 -143 -204 -144q-31 0 -31 31t31 31q143 0 143 82q0 37 -27 59t-75 23h-31q-31 0 -31 30v96q-257 23 -422 203q-188 214 -188 534z" />
    <glyph glyph-name="Egrave" unicode="&#xc8;" horiz-adv-x="1257" 
d="M475 1852q0 11 17 22q10 10 21 10t22 -18l182 -260q8 -8 8 -20t-12 -20q-13 -7 -25 -7t-20 12l-185 262q-8 8 -8 19zM125 61h143q31 0 31 31v1249q0 31 -31 31h-143q-31 0 -31 31t31 31h973q31 0 30 -31v-287q0 -31 -30 -31t-31 31v225q0 31 -31 31h-645q-31 0 -31 -31
v-553q0 -31 31 -30h461q31 0 31 30v103q1 31 31 31t30 -31v-328q0 -31 -31 -31t-30 31v103q0 31 -31 30h-461q-31 0 -31 -30v-574q0 -31 31 -31h666q31 0 30 31v225q0 31 31 31t31 -31v-286q0 -31 -31 -31h-993q-31 0 -31 30t31 31z" />
    <glyph glyph-name="Eacute" unicode="&#xc9;" horiz-adv-x="1257" 
d="M635 1538q-13 0 -25 7t-12 19t8 21l182 260q19 34 43 8q29 -18 9 -41l-185 -262q-8 -12 -20 -12zM125 61h143q31 0 31 31v1249q0 31 -31 31h-143q-31 0 -31 31t31 31h973q31 0 30 -31v-287q0 -31 -30 -31t-31 31v225q0 31 -31 31h-645q-31 0 -31 -31v-553q0 -31 31 -30
h461q31 0 31 30v103q1 31 31 31t30 -31v-328q0 -31 -31 -31t-30 31v103q0 31 -31 30h-461q-31 0 -31 -30v-574q0 -31 31 -31h666q31 0 30 31v225q0 31 31 31t31 -31v-286q0 -31 -31 -31h-993q-31 0 -31 30t31 31z" />
    <glyph glyph-name="Ecircumflex" unicode="&#xca;" horiz-adv-x="1257" 
d="M638 1853q16 0 34 -16l225 -225q20 -23 0 -43t-43 0l-197 194q-18 18 -36 0l-193 -194q-23 -20 -43 0t0 43l219 223q18 18 34 18zM125 61h143q31 0 31 31v1249q0 31 -31 31h-143q-31 0 -31 31t31 31h973q31 0 30 -31v-287q0 -31 -30 -31t-31 31v225q0 31 -31 31h-645
q-31 0 -31 -31v-553q0 -31 31 -30h461q31 0 31 30v103q1 31 31 31t30 -31v-328q0 -31 -31 -31t-30 31v103q0 31 -31 30h-461q-31 0 -31 -30v-574q0 -31 31 -31h666q31 0 30 31v225q0 31 31 31t31 -31v-286q0 -31 -31 -31h-993q-31 0 -31 30t31 31z" />
    <glyph glyph-name="Edieresis" unicode="&#xcb;" horiz-adv-x="1257" 
d="M743 1659q0 35 24 59q25 24 59 23q34 0 58 -24q24 -25 24 -59t-24 -58t-58 -24t-60 23q-23 25 -23 60zM498 1741q35 0 57 -25q25 -24 25 -58t-24 -58t-58 -24t-60 23q-23 25 -22 60q0 35 24 59t58 23zM125 61h143q31 0 31 31v1249q0 31 -31 31h-143q-31 0 -31 31t31 31
h973q31 0 30 -31v-287q0 -31 -30 -31t-31 31v225q0 31 -31 31h-645q-31 0 -31 -31v-553q0 -31 31 -30h461q31 0 31 30v103q1 31 31 31t30 -31v-328q0 -31 -31 -31t-30 31v103q0 31 -31 30h-461q-31 0 -31 -30v-574q0 -31 31 -31h666q31 0 30 31v225q0 31 31 31t31 -31v-286
q0 -31 -31 -31h-993q-31 0 -31 30t31 31z" />
    <glyph glyph-name="Igrave" unicode="&#xcc;" horiz-adv-x="659" 
d="M352 1565q0 -11 -12 -19t-24 -8t-21 12l-184 262q-23 23 8 41q24 24 43 -8l182 -260q8 -8 8 -20zM125 61h143q31 0 31 31v1249q0 31 -31 31h-143q-31 0 -31 31t31 31h410q31 0 31 -31t-31 -31h-144q-31 0 -31 -31v-1249q0 -31 31 -31h144q31 -1 31 -31t-31 -30h-410
q-31 0 -31 30t31 31z" />
    <glyph glyph-name="Iacute" unicode="&#xcd;" horiz-adv-x="659" 
d="M324 1538q-12 0 -24 7t-13 19q0 12 8 21l182 260q19 34 43 8q30 -19 8 -41l-184 -262q-8 -12 -20 -12zM125 61h143q31 0 31 31v1249q0 31 -31 31h-143q-31 0 -31 31t31 31h410q31 0 31 -31t-31 -31h-144q-31 0 -31 -31v-1249q0 -31 31 -31h144q31 -1 31 -31t-31 -30h-410
q-31 0 -31 30t31 31z" />
    <glyph glyph-name="Icircumflex" unicode="&#xce;" horiz-adv-x="659" 
d="M125 61h143q31 0 31 31v1249q0 31 -31 31h-143q-31 0 -31 31t31 31h410q31 0 31 -31t-31 -31h-144q-31 0 -31 -31v-1249q0 -31 31 -31h144q31 -1 31 -31t-31 -30h-410q-31 0 -31 30t31 31zM328 1853q16 0 32 -16l226 -225q20 -23 0 -43t-43 0l-197 194q-18 18 -37 0
l-192 -194q-23 -20 -43 0t0 43l219 223q19 18 35 18z" />
    <glyph glyph-name="Idieresis" unicode="&#xcf;" horiz-adv-x="659" 
d="M494 1741q35 0 57 -25q25 -24 25 -58t-24 -58t-58 -24t-60 23q-23 25 -22 60q0 35 24 59t58 23zM125 61h143q31 0 31 31v1249q0 31 -31 31h-143q-31 0 -31 31t31 31h410q31 0 31 -31t-31 -31h-144q-31 0 -31 -31v-1249q0 -31 31 -31h144q31 -1 31 -31t-31 -30h-410
q-31 0 -31 30t31 31zM166 1741q35 0 57 -25q25 -24 25 -58t-24 -58t-58 -24t-60 23q-23 25 -22 60q0 35 24 59t58 23z" />
    <glyph glyph-name="Eth" unicode="&#xd0;" horiz-adv-x="1503" 
d="M360 655v-563q0 -31 31 -31h307q279 1 452 187t173 469t-173 469t-452 186h-307q-31 0 -31 -31v-563q0 -31 31 -30h144q31 0 31 -31t-31 -31h-144q-31 0 -31 -31zM125 61h143q31 0 31 31v563q0 31 -31 31h-143q-31 0 -31 31t31 31h143q31 0 31 30v563q0 31 -31 31h-143
q-31 0 -31 31t31 31h573q310 0 498 -206t188 -511t-187 -511t-499 -206h-573q-31 0 -31 30t31 31z" />
    <glyph glyph-name="Ntilde" unicode="&#xd1;" horiz-adv-x="1607" 
d="M535 1608q0 86 39 135q40 49 94 49q94 0 136 -77t99 -77q82 0 82 123q0 31 31 31t31 -31q0 -88 -39 -136q-38 -48 -100 -48t-98 39t-65 77t-67 38q-82 0 -82 -123q0 -31 -30 -31t-31 31zM125 61h143q31 0 31 31v1249q0 31 -31 31h-143q-31 0 -31 31t31 31h225
q33 0 51 -31l840 -1280q4 -8 12 -7t9 17v1208q0 31 -31 31h-123q-31 0 -31 31t31 31h389q31 0 31 -31t-31 -31h-143q-31 0 -31 -31v-1249q0 -31 31 -31h143q31 -1 31 -31t-31 -30h-225q-33 0 -51 31l-840 1280q-4 8 -12 7t-9 -18v-1208q0 -31 31 -31h123q31 -1 31 -31
t-31 -30h-389q-31 0 -31 30t31 31z" />
    <glyph glyph-name="Ograve" unicode="&#xd2;" horiz-adv-x="1609" 
d="M598 1852q0 12 13 22t25 10t21 -18l183 -260q8 -8 8 -20t-12 -20q-12 -7 -24 -7t-21 12l-185 262q-8 8 -8 19zM180 717q0 -295 172 -485t453 -191q281 0 453 190q172 189 172 485t-172 486t-454 190q-280 0 -452 -190t-172 -485zM805 -21q-310 0 -498 209t-188 530
q0 320 188 528q187 208 497 208t498 -208t189 -528q0 -320 -188 -532q-188 -207 -498 -207z" />
    <glyph glyph-name="Oacute" unicode="&#xd3;" horiz-adv-x="1609" 
d="M974 1884q12 0 21 -10q31 -19 9 -41l-185 -262q-10 -12 -21 -12q-12 0 -24 7q-12 8 -12 20t8 20l182 260q10 18 22 18zM180 717q0 -295 172 -485t453 -191q281 0 453 190q172 189 172 485t-172 486t-454 190q-280 0 -452 -190t-172 -485zM805 -21q-310 0 -498 209
t-188 530q0 320 188 528q187 208 497 208t498 -208t189 -528q0 -320 -188 -532q-188 -207 -498 -207z" />
    <glyph glyph-name="Ocircumflex" unicode="&#xd4;" horiz-adv-x="1609" 
d="M802 1853q16 0 34 -16l225 -225q20 -23 0 -43t-43 0l-197 194q-18 18 -37 0l-192 -194q-23 -20 -43 0t0 43l219 223q18 18 34 18zM180 717q0 -295 172 -485t453 -191q281 0 453 190q172 189 172 485t-172 486t-454 190q-280 0 -452 -190t-172 -485zM805 -21
q-310 0 -498 209t-188 530q0 320 188 528q187 208 497 208t498 -208t189 -528q0 -320 -188 -532q-188 -207 -498 -207z" />
    <glyph glyph-name="Otilde" unicode="&#xd5;" horiz-adv-x="1609" 
d="M549 1608q0 86 40 135t94 49q94 0 135 -77q42 -77 100 -77q82 0 81 123q0 31 31 31t31 -31q0 -88 -39 -136t-100 -48t-98 39q-36 39 -64 77q-29 38 -68 38q-82 0 -82 -123q0 -31 -30 -31t-31 31zM180 717q0 -295 172 -485t453 -191q281 0 453 190q172 189 172 485
t-172 486t-454 190q-280 0 -452 -190t-172 -485zM805 -21q-310 0 -498 209t-188 530q0 320 188 528q187 208 497 208t498 -208t189 -528q0 -320 -188 -532q-188 -207 -498 -207z" />
    <glyph glyph-name="Odieresis" unicode="&#xd6;" horiz-adv-x="1609" 
d="M1051 1679q0 -35 -24 -59q-25 -24 -59 -23q-34 0 -59 23q-23 26 -23 60t24 58t59 24t59 -24t23 -59zM559 1680q0 34 24 58q25 24 59 24t58 -24t23 -59q0 -35 -24 -59t-58 -23q-34 0 -59 23q-23 26 -23 60zM180 717q0 -295 172 -485t453 -191q281 0 453 190
q172 189 172 485t-172 486t-454 190q-280 0 -452 -190t-172 -485zM805 -21q-310 0 -498 209t-188 530q0 320 188 528q187 208 497 208t498 -208t189 -528q0 -320 -188 -532q-188 -207 -498 -207z" />
    <glyph glyph-name="multiply" unicode="&#xd7;" horiz-adv-x="935" 
d="M399 739l-239 238q-20 20 0 44t43 1l239 -240q20 -20 43 0l246 246q20 20 44 0t1 -43l-248 -246q-20 -23 0 -43l240 -239q23 -23 0 -43t-43 0l-240 237q-23 20 -43 0l-231 -231q-23 -23 -43 0t0 43l231 231q20 25 0 45z" />
    <glyph glyph-name="Oslash" unicode="&#xd8;" horiz-adv-x="1609" 
d="M805 41q281 0 453 190t172 486q0 357 -238 547l-727 -1129q143 -94 340 -94zM180 717q0 -354 236 -547l729 1126q-145 96 -340 97q-281 -1 -453 -191t-172 -485zM119 717q0 321 188 529t498 208q207 0 373 -104l45 67q16 23 41 10q27 -20 8 -41l-45 -69
q264 -207 264 -600q0 -319 -188 -531q-188 -207 -498 -206q-211 0 -375 102l-43 -68q-16 -22 -43 -8t-8 41l45 70q-262 213 -262 600z" />
    <glyph glyph-name="Ugrave" unicode="&#xd9;" horiz-adv-x="1589" 
d="M629 1832q0 12 16 21q28 28 43 -8l182 -260q23 -23 -6 -41q-12 -6 -22 -6t-21 12l-184 262q-8 8 -8 20zM88 1434h389q31 0 31 -31t-31 -31h-123q-31 0 -30 -31v-829q0 -213 133 -342t338 -129t338 129t133 342v829q0 31 -31 31h-123q-31 0 -31 31t31 31h389q31 0 31 -31
t-31 -31h-143q-31 0 -31 -31v-829q0 -233 -151 -385q-152 -147 -382 -147t-382 147q-150 150 -150 385v829q0 31 -31 31h-143q-31 0 -31 31t31 31z" />
    <glyph glyph-name="Uacute" unicode="&#xda;" horiz-adv-x="1589" 
d="M1001 1832q0 -11 -8 -20l-184 -262q-11 -12 -23 -12q-34 0 -34 27q0 12 8 20l182 260q8 19 20 19t23 -11q16 -10 16 -21zM88 1434h389q31 0 31 -31t-31 -31h-123q-31 0 -30 -31v-829q0 -213 133 -342t338 -129t338 129t133 342v829q0 31 -31 31h-123q-31 0 -31 31t31 31
h389q31 0 31 -31t-31 -31h-143q-31 0 -31 -31v-829q0 -233 -151 -385q-152 -147 -382 -147t-382 147q-150 150 -150 385v829q0 31 -31 31h-143q-31 0 -31 31t31 31z" />
    <glyph glyph-name="Ucircumflex" unicode="&#xdb;" horiz-adv-x="1589" 
d="M792 1853q16 0 33 -16l226 -225q23 -23 0 -43t-43 0l-197 194q-18 18 -37 0l-192 -194q-20 -20 -43 0t0 43l219 223q18 18 34 18zM88 1434h389q31 0 31 -31t-31 -31h-123q-31 0 -30 -31v-829q0 -213 133 -342t338 -129t338 129t133 342v829q0 31 -31 31h-123
q-31 0 -31 31t31 31h389q31 0 31 -31t-31 -31h-143q-31 0 -31 -31v-829q0 -233 -151 -385q-152 -147 -382 -147t-382 147q-150 150 -150 385v829q0 31 -31 31h-143q-31 0 -31 31t31 31z" />
    <glyph glyph-name="Udieresis" unicode="&#xdc;" horiz-adv-x="1589" 
d="M958 1741q34 0 59 -24q23 -25 23 -59t-24 -58t-58 -24t-59 23q-23 25 -22 60q-1 35 23 59t58 23zM631 1741q35 0 57 -25q25 -24 25 -58t-24 -58q-25 -24 -59 -24t-59 23q-23 25 -22 60q-1 35 23 59t59 23zM88 1434h389q31 0 31 -31t-31 -31h-123q-31 0 -30 -31v-829
q0 -213 133 -342t338 -129t338 129t133 342v829q0 31 -31 31h-123q-31 0 -31 31t31 31h389q31 0 31 -31t-31 -31h-143q-31 0 -31 -31v-829q0 -233 -151 -385q-152 -147 -382 -147t-382 147q-150 150 -150 385v829q0 31 -31 31h-143q-31 0 -31 31t31 31z" />
    <glyph glyph-name="Yacute" unicode="&#xdd;" horiz-adv-x="1284" 
d="M868 1832q0 -11 -8 -20l-184 -262q-8 -12 -20 -12q-35 0 -38 27q1 12 9 20l182 260q18 33 43 8q16 -10 16 -21zM10 1434h389q31 0 31 -31t-31 -31h-123q-16 0 -22 -9t2 -22l371 -647q14 -20 28 0l373 647q8 11 2 21t-22 10h-123q-31 0 -31 31t31 31h389q31 0 31 -31
t-31 -31h-123q-33 0 -51 -31l-426 -739v-510q0 -31 31 -31h143q31 -1 31 -31t-31 -30h-410q-31 0 -30 31q0 31 30 30h144q31 0 30 31v506l-428 743q-18 31 -51 31h-123q-31 0 -30 31q-1 31 30 31z" />
    <glyph glyph-name="Thorn" unicode="&#xde;" horiz-adv-x="1249" 
d="M360 195v-103q0 -31 31 -31h144q31 -1 31 -31t-31 -30h-410q-31 0 -31 31t31 30h143q31 0 31 31v1249q0 31 -31 31h-143q-31 0 -31 31t31 31h410q31 0 31 -31t-31 -31h-144q-31 0 -31 -31v-102q0 -31 31 -31h215q262 0 413 -132t151 -359t-152 -359q-150 -132 -412 -133
h-215q-31 1 -31 -30zM360 1116v-799q0 -31 31 -30h215q240 1 371 113t131 317t-131 317t-371 113h-215q-31 0 -31 -31z" />
    <glyph glyph-name="germandbls" unicode="&#xdf;" horiz-adv-x="1312" 
d="M104 61h144q31 0 31 31v840q0 31 -31 31h-144q-30 1 -30 31t30 30h144q31 0 31 31v20q0 179 101 279t261 100t257 -83t97 -204q0 -61 -37 -109q-36 -48 -80 -74q-118 -70 -118 -137t50 -117t123 -91t145 -87t123 -119q50 -73 50 -179t-96 -191q-96 -84 -252 -83
q-256 0 -409 204q-25 29 2 46t41 -3q135 -186 366 -186q133 0 210 63t77 162q0 139 -129 226l-117 77l-119 72q-127 76 -127 199q0 55 37 101t81 73q118 72 118 153q0 101 -79 163t-216 62t-218 -80q-81 -81 -81 -237v-1044q0 -31 -31 -31h-205q-31 0 -30 31q-1 30 30 30z
" />
    <glyph glyph-name="agrave" unicode="&#xe0;" 
d="M543 1044q172 0 276 -96t105 -241v-615q0 -31 30 -31h144q30 -1 30 -31t-30 -30h-205q-31 0 -31 31v114q0 48 -33 21q-53 -68 -152 -127t-224 -59q-174 0 -272 86q-97 86 -97 219t112 221t298 88h337q31 0 31 31v82q0 119 -90 197t-229 79q-197 0 -332 -104
q-27 -19 -44 5t5 40q150 120 371 120zM862 502q0 31 -31 30h-337q-172 0 -261 -67q-88 -69 -88 -179t81 -178t238 -67q157 0 294 137q61 61 104 139v185zM340 1463q0 11 13 21t25 11q12 0 21 -18l183 -260q8 -9 8 -21q0 -24 -35 -27q-15 1 -23 13l-184 262q-8 8 -8 19z" />
    <glyph glyph-name="aacute" unicode="&#xe1;" 
d="M543 1044q172 0 276 -96t105 -241v-615q0 -31 30 -31h144q30 -1 30 -31t-30 -30h-205q-31 0 -31 31v114q0 48 -33 21q-53 -68 -152 -127t-224 -59q-174 0 -272 86q-97 86 -97 219t112 221t298 88h337q31 0 31 31v82q0 119 -90 197t-229 79q-197 0 -332 -104
q-27 -19 -44 5t5 40q150 120 371 120zM862 502q0 31 -31 30h-337q-172 0 -261 -67q-88 -69 -88 -179t81 -178t238 -67q157 0 294 137q61 61 104 139v185zM716 1495q12 0 21 -10q32 -20 8 -41l-184 -262q-16 -23 -36 -11q-21 13 -21 25t8 21l182 260q10 18 22 18z" />
    <glyph glyph-name="acircumflex" unicode="&#xe2;" 
d="M543 1044q172 0 276 -96t105 -241v-615q0 -31 30 -31h144q30 -1 30 -31t-30 -30h-205q-31 0 -31 31v114q0 48 -33 21q-53 -68 -152 -127t-224 -59q-174 0 -272 86q-97 86 -97 219t112 221t298 88h337q31 0 31 31v82q0 119 -90 197t-229 79q-197 0 -332 -104
q-27 -19 -44 5t5 40q150 120 371 120zM862 502q0 31 -31 30h-337q-172 0 -261 -67q-88 -69 -88 -179t81 -178t238 -67q157 0 294 137q61 61 104 139v185zM291 1202l219 223q35 35 68 2l225 -225q12 -14 7 -30t-20 -21q-15 -4 -30 8l-197 195q-18 18 -37 0l-192 -195
q-23 -20 -43 0t0 43z" />
    <glyph glyph-name="atilde" unicode="&#xe3;" 
d="M543 1044q172 0 276 -96t105 -241v-615q0 -31 30 -31h144q30 -1 30 -31t-30 -30h-205q-31 0 -31 31v114q0 48 -33 21q-53 -68 -152 -127t-224 -59q-174 0 -272 86q-97 86 -97 219t112 221t298 88h337q31 0 31 31v82q0 119 -90 197t-229 79q-197 0 -332 -104
q-27 -19 -44 5t5 40q150 120 371 120zM862 502q0 31 -31 30h-337q-172 0 -261 -67q-88 -69 -88 -179t81 -178t238 -67q157 0 294 137q61 61 104 139v185zM291 1198q0 86 40 135t94 49q94 0 136 -76q16 -30 42 -54t56 -23q82 0 82 123q0 30 31 30t31 -30q0 -88 -39 -136
q-38 -48 -100 -49q-62 0 -98 39t-64 77q-29 38 -68 38q-82 0 -82 -123q0 -31 -30 -31t-31 31z" />
    <glyph glyph-name="adieresis" unicode="&#xe4;" 
d="M543 1044q172 0 276 -96t105 -241v-615q0 -31 30 -31h144q30 -1 30 -31t-30 -30h-205q-31 0 -31 31v114q0 48 -33 21q-53 -68 -152 -127t-224 -59q-174 0 -272 86q-97 86 -97 219t112 221t298 88h337q31 0 31 31v82q0 119 -90 197t-229 79q-197 0 -332 -104
q-27 -19 -44 5t5 40q150 120 371 120zM862 502q0 31 -31 30h-337q-172 0 -261 -67q-88 -69 -88 -179t81 -178t238 -67q157 0 294 137q61 61 104 139v185zM649 1250q0 34 24 58q25 24 59 24t58 -24t23 -59q0 -35 -24 -59t-58 -23q-34 0 -59 23q-23 26 -23 60zM404 1167
q-34 0 -60 23q-22 26 -22 60t24 58t58 24t58 -24t24 -59t-24 -59t-58 -23z" />
    <glyph glyph-name="aring" unicode="&#xe5;" 
d="M543 1044q172 0 276 -96t105 -241v-615q0 -31 30 -31h144q30 -1 30 -31t-30 -30h-205q-31 0 -31 31v114q0 48 -33 21q-53 -68 -152 -127t-224 -59q-174 0 -272 86q-97 86 -97 219t112 221t298 88h337q31 0 31 31v82q0 119 -90 197t-229 79q-197 0 -332 -104
q-27 -19 -44 5t5 40q150 120 371 120zM862 502q0 31 -31 30h-337q-172 0 -261 -67q-88 -69 -88 -179t81 -178t238 -67q157 0 294 137q61 61 104 139v185zM547 1413q-47 0 -75 -28q-28 -29 -28 -75t27 -75q29 -27 76 -27t75 28t27 75q1 47 -27 75t-75 27zM383 1311
q0 71 46 117t117 46t118 -46q47 -48 47 -118t-47 -116q-47 -47 -118 -47t-118 47q-45 47 -45 117z" />
    <glyph glyph-name="ae" unicode="&#xe6;" horiz-adv-x="1918" 
d="M545 1044q162 0 265 -72t128 -194q61 125 172 196t246 70q199 0 335 -129t136 -290v-31q0 -61 -62 -62h-788q-31 0 -31 -30q0 -199 115 -330t295 -131q98 0 180 29q82 30 115 54t80 64q20 16 45 -8q20 -25 -2 -43q-172 -158 -418 -157q-147 0 -261 78t-167 214
q-72 -125 -198 -209t-255 -83q-389 0 -389 307q0 143 106 225t304 82h358q31 0 31 31v82q0 121 -92 199q-93 78 -269 77q-176 0 -311 -104q-27 -19 -44 5t5 40q150 120 371 120zM983 594h752q31 0 30 31q1 135 -119 247t-294 111q-174 0 -291 -131q-91 -102 -107 -227
q-6 -31 29 -31zM885 502q0 31 -31 30h-358q-348 0 -349 -245q0 -246 328 -246q168 0 305 137q62 61 105 139v185z" />
    <glyph glyph-name="ccedilla" unicode="&#xe7;" horiz-adv-x="1146" 
d="M944 768q-164 215 -395 215q-160 0 -272 -131q-111 -131 -111 -343t117 -340t303 -128q98 0 180 29q82 30 115 54t80 64q20 16 45 -8q20 -25 -2 -43q-166 -152 -402 -157v-62q74 0 119 -40t45 -103q0 -143 -205 -144q-31 0 -31 31t31 31q143 0 144 82q0 37 -27 59t-76 23
h-31q-31 0 -30 30v94q-186 14 -303 146q-134 153 -134 387t129 382t327 148t351 -153q33 -31 33 20v82q0 31 31 31t31 -31v-327q0 -31 -31 -31t-31 31v102z" />
    <glyph glyph-name="egrave" unicode="&#xe8;" horiz-adv-x="1161" 
d="M201 553h776q31 0 31 31q0 164 -121 280q-119 119 -302 119t-300 -131q-99 -110 -113 -268q-4 -31 29 -31zM588 41q98 0 180 29q82 30 115 54t80 64q20 16 45 -8q20 -25 -2 -43q-172 -157 -402 -157t-364 147q-133 152 -134 385q0 232 132 382t347 150q214 0 349 -135
t135 -325v-31q0 -61 -61 -61h-807q-33 0 -31 -31q12 -178 122 -299t296 -121zM371 1463q0 11 13 21q14 10 26 11q12 0 20 -18l182 -260q8 -8 9 -21q0 -23 -37 -27q-11 1 -21 13l-184 262q-8 8 -8 19z" />
    <glyph glyph-name="eacute" unicode="&#xe9;" horiz-adv-x="1161" 
d="M201 553h776q31 0 31 31q0 164 -121 280q-119 119 -302 119t-300 -131q-99 -110 -113 -268q-4 -31 29 -31zM588 41q98 0 180 29q82 30 115 54t80 64q20 16 45 -8q20 -25 -2 -43q-172 -157 -402 -157t-364 147q-133 152 -134 385q0 232 132 382t347 150q214 0 349 -135
t135 -325v-31q0 -61 -61 -61h-807q-33 0 -31 -31q12 -178 122 -299t296 -121zM766 1495q12 0 22 -10q31 -19 9 -41l-185 -262q-20 -24 -43 -6q-14 8 -14 20t8 21l182 260q9 18 21 18z" />
    <glyph glyph-name="ecircumflex" unicode="&#xea;" horiz-adv-x="1161" 
d="M201 553h776q31 0 31 31q0 164 -121 280q-119 119 -302 119t-300 -131q-99 -110 -113 -268q-4 -31 29 -31zM588 41q98 0 180 29q82 30 115 54t80 64q20 16 45 -8q20 -25 -2 -43q-172 -157 -402 -157t-364 147q-133 152 -134 385q0 232 132 382t347 150q214 0 349 -135
t135 -325v-31q0 -61 -61 -61h-807q-33 0 -31 -31q12 -178 122 -299t296 -121zM322 1202l219 223q34 34 67 2l226 -225q23 -23 0 -43t-43 0l-197 195q-18 18 -37 0l-192 -195q-20 -20 -43 0t0 43z" />
    <glyph glyph-name="edieresis" unicode="&#xeb;" horiz-adv-x="1161" 
d="M201 553h776q31 0 31 31q0 164 -121 280q-119 119 -302 119t-300 -131q-99 -110 -113 -268q-4 -31 29 -31zM588 41q98 0 180 29q82 30 115 54t80 64q20 16 45 -8q20 -25 -2 -43q-172 -157 -402 -157t-364 147q-133 152 -134 385q0 232 132 382t347 150q214 0 349 -135
t135 -325v-31q0 -61 -61 -61h-807q-33 0 -31 -31q12 -178 122 -299t296 -121zM659 1270q0 34 24 58q25 24 59 24t58 -24t24 -58t-24 -59q-24 -24 -58 -24t-60 23q-23 25 -23 60zM414 1352q35 0 57 -25q25 -23 25 -57t-24 -59q-24 -24 -58 -24t-60 23q-23 25 -22 60
q0 34 24 58t58 24z" />
    <glyph glyph-name="igrave" unicode="&#xec;" horiz-adv-x="585" 
d="M334 1196q0 -23 -37 -27q-11 1 -21 13l-184 262q-8 8 -8 19t13 21t25 11q12 0 21 -18l183 -260q8 -8 8 -21zM106 61h144q31 0 31 31v840q0 31 -31 31h-144q-30 1 -30 31t30 30h205q31 0 31 -31v-901q0 -31 31 -31h143q31 -1 31 -31t-31 -30h-410q-31 0 -30 31
q-1 30 30 30z" />
    <glyph glyph-name="iacute" unicode="&#xed;" horiz-adv-x="585" 
d="M458 1495q12 0 23 -10q32 -20 8 -41l-184 -262q-20 -24 -43 -6q-14 8 -14 20t8 21l182 260q8 18 20 18zM106 61h144q31 0 31 31v840q0 31 -31 31h-144q-30 1 -30 31t30 30h205q31 0 31 -31v-901q0 -31 31 -31h143q31 -1 31 -31t-31 -30h-410q-31 0 -30 31q-1 30 30 30z
" />
    <glyph glyph-name="icircumflex" unicode="&#xee;" horiz-adv-x="585" 
d="M106 61h144q31 0 31 31v840q0 31 -31 31h-144q-30 1 -30 31t30 30h205q31 0 31 -31v-901q0 -31 31 -31h143q31 -1 31 -31t-31 -30h-410q-31 0 -30 31q-1 30 30 30zM35 1159q-23 20 0 43l219 223q35 35 68 2l225 -225q23 -23 0 -43t-43 0l-197 195q-18 18 -37 0l-192 -195
q-20 -20 -43 0z" />
    <glyph glyph-name="idieresis" unicode="&#xef;" horiz-adv-x="585" 
d="M455 1352q35 0 57 -25q25 -23 25 -57t-24 -59q-25 -24 -59 -24t-59 23q-23 25 -22 60q-1 34 23 58t59 24zM106 61h144q31 0 31 31v840q0 31 -31 31h-144q-30 1 -30 31t30 30h205q31 0 31 -31v-901q0 -31 31 -31h143q31 -1 31 -31t-31 -30h-410q-31 0 -30 31q-1 30 30 30z
M45 1270q0 34 24 58q25 24 59 24t56 -25q25 -23 25 -57t-24 -59q-24 -24 -58 -24t-59 23q-23 25 -23 60z" />
    <glyph glyph-name="eth" unicode="&#xf0;" horiz-adv-x="1284" 
d="M264 1506q0 30 31 30q236 0 448 -145q27 -20 45 4l127 151q23 27 49 -3q14 -16 1 -36l-127 -151q-18 -20 4 -43q137 -137 215 -319t78 -380q-1 -286 -143 -460t-376 -174t-370 135q-135 135 -135 354t146 346t400 127h318q36 0 26 31q-72 170 -200 293q-25 18 -43 -2
l-115 -136q-18 -25 -43 -3t-2 44l113 134q23 23 0 34q-186 137 -416 138q-31 1 -31 31zM1001 881h-333q-242 -1 -369 -107t-127 -303t118 -313t322 -117q204 0 333 152q128 152 128 421q0 134 -31 236q-12 31 -41 31z" />
    <glyph glyph-name="ntilde" unicode="&#xf1;" horiz-adv-x="1368" 
d="M453 1198q0 86 40 135t94 49q94 0 136 -76q16 -30 42 -54t56 -23q82 0 82 123q0 30 31 30t31 -30q0 -88 -39 -136q-38 -48 -100 -49q-62 0 -98 39t-64 77q-29 38 -68 38q-82 0 -82 -123q0 -31 -30 -31t-31 31zM104 61h144q31 0 31 31v840q0 31 -31 31h-144q-30 1 -30 31
t30 30h205q31 0 31 -31v-114q0 -48 33 -21q166 186 361 186q196 0 300 -106t105 -303v-543q0 -31 30 -31h144q31 -1 31 -31t-31 -30h-389q-31 0 -31 31t31 30h123q31 0 30 31v543q0 172 -88 260t-246 88t-297 -139q-61 -61 -106 -137v-615q0 -31 31 -31h123q30 -1 30 -31
t-30 -30h-390q-31 0 -30 31q-1 30 30 30z" />
    <glyph glyph-name="ograve" unicode="&#xf2;" horiz-adv-x="1212" 
d="M649 1196q0 -24 -37 -27q-10 1 -20 13l-184 262q-22 22 8 41q10 10 22 10t21 -18l182 -260q8 -8 8 -21zM606 983q-200 0 -320 -130t-120 -344t120 -341t320 -127t320 129q121 129 121 341t-120 342t-321 130zM606 1044q226 0 364 -148t138 -384t-138 -384t-364 -148
t-363 148q-139 148 -139 384t138 384t364 148z" />
    <glyph glyph-name="oacute" unicode="&#xf3;" horiz-adv-x="1212" 
d="M774 1495q12 0 23 -10q16 -9 16 -21t-8 -20l-184 -262q-21 -25 -43 -6q-14 8 -14 20t7 21l183 260q8 18 20 18zM606 983q-200 0 -320 -130t-120 -344t120 -341t320 -127t320 129q121 129 121 341t-120 342t-321 130zM606 1044q226 0 364 -148t138 -384t-138 -384
t-364 -148t-363 148q-139 148 -139 384t138 384t364 148z" />
    <glyph glyph-name="ocircumflex" unicode="&#xf4;" horiz-adv-x="1212" 
d="M350 1202l219 223q35 35 68 2l225 -225q23 -23 0 -43t-43 0l-196 195q-18 18 -37 0l-193 -195q-20 -20 -43 0t0 43zM606 983q-200 0 -320 -130t-120 -344t120 -341t320 -127t320 129q121 129 121 341t-120 342t-321 130zM606 1044q226 0 364 -148t138 -384t-138 -384
t-364 -148t-363 148q-139 148 -139 384t138 384t364 148z" />
    <glyph glyph-name="otilde" unicode="&#xf5;" horiz-adv-x="1212" 
d="M350 1198q0 86 40 135t94 49q92 0 137 -76q16 -30 42 -54t56 -23q82 0 82 123q0 31 30 30q31 0 31 -30q0 -88 -39 -136t-100 -49q-61 0 -97 39t-65 77t-67 38q-82 0 -82 -123q0 -31 -31 -31t-31 31zM606 983q-200 0 -320 -130t-120 -344t120 -341t320 -127t320 129
q121 129 121 341t-120 342t-321 130zM606 1044q226 0 364 -148t138 -384t-138 -384t-364 -148t-363 148q-139 148 -139 384t138 384t364 148z" />
    <glyph glyph-name="odieresis" unicode="&#xf6;" horiz-adv-x="1212" 
d="M688 1270q0 34 24 58t58 24t57 -25q25 -23 25 -57t-24 -59q-24 -24 -58 -24t-59 23q-23 25 -23 60zM360 1270q0 34 24 58t58 24t59 -24q23 -24 23 -58t-24 -59q-24 -24 -58 -24t-59 23q-23 25 -23 60zM606 983q-200 0 -320 -130t-120 -344t120 -341t320 -127t320 129
q121 129 121 341t-120 342t-321 130zM606 1044q226 0 364 -148t138 -384t-138 -384t-364 -148t-363 148q-139 148 -139 384t138 384t364 148z" />
    <glyph glyph-name="divide" unicode="&#xf7;" horiz-adv-x="1189" 
d="M481 983q0 47 28 75t75 28q46 0 74 -28t28 -75t-28 -75t-74 -28t-76 27q-27 29 -27 76zM481 328q0 46 28 74t75 28t73 -29q29 -27 29 -73t-28 -75q-28 -28 -74 -28t-76 27q-27 29 -27 76zM195 686h798q31 0 31 -31t-31 -30h-798q-31 1 -31 31t31 30z" />
    <glyph glyph-name="oslash" unicode="&#xf8;" horiz-adv-x="1212" 
d="M606 41q199 0 320 129t121 342q0 258 -162 381l-510 -795q100 -57 231 -57zM166 512q0 -250 158 -379l512 793q-100 57 -230 57q-200 0 -320 -130t-120 -341zM104 512q0 236 138 384t364 148q143 0 262 -67l35 53q9 14 19 14t22 -4q27 -20 8 -41l-37 -55
q193 -150 193 -432q0 -236 -138 -384t-364 -148q-147 0 -264 67l-35 -53q-8 -14 -18 -14t-23 4q-29 16 -10 43l35 55q-187 147 -187 430z" />
    <glyph glyph-name="ugrave" unicode="&#xf9;" horiz-adv-x="1331" 
d="M451 1422q0 12 13 22t24 10t22 -18l182 -260q8 -8 8 -20q0 -24 -34 -28q-15 1 -23 13l-184 262q-8 8 -8 19zM53 1024h205q31 0 31 -31v-604q0 -172 89 -260t246 -88t294 137q68 72 108 139v615q0 31 -31 31h-143q-31 1 -31 31t31 30h205q31 0 30 -31v-901q0 -31 31 -31
h144q30 -1 30 -31t-30 -30h-205q-31 0 -31 31v114q0 48 -33 21q-166 -186 -361 -186t-300 106q-104 106 -105 303v543q0 31 -30 31h-144q-31 0 -30 30q-1 31 30 31z" />
    <glyph glyph-name="uacute" unicode="&#xfa;" horiz-adv-x="1331" 
d="M764 1454q12 0 22 -10q31 -19 9 -41l-185 -262q-16 -23 -36 -11q-21 14 -21 26t8 20l182 260q9 18 21 18zM53 1024h205q31 0 31 -31v-604q0 -172 89 -260t246 -88t294 137q68 72 108 139v615q0 31 -31 31h-143q-31 1 -31 31t31 30h205q31 0 30 -31v-901q0 -31 31 -31h144
q30 -1 30 -31t-30 -30h-205q-31 0 -31 31v114q0 48 -33 21q-166 -186 -361 -186t-300 106q-104 106 -105 303v543q0 31 -30 31h-144q-31 0 -30 30q-1 31 30 31z" />
    <glyph glyph-name="ucircumflex" unicode="&#xfb;" horiz-adv-x="1331" 
d="M381 1202l219 223q35 35 68 2l225 -225q12 -14 7 -30t-20 -21q-15 -4 -30 8l-197 195q-18 18 -37 0l-192 -195q-23 -20 -43 0t0 43zM53 1024h205q31 0 31 -31v-604q0 -172 89 -260t246 -88t294 137q68 72 108 139v615q0 31 -31 31h-143q-31 1 -31 31t31 30h205
q31 0 30 -31v-901q0 -31 31 -31h144q30 -1 30 -31t-30 -30h-205q-31 0 -31 31v114q0 48 -33 21q-166 -186 -361 -186t-300 106q-104 106 -105 303v543q0 31 -30 31h-144q-31 0 -30 30q-1 31 30 31z" />
    <glyph glyph-name="udieresis" unicode="&#xfc;" horiz-adv-x="1331" 
d="M883 1249q0 -35 -24 -59q-25 -24 -59 -23q-34 0 -59 23q-23 26 -23 60t24 58t59 24t59 -24t23 -59zM391 1250q0 34 24 58q25 24 59 24t58 -24t23 -59q0 -35 -24 -59t-58 -23q-34 0 -59 23q-23 26 -23 60zM53 1024h205q31 0 31 -31v-604q0 -172 89 -260t246 -88t294 137
q68 72 108 139v615q0 31 -31 31h-143q-31 1 -31 31t31 30h205q31 0 30 -31v-901q0 -31 31 -31h144q30 -1 30 -31t-30 -30h-205q-31 0 -31 31v114q0 48 -33 21q-166 -186 -361 -186t-300 106q-104 106 -105 303v543q0 31 -30 31h-144q-31 0 -30 30q-1 31 30 31z" />
    <glyph glyph-name="yacute" unicode="&#xfd;" horiz-adv-x="1263" 
d="M326 -430q-162 0 -254 117q-27 27 -4 47t43 0q103 -102 207 -102t165 67q61 68 123 229l21 54q8 27 0 49l-424 901q-14 31 -41 31h-133q-31 1 -31 31t31 30h389q31 0 31 -31t-31 -30h-127q-37 0 -21 -31l387 -809q10 -29 23 0l313 809q14 31 -20 31h-127q-31 1 -31 31
t31 30h389q31 0 31 -31t-31 -30h-133q-25 0 -41 -31l-389 -1004q-80 -198 -152 -278t-194 -80zM798 1454q12 0 23 -10q32 -20 8 -41l-184 -262q-20 -24 -43 -6q-14 9 -14 21t8 20l182 260q8 18 20 18z" />
    <glyph glyph-name="thorn" unicode="&#xfe;" horiz-adv-x="1228" 
d="M567 0h-276q-31 0 -31 -31v-286q0 -31 31 -31h164q31 0 31 -31t-31 -31h-430q-31 0 -31 31t31 31h143q31 0 31 31v1658q0 31 -31 31h-143q-31 0 -31 31t31 31h204q31 0 31 -31v-524q0 -48 33 -21q55 68 151 127t226 59q206 0 328 -143t122 -387t-146 -380
q-147 -134 -407 -134zM291 61h276q236 0 364 115t128 335q1 220 -105 346t-278 126t-311 -139q-61 -61 -105 -137v-615q0 -31 31 -31z" />
    <glyph glyph-name="ydieresis" unicode="&#xff;" horiz-adv-x="1263" 
d="M326 -430q-162 0 -254 117q-27 27 -4 47t43 0q103 -102 207 -102t165 67q61 68 123 229l21 54q8 27 0 49l-424 901q-14 31 -41 31h-133q-31 1 -31 31t31 30h389q31 0 31 -31t-31 -30h-127q-37 0 -21 -31l387 -809q10 -29 23 0l313 809q14 31 -20 31h-127q-31 1 -31 31
t31 30h389q31 0 31 -31t-31 -30h-133q-25 0 -41 -31l-389 -1004q-80 -198 -152 -278t-194 -80zM702 1229q0 35 24 59t58 23q34 0 59 -24q23 -25 23 -59t-24 -58t-58 -24t-59 23q-23 25 -23 60zM457 1311q35 0 57 -25q25 -24 25 -58t-24 -58q-25 -24 -59 -24t-59 23
q-23 25 -22 60q-1 35 23 59t59 23z" />
    <glyph glyph-name="OE" unicode="&#x152;" horiz-adv-x="1890" 
d="M805 61h102q31 0 31 31v1249q0 31 -31 31h-102q-279 0 -453 -186q-172 -188 -172 -470t173 -468t452 -187zM805 1434h932q31 0 30 -31v-246q-1 -31 -31 -31t-30 31v184q0 31 -31 31h-645q-31 0 -31 -31v-553q0 -31 31 -30h461q31 0 31 30v103q0 31 30 31t31 -31v-328
q0 -31 -31 -31t-30 31v103q0 31 -31 30h-461q-31 0 -31 -30v-574q0 -31 31 -31h666q31 0 30 31v184q0 31 31 31t31 -31v-245q0 -31 -31 -31h-952q-311 0 -499 206t-187 511q-1 305 187 511t499 206z" />
    <glyph glyph-name="oe" unicode="&#x153;" horiz-adv-x="1875" 
d="M1318 41q202 0 359 147q23 18 44 -8t-1 -43q-172 -157 -401 -157t-358 139q-135 -139 -357 -139t-361 148t-139 384t138 384t359 148q220 0 360 -139q133 139 342 139t345 -135t136 -325v-31q0 -61 -62 -61h-807q-31 0 -30 -31q12 -180 121 -301q110 -119 312 -119z
M604 983q-198 0 -318 -130t-120 -344t120 -341t320 -127t316 123q-100 137 -100 347t100 347q-119 125 -318 125zM915 553h777q31 0 30 31q0 164 -120 282t-302 117q-183 0 -291 -120t-122 -279q-3 -31 28 -31z" />
    <glyph glyph-name="Scaron" unicode="&#x160;" horiz-adv-x="1361" 
d="M756 41q208 0 320 91t112 241t-178 229q-84 39 -314 100t-327 111q-184 90 -185 283q0 156 113 257t359 101t448 -174q33 -29 33 20v103q1 31 31 31t30 -31v-389q0 -31 -31 -31t-30 31v143q-55 63 -129 117q-168 119 -364 119t-297 -85t-101 -212q0 -154 178 -234
q84 -39 314 -100t327 -111q184 -90 184 -273t-131 -291q-130 -107 -382 -107t-457 174q-33 29 -33 -21v-102q0 -31 -31 -31t-31 31v389q0 31 31 31t31 -31v-154q55 -63 131 -112q172 -113 379 -113zM469 1851l193 -194q18 -18 36 0l197 194q23 20 43 0t0 -43l-225 -225
q-33 -33 -68 2l-219 223q-20 23 0 43t43 0z" />
    <glyph glyph-name="scaron" unicode="&#x161;" horiz-adv-x="1134" 
d="M532 983q-168 0 -258 -60q-90 -59 -90 -151t85 -146t339 -90q119 -17 204 -37q84 -20 148 -75t64 -170t-111 -195t-319 -79q-113 0 -214 46t-163 107q-33 33 -33 -20v-82q0 -31 -30 -31t-31 31v327q0 31 31 31t30 -31v-102q43 -61 103 -109q131 -106 306 -106t272 61
q97 60 97 158t-88 148q-70 40 -270 70t-244 42q-115 33 -176 91q-61 57 -61 165t110 189q111 79 307 79t349 -153q31 -27 33 20v82q0 31 30 31t31 -31v-327q0 -31 -31 -31t-30 31v102q-168 215 -390 215zM336 1411l192 -194q18 -18 37 0l197 194q20 23 43 0t0 -43l-225 -225
q-33 -33 -68 2l-219 223q-23 20 0 43t43 0z" />
    <glyph glyph-name="Ydieresis" unicode="&#x178;" horiz-adv-x="1284" 
d="M805 1741q35 0 57 -25q25 -24 25 -58t-24 -58q-25 -24 -59 -24t-59 23q-23 25 -22 60q-1 35 23 59t59 23zM395 1659q0 35 24 59q25 24 59 23q34 0 58 -24q24 -25 24 -59t-24 -58t-58 -24t-60 23q-23 25 -23 60zM10 1434h389q31 0 31 -31t-31 -31h-123q-16 0 -22 -9t2 -22
l371 -647q14 -20 28 0l373 647q8 11 2 21t-22 10h-123q-31 0 -31 31t31 31h389q31 0 31 -31t-31 -31h-123q-33 0 -51 -31l-426 -739v-510q0 -31 31 -31h143q31 -1 31 -31t-31 -30h-410q-31 0 -30 31q0 31 30 30h144q31 0 30 31v506l-428 743q-18 31 -51 31h-123
q-31 0 -30 31q-1 31 30 31z" />
    <glyph glyph-name="Zcaron" unicode="&#x17d;" horiz-adv-x="1259" 
d="M432 1872l193 -195q18 -18 37 0l196 195q23 20 43 0t0 -43l-225 -225q-33 -33 -68 2l-219 223q-20 23 0 43t43 0zM1024 1372h-819q-31 0 -31 -31v-225q0 -31 -31 -31t-30 31v287q0 31 30 31h983q31 0 31 -35q0 -8 -24 -47l-920 -1258q-12 -12 -6 -22t29 -11h819
q31 0 30 31v225q0 31 31 31t31 -31v-286q0 -31 -31 -31h-983q-31 0 -31 35q0 8 25 47l920 1257q12 13 6 23t-29 10z" />
    <glyph glyph-name="zcaron" unicode="&#x17e;" horiz-adv-x="1101" 
d="M336 1411l192 -194q18 -18 37 0l197 194q20 23 43 0t0 -43l-225 -225q-33 -33 -68 2l-219 223q-23 20 0 43t43 0zM856 963h-651q-31 0 -31 -31v-195q0 -31 -31 -30q-31 0 -30 30v256q0 31 30 31h826q31 0 30 -35q0 -18 -24 -47l-754 -848q-12 -10 -6 -21t29 -12h653
q31 0 31 31v195q0 31 30 30q31 0 31 -30v-256q0 -31 -31 -31h-827q-31 0 -31 35q0 20 25 47l754 848q12 10 6 22t-29 11z" />
    <glyph glyph-name="florin" unicode="&#x192;" horiz-adv-x="622" 
d="M-22 -430q-159 0 -265 117q-25 27 -5 47t44 0q114 -102 234 -102t189 80q69 81 69 237l-2 983q0 31 -31 31h-143q-31 1 -31 31t31 30h143q31 0 31 31v20q0 183 84 281t237 98t271 -117q27 -27 4 -47t-43 0q-113 102 -234 102t-189 -80q-68 -81 -69 -237v-20q0 -31 31 -31
h328q31 0 30 -31q0 -31 -30 -30h-328q-31 0 -31 -31l2 -983q0 -183 -84 -281t-243 -98z" />
    <glyph glyph-name="circumflex" unicode="&#x2c6;" horiz-adv-x="536" 
d="M266 1423q16 0 33 -16l225 -225q20 -23 0 -43t-43 0l-196 194q-18 18 -37 0l-193 -194q-23 -20 -43 0t0 43l219 223q19 18 35 18z" />
    <glyph glyph-name="tilde" unicode="&#x2dc;" horiz-adv-x="512" 
d="M0 1178q0 86 40 135t94 49q94 0 135 -77q42 -77 100 -77q82 0 82 123q1 31 31 31t30 -31q0 -88 -39 -136t-100 -48t-98 39q-36 39 -64 77q-29 38 -68 37q-82 0 -82 -122q-1 -31 -31 -31t-30 31z" />
    <glyph glyph-name="endash" unicode="&#x2013;" horiz-adv-x="1335" 
d="M186 686h963q31 0 31 -31t-31 -30h-963q-31 0 -30 30q-1 31 30 31z" />
    <glyph glyph-name="emdash" unicode="&#x2014;" horiz-adv-x="1703" 
d="M186 686h1332q31 0 30 -31q0 -31 -30 -30h-1332q-31 0 -30 30q-1 31 30 31z" />
    <glyph glyph-name="quoteleft" unicode="&#x2018;" horiz-adv-x="468" 
d="M131 1128v31q0 106 41 181t113 106q12 6 24 6t21 -14q14 -27 -13 -39q-125 -55 -124 -189v-16q29 16 59 16t58 -28q26 -28 26 -74q0 -47 -28 -75t-75 -27q-102 -1 -102 122z" />
    <glyph glyph-name="quoteright" unicode="&#x2019;" horiz-adv-x="466" 
d="M248 1454q102 0 102 -123v-31q0 -106 -41 -181t-112 -105q-13 -6 -25 -6t-23 20t15 33q125 55 125 188v17q-69 -38 -117 11q-27 28 -27 75q0 46 28 74t75 28z" />
    <glyph glyph-name="quotesinglbase" unicode="&#x201a;" horiz-adv-x="495" 
d="M248 184q102 0 102 -123v-30q0 -105 -41 -181t-112 -106q-13 -6 -25 -6t-23 20t15 33q125 55 125 189v16q-29 -16 -59 -16t-58 28q-27 28 -27 74t28 74t75 28z" />
    <glyph glyph-name="quotedblleft" unicode="&#x201c;" horiz-adv-x="755" 
d="M418 1128v31q0 106 41 181t112 106q13 6 25 6t23 -20t-15 -33q-125 -55 -125 -189v-16q29 16 59 16t58 -28q27 -28 27 -74q0 -47 -28 -75t-75 -27q-102 -1 -102 122zM131 1128v31q0 106 41 181t113 106q12 6 24 6t21 -14q14 -27 -13 -39q-125 -55 -124 -189v-16
q29 16 59 16t58 -28q26 -28 26 -74q0 -47 -28 -75t-75 -27q-102 -1 -102 122z" />
    <glyph glyph-name="quotedblright" unicode="&#x201d;" horiz-adv-x="753" 
d="M535 1454q102 0 102 -123v-31q0 -106 -41 -181t-113 -105q-12 -6 -24 -6t-21 14q-14 27 13 39q125 55 124 188v17q-70 -39 -116 11q-27 28 -27 75q0 46 28 74t75 28zM248 1454q102 0 102 -123v-31q0 -106 -41 -181t-112 -105q-13 -6 -25 -6t-23 20t15 33q125 55 125 188
v17q-69 -38 -117 11q-27 28 -27 75q0 46 28 74t75 28z" />
    <glyph glyph-name="quotedblbase" unicode="&#x201e;" horiz-adv-x="782" 
d="M535 184q102 0 102 -123v-30q0 -105 -41 -181t-113 -106q-12 -6 -24 -6t-21 14q-14 27 13 39q125 55 124 189v16q-29 -16 -59 -16t-58 28q-26 28 -26 74t28 74t75 28zM248 184q102 0 102 -123v-30q0 -105 -41 -181t-112 -106q-13 -6 -25 -6t-23 20t15 33q125 55 125 189
v16q-29 -16 -59 -16t-58 28q-27 28 -27 74t28 74t75 28z" />
    <glyph glyph-name="dagger" unicode="&#x2020;" horiz-adv-x="958" 
d="M858 922h-317q-31 0 -31 -31v-1270q0 -31 -31 -31t-30 31v1270q0 31 -31 31h-318q-30 0 -30 30t30 31h318q31 0 31 31v389q1 31 31 31t30 -31v-389q0 -31 31 -31h317q31 -1 31 -31t-31 -30z" />
    <glyph glyph-name="daggerdbl" unicode="&#x2021;" horiz-adv-x="995" 
d="M559 102h318q31 0 31 -30t-31 -31h-318q-27 0 -31 -25v-395q0 -31 -30 -31t-31 31v395q-4 25 -31 25h-317q-31 0 -31 31t31 30h317q31 0 31 31v758q0 31 -31 31h-317q-31 0 -31 30t31 31h317q31 0 31 31v389q0 31 31 31t30 -31v-389q0 -31 31 -31h318q31 0 30 -31
q0 -31 -30 -30h-318q-31 0 -31 -31v-758q0 -31 31 -31z" />
    <glyph glyph-name="bullet" unicode="&#x2022;" horiz-adv-x="704" 
d="M127 717q0 94 66 160q65 65 159 65t160 -66t66 -159q0 -94 -66 -160t-160 -66t-159 66q-66 66 -66 160z" />
    <glyph glyph-name="ellipsis" unicode="&#x2026;" horiz-adv-x="1355" 
d="M1108 -21q-47 0 -76 27q-27 29 -26 76q0 47 28 75q28 27 74 27q47 0 75 -28q27 -28 27 -74q0 -47 -28 -75t-74 -28zM575 82q0 47 28 75q28 27 75 27t75 -28q27 -28 27 -74q0 -47 -28 -75t-74 -28q-47 0 -76 27q-27 29 -27 76zM145 82q0 47 28 75q28 27 75 27t75 -28
q27 -28 27 -74q0 -47 -28 -75t-74 -28q-47 0 -76 27q-27 29 -27 76z" />
    <glyph glyph-name="perthousand" unicode="&#x2030;" horiz-adv-x="2342" 
d="M1595 328q1 147 97 247q96 101 241 101t241 -100t97 -248q0 -148 -96 -248q-95 -100 -241 -100t-242 100t-97 248zM2210 328q0 122 -80 204t-197 82t-197 -82t-79 -204q0 -122 80 -205q81 -82 197 -82t196 82t80 205zM80 1106q0 148 96 248t242 100t241 -100
q97 -100 97 -248t-96 -248t-242 -100q-145 0 -242 100q-96 101 -96 248zM694 1106q0 123 -80 205t-196 82t-197 -82q-80 -82 -80 -205t80 -205t197 -82q116 0 196 82t80 205zM858 328q0 147 96 247q96 101 242 101t242 -100t96 -248t-96 -248t-242 -100t-242 100
q-96 101 -96 248zM1473 328q0 122 -80 204t-197 82t-197 -82q-79 -82 -79 -204t80 -205q80 -82 196 -82q117 0 197 82t80 205zM1272 1386l-885 -1372q-16 -22 -43 -8t-8 41l887 1370q16 23 41 10q28 -21 8 -41z" />
    <glyph glyph-name="guilsinglleft" unicode="&#x2039;" horiz-adv-x="729" 
d="M80 510q0 17 16 33l473 471q20 23 43 0t0 -43l-442 -443q-18 -18 0 -36l438 -439q20 -20 -2 -42t-41 -1l-467 465q-18 18 -18 35z" />
    <glyph glyph-name="guilsinglright" unicode="&#x203a;" horiz-adv-x="729" 
d="M649 510q0 -16 -18 -35l-467 -465q-20 -23 -43 0t0 43l438 439q18 18 0 36l-442 443q-16 14 -11 30q6 15 22 19t32 -6l473 -471q16 -17 16 -33z" />
    <glyph glyph-name="Euro" unicode="&#x20ac;" horiz-adv-x="1583" 
d="M965 41q293 0 469 186q20 23 43 0t0 -43q-209 -205 -512 -204q-259 0 -439 150t-229 402h-193q-31 0 -30 31q0 31 30 31h183q-8 47 -8 122t8 124h-142q-31 0 -31 30t31 31h152q49 245 219 399t413 154t443 -174q33 -27 33 20v103q0 31 31 31t30 -31v-389q0 -31 -30 -31
t-31 31v143q-55 63 -129 117q-168 119 -366 119t-351 -136q-152 -137 -201 -356h586q31 0 31 -31t-31 -30h-596q-8 -49 -8 -124t8 -122h555q31 0 31 -31t-31 -31h-545q49 -223 211 -358q165 -133 396 -133z" />
    <glyph glyph-name="trademark" unicode="&#x2122;" horiz-adv-x="1935" 
d="M846 860h82q31 0 30 31v450q0 31 -30 31h-82q-31 0 -31 31t31 31h158q37 0 51 -31l221 -471q20 -39 41 0l221 471q14 31 51 31h158q31 0 31 -31t-31 -31h-82q-31 0 -31 -31v-450q0 -31 31 -31h82q31 0 31 -31t-31 -30h-246q-31 1 -31 31t31 30h41q31 0 31 31v399
q0 34 -17 10l-221 -471q-14 -31 -39 -31t-39 31l-221 471q-8 12 -12 6q-4 -5 -4 -16v-399q0 -31 31 -31h41q31 0 30 -31q0 -31 -30 -30h-246q-31 1 -31 31t31 30zM160 1270v133q0 31 30 31h533q31 0 31 -31v-133q0 -31 -31 -31t-31 31v71q0 31 -30 31h-144q-31 0 -31 -31
v-450q0 -31 31 -31h82q31 0 31 -31t-31 -30h-287q-31 1 -31 31t31 30h82q31 0 31 31v450q0 31 -31 31h-143q-31 0 -31 -31v-71q-1 -31 -31 -31t-30 31z" />
    <glyph glyph-name="NULL" horiz-adv-x="0" 
 />
    <glyph glyph-name="CR" horiz-adv-x="681" 
 />
    </font>
</defs>
</svg>
