<?xml version="1.0" standalone="no"?>
<!DOCTYPE svg PUBLIC "-//W3C//DTD SVG 1.1//EN" "http://www.w3.org/Graphics/SVG/1.1/DTD/svg11.dtd" >
<svg xmlns="http://www.w3.org/2000/svg">
<metadata>
Created by FontPrep 20130207 at Sun Apr 26 15:42:16 2015
 By Andrew Poes
Copyright (c) 2009 by Village Type &#38; Design LLC. All rights reserved.
</metadata>
<defs>
<font id="e38a3208d0813a382ab28eed4449d484" horiz-adv-x='1024' >
  <font-face 
    font-family="GalaxieCopernicus-Book"
    font-weight="500"
    font-stretch="normal"
    units-per-em="2048"
    panose-1="2 0 0 0 0 0 0 0 0 0"
    ascent="1638"
    descent="-410"
    x-height="1071"
    cap-height="1597"
    bbox="-303 -629 2912 2150"
    underline-thickness="61"
    underline-position="-144"
    unicode-range="U+0020-F778"
  />
<missing-glyph horiz-adv-x="1966" 
d="M1075 799l563 -563v1126zM891 799l-563 563v-1126zM412 1462l571 -571l571 571h-1142zM983 707l-571 -572h1142zM184 0v1597h1598v-1597h-1598z" />
    <glyph glyph-name="interrobang" unicode="&#x21;&#x3f;" horiz-adv-x="1044" 
d="M365 109q0 53 37 92q38 39 92 39t92 -39q39 -39 39 -92t-39 -91t-92 -38t-92 37q-37 39 -37 92zM809 1273q0 127 -81 191t-208 64q-250 0 -250 -262v-33h-133q-41 45 -41 115q0 110 112 190t312 80t326 -90q125 -90 125 -275q0 -133 -66 -235q-65 -102 -185 -192
t-159 -151q-39 -60 -39 -165v-111h-51q-68 87 -68 189t56 178l-39 399v95h184v-95l-29 -282l19 16q125 104 170 176t45 198z" />
    <glyph glyph-name="f_f_j" unicode="ffj" horiz-adv-x="2101" 
d="M1765 68v915h-585v-795q0 -74 41 -94t174 -35v-59h-545v59q138 18 162 61q12 22 12 56v807h-586v-795q0 -74 41 -94t174 -35v-59h-544v59q137 18 161 61q12 22 13 56v807h-158v47l158 62v61q0 229 103 357t302 128q118 0 184 -46t66 -122t-57 -102h-93v37q0 145 -153 145
q-105 0 -151 -80t-46 -243v-156h586v78q0 231 133 371t350 139q129 0 214 -51t85 -133q0 -35 -16 -65t-41 -40h-117v37q0 78 -46 121t-132 43q-135 -1 -205 -105t-69 -295v-100h751l-10 -203v-768q0 -131 -6 -184t-33 -115q-43 -102 -254 -313l-43 39l103 162q47 73 62 159
t15 220z" />
    <glyph glyph-name="f_f_k" unicode="ffk" horiz-adv-x="2744" 
d="M1765 176v1202q-39 82 -127 140t-212 59q-246 0 -246 -348v-158h290v-88h-290v-795q0 -74 41 -94t174 -35v-59h-545v59q138 18 162 61q12 22 12 56v807h-586v-795q0 -74 41 -94t174 -35v-59h-544v59q137 18 161 61q12 22 13 56v807h-158v47l158 62v61q0 229 103 357
t302 128q118 0 184 -46t66 -122t-57 -102h-93v37q0 145 -153 145q-105 0 -151 -80t-46 -243v-156h586v103q0 227 117 356t304 129t304 -90l115 90h67l-10 -176v-1307q0 -45 27 -70q28 -26 56 -32t89 -15v-59h-500v59q61 7 90 15t56 32q26 25 26 70zM2353 948q0 26 -27 39
q-28 12 -116 25v59h456v-59q-45 -9 -56 -14t-26 -9q-48 -13 -75 -43l-402 -362l629 -539v-45h-172l-631 539l391 354q29 29 29 55z" />
    <glyph glyph-name="f_b" unicode="fb" horiz-adv-x="2146" 
d="M1491 78q186 0 297 116q110 116 110 320t-98 328q-98 125 -288 125t-332 -160v-475q0 -254 311 -254zM684 1577q-244 0 -246 -348v-158h291v-88h-291v-795q0 -74 41 -94t174 -35v-59h-544v59q137 18 161 61q12 22 13 56v807h-158v47l158 62v82q0 227 116 356
q117 129 305 129t304 -90l114 90h68l-10 -176v-592q68 90 170 145t221 56q225 0 356 -144t131 -350q0 -278 -172 -448t-416 -170q-288 -1 -446 153v1245q-39 82 -127 140t-213 59z" />
    <glyph glyph-name="f_f_b" unicode="ffb" horiz-adv-x="2887" 
d="M2232 78q186 0 297 116t111 320t-98 328q-98 125 -289 125t-332 -160v-475q0 -254 311 -254zM1024 1071v103q0 227 117 356t304 129t304 -90l115 90h67l-10 -176v-592q68 90 170 145t221 56q224 0 356 -144t132 -350q0 -278 -172 -448t-416 -170q-289 0 -447 153v1245
q-39 82 -127 140t-212 59q-246 0 -246 -348v-158h290v-88h-290v-795q0 -74 41 -94t174 -35v-59h-545v59q138 18 162 61q12 22 12 56v807h-586v-795q0 -74 41 -94t174 -35v-59h-544v59q137 18 161 61q12 22 13 56v807h-158v47l158 62v61q0 229 103 357t302 128q118 0 184 -46
t66 -122t-57 -102h-93v37q0 145 -153 145q-105 0 -151 -80t-46 -243v-156h586z" />
    <glyph glyph-name="f_f_h" unicode="ffh" horiz-adv-x="2928" 
d="M1765 176v1202q-39 82 -127 140t-212 59q-246 0 -246 -348v-158h290v-88h-290v-795q0 -74 41 -94t174 -35v-59h-545v59q138 18 162 61q12 22 12 56v807h-586v-795q0 -74 41 -94t174 -35v-59h-544v59q137 18 161 61q12 22 13 56v807h-158v47l158 62v61q0 229 103 357
t302 128q118 0 184 -46t66 -122t-57 -102h-93v37q0 145 -153 145q-105 0 -151 -80t-46 -243v-156h586v103q0 227 117 356t304 129t304 -90l115 90h67l-10 -176v-602q80 86 192 148q112 63 250 63t230 -81t92 -255v-580q0 -68 53 -90q34 -14 121 -27v-59h-504v59
q138 18 162 61q12 22 12 56v557q0 227 -237 228q-90 1 -194 -47t-177 -115v-623q0 -45 27 -70q28 -26 56 -32t89 -15v-59h-502v59q138 18 162 61q12 21 12 56z" />
    <glyph glyph-name="f_h" unicode="fh" horiz-adv-x="2187" 
d="M1024 176v1202q-39 82 -127 140t-213 59q-244 0 -246 -348v-158h291v-88h-291v-795q0 -74 41 -94t174 -35v-59h-544v59q137 18 161 61q12 22 13 56v807h-158v47l158 62v82q0 227 116 356q117 129 305 129t304 -90l114 90h68l-10 -176v-602q80 86 192 148q112 63 250 63
t230 -81t92 -255v-580q0 -68 53 -90q34 -14 121 -27v-59h-504v59q138 18 162 61q12 22 12 56v557q0 227 -238 228q-90 1 -193 -47t-177 -115v-623q0 -45 26 -70q26 -26 56 -32q29 -6 90 -15v-59h-502v59q138 18 162 61q12 21 12 56z" />
    <glyph glyph-name="f_j" unicode="fj" horiz-adv-x="1359" 
d="M1180 100q0 -131 -6 -184t-33 -115q-43 -102 -254 -313l-43 39l102 162q46 73 62 159t16 220v915h-586v-795q0 -74 41 -94t174 -35v-59h-544v59q137 18 161 61q12 22 13 56v807h-158v47l158 62v57q0 231 133 371t350 139q129 0 214 -51t85 -133q0 -35 -16 -65t-41 -40
h-117v37q0 78 -46 121t-132 43q-135 -1 -205 -105t-70 -295v-100h752l-10 -203v-768z" />
    <glyph glyph-name="f_k" unicode="fk" horiz-adv-x="2002" 
d="M1024 176v1202q-39 82 -127 140t-213 59q-244 0 -246 -348v-158h291v-88h-291v-795q0 -74 41 -94t174 -35v-59h-544v59q137 18 161 61q12 22 13 56v807h-158v47l158 62v82q0 227 116 356q117 129 305 129t304 -90l114 90h68l-10 -176v-1307q0 -45 26 -70q26 -26 56 -32
q29 -6 90 -15v-59h-500v59q61 7 90 15q30 8 56 32t26 70zM1612 948q0 26 -28 39q-28 12 -116 25v59h457v-59q-49 -10 -58 -14q-9 -5 -25 -9q-44 -11 -75 -43l-401 -362l629 -539v-45h-172l-631 539l391 354q29 29 29 55z" />
    <glyph glyph-name="ff" unicode="ff" horiz-adv-x="1542" 
d="M438 983v-795q0 -74 41 -94t174 -35v-59h-544v59q137 18 161 61q12 22 13 56v807h-158v47l158 62v61q0 229 103 357t302 128q118 0 184 -46t66 -122t-57 -102h-93v37q0 145 -153 145q-105 0 -151 -80t-46 -243v-156h586v103q0 231 110 358t312 127q118 0 184 -46t66 -122
t-58 -102h-92v36q0 145 -153 146q-213 0 -213 -324v-176h290v-88h-290v-795q0 -74 41 -94t174 -35v-59h-545v59q138 18 162 61q12 22 12 56v807h-586z" />
    <glyph glyph-name="ffi" unicode="ffi" horiz-adv-x="2183" 
d="M1024 1071v78q0 231 133 371t350 139q129 0 214 -51t85 -133q0 -35 -16 -65t-41 -40h-117v37q0 78 -46 121t-132 43q-135 -1 -205 -105t-69 -295v-100h751l-10 -203v-692q0 -68 53 -90q34 -14 121 -27v-59h-504v59q138 18 162 61q12 22 12 56v807h-585v-795q0 -74 41 -94
t174 -35v-59h-545v59q138 18 162 61q12 22 12 56v807h-586v-795q0 -74 41 -94t174 -35v-59h-544v59q137 18 161 61q12 22 13 56v807h-158v47l158 62v61q0 229 103 357t302 128q118 0 184 -46t66 -122t-57 -102h-93v37q0 145 -153 145q-105 0 -151 -80t-46 -243v-156h586z
" />
    <glyph glyph-name="ffl" unicode="ffl" horiz-adv-x="2183" 
d="M1024 1071v103q0 227 117 356t304 129t304 -90l115 90h67l-10 -176v-1307q0 -68 53 -90q34 -14 121 -27v-59h-504v59q138 18 162 61q12 22 12 56v1202q-39 82 -127 140t-212 59q-246 0 -246 -348v-158h290v-88h-290v-795q0 -74 41 -94t174 -35v-59h-545v59q138 18 162 61
q12 22 12 56v807h-586v-795q0 -74 41 -94t174 -35v-59h-544v59q137 18 161 61q12 22 13 56v807h-158v47l158 62v61q0 229 103 357t302 128q118 0 184 -46t66 -122t-57 -102h-93v37q0 145 -153 145q-105 0 -151 -80t-46 -243v-156h586z" />
    <glyph glyph-name="fi" unicode="fi" horiz-adv-x="1441" 
d="M1180 176q0 -68 53 -90q34 -14 121 -27v-59h-504v59q138 18 162 61q12 22 12 56v807h-586v-795q0 -74 41 -94t174 -35v-59h-544v59q137 18 161 61q12 22 13 56v807h-158v47l158 62v57q0 231 133 371t350 139q129 0 214 -51t85 -133q0 -35 -16 -65t-41 -40h-117v37
q0 78 -46 121t-132 43q-135 -1 -205 -105t-70 -295v-100h752l-10 -203v-692z" />
    <glyph glyph-name="fl" unicode="fl" horiz-adv-x="1441" 
d="M1180 176q0 -68 53 -90q34 -14 121 -27v-59h-504v59q138 18 162 61q12 22 12 56v1202q-39 82 -127 140t-213 59q-244 0 -246 -348v-158h291v-88h-291v-795q0 -74 41 -94t174 -35v-59h-544v59q137 18 161 61q12 22 13 56v807h-158v47l158 62v82q0 227 116 356
q117 129 305 129t304 -90l114 90h68l-10 -176v-1307z" />
    <glyph glyph-name="interrobangdown" unicode="&#xa1;&#xbf;" horiz-adv-x="1044" 
d="M680 963q0 -53 -38 -93t-91 -39q-53 0 -92 39q-39 38 -39 92t39 92t92 38t91 -38t38 -91zM236 -202q0 -126 80 -190t208 -65q250 0 250 262v33h133q41 -45 41 -114q0 -111 -112 -191t-312 -80t-325 90t-125 275q0 133 65 235q66 103 186 193q121 90 159 150t38 165v111
h51q68 -88 68 -188t-57 -179l41 -399v-94h-185v94l29 280l-18 -14q-125 -104 -170 -176t-45 -198z" />
    <glyph glyph-name=".notdef" horiz-adv-x="1966" 
d="M1075 799l563 -563v1126zM891 799l-563 563v-1126zM412 1462l571 -571l571 571h-1142zM983 707l-571 -572h1142zM184 0v1597h1598v-1597h-1598z" />
    <glyph glyph-name=".null" horiz-adv-x="0" 
 />
    <glyph glyph-name="nonmarkingreturn" horiz-adv-x="681" 
 />
    <glyph glyph-name="space" unicode=" " horiz-adv-x="542" 
 />
    <glyph glyph-name="exclam" unicode="!" horiz-adv-x="645" 
d="M432 1597v-94l-41 -598q-27 -420 -29 -502h-77q-2 82 -29 502l-41 598v94h217zM193 109q0 53 37 92q38 39 92 39t92 -39q39 -39 39 -92t-39 -91t-92 -38t-92 37q-37 39 -37 92z" />
    <glyph glyph-name="quotedbl" unicode="&#x22;" horiz-adv-x="681" 
d="M541 1073h-88l-54 524h195zM229 1073h-88l-53 524h195z" />
    <glyph glyph-name="numbersign" unicode="#" horiz-adv-x="1269" 
d="M502 915l-119 -557h379l119 557h-379zM1221 1001v-86h-250l-119 -557h252v-86h-270l-105 -493h-90l104 493h-378l-105 -493h-90l104 493h-225v86h244l119 557h-246v86h264l102 482h91l-103 -482h379l102 482h91l-103 -482h232z" />
    <glyph glyph-name="dollar" unicode="$" horiz-adv-x="1077" 
d="M510 1196q-116 0 -188 -60t-72 -156q0 -95 48 -144t155 -82l55 -17l98 451q-57 8 -96 8zM514 72q141 0 228 60t87 166t-54 164t-173 93l-43 12l-106 -491q18 -4 61 -4zM98 952q0 146 117 241t313 95q49 0 99 -6l45 199h88l-47 -213q133 -31 217 -94v-283h-53
q-53 209 -187 270l-98 -450l70 -21q154 -47 238 -131t85 -225q0 -172 -130 -263t-355 -91q-23 0 -68 4l-43 -199h-90l45 211q-162 31 -235 98l-17 309h51q66 -229 226 -303l106 490l-72 22q-153 43 -229 119q-76 75 -76 221z" />
    <glyph glyph-name="percent" unicode="%" horiz-adv-x="2140" 
d="M1427 403q0 -338 232 -337q231 0 231 338t-232 337q-232 0 -231 -338zM578 0l870 1366h115l-871 -1366h-114zM2038 403q0 -207 -104 -315t-275 -108q-172 0 -276 108q-103 110 -103 316t103 315t275 109t276 -110q104 -108 104 -315zM713 963q0 338 -232 337
q-231 0 -231 -338t232 -337q232 0 231 338zM102 963q0 207 104 315t275 108q172 0 276 -108q103 -110 103 -316t-103 -315t-275 -109t-276 110q-104 108 -104 315z" />
    <glyph glyph-name="ampersand" unicode="&#x26;" horiz-adv-x="1640" 
d="M664 1534q-112 0 -182 -74q-68 -74 -68 -170q0 -94 36 -166t66 -104t90 -90q158 63 230 145t72 206q0 125 -66 189t-178 64zM248 426q0 -144 114 -240t268 -96q156 0 250 45t183 146l-567 536q-132 -68 -190 -158q-58 -89 -58 -233zM1630 0h-244q-86 45 -256 221
q-199 -242 -522 -241q-203 0 -364 96q-82 49 -130 139t-48 209q0 160 96 260t282 186q-190 182 -190 362t117 284q117 102 303 102t292 -94q108 -94 108 -228t-77 -222q-76 -89 -335 -197l485 -455q63 133 63 274q0 90 -59 120t-190 36v72h616v-72q-125 -4 -179 -37
t-69 -131q-31 -180 -110 -328l180 -168q71 -70 115 -96t116 -33v-59z" />
    <glyph glyph-name="quotesingle" unicode="'" horiz-adv-x="370" 
d="M229 1073h-88l-53 524h195z" />
    <glyph glyph-name="parenleft" unicode="(" horiz-adv-x="788" 
d="M170 717q0 305 109 545t333 438l72 -55q-143 -139 -226 -259q-186 -268 -187 -668q-1 -401 187 -671q83 -119 226 -258l-72 -55q-226 198 -334 438t-108 545z" />
    <glyph glyph-name="parenright" unicode=")" horiz-adv-x="788" 
d="M618 717q0 -305 -108 -545t-334 -438l-72 55q143 139 227 258q187 268 187 671t-187 668q-83 119 -227 259l72 55q226 -198 334 -438t108 -545z" />
    <glyph glyph-name="asterisk" unicode="*" horiz-adv-x="763" 
d="M29 1337l22 66l279 -82l12 297h78l12 -297l279 82l24 -64l-274 -98l164 -248l-64 -37l-178 236l-180 -238l-64 39l164 246z" />
    <glyph glyph-name="plus" unicode="+" 
d="M659 31v501h-495v105h495v500h115v-500h496v-105h-496v-501h-115z" />
    <glyph glyph-name="comma" unicode="," horiz-adv-x="645" 
d="M360 -8h-75q-92 25 -92 121q0 57 36 92q37 35 103 35t104 -60t39 -139q0 -127 -88 -232t-260 -122v71q233 56 233 234z" />
    <glyph glyph-name="hyphen" unicode="-" horiz-adv-x="712" 
d="M610 633h-508v119h508v-119z" />
    <glyph glyph-name="period" unicode="." horiz-adv-x="645" 
d="M193 109q0 53 37 92q38 39 92 39t92 -39q39 -39 39 -92t-39 -91t-92 -38t-92 37q-37 39 -37 92z" />
    <glyph glyph-name="slash" unicode="/" horiz-adv-x="768" 
d="M719 1700l-594 -1948h-115l594 1948h115z" />
    <glyph glyph-name="zero" unicode="0" horiz-adv-x="1335" 
d="M104 571q0 254 162 422t402 168t402 -168t161 -422q0 -254 -162 -423q-161 -168 -401 -168t-402 168t-162 423zM279 571q0 -219 105 -357q106 -138 284 -138t283 138t106 357t-105 357t-284 137q-178 0 -284 -137q-105 -138 -105 -357z" />
    <glyph glyph-name="one" unicode="1" horiz-adv-x="1085" 
d="M1001 0h-835v68q206 12 278 38t72 123v670h-354v49l59 8q178 25 258 61t164 140h29v-928q0 -77 44 -113q44 -37 285 -48v-68z" />
    <glyph glyph-name="two" unicode="2" horiz-adv-x="1177" 
d="M756 125q160 0 237 188h70l-109 -313h-893v31q135 96 281 200t219 178q165 170 199 265q20 59 20 121q0 246 -262 245q-123 0 -206 -53t-154 -151l-45 47q143 279 448 278q187 0 289 -91t102 -234t-75 -244q-41 -55 -77 -97q-36 -43 -107 -99t-111 -88t-128 -94
q-87 -62 -124 -89h426z" />
    <glyph glyph-name="three" unicode="3" horiz-adv-x="1050" 
d="M27 -367q0 51 47 68q147 -47 320 -47t286 94t113 266t-119 260t-307 88h-113l-16 64q241 63 321 123q99 76 122 156q15 51 15 116q0 105 -63 163t-176 58q-182 0 -328 -186l-53 33q63 131 175 202q113 71 261 71t248 -86q100 -85 100 -226q0 -142 -91 -238t-216 -151
q161 -13 273 -109t112 -264q0 -238 -202 -400t-484 -163q-225 -1 -225 108z" />
    <glyph glyph-name="four" unicode="4" horiz-adv-x="1306" 
d="M969 -457h-154v457h-772v78l868 1091h58v-1058h299v-111h-299v-457zM815 111v790l-625 -790h625z" />
    <glyph glyph-name="five" unicode="5" horiz-adv-x="1052" 
d="M260 -475q-225 0 -225 108q0 51 47 68q147 -47 319 -47t284 108t112 273q0 214 -196 338q-170 106 -449 174l208 594h334q84 1 133 27t80 96h70l-88 -269h-488l-114 -319q456 -116 579 -343q49 -91 49 -204q0 -264 -187 -434t-468 -170z" />
    <glyph glyph-name="six" unicode="6" horiz-adv-x="1239" 
d="M635 877q-215 0 -356 -142q-6 -33 -7 -133q0 -246 106 -386t271 -140q164 0 258 105t94 291t-95 295q-95 110 -271 110zM700 1001q207 0 336 -128t129 -356t-144 -383t-376 -154q-170 0 -297 95t-188 240t-62 316q0 354 226 619t587 368l54 -51q-279 -104 -456 -302
t-222 -454q57 76 172 133t241 57z" />
    <glyph glyph-name="seven" unicode="7" horiz-adv-x="1138" 
d="M1108 1141v-35l-686 -1563h-115l647 1448h-618q-80 -1 -123 -31t-84 -114h-72l97 295h954z" />
    <glyph glyph-name="eight" unicode="8" horiz-adv-x="1202" 
d="M600 1530q-130 0 -204 -74t-74 -184t50 -180q50 -68 167 -142l125 -80q223 137 223 381q0 129 -79 204t-208 75zM268 378q0 -132 98 -220t244 -88q145 0 239 82q93 82 93 221q0 99 -57 165t-180 140l-150 94q-155 -80 -221 -171t-66 -223zM1036 1262q0 -150 -89 -258
t-230 -166l117 -72q260 -160 260 -387q0 -178 -136 -289q-136 -110 -354 -110q-217 0 -356 110t-139 282q0 173 111 275q112 102 280 156l-88 57q-236 154 -236 381q0 166 118 271q118 106 312 106t313 -102q117 -104 117 -254z" />
    <glyph glyph-name="nine" unicode="9" horiz-adv-x="1239" 
d="M604 264q215 0 357 142q6 33 6 133q-1 246 -107 386t-270 140q-164 1 -258 -105t-94 -291t95 -295t271 -110zM74 624q0 228 144 383t376 154q170 0 297 -95q127 -94 188 -240t62 -316q1 -354 -225 -620t-588 -367l-54 51q279 104 456 302t222 454q-57 -76 -172 -133
t-241 -58q-207 0 -336 128q-129 129 -129 357z" />
    <glyph glyph-name="colon" unicode=":" horiz-adv-x="645" 
d="M193 768q0 53 37 92q38 39 92 39t92 -39q39 -39 39 -92t-39 -91t-92 -38t-92 38q-37 38 -37 91zM193 109q0 53 37 92q38 39 92 39t92 -39q39 -39 39 -92t-39 -91t-92 -38t-92 37q-37 39 -37 92z" />
    <glyph glyph-name="semicolon" unicode=";" horiz-adv-x="645" 
d="M193 768q0 53 37 92q38 39 92 39t92 -39q39 -39 39 -92t-39 -91t-92 -38t-92 38q-37 38 -37 91zM358 -8h-75q-92 25 -93 121q0 55 37 89t103 34t104 -58t39 -137q0 -127 -88 -232t-260 -122v71q233 56 233 234z" />
    <glyph glyph-name="less" unicode="&#x3c;" 
d="M1270 1036l-1037 -452l1037 -451v-113l-1106 500v129l1106 500v-113z" />
    <glyph glyph-name="equal" unicode="=" 
d="M1270 352h-1106v103h1106v-103zM1270 651h-1106v103h1106v-103z" />
    <glyph glyph-name="greater" unicode="&#x3e;" 
d="M164 133l1036 451l-1036 452v113l1106 -500v-129l-1106 -500v113z" />
    <glyph glyph-name="question" unicode="?" horiz-adv-x="972" 
d="M301 109q0 53 38 92t91 39t92 -39t39 -92t-39 -91t-92 -38t-91 38t-38 91zM739 1279q1 115 -71 183t-186 68t-176 -68t-62 -174v-63h-133q-41 41 -41 108q0 121 116 203q118 82 300 82t300 -98t119 -291q0 -131 -63 -219t-185 -188t-162 -164q-40 -62 -40 -146v-109h-49
q-117 196 -15 360q47 75 151 163t150 162q47 74 47 191z" />
    <glyph glyph-name="at" unicode="@" horiz-adv-x="2269" 
d="M1511 188q209 0 349 180t141 457q0 357 -201 567t-579 210q-269 0 -487 -140t-338 -380q-120 -239 -120 -525q0 -397 240 -648t629 -251t692 195l33 -66q-123 -101 -324 -163t-411 -62q-457 0 -735 275t-277 720q0 305 144 566q143 261 397 415t557 154q425 0 675 -237
t250 -630q0 -321 -185 -519t-486 -197q-168 0 -168 116q0 49 36 201q36 153 43 188h-8q-8 -16 -35 -85t-115 -187q-88 -119 -170 -176t-186 -57q-102 1 -156 83t-54 226q0 287 182 508t430 221q80 0 131 -33t68 -76l135 123h51l-70 -209q-45 -180 -85 -405t-40 -292t47 -67z
M922 201q59 0 119 44q61 43 153 163t159 286t70 269q-39 96 -149 96q-193 0 -324 -193t-133 -448q1 -217 105 -217z" />
    <glyph glyph-name="A" unicode="A" horiz-adv-x="1675" 
d="M801 1382l-322 -757h645zM301 159q0 -86 234 -91v-68h-515v68q59 8 93 25q33 17 51 59l577 1341l-61 131h194l637 -1472q17 -40 51 -58t93 -26v-68h-580v68q129 4 180 26t51 63q0 42 -24 101l-119 274h-723l-114 -272q-25 -59 -25 -101z" />
    <glyph glyph-name="B" unicode="B" horiz-adv-x="1611" 
d="M791 1507h-277v-643h274q215 0 316 77q100 77 100 243q1 323 -413 323zM848 774h-334v-532q0 -90 54 -122t190 -32h110q221 0 320 79q98 79 98 251t-108 264q-109 92 -330 92zM94 0v68q88 4 137 15t83 48t34 107v1122q0 70 -34 106t-83 48q-49 11 -137 16v67h725
q563 0 563 -399q0 -164 -110 -257t-283 -116q229 -13 354 -121t125 -288t-154 -298t-427 -118h-793z" />
    <glyph glyph-name="C" unicode="C" horiz-adv-x="1675" 
d="M999 76q221 0 341 92t216 307h50l-47 -377q-264 -119 -584 -118q-401 0 -631 228q-229 228 -229 560q0 383 241 616q242 234 594 234t572 -127l14 -336h-45q-70 188 -202 270t-333 82q-319 0 -494 -184t-175 -504q0 -186 80 -353t245 -279q166 -111 387 -111z" />
    <glyph glyph-name="D" unicode="D" horiz-adv-x="1884" 
d="M94 1597h821q217 0 385 -62q309 -114 419 -409q50 -133 50 -307q1 -174 -65 -337q-121 -302 -435 -426q-144 -56 -308 -56h-867v68q88 4 137 15t83 48t34 107v1122q0 70 -34 106t-83 48q-49 11 -137 16v67zM872 1507h-358v-1257q0 -96 56 -128t196 -32h192q266 0 447 178
q180 178 180 497t-159 523q-80 104 -222 162t-332 57z" />
    <glyph glyph-name="E" unicode="E" horiz-adv-x="1660" 
d="M1247 555h-57q-20 109 -57 161t-111 52h-508v-524q0 -90 56 -122t196 -32h317q54 0 145 14q26 4 54 28t43 35q14 11 46 57t46 69t60 94h49l-72 -387h-1360v68q88 4 137 15t83 48t34 107v1122q0 70 -34 106t-83 48q-49 11 -137 16v67h1350l6 -360h-39q-66 156 -134 213
q-69 57 -206 57h-557v-649h508q74 0 111 52t57 163h57v-518z" />
    <glyph glyph-name="F" unicode="F" horiz-adv-x="1533" 
d="M823 0h-729v68q88 4 137 15t83 48t34 107v1122q0 70 -34 106t-83 48q-49 11 -137 16v67h1331l7 -360h-39q-66 156 -135 213t-205 57h-539v-698h467q74 0 111 52t57 163h57v-518h-57q-20 109 -57 161t-111 52h-467v-481q0 -82 52 -117t123 -42t134 -11v-68z" />
    <glyph glyph-name="G" unicode="G" horiz-adv-x="1853" 
d="M115 768q0 383 241 616q242 234 594 234t572 -127l14 -336h-45q-70 188 -202 270t-333 82q-319 0 -494 -184t-175 -504q0 -190 81 -357q82 -167 244 -277t375 -109q317 0 438 155v308q0 103 -65 131t-184 32v66h653v-66q-120 -4 -169 -25q-48 -21 -64 -53t-17 -85v-396
q-240 -164 -610 -163q-203 0 -368 66q-306 121 -430 426q-56 140 -56 296z" />
    <glyph glyph-name="H" unicode="H" horiz-adv-x="2013" 
d="M1499 238v528h-985v-528q0 -70 34 -107t83 -48t137 -15v-68h-674v68q88 4 137 15t83 48t34 107v1122q0 70 -34 106t-83 48q-49 11 -137 16v67h674v-67q-88 -4 -137 -16t-83 -48q-34 -37 -34 -106v-502h985v502q0 70 -34 106t-83 48q-49 11 -137 16v67h674v-67
q-88 -4 -137 -16t-83 -48q-34 -37 -34 -106v-1122q0 -70 34 -107t83 -48t137 -15v-68h-674v68q88 4 137 15t83 48t34 107z" />
    <glyph glyph-name="I" unicode="I" horiz-adv-x="862" 
d="M348 238v1122q0 70 -34 106t-83 48q-49 11 -137 16v67h674v-67q-88 -4 -137 -16t-83 -48q-34 -37 -34 -106v-1122q0 -70 34 -107t83 -48t137 -15v-68h-674v68q88 4 137 15t83 48t34 107z" />
    <glyph glyph-name="J" unicode="J" horiz-adv-x="1132" 
d="M840 1360v-916q0 -465 -441 -464q-184 0 -295 66t-110 187q0 76 51 117h137v-63q0 -229 238 -230q254 0 254 353v950q0 70 -34 106t-83 48q-49 11 -137 16v67h674v-67q-88 -4 -138 -16t-82 -48q-34 -36 -34 -106z" />
    <glyph glyph-name="K" unicode="K" horiz-adv-x="1683" 
d="M348 238v1122q0 70 -34 106t-83 48q-49 11 -137 16v67h674v-67q-88 -4 -137 -16t-83 -48q-34 -37 -34 -106v-1122q0 -70 34 -107t83 -48t137 -15v-68h-674v68q88 4 137 15t83 48t34 107zM1673 0h-262q-111 55 -240 184l-639 629l685 576q51 41 51 67t-8 40t-64 21
t-129 13v67h575v-67q-99 0 -179 -59q-30 -22 -93 -74l-649 -545l668 -645q127 -123 284 -139v-68z" />
    <glyph glyph-name="L" unicode="L" horiz-adv-x="1550" 
d="M514 1360v-1116q0 -90 56 -122t196 -32h278q116 0 163 33t72 52q35 26 148 241h48l-74 -416h-1307v68q88 4 137 15t83 48t34 107v1122q0 70 -34 106t-83 48q-49 11 -137 16v67h674v-67q-88 -4 -137 -16t-83 -48t-34 -106z" />
    <glyph glyph-name="M" unicode="M" horiz-adv-x="2230" 
d="M371 213q0 -80 47 -110t174 -35v-68h-526v68q102 4 143 32t51 105l146 1159q0 92 -40 127t-155 39v67h367q4 -59 32 -120l531 -1201l493 1201q27 66 31 120h354v-67q-115 -4 -155 -39t-39 -127l145 -1159q10 -78 51 -106t144 -31v-68h-588v68q127 6 174 36t47 109
q0 22 -4 55l-127 1022l-539 -1290h-49l-579 1300l-125 -1032q-4 -33 -4 -55z" />
    <glyph glyph-name="N" unicode="N" horiz-adv-x="1998" 
d="M346 238v1157q-74 87 -118 111t-134 24v67h332l1141 -1318v1081q1 100 -57 132t-187 38v67h602v-67q-131 -6 -190 -38t-60 -132v-1360h-76l-1144 1311v-1073q0 -100 57 -132t186 -38v-68h-604v68q88 4 136 15t82 48t34 107z" />
    <glyph glyph-name="O" unicode="O" horiz-adv-x="1851" 
d="M906 -20q-353 0 -572 232t-219 556q0 383 238 616q239 234 592 234t573 -232t219 -557q0 -383 -239 -616t-592 -233zM975 102q274 0 433 184t159 457q0 328 -178 540t-512 212q-273 0 -433 -183t-159 -458q0 -328 178 -540t512 -212z" />
    <glyph glyph-name="P" unicode="P" horiz-adv-x="1492" 
d="M514 1507v-729h299q229 0 332 85q102 85 102 269q0 374 -430 375h-303zM883 688h-369v-450q0 -82 52 -117t123 -42t134 -11v-68h-729v68q88 4 137 15t83 48t34 107v1122q0 70 -34 106t-83 48q-49 11 -137 16v67h740q307 0 452 -128q146 -129 146 -323t-138 -326
t-411 -132z" />
    <glyph glyph-name="Q" unicode="Q" horiz-adv-x="1851" 
d="M975 102q274 0 433 184t159 457q0 328 -178 540t-512 212q-273 0 -433 -183t-159 -458q0 -328 178 -540t512 -212zM115 768q0 383 238 616q239 234 592 234t573 -232t219 -564q1 -331 -187 -554t-487 -274l383 -258q119 -80 264 -80h59v-45q-100 -63 -202 -64
q-173 0 -316 121l-368 314q-342 8 -555 238t-213 548z" />
    <glyph glyph-name="R" unicode="R" horiz-adv-x="1730" 
d="M94 1597h717q347 0 474 -134q126 -134 126 -312t-154 -291t-378 -112q111 -33 225 -160l364 -404q96 -106 252 -116v-68h-256q-86 37 -204 166l-396 434q-76 82 -135 109t-139 26h-76v-497q0 -70 34 -107t83 -48t137 -15v-68h-674v68q88 4 137 15t83 48t34 107v1122
q0 70 -34 106t-83 48q-49 11 -137 16v67zM786 1507h-272v-684h272q242 0 341 81t100 253q-1 350 -441 350z" />
    <glyph glyph-name="S" unicode="S" horiz-adv-x="1300" 
d="M610 -20q-143 0 -275 36t-206 99l-14 383h55q45 -207 162 -316q117 -108 297 -108t283 84q104 84 104 220t-74 208t-229 129l-232 84q-162 59 -254 152t-92 266t131 287t367 114q293 0 467 -141v-342h-58q-45 213 -144 301q-100 88 -268 88t-256 -78t-87 -202
q0 -124 59 -184t193 -110l258 -96q184 -68 279 -168t95 -270q0 -201 -153 -319q-154 -117 -408 -117z" />
    <glyph glyph-name="T" unicode="T" horiz-adv-x="1669" 
d="M1153 1509h-238v-1271q-1 -98 61 -132t195 -38v-68h-675v68q133 6 194 38t62 132v1271h-236q-59 0 -111 -5t-123 -57q-34 -23 -72 -97t-77 -154h-49l35 401h1429l37 -401h-49q-108 222 -148 251q-76 52 -126 57t-109 5z" />
    <glyph glyph-name="U" unicode="U" horiz-adv-x="1794" 
d="M440 1360v-776q0 -236 124 -361t335 -125q516 0 516 492v770q0 100 -57 132t-187 38v67h603v-67q-130 -6 -190 -38t-60 -132v-817q0 -267 -179 -415t-456 -148t-446 144t-169 423v813q0 70 -34 106t-82 48q-49 11 -138 16v67h674v-67q-88 -4 -137 -16t-83 -48t-34 -106z
" />
    <glyph glyph-name="V" unicode="V" horiz-adv-x="1654" 
d="M1356 1438q0 42 -53 66q-53 22 -181 26v67h512v-67q-59 -8 -92 -26t-51 -58l-614 -1471h-54l-659 1471q-20 43 -53 59t-91 25v67h572v-67q-127 -4 -178 -26q-52 -22 -52 -66t25 -99l496 -1101l448 1099q25 59 25 101z" />
    <glyph glyph-name="W" unicode="W" horiz-adv-x="2351" 
d="M1825 1597h506v-67q-41 -6 -64 -12q-62 -16 -80 -72l-532 -1471h-41l-426 1061l-424 -1061h-41l-559 1471q-16 41 -50 57t-94 27v67h566v-67q-129 -4 -180 -26t-52 -72q0 -23 27 -97l405 -1067l349 883l-113 295q-25 66 -141 84v67h563v-67q-129 -4 -180 -26t-52 -72
q0 -27 27 -99l420 -1067l373 1065q27 80 26 99q0 52 -53 74t-180 26v67z" />
    <glyph glyph-name="X" unicode="X" horiz-adv-x="1759" 
d="M1739 0h-652v68q135 0 180 16q44 16 44 50q1 34 -9 49t-12 21t-10 15q-8 10 -17 22t-20 23l-391 488l-408 -488q-119 -144 -25 -180q42 -16 163 -16v-68h-562v68q76 0 126 26t114 101l531 632l-467 576q-64 79 -112 103t-126 24v67h649v-67q-129 0 -174 -16t-45 -56
q0 -39 68 -125l323 -407l340 411q63 80 63 120t-45 56q-46 16 -173 17v67h563v-67q-76 0 -119 -24t-109 -103l-458 -551l536 -657q63 -76 109 -102t125 -25v-68z" />
    <glyph glyph-name="Y" unicode="Y" horiz-adv-x="1507" 
d="M1198 1442q0 46 -44 64q-44 19 -173 24v67h506v-67q-100 -16 -144 -84l-503 -772v-436q0 -100 57 -132t188 -38v-68h-653v68q131 6 189 37q57 32 57 133v428l-514 780q-43 68 -144 84v67h574v-67q-127 -4 -173 -24t-46 -63q0 -42 28 -89l390 -588l370 577q35 53 35 99z
" />
    <glyph glyph-name="Z" unicode="Z" horiz-adv-x="1521" 
d="M993 90q90 0 127 18q36 18 56 27q20 8 46 39t43 50t46 76q28 56 59 116h53l-73 -416h-1276v39l1089 1468h-637q-135 0 -193 -56t-147 -259h-45l6 405h1246v-41l-1086 -1466h686z" />
    <glyph glyph-name="bracketleft" unicode="[" horiz-adv-x="677" 
d="M307 1620v-1806h228v-80h-330v1966h330v-80h-228z" />
    <glyph glyph-name="backslash" unicode="\" horiz-adv-x="768" 
d="M643 -248l-594 1948h115l594 -1948h-115z" />
    <glyph glyph-name="bracketright" unicode="]" horiz-adv-x="677" 
d="M373 -186v1806h-230v80h330v-1966h-330v80h230z" />
    <glyph glyph-name="asciicircum" unicode="^" horiz-adv-x="962" 
d="M543 1618l379 -799h-121l-320 692l-319 -692h-121l379 799h123z" />
    <glyph glyph-name="underscore" unicode="_" horiz-adv-x="614" 
d="M573 -410h-532v103h532v-103z" />
    <glyph glyph-name="grave" unicode="`" horiz-adv-x="1228" 
d="M428 1638h201l172 -426h-68z" />
    <glyph glyph-name="a" unicode="a" horiz-adv-x="1243" 
d="M983 719v-488q0 -143 104 -143q43 0 91 18l20 -38q-94 -88 -178 -88t-133 53t-53 147q-52 -57 -92 -93t-122 -73t-178 -37q-150 0 -232 79t-83 198q0 155 129 218q64 33 168 60l403 117v49q0 129 -70 214q-71 85 -212 85q-193 0 -193 -163q0 -45 13 -82l-136 -15
q-43 31 -43 99q0 116 115 186t292 70t283 -92t107 -281zM297 281q0 -93 52 -143t142 -50t166 42t170 126v309l-401 -123q-129 -41 -129 -161z" />
    <glyph glyph-name="b" unicode="b" horiz-adv-x="1300" 
d="M645 78q186 0 297 116t111 320q-1 204 -99 328q-98 125 -288 125t-332 -160v-475q0 -254 311 -254zM1212 598q0 -278 -172 -448t-415 -170q-289 0 -447 153v1344l-164 32v39l260 111h70l-10 -176v-592q68 90 170 145t221 56q225 0 356 -144t131 -350z" />
    <glyph glyph-name="c" unicode="c" horiz-adv-x="1126" 
d="M600 993q-158 0 -264 -117q-106 -118 -105 -314q0 -196 108 -324t304 -127q125 0 203 44t151 140l54 -19q-47 -131 -159 -214t-288 -82q-242 0 -379 154t-137 376q0 264 157 423t410 159q175 0 271 -71t96 -167t-68 -131h-82v41q0 229 -272 229z" />
    <glyph glyph-name="d" unicode="d" horiz-adv-x="1366" 
d="M577 -20q-222 0 -356 146q-133 146 -133 357q0 273 165 441t402 168q190 0 310 -97v482l-164 32v39l258 111h69l-10 -176v-1272q0 -49 23 -63t106 -25l58 -8v-62l-336 -73h-15l11 186q-166 -186 -388 -186zM965 688q0 150 -87 228t-254 77q-166 0 -270 -119t-104 -320
q0 -200 99 -326t292 -126t324 152v434z" />
    <glyph glyph-name="e" unicode="e" horiz-adv-x="1144" 
d="M586 987q-138 0 -226 -79t-114 -206h643q0 125 -83 205q-82 80 -220 80zM602 1092q224 0 341 -119q116 -119 116 -309v-50h-828q-14 -227 102 -365t316 -138q125 0 207 45t156 139l51 -19q-47 -131 -160 -214t-293 -82q-244 0 -383 152t-139 368q0 262 145 427t369 165z
" />
    <glyph glyph-name="f" unicode="f" horiz-adv-x="800" 
d="M438 983v-795q0 -74 41 -94t174 -35v-59h-544v59q137 18 161 61q12 22 13 56v807h-158v47l158 62v82q0 231 109 358q110 127 313 127q117 0 183 -46t66 -122t-57 -102h-92v36q0 145 -154 146q-213 0 -213 -324v-176h291v-88h-291z" />
    <glyph glyph-name="g" unicode="g" horiz-adv-x="1210" 
d="M597 395q128 0 190 75q63 75 63 209t-79 226t-207 92q-128 -1 -190 -75t-62 -208t78 -227q79 -92 207 -92zM821 -14h-508q-86 -74 -86 -183q-1 -109 103 -169t286 -60t298 69q118 69 118 189q0 154 -211 154zM373 125h473q152 0 236 -69t85 -201q0 -159 -165 -263
t-427 -104q-263 0 -383 81t-120 202q0 84 49 136t143 95q-125 41 -125 166q0 76 44 123t130 88q-163 111 -163 301t125 301q126 111 329 111q96 0 174 -29l375 8v-123h-78l-233 31v-4q78 -33 127 -111t49 -174q0 -178 -121 -277t-311 -100q-133 0 -224 39q-90 -68 -92 -135
q0 -92 103 -92z" />
    <glyph glyph-name="h" unicode="h" horiz-adv-x="1423" 
d="M1180 176q0 -68 53 -90q34 -14 121 -27v-59h-504v59q138 18 162 61q12 22 12 56v557q0 227 -238 228q-90 1 -193 -47t-177 -115v-623q0 -45 26 -70q26 -26 56 -32q29 -6 90 -15v-59h-502v59q138 18 162 61q12 22 12 56v1301l-164 32v39l260 111h70l-10 -176v-602
q80 86 192 148q112 63 250 63t230 -81t92 -255v-580z" />
    <glyph glyph-name="i" unicode="i" horiz-adv-x="712" 
d="M238 1419q0 51 33 86q34 35 85 35t86 -35t35 -86t-35 -85t-86 -34t-85 34q-33 34 -33 85zM451 176q0 -68 53 -90q34 -14 121 -27v-59h-504v59q138 18 162 61q12 22 12 56v719l-164 53v41l262 98h68l-10 -219v-692z" />
    <glyph glyph-name="j" unicode="j" horiz-adv-x="571" 
d="M178 1419q0 51 34 86t85 35t86 -35t35 -86t-35 -85t-86 -34t-85 34t-34 85zM391 100q0 -131 -6 -184t-33 -115q-43 -102 -254 -313l-43 39l103 162q47 73 62 159t16 220v827l-164 53v41l262 98h67l-10 -219v-768z" />
    <glyph glyph-name="k" unicode="k" horiz-adv-x="1239" 
d="M416 176q0 -45 26 -70q26 -26 56 -32q29 -6 90 -15v-59h-502v59q138 18 162 61q12 22 12 56v1301l-164 32v39l260 111h70l-10 -176v-1307zM848 948q0 26 -28 39q-28 12 -115 25v59h456v-59q-49 -10 -58 -14q-9 -5 -25 -9q-47 -12 -74 -43l-402 -362l629 -539v-45h-172
l-631 539l391 354q29 29 29 55z" />
    <glyph glyph-name="l" unicode="l" horiz-adv-x="677" 
d="M416 176q0 -68 53 -90q34 -14 121 -27v-59h-504v59q138 18 162 61q12 22 12 56v1301l-164 32v39l262 111h68l-10 -176v-1307z" />
    <glyph glyph-name="m" unicode="m" horiz-adv-x="2119" 
d="M1876 768v-592q0 -68 53 -90q34 -14 121 -27v-59h-504v59q138 18 162 61q12 22 12 56v557q0 119 -50 173t-161 55q-168 0 -346 -162v-623q0 -68 54 -90q33 -14 120 -27v-59h-503v59q137 18 161 61q12 22 13 56v557q0 119 -50 173t-161 55q-168 0 -346 -162v-623
q0 -68 53 -90q34 -14 121 -27v-59h-504v59q138 18 162 61q12 22 12 56v719l-164 53v41l262 98h68l-10 -206q193 211 409 211q242 -1 293 -218q199 217 420 218q147 0 225 -83t78 -241z" />
    <glyph glyph-name="n" unicode="n" horiz-adv-x="1458" 
d="M1059 176v557q0 227 -238 228q-90 1 -193 -47t-177 -115v-623q0 -68 53 -90q34 -14 121 -27v-59h-504v59q138 18 162 61q12 22 12 56v719l-164 53v41l262 98h68l-10 -206q79 86 191 148q112 63 250 63t230 -81t92 -255v-580q0 -68 54 -90q34 -14 121 -27v-59h-504v59
q138 18 162 61q12 21 12 56z" />
    <glyph glyph-name="o" unicode="o" horiz-adv-x="1271" 
d="M616 -20q-234 0 -380 150t-148 394q0 246 167 407t401 161t380 -150q148 -150 148 -396t-167 -406t-401 -160zM252 571q0 -229 110 -356t294 -127q182 0 273 118t91 294q0 229 -111 356t-293 127t-273 -118t-91 -294z" />
    <glyph glyph-name="p" unicode="p" horiz-adv-x="1357" 
d="M702 78q186 0 297 116t111 320t-98 328q-98 125 -289 125t-332 -160v-475q0 -254 311 -254zM682 -20q-184 0 -291 77v-372q0 -69 53 -91q36 -15 121 -26v-60h-504v60q86 11 118 24q55 23 57 93v1210l-164 53v41l260 98h69l-10 -196q68 90 170 145t221 56q224 0 356 -144
t132 -350q0 -278 -172 -448t-416 -170z" />
    <glyph glyph-name="q" unicode="q" horiz-adv-x="1292" 
d="M655 1092q95 0 185 -32t141 -75l119 129h28l-10 -221v-1208q0 -69 53 -91q36 -15 121 -26v-60h-504v60q86 11 118 24q55 23 57 93v481q-166 -186 -387 -186t-355 146q-133 146 -133 357q0 273 164 441t403 168zM963 688q0 150 -86 228t-253 77q-166 0 -270 -119
t-104 -320q0 -200 99 -326t291 -126t323 152v434z" />
    <glyph glyph-name="r" unicode="r" horiz-adv-x="917" 
d="M783 1092q56 0 85 -29v-131h-63q-109 0 -179 -45t-175 -174v-525q0 -74 41 -94t174 -35v-59h-545v59q138 18 162 61q12 22 12 56v719l-164 53v41l260 98h70l-10 -294q139 226 229 274q47 25 103 25z" />
    <glyph glyph-name="s" unicode="s" horiz-adv-x="1013" 
d="M895 278q1 -134 -109 -216t-314 -82t-345 104l-12 276h61q70 -291 330 -290q114 0 182 48t68 138t-54 132t-163 79l-140 43q-137 40 -201 106t-65 192q0 126 98 205q99 79 273 79t334 -88v-265h-68q-43 262 -289 262q-94 0 -151 -44q-58 -44 -58 -123q0 -78 42 -116
t135 -67l155 -47q150 -45 220 -119q70 -73 71 -207z" />
    <glyph glyph-name="t" unicode="t" horiz-adv-x="815" 
d="M379 1294v-223h330v-88h-330v-678q0 -215 203 -215q80 0 159 37l19 -39q-96 -108 -238 -108t-219 68q-78 68 -78 206v729h-157v47q82 58 140 114t130 150h41z" />
    <glyph glyph-name="u" unicode="u" horiz-adv-x="1372" 
d="M550 -20q-138 0 -231 82q-92 82 -92 260v579q0 55 -30 73q-31 17 -121 27l-37 3v67l309 21h45l-10 -218v-536q0 -121 62 -180t169 -60q150 0 340 174v629q0 55 -30 73q-31 17 -121 27l-39 3v67l311 21h45l-10 -218v-663q0 -49 23 -63t106 -25l57 -8v-62l-335 -73h-17
l10 206q-86 -94 -176 -150t-228 -56z" />
    <glyph glyph-name="v" unicode="v" horiz-adv-x="1208" 
d="M1188 1071v-59q-76 -27 -97 -43q-20 -16 -30 -39l-426 -955h-29l-459 955q-17 38 -61 57q-18 8 -66 25v59h457v-59q-88 -12 -121 -26q-56 -23 -18 -103l309 -662l285 662q14 47 14 55q0 35 -33 48t-122 26v59h397z" />
    <glyph glyph-name="w" unicode="w" horiz-adv-x="1753" 
d="M1497 947q0 26 -33 39t-123 26v59h392v-59q-75 -25 -95 -37t-32 -45l-381 -955h-27l-315 742l-301 -742h-27l-408 955q-14 33 -31 44t-96 38v59h461v-59q-141 -21 -157 -46q-15 -26 16 -102l262 -626l229 581l-43 111q-14 33 -31 44t-98 38v59h463v-59q-94 -14 -127 -26
q-56 -21 -14 -122l260 -622l236 622q20 57 20 83z" />
    <glyph glyph-name="x" unicode="x" horiz-adv-x="1196" 
d="M53 1071h461v-59q-82 -18 -104 -30t-21 -34q0 -22 39 -69l195 -246l215 248q41 47 41 69q1 22 -19 33q-20 10 -108 29v59h393v-59q-98 -18 -152 -80l-317 -365l342 -426q37 -47 158 -82v-59h-461v59q79 11 101 21t22 34t-39 74l-226 279l-241 -279q-41 -46 -41 -72
q1 -26 23 -36t100 -21v-59h-394v59q111 33 154 82l346 394l-317 395q-49 63 -150 82v59z" />
    <glyph glyph-name="y" unicode="y" horiz-adv-x="1206" 
d="M20 1071h461v-59q-90 -12 -123 -26q-56 -23 -18 -103l315 -711l275 711q14 37 14 63t-33 40q-33 13 -123 26v59h398v-59q-78 -29 -97 -42t-34 -48l-475 -1186q-57 -142 -127 -196q-71 -54 -139 -54q-133 0 -164 72v90h129q86 0 139 35t88 127l74 188l-428 924
q-16 35 -34 48t-98 42v59z" />
    <glyph glyph-name="z" unicode="z" horiz-adv-x="1075" 
d="M92 0v35l662 952h-357q-86 0 -135 -44t-80 -169h-67l28 348h68l25 -51h722v-37l-649 -950h369q195 0 244 240h61l-27 -324h-864z" />
    <glyph glyph-name="braceleft" unicode="{" horiz-adv-x="858" 
d="M715 -180v-86q-410 0 -410 329q0 72 24 191t23 170q0 248 -297 248v90q297 0 297 248q0 51 -23 170q-24 119 -24 190q0 330 410 330v-86q-170 0 -240 -60t-69 -184q0 -72 26 -190t25 -170q0 -102 -55 -181t-164 -112q110 -33 164 -112t55 -181q0 -51 -26 -170t-25 -191
q0 -125 70 -184t239 -59z" />
    <glyph glyph-name="bar" unicode="|" horiz-adv-x="520" 
d="M315 1700v-1948h-110v1948h110z" />
    <glyph glyph-name="braceright" unicode="}" horiz-adv-x="858" 
d="M453 1370q0 125 -70 184t-240 60v86q410 0 410 -330q0 -72 -24 -190t-23 -170q0 -248 297 -248v-90q-297 0 -297 -248q0 -51 24 -170t23 -191q0 -330 -410 -329v86q170 0 240 59t70 184q0 72 -26 191t-26 170q-1 102 55 181t165 112q-109 33 -164 111t-56 182
q0 51 26 170t26 190z" />
    <glyph glyph-name="asciitilde" unicode="~" horiz-adv-x="1058" 
d="M774 674q57 0 83 18t58 84l60 -18q-41 -98 -95 -146t-146 -47q-92 -1 -242 59t-206 60t-82 -20t-61 -82l-59 16q41 100 95 147t145 47t242 -58q151 -60 208 -60z" />
    <glyph glyph-name="nbspace" unicode="&#xa0;" horiz-adv-x="491" 
 />
    <glyph glyph-name="exclamdown" unicode="&#xa1;" horiz-adv-x="645" 
d="M432 -526h-217v94l41 598q27 420 29 502h77q2 -82 29 -502l41 -598v-94zM193 963q0 53 37 91q38 38 92 38t92 -38q39 -38 39 -91t-39 -93t-92 -39q-53 0 -92 39q-37 40 -37 93z" />
    <glyph glyph-name="cent" unicode="&#xa2;" horiz-adv-x="1208" 
d="M254 604q0 -160 63 -278t185 -174l198 903l-51 2q-171 0 -283 -124t-112 -329zM707 1161h16l55 246h88l-55 -254q137 -18 212 -89t75 -166t-74 -128h-86v43q0 174 -154 223l-198 -911q43 -10 108 -10q133 0 215 48t162 152l55 -20q-49 -139 -168 -227t-305 -88
q-37 0 -98 8l-43 -203h-90l47 221q-174 52 -269 200t-96 337q0 283 166 451t437 167z" />
    <glyph glyph-name="sterling" unicode="&#xa3;" horiz-adv-x="1425" 
d="M227 68q111 0 152 184q-49 22 -111 22t-95 -32q-32 -32 -32 -77q1 -45 25 -71t61 -26zM227 623v86h244l31 161q78 420 479 420q143 0 221 -49t78 -125q0 -41 -23 -72t-57 -43h-98v58q0 150 -154 149q-131 0 -191 -94t-91 -280l-23 -125h404v-86h-422q-41 -195 -82 -347
q248 -160 444 -159q129 0 192 49q62 49 62 180h51q54 -56 54 -154t-86 -155t-226 -57t-280 61q-139 61 -244 149q-32 -66 -58 -104t-85 -73q-59 -33 -145 -33t-136 49q-51 49 -51 132t63 141q64 58 154 58t154 -22l51 285h-230z" />
    <glyph glyph-name="currency" unicode="&#xa4;" horiz-adv-x="1277" 
d="M174 631q0 174 94 293l-125 125l78 77l125 -125q127 95 294 95t290 -95l127 125l78 -77l-125 -121q98 -131 98 -298t-98 -294l125 -121l-80 -80l-125 121q-119 -94 -290 -94t-294 94l-123 -121l-80 80l125 123q-94 119 -94 293zM638 999q-154 0 -230 -103
q-78 -103 -78 -266q0 -164 78 -268t232 -104t232 106t78 267q0 162 -79 265t-233 103z" />
    <glyph glyph-name="yen" unicode="&#xa5;" horiz-adv-x="1241" 
d="M137 616v84h289l-287 455q-35 51 -119 51v64h496v-64q-174 0 -174 -69q0 -29 20 -62l291 -483l289 481q23 35 23 64q0 70 -177 69v64h433v-64q-82 0 -119 -51l-283 -455h303v-84h-354l-68 -108v-62h422v-84h-422v-196q0 -98 205 -103v-63h-561v63q205 4 205 103v196h-412
v84h412v60l-70 110h-342z" />
    <glyph glyph-name="brokenbar" unicode="&#xa6;" horiz-adv-x="520" 
d="M315 584v-832h-110v832h110zM315 1700v-832h-110v832h110z" />
    <glyph glyph-name="section" unicode="&#xa7;" horiz-adv-x="1052" 
d="M451 -512q-137 0 -218 54q-79 54 -79 136t73 119h111v-18q0 -88 49 -138q49 -51 130 -51t129 48t48 126t-45 167t-147 233t-140 203q-250 397 -249 737q0 260 135 416t354 155q137 0 217 -54t80 -136t-74 -119h-110v18q0 88 -49 138t-130 51q-81 0 -129 -47
q-49 -47 -49 -126t45 -168q45 -88 147 -232t140 -203q250 -397 250 -738q0 -259 -135 -415t-354 -156zM850 59q0 303 -246 684q-48 75 -129 198t-133 228q-74 154 -74 256q-66 -119 -65 -321q0 -307 243 -684q24 -40 101 -155q76 -114 131 -210t81 -183q25 -87 25 -134
q66 119 66 321z" />
    <glyph glyph-name="dieresis" unicode="&#xa8;" horiz-adv-x="1228" 
d="M702 1415q0 47 34 82t81 35t82 -35t35 -82t-35 -81t-82 -34t-81 34t-34 81zM295 1415q0 47 34 82t81 35t82 -35q34 -35 34 -82t-34 -81t-82 -34q-47 0 -81 34t-34 81z" />
    <glyph glyph-name="copyright" unicode="&#xa9;" horiz-adv-x="1822" 
d="M942 365q147 0 220 59t120 184h45l-29 -243q-195 -78 -378 -78q-248 0 -391 147q-142 147 -142 350q0 240 153 388t370 148t364 -77l10 -233h-41q-82 229 -319 229q-182 0 -282 -117q-100 -116 -101 -300q1 -184 107 -320t294 -137zM154 799q0 -313 222 -535t535 -223
q313 0 536 222q222 221 222 535t-222 536q-221 222 -535 222t-536 -222t-222 -535zM92 799q0 339 240 579t580 240t579 -240q240 -240 240 -580t-240 -579t-580 -239q-339 0 -579 240t-240 579z" />
    <glyph glyph-name="ordfeminine" unicode="&#xaa;" horiz-adv-x="880" 
d="M696 1212v-305q0 -96 68 -96q29 0 59 10l15 -47q-70 -68 -148 -67q-92 0 -133 129q-119 -129 -262 -129q-102 0 -159 54q-56 54 -56 144t60 130q43 30 139 59l272 80v30q0 92 -43 150t-129 57q-123 0 -123 -104q0 -14 8 -68l-121 -14q-31 31 -30 75q0 84 85 134t208 51
q290 -1 290 -273zM266 842q35 -31 101 -31t120 39q18 12 64 47v209l-242 -78q-78 -27 -78 -91t35 -95z" />
    <glyph glyph-name="guillemotleft" unicode="&#xab;" horiz-adv-x="937" 
d="M408 551v20l344 390h75l-262 -400l262 -399h-75zM84 551v20l346 390h76l-262 -400l262 -399h-76z" />
    <glyph glyph-name="logicalnot" unicode="&#xac;" 
d="M1163 426v649h-999v96h1106v-745h-107z" />
    <glyph glyph-name="uni00AD" unicode="&#xad;" horiz-adv-x="712" 
d="M610 633h-508v119h508v-119z" />
    <glyph glyph-name="registered" unicode="&#xae;" horiz-adv-x="964" 
d="M156 1236q0 -136 95 -234t229 -97q134 0 231 97q96 98 96 234t-96 234q-97 98 -231 98t-229 -98t-95 -234zM481 858q-159 0 -269 110t-110 269q0 157 111 269t269 112t269 -112t111 -270t-112 -268t-269 -110zM279 1462h198q166 0 166 -119q0 -113 -141 -122
q35 -4 69 -39l76 -84q27 -33 66 -37v-33h-84q-39 23 -66 57l-86 105q-29 35 -67 35v-119q0 -45 59 -45v-33h-190v33q33 0 46 9t13 36v278q0 27 -12 34t-47 12v32zM465 1421h-55v-164h55q57 -1 77 19t21 67q0 78 -98 78z" />
    <glyph glyph-name="macron" unicode="&#xaf;" horiz-adv-x="1228" 
d="M344 1335v107h541v-107h-541z" />
    <glyph glyph-name="degree" unicode="&#xb0;" horiz-adv-x="993" 
d="M743 1239q0 123 -67 204q-68 81 -180 81t-181 -82q-67 -82 -67 -204t68 -205t180 -83q113 0 180 83t67 206zM870 1238q0 -162 -102 -270q-102 -110 -271 -110t-271 108t-103 272q0 164 102 272q101 108 271 108t272 -109t102 -271z" />
    <glyph glyph-name="plusminus" unicode="&#xb1;" 
d="M1270 119h-1106v98h1106v-98zM659 311v361h-495v104h495v361h115v-361h496v-104h-496v-361h-115z" />
    <glyph glyph-name="twosuperior" unicode="&#xb2;" horiz-adv-x="849" 
d="M485 729q96 0 137 25q40 25 91 120h41l-37 -268h-668v37l262 268q145 150 194 224q48 75 48 163t-54 138t-151 51q-53 0 -102 -23t-74 -43t-70 -63l-30 35q49 94 133 155q83 62 211 62t206 -77t76 -208q0 -131 -143 -284q-73 -77 -180 -175t-148 -137h258z" />
    <glyph glyph-name="threesuperior" unicode="&#xb3;" horiz-adv-x="886" 
d="M772 862q0 -124 -101 -196t-249 -72t-235 62t-87 140t60 107h84v-49q0 -90 49 -141t145 -51q190 0 191 194q0 221 -275 221h-61v45q143 50 216 102t73 136q0 141 -166 141q-121 0 -244 -127l-33 35q106 201 318 201q125 0 193 -62t69 -154q0 -92 -76 -148t-158 -89
q131 -14 209 -92t78 -203z" />
    <glyph glyph-name="acute" unicode="&#xb4;" horiz-adv-x="1228" 
d="M594 1638h207l-305 -426h-68z" />
    <glyph glyph-name="paragraph" unicode="&#xb6;" horiz-adv-x="1458" 
d="M690 -492v1254q-274 0 -427 108t-152 310t153 310t426 107h617v-67q-127 -4 -181 -37t-55 -129v-1856h-92v2008h-197v-2008h-92z" />
    <glyph glyph-name="periodcentered" unicode="&#xb7;" horiz-adv-x="645" 
d="M193 674q0 53 37 92q38 39 92 39t92 -39q39 -39 39 -92t-39 -91t-92 -38t-92 38q-37 38 -37 91z" />
    <glyph glyph-name="cedilla" unicode="&#xb8;" horiz-adv-x="1228" 
d="M578 -512q-106 0 -181 47l17 55q59 -22 137 -22t121 30t43 78q0 100 -199 140l45 196h51l-20 -98q238 -68 237 -219q0 -90 -72 -149q-73 -58 -179 -58z" />
    <glyph glyph-name="onesuperior" unicode="&#xb9;" horiz-adv-x="841" 
d="M489 1610v-844q1 -60 57 -76t195 -24v-60h-647v60q131 7 177 19q47 11 63 31t16 50v620h-256v48l51 6q193 29 316 170h28z" />
    <glyph glyph-name="ordmasculine" unicode="&#xba;" horiz-adv-x="894" 
d="M461 1485q168 1 272 -105q105 -106 105 -278t-118 -284t-286 -111q-168 0 -272 105t-104 277t117 284q118 112 286 112zM466 797q218 0 218 275q0 130 -72 227t-184 97t-166 -72q-54 -73 -53 -204t73 -227t184 -96z" />
    <glyph glyph-name="guillemotright" unicode="&#xbb;" horiz-adv-x="937" 
d="M854 571v-20l-346 -389h-74l262 399l-262 400h74zM532 571v-20l-346 -389h-75l262 399l-262 400h75z" />
    <glyph glyph-name="onequarter" unicode="&#xbc;" horiz-adv-x="2060" 
d="M1860 0h-146v258h-526v61l600 672h72v-651h157v-82h-157v-258zM1714 340v444l-401 -444h401zM539 0l1069 1597h116l-1069 -1597h-116zM489 1610v-844q1 -60 57 -76t195 -24v-60h-647v60q131 7 177 19q47 11 63 31t16 50v620h-256v48l51 6q193 29 316 170h28z" />
    <glyph glyph-name="onehalf" unicode="&#xbd;" horiz-adv-x="2189" 
d="M1825 123q96 1 136 25t91 120h41l-37 -268h-667v37l262 268q145 149 193 223t48 163t-54 139t-128 50t-124 -22q-50 -23 -75 -43t-69 -63l-31 34q49 94 133 156t212 62t205 -77t77 -209t-144 -283q-61 -65 -174 -169q-112 -104 -153 -143h258zM539 0l1069 1597h116
l-1069 -1597h-116zM489 1610v-844q1 -60 57 -76t195 -24v-60h-647v60q131 7 177 19q47 11 63 31t16 50v620h-256v48l51 6q193 29 316 170h28z" />
    <glyph glyph-name="threequarters" unicode="&#xbe;" horiz-adv-x="1982" 
d="M1782 0h-146v258h-526v61l600 672h72v-651h157v-82h-157v-258zM1636 340v444l-401 -444h401zM461 0l1069 1597h117l-1069 -1597h-117zM772 862q0 -124 -101 -196t-249 -72t-235 62t-87 140t60 107h84v-49q0 -90 49 -141t145 -51q190 0 191 194q0 221 -275 221h-61v45
q143 50 216 102t73 136q0 141 -166 141q-121 0 -244 -127l-33 35q106 201 318 201q125 0 193 -62t69 -154q0 -92 -76 -148t-158 -89q131 -14 209 -92t78 -203z" />
    <glyph glyph-name="questiondown" unicode="&#xbf;" horiz-adv-x="972" 
d="M672 963q0 -53 -38 -93t-91 -39q-53 0 -92 39q-39 38 -39 92t39 92t92 38t91 -38t38 -91zM233 -208q0 -116 72 -184t186 -67q114 0 176 68t62 174v63h133q41 -41 41 -108q0 -121 -117 -203t-299 -82t-301 98t-118 291q0 131 63 219q63 89 185 189t162 162t40 147v109h49
q117 -196 15 -360q-46 -75 -150 -163q-104 -89 -152 -163t-47 -190z" />
    <glyph glyph-name="Agrave" unicode="&#xc0;" horiz-adv-x="1675" 
d="M457 2109h200l172 -426h-67zM801 1382l-322 -757h645zM301 159q0 -86 234 -91v-68h-515v68q59 8 93 25q33 17 51 59l577 1341l-61 131h194l637 -1472q17 -40 51 -58t93 -26v-68h-580v68q129 4 180 26t51 63q0 42 -24 101l-119 274h-723l-114 -272q-25 -59 -25 -101z" />
    <glyph glyph-name="Aacute" unicode="&#xc1;" horiz-adv-x="1675" 
d="M903 2109h207l-305 -426h-68zM801 1382l-322 -757h645zM301 159q0 -86 234 -91v-68h-515v68q59 8 93 25q33 17 51 59l577 1341l-61 131h194l637 -1472q17 -40 51 -58t93 -26v-68h-580v68q129 4 180 26t51 63q0 42 -24 101l-119 274h-723l-114 -272q-25 -59 -25 -101z" />
    <glyph glyph-name="Acircumflex" unicode="&#xc2;" horiz-adv-x="1675" 
d="M860 2109l303 -426h-69l-291 275l-291 -275h-70l303 426h115zM801 1382l-322 -757h645zM301 159q0 -86 234 -91v-68h-515v68q59 8 93 25q33 17 51 59l577 1341l-61 131h194l637 -1472q17 -40 51 -58t93 -26v-68h-580v68q129 4 180 26t51 63q0 42 -24 101l-119 274h-723
l-114 -272q-25 -59 -25 -101z" />
    <glyph glyph-name="Atilde" unicode="&#xc3;" horiz-adv-x="1675" 
d="M942 1741q-72 0 -173 61q-101 62 -148 62t-74 -20t-64 -87l-67 8q80 215 254 215q72 0 173 -61t148 -61t74 19t63 87l68 -8q-78 -215 -254 -215zM801 1382l-322 -757h645zM301 159q0 -86 234 -91v-68h-515v68q59 8 93 25q33 17 51 59l577 1341l-61 131h194l637 -1472
q17 -40 51 -58t93 -26v-68h-580v68q129 4 180 26t51 63q0 42 -24 101l-119 274h-723l-114 -272q-25 -59 -25 -101z" />
    <glyph glyph-name="Adieresis" unicode="&#xc4;" horiz-adv-x="1675" 
d="M887 1862q0 47 34 82q35 34 81 34t81 -34t35 -82q0 -47 -35 -81t-82 -34t-81 34t-33 81zM479 1862q0 47 34 82q34 34 81 34t82 -34t35 -82q0 -47 -35 -81t-82 -34t-81 34t-34 81zM801 1382l-322 -757h645zM301 159q0 -86 234 -91v-68h-515v68q59 8 93 25q33 17 51 59
l577 1341l-61 131h194l637 -1472q17 -40 51 -58t93 -26v-68h-580v68q129 4 180 26t51 63q0 42 -24 101l-119 274h-723l-114 -272q-25 -59 -25 -101z" />
    <glyph glyph-name="Aring" unicode="&#xc5;" horiz-adv-x="1675" 
d="M913 1917q-1 67 -33 109t-98 42t-98 -42t-31 -110q0 -68 32 -109q31 -42 97 -42t99 42q32 42 32 110zM553 1917q0 98 64 166q65 67 165 67t165 -68t65 -165q0 -98 -65 -166t-165 -68t-165 68q-64 68 -64 166zM801 1382l-322 -757h645zM301 159q0 -86 234 -91v-68h-515v68
q59 8 93 25q33 17 51 59l577 1341l-61 131h194l637 -1472q17 -40 51 -58t93 -26v-68h-580v68q129 4 180 26t51 63q0 42 -24 101l-119 274h-723l-114 -272q-25 -59 -25 -101z" />
    <glyph glyph-name="AE" unicode="&#xc6;" horiz-adv-x="2363" 
d="M948 1405l-416 -784h570l-150 784h-4zM317 166q-1 -49 53 -72t181 -26v-68h-531v68q115 14 152 84l717 1351q-80 27 -205 27v67h1462l6 -360h-38q-66 156 -135 213t-205 57h-666l123 -649h493q74 0 111 52t57 163h58v-522h-58q-20 109 -57 161t-111 52h-475l103 -520
q18 -92 82 -123t204 -31h148q56 0 144 14q26 4 55 28t43 35t46 57t46 69t59 94h49l-71 -387h-1221v68q121 6 181 30t61 92q-1 35 -9 76l-51 264h-635l-133 -254q-33 -61 -33 -110z" />
    <glyph glyph-name="Ccedilla" unicode="&#xc7;" horiz-adv-x="1675" 
d="M999 76q221 0 341 92t216 307h50l-47 -377q-264 -119 -584 -118h-2l-12 -66q238 -68 237 -219q0 -91 -73 -149t-179 -58t-180 47l16 55q60 -22 138 -22t120 30t43 78q0 100 -198 140l37 166q-379 16 -593 240t-214 546q0 383 241 616q242 234 594 234t572 -127l14 -336
h-45q-70 188 -202 270t-333 82q-319 0 -494 -184t-175 -504q0 -186 80 -353t245 -279q166 -111 387 -111z" />
    <glyph glyph-name="Egrave" unicode="&#xc8;" horiz-adv-x="1660" 
d="M1247 555h-57q-20 109 -57 161t-111 52h-508v-524q0 -90 56 -122t196 -32h317q54 0 145 14q26 4 54 28t43 35q14 11 46 57t46 69t60 94h49l-72 -387h-1360v68q88 4 137 15t83 48t34 107v1122q0 70 -34 106t-83 48q-49 11 -137 16v67h1350l6 -360h-39q-66 156 -134 213
q-69 57 -206 57h-557v-649h508q74 0 111 52t57 163h57v-518zM549 2109h201l172 -426h-68z" />
    <glyph glyph-name="Eacute" unicode="&#xc9;" horiz-adv-x="1660" 
d="M1247 555h-57q-20 109 -57 161t-111 52h-508v-524q0 -90 56 -122t196 -32h317q54 0 145 14q26 4 54 28t43 35q14 11 46 57t46 69t60 94h49l-72 -387h-1360v68q88 4 137 15t83 48t34 107v1122q0 70 -34 106t-83 48q-49 11 -137 16v67h1350l6 -360h-39q-66 156 -134 213
q-69 57 -206 57h-557v-649h508q74 0 111 52t57 163h57v-518zM936 2109h207l-305 -426h-68z" />
    <glyph glyph-name="Ecircumflex" unicode="&#xca;" horiz-adv-x="1660" 
d="M874 2109l304 -426h-70l-291 275l-291 -275h-69l303 426h114zM1247 555h-57q-20 109 -57 161t-111 52h-508v-524q0 -90 56 -122t196 -32h317q54 0 145 14q26 4 54 28t43 35q14 11 46 57t46 69t60 94h49l-72 -387h-1360v68q88 4 137 15t83 48t34 107v1122q0 70 -34 106
t-83 48q-49 11 -137 16v67h1350l6 -360h-39q-66 156 -134 213q-69 57 -206 57h-557v-649h508q74 0 111 52t57 163h57v-518z" />
    <glyph glyph-name="Edieresis" unicode="&#xcb;" horiz-adv-x="1660" 
d="M1247 555h-57q-20 109 -57 161t-111 52h-508v-524q0 -90 56 -122t196 -32h317q54 0 145 14q26 4 54 28t43 35q14 11 46 57t46 69t60 94h49l-72 -387h-1360v68q88 4 137 15t83 48t34 107v1122q0 70 -34 106t-83 48q-49 11 -137 16v67h1350l6 -360h-39q-66 156 -134 213
q-69 57 -206 57h-557v-649h508q74 0 111 52t57 163h57v-518zM934 1862q0 47 34 82q34 34 81 34t81 -34t35 -82q0 -47 -35 -81q-36 -34 -82 -34t-80 34t-34 81zM526 1862q0 47 34 82q34 34 81 34t82 -34t35 -82q0 -47 -35 -81t-82 -34t-81 34t-34 81z" />
    <glyph glyph-name="Igrave" unicode="&#xcc;" horiz-adv-x="862" 
d="M106 2109h201l172 -426h-67zM348 238v1122q0 70 -34 106t-83 48q-49 11 -137 16v67h674v-67q-88 -4 -137 -16t-83 -48q-34 -37 -34 -106v-1122q0 -70 34 -107t83 -48t137 -15v-68h-674v68q88 4 137 15t83 48t34 107z" />
    <glyph glyph-name="Iacute" unicode="&#xcd;" horiz-adv-x="862" 
d="M553 2109h207l-305 -426h-68zM348 238v1122q0 70 -34 106t-83 48q-49 11 -137 16v67h674v-67q-88 -4 -137 -16t-83 -48q-34 -37 -34 -106v-1122q0 -70 34 -107t83 -48t137 -15v-68h-674v68q88 4 137 15t83 48t34 107z" />
    <glyph glyph-name="Icircumflex" unicode="&#xce;" horiz-adv-x="862" 
d="M489 2109l304 -426h-70l-291 275l-291 -275h-69l303 426h114zM348 238v1122q0 70 -34 106t-83 48q-49 11 -137 16v67h674v-67q-88 -4 -137 -16t-83 -48q-34 -37 -34 -106v-1122q0 -70 34 -107t83 -48t137 -15v-68h-674v68q88 4 137 15t83 48t34 107z" />
    <glyph glyph-name="Idieresis" unicode="&#xcf;" horiz-adv-x="862" 
d="M514 1862q0 47 34 82q34 34 81 34t82 -34t35 -82q0 -47 -36 -81q-34 -34 -81 -34t-81 34t-34 81zM106 1862q0 47 34 82q34 34 81 34t82 -34t35 -82q0 -47 -35 -81t-82 -34t-81 34t-34 81zM348 238v1122q0 70 -34 106t-83 48q-49 11 -137 16v67h674v-67q-88 -4 -137 -16
t-83 -48q-34 -37 -34 -106v-1122q0 -70 34 -107t83 -48t137 -15v-68h-674v68q88 4 137 15t83 48t34 107z" />
    <glyph glyph-name="Eth" unicode="&#xd0;" horiz-adv-x="1884" 
d="M872 1507h-358v-649h504v-90h-504v-518q0 -96 56 -128t196 -32h192q266 0 447 178q180 178 180 497t-159 523q-80 104 -222 162t-332 57zM94 768v90h254v502q0 70 -34 106t-83 48q-49 11 -137 16v67h821q217 0 385 -62q309 -114 419 -409q50 -133 50 -307
q1 -174 -65 -337q-121 -302 -435 -426q-144 -56 -308 -56h-867v68q88 4 137 15t83 48t34 107v530h-254z" />
    <glyph glyph-name="Ntilde" unicode="&#xd1;" horiz-adv-x="1998" 
d="M346 238v1157q-74 87 -118 111t-134 24v67h332l1141 -1318v1081q1 100 -57 132t-187 38v67h602v-67q-131 -6 -190 -38t-60 -132v-1360h-76l-1144 1311v-1073q0 -100 57 -132t186 -38v-68h-604v68q88 4 136 15t82 48t34 107zM1155 1741q-72 0 -173 61q-101 62 -148 62
t-74 -20t-64 -87l-67 8q80 215 254 215q72 0 173 -61t148 -61t74 19t63 87l68 -8q-78 -215 -254 -215z" />
    <glyph glyph-name="Ograve" unicode="&#xd2;" horiz-adv-x="1851" 
d="M906 -20q-353 0 -572 232t-219 556q0 383 238 616q239 234 592 234t573 -232t219 -557q0 -383 -239 -616t-592 -233zM975 102q274 0 433 184t159 457q0 328 -178 540t-512 212q-273 0 -433 -183t-159 -458q0 -328 178 -540t512 -212zM598 2109h201l172 -426h-68z" />
    <glyph glyph-name="Oacute" unicode="&#xd3;" horiz-adv-x="1851" 
d="M906 -20q-353 0 -572 232t-219 556q0 383 238 616q239 234 592 234t573 -232t219 -557q0 -383 -239 -616t-592 -233zM975 102q274 0 433 184t159 457q0 328 -178 540t-512 212q-273 0 -433 -183t-159 -458q0 -328 178 -540t512 -212zM1047 2109h206l-305 -426h-67z" />
    <glyph glyph-name="Ocircumflex" unicode="&#xd4;" horiz-adv-x="1851" 
d="M983 2109l303 -426h-69l-291 275l-291 -275h-70l303 426h115zM906 -20q-353 0 -572 232t-219 556q0 383 238 616q239 234 592 234t573 -232t219 -557q0 -383 -239 -616t-592 -233zM975 102q274 0 433 184t159 457q0 328 -178 540t-512 212q-273 0 -433 -183t-159 -458
q0 -328 178 -540t512 -212z" />
    <glyph glyph-name="Otilde" unicode="&#xd5;" horiz-adv-x="1851" 
d="M906 -20q-353 0 -572 232t-219 556q0 383 238 616q239 234 592 234t573 -232t219 -557q0 -383 -239 -616t-592 -233zM975 102q274 0 433 184t159 457q0 328 -178 540t-512 212q-273 0 -433 -183t-159 -458q0 -328 178 -540t512 -212zM1057 1741q-72 0 -173 61
q-100 62 -148 62t-74 -20t-64 -87l-68 8q80 215 254 215q72 0 173 -61t149 -61t74 19q27 19 63 87l68 -8q-78 -215 -254 -215z" />
    <glyph glyph-name="Odieresis" unicode="&#xd6;" horiz-adv-x="1851" 
d="M906 -20q-353 0 -572 232t-219 556q0 383 238 616q239 234 592 234t573 -232t219 -557q0 -383 -239 -616t-592 -233zM975 102q274 0 433 184t159 457q0 328 -178 540t-512 212q-273 0 -433 -183t-159 -458q0 -328 178 -540t512 -212zM1008 1862q0 47 33 82q34 34 81 34
t82 -34t35 -82q0 -47 -35 -81t-82 -34t-81 34q-33 34 -33 81zM600 1862q0 47 34 82q34 34 81 34t82 -34t35 -82q0 -47 -36 -81q-34 -34 -81 -34t-81 34t-34 81z" />
    <glyph glyph-name="multiply" unicode="&#xd7;" 
d="M1229 1024l-438 -438l438 -441l-76 -71l-436 442l-436 -442l-76 69l438 441l-438 438l76 72l436 -443l436 443z" />
    <glyph glyph-name="Oslash" unicode="&#xd8;" horiz-adv-x="1853" 
d="M287 842q0 -286 143 -486l916 973q-182 166 -462 166t-439 -183q-158 -184 -158 -470zM960 102q290 0 450 184q159 184 159 478q0 296 -162 498l-920 -973q183 -187 473 -187zM905 -20q-313 0 -528 192l-182 -192l-70 53l190 200q-199 221 -198 535q0 383 238 616
q239 233 595 234q293 0 504 -174l164 174l76 -55l-172 -181q217 -227 217 -553q0 -383 -239 -616t-595 -233z" />
    <glyph glyph-name="Ugrave" unicode="&#xd9;" horiz-adv-x="1794" 
d="M440 1360v-776q0 -236 124 -361t335 -125q516 0 516 492v770q0 100 -57 132t-187 38v67h603v-67q-130 -6 -190 -38t-60 -132v-817q0 -267 -179 -415t-456 -148t-446 144t-169 423v813q0 70 -34 106t-82 48q-49 11 -138 16v67h674v-67q-88 -4 -137 -16t-83 -48t-34 -106z
M610 2109h201l172 -426h-68z" />
    <glyph glyph-name="Uacute" unicode="&#xda;" horiz-adv-x="1794" 
d="M440 1360v-776q0 -236 124 -361t335 -125q516 0 516 492v770q0 100 -57 132t-187 38v67h603v-67q-130 -6 -190 -38t-60 -132v-817q0 -267 -179 -415t-456 -148t-446 144t-169 423v813q0 70 -34 106t-82 48q-49 11 -138 16v67h674v-67q-88 -4 -137 -16t-83 -48t-34 -106z
M1057 2109h207l-306 -426h-67z" />
    <glyph glyph-name="Ucircumflex" unicode="&#xdb;" horiz-adv-x="1794" 
d="M993 2109l303 -426h-69l-291 275l-291 -275h-70l304 426h114zM440 1360v-776q0 -236 124 -361t335 -125q516 0 516 492v770q0 100 -57 132t-187 38v67h603v-67q-130 -6 -190 -38t-60 -132v-817q0 -267 -179 -415t-456 -148t-446 144t-169 423v813q0 70 -34 106t-82 48
q-49 11 -138 16v67h674v-67q-88 -4 -137 -16t-83 -48t-34 -106z" />
    <glyph glyph-name="Udieresis" unicode="&#xdc;" horiz-adv-x="1794" 
d="M440 1360v-776q0 -236 124 -361t335 -125q516 0 516 492v770q0 100 -57 132t-187 38v67h603v-67q-130 -6 -190 -38t-60 -132v-817q0 -267 -179 -415t-456 -148t-446 144t-169 423v813q0 70 -34 106t-82 48q-49 11 -138 16v67h674v-67q-88 -4 -137 -16t-83 -48t-34 -106z
M1018 1862q0 47 34 82q34 34 81 34t81 -34t35 -82q0 -47 -35 -81q-36 -34 -82 -34t-80 34t-34 81zM610 1862q0 47 34 82q34 34 81 34t82 -34t35 -82q0 -47 -35 -81t-82 -34t-81 34t-34 81z" />
    <glyph glyph-name="Yacute" unicode="&#xdd;" horiz-adv-x="1507" 
d="M907 2109h207l-305 -426h-68zM1198 1442q0 46 -44 64q-44 19 -173 24v67h506v-67q-100 -16 -144 -84l-503 -772v-436q0 -100 57 -132t188 -38v-68h-653v68q131 6 189 37q57 32 57 133v428l-514 780q-43 68 -144 84v67h574v-67q-127 -4 -173 -24t-46 -63q0 -42 28 -89
l390 -588l370 577q35 53 35 99z" />
    <glyph glyph-name="Thorn" unicode="&#xde;" horiz-adv-x="1492" 
d="M514 1360v-82h320q160 0 280 -39t186 -105q132 -131 132 -321q0 -191 -140 -327t-409 -136h-369v-112q0 -82 52 -117t123 -42t134 -11v-68h-729v68q88 4 137 15t83 48t34 107v1122q0 70 -34 106t-83 48q-49 11 -137 16v67h674v-67q-88 -4 -137 -16t-83 -48t-34 -106z
M514 1188v-744h293q229 0 330 87q100 87 100 282q0 375 -426 375h-297z" />
    <glyph glyph-name="germandbls" unicode="&#xdf;" horiz-adv-x="1425" 
d="M449 0h-330v59q138 18 162 61q12 22 12 56v797h-158v57l158 62v67q0 229 117 367t342 137q178 0 281 -93q103 -92 103 -236t-83 -257q-84 -113 -230 -172q127 -43 238 -111t193 -183q82 -114 81 -240q0 -179 -100 -285q-101 -106 -275 -106t-266 62t-92 148t62 117h110
v-47q0 -202 198 -202q106 0 166 67q60 68 60 199q0 311 -567 520v45q201 72 273 165t73 229q0 136 -73 214t-204 78t-191 -94t-60 -254v-1227z" />
    <glyph glyph-name="agrave" unicode="&#xe0;" horiz-adv-x="1243" 
d="M244 1638h200l172 -426h-67zM983 719v-488q0 -143 104 -143q43 0 91 18l20 -38q-94 -88 -178 -88t-133 53t-53 147q-52 -57 -92 -93t-122 -73t-178 -37q-150 0 -232 79t-83 198q0 155 129 218q64 33 168 60l403 117v49q0 129 -70 214q-71 85 -212 85q-193 0 -193 -163
q0 -45 13 -82l-136 -15q-43 31 -43 99q0 116 115 186t292 70t283 -92t107 -281zM297 281q0 -93 52 -143t142 -50t166 42t170 126v309l-401 -123q-129 -41 -129 -161z" />
    <glyph glyph-name="aacute" unicode="&#xe1;" horiz-adv-x="1243" 
d="M705 1638h206l-305 -426h-67zM983 719v-488q0 -143 104 -143q43 0 91 18l20 -38q-94 -88 -178 -88t-133 53t-53 147q-52 -57 -92 -93t-122 -73t-178 -37q-150 0 -232 79t-83 198q0 155 129 218q64 33 168 60l403 117v49q0 129 -70 214q-71 85 -212 85q-193 0 -193 -163
q0 -45 13 -82l-136 -15q-43 31 -43 99q0 116 115 186t292 70t283 -92t107 -281zM297 281q0 -93 52 -143t142 -50t166 42t170 126v309l-401 -123q-129 -41 -129 -161z" />
    <glyph glyph-name="acircumflex" unicode="&#xe2;" horiz-adv-x="1243" 
d="M629 1638l303 -426h-70l-291 275l-290 -275h-70l303 426h115zM983 719v-488q0 -143 104 -143q43 0 91 18l20 -38q-94 -88 -178 -88t-133 53t-53 147q-52 -57 -92 -93t-122 -73t-178 -37q-150 0 -232 79t-83 198q0 155 129 218q64 33 168 60l403 117v49q0 129 -70 214
q-71 85 -212 85q-193 0 -193 -163q0 -45 13 -82l-136 -15q-43 31 -43 99q0 116 115 186t292 70t283 -92t107 -281zM297 281q0 -93 52 -143t142 -50t166 42t170 126v309l-401 -123q-129 -41 -129 -161z" />
    <glyph glyph-name="atilde" unicode="&#xe3;" horiz-adv-x="1243" 
d="M735 1249q-72 1 -173 61t-148 60t-74 -19t-64 -87l-67 10q80 215 254 215q72 1 173 -61t148 -62t74 19t64 88l67 -9q-78 -215 -254 -215zM983 719v-488q0 -143 104 -143q43 0 91 18l20 -38q-94 -88 -178 -88t-133 53t-53 147q-52 -57 -92 -93t-122 -73t-178 -37
q-150 0 -232 79t-83 198q0 155 129 218q64 33 168 60l403 117v49q0 129 -70 214q-71 85 -212 85q-193 0 -193 -163q0 -45 13 -82l-136 -15q-43 31 -43 99q0 116 115 186t292 70t283 -92t107 -281zM297 281q0 -93 52 -143t142 -50t166 42t170 126v309l-401 -123
q-129 -41 -129 -161z" />
    <glyph glyph-name="adieresis" unicode="&#xe4;" horiz-adv-x="1243" 
d="M662 1415q0 47 33 82q34 35 81 35t82 -35t35 -82t-35 -81t-82 -34t-81 34q-33 34 -33 81zM254 1415q0 47 34 82t81 35t82 -35t35 -82t-36 -81q-34 -34 -81 -34t-81 34t-34 81zM983 719v-488q0 -143 104 -143q43 0 91 18l20 -38q-94 -88 -178 -88t-133 53t-53 147
q-52 -57 -92 -93t-122 -73t-178 -37q-150 0 -232 79t-83 198q0 155 129 218q64 33 168 60l403 117v49q0 129 -70 214q-71 85 -212 85q-193 0 -193 -163q0 -45 13 -82l-136 -15q-43 31 -43 99q0 116 115 186t292 70t283 -92t107 -281zM297 281q0 -93 52 -143t142 -50t166 42
t170 126v309l-401 -123q-129 -41 -129 -161z" />
    <glyph glyph-name="aring" unicode="&#xe5;" horiz-adv-x="1243" 
d="M702 1419q0 68 -32 111q-34 43 -98 43t-97 -43t-33 -111q0 -67 33 -109t97 -42t98 42q32 42 32 109zM342 1419q0 98 65 166t165 68t164 -68q65 -68 65 -166t-65 -166q-65 -67 -165 -67q-101 0 -165 68t-64 165zM983 719v-488q0 -143 104 -143q43 0 91 18l20 -38
q-94 -88 -178 -88t-133 53t-53 147q-52 -57 -92 -93t-122 -73t-178 -37q-150 0 -232 79t-83 198q0 155 129 218q64 33 168 60l403 117v49q0 129 -70 214q-71 85 -212 85q-193 0 -193 -163q0 -45 13 -82l-136 -15q-43 31 -43 99q0 116 115 186t292 70t283 -92t107 -281z
M297 281q0 -93 52 -143t142 -50t166 42t170 126v309l-401 -123q-129 -41 -129 -161z" />
    <glyph glyph-name="ae" unicode="&#xe6;" horiz-adv-x="1886" 
d="M489 88q195 0 375 205q-37 96 -37 207v4l-352 -37q-90 -11 -134 -63t-44 -134t52 -132t140 -50zM1322 987q-144 0 -244 -100t-109 -287l659 66q4 152 -78 236q-84 84 -228 85zM1354 1092q212 0 328 -119t116 -309v-58l-827 -88q14 -188 127 -298t291 -109q125 0 207 45
t155 139l51 -19q-47 -131 -160 -214t-292 -82q-307 0 -451 239q-84 -102 -203 -172q-120 -70 -262 -70t-224 79t-83 198q0 262 346 297l354 35v112q0 129 -70 214q-71 85 -212 85q-193 0 -193 -163q0 -45 13 -82l-136 -15q-43 31 -43 99q0 116 115 186t283 70
q279 0 364 -195q146 195 406 195z" />
    <glyph glyph-name="ccedilla" unicode="&#xe7;" horiz-adv-x="1126" 
d="M600 993q-158 0 -264 -117q-106 -118 -105 -314q0 -196 108 -324t304 -127q125 0 203 44t151 140l54 -19q-47 -131 -159 -214t-288 -82h-2l-12 -66q238 -68 237 -219q0 -90 -72 -149q-73 -58 -179 -58t-181 47l17 55q59 -22 137 -22t121 30t43 78q0 100 -199 140l37 166
q-217 18 -340 168t-123 360q0 264 157 423t410 159q175 0 271 -71t96 -167t-68 -131h-82v41q0 229 -272 229z" />
    <glyph glyph-name="egrave" unicode="&#xe8;" horiz-adv-x="1144" 
d="M281 1638h200l172 -426h-67zM586 987q-138 0 -226 -79t-114 -206h643q0 125 -83 205q-82 80 -220 80zM602 1092q224 0 341 -119q116 -119 116 -309v-50h-828q-14 -227 102 -365t316 -138q125 0 207 45t156 139l51 -19q-47 -131 -160 -214t-293 -82q-244 0 -383 152
t-139 368q0 262 145 427t369 165z" />
    <glyph glyph-name="eacute" unicode="&#xe9;" horiz-adv-x="1144" 
d="M586 987q-138 0 -226 -79t-114 -206h643q0 125 -83 205q-82 80 -220 80zM602 1092q224 0 341 -119q116 -119 116 -309v-50h-828q-14 -227 102 -365t316 -138q125 0 207 45t156 139l51 -19q-47 -131 -160 -214t-293 -82q-244 0 -383 152t-139 368q0 262 145 427t369 165z
M741 1638h207l-305 -426h-68z" />
    <glyph glyph-name="ecircumflex" unicode="&#xea;" horiz-adv-x="1144" 
d="M586 987q-138 0 -226 -79t-114 -206h643q0 125 -83 205q-82 80 -220 80zM602 1092q224 0 341 -119q116 -119 116 -309v-50h-828q-14 -227 102 -365t316 -138q125 0 207 45t156 139l51 -19q-47 -131 -160 -214t-293 -82q-244 0 -383 152t-139 368q0 262 145 427t369 165z
M668 1638l303 -426h-70l-291 275l-291 -275h-69l303 426h115z" />
    <glyph glyph-name="edieresis" unicode="&#xeb;" horiz-adv-x="1144" 
d="M586 987q-138 0 -226 -79t-114 -206h643q0 125 -83 205q-82 80 -220 80zM602 1092q224 0 341 -119q116 -119 116 -309v-50h-828q-14 -227 102 -365t316 -138q125 0 207 45t156 139l51 -19q-47 -131 -160 -214t-293 -82q-244 0 -383 152t-139 368q0 262 145 427t369 165z
M692 1415q0 47 34 82t81 35t82 -35t35 -82t-35 -81t-82 -34t-81 34t-34 81zM285 1415q0 47 33 82q34 35 81 35t82 -35t35 -82t-35 -81t-82 -34t-81 34q-33 34 -33 81z" />
    <glyph glyph-name="igrave" unicode="&#xec;" horiz-adv-x="712" 
d="M45 1638h201l172 -426h-68zM451 176q0 -68 53 -90q34 -14 121 -27v-59h-504v59q138 18 162 61q12 22 12 56v719l-164 53v41l262 98h68l-10 -219v-692z" />
    <glyph glyph-name="iacute" unicode="&#xed;" horiz-adv-x="712" 
d="M451 176q0 -68 53 -90q34 -14 121 -27v-59h-504v59q138 18 162 61q12 22 12 56v719l-164 53v41l262 98h68l-10 -219v-692zM506 1638h207l-305 -426h-68z" />
    <glyph glyph-name="icircumflex" unicode="&#xee;" horiz-adv-x="712" 
d="M451 176q0 -68 53 -90q34 -14 121 -27v-59h-504v59q138 18 162 61q12 22 12 56v719l-164 53v41l262 98h68l-10 -219v-692zM430 1638l303 -426h-69l-291 275l-291 -275h-70l303 426h115z" />
    <glyph glyph-name="idieresis" unicode="&#xef;" horiz-adv-x="712" 
d="M451 176q0 -68 53 -90q34 -14 121 -27v-59h-504v59q138 18 162 61q12 22 12 56v719l-164 53v41l262 98h68l-10 -219v-692zM455 1415q0 47 33 82q34 35 81 35t82 -35t35 -82t-35 -81t-82 -34t-81 34q-33 34 -33 81zM47 1415q0 47 34 82t81 35t82 -35t35 -82t-35 -81
t-82 -34t-81 34t-34 81z" />
    <glyph glyph-name="eth" unicode="&#xf0;" horiz-adv-x="1265" 
d="M252 571q0 -229 112 -356t316 -127q166 0 259 118t93 294q0 229 -111 356q-112 127 -317 127q-166 0 -259 -118t-93 -294zM1178 596q0 -289 -154 -453q-154 -163 -398 -163t-392 157q-146 158 -146 377q0 258 164 418t397 160q178 0 303 -105q-68 176 -221 340l-311 -147
l-35 73l285 133q-154 147 -332 232v14l86 33q203 -82 364 -223l201 94l35 -72l-172 -82q326 -330 326 -786z" />
    <glyph glyph-name="ntilde" unicode="&#xf1;" horiz-adv-x="1458" 
d="M893 1249q-72 1 -173 61t-148 60t-74 -19t-64 -87l-67 10q80 215 254 215q72 1 173 -61t148 -62t74 19t63 88l68 -9q-78 -215 -254 -215zM1059 176v557q0 227 -238 228q-90 1 -193 -47t-177 -115v-623q0 -68 53 -90q34 -14 121 -27v-59h-504v59q138 18 162 61
q12 22 12 56v719l-164 53v41l262 98h68l-10 -206q79 86 191 148q112 63 250 63t230 -81t92 -255v-580q0 -68 54 -90q34 -14 121 -27v-59h-504v59q138 18 162 61q12 21 12 56z" />
    <glyph glyph-name="ograve" unicode="&#xf2;" horiz-adv-x="1271" 
d="M313 1638h201l172 -426h-68zM616 -20q-234 0 -380 150t-148 394q0 246 167 407t401 161t380 -150q148 -150 148 -396t-167 -406t-401 -160zM252 571q0 -229 110 -356t294 -127q182 0 273 118t91 294q0 229 -111 356t-293 127t-273 -118t-91 -294z" />
    <glyph glyph-name="oacute" unicode="&#xf3;" horiz-adv-x="1271" 
d="M616 -20q-234 0 -380 150t-148 394q0 246 167 407t401 161t380 -150q148 -150 148 -396t-167 -406t-401 -160zM252 571q0 -229 110 -356t294 -127q182 0 273 118t91 294q0 229 -111 356t-293 127t-273 -118t-91 -294zM774 1638h207l-305 -426h-68z" />
    <glyph glyph-name="ocircumflex" unicode="&#xf4;" horiz-adv-x="1271" 
d="M616 -20q-234 0 -380 150t-148 394q0 246 167 407t401 161t380 -150q148 -150 148 -396t-167 -406t-401 -160zM252 571q0 -229 110 -356t294 -127q182 0 273 118t91 294q0 229 -111 356t-293 127t-273 -118t-91 -294zM700 1638l304 -426h-70l-291 275l-291 -275h-69
l303 426h114z" />
    <glyph glyph-name="otilde" unicode="&#xf5;" horiz-adv-x="1271" 
d="M780 1249q-72 1 -173 61t-148 60t-74 -19t-63 -87l-68 10q80 215 254 215q72 1 173 -61t148 -62t74 19t64 88l67 -9q-78 -215 -254 -215zM616 -20q-234 0 -380 150t-148 394q0 246 167 407t401 161t380 -150q148 -150 148 -396t-167 -406t-401 -160zM252 571
q0 -229 110 -356t294 -127q182 0 273 118t91 294q0 229 -111 356t-293 127t-273 -118t-91 -294z" />
    <glyph glyph-name="odieresis" unicode="&#xf6;" horiz-adv-x="1271" 
d="M616 -20q-234 0 -380 150t-148 394q0 246 167 407t401 161t380 -150q148 -150 148 -396t-167 -406t-401 -160zM252 571q0 -229 110 -356t294 -127q182 0 273 118t91 294q0 229 -111 356t-293 127t-273 -118t-91 -294zM725 1415q0 47 34 82t81 35t82 -35q34 -35 34 -82
t-34 -81t-82 -34q-47 0 -81 34t-34 81zM317 1415q0 47 34 82t81 35t82 -35t35 -82t-35 -81t-82 -34t-81 34t-34 81z" />
    <glyph glyph-name="divide" unicode="&#xf7;" 
d="M600 131q0 47 35 81t84 34t85 -34t36 -81t-36 -81t-85 -34t-84 34t-35 81zM600 1038q0 47 35 81t84 34t85 -34t36 -81t-36 -81q-36 -33 -85 -33t-84 34t-35 80zM1270 532h-1106v105h1106v-105z" />
    <glyph glyph-name="oslash" unicode="&#xf8;" horiz-adv-x="1271" 
d="M675 88q163 0 254 118t91 302t-78 305l-536 -641q106 -84 269 -84zM252 552q0 -194 94 -319l537 650q-105 100 -277 100t-263 -118q-91 -119 -91 -313zM618 -20q-176 0 -303 83l-108 -131l-66 56l107 129q-160 149 -160 401t167 413t398 161q184 0 322 -99l115 137
l71 -55l-119 -141q142 -147 142 -390t-167 -404q-168 -160 -399 -160z" />
    <glyph glyph-name="ugrave" unicode="&#xf9;" horiz-adv-x="1372" 
d="M326 1638h200l172 -426h-67zM550 -20q-138 0 -231 82q-92 82 -92 260v579q0 55 -30 73q-31 17 -121 27l-37 3v67l309 21h45l-10 -218v-536q0 -121 62 -180t169 -60q150 0 340 174v629q0 55 -30 73q-31 17 -121 27l-39 3v67l311 21h45l-10 -218v-663q0 -49 23 -63t106 -25
l57 -8v-62l-335 -73h-17l10 206q-86 -94 -176 -150t-228 -56z" />
    <glyph glyph-name="uacute" unicode="&#xfa;" horiz-adv-x="1372" 
d="M550 -20q-138 0 -231 82q-92 82 -92 260v579q0 55 -30 73q-31 17 -121 27l-37 3v67l309 21h45l-10 -218v-536q0 -121 62 -180t169 -60q150 0 340 174v629q0 55 -30 73q-31 17 -121 27l-39 3v67l311 21h45l-10 -218v-663q0 -49 23 -63t106 -25l57 -8v-62l-335 -73h-17
l10 206q-86 -94 -176 -150t-228 -56zM799 1638h207l-306 -426h-67z" />
    <glyph glyph-name="ucircumflex" unicode="&#xfb;" horiz-adv-x="1372" 
d="M550 -20q-138 0 -231 82q-92 82 -92 260v579q0 55 -30 73q-31 17 -121 27l-37 3v67l309 21h45l-10 -218v-536q0 -121 62 -180t169 -60q150 0 340 174v629q0 55 -30 73q-31 17 -121 27l-39 3v67l311 21h45l-10 -218v-663q0 -49 23 -63t106 -25l57 -8v-62l-335 -73h-17
l10 206q-86 -94 -176 -150t-228 -56zM725 1638l303 -426h-70l-290 275l-291 -275h-70l303 426h115z" />
    <glyph glyph-name="udieresis" unicode="&#xfc;" horiz-adv-x="1372" 
d="M550 -20q-138 0 -231 82q-92 82 -92 260v579q0 55 -30 73q-31 17 -121 27l-37 3v67l309 21h45l-10 -218v-536q0 -121 62 -180t169 -60q150 0 340 174v629q0 55 -30 73q-31 17 -121 27l-39 3v67l311 21h45l-10 -218v-663q0 -49 23 -63t106 -25l57 -8v-62l-335 -73h-17
l10 206q-86 -94 -176 -150t-228 -56zM750 1415q0 47 33 82q34 35 81 35t82 -35t35 -82t-35 -81t-82 -34t-81 34q-33 34 -33 81zM342 1415q0 47 34 82t81 35t82 -35t35 -82t-36 -81q-34 -34 -81 -34t-81 34t-34 81z" />
    <glyph glyph-name="yacute" unicode="&#xfd;" horiz-adv-x="1206" 
d="M729 1638h207l-305 -426h-68zM20 1071h461v-59q-90 -12 -123 -26q-56 -23 -18 -103l315 -711l275 711q14 37 14 63t-33 40q-33 13 -123 26v59h398v-59q-78 -29 -97 -42t-34 -48l-475 -1186q-57 -142 -127 -196q-71 -54 -139 -54q-133 0 -164 72v90h129q86 0 139 35
t88 127l74 188l-428 924q-16 35 -34 48t-98 42v59z" />
    <glyph glyph-name="thorn" unicode="&#xfe;" horiz-adv-x="1300" 
d="M645 78q186 0 297 116t111 320q-1 204 -99 328q-98 125 -288 125t-332 -160v-475q0 -254 311 -254zM334 -315q0 -69 53 -91q37 -15 121 -26v-60h-504v60q86 11 118 24q56 24 56 93v1792l-164 32v39l260 111h70l-10 -176v-592q68 90 170 145t221 56q225 0 356 -144
t131 -350q0 -278 -172 -448t-415 -170q-185 -1 -291 77v-372z" />
    <glyph glyph-name="ydieresis" unicode="&#xff;" horiz-adv-x="1206" 
d="M678 1415q0 47 34 82t81 35t81 -35t35 -82q0 -47 -35 -81q-36 -34 -82 -34t-80 34t-34 81zM270 1415q0 47 34 82t81 35t82 -35t35 -82t-35 -81t-82 -34t-81 34t-34 81zM20 1071h461v-59q-90 -12 -123 -26q-56 -23 -18 -103l315 -711l275 711q14 37 14 63t-33 40
q-33 13 -123 26v59h398v-59q-78 -29 -97 -42t-34 -48l-475 -1186q-57 -142 -127 -196q-71 -54 -139 -54q-133 0 -164 72v90h129q86 0 139 35t88 127l74 188l-428 924q-16 35 -34 48t-98 42v59z" />
    <glyph glyph-name="Amacron" unicode="&#x100;" horiz-adv-x="1675" 
d="M532 1802v107h541v-107h-541zM801 1382l-322 -757h645zM301 159q0 -86 234 -91v-68h-515v68q59 8 93 25q33 17 51 59l577 1341l-61 131h194l637 -1472q17 -40 51 -58t93 -26v-68h-580v68q129 4 180 26t51 63q0 42 -24 101l-119 274h-723l-114 -272q-25 -59 -25 -101z" />
    <glyph glyph-name="amacron" unicode="&#x101;" horiz-adv-x="1243" 
d="M301 1335v107h541v-107h-541zM983 719v-488q0 -143 104 -143q43 0 91 18l20 -38q-94 -88 -178 -88t-133 53t-53 147q-52 -57 -92 -93t-122 -73t-178 -37q-150 0 -232 79t-83 198q0 155 129 218q64 33 168 60l403 117v49q0 129 -70 214q-71 85 -212 85q-193 0 -193 -163
q0 -45 13 -82l-136 -15q-43 31 -43 99q0 116 115 186t292 70t283 -92t107 -281zM297 281q0 -93 52 -143t142 -50t166 42t170 126v309l-401 -123q-129 -41 -129 -161z" />
    <glyph glyph-name="Abreve" unicode="&#x102;" horiz-adv-x="1675" 
d="M803 1706q-354 0 -354 408h73q16 -152 93 -220t188 -68t187 68t93 220h74q0 -408 -354 -408zM801 1382l-322 -757h645zM301 159q0 -86 234 -91v-68h-515v68q59 8 93 25q33 17 51 59l577 1341l-61 131h194l637 -1472q17 -40 51 -58t93 -26v-68h-580v68q129 4 180 26t51 63
q0 42 -24 101l-119 274h-723l-114 -272q-25 -59 -25 -101z" />
    <glyph glyph-name="abreve" unicode="&#x103;" horiz-adv-x="1243" 
d="M571 1231q-354 0 -354 407h74q16 -152 93 -220q78 -68 188 -66q110 0 187 68t93 218h74q-1 -407 -355 -407zM983 719v-488q0 -143 104 -143q43 0 91 18l20 -38q-94 -88 -178 -88t-133 53t-53 147q-52 -57 -92 -93t-122 -73t-178 -37q-150 0 -232 79t-83 198
q0 155 129 218q64 33 168 60l403 117v49q0 129 -70 214q-71 85 -212 85q-193 0 -193 -163q0 -45 13 -82l-136 -15q-43 31 -43 99q0 116 115 186t292 70t283 -92t107 -281zM297 281q0 -93 52 -143t142 -50t166 42t170 126v309l-401 -123q-129 -41 -129 -161z" />
    <glyph glyph-name="Aogonek" unicode="&#x104;" horiz-adv-x="1675" 
d="M801 1382l-322 -757h645zM1075 0v68q129 4 180 26t51 63q0 42 -24 101l-119 274h-723l-114 -272q-25 -59 -25 -101q0 -86 234 -91v-68h-515v68q59 8 93 25q33 17 51 59l577 1341l-61 131h194l637 -1472q17 -40 51 -58t93 -26v-68q-262 -80 -262 -264q0 -70 44 -111
t113 -41t140 31l22 -45q-82 -82 -198 -82t-182 57q-67 57 -66 172q0 183 233 283h-424z" />
    <glyph glyph-name="aogonek" unicode="&#x105;" horiz-adv-x="1243" 
d="M442 -23q-150 0 -232 79t-83 198q0 155 129 218q64 33 168 60l403 117v49q0 129 -70 214q-71 85 -212 85q-205 0 -205 -163q0 -45 12 -82l-135 -15q-43 31 -43 99q0 116 120 186t298 70t284 -92t107 -281v-488q0 -143 104 -143q43 0 91 18l20 -38q-8 -6 -53 -39t-61 -45
t-50 -46q-90 -87 -90 -207q0 -71 41 -114t115 -43t141 41l23 -43q-88 -84 -198 -84t-180 53q-69 53 -69 153t43 162q43 64 117 132q-55 16 -98 67t-45 125q-52 -57 -92 -93t-122 -73t-178 -37zM494 88q90 0 164 42t169 126v309l-399 -123q-129 -41 -129 -161q0 -94 52 -144
q53 -49 143 -49z" />
    <glyph glyph-name="Cacute" unicode="&#x106;" horiz-adv-x="1675" 
d="M1073 2109h207l-305 -426h-68zM999 76q221 0 341 92t216 307h50l-47 -377q-264 -119 -584 -118q-401 0 -631 228q-229 228 -229 560q0 383 241 616q242 234 594 234t572 -127l14 -336h-45q-70 188 -202 270t-333 82q-319 0 -494 -184t-175 -504q0 -186 80 -353t245 -279
q166 -111 387 -111z" />
    <glyph glyph-name="cacute" unicode="&#x107;" horiz-adv-x="1126" 
d="M600 993q-158 0 -264 -117q-106 -118 -105 -314q0 -196 108 -324t304 -127q125 0 203 44t151 140l54 -19q-47 -131 -159 -214t-288 -82q-242 0 -379 154t-137 376q0 264 157 423t410 159q175 0 271 -71t96 -167t-68 -131h-82v41q0 229 -272 229zM731 1638h207l-305 -426
h-68z" />
    <glyph glyph-name="Ccircumflex" unicode="&#x108;" horiz-adv-x="1675" 
d="M1010 2109l303 -426h-70l-291 275l-290 -275h-70l303 426h115zM999 76q221 0 341 92t216 307h50l-47 -377q-264 -119 -584 -118q-401 0 -631 228q-229 228 -229 560q0 383 241 616q242 234 594 234t572 -127l14 -336h-45q-70 188 -202 270t-333 82q-319 0 -494 -184
t-175 -504q0 -186 80 -353t245 -279q166 -111 387 -111z" />
    <glyph glyph-name="ccircumflex" unicode="&#x109;" horiz-adv-x="1126" 
d="M600 993q-158 0 -264 -117q-106 -118 -105 -314q0 -196 108 -324t304 -127q125 0 203 44t151 140l54 -19q-47 -131 -159 -214t-288 -82q-242 0 -379 154t-137 376q0 264 157 423t410 159q175 0 271 -71t96 -167t-68 -131h-82v41q0 229 -272 229zM655 1638l303 -426h-69
l-291 275l-291 -275h-69l303 426h114z" />
    <glyph glyph-name="Cdotaccent" unicode="&#x10a;" horiz-adv-x="1675" 
d="M999 76q221 0 341 92t216 307h50l-47 -377q-264 -119 -584 -118q-401 0 -631 228q-229 228 -229 560q0 383 241 616q242 234 594 234t572 -127l14 -336h-45q-70 188 -202 270t-333 82q-319 0 -494 -184t-175 -504q0 -186 80 -353t245 -279q166 -111 387 -111zM834 1862
q0 51 33 86q34 34 85 34t86 -34t35 -86q0 -51 -35 -85t-86 -34t-85 34q-33 34 -33 85z" />
    <glyph glyph-name="cdotaccent" unicode="&#x10b;" horiz-adv-x="1126" 
d="M479 1419q0 51 34 86t85 35t86 -35t35 -86t-35 -85t-86 -34t-85 34t-34 85zM600 993q-158 0 -264 -117q-106 -118 -105 -314q0 -196 108 -324t304 -127q125 0 203 44t151 140l54 -19q-47 -131 -159 -214t-288 -82q-242 0 -379 154t-137 376q0 264 157 423t410 159
q175 0 271 -71t96 -167t-68 -131h-82v41q0 229 -272 229z" />
    <glyph glyph-name="Ccaron" unicode="&#x10c;" horiz-adv-x="1675" 
d="M895 1683l-303 426h70l290 -274l291 274h70l-303 -426h-115zM999 76q221 0 341 92t216 307h50l-47 -377q-264 -119 -584 -118q-401 0 -631 228q-229 228 -229 560q0 383 241 616q242 234 594 234t572 -127l14 -336h-45q-70 188 -202 270t-333 82q-319 0 -494 -184
t-175 -504q0 -186 80 -353t245 -279q166 -111 387 -111z" />
    <glyph glyph-name="ccaron" unicode="&#x10d;" horiz-adv-x="1126" 
d="M600 993q-158 0 -264 -117q-106 -118 -105 -314q0 -196 108 -324t304 -127q125 0 203 44t151 140l54 -19q-47 -131 -159 -214t-288 -82q-242 0 -379 154t-137 376q0 264 157 423t410 159q175 0 271 -71t96 -167t-68 -131h-82v41q0 229 -272 229zM541 1212l-303 426h69
l291 -274l291 274h69l-303 -426h-114z" />
    <glyph glyph-name="Dcaron" unicode="&#x10e;" horiz-adv-x="1884" 
d="M94 1597h821q217 0 385 -62q309 -114 419 -409q50 -133 50 -307q1 -174 -65 -337q-121 -302 -435 -426q-144 -56 -308 -56h-867v68q88 4 137 15t83 48t34 107v1122q0 70 -34 106t-83 48q-49 11 -137 16v67zM872 1507h-358v-1257q0 -96 56 -128t196 -32h192q266 0 447 178
q180 178 180 497t-159 523q-80 104 -222 162t-332 57zM846 1683l-303 426h69l291 -274l291 274h70l-303 -426h-115z" />
    <glyph glyph-name="dcaron" unicode="&#x10f;" horiz-adv-x="1366" 
d="M577 -20q-222 0 -356 146q-133 146 -133 357q0 273 165 441t402 168q190 0 310 -97v482l-164 32v39l258 111h69l-10 -176v-1272q0 -49 23 -63t106 -25l58 -8v-62l-336 -73h-15l11 186q-166 -186 -388 -186zM965 688q0 150 -87 228t-254 77q-166 0 -270 -119t-104 -320
q0 -200 99 -326t292 -126t324 152v434zM1243 1638h154l-115 -426h-65z" />
    <glyph glyph-name="Dcroat" unicode="&#x110;" horiz-adv-x="1884" 
d="M872 1507h-358v-649h504v-90h-504v-518q0 -96 56 -128t196 -32h192q266 0 447 178q180 178 180 497t-159 523q-80 104 -222 162t-332 57zM94 768v90h254v502q0 70 -34 106t-83 48q-49 11 -137 16v67h821q217 0 385 -62q309 -114 419 -409q50 -133 50 -307
q1 -174 -65 -337q-121 -302 -435 -426q-144 -56 -308 -56h-867v68q88 4 137 15t83 48t34 107v530h-254z" />
    <glyph glyph-name="dcroat" unicode="&#x111;" horiz-adv-x="1366" 
d="M965 688q0 150 -87 228t-254 77q-166 0 -270 -119t-104 -320q0 -200 99 -326t292 -126t324 152v434zM598 1239v78h367v160l-164 32v39l258 111h69l-10 -176v-166h187v-78h-187v-1028q0 -49 23 -63t106 -25l58 -8v-62l-336 -73h-15l11 186q-166 -186 -388 -186t-356 146
q-133 146 -133 357q0 273 165 441t402 168q190 0 310 -97v244h-367z" />
    <glyph glyph-name="Emacron" unicode="&#x112;" horiz-adv-x="1660" 
d="M1247 555h-57q-20 109 -57 161t-111 52h-508v-524q0 -90 56 -122t196 -32h317q54 0 145 14q26 4 54 28t43 35q14 11 46 57t46 69t60 94h49l-72 -387h-1360v68q88 4 137 15t83 48t34 107v1122q0 70 -34 106t-83 48q-49 11 -137 16v67h1350l6 -360h-39q-66 156 -134 213
q-69 57 -206 57h-557v-649h508q74 0 111 52t57 163h57v-518zM557 1802v107h541v-107h-541z" />
    <glyph glyph-name="emacron" unicode="&#x113;" horiz-adv-x="1144" 
d="M340 1335v107h541v-107h-541zM586 987q-138 0 -226 -79t-114 -206h643q0 125 -83 205q-82 80 -220 80zM602 1092q224 0 341 -119q116 -119 116 -309v-50h-828q-14 -227 102 -365t316 -138q125 0 207 45t156 139l51 -19q-47 -131 -160 -214t-293 -82q-244 0 -383 152
t-139 368q0 262 145 427t369 165z" />
    <glyph glyph-name="Ebreve" unicode="&#x114;" horiz-adv-x="1660" 
d="M1247 555h-57q-20 109 -57 161t-111 52h-508v-524q0 -90 56 -122t196 -32h317q54 0 145 14q26 4 54 28t43 35q14 11 46 57t46 69t60 94h49l-72 -387h-1360v68q88 4 137 15t83 48t34 107v1122q0 70 -34 106t-83 48q-49 11 -137 16v67h1350l6 -360h-39q-66 156 -134 213
q-69 57 -206 57h-557v-649h508q74 0 111 52t57 163h57v-518zM848 1706q-354 0 -354 408h73q16 -152 93 -220t188 -68q112 0 188 68t92 220h74q0 -408 -354 -408z" />
    <glyph glyph-name="ebreve" unicode="&#x115;" horiz-adv-x="1144" 
d="M610 1231q-354 0 -354 407h74q16 -152 93 -220t187 -66q110 0 188 68q77 68 93 218h74q-1 -407 -355 -407zM586 987q-138 0 -226 -79t-114 -206h643q0 125 -83 205q-82 80 -220 80zM602 1092q224 0 341 -119q116 -119 116 -309v-50h-828q-14 -227 102 -365t316 -138
q125 0 207 45t156 139l51 -19q-47 -131 -160 -214t-293 -82q-244 0 -383 152t-139 368q0 262 145 427t369 165z" />
    <glyph glyph-name="Edotaccent" unicode="&#x116;" horiz-adv-x="1660" 
d="M1247 555h-57q-20 109 -57 161t-111 52h-508v-524q0 -90 56 -122t196 -32h317q54 0 145 14q26 4 54 28t43 35q14 11 46 57t46 69t60 94h49l-72 -387h-1360v68q88 4 137 15t83 48t34 107v1122q0 70 -34 106t-83 48q-49 11 -137 16v67h1350l6 -360h-39q-66 156 -134 213
q-69 57 -206 57h-557v-649h508q74 0 111 52t57 163h57v-518zM705 1862q0 51 33 86q34 34 85 34t86 -34t35 -86q0 -51 -35 -85t-86 -34t-85 34q-33 34 -33 85z" />
    <glyph glyph-name="edotaccent" unicode="&#x117;" horiz-adv-x="1144" 
d="M492 1419q0 51 33 86q34 35 85 35t86 -35t35 -86t-35 -85t-86 -34t-85 34q-33 34 -33 85zM586 987q-138 0 -226 -79t-114 -206h643q0 125 -83 205q-82 80 -220 80zM602 1092q224 0 341 -119q116 -119 116 -309v-50h-828q-14 -227 102 -365t316 -138q125 0 207 45t156 139
l51 -19q-47 -131 -160 -214t-293 -82q-244 0 -383 152t-139 368q0 262 145 427t369 165z" />
    <glyph glyph-name="Eogonek" unicode="&#x118;" horiz-adv-x="1660" 
d="M94 0v68q88 4 137 15t83 48t34 107v1122q0 70 -34 106t-83 48q-49 11 -137 16v67h1350l6 -360h-39q-66 156 -134 213q-69 57 -206 57h-557v-649h508q74 0 111 52t57 163h57v-518h-57q-20 109 -57 161t-111 52h-508v-524q0 -90 56 -122t196 -32h317q54 0 145 14
q26 4 54 28t43 35q14 11 46 57t46 69t60 94h49l-72 -387q-262 -80 -262 -264q0 -70 44 -111t114 -41t139 31l22 -45q-81 -82 -197 -82t-182 57t-67 172q0 183 233 283h-1204z" />
    <glyph glyph-name="eogonek" unicode="&#x119;" horiz-adv-x="1144" 
d="M586 987q-138 0 -226 -79t-114 -206h643q0 125 -83 205q-82 80 -220 80zM88 500q0 262 145 427t369 165t341 -119q116 -119 116 -309v-50h-828q-14 -227 102 -365t316 -138q125 0 207 45t156 139l51 -19q-68 -179 -232 -253q-238 -106 -237 -287q0 -70 44 -111t114 -41
t139 31l22 -45q-81 -82 -197 -82t-182 57t-67 172q0 166 195 265l-52 -2q-244 0 -383 152t-139 368z" />
    <glyph glyph-name="Ecaron" unicode="&#x11a;" horiz-adv-x="1660" 
d="M1247 555h-57q-20 109 -57 161t-111 52h-508v-524q0 -90 56 -122t196 -32h317q54 0 145 14q26 4 54 28t43 35q14 11 46 57t46 69t60 94h49l-72 -387h-1360v68q88 4 137 15t83 48t34 107v1122q0 70 -34 106t-83 48q-49 11 -137 16v67h1350l6 -360h-39q-66 156 -134 213
q-69 57 -206 57h-557v-649h508q74 0 111 52t57 163h57v-518zM793 1683l-304 426h70l291 -274l291 274h69l-303 -426h-114z" />
    <glyph glyph-name="ecaron" unicode="&#x11b;" horiz-adv-x="1144" 
d="M586 987q-138 0 -226 -79t-114 -206h643q0 125 -83 205q-82 80 -220 80zM602 1092q224 0 341 -119q116 -119 116 -309v-50h-828q-14 -227 102 -365t316 -138q125 0 207 45t156 139l51 -19q-47 -131 -160 -214t-293 -82q-244 0 -383 152t-139 368q0 262 145 427t369 165z
M553 1212l-303 426h69l291 -274l291 274h70l-303 -426h-115z" />
    <glyph glyph-name="Gcircumflex" unicode="&#x11c;" horiz-adv-x="1853" 
d="M1016 2109l303 -426h-70l-291 275l-290 -275h-70l303 426h115zM115 768q0 383 241 616q242 234 594 234t572 -127l14 -336h-45q-70 188 -202 270t-333 82q-319 0 -494 -184t-175 -504q0 -190 81 -357q82 -167 244 -277t375 -109q317 0 438 155v308q0 103 -65 131t-184 32
v66h653v-66q-120 -4 -169 -25q-48 -21 -64 -53t-17 -85v-396q-240 -164 -610 -163q-203 0 -368 66q-306 121 -430 426q-56 140 -56 296z" />
    <glyph glyph-name="gcircumflex" unicode="&#x11d;" horiz-adv-x="1210" 
d="M597 395q128 0 190 75q63 75 63 209t-79 226t-207 92q-128 -1 -190 -75t-62 -208t78 -227q79 -92 207 -92zM821 -14h-508q-86 -74 -86 -183q-1 -109 103 -169t286 -60t298 69q118 69 118 189q0 154 -211 154zM373 125h473q152 0 236 -69t85 -201q0 -159 -165 -263
t-427 -104q-263 0 -383 81t-120 202q0 84 49 136t143 95q-125 41 -125 166q0 76 44 123t130 88q-163 111 -163 301t125 301q126 111 329 111q96 0 174 -29l375 8v-123h-78l-233 31v-4q78 -33 127 -111t49 -174q0 -178 -121 -277t-311 -100q-133 0 -224 39q-90 -68 -92 -135
q0 -92 103 -92zM637 1638l303 -426h-70l-290 275l-291 -275h-70l303 426h115z" />
    <glyph glyph-name="Gbreve" unicode="&#x11e;" horiz-adv-x="1853" 
d="M115 768q0 383 241 616q242 234 594 234t572 -127l14 -336h-45q-70 188 -202 270t-333 82q-319 0 -494 -184t-175 -504q0 -190 81 -357q82 -167 244 -277t375 -109q317 0 438 155v308q0 103 -65 131t-184 32v66h653v-66q-120 -4 -169 -25q-48 -21 -64 -53t-17 -85v-396
q-240 -164 -610 -163q-203 0 -368 66q-306 121 -430 426q-56 140 -56 296zM958 1706q-354 0 -354 408h74q16 -152 93 -220t187 -68t188 68q77 68 93 220h74q-1 -408 -355 -408z" />
    <glyph glyph-name="gbreve" unicode="&#x11f;" horiz-adv-x="1210" 
d="M573 1231q-354 0 -354 407h74q16 -152 93 -220q78 -68 188 -66q110 0 187 68t93 218h74q-1 -407 -355 -407zM597 395q128 0 190 75q63 75 63 209t-79 226t-207 92q-128 -1 -190 -75t-62 -208t78 -227q79 -92 207 -92zM821 -14h-508q-86 -74 -86 -183q-1 -109 103 -169
t286 -60t298 69q118 69 118 189q0 154 -211 154zM373 125h473q152 0 236 -69t85 -201q0 -159 -165 -263t-427 -104q-263 0 -383 81t-120 202q0 84 49 136t143 95q-125 41 -125 166q0 76 44 123t130 88q-163 111 -163 301t125 301q126 111 329 111q96 0 174 -29l375 8v-123
h-78l-233 31v-4q78 -33 127 -111t49 -174q0 -178 -121 -277t-311 -100q-133 0 -224 39q-90 -68 -92 -135q0 -92 103 -92z" />
    <glyph glyph-name="Gdotaccent" unicode="&#x120;" horiz-adv-x="1853" 
d="M115 768q0 383 241 616q242 234 594 234t572 -127l14 -336h-45q-70 188 -202 270t-333 82q-319 0 -494 -184t-175 -504q0 -190 81 -357q82 -167 244 -277t375 -109q317 0 438 155v308q0 103 -65 131t-184 32v66h653v-66q-120 -4 -169 -25q-48 -21 -64 -53t-17 -85v-396
q-240 -164 -610 -163q-203 0 -368 66q-306 121 -430 426q-56 140 -56 296zM840 1862q0 51 33 86q34 34 85 34t86 -34t35 -86q0 -51 -35 -85t-86 -34t-85 34q-33 34 -33 85z" />
    <glyph glyph-name="gdotaccent" unicode="&#x121;" horiz-adv-x="1210" 
d="M461 1419q0 51 34 86t85 35t86 -35q34 -35 34 -86t-34 -85t-86 -34q-51 0 -85 34t-34 85zM597 395q128 0 190 75q63 75 63 209t-79 226t-207 92q-128 -1 -190 -75t-62 -208t78 -227q79 -92 207 -92zM821 -14h-508q-86 -74 -86 -183q-1 -109 103 -169t286 -60t298 69
q118 69 118 189q0 154 -211 154zM373 125h473q152 0 236 -69t85 -201q0 -159 -165 -263t-427 -104q-263 0 -383 81t-120 202q0 84 49 136t143 95q-125 41 -125 166q0 76 44 123t130 88q-163 111 -163 301t125 301q126 111 329 111q96 0 174 -29l375 8v-123h-78l-233 31v-4
q78 -33 127 -111t49 -174q0 -178 -121 -277t-311 -100q-133 0 -224 39q-90 -68 -92 -135q0 -92 103 -92z" />
    <glyph glyph-name="Gcommaaccent" unicode="&#x122;" horiz-adv-x="1853" 
d="M115 768q0 383 241 616q242 234 594 234t572 -127l14 -336h-45q-70 188 -202 270t-333 82q-319 0 -494 -184t-175 -504q0 -190 81 -357q82 -167 244 -277t375 -109q317 0 438 155v308q0 103 -65 131t-184 32v66h653v-66q-120 -4 -169 -25q-48 -21 -64 -53t-17 -85v-396
q-240 -164 -610 -163q-203 0 -368 66q-306 121 -430 426q-56 140 -56 296zM850 -229q0 49 33 82t95 33t96 -46t34 -128t-57 -151t-191 -73v70q119 12 150 106h-70q-90 23 -90 107z" />
    <glyph glyph-name="gcommaaccent" unicode="&#x123;" horiz-adv-x="1210" 
d="M700 1339q0 -49 -32 -82t-94 -33t-97 46t-35 128t58 151t190 73v-70q-118 -12 -149 -106h69q90 -23 90 -107zM597 395q128 0 190 75q63 75 63 209t-79 226t-207 92q-128 -1 -190 -75t-62 -208t78 -227q79 -92 207 -92zM821 -14h-508q-86 -74 -86 -183q-1 -109 103 -169
t286 -60t298 69q118 69 118 189q0 154 -211 154zM373 125h473q152 0 236 -69t85 -201q0 -159 -165 -263t-427 -104q-263 0 -383 81t-120 202q0 84 49 136t143 95q-125 41 -125 166q0 76 44 123t130 88q-163 111 -163 301t125 301q126 111 329 111q96 0 174 -29l375 8v-123
h-78l-233 31v-4q78 -33 127 -111t49 -174q0 -178 -121 -277t-311 -100q-133 0 -224 39q-90 -68 -92 -135q0 -92 103 -92z" />
    <glyph glyph-name="Hcircumflex" unicode="&#x124;" horiz-adv-x="2013" 
d="M1063 2109l303 -426h-70l-290 275l-291 -275h-70l303 426h115zM1499 238v528h-985v-528q0 -70 34 -107t83 -48t137 -15v-68h-674v68q88 4 137 15t83 48t34 107v1122q0 70 -34 106t-83 48q-49 11 -137 16v67h674v-67q-88 -4 -137 -16t-83 -48q-34 -37 -34 -106v-502h985
v502q0 70 -34 106t-83 48q-49 11 -137 16v67h674v-67q-88 -4 -137 -16t-83 -48q-34 -37 -34 -106v-1122q0 -70 34 -107t83 -48t137 -15v-68h-674v68q88 4 137 15t83 48t34 107z" />
    <glyph glyph-name="hcircumflex" unicode="&#x125;" horiz-adv-x="1423" 
d="M408 2109l303 -426h-70l-291 275l-291 -275h-69l303 426h115zM1180 176q0 -68 53 -90q34 -14 121 -27v-59h-504v59q138 18 162 61q12 22 12 56v557q0 227 -238 228q-90 1 -193 -47t-177 -115v-623q0 -45 26 -70q26 -26 56 -32q29 -6 90 -15v-59h-502v59q138 18 162 61
q12 22 12 56v1301l-164 32v39l260 111h70l-10 -176v-602q80 86 192 148q112 63 250 63t230 -81t92 -255v-580z" />
    <glyph glyph-name="Hbar" unicode="&#x126;" horiz-adv-x="2013" 
d="M514 858h985v287h-985v-287zM125 1145v88h223v127q0 70 -34 106t-83 48q-49 11 -137 16v67h674v-67q-88 -4 -137 -16t-83 -48q-34 -37 -34 -106v-127h985v127q0 70 -34 106t-83 48q-49 11 -137 16v67h674v-67q-88 -4 -137 -16t-83 -48q-34 -37 -34 -106v-127h223v-88
h-223v-907q0 -70 34 -107t83 -48t137 -15v-68h-674v68q88 4 137 15t83 48t34 107v528h-985v-528q0 -70 34 -107t83 -48t137 -15v-68h-674v68q88 4 137 15t83 48t34 107v907h-223z" />
    <glyph glyph-name="hbar" unicode="&#x127;" horiz-adv-x="1423" 
d="M416 1317h387v-78h-387v-358q80 86 192 148q112 63 250 63t230 -81t92 -255v-580q0 -68 53 -90q34 -14 121 -27v-59h-504v59q138 18 162 61q12 22 12 56v557q0 227 -238 228q-90 1 -193 -47t-177 -115v-623q0 -45 26 -70q26 -26 56 -32q29 -6 90 -15v-59h-502v59
q138 18 162 61q12 22 12 56v1063h-164v78h164v160l-164 32v39l260 111h70l-10 -176v-166z" />
    <glyph glyph-name="Itilde" unicode="&#x128;" horiz-adv-x="862" 
d="M569 1741q-72 0 -173 61q-101 62 -148 62t-74 -20t-63 -87l-68 8q80 215 254 215q72 0 173 -61t148 -61t74 19t64 87l67 -8q-78 -215 -254 -215zM348 238v1122q0 70 -34 106t-83 48q-49 11 -137 16v67h674v-67q-88 -4 -137 -16t-83 -48q-34 -37 -34 -106v-1122
q0 -70 34 -107t83 -48t137 -15v-68h-674v68q88 4 137 15t83 48t34 107z" />
    <glyph glyph-name="itilde" unicode="&#x129;" horiz-adv-x="712" 
d="M510 1249q-72 1 -173 61t-148 60t-74 -19t-64 -87l-67 10q80 215 254 215q72 1 173 -61t148 -62t74 19t63 88l68 -9q-78 -215 -254 -215zM451 176q0 -68 53 -90q34 -14 121 -27v-59h-504v59q138 18 162 61q12 22 12 56v719l-164 53v41l262 98h68l-10 -219v-692z" />
    <glyph glyph-name="Imacron" unicode="&#x12a;" horiz-adv-x="862" 
d="M162 1802v107h540v-107h-540zM348 238v1122q0 70 -34 106t-83 48q-49 11 -137 16v67h674v-67q-88 -4 -137 -16t-83 -48q-34 -37 -34 -106v-1122q0 -70 34 -107t83 -48t137 -15v-68h-674v68q88 4 137 15t83 48t34 107z" />
    <glyph glyph-name="imacron" unicode="&#x12b;" horiz-adv-x="712" 
d="M96 1335v107h500v-107h-500zM451 176q0 -68 53 -90q34 -14 121 -27v-59h-504v59q138 18 162 61q12 22 12 56v719l-164 53v41l262 98h68l-10 -219v-692z" />
    <glyph glyph-name="Ibreve" unicode="&#x12c;" horiz-adv-x="862" 
d="M432 1706q-354 0 -354 408h74q16 -152 93 -220t187 -68t188 68q77 68 93 220h73q0 -408 -354 -408zM348 238v1122q0 70 -34 106t-83 48q-49 11 -137 16v67h674v-67q-88 -4 -137 -16t-83 -48q-34 -37 -34 -106v-1122q0 -70 34 -107t83 -48t137 -15v-68h-674v68
q88 4 137 15t83 48t34 107z" />
    <glyph glyph-name="ibreve" unicode="&#x12d;" horiz-adv-x="712" 
d="M373 1231q-354 0 -355 407h74q16 -152 93 -220t188 -66q111 0 187 68t93 218h74q0 -407 -354 -407zM451 176q0 -68 53 -90q34 -14 121 -27v-59h-504v59q138 18 162 61q12 22 12 56v719l-164 53v41l262 98h68l-10 -219v-692z" />
    <glyph glyph-name="Iogonek" unicode="&#x12e;" horiz-adv-x="862" 
d="M94 0v68q88 4 137 15t83 48t34 107v1122q0 70 -34 106t-83 48q-49 11 -137 16v67h674v-67q-88 -4 -137 -16t-83 -48q-34 -37 -34 -106v-1122q0 -70 34 -107t83 -48t137 -15v-68q-262 -80 -262 -264q0 -70 44 -111t114 -41t139 31l22 -45q-81 -82 -197 -82t-183 57
t-66 172q0 183 233 283h-518z" />
    <glyph glyph-name="iogonek" unicode="&#x12f;" horiz-adv-x="712" 
d="M238 1419q0 51 33 86q34 35 85 35t86 -35t35 -86t-35 -85t-86 -34t-85 34q-33 34 -33 85zM121 0v59q138 18 162 61q12 22 12 56v719l-164 53v41l262 98h68l-10 -219v-692q0 -68 53 -90q34 -14 121 -27v-59q-262 -80 -263 -264q0 -70 44 -111t114 -41q69 0 139 31l23 -45
q-82 -82 -198 -82t-182 57q-67 57 -66 172q0 183 233 283h-348z" />
    <glyph glyph-name="Idotaccent" unicode="&#x130;" horiz-adv-x="862" 
d="M313 1862q0 51 34 86q34 34 85 34t86 -34t35 -86q0 -51 -35 -85t-86 -34t-85 34t-34 85zM348 238v1122q0 70 -34 106t-83 48q-49 11 -137 16v67h674v-67q-88 -4 -137 -16t-83 -48q-34 -37 -34 -106v-1122q0 -70 34 -107t83 -48t137 -15v-68h-674v68q88 4 137 15t83 48
t34 107z" />
    <glyph glyph-name="dotlessi" unicode="&#x131;" horiz-adv-x="712" 
d="M451 176q0 -68 53 -90q34 -14 121 -27v-59h-504v59q138 18 162 61q12 22 12 56v719l-164 53v41l262 98h68l-10 -219v-692z" />
    <glyph glyph-name="IJ" unicode="&#x132;" horiz-adv-x="1835" 
d="M1546 430q0 -452 -372 -450q-178 0 -274 68q-97 68 -97 181q0 35 13 76t34 57h135v-120q0 -96 48 -140t118 -45q113 0 167 66t54 258v979q0 100 -59 132t-191 38v67h674v-67q-130 -6 -190 -38t-60 -132v-930zM344 238v1122q0 100 -59 132t-191 38v67h674v-67
q-131 -6 -189 -38t-59 -132v-1122q0 -100 58 -132t190 -38v-68h-674v68q131 6 191 37q59 33 59 133z" />
    <glyph glyph-name="ij" unicode="&#x133;" horiz-adv-x="1144" 
d="M752 1419q0 51 33 86q34 35 85 35t86 -35t35 -86t-35 -85t-86 -34t-85 34q-33 34 -33 85zM965 100q-1 -131 -7 -184t-32 -115q-43 -102 -254 -313l-43 39l102 162q47 73 63 159t15 220v827l-164 53v41l262 98h68l-10 -219v-768zM238 1419q0 51 33 86q34 35 85 35t86 -35
t35 -86t-35 -85t-86 -34t-85 34q-33 34 -33 85zM451 176q0 -68 53 -90q34 -14 121 -27v-59h-504v59q138 18 162 61q12 22 12 56v719l-164 53v41l262 98h68l-10 -219v-692z" />
    <glyph glyph-name="Jcircumflex" unicode="&#x134;" horiz-adv-x="1132" 
d="M805 2109l303 -426h-70l-290 275l-291 -275h-70l303 426h115zM840 1360v-916q0 -465 -441 -464q-184 0 -295 66t-110 187q0 76 51 117h137v-63q0 -229 238 -230q254 0 254 353v950q0 70 -34 106t-83 48q-49 11 -137 16v67h674v-67q-88 -4 -138 -16t-82 -48
q-34 -36 -34 -106z" />
    <glyph glyph-name="jcircumflex" unicode="&#x135;" horiz-adv-x="571" 
d="M367 1638l303 -426h-70l-291 275l-291 -275h-69l303 426h115zM391 100q0 -131 -6 -184t-33 -115q-43 -102 -254 -313l-43 39l103 162q47 73 62 159t16 220v827l-164 53v41l260 98h69l-10 -219v-768z" />
    <glyph glyph-name="Kcommaaccent" unicode="&#x136;" horiz-adv-x="1683" 
d="M348 238v1122q0 70 -34 106t-83 48q-49 11 -137 16v67h674v-67q-88 -4 -137 -16t-83 -48q-34 -37 -34 -106v-1122q0 -70 34 -107t83 -48t137 -15v-68h-674v68q88 4 137 15t83 48t34 107zM1673 0h-262q-111 55 -240 184l-639 629l685 576q51 41 51 67t-8 40t-64 21
t-129 13v67h575v-67q-99 0 -179 -59q-30 -22 -93 -74l-649 -545l668 -645q127 -123 284 -139v-68zM766 -229q0 49 33 82t95 33t96 -46t34 -128t-57 -151t-191 -73v70q119 12 150 106h-70q-90 23 -90 107z" />
    <glyph glyph-name="kcommaaccent" unicode="&#x137;" horiz-adv-x="1239" 
d="M416 176q0 -45 26 -70q26 -26 56 -32q29 -6 90 -15v-59h-502v59q138 18 162 61q12 22 12 56v1301l-164 32v39l260 111h70l-10 -176v-1307zM848 948q0 26 -28 39q-28 12 -115 25v59h456v-59q-49 -10 -58 -14q-9 -5 -25 -9q-47 -12 -74 -43l-402 -362l629 -539v-45h-172
l-631 539l391 354q29 29 29 55zM584 -229q0 49 32 82q33 33 95 33q63 0 97 -46t34 -128t-58 -151t-190 -73v70q118 12 149 106h-69q-90 23 -90 107z" />
    <glyph glyph-name="kgreenlandic" unicode="&#x138;" horiz-adv-x="1277" 
d="M887 948q0 26 -28 39q-28 12 -116 25v59h457v-59q-49 -10 -58 -14q-8 -5 -24 -9q-44 -11 -76 -43l-401 -362l629 -539v-45h-172l-631 539l391 354q29 29 29 55zM451 176q0 -68 53 -90q34 -14 121 -27v-59h-504v59q138 18 162 61q12 22 12 56v719l-164 53v41l262 98h68
l-10 -219v-692z" />
    <glyph glyph-name="Lacute" unicode="&#x139;" horiz-adv-x="1550" 
d="M514 1360v-1116q0 -90 56 -122t196 -32h278q116 0 163 33t72 52q35 26 148 241h48l-74 -416h-1307v68q88 4 137 15t83 48t34 107v1122q0 70 -34 106t-83 48q-49 11 -137 16v67h674v-67q-88 -4 -137 -16t-83 -48t-34 -106zM586 2109h207l-306 -426h-67z" />
    <glyph glyph-name="lacute" unicode="&#x13a;" horiz-adv-x="692" 
d="M430 176q0 -68 53 -90q33 -14 121 -27v-59h-504v59q138 18 162 61q12 22 12 56v1301l-163 32v39l262 111h67l-10 -176v-1307zM446 2109h207l-305 -426h-67z" />
    <glyph glyph-name="Lcommaaccent" unicode="&#x13b;" horiz-adv-x="1550" 
d="M514 1360v-1116q0 -90 56 -122t196 -32h278q116 0 163 33t72 52q35 26 148 241h48l-74 -416h-1307v68q88 4 137 15t83 48t34 107v1122q0 70 -34 106t-83 48q-49 11 -137 16v67h674v-67q-88 -4 -137 -16t-83 -48t-34 -106zM666 -229q0 49 32 82t94 33t97 -46t35 -128
t-58 -151t-190 -73v70q118 12 149 106h-69q-90 23 -90 107z" />
    <glyph glyph-name="lcommaaccent" unicode="&#x13c;" horiz-adv-x="692" 
d="M430 176q0 -68 53 -90q33 -14 121 -27v-59h-504v59q138 18 162 61q12 22 12 56v1301l-163 32v39l262 111h67l-10 -176v-1307zM236 -229q0 49 32 82t94 33t97 -46t35 -128t-58 -151t-190 -73v70q118 12 149 106h-69q-90 23 -90 107z" />
    <glyph glyph-name="Lcaron" unicode="&#x13d;" horiz-adv-x="1550" 
d="M514 1360v-1116q0 -90 56 -122t196 -32h278q116 0 163 33t72 52q35 26 148 241h48l-74 -416h-1307v68q88 4 137 15t83 48t34 107v1122q0 70 -34 106t-83 48q-49 11 -137 16v67h674v-67q-88 -4 -137 -16t-83 -48t-34 -106zM993 1597h154l-115 -426h-65z" />
    <glyph glyph-name="lcaron" unicode="&#x13e;" horiz-adv-x="692" 
d="M430 176q0 -68 53 -90q33 -14 121 -27v-59h-504v59q138 18 162 61q12 22 12 56v1301l-163 32v39l262 111h67l-10 -176v-1307zM557 1638h154l-115 -426h-66z" />
    <glyph glyph-name="Ldot" unicode="&#x13f;" horiz-adv-x="1550" 
d="M1075 819q0 53 38 92t91 39t92 -39t39 -92t-39 -91t-92 -38t-91 38t-38 91zM514 1360v-1116q0 -90 56 -122t196 -32h278q116 0 163 33t72 52q35 26 148 241h48l-74 -416h-1307v68q88 4 137 15t83 48t34 107v1122q0 70 -34 106t-83 48q-49 11 -137 16v67h674v-67
q-88 -4 -137 -16t-83 -48t-34 -106z" />
    <glyph glyph-name="ldot" unicode="&#x140;" horiz-adv-x="753" 
d="M430 176q0 -68 53 -90q33 -14 121 -27v-59h-504v59q138 18 162 61q12 22 12 56v1301l-163 32v39l262 111h67l-10 -176v-1307zM600 799q0 53 38 92t91 39t92 -39t39 -92t-39 -91t-92 -38t-91 38t-38 91z" />
    <glyph glyph-name="Lslash" unicode="&#x141;" horiz-adv-x="1550" 
d="M348 1360q0 70 -34 106t-83 48q-49 11 -137 16v67h674v-67q-88 -4 -137 -16t-83 -48q-34 -37 -34 -106v-539l408 178v-102l-408 -178v-471q0 -90 56 -122t196 -32h278q115 0 163 32q47 32 76 55t67 92t77 143h48l-74 -416h-1307v68q88 4 137 15t83 48t34 107v409
l-254 -108v102l254 109v610z" />
    <glyph glyph-name="lslash" unicode="&#x142;" horiz-adv-x="702" 
d="M424 176q0 -68 53 -90q34 -14 121 -27v-59h-504v59q138 18 162 61q12 22 12 56v623l-170 -109v94l170 109v584l-164 32v39l261 111h69l-10 -176v-518l182 118v-92l-182 -121v-694z" />
    <glyph glyph-name="Nacute" unicode="&#x143;" horiz-adv-x="1998" 
d="M346 238v1157q-74 87 -118 111t-134 24v67h332l1141 -1318v1081q1 100 -57 132t-187 38v67h602v-67q-131 -6 -190 -38t-60 -132v-1360h-76l-1144 1311v-1073q0 -100 57 -132t186 -38v-68h-604v68q88 4 136 15t82 48t34 107zM1139 2109h207l-306 -426h-67z" />
    <glyph glyph-name="nacute" unicode="&#x144;" horiz-adv-x="1458" 
d="M1059 176v557q0 227 -238 228q-90 1 -193 -47t-177 -115v-623q0 -68 53 -90q34 -14 121 -27v-59h-504v59q138 18 162 61q12 22 12 56v719l-164 53v41l262 98h68l-10 -206q79 86 191 148q112 63 250 63t230 -81t92 -255v-580q0 -68 54 -90q34 -14 121 -27v-59h-504v59
q138 18 162 61q12 21 12 56zM887 1638h207l-306 -426h-67z" />
    <glyph glyph-name="Ncommaaccent" unicode="&#x145;" horiz-adv-x="1998" 
d="M346 238v1157q-74 87 -118 111t-134 24v67h332l1141 -1318v1081q1 100 -57 132t-187 38v67h602v-67q-131 -6 -190 -38t-60 -132v-1360h-76l-1144 1311v-1073q0 -100 57 -132t186 -38v-68h-604v68q88 4 136 15t82 48t34 107zM899 -229q0 49 33 82q32 33 94 33t96 -46
t35 -128q0 -82 -57 -151t-191 -73v70q119 12 150 106h-70q-90 23 -90 107z" />
    <glyph glyph-name="ncommaaccent" unicode="&#x146;" horiz-adv-x="1458" 
d="M1059 176v557q0 227 -238 228q-90 1 -193 -47t-177 -115v-623q0 -68 53 -90q34 -14 121 -27v-59h-504v59q138 18 162 61q12 22 12 56v719l-164 53v41l262 98h68l-10 -206q79 86 191 148q112 63 250 63t230 -81t92 -255v-580q0 -68 54 -90q34 -14 121 -27v-59h-504v59
q138 18 162 61q12 21 12 56zM637 -229q0 49 33 82q32 33 94 33t96 -46t35 -128q0 -82 -57 -151t-191 -73v70q119 12 150 106h-70q-90 23 -90 107z" />
    <glyph glyph-name="Ncaron" unicode="&#x147;" horiz-adv-x="1998" 
d="M346 238v1157q-74 87 -118 111t-134 24v67h332l1141 -1318v1081q1 100 -57 132t-187 38v67h602v-67q-131 -6 -190 -38t-60 -132v-1360h-76l-1144 1311v-1073q0 -100 57 -132t186 -38v-68h-604v68q88 4 136 15t82 48t34 107zM961 1683l-304 426h70l291 -274l291 274h69
l-303 -426h-114z" />
    <glyph glyph-name="ncaron" unicode="&#x148;" horiz-adv-x="1458" 
d="M1059 176v557q0 227 -238 228q-90 1 -193 -47t-177 -115v-623q0 -68 53 -90q34 -14 121 -27v-59h-504v59q138 18 162 61q12 22 12 56v719l-164 53v41l262 98h68l-10 -206q79 86 191 148q112 63 250 63t230 -81t92 -255v-580q0 -68 54 -90q34 -14 121 -27v-59h-504v59
q138 18 162 61q12 21 12 56zM698 1212l-303 426h70l291 -274l291 274h69l-303 -426h-115z" />
    <glyph glyph-name="Eng" unicode="&#x14a;" horiz-adv-x="1998" 
d="M455 238q0 -100 57 -132t186 -38v-68h-604v68q88 4 136 15t82 48t34 107v1157q-74 87 -118 111t-134 24v67h332l1141 -1318v1081q1 100 -57 132t-187 38v67h602v-67q-131 -6 -190 -38t-60 -132v-1501q0 -174 -74 -273q-75 -98 -274 -98q-121 0 -208 50t-87 134t68 127h98
v-53q0 -80 42 -126t134 -46t143 58q50 58 50 194v211l-1112 1274v-1073z" />
    <glyph glyph-name="eng" unicode="&#x14b;" horiz-adv-x="1355" 
d="M1059 733q0 227 -238 228q-90 1 -193 -47t-177 -115v-623q0 -68 53 -90q34 -14 121 -27v-59h-504v59q138 18 162 61q12 22 12 56v719l-164 53v41l262 98h68l-10 -206q79 86 191 148q112 63 250 63t230 -81t92 -255v-934q0 -152 -101 -243t-247 -91t-217 52
q-70 52 -69 134q0 53 34 82h119v-41q0 -61 40 -103t122 -42t123 52t41 171v940z" />
    <glyph glyph-name="Omacron" unicode="&#x14c;" horiz-adv-x="1851" 
d="M906 -20q-353 0 -572 232t-219 556q0 383 238 616q239 234 592 234t573 -232t219 -557q0 -383 -239 -616t-592 -233zM975 102q274 0 433 184t159 457q0 328 -178 540t-512 212q-273 0 -433 -183t-159 -458q0 -328 178 -540t512 -212zM655 1802v107h541v-107h-541z" />
    <glyph glyph-name="omacron" unicode="&#x14d;" horiz-adv-x="1271" 
d="M616 -20q-234 0 -380 150t-148 394q0 246 167 407t401 161t380 -150q148 -150 148 -396t-167 -406t-401 -160zM252 571q0 -229 110 -356t294 -127q182 0 273 118t91 294q0 229 -111 356t-293 127t-273 -118t-91 -294zM373 1335v107h540v-107h-540z" />
    <glyph glyph-name="Obreve" unicode="&#x14e;" horiz-adv-x="1851" 
d="M906 -20q-353 0 -572 232t-219 556q0 383 238 616q239 234 592 234t573 -232t219 -557q0 -383 -239 -616t-592 -233zM975 102q274 0 433 184t159 457q0 328 -178 540t-512 212q-273 0 -433 -183t-159 -458q0 -328 178 -540t512 -212zM926 1706q-354 0 -355 408h74
q16 -152 93 -220t188 -68q112 0 188 68t92 220h74q0 -408 -354 -408z" />
    <glyph glyph-name="obreve" unicode="&#x14f;" horiz-adv-x="1271" 
d="M643 1231q-354 0 -354 407h73q16 -152 94 -220t188 -66q110 0 186 68t94 218h73q0 -407 -354 -407zM616 -20q-234 0 -380 150t-148 394q0 246 167 407t401 161t380 -150q148 -150 148 -396t-167 -406t-401 -160zM252 571q0 -229 110 -356t294 -127q182 0 273 118t91 294
q0 229 -111 356t-293 127t-273 -118t-91 -294z" />
    <glyph glyph-name="Ohungarumlaut" unicode="&#x150;" horiz-adv-x="1851" 
d="M1182 2109h186l-250 -426h-74zM872 2109h187l-250 -426h-74zM906 -20q-353 0 -572 232t-219 556q0 383 238 616q239 234 592 234t573 -232t219 -557q0 -383 -239 -616t-592 -233zM975 102q274 0 433 184t159 457q0 328 -178 540t-512 212q-273 0 -433 -183t-159 -458
q0 -328 178 -540t512 -212z" />
    <glyph glyph-name="ohungarumlaut" unicode="&#x151;" horiz-adv-x="1271" 
d="M616 -20q-234 0 -380 150t-148 394q0 246 167 407t401 161t380 -150q148 -150 148 -396t-167 -406t-401 -160zM252 571q0 -229 110 -356t294 -127q182 0 273 118t91 294q0 229 -111 356t-293 127t-273 -118t-91 -294zM870 1638h187l-250 -426h-74zM561 1638h187
l-250 -426h-74z" />
    <glyph glyph-name="OE" unicode="&#x152;" horiz-adv-x="2662" 
d="M975 102q274 0 433 184t159 457q0 328 -178 540t-512 212q-273 0 -433 -183t-159 -458q0 -328 178 -540t512 -212zM903 -20q-350 0 -569 232t-219 556q0 381 240 615q241 234 593 235q88 0 187 -21h1310l6 -360h-38q-66 156 -135 212t-205 56h-707q168 -102 265 -274
t104 -373h288q74 0 111 52t57 163h58v-518h-58q-20 109 -57 161t-111 52h-288q-13 -227 -119 -401t-281 -275h750q55 0 92 3q52 4 128 52q36 23 80 92t93 148h49l-71 -387h-1360q-103 -20 -193 -20z" />
    <glyph glyph-name="oe" unicode="&#x153;" horiz-adv-x="2097" 
d="M1841 702q-1 125 -83 205t-220 80t-225 -79q-88 -79 -115 -206h643zM252 571q0 -229 110 -356t294 -127q182 0 273 118t91 294q0 229 -111 356t-293 127t-273 -118t-91 -294zM1567 1092q213 0 329 -119t115 -309v-50h-827q-14 -227 102 -365t316 -138q124 0 206 45
t156 139l51 -19q-47 -131 -160 -214q-113 -82 -285 -82t-293 72q-122 72 -185 192q-74 -125 -200 -195t-274 -69q-236 0 -382 150t-148 394q0 246 167 407t398 161q156 0 275 -70t182 -193q70 123 188 193q119 70 269 70z" />
    <glyph glyph-name="Racute" unicode="&#x154;" horiz-adv-x="1730" 
d="M860 2109h207l-305 -426h-68zM94 1597h717q347 0 474 -134q126 -134 126 -312t-154 -291t-378 -112q111 -33 225 -160l364 -404q96 -106 252 -116v-68h-256q-86 37 -204 166l-396 434q-76 82 -135 109t-139 26h-76v-497q0 -70 34 -107t83 -48t137 -15v-68h-674v68
q88 4 137 15t83 48t34 107v1122q0 70 -34 106t-83 48q-49 11 -137 16v67zM786 1507h-272v-684h272q242 0 341 81t100 253q-1 350 -441 350z" />
    <glyph glyph-name="racute" unicode="&#x155;" horiz-adv-x="917" 
d="M783 1092q56 0 85 -29v-131h-63q-109 0 -179 -45t-175 -174v-525q0 -74 41 -94t174 -35v-59h-545v59q138 18 162 61q12 22 12 56v719l-164 53v41l260 98h70l-10 -294q139 226 229 274q47 25 103 25zM678 1638h207l-305 -426h-68z" />
    <glyph glyph-name="Rcommaaccent" unicode="&#x156;" horiz-adv-x="1730" 
d="M94 1597h717q347 0 474 -134q126 -134 126 -312t-154 -291t-378 -112q111 -33 225 -160l364 -404q96 -106 252 -116v-68h-256q-86 37 -204 166l-396 434q-76 82 -135 109t-139 26h-76v-497q0 -70 34 -107t83 -48t137 -15v-68h-674v68q88 4 137 15t83 48t34 107v1122
q0 70 -34 106t-83 48q-49 11 -137 16v67zM786 1507h-272v-684h272q242 0 341 81t100 253q-1 350 -441 350zM801 -229q0 49 33 82q32 33 94 33t96 -46t35 -128t-57 -151t-191 -73v70q119 12 150 106h-70q-90 23 -90 107z" />
    <glyph glyph-name="rcommaaccent" unicode="&#x157;" horiz-adv-x="917" 
d="M783 1092q56 0 85 -29v-131h-63q-109 0 -179 -45t-175 -174v-525q0 -74 41 -94t174 -35v-59h-545v59q138 18 162 61q12 22 12 56v719l-164 53v41l260 98h70l-10 -294q139 226 229 274q47 25 103 25zM268 -229q0 49 33 82t95 33t96 -46t34 -128t-57 -151t-190 -73v70
q118 12 149 106h-70q-90 23 -90 107z" />
    <glyph glyph-name="Rcaron" unicode="&#x158;" horiz-adv-x="1730" 
d="M94 1597h717q347 0 474 -134q126 -134 126 -312t-154 -291t-378 -112q111 -33 225 -160l364 -404q96 -106 252 -116v-68h-256q-86 37 -204 166l-396 434q-76 82 -135 109t-139 26h-76v-497q0 -70 34 -107t83 -48t137 -15v-68h-674v68q88 4 137 15t83 48t34 107v1122
q0 70 -34 106t-83 48q-49 11 -137 16v67zM786 1507h-272v-684h272q242 0 341 81t100 253q-1 350 -441 350zM788 1683l-303 426h70l291 -274l291 274h69l-303 -426h-115z" />
    <glyph glyph-name="rcaron" unicode="&#x159;" horiz-adv-x="917" 
d="M783 1092q56 0 85 -29v-131h-63q-109 0 -179 -45t-175 -174v-525q0 -74 41 -94t174 -35v-59h-545v59q138 18 162 61q12 22 12 56v719l-164 53v41l260 98h70l-10 -294q139 226 229 274q47 25 103 25zM487 1212l-303 426h70l291 -274l291 274h69l-303 -426h-115z" />
    <glyph glyph-name="Sacute" unicode="&#x15a;" horiz-adv-x="1300" 
d="M764 2109h207l-305 -426h-68zM610 -20q-143 0 -275 36t-206 99l-14 383h55q45 -207 162 -316q117 -108 297 -108t283 84q104 84 104 220t-74 208t-229 129l-232 84q-162 59 -254 152t-92 266t131 287t367 114q293 0 467 -141v-342h-58q-45 213 -144 301q-100 88 -268 88
t-256 -78t-87 -202q0 -124 59 -184t193 -110l258 -96q184 -68 279 -168t95 -270q0 -201 -153 -319q-154 -117 -408 -117z" />
    <glyph glyph-name="sacute" unicode="&#x15b;" horiz-adv-x="1013" 
d="M895 278q1 -134 -109 -216t-314 -82t-345 104l-12 276h61q70 -291 330 -290q114 0 182 48t68 138t-54 132t-163 79l-140 43q-137 40 -201 106t-65 192q0 126 98 205q99 79 273 79t334 -88v-265h-68q-43 262 -289 262q-94 0 -151 -44q-58 -44 -58 -123q0 -78 42 -116
t135 -67l155 -47q150 -45 220 -119q70 -73 71 -207zM600 1638h207l-305 -426h-68z" />
    <glyph glyph-name="Scircumflex" unicode="&#x15c;" horiz-adv-x="1300" 
d="M700 2109l304 -426h-70l-291 275l-291 -275h-69l303 426h114zM610 -20q-143 0 -275 36t-206 99l-14 383h55q45 -207 162 -316q117 -108 297 -108t283 84q104 84 104 220t-74 208t-229 129l-232 84q-162 59 -254 152t-92 266t131 287t367 114q293 0 467 -141v-342h-58
q-45 213 -144 301q-100 88 -268 88t-256 -78t-87 -202q0 -124 59 -184t193 -110l258 -96q184 -68 279 -168t95 -270q0 -201 -153 -319q-154 -117 -408 -117z" />
    <glyph glyph-name="scircumflex" unicode="&#x15d;" horiz-adv-x="1013" 
d="M895 278q1 -134 -109 -216t-314 -82t-345 104l-12 276h61q70 -291 330 -290q114 0 182 48t68 138t-54 132t-163 79l-140 43q-137 40 -201 106t-65 192q0 126 98 205q99 79 273 79t334 -88v-265h-68q-43 262 -289 262q-94 0 -151 -44q-58 -44 -58 -123q0 -78 42 -116
t135 -67l155 -47q150 -45 220 -119q70 -73 71 -207zM553 1638l303 -426h-70l-290 275l-291 -275h-70l303 426h115z" />
    <glyph glyph-name="Scedilla" unicode="&#x15e;" horiz-adv-x="1300" 
d="M1171 402q0 -184 -147 -300q-147 -117 -393 -122l-13 -66q238 -68 238 -219q0 -91 -73 -149t-179 -58t-180 47l16 55q60 -22 138 -22t120 30t43 78q0 100 -198 140l37 164q-137 4 -259 40t-192 95l-14 383h55q45 -207 162 -316q117 -108 297 -108t283 84q104 84 104 220
t-74 208t-229 129l-232 84q-162 59 -254 152t-92 266t131 287t367 114q293 0 467 -141v-342h-58q-45 213 -144 301q-100 88 -268 88t-256 -78t-87 -202q0 -124 59 -184t193 -110l258 -96q184 -68 279 -168t95 -284z" />
    <glyph glyph-name="scedilla" unicode="&#x15f;" horiz-adv-x="1013" 
d="M895 278q0 -134 -109 -216t-288 -82l-13 -66q238 -68 238 -219q0 -91 -73 -149t-179 -58t-180 47l16 55q59 -22 137 -22t122 30q42 30 42 78q0 100 -198 140l36 166q-197 12 -319 102l-12 276h61q70 -291 330 -290q114 0 182 48t68 138t-54 132t-163 79l-140 43
q-137 40 -201 106t-65 192q0 126 98 205q99 79 273 79t334 -88v-265h-68q-43 262 -289 262q-94 0 -151 -44q-58 -44 -58 -123q0 -78 42 -116t135 -67l155 -47q150 -44 220 -118t71 -208z" />
    <glyph glyph-name="Scaron" unicode="&#x160;" horiz-adv-x="1300" 
d="M586 1683l-303 426h69l291 -274l291 274h70l-304 -426h-114zM610 -20q-143 0 -275 36t-206 99l-14 383h55q45 -207 162 -316q117 -108 297 -108t283 84q104 84 104 220t-74 208t-229 129l-232 84q-162 59 -254 152t-92 266t131 287t367 114q293 0 467 -141v-342h-58
q-45 213 -144 301q-100 88 -268 88t-256 -78t-87 -202q0 -124 59 -184t193 -110l258 -96q184 -68 279 -168t95 -270q0 -201 -153 -319q-154 -117 -408 -117z" />
    <glyph glyph-name="scaron" unicode="&#x161;" horiz-adv-x="1013" 
d="M895 278q1 -134 -109 -216t-314 -82t-345 104l-12 276h61q70 -291 330 -290q114 0 182 48t68 138t-54 132t-163 79l-140 43q-137 40 -201 106t-65 192q0 126 98 205q99 79 273 79t334 -88v-265h-68q-43 262 -289 262q-94 0 -151 -44q-58 -44 -58 -123q0 -78 42 -116
t135 -67l155 -47q150 -45 220 -119q70 -73 71 -207zM438 1212l-303 426h70l291 -274l290 274h70l-303 -426h-115z" />
    <glyph glyph-name="Tcommaaccent" unicode="&#x162;" horiz-adv-x="1669" 
d="M1153 1509h-238v-1271q-1 -98 61 -132t195 -38v-68h-675v68q133 6 194 38t62 132v1271h-236q-59 0 -111 -5t-123 -57q-34 -23 -72 -97t-77 -154h-49l35 401h1429l37 -401h-49q-108 222 -148 251q-76 52 -126 57t-109 5zM711 -229q0 49 32 82q33 33 95 33t96 -46
q35 -46 35 -128q1 -82 -57 -151t-191 -73v70q118 12 149 106h-69q-90 23 -90 107z" />
    <glyph glyph-name="tcommaaccent" unicode="&#x163;" horiz-adv-x="815" 
d="M379 1294v-223h330v-88h-330v-678q0 -215 203 -215q80 0 159 37l19 -39q-96 -108 -238 -108t-219 68q-78 68 -78 206v729h-157v47q82 58 140 114t130 150h41zM297 -229q0 49 33 82q32 33 94 33t96 -46t35 -128q0 -82 -57 -151t-191 -73v70q119 12 150 106h-70
q-90 23 -90 107z" />
    <glyph glyph-name="Tcaron" unicode="&#x164;" horiz-adv-x="1669" 
d="M1153 1509h-238v-1271q-1 -98 61 -132t195 -38v-68h-675v68q133 6 194 38t62 132v1271h-236q-59 0 -111 -5t-123 -57q-34 -23 -72 -97t-77 -154h-49l35 401h1429l37 -401h-49q-108 222 -148 251q-76 52 -126 57t-109 5zM772 1683l-303 426h70l290 -274l291 274h70
l-303 -426h-115z" />
    <glyph glyph-name="tcaron" unicode="&#x165;" horiz-adv-x="815" 
d="M379 1294v-223h330v-88h-330v-678q0 -215 203 -215q80 0 159 37l19 -39q-96 -108 -238 -108t-219 68q-78 68 -78 206v729h-157v47q82 58 140 114t130 150h41zM520 1638h154l-115 -426h-65z" />
    <glyph glyph-name="Tbar" unicode="&#x166;" horiz-adv-x="1669" 
d="M1153 1509h-238v-696h357v-96h-357v-479q-1 -98 61 -132t195 -38v-68h-675v68q133 6 194 38t62 132v479h-351v96h351v696h-236q-59 0 -111 -5t-123 -57q-34 -23 -72 -97t-77 -154h-49l35 401h1429l37 -401h-49q-108 222 -148 251q-76 52 -126 57t-109 5z" />
    <glyph glyph-name="tbar" unicode="&#x167;" horiz-adv-x="815" 
d="M68 616v89h157v278h-157v47q82 58 140 114t130 150h45v-223h326v-88h-326v-278h322v-89h-322v-311q0 -215 199 -215q80 0 159 37l19 -39q-96 -108 -238 -108t-219 68q-78 68 -78 206v362h-157z" />
    <glyph glyph-name="Utilde" unicode="&#x168;" horiz-adv-x="1794" 
d="M440 1360v-776q0 -236 124 -361t335 -125q516 0 516 492v770q0 100 -57 132t-187 38v67h603v-67q-130 -6 -190 -38t-60 -132v-817q0 -267 -179 -415t-456 -148t-446 144t-169 423v813q0 70 -34 106t-82 48q-49 11 -138 16v67h674v-67q-88 -4 -137 -16t-83 -48t-34 -106z
M1073 1741q-72 0 -173 61q-101 62 -148 62t-74 -20t-64 -87l-67 8q80 215 254 215q72 0 173 -61t148 -61t74 19t64 87l67 -8q-78 -215 -254 -215z" />
    <glyph glyph-name="utilde" unicode="&#x169;" horiz-adv-x="1372" 
d="M805 1249q-72 1 -173 61q-100 60 -148 60t-74 -19t-64 -87l-67 10q80 215 253 215q72 1 174 -61t148 -62q47 0 74 19t63 88l68 -9q-78 -215 -254 -215zM550 -20q-138 0 -231 82q-92 82 -92 260v579q0 55 -30 73q-31 17 -121 27l-37 3v67l309 21h45l-10 -218v-536
q0 -121 62 -180t169 -60q150 0 340 174v629q0 55 -30 73q-31 17 -121 27l-39 3v67l311 21h45l-10 -218v-663q0 -49 23 -63t106 -25l57 -8v-62l-335 -73h-17l10 206q-86 -94 -176 -150t-228 -56z" />
    <glyph glyph-name="Umacron" unicode="&#x16a;" horiz-adv-x="1794" 
d="M440 1360v-776q0 -236 124 -361t335 -125q516 0 516 492v770q0 100 -57 132t-187 38v67h603v-67q-130 -6 -190 -38t-60 -132v-817q0 -267 -179 -415t-456 -148t-446 144t-169 423v813q0 70 -34 106t-82 48q-49 11 -138 16v67h674v-67q-88 -4 -137 -16t-83 -48t-34 -106z
M666 1802v107h540v-107h-540z" />
    <glyph glyph-name="umacron" unicode="&#x16b;" horiz-adv-x="1372" 
d="M397 1335v107h541v-107h-541zM550 -20q-138 0 -231 82q-92 82 -92 260v579q0 55 -30 73q-31 17 -121 27l-37 3v67l309 21h45l-10 -218v-536q0 -121 62 -180t169 -60q150 0 340 174v629q0 55 -30 73q-31 17 -121 27l-39 3v67l311 21h45l-10 -218v-663q0 -49 23 -63
t106 -25l57 -8v-62l-335 -73h-17l10 206q-86 -94 -176 -150t-228 -56z" />
    <glyph glyph-name="Ubreve" unicode="&#x16c;" horiz-adv-x="1794" 
d="M440 1360v-776q0 -236 124 -361t335 -125q516 0 516 492v770q0 100 -57 132t-187 38v67h603v-67q-130 -6 -190 -38t-60 -132v-817q0 -267 -179 -415t-456 -148t-446 144t-169 423v813q0 70 -34 106t-82 48q-49 11 -138 16v67h674v-67q-88 -4 -137 -16t-83 -48t-34 -106z
M936 1706q-354 0 -354 408h73q15 -152 93 -220t188 -68t188 68q76 68 93 220h73q0 -408 -354 -408z" />
    <glyph glyph-name="ubreve" unicode="&#x16d;" horiz-adv-x="1372" 
d="M668 1231q-354 0 -355 407h74q16 -152 93 -220t188 -66q112 0 188 68t92 218h74q0 -407 -354 -407zM550 -20q-138 0 -231 82q-92 82 -92 260v579q0 55 -30 73q-31 17 -121 27l-37 3v67l309 21h45l-10 -218v-536q0 -121 62 -180t169 -60q150 0 340 174v629q0 55 -30 73
q-31 17 -121 27l-39 3v67l311 21h45l-10 -218v-663q0 -49 23 -63t106 -25l57 -8v-62l-335 -73h-17l10 206q-86 -94 -176 -150t-228 -56z" />
    <glyph glyph-name="Uring" unicode="&#x16e;" horiz-adv-x="1794" 
d="M1067 1896q0 68 -33 110q-32 42 -98 42t-98 -42t-31 -110q0 -68 32 -110q31 -42 97 -41q66 -1 98 41t33 110zM707 1896q0 98 64 166q65 68 165 68t165 -68t65 -166t-66 -166q-64 -68 -164 -67q-100 -1 -164 67t-65 166zM440 1360v-776q0 -236 124 -361t335 -125
q516 0 516 492v770q0 100 -57 132t-187 38v67h603v-67q-130 -6 -190 -38t-60 -132v-817q0 -267 -179 -415t-456 -148t-446 144t-169 423v813q0 70 -34 106t-82 48q-49 11 -138 16v67h674v-67q-88 -4 -137 -16t-83 -48t-34 -106z" />
    <glyph glyph-name="uring" unicode="&#x16f;" horiz-adv-x="1372" 
d="M550 -20q-138 0 -231 82q-92 82 -92 260v579q0 55 -30 73q-31 17 -121 27l-37 3v67l309 21h45l-10 -218v-536q0 -121 62 -180t169 -60q150 0 340 174v629q0 55 -30 73q-31 17 -121 27l-39 3v67l311 21h45l-10 -218v-663q0 -49 23 -63t106 -25l57 -8v-62l-335 -73h-17
l10 206q-86 -94 -176 -150t-228 -56zM799 1419q0 68 -33 111t-97 43q-63 0 -97 -43t-34 -111q0 -67 34 -109q32 -42 97 -42t97 42t33 109zM438 1419q0 98 65 166t165 68t165 -68t65 -166t-66 -166q-64 -67 -164 -67t-165 68t-65 165z" />
    <glyph glyph-name="Uhungarumlaut" unicode="&#x170;" horiz-adv-x="1794" 
d="M1194 2109h186l-250 -426h-73zM885 2109h186l-250 -426h-73zM440 1360v-776q0 -236 124 -361t335 -125q516 0 516 492v770q0 100 -57 132t-187 38v67h603v-67q-130 -6 -190 -38t-60 -132v-817q0 -267 -179 -415t-456 -148t-446 144t-169 423v813q0 70 -34 106t-82 48
q-49 11 -138 16v67h674v-67q-88 -4 -137 -16t-83 -48t-34 -106z" />
    <glyph glyph-name="uhungarumlaut" unicode="&#x171;" horiz-adv-x="1372" 
d="M897 1638h186l-249 -426h-74zM588 1638h186l-250 -426h-73zM550 -20q-138 0 -231 82q-92 82 -92 260v579q0 55 -30 73q-31 17 -121 27l-37 3v67l309 21h45l-10 -218v-536q0 -121 62 -180t169 -60q150 0 340 174v629q0 55 -30 73q-31 17 -121 27l-39 3v67l311 21h45
l-10 -218v-663q0 -49 23 -63t106 -25l57 -8v-62l-335 -73h-17l10 206q-86 -94 -176 -150t-228 -56z" />
    <glyph glyph-name="Uogonek" unicode="&#x172;" horiz-adv-x="1794" 
d="M440 1360v-776q0 -236 124 -361t335 -125q516 0 516 492v770q0 100 -57 132t-187 38v67h603v-67q-130 -6 -190 -38t-60 -132v-817q0 -221 -127 -363t-332 -184q-95 -37 -157 -104q-62 -66 -62 -146t44 -121t114 -41t139 31l22 -45q-81 -82 -197 -82t-183 57t-66 172
q0 162 162 263q-281 4 -444 148t-163 419v813q0 70 -34 106t-82 48q-49 11 -138 16v67h674v-67q-88 -4 -137 -16t-83 -48t-34 -106z" />
    <glyph glyph-name="uogonek" unicode="&#x173;" horiz-adv-x="1372" 
d="M550 -20q-138 0 -231 82q-92 82 -92 260v579q0 55 -30 73q-31 17 -121 27l-37 3v67l309 21h45l-10 -218v-536q0 -121 62 -180t169 -60q150 0 340 174v629q0 55 -30 73q-31 17 -121 27l-39 3v67l311 21h45l-10 -218v-663q0 -49 23 -63t106 -25l57 -8v-62
q-122 -39 -188 -123t-66 -194q0 -70 44 -111t114 -41t139 31l23 -45q-82 -82 -198 -82t-182 57q-67 57 -67 163q1 106 59 186t161 122l-174 -36h-17l10 206q-86 -94 -176 -150t-228 -56z" />
    <glyph glyph-name="Wcircumflex" unicode="&#x174;" horiz-adv-x="2351" 
d="M1214 2109l304 -426h-70l-291 275l-291 -275h-69l303 426h114zM1825 1597h506v-67q-41 -6 -64 -12q-62 -16 -80 -72l-532 -1471h-41l-426 1061l-424 -1061h-41l-559 1471q-16 41 -50 57t-94 27v67h566v-67q-129 -4 -180 -26t-52 -72q0 -23 27 -97l405 -1067l349 883
l-113 295q-25 66 -141 84v67h563v-67q-129 -4 -180 -26t-52 -72q0 -27 27 -99l420 -1067l373 1065q27 80 26 99q0 52 -53 74t-180 26v67z" />
    <glyph glyph-name="wcircumflex" unicode="&#x175;" horiz-adv-x="1753" 
d="M1497 947q0 26 -33 39t-123 26v59h392v-59q-75 -25 -95 -37t-32 -45l-381 -955h-27l-315 742l-301 -742h-27l-408 955q-14 33 -31 44t-96 38v59h461v-59q-141 -21 -157 -46q-15 -26 16 -102l262 -626l229 581l-43 111q-14 33 -31 44t-98 38v59h463v-59q-94 -14 -127 -26
q-56 -21 -14 -122l260 -622l236 622q20 57 20 83zM944 1638l303 -426h-69l-291 275l-291 -275h-70l303 426h115z" />
    <glyph glyph-name="Ycircumflex" unicode="&#x176;" horiz-adv-x="1507" 
d="M844 2109l303 -426h-70l-291 275l-290 -275h-70l303 426h115zM1198 1442q0 46 -44 64q-44 19 -173 24v67h506v-67q-100 -16 -144 -84l-503 -772v-436q0 -100 57 -132t188 -38v-68h-653v68q131 6 189 37q57 32 57 133v428l-514 780q-43 68 -144 84v67h574v-67
q-127 -4 -173 -24t-46 -63q0 -42 28 -89l390 -588l370 577q35 53 35 99z" />
    <glyph glyph-name="ycircumflex" unicode="&#x177;" horiz-adv-x="1206" 
d="M653 1638l303 -426h-69l-291 275l-291 -275h-69l303 426h114zM20 1071h461v-59q-90 -12 -123 -26q-56 -23 -18 -103l315 -711l275 711q14 37 14 63t-33 40q-33 13 -123 26v59h398v-59q-78 -29 -97 -42t-34 -48l-475 -1186q-57 -142 -127 -196q-71 -54 -139 -54
q-133 0 -164 72v90h129q86 0 139 35t88 127l74 188l-428 924q-16 35 -34 48t-98 42v59z" />
    <glyph glyph-name="Ydieresis" unicode="&#x178;" horiz-adv-x="1507" 
d="M868 1862q0 47 34 82q34 34 81 34t82 -34t35 -82q0 -47 -35 -81t-82 -34t-81 34t-34 81zM461 1862q0 47 34 82q35 34 81 34t81 -34t35 -82q0 -47 -35 -81t-82 -34t-81 34t-33 81zM1198 1442q0 46 -44 64q-44 19 -173 24v67h506v-67q-100 -16 -144 -84l-503 -772v-436
q0 -100 57 -132t188 -38v-68h-653v68q131 6 189 37q57 32 57 133v428l-514 780q-43 68 -144 84v67h574v-67q-127 -4 -173 -24t-46 -63q0 -42 28 -89l390 -588l370 577q35 53 35 99z" />
    <glyph glyph-name="Zacute" unicode="&#x179;" horiz-adv-x="1521" 
d="M885 2109h207l-306 -426h-67zM993 90q90 0 127 18q36 18 56 27q20 8 46 39t43 50t46 76q28 56 59 116h53l-73 -416h-1276v39l1089 1468h-637q-135 0 -193 -56t-147 -259h-45l6 405h1246v-41l-1086 -1466h686z" />
    <glyph glyph-name="zacute" unicode="&#x17a;" horiz-adv-x="1075" 
d="M92 0v35l662 952h-357q-86 0 -135 -44t-80 -169h-67l28 348h68l25 -51h722v-37l-649 -950h369q195 0 244 240h61l-27 -324h-864zM686 1638h207l-305 -426h-68z" />
    <glyph glyph-name="Zdotaccent" unicode="&#x17b;" horiz-adv-x="1521" 
d="M993 90q90 0 127 18q36 18 56 27q20 8 46 39t43 50t46 76q28 56 59 116h53l-73 -416h-1276v39l1089 1468h-637q-135 0 -193 -56t-147 -259h-45l6 405h1246v-41l-1086 -1466h686zM645 1862q0 51 34 86q34 34 85 34t86 -34t35 -86q0 -51 -35 -85t-86 -34t-85 34t-34 85z
" />
    <glyph glyph-name="zdotaccent" unicode="&#x17c;" horiz-adv-x="1075" 
d="M436 1419q0 51 34 86t85 35t86 -35t35 -86t-35 -85t-86 -34t-85 34t-34 85zM92 0v35l662 952h-357q-86 0 -135 -44t-80 -169h-67l28 348h68l25 -51h722v-37l-649 -950h369q195 0 244 240h61l-27 -324h-864z" />
    <glyph glyph-name="Zcaron" unicode="&#x17d;" horiz-adv-x="1521" 
d="M993 90q90 0 127 18q36 18 56 27q20 8 46 39t43 50t46 76q28 56 59 116h53l-73 -416h-1276v39l1089 1468h-637q-135 0 -193 -56t-147 -259h-45l6 405h1246v-41l-1086 -1466h686zM707 1683l-304 426h70l291 -274l291 274h69l-303 -426h-114z" />
    <glyph glyph-name="zcaron" unicode="&#x17e;" horiz-adv-x="1075" 
d="M92 0v35l662 952h-357q-86 0 -135 -44t-80 -169h-67l28 348h68l25 -51h722v-37l-649 -950h369q195 0 244 240h61l-27 -324h-864zM498 1212l-303 426h69l291 -274l291 274h69l-303 -426h-114z" />
    <glyph glyph-name="florin" unicode="&#x192;" horiz-adv-x="1013" 
d="M745 1290q119 0 184 -42t64 -118q1 -40 -21 -70t-44 -40h-127q6 27 6 57q0 119 -117 119q-164 0 -188 -303l-15 -154h328l-8 -77h-330l-78 -879h-166l82 879h-231l8 77h232l14 150q39 401 407 401z" />
    <glyph glyph-name="Scommaaccent" unicode="&#x218;" horiz-adv-x="1300" 
d="M610 -20q-143 0 -275 36t-206 99l-14 383h55q45 -207 162 -316q117 -108 297 -108t283 84q104 84 104 220t-74 208t-229 129l-232 84q-162 59 -254 152t-92 266t131 287t367 114q293 0 467 -141v-342h-58q-45 213 -144 301q-100 88 -268 88t-256 -78t-87 -202
q0 -124 59 -184t193 -110l258 -96q184 -68 279 -168t95 -270q0 -201 -153 -319q-154 -117 -408 -117zM494 -229q0 49 32 82t94 33t97 -46t35 -128t-58 -151t-190 -73v70q118 12 149 106h-69q-90 23 -90 107z" />
    <glyph glyph-name="scommaaccent" unicode="&#x219;" horiz-adv-x="1013" 
d="M895 278q1 -134 -109 -216t-314 -82t-345 104l-12 276h61q70 -291 330 -290q114 0 182 48t68 138t-54 132t-163 79l-140 43q-137 40 -201 106t-65 192q0 126 98 205q99 79 273 79t334 -88v-265h-68q-43 262 -289 262q-94 0 -151 -44q-58 -44 -58 -123q0 -78 42 -116
t135 -67l155 -47q150 -45 220 -119q70 -73 71 -207zM373 -229q0 49 33 82q32 33 94 33t96 -46t35 -128t-57 -151t-191 -73v70q118 12 149 106h-69q-90 23 -90 107z" />
    <glyph glyph-name="dotlessj" unicode="&#x237;" horiz-adv-x="571" 
d="M391 100q0 -131 -6 -184t-33 -115q-43 -102 -254 -313l-43 39l103 162q47 73 62 159t16 220v827l-164 53v41l260 98h69l-10 -219v-768z" />
    <glyph glyph-name="circumflex" unicode="&#x2c6;" horiz-adv-x="1228" 
d="M672 1638l303 -426h-70l-291 275l-290 -275h-70l303 426h115z" />
    <glyph glyph-name="caron" unicode="&#x2c7;" horiz-adv-x="1228" 
d="M557 1212l-303 426h70l290 -274l291 274h70l-303 -426h-115z" />
    <glyph glyph-name="breve" unicode="&#x2d8;" horiz-adv-x="1228" 
d="M614 1231q-354 0 -354 407h74q16 -152 93 -220t187 -66q110 0 188 68q77 68 93 218h74q-1 -407 -355 -407z" />
    <glyph glyph-name="dotaccent" unicode="&#x2d9;" horiz-adv-x="1228" 
d="M494 1419q0 51 33 86q34 35 85 35t86 -35t35 -86t-35 -85t-86 -34t-85 34q-33 34 -33 85z" />
    <glyph glyph-name="ring" unicode="&#x2da;" horiz-adv-x="1228" 
d="M745 1419q0 68 -32 111q-33 43 -97 43t-98 -43q-33 -43 -33 -111q0 -67 33 -109q34 -42 98 -42t96 42t33 109zM385 1419q0 98 65 166q64 68 164 68t165 -68t65 -166t-65 -166q-65 -67 -165 -67t-164 68t-65 165z" />
    <glyph glyph-name="ogonek" unicode="&#x2db;" horiz-adv-x="1228" 
d="M518 -264q0 -70 44 -111t114 -41t139 31l23 -45q-82 -82 -198 -82t-182 57q-67 57 -67 172q1 234 359 336l30 -53q-262 -80 -262 -264z" />
    <glyph glyph-name="tilde" unicode="&#x2dc;" horiz-adv-x="1228" 
d="M750 1249q-72 1 -173 61t-149 60t-74 -19q-27 -19 -63 -87l-68 10q80 215 254 215q72 1 173 -61q100 -62 148 -62t74 19t64 88l68 -9q-78 -215 -254 -215z" />
    <glyph glyph-name="hungarumlaut" unicode="&#x2dd;" horiz-adv-x="1228" 
d="M743 1638h187l-250 -426h-74zM434 1638h187l-250 -426h-74z" />
    <glyph glyph-name="uni0300" unicode="&#x300;" horiz-adv-x="1228" 
d="M403 2109h250l172 -426h-92z" />
    <glyph glyph-name="uni0301" unicode="&#x301;" horiz-adv-x="1228" 
d="M575 2109h250l-329 -426h-93z" />
    <glyph glyph-name="uni0302" unicode="&#x302;" horiz-adv-x="1228" 
d="M684 2109l307 -426h-94l-283 254l-282 -254h-94l307 426h139z" />
    <glyph glyph-name="uni0303" unicode="&#x303;" horiz-adv-x="1228" 
d="M748 1759q-70 1 -171 61t-147 60t-74 -22q-29 -22 -63 -86l-80 12q43 129 108 190q129 122 329 1q100 -60 146 -60q46 -1 74 21t64 87l80 -12q-84 -252 -266 -252z" />
    <glyph glyph-name="uni0304" unicode="&#x304;" horiz-adv-x="1228" 
d="M336 1831v131h557v-131h-557z" />
    <glyph glyph-name="uni0305" unicode="&#x305;" horiz-adv-x="1228" 
d="M614 1704q-192 0 -278 102t-86 303h90q28 -266 274 -266t275 266h90q0 -201 -86 -303t-279 -102z" />
    <glyph glyph-name="uni0306" unicode="&#x306;" horiz-adv-x="1228" 
d="M614 2089q193 0 279 -102t86 -304h-90q-29 267 -275 267t-274 -267h-90q0 201 86 303t278 103z" />
    <glyph glyph-name="uni0307" unicode="&#x307;" horiz-adv-x="1228" 
d="M471 1896q0 60 42 102t101 42q60 0 102 -42t42 -102t-42 -101q-42 -42 -102 -42t-101 42q-42 42 -42 101z" />
    <glyph glyph-name="uni0308" unicode="&#x308;" horiz-adv-x="1228" 
d="M676 1896q0 60 42 102t101 42t101 -42t43 -102q0 -60 -42 -101q-41 -42 -101 -42t-102 42t-42 101zM266 1896q0 60 42 102t102 42t101 -42q42 -42 42 -102t-42 -101q-42 -42 -101 -42t-102 42q-42 42 -42 101z" />
    <glyph glyph-name="uni0309" unicode="&#x309;" horiz-adv-x="1228" 
d="M739 1896q0 61 -31 101q-32 39 -94 39t-93 -39q-32 -39 -32 -101t32 -100q32 -39 93 -39t94 39q31 39 31 100zM381 1896q0 98 65 166q66 68 168 68t168 -68t66 -166t-66 -166t-168 -67q-102 -1 -168 67t-65 166z" />
    <glyph glyph-name="uni030A" unicode="&#x30a;" horiz-adv-x="1228" 
d="M741 2109h209l-254 -426h-92zM414 2109h209l-254 -426h-93z" />
    <glyph glyph-name="uni030B" unicode="&#x30b;" horiz-adv-x="1228" 
d="M276 2109h209l138 -426h-93zM604 2109h209l137 -426h-92z" />
    <glyph glyph-name="uni030C" unicode="&#x30c;" horiz-adv-x="1228" 
d="M545 1683l-307 426h94l282 -254l283 254h94l-307 -426h-139z" />
    <glyph glyph-name="uni0312" unicode="&#x312;" horiz-adv-x="1228" 
d="M743 1339q-1 -49 -33 -82t-94 -33t-96 46q-35 46 -35 128q-1 82 57 151t191 73v-70q-118 -12 -149 -106h69q90 -23 90 -107z" />
    <glyph glyph-name="enspace" unicode="&#x2002;" horiz-adv-x="1024" 
 />
    <glyph glyph-name="emspace" unicode="&#x2003;" horiz-adv-x="2048" 
 />
    <glyph glyph-name="threeperemspace" unicode="&#x2004;" horiz-adv-x="681" 
 />
    <glyph glyph-name="fourperemspace" unicode="&#x2005;" horiz-adv-x="512" 
 />
    <glyph glyph-name="sixperemspace" unicode="&#x2006;" horiz-adv-x="342" 
 />
    <glyph glyph-name="figurespace" unicode="&#x2007;" 
 />
    <glyph glyph-name="punctuationspace" unicode="&#x2008;" horiz-adv-x="573" 
 />
    <glyph glyph-name="thinspace" unicode="&#x2009;" horiz-adv-x="409" 
 />
    <glyph glyph-name="hairspace" unicode="&#x200a;" horiz-adv-x="204" 
 />
    <glyph glyph-name="zerowidthspace" unicode="&#x200b;" horiz-adv-x="0" 
 />
    <glyph glyph-name="figuredash" unicode="&#x2012;" 
d="M1331 752v-119h-1229v119h1229z" />
    <glyph glyph-name="endash" unicode="&#x2013;" horiz-adv-x="1024" 
d="M922 633h-820v119h820v-119z" />
    <glyph glyph-name="emdash" unicode="&#x2014;" horiz-adv-x="2048" 
d="M1946 633h-1844v119h1844v-119z" />
    <glyph glyph-name="uni2015" unicode="&#x2015;" horiz-adv-x="2867" 
d="M2765 752v-119h-2663v119h2663z" />
    <glyph glyph-name="doublebar" unicode="&#x2016;" horiz-adv-x="788" 
d="M584 1700v-1948h-111v1948h111zM315 1700v-1948h-110v1948h110z" />
    <glyph glyph-name="quoteleft" unicode="&#x2018;" horiz-adv-x="514" 
d="M190 1364h76q92 -25 92 -121q0 -55 -36 -89t-103 -34t-105 58t-38 137q0 127 88 232t260 122v-72q-234 -55 -234 -233z" />
    <glyph glyph-name="quoteright" unicode="&#x2019;" horiz-adv-x="514" 
d="M324 1407h-76q-92 25 -92 121q0 55 37 89t103 34q66 1 104 -57t38 -138q0 -127 -88 -232t-260 -122v72q234 55 234 233z" />
    <glyph glyph-name="quotesinglbase" unicode="&#x201a;" horiz-adv-x="514" 
d="M324 4h-76q-92 25 -92 121q0 55 37 89t103 34t104 -58t38 -137q0 -127 -88 -232t-260 -122v72q234 55 234 233z" />
    <glyph glyph-name="reversequoteleft" unicode="&#x201b;" horiz-adv-x="514" 
d="M190 1407q0 -178 234 -233v-72q-172 16 -260 122t-88 232q0 80 39 137t104 57t103 -33q38 -34 36 -89q0 -96 -92 -121h-76z" />
    <glyph glyph-name="quotedblleft" unicode="&#x201c;" horiz-adv-x="935" 
d="M612 1364h76q92 -25 92 -121q0 -55 -37 -89t-103 -34t-104 58t-38 137q0 127 88 232t260 122v-72q-234 -55 -234 -233zM190 1364h76q92 -25 92 -121q0 -55 -36 -89t-103 -34t-105 58t-38 137q0 127 88 232t260 122v-72q-234 -55 -234 -233z" />
    <glyph glyph-name="quotedblright" unicode="&#x201d;" horiz-adv-x="935" 
d="M324 1409h-76q-92 25 -92 121q0 55 37 89t103 34q66 -1 104 -59t38 -136q0 -127 -88 -232t-260 -122v72q234 55 234 233zM745 1409h-75q-92 25 -92 121q0 55 36 89q37 34 103 34q67 -1 105 -59t38 -136q0 -127 -88 -232t-260 -122v72q233 55 233 233z" />
    <glyph glyph-name="quotedblbase" unicode="&#x201e;" horiz-adv-x="935" 
d="M324 4h-76q-92 25 -92 121q0 55 37 89t103 34t104 -58t38 -137q0 -127 -88 -232t-260 -122v72q234 55 234 233zM745 4h-75q-92 25 -92 121q0 55 36 89q37 34 103 34q67 0 105 -58t38 -137q0 -127 -88 -232t-260 -122v72q233 55 233 233z" />
    <glyph glyph-name="reversequotedblleft" unicode="&#x201f;" horiz-adv-x="935" 
d="M612 1409q0 -178 234 -233v-72q-172 16 -260 122t-88 232q0 78 39 136t104 58t102 -33q37 -34 37 -89q0 -96 -92 -121h-76zM190 1409q0 -178 234 -233v-72q-172 16 -260 122t-88 232q0 78 39 136t104 58t103 -33q38 -34 36 -89q0 -96 -92 -121h-76z" />
    <glyph glyph-name="dagger" unicode="&#x2020;" horiz-adv-x="1406" 
d="M627 1597h153l21 -47l-72 -526l524 70l52 -21v-145l-52 -21l-524 70l72 -459l-66 -1030h-63l-66 1030l72 459l-524 -70l-52 21v145l52 21l524 -70l-72 526z" />
    <glyph glyph-name="daggerdbl" unicode="&#x2021;" horiz-adv-x="1406" 
d="M608 551l70 426l-524 -70l-52 21v145l52 21l524 -70l-72 526l21 47h153l21 -47l-72 -526l524 70l52 -21v-145l-52 -21l-524 70l74 -426l-74 -422l524 70l52 -21v-145l-52 -21l-524 70l72 -526l-21 -48h-153l-21 48l72 526l-524 -70l-52 21v145l52 21l524 -70z" />
    <glyph glyph-name="bullet" unicode="&#x2022;" horiz-adv-x="788" 
d="M182 682q0 88 62 150t149 63q89 0 151 -62q62 -63 62 -151t-62 -150t-150 -61q-88 -1 -150 61t-62 150z" />
    <glyph glyph-name="ellipsis" unicode="&#x2026;" horiz-adv-x="2048" 
d="M1589 109q0 53 38 92t91 39t92 -39t39 -92t-39 -91t-92 -38t-91 38t-38 91zM893 109q0 53 38 92t91 39t92 -39t39 -92t-39 -91t-92 -38t-91 38t-38 91zM199 109q0 53 38 92t91 39t92 -39t39 -92t-39 -91t-92 -38t-91 38t-38 91z" />
    <glyph glyph-name="perthousand" unicode="&#x2030;" horiz-adv-x="3014" 
d="M2302 403q0 -338 231 -337q231 0 231 338t-230 337q-232 0 -232 -338zM2912 403q0 -207 -103 -315t-275 -108t-276 108t-104 316q0 206 104 315t275 109q172 0 276 -109q103 -109 103 -316zM1427 403q0 -338 232 -337q231 0 231 338t-232 337q-232 0 -231 -338zM578 0
l870 1366h115l-871 -1366h-114zM2038 403q0 -207 -104 -315t-275 -108q-172 0 -276 108q-103 110 -103 316t103 315t275 109t276 -110q104 -108 104 -315zM713 963q0 338 -232 337q-231 0 -231 -338t232 -337q232 0 231 338zM102 963q0 207 104 315t275 108q172 0 276 -108
q103 -110 103 -316t-103 -315t-275 -109t-276 110q-104 108 -104 315z" />
    <glyph glyph-name="minute" unicode="&#x2032;" horiz-adv-x="339" 
d="M143 1597h152l-94 -512h-58v512z" />
    <glyph glyph-name="second" unicode="&#x2033;" horiz-adv-x="634" 
d="M438 1597h152l-94 -512h-58v512zM143 1597h152l-94 -512h-58v512z" />
    <glyph glyph-name="tripleprime" unicode="&#x2034;" horiz-adv-x="993" 
d="M852 1073h-88l-53 524h194zM541 1073h-88l-54 524h195zM229 1073h-88l-53 524h195z" />
    <glyph glyph-name="guilsinglleft" unicode="&#x2039;" horiz-adv-x="616" 
d="M84 551v20l346 390h76l-262 -400l262 -399h-76z" />
    <glyph glyph-name="guilsinglright" unicode="&#x203a;" horiz-adv-x="616" 
d="M532 571v-20l-346 -389h-75l262 399l-262 400h75z" />
    <glyph glyph-name="fraction" unicode="&#x2044;" horiz-adv-x="579" 
d="M-303 0l1069 1597h117l-1069 -1597h-117z" />
    <glyph glyph-name="uni2070" unicode="&#x2070;" horiz-adv-x="907" 
d="M823 1102q0 -238 -93 -373t-275 -135t-276 135q-93 135 -93 373t93 373t275 135t276 -135q93 -135 93 -373zM454 1538q-132 0 -174 -130q-36 -106 -36 -307q0 -200 29 -285t71 -118q42 -32 111 -32t111 32q78 59 92 232q7 70 8 172q0 328 -101 403q-43 33 -111 33z" />
    <glyph glyph-name="uni2074" unicode="&#x2074;" horiz-adv-x="905" 
d="M705 606h-146v258h-526v62l600 671h72v-651h157v-82h-157v-258zM559 946v445l-401 -445h401z" />
    <glyph glyph-name="uni2075" unicode="&#x2075;" horiz-adv-x="894" 
d="M428 659q203 0 203 213q0 139 -121 209t-320 70l76 446h309q53 1 73 11t50 55h64l-57 -201h-390l-32 -196q215 -10 344 -100t129 -244q0 -152 -98 -240t-248 -88t-232 60t-82 138t58 111h86v-55q0 -189 188 -189z" />
    <glyph glyph-name="uni2076" unicode="&#x2076;" horiz-adv-x="870" 
d="M430 1149q-111 0 -190 -64q-4 -25 -4 -79q0 -158 61 -248t161 -90t155 60t55 172t-64 180t-174 69zM492 1243q138 0 225 -80q86 -79 86 -227q1 -148 -101 -245t-262 -97t-257 118t-97 296q0 219 150 383t413 215l31 -58q-197 -57 -296 -156t-132 -247q102 98 240 98z" />
    <glyph glyph-name="uni2077" unicode="&#x2077;" horiz-adv-x="866" 
d="M246 1462q-45 0 -69 -30t-52 -105h-53l45 270h676v-41l-402 -950h-153l452 856h-444z" />
    <glyph glyph-name="uni2078" unicode="&#x2078;" horiz-adv-x="870" 
d="M623 1377q1 73 -53 115t-140 42t-134 -39t-48 -105t34 -105q34 -38 105 -71l107 -49q72 41 100 90t29 122zM211 864q0 -94 61 -145q62 -51 162 -51t160 48q59 48 59 121q-1 73 -35 113t-112 74l-148 63q-147 -76 -147 -223zM748 1372q0 -78 -64 -144t-143 -87l51 -23
q195 -84 194 -248q0 -120 -89 -198t-255 -78t-263 73t-97 176t61 172t160 97q-95 48 -140 100q-44 53 -44 153q0 101 84 173t228 72q145 0 231 -64t86 -174z" />
    <glyph glyph-name="uni2079" unicode="&#x2079;" horiz-adv-x="870" 
d="M440 1051q111 0 191 63q4 25 4 80q1 158 -61 248t-162 90t-154 -60t-55 -172q0 -112 63 -180t174 -69zM68 1264q0 148 101 244t261 98q160 0 257 -118t97 -296q0 -219 -150 -383t-413 -215l-31 57q197 57 296 157t132 247q-102 -99 -240 -99t-224 80t-86 228z" />
    <glyph glyph-name="uni207A" unicode="&#x207a;" horiz-adv-x="897" 
d="M403 719v309h-301v80h301v305h91v-305h301v-80h-301v-309h-91z" />
    <glyph glyph-name="uni207B" unicode="&#x207b;" horiz-adv-x="897" 
d="M795 1028h-693v80h693v-80z" />
    <glyph glyph-name="uni207C" unicode="&#x207c;" horiz-adv-x="897" 
d="M795 1118h-693v80h693v-80zM795 936h-693v82h693v-82z" />
    <glyph glyph-name="uni207D" unicode="&#x207d;" horiz-adv-x="499" 
d="M82 1081q0 354 297 613l53 -49q-120 -121 -188 -254t-68 -309t68 -310q68 -133 188 -254l-53 -49q-297 258 -297 612z" />
    <glyph glyph-name="uni207E" unicode="&#x207e;" horiz-adv-x="493" 
d="M412 1081q0 -356 -291 -612l-53 49q119 121 184 254q66 133 65 309q1 175 -65 309t-184 255l53 49q291 -257 291 -613z" />
    <glyph glyph-name="n.superior" unicode="&#x207f;" horiz-adv-x="1013" 
d="M711 858v375q0 75 -36 105t-110 30q-123 0 -231 -86v-424q0 -31 17 -48q17 -18 35 -22t60 -10v-57h-368v57q41 6 59 10q19 4 35 22t16 48v471l-104 51v33l207 74h51l-8 -139q53 55 131 96t156 41q236 0 235 -234v-393q0 -57 52 -70q19 -4 61 -10v-57h-369v57q41 6 59 10
t35 22t17 48z" />
    <glyph glyph-name="uni2080" unicode="&#x2080;" horiz-adv-x="907" 
d="M823 496q0 -238 -93 -373t-275 -135t-276 135q-93 135 -93 373t93 372t275 136q182 0 276 -135q93 -135 93 -373zM455 59q180 0 203 265q7 70 8 172q0 328 -101 403q-43 33 -111 33q-132 0 -174 -130q-36 -106 -36 -257t7 -221q17 -174 93 -232q43 -33 111 -33z" />
    <glyph glyph-name="uni2081" unicode="&#x2081;" horiz-adv-x="841" 
d="M489 1004v-844q1 -60 57 -76t195 -25v-59h-647v59q206 11 240 51q16 19 16 50v620h-256v47l51 7q193 29 316 170h28z" />
    <glyph glyph-name="uni2082" unicode="&#x2082;" horiz-adv-x="849" 
d="M485 123q96 0 137 24q40 25 91 121h41l-37 -268h-668v37l262 268q145 149 193 223t49 163q0 89 -54 139t-129 50t-124 -22q-49 -23 -74 -43t-70 -63l-30 34q49 94 133 156q83 62 211 62t206 -77t76 -209q0 -132 -143 -283q-67 -71 -177 -172t-151 -140h258z" />
    <glyph glyph-name="uni2083" unicode="&#x2083;" horiz-adv-x="886" 
d="M772 256q0 -125 -101 -197q-101 -71 -249 -71t-235 62t-87 140t60 107h84v-49q0 -90 49 -142t145 -51q190 0 191 195q0 221 -275 221h-61v45q143 49 216 101t73 137q0 141 -166 141q-121 0 -244 -127l-33 35q106 201 318 201q125 0 193 -62t69 -154q0 -92 -76 -148
t-158 -89q131 -14 209 -92t78 -203z" />
    <glyph glyph-name="uni2084" unicode="&#x2084;" horiz-adv-x="905" 
d="M705 0h-146v258h-526v61l600 672h72v-651h157v-82h-157v-258zM559 340v444l-401 -444h401z" />
    <glyph glyph-name="uni2085" unicode="&#x2085;" horiz-adv-x="894" 
d="M428 53q203 0 203 213q0 139 -121 209t-320 70l76 446h309q53 0 73 10q19 10 50 56h64l-57 -201h-390l-32 -197q215 -10 344 -100q129 -91 129 -243t-98 -240t-248 -88t-232 60t-82 138t58 111h86v-55q0 -189 188 -189z" />
    <glyph glyph-name="uni2086" unicode="&#x2086;" horiz-adv-x="870" 
d="M430 543q-111 0 -190 -64q-4 -25 -4 -80q0 -157 61 -247t161 -90t155 60t55 172t-64 180t-174 69zM492 637q138 0 225 -80q86 -79 86 -227q1 -148 -101 -245t-262 -97t-257 118t-97 295q0 219 150 383t413 215l31 -57q-197 -56 -296 -156t-132 -247q102 98 240 98z" />
    <glyph glyph-name="uni2087" unicode="&#x2087;" horiz-adv-x="866" 
d="M246 856q-45 0 -69 -31t-52 -104h-53l45 270h676v-41l-402 -950h-153l452 856h-444z" />
    <glyph glyph-name="uni2088" unicode="&#x2088;" horiz-adv-x="870" 
d="M623 771q1 73 -53 115t-140 42t-134 -39t-48 -105t34 -105q34 -38 105 -71l107 -49q72 41 100 90t29 122zM211 258q0 -94 61 -145q62 -51 162 -51t160 48t59 121t-35 113t-112 74l-148 63q-147 -76 -147 -223zM748 766q0 -78 -64 -144t-143 -87l51 -23q195 -84 194 -248
q0 -120 -89 -198t-255 -78t-263 72t-97 176t61 173t160 97q-95 48 -140 100q-44 53 -44 153q0 101 84 173t228 72q145 0 231 -64t86 -174z" />
    <glyph glyph-name="uni2089" unicode="&#x2089;" horiz-adv-x="870" 
d="M440 444q111 0 191 64q4 25 4 80q1 158 -61 248t-162 90t-154 -60t-55 -173q0 -113 63 -181t174 -68zM68 658q0 148 101 244q101 97 261 97q160 1 257 -117t97 -296q0 -219 -150 -383t-413 -215l-31 57q197 57 296 157t132 247q-102 -99 -240 -99t-224 80t-86 228z" />
    <glyph glyph-name="uni208A" unicode="&#x208a;" horiz-adv-x="897" 
d="M403 113v309h-301v80h301v305h91v-305h301v-80h-301v-309h-91z" />
    <glyph glyph-name="uni208B" unicode="&#x208b;" horiz-adv-x="897" 
d="M795 422h-693v80h693v-80z" />
    <glyph glyph-name="uni208C" unicode="&#x208c;" horiz-adv-x="897" 
d="M795 512h-693v80h693v-80zM795 330h-693v82h693v-82z" />
    <glyph glyph-name="uni208D" unicode="&#x208d;" horiz-adv-x="499" 
d="M82 475q0 354 297 612l53 -49q-120 -121 -188 -254t-68 -309t68 -309t188 -254l-53 -49q-297 258 -297 612z" />
    <glyph glyph-name="uni208E" unicode="&#x208e;" horiz-adv-x="493" 
d="M412 475q0 -356 -291 -612l-53 49q119 121 184 254q66 133 65 309q0 176 -65 309q-66 133 -184 254l53 49q291 -256 291 -612z" />
    <glyph glyph-name="Euro" unicode="&#x20ac;" horiz-adv-x="1372" 
d="M90 719v88h170q47 221 201 352t380 131t380 -123l8 -270h-62q-47 163 -130 231t-239 68t-250 -110q-95 -110 -122 -279h575l-24 -88h-559v-39q0 -61 6 -119h510l-27 -88h-471q33 -180 133 -290q101 -109 269 -109t248 72t137 241h59l-31 -305q-201 -102 -431 -102
t-378 137q-147 137 -186 356h-166v88h154q-2 21 -2 59t4 99h-156z" />
    <glyph glyph-name="afii61289" unicode="&#x2113;" horiz-adv-x="755" 
d="M301 1155v-448q102 113 173 277t71 325q0 160 -107 159q-137 0 -137 -313zM166 1135q0 453 270 452q109 0 167 -74t59 -215q0 -212 -110 -420t-251 -339v-263q0 -96 35 -134t114 -38t136 23l16 -125q-59 -22 -145 -22q-287 0 -287 247v226q-23 -18 -115 -82v129
q10 5 111 82v553z" />
    <glyph glyph-name="afii61352" unicode="&#x2116;" horiz-adv-x="3033" 
d="M2423 332q-201 0 -325 133t-124 335t144 338t344 136t324 -133t124 -336t-143 -338t-344 -135zM2124 836q0 -218 148 -334q80 -62 206 -62q125 0 204 90t79 240q0 217 -149 333q-82 62 -206 62t-203 -90t-79 -239zM2036 0v106h827v-106h-827zM246 1530v67h352l997 -1296
v930q1 211 63 299t210 88q111 0 171 -47t60 -122t-59 -116h-133v49q0 139 -84 140q-67 0 -93 -62t-26 -223v-1237h-76l-1022 1305v-938q0 -211 -62 -299t-210 -88q-111 0 -171 47q-61 47 -61 122t60 115h133v-49q0 -139 84 -139q67 0 93 62t26 222v1035q-74 87 -118 111
t-134 24z" />
    <glyph glyph-name="published" unicode="&#x2117;" horiz-adv-x="1822" 
d="M809 1221v-424h170q113 0 168 50t55 161q0 213 -246 213h-147zM983 729h-174v-252q0 -59 46 -81t138 -19v-51h-461v51q76 2 108 20t32 80v656q0 61 -32 80t-108 24v51h451q193 0 282 -79t89 -203q0 -277 -371 -277zM154 799q0 -313 222 -535t535 -223q313 0 536 222
q222 221 222 535t-222 536q-221 222 -535 222t-536 -222t-222 -535zM92 799q0 339 240 579t580 240t579 -240q240 -240 240 -580t-240 -579t-580 -239q-339 0 -579 240t-240 579z" />
    <glyph glyph-name="servicemark" unicode="&#x2120;" horiz-adv-x="1636" 
d="M1280 975q92 7 92 37q0 14 -6 75l-39 324l-211 -485h-61l-207 485l-41 -326q-6 -33 -6 -61t18 -36q18 -9 72 -13v-49h-236v49q74 4 78 45l60 475q-6 47 -82 55v47h182q4 -31 20 -65l201 -465l201 465q16 35 20 65h176v-47q-74 -8 -77 -55l57 -475q4 -39 82 -45v-49h-293
v49zM307 967q146 0 146 116q0 47 -22 70t-83 47l-104 35q-78 25 -120 65t-42 123t62 135t183 52t201 -62v-153h-41q-37 160 -180 159q-59 0 -94 -28t-35 -78q0 -76 105 -111l106 -34q84 -27 125 -73t41 -133q1 -87 -73 -137t-199 -49q-125 0 -197 62l-8 164h39
q23 -82 73 -126t117 -44z" />
    <glyph glyph-name="trademark" unicode="&#x2122;" horiz-adv-x="1708" 
d="M1583 1597v-47q-74 -8 -78 -55l58 -475q4 -39 82 -45v-49h-293v49q90 7 92 37q0 14 -6 75l-39 324l-211 -485h-62l-206 485l-41 -326q-15 -84 12 -97q18 -9 72 -13v-49h-236v49q74 4 78 45l59 475q-6 47 -82 55v47h183q4 -31 20 -65l201 -465l200 465q16 35 21 65h176z
M508 1536h-82v-502q0 -33 25 -44t79 -15v-49h-327v49q55 4 81 15t25 44v502h-84q-61 0 -84 -22t-59 -101h-45l14 184h631l16 -184h-43q-29 59 -42 79q-30 44 -105 44z" />
    <glyph glyph-name="estimated" unicode="&#x212e;" horiz-adv-x="1658" 
d="M829 1511q-391 0 -517 -415q-34 -115 -38 -248h1112q-12 273 -137 458q-63 95 -171 150t-249 55zM1628 743h-1356q8 -180 64 -322q56 -143 183 -241q128 -98 317 -100q272 -4 439 117t189 342h133q-81 -559 -783 -561q-341 0 -562 222q-221 224 -221 596t221 595t577 223
q355 0 577 -223t222 -596v-52z" />
    <glyph glyph-name="uni2153" unicode="&#x2153;" horiz-adv-x="2164" 
d="M2050 256q0 -125 -101 -197q-101 -71 -249 -71t-235 62t-87 140t60 107h84v-49q0 -90 49 -142t145 -51q190 0 191 195q0 221 -275 221h-61v45q143 49 216 101t73 137q0 141 -166 141q-121 0 -244 -127l-33 35q106 201 318 201q125 0 193 -62t69 -154q0 -92 -76 -148
t-158 -89q131 -14 209 -92t78 -203zM539 0l1069 1597h116l-1069 -1597h-116zM489 1610v-844q1 -60 57 -76t195 -24v-60h-647v60q131 7 177 19q47 11 63 31t16 50v620h-256v48l51 6q193 29 316 170h28z" />
    <glyph glyph-name="uni2154" unicode="&#x2154;" horiz-adv-x="2131" 
d="M2017 256q0 -125 -101 -197q-100 -71 -248 -71t-235 62t-87 140t59 107h84v-49q0 -90 49 -142t145 -51q190 0 191 195q0 221 -275 221h-61v45q143 49 216 101t73 137q0 141 -166 141q-121 0 -244 -127l-33 35q106 201 318 201q126 0 194 -62t68 -154q0 -93 -77 -149
t-156 -88q131 -14 209 -92t77 -203zM506 0l1069 1597h117l-1069 -1597h-117zM485 729q96 0 137 25q40 25 91 120h41l-37 -268h-668v37l262 268q145 150 194 224q48 75 48 163t-54 138t-151 51q-53 0 -102 -23t-74 -43t-70 -63l-30 35q49 94 133 155q83 62 211 62t206 -77
t76 -208q0 -131 -143 -284q-73 -77 -180 -175t-148 -137h258z" />
    <glyph glyph-name="uni2155" unicode="&#x2155;" horiz-adv-x="2172" 
d="M1706 53q203 0 203 213q0 139 -121 209t-320 70l76 446h309q53 0 73 10q19 10 50 56h64l-58 -201h-389l-32 -197q215 -10 344 -100q129 -91 129 -243t-98 -240t-248 -88q-148 0 -231 60t-83 138t58 111h86v-55q0 -189 188 -189zM539 0l1069 1597h116l-1069 -1597h-116z
M489 1610v-844q1 -60 57 -76t195 -24v-60h-647v60q131 7 177 19q47 11 63 31t16 50v620h-256v48l51 6q193 29 316 170h28z" />
    <glyph glyph-name="uni2156" unicode="&#x2156;" horiz-adv-x="2140" 
d="M1673 53q203 0 203 213q0 139 -121 209t-319 70l75 446h310q53 0 72 10t51 56h63l-57 -201h-389l-33 -197q215 -10 344 -100q129 -91 129 -243t-98 -240t-247 -88t-232 60t-83 138t58 111h86v-55q0 -189 188 -189zM506 0l1069 1597h117l-1069 -1597h-117zM485 729
q96 0 137 25q40 25 91 120h41l-37 -268h-668v37l262 268q145 150 194 224q48 75 48 163t-54 138t-151 51q-53 0 -102 -23t-74 -43t-70 -63l-30 35q49 94 133 155q83 62 211 62t206 -77t76 -208q0 -131 -143 -284q-73 -77 -180 -175t-148 -137h258z" />
    <glyph glyph-name="uni2157" unicode="&#x2157;" horiz-adv-x="2095" 
d="M1628 53q203 0 203 213q0 139 -121 209t-319 70l75 446h310q53 0 72 10t50 56h64l-57 -201h-389l-33 -197q215 -10 344 -100q129 -91 129 -243t-98 -240t-247 -88t-232 60t-83 138t58 111h86v-55q0 -189 188 -189zM461 0l1069 1597h117l-1069 -1597h-117zM772 862
q0 -124 -101 -196t-249 -72t-235 62t-87 140t60 107h84v-49q0 -90 49 -141t145 -51q190 0 191 194q0 221 -275 221h-61v45q143 50 216 102t73 136q0 141 -166 141q-121 0 -244 -127l-33 35q106 201 318 201q125 0 193 -62t69 -154q0 -92 -76 -148t-158 -89q131 -14 209 -92
t78 -203z" />
    <glyph glyph-name="uni2158" unicode="&#x2158;" horiz-adv-x="2236" 
d="M1769 53q203 0 203 213q0 139 -121 209t-319 70l76 446h309q53 0 73 10q19 10 50 56h63l-57 -201h-389l-33 -197q215 -10 344 -100q129 -91 129 -243t-98 -240t-248 -88q-149 0 -231 60t-82 138t57 111h86v-55q0 -189 188 -189zM602 0l1069 1597h117l-1069 -1597h-117z
M705 606h-146v258h-526v62l600 671h72v-651h157v-82h-157v-258zM559 946v445l-401 -445h401z" />
    <glyph glyph-name="uni2159" unicode="&#x2159;" horiz-adv-x="2107" 
d="M1667 543q-111 0 -190 -64q-4 -25 -4 -80q0 -157 61 -247q62 -90 162 -90t154 60t54 172t-62 180q-64 68 -175 69zM1730 637q138 0 224 -80q86 -79 86 -227t-102 -245t-261 -97q-160 0 -257 118t-97 295q0 219 150 383t413 215l31 -57q-197 -56 -296 -156t-132 -247
q103 98 241 98zM539 0l1069 1597h116l-1069 -1597h-116zM489 1610v-844q1 -60 57 -76t195 -24v-60h-647v60q131 7 177 19q47 11 63 31t16 50v620h-256v48l51 6q193 29 316 170h28z" />
    <glyph glyph-name="uni215A" unicode="&#x215a;" horiz-adv-x="2017" 
d="M1577 543q-111 0 -191 -64q-4 -25 -4 -80q0 -157 62 -247t162 -90t154 60t54 172t-62 180q-64 68 -175 69zM1640 637q138 0 224 -80q86 -79 86 -227t-102 -245t-261 -97q-160 0 -257 118t-97 295q0 219 149 383q150 164 414 215l31 -57q-197 -56 -296 -156t-132 -247
q103 98 241 98zM449 0l1069 1597h116l-1069 -1597h-116zM428 659q203 0 203 213q0 139 -121 209t-320 70l76 446h309q53 1 73 11t50 55h64l-57 -201h-390l-32 -196q215 -10 344 -100t129 -244q0 -152 -98 -240t-248 -88t-232 60t-82 138t58 111h86v-55q0 -189 188 -189z" />
    <glyph glyph-name="uni215B" unicode="&#x215b;" horiz-adv-x="2189" 
d="M1942 771q0 73 -54 115t-139 42q-86 0 -134 -39t-48 -105q-1 -66 33 -105q34 -38 106 -71l106 -49q72 41 101 90t29 122zM1530 258q0 -94 61 -145t161 -51t160 48t60 121t-34 113t-113 74l-148 63q-147 -76 -147 -223zM2066 766q0 -78 -63 -144t-143 -87l51 -23
q195 -84 194 -248q0 -120 -89 -198t-255 -78t-263 72t-97 176t61 173t160 97q-95 48 -140 100q-44 53 -44 153q0 101 84 173t228 72t230 -64t86 -174zM539 0l1069 1597h116l-1069 -1597h-116zM489 1610v-844q1 -60 57 -76t195 -24v-60h-647v60q131 7 177 19q47 11 63 31
t16 50v620h-256v48l51 6q193 29 316 170h28z" />
    <glyph glyph-name="uni215C" unicode="&#x215c;" horiz-adv-x="2111" 
d="M1864 771q0 73 -54 115t-139 42q-86 0 -134 -39t-48 -105q-1 -66 33 -105q34 -38 106 -71l107 -49q73 41 101 90t28 122zM1452 258q0 -94 61 -145t161 -51t160 48t60 121t-34 113t-113 74l-148 63q-147 -76 -147 -223zM1989 766q1 -78 -63 -144t-144 -87l51 -23
q195 -84 195 -248q0 -120 -90 -198t-255 -78q-166 0 -263 72t-97 176t61 173t160 97q-95 48 -140 100q-44 53 -44 153q0 101 84 173t228 72t230 -64t87 -174zM461 0l1069 1597h117l-1069 -1597h-117zM772 862q0 -124 -101 -196t-249 -72t-235 62t-87 140t60 107h84v-49
q0 -90 49 -141t145 -51q190 0 191 194q0 221 -275 221h-61v45q143 50 216 102t73 136q0 141 -166 141q-121 0 -244 -127l-33 35q106 201 318 201q125 0 193 -62t69 -154q0 -92 -76 -148t-158 -89q131 -14 209 -92t78 -203z" />
    <glyph glyph-name="uni215D" unicode="&#x215d;" horiz-adv-x="2099" 
d="M1659 928q-86 0 -134 -39t-48 -105q-1 -66 33 -105q34 -38 106 -71l106 -49q72 41 101 90t29 122t-54 115q-53 42 -139 42zM1440 258q0 -94 61 -145t161 -51t160 48t60 121t-34 113t-113 74l-148 63q-147 -76 -147 -223zM1976 766q0 -78 -63 -144t-144 -87l52 -23
q195 -84 194 -248q0 -120 -89 -198t-255 -78t-263 72t-97 176t61 173t160 97q-95 48 -140 100q-44 53 -44 153q0 101 84 173t228 72t230 -64t86 -174zM449 0l1069 1597h116l-1069 -1597h-116zM428 659q203 0 203 213q0 139 -121 209t-320 70l76 446h309q53 1 73 11t50 55h64
l-57 -201h-390l-32 -196q215 -10 344 -100t129 -244q0 -152 -98 -240t-248 -88t-232 60t-82 138t58 111h86v-55q0 -189 188 -189z" />
    <glyph glyph-name="uni215E" unicode="&#x215e;" horiz-adv-x="1951" 
d="M1704 771q0 73 -53 115t-139 42t-135 -39q-48 -39 -48 -105q-1 -66 33 -105q34 -38 106 -71l107 -49q73 41 101 90t28 122zM1587 418l-147 63q-147 -76 -148 -223q0 -94 62 -145t162 -51t159 48t59 121t-34 113q-35 40 -113 74zM1829 766q1 -78 -63 -144t-144 -87l51 -23
q195 -84 195 -248q0 -120 -89 -198t-255 -78t-263 72t-97 176t60 173q62 69 160 97q-95 48 -140 100q-44 53 -44 153q0 101 84 173t228 72t230 -64t87 -174zM301 0l1069 1597h117l-1069 -1597h-117zM246 1462q-45 0 -69 -30t-52 -105h-53l45 270h676v-41l-402 -950h-153
l452 856h-444z" />
    <glyph glyph-name="uni215F" unicode="&#x215f;" horiz-adv-x="1421" 
d="M539 0l1069 1597h116l-1069 -1597h-116zM489 1610v-844q1 -60 57 -76t195 -24v-60h-647v60q131 7 177 19q47 11 63 31t16 50v620h-256v48l51 6q193 29 316 170h28z" />
    <glyph glyph-name="arrowleft" unicode="&#x2190;" horiz-adv-x="1761" 
d="M1702 842v-86h-1321l545 -443v-106l-842 579v25l842 580v-107l-545 -442h1321z" />
    <glyph glyph-name="arrowup" unicode="&#x2191;" horiz-adv-x="1761" 
d="M924 0h-86v1339l-443 -563h-106l579 842h25l580 -842h-107l-442 563v-1339z" />
    <glyph glyph-name="arrowright" unicode="&#x2192;" horiz-adv-x="1761" 
d="M84 756v86h1321l-545 442v107l842 -580v-25l-842 -579v106l545 443h-1321z" />
    <glyph glyph-name="arrowdown" unicode="&#x2193;" horiz-adv-x="1761" 
d="M838 1597h86v-1339l442 563h107l-580 -841h-25l-579 841h106l443 -563v1339z" />
    <glyph glyph-name="uni2196" unicode="&#x2196;" horiz-adv-x="1761" 
d="M244 594l-185 1005l17 19l1005 -186l-75 -76l-699 86l936 -946l-61 -62l-932 946l69 -710z" />
    <glyph glyph-name="uni2197" unicode="&#x2197;" horiz-adv-x="1761" 
d="M680 1432l1006 186l16 -19l-184 -1005l-76 76l69 710l-931 -946l-62 62l936 946l-698 -86z" />
    <glyph glyph-name="uni2198" unicode="&#x2198;" horiz-adv-x="1761" 
d="M1518 1004l184 -1006l-16 -18l-1006 186l76 76l698 -86l-936 946l62 61l931 -946l-69 711z" />
    <glyph glyph-name="uni2199" unicode="&#x2199;" horiz-adv-x="1761" 
d="M1081 166l-1005 -186l-17 18l185 1006l75 -76l-71 -711l934 946l61 -61l-936 -946l699 86z" />
    <glyph glyph-name="partialdiff" unicode="&#x2202;" horiz-adv-x="1280" 
d="M252 571q0 -229 110 -356t294 -127q182 0 273 118t91 294q0 229 -111 356t-293 127t-273 -118t-91 -294zM1192 694q0 -350 -160 -532t-406 -182t-392 154t-146 370q0 268 166 428t393 160q133 0 243 -67t146 -153q-20 254 -177 449t-382 195q-182 0 -315 -82l-33 39
q160 145 391 145t384 -124q288 -233 288 -800z" />
    <glyph glyph-name="increment" unicode="&#x2206;" horiz-adv-x="1761" 
d="M1432 92l-605 1284l-598 -1284h1203zM113 0v76l723 1521h90l723 -1521v-76h-1536z" />
    <glyph glyph-name="product" unicode="&#x220f;" horiz-adv-x="1970" 
d="M1456 1495h-942v-1257q0 -70 34 -107t83 -48t137 -15v-68h-674v68q88 4 137 15t83 48t34 107v1122q0 70 -34 106t-83 48q-49 11 -137 16v67h1782v-67q-88 -4 -137 -16t-83 -48q-34 -37 -34 -106v-1122q0 -70 34 -107t83 -48t137 -15v-68h-674v68q88 4 137 15t83 48
t34 107v1257z" />
    <glyph glyph-name="summation" unicode="&#x2211;" horiz-adv-x="1349" 
d="M819 137q160 0 215 36t150 200h49l-49 -373h-1123v125l658 668l-631 659v145h1100l6 -360h-39q-66 156 -134 211q-69 55 -206 55h-539l611 -633v-57l-670 -676h602z" />
    <glyph glyph-name="minus" unicode="&#x2212;" 
d="M1270 532h-1106v105h1106v-105z" />
    <glyph glyph-name="radical" unicode="&#x221a;" horiz-adv-x="1587" 
d="M68 965v71l366 58l205 -936l825 1407h105l-924 -1565h-137l-223 965h-217z" />
    <glyph glyph-name="infinity" unicode="&#x221e;" horiz-adv-x="1800" 
d="M436 315q-148 0 -251 89q-103 90 -103 260t104 265t254 95q88 0 158 -31t156 -102l164 -137q72 128 186 202t260 74q148 0 251 -89t103 -259t-104 -265t-254 -95q-88 0 -158 30t-155 103l-164 137q-72 -127 -186 -202q-113 -75 -261 -75zM1593 683q-1 109 -69 175
t-187 66q-203 0 -362 -222l199 -157q63 -53 109 -71q45 -18 119 -17q74 0 133 58q58 58 58 168zM207 663q1 -110 69 -176t187 -65q203 0 362 221l-198 158q-63 53 -109 70t-120 17t-132 -57q-58 -58 -59 -168z" />
    <glyph glyph-name="integral" unicode="&#x222b;" horiz-adv-x="1249" 
d="M1004 1618q113 0 174 -42t61 -116q0 -38 -18 -70t-39 -42h-129q4 25 4 41q0 133 -121 133q-90 0 -140 -72t-65 -229l-115 -1172q-24 -233 -140 -359t-306 -126q-113 0 -174 42t-62 115q0 39 19 71q18 32 39 42h129q-4 -25 -4 -41q0 -133 121 -133q90 0 140 72t64 229
l115 1172q23 233 139 359q117 126 308 126z" />
    <glyph glyph-name="approxequal" unicode="&#x2248;" 
d="M972 299q-110 0 -269 74q-159 73 -256 73t-175 -35q-20 -9 -32 -19t-18 -16q-6 -5 -21 -20l-54 76q9 12 29 32t98 52q78 33 189 33t269 -74t253 -74q96 0 176 36q23 10 46 31t26 24l53 -76q-10 -12 -30 -32t-97 -52q-77 -33 -187 -33zM993 721q148 0 222 74l18 16l53 -76
q-10 -11 -30 -31t-97 -53q-79 -33 -189 -33t-268 74t-258 74t-172 -36q-31 -14 -71 -54l-54 76q9 12 29 31t98 53q191 82 456 -41q159 -74 263 -74z" />
    <glyph glyph-name="notequal" unicode="&#x2260;" 
d="M164 383v102h432l135 197h-567v104h643l131 189h123l-131 -189h340v-104h-416l-135 -197h557v-102h-635l-129 -188h-123l129 188h-354z" />
    <glyph glyph-name="equivalence" unicode="&#x2261;" 
d="M1270 754h-1106v94h1106v-94zM1270 1255h-1106v97h1106v-97zM1270 246h-1106v96h1106v-96z" />
    <glyph glyph-name="lessequal" unicode="&#x2264;" 
d="M225 725l334 -100l711 -222v-102l-1106 348v154l1106 346v-102l-711 -222zM1270 53l-1106 344v101l1106 -346v-99z" />
    <glyph glyph-name="greaterequal" unicode="&#x2265;" 
d="M874 625l334 100l-334 100l-710 222v102l1106 -346v-154l-1106 -348v102zM1270 397l-1106 -344v99l1106 346v-101z" />
    <glyph glyph-name="squaremultiply" unicode="&#x22a0;" horiz-adv-x="1998" 
d="M442 338l461 461l-461 461l97 96l460 -461l459 461l98 -96l-460 -461l460 -461l-98 -96l-459 460l-460 -460zM1661 1468h-1323v-1339h1323v1339zM201 0v1597h1597v-1597h-1597z" />
    <glyph glyph-name="house" unicode="&#x2302;" horiz-adv-x="1740" 
d="M1597 0h-1454v922l727 696l727 -696v-922z" />
    <glyph glyph-name="blacksquare" unicode="&#x25a0;" horiz-adv-x="1998" 
d="M1798 1597v-1597h-1597v1597h1597z" />
    <glyph glyph-name="whitesquare" unicode="&#x25a1;" horiz-adv-x="1998" 
d="M1661 1468h-1323v-1339h1323v1339zM201 0v1597h1597v-1597h-1597z" />
    <glyph glyph-name="blacksmallsquare" unicode="&#x25aa;" horiz-adv-x="1486" 
d="M1286 1085v-1085h-1085v1085h1085z" />
    <glyph glyph-name="whitesmallsquare" unicode="&#x25ab;" horiz-adv-x="1486" 
d="M1149 956h-811v-827h811v827zM201 0v1085h1085v-1085h-1085z" />
    <glyph glyph-name="triagup" unicode="&#x25b2;" horiz-adv-x="1638" 
d="M1618 0h-1598l799 1384z" />
    <glyph glyph-name="triagrt" unicode="&#x25ba;" horiz-adv-x="1638" 
d="M70 0v1597l1384 -798z" />
    <glyph glyph-name="triagdn" unicode="&#x25bc;" horiz-adv-x="1638" 
d="M20 1597h1598l-799 -1384z" />
    <glyph glyph-name="triaglf" unicode="&#x25c4;" horiz-adv-x="1638" 
d="M1454 1597v-1597l-1384 799z" />
    <glyph glyph-name="lozenge" unicode="&#x25ca;" horiz-adv-x="1843" 
d="M332 799l590 -660l589 660l-589 659zM922 -20l-754 819l754 819l753 -819z" />
    <glyph glyph-name="whitecircle" unicode="&#x25cb;" horiz-adv-x="1998" 
d="M1669 799q1 283 -195 483t-476 199q-280 0 -474 -200q-194 -201 -194 -483t196 -482t474 -200q280 0 475 200q194 200 194 483zM180 799q0 339 240 579t580 240t579 -240q240 -240 240 -580t-240 -579t-580 -239q-339 0 -579 240t-240 579z" />
    <glyph glyph-name="whitecircle" unicode="&#x25ef;" horiz-adv-x="1998" 
d="M1669 799q1 283 -195 483t-476 199q-280 0 -474 -200q-194 -201 -194 -483t196 -482t474 -200q280 0 475 200q194 200 194 483zM180 799q0 339 240 579t580 240t579 -240q240 -240 240 -580t-240 -579t-580 -239q-339 0 -579 240t-240 579z" />
    <glyph glyph-name="bullseye" unicode="&#x25ce;" horiz-adv-x="1966" 
d="M322 694q0 -231 162 -394t394 -163t396 163t164 394q0 232 -164 396t-395 164t-395 -164q-162 -165 -162 -396zM676 799q0 127 90 217t217 90t217 -90t90 -217t-90 -217t-217 -90t-217 90t-90 217zM164 799q0 339 240 579t579 240q340 0 580 -240q239 -240 239 -580
t-240 -579t-579 -239q-340 0 -580 239q-239 240 -239 580z" />
    <glyph glyph-name="blackcircle" unicode="&#x25cf;" horiz-adv-x="1998" 
d="M180 799q0 339 240 579t580 240t579 -240q240 -240 240 -580t-240 -579t-580 -239q-339 0 -579 240t-240 579z" />
    <glyph glyph-name="uni25E2" unicode="&#x25e2;" horiz-adv-x="1638" 
d="M53 414l1131 1130l413 -1544z" />
    <glyph glyph-name="uni25E3" unicode="&#x25e3;" horiz-adv-x="1638" 
d="M455 1544l1130 -1130l-1544 -414z" />
    <glyph glyph-name="uni25E4" unicode="&#x25e4;" horiz-adv-x="1638" 
d="M1585 1184l-1130 -1131l-414 1544z" />
    <glyph glyph-name="uni25E5" unicode="&#x25e5;" horiz-adv-x="1638" 
d="M1184 53l-1131 1131l1544 413z" />
    <glyph glyph-name="uni2605" unicode="&#x2605;" horiz-adv-x="1802" 
d="M901 369l-532 -389l202 628l-532 387h659l203 627l203 -627h659l-532 -387l203 -628z" />
    <glyph glyph-name="ballotboxwithx" unicode="&#x2612;" horiz-adv-x="1454" 
d="M369 279l266 264l-266 264l94 94l264 -266l264 266l94 -94l-266 -264l266 -264l-94 -95l-264 267l-264 -267zM1126 950h-798v-815h798v815zM184 0v1085h1086v-1085h-1086z" />
    <glyph glyph-name="uni263C" unicode="&#x263c;" horiz-adv-x="1966" 
d="M1802 799l-346 -62l318 -149l-351 30l271 -229l-332 121l201 -289l-289 201l119 -332l-228 266l31 -348l-152 318l-61 -346l-61 346l-152 -318l31 348l-228 -266l119 332l-289 -201l201 289l-332 -121l271 229l-350 -30l317 149l-346 62l346 61l-317 150l350 -31
l-271 229l332 -121l-201 289l289 -200l-119 331l228 -266l-31 348l152 -317l61 346l61 -346l152 317l-31 -348l228 266l-119 -331l289 200l-201 -289l332 121l-271 -229l351 31l-318 -150z" />
    <glyph glyph-name="uni263E" unicode="&#x263e;" horiz-adv-x="1966" 
d="M1278 1491q-274 0 -469 -203q-195 -204 -195 -490t195 -489t469 -203q102 0 197 31q-219 -158 -492 -157q-340 0 -580 240t-239 579q0 339 240 579t579 240q268 0 492 -158q-107 31 -197 31z" />
    <glyph glyph-name="spade" unicode="&#x2660;" horiz-adv-x="1843" 
d="M1737 682q-1 -148 -105 -251t-250 -103t-253 94q-105 94 -162 235l-6 -2q16 -209 54 -356t113 -299h-413q76 152 113 299q38 147 55 356l-6 2q-57 -141 -163 -235t-252 -94q-147 0 -251 103q-105 103 -105 251t88 254t241 206q152 100 286 238q133 139 199 238h4
q66 -98 198 -238q133 -139 286 -238q153 -100 241 -206t88 -254z" />
    <glyph glyph-name="club" unicode="&#x2663;" horiz-adv-x="1843" 
d="M462 328q-147 0 -251 103q-105 103 -105 259t100 259t257 104q82 0 172 -47l4 4q-78 117 -78 255q-1 137 103 245t258 108t257 -108t103 -246t-78 -254l4 -4q90 47 172 47q158 1 257 -103t99 -260t-104 -259t-250 -103t-253 94q-105 94 -162 235l-6 -2q16 -209 54 -356
t113 -299h-413q76 152 113 299q38 147 55 356l-6 2q-57 -141 -163 -235t-252 -94z" />
    <glyph glyph-name="heart" unicode="&#x2665;" horiz-adv-x="1843" 
d="M106 1196q0 184 106 303t284 119q176 0 273 -87t149 -235h8q51 146 148 234q98 88 274 88t282 -119t107 -303q0 -238 -336 -616q-150 -170 -285 -341t-192 -259h-4q-57 88 -193 259q-135 171 -285 341q-336 379 -336 616z" />
    <glyph glyph-name="diamond" unicode="&#x2666;" horiz-adv-x="1843" 
d="M1673 799q-217 -170 -415 -386t-334 -433h-4q-137 217 -335 433t-415 386q217 170 415 386t335 433h4q136 -217 334 -433t415 -386z" />
    <glyph glyph-name="musicflatsign" unicode="&#x266d;" horiz-adv-x="983" 
d="M788 717q0 276 -241 276q-117 1 -204 -93t-97 -198v-632q180 65 343 206q89 78 144 193t55 248zM139 1679h107v-755q41 78 132 133t183 55q350 0 350 -377q-1 -195 -113 -367t-284 -285q-172 -114 -375 -169v1765z" />
    <glyph glyph-name="musicsharpsign" unicode="&#x266f;" horiz-adv-x="954" 
d="M332 891v-420l291 234v421zM727 1802v-430l186 150v-162l-186 -152v-420l186 150v-162l-186 -151v-625h-104v543l-291 -234v-514h-105v430l-186 -149v162l186 151v420l-186 -150v162l186 152v624h105v-542l291 233v514h104z" />
    <glyph glyph-name="uni267B" unicode="&#x267b;" horiz-adv-x="1966" 
d="M1651 1079l141 -239q20 -37 20 -90q2 -98 -77 -179q-80 -80 -152 -79l-237 411zM913 84h-276q-45 0 -90 27q-88 51 -118 163t9 164h475v-354zM410 1225l137 243q20 35 69 64q94 49 198 20t140 -92l-237 -411zM827 1597h396q49 -2 73 -5q24 -4 58 -26q33 -22 57 -65
l57 -100l88 49l-124 -340l-355 64l84 49l-147 256q-27 47 -74 77t-80 33l-33 6v2zM381 250h-4l-197 344q-22 44 -30 66q-24 72 22 145l57 100l-86 49l357 64l121 -340l-84 49q-143 -247 -159 -275t-18 -83t9 -86zM1393 84h-117v-100l-232 278l232 277v-101h297q53 0 102 27
t70 53l22 27l2 -4l-196 -342q-31 -45 -44 -61t-49 -36q-36 -18 -87 -18z" />
    <glyph glyph-name="uni267C" unicode="&#x267c;" horiz-adv-x="1966" 
d="M1436 522h-230v78l-180 -215l180 -215v78h90q57 0 85 22t55 66l153 266l-2 2q-25 -33 -67 -57q-43 -25 -84 -25zM1606 834l-109 186l-237 -137l184 -320q56 -1 118 61t60 140q0 41 -16 70zM510 377h2q-41 90 6 172l115 199l65 -39l-94 264l-276 -49l67 -39l-45 -78
q-20 -33 -22 -65t4 -48t24 -51zM702 248h216v274h-369q-31 -41 -7 -128t91 -126q34 -20 69 -20zM850 1421v-2q98 -10 145 -90l115 -199l-66 -38l275 -50l96 265l-67 -39l-45 78q-29 49 -61 62t-85 13h-307zM641 1321l-106 -188l237 -138l184 320q-28 49 -108 71t-154 -16
q-37 -22 -53 -49zM1802 798q0 -341 -238 -580q-238 -238 -580 -238q-341 0 -581 238q-239 238 -239 580q0 340 240 580t580 240q342 0 580 -240t238 -580z" />
    <glyph glyph-name="uni267D" unicode="&#x267d;" horiz-adv-x="1966" 
d="M1296 248h-90v-78l-180 215l180 215v-78h230q40 0 78 20t55 42l18 20l2 -2l-153 -266q-18 -31 -30 -46q-36 -42 -110 -42zM1497 1020l109 -186q16 -29 16 -70q2 -78 -60 -139t-118 -62l-184 320zM512 377h-2l-154 266q-18 35 -24 51t-4 48t22 65l45 78l-67 39l276 49
l94 -264l-65 39l-115 -199q-20 -37 -22 -80t8 -68zM918 248h-216q-35 0 -69 20q-68 39 -91 126q-24 87 7 128h369v-274zM850 1421h307q53 0 85 -13t61 -62l45 -78l67 39l-96 -265l-275 50l66 38l-115 199q-20 35 -57 57t-61 27l-27 6v2zM535 1133l106 188q16 27 53 49
q74 37 155 15t107 -70l-184 -320zM1761 798q0 323 -227 551t-550 228t-551 -228t-228 -551t228 -550q228 -228 551 -228t550 228t227 550zM1802 798q0 -341 -238 -580q-238 -238 -580 -238q-341 0 -581 238q-239 238 -239 580q0 340 240 580t580 240q342 0 580 -240
t238 -580z" />
    <glyph glyph-name="mediumwhitecircle" unicode="&#x26aa;" horiz-adv-x="1454" 
d="M1149 543q0 176 -124 301t-298 125t-298 -125t-124 -301t124 -301t298 -125t298 125t124 301zM164 543q0 233 165 398t398 165t398 -165t165 -398t-165 -399t-398 -164q-233 0 -398 165t-165 398z" />
    <glyph glyph-name="mediumblackcircle" unicode="&#x26ab;" horiz-adv-x="1454" 
d="M164 543q0 233 165 398t398 165t398 -165t165 -398t-165 -399t-398 -164q-233 0 -398 165t-165 398z" />
    <glyph glyph-name="anglebracketleft" unicode="&#x3008;" horiz-adv-x="745" 
d="M522 -266l-366 983l366 983h101l-359 -983l359 -983h-101z" />
    <glyph glyph-name="anglebracketright" unicode="&#x3009;" horiz-adv-x="745" 
d="M590 717l-367 -983h-100l358 983l-358 983h100z" />
    <glyph glyph-name="aogonek.school" unicode="&#xe150;" horiz-adv-x="1361" 
d="M1032 -264q0 -70 44 -111t114 -41t139 31l23 -45q-82 -82 -198 -82t-182 57q-67 57 -67 163q1 106 59 186t160 122l-174 -36h-16l10 186q-162 -186 -379 -186t-347 146t-130 357q0 273 162 441t393 168q92 0 181 -32t139 -75l118 129h29l-10 -221v-682q0 -49 22 -63
q23 -13 107 -25l57 -8v-62q-122 -39 -188 -123t-66 -194zM944 688q0 150 -84 228t-247 77q-163 0 -265 -119t-102 -320q0 -200 97 -326t286 -126t315 152v434z" />
    <glyph glyph-name="a.school" unicode="&#xe151;" horiz-adv-x="1361" 
d="M565 -20q-217 0 -347 146t-130 357q0 273 162 441t393 168q92 0 181 -32t139 -75l118 129h29l-10 -221v-682q0 -49 22 -63q23 -13 107 -25l57 -8v-62l-336 -73h-16l10 186q-162 -186 -379 -186zM944 688q0 150 -84 228t-247 77q-163 0 -265 -119t-102 -320
q0 -200 97 -326t286 -126t315 152v434z" />
    <glyph glyph-name="agrave.school" unicode="&#xe152;" horiz-adv-x="1361" 
d="M299 1638h201l172 -426h-68zM565 -20q-217 0 -347 146t-130 357q0 273 162 441t393 168q92 0 181 -32t139 -75l118 129h29l-10 -221v-682q0 -49 22 -63q23 -13 107 -25l57 -8v-62l-336 -73h-16l10 186q-162 -186 -379 -186zM944 688q0 150 -84 228t-247 77
q-163 0 -265 -119t-102 -320q0 -200 97 -326t286 -126t315 152v434z" />
    <glyph glyph-name="aacute.school" unicode="&#xe153;" horiz-adv-x="1361" 
d="M760 1638h207l-305 -426h-68zM565 -20q-217 0 -347 146t-130 357q0 273 162 441t393 168q92 0 181 -32t139 -75l118 129h29l-10 -221v-682q0 -49 22 -63q23 -13 107 -25l57 -8v-62l-336 -73h-16l10 186q-162 -186 -379 -186zM944 688q0 150 -84 228t-247 77
q-163 0 -265 -119t-102 -320q0 -200 97 -326t286 -126t315 152v434z" />
    <glyph glyph-name="acircumflex.school" unicode="&#xe154;" horiz-adv-x="1361" 
d="M565 -20q-217 0 -347 146t-130 357q0 273 162 441t393 168q92 0 181 -32t139 -75l118 129h29l-10 -221v-682q0 -49 22 -63q23 -13 107 -25l57 -8v-62l-336 -73h-16l10 186q-162 -186 -379 -186zM944 688q0 150 -84 228t-247 77q-163 0 -265 -119t-102 -320
q0 -200 97 -326t286 -126t315 152v434zM686 1638l303 -426h-69l-291 275l-291 -275h-70l303 426h115z" />
    <glyph glyph-name="adieresis.school" unicode="&#xe155;" horiz-adv-x="1361" 
d="M565 -20q-217 0 -347 146t-130 357q0 273 162 441t393 168q92 0 181 -32t139 -75l118 129h29l-10 -221v-682q0 -49 22 -63q23 -13 107 -25l57 -8v-62l-336 -73h-16l10 186q-162 -186 -379 -186zM944 688q0 150 -84 228t-247 77q-163 0 -265 -119t-102 -320
q0 -200 97 -326t286 -126t315 152v434zM711 1415q0 47 33 82q34 35 81 35t82 -35t35 -82t-35 -81t-82 -34t-81 34q-33 34 -33 81zM303 1415q0 47 34 82t81 35t82 -35t35 -82t-35 -81t-82 -34t-81 34t-34 81z" />
    <glyph glyph-name="atilde.school" unicode="&#xe156;" horiz-adv-x="1361" 
d="M766 1249q-72 1 -173 61t-148 60t-74 -19t-64 -87l-67 10q80 215 254 215q72 1 173 -61t148 -62t74 19t63 88l68 -9q-78 -215 -254 -215zM565 -20q-217 0 -347 146t-130 357q0 273 162 441t393 168q92 0 181 -32t139 -75l118 129h29l-10 -221v-682q0 -49 22 -63
q23 -13 107 -25l57 -8v-62l-336 -73h-16l10 186q-162 -186 -379 -186zM944 688q0 150 -84 228t-247 77q-163 0 -265 -119t-102 -320q0 -200 97 -326t286 -126t315 152v434z" />
    <glyph glyph-name="aring.school" unicode="&#xe157;" horiz-adv-x="1361" 
d="M760 1419q0 68 -33 111t-97 43t-98 -43t-32 -111q0 -67 32 -109t98 -42t98 42t32 109zM399 1419q0 98 65 166t165 68t165 -68q64 -68 64 -166t-64 -166q-64 -67 -165 -67q-100 0 -165 68t-65 165zM565 -20q-217 0 -347 146t-130 357q0 273 162 441t393 168q92 0 181 -32
t139 -75l118 129h29l-10 -221v-682q0 -49 22 -63q23 -13 107 -25l57 -8v-62l-336 -73h-16l10 186q-162 -186 -379 -186zM944 688q0 150 -84 228t-247 77q-163 0 -265 -119t-102 -320q0 -200 97 -326t286 -126t315 152v434z" />
    <glyph glyph-name="amacron.school" unicode="&#xe159;" horiz-adv-x="1361" 
d="M358 1335v107h541v-107h-541zM565 -20q-217 0 -347 146t-130 357q0 273 162 441t393 168q92 0 181 -32t139 -75l118 129h29l-10 -221v-682q0 -49 22 -63q23 -13 107 -25l57 -8v-62l-336 -73h-16l10 186q-162 -186 -379 -186zM944 688q0 150 -84 228t-247 77
q-163 0 -265 -119t-102 -320q0 -200 97 -326t286 -126t315 152v434z" />
    <glyph glyph-name="abreve.school" unicode="&#xe15a;" horiz-adv-x="1361" 
d="M629 1231q-354 0 -355 407h74q16 -152 93 -220t188 -66q111 0 187 68t93 218h74q0 -407 -354 -407zM565 -20q-217 0 -347 146t-130 357q0 273 162 441t393 168q92 0 181 -32t139 -75l118 129h29l-10 -221v-682q0 -49 22 -63q23 -13 107 -25l57 -8v-62l-336 -73h-16
l10 186q-162 -186 -379 -186zM944 688q0 150 -84 228t-247 77q-163 0 -265 -119t-102 -320q0 -200 97 -326t286 -126t315 152v434z" />
    <glyph glyph-name="ytilde.school" unicode="&#xe160;" horiz-adv-x="1286" 
d="M762 1249q-72 1 -173 61t-149 60t-74 -19t-63 -87l-67 10q80 215 253 215q71 1 173 -61t149 -62t74 19t63 88l68 -9q-78 -215 -254 -215zM610 -512q-166 0 -284 66t-119 188q0 88 76 125h90v-49q0 -129 64 -188q65 -58 217 -58t227 109q74 109 73 348v166
q-86 -95 -176 -151t-228 -56t-231 82q-92 82 -92 260v571q0 55 -30 73q-31 17 -121 27l-37 3v67l309 21h45l-10 -218v-528q0 -121 62 -180t169 -60q150 0 340 175v620q0 55 -30 73q-31 17 -121 27l-39 3v67l311 21h45l-10 -218v-917q0 -221 -134 -345t-366 -124z" />
    <glyph glyph-name="g.school" unicode="&#xe161;" horiz-adv-x="1290" 
d="M963 688q0 150 -86 228t-253 77q-166 0 -270 -119t-104 -320q0 -200 99 -326t291 -126t323 152v434zM963 6v160q-166 -186 -387 -186t-355 146q-133 146 -133 357q0 273 165 441t402 168q95 0 185 -32t141 -75l119 129h28l-10 -221v-940q0 -221 -148 -343t-386 -122
q-168 0 -295 66t-127 188q0 88 76 125h92v-49q0 -246 282 -246q176 0 264 100q87 101 87 334z" />
    <glyph glyph-name="gcircumflex.school" unicode="&#xe163;" horiz-adv-x="1290" 
d="M963 688q0 150 -86 228t-253 77q-166 0 -270 -119t-104 -320q0 -200 99 -326t291 -126t323 152v434zM963 6v160q-166 -186 -387 -186t-355 146q-133 146 -133 357q0 273 165 441t402 168q95 0 185 -32t141 -75l119 129h28l-10 -221v-940q0 -221 -148 -343t-386 -122
q-168 0 -295 66t-127 188q0 88 76 125h92v-49q0 -246 282 -246q176 0 264 100q87 101 87 334zM698 1638l303 -426h-69l-291 275l-291 -275h-69l303 426h114z" />
    <glyph glyph-name="gbreve.school" unicode="&#xe166;" horiz-adv-x="1290" 
d="M643 1231q-354 0 -354 407h73q16 -152 94 -220t188 -66q110 0 186 68t94 218h73q0 -407 -354 -407zM963 688q0 150 -86 228t-253 77q-166 0 -270 -119t-104 -320q0 -200 99 -326t291 -126t323 152v434zM963 6v160q-166 -186 -387 -186t-355 146q-133 146 -133 357
q0 273 165 441t402 168q95 0 185 -32t141 -75l119 129h28l-10 -221v-940q0 -221 -148 -343t-386 -122q-168 0 -295 66t-127 188q0 88 76 125h92v-49q0 -246 282 -246q176 0 264 100q87 101 87 334z" />
    <glyph glyph-name="gdotaccent.school" unicode="&#xe167;" horiz-adv-x="1290" 
d="M963 688q0 150 -86 228t-253 77q-166 0 -270 -119t-104 -320q0 -200 99 -326t291 -126t323 152v434zM963 6v160q-166 -186 -387 -186t-355 146q-133 146 -133 357q0 273 165 441t402 168q95 0 185 -32t141 -75l119 129h28l-10 -221v-940q0 -221 -148 -343t-386 -122
q-168 0 -295 66t-127 188q0 88 76 125h92v-49q0 -246 282 -246q176 0 264 100q87 101 87 334zM524 1419q0 51 34 86t85 35t86 -35t35 -86t-35 -85t-86 -34t-85 34t-34 85z" />
    <glyph glyph-name="gcommaaccent.school" unicode="&#xe168;" horiz-adv-x="1290" 
d="M764 1339q0 -49 -33 -82t-95 -33t-96 46t-34 128t57 151t191 73v-70q-119 -12 -150 -106h70q90 -23 90 -107zM963 688q0 150 -86 228t-253 77q-166 0 -270 -119t-104 -320q0 -200 99 -326t291 -126t323 152v434zM963 6v160q-166 -186 -387 -186t-355 146
q-133 146 -133 357q0 273 165 441t402 168q95 0 185 -32t141 -75l119 129h28l-10 -221v-940q0 -221 -148 -343t-386 -122q-168 0 -295 66t-127 188q0 88 76 125h92v-49q0 -246 282 -246q176 0 264 100q87 101 87 334z" />
    <glyph glyph-name="y.school" unicode="&#xe16b;" horiz-adv-x="1286" 
d="M610 -512q-166 0 -284 66t-119 188q0 88 76 125h90v-49q0 -129 64 -188q65 -58 217 -58t227 109q74 109 73 348v166q-86 -95 -176 -151t-228 -56t-231 82q-92 82 -92 260v571q0 55 -30 73q-31 17 -121 27l-37 3v67l309 21h45l-10 -218v-528q0 -121 62 -180t169 -60
q150 0 340 175v620q0 55 -30 73q-31 17 -121 27l-39 3v67l311 21h45l-10 -218v-917q0 -221 -134 -345t-366 -124z" />
    <glyph glyph-name="ygrave.school" unicode="&#xe16c;" horiz-adv-x="1286" 
d="M297 1638h201l172 -426h-68zM610 -512q-166 0 -284 66t-119 188q0 88 76 125h90v-49q0 -129 64 -188q65 -58 217 -58t227 109q74 109 73 348v166q-86 -95 -176 -151t-228 -56t-231 82q-92 82 -92 260v571q0 55 -30 73q-31 17 -121 27l-37 3v67l309 21h45l-10 -218v-528
q0 -121 62 -180t169 -60q150 0 340 175v620q0 55 -30 73q-31 17 -121 27l-39 3v67l311 21h45l-10 -218v-917q0 -221 -134 -345t-366 -124z" />
    <glyph glyph-name="yacute.school" unicode="&#xe16d;" horiz-adv-x="1286" 
d="M758 1638h207l-306 -426h-67zM610 -512q-166 0 -284 66t-119 188q0 88 76 125h90v-49q0 -129 64 -188q65 -58 217 -58t227 109q74 109 73 348v166q-86 -95 -176 -151t-228 -56t-231 82q-92 82 -92 260v571q0 55 -30 73q-31 17 -121 27l-37 3v67l309 21h45l-10 -218v-528
q0 -121 62 -180t169 -60q150 0 340 175v620q0 55 -30 73q-31 17 -121 27l-39 3v67l311 21h45l-10 -218v-917q0 -221 -134 -345t-366 -124z" />
    <glyph glyph-name="ycircumflex.school" unicode="&#xe16e;" horiz-adv-x="1286" 
d="M610 -512q-166 0 -284 66t-119 188q0 88 76 125h90v-49q0 -129 64 -188q65 -58 217 -58t227 109q74 109 73 348v166q-86 -95 -176 -151t-228 -56t-231 82q-92 82 -92 260v571q0 55 -30 73q-31 17 -121 27l-37 3v67l309 21h45l-10 -218v-528q0 -121 62 -180t169 -60
q150 0 340 175v620q0 55 -30 73q-31 17 -121 27l-39 3v67l311 21h45l-10 -218v-917q0 -221 -134 -345t-366 -124zM682 1638l303 -426h-70l-290 275l-291 -275h-70l303 426h115z" />
    <glyph glyph-name="ydieresis.school" unicode="&#xe16f;" horiz-adv-x="1286" 
d="M610 -512q-166 0 -284 66t-119 188q0 88 76 125h90v-49q0 -129 64 -188q65 -58 217 -58t227 109q74 109 73 348v166q-86 -95 -176 -151t-228 -56t-231 82q-92 82 -92 260v571q0 55 -30 73q-31 17 -121 27l-37 3v67l309 21h45l-10 -218v-528q0 -121 62 -180t169 -60
q150 0 340 175v620q0 55 -30 73q-31 17 -121 27l-39 3v67l311 21h45l-10 -218v-917q0 -221 -134 -345t-366 -124zM707 1415q0 47 33 82q34 35 81 35t82 -35t35 -82t-35 -81t-82 -34t-81 34q-33 34 -33 81zM299 1415q0 47 34 82t81 35t82 -35q34 -35 34 -82t-34 -81t-82 -34
q-47 0 -81 34t-34 81z" />
    <glyph glyph-name="ymacron.school" unicode="&#xe171;" horiz-adv-x="1286" 
d="M354 1335v107h541v-107h-541zM610 -512q-166 0 -284 66t-119 188q0 88 76 125h90v-49q0 -129 64 -188q65 -58 217 -58t227 109q74 109 73 348v166q-86 -95 -176 -151t-228 -56t-231 82q-92 82 -92 260v571q0 55 -30 73q-31 17 -121 27l-37 3v67l309 21h45l-10 -218v-528
q0 -121 62 -180t169 -60q150 0 340 175v620q0 55 -30 73q-31 17 -121 27l-39 3v67l311 21h45l-10 -218v-917q0 -221 -134 -345t-366 -124z" />
    <glyph glyph-name="cordinal" unicode="&#xe181;" horiz-adv-x="786" 
d="M195 1120q1 -135 69 -212t210 -77t233 113l41 -18q-29 -92 -111 -156t-219 -63q-174 1 -267 109t-94 255q0 186 115 300t291 114q121 0 195 -52q74 -51 73 -125q0 -74 -55 -98h-101v60q0 133 -137 133q-109 0 -176 -74t-67 -209z" />
    <glyph glyph-name="ordfeminine.school" unicode="&#xe182;" horiz-adv-x="1001" 
d="M674 1194q0 96 -58 152t-158 57q-98 0 -161 -78t-63 -206t58 -213q60 -85 180 -85t202 86v287zM829 881q-1 -37 15 -48t65 -16l37 -4v-57l-252 -49h-28l8 131q-98 -131 -260 -131t-254 101t-92 253q0 190 116 305q117 115 279 115t250 -78l78 92h45l-7 -158v-456z" />
    <glyph glyph-name="p.smcp" unicode="&#xe200;" horiz-adv-x="1204" 
d="M485 1059v-508h199q250 0 250 246q0 262 -268 262h-181zM485 469v-303q0 -61 68 -79t180 -24v-63h-612v63q205 4 205 103v809q0 98 -205 102v64h573q212 1 314 -97t102 -243t-108 -239t-297 -93h-220z" />
    <glyph glyph-name="p.smcp" unicode="&#xf770;" horiz-adv-x="1204" 
d="M485 1059v-508h199q250 0 250 246q0 262 -268 262h-181zM485 469v-303q0 -61 68 -79t180 -24v-63h-612v63q205 4 205 103v809q0 98 -205 102v64h573q212 1 314 -97t102 -243t-108 -239t-297 -93h-220z" />
    <glyph glyph-name="a.smcp" unicode="&#xe201;" horiz-adv-x="1355" 
d="M627 969l-217 -514h452zM285 128q0 -32 38 -46t132 -19v-63h-414v63q96 0 119 52l407 950l-41 90h179l491 -1038q27 -53 119 -54v-63h-488v63q94 5 132 19t38 46t-18 73l-80 172h-524l-72 -172q-18 -41 -18 -73z" />
    <glyph glyph-name="a.smcp" unicode="&#xf761;" horiz-adv-x="1355" 
d="M627 969l-217 -514h452zM285 128q0 -32 38 -46t132 -19v-63h-414v63q96 0 119 52l407 950l-41 90h179l491 -1038q27 -53 119 -54v-63h-488v63q94 5 132 19t38 46t-18 73l-80 172h-524l-72 -172q-18 -41 -18 -73z" />
    <glyph glyph-name="b.smcp" unicode="&#xe202;" horiz-adv-x="1306" 
d="M647 82h76q270 0 270 215q0 256 -299 256h-209v-369q0 -62 36 -82t126 -20zM121 1141h590q190 0 291 -71q102 -71 102 -199t-73 -185t-204 -86q164 -16 253 -94t89 -207q1 -129 -111 -214t-315 -85h-622v63q205 4 205 103v809q0 98 -205 102v64zM657 633q277 1 277 211
q0 104 -68 160t-194 55h-187v-426h172z" />
    <glyph glyph-name="b.smcp" unicode="&#xf762;" horiz-adv-x="1306" 
d="M647 82h76q270 0 270 215q0 256 -299 256h-209v-369q0 -62 36 -82t126 -20zM121 1141h590q190 0 291 -71q102 -71 102 -199t-73 -185t-204 -86q164 -16 253 -94t89 -207q1 -129 -111 -214t-315 -85h-622v63q205 4 205 103v809q0 98 -205 102v64zM657 633q277 1 277 211
q0 104 -68 160t-194 55h-187v-426h172z" />
    <glyph glyph-name="c.smcp" unicode="&#xe203;" horiz-adv-x="1261" 
d="M717 76q162 0 253 68t146 218h49l-30 -290q-195 -92 -457 -92t-422 166t-160 401q0 274 175 444t423 170t410 -108l4 -258h-49q-59 150 -147 210t-230 60q-209 0 -311 -132q-103 -132 -103 -340q0 -209 116 -363t333 -154z" />
    <glyph glyph-name="c.smcp" unicode="&#xf763;" horiz-adv-x="1261" 
d="M717 76q162 0 253 68t146 218h49l-30 -290q-195 -92 -457 -92t-422 166t-160 401q0 274 175 444t423 170t410 -108l4 -258h-49q-59 150 -147 210t-230 60q-209 0 -311 -132q-103 -132 -103 -340q0 -209 116 -363t333 -154z" />
    <glyph glyph-name="d.smcp" unicode="&#xe204;" 
d="M121 0v57q205 4 205 103v821q0 98 -205 102v58h594q159 0 281 -46q224 -84 304 -293q37 -93 37 -194q0 -284 -166 -446t-421 -162h-629zM657 1061h-170v-866q0 -68 35 -92t123 -23h98q182 0 298 114t116 347q0 520 -500 520z" />
    <glyph glyph-name="d.smcp" unicode="&#xf764;" 
d="M121 0v57q205 4 205 103v821q0 98 -205 102v58h594q159 0 281 -46q224 -84 304 -293q37 -93 37 -194q0 -284 -166 -446t-421 -162h-629zM657 1061h-170v-866q0 -68 35 -92t123 -23h98q182 0 298 114t116 347q0 520 -500 520z" />
    <glyph glyph-name="e.smcp" unicode="&#xe205;" horiz-adv-x="1323" 
d="M799 633q102 0 112 149h58v-379h-58q-12 150 -112 150h-314v-363q0 -63 36 -86t122 -22h205q96 0 147 48t138 189h45l-56 -319h-1001v63q205 4 205 103v809q0 98 -205 102v64h995l4 -264h-41q-47 111 -95 147t-146 35h-353v-426h314z" />
    <glyph glyph-name="e.smcp" unicode="&#xf765;" horiz-adv-x="1323" 
d="M799 633q102 0 112 149h58v-379h-58q-12 150 -112 150h-314v-363q0 -63 36 -86t122 -22h205q96 0 147 48t138 189h45l-56 -319h-1001v63q205 4 205 103v809q0 98 -205 102v64h995l4 -264h-41q-47 111 -95 147t-146 35h-353v-426h314z" />
    <glyph glyph-name="f.smcp" unicode="&#xe206;" horiz-adv-x="1193" 
d="M485 512v-352q-1 -41 27 -57q28 -15 51 -23t73 -11t97 -6v-63h-612v63q205 4 205 103v809q0 98 -205 102v64h954l4 -264h-41q-47 111 -95 147t-146 35h-312v-467h293q53 0 80 36t33 113h57v-379h-57q-12 150 -113 150h-293z" />
    <glyph glyph-name="f.smcp" unicode="&#xf766;" horiz-adv-x="1193" 
d="M485 512v-352q-1 -41 27 -57q28 -15 51 -23t73 -11t97 -6v-63h-612v63q205 4 205 103v809q0 98 -205 102v64h954l4 -264h-41q-47 111 -95 147t-146 35h-312v-467h293q53 0 80 36t33 113h57v-379h-57q-12 150 -113 150h-293z" />
    <glyph glyph-name="g.smcp" unicode="&#xe207;" horiz-adv-x="1368" 
d="M1128 369v-275q-200 -114 -456 -114t-416 166t-160 401q0 274 175 444t423 170t410 -108l4 -258h-49q-59 150 -147 210t-230 60q-209 0 -311 -132q-103 -132 -103 -340t118 -367t333 -158q176 0 250 86v215q0 98 -205 102v64h569v-64q-205 -4 -205 -102z" />
    <glyph glyph-name="g.smcp" unicode="&#xf767;" horiz-adv-x="1368" 
d="M1128 369v-275q-200 -114 -456 -114t-416 166t-160 401q0 274 175 444t423 170t410 -108l4 -258h-49q-59 150 -147 210t-230 60q-209 0 -311 -132q-103 -132 -103 -340t118 -367t333 -158q176 0 250 86v215q0 98 -205 102v64h569v-64q-205 -4 -205 -102z" />
    <glyph glyph-name="h.smcp" unicode="&#xe208;" horiz-adv-x="1640" 
d="M1155 553h-670v-387q0 -98 205 -103v-63h-569v63q205 4 205 103v809q0 98 -205 102v64h569v-64q-205 -4 -205 -102v-340h670v340q0 98 -205 102v64h570v-64q-205 -4 -205 -102v-809q0 -98 205 -103v-63h-570v63q205 4 205 103v387z" />
    <glyph glyph-name="h.smcp" unicode="&#xf768;" horiz-adv-x="1640" 
d="M1155 553h-670v-387q0 -98 205 -103v-63h-569v63q205 4 205 103v809q0 98 -205 102v64h569v-64q-205 -4 -205 -102v-340h670v340q0 98 -205 102v64h570v-64q-205 -4 -205 -102v-809q0 -98 205 -103v-63h-570v63q205 4 205 103v387z" />
    <glyph glyph-name="i.smcp" unicode="&#xe209;" horiz-adv-x="813" 
d="M485 975v-809q0 -98 205 -103v-63h-569v63q205 4 205 103v809q0 98 -205 102v64h569v-64q-205 -4 -205 -102z" />
    <glyph glyph-name="i.smcp" unicode="&#xf769;" horiz-adv-x="813" 
d="M485 975v-809q0 -98 205 -103v-63h-569v63q205 4 205 103v809q0 98 -205 102v64h569v-64q-205 -4 -205 -102z" />
    <glyph glyph-name="j.smcp" unicode="&#xe20a;" horiz-adv-x="983" 
d="M575 305v670q0 98 -204 102v64h569v-64q-205 -4 -205 -102v-662q0 -153 -102 -243q-103 -90 -263 -90t-254 58t-96 146q0 88 64 119h109v-59q0 -86 46 -138t132 -53q204 0 204 252z" />
    <glyph glyph-name="j.smcp" unicode="&#xf76a;" horiz-adv-x="983" 
d="M575 305v670q0 98 -204 102v64h569v-64q-205 -4 -205 -102v-662q0 -153 -102 -243q-103 -90 -263 -90t-254 58t-96 146q0 88 64 119h109v-59q0 -86 46 -138t132 -53q204 0 204 252z" />
    <glyph glyph-name="k.smcp" unicode="&#xe20b;" horiz-adv-x="1366" 
d="M485 975v-809q0 -98 205 -103v-63h-569v63q205 4 205 103v809q0 98 -205 102v64h569v-64q-205 -4 -205 -102zM991 1030q0 24 -26 36q-27 11 -105 11v64h418v-64q-72 0 -160 -73l-442 -375l448 -469q54 -56 100 -74t115 -23v-63h-247q-72 37 -168 141l-420 449l444 377
q43 39 43 63z" />
    <glyph glyph-name="k.smcp" unicode="&#xf76b;" horiz-adv-x="1366" 
d="M485 975v-809q0 -98 205 -103v-63h-569v63q205 4 205 103v809q0 98 -205 102v64h569v-64q-205 -4 -205 -102zM991 1030q0 24 -26 36q-27 11 -105 11v64h418v-64q-72 0 -160 -73l-442 -375l448 -469q54 -56 100 -74t115 -23v-63h-247q-72 37 -168 141l-420 449l444 377
q43 39 43 63z" />
    <glyph glyph-name="l.smcp" unicode="&#xe20c;" horiz-adv-x="1243" 
d="M485 975v-785q0 -61 37 -85t121 -23h184q100 0 155 51q54 51 140 205h52l-62 -338h-991v63q205 4 205 103v809q0 98 -205 102v64h569v-64q-205 -4 -205 -102z" />
    <glyph glyph-name="l.smcp" unicode="&#xf76c;" horiz-adv-x="1243" 
d="M485 975v-785q0 -61 37 -85t121 -23h184q100 0 155 51q54 51 140 205h52l-62 -338h-991v63q205 4 205 103v809q0 98 -205 102v64h569v-64q-205 -4 -205 -102z" />
    <glyph glyph-name="m.smcp" unicode="&#xe20d;" horiz-adv-x="1830" 
d="M543 0h-449v63q78 3 118 23t46 70l104 823q0 94 -163 98v64h333q6 -47 27 -97l373 -833l350 833q23 51 27 97h323v-64q-164 -4 -164 -98l105 -823q6 -50 46 -70t118 -23v-63h-508v63q109 3 147 21t37 74q0 23 -8 84l-86 661l-385 -903h-72l-411 905l-84 -663
q-8 -61 -9 -84q0 -54 38 -72t147 -23v-63z" />
    <glyph glyph-name="m.smcp" unicode="&#xf76d;" horiz-adv-x="1830" 
d="M543 0h-449v63q78 3 118 23t46 70l104 823q0 94 -163 98v64h333q6 -47 27 -97l373 -833l350 833q23 51 27 97h323v-64q-164 -4 -164 -98l105 -823q6 -50 46 -70t118 -23v-63h-508v63q109 3 147 21t37 74q0 23 -8 84l-86 661l-385 -903h-72l-411 905l-84 -663
q-8 -61 -9 -84q0 -54 38 -72t147 -23v-63z" />
    <glyph glyph-name="n.smcp" unicode="&#xe20e;" horiz-adv-x="1609" 
d="M1206 975q0 98 -205 102v64h506v-64q-205 -4 -204 -102v-975h-72l-809 950v-784q0 -98 205 -103v-63h-506v63q205 4 205 103v833q-41 49 -82 63t-117 15v64h342l737 -871v705z" />
    <glyph glyph-name="n.smcp" unicode="&#xf76e;" horiz-adv-x="1609" 
d="M1206 975q0 98 -205 102v64h506v-64q-205 -4 -204 -102v-975h-72l-809 950v-784q0 -98 205 -103v-63h-506v63q205 4 205 103v833q-41 49 -82 63t-117 15v64h342l737 -871v705z" />
    <glyph glyph-name="o.smcp" unicode="&#xe20f;" horiz-adv-x="1402" 
d="M1307 594q-1 -272 -179 -443t-443 -171t-427 171t-162 396q0 272 178 443t444 171t427 -171q162 -171 162 -396zM722 80q204 0 308 132t104 347t-124 359q-125 144 -329 143q-204 0 -308 -132q-105 -132 -105 -347q0 -214 125 -358t329 -144z" />
    <glyph glyph-name="o.smcp" unicode="&#xf76f;" horiz-adv-x="1402" 
d="M1307 594q-1 -272 -179 -443t-443 -171t-427 171t-162 396q0 272 178 443t444 171t427 -171q162 -171 162 -396zM722 80q204 0 308 132t104 347t-124 359q-125 144 -329 143q-204 0 -308 -132q-105 -132 -105 -347q0 -214 125 -358t329 -144z" />
    <glyph glyph-name="q.smcp" unicode="&#xe211;" horiz-adv-x="1402" 
d="M722 80q204 0 308 132t104 347t-124 359q-125 144 -329 143q-204 0 -308 -132q-105 -132 -105 -347q0 -214 125 -358t329 -144zM96 547q0 272 178 443t444 171t427 -171q162 -170 162 -402q1 -232 -137 -394t-357 -202l254 -162q70 -45 180 -45h58v-41q-25 -20 -80 -36
t-113 -15q-143 0 -258 102l-205 187q-249 12 -401 180t-152 385z" />
    <glyph glyph-name="q.smcp" unicode="&#xf771;" horiz-adv-x="1402" 
d="M722 80q204 0 308 132t104 347t-124 359q-125 144 -329 143q-204 0 -308 -132q-105 -132 -105 -347q0 -214 125 -358t329 -144zM96 547q0 272 178 443t444 171t427 -171q162 -170 162 -402q1 -232 -137 -394t-357 -202l254 -162q70 -45 180 -45h58v-41q-25 -20 -80 -36
t-113 -15q-143 0 -258 102l-205 187q-249 12 -401 180t-152 385z" />
    <glyph glyph-name="r.smcp" unicode="&#xe212;" horiz-adv-x="1388" 
d="M483 535v-369q0 -98 207 -103v-63h-569v63q205 4 205 103v809q0 98 -205 102v64h571q430 0 430 -305q0 -135 -102 -209t-254 -82q90 -20 182 -131l211 -256q39 -46 84 -66t113 -29v-63h-228q-80 47 -155 139l-254 301q-43 51 -83 73t-99 22h-54zM664 1059h-181v-449h181
q152 0 218 54t66 178q1 217 -284 217z" />
    <glyph glyph-name="r.smcp" unicode="&#xf772;" horiz-adv-x="1388" 
d="M483 535v-369q0 -98 207 -103v-63h-569v63q205 4 205 103v809q0 98 -205 102v64h571q430 0 430 -305q0 -135 -102 -209t-254 -82q90 -20 182 -131l211 -256q39 -46 84 -66t113 -29v-63h-228q-80 47 -155 139l-254 301q-43 51 -83 73t-99 22h-54zM664 1059h-181v-449h181
q152 0 218 54t66 178q1 217 -284 217z" />
    <glyph glyph-name="s.smcp" unicode="&#xe213;" horiz-adv-x="1064" 
d="M498 -20q-104 0 -202 28t-153 76l-14 287h51q86 -299 330 -299q274 0 274 207q0 84 -44 130t-150 78l-180 56q-133 41 -204 113t-71 202q-1 131 105 217t282 86q109 1 207 -29t156 -75v-266h-54q-35 145 -107 211t-198 67q-242 0 -241 -190q0 -82 41 -125t129 -70
l188 -57q293 -88 293 -326q0 -157 -118 -239t-320 -82z" />
    <glyph glyph-name="s.smcp" unicode="&#xf773;" horiz-adv-x="1064" 
d="M498 -20q-104 0 -202 28t-153 76l-14 287h51q86 -299 330 -299q274 0 274 207q0 84 -44 130t-150 78l-180 56q-133 41 -204 113t-71 202q-1 131 105 217t282 86q109 1 207 -29t156 -75v-266h-54q-35 145 -107 211t-198 67q-242 0 -241 -190q0 -82 41 -125t129 -70
l188 -57q293 -88 293 -326q0 -157 -118 -239t-320 -82z" />
    <glyph glyph-name="t.smcp" unicode="&#xe214;" horiz-adv-x="1257" 
d="M549 166v895h-164q-78 0 -127 -31t-139 -215h-49l24 326h1069l25 -326h-49q-88 182 -134 210q-61 36 -133 36h-163v-895q0 -98 204 -103v-63h-569v63q205 5 205 103z" />
    <glyph glyph-name="t.smcp" unicode="&#xf774;" horiz-adv-x="1257" 
d="M549 166v895h-164q-78 0 -127 -31t-139 -215h-49l24 326h1069l25 -326h-49q-88 182 -134 210q-61 36 -133 36h-163v-895q0 -98 204 -103v-63h-569v63q205 5 205 103z" />
    <glyph glyph-name="u.smcp" unicode="&#xe215;" horiz-adv-x="1439" 
d="M1190 975v-588q0 -184 -136 -296q-136 -111 -339 -111t-334 110t-131 311v574q0 98 -205 102v64h569v-64q-205 -4 -204 -102v-535q0 -172 89 -265t245 -93t252 88q97 88 98 272v533q0 98 -205 102v64h506v-64q-205 -4 -205 -102z" />
    <glyph glyph-name="u.smcp" unicode="&#xf775;" horiz-adv-x="1439" 
d="M1190 975v-588q0 -184 -136 -296q-136 -111 -339 -111t-334 110t-131 311v574q0 98 -205 102v64h569v-64q-205 -4 -204 -102v-535q0 -172 89 -265t245 -93t252 88q97 88 98 272v533q0 98 -205 102v64h506v-64q-205 -4 -205 -102z" />
    <glyph glyph-name="v.smcp" unicode="&#xe216;" horiz-adv-x="1331" 
d="M1042 1013q0 32 -37 46q-38 14 -133 18v64h418v-64q-96 0 -119 -51l-458 -1038h-49l-504 1038q-25 51 -119 51v64h487v-64q-94 -4 -132 -18t-38 -46t19 -73l338 -729l309 729q18 41 18 73z" />
    <glyph glyph-name="v.smcp" unicode="&#xf776;" horiz-adv-x="1331" 
d="M1042 1013q0 32 -37 46q-38 14 -133 18v64h418v-64q-96 0 -119 -51l-458 -1038h-49l-504 1038q-25 51 -119 51v64h487v-64q-94 -4 -132 -18t-38 -46t19 -73l338 -729l309 729q18 41 18 73z" />
    <glyph glyph-name="w.smcp" unicode="&#xe217;" horiz-adv-x="1828" 
d="M41 1077v64h473v-64q-94 -4 -132 -18t-38 -46t18 -73l302 -709l235 553l-98 242q-23 51 -119 51v64h469v-64q-94 -4 -132 -18t-38 -51q0 -18 18 -70l279 -702l256 702q18 51 18 79t-38 42t-132 18v64h406v-64q-98 0 -119 -51l-395 -1038h-45l-287 692l-299 -692h-45
l-438 1038q-23 51 -119 51z" />
    <glyph glyph-name="w.smcp" unicode="&#xf777;" horiz-adv-x="1828" 
d="M41 1077v64h473v-64q-94 -4 -132 -18t-38 -46t18 -73l302 -709l235 553l-98 242q-23 51 -119 51v64h469v-64q-94 -4 -132 -18t-38 -51q0 -18 18 -70l279 -702l256 702q18 51 18 79t-38 42t-132 18v64h406v-64q-98 0 -119 -51l-395 -1038h-45l-287 692l-299 -692h-45
l-438 1038q-23 51 -119 51z" />
    <glyph glyph-name="y.smcp" unicode="&#xe219;" horiz-adv-x="1241" 
d="M549 166v293l-389 567q-35 51 -119 51v64h496v-64q-174 0 -175 -69q0 -29 21 -62l270 -401l269 399q23 35 22 64q0 70 -176 69v64h432v-64q-82 0 -119 -51l-381 -565v-295q0 -98 205 -103v-63h-561v63q205 5 205 103z" />
    <glyph glyph-name="y.smcp" unicode="&#xf779;" horiz-adv-x="1241" 
d="M549 166v293l-389 567q-35 51 -119 51v64h496v-64q-174 0 -175 -69q0 -29 21 -62l270 -401l269 399q23 35 22 64q0 70 -176 69v64h432v-64q-82 0 -119 -51l-381 -565v-295q0 -98 205 -103v-63h-561v63q205 5 205 103z" />
    <glyph glyph-name="z.smcp" unicode="&#xe21a;" horiz-adv-x="1232" 
d="M1073 1141v-33l-760 -1026h463q98 0 145 44q46 44 144 208h47l-61 -334h-951v37l754 1022h-420q-92 0 -138 -46t-95 -159h-49l6 287h915z" />
    <glyph glyph-name="z.smcp" unicode="&#xf77a;" horiz-adv-x="1232" 
d="M1073 1141v-33l-760 -1026h463q98 0 145 44q46 44 144 208h47l-61 -334h-951v37l754 1022h-420q-92 0 -138 -46t-95 -159h-49l6 287h915z" />
    <glyph glyph-name="anocross.smcp" unicode="&#xe220;" horiz-adv-x="1355" 
d="M285 128q0 -32 38 -46t132 -19v-63h-414v63q96 0 119 52l407 950l-41 90h179l491 -1038q27 -53 119 -54v-63h-488v63q94 5 132 19t38 46t-18 73l-352 768l-324 -768q-18 -41 -18 -73z" />
    <glyph glyph-name="aacute.smcp" unicode="&#xe221;" horiz-adv-x="1355" 
d="M627 969l-217 -514h452zM285 128q0 -32 38 -46t132 -19v-63h-414v63q96 0 119 52l407 950l-41 90h179l491 -1038q27 -53 119 -54v-63h-488v63q94 5 132 19t38 46t-18 73l-80 172h-524l-72 -172q-18 -41 -18 -73zM764 1673h207l-305 -426h-68z" />
    <glyph glyph-name="aacute.smcp" unicode="&#xf7e1;" horiz-adv-x="1355" 
d="M627 969l-217 -514h452zM285 128q0 -32 38 -46t132 -19v-63h-414v63q96 0 119 52l407 950l-41 90h179l491 -1038q27 -53 119 -54v-63h-488v63q94 5 132 19t38 46t-18 73l-80 172h-524l-72 -172q-18 -41 -18 -73zM764 1673h207l-305 -426h-68z" />
    <glyph glyph-name="agrave.smcp" unicode="&#xe222;" horiz-adv-x="1355" 
d="M303 1673h201l172 -426h-68zM627 969l-217 -514h452zM285 128q0 -32 38 -46t132 -19v-63h-414v63q96 0 119 52l407 950l-41 90h179l491 -1038q27 -53 119 -54v-63h-488v63q94 5 132 19t38 46t-18 73l-80 172h-524l-72 -172q-18 -41 -18 -73z" />
    <glyph glyph-name="agrave.smcp" unicode="&#xf7e0;" horiz-adv-x="1355" 
d="M303 1673h201l172 -426h-68zM627 969l-217 -514h452zM285 128q0 -32 38 -46t132 -19v-63h-414v63q96 0 119 52l407 950l-41 90h179l491 -1038q27 -53 119 -54v-63h-488v63q94 5 132 19t38 46t-18 73l-80 172h-524l-72 -172q-18 -41 -18 -73z" />
    <glyph glyph-name="acircumflex.smcp" unicode="&#xe223;" horiz-adv-x="1355" 
d="M627 969l-217 -514h452zM285 128q0 -32 38 -46t132 -19v-63h-414v63q96 0 119 52l407 950l-41 90h179l491 -1038q27 -53 119 -54v-63h-488v63q94 5 132 19t38 46t-18 73l-80 172h-524l-72 -172q-18 -41 -18 -73zM715 1673l303 -426h-70l-291 275l-290 -275h-70l303 426
h115z" />
    <glyph glyph-name="acircumflex.smcp" unicode="&#xf7e2;" horiz-adv-x="1355" 
d="M627 969l-217 -514h452zM285 128q0 -32 38 -46t132 -19v-63h-414v63q96 0 119 52l407 950l-41 90h179l491 -1038q27 -53 119 -54v-63h-488v63q94 5 132 19t38 46t-18 73l-80 172h-524l-72 -172q-18 -41 -18 -73zM715 1673l303 -426h-70l-291 275l-290 -275h-70l303 426
h115z" />
    <glyph glyph-name="adieresis.smcp" unicode="&#xe224;" horiz-adv-x="1355" 
d="M627 969l-217 -514h452zM285 128q0 -32 38 -46t132 -19v-63h-414v63q96 0 119 52l407 950l-41 90h179l491 -1038q27 -53 119 -54v-63h-488v63q94 5 132 19t38 46t-18 73l-80 172h-524l-72 -172q-18 -41 -18 -73zM713 1450q0 47 33 82q34 35 81 35t82 -35t35 -82t-35 -81
t-82 -34t-81 34q-33 34 -33 81zM305 1450q0 47 34 82t81 35t82 -35t35 -82t-35 -81t-82 -34t-81 34t-34 81z" />
    <glyph glyph-name="adieresis.smcp" unicode="&#xf7e4;" horiz-adv-x="1355" 
d="M627 969l-217 -514h452zM285 128q0 -32 38 -46t132 -19v-63h-414v63q96 0 119 52l407 950l-41 90h179l491 -1038q27 -53 119 -54v-63h-488v63q94 5 132 19t38 46t-18 73l-80 172h-524l-72 -172q-18 -41 -18 -73zM713 1450q0 47 33 82q34 35 81 35t82 -35t35 -82t-35 -81
t-82 -34t-81 34q-33 34 -33 81zM305 1450q0 47 34 82t81 35t82 -35t35 -82t-35 -81t-82 -34t-81 34t-34 81z" />
    <glyph glyph-name="atilde.smcp" unicode="&#xe225;" horiz-adv-x="1355" 
d="M782 1284q-72 0 -173 60t-148 61t-74 -19t-63 -88l-68 11q80 215 254 215q72 0 173 -62t148 -61q47 0 74 19t64 87l67 -8q-78 -215 -254 -215zM627 969l-217 -514h452zM285 128q0 -32 38 -46t132 -19v-63h-414v63q96 0 119 52l407 950l-41 90h179l491 -1038
q27 -53 119 -54v-63h-488v63q94 5 132 19t38 46t-18 73l-80 172h-524l-72 -172q-18 -41 -18 -73z" />
    <glyph glyph-name="atilde.smcp" unicode="&#xf7e3;" horiz-adv-x="1355" 
d="M782 1284q-72 0 -173 60t-148 61t-74 -19t-63 -88l-68 11q80 215 254 215q72 0 173 -62t148 -61q47 0 74 19t64 87l67 -8q-78 -215 -254 -215zM627 969l-217 -514h452zM285 128q0 -32 38 -46t132 -19v-63h-414v63q96 0 119 52l407 950l-41 90h179l491 -1038
q27 -53 119 -54v-63h-488v63q94 5 132 19t38 46t-18 73l-80 172h-524l-72 -172q-18 -41 -18 -73z" />
    <glyph glyph-name="aring.smcp" unicode="&#xe226;" horiz-adv-x="1355" 
d="M627 969l-217 -514h452zM285 128q0 -32 38 -46t132 -19v-63h-414v63q96 0 119 52l407 950l-41 90h179l491 -1038q27 -53 119 -54v-63h-488v63q94 5 132 19t38 46t-18 73l-80 172h-524l-72 -172q-18 -41 -18 -73zM762 1454q0 68 -33 111t-97 43t-97 -43t-33 -111t33 -110
t97 -41q64 -1 98 41q32 42 32 110zM401 1454q0 98 65 166t165 68t165 -68q64 -68 64 -166t-64 -166t-165 -68q-100 0 -165 68t-65 166z" />
    <glyph glyph-name="aring.smcp" unicode="&#xf7e5;" horiz-adv-x="1355" 
d="M627 969l-217 -514h452zM285 128q0 -32 38 -46t132 -19v-63h-414v63q96 0 119 52l407 950l-41 90h179l491 -1038q27 -53 119 -54v-63h-488v63q94 5 132 19t38 46t-18 73l-80 172h-524l-72 -172q-18 -41 -18 -73zM762 1454q0 68 -33 111t-97 43t-97 -43t-33 -111t33 -110
t97 -41q64 -1 98 41q32 42 32 110zM401 1454q0 98 65 166t165 68t165 -68q64 -68 64 -166t-64 -166t-165 -68q-100 0 -165 68t-65 166z" />
    <glyph glyph-name="amacron.smcp" unicode="&#xe228;" horiz-adv-x="1355" 
d="M627 969l-217 -514h452zM285 128q0 -32 38 -46t132 -19v-63h-414v63q96 0 119 52l407 950l-41 90h179l491 -1038q27 -53 119 -54v-63h-488v63q94 5 132 19t38 46t-18 73l-80 172h-524l-72 -172q-18 -41 -18 -73zM360 1370v107h541v-107h-541z" />
    <glyph glyph-name="amacron.smcp" unicode="&#xf641;" horiz-adv-x="1355" 
d="M627 969l-217 -514h452zM285 128q0 -32 38 -46t132 -19v-63h-414v63q96 0 119 52l407 950l-41 90h179l491 -1038q27 -53 119 -54v-63h-488v63q94 5 132 19t38 46t-18 73l-80 172h-524l-72 -172q-18 -41 -18 -73zM360 1370v107h541v-107h-541z" />
    <glyph glyph-name="abreve.smcp" unicode="&#xe229;" horiz-adv-x="1355" 
d="M657 1266q-354 0 -354 407h74q16 -151 93 -219q78 -68 188 -68t187 68t93 219h74q-1 -407 -355 -407zM627 969l-217 -514h452zM285 128q0 -32 38 -46t132 -19v-63h-414v63q96 0 119 52l407 950l-41 90h179l491 -1038q27 -53 119 -54v-63h-488v63q94 5 132 19t38 46
t-18 73l-80 172h-524l-72 -172q-18 -41 -18 -73z" />
    <glyph glyph-name="abreve.smcp" unicode="&#xf640;" horiz-adv-x="1355" 
d="M657 1266q-354 0 -354 407h74q16 -151 93 -219q78 -68 188 -68t187 68t93 219h74q-1 -407 -355 -407zM627 969l-217 -514h452zM285 128q0 -32 38 -46t132 -19v-63h-414v63q96 0 119 52l407 950l-41 90h179l491 -1038q27 -53 119 -54v-63h-488v63q94 5 132 19t38 46
t-18 73l-80 172h-524l-72 -172q-18 -41 -18 -73z" />
    <glyph glyph-name="aogonek.smcp" unicode="&#xe22f;" horiz-adv-x="1355" 
d="M627 969l-217 -514h452zM827 0v63q94 5 132 19t38 46t-18 73l-80 172h-524l-72 -172q-18 -41 -18 -73t38 -46t132 -19v-63h-414v63q96 0 119 52l407 950l-41 90h179l491 -1038q27 -53 119 -54v-63q-262 -80 -262 -264q0 -70 44 -111q43 -41 113 -41t140 31l22 -45
q-82 -82 -198 -82t-182 57q-67 57 -66 172q0 183 233 283h-332z" />
    <glyph glyph-name="aogonek.smcp" unicode="&#xf642;" horiz-adv-x="1355" 
d="M627 969l-217 -514h452zM827 0v63q94 5 132 19t38 46t-18 73l-80 172h-524l-72 -172q-18 -41 -18 -73t38 -46t132 -19v-63h-414v63q96 0 119 52l407 950l-41 90h179l491 -1038q27 -53 119 -54v-63q-262 -80 -262 -264q0 -70 44 -111q43 -41 113 -41t140 31l22 -45
q-82 -82 -198 -82t-182 57q-67 57 -66 172q0 183 233 283h-332z" />
    <glyph glyph-name="edieresis.smcp" unicode="&#xe230;" horiz-adv-x="1323" 
d="M799 633q102 0 112 149h58v-379h-58q-12 150 -112 150h-314v-363q0 -63 36 -86t122 -22h205q96 0 147 48t138 189h45l-56 -319h-1001v63q205 4 205 103v809q0 98 -205 102v64h995l4 -264h-41q-47 111 -95 147t-146 35h-353v-426h314zM750 1450q0 47 33 82q34 35 81 35
t82 -35t35 -82t-35 -81t-82 -34t-81 34q-33 34 -33 81zM342 1450q0 47 34 82t81 35t82 -35t35 -82t-36 -81q-34 -34 -81 -34t-81 34t-34 81z" />
    <glyph glyph-name="edieresis.smcp" unicode="&#xf7eb;" horiz-adv-x="1323" 
d="M799 633q102 0 112 149h58v-379h-58q-12 150 -112 150h-314v-363q0 -63 36 -86t122 -22h205q96 0 147 48t138 189h45l-56 -319h-1001v63q205 4 205 103v809q0 98 -205 102v64h995l4 -264h-41q-47 111 -95 147t-146 35h-353v-426h314zM750 1450q0 47 33 82q34 35 81 35
t82 -35t35 -82t-35 -81t-82 -34t-81 34q-33 34 -33 81zM342 1450q0 47 34 82t81 35t82 -35t35 -82t-36 -81q-34 -34 -81 -34t-81 34t-34 81z" />
    <glyph glyph-name="ae.smcp" unicode="&#xe231;" horiz-adv-x="1835" 
d="M733 995l-305 -573h420l-111 573h-4zM1311 633q102 0 112 149h58v-379h-58q-12 150 -112 150h-320l74 -389q8 -37 37 -60t67 -22h191q96 0 147 48t138 189h45l-56 -319h-925v57q100 -1 144 17t44 76q0 27 -12 83l-23 109h-477l-74 -141q-18 -33 -18 -69t38 -50t132 -19
v-63h-422v63q92 0 119 52l493 934q-53 23 -159 28v64h1134l4 -264h-41q-47 111 -95 147t-146 35h-457l84 -426h334z" />
    <glyph glyph-name="ae.smcp" unicode="&#xf7e6;" horiz-adv-x="1835" 
d="M733 995l-305 -573h420l-111 573h-4zM1311 633q102 0 112 149h58v-379h-58q-12 150 -112 150h-320l74 -389q8 -37 37 -60t67 -22h191q96 0 147 48t138 189h45l-56 -319h-925v57q100 -1 144 17t44 76q0 27 -12 83l-23 109h-477l-74 -141q-18 -33 -18 -69t38 -50t132 -19
v-63h-422v63q92 0 119 52l493 934q-53 23 -159 28v64h1134l4 -264h-41q-47 111 -95 147t-146 35h-457l84 -426h334z" />
    <glyph glyph-name="cacute.smcp" unicode="&#xe234;" horiz-adv-x="1261" 
d="M717 76q162 0 253 68t146 218h49l-30 -290q-195 -92 -457 -92t-422 166t-160 401q0 274 175 444t423 170t410 -108l4 -258h-49q-59 150 -147 210t-230 60q-209 0 -311 -132q-103 -132 -103 -340q0 -209 116 -363t333 -154zM821 1673h207l-305 -426h-68z" />
    <glyph glyph-name="cacute.smcp" unicode="&#xf643;" horiz-adv-x="1261" 
d="M717 76q162 0 253 68t146 218h49l-30 -290q-195 -92 -457 -92t-422 166t-160 401q0 274 175 444t423 170t410 -108l4 -258h-49q-59 150 -147 210t-230 60q-209 0 -311 -132q-103 -132 -103 -340q0 -209 116 -363t333 -154zM821 1673h207l-305 -426h-68z" />
    <glyph glyph-name="ccircumflex.smcp" unicode="&#xe235;" horiz-adv-x="1261" 
d="M717 76q162 0 253 68t146 218h49l-30 -290q-195 -92 -457 -92t-422 166t-160 401q0 274 175 444t423 170t410 -108l4 -258h-49q-59 150 -147 210t-230 60q-209 0 -311 -132q-103 -132 -103 -340q0 -209 116 -363t333 -154zM748 1673l303 -426h-70l-291 275l-291 -275h-69
l303 426h115z" />
    <glyph glyph-name="ccircumflex.smcp" unicode="&#xf628;" horiz-adv-x="1261" 
d="M717 76q162 0 253 68t146 218h49l-30 -290q-195 -92 -457 -92t-422 166t-160 401q0 274 175 444t423 170t410 -108l4 -258h-49q-59 150 -147 210t-230 60q-209 0 -311 -132q-103 -132 -103 -340q0 -209 116 -363t333 -154zM748 1673l303 -426h-70l-291 275l-291 -275h-69
l303 426h115z" />
    <glyph glyph-name="ccaron.smcp" unicode="&#xe236;" horiz-adv-x="1261" 
d="M717 76q162 0 253 68t146 218h49l-30 -290q-195 -92 -457 -92t-422 166t-160 401q0 274 175 444t423 170t410 -108l4 -258h-49q-59 150 -147 210t-230 60q-209 0 -311 -132q-103 -132 -103 -340q0 -209 116 -363t333 -154zM633 1247l-303 426h69l291 -274l291 274h70
l-303 -426h-115z" />
    <glyph glyph-name="ccaron.smcp" unicode="&#xf644;" horiz-adv-x="1261" 
d="M717 76q162 0 253 68t146 218h49l-30 -290q-195 -92 -457 -92t-422 166t-160 401q0 274 175 444t423 170t410 -108l4 -258h-49q-59 150 -147 210t-230 60q-209 0 -311 -132q-103 -132 -103 -340q0 -209 116 -363t333 -154zM633 1247l-303 426h69l291 -274l291 274h70
l-303 -426h-115z" />
    </font>
</defs>
</svg>
