<?xml version="1.0" standalone="no"?>
<!DOCTYPE svg PUBLIC "-//W3C//DTD SVG 1.1//EN" "http://www.w3.org/Graphics/SVG/1.1/DTD/svg11.dtd" >
<svg xmlns="http://www.w3.org/2000/svg">
<metadata>
Created by FontPrep 20130207 at Sat Apr 25 19:03:46 2015
 By Andrew Poes
Copyright 2013 Adobe Systems Incorporated. All rights reserved.
</metadata>
<defs>
<font id="892e242754ca2307d4c2568b48c92272" horiz-adv-x='1024' >
  <font-face 
    font-family="SharpSansNoTwo-RegularItalic"
    font-weight="400"
    font-style="italic"
    font-stretch="normal"
    units-per-em="2048"
    panose-1="1 0 0 0 0 0 0 0 0 0"
    ascent="1536"
    descent="-512"
    x-height="1024"
    cap-height="1495"
    bbox="-281 -563 2702.99 2216"
    underline-thickness="102"
    underline-position="-102"
    unicode-range="U+0020-FF3F"
  />
<missing-glyph horiz-adv-x="0" 
 />
    <glyph glyph-name=".notdef" horiz-adv-x="0" 
 />
    <glyph glyph-name=".null" horiz-adv-x="0" 
 />
    <glyph glyph-name="nonmarkingreturn" horiz-adv-x="681" 
 />
    <glyph glyph-name="space" unicode=" " horiz-adv-x="518" 
 />
    <glyph glyph-name="exclam" unicode="!" horiz-adv-x="471" 
d="M76 0l49 281h119l-49 -281h-119zM172 414q37 346 125 841l41 240h119l-41 -240q-86 -483 -174 -841h-70z" />
    <glyph glyph-name="quotedbl" unicode="&#x22;" horiz-adv-x="559" 
d="M451 1024q-4 123 22 299l31 172h96l-31 -172q-20 -133 -80 -299h-38zM231 1024q-4 123 23 299l31 172h96l-31 -172q-20 -133 -80 -299h-39z" />
    <glyph glyph-name="numbersign" unicode="#" horiz-adv-x="1685" 
d="M700 981l-79 -451h454l80 451h-455zM983 0l74 418h-455l-74 -418h-118l73 418h-405l20 112h404l80 451h-406l21 113h403l72 401h119l-72 -401h455l71 401h119l-72 -401h402l-21 -113h-399l-80 -451h401l-20 -112h-399l-74 -418h-119z" />
    <glyph glyph-name="dollar" unicode="$" horiz-adv-x="1222" 
d="M719 1411q-137 -3 -223 -67t-105 -167q-18 -103 45 -173t189 -132zM592 88q152 0 252 72t121 196q20 125 -52 205t-213 150zM584 -20h-11l-32 -189h-105l35 199q-180 32 -291 152t-94 296h117q-11 -129 69 -222t217 -120l117 658q-86 42 -138 72t-112 83
q-115 103 -86 283q25 145 148 234t315 90h4l33 182h104l-34 -193q158 -29 254 -133t84 -260h-113q8 123 -60 195q-69 72 -184 94l-100 -574q239 -109 312 -220t48 -274t-157 -258t-340 -95z" />
    <glyph glyph-name="percent" unicode="%" horiz-adv-x="1732" 
d="M1204 78q102 0 175 60t89 158t-46 182q-62 83 -164 83t-174 -61q-71 -62 -88 -160t45 -180q61 -82 163 -82zM1196 -23q-144 0 -234 113t-66 255q26 142 128 228t244 86q142 1 233 -113t67 -255t-126 -228q-102 -86 -246 -86zM560 934q102 0 174 60q73 60 89 160t-46 181
q-63 82 -165 82t-173 -61q-71 -60 -88 -160t45 -181t164 -81zM550 834q-144 0 -234 114q-91 114 -66 254q25 142 128 228q102 86 244 86t234 -114t66 -255t-126 -227q-102 -86 -246 -86zM63 0l1547 1495h151l-1546 -1495h-152z" />
    <glyph glyph-name="ampersand" unicode="&#x26;" horiz-adv-x="1562" 
d="M630 82q218 0 404 139l-409 506q-57 70 -84 107q-141 -58 -223 -140t-104 -222t88 -266q110 -124 328 -124zM614 -23q-143 1 -253 47q-111 46 -169 122q-123 158 -94 350q47 276 383 422q-98 158 -73 294q18 132 127 218t264 86t251 -90t89 -232q0 -25 -2 -33l-115 2
l2 31q4 109 -63 164t-169 53t-177 -57q-75 -54 -91 -144t29 -176t164 -237l405 -500q195 190 260 457h-348l21 110h465l-11 -57q-27 -155 -109 -311t-208 -277l178 -219h-147l-119 143q-223 -166 -490 -166z" />
    <glyph glyph-name="quotesingle" unicode="'" horiz-adv-x="339" 
d="M270 1024h-39q-4 123 23 299l31 172h96l-31 -172q-21 -133 -80 -299z" />
    <glyph glyph-name="parenleft" unicode="(" horiz-adv-x="892" 
d="M662 -498q-285 146 -436 436t-103 644q55 348 293 590t569 325l-22 -125q-281 -76 -478 -284t-245 -517q-41 -313 83 -562t357 -380z" />
    <glyph glyph-name="parenright" unicode=")" horiz-adv-x="913" 
d="M-76 -496l21 125q283 76 479 285t246 518q43 317 -78 567t-361 375l21 127q282 -147 434 -439t100 -641t-288 -591q-238 -242 -574 -326z" />
    <glyph glyph-name="asterisk" unicode="*" horiz-adv-x="870" 
d="M776 907l-225 183l-29 -320h-108l86 322l-295 -187l-39 94l315 136l-266 137l70 92l229 -186l27 317h108l-82 -315l289 182l41 -94l-315 -133l264 -134z" />
    <glyph glyph-name="plus" unicode="+" horiz-adv-x="948" 
d="M113 696l18 103h330l57 325h100l-57 -325h328l-19 -103h-327l-58 -329h-100l57 329h-329z" />
    <glyph glyph-name="comma" unicode="," horiz-adv-x="362" 
d="M-68 -240l162 418h113l-199 -418h-76z" />
    <glyph glyph-name="hyphen" unicode="-" horiz-adv-x="948" 
d="M90 473l19 100h757l-18 -100h-758z" />
    <glyph glyph-name="period" unicode="." horiz-adv-x="362" 
d="M18 0l52 281h116l-49 -281h-119z" />
    <glyph glyph-name="slash" unicode="/" horiz-adv-x="921" 
d="M-59 0l968 1495h131l-968 -1495h-131z" />
    <glyph glyph-name="zero" unicode="0" 
d="M571 84q145 0 242 91q96 91 123 243l98 565q33 186 -44 307t-246 121t-267 -92t-125 -248l-98 -567q-31 -176 51 -298t266 -122zM565 -20q-243 0 -357 154t-73 382l101 567q35 195 162 314q128 119 352 119t332 -156q110 -156 69 -389l-100 -565q-35 -194 -159 -310
t-327 -116z" />
    <glyph glyph-name="one" unicode="1" 
d="M401 1128h-22l22 121h11q135 0 213 76t94 170h112l-243 -1384h426l-19 -111h-964l16 111h422l205 1159q-37 -58 -114 -100t-159 -42z" />
    <glyph glyph-name="two" unicode="2" 
d="M743 1413q-163 0 -273 -88t-134 -258q0 -8 -2 -8h-113q23 217 167 338t358 120t336 -120t91 -292t-193 -306q-86 -72 -148 -113t-176 -112q-114 -70 -170 -110q-189 -130 -246 -221q-39 -60 -52 -126l-2 -4h824l-21 -113h-946l20 121q33 179 245 349q114 90 320 218
q206 127 287 201q121 109 144 231t-65 207q-88 86 -251 86z" />
    <glyph glyph-name="three" unicode="3" 
d="M526 -20q-210 0 -324 131t-87 317h114q-20 -160 72 -252q91 -92 247 -91t262 80q105 79 130 222q26 143 -68 239t-260 97h-151l16 108h146q159 0 277 76t140 208t-75 217t-259 85t-259 -87t-113 -238q-2 -6 -2 -9h-115q16 201 145 317q130 116 348 116t346 -119t95 -301
q-20 -115 -103 -200t-212 -126q125 -51 184 -159t35 -249q-31 -178 -175 -280t-354 -102z" />
    <glyph glyph-name="four" unicode="4" 
d="M207 471h584l143 827zM709 0l63 365h-713l13 108l897 1022h118l-180 -1024h219l-20 -106h-217l-64 -365h-116z" />
    <glyph glyph-name="five" unicode="5" 
d="M537 -20q-211 0 -335 132t-93 345h118q-27 -169 65 -269t247 -101q157 -1 277 95t160 264t-51 299t-283 131t-318 -136q-25 -26 -58 -64l-104 37l233 782h828l-19 -111h-725l-164 -534q150 133 369 132t337 -166q117 -165 69 -379q-48 -213 -195 -335t-358 -122z" />
    <glyph glyph-name="six" unicode="6" 
d="M567 84q141 0 254 95t141 250t-70 286t-274 131q-143 0 -256 -98t-137 -244q-31 -168 67 -294t275 -126zM1071 406q-35 -184 -174 -304t-352 -121t-342 157t-90 378q25 147 118 266l596 713h144l-492 -577q80 27 162 26q217 0 342 -162t88 -376z" />
    <glyph glyph-name="seven" unicode="7" 
d="M207 0l887 1384h-818l21 111h946l-18 -102l-883 -1393h-135z" />
    <glyph glyph-name="eight" unicode="8" 
d="M669 846q138 0 239 73t123 197t-59 209q-80 86 -228 86t-240 -72q-92 -71 -114 -195t60 -211t219 -87zM624 743q-166 0 -276 -86t-132 -226q-24 -139 66 -241t262 -102q173 0 278 84t129 225t-69 243q-92 102 -258 103zM541 -20q-223 0 -348 134t-91 335q20 125 110 221
t224 143q-86 53 -130 145t-23 211q27 154 150 250q125 97 317 97t307 -123t86 -293q-20 -117 -97 -199t-186 -121q106 -59 166 -167t39 -232q-31 -177 -166 -289t-358 -112z" />
    <glyph glyph-name="nine" unicode="9" 
d="M668 639q145 0 259 98q115 98 143 257t-72 288t-262 129q-160 0 -273 -96t-141 -254t68 -290q98 -132 278 -132zM328 0l481 567q-72 -27 -164 -26q-219 1 -346 161t-88 381q35 187 175 309t355 123t346 -161t91 -383q-25 -158 -127 -277l-580 -694h-143z" />
    <glyph glyph-name="colon" unicode=":" horiz-adv-x="362" 
d="M152 743l49 281h116l-49 -281h-116zM18 0l52 281h116l-49 -281h-119z" />
    <glyph glyph-name="semicolon" unicode=";" horiz-adv-x="362" 
d="M-68 -240l162 418h113l-199 -418h-76zM152 743l49 281h116l-49 -281h-116z" />
    <glyph glyph-name="less" unicode="&#x3c;" horiz-adv-x="948" 
d="M819 401l-704 299l18 101l809 291l-20 -109l-674 -235l592 -242z" />
    <glyph glyph-name="equal" unicode="=" horiz-adv-x="948" 
d="M84 528l18 101h758l-18 -101h-758zM143 858l19 103h758l-19 -103h-758z" />
    <glyph glyph-name="greater" unicode="&#x3e;" horiz-adv-x="948" 
d="M63 401l21 111l672 233l-588 242l18 103l703 -297l-19 -101z" />
    <glyph glyph-name="question" unicode="?" horiz-adv-x="1101" 
d="M356 0l50 281h118l-49 -281h-119zM668 1413q-136 0 -231 -85t-111 -226h-119q25 198 157 306t318 108t306 -115q122 -115 91 -284t-195 -269q-69 -43 -138 -91q-68 -48 -126 -136t-81 -213l-4 -17h-109q15 124 65 222t104 147q106 96 223 169t142 198q24 126 -66 206
t-226 80z" />
    <glyph glyph-name="at" unicode="@" horiz-adv-x="1730" 
d="M794 242q102 0 178 76q74 76 104 187t-14 189t-152 78t-195 -87t-105 -195t32 -178t152 -70zM803 -276q-354 0 -548 252t-132 606q53 298 287 490t550 192q318 0 517 -226t143 -518q-27 -162 -115 -274t-233 -111q-88 0 -143 43q-54 43 -70 111q-109 -154 -289 -154
q-145 -1 -221 105t-50 257q25 151 141 265t271 112q86 0 145 -41q58 -42 81 -108l30 137h107l-94 -370q-68 -248 106 -248q84 0 148 88q63 88 82 205q47 246 -114 435q-162 189 -438 189t-482 -169t-251 -423q-35 -190 21 -359t204 -277t357 -107q322 0 498 248h129
q-90 -164 -263 -257t-374 -93z" />
    <glyph glyph-name="A" unicode="A" horiz-adv-x="1404" 
d="M858 1337l-452 -807h612zM-18 0l841 1495h119l303 -1495h-121l-84 418h-698l-233 -418h-127z" />
    <glyph glyph-name="B" unicode="B" horiz-adv-x="1320" 
d="M854 1389h-426l-100 -570h485q125 0 215 76q90 77 110 193t-61 208q-80 92 -223 93zM782 715h-473l-106 -604h502q143 1 241 79t121 207t-61 224q-85 94 -224 94zM868 1495q194 0 304 -128t79 -294q-18 -109 -87 -193t-175 -126q109 -50 165 -152t32 -229
q-29 -165 -163 -269t-327 -104h-633l263 1495h542z" />
    <glyph glyph-name="C" unicode="C" horiz-adv-x="1708" 
d="M858 -20q-354 0 -555 250t-139 601q52 297 286 491t539 194q265 0 455 -152t225 -401h-127q-32 195 -184 317t-392 123q-240 0 -441 -167q-200 -167 -244 -421q-51 -287 117 -505t474 -218q201 0 368 110t241 296h131q-90 -244 -292 -381t-462 -137z" />
    <glyph glyph-name="D" unicode="D" horiz-adv-x="1441" 
d="M688 1386h-262l-223 -1275h350q258 -1 453 163q196 164 242 438t-116 474q-163 200 -444 200zM545 0h-482l263 1495h381q325 -4 521 -241t140 -554q-56 -316 -284 -508t-539 -192z" />
    <glyph glyph-name="E" unicode="E" horiz-adv-x="1193" 
d="M63 0l263 1495h915l-20 -111h-795l-100 -569h796l-20 -110h-795l-104 -594h794l-18 -111h-916z" />
    <glyph glyph-name="F" unicode="F" horiz-adv-x="1118" 
d="M63 0l263 1495h845l-18 -111h-727l-102 -579h727l-21 -113h-725l-121 -692h-121z" />
    <glyph glyph-name="G" unicode="G" horiz-adv-x="1734" 
d="M872 -20q-236 0 -414 118t-255 316q-78 197 -39 420q51 294 281 488t540 194q252 0 441 -142t241 -377h-125q-51 188 -207 297t-362 109q-258 0 -453 -166t-239 -418q-33 -186 30 -352t215 -269t357 -104q262 0 434 161t219 409h-655l20 110h776l-6 -39
q-39 -327 -253 -541t-546 -214z" />
    <glyph glyph-name="H" unicode="H" horiz-adv-x="1345" 
d="M981 0l121 692h-797l-121 -692h-121l263 1495h120l-120 -690h796l121 690h119l-262 -1495h-119z" />
    <glyph glyph-name="I" unicode="I" horiz-adv-x="466" 
d="M84 0l262 1495h119l-262 -1495h-119z" />
    <glyph glyph-name="J" unicode="J" horiz-adv-x="978" 
d="M396 -20q-177 0 -273 108t-74 279h119q-16 -127 42 -202t186 -75t208 80t101 207l198 1118h119l-197 -1108q-33 -190 -142 -299q-110 -108 -287 -108z" />
    <glyph glyph-name="K" unicode="K" horiz-adv-x="1327" 
d="M1053 0l-398 811l-395 -373l-76 -438h-121l263 1495h120l-155 -891l944 891h156l-643 -608l434 -887h-129z" />
    <glyph glyph-name="L" unicode="L" horiz-adv-x="1099" 
d="M63 0l263 1495h120l-243 -1382h708l-18 -113h-830z" />
    <glyph glyph-name="M" unicode="M" horiz-adv-x="1773" 
d="M63 0l263 1495h108l459 -836l790 836h107l-262 -1495h-119l223 1286l-766 -811l-456 823l-226 -1298h-121z" />
    <glyph glyph-name="N" unicode="N" horiz-adv-x="1464" 
d="M63 0l263 1495h127l682 -1302l229 1302h119l-262 -1495h-117l-690 1313l-230 -1313h-121z" />
    <glyph glyph-name="O" unicode="O" horiz-adv-x="1746" 
d="M874 90q244 0 437 166t237 416q33 182 -26 349q-60 167 -208 275t-353 109q-248 0 -442 -167t-238 -419q-49 -299 123 -514t470 -215zM864 -20q-350 0 -556 252t-144 602q51 298 280 490t523 192q237 0 413 -126t250 -323t35 -412q-53 -297 -279 -486t-522 -189z" />
    <glyph glyph-name="P" unicode="P" horiz-adv-x="1263" 
d="M721 1389h-295l-139 -801h350q190 0 318 104t159 278q32 174 -82 297q-114 122 -311 122zM737 1495q240 0 386 -155q147 -155 109 -378t-200 -353t-399 -130h-365l-84 -479h-121l263 1495h411z" />
    <glyph glyph-name="Q" unicode="Q" horiz-adv-x="1748" 
d="M958 1403q-246 0 -440 -167t-237 -419q-49 -297 121 -511t466 -214q133 0 256 53l78 -90q-162 -76 -342 -75q-350 0 -554 252t-142 602q51 294 283 488t526 194q233 0 408 -125t249 -321t35 -406q-53 -295 -287 -496l146 -168h-150l-530 616h147l312 -362
q199 166 243 416q33 182 -27 349q-61 167 -209 275t-352 109z" />
    <glyph glyph-name="R" unicode="R" horiz-adv-x="1200" 
d="M723 1495q221 1 355 -149t98 -365q-31 -174 -166 -291t-334 -119l332 -571h-138l-376 666h143q163 0 279 96t142 248t-76 263q-102 112 -277 116h-308l-243 -1389h-121l262 1495h428z" />
    <glyph glyph-name="S" unicode="S" horiz-adv-x="1134" 
d="M512 -20q-201 0 -324 120t-96 328h115q-19 -154 67 -247t242 -93t249 73t116 189q23 139 -59 223t-251 164q-86 41 -137 73t-112 87q-119 108 -91 295q25 145 142 234q117 90 300 90t300 -110t92 -292h-113q20 141 -65 219q-86 78 -219 78t-216 -63t-100 -168
q-24 -137 82 -224q55 -44 97 -68t124 -63q83 -39 139 -75t116 -94q123 -120 89 -314q-29 -162 -157 -262t-330 -100z" />
    <glyph glyph-name="T" unicode="T" horiz-adv-x="1230" 
d="M586 0h-121l244 1384h-453l18 111h1026l-20 -111h-453z" />
    <glyph glyph-name="U" unicode="U" horiz-adv-x="1316" 
d="M592 -20q-232 0 -359 148t-83 394l169 973h121l-174 -985q-32 -182 58 -301t297 -119q159 0 273 99t142 253l185 1053h120l-184 -1046q-39 -219 -186 -345q-147 -124 -379 -124z" />
    <glyph glyph-name="V" unicode="V" horiz-adv-x="1366" 
d="M645 0h-115l-288 1495h118l254 -1323l725 1323h127z" />
    <glyph glyph-name="W" unicode="W" horiz-adv-x="2160" 
d="M1552 0h-118l-215 1317l-670 -1317h-121l-178 1495h123l149 -1309l668 1309h115l215 -1315l610 1315h125z" />
    <glyph glyph-name="X" unicode="X" horiz-adv-x="1337" 
d="M1049 0l-347 676l-579 -676h-139l665 780l-360 715h125l319 -623l531 623h139l-617 -727l390 -768h-127z" />
    <glyph glyph-name="Y" unicode="Y" horiz-adv-x="1255" 
d="M473 0l127 719l-360 776h122l316 -674l545 674h137l-643 -790l-125 -705h-119z" />
    <glyph glyph-name="Z" unicode="Z" horiz-adv-x="1218" 
d="M1012 0h-983l18 109l1057 1275h-809l18 111h955l-19 -109l-1056 -1275h837z" />
    <glyph glyph-name="bracketleft" unicode="[" horiz-adv-x="817" 
d="M-25 -471l344 1966h560l-19 -111h-440l-309 -1744h440l-19 -111h-557z" />
    <glyph glyph-name="backslash" unicode="\" horiz-adv-x="921" 
d="M653 0l-448 1495h123l450 -1495h-125z" />
    <glyph glyph-name="bracketright" unicode="]" horiz-adv-x="817" 
d="M-39 -471l19 109h438l309 1746h-438l18 111h559l-346 -1966h-559z" />
    <glyph glyph-name="asciicircum" unicode="^" horiz-adv-x="1007" 
d="M289 1057l315 342h88l199 -342h-119l-137 241l-217 -241h-129z" />
    <glyph glyph-name="underscore" unicode="_" horiz-adv-x="948" 
d="M-33 -193l21 101h757l-18 -101h-760z" />
    <glyph glyph-name="grave" unicode="`" horiz-adv-x="1007" 
d="M680 1157l-231 318h151l186 -318h-106z" />
    <glyph glyph-name="a" unicode="a" horiz-adv-x="1292" 
d="M600 86q158 0 282 109t156 285t-72 318q-103 140 -302 140q-160 0 -287 -110t-157 -288t78 -316t302 -138zM584 -20q-242 0 -379 174t-96 415q37 205 193 340q157 135 357 135q154 0 264 -74t154 -194l45 248h117l-180 -1024h-117l31 178q-147 -198 -389 -198z" />
    <glyph glyph-name="b" unicode="b" horiz-adv-x="1300" 
d="M643 88q156 0 282 106q127 106 157 279q30 175 -75 319t-300 146q-160 0 -288 -111t-158 -287q-31 -176 77 -314t305 -138zM643 -20q-157 0 -265 72t-157 196l-41 -248h-119l263 1495h118q-74 -414 -112 -637q147 186 388 186t378 -179t96 -421q-36 -204 -192 -334
t-357 -130z" />
    <glyph glyph-name="c" unicode="c" horiz-adv-x="1257" 
d="M604 -20q-250 0 -391 177t-98 421q35 202 195 334t370 132q209 0 344 -129t139 -317h-112q-9 152 -115 246t-264 94t-288 -106t-160 -282t80 -320t306 -144q154 0 267 86t151 246h115q-45 -210 -195 -324t-344 -114z" />
    <glyph glyph-name="d" unicode="d" horiz-adv-x="1296" 
d="M604 86q158 0 281 109t155 285t-71 318q-104 140 -303 140q-160 0 -287 -105t-156 -283t79 -322q108 -142 302 -142zM583 -20q-239 0 -376 178t-94 420q35 202 191 334t360 132q152 0 262 -72t155 -190l125 713h117l-264 -1495h-111l31 178q-157 -198 -396 -198z" />
    <glyph glyph-name="e" unicode="e" horiz-adv-x="1251" 
d="M670 940q-160 0 -282 -98t-159 -256h803q2 158 -100 256t-262 98zM598 -20q-248 0 -386 170t-104 395t191 362q158 137 382 137t360 -158t106 -380l-4 -25h-926q-2 -175 108 -285t283 -110q135 0 235 68q99 68 146 196h127q-54 -176 -196 -273t-322 -97z" />
    <glyph glyph-name="f" unicode="f" horiz-adv-x="694" 
d="M739 1495h47l-18 -109h-39q-139 0 -191 -47t-83 -217l-19 -98h264l-18 -100h-262l-164 -924h-115l162 924h-178l22 100h172l19 100q39 227 119 299t282 72z" />
    <glyph glyph-name="g" unicode="g" horiz-adv-x="1310" 
d="M604 86q158 0 281 109t155 285t-72 318q-103 140 -302 140q-160 0 -287 -105t-157 -283t78 -322q108 -142 304 -142zM588 -20q-242 0 -380 178t-95 420q35 202 191 334t358 132q154 0 264 -74t155 -196l45 250h119l-178 -1004q-92 -512 -539 -512q-190 0 -313 115
t-125 279h125q4 -129 89 -208t246 -79t263 106t135 297l2 7q0 8 3 21q3 12 6 30l14 84q-143 -180 -385 -180z" />
    <glyph glyph-name="h" unicode="h" horiz-adv-x="1206" 
d="M57 0l262 1495h117l-110 -618q139 167 354 167t324 -141t67 -352l-96 -551h-119l96 555q33 168 -41 278q-73 109 -233 109t-265 -99t-134 -259l-103 -584h-119z" />
    <glyph glyph-name="i" unicode="i" horiz-adv-x="407" 
d="M266 1198l53 299h117l-51 -299h-119zM172 0h-117l181 1024h116z" />
    <glyph glyph-name="j" unicode="j" horiz-adv-x="421" 
d="M270 1167l54 299h116l-53 -299h-117zM-225 -467h-35l20 109q147 0 202 50q54 50 85 214l199 1118h116l-198 -1120q-39 -219 -118 -295t-271 -76z" />
    <glyph glyph-name="k" unicode="k" horiz-adv-x="1083" 
d="M811 0l-309 526l-277 -229l-51 -297h-117l262 1495h117l-184 -1055l694 584h156l-512 -432l344 -592h-123z" />
    <glyph glyph-name="l" unicode="l" horiz-adv-x="413" 
d="M59 0l260 1495h119l-262 -1495h-117z" />
    <glyph glyph-name="m" unicode="m" horiz-adv-x="1902" 
d="M670 1044q117 0 208 -63t126 -166q61 109 161 169t226 60q213 0 315 -139t61 -354l-96 -551h-117l95 539q35 181 -32 293t-237 110q-283 -2 -358 -373l-98 -569h-119l100 567q35 171 -34 273t-223 102t-247 -104q-94 -104 -131 -285l-96 -553h-117l179 1024h116l-28 -162
q121 182 346 182z" />
    <glyph glyph-name="n" unicode="n" horiz-adv-x="1208" 
d="M55 0l181 1024h118l-30 -172q137 192 356 192t328 -140t67 -353l-96 -551h-117l94 555q33 170 -42 279q-74 108 -234 108t-263 -97t-141 -282l-102 -563h-119z" />
    <glyph glyph-name="o" unicode="o" horiz-adv-x="1267" 
d="M606 86q156 0 282 105t156 279t-77 322q-109 146 -305 146q-158 0 -284 -105t-157 -283t79 -320q110 -144 306 -144zM600 -20q-250 0 -390 177t-97 421q35 202 193 334t360 132q250 0 391 -181t98 -421q-37 -202 -193 -332t-362 -130z" />
    <glyph glyph-name="p" unicode="p" horiz-adv-x="1294" 
d="M692 934q-158 0 -280 -109t-155 -285t71 -316t303 -142q160 0 287 106q126 106 156 285t-79 320t-303 141zM-29 -473l265 1495h110l-33 -184q160 204 400 204t377 -178t94 -420q-35 -206 -192 -336t-357 -131q-155 0 -265 74t-157 195l-127 -719h-115z" />
    <glyph glyph-name="q" unicode="q" horiz-adv-x="1302" 
d="M600 86q160 0 284 110t154 286t-74 316q-105 140 -302 140q-160 0 -286 -105t-157 -283t77 -320q108 -144 304 -144zM588 -20q-242 0 -381 179t-98 421q37 204 193 334t360 130q154 0 264 -74t155 -200l45 254h115l-262 -1495h-117q74 412 113 635q-145 -184 -387 -184z
" />
    <glyph glyph-name="r" unicode="r" horiz-adv-x="776" 
d="M672 1024h102l-22 -117h-88q-168 0 -266 -101t-130 -267l-94 -539h-117l179 1024h118l-32 -182q127 182 350 182z" />
    <glyph glyph-name="s" unicode="s" horiz-adv-x="856" 
d="M362 -20q-152 0 -236 92q-83 92 -60 231h116q-14 -105 42 -163t152 -58t149 46q52 46 65 115t-24 123q-28 41 -132 97q-104 55 -137 77t-75 60q-80 74 -59 196t103 186t216 64q134 -2 216 -82t74 -200h-119q4 78 -45 131t-133 53t-135 -41t-60 -96t2 -90t50 -67
q38 -32 62 -45t85 -46t97 -57t76 -62q74 -75 54 -198q-20 -122 -106 -194t-238 -72z" />
    <glyph glyph-name="t" unicode="t" horiz-adv-x="673" 
d="M459 0q-211 0 -276 80t-25 297l96 545h-168l18 102h168l43 244l127 63l-55 -307h262l-18 -102h-262l-95 -543q-30 -168 10 -222t203 -55l-16 -102h-12z" />
    <glyph glyph-name="u" unicode="u" horiz-adv-x="1208" 
d="M512 -20q-230 0 -327 137q-95 137 -52 362l98 545h117q-94 -522 -98 -545q-35 -180 36 -286q72 -107 232 -107t276 101t144 251l102 586h115l-182 -1024h-115l33 176q-149 -196 -379 -196z" />
    <glyph glyph-name="v" unicode="v" horiz-adv-x="1069" 
d="M381 0l-221 1024h119l182 -872l495 872h129l-587 -1024h-117z" />
    <glyph glyph-name="w" unicode="w" horiz-adv-x="1728" 
d="M270 0l-102 1024h121l78 -864l507 864h121l148 -862l461 862h135l-563 -1024h-121l-150 860l-516 -860h-119z" />
    <glyph glyph-name="x" unicode="x" horiz-adv-x="1128" 
d="M-12 0l512 526l-305 498h127l258 -424l409 424h146l-496 -508l322 -516h-132l-270 436l-422 -436h-149z" />
    <glyph glyph-name="y" unicode="y" horiz-adv-x="1146" 
d="M111 -473l340 541l-291 956h121l249 -831l504 831h133l-927 -1497h-129z" />
    <glyph glyph-name="z" unicode="z" horiz-adv-x="1163" 
d="M43 0l16 102l885 818h-723l19 104h884l-20 -102l-885 -820h752l-19 -102h-909z" />
    <glyph glyph-name="braceleft" unicode="{" horiz-adv-x="837" 
d="M565 -471q-256 0 -337 96t-35 348l47 265q23 127 -4 173t-150 46l20 112q121 0 165 44t67 173l45 265q45 252 158 348t370 96h23l-19 -106q-215 0 -297 -69t-116 -271l-47 -265q-21 -122 -63 -186t-124 -88q131 -51 90 -270l-47 -265q-35 -203 23 -271t274 -69l-20 -106
h-23z" />
    <glyph glyph-name="bar" unicode="|" horiz-adv-x="391" 
d="M-31 -471l346 1966h119l-346 -1966h-119z" />
    <glyph glyph-name="braceright" unicode="}" horiz-adv-x="866" 
d="M324 1495q256 0 336 -96t36 -348l-49 -267q-23 -127 4 -173t150 -46l-21 -114q-121 0 -165 -44t-66 -174l-43 -260q-45 -252 -159 -348t-370 -96h-22l16 106q217 0 299 69t117 271l45 261q20 118 62 184t122 90q-72 28 -91 96t3 176l50 267q34 203 -24 271t-273 69
l20 106h23z" />
    <glyph glyph-name="asciitilde" unicode="~" horiz-adv-x="911" 
d="M454 1421q73 0 156 -59q86 -53 123 -53q82 0 113 100h94q-23 -95 -81 -151t-133 -56t-159 56t-125 55q-78 0 -106 -101h-94q23 94 81 152t131 57z" />
    <glyph glyph-name="exclamdown" unicode="&#xa1;" horiz-adv-x="471" 
d="M205 743l49 281h119l-49 -281h-119zM-8 -471l41 240q94 528 172 841h69q-41 -381 -122 -841l-41 -240h-119z" />
    <glyph glyph-name="cent" unicode="&#xa2;" horiz-adv-x="1222" 
d="M664 938q-154 0 -279 -102t-159 -292t68 -323t294 -133q143 0 248 75q104 75 149 226h117q-50 -201 -190 -303t-324 -106l-43 -246h-121l47 256q-197 38 -296 198t-61 377t189 345q152 128 352 134l45 246h119l-45 -254q162 -30 260 -140t101 -269h-117q-4 147 -102 229
t-252 82z" />
    <glyph glyph-name="sterling" unicode="&#xa3;" horiz-adv-x="1193" 
d="M236 70q113 0 180 94q-109 80 -176 80q-88 0 -99 -74q-8 -44 20 -72t75 -28zM784 1513q172 0 270 -96t79 -248h-121q8 109 -59 175t-185 65q-118 0 -195 -62q-159 -129 -77 -528h450l-18 -102h-412q70 -305 45 -430q-10 -49 -26 -88q150 -115 219 -115t98 29t41 96l10 57
h125l-12 -71q-20 -117 -82 -166t-166 -49t-281 131q-92 -131 -249 -131q-102 0 -159 56q-56 56 -41 138q16 82 70 124t140 42t209 -84q42 106 -45 440l-6 21h-205l18 102h162q-98 445 119 609q112 86 284 85z" />
    <glyph glyph-name="currency" unicode="&#xa4;" horiz-adv-x="1583" 
d="M1106 1030q-115 129 -287 136q-172 6 -297 -112t-132 -296q-6 -178 108 -306t287 -136q173 -7 297 112t131 296t-107 306zM1241 125l-145 170q-137 -92 -325 -86t-337 145l-244 -219l-67 76l248 217q-107 145 -101 341t150 343l-156 193l76 65l158 -192q144 100 332 94
t333 -142l228 205l65 -73l-225 -205q109 -147 101 -349t-158 -350l143 -168z" />
    <glyph glyph-name="yen" unicode="&#xa5;" horiz-adv-x="1202" 
d="M201 807l18 98h379l-281 590h127l234 -500l420 500h141l-502 -590h375l-18 -98h-387l-43 -240h387l-17 -98h-387l-84 -469h-117l84 469h-385l17 98h385l43 240h-389z" />
    <glyph glyph-name="brokenbar" unicode="&#xa6;" horiz-adv-x="391" 
d="M-25 -471l152 860h119l-152 -860h-119zM170 635l152 860h118l-151 -860h-119z" />
    <glyph glyph-name="section" unicode="&#xa7;" horiz-adv-x="1259" 
d="M1034 768q-34 64 -184 113q-56 18 -178 50t-193 68q-168 -53 -182 -159q-16 -92 72 -148t252 -96q164 -41 237 -78q78 23 128 67t60 95t-12 88zM570 78q144 0 228 48q85 48 100 133t-39 129q-53 44 -114 63q-61 20 -92 28t-94 25q-203 51 -303 126t-78 210q14 72 74 127
t154 77q-98 78 -76 207t139 198t301 68t288 -101q103 -100 93 -236h-113q4 104 -67 172q-72 68 -217 69q-281 0 -312 -178q-17 -113 128 -170q71 -27 186 -57q116 -28 182 -52t127 -61q124 -75 98 -213q-14 -74 -74 -132t-151 -87q98 -78 78 -203q-18 -138 -140 -214
t-296 -74q-219 0 -332 102t-101 256h121q-10 -112 74 -186t228 -74z" />
    <glyph glyph-name="dieresis" unicode="&#xa8;" horiz-adv-x="1011" 
d="M444 1167l50 285h116l-51 -285h-115zM682 1167l51 285h115l-49 -285h-117z" />
    <glyph glyph-name="copyright" unicode="&#xa9;" horiz-adv-x="1751" 
d="M962 1153q150 0 247 -85t100 -208h-111q-10 82 -72 133t-168 55t-198 -71q-92 -74 -116 -198t46 -227t217 -103q182 0 258 167h113q-44 -124 -144 -198t-239 -74q-186 2 -290 133q-103 131 -73 301t155 273q125 102 275 102zM879 84q249 0 443 166t239 422
q33 184 -28 353q-60 169 -211 279t-357 109q-252 0 -448 -168t-243 -426q-34 -188 30 -356q64 -167 216 -273t359 -106zM868 -20q-350 0 -556 252t-144 602q50 298 280 490t523 192q170 0 315 -70q291 -141 372 -462q40 -159 9 -329q-51 -295 -279 -485t-520 -190z" />
    <glyph glyph-name="ordfeminine" unicode="&#xaa;" horiz-adv-x="868" 
d="M529 973q95 0 167 57q72 56 90 154t-45 169t-157 73t-164 -54t-87 -156t42 -172q60 -71 154 -71zM526 891q-140 0 -219 104q-79 103 -57 231t114 205t195 77q192 -1 256 -144l27 137h90l-111 -600h-88l17 94q-84 -104 -224 -104z" />
    <glyph glyph-name="guillemotleft" unicode="&#xab;" horiz-adv-x="897" 
d="M385 229l-264 244l14 80l350 244l-18 -103l-266 -186l202 -184zM715 229l-264 244l14 80l350 244l-16 -103l-269 -186l203 -184z" />
    <glyph glyph-name="logicalnot" unicode="&#xac;" horiz-adv-x="1257" 
d="M1008 408l94 520h-965l21 112h1085l-117 -632h-118z" />
    <glyph glyph-name="uni00AD" unicode="&#xad;" horiz-adv-x="948" 
d="M90 473l19 100h757l-18 -100h-758z" />
    <glyph glyph-name="registered" unicode="&#xae;" horiz-adv-x="1757" 
d="M989 885q119 0 193 -81q74 -82 56 -184t-84 -161q-67 -59 -165 -68l148 -272h-123l-189 360h123q66 0 117 40t61 109q10 70 -36 114t-123 46h-205l-115 -669h-117l136 766h323zM836 -166q248 0 442 166t240 422q33 184 -28 352q-60 168 -211 278t-357 109
q-254 0 -450 -167t-241 -425q-33 -190 31 -358q64 -169 215 -273q152 -104 359 -104zM825 -270q-350 0 -556 252t-146 600q53 296 281 490t522 194q229 0 404 -118t255 -317t39 -425q-51 -295 -279 -486q-229 -190 -520 -190z" />
    <glyph glyph-name="macron" unicode="&#xaf;" horiz-adv-x="1007" 
d="M338 1157l18 103h541l-18 -103h-541z" />
    <glyph glyph-name="degree" unicode="&#xb0;" horiz-adv-x="866" 
d="M561 1157q53 0 91 38t38 91t-38 91t-91 38t-91 -38t-38 -91t38 -91t91 -38zM561 1059q-94 -1 -162 67t-67 162q0 94 67 161q68 67 162 67t162 -67t68 -162t-68 -161t-162 -67z" />
    <glyph glyph-name="plusminus" unicode="&#xb1;" horiz-adv-x="948" 
d="M39 268l18 103h758l-18 -103h-758zM150 895l18 102h328l57 328h102l-57 -328h328l-19 -102h-327l-58 -328h-102l57 328h-327z" />
    <glyph glyph-name="twosuperior" unicode="&#xb2;" horiz-adv-x="712" 
d="M512 1417q-72 0 -123 -46t-57 -122h-101q4 121 87 191t201 70t191 -72q73 -70 54 -173t-102 -168t-171 -115t-129 -79q-40 -29 -80 -74t-49 -94v-2h437l-19 -100h-549l17 102q18 98 98 174t247 173q36 22 48 30t41 26t40 31q11 12 34 35t32 76q10 53 -32 95
q-43 42 -115 42z" />
    <glyph glyph-name="threesuperior" unicode="&#xb3;" horiz-adv-x="663" 
d="M360 621q-114 1 -188 65t-61 188h102q-6 -80 37 -116q44 -36 112 -37q68 0 117 37q49 36 61 106t-32 118q-45 48 -121 48h-76l19 100h69q76 0 131 39q56 39 66 102t-33 103t-114 39q-141 0 -166 -149h-101q16 123 91 184t190 61q115 -1 185 -75t50 -179
q-23 -131 -151 -182q131 -83 99 -246q-18 -89 -94 -147q-77 -58 -192 -59z" />
    <glyph glyph-name="acute" unicode="&#xb4;" horiz-adv-x="1007" 
d="M393 1157l301 318h154l-342 -318h-113z" />
    <glyph glyph-name="mu" unicode="&#xb5;" horiz-adv-x="1228" 
d="M535 82q139 0 244 97t134 245l113 600h117l-144 -766q-29 -158 97 -158h30l-18 -100h-61q-168 0 -160 176q-141 -196 -373 -196t-326 172l-108 -623h-115l264 1495h117q-90 -510 -94 -532q-35 -180 37 -295t246 -115z" />
    <glyph glyph-name="paragraph" unicode="&#xb6;" horiz-adv-x="1153" 
d="M659 1495h531l-262 -1495h-105l244 1389h-125l-244 -1389h-104l108 618h-178q-192 2 -300 140t-74 321q34 184 178 300q145 116 331 116z" />
    <glyph glyph-name="periodcentered" unicode="&#xb7;" horiz-adv-x="362" 
d="M102 379l50 280h116l-49 -280h-117z" />
    <glyph glyph-name="cedilla" unicode="&#xb8;" horiz-adv-x="1007" 
d="M340 -465q-180 0 -289 115l101 57q78 -82 194 -82q72 0 118 26q46 27 54 71t-34 70t-126 26h-65l33 182h100l-23 -113q121 -4 177 -53t43 -127q-12 -78 -91 -125t-192 -47z" />
    <glyph glyph-name="onesuperior" unicode="&#xb9;" horiz-adv-x="579" 
d="M227 1241h-12l21 113h6q78 0 123 43t53 98h102l-133 -764h168l-16 -100h-439l17 100h162l102 586q-19 -33 -63 -55t-91 -21z" />
    <glyph glyph-name="ordmasculine" unicode="&#xba;" horiz-adv-x="815" 
d="M505 977q93 0 160 56q67 57 81 147t-41 167q-57 77 -151 77t-161 -58q-66 -57 -81 -150q-16 -93 42 -166t151 -73zM501 891q-128 0 -211 98q-83 97 -65 227q17 130 111 210t221 81q127 0 211 -99t66 -237q-20 -121 -112 -201t-221 -79z" />
    <glyph glyph-name="guillemotright" unicode="&#xbb;" horiz-adv-x="897" 
d="M188 795l265 -244l-15 -80l-350 -244l18 103l269 186l-203 184zM520 795l264 -244l-14 -80l-350 -244l16 103l269 186l-203 184z" />
    <glyph glyph-name="onequarter" unicode="&#xbc;" horiz-adv-x="1667" 
d="M1042 297h283l70 397zM227 1241h-12l21 113h6q78 0 123 43t53 98h102l-133 -764h168l-16 -100h-439l17 100h162l102 586q-19 -33 -63 -55t-91 -21zM199 0l1337 1495h143l-1337 -1495h-143zM1274 0l35 199h-406l15 98l505 567h107l-100 -567h135l-17 -98h-135l-35 -199
h-104z" />
    <glyph glyph-name="onehalf" unicode="&#xbd;" horiz-adv-x="1712" 
d="M135 0l1338 1495h143l-1337 -1495h-144zM227 1241h-12l21 113h6q78 0 123 43t53 98h102l-133 -764h168l-16 -100h-439l17 100h162l102 586q-19 -33 -63 -55t-91 -21zM1392 784q-72 0 -122 -46q-51 -46 -58 -122h-100q4 121 87 191t201 70t190 -71t54 -173
q-19 -102 -100 -166q-81 -63 -170 -116q-90 -52 -131 -81q-115 -81 -129 -168v-2h436l-18 -100h-549l16 102q18 98 102 177t292 200q12 9 41 27t40 30t34 36q23 23 32 75q10 53 -33 95t-115 42z" />
    <glyph glyph-name="threequarters" unicode="&#xbe;" horiz-adv-x="1669" 
d="M1044 297h283l70 397zM1276 0l35 199h-406l15 98l505 567h107l-100 -567h135l-17 -98h-135l-35 -199h-104zM201 0l1337 1495h143l-1337 -1495h-143zM360 618q-114 0 -188 65t-61 189h102q-6 -80 37 -116q44 -36 112 -37q68 0 117 37q49 36 61 106t-32 118q-45 48 -121 48
h-76l19 100h69q76 0 131 39q56 39 66 102t-33 103t-114 39q-141 0 -166 -149h-101q16 123 91 184t190 61q115 -1 185 -75t50 -179q-23 -131 -151 -182q131 -83 99 -246q-18 -89 -94 -148q-77 -59 -192 -59z" />
    <glyph glyph-name="questiondown" unicode="&#xbf;" horiz-adv-x="1105" 
d="M741 1024l-49 -281h-119l50 281h118zM414 -492q-186 0 -306 115q-122 115 -90 287q14 78 56 138q41 60 93 94q51 34 113 78t116 87t103 129t62 197h109q-15 -124 -65 -222t-104 -147q-109 -99 -226 -170q-117 -72 -140 -194q-20 -131 68 -210t225 -79t231 85t113 226h117
q-23 -198 -156 -306t-319 -108z" />
    <glyph glyph-name="Agrave" unicode="&#xc0;" horiz-adv-x="1404" 
d="M846 1628l-232 318h152l186 -318h-106zM858 1337l-452 -807h612zM-18 0l841 1495h119l303 -1495h-121l-84 418h-698l-233 -418h-127z" />
    <glyph glyph-name="Aacute" unicode="&#xc1;" horiz-adv-x="1404" 
d="M846 1628l301 318h153l-342 -318h-112zM858 1337l-452 -807h612zM-18 0l841 1495h119l303 -1495h-121l-84 418h-698l-233 -418h-127z" />
    <glyph glyph-name="Acircumflex" unicode="&#xc2;" horiz-adv-x="1404" 
d="M606 1628l299 318h101l188 -318h-121l-131 223l-209 -223h-127zM858 1337l-452 -807h612zM-18 0l841 1495h119l303 -1495h-121l-84 418h-698l-233 -418h-127z" />
    <glyph glyph-name="Atilde" unicode="&#xc3;" horiz-adv-x="1404" 
d="M758 1851q78 0 176 -61q94 -63 145 -64q90 0 115 117h96q-20 -103 -80 -163t-147 -60q-31 0 -47 4t-26 6t-22 9q-14 7 -20 9t-19 11q-13 8 -17 10t-18 12q-98 66 -144 66t-76 -32t-39 -87h-94q16 98 77 160q62 62 140 63zM858 1337l-452 -807h612zM-18 0l841 1495h119
l303 -1495h-121l-84 418h-698l-233 -418h-127z" />
    <glyph glyph-name="Adieresis" unicode="&#xc4;" horiz-adv-x="1404" 
d="M725 1638l49 285h117l-51 -285h-115zM963 1638l51 285h114l-49 -285h-116zM858 1337l-452 -807h612zM-18 0l841 1495h119l303 -1495h-121l-84 418h-698l-233 -418h-127z" />
    <glyph glyph-name="Aring" unicode="&#xc5;" horiz-adv-x="1404" 
d="M880 1505q48 0 84 30t45 76t-21 84t-77 38t-82 -29t-44 -76t19 -85t76 -38zM858 1337l-452 -807h612zM924 1823q86 0 140 -72t32 -160q-29 -119 -142 -161l291 -1430h-121l-84 418h-698l-233 -418h-127l806 1436q-55 29 -80 87q-26 58 -9 131t79 121t146 48z" />
    <glyph glyph-name="AE" unicode="&#xc6;" horiz-adv-x="2052" 
d="M1008 1323l-537 -801h588zM-14 0l999 1495h1102l-19 -113h-950l39 -577h809l-20 -111h-783l39 -581h641l-18 -113h-731l-27 414h-670l-276 -414h-135z" />
    <glyph glyph-name="Ccedilla" unicode="&#xc7;" horiz-adv-x="1708" 
d="M819 -469q-180 0 -289 115l101 57q78 -82 194 -82q72 0 118 26q46 27 54 71t-33 70q-42 26 -126 26h-66l31 168q-219 14 -380 132t-229 308q-69 190 -30 409q52 297 286 491t539 194q265 0 455 -152t225 -401h-127q-32 195 -184 317t-392 123q-240 0 -441 -167
q-200 -167 -244 -421q-51 -287 117 -505t474 -218q201 0 368 110t241 296h131q-86 -234 -276 -370t-435 -146l-18 -99q121 -4 176 -53t43 -127t-91 -125t-192 -47z" />
    <glyph glyph-name="Egrave" unicode="&#xc8;" horiz-adv-x="1193" 
d="M774 1628l-231 318h151l187 -318h-107zM63 0l263 1495h915l-20 -111h-795l-100 -569h796l-20 -110h-795l-104 -594h794l-18 -111h-916z" />
    <glyph glyph-name="Eacute" unicode="&#xc9;" horiz-adv-x="1193" 
d="M63 0l263 1495h915l-20 -111h-795l-100 -569h796l-20 -110h-795l-104 -594h794l-18 -111h-916zM723 1628l301 318h154l-342 -318h-113z" />
    <glyph glyph-name="Ecircumflex" unicode="&#xca;" horiz-adv-x="1193" 
d="M63 0l263 1495h915l-20 -111h-795l-100 -569h796l-20 -110h-795l-104 -594h794l-18 -111h-916zM512 1628l299 318h100l189 -318h-121l-131 223l-209 -223h-127z" />
    <glyph glyph-name="Edieresis" unicode="&#xcb;" horiz-adv-x="1193" 
d="M63 0l263 1495h915l-20 -111h-795l-100 -569h796l-20 -110h-795l-104 -594h794l-18 -111h-916zM631 1638l49 285h117l-52 -285h-114zM868 1638l52 285h114l-49 -285h-117z" />
    <glyph glyph-name="Igrave" unicode="&#xcc;" horiz-adv-x="466" 
d="M375 1628l-232 318h152l186 -318h-106zM84 0l262 1495h119l-262 -1495h-119z" />
    <glyph glyph-name="Iacute" unicode="&#xcd;" horiz-adv-x="466" 
d="M375 1628l301 318h153l-342 -318h-112zM84 0l262 1495h119l-262 -1495h-119z" />
    <glyph glyph-name="Icircumflex" unicode="&#xce;" horiz-adv-x="466" 
d="M135 1628l299 318h101l188 -318h-121l-131 223l-209 -223h-127zM84 0l262 1495h119l-262 -1495h-119z" />
    <glyph glyph-name="Idieresis" unicode="&#xcf;" horiz-adv-x="466" 
d="M260 1638l49 285h117l-51 -285h-115zM498 1638l51 285h115l-50 -285h-116zM84 0l262 1495h119l-262 -1495h-119z" />
    <glyph glyph-name="Eth" unicode="&#xd0;" horiz-adv-x="1495" 
d="M606 111q256 0 453 168q197 167 243 437t-118 470q-162 200 -443 200h-262l-100 -567h469l-17 -100h-469l-106 -608h350zM598 0h-481l125 719h-160l18 100h160l119 676h381q215 -2 381 -112q165 -109 241 -293t37 -398q-53 -300 -283 -496t-538 -196z" />
    <glyph glyph-name="Ntilde" unicode="&#xd1;" horiz-adv-x="1464" 
d="M809 1851q78 0 176 -61q94 -63 145 -64q90 0 115 117h96q-20 -103 -79 -163t-148 -60q-31 0 -47 4q-15 4 -25 6t-23 9t-19 9q-11 4 -36 21q-117 78 -163 78q-45 0 -75 -32t-40 -87h-94q16 98 78 160t139 63zM63 0l263 1495h127l682 -1302l229 1302h119l-262 -1495h-117
l-690 1313l-230 -1313h-121z" />
    <glyph glyph-name="Ograve" unicode="&#xd2;" horiz-adv-x="1746" 
d="M1012 1628l-232 318h152l186 -318h-106zM874 90q244 0 437 166t237 416q33 182 -26 349q-60 167 -208 275t-353 109q-248 0 -442 -167t-238 -419q-49 -299 123 -514t470 -215zM864 -20q-350 0 -556 252t-144 602q51 298 280 490t523 192q237 0 413 -126t250 -323t35 -412
q-53 -297 -279 -486t-522 -189z" />
    <glyph glyph-name="Oacute" unicode="&#xd3;" horiz-adv-x="1746" 
d="M874 90q244 0 437 166t237 416q33 182 -26 349q-60 167 -208 275t-353 109q-248 0 -442 -167t-238 -419q-49 -299 123 -514t470 -215zM864 -20q-350 0 -556 252t-144 602q51 298 280 490t523 192q237 0 413 -126t250 -323t35 -412q-53 -297 -279 -486t-522 -189z
M983 1628l301 318h154l-342 -318h-113z" />
    <glyph glyph-name="Ocircumflex" unicode="&#xd4;" horiz-adv-x="1746" 
d="M874 90q244 0 437 166t237 416q33 182 -26 349q-60 167 -208 275t-353 109q-248 0 -442 -167t-238 -419q-49 -299 123 -514t470 -215zM864 -20q-350 0 -556 252t-144 602q51 298 280 490t523 192q237 0 413 -126t250 -323t35 -412q-53 -297 -279 -486t-522 -189z
M748 1628l299 318h100l188 -318h-121l-131 223l-209 -223h-126z" />
    <glyph glyph-name="Otilde" unicode="&#xd5;" horiz-adv-x="1746" 
d="M920 1851q78 0 176 -61q94 -63 145 -64q90 0 115 117h96q-20 -103 -80 -163t-147 -60q-31 0 -47 4t-26 6t-22 9q-14 7 -20 9t-19 11q-13 8 -17 10t-18 12q-98 66 -144 66t-76 -32t-39 -87h-95q16 98 78 160t140 63zM874 90q244 0 437 166t237 416q33 182 -26 349
q-60 167 -208 275t-353 109q-248 0 -442 -167t-238 -419q-49 -299 123 -514t470 -215zM864 -20q-350 0 -556 252t-144 602q51 298 280 490t523 192q237 0 413 -126t250 -323t35 -412q-53 -297 -279 -486t-522 -189z" />
    <glyph glyph-name="Odieresis" unicode="&#xd6;" horiz-adv-x="1746" 
d="M874 90q244 0 437 166t237 416q33 182 -26 349q-60 167 -208 275t-353 109q-248 0 -442 -167t-238 -419q-49 -299 123 -514t470 -215zM864 -20q-350 0 -556 252t-144 602q51 298 280 490t523 192q237 0 413 -126t250 -323t35 -412q-53 -297 -279 -486t-522 -189z
M846 1638l49 285h117l-51 -285h-115zM1083 1638l52 285h114l-49 -285h-117z" />
    <glyph glyph-name="multiply" unicode="&#xd7;" horiz-adv-x="948" 
d="M182 412l-59 71l311 265l-215 264l80 69l217 -264l305 260l60 -71l-306 -261l213 -258l-81 -69l-213 258z" />
    <glyph glyph-name="Oslash" unicode="&#xd8;" horiz-adv-x="1744" 
d="M886 94q232 0 425 164t237 414q27 145 -10 285t-127 247l-915 -987q158 -123 390 -123zM944 1405q-234 0 -426 -166t-237 -420q-53 -313 139 -532l917 989q-159 129 -393 129zM880 -20q-276 0 -468 149l-119 -129h-139l184 199q-113 121 -160 285t-14 350q51 298 280 490
t505 192t466 -154l125 133h139l-188 -205q111 -123 157 -288t15 -347q-51 -295 -279 -485t-504 -190z" />
    <glyph glyph-name="Ugrave" unicode="&#xd9;" horiz-adv-x="1316" 
d="M795 1606l-232 317h152l186 -317h-106zM592 -20q-232 0 -359 148t-83 394l169 973h121l-174 -985q-32 -182 58 -301t297 -119q159 0 273 99t142 253l185 1053h120l-184 -1046q-39 -219 -186 -345q-147 -124 -379 -124z" />
    <glyph glyph-name="Uacute" unicode="&#xda;" horiz-adv-x="1316" 
d="M592 -20q-232 0 -359 148t-83 394l169 973h121l-174 -985q-32 -182 58 -301t297 -119q159 0 273 99t142 253l185 1053h120l-184 -1046q-39 -219 -186 -345q-147 -124 -379 -124zM766 1610l301 317h154l-342 -317h-113z" />
    <glyph glyph-name="Ucircumflex" unicode="&#xdb;" horiz-adv-x="1316" 
d="M592 -20q-232 0 -359 148t-83 394l169 973h121l-174 -985q-32 -182 58 -301t297 -119q159 0 273 99t142 253l185 1053h120l-184 -1046q-39 -219 -186 -345q-147 -124 -379 -124zM557 1628l299 318h100l189 -318h-121l-131 223l-209 -223h-127z" />
    <glyph glyph-name="Udieresis" unicode="&#xdc;" horiz-adv-x="1316" 
d="M592 -20q-232 0 -359 148t-83 394l169 973h121l-174 -985q-32 -182 58 -301t297 -119q159 0 273 99t142 253l185 1053h120l-184 -1046q-39 -219 -186 -345q-147 -124 -379 -124zM672 1622l49 285h117l-52 -285h-114zM909 1622l52 285h114l-49 -285h-117z" />
    <glyph glyph-name="Yacute" unicode="&#xdd;" horiz-adv-x="1255" 
d="M741 1610l301 317h154l-342 -317h-113zM473 0l127 719l-360 776h122l316 -674l545 674h137l-643 -790l-125 -705h-119z" />
    <glyph glyph-name="Thorn" unicode="&#xde;" horiz-adv-x="1191" 
d="M682 1079h-328l-108 -616h372q147 0 246 81q98 81 122 214t-64 227t-240 94zM696 1190q197 0 318 -128t90 -312t-163 -290q-132 -108 -331 -108h-383l-61 -352h-121l262 1495h121l-53 -305h321z" />
    <glyph glyph-name="germandbls" unicode="&#xdf;" horiz-adv-x="1163" 
d="M717 1509q182 0 282 -131t70 -297q-20 -111 -99 -189t-184 -110q133 -32 204 -154t42 -276t-149 -261q-121 -105 -308 -105q-73 0 -149 26t-115 62l31 96q36 -32 102 -56t127 -24q137 0 232 81q94 81 118 216q25 135 -61 239t-242 103h-34l16 107h37q109 0 204 70
t117 191q22 120 -48 215q-72 95 -196 95t-211 -78t-110 -215l-213 -1200q-35 -201 -133 -293t-278 -92h-19l19 109q139 0 203 64t89 208l213 1198q35 193 148 297t295 104z" />
    <glyph glyph-name="agrave" unicode="&#xe0;" horiz-adv-x="1292" 
d="M680 1157l-231 318h151l186 -318h-106zM600 86q158 0 282 109t156 285t-72 318q-103 140 -302 140q-160 0 -287 -110t-157 -288t78 -316t302 -138zM584 -20q-242 0 -379 174t-96 415q37 205 193 340q157 135 357 135q154 0 264 -74t154 -194l45 248h117l-180 -1024h-117
l31 178q-147 -198 -389 -198z" />
    <glyph glyph-name="aacute" unicode="&#xe1;" horiz-adv-x="1292" 
d="M649 1157l301 318h154l-342 -318h-113zM600 86q158 0 282 109t156 285t-72 318q-103 140 -302 140q-160 0 -287 -110t-157 -288t78 -316t302 -138zM584 -20q-242 0 -379 174t-96 415q37 205 193 340q157 135 357 135q154 0 264 -74t154 -194l45 248h117l-180 -1024h-117
l31 178q-147 -198 -389 -198z" />
    <glyph glyph-name="acircumflex" unicode="&#xe2;" horiz-adv-x="1292" 
d="M451 1157l299 318h100l188 -318h-120l-132 223l-208 -223h-127zM600 86q158 0 282 109t156 285t-72 318q-103 140 -302 140q-160 0 -287 -110t-157 -288t78 -316t302 -138zM584 -20q-242 0 -379 174t-96 415q37 205 193 340q157 135 357 135q154 0 264 -74t154 -194
l45 248h117l-180 -1024h-117l31 178q-147 -198 -389 -198z" />
    <glyph glyph-name="atilde" unicode="&#xe3;" horiz-adv-x="1292" 
d="M622 1380q78 0 177 -61q94 -63 145 -64q90 0 115 117h96q-19 -104 -79 -164t-148 -59q-31 0 -47 4q-15 4 -25 6t-23 9q-13 8 -19 10t-20 10q-12 8 -16 10t-19 12q-99 66 -145 66t-74 -32q-30 -32 -40 -87h-94q16 99 77 161t139 62zM600 86q158 0 282 109t156 285t-72 318
q-103 140 -302 140q-160 0 -287 -110t-157 -288t78 -316t302 -138zM584 -20q-242 0 -379 174t-96 415q37 205 193 340q157 135 357 135q154 0 264 -74t154 -194l45 248h117l-180 -1024h-117l31 178q-147 -198 -389 -198z" />
    <glyph glyph-name="adieresis" unicode="&#xe4;" horiz-adv-x="1292" 
d="M565 1167l49 285h117l-51 -285h-115zM803 1167l51 285h115l-49 -285h-117zM600 86q158 0 282 109t156 285t-72 318q-103 140 -302 140q-160 0 -287 -110t-157 -288t78 -316t302 -138zM584 -20q-242 0 -379 174t-96 415q37 205 193 340q157 135 357 135q154 0 264 -74
t154 -194l45 248h117l-180 -1024h-117l31 178q-147 -198 -389 -198z" />
    <glyph glyph-name="aring" unicode="&#xe5;" horiz-adv-x="1292" 
d="M792 1460q-48 0 -82 -28t-43 -76q-9 -47 19 -85t75 -38q48 0 84 30q36 29 45 75t-21 84t-77 38zM806 1550q86 0 139 -72q54 -72 34 -153q-21 -82 -81 -132t-146 -50t-140 70q-54 71 -34 156t81 133t147 48zM600 86q158 0 282 109t156 285t-72 318q-103 140 -302 140
q-160 0 -287 -110t-157 -288t78 -316t302 -138zM584 -20q-242 0 -379 174t-96 415q37 205 193 340q157 135 357 135q154 0 264 -74t154 -194l45 248h117l-180 -1024h-117l31 178q-147 -198 -389 -198z" />
    <glyph glyph-name="ae" unicode="&#xe6;" horiz-adv-x="1976" 
d="M408 76q132 0 249 81t185 193q-20 92 -11 154t11 74q-35 -30 -103 -48q-69 -18 -185 -40t-163 -35q-192 -49 -212 -174q-15 -93 41 -149t188 -56zM1393 940q-161 0 -283 -97t-156 -257h803q2 158 -100 256q-103 98 -264 98zM1335 -20q-171 0 -287 72t-174 196
q-68 -111 -196 -190q-128 -78 -297 -78q-170 0 -252 86t-63 208q11 107 93 177t324 117q242 46 303 73q94 45 109 117q12 80 -56 137q-69 57 -217 57t-250 -66q-101 -66 -122 -190h-107q27 164 158 256t332 92q137 0 227 -48t123 -128q163 176 405 176t378 -158t106 -380
l-4 -25h-926q-2 -175 108 -285t265 -110q304 0 401 264h127q-55 -176 -197 -273t-311 -97z" />
    <glyph glyph-name="ccedilla" unicode="&#xe7;" horiz-adv-x="1257" 
d="M555 -467q-180 0 -289 115l101 57q78 -82 194 -82q72 0 118 26q46 27 54 71t-34 70t-126 26h-65l29 168q-221 24 -342 196t-83 386t198 346t370 132q209 0 344 -129t139 -317h-112q-9 152 -115 246t-264 94t-288 -106t-160 -282t80 -320t306 -144q154 0 267 86t151 246
h115q-43 -201 -182 -314t-324 -122l-19 -97q120 -4 176 -53t44 -127t-91 -125t-192 -47z" />
    <glyph glyph-name="egrave" unicode="&#xe8;" horiz-adv-x="1251" 
d="M662 1157l-232 318h152l186 -318h-106zM670 940q-160 0 -282 -98t-159 -256h803q2 158 -100 256t-262 98zM598 -20q-248 0 -386 170t-104 395t191 362q158 137 382 137t360 -158t106 -380l-4 -25h-926q-2 -175 108 -285t283 -110q135 0 235 68q99 68 146 196h127
q-54 -176 -196 -273t-322 -97z" />
    <glyph glyph-name="eacute" unicode="&#xe9;" horiz-adv-x="1251" 
d="M670 940q-160 0 -282 -98t-159 -256h803q2 158 -100 256t-262 98zM598 -20q-248 0 -386 170t-104 395t191 362q158 137 382 137t360 -158t106 -380l-4 -25h-926q-2 -175 108 -285t283 -110q135 0 235 68q99 68 146 196h127q-54 -176 -196 -273t-322 -97zM633 1157
l301 318h153l-342 -318h-112z" />
    <glyph glyph-name="ecircumflex" unicode="&#xea;" horiz-adv-x="1251" 
d="M408 1157l299 318h100l188 -318h-121l-131 223l-208 -223h-127zM670 940q-160 0 -282 -98t-159 -256h803q2 158 -100 256t-262 98zM598 -20q-248 0 -386 170t-104 395t191 362q158 137 382 137t360 -158t106 -380l-4 -25h-926q-2 -175 108 -285t283 -110q135 0 235 68
q99 68 146 196h127q-54 -176 -196 -273t-322 -97z" />
    <glyph glyph-name="edieresis" unicode="&#xeb;" horiz-adv-x="1251" 
d="M776 1167l51 285h115l-49 -285h-117zM539 1167l49 285h117l-52 -285h-114zM670 940q-160 0 -282 -98t-159 -256h803q2 158 -100 256t-262 98zM598 -20q-248 0 -386 170t-104 395t191 362q158 137 382 137t360 -158t106 -380l-4 -25h-926q-2 -175 108 -285t283 -110
q135 0 235 68q99 68 146 196h127q-54 -176 -196 -273t-322 -97z" />
    <glyph glyph-name="igrave" unicode="&#xec;" horiz-adv-x="407" 
d="M260 1157l-231 318h151l187 -318h-107zM55 0l181 1024h116l-178 -1024h-119z" />
    <glyph glyph-name="iacute" unicode="&#xed;" horiz-adv-x="407" 
d="M55 0l181 1024h116l-178 -1024h-119zM248 1157l301 318h153l-342 -318h-112z" />
    <glyph glyph-name="icircumflex" unicode="&#xee;" horiz-adv-x="407" 
d="M55 0l181 1024h116l-178 -1024h-119zM25 1157l299 318h100l188 -318h-120l-132 223l-208 -223h-127z" />
    <glyph glyph-name="idieresis" unicode="&#xef;" horiz-adv-x="407" 
d="M55 0l181 1024h116l-178 -1024h-119zM137 1167l49 285h117l-51 -285h-115zM375 1167l51 285h115l-49 -285h-117z" />
    <glyph glyph-name="eth" unicode="&#xf0;" horiz-adv-x="1277" 
d="M608 84q154 0 279 105t153 264q37 184 -68 330t-304 147q-158 0 -283 -104t-158 -278q-33 -176 75 -320t306 -144zM588 -20q-226 0 -369 166t-111 392t189 360q158 134 360 134q242 0 361 -190q-78 215 -285 434l-262 -82l16 88l185 57q-66 61 -176 156h174
q63 -57 123 -117l256 82l-15 -88l-182 -57q385 -434 305 -869q-39 -210 -191 -338t-378 -128z" />
    <glyph glyph-name="ntilde" unicode="&#xf1;" horiz-adv-x="1208" 
d="M600 1380q78 0 176 -61q94 -63 146 -64q90 0 114 117h97q-19 -104 -79 -164t-149 -59q-29 0 -46 4t-26 6t-23 9q-14 8 -19 10q-14 6 -36 20q-117 78 -163 78t-75 -32q-30 -32 -40 -87h-94q15 99 77 161t140 62zM55 0l181 1024h118l-30 -172q137 192 356 192t328 -140
t67 -353l-96 -551h-117l94 555q33 170 -42 279q-74 108 -234 108t-263 -97t-141 -282l-102 -563h-119z" />
    <glyph glyph-name="ograve" unicode="&#xf2;" horiz-adv-x="1267" 
d="M668 1157l-232 318h152l186 -318h-106zM606 86q156 0 282 105t156 279t-77 322q-109 146 -305 146q-158 0 -284 -105t-157 -283t79 -320q110 -144 306 -144zM600 -20q-250 0 -390 177t-97 421q35 202 193 334t360 132q250 0 391 -181t98 -421q-37 -202 -193 -332
t-362 -130z" />
    <glyph glyph-name="oacute" unicode="&#xf3;" horiz-adv-x="1267" 
d="M606 86q156 0 282 105t156 279t-77 322q-109 146 -305 146q-158 0 -284 -105t-157 -283t79 -320q110 -144 306 -144zM600 -20q-250 0 -390 177t-97 421q35 202 193 334t360 132q250 0 391 -181t98 -421q-37 -202 -193 -332t-362 -130zM643 1157l301 318h154l-342 -318
h-113z" />
    <glyph glyph-name="ocircumflex" unicode="&#xf4;" horiz-adv-x="1267" 
d="M403 1157l299 318h101l188 -318h-121l-131 223l-209 -223h-127zM606 86q156 0 282 105t156 279t-77 322q-109 146 -305 146q-158 0 -284 -105t-157 -283t79 -320q110 -144 306 -144zM600 -20q-250 0 -390 177t-97 421q35 202 193 334t360 132q250 0 391 -181t98 -421
q-37 -202 -193 -332t-362 -130z" />
    <glyph glyph-name="otilde" unicode="&#xf5;" horiz-adv-x="1267" 
d="M557 1380q78 0 176 -61q94 -63 146 -64q90 0 114 117h97q-20 -104 -80 -164t-148 -59q-29 0 -46 4t-26 6q-8 2 -22 9q-14 8 -20 10q-14 6 -36 20q-117 78 -163 78q-45 0 -75 -32t-40 -87h-94q16 99 78 161t139 62zM606 86q156 0 282 105t156 279t-77 322
q-109 146 -305 146q-158 0 -284 -105t-157 -283t79 -320q110 -144 306 -144zM600 -20q-250 0 -390 177t-97 421q35 202 193 334t360 132q250 0 391 -181t98 -421q-37 -202 -193 -332t-362 -130z" />
    <glyph glyph-name="odieresis" unicode="&#xf6;" horiz-adv-x="1267" 
d="M606 86q156 0 282 105t156 279t-77 322q-109 146 -305 146q-158 0 -284 -105t-157 -283t79 -320q110 -144 306 -144zM600 -20q-250 0 -390 177t-97 421q35 202 193 334t360 132q250 0 391 -181t98 -421q-37 -202 -193 -332t-362 -130zM520 1167l49 285h117l-51 -285h-115
zM758 1167l51 285h115l-50 -285h-116z" />
    <glyph glyph-name="divide" unicode="&#xf7;" horiz-adv-x="948" 
d="M379 334l45 248h100l-43 -248h-102zM481 909l43 250h103l-45 -250h-101zM113 696l18 103h758l-19 -103h-757z" />
    <glyph glyph-name="oslash" unicode="&#xf8;" horiz-adv-x="1265" 
d="M616 86q146 0 272 105t154 268q35 190 -79 338l-592 -637q99 -74 245 -74zM652 938q-148 0 -274 -106t-158 -286t85 -323l592 637q-97 78 -245 78zM652 1044q190 0 323 -100l74 80h122l-131 -141q74 -86 105 -201t10 -240q-37 -202 -193 -332t-348 -130t-321 96l-70 -76
h-125l127 137q-160 180 -112 441q35 202 193 334q156 132 346 132z" />
    <glyph glyph-name="ugrave" unicode="&#xf9;" horiz-adv-x="1208" 
d="M641 1157l-231 318h151l187 -318h-107zM512 -20q-230 0 -327 137q-95 137 -52 362l98 545h117q-94 -522 -98 -545q-35 -180 36 -286q72 -107 232 -107t276 101t144 251l102 586h115l-182 -1024h-115l33 176q-149 -196 -379 -196z" />
    <glyph glyph-name="uacute" unicode="&#xfa;" horiz-adv-x="1208" 
d="M604 1157l301 318h154l-342 -318h-113zM512 -20q-230 0 -327 137q-95 137 -52 362l98 545h117q-94 -522 -98 -545q-35 -180 36 -286q72 -107 232 -107t276 101t144 251l102 586h115l-182 -1024h-115l33 176q-149 -196 -379 -196z" />
    <glyph glyph-name="ucircumflex" unicode="&#xfb;" horiz-adv-x="1208" 
d="M399 1157l299 318h101l188 -318h-121l-131 223l-209 -223h-127zM512 -20q-230 0 -327 137q-95 137 -52 362l98 545h117q-94 -522 -98 -545q-35 -180 36 -286q72 -107 232 -107t276 101t144 251l102 586h115l-182 -1024h-115l33 176q-149 -196 -379 -196z" />
    <glyph glyph-name="udieresis" unicode="&#xfc;" horiz-adv-x="1208" 
d="M778 1167l51 285h115l-49 -285h-117zM541 1167l49 285h117l-52 -285h-114zM512 -20q-230 0 -327 137q-95 137 -52 362l98 545h117q-94 -522 -98 -545q-35 -180 36 -286q72 -107 232 -107t276 101t144 251l102 586h115l-182 -1024h-115l33 176q-149 -196 -379 -196z" />
    <glyph glyph-name="yacute" unicode="&#xfd;" horiz-adv-x="1146" 
d="M571 1157l301 318h154l-342 -318h-113zM111 -473l340 541l-291 956h121l249 -831l504 831h133l-927 -1497h-129z" />
    <glyph glyph-name="thorn" unicode="&#xfe;" horiz-adv-x="1302" 
d="M641 88q158 0 284 108t152 269q35 189 -70 331t-298 142q-160 0 -287 -115t-157 -293q-29 -178 73 -310t303 -132zM647 -20q-162 -2 -268 76t-150 204l-127 -731h-116l346 1966h117q-72 -399 -115 -647q158 196 395 196t369 -175t90 -418q-36 -209 -190 -340t-351 -131z
" />
    <glyph glyph-name="ydieresis" unicode="&#xff;" horiz-adv-x="1146" 
d="M723 1167l51 285h115l-49 -285h-117zM485 1167l50 285h116l-51 -285h-115zM111 -473l340 541l-291 956h121l249 -831l504 831h133l-927 -1497h-129z" />
    <glyph glyph-name="Amacron" unicode="&#x100;" horiz-adv-x="1404" 
d="M633 1628l18 103h541l-18 -103h-541zM858 1337l-452 -807h612zM-18 0l841 1495h119l303 -1495h-121l-84 418h-698l-233 -418h-127z" />
    <glyph glyph-name="amacron" unicode="&#x101;" horiz-adv-x="1292" 
d="M469 1157l18 103h541l-18 -103h-541zM600 86q158 0 282 109t156 285t-72 318q-103 140 -302 140q-160 0 -287 -110t-157 -288t78 -316t302 -138zM584 -20q-242 0 -379 174t-96 415q37 205 193 340q157 135 357 135q154 0 264 -74t154 -194l45 248h117l-180 -1024h-117
l31 178q-147 -198 -389 -198z" />
    <glyph glyph-name="Abreve" unicode="&#x102;" horiz-adv-x="1404" 
d="M898 1620q-156 0 -230 94t-50 228h103q-18 -98 34 -165q53 -67 159 -67t175 66t87 166h104q-25 -134 -126 -228t-256 -94zM858 1337l-452 -807h612zM-18 0l841 1495h119l303 -1495h-121l-84 418h-698l-233 -418h-127z" />
    <glyph glyph-name="abreve" unicode="&#x103;" horiz-adv-x="1292" 
d="M746 1143q-156 0 -230 94t-49 227h102q-18 -98 34 -165t159 -67q108 0 176 66t86 166h104q-25 -135 -126 -228t-256 -93zM600 86q158 0 282 109t156 285t-72 318q-103 140 -302 140q-160 0 -287 -110t-157 -288t78 -316t302 -138zM584 -20q-242 0 -379 174t-96 415
q37 205 193 340q157 135 357 135q154 0 264 -74t154 -194l45 248h117l-180 -1024h-117l31 178q-147 -198 -389 -198z" />
    <glyph glyph-name="Aogonek" unicode="&#x104;" horiz-adv-x="1404" 
d="M858 1337l-452 -807h612zM1067 -430q-111 0 -175 61t-50 141t76 139q62 58 200 122l-78 385h-698l-233 -418h-127l841 1495h119l303 -1495q-158 -80 -218 -126q-61 -46 -69 -95t27 -81t94 -32q98 0 197 80l82 -65q-139 -111 -291 -111z" />
    <glyph glyph-name="aogonek" unicode="&#x105;" horiz-adv-x="1292" 
d="M600 86q158 0 282 109t156 285t-72 318q-103 140 -302 140q-160 0 -287 -110t-157 -288t78 -316t302 -138zM584 -20q-242 0 -379 174t-96 415q37 205 193 340q157 135 357 135q154 0 264 -74t154 -194l45 248h117l-180 -1024q-143 -88 -195 -136t-61 -94q-7 -46 23 -75
t83 -29q96 0 178 88l82 -65q-125 -119 -276 -119q-100 0 -158 60q-57 60 -44 136t67 132q54 55 188 133l27 147q-147 -198 -389 -198z" />
    <glyph glyph-name="Cacute" unicode="&#x106;" horiz-adv-x="1708" 
d="M858 -20q-354 0 -555 250t-139 601q52 297 286 491t539 194q265 0 455 -152t225 -401h-127q-32 195 -184 317t-392 123q-240 0 -441 -167q-200 -167 -244 -421q-51 -287 117 -505t474 -218q201 0 368 110t241 296h131q-90 -244 -292 -381t-462 -137zM1006 1628l301 318
h153l-342 -318h-112z" />
    <glyph glyph-name="cacute" unicode="&#x107;" horiz-adv-x="1257" 
d="M604 -20q-250 0 -391 177t-98 421q35 202 195 334t370 132q209 0 344 -129t139 -317h-112q-9 152 -115 246t-264 94t-288 -106t-160 -282t80 -320t306 -144q154 0 267 86t151 246h115q-45 -210 -195 -324t-344 -114zM657 1157l301 318h154l-342 -318h-113z" />
    <glyph glyph-name="Ccircumflex" unicode="&#x108;" horiz-adv-x="1708" 
d="M858 -20q-354 0 -555 250t-139 601q52 297 286 491t539 194q265 0 455 -152t225 -401h-127q-32 195 -184 317t-392 123q-240 0 -441 -167q-200 -167 -244 -421q-51 -287 117 -505t474 -218q201 0 368 110t241 296h131q-90 -244 -292 -381t-462 -137zM717 1628l299 318
h100l189 -318h-121l-131 223l-209 -223h-127z" />
    <glyph glyph-name="ccircumflex" unicode="&#x109;" horiz-adv-x="1257" 
d="M604 -20q-250 0 -391 177t-98 421q35 202 195 334t370 132q209 0 344 -129t139 -317h-112q-9 152 -115 246t-264 94t-288 -106t-160 -282t80 -320t306 -144q154 0 267 86t151 246h115q-45 -210 -195 -324t-344 -114zM403 1157l299 318h101l188 -318h-121l-131 223
l-209 -223h-127z" />
    <glyph glyph-name="Cdotaccent" unicode="&#x10a;" horiz-adv-x="1708" 
d="M956 1638l50 285h116l-49 -285h-117zM858 -20q-354 0 -555 250t-139 601q52 297 286 491t539 194q265 0 455 -152t225 -401h-127q-32 195 -184 317t-392 123q-240 0 -441 -167q-200 -167 -244 -421q-51 -287 117 -505t474 -218q201 0 368 110t241 296h131
q-90 -244 -292 -381t-462 -137z" />
    <glyph glyph-name="cdotaccent" unicode="&#x10b;" horiz-adv-x="1257" 
d="M635 1167l49 285h117l-49 -285h-117zM604 -20q-250 0 -391 177t-98 421q35 202 195 334t370 132q209 0 344 -129t139 -317h-112q-9 152 -115 246t-264 94t-288 -106t-160 -282t80 -320t306 -144q154 0 267 86t151 246h115q-45 -210 -195 -324t-344 -114z" />
    <glyph glyph-name="Ccaron" unicode="&#x10c;" horiz-adv-x="1708" 
d="M983 1628l-188 318h123l129 -224l210 224h125l-299 -318h-100zM858 -20q-354 0 -555 250t-139 601q52 297 286 491t539 194q265 0 455 -152t225 -401h-127q-32 195 -184 317t-392 123q-240 0 -441 -167q-200 -167 -244 -421q-51 -287 117 -505t474 -218q201 0 368 110
t241 296h131q-90 -244 -292 -381t-462 -137z" />
    <glyph glyph-name="ccaron" unicode="&#x10d;" horiz-adv-x="1257" 
d="M653 1157l-188 318h123l129 -224l211 224h125l-299 -318h-101zM604 -20q-250 0 -391 177t-98 421q35 202 195 334t370 132q209 0 344 -129t139 -317h-112q-9 152 -115 246t-264 94t-288 -106t-160 -282t80 -320t306 -144q154 0 267 86t151 246h115q-45 -210 -195 -324
t-344 -114z" />
    <glyph glyph-name="Dcaron" unicode="&#x10e;" horiz-adv-x="1441" 
d="M764 1628l-189 318h123l129 -224l211 224h125l-299 -318h-100zM688 1386h-262l-223 -1275h350q258 -1 453 163q196 164 242 438t-116 474q-163 200 -444 200zM545 0h-482l263 1495h381q325 -4 521 -241t140 -554q-56 -316 -284 -508t-539 -192z" />
    <glyph glyph-name="dcaron" unicode="&#x10f;" horiz-adv-x="1411" 
d="M1389 1176l223 317h125l-246 -317h-102zM604 86q158 0 281 109t155 285t-71 318q-104 140 -303 140q-160 0 -287 -105t-156 -283t79 -322q108 -142 302 -142zM583 -20q-239 0 -376 178t-94 420q35 202 191 334t360 132q152 0 262 -72t155 -190l125 713h117l-264 -1495
h-111l31 178q-157 -198 -396 -198z" />
    <glyph glyph-name="Dcroat" unicode="&#x110;" horiz-adv-x="1495" 
d="M606 111q256 0 453 168q197 167 243 437t-118 470q-162 200 -443 200h-262l-100 -567h469l-17 -100h-469l-106 -608h350zM598 0h-481l125 719h-160l18 100h160l119 676h381q215 -2 381 -112q165 -109 241 -293t37 -398q-53 -300 -283 -496t-538 -196z" />
    <glyph glyph-name="dcroat" unicode="&#x111;" horiz-adv-x="1357" 
d="M602 86q158 0 281 109t155 285t-71 318q-104 140 -303 140q-160 0 -287 -105t-156 -283t79 -322q108 -142 302 -142zM662 1044q152 0 262 -72t155 -190l68 385h-279l15 78h276l45 250h117l-45 -250h141l-12 -78h-141l-207 -1167h-111l31 178q-159 -198 -397 -198
t-375 178t-94 420q35 202 191 334t360 132z" />
    <glyph glyph-name="Emacron" unicode="&#x112;" horiz-adv-x="1193" 
d="M539 1628l18 103h541l-19 -103h-540zM63 0l263 1495h915l-20 -111h-795l-100 -569h796l-20 -110h-795l-104 -594h794l-18 -111h-916z" />
    <glyph glyph-name="emacron" unicode="&#x113;" horiz-adv-x="1251" 
d="M432 1157l19 103h540l-18 -103h-541zM670 940q-160 0 -282 -98t-159 -256h803q2 158 -100 256t-262 98zM598 -20q-248 0 -386 170t-104 395t191 362q158 137 382 137t360 -158t106 -380l-4 -25h-926q-2 -175 108 -285t283 -110q135 0 235 68q99 68 146 196h127
q-54 -176 -196 -273t-322 -97z" />
    <glyph glyph-name="Ebreve" unicode="&#x114;" horiz-adv-x="1193" 
d="M800 1620q-155 0 -230 94t-50 228h103q-19 -98 33 -165t159 -67t175 66t87 166h105q-25 -134 -126 -228t-256 -94zM63 0l263 1495h915l-20 -111h-795l-100 -569h796l-20 -110h-795l-104 -594h794l-18 -111h-916z" />
    <glyph glyph-name="ebreve" unicode="&#x115;" horiz-adv-x="1251" 
d="M699 1143q-155 0 -229 94t-50 227h102q-18 -98 34 -165t159 -67t175 66t87 166h104q-25 -135 -126 -228t-256 -93zM670 940q-160 0 -282 -98t-159 -256h803q2 158 -100 256t-262 98zM598 -20q-248 0 -386 170t-104 395t191 362q158 137 382 137t360 -158t106 -380l-4 -25
h-926q-2 -175 108 -285t283 -110q135 0 235 68q99 68 146 196h127q-54 -176 -196 -273t-322 -97z" />
    <glyph glyph-name="Edotaccent" unicode="&#x116;" horiz-adv-x="1193" 
d="M772 1638l49 285h117l-49 -285h-117zM63 0l263 1495h915l-20 -111h-795l-100 -569h796l-20 -110h-795l-104 -594h794l-18 -111h-916z" />
    <glyph glyph-name="edotaccent" unicode="&#x117;" horiz-adv-x="1251" 
d="M643 1167l49 285h117l-49 -285h-117zM670 940q-160 0 -282 -98t-159 -256h803q2 158 -100 256t-262 98zM598 -20q-248 0 -386 170t-104 395t191 362q158 137 382 137t360 -158t106 -380l-4 -25h-926q-2 -175 108 -285t283 -110q135 0 235 68q99 68 146 196h127
q-54 -176 -196 -273t-322 -97z" />
    <glyph glyph-name="Eogonek" unicode="&#x118;" horiz-adv-x="1193" 
d="M811 -334q98 0 197 80l82 -65q-139 -111 -291 -111q-111 0 -175 61t-49 148q20 123 209 221h-721l263 1495h915l-20 -111h-795l-100 -569h796l-20 -110h-795l-104 -594h794l-18 -111h-2q-158 -80 -218 -126q-61 -46 -69 -95t27 -81t94 -32z" />
    <glyph glyph-name="eogonek" unicode="&#x119;" horiz-adv-x="1251" 
d="M670 940q-160 0 -282 -98t-159 -256h803q2 158 -100 256t-262 98zM479 -440q-111 0 -175 61t-48 148q20 123 215 225q-193 43 -292 201q-99 159 -68 367t188 345q158 137 382 137t360 -158t106 -380l-4 -25h-926q-2 -175 108 -285t283 -110q135 0 235 68q99 68 146 196
h127q-53 -166 -181 -262t-296 -106q-145 -74 -201 -120t-66 -94q-8 -48 26 -80t94 -32q98 0 196 80l82 -66q-139 -110 -291 -110z" />
    <glyph glyph-name="Ecaron" unicode="&#x11a;" horiz-adv-x="1193" 
d="M760 1628l-189 318h123l129 -224l211 224h125l-299 -318h-100zM63 0l263 1495h915l-20 -111h-795l-100 -569h796l-20 -110h-795l-104 -594h794l-18 -111h-916z" />
    <glyph glyph-name="ecaron" unicode="&#x11b;" horiz-adv-x="1251" 
d="M657 1157l-188 318h123l129 -224l211 224h125l-299 -318h-101zM670 940q-160 0 -282 -98t-159 -256h803q2 158 -100 256t-262 98zM598 -20q-248 0 -386 170t-104 395t191 362q158 137 382 137t360 -158t106 -380l-4 -25h-926q-2 -175 108 -285t283 -110q135 0 235 68
q99 68 146 196h127q-54 -176 -196 -273t-322 -97z" />
    <glyph glyph-name="Gcircumflex" unicode="&#x11c;" horiz-adv-x="1734" 
d="M872 -20q-236 0 -414 118t-255 316q-78 197 -39 420q51 294 281 488t540 194q252 0 441 -142t241 -377h-125q-51 188 -207 297t-362 109q-258 0 -453 -166t-239 -418q-33 -186 30 -352t215 -269t357 -104q262 0 434 161t219 409h-655l20 110h776l-6 -39
q-39 -327 -253 -541t-546 -214zM715 1628l299 318h100l189 -318h-121l-131 223l-209 -223h-127z" />
    <glyph glyph-name="gcircumflex" unicode="&#x11d;" horiz-adv-x="1310" 
d="M451 1157l299 318h100l188 -318h-120l-132 223l-208 -223h-127zM604 86q158 0 281 109t155 285t-72 318q-103 140 -302 140q-160 0 -287 -105t-157 -283t78 -322q108 -142 304 -142zM588 -20q-242 0 -380 178t-95 420q35 202 191 334t358 132q154 0 264 -74t155 -196
l45 250h119l-178 -1004q-92 -512 -539 -512q-190 0 -313 115t-125 279h125q4 -129 89 -208t246 -79t263 106t135 297l2 7q0 8 3 21q3 12 6 30l14 84q-143 -180 -385 -180z" />
    <glyph glyph-name="Gbreve" unicode="&#x11e;" horiz-adv-x="1734" 
d="M1023 1620q-155 0 -229 94t-51 228h103q-18 -98 34 -165t158 -67t176 66q68 66 86 166h105q-25 -134 -126 -228t-256 -94zM872 -20q-236 0 -414 118t-255 316q-78 197 -39 420q51 294 281 488t540 194q252 0 441 -142t241 -377h-125q-51 188 -207 297t-362 109
q-258 0 -453 -166t-239 -418q-33 -186 30 -352t215 -269t357 -104q262 0 434 161t219 409h-655l20 110h776l-6 -39q-39 -327 -253 -541t-546 -214z" />
    <glyph glyph-name="gbreve" unicode="&#x11f;" horiz-adv-x="1310" 
d="M759 1143q-155 0 -230 94t-50 227h103q-18 -98 34 -165t158 -67q108 0 176 66t86 166h105q-25 -135 -126 -228t-256 -93zM604 86q158 0 281 109t155 285t-72 318q-103 140 -302 140q-160 0 -287 -105t-157 -283t78 -322q108 -142 304 -142zM588 -20q-242 0 -380 178
t-95 420q35 202 191 334t358 132q154 0 264 -74t155 -196l45 250h119l-178 -1004q-92 -512 -539 -512q-190 0 -313 115t-125 279h125q4 -129 89 -208t246 -79t263 106t135 297l2 7q0 8 3 21q3 12 6 30l14 84q-143 -180 -385 -180z" />
    <glyph glyph-name="Gdotaccent" unicode="&#x120;" horiz-adv-x="1734" 
d="M969 1638l49 285h117l-50 -285h-116zM872 -20q-236 0 -414 118t-255 316q-78 197 -39 420q51 294 281 488t540 194q252 0 441 -142t241 -377h-125q-51 188 -207 297t-362 109q-258 0 -453 -166t-239 -418q-33 -186 30 -352t215 -269t357 -104q262 0 434 161t219 409h-655
l20 110h776l-6 -39q-39 -327 -253 -541t-546 -214z" />
    <glyph glyph-name="gdotaccent" unicode="&#x121;" horiz-adv-x="1310" 
d="M659 1167l50 285h116l-49 -285h-117zM604 86q158 0 281 109t155 285t-72 318q-103 140 -302 140q-160 0 -287 -105t-157 -283t78 -322q108 -142 304 -142zM588 -20q-242 0 -380 178t-95 420q35 202 191 334t358 132q154 0 264 -74t155 -196l45 250h119l-178 -1004
q-92 -512 -539 -512q-190 0 -313 115t-125 279h125q4 -129 89 -208t246 -79t263 106t135 297l2 7q0 8 3 21q3 12 6 30l14 84q-143 -180 -385 -180z" />
    <glyph glyph-name="Gcommaaccent" unicode="&#x122;" horiz-adv-x="1734" 
d="M872 -20q-236 0 -414 118t-255 316q-78 197 -39 420q51 294 281 488t540 194q252 0 441 -142t241 -377h-125q-51 188 -207 297t-362 109q-258 0 -453 -166t-239 -418q-33 -186 30 -352t215 -269t357 -104q262 0 434 161t219 409h-655l20 110h776l-6 -39
q-39 -327 -253 -541t-546 -214zM594 -551l164 418h108l-194 -418h-78z" />
    <glyph glyph-name="gcommaaccent" unicode="&#x123;" horiz-adv-x="1310" 
d="M682 1141l164 418h108l-194 -418h-78zM604 86q158 0 281 109t155 285t-72 318q-103 140 -302 140q-160 0 -287 -105t-157 -283t78 -322q108 -142 304 -142zM588 -20q-242 0 -380 178t-95 420q35 202 191 334t358 132q154 0 264 -74t155 -196l45 250h119l-178 -1004
q-92 -512 -539 -512q-190 0 -313 115t-125 279h125q4 -129 89 -208t246 -79t263 106t135 297l2 7q0 8 3 21q3 12 6 30l14 84q-143 -180 -385 -180z" />
    <glyph glyph-name="Hcircumflex" unicode="&#x124;" horiz-adv-x="1345" 
d="M565 1628l299 318h101l188 -318h-121l-131 223l-209 -223h-127zM979 0l121 692h-797l-121 -692h-121l263 1495h120l-120 -690h796l121 690h119l-262 -1495h-119z" />
    <glyph glyph-name="hcircumflex" unicode="&#x125;" horiz-adv-x="1208" 
d="M111 1599l299 318h100l188 -318h-120l-132 224l-208 -224h-127zM57 0l262 1495h117l-110 -618q139 167 354 167t324 -141t67 -352l-96 -551h-119l96 555q33 168 -41 278q-73 109 -233 109t-265 -99t-134 -259l-103 -584h-119z" />
    <glyph glyph-name="Hbar" unicode="&#x126;" horiz-adv-x="1404" 
d="M354 805h797l51 301h-796zM137 1106l17 92h147l53 297h121l-53 -297h797l53 297h119l-54 -297h146l-17 -92h-145l-193 -1106h-118l120 692h-796l-121 -692h-121l193 1106h-148z" />
    <glyph glyph-name="hbar" unicode="&#x127;" horiz-adv-x="1243" 
d="M170 1225l12 78h125l35 192h117l-35 -192l303 2l-14 -78l-303 -2l-62 -348q138 167 354 167t324 -141t68 -352l-97 -551h-118l96 555q33 168 -41 278q-74 109 -234 109t-265 -99t-134 -259l-102 -584h-119l215 1225h-125z" />
    <glyph glyph-name="Itilde" unicode="&#x128;" horiz-adv-x="466" 
d="M309 1851q78 0 176 -61q2 -2 38 -24t42 -25t24 -9t42 -6q90 0 114 117h97q-20 -103 -80 -163t-148 -60q-29 0 -46 4t-26 6q-8 2 -22 9t-20 9q-14 6 -36 21q-117 78 -163 78q-45 0 -75 -32t-40 -87h-94q16 98 78 160t139 63zM84 0l262 1495h119l-262 -1495h-119z" />
    <glyph glyph-name="itilde" unicode="&#x129;" horiz-adv-x="407" 
d="M172 1380q78 0 176 -61q2 -2 38 -24t42 -25q6 -2 23 -8t43 -7q90 0 114 117h97q-19 -104 -79 -164t-149 -59q-29 0 -46 4t-27 6t-22 9q-14 8 -20 10q-11 4 -35 20q-117 78 -162 78q-46 0 -76 -32t-40 -87h-94q15 99 77 161t140 62zM55 0l181 1024h116l-178 -1024h-119z
" />
    <glyph glyph-name="Imacron" unicode="&#x12a;" horiz-adv-x="466" 
d="M158 1628l18 103h541l-19 -103h-540zM84 0l262 1495h119l-262 -1495h-119z" />
    <glyph glyph-name="imacron" unicode="&#x12b;" horiz-adv-x="407" 
d="M53 1157l19 103h540l-18 -103h-541zM55 0l181 1024h116l-178 -1024h-119z" />
    <glyph glyph-name="Ibreve" unicode="&#x12c;" horiz-adv-x="466" 
d="M439 1620q-155 0 -229 94t-50 228h102q-18 -98 34 -165t159 -67t175 66t87 166h104q-25 -134 -126 -228t-256 -94zM84 0l262 1495h119l-262 -1495h-119z" />
    <glyph glyph-name="ibreve" unicode="&#x12d;" horiz-adv-x="407" 
d="M316 1143q-156 0 -230 94t-49 227h102q-18 -98 34 -165t159 -67q108 0 176 66t86 166h104q-25 -135 -126 -228t-256 -93zM55 0l181 1024h116l-178 -1024h-119z" />
    <glyph glyph-name="Iogonek" unicode="&#x12e;" horiz-adv-x="466" 
d="M27 -430q-111 0 -175 61t-50 141q15 80 80 141q65 60 208 126l256 1456h119l-262 -1495h2q-158 -80 -218 -126q-61 -46 -69 -95t27 -81t94 -32q98 0 197 80l81 -65q-138 -111 -290 -111z" />
    <glyph glyph-name="iogonek" unicode="&#x12f;" horiz-adv-x="407" 
d="M266 1198l53 299h117l-51 -299h-119zM-4 -430q-112 0 -176 61t-48 141t80 141q65 60 209 126l175 985h116l-180 -1024h2q-158 -80 -218 -126t-68 -95t26 -81q35 -32 94 -32q98 0 197 80l82 -65q-139 -111 -291 -111z" />
    <glyph glyph-name="Idotaccent" unicode="&#x130;" horiz-adv-x="466" 
d="M369 1638l49 285h117l-50 -285h-116zM84 0l262 1495h119l-262 -1495h-119z" />
    <glyph glyph-name="dotlessi" unicode="&#x131;" horiz-adv-x="407" 
d="M55 0l181 1024h116l-178 -1024h-119z" />
    <glyph glyph-name="IJ" unicode="&#x132;" horiz-adv-x="1171" 
d="M72 0l262 1495h119l-263 -1495h-118zM582 113q260 0 305 272l196 1110h121l-196 -1102q-32 -197 -136 -295t-299 -98h-192l18 113h183z" />
    <glyph glyph-name="ij" unicode="&#x133;" horiz-adv-x="741" 
d="M590 1167l53 299h117l-51 -299h-119zM102 -215q152 0 205 47t86 213l172 979h119l-174 -981q-39 -219 -118 -293t-275 -74h-113l19 109h79zM264 1167l51 299h117l-51 -299h-117zM176 0h-117l179 1024h118z" />
    <glyph glyph-name="Jcircumflex" unicode="&#x134;" horiz-adv-x="1015" 
d="M417 -20q-177 0 -274 108q-96 109 -73 279h118q-16 -127 42 -202t186 -75t209 80q80 80 100 207l199 1118h118l-196 -1108q-32 -191 -142 -299t-287 -108zM698 1628l299 318h101l188 -318h-121l-131 223l-209 -223h-127z" />
    <glyph glyph-name="jcircumflex" unicode="&#x135;" horiz-adv-x="405" 
d="M-248 -469h-33l19 111q158 0 213 48t86 216l199 1118h116l-198 -1120q-39 -221 -120 -297t-282 -76zM14 1157l299 318h101l188 -318h-121l-131 223l-209 -223h-127z" />
    <glyph glyph-name="Kcommaaccent" unicode="&#x136;" horiz-adv-x="1325" 
d="M365 -551l163 418h109l-195 -418h-77zM1053 0l-398 811l-395 -373l-76 -438h-121l263 1495h120l-155 -891l944 891h156l-643 -608l434 -887h-129z" />
    <glyph glyph-name="kcommaaccent" unicode="&#x137;" horiz-adv-x="1083" 
d="M264 -524l164 418h109l-195 -418h-78zM811 0l-309 526l-277 -229l-51 -297h-117l262 1495h117l-184 -1055l694 584h156l-512 -432l344 -592h-123z" />
    <glyph glyph-name="kgreenlandic" unicode="&#x138;" horiz-adv-x="1071" 
d="M926 0h-125l-299 512l-283 -248l-45 -264h-117l181 1022h114l-106 -606l688 608h156l-502 -446z" />
    <glyph glyph-name="Lacute" unicode="&#x139;" horiz-adv-x="1099" 
d="M356 1628l301 318h154l-342 -318h-113zM63 0l263 1495h120l-243 -1382h708l-18 -113h-830z" />
    <glyph glyph-name="lacute" unicode="&#x13a;" horiz-adv-x="413" 
d="M59 0l260 1495h119l-262 -1495h-117zM334 1599l301 318h153l-342 -318h-112z" />
    <glyph glyph-name="Lcommaaccent" unicode="&#x13b;" horiz-adv-x="1099" 
d="M63 0l263 1495h120l-243 -1382h708l-18 -113h-830zM229 -551l164 418h109l-195 -418h-78z" />
    <glyph glyph-name="lcommaaccent" unicode="&#x13c;" horiz-adv-x="413" 
d="M59 0l260 1495h119l-262 -1495h-117zM-45 -524l164 418h108l-194 -418h-78z" />
    <glyph glyph-name="Lcaron" unicode="&#x13d;" horiz-adv-x="1099" 
d="M63 0l263 1495h120l-243 -1382h708l-18 -113h-830zM655 1178l224 317h125l-246 -317h-103z" />
    <glyph glyph-name="lcaron" unicode="&#x13e;" horiz-adv-x="526" 
d="M59 0l260 1495h119l-262 -1495h-117zM471 1178l223 317h125l-246 -317h-102z" />
    <glyph glyph-name="Ldot" unicode="&#x13f;" horiz-adv-x="1110" 
d="M860 537l49 284h117l-49 -284h-117zM63 0l263 1495h120l-243 -1382h708l-18 -113h-830z" />
    <glyph glyph-name="ldot" unicode="&#x140;" horiz-adv-x="669" 
d="M418 424l49 285h117l-49 -285h-117zM59 0l260 1495h119l-262 -1495h-117z" />
    <glyph glyph-name="Lslash" unicode="&#x141;" horiz-adv-x="1144" 
d="M68 680l18 90l172 49l119 676h121l-113 -639l408 119l-19 -90l-405 -117l-115 -655h709l-19 -113h-829l127 731z" />
    <glyph glyph-name="lslash" unicode="&#x142;" horiz-adv-x="589" 
d="M45 647l14 84l209 64l123 700h119l-117 -661l228 71l-15 -84l-227 -69l-131 -752h-117l123 713z" />
    <glyph glyph-name="Nacute" unicode="&#x143;" horiz-adv-x="1464" 
d="M63 0l263 1495h127l682 -1302l229 1302h119l-262 -1495h-117l-690 1313l-230 -1313h-121zM864 1628l301 318h154l-342 -318h-113z" />
    <glyph glyph-name="nacute" unicode="&#x144;" horiz-adv-x="1208" 
d="M55 0l181 1024h118l-30 -172q137 192 356 192t328 -140t67 -353l-96 -551h-117l94 555q33 170 -42 279q-74 108 -234 108t-263 -97t-141 -282l-102 -563h-119zM688 1157l301 318h154l-342 -318h-113z" />
    <glyph glyph-name="Ncommaaccent" unicode="&#x145;" horiz-adv-x="1464" 
d="M406 -551l163 418h109l-195 -418h-77zM63 0l263 1495h127l682 -1302l229 1302h119l-262 -1495h-117l-690 1313l-230 -1313h-121z" />
    <glyph glyph-name="ncommaaccent" unicode="&#x146;" horiz-adv-x="1208" 
d="M336 -524l164 418h108l-194 -418h-78zM55 0l181 1024h118l-30 -172q137 192 356 192t328 -140t67 -353l-96 -551h-117l94 555q33 170 -42 279q-74 108 -234 108t-263 -97t-141 -282l-102 -563h-119z" />
    <glyph glyph-name="Ncaron" unicode="&#x147;" horiz-adv-x="1464" 
d="M885 1628l-189 318h123l129 -224l211 224h125l-299 -318h-100zM63 0l263 1495h127l682 -1302l229 1302h119l-262 -1495h-117l-690 1313l-230 -1313h-121z" />
    <glyph glyph-name="ncaron" unicode="&#x148;" horiz-adv-x="1208" 
d="M672 1157l-189 318h123l129 -224l211 224h125l-299 -318h-100zM55 0l181 1024h118l-30 -172q137 192 356 192t328 -140t67 -353l-96 -551h-117l94 555q33 170 -42 279q-74 108 -234 108t-263 -97t-141 -282l-102 -563h-119z" />
    <glyph glyph-name="Eng" unicode="&#x14a;" horiz-adv-x="1464" 
d="M793 -322q141 0 209 69t92 210l8 47l-688 1309l-230 -1313h-121l263 1495h127l682 -1302l229 1302h119l-269 -1530q-37 -217 -133 -309t-297 -92h-127l23 114h113z" />
    <glyph glyph-name="eng" unicode="&#x14b;" horiz-adv-x="1208" 
d="M680 1044q219 0 328 -140t67 -353l-117 -647q-40 -225 -120 -299t-289 -74h-35l18 111q166 0 223 46q56 46 87 218l116 649q31 168 -43 278q-73 109 -235 109t-267 -108t-141 -285l-98 -549h-119l181 1024h118l-30 -168q137 188 356 188z" />
    <glyph glyph-name="Omacron" unicode="&#x14c;" horiz-adv-x="1746" 
d="M874 90q244 0 437 166t237 416q33 182 -26 349q-60 167 -208 275t-353 109q-248 0 -442 -167t-238 -419q-49 -299 123 -514t470 -215zM864 -20q-350 0 -556 252t-144 602q51 298 280 490t523 192q237 0 413 -126t250 -323t35 -412q-53 -297 -279 -486t-522 -189z
M750 1628l18 103h541l-19 -103h-540z" />
    <glyph glyph-name="omacron" unicode="&#x14d;" horiz-adv-x="1267" 
d="M606 86q156 0 282 105t156 279t-77 322q-109 146 -305 146q-158 0 -284 -105t-157 -283t79 -320q110 -144 306 -144zM600 -20q-250 0 -390 177t-97 421q35 202 193 334t360 132q250 0 391 -181t98 -421q-37 -202 -193 -332t-362 -130zM410 1157l18 103h541l-19 -103h-540
z" />
    <glyph glyph-name="Obreve" unicode="&#x14e;" horiz-adv-x="1746" 
d="M1031 1622q-155 0 -229 94t-50 228h102q-18 -98 34 -165t158 -67t176 66q69 66 87 166h104q-25 -134 -126 -228t-256 -94zM874 90q244 0 437 166t237 416q33 182 -26 349q-60 167 -208 275t-353 109q-248 0 -442 -167t-238 -419q-49 -299 123 -514t470 -215zM864 -20
q-350 0 -556 252t-144 602q51 298 280 490t523 192q237 0 413 -126t250 -323t35 -412q-53 -297 -279 -486t-522 -189z" />
    <glyph glyph-name="obreve" unicode="&#x14f;" horiz-adv-x="1267" 
d="M699 1143q-155 0 -229 94t-50 227h102q-18 -98 34 -165t159 -67t175 66t87 166h104q-25 -135 -126 -228t-256 -93zM606 86q156 0 282 105t156 279t-77 322q-109 146 -305 146q-158 0 -284 -105t-157 -283t79 -320q110 -144 306 -144zM600 -20q-250 0 -390 177t-97 421
q35 202 193 334t360 132q250 0 391 -181t98 -421q-37 -202 -193 -332t-362 -130z" />
    <glyph glyph-name="Ohungarumlaut" unicode="&#x150;" horiz-adv-x="1746" 
d="M874 90q244 0 437 166t237 416q33 182 -26 349q-60 167 -208 275t-353 109q-248 0 -442 -167t-238 -419q-49 -299 123 -514t470 -215zM864 -20q-350 0 -556 252t-144 602q51 298 280 490t523 192q237 0 413 -126t250 -323t35 -412q-53 -297 -279 -486t-522 -189z
M1098 1628l299 318h145l-340 -318h-104zM836 1628l301 318h145l-340 -318h-106z" />
    <glyph glyph-name="ohungarumlaut" unicode="&#x151;" horiz-adv-x="1267" 
d="M606 86q156 0 282 105t156 279t-77 322q-109 146 -305 146q-158 0 -284 -105t-157 -283t79 -320q110 -144 306 -144zM600 -20q-250 0 -390 177t-97 421q35 202 193 334t360 132q250 0 391 -181t98 -421q-37 -202 -193 -332t-362 -130zM739 1157l299 318h146l-340 -318
h-105zM477 1157l301 318h146l-340 -318h-107z" />
    <glyph glyph-name="OE" unicode="&#x152;" horiz-adv-x="2560" 
d="M877 94q241 0 437 176t240 428q51 281 -112 494q-164 213 -471 213q-250 0 -448 -167t-242 -419q-33 -186 29 -352q62 -165 213 -269t354 -104zM864 -20q-350 0 -556 252t-144 602q52 294 286 488t527 194q239 0 409 -120t234 -321l74 420h913l-18 -113h-797l-102 -577
h796l-20 -111h-795l-102 -581h794l-18 -113h-913l55 319q-111 -159 -273 -249t-350 -90z" />
    <glyph glyph-name="oe" unicode="&#x153;" horiz-adv-x="2201" 
d="M1617 940q-159 0 -281 -97t-156 -257h800q2 158 -101 256t-262 98zM606 86q154 0 280 105t160 277t-76 320q-110 150 -311 150q-159 0 -281 -104t-151 -267q-37 -189 71 -335t308 -146zM1554 -20q-174 0 -292 80t-172 212q-70 -135 -201 -214t-287 -78q-252 0 -394 180
t-93 428q39 200 195 328t358 128q158 0 280 -82t170 -221q68 139 203 221t305 82q229 0 365 -156q135 -157 106 -382l-4 -25h-926q-2 -175 107 -285t264 -110q304 0 401 264h127q-54 -176 -196 -273t-316 -97z" />
    <glyph glyph-name="Racute" unicode="&#x154;" horiz-adv-x="1232" 
d="M754 1495q221 1 355 -149t97 -365q-31 -174 -166 -291t-333 -119l331 -571h-137l-377 666h144q164 0 280 96t140 248q26 152 -76 263q-102 112 -277 116h-307l-244 -1389h-121l263 1495h428zM649 1628l301 318h154l-342 -318h-113z" />
    <glyph glyph-name="racute" unicode="&#x155;" horiz-adv-x="776" 
d="M672 1024h102l-22 -117h-88q-168 0 -266 -101t-130 -267l-94 -539h-117l179 1024h118l-32 -182q127 182 350 182zM322 1157l301 318h153l-342 -318h-112z" />
    <glyph glyph-name="Rcommaaccent" unicode="&#x156;" horiz-adv-x="1232" 
d="M270 -510l164 418h109l-195 -418h-78zM754 1495q221 1 355 -149t97 -365q-31 -174 -166 -291t-333 -119l331 -571h-137l-377 666h144q164 0 280 96t140 248q26 152 -76 263q-102 112 -277 116h-307l-244 -1389h-121l263 1495h428z" />
    <glyph glyph-name="rcommaaccent" unicode="&#x157;" horiz-adv-x="776" 
d="M672 1024h102l-22 -117h-88q-168 0 -266 -101t-130 -267l-94 -539h-117l179 1024h118l-32 -182q127 182 350 182zM-141 -524l164 418h108l-194 -418h-78z" />
    <glyph glyph-name="Rcaron" unicode="&#x158;" horiz-adv-x="1232" 
d="M705 1628l-189 318h123l129 -224l211 224h125l-299 -318h-100zM754 1495q221 1 355 -149t97 -365q-31 -174 -166 -291t-333 -119l331 -571h-137l-377 666h144q164 0 280 96t140 248q26 152 -76 263q-102 112 -277 116h-307l-244 -1389h-121l263 1495h428z" />
    <glyph glyph-name="rcaron" unicode="&#x159;" horiz-adv-x="776" 
d="M377 1157l-189 318h123l129 -224l211 224h125l-299 -318h-100zM672 1024h102l-22 -117h-88q-168 0 -266 -101t-130 -267l-94 -539h-117l179 1024h118l-32 -182q127 182 350 182z" />
    <glyph glyph-name="Sacute" unicode="&#x15a;" horiz-adv-x="1134" 
d="M512 -20q-201 0 -324 120t-96 328h115q-19 -154 67 -247t242 -93t249 73t116 189q23 139 -59 223t-251 164q-86 41 -137 73t-112 87q-119 108 -91 295q25 145 142 234q117 90 300 90t300 -110t92 -292h-113q20 141 -65 219q-86 78 -219 78t-216 -63t-100 -168
q-24 -137 82 -224q55 -44 97 -68t124 -63q83 -39 139 -75t116 -94q123 -120 89 -314q-29 -162 -157 -262t-330 -100zM643 1628l301 318h154l-342 -318h-113z" />
    <glyph glyph-name="sacute" unicode="&#x15b;" horiz-adv-x="856" 
d="M465 1157l301 318h154l-342 -318h-113zM362 -20q-152 0 -236 92q-83 92 -60 231h116q-14 -105 42 -163t152 -58t149 46q52 46 65 115t-24 123q-28 41 -132 97q-104 55 -137 77t-75 60q-80 74 -59 196t103 186t216 64q134 -2 216 -82t74 -200h-119q4 78 -45 131t-133 53
t-135 -41t-60 -96t2 -90t50 -67q38 -32 62 -45t85 -46t97 -57t76 -62q74 -75 54 -198q-20 -122 -106 -194t-238 -72z" />
    <glyph glyph-name="Scircumflex" unicode="&#x15c;" horiz-adv-x="1134" 
d="M512 -20q-201 0 -324 120t-96 328h115q-19 -154 67 -247t242 -93t249 73t116 189q23 139 -59 223t-251 164q-86 41 -137 73t-112 87q-119 108 -91 295q25 145 142 234q117 90 300 90t300 -110t92 -292h-113q20 141 -65 219q-86 78 -219 78t-216 -63t-100 -168
q-24 -137 82 -224q55 -44 97 -68t124 -63q83 -39 139 -75t116 -94q123 -120 89 -314q-29 -162 -157 -262t-330 -100zM391 1628l299 318h101l188 -318h-121l-131 223l-209 -223h-127z" />
    <glyph glyph-name="scircumflex" unicode="&#x15d;" horiz-adv-x="856" 
d="M362 -20q-152 0 -236 92q-83 92 -60 231h116q-14 -105 42 -163t152 -58t149 46q52 46 65 115t-24 123q-28 41 -132 97q-104 55 -137 77t-75 60q-80 74 -59 196t103 186t216 64q134 -2 216 -82t74 -200h-119q4 78 -45 131t-133 53t-135 -41t-60 -96t2 -90t50 -67
q38 -32 62 -45t85 -46t97 -57t76 -62q74 -75 54 -198q-20 -122 -106 -194t-238 -72zM201 1157l299 318h100l188 -318h-120l-131 223l-209 -223h-127z" />
    <glyph glyph-name="Scedilla" unicode="&#x15e;" horiz-adv-x="1134" 
d="M467 -471q-180 0 -289 115l101 57q78 -82 194 -82q72 0 118 26q46 27 54 71t-34 70t-126 26h-65l31 172q-180 20 -282 138q-101 118 -77 306h115q-19 -154 67 -247t242 -93t249 73t116 189q23 139 -59 223t-251 164q-86 41 -137 73t-112 87q-119 108 -91 295
q25 145 142 234q117 90 300 90t300 -110t92 -292h-113q20 141 -65 219q-86 78 -219 78t-216 -63t-100 -168q-24 -137 82 -224q55 -44 97 -68t124 -63q83 -39 139 -75t116 -94q123 -120 89 -314q-29 -156 -149 -254t-301 -106l-19 -101q120 -4 176 -53t44 -127t-91 -125
t-192 -47z" />
    <glyph glyph-name="scedilla" unicode="&#x15f;" horiz-adv-x="856" 
d="M328 -471q-180 0 -289 115l100 57q78 -82 195 -82q72 0 118 26q46 27 54 71t-34 70t-126 26h-65l30 172q-133 14 -201 103t-44 216h116q-14 -105 42 -163t152 -58t149 46q52 46 65 115t-24 123q-28 41 -132 97q-104 55 -137 77t-75 60q-80 74 -59 196t103 186t216 64
q134 -2 216 -82t74 -200h-119q4 78 -45 131t-133 53t-135 -41t-60 -96t2 -90t50 -67q38 -32 62 -45t85 -46t97 -57t76 -62q74 -75 55 -206q-21 -104 -95 -174t-200 -82l-21 -101q121 -4 176 -53t43 -127t-90 -125t-192 -47z" />
    <glyph glyph-name="Scaron" unicode="&#x160;" horiz-adv-x="1134" 
d="M633 1628l-189 318h123l129 -224l211 224h125l-299 -318h-100zM512 -20q-201 0 -324 120t-96 328h115q-19 -154 67 -247t242 -93t249 73t116 189q23 139 -59 223t-251 164q-86 41 -137 73t-112 87q-119 108 -91 295q25 145 142 234q117 90 300 90t300 -110t92 -292h-113
q20 141 -65 219q-86 78 -219 78t-216 -63t-100 -168q-24 -137 82 -224q55 -44 97 -68t124 -63q83 -39 139 -75t116 -94q123 -120 89 -314q-29 -162 -157 -262t-330 -100z" />
    <glyph glyph-name="scaron" unicode="&#x161;" horiz-adv-x="856" 
d="M430 1157l-188 318h123l129 -224l211 224h124l-299 -318h-100zM362 -20q-152 0 -236 92q-83 92 -60 231h116q-14 -105 42 -163t152 -58t149 46q52 46 65 115t-24 123q-28 41 -132 97q-104 55 -137 77t-75 60q-80 74 -59 196t103 186t216 64q134 -2 216 -82t74 -200h-119
q4 78 -45 131t-133 53t-135 -41t-60 -96t2 -90t50 -67q38 -32 62 -45t85 -46t97 -57t76 -62q74 -75 54 -198q-20 -122 -106 -194t-238 -72z" />
    <glyph glyph-name="Tcommaaccent" unicode="&#x162;" horiz-adv-x="1230" 
d="M299 -551l164 418h108l-194 -418h-78zM586 0h-121l244 1384h-453l18 111h1026l-20 -111h-453z" />
    <glyph glyph-name="tcommaaccent" unicode="&#x163;" horiz-adv-x="673" 
d="M86 -524l164 418h108l-194 -418h-78zM459 0q-211 0 -276 80t-25 297l96 545h-168l18 102h168l43 244l127 63l-55 -307h262l-18 -102h-262l-95 -543q-30 -168 10 -222t203 -55l-16 -102h-12z" />
    <glyph glyph-name="Tcaron" unicode="&#x164;" horiz-adv-x="1230" 
d="M770 1628l-188 318h123l129 -224l210 224h125l-299 -318h-100zM586 0h-121l244 1384h-453l18 111h1026l-20 -111h-453z" />
    <glyph glyph-name="tcaron" unicode="&#x165;" horiz-adv-x="673" 
d="M526 1147l224 317h124l-245 -317h-103zM459 0q-211 0 -276 80t-25 297l96 545h-168l18 102h168l43 244l127 63l-55 -307h262l-18 -102h-262l-95 -543q-30 -168 10 -222t203 -55l-16 -102h-12z" />
    <glyph glyph-name="Tbar" unicode="&#x166;" horiz-adv-x="1230" 
d="M586 0h-121l135 772h-209l19 109h211l88 503h-453l18 111h1026l-20 -111h-453l-88 -503h211l-18 -109h-211z" />
    <glyph glyph-name="tbar" unicode="&#x167;" horiz-adv-x="675" 
d="M459 0q-213 0 -277 77q-63 77 -24 296l20 123h-164l19 100h164l57 326h-168l18 102h168l43 244l127 63l-55 -307h262l-18 -102h-260l-58 -326h262l-20 -100h-260l-21 -121q-30 -172 10 -222t203 -51l-16 -102h-12z" />
    <glyph glyph-name="Utilde" unicode="&#x168;" horiz-adv-x="1316" 
d="M723 1851q78 0 176 -61q94 -63 145 -64q90 0 115 117h96q-20 -103 -79 -163t-148 -60q-31 0 -47 4q-15 4 -25 6t-23 9t-19 9q-11 4 -36 21q-117 78 -162 78q-46 0 -76 -32t-40 -87h-94q16 98 78 160t139 63zM592 -20q-232 0 -359 148t-83 394l169 973h121l-174 -985
q-32 -182 58 -301t297 -119q159 0 273 99t142 253l185 1053h120l-184 -1046q-39 -219 -186 -345q-147 -124 -379 -124z" />
    <glyph glyph-name="utilde" unicode="&#x169;" horiz-adv-x="1208" 
d="M572 1380q78 0 176 -61q94 -63 145 -64q90 0 115 117h96q-20 -104 -80 -164t-147 -59q-30 0 -47 4t-26 6q-8 2 -22 9q-14 8 -20 10q-14 6 -36 20l-18 12q-98 66 -144 66t-76 -32t-39 -87h-95q16 99 78 161t140 62zM512 -20q-230 0 -327 137q-95 137 -52 362l98 545h117
q-94 -522 -98 -545q-35 -180 36 -286q72 -107 232 -107t276 101t144 251l102 586h115l-182 -1024h-115l33 176q-149 -196 -379 -196z" />
    <glyph glyph-name="Umacron" unicode="&#x16a;" horiz-adv-x="1316" 
d="M582 1628l18 103h541l-19 -103h-540zM592 -20q-232 0 -359 148t-83 394l169 973h121l-174 -985q-32 -182 58 -301t297 -119q159 0 273 99t142 253l185 1053h120l-184 -1046q-39 -219 -186 -345q-147 -124 -379 -124z" />
    <glyph glyph-name="umacron" unicode="&#x16b;" horiz-adv-x="1208" 
d="M436 1157l19 103h540l-18 -103h-541zM512 -20q-230 0 -327 137q-95 137 -52 362l98 545h117q-94 -522 -98 -545q-35 -180 36 -286q72 -107 232 -107t276 101t144 251l102 586h115l-182 -1024h-115l33 176q-149 -196 -379 -196z" />
    <glyph glyph-name="Ubreve" unicode="&#x16c;" horiz-adv-x="1316" 
d="M851 1616q-155 0 -229 94t-51 227h103q-18 -99 34 -165t158 -66t176 66q68 66 86 165h105q-25 -135 -126 -228t-256 -93zM592 -20q-232 0 -359 148t-83 394l169 973h121l-174 -985q-32 -182 58 -301t297 -119q159 0 273 99t142 253l185 1053h120l-184 -1046
q-39 -219 -186 -345q-147 -124 -379 -124z" />
    <glyph glyph-name="ubreve" unicode="&#x16d;" horiz-adv-x="1208" 
d="M703 1143q-155 0 -229 94t-50 227h102q-18 -98 34 -165t159 -67t175 66t87 166h104q-25 -135 -126 -228t-256 -93zM512 -20q-230 0 -327 137q-95 137 -52 362l98 545h117q-94 -522 -98 -545q-35 -180 36 -286q72 -107 232 -107t276 101t144 251l102 586h115l-182 -1024
h-115l33 176q-149 -196 -379 -196z" />
    <glyph glyph-name="Uring" unicode="&#x16e;" horiz-adv-x="1316" 
d="M592 -20q-232 0 -359 148t-83 394l169 973h121l-174 -985q-32 -182 58 -301t297 -119q159 0 273 99t142 253l185 1053h120l-184 -1046q-39 -219 -186 -345q-147 -124 -379 -124zM855 1696q48 0 84 30t45 75q9 46 -20 84q-30 38 -77 38t-82 -29q-35 -30 -44 -76t19 -84
t75 -38zM846 1606q-86 0 -139 70t-34 156q19 85 81 133t146 48q85 1 139 -71t34 -154q-21 -82 -81 -132t-146 -50z" />
    <glyph glyph-name="uring" unicode="&#x16f;" horiz-adv-x="1208" 
d="M745 1466q-47 0 -81 -28t-44 -76q-10 -47 18 -85t76 -38t84 30q36 29 45 75t-21 84t-77 38zM758 1556q86 0 140 -72t34 -153q-20 -82 -80 -132t-147 -50q-86 0 -140 71q-53 72 -34 156t81 132q60 48 146 48zM512 -20q-230 0 -327 137q-95 137 -52 362l98 545h117
q-94 -522 -98 -545q-35 -180 36 -286q72 -107 232 -107t276 101t144 251l102 586h115l-182 -1024h-115l33 176q-149 -196 -379 -196z" />
    <glyph glyph-name="Uhungarumlaut" unicode="&#x170;" horiz-adv-x="1316" 
d="M899 1628l299 318h145l-339 -318h-105zM637 1628l301 318h145l-340 -318h-106zM592 -20q-232 0 -359 148t-83 394l169 973h121l-174 -985q-32 -182 58 -301t297 -119q159 0 273 99t142 253l185 1053h120l-184 -1046q-39 -219 -186 -345q-147 -124 -379 -124z" />
    <glyph glyph-name="uhungarumlaut" unicode="&#x171;" horiz-adv-x="1208" 
d="M758 1157l299 318h145l-340 -318h-104zM496 1157l301 318h145l-340 -318h-106zM512 -20q-230 0 -327 137q-95 137 -52 362l98 545h117q-94 -522 -98 -545q-35 -180 36 -286q72 -107 232 -107t276 101t144 251l102 586h115l-182 -1024h-115l33 176q-149 -196 -379 -196z
" />
    <glyph glyph-name="Uogonek" unicode="&#x172;" horiz-adv-x="1316" 
d="M504 -436q-112 0 -176 61t-47 148q20 121 202 219q-190 35 -281 177t-52 353l169 973h121l-174 -985q-32 -182 58 -301t297 -119q159 0 273 99t142 253l185 1053h120l-184 -1046q-37 -205 -171 -329t-331 -138q-141 -72 -195 -117t-64 -93t26 -80q35 -32 94 -32
q98 0 197 80l82 -66q-139 -110 -291 -110z" />
    <glyph glyph-name="uogonek" unicode="&#x173;" horiz-adv-x="1208" 
d="M500 -20q-219 0 -315 137q-95 137 -52 362l98 545h117q-94 -522 -98 -545q-35 -180 36 -286q72 -107 232 -107t276 101t144 251l102 586h115l-182 -1024q-143 -88 -195 -136t-61 -94q-7 -46 23 -75t83 -29q96 0 178 88l82 -65q-125 -119 -276 -119q-100 0 -158 60
q-57 60 -44 136t69 133q56 56 190 134l27 145q-70 -92 -172 -145t-219 -53z" />
    <glyph glyph-name="Wcircumflex" unicode="&#x174;" horiz-adv-x="2160" 
d="M1552 0h-118l-215 1317l-670 -1317h-121l-178 1495h123l149 -1309l668 1309h115l215 -1315l610 1315h125zM965 1628l299 318h100l188 -318h-120l-132 223l-208 -223h-127z" />
    <glyph glyph-name="wcircumflex" unicode="&#x175;" horiz-adv-x="1728" 
d="M270 0l-102 1024h121l78 -864l507 864h121l148 -862l461 862h135l-563 -1024h-121l-150 860l-516 -860h-119zM664 1157l299 318h100l188 -318h-121l-131 223l-208 -223h-127z" />
    <glyph glyph-name="Ycircumflex" unicode="&#x176;" horiz-adv-x="1255" 
d="M526 1618l299 317h101l188 -317h-121l-131 223l-209 -223h-127zM473 0l127 719l-360 776h122l316 -674l545 674h137l-643 -790l-125 -705h-119z" />
    <glyph glyph-name="ycircumflex" unicode="&#x177;" horiz-adv-x="1146" 
d="M371 1157l299 318h100l188 -318h-120l-131 223l-209 -223h-127zM111 -473l340 541l-291 956h121l249 -831l504 831h133l-927 -1497h-129z" />
    <glyph glyph-name="Ydieresis" unicode="&#x178;" horiz-adv-x="1255" 
d="M872 1624l52 285h114l-49 -285h-117zM635 1624l49 285h117l-51 -285h-115zM473 0l127 719l-360 776h122l316 -674l545 674h137l-643 -790l-125 -705h-119z" />
    <glyph glyph-name="Zacute" unicode="&#x179;" horiz-adv-x="1218" 
d="M711 1628l301 318h153l-342 -318h-112zM1012 0h-983l18 109l1057 1275h-809l18 111h955l-19 -109l-1056 -1275h837z" />
    <glyph glyph-name="zacute" unicode="&#x17a;" horiz-adv-x="1163" 
d="M602 1157l301 318h154l-342 -318h-113zM43 0l16 102l885 818h-723l19 104h884l-20 -102l-885 -820h752l-19 -102h-909z" />
    <glyph glyph-name="Zdotaccent" unicode="&#x17b;" horiz-adv-x="1218" 
d="M741 1638l50 285h116l-49 -285h-117zM1012 0h-983l18 109l1057 1275h-809l18 111h955l-19 -109l-1056 -1275h837z" />
    <glyph glyph-name="zdotaccent" unicode="&#x17c;" horiz-adv-x="1163" 
d="M623 1167l49 285h116l-49 -285h-116zM43 0l16 102l885 818h-723l19 104h884l-20 -102l-885 -820h752l-19 -102h-909z" />
    <glyph glyph-name="Zcaron" unicode="&#x17d;" horiz-adv-x="1218" 
d="M750 1628l-189 318h123l129 -224l211 224h125l-299 -318h-100zM1012 0h-983l18 109l1057 1275h-809l18 111h955l-19 -109l-1056 -1275h837z" />
    <glyph glyph-name="zcaron" unicode="&#x17e;" horiz-adv-x="1163" 
d="M633 1157l-189 318h123l129 -224l211 224h125l-299 -318h-100zM43 0l16 102l885 818h-723l19 104h884l-20 -102l-885 -820h752l-19 -102h-909z" />
    <glyph glyph-name="florin" unicode="&#x192;" 
d="M1231 1495h20l-22 -100q-180 -1 -265 -57t-147 -216l-102 -295h418l-21 -106h-434l-125 -359q-80 -214 -185 -288t-323 -74h-12l18 104q178 0 254 58t141 229l115 330h-397l18 106h416l113 322q77 201 193 273t327 73z" />
    <glyph glyph-name="Aringacute" unicode="&#x1fa;" horiz-adv-x="1404" 
d="M880 1503q48 0 84 30t45 76t-21 84t-77 38t-82 -29t-44 -76t19 -85t76 -38zM870 1898l301 318h154l-342 -318h-113zM858 1337l-452 -807h612zM924 1821q86 0 140 -72t32 -160q-29 -119 -142 -162l291 -1427h-121l-84 418h-698l-233 -418h-127l806 1434q-55 29 -80 87
q-26 58 -9 131t79 121t146 48z" />
    <glyph glyph-name="aringacute" unicode="&#x1fb;" horiz-adv-x="1292" 
d="M753 1233q48 0 84 30q36 29 45 75t-21 84t-77 38t-82 -28t-44 -76q-9 -47 19 -85t76 -38zM744 1143q-86 0 -140 70q-53 71 -34 156q18 85 80 133t147 48t140 -71q54 -72 34 -154q-21 -82 -81 -132t-146 -50zM743 1622l301 317h154l-342 -317h-113zM600 86q158 0 282 109
t156 285t-72 318q-103 140 -302 140q-160 0 -287 -110t-157 -288t78 -316t302 -138zM584 -20q-242 0 -379 174t-96 415q37 205 193 340q157 135 357 135q154 0 264 -74t154 -194l45 248h117l-180 -1024h-117l31 178q-147 -198 -389 -198z" />
    <glyph glyph-name="AEacute" unicode="&#x1fc;" horiz-adv-x="2154" 
d="M1331 1628l301 318h154l-342 -318h-113zM1008 1323l-537 -801h588zM-14 0l999 1495h1102l-19 -113h-950l39 -577h809l-20 -111h-783l39 -581h641l-18 -113h-731l-27 414h-670l-276 -414h-135z" />
    <glyph glyph-name="aeacute" unicode="&#x1fd;" horiz-adv-x="1982" 
d="M889 1143l301 317h153l-342 -317h-112zM408 76q132 0 249 81t185 193q-20 92 -11 154t11 74q-35 -30 -103 -48q-69 -18 -185 -40t-163 -35q-192 -49 -212 -174q-15 -93 41 -149t188 -56zM1393 940q-161 0 -283 -97t-156 -257h803q2 158 -100 256q-103 98 -264 98z
M1335 -20q-171 0 -287 72t-174 196q-68 -111 -196 -190q-128 -78 -297 -78q-170 0 -252 86t-63 208q11 107 93 177t324 117q242 46 303 73q94 45 109 117q12 80 -56 137q-69 57 -217 57t-250 -66q-101 -66 -122 -190h-107q27 164 158 256t332 92q137 0 227 -48t123 -128
q163 176 405 176t378 -158t106 -380l-4 -25h-926q-2 -175 108 -285t265 -110q304 0 401 264h127q-55 -176 -197 -273t-311 -97z" />
    <glyph glyph-name="Oslashacute" unicode="&#x1fe;" horiz-adv-x="1755" 
d="M991 1628l301 318h154l-342 -318h-113zM892 94q232 0 424 164t236 414q27 145 -10 285t-127 247l-915 -987q160 -123 392 -123zM948 1405q-234 0 -426 -166t-237 -420q-53 -313 139 -532l917 989q-160 129 -393 129zM884 -20q-276 0 -468 149l-119 -129h-139l184 199
q-113 121 -160 285t-14 350q50 298 280 490t506 192t465 -154l125 133h139l-188 -205q111 -123 157 -288t15 -347q-51 -295 -279 -485t-504 -190z" />
    <glyph glyph-name="oslashacute" unicode="&#x1ff;" horiz-adv-x="1275" 
d="M635 1157l301 318h154l-342 -318h-113zM620 86q146 0 272 105t158 281t-83 325l-592 -637q99 -74 245 -74zM656 938q-148 0 -274 -106t-158 -286t85 -323l592 637q-97 78 -245 78zM656 1044q190 0 323 -100l74 80h123l-132 -141q74 -86 105 -201t10 -240
q-37 -202 -193 -332t-348 -130t-321 96l-70 -76h-125l127 137q-160 180 -112 441q35 202 193 334q156 132 346 132z" />
    <glyph glyph-name="Scommaaccent" unicode="&#x218;" horiz-adv-x="1134" 
d="M512 -20q-201 0 -324 120t-96 328h115q-19 -154 67 -247t242 -93t249 73t116 189q23 139 -59 223t-251 164q-86 41 -137 73t-112 87q-119 108 -91 295q25 145 142 234q117 90 300 90t300 -110t92 -292h-113q20 141 -65 219q-86 78 -219 78t-216 -63t-100 -168
q-24 -137 82 -224q55 -44 97 -68t124 -63q83 -39 139 -75t116 -94q123 -120 89 -314q-29 -162 -157 -262t-330 -100zM246 -547l164 418h108l-194 -418h-78z" />
    <glyph glyph-name="scommaaccent" unicode="&#x219;" horiz-adv-x="856" 
d="M362 -20q-152 0 -236 92q-83 92 -60 231h116q-14 -105 42 -163t152 -58t149 46q52 46 65 115t-24 123q-28 41 -132 97q-104 55 -137 77t-75 60q-80 74 -59 196t103 186t216 64q134 -2 216 -82t74 -200h-119q4 78 -45 131t-133 53t-135 -41t-60 -96t2 -90t50 -67
q38 -32 62 -45t85 -46t97 -57t76 -62q74 -75 54 -198q-20 -122 -106 -194t-238 -72zM121 -524l164 418h108l-194 -418h-78z" />
    <glyph glyph-name="dotlessj" unicode="&#x237;" horiz-adv-x="405" 
d="M-248 -469h-33l19 111q158 0 213 48t86 216l199 1118h116l-198 -1120q-39 -221 -120 -297t-282 -76z" />
    <glyph glyph-name="circumflex" unicode="&#x2c6;" horiz-adv-x="1007" 
d="M313 1157l299 318h101l188 -318h-121l-131 223l-209 -223h-127z" />
    <glyph glyph-name="caron" unicode="&#x2c7;" horiz-adv-x="1007" 
d="M561 1157l-188 318h123l129 -224l211 224h125l-299 -318h-101z" />
    <glyph glyph-name="breve" unicode="&#x2d8;" horiz-adv-x="1007" 
d="M619 1143q-155 0 -229 94t-50 227h102q-18 -98 34 -165t159 -67t175 66t87 166h104q-25 -135 -126 -228t-256 -93z" />
    <glyph glyph-name="dotaccent" unicode="&#x2d9;" horiz-adv-x="1011" 
d="M530 1167l50 285h116l-49 -285h-117z" />
    <glyph glyph-name="ring" unicode="&#x2da;" horiz-adv-x="1007" 
d="M661 1466q-47 0 -81 -28t-44 -76q-10 -47 18 -85t76 -38t84 30q36 29 45 75t-21 84t-77 38zM674 1556q86 0 140 -72t34 -153q-20 -82 -80 -132t-147 -50q-86 0 -140 71q-53 72 -33 156t80 132t146 48z" />
    <glyph glyph-name="ogonek" unicode="&#x2db;" horiz-adv-x="1007" 
d="M324 -430q-111 0 -176 61q-66 61 -50 143t87 145q71 62 235 134l82 -53q-158 -80 -218 -126t-68 -95t26 -81q35 -32 94 -32q98 0 196 80l82 -65q-138 -111 -290 -111z" />
    <glyph glyph-name="tilde" unicode="&#x2dc;" horiz-adv-x="1007" 
d="M467 1380q78 0 176 -61q94 -63 145 -64q90 0 115 117h96q-20 -104 -79 -164t-148 -59q-31 0 -47 4q-15 4 -25 6t-23 9q-13 8 -19 10q-11 4 -36 20q-117 78 -163 78q-45 0 -75 -32t-40 -87h-94q16 99 78 161t139 62z" />
    <glyph glyph-name="hungarumlaut" unicode="&#x2dd;" horiz-adv-x="1007" 
d="M539 1157l299 318h145l-340 -318h-104zM276 1157l302 318h145l-340 -318h-107z" />
    <glyph glyph-name="pi" unicode="&#x3c0;" horiz-adv-x="1572" 
d="M1315 111h104l-18 -111h-113q-174 0 -228 98t-22 285l174 1001h-546l-244 -1384h-119l242 1384h-305l20 111h1395l-21 -111h-301l-176 -1003q-27 -152 8 -211t150 -59z" />
    <glyph glyph-name="uni0E3F" unicode="&#xe3f;" horiz-adv-x="1110" 
d="M721 1251h-6l-78 -436h49q104 -1 175 61t81 155t-51 157t-170 63zM385 1251l-78 -436h228l77 436h-227zM289 711l-82 -463h227l82 463h-227zM647 711h-29l-79 -463h61q110 0 182 57t90 161t-46 174q-64 71 -179 71zM590 137h-72l-22 -137h-105l25 137h-344l213 1221h346
l24 137h103l-25 -137q156 0 249 -97t73 -239q-9 -90 -65 -163t-146 -109q84 -43 125 -123t22 -183q-25 -139 -131 -223t-270 -84z" />
    <glyph glyph-name="Wgrave" unicode="&#x1e80;" horiz-adv-x="2160" 
d="M1202 1628l-231 318h151l187 -318h-107zM1552 0h-118l-215 1317l-670 -1317h-121l-178 1495h123l149 -1309l668 1309h115l215 -1315l610 1315h125z" />
    <glyph glyph-name="wgrave" unicode="&#x1e81;" horiz-adv-x="1728" 
d="M893 1157l-231 318h151l186 -318h-106zM270 0l-102 1024h121l78 -864l507 864h121l148 -862l461 862h135l-563 -1024h-121l-150 860l-516 -860h-119z" />
    <glyph glyph-name="Wacute" unicode="&#x1e82;" horiz-adv-x="2160" 
d="M1552 0h-118l-215 1317l-670 -1317h-121l-178 1495h123l149 -1309l668 1309h115l215 -1315l610 1315h125zM1212 1628l301 318h154l-342 -318h-113z" />
    <glyph glyph-name="wacute" unicode="&#x1e83;" horiz-adv-x="1728" 
d="M270 0l-102 1024h121l78 -864l507 864h121l148 -862l461 862h135l-563 -1024h-121l-150 860l-516 -860h-119zM915 1157l302 318h153l-342 -318h-113z" />
    <glyph glyph-name="Wdieresis" unicode="&#x1e84;" horiz-adv-x="2160" 
d="M1552 0h-118l-215 1317l-670 -1317h-121l-178 1495h123l149 -1309l668 1309h115l215 -1315l610 1315h125zM1087 1638l50 285h116l-51 -285h-115zM1325 1638l51 285h115l-49 -285h-117z" />
    <glyph glyph-name="wdieresis" unicode="&#x1e85;" horiz-adv-x="1728" 
d="M270 0l-102 1024h121l78 -864l507 864h121l148 -862l461 862h135l-563 -1024h-121l-150 860l-516 -860h-119zM786 1167l50 285h116l-51 -285h-115zM1024 1167l51 285h115l-49 -285h-117z" />
    <glyph glyph-name="Ygrave" unicode="&#x1ef2;" horiz-adv-x="1273" 
d="M770 1599l-231 318h151l187 -318h-107zM481 0l127 719l-360 776h123l315 -674l545 674h137l-643 -790l-125 -705h-119z" />
    <glyph glyph-name="ygrave" unicode="&#x1ef3;" horiz-adv-x="1146" 
d="M618 1157l-231 318h152l186 -318h-107zM111 -473l340 541l-291 956h121l249 -831l504 831h133l-927 -1497h-129z" />
    <glyph glyph-name="figuredash" unicode="&#x2012;" horiz-adv-x="1355" 
d="M90 473l19 100h1155l-19 -100h-1155z" />
    <glyph glyph-name="endash" unicode="&#x2013;" horiz-adv-x="1036" 
d="M90 473l19 100h847l-18 -100h-848z" />
    <glyph glyph-name="emdash" unicode="&#x2014;" horiz-adv-x="1458" 
d="M90 473l19 100h1257l-18 -100h-1258z" />
    <glyph glyph-name="uni2015" unicode="&#x2015;" horiz-adv-x="2072" 
d="M90 473l19 100h1871l-18 -100h-1872z" />
    <glyph glyph-name="quoteleft" unicode="&#x2018;" horiz-adv-x="360" 
d="M346 1495l16 -418h-77l-49 418h110z" />
    <glyph glyph-name="quoteright" unicode="&#x2019;" horiz-adv-x="360" 
d="M244 1077h-78l162 418h112z" />
    <glyph glyph-name="quotesinglbase" unicode="&#x201a;" horiz-adv-x="362" 
d="M-84 -240l164 418h110l-196 -418h-78z" />
    <glyph glyph-name="quotedblleft" unicode="&#x201c;" horiz-adv-x="575" 
d="M348 1495l19 -418h-80l-49 418h110zM565 1495l15 -418h-78l-49 418h112z" />
    <glyph glyph-name="quotedblright" unicode="&#x201d;" horiz-adv-x="575" 
d="M459 1077h-80l166 418h110zM244 1077h-78l162 418h112z" />
    <glyph glyph-name="quotedblbase" unicode="&#x201e;" horiz-adv-x="577" 
d="M131 -240l164 418h111l-197 -418h-78zM-84 -240l164 418h110l-196 -418h-78z" />
    <glyph glyph-name="dagger" unicode="&#x2020;" horiz-adv-x="1171" 
d="M180 920l21 104h399l84 471h119l-84 -471h409l-20 -104h-408l-159 -920h-119l160 920h-402z" />
    <glyph glyph-name="daggerdbl" unicode="&#x2021;" horiz-adv-x="1171" 
d="M188 958l19 105h401l76 432h119l-76 -432h408l-19 -105h-407l-72 -407h407l-18 -102h-408l-77 -449h-119l78 449h-402l19 102h401l72 407h-402z" />
    <glyph glyph-name="bullet" unicode="&#x2022;" horiz-adv-x="600" 
d="M318 395q-50 0 -86 36t-35 87q0 51 35 87q36 36 86 36t86 -36t36 -87t-36 -87t-86 -36z" />
    <glyph glyph-name="ellipsis" unicode="&#x2026;" horiz-adv-x="913" 
d="M571 0l50 281h116l-49 -281h-117zM295 0l49 281h119l-49 -281h-119zM18 0l52 281h116l-49 -281h-119z" />
    <glyph glyph-name="perthousand" unicode="&#x2030;" horiz-adv-x="2560" 
d="M2026 78q102 0 175 60t89 158t-46 182q-62 83 -164 83t-174 -61q-71 -62 -88 -160t45 -180q61 -82 163 -82zM2089 659q141 1 233 -113t68 -255t-127 -227q-101 -86 -245 -87q-144 0 -235 113t-65 255t127 228q102 86 244 86zM1204 78q102 0 175 60t89 158t-46 182
q-62 83 -164 83t-174 -61q-71 -62 -88 -160t45 -180q61 -82 163 -82zM1196 -23q-144 0 -234 113t-66 255q26 142 128 228t244 86q142 1 233 -113t67 -255t-126 -228q-102 -86 -246 -86zM560 934q102 0 174 60q73 60 89 160t-46 181q-63 82 -165 82t-173 -61
q-71 -60 -88 -160t45 -181t164 -81zM550 834q-144 0 -234 114q-91 114 -66 254q25 142 128 228q102 86 244 86t234 -114t66 -255t-126 -227q-102 -86 -246 -86zM63 0l1547 1495h151l-1546 -1495h-152z" />
    <glyph glyph-name="minute" unicode="&#x2032;" horiz-adv-x="360" 
d="M244 1077h-78l162 418h112z" />
    <glyph glyph-name="second" unicode="&#x2033;" horiz-adv-x="575" 
d="M459 1077h-80l166 418h110zM244 1077h-78l162 418h112z" />
    <glyph glyph-name="guilsinglleft" unicode="&#x2039;" horiz-adv-x="567" 
d="M385 229l-264 244l14 80l350 244l-18 -103l-266 -186l202 -184z" />
    <glyph glyph-name="guilsinglright" unicode="&#x203a;" horiz-adv-x="567" 
d="M188 795l265 -244l-15 -80l-350 -244l18 103l269 186l-203 184z" />
    <glyph glyph-name="interrobang" unicode="&#x203d;" horiz-adv-x="1081" 
d="M410 0l49 281h119l-50 -281h-118zM956 1141q14 87 -40 161t-156 99l-25 -146q-51 -287 -106 -524q68 99 186 184q118 84 141 226zM684 1516q184 0 302 -115t88 -278t-136 -239q-105 -76 -208 -167q-48 -43 -94 -130t-58 -196h-95q56 417 135 864l25 158q-121 -6 -211 -91
t-104 -220h-117q23 198 156 306t317 108z" />
    <glyph glyph-name="fraction" unicode="&#x2044;" horiz-adv-x="1351" 
d="M-23 0l1338 1495h143l-1337 -1495h-144z" />
    <glyph glyph-name="uni2070" unicode="&#x2070;" horiz-adv-x="1021" 
d="M648 1407q-144 0 -246 -87q-102 -88 -126 -230t65 -254t231 -111q142 0 242 87q99 87 124 226t-61 254q-85 115 -229 115zM560 621q-186 0 -304 146q-118 145 -86 331q33 186 166 299t305 112q203 0 319 -148q116 -147 83 -331q-32 -184 -164 -297q-133 -112 -319 -112z
" />
    <glyph glyph-name="uni2074" unicode="&#x2074;" horiz-adv-x="768" 
d="M258 928h283l69 397zM489 631l35 198h-405l14 99l506 567h106l-100 -567h135l-16 -99h-135l-35 -198h-105z" />
    <glyph glyph-name="uni2075" unicode="&#x2075;" horiz-adv-x="729" 
d="M407 717q77 0 136 47t74 129t-28 143q-44 61 -132 62q-125 0 -199 -113l-90 37l141 473h473l-18 -102h-383l-78 -258q69 59 187 59t188 -92t46 -214t-111 -196t-207 -72q-120 0 -200 76t-67 197h107q-8 -80 38 -128t123 -48z" />
    <glyph glyph-name="uni2076" unicode="&#x2076;" horiz-adv-x="743" 
d="M419 717q85 0 144 50t75 134t-37 152q-52 67 -136 67t-144 -53q-61 -53 -75 -137t37 -148t136 -65zM489 1212q127 0 201 -98t52 -220t-106 -198q-85 -76 -222 -77t-216 97t-57 230q14 84 80 162l326 387h127l-246 -291q41 8 61 8z" />
    <glyph glyph-name="uni2077" unicode="&#x2077;" horiz-adv-x="698" 
d="M193 631l469 764h-431l17 100h547l-17 -92l-465 -772h-120z" />
    <glyph glyph-name="uni2078" unicode="&#x2078;" horiz-adv-x="710" 
d="M467 1139q63 0 112 37q48 37 58 94t-28 99t-104 42q-67 0 -111 -34t-55 -93t27 -102t101 -43zM395 721q80 0 130 42q51 41 63 109t-33 117t-120 49t-130 -42t-65 -110t32 -116q42 -49 123 -49zM387 621q-125 1 -197 79t-51 195q23 139 162 207q-84 74 -63 198
q16 90 92 150t184 59t174 -75t49 -172q-27 -133 -137 -183q113 -80 88 -223q-18 -102 -97 -168t-204 -67z" />
    <glyph glyph-name="uni2079" unicode="&#x2079;" horiz-adv-x="727" 
d="M464 1022q81 0 138 51q58 51 72 132t-34 143t-131 63q-83 0 -140 -49t-71 -130q-14 -82 36 -146q49 -64 130 -64zM444 932q-126 0 -200 93t-52 214t112 196q91 75 216 75t203 -96q78 -95 55 -224q-16 -82 -73 -154l-328 -403h-131l252 303q-18 -4 -54 -4z" />
    <glyph glyph-name="uni207A" unicode="&#x207a;" horiz-adv-x="571" 
d="M152 1020l16 90h174l31 172h90l-31 -172h172l-16 -90h-172l-31 -174h-90l31 174h-174z" />
    <glyph glyph-name="uni207B" unicode="&#x207b;" horiz-adv-x="571" 
d="M152 1020l16 90h436l-16 -90h-436z" />
    <glyph glyph-name="uni207C" unicode="&#x207c;" horiz-adv-x="571" 
d="M133 920l17 90h438l-17 -90h-438zM168 1114l16 90h439l-17 -90h-438z" />
    <glyph glyph-name="uni207D" unicode="&#x207d;" horiz-adv-x="628" 
d="M541 428q-201 55 -300 257t-59 433q41 231 192 393t382 187l-21 -111q-180 -20 -296 -154q-117 -134 -149 -326q-32 -193 38 -359t231 -209z" />
    <glyph glyph-name="uni207E" unicode="&#x207e;" horiz-adv-x="595" 
d="M43 428l20 111q182 20 297 154t149 326q34 193 -36 359t-231 211l18 109q199 -55 298 -257t59 -433t-190 -394q-151 -161 -384 -186z" />
    <glyph glyph-name="uni2080" unicode="&#x2080;" horiz-adv-x="1021" 
d="M460 92q142 0 241 87t124 226t-61 254t-230 115t-244 -87q-101 -87 -126 -229t64 -254q90 -112 232 -112zM544 877q188 -1 303 -149q116 -148 84 -332t-165 -296q-132 -112 -318 -112t-305 146t-86 332t166 298q133 113 321 113z" />
    <glyph glyph-name="uni2081" unicode="&#x2081;" horiz-adv-x="579" 
d="M115 610h-13l21 113h6q78 0 123 43t53 98h103l-134 -764h168l-16 -100h-438l16 100h162l102 586q-20 -32 -63 -54t-90 -22z" />
    <glyph glyph-name="uni2082" unicode="&#x2082;" horiz-adv-x="702" 
d="M397 784q-72 0 -123 -46t-57 -122h-100q4 121 87 191q82 70 200 70t191 -71t54 -173t-99 -166q-81 -64 -171 -116t-131 -81q-115 -81 -129 -168v-2h436l-18 -100h-549l16 102q18 98 93 169t206 151q158 95 172 111t36 37t34 69q10 61 -33 103t-115 42z" />
    <glyph glyph-name="uni2083" unicode="&#x2083;" horiz-adv-x="665" 
d="M254 -12q-114 0 -188 64t-62 190h102q-6 -80 37 -117t112 -37t118 37t61 107t-33 117q-45 48 -120 48h-76l18 101h70q76 0 131 39t65 101q9 62 -33 102t-114 40q-141 0 -166 -149h-100q16 123 91 184t189 61t186 -74q71 -75 50 -179q-23 -131 -152 -183q131 -82 100 -246
q-17 -90 -94 -148t-192 -58z" />
    <glyph glyph-name="uni2084" unicode="&#x2084;" horiz-adv-x="768" 
d="M145 297h283l70 397zM377 0l35 199h-406l14 98l506 567h107l-101 -567h136l-17 -98h-135l-35 -199h-104z" />
    <glyph glyph-name="uni2085" unicode="&#x2085;" horiz-adv-x="704" 
d="M280 86q77 0 136 47t74 129t-28 144q-44 61 -132 61q-125 0 -199 -113l-90 37l141 473h473l-18 -102h-383l-78 -258q70 59 188 59t187 -92q70 -92 46 -214q-24 -121 -111 -195t-207 -73q-121 1 -201 77t-66 196h107q-8 -80 38 -128t123 -48z" />
    <glyph glyph-name="uni2086" unicode="&#x2086;" horiz-adv-x="743" 
d="M306 86q85 0 145 50q59 50 74 134t-37 152t-136 68t-144 -54q-60 -53 -74 -137q-14 -85 36 -149q51 -64 136 -64zM377 582q127 0 201 -98t52 -221q-22 -121 -106 -197q-86 -76 -223 -77t-216 96t-56 230q16 84 80 162l325 387h127l-246 -291q41 8 62 9z" />
    <glyph glyph-name="uni2087" unicode="&#x2087;" horiz-adv-x="698" 
d="M80 0l469 764h-430l16 100h547l-16 -92l-465 -772h-121z" />
    <glyph glyph-name="uni2088" unicode="&#x2088;" horiz-adv-x="710" 
d="M354 506q63 0 112 37q48 37 58 94t-27 99q-39 42 -105 42t-110 -34t-57 -89q-10 -63 28 -106t101 -43zM283 88q80 0 130 42t62 110t-33 116q-46 48 -120 50q-74 0 -129 -42t-65 -110t32 -117q43 -49 123 -49zM274 -12q-124 0 -196 79t-51 195q23 139 161 207
q-84 74 -63 199q16 90 92 149q75 59 183 59t174 -74q66 -75 51 -173q-27 -133 -138 -183q113 -80 88 -223q-18 -103 -97 -169t-204 -66z" />
    <glyph glyph-name="uni2089" unicode="&#x2089;" horiz-adv-x="727" 
d="M351 389q81 0 138 51t71 132q14 82 -33 144q-48 62 -131 62t-140 -49q-56 -49 -70 -130t35 -145t130 -65zM332 299q-125 0 -200 93q-76 93 -54 214t113 196t216 75q125 1 203 -95t56 -225q-16 -82 -74 -154l-328 -403h-131l252 303q-18 -4 -53 -4z" />
    <glyph glyph-name="uni208A" unicode="&#x208a;" horiz-adv-x="571" 
d="M39 387l16 90h174l31 172h90l-31 -172h173l-17 -90h-172l-31 -174h-90l31 174h-174z" />
    <glyph glyph-name="uni208B" unicode="&#x208b;" horiz-adv-x="571" 
d="M39 387l16 90h437l-17 -90h-436z" />
    <glyph glyph-name="uni208C" unicode="&#x208c;" horiz-adv-x="571" 
d="M20 287l17 90h438l-16 -90h-439zM55 481l17 90h438l-16 -90h-439z" />
    <glyph glyph-name="uni208D" unicode="&#x208d;" horiz-adv-x="604" 
d="M428 -205q-201 55 -300 257t-58 433t191 394q151 162 382 186l-20 -111q-180 -20 -296 -154t-149 -326t37 -358t231 -210z" />
    <glyph glyph-name="uni208E" unicode="&#x208e;" horiz-adv-x="602" 
d="M-55 -205l20 111q182 20 297 154t149 326t-36 358t-232 212l19 109q199 -55 298 -257t59 -433q-41 -231 -191 -393t-383 -187z" />
    <glyph glyph-name="uni20A1" unicode="&#x20a1;" horiz-adv-x="1708" 
d="M504 205q70 -49 147 -76l609 1210q-68 35 -158 52zM973 1403q-262 1 -466 -181t-231 -452q-35 -297 156 -500l567 1133h-26zM858 -20q-82 0 -168 16l-121 -242h-106l135 269q-84 29 -149 73l-173 -342h-104l201 400q-125 112 -181 276t-34 352q33 313 272 524
q240 210 557 210q23 0 68 -5l104 209h109l-113 -223q82 -18 156 -55l141 278h109l-164 -325q238 -156 272 -428h-127q-41 207 -199 323l-598 -1188q66 -10 125 -10q201 0 367 106t244 302h131q-88 -244 -292 -382t-462 -138z" />
    <glyph glyph-name="uni20A2" unicode="&#x20a2;" horiz-adv-x="1708" 
d="M858 -20q-354 0 -555 250t-139 601q52 297 286 491t539 194q262 0 457 -155t225 -394h-127q-40 199 -192 317t-390 119q-238 0 -437 -167t-243 -418q-44 -250 76 -452t361 -257l133 712h121l-35 -178q129 178 350 178h101l-21 -114h-88q-168 -1 -266 -101t-131 -268
l-47 -246h36q201 0 366 106t245 302h131q-90 -244 -293 -382t-463 -138z" />
    <glyph glyph-name="franc" unicode="&#x20a3;" horiz-adv-x="1112" 
d="M45 0l262 1495h846l-18 -111h-727l-74 -423h725l-21 -113h-723l-39 -215h725l-18 -109h-725l-92 -524h-121z" />
    <glyph glyph-name="lira" unicode="&#x20a4;" horiz-adv-x="1490" 
d="M287 53q154 0 239 135q-150 115 -243 115q-125 0 -148 -104q-10 -66 34 -106t118 -40zM946 78q127 0 192 66t93 227l10 57h123l-14 -72q-35 -196 -126 -286t-261 -90t-365 151q-115 -154 -311 -154q-121 0 -193 65t-53 173q17 78 79 124t175 47t270 -116q12 37 17 58
q23 123 -41 288h-346l16 97h291q-45 102 -64 157h-196l18 97h156q-16 94 0 182q29 166 159 266q131 101 326 101t311 -104t105 -296l-115 -4q6 145 -78 222t-229 78t-241 -76t-115 -179q-18 -102 -2 -190h524l-17 -97h-481q12 -39 60 -157h391l-19 -97h-338
q76 -235 -12 -407q174 -131 301 -131z" />
    <glyph glyph-name="uni20A6" unicode="&#x20a6;" horiz-adv-x="1613" 
d="M1006 575l202 -387l68 387h-270zM489 1317l-69 -391h274zM872 829l84 -157h336l29 157h-449zM403 829l-28 -157h452l-82 157h-342zM119 829l16 97h166l100 569h123l299 -569h514l101 569h118l-100 -569h166l-18 -97h-164l-29 -157h166l-18 -97h-164l-101 -575h-112
l-303 575h-521l-100 -575h-119l101 575h-166l18 97h164l29 157h-166z" />
    <glyph glyph-name="peseta" unicode="&#x20a7;" horiz-adv-x="2502" 
d="M700 1389h-294l-140 -801h350q190 0 319 104q128 104 159 278t-83 296q-114 123 -311 123zM1667 0q-238 0 -324 119t-53 315l86 488h-174q-41 -197 -200 -320t-390 -123h-364l-84 -479h-121l262 1495h412q217 0 361 -131t139 -340h178l43 244l127 63l-56 -307h248
l-18 -102h-246l-86 -494q-27 -160 35 -242t241 -82h318q102 0 166 41q63 41 75 114t-41 125q-52 52 -169 99q-262 109 -220 324q18 111 104 175t212 62q125 -2 203 -84t71 -196h-116q6 76 -39 129t-126 54t-132 -39t-64 -111q-25 -139 184 -224q137 -51 202 -128t45 -191
t-108 -184q-89 -70 -249 -70h-332z" />
    <glyph glyph-name="uni20A8" unicode="&#x20a8;" horiz-adv-x="1982" 
d="M1454 -20q-176 0 -337 44t-263 112t-174 163q-127 165 -152 375h134q162 0 272 92t136 244t-76 263q-102 112 -277 116h-309l-244 -1389h-119l262 1495h428q221 0 356 -149q134 -150 97 -365q-31 -176 -169 -293t-343 -117h-12q55 -197 228 -331q93 -74 247 -116t352 -42
q96 0 157 46q60 46 70 118q23 141 -211 235q-262 109 -219 324q18 111 104 177t211 62q125 -2 203 -82t72 -196h-117q6 76 -39 128t-123 52q-172 2 -198 -149q-14 -76 32 -130t152 -96q283 -109 248 -333q-18 -110 -111 -184q-92 -74 -268 -74z" />
    <glyph glyph-name="uni20A9" unicode="&#x20a9;" horiz-adv-x="2240" 
d="M756 575h-242l43 -389zM1489 575l65 -395l183 395h-248zM1253 1317l-198 -391h262zM483 829l19 -157h303l80 157h-402zM1448 829l25 -157h309l73 157h-407zM1006 829l-80 -157h432l-25 157h-327zM117 829l18 97h217l-67 569h123l65 -569h461l291 569h114l93 -569h469
l264 569h125l-269 -569h226l-17 -97h-254l-73 -157h299l-17 -97h-327l-271 -575h-119l-94 575h-497l-293 -575h-121l-70 575h-319l16 97h291l-19 157h-245z" />
    <glyph glyph-name="uni20AA" unicode="&#x20aa;" horiz-adv-x="1374" 
d="M754 111q158 0 240 82t114 256l182 1046h121l-182 -1046q-41 -229 -163 -339t-335 -110h-358l209 1194q68 0 90 -30t8 -95l-172 -958h246zM674 1495q414 0 334 -448l-107 -605q-12 -66 -44 -94t-99 -29l129 728q29 174 -23 256t-202 81h-252l-246 -1384h-121l264 1495
h367z" />
    <glyph glyph-name="Euro" unicode="&#x20ac;" horiz-adv-x="1185" 
d="M805 1516q163 0 271 -94t87 -238h-123q14 100 -55 164q-70 63 -203 63t-234 -91t-128 -243l-10 -59h579l-35 -96h-563l-59 -347h504l-33 -94h-488q-27 -173 51 -285t252 -112q119 0 200 64t102 184h124q-28 -160 -146 -256t-286 -96q-231 0 -340 140t-77 361h-132l15 94
h133l61 347h-135l17 96h137l12 69q35 193 166 311t336 118z" />
    <glyph glyph-name="uni20AE" unicode="&#x20ae;" horiz-adv-x="1228" 
d="M1059 1100l-19 -96l-303 -117l-32 -189l303 117l-17 -96l-303 -117l-104 -602h-121l96 553l-297 -113l17 97l299 112l32 191l-299 -115l17 94l299 115l80 450h-453l18 111h1026l-20 -111h-453l-71 -401z" />
    <glyph glyph-name="uni20B1" unicode="&#x20b1;" horiz-adv-x="1439" 
d="M1174 909q24 68 18 158h-748l-28 -158h758zM797 1389h-297l-39 -226h708q-41 102 -140 164t-232 62zM711 588q143 0 253 60t169 165h-734l-39 -225h351zM707 479h-365l-84 -479h-119l142 813h-162l16 96h164l27 158h-164l18 96h162l59 332h412q176 0 308 -90t175 -242
h197l-16 -96h-166q7 -105 -15 -158h152l-16 -96h-168q-66 -152 -213 -243t-344 -91z" />
    <glyph glyph-name="servicemark" unicode="&#x2120;" horiz-adv-x="1361" 
d="M347 893q-79 0 -140 54t-49 134h82q-2 -51 32 -80t84 -28q86 0 103 80q8 41 -19 69t-86 60q-143 72 -121 190q11 59 61 97t124 38t129 -52t45 -122h-78q4 39 -24 67t-78 27q-84 0 -94 -65t96 -117q158 -74 133 -205q-9 -66 -65 -106t-135 -41zM651 901l105 594h92
l174 -311l297 311h92l-108 -594h-89l82 451l-292 -297l-183 307l-82 -461h-88z" />
    <glyph glyph-name="trademark" unicode="&#x2122;" horiz-adv-x="1417" 
d="M340 901l90 514h-201l15 80h489l-14 -80h-201l-90 -514h-88zM690 901l105 594h90l174 -309l299 309h90l-107 -594h-88l82 451l-293 -297l-184 307l-82 -461h-86z" />
    <glyph glyph-name="ohm" unicode="&#x2126;" horiz-adv-x="1697" 
d="M966 1405q-232 0 -403 -159q-170 -159 -209 -383t37 -406t230 -361l-17 -96h-616l20 113h449q-299 365 -228 753q49 276 252 464t489 188t455 -209q168 -209 111 -504q-37 -211 -162 -377t-313 -315h467l-19 -113h-651l16 96q123 102 197 170t154 161q153 177 192 408
q39 230 -90 400t-361 170z" />
    <glyph glyph-name="uni2153" unicode="&#x2153;" horiz-adv-x="1701" 
d="M227 1241h-12l21 113h6q78 0 123 43t53 98h102l-133 -764h168l-16 -100h-439l17 100h162l102 586q-19 -33 -63 -55t-91 -21zM1286 -12q-114 0 -188 64t-62 190h103q-6 -80 37 -117q44 -37 112 -37t117 37t61 107t-32 117q-45 48 -121 48h-76l18 101h70q76 0 131 39
q56 39 66 101t-33 102t-115 40q-141 0 -166 -149h-100q16 123 91 184t189 61t186 -74q71 -75 50 -179q-23 -131 -151 -183q131 -83 99 -246q-18 -90 -94 -148q-77 -58 -192 -58zM135 0l1338 1495h143l-1337 -1495h-144z" />
    <glyph glyph-name="uni2154" unicode="&#x2154;" horiz-adv-x="1808" 
d="M1380 -12q-114 0 -188 64t-62 190h103q-6 -80 37 -117q44 -37 112 -37t117 37t61 107t-32 117q-45 48 -121 48h-76l19 101h69q76 0 131 39q56 39 66 101t-33 102t-115 40q-141 0 -165 -149h-101q16 123 91 184t190 61t185 -74q70 -75 50 -179q-23 -131 -151 -183
q131 -83 99 -246q-18 -90 -94 -148q-77 -58 -192 -58zM516 1415q-72 0 -123 -46t-57 -122h-100q4 121 87 191t201 70t190 -72q73 -70 54 -173t-100 -166q-81 -64 -171 -116q-91 -51 -131 -80t-80 -74t-48 -94v-2h436l-19 -100h-549l17 102q18 98 98 174t247 173q36 22 48 30
t41 26t40 31q11 12 33 34t34 69q10 61 -33 103t-115 42zM248 0l1337 1495h144l-1338 -1495h-143z" />
    <glyph glyph-name="uni2155" unicode="&#x2155;" horiz-adv-x="1746" 
d="M227 1241h-12l21 113h6q78 0 123 43t53 98h102l-133 -764h168l-16 -100h-439l17 100h162l102 586q-19 -33 -63 -55t-91 -21zM135 0l1338 1495h143l-1337 -1495h-144zM1318 86q77 0 136 47q58 47 74 129t-28 144t-132 61q-125 0 -199 -113l-90 37l142 473h473l-19 -102
h-383l-78 -258q70 59 188 59t188 -92t45 -214q-24 -122 -110 -196q-87 -73 -207 -72t-201 77t-66 196h106q-8 -80 38 -128t123 -48z" />
    <glyph glyph-name="uni2156" unicode="&#x2156;" horiz-adv-x="1880" 
d="M516 1415q-72 0 -123 -46t-57 -122h-100q4 121 87 191t201 70t190 -72q73 -70 54 -173t-100 -166q-81 -64 -171 -116q-91 -51 -131 -80t-80 -74t-48 -94v-2h436l-19 -100h-549l17 102q18 98 98 174t247 173q36 22 48 30t41 26t40 31q11 12 33 34t34 69q10 61 -33 103
t-115 42zM248 0l1337 1495h144l-1338 -1495h-143zM1447 86q77 0 136 47t75 129t-29 144q-44 62 -132 61q-125 0 -199 -113l-90 37l142 473h473l-19 -102h-383l-78 -258q70 59 188 59q117 0 187 -92t46 -214t-110 -196q-87 -73 -207 -72t-201 77t-66 196h106q-8 -80 38 -128
t123 -48z" />
    <glyph glyph-name="uni2157" unicode="&#x2157;" horiz-adv-x="1835" 
d="M360 618q-114 0 -188 65t-61 189h102q-6 -80 37 -116q44 -36 112 -37q68 0 117 37q49 36 61 106t-32 118q-45 48 -121 48h-76l19 100h69q76 0 131 39q56 39 66 102t-33 103t-114 39q-141 0 -166 -149h-101q16 123 91 184t190 61q115 -1 185 -75t50 -179
q-23 -131 -151 -182q131 -83 99 -246q-18 -89 -94 -148q-77 -59 -192 -59zM201 0l1337 1495h143l-1337 -1495h-143zM1400 86q77 0 136 47q58 47 74 129t-28 144t-132 61q-125 0 -199 -113l-90 37l142 473h473l-19 -102h-383l-78 -258q70 59 188 59t188 -92t45 -214
q-24 -122 -110 -196q-87 -73 -207 -72t-201 77t-66 196h106q-8 -80 38 -128t123 -48z" />
    <glyph glyph-name="uni2158" unicode="&#x2158;" horiz-adv-x="1873" 
d="M258 928h283l69 397zM489 631l35 198h-405l14 99l506 567h106l-100 -567h135l-16 -99h-135l-35 -198h-105zM1439 86q77 0 136 47t75 129t-29 144q-44 62 -132 61q-125 0 -199 -113l-90 37l141 473h474l-19 -102h-383l-78 -258q70 59 188 59q117 0 187 -92t46 -214
t-110 -196q-87 -73 -207 -72t-201 77t-67 196h107q-8 -80 38 -128t123 -48zM240 0l1337 1495h143l-1337 -1495h-143z" />
    <glyph glyph-name="uni2159" unicode="&#x2159;" horiz-adv-x="1619" 
d="M1181 86q85 0 144 50t75 134t-37 152q-52 68 -136 68q-85 0 -145 -54q-60 -53 -74 -137q-14 -85 37 -149t136 -64zM227 1241h-12l21 113h6q78 0 123 43t53 98h102l-133 -764h168l-16 -100h-439l17 100h162l102 586q-19 -33 -63 -55t-91 -21zM135 0l1338 1495h143
l-1337 -1495h-144zM1251 582q127 0 201 -98t52 -221q-22 -121 -106 -197q-85 -76 -222 -77t-217 96q-79 97 -56 230q14 82 80 162l326 387h127l-246 -291q41 8 61 9z" />
    <glyph glyph-name="uni215A" unicode="&#x215a;" horiz-adv-x="1716" 
d="M1277 86q85 0 144 50t75 134t-37 152q-52 68 -136 68t-144 -54q-61 -53 -75 -137q-14 -85 37 -149t136 -64zM231 0l1338 1495h143l-1337 -1495h-144zM409 717q77 0 136 47t74 129t-28 143q-44 61 -132 62q-125 0 -199 -113l-90 37l141 473h473l-18 -102h-383l-78 -258
q69 59 187 59t188 -92t46 -214t-110 -196t-207 -72q-120 0 -201 76t-67 197h107q-8 -80 38 -128t123 -48zM1348 582q126 0 200 -98t52 -221q-22 -121 -106 -197q-85 -76 -222 -77t-216 96t-57 230q16 82 80 162l326 387h127l-246 -291q41 8 62 9z" />
    <glyph glyph-name="uni215B" unicode="&#x215b;" horiz-adv-x="1720" 
d="M1364 506q63 0 112 37q48 37 58 94t-28 99t-104 42t-110 -34t-56 -93q-11 -59 27 -102t101 -43zM1292 88q80 0 130 42t62 110t-32 116q-45 48 -120 50q-75 0 -130 -42t-65 -110q-9 -68 33 -117t122 -49zM227 1241h-12l21 113h6q78 0 123 43t53 98h102l-133 -764h168
l-16 -100h-439l17 100h162l102 586q-19 -33 -63 -55t-91 -21zM135 0l1338 1495h143l-1337 -1495h-144zM1284 -12q-125 0 -197 79t-51 195q23 139 162 207q-84 74 -63 199q16 90 92 149q75 59 183 59t174 -74q66 -75 50 -173q-27 -133 -137 -183q113 -80 88 -223
q-18 -103 -97 -169t-204 -66z" />
    <glyph glyph-name="uni215C" unicode="&#x215c;" horiz-adv-x="1787" 
d="M1430 506q63 0 111 37t58 94t-27 99q-38 42 -104 42t-111 -34q-44 -34 -57 -89q-10 -63 28 -106t102 -43zM1358 88q80 0 130 42t62 110t-32 116t-120 50q-75 0 -130 -42q-56 -42 -66 -110t33 -117t123 -49zM389 618q-115 0 -189 65t-61 189h103q-6 -80 37 -116t111 -37
q68 0 118 37q49 36 61 106t-32 118q-45 48 -121 48h-76l18 100h70q76 0 131 39t65 102t-32 103q-43 40 -115 39q-141 0 -166 -149h-100q16 123 91 184q76 61 190 61q114 -1 185 -75t50 -179q-23 -131 -152 -182q133 -83 101 -246q-18 -89 -95 -148t-192 -59zM201 0
l1337 1495h143l-1337 -1495h-143zM1350 -12q-125 0 -197 79t-51 195q23 139 162 207q-84 74 -64 199q16 90 92 149t184 59t174 -74q66 -75 50 -173q-27 -133 -137 -183q113 -80 88 -223q-18 -103 -97 -169t-204 -66z" />
    <glyph glyph-name="uni215D" unicode="&#x215d;" horiz-adv-x="1792" 
d="M1450 506q63 0 112 37q48 37 58 94t-28 99t-104 42t-110 -34t-56 -93q-11 -59 27 -102t101 -43zM1378 88q80 0 130 42t62 110t-32 116q-45 48 -120 50q-75 0 -130 -42t-65 -110q-9 -68 33 -117t122 -49zM223 0l1338 1495h143l-1337 -1495h-144zM409 717q77 0 136 47
t74 129t-28 143q-44 61 -132 62q-125 0 -199 -113l-90 37l141 473h473l-18 -102h-383l-78 -258q69 59 187 59t188 -92t46 -214t-110 -196t-207 -72q-120 0 -201 76t-67 197h107q-8 -80 38 -128t123 -48zM1370 -12q-124 0 -196 79t-52 195q23 139 162 207q-84 74 -63 199
q16 90 92 149q75 59 183 59t174 -74q66 -75 50 -173q-27 -133 -137 -183q113 -80 88 -223q-18 -103 -97 -169t-204 -66z" />
    <glyph glyph-name="uni215E" unicode="&#x215e;" horiz-adv-x="1566" 
d="M1219 506q63 0 111 37t58 94t-27 99q-39 42 -105 42t-110 -34t-55 -93t27 -102t101 -43zM1147 88q80 0 130 42t62 110q11 68 -33 116t-119 50q-75 0 -130 -42t-65 -110t32 -117q43 -49 123 -49zM193 631l469 764h-431l17 100h547l-17 -92l-465 -772h-120zM-10 0
l1337 1495h143l-1337 -1495h-143zM1139 -12q-125 0 -197 79t-51 195q23 139 162 207q-84 74 -64 199q16 90 92 149t184 59q109 0 175 -74q66 -75 49 -173q-27 -133 -137 -183q113 -80 88 -223q-18 -103 -97 -169t-204 -66z" />
    <glyph glyph-name="uni215F" unicode="&#x215f;" horiz-adv-x="1511" 
d="M227 1241h-12l21 113h6q78 0 123 43t53 98h102l-133 -764h168l-16 -100h-439l17 100h162l102 586q-19 -33 -63 -55t-91 -21zM135 0l1338 1495h143l-1337 -1495h-144z" />
    <glyph glyph-name="arrowleft" unicode="&#x2190;" horiz-adv-x="1835" 
d="M1733 807v-113h-1438l379 -375h-142l-391 392v80l391 391h142l-377 -375h1436z" />
    <glyph glyph-name="arrowup" unicode="&#x2191;" horiz-adv-x="1835" 
d="M1026 0h-113v1409l-374 -379v144l391 389h80l391 -389v-144l-375 379v-1409z" />
    <glyph glyph-name="arrowright" unicode="&#x2192;" horiz-adv-x="1835" 
d="M150 694v113h1435l-379 375h144l391 -391v-80l-391 -392h-144l381 375h-1437z" />
    <glyph glyph-name="arrowdown" unicode="&#x2193;" horiz-adv-x="1835" 
d="M868 1495h113v-1409l375 379v-143l-391 -390h-80l-393 390v143l376 -379v1409z" />
    <glyph glyph-name="uni2196" unicode="&#x2196;" horiz-adv-x="1835" 
d="M356 750l2 553l58 57l553 2l102 -102l-532 -3l1013 -1011l-79 -80l-1014 1012v-531z" />
    <glyph glyph-name="uni2197" unicode="&#x2197;" horiz-adv-x="1835" 
d="M1544 750l-102 -103v531l-1014 -1012l-80 80l1014 1011l-533 3l103 102l553 -2l57 -57z" />
    <glyph glyph-name="uni2198" unicode="&#x2198;" horiz-adv-x="1835" 
d="M1536 784l-2 -553l-57 -57l-553 -2l-103 102h533l-1014 1014l80 80l1014 -1014v533z" />
    <glyph glyph-name="uni2199" unicode="&#x2199;" horiz-adv-x="1835" 
d="M356 786l103 103v-533l1014 1014l77 -80l-1011 -1014h532l-102 -102l-553 2l-58 57z" />
    <glyph glyph-name="partialdiff" unicode="&#x2202;" horiz-adv-x="1277" 
d="M608 84q154 0 279 105t153 264q37 184 -68 330t-304 147q-158 0 -283 -104t-158 -278q-33 -176 75 -320t306 -144zM588 -20q-226 0 -369 166t-111 392t189 360q158 134 360 134q242 0 361 -190q-113 322 -522 653h174q286 -252 410 -522t77 -527q-39 -210 -191 -338
t-378 -128z" />
    <glyph glyph-name="increment" unicode="&#x2206;" horiz-adv-x="1837" 
d="M1063 1282l-875 -1169h1346zM1704 0h-1745l1133 1520z" />
    <glyph glyph-name="product" unicode="&#x220f;" horiz-adv-x="1572" 
d="M240 1384l20 111h1395l-21 -111h-301l-243 -1384h-119l241 1384h-546l-244 -1384h-119l242 1384h-305z" />
    <glyph glyph-name="summation" unicode="&#x2211;" horiz-adv-x="1177" 
d="M2 0l12 100l652 680l-402 617l21 98h968l-18 -111h-832l400 -620l-627 -653h854l-20 -111h-1008z" />
    <glyph glyph-name="minus" unicode="&#x2212;" horiz-adv-x="948" 
d="M115 698l16 103h758l-17 -103h-757z" />
    <glyph glyph-name="radical" unicode="&#x221a;" horiz-adv-x="1646" 
d="M612 0l-301 911h-172l2 113h254l291 -877l830 1352h139l-926 -1499h-117z" />
    <glyph glyph-name="infinity" unicode="&#x221e;" horiz-adv-x="1925" 
d="M1435 582q81 0 142 62t59 144q0 82 -60 144t-140 61q-80 0 -161 -52t-198 -155q115 -100 196 -152t162 -52zM559 580q80 0 163 52t196 152q-113 100 -196 152t-163 53q-80 0 -142 -61q-63 -62 -63 -144t62 -143t143 -61zM546 475q-116 0 -208 91t-92 220q0 128 92 220
t208 92t218 -62t233 -176q129 115 231 176q102 62 218 62q117 0 209 -91t92 -221t-92 -220q-91 -91 -209 -91q-118 1 -220 63t-231 175q-125 -113 -229 -175t-220 -63z" />
    <glyph glyph-name="integral" unicode="&#x222b;" horiz-adv-x="714" 
d="M-102 -252q125 0 177 48t77 186l198 1142q39 227 119 299t283 72h34l-20 -109h-25q-139 0 -191 -47t-83 -217l-201 -1140q-36 -201 -112 -273t-246 -71h-53l18 110h25z" />
    <glyph glyph-name="approxequal" unicode="&#x2248;" horiz-adv-x="950" 
d="M678 594q70 0 186 47l-20 -104q-92 -47 -176 -47t-208 37q-124 38 -188 38t-190 -55l18 104q128 56 196 56t190 -38t192 -38zM734 932q66 0 192 51l-21 -104q-98 -51 -181 -51t-202 38q-118 39 -188 39t-191 -53l19 104q120 54 196 54t193 -39t183 -39z" />
    <glyph glyph-name="notequal" unicode="&#x2260;" horiz-adv-x="948" 
d="M143 858l19 103h411l78 137h90l-75 -137h254l-19 -103h-293l-127 -229h379l-18 -101h-416l-80 -143h-94l80 143h-248l18 101h285l129 229h-373z" />
    <glyph glyph-name="equivalence" unicode="&#x2261;" horiz-adv-x="948" 
d="M172 1022l18 102h758l-18 -102h-758zM55 365l19 100h757l-18 -100h-758zM113 694l18 103h758l-19 -103h-757z" />
    <glyph glyph-name="lessequal" unicode="&#x2264;" horiz-adv-x="948" 
d="M55 358l19 103h757l-18 -103h-758zM846 559l-703 297l19 102l807 289l-21 -108l-674 -234l592 -241z" />
    <glyph glyph-name="greaterequal" unicode="&#x2265;" horiz-adv-x="948" 
d="M55 358l19 103h757l-18 -103h-758zM90 559l21 111l671 233l-589 242l20 102l702 -297l-18 -100z" />
    <glyph glyph-name="squaremultiply" unicode="&#x22a0;" horiz-adv-x="1896" 
d="M641 315l-70 72l349 363l-347 358l70 70l346 -359l342 359l70 -72l-344 -356l346 -357l-70 -69l-344 354zM360 1382v-1269h1250v1269h-1250zM242 0v1495h1487v-1495h-1487z" />
    <glyph glyph-name="house" unicode="&#x2302;" horiz-adv-x="1789" 
d="M1585 0h-1380v874l690 662l690 -662v-874z" />
    <glyph glyph-name="blacksquare" unicode="&#x25a0;" horiz-adv-x="1896" 
d="M242 0v1495h1487v-1495h-1487z" />
    <glyph glyph-name="whitesquare" unicode="&#x25a1;" horiz-adv-x="1896" 
d="M360 113h1250v1269h-1250v-1269zM242 0v1495h1487v-1495h-1487z" />
    <glyph glyph-name="blacksmallsquare" unicode="&#x25aa;" horiz-adv-x="1433" 
d="M205 0v1024h1024v-1024h-1024z" />
    <glyph glyph-name="whitesmallsquare" unicode="&#x25ab;" horiz-adv-x="1433" 
d="M324 911v-798h786v798h-786zM205 0v1024h1024v-1024h-1024z" />
    <glyph glyph-name="triagup" unicode="&#x25b2;" horiz-adv-x="1837" 
d="M1735 0h-1755l878 1520z" />
    <glyph glyph-name="triagrt" unicode="&#x25ba;" horiz-adv-x="1837" 
d="M281 -117v1755l1519 -876z" />
    <glyph glyph-name="triagdn" unicode="&#x25bc;" horiz-adv-x="1837" 
d="M190 1495h1756l-877 -1520z" />
    <glyph glyph-name="triaglf" unicode="&#x25c4;" horiz-adv-x="1837" 
d="M1647 1638v-1755l-1520 879z" />
    <glyph glyph-name="lozenge" unicode="&#x25ca;" horiz-adv-x="1726" 
d="M274 764l527 -633l719 602l-527 635zM788 -33l-671 807l889 754l671 -807z" />
    <glyph glyph-name="whitecircle" unicode="&#x25cb;" horiz-adv-x="1898" 
d="M985 92q273 0 459 192t186 464t-186 463t-458 191t-460 -190q-188 -192 -188 -464t188 -464t459 -192zM985 -20q-317 0 -543 225q-225 225 -225 543t225 542q224 226 542 226t544 -226t225 -542q0 -317 -225 -543q-226 -225 -543 -225z" />
    <glyph glyph-name="bullseye" unicode="&#x25ce;" horiz-adv-x="1898" 
d="M989 629q-37 0 -63 35t-25 83q0 47 26 83q27 36 63 36t62 -36t26 -84t-26 -82q-26 -35 -63 -35zM989 418q135 0 229 95q93 95 93 232t-93 233q-92 96 -228 95q-136 0 -229 -95q-93 -94 -93 -232t93 -233t228 -95zM989 307q-182 0 -309 127t-127 311q0 183 127 311
t309 128t310 -127t128 -311t-128 -312q-128 -127 -310 -127zM989 92q273 0 459 192t186 464t-186 463t-458 191t-460 -190q-188 -192 -188 -464t188 -464t459 -192zM989 -20q-317 0 -543 225q-225 225 -225 543t225 542q224 226 542 226t544 -226t225 -542q0 -317 -225 -543
q-226 -225 -543 -225z" />
    <glyph glyph-name="blackcircle" unicode="&#x25cf;" horiz-adv-x="1898" 
d="M985 -20q-317 0 -543 225q-225 225 -225 543t225 542q224 226 542 226t544 -226t225 -542q0 -317 -225 -543q-226 -225 -543 -225z" />
    <glyph glyph-name="uni25E2" unicode="&#x25e2;" horiz-adv-x="1837" 
d="M1876 1092l-1241 -1242l-455 1696z" />
    <glyph glyph-name="uni25E3" unicode="&#x25e3;" horiz-adv-x="1837" 
d="M1399 -150l-1241 1242l1695 454z" />
    <glyph glyph-name="uni25E4" unicode="&#x25e4;" horiz-adv-x="1837" 
d="M1714 -111l-1696 455l1242 1241z" />
    <glyph glyph-name="uni25E5" unicode="&#x25e5;" horiz-adv-x="1837" 
d="M1772 334l-1696 -453l456 1696z" />
    <glyph glyph-name="uni2605" unicode="&#x2605;" horiz-adv-x="1843" 
d="M1186 621l147 -447l-383 277l-381 -277l148 449l-381 276l469 -2l147 446l146 -446l471 -2z" />
    <glyph glyph-name="uni263C" unicode="&#x263c;" horiz-adv-x="1900" 
d="M616 516l-231 -176l-61 94l272 115zM1346 983l231 176l61 -94l-272 -115zM780 365l-112 -273l-97 58l179 235zM1182 1135l112 272l97 -57l-179 -236zM1212 385l179 -235l-97 -58l-112 273zM750 1114l-179 236l97 57l112 -272zM1366 549l272 -113l-57 -96l-235 178z
M596 950l-272 113l57 96l235 -178zM1413 770l291 35v-111l-291 35v41zM549 729l-291 -35v111l291 -35v-41zM1001 317l35 -290h-110l35 290h40zM961 1182l-35 291h110l-35 -291h-40zM625 748q0 145 105 250q104 106 250 106t252 -106t105 -250q0 -144 -105 -250
q-104 -106 -250 -106t-252 105q-105 106 -105 251z" />
    <glyph glyph-name="uni263E" unicode="&#x263e;" horiz-adv-x="1611" 
d="M1130 1262q-203 0 -346 -151t-143 -363t143 -364q143 -151 346 -151q66 0 146 25q-166 -117 -365 -117q-250 0 -428 178q-178 179 -178 429t178 428t428 178q199 0 365 -117q-95 25 -146 25z" />
    <glyph glyph-name="spade" unicode="&#x2660;" horiz-adv-x="1884" 
d="M1233 0h-531q55 102 81 154t69 190q43 137 43 250q-43 -121 -131 -200t-224 -79q-136 1 -240 97t-103 227q0 168 106 307t375 354l287 230h2l286 -230q263 -211 365 -350t102 -311q0 -131 -94 -226t-231 -95t-231 78q-93 79 -136 198q0 -225 167 -525q38 -67 38 -69z" />
    <glyph glyph-name="club" unicode="&#x2663;" horiz-adv-x="1884" 
d="M539 266q-150 0 -256 106t-107 257q0 150 106 256t257 106q39 0 86 -14q-39 84 -39 178q0 150 104 255q104 106 254 106t255 -106t106 -255q0 -92 -39 -180q45 16 94 16q150 0 255 -105t105 -256t-106 -257q-106 -107 -238 -107t-221 66q-88 66 -131 174q16 -138 78 -266
q61 -128 90 -180t33 -60h-531q164 307 187 508q-45 -110 -137 -176t-205 -66z" />
    <glyph glyph-name="heart" unicode="&#x2665;" horiz-adv-x="1884" 
d="M276 1118q0 168 109 283t265 115t259 -94q104 -94 121 -236q18 143 122 236q104 94 259 94q157 0 271 -116t114 -282t-108 -354t-367 -477l-291 -322l-289 322q-256 285 -360 474q-105 189 -105 357z" />
    <glyph glyph-name="diamond" unicode="&#x2666;" horiz-adv-x="1884" 
d="M326 799l669 821l670 -821l-670 -819z" />
    <glyph glyph-name="uni267B" unicode="&#x267b;" horiz-adv-x="1886" 
d="M1608 1006l133 -226q18 -29 18 -84q1 -92 -73 -167t-142 -74l-223 387zM915 72h-260q-47 0 -86 24q-81 48 -109 152t9 155h446v-331zM440 1143l129 229q23 37 66 60q88 45 186 18t131 -86l-223 -387zM834 1493h372q45 -2 69 -5q25 -4 55 -24t52 -61l54 -94l84 47
l-119 -322l-332 62l78 45l-137 241q-27 45 -71 72t-75 33l-30 4v2zM414 227h-4l-185 324q-20 39 -28 61q-24 64 20 136l55 94l-82 47l336 59l113 -319l-78 47q-135 -231 -139 -242q-25 -43 -27 -95t8 -81zM1366 72h-111v-97l-217 263l217 260v-95h279q51 0 97 26t67 50
l20 25l2 -4l-186 -322q-27 -39 -40 -56q-13 -18 -47 -34t-81 -16z" />
    <glyph glyph-name="uni267C" unicode="&#x267c;" horiz-adv-x="1886" 
d="M1188 492v71l-170 -201l170 -202v73h84q53 -1 80 19t51 63l145 250l-2 2q-53 -76 -143 -75h-215zM1563 784l-101 174l-225 -129l174 -301q53 0 111 58t57 133q0 36 -16 65zM532 354h3q-37 84 6 162l108 186l62 -36l-88 247l-261 -45l64 -37l-43 -73q-19 -31 -21 -61
t4 -44t23 -49zM715 233h203v259h-349q-29 -41 -6 -122t86 -118q33 -19 66 -19zM852 1335v-2q94 -8 137 -84l109 -186l-62 -37l258 -47l90 250l-63 -37l-43 74q-27 45 -56 57q-30 12 -81 12h-289zM657 1241l-100 -176l223 -129l172 299q-26 47 -102 67t-143 -14
q-40 -24 -50 -47zM1749 750q0 -320 -225 -544t-545 -224t-545 224t-225 544t225 545q224 227 544 227t546 -226t225 -546z" />
    <glyph glyph-name="uni267D" unicode="&#x267d;" horiz-adv-x="1886" 
d="M1184 233v-73l-170 202l170 201v-71h215q41 0 77 18t52 39l14 18l2 -2l-145 -250q-17 -29 -29 -43q-33 -37 -102 -39h-84zM1458 958l101 -174q16 -29 16 -65q2 -74 -56 -132t-112 -59l-174 301zM530 354h-2l-143 250q-16 35 -23 49q-6 14 -4 44t21 61l43 73l-64 37
l260 45l89 -247l-62 36l-108 -186q-19 -35 -21 -75t6 -64zM913 233h-202q-31 0 -66 19q-63 37 -86 118t6 122h348v-259zM848 1335h289q51 0 81 -12t56 -57l43 -74l63 37l-90 -250l-258 47l62 37l-109 186q-18 33 -53 55t-60 25l-24 4v2zM553 1065l100 176q10 23 49 47
q68 35 145 15t101 -68l-172 -299zM242 751q0 -305 215 -519t519 -214t517 214t213 519q0 304 -213 518t-517 214t-519 -214t-215 -518zM1745 750q0 -320 -225 -544t-545 -224t-545 224t-225 544t225 545q224 227 544 227t546 -226t225 -546z" />
    <glyph glyph-name="anglebracketleft" unicode="&#x3008;" horiz-adv-x="800" 
d="M371 -471l-250 999l596 967h133l-606 -989l245 -977h-118z" />
    <glyph glyph-name="anglebracketright" unicode="&#x3009;" horiz-adv-x="800" 
d="M-61 -471l604 985l-244 981h117l252 -999l-596 -967h-133z" />
    <glyph glyph-name="fi" unicode="&#xfb01;" horiz-adv-x="1193" 
d="M823 1495h47l-18 -109h-39q-139 0 -191 -47t-83 -217l-19 -98h264l-18 -100h-262l-164 -924h-115l162 924h-178l22 100h172l19 100q39 227 119 299t282 72zM981 1198l53 299h117l-51 -299h-119zM887 0h-117l180 1024h117z" />
    <glyph glyph-name="fl" unicode="&#xfb02;" horiz-adv-x="1193" 
d="M823 1495h47l-18 -109h-39q-139 0 -191 -47t-83 -217l-19 -98h264l-18 -100h-262l-164 -924h-115l162 924h-178l22 100h172l19 100q39 227 119 299t282 72zM774 0l260 1495h119l-262 -1495h-117z" />
    <glyph glyph-name="underscoremonospace" unicode="&#xff3f;" horiz-adv-x="1333" 
d="M-33 -193l21 101h1167l-18 -101h-1170z" />
    <glyph glyph-name="guillemotleft.cap" horiz-adv-x="897" 
d="M414 455l-264 243l14 80l350 244l-18 -102l-269 -187l203 -184zM743 455l-264 243l15 80l350 244l-19 -102l-266 -187l203 -184z" />
    <glyph glyph-name="guillemotright.cap" horiz-adv-x="897" 
d="M547 1020l264 -244l-14 -80l-351 -243l19 102l268 186l-203 185zM217 1020l264 -244l-14 -80l-350 -243l18 102l266 184l-202 187z" />
    <glyph glyph-name="guilsinglleft.cap" horiz-adv-x="567" 
d="M414 455l-264 243l14 80l350 244l-18 -102l-269 -187l203 -184z" />
    <glyph glyph-name="guilsinglright.cap" horiz-adv-x="567" 
d="M217 1020l264 -244l-14 -80l-350 -243l18 102l266 184l-202 187z" />
    <glyph glyph-name="bullet.cap" horiz-adv-x="600" 
d="M461 743q0 -51 -36 -87t-86 -35q-50 -1 -86 35t-36 87t36 87t86 36t86 -36t36 -87z" />
    <glyph glyph-name="registered.cap" horiz-adv-x="1757" 
d="M1034 1137q119 0 193 -82q75 -81 57 -183t-85 -161t-165 -70l148 -270h-123l-189 358h123q66 0 117 41q51 40 61 108t-35 113q-46 45 -124 49h-205l-115 -669h-117l136 766h323zM881 84q249 0 443 166t239 422q33 184 -28 353q-60 169 -211 279t-357 109
q-254 0 -450 -168t-241 -426q-34 -188 30 -356q64 -167 216 -273t359 -106zM870 -20q-350 0 -556 252t-146 602q54 298 282 490t521 192q229 0 404 -118t255 -317t39 -426q-51 -295 -279 -485t-520 -190z" />
    <glyph glyph-name="bar.cap" horiz-adv-x="391" 
d="M2 -246l346 1966h121l-346 -1966h-121z" />
    <glyph glyph-name="brokenbar.cap" horiz-adv-x="391" 
d="M2 -246l152 860h120l-151 -860h-121zM197 860l151 860h121l-152 -860h-120z" />
    <glyph glyph-name="bracketleft.cap" horiz-adv-x="817" 
d="M2 -246l344 1966h559l-16 -110h-440l-310 -1745h441l-21 -111h-557z" />
    <glyph glyph-name="bracketright.cap" horiz-adv-x="817" 
d="M-10 -246l18 109h436l312 1747h-441l21 110h559l-346 -1966h-559z" />
    <glyph glyph-name="braceleft.cap" horiz-adv-x="837" 
d="M594 -246q-256 0 -337 96t-36 349l45 264q23 129 -3 174t-148 45l18 113q121 0 166 44t68 173l45 264q45 252 157 348q113 96 371 96h23l-19 -106q-215 0 -298 -69t-118 -271l-47 -264q-18 -119 -61 -185t-125 -90q72 -29 91 -93t1 -177l-49 -264q-35 -203 23 -272
t274 -68l-19 -107h-22z" />
    <glyph glyph-name="braceright.cap" horiz-adv-x="866" 
d="M350 1720q256 0 337 -96t36 -348l-47 -266q-23 -127 4 -173t149 -46l-20 -115q-121 0 -165 -44t-66 -173l-46 -260q-45 -252 -157 -349q-113 -96 -371 -96h-22l18 107q215 1 298 69t118 271l45 260q20 119 61 185t121 89q-70 29 -89 97t1 176l51 266q35 204 -23 272
t-274 68l19 106h22z" />
    <glyph glyph-name="commaaccent" horiz-adv-x="1011" 
d="M193 -510l163 418h109l-195 -418h-77z" />
    <glyph glyph-name="a.smcp" horiz-adv-x="1171" 
d="M692 1067l-356 -641h479zM-25 0l680 1221h119l242 -1221h-117l-61 315h-564l-174 -315h-125z" />
    <glyph glyph-name="b.smcp" horiz-adv-x="1112" 
d="M696 1114h-325l-78 -436h369q104 0 175 61t81 155t-52 156q-62 64 -170 64zM635 573h-361l-81 -464h382q109 0 187 59q78 58 96 160t-46 174t-177 71zM709 1221q157 -1 249 -99t72 -237q-10 -88 -63 -160t-140 -111q84 -43 126 -124q43 -82 21 -202t-134 -204t-275 -84
h-508l215 1221h437z" />
    <glyph glyph-name="c.smcp" horiz-adv-x="1431" 
d="M698 -18q-292 0 -454 204t-113 490q41 244 231 404t423 161q233 0 391 -119t188 -319h-125q-33 153 -153 241t-306 88t-342 -134q-154 -136 -192 -348t93 -384q130 -172 372 -172q155 0 281 81t190 231h133q-76 -196 -241 -310t-376 -114z" />
    <glyph glyph-name="d.smcp" horiz-adv-x="1222" 
d="M575 1112h-206l-179 -1003h281q199 0 351 131t192 338q36 222 -90 378t-349 156zM457 0h-400l215 1221h318q268 -2 427 -195t113 -452q-46 -258 -231 -416q-186 -158 -442 -158z" />
    <glyph glyph-name="e.smcp" horiz-adv-x="1007" 
d="M57 0l215 1221h746l-21 -111h-628l-78 -438h631l-21 -111h-629l-79 -448h628l-18 -113h-746z" />
    <glyph glyph-name="f.smcp" horiz-adv-x="942" 
d="M57 0l215 1221h691l-19 -111h-575l-78 -444h575l-20 -111h-576l-96 -555h-117z" />
    <glyph glyph-name="g.smcp" horiz-adv-x="1443" 
d="M698 -20q-276 0 -445 208t-118 492q41 242 229 402t435 159q205 0 363 -120t196 -312l-121 2q-39 143 -157 231t-305 88t-339 -132t-188 -332q-39 -232 95 -404t378 -172q195 0 330 123t174 315h-527l23 111h645l-10 -64q-37 -263 -210 -429q-172 -166 -448 -166z" />
    <glyph glyph-name="h.smcp" horiz-adv-x="1150" 
d="M57 0l215 1221h117l-98 -555h620l99 555h116l-215 -1221h-114l96 553h-623l-96 -553h-117z" />
    <glyph glyph-name="i.smcp" horiz-adv-x="432" 
d="M68 0l215 1221h114l-213 -1221h-116z" />
    <glyph glyph-name="j.smcp" horiz-adv-x="868" 
d="M342 -18q-147 0 -233 82t-66 225h115q-14 -93 36 -145t146 -53t158 63t80 163l157 904h117l-162 -922q-59 -319 -348 -317z" />
    <glyph glyph-name="k.smcp" horiz-adv-x="1134" 
d="M852 0l-315 655l-297 -278l-66 -377h-115l213 1221h117l-121 -680l725 680h156l-522 -490l350 -731h-125z" />
    <glyph glyph-name="l.smcp" horiz-adv-x="923" 
d="M57 0l215 1221h117l-196 -1108h561l-19 -113h-678z" />
    <glyph glyph-name="m.smcp" horiz-adv-x="1490" 
d="M57 0l215 1221h105l364 -654l623 654h104l-215 -1221h-116l178 1014l-596 -629l-363 647l-182 -1032h-117z" />
    <glyph glyph-name="n.smcp" horiz-adv-x="1243" 
d="M57 0l215 1221h125l527 -1028l180 1028h117l-215 -1221h-115l-535 1040l-182 -1040h-117z" />
    <glyph glyph-name="o.smcp" horiz-adv-x="1462" 
d="M715 90q193 0 347 132t187 329q41 223 -91 401t-374 178q-196 0 -350 -132t-188 -330q-41 -236 95 -407t374 -171zM705 -20q-287 0 -455 208t-119 492q43 244 231 402t429 159q195 0 339 -103q144 -104 204 -266q62 -162 30 -337q-43 -243 -228 -399t-431 -156z" />
    <glyph glyph-name="p.smcp" horiz-adv-x="1058" 
d="M588 1114h-219l-111 -620h260q150 0 248 80t122 217q24 135 -63 229t-237 94zM602 1221q194 0 314 -127q120 -126 87 -312t-163 -292q-131 -105 -328 -105h-272l-68 -385h-115l213 1221h332z" />
    <glyph glyph-name="q.smcp" horiz-adv-x="1460" 
d="M768 1130q-178 0 -334 -132q-154 -132 -188 -330q-39 -236 96 -407t373 -171q106 0 200 41l72 -88q-133 -63 -282 -63q-287 0 -455 208t-117 492q43 244 231 402t427 159q195 0 339 -103q144 -104 204 -266t28 -337q-39 -229 -227 -392l116 -143h-149l-412 520h144
l231 -291q150 137 182 322q27 143 -19 275t-164 218t-296 86z" />
    <glyph glyph-name="r.smcp" horiz-adv-x="1052" 
d="M625 1221q186 0 297 -123t79 -301q-25 -135 -128 -233t-259 -111l256 -453h-139l-303 553h129q135 0 220 75q85 76 107 194t-58 203t-220 89h-237l-195 -1114h-117l215 1221h353z" />
    <glyph glyph-name="s.smcp" horiz-adv-x="964" 
d="M424 -18q-168 0 -274 99t-84 263h127q-13 -114 55 -184t181 -70t189 58t94 156t-46 160q-63 64 -166 112t-146 76q-43 26 -92 71q-94 87 -72 242q23 123 126 199t260 75q157 0 253 -98t76 -248h-121q14 109 -48 173t-170 64t-175 -49q-66 -49 -80 -126t34 -142
q31 -45 143 -100t167 -88q54 -33 104 -81q98 -94 73 -244q-26 -150 -133 -234t-275 -84z" />
    <glyph glyph-name="t.smcp" horiz-adv-x="1017" 
d="M199 1110l18 111h832l-19 -111h-356l-195 -1110h-119l195 1110h-356z" />
    <glyph glyph-name="u.smcp" horiz-adv-x="1116" 
d="M490 -18q-190 0 -293 120q-104 120 -72 318l141 801h119l-143 -809q-25 -142 46 -232t209 -90t224 77t108 195l152 859h119l-152 -856q-31 -178 -149 -281q-119 -102 -309 -102z" />
    <glyph glyph-name="v.smcp" horiz-adv-x="1134" 
d="M416 0l-228 1221h119l193 -1045l565 1045h129l-664 -1221h-114z" />
    <glyph glyph-name="w.smcp" horiz-adv-x="1779" 
d="M336 0l-141 1221h114l119 -1039l520 1039h117l164 -1039l479 1039h125l-573 -1221h-117l-166 1040l-522 -1040h-119z" />
    <glyph glyph-name="x.smcp" horiz-adv-x="1085" 
d="M815 0l-268 537l-449 -537h-139l537 637l-291 584h125l245 -494l418 494h140l-504 -592l313 -629h-127z" />
    <glyph glyph-name="y.smcp" horiz-adv-x="1062" 
d="M371 0l104 590l-285 631h123l238 -531l432 531h135l-526 -646l-103 -575h-118z" />
    <glyph glyph-name="z.smcp" horiz-adv-x="993" 
d="M-2 0l20 109l828 1001h-633l16 111h783l-21 -107l-831 -1005h661l-20 -109h-803z" />
    <glyph glyph-name="ampersand.smcp" horiz-adv-x="1327" 
d="M523 90q165 0 306 98l-378 471q-109 -47 -168 -106t-78 -158q-19 -119 67 -212t251 -93zM503 -20q-218 0 -329 129t-86 292q37 227 307 342q-77 129 -59 244t106 185t208 69q120 0 205 -74t85 -198h-119q2 73 -47 117t-127 44t-129 -40t-63 -111q-13 -73 23 -143
t132 -189l310 -383q141 145 196 344h-272l18 109h391l-10 -53q-23 -125 -91 -252t-167 -228l152 -184h-150l-90 109q-176 -129 -394 -129z" />
    <glyph glyph-name="slash.smcp" horiz-adv-x="837" 
d="M-31 0l791 1221h127l-791 -1221h-127z" />
    <glyph glyph-name="backslash.smcp" horiz-adv-x="837" 
d="M549 0l-365 1221h121l367 -1221h-123z" />
    <glyph glyph-name="bar.smcp" horiz-adv-x="391" 
d="M10 -201l283 1606h119l-283 -1606h-119z" />
    <glyph glyph-name="parenleft.smcp" horiz-adv-x="819" 
d="M616 -225q-258 73 -392 327t-89 549t249 505t507 253l-21 -115q-242 -37 -412 -221t-209 -430q-40 -246 66 -470t320 -282z" />
    <glyph glyph-name="parenright.smcp" horiz-adv-x="825" 
d="M-37 -221l21 115q242 37 412 220t209 429q40 246 -67 470q-108 224 -319 281l19 117q258 -72 392 -327q134 -254 89 -548t-250 -504t-506 -253z" />
    <glyph glyph-name="bracketleft.smcp" horiz-adv-x="714" 
d="M10 -201l281 1606h457l-17 -113h-338l-246 -1382h338l-20 -111h-455z" />
    <glyph glyph-name="bracketright.smcp" horiz-adv-x="718" 
d="M2 -201l18 111h334l246 1382h-336l19 113h456l-282 -1606h-455z" />
    <glyph glyph-name="braceleft.smcp" horiz-adv-x="731" 
d="M492 -201q-209 0 -275 79t-31 284l37 207q20 104 -2 140q-23 36 -123 36l21 112q98 0 134 36t54 141l35 208q37 205 129 284t303 79h19l-21 -107q-164 0 -224 -51t-87 -207l-37 -209q-18 -100 -53 -154t-105 -79q112 -47 76 -227l-37 -207q-27 -156 17 -207t206 -51
l-18 -107h-18z" />
    <glyph glyph-name="braceright.smcp" horiz-adv-x="735" 
d="M276 1405q209 0 275 -79t29 -284l-37 -211q-19 -104 3 -141t122 -37l-21 -110q-98 0 -134 -35t-54 -141l-33 -205q-37 -205 -130 -284t-302 -79h-19l19 107q166 0 226 51t87 207l37 203q16 98 51 153t103 80q-109 45 -74 229l39 211q29 154 -14 206t-209 52l18 107h18z
" />
    <glyph glyph-name="aacute.smcp" horiz-adv-x="1171" 
d="M692 1067l-356 -641h479zM-25 0l680 1221h119l242 -1221h-117l-61 315h-564l-174 -315h-125zM674 1354l301 317h153l-342 -317h-112z" />
    <glyph glyph-name="agrave.smcp" horiz-adv-x="1171" 
d="M678 1354l-232 317h152l186 -317h-106zM692 1067l-356 -641h479zM-25 0l680 1221h119l242 -1221h-117l-61 315h-564l-174 -315h-125z" />
    <glyph glyph-name="acircumflex.smcp" horiz-adv-x="1171" 
d="M692 1067l-356 -641h479zM-25 0l680 1221h119l242 -1221h-117l-61 315h-564l-174 -315h-125zM430 1343l299 318h100l189 -318h-121l-131 224l-209 -224h-127z" />
    <glyph glyph-name="adieresis.smcp" horiz-adv-x="1171" 
d="M692 1067l-356 -641h479zM-25 0l680 1221h119l242 -1221h-117l-61 315h-564l-174 -315h-125zM559 1364l49 285h117l-51 -285h-115zM797 1364l51 285h115l-50 -285h-116z" />
    <glyph glyph-name="atilde.smcp" horiz-adv-x="1171" 
d="M928 1450q90 0 114 117h97q-19 -103 -79 -163t-149 -61q-25 1 -44 5t-28 6t-23 9t-27 12q-14 5 -23 12q-8 8 -24 18t-17 10q-86 55 -129 55t-73 -32t-40 -86h-94q15 98 77 160q122 123 316 1q94 -63 146 -63zM692 1067l-356 -641h479zM-25 0l680 1221h119l242 -1221h-117
l-61 315h-564l-174 -315h-125z" />
    <glyph glyph-name="aring.smcp" horiz-adv-x="1171" 
d="M745 1458q-47 0 -81 -28t-44 -76q-10 -47 18 -85t76 -38t84 30q36 29 45 75t-21 84t-77 38zM692 1067l-356 -641h479zM758 1548q86 0 140 -72t32 -159q-29 -121 -144 -164l230 -1153h-117l-61 315h-564l-174 -315h-125l648 1161q-55 31 -81 88t-9 130t79 121
q60 48 146 48z" />
    <glyph glyph-name="amacron.smcp" horiz-adv-x="1171" 
d="M692 1067l-356 -641h479zM-25 0l680 1221h119l242 -1221h-117l-61 315h-564l-174 -315h-125zM469 1354l18 102h541l-18 -102h-541z" />
    <glyph glyph-name="abreve.smcp" horiz-adv-x="1171" 
d="M738 1339q-156 1 -230 95t-49 227h102q-18 -98 34 -165q52 -66 159 -66q108 0 176 66t86 165h104q-25 -135 -126 -229t-256 -93zM692 1067l-356 -641h479zM-25 0l680 1221h119l242 -1221h-117l-61 315h-564l-174 -315h-125z" />
    <glyph glyph-name="aogonek.smcp" horiz-adv-x="1171" 
d="M692 1067l-356 -641h479zM850 -334q98 0 197 80l81 -65q-139 -111 -290 -111q-112 0 -176 61t-50 141t76 140q62 59 203 123l-53 280h-564l-174 -315h-125l680 1221h119l242 -1221q-158 -80 -218 -126t-68 -95t26 -81q35 -32 94 -32z" />
    <glyph glyph-name="aringacute.smcp" horiz-adv-x="1185" 
d="M751 1458q-47 0 -81 -28t-44 -76q-10 -47 18 -85t76 -38t84 30q36 29 45 75t-21 84t-77 38zM717 1624l301 318h153l-342 -318h-112zM700 1067l-356 -641h479zM764 1548q86 0 140 -72t32 -159q-29 -119 -141 -162l229 -1155h-117l-61 315h-563l-174 -315h-125l647 1161
q-57 29 -83 87t-8 131t78 121t146 48z" />
    <glyph glyph-name="ae.smcp" horiz-adv-x="1740" 
d="M831 1049l-417 -627h446zM-4 0l817 1221h920l-21 -111h-768l21 -438h671l-20 -111h-647l22 -448h545l-18 -113h-639l-15 313h-524l-209 -313h-135z" />
    <glyph glyph-name="aeacute.smcp" horiz-adv-x="1740" 
d="M831 1049l-417 -627h446zM-4 0l817 1221h920l-21 -111h-768l21 -438h671l-20 -111h-647l22 -448h545l-18 -113h-639l-15 313h-524l-209 -313h-135zM1094 1354l301 317h153l-342 -317h-112z" />
    <glyph glyph-name="cacute.smcp" horiz-adv-x="1431" 
d="M698 -18q-292 0 -454 204t-113 490q41 244 231 404t423 161q233 0 391 -119t188 -319h-125q-33 153 -153 241t-306 88t-342 -134q-154 -136 -192 -348t93 -384q130 -172 372 -172q155 0 281 81t190 231h133q-76 -196 -241 -310t-376 -114zM774 1354l301 317h154
l-342 -317h-113z" />
    <glyph glyph-name="ccircumflex.smcp" horiz-adv-x="1431" 
d="M698 -18q-292 0 -454 204t-113 490q41 244 231 404t423 161q233 0 391 -119t188 -319h-125q-33 153 -153 241t-306 88t-342 -134q-154 -136 -192 -348t93 -384q130 -172 372 -172q155 0 281 81t190 231h133q-76 -196 -241 -310t-376 -114zM535 1348l299 317h100l188 -317
h-121l-131 223l-208 -223h-127z" />
    <glyph glyph-name="ccaron.smcp" horiz-adv-x="1431" 
d="M698 -18q-292 0 -454 204t-113 490q41 244 231 404t423 161q233 0 391 -119t188 -319h-125q-33 153 -153 241t-306 88t-342 -134q-154 -136 -192 -348t93 -384q130 -172 372 -172q155 0 281 81t190 231h133q-76 -196 -241 -310t-376 -114zM770 1354l-188 317h123
l129 -223l210 223h125l-299 -317h-100z" />
    <glyph glyph-name="ccedilla.smcp" horiz-adv-x="1431" 
d="M659 -471q-180 0 -288 115l100 57q78 -82 195 -82q72 0 118 26q46 27 54 71t-34 70t-126 26h-66l31 172q-266 20 -413 222q-146 202 -102 458t234 416t423 161q233 0 391 -119t188 -319h-125q-33 153 -153 241t-306 88t-342 -134q-154 -136 -192 -348t93 -384
q130 -172 372 -172q155 0 281 81t190 231h133q-73 -184 -225 -297t-347 -125l-20 -103q121 -4 176 -53t43 -127t-91 -125t-192 -47z" />
    <glyph glyph-name="cdotaccent.smcp" horiz-adv-x="1431" 
d="M750 1364l49 285h116l-49 -285h-116zM698 -18q-292 0 -454 204t-113 490q41 244 231 404t423 161q233 0 391 -119t188 -319h-125q-33 153 -153 241t-306 88t-342 -134q-154 -136 -192 -348t93 -384q130 -172 372 -172q155 0 281 81t190 231h133q-76 -196 -241 -310
t-376 -114z" />
    <glyph glyph-name="eth.smcp" horiz-adv-x="1232" 
d="M481 109q201 0 354 131t191 344q38 212 -89 370q-126 158 -349 158h-209l-80 -453h369l-19 -100h-366l-80 -450h278zM469 0h-399l96 559h-133l18 100h133l99 562h319q266 -2 426 -195t114 -452q-46 -258 -232 -416t-441 -158z" />
    <glyph glyph-name="eacute.smcp" horiz-adv-x="1007" 
d="M557 1354l301 317h154l-342 -317h-113zM57 0l215 1221h746l-21 -111h-628l-78 -438h631l-21 -111h-629l-79 -448h628l-18 -113h-746z" />
    <glyph glyph-name="egrave.smcp" horiz-adv-x="1007" 
d="M635 1354l-232 317h152l186 -317h-106zM57 0l215 1221h746l-21 -111h-628l-78 -438h631l-21 -111h-629l-79 -448h628l-18 -113h-746z" />
    <glyph glyph-name="ecircumflex.smcp" horiz-adv-x="1007" 
d="M362 1354l300 317h100l188 -317h-121l-131 223l-209 -223h-127zM57 0l215 1221h746l-21 -111h-628l-78 -438h631l-21 -111h-629l-79 -448h628l-18 -113h-746z" />
    <glyph glyph-name="edieresis.smcp" horiz-adv-x="1007" 
d="M735 1364l51 285h115l-49 -285h-117zM498 1364l49 285h117l-52 -285h-114zM57 0l215 1221h746l-21 -111h-628l-78 -438h631l-21 -111h-629l-79 -448h628l-18 -113h-746z" />
    <glyph glyph-name="ecaron.smcp" horiz-adv-x="1007" 
d="M612 1354l-188 317h123l129 -223l211 223h125l-299 -317h-101zM57 0l215 1221h746l-21 -111h-628l-78 -438h631l-21 -111h-629l-79 -448h628l-18 -113h-746z" />
    <glyph glyph-name="emacron.smcp" horiz-adv-x="1007" 
d="M399 1354l19 102h540l-18 -102h-541zM57 0l215 1221h746l-21 -111h-628l-78 -438h631l-21 -111h-629l-79 -448h628l-18 -113h-746z" />
    <glyph glyph-name="ebreve.smcp" horiz-adv-x="1007" 
d="M667 1343q-155 1 -230 95t-50 227h102q-18 -98 34 -165q52 -66 159 -66q108 0 176 66t86 165h105q-25 -135 -126 -229t-256 -93zM57 0l215 1221h746l-21 -111h-628l-78 -438h631l-21 -111h-629l-79 -448h628l-18 -113h-746z" />
    <glyph glyph-name="eogonek.smcp" horiz-adv-x="1007" 
d="M635 -334q98 0 196 80l82 -65q-139 -111 -290 -111q-111 0 -176 61t-48 148q20 123 209 221h-551l215 1221h746l-21 -111h-628l-78 -438h631l-21 -111h-629l-79 -448h628l-18 -113h-2q-158 -80 -218 -126q-61 -46 -69 -95t27 -81t94 -32z" />
    <glyph glyph-name="edotaccent.smcp" horiz-adv-x="1007" 
d="M616 1364l50 285h116l-49 -285h-117zM57 0l215 1221h746l-21 -111h-628l-78 -438h631l-21 -111h-629l-79 -448h628l-18 -113h-746z" />
    <glyph glyph-name="gcircumflex.smcp" horiz-adv-x="1443" 
d="M522 1354l299 317h101l188 -317h-121l-131 223l-209 -223h-127zM698 -20q-276 0 -445 208t-118 492q41 242 229 402t435 159q205 0 363 -120t196 -312l-121 2q-39 143 -157 231t-305 88t-339 -132t-188 -332q-39 -232 95 -404t378 -172q195 0 330 123t174 315h-527
l23 111h645l-10 -64q-37 -263 -210 -429q-172 -166 -448 -166z" />
    <glyph glyph-name="gbreve.smcp" horiz-adv-x="1443" 
d="M837 1350q-155 0 -230 94t-50 227h102q-18 -98 34 -165q52 -66 159 -66q108 0 176 66t86 165h105q-25 -135 -126 -228t-256 -93zM698 -20q-276 0 -445 208t-118 492q41 242 229 402t435 159q205 0 363 -120t196 -312l-121 2q-39 143 -157 231t-305 88t-339 -132
t-188 -332q-39 -232 95 -404t378 -172q195 0 330 123t174 315h-527l23 111h645l-10 -64q-37 -263 -210 -429q-172 -166 -448 -166z" />
    <glyph glyph-name="gdotaccent.smcp" horiz-adv-x="1443" 
d="M776 1364l49 285h117l-49 -285h-117zM698 -20q-276 0 -445 208t-118 492q41 242 229 402t435 159q205 0 363 -120t196 -312l-121 2q-39 143 -157 231t-305 88t-339 -132t-188 -332q-39 -232 95 -404t378 -172q195 0 330 123t174 315h-527l23 111h645l-10 -64
q-37 -263 -210 -429q-172 -166 -448 -166z" />
    <glyph glyph-name="gcommaaccent.smcp" horiz-adv-x="1443" 
d="M457 -563l164 418h108l-194 -418h-78zM698 -20q-276 0 -445 208t-118 492q41 242 229 402t435 159q205 0 363 -120t196 -312l-121 2q-39 143 -157 231t-305 88t-339 -132t-188 -332q-39 -232 95 -404t378 -172q195 0 330 123t174 315h-527l23 111h645l-10 -64
q-37 -263 -210 -429q-172 -166 -448 -166z" />
    <glyph glyph-name="hbar.smcp" horiz-adv-x="1202" 
d="M352 881l-37 -215h621l39 215h-623zM117 881l20 112h119l41 228h117l-41 -228h620l41 228h117l-41 -228h127l-20 -112h-125l-156 -881h-115l97 553h-623l-96 -553h-117l156 881h-121z" />
    <glyph glyph-name="hcircumflex.smcp" horiz-adv-x="1150" 
d="M420 1354l299 317h100l189 -317h-121l-131 223l-209 -223h-127zM57 0l215 1221h117l-98 -555h620l99 555h116l-215 -1221h-114l96 553h-623l-96 -553h-117z" />
    <glyph glyph-name="iacute.smcp" horiz-adv-x="432" 
d="M68 0l215 1221h114l-213 -1221h-116zM311 1354l301 317h154l-342 -317h-113z" />
    <glyph glyph-name="igrave.smcp" horiz-adv-x="432" 
d="M68 0l215 1221h114l-213 -1221h-116zM305 1354l-231 317h151l187 -317h-107z" />
    <glyph glyph-name="icircumflex.smcp" horiz-adv-x="432" 
d="M68 0l215 1221h114l-213 -1221h-116zM66 1348l299 317h100l188 -317h-121l-131 223l-208 -223h-127z" />
    <glyph glyph-name="idieresis.smcp" horiz-adv-x="432" 
d="M68 0l215 1221h114l-213 -1221h-116zM190 1364l50 285h116l-51 -285h-115zM428 1364l51 285h115l-49 -285h-117z" />
    <glyph glyph-name="itilde.smcp" horiz-adv-x="432" 
d="M561 1450q90 0 115 117h96q-20 -103 -80 -163t-147 -61q-27 1 -45 5t-28 6t-22 9q-13 7 -23 10t-37 23q-26 19 -32 19q-86 55 -129 55t-73 -32t-39 -86h-94q16 98 77 160q122 124 316 1q94 -63 145 -63zM68 0l215 1221h114l-213 -1221h-116z" />
    <glyph glyph-name="imacron.smcp" horiz-adv-x="432" 
d="M68 0l215 1221h114l-213 -1221h-116zM98 1354l19 102h540l-18 -102h-541z" />
    <glyph glyph-name="ibreve.smcp" horiz-adv-x="432" 
d="M370 1350q-155 0 -230 94t-50 227h103q-19 -98 33 -165q52 -66 159 -66t175 66t87 165h105q-25 -135 -126 -228t-256 -93zM68 0l215 1221h114l-213 -1221h-116z" />
    <glyph glyph-name="iogonek.smcp" horiz-adv-x="432" 
d="M8 -430q-110 0 -176 61t-50 141t81 141q66 60 211 126l209 1182h114l-213 -1221h2q-158 -80 -218 -126t-68 -95t26 -81t94 -32q98 0 197 80l82 -65q-139 -111 -291 -111z" />
    <glyph glyph-name="jcircumflex.smcp" horiz-adv-x="868" 
d="M342 -18q-147 0 -233 82t-66 225h115q-14 -93 36 -145t146 -53t158 63t80 163l157 904h117l-162 -922q-59 -319 -348 -317zM512 1341l299 318h100l189 -318h-121l-131 224l-209 -224h-127z" />
    <glyph glyph-name="kcommaaccent.smcp" horiz-adv-x="1134" 
d="M852 0l-315 655l-297 -278l-66 -377h-115l213 1221h117l-121 -680l725 680h156l-522 -490l350 -731h-125zM285 -524l164 418h108l-195 -418h-77z" />
    <glyph glyph-name="lacute.smcp" horiz-adv-x="923" 
d="M303 1354l301 317h154l-342 -317h-113zM57 0l215 1221h117l-196 -1108h561l-19 -113h-678z" />
    <glyph glyph-name="lcommaaccent.smcp" horiz-adv-x="923" 
d="M154 -547l163 418h109l-195 -418h-77zM57 0l215 1221h117l-196 -1108h561l-19 -113h-678z" />
    <glyph glyph-name="ldot.smcp" horiz-adv-x="933" 
d="M680 401l49 285h117l-49 -285h-117zM57 0l215 1221h117l-196 -1108h561l-19 -113h-678z" />
    <glyph glyph-name="lslash.smcp" horiz-adv-x="950" 
d="M37 504l16 100l142 41l102 576h117l-97 -541l383 108l-18 -100l-383 -110l-82 -465h561l-18 -113h-678l96 543z" />
    <glyph glyph-name="nacute.smcp" horiz-adv-x="1243" 
d="M57 0l215 1221h125l527 -1028l180 1028h117l-215 -1221h-115l-535 1040l-182 -1040h-117zM688 1331l301 318h154l-342 -318h-113z" />
    <glyph glyph-name="ntilde.smcp" horiz-adv-x="1243" 
d="M938 1450q90 0 115 117h96q-19 -103 -79 -163t-148 -61q-26 1 -45 5t-28 6t-23 9t-27 12q-14 5 -33 22q-19 18 -31 18q-86 55 -129 55q-42 0 -72 -32t-40 -86h-95q15 98 77 160q123 124 317 1q16 -16 31 -22q14 -5 41 -23t73 -18zM57 0l215 1221h125l527 -1028l180 1028
h117l-215 -1221h-115l-535 1040l-182 -1040h-117z" />
    <glyph glyph-name="ncaron.smcp" horiz-adv-x="1243" 
d="M711 1335l-189 318h123l129 -223l211 223h125l-299 -318h-100zM57 0l215 1221h125l527 -1028l180 1028h117l-215 -1221h-115l-535 1040l-182 -1040h-117z" />
    <glyph glyph-name="ncommaaccent.smcp" horiz-adv-x="1243" 
d="M313 -530l164 417h109l-195 -417h-78zM57 0l215 1221h125l527 -1028l180 1028h117l-215 -1221h-115l-535 1040l-182 -1040h-117z" />
    <glyph glyph-name="oacute.smcp" horiz-adv-x="1462" 
d="M762 1354l301 317h154l-343 -317h-112zM715 90q193 0 347 132t187 329q41 223 -91 401t-374 178q-196 0 -350 -132t-188 -330q-41 -236 95 -407t374 -171zM705 -20q-287 0 -455 208t-119 492q43 244 231 402t429 159q195 0 339 -103q144 -104 204 -266q62 -162 30 -337
q-43 -243 -228 -399t-431 -156z" />
    <glyph glyph-name="ograve.smcp" horiz-adv-x="1462" 
d="M805 1354l-232 317h152l186 -317h-106zM715 90q193 0 347 132t187 329q41 223 -91 401t-374 178q-196 0 -350 -132t-188 -330q-41 -236 95 -407t374 -171zM705 -20q-287 0 -455 208t-119 492q43 244 231 402t429 159q195 0 339 -103q144 -104 204 -266q62 -162 30 -337
q-43 -243 -228 -399t-431 -156z" />
    <glyph glyph-name="ocircumflex.smcp" horiz-adv-x="1462" 
d="M537 1352l299 317h100l188 -317h-120l-132 223l-208 -223h-127zM715 90q193 0 347 132t187 329q41 223 -91 401t-374 178q-196 0 -350 -132t-188 -330q-41 -236 95 -407t374 -171zM705 -20q-287 0 -455 208t-119 492q43 244 231 402t429 159q195 0 339 -103
q144 -104 204 -266q62 -162 30 -337q-43 -243 -228 -399t-431 -156z" />
    <glyph glyph-name="odieresis.smcp" horiz-adv-x="1462" 
d="M651 1364l49 285h117l-51 -285h-115zM889 1364l51 285h115l-49 -285h-117zM715 90q193 0 347 132t187 329q41 223 -91 401t-374 178q-196 0 -350 -132t-188 -330q-41 -236 95 -407t374 -171zM705 -20q-287 0 -455 208t-119 492q43 244 231 402t429 159q195 0 339 -103
q144 -104 204 -266q62 -162 30 -337q-43 -243 -228 -399t-431 -156z" />
    <glyph glyph-name="otilde.smcp" horiz-adv-x="1462" 
d="M1028 1346q-31 0 -47 4q-15 4 -25 6t-23 9t-27 11t-22 13q-8 8 -24 18t-18 10q-86 55 -129 55t-73 -31q-30 -32 -40 -87h-94q16 98 78 160q122 123 315 2q94 -63 145 -64q90 0 115 117h96q-20 -103 -79 -163t-148 -60zM715 90q193 0 347 132t187 329q41 223 -91 401
t-374 178q-196 0 -350 -132t-188 -330q-41 -236 95 -407t374 -171zM705 -20q-287 0 -455 208t-119 492q43 244 231 402t429 159q195 0 339 -103q144 -104 204 -266q62 -162 30 -337q-43 -243 -228 -399t-431 -156z" />
    <glyph glyph-name="obreve.smcp" horiz-adv-x="1462" 
d="M816 1354q-156 0 -230 94t-49 227h102q-18 -98 34 -165q53 -66 159 -66t175 66t87 165h104q-25 -135 -126 -228t-256 -93zM715 90q193 0 347 132t187 329q41 223 -91 401t-374 178q-196 0 -350 -132t-188 -330q-41 -236 95 -407t374 -171zM705 -20q-287 0 -455 208
t-119 492q43 244 231 402t429 159q195 0 339 -103q144 -104 204 -266q62 -162 30 -337q-43 -243 -228 -399t-431 -156z" />
    <glyph glyph-name="omacron.smcp" horiz-adv-x="1462" 
d="M565 1354l19 102h540l-18 -102h-541zM715 90q193 0 347 132t187 329q41 223 -91 401t-374 178q-196 0 -350 -132t-188 -330q-41 -236 95 -407t374 -171zM705 -20q-287 0 -455 208t-119 492q43 244 231 402t429 159q195 0 339 -103q144 -104 204 -266q62 -162 30 -337
q-43 -243 -228 -399t-431 -156z" />
    <glyph glyph-name="ohungarumlaut.smcp" horiz-adv-x="1462" 
d="M893 1352l299 317h145l-340 -317h-104zM631 1352l301 317h145l-340 -317h-106zM715 90q193 0 347 132t187 329q41 223 -91 401t-374 178q-196 0 -350 -132t-188 -330q-41 -236 95 -407t374 -171zM705 -20q-287 0 -455 208t-119 492q43 244 231 402t429 159
q195 0 339 -103q144 -104 204 -266q62 -162 30 -337q-43 -243 -228 -399t-431 -156z" />
    <glyph glyph-name="oslash.smcp" horiz-adv-x="1462" 
d="M728 90q180 0 334 132t187 329q43 233 -96 407l-729 -778q124 -90 304 -90zM772 1130q-184 0 -338 -132q-153 -132 -188 -330q-43 -248 106 -420l731 782q-127 100 -311 100zM724 -20q-226 0 -380 114l-88 -94h-137l151 162q-90 98 -128 233t-11 285q43 244 231 402
t416 159q228 0 383 -129l101 109h137l-166 -179q86 -102 121 -235t10 -272q-43 -243 -228 -399q-186 -156 -412 -156z" />
    <glyph glyph-name="oslashacute.smcp" horiz-adv-x="1472" 
d="M732 90q180 0 334 132t187 329q43 233 -96 407l-729 -778q124 -90 304 -90zM776 1130q-184 0 -338 -132q-153 -132 -188 -330q-43 -248 106 -420l731 782q-127 100 -311 100zM728 -20q-226 0 -380 114l-88 -94h-137l151 162q-90 98 -128 233t-11 285q43 244 231 402
t416 159q228 0 383 -129l101 109h137l-166 -179q86 -102 121 -235t10 -272q-43 -243 -228 -399q-186 -156 -412 -156zM756 1354l301 317h153l-342 -317h-112z" />
    <glyph glyph-name="oe.smcp" horiz-adv-x="2097" 
d="M715 90q186 0 336 126t190 314l4 33q37 221 -93 394t-368 173q-196 0 -350 -132t-188 -330q-41 -236 95 -407t374 -171zM710 -20q-292 0 -460 208t-119 492q43 244 231 402t429 159q190 0 323 -92t191 -250l57 322h745l-20 -111h-629l-78 -438h631l-20 -111h-629
l-80 -448h629l-19 -113h-745l37 207q-182 -227 -474 -227z" />
    <glyph glyph-name="thorn.smcp" horiz-adv-x="1062" 
d="M557 930h-231l-109 -621h272q145 0 246 81q100 81 123 217q23 135 -63 229t-238 94zM573 1036q195 0 315 -127t88 -310t-164 -291t-327 -107h-288l-35 -201h-117l215 1221h117l-33 -185h229z" />
    <glyph glyph-name="racute.smcp" horiz-adv-x="1052" 
d="M625 1221q186 0 297 -123t79 -301q-25 -135 -128 -233t-259 -111l256 -453h-139l-303 553h129q135 0 220 75q85 76 107 194t-58 203t-220 89h-237l-195 -1114h-117l215 1221h353zM567 1354l301 317h154l-342 -317h-113z" />
    <glyph glyph-name="rcaron.smcp" horiz-adv-x="1052" 
d="M625 1221q186 0 297 -123t79 -301q-25 -135 -128 -233t-259 -111l256 -453h-139l-303 553h129q135 0 220 75q85 76 107 194t-58 203t-220 89h-237l-195 -1114h-117l215 1221h353zM580 1354l-189 317h123l129 -223l211 223h125l-299 -317h-100z" />
    <glyph glyph-name="rcommaaccent.smcp" horiz-adv-x="1052" 
d="M625 1221q186 0 297 -123t79 -301q-25 -135 -128 -233t-259 -111l256 -453h-139l-303 553h129q135 0 220 75q85 76 107 194t-58 203t-220 89h-237l-195 -1114h-117l215 1221h353zM225 -537l164 418h109l-195 -418h-78z" />
    <glyph glyph-name="sacute.smcp" horiz-adv-x="964" 
d="M424 -18q-168 0 -274 99t-84 263h127q-13 -114 55 -184t181 -70t189 58t94 156t-46 160q-63 64 -166 112t-146 76q-43 26 -92 71q-94 87 -72 242q23 123 126 199t260 75q157 0 253 -98t76 -248h-121q14 109 -48 173t-170 64t-175 -49q-66 -49 -80 -126t34 -142
q31 -45 143 -100t167 -88q54 -33 104 -81q98 -94 73 -244q-26 -150 -133 -234t-275 -84zM526 1354l301 317h154l-342 -317h-113z" />
    <glyph glyph-name="scircumflex.smcp" horiz-adv-x="964" 
d="M424 -18q-168 0 -274 99t-84 263h127q-13 -114 55 -184t181 -70t189 58t94 156t-46 160q-63 64 -166 112t-146 76q-43 26 -92 71q-94 87 -72 242q23 123 126 199t260 75q157 0 253 -98t76 -248h-121q14 109 -48 173t-170 64t-175 -49q-66 -49 -80 -126t34 -142
q31 -45 143 -100t167 -88q54 -33 104 -81q98 -94 73 -244q-26 -150 -133 -234t-275 -84zM291 1348l299 317h100l189 -317h-121l-131 223l-209 -223h-127z" />
    <glyph glyph-name="scaron.smcp" horiz-adv-x="964" 
d="M537 1354l-189 317h123l129 -223l211 223h125l-299 -317h-100zM424 -18q-168 0 -274 99t-84 263h127q-13 -114 55 -184t181 -70t189 58t94 156t-46 160q-63 64 -166 112t-146 76q-43 26 -92 71q-94 87 -72 242q23 123 126 199t260 75q157 0 253 -98t76 -248h-121
q14 109 -48 173t-170 64t-175 -49q-66 -49 -80 -126t34 -142q31 -45 143 -100t167 -88q54 -33 104 -81q98 -94 73 -244q-26 -150 -133 -234t-275 -84z" />
    <glyph glyph-name="scedilla.smcp" horiz-adv-x="964" 
d="M383 -471q-180 0 -289 115l101 57q78 -82 194 -82q72 0 118 26q46 27 54 71t-34 70t-126 26h-65l31 174q-152 18 -237 115t-64 243h127q-13 -114 55 -184t181 -70t189 58t94 156t-46 160q-63 64 -166 112t-146 76q-43 26 -92 71q-94 87 -72 242q23 123 126 199t260 75
q157 0 253 -98t76 -248h-121q14 109 -48 173t-170 64t-175 -49q-66 -49 -80 -126t34 -142q31 -45 143 -100t167 -88q54 -33 104 -81q98 -94 70 -259q-23 -127 -119 -210t-243 -91l-21 -103q120 -4 176 -53t44 -127t-91 -125t-192 -47z" />
    <glyph glyph-name="scommaaccent.smcp" horiz-adv-x="964" 
d="M424 -18q-168 0 -274 99t-84 263h127q-13 -114 55 -184t181 -70t189 58t94 156t-46 160q-63 64 -166 112t-146 76q-43 26 -92 71q-94 87 -72 242q23 123 126 199t260 75q157 0 253 -98t76 -248h-121q14 109 -48 173t-170 64t-175 -49q-66 -49 -80 -126t34 -142
q31 -45 143 -100t167 -88q54 -33 104 -81q98 -94 73 -244q-26 -150 -133 -234t-275 -84zM195 -539l163 418h109l-195 -418h-77z" />
    <glyph glyph-name="tcommaaccent.smcp" horiz-adv-x="1017" 
d="M193 -524l163 418h109l-195 -418h-77zM199 1110l18 111h832l-19 -111h-356l-195 -1110h-119l195 1110h-356z" />
    <glyph glyph-name="uacute.smcp" horiz-adv-x="1116" 
d="M490 -18q-190 0 -293 120q-104 120 -72 318l141 801h119l-143 -809q-25 -142 46 -232t209 -90t224 77t108 195l152 859h119l-152 -856q-31 -178 -149 -281q-119 -102 -309 -102zM614 1346l301 317h154l-342 -317h-113z" />
    <glyph glyph-name="ugrave.smcp" horiz-adv-x="1116" 
d="M655 1346l-231 317h151l187 -317h-107zM490 -18q-190 0 -293 120q-104 120 -72 318l141 801h119l-143 -809q-25 -142 46 -232t209 -90t224 77t108 195l152 859h119l-152 -856q-31 -178 -149 -281q-119 -102 -309 -102z" />
    <glyph glyph-name="ucircumflex.smcp" horiz-adv-x="1116" 
d="M490 -18q-190 0 -293 120q-104 120 -72 318l141 801h119l-143 -809q-25 -142 46 -232t209 -90t224 77t108 195l152 859h119l-152 -856q-31 -178 -149 -281q-119 -102 -309 -102zM406 1350l299 317h100l188 -317h-121l-131 223l-209 -223h-126z" />
    <glyph glyph-name="udieresis.smcp" horiz-adv-x="1116" 
d="M490 -18q-190 0 -293 120q-104 120 -72 318l141 801h119l-143 -809q-25 -142 46 -232t209 -90t224 77t108 195l152 859h119l-152 -856q-31 -178 -149 -281q-119 -102 -309 -102zM518 1360l49 285h117l-51 -285h-115zM756 1360l51 285h115l-50 -285h-116z" />
    <glyph glyph-name="utilde.smcp" horiz-adv-x="1116" 
d="M870 1346q-29 0 -46 4t-26 6q-8 2 -22 9t-28 12t-23 12q-7 8 -23 18t-18 10q-86 55 -129 55t-73 -31q-30 -32 -40 -87h-94q16 98 78 160q122 123 315 2q94 -63 146 -64q90 0 114 117h97q-20 -103 -80 -163t-148 -60zM490 -18q-190 0 -293 120q-104 120 -72 318l141 801
h119l-143 -809q-25 -142 46 -232t209 -90t224 77t108 195l152 859h119l-152 -856q-31 -178 -149 -281q-119 -102 -309 -102z" />
    <glyph glyph-name="uring.smcp" horiz-adv-x="1116" 
d="M708 1425q48 0 84 30t45 76t-21 84t-77 38t-82 -29t-44 -76t19 -85t76 -38zM752 1743q86 0 140 -72t34 -154t-80 -132t-147 -50q-86 0 -140 71q-53 71 -34 156t81 133t146 48zM490 -18q-190 0 -293 120q-104 120 -72 318l141 801h119l-143 -809q-25 -142 46 -232t209 -90
t224 77t108 195l152 859h119l-152 -856q-31 -178 -149 -281q-119 -102 -309 -102z" />
    <glyph glyph-name="ubreve.smcp" horiz-adv-x="1116" 
d="M691 1335q-155 1 -229 95t-50 227h102q-18 -98 34 -165t159 -67t175 66t87 166h104q-25 -135 -126 -229t-256 -93zM490 -18q-190 0 -293 120q-104 120 -72 318l141 801h119l-143 -809q-25 -142 46 -232t209 -90t224 77t108 195l152 859h119l-152 -856q-31 -178 -149 -281
q-119 -102 -309 -102z" />
    <glyph glyph-name="umacron.smcp" horiz-adv-x="1116" 
d="M430 1354l19 102h540l-18 -102h-541zM490 -18q-190 0 -293 120q-104 120 -72 318l141 801h119l-143 -809q-25 -142 46 -232t209 -90t224 77t108 195l152 859h119l-152 -856q-31 -178 -149 -281q-119 -102 -309 -102z" />
    <glyph glyph-name="uhungarumlaut.smcp" horiz-adv-x="1116" 
d="M745 1354l299 317h146l-340 -317h-105zM483 1354l301 317h146l-340 -317h-107zM490 -18q-190 0 -293 120q-104 120 -72 318l141 801h119l-143 -809q-25 -142 46 -232t209 -90t224 77t108 195l152 859h119l-152 -856q-31 -178 -149 -281q-119 -102 -309 -102z" />
    <glyph glyph-name="uogonek.smcp" horiz-adv-x="1116" 
d="M455 -430q-111 0 -175 61t-49 148q20 115 187 209q-162 22 -243 138t-50 294l141 801h119l-143 -809q-25 -142 46 -232t209 -90t224 77t108 195l152 859h119l-152 -856q-27 -145 -110 -241q-84 -95 -213 -126q-154 -78 -211 -124q-56 -46 -66 -95t25 -81t94 -32
q98 0 197 80l81 -65q-138 -111 -290 -111z" />
    <glyph glyph-name="wacute.smcp" horiz-adv-x="1779" 
d="M971 1354l301 317h153l-342 -317h-112zM336 0l-141 1221h114l119 -1039l520 1039h117l164 -1039l479 1039h125l-573 -1221h-117l-166 1040l-522 -1040h-119z" />
    <glyph glyph-name="wgrave.smcp" horiz-adv-x="1779" 
d="M963 1354l-232 317h152l186 -317h-106zM336 0l-141 1221h114l119 -1039l520 1039h117l164 -1039l479 1039h125l-573 -1221h-117l-166 1040l-522 -1040h-119z" />
    <glyph glyph-name="wcircumflex.smcp" horiz-adv-x="1779" 
d="M719 1346l299 317h100l189 -317h-121l-131 223l-209 -223h-127zM336 0l-141 1221h114l119 -1039l520 1039h117l164 -1039l479 1039h125l-573 -1221h-117l-166 1040l-522 -1040h-119z" />
    <glyph glyph-name="wdieresis.smcp" horiz-adv-x="1779" 
d="M842 1362l49 285h117l-52 -285h-114zM1079 1362l51 285h115l-49 -285h-117zM336 0l-141 1221h114l119 -1039l520 1039h117l164 -1039l479 1039h125l-573 -1221h-117l-166 1040l-522 -1040h-119z" />
    <glyph glyph-name="yacute.smcp" horiz-adv-x="1062" 
d="M371 0l104 590l-285 631h123l238 -531l432 531h135l-526 -646l-103 -575h-118zM580 1346l301 317h153l-342 -317h-112z" />
    <glyph glyph-name="ygrave.smcp" horiz-adv-x="1079" 
d="M616 1346l-231 317h152l186 -317h-107zM379 0l104 590l-284 631h123l237 -531l432 531h135l-526 -646l-102 -575h-119z" />
    <glyph glyph-name="ycircumflex.smcp" horiz-adv-x="1062" 
d="M362 1352l300 317h100l188 -317h-121l-131 223l-209 -223h-127zM371 0l104 590l-285 631h123l238 -531l432 531h135l-526 -646l-103 -575h-118z" />
    <glyph glyph-name="ydieresis.smcp" horiz-adv-x="1062" 
d="M481 1364l49 285h117l-51 -285h-115zM719 1364l51 285h115l-49 -285h-117zM371 0l104 590l-285 631h123l238 -531l432 531h135l-526 -646l-103 -575h-118z" />
    <glyph glyph-name="zacute.smcp" horiz-adv-x="993" 
d="M-2 0l20 109l828 1001h-633l16 111h783l-21 -107l-831 -1005h661l-20 -109h-803zM537 1352l301 317h153l-342 -317h-112z" />
    <glyph glyph-name="zcaron.smcp" horiz-adv-x="993" 
d="M582 1352l-189 317h123l129 -223l211 223h125l-299 -317h-100zM-2 0l20 109l828 1001h-633l16 111h783l-21 -107l-831 -1005h661l-20 -109h-803z" />
    <glyph glyph-name="zdotaccent.smcp" horiz-adv-x="993" 
d="M580 1364l49 285h116l-49 -285h-116zM-2 0l20 109l828 1001h-633l16 111h783l-21 -107l-831 -1005h661l-20 -109h-803z" />
    <glyph glyph-name="one.LT" 
d="M401 1128h-22l22 121h11q135 0 213 76t94 170h112l-243 -1384h426l-19 -111h-964l16 111h422l205 1159q-37 -58 -114 -100t-159 -42z" />
    <glyph glyph-name="two.LT" 
d="M739 1413q-157 0 -267 -88t-134 -258q0 -8 -2 -8h-113q23 217 166 338t355 120t336 -121t95 -292t-193 -305q-87 -72 -148 -113t-175 -112q-113 -70 -171 -110q-189 -130 -246 -221q-39 -60 -52 -126l-2 -4h824l-21 -113h-946l21 121q33 180 244 349q114 90 320 218
q206 127 288 201q122 109 144 229t-72 208q-94 87 -251 87z" />
    <glyph glyph-name="three.LT" 
d="M527 -20q-213 0 -325 131t-87 317h114q-18 -160 74 -252q93 -92 247 -91t260 80q105 79 131 222q25 143 -69 239t-260 97h-151l18 108h146q157 0 275 76t140 208t-75 217q-98 85 -258 85t-258 -87t-115 -238v-9h-115q17 201 145 317t346 116t346 -119t95 -301
q-20 -115 -102 -200t-213 -126q125 -51 185 -159t36 -249q-31 -178 -175 -280t-355 -102z" />
    <glyph glyph-name="four.LT" 
d="M207 471h584l143 827zM709 0l63 365h-713l13 108l897 1022h118l-180 -1024h219l-20 -106h-217l-64 -365h-116z" />
    <glyph glyph-name="five.LT" 
d="M538 -20q-210 0 -334 132t-93 345h118q-29 -169 63 -269t248 -101q154 -1 276 95t161 264t-52 299t-282 131t-317 -136q-25 -26 -58 -64l-104 37l233 782h828l-19 -111h-725l-164 -534q150 133 369 132t337 -166t70 -379q-49 -213 -197 -335t-358 -122z" />
    <glyph glyph-name="six.LT" 
d="M567 84q141 0 254 95t141 250t-70 286t-274 131q-143 0 -256 -98t-137 -244q-31 -168 67 -294t275 -126zM1071 406q-35 -184 -174 -304t-352 -121t-342 157t-90 378q25 147 118 266l596 713h144l-492 -577q80 27 162 26q217 0 342 -162t88 -376z" />
    <glyph glyph-name="seven.LT" 
d="M207 0l887 1384h-818l21 111h946l-18 -102l-883 -1393h-135z" />
    <glyph glyph-name="eight.LT" 
d="M669 846q138 0 239 73t123 197t-59 209q-80 86 -228 86t-240 -72q-92 -71 -114 -195t60 -211t219 -87zM624 743q-166 0 -276 -86t-132 -226q-24 -139 66 -241t262 -102q173 0 278 84t129 225t-69 243q-92 102 -258 103zM541 -20q-223 0 -348 134t-91 335q20 125 110 221
t224 143q-86 53 -130 145t-23 211q27 154 150 250q125 97 317 97t307 -123t86 -293q-20 -117 -97 -199t-186 -121q106 -59 166 -167t39 -232q-31 -177 -166 -289t-358 -112z" />
    <glyph glyph-name="nine.LT" 
d="M668 639q145 0 259 98q115 98 143 257t-72 288t-262 129q-160 0 -273 -96t-141 -254t68 -290q98 -132 278 -132zM328 0l481 567q-72 -27 -164 -26q-219 1 -346 161t-88 381q35 187 175 309t355 123t346 -161t91 -383q-25 -158 -127 -277l-580 -694h-143z" />
    <glyph glyph-name="zero.LT" 
d="M571 84q145 0 242 91q96 91 123 243l98 565q33 186 -44 307t-246 121t-267 -92t-125 -248l-98 -567q-31 -176 51 -298t266 -122zM565 -20q-243 0 -357 154t-73 382l101 567q35 195 162 314q128 119 352 119t332 -156q110 -156 69 -389l-100 -565q-35 -194 -159 -310
t-327 -116z" />
    <glyph glyph-name="copyright.LT" 
d="M563 -20q-245 0 -357 150t-71 380l103 577q33 195 160 312q128 117 352 117t334 -153t69 -384l-102 -580q-35 -195 -159 -307t-329 -112zM575 268q-93 0 -145 60t-37 147l105 561q14 88 72 138t152 51q94 -1 146 -57q51 -56 33 -160l-29 -164h-120l34 186q8 43 -10 69
q-18 25 -59 25t-68 -24t-33 -60l-102 -571q-8 -43 11 -69t63 -25q80 0 96 86l37 201h119l-41 -216q-15 -84 -73 -131t-151 -47zM569 84q147 0 244 89q96 89 121 239l102 579q33 184 -45 302t-247 118t-266 -90t-124 -244l-102 -579q-31 -176 50 -295t267 -119z" />
    <glyph glyph-name="registered.LT" 
d="M713 1155h-74l-66 -362h70q113 0 133 116l21 115q9 57 -11 94t-73 37zM625 682h-72l-78 -432h-119l183 1007h204q100 0 147 -66q46 -67 28 -167l-25 -131q-20 -115 -115 -160q66 -47 47 -147l-49 -281q-8 -37 10 -55h-116q-23 12 -15 51l50 272q18 109 -80 109zM569 84
q147 0 244 89q96 89 121 239l102 579q33 184 -45 302t-247 118t-266 -90t-124 -244l-102 -579q-31 -176 50 -295t267 -119zM563 -20q-245 0 -357 150t-71 380l103 577q33 195 160 312q128 117 352 117t334 -153t69 -384l-102 -580q-35 -195 -159 -307t-329 -112z" />
    <glyph glyph-name="percent.LT" 
d="M505 1415q-65 0 -113 -42q-48 -43 -58 -109t30 -117t106 -51t115 40q48 40 57 106t-31 119q-40 54 -106 54zM464 999q-106 0 -174 81q-68 80 -54 188q16 108 93 175t183 67t174 -83q70 -82 54 -189t-93 -173t-183 -66zM814 395q-66 0 -114 -41q-48 -42 -58 -108t30 -117
t106 -51t116 40q48 40 57 104t-30 119q-41 54 -107 54zM820 492q106 0 176 -82t54 -190t-94 -172q-78 -66 -184 -66t-174 80t-52 188t92 175t182 67zM-16 0l1173 1495h139l-1173 -1495h-139z" />
    <glyph glyph-name="period.T" 
d="M449 0l51 281h116l-49 -281h-118z" />
    <glyph glyph-name="comma.T" 
d="M379 -240l164 418h110l-196 -418h-78z" />
    <glyph glyph-name="numbersign.alt" horiz-adv-x="1685" 
d="M784 1085l-272 -485l455 -186l270 483zM737 0l172 309l-458 189l-277 -498h-123l299 539l-246 102l23 117l285 -117l270 483l-459 189l21 117l495 -203l152 268h123l-172 -309l454 -187l279 496h123l-301 -539l241 -96l-20 -117l-283 115l-270 -487l455 -185l-21 -114
l-491 198l-150 -270h-121z" />
    <glyph glyph-name="published" horiz-adv-x="1757" 
d="M936 778h-150l-61 -352h182q88 0 146 44q57 44 70 125t-40 132t-147 51zM961 877q131 -1 213 -89t62 -206t-106 -188q-86 -71 -212 -70h-211l-39 -230h-115l139 783h269zM836 -166q248 0 442 166t240 422q33 184 -28 352q-60 168 -211 278t-357 109q-254 0 -450 -167
t-241 -425q-33 -190 31 -358q64 -169 215 -273q152 -104 359 -104zM825 -270q-350 0 -556 252t-146 600q53 296 281 490t522 194q229 0 404 -118t255 -317t39 -425q-51 -295 -279 -486q-229 -190 -520 -190z" />
    <glyph glyph-name="caronSlovak" horiz-adv-x="1007" 
d="M463 1157l223 318h125l-246 -318h-102z" />
    <glyph glyph-name="Anocross" horiz-adv-x="1404" 
d="M-18 0l841 1495h119l303 -1495h-121l-266 1337l-749 -1337h-127z" />
    <glyph glyph-name="idotaccent" horiz-adv-x="407" 
d="M266 1198l53 299h117l-51 -299h-119zM172 0h-117l181 1024h116z" />
    <glyph glyph-name="cordinal" horiz-adv-x="827" 
d="M516 891q-141 0 -222 100q-80 101 -58 231t116 208t206 78t188 -61q77 -60 90 -155h-95q-14 60 -62 96t-124 36q-77 0 -145 -54q-68 -55 -85 -153t41 -169t154 -71q135 0 197 121h96q-37 -98 -116 -152t-181 -55z" />
    <glyph glyph-name="anocross.smcp" horiz-adv-x="1171" 
d="M-25 0l680 1221h119l242 -1221h-117l-207 1067l-592 -1067h-125z" />
    <glyph glyph-name="dcaron.smcp" horiz-adv-x="1222" 
d="M610 1362l-188 317h123l129 -223l211 223h125l-299 -317h-101zM575 1112h-206l-179 -1003h281q199 0 351 131t192 338q36 222 -90 378t-349 156zM457 0h-400l215 1221h318q268 -2 427 -195t113 -452q-46 -258 -231 -416q-186 -158 -442 -158z" />
    <glyph glyph-name="idotaccent.smcp" horiz-adv-x="432" 
d="M309 1364l49 285h117l-49 -285h-117zM68 0l215 1221h114l-213 -1221h-116z" />
    <glyph glyph-name="lcaron.smcp" horiz-adv-x="923" 
d="M590 903l223 318h125l-246 -318h-102zM57 0l215 1221h117l-196 -1108h561l-19 -113h-678z" />
    <glyph glyph-name="invertedbreve" horiz-adv-x="1007" 
d="M669 1485q155 0 229 -94t50 -228h-102q18 98 -34 165t-160 67t-176 -65t-87 -167h-102q25 135 126 229t256 93z" />
    <glyph glyph-name="eng.smcp" horiz-adv-x="1243" 
d="M578 -469h-35l20 111q166 0 221 46t86 218l19 96l-533 1038l-182 -1040h-117l215 1221h125l527 -1031l180 1031h117l-232 -1317q-41 -229 -119 -301t-292 -72z" />
    <glyph glyph-name="tbar.smcp" horiz-adv-x="1017" 
d="M199 1110l18 111h832l-19 -111h-356l-76 -432h229l-18 -109h-231l-99 -569h-119l99 569h-219l18 109h221l76 432h-356z" />
    <glyph glyph-name="tcaron.smcp" horiz-adv-x="1017" 
d="M604 1362l-188 317h123l129 -223l211 223h125l-299 -317h-101zM199 1110l18 111h832l-19 -111h-356l-195 -1110h-119l195 1110h-356z" />
    <glyph glyph-name="ij.smcp" horiz-adv-x="948" 
d="M440 113q100 0 149 45q48 45 66 151l160 912h117l-160 -916q-30 -173 -106 -239t-240 -66h-88l20 113h82zM66 0l213 1221h116l-215 -1221h-114z" />
    <glyph glyph-name="ordmasculine.smcp" horiz-adv-x="815" 
d="M505 977q93 0 160 56q67 57 81 147t-41 167q-57 77 -151 77t-161 -58q-66 -57 -81 -150q-16 -93 42 -166t151 -73zM501 891q-128 0 -211 98q-83 97 -65 227q17 130 111 210t221 81q127 0 211 -99t66 -237q-20 -121 -112 -201t-221 -79z" />
    <glyph glyph-name="cordinal.smcp" horiz-adv-x="843" 
d="M528 891q-141 0 -223 101q-81 100 -59 230t113 208t205 78t194 -63q80 -62 88 -159h-98q-16 70 -68 104t-124 34t-136 -56q-64 -55 -83 -146t36 -167t162 -76q71 0 123 37t75 96h98q-33 -100 -115 -161q-84 -60 -188 -60z" />
    <glyph glyph-name="ordfeminine.smcp" horiz-adv-x="657" 
d="M479 1374l-147 -266h198zM125 901l330 594h84l118 -594h-88l-24 127h-258l-70 -127h-92z" />
    <glyph glyph-name="altcedilla" horiz-adv-x="1007" 
d="M340 -465q-180 0 -289 115l101 57q78 -82 194 -82q72 0 118 26q46 27 54 71t-34 70t-126 26h-45l13 69h43q133 0 201 -49t54 -129q-13 -80 -92 -127t-192 -47z" />
    <glyph glyph-name="dotbelow" horiz-adv-x="1011" 
d="M281 -377l49 285h116l-49 -285h-116z" />
    <glyph glyph-name="doublegrave" horiz-adv-x="1007" 
d="M803 1157l-176 318h131l141 -318h-96zM549 1157l-211 318h143l168 -318h-100z" />
    <glyph glyph-name="interrobangdown" horiz-adv-x="1093" 
d="M557 838l16 92h95l-17 -92h-94zM149 -120q-15 -88 38 -161q54 -72 157 -96l25 144q37 213 106 526q-69 -104 -185 -187q-117 -83 -141 -226zM422 -494q-184 0 -302 115t-87 284t177 269q60 43 123 91q62 48 116 136q53 88 75 213l4 19h95q-28 -239 -136 -866l-26 -154
q121 6 210 89t107 218h117q-25 -198 -157 -306t-316 -108z" />
    <glyph glyph-name="doublebar" horiz-adv-x="739" 
d="M307 -471l346 1966h119l-346 -1966h-119zM-31 -471l346 1966h119l-346 -1966h-119z" />
    <glyph glyph-name="doublebar.cap" horiz-adv-x="720" 
d="M332 -246l346 1966h121l-346 -1966h-121zM2 -246l346 1966h121l-346 -1966h-121z" />
    <glyph glyph-name="doublebar.smcp" horiz-adv-x="720" 
d="M342 -201l283 1606h118l-282 -1606h-119zM10 -201l283 1606h119l-283 -1606h-119z" />
    <glyph glyph-name="anglebracketleft.cap" horiz-adv-x="800" 
d="M414 -246l-250 1000l596 966h133l-606 -989l245 -977h-118z" />
    <glyph glyph-name="anglebracketright.cap" horiz-adv-x="800" 
d="M-23 -246l605 987l-244 979h119l250 -999l-596 -967h-134z" />
    <glyph glyph-name="anglebracketleft.smcp" horiz-adv-x="679" 
d="M455 -201h-121l-217 815l489 791h133l-497 -809z" />
    <glyph glyph-name="anglebracketright.smcp" horiz-adv-x="679" 
d="M-31 -201l498 809l-213 797h119l219 -815l-490 -791h-133z" />
    <glyph glyph-name="lowline" horiz-adv-x="948" 
d="M-6 0l22 100h756l-18 -100h-760z" />
    <glyph glyph-name="tripleprime" horiz-adv-x="778" 
d="M670 1024q-4 123 22 299l31 172h96l-31 -172q-20 -133 -79 -299h-39zM451 1024q-4 123 22 299l31 172h96l-31 -172q-20 -133 -80 -299h-38zM231 1024q-4 123 23 299l31 172h96l-31 -172q-20 -133 -80 -299h-39z" />
    <glyph glyph-name="at.cap" horiz-adv-x="1730" 
d="M840 494q102 0 178 76t102 190q31 110 -13 188q-43 78 -151 78t-195 -86t-105 -196t31 -180q51 -70 153 -70zM832 -23q-218 0 -389 118t-242 314q-72 196 -31 427q54 294 286 488t550 194t516 -226q199 -226 143 -518q-27 -162 -114 -274t-232 -111q-90 0 -144 42
t-71 112q-109 -154 -289 -154q-143 -1 -220 105t-50 257t141 265t270 112q86 0 144 -42t82 -107l30 137h107l-94 -371q-68 -248 108 -247q82 0 146 88q63 88 82 202q47 248 -113 436t-438 189q-278 0 -483 -168q-206 -168 -251 -424q-34 -190 22 -358t204 -276t356 -107
q322 0 500 248h129q-88 -164 -263 -258q-174 -94 -392 -93z" />
    <glyph glyph-name="at.smcp" horiz-adv-x="1730" 
d="M812 334q102 0 178 76t102 188q30 110 -14 188t-152 78t-194 -86q-87 -86 -105 -196t31 -179q52 -69 154 -69zM802 -184q-218 0 -388 118t-242 313q-72 196 -31 427q53 298 285 490t551 192t517 -226t142 -518q-28 -162 -114 -274t-232 -111q-90 0 -144 42t-71 112
q-109 -154 -289 -154q-143 -1 -220 105t-50 257q28 151 142 265t277 113q163 0 218 -148l31 135h106l-94 -370q-68 -248 109 -248q82 0 145 88t82 205q31 160 -29 302q-59 142 -200 232t-334 90q-264 0 -470 -169t-251 -422q-35 -190 21 -360q55 -170 203 -276
q148 -108 357 -108q322 0 500 248h129q-88 -164 -263 -257t-393 -93z" />
    <glyph glyph-name="onesixteenth" horiz-adv-x="2205" 
d="M1769 86q85 0 144 50t75 134t-37 152t-137 68t-144 -54q-60 -53 -74 -137q-14 -85 36 -149q52 -64 137 -64zM229 1241h-12l21 113h6q78 0 123 43t53 98h102l-133 -764h168l-16 -100h-439l17 100h162l102 586q-19 -33 -63 -55t-91 -21zM1085 610h-12l21 113h6q78 0 123 43
t53 98h102l-133 -764h168l-16 -100h-439l17 100h162l102 586q-20 -32 -63 -54t-91 -22zM135 0l1340 1495h143l-1339 -1495h-144zM1839 582q127 0 201 -98t52 -221q-22 -121 -106 -197q-86 -76 -223 -77t-216 96t-56 230q14 84 80 162l325 387h127l-245 -291q41 8 61 9z" />
    <glyph glyph-name="threesixteenths" horiz-adv-x="2271" 
d="M1834 86q85 0 144 50q58 50 74 134t-36 152t-136 68t-144 -54q-60 -53 -74 -137q-14 -85 36 -149q51 -64 136 -64zM1151 610h-12l20 113h6q78 0 123 43t53 98h103l-133 -764h168l-17 -100h-438l16 100h162l103 586q-19 -32 -63 -54t-91 -22zM360 618q-114 0 -188 65
t-61 189h102q-6 -80 37 -116q44 -36 112 -37q68 0 117 37q49 36 61 106t-32 118q-45 48 -121 48h-76l19 100h69q76 0 131 39q56 39 66 102t-33 103t-114 39q-141 0 -166 -149h-101q16 123 91 184t190 61q115 -1 185 -75t50 -179q-23 -131 -151 -182q131 -83 99 -246
q-18 -89 -94 -148q-77 -59 -192 -59zM201 0l1337 1495h143l-1337 -1495h-143zM1905 582q127 0 201 -98t52 -221q-20 -121 -106 -197t-223 -77t-216 96t-57 230q14 84 80 162l326 387h127l-246 -291q41 8 62 9z" />
    <glyph glyph-name="fivesixteenths" horiz-adv-x="2301" 
d="M1863 86q85 0 144 50t75 134t-37 152q-52 68 -136 68q-85 0 -145 -54q-60 -53 -74 -137q-14 -85 37 -149t136 -64zM1180 610h-13l21 113h6q78 0 123 43t53 98h103l-134 -764h168l-16 -100h-438l16 100h162l102 586q-20 -32 -63 -54t-90 -22zM231 0l1338 1495h143
l-1337 -1495h-144zM409 717q77 0 136 47t74 129t-28 143q-44 61 -132 62q-125 0 -199 -113l-90 37l141 473h473l-18 -102h-383l-78 -258q69 59 187 59t188 -92t46 -214t-110 -196t-207 -72q-120 0 -201 76t-67 197h107q-8 -80 38 -128t123 -48zM1933 582q127 0 201 -98
t52 -221q-22 -121 -106 -197q-85 -76 -222 -77t-217 96q-79 97 -56 230q16 84 80 162l326 387h127l-246 -291q41 8 61 9z" />
    <glyph glyph-name="sevensixteenths" horiz-adv-x="2086" 
d="M16 0l1338 1495h143l-1337 -1495h-144zM1648 86q85 0 144 50q58 50 74 134t-36 152t-136 68t-144 -54q-60 -53 -75 -137q-14 -85 37 -149t136 -64zM1718 582q127 0 201 -98q75 -98 53 -221q-22 -121 -107 -197t-222 -77t-217 96q-79 97 -56 230q14 84 80 162l326 387h127
l-246 -291q41 8 61 9zM193 631l469 764h-431l17 100h547l-17 -92l-465 -772h-120zM965 610h-13l21 113h6q78 0 123 43t53 98h102l-133 -764h168l-16 -100h-438l16 100h162l102 586q-20 -32 -63 -54t-90 -22z" />
    <glyph glyph-name="ninesixteenths" horiz-adv-x="2183" 
d="M464 1020q81 0 138 51q58 51 72 132t-34 143t-131 63q-83 0 -140 -49t-71 -130q-14 -82 36 -146q49 -64 130 -64zM1746 86q85 0 144 50q58 50 74 134t-36 152t-136 68t-144 -54q-60 -53 -74 -137q-14 -85 36 -149q51 -64 136 -64zM1051 610h-13l21 113h6q78 0 123 43
t53 98h102l-133 -764h168l-16 -100h-438l16 100h162l102 586q-20 -32 -63 -54t-90 -22zM115 0l1337 1495h143l-1337 -1495h-143zM444 930q-126 0 -200 93t-52 214t112 196q91 75 216 75t203 -96q78 -95 55 -224q-16 -82 -73 -154l-328 -403h-131l252 303q-18 -4 -54 -4z
M1817 582q127 0 201 -98t52 -221q-22 -121 -107 -197t-222 -77t-216 96t-57 230q14 84 80 162l326 387h127l-246 -291q41 8 62 9z" />
    <glyph glyph-name="elevensixteenths" horiz-adv-x="2758" 
d="M2324 86q85 0 144 50q58 50 74 134t-36 152t-136 68t-145 -54q-59 -53 -75 -136q-16 -82 36 -148t138 -66zM1628 610h-12l18 113h6q78 0 123 43t56 98h102l-135 -764h170l-19 -100h-436l17 100h161l103 588q-23 -34 -65 -56t-89 -22zM784 1241h-12l19 113h6q78 0 123 43
t55 98h102l-135 -764h170l-18 -100h-437l17 100h162l102 588q-23 -33 -65 -55t-89 -23zM227 1241h-12l21 113h6q78 0 123 43t53 98h104l-135 -764h168l-16 -100h-437l17 100h160l102 586q-19 -33 -63 -55t-91 -21zM690 0l1340 1495h143l-1339 -1495h-144zM2394 582
q125 0 200 -98t52 -222t-107 -198t-221 -75t-216 96t-56 230q16 88 80 162l325 387h127l-245 -289q31 6 61 7z" />
    <glyph glyph-name="thirteensixteenths" horiz-adv-x="2809" 
d="M2373 86q85 0 145 51t74 134t-37 151q-52 68 -136 68q-85 0 -145 -54q-60 -53 -74 -137q-14 -85 37 -149t136 -64zM1677 610h-12l21 113h6q78 0 123 43t53 98h104l-135 -764h168l-16 -100h-437l17 100h160l102 586q-19 -32 -63 -54t-91 -22zM227 1241h-12l21 113h6
q78 0 123 43t53 98h104l-135 -764h168l-16 -100h-437l17 100h160l102 586q-19 -33 -63 -55t-91 -21zM897 612q-115 0 -189 65t-63 189h103q-6 -80 36 -116t112 -37q69 0 119 38q50 37 62 107t-34 117t-121 47h-74l16 102h70q78 0 133 38t64 102t-33 102t-113 39
q-141 0 -168 -148h-100q16 121 91 183q74 62 190 61q116 0 186 -74t49 -180q-23 -127 -150 -182q127 -80 101 -231q-20 -104 -96 -163t-191 -59zM741 0l1338 1495h143l-1337 -1495h-144zM2443 582q127 0 202 -98t53 -221q-22 -121 -108 -197q-85 -76 -222 -77t-217 96
q-79 97 -54 230q16 88 80 162l324 387h127l-246 -289q31 6 61 7z" />
    <glyph glyph-name="fifteensixteenths" horiz-adv-x="2807" 
d="M2373 86q85 0 144 50t75 134t-37 152q-52 68 -136 68q-85 0 -145 -54q-60 -53 -75 -136q-15 -82 37 -148t137 -66zM1677 610h-12l18 113h7q78 0 122 43t56 98h102l-135 -764h170l-18 -100h-437l17 100h162l102 588q-23 -34 -65 -56t-89 -22zM236 1241h-13l19 113h6
q78 0 123 43t55 98h102l-135 -764h170l-18 -100h-436l16 100h162l102 588q-23 -33 -65 -55t-88 -23zM739 0l1340 1495h143l-1339 -1495h-144zM929 717q77 0 136 47t75 129t-29 143q-44 61 -132 62q-125 0 -199 -113l-90 37l141 473h474l-19 -102h-383l-78 -258q70 59 188 59
q117 0 187 -92t46 -214t-110 -196q-87 -73 -207 -72q-120 0 -201 76t-66 197h106q-8 -80 38 -128t123 -48zM2443 582q125 0 200 -98t52 -222t-107 -198t-220 -75q-137 -1 -217 96q-79 97 -56 230q16 88 80 162l326 387h127l-246 -289q31 6 61 7z" />
    <glyph glyph-name="slash.cap" horiz-adv-x="921" 
d="M-59 0l968 1495h131l-968 -1495h-131z" />
    <glyph glyph-name="backslash.cap" horiz-adv-x="921" 
d="M653 0l-448 1495h123l450 -1495h-125z" />
    <glyph glyph-name="dcroat.smcp" horiz-adv-x="1232" 
d="M481 109q201 0 354 131t191 344q38 212 -89 370q-126 158 -349 158h-209l-80 -453h369l-19 -100h-366l-80 -450h278zM469 0h-399l96 559h-133l18 100h133l99 562h319q266 -2 426 -195t114 -452q-46 -258 -232 -416t-441 -158z" />
    <glyph glyph-name="mediumwhitecircle" horiz-adv-x="1429" 
d="M715 86q174 0 294 125t119 301q0 176 -119 301q-120 125 -294 125t-294 -125t-120 -301t120 -301t294 -125zM715 -20q-221 0 -376 154t-155 378q0 223 155 378q155 154 376 154t377 -154t156 -378q0 -223 -156 -378q-156 -154 -377 -154z" />
    <glyph glyph-name="mediumblackcircle" horiz-adv-x="1429" 
d="M715 -20q-221 0 -376 156t-155 376q0 221 155 377q155 155 376 155t376 -156t155 -376q0 -221 -155 -377q-155 -155 -376 -155z" />
    <glyph glyph-name="ballotboxwithx" horiz-adv-x="1433" 
d="M504 221l-70 70l211 217l-217 213l70 70l215 -213l213 219l69 -70l-211 -217l217 -213l-69 -72l-217 213zM324 911v-798h786v798h-786zM205 0v1024h1024v-1024h-1024z" />
    <glyph glyph-name="arrowleft.alt" horiz-adv-x="2187" 
d="M1931 911h-57l156 277h84zM1540 911h-55l153 277h86zM1737 911h-58l154 277h86zM2032 299l-158 285h55l189 -285h-86zM1837 299l-160 285h58l186 -285h-84zM1640 299l-157 285h57l186 -285h-86zM1931 805v-113h-1659l379 -375h-143l-389 392v79l389 394h143l-379 -377
h1659z" />
    <glyph glyph-name="arrowright.alt" horiz-adv-x="2187" 
d="M743 588l-155 -277h-84l182 277h57zM547 588l-154 -277h-86l185 277h55zM352 588l-153 -277h-86l182 277h57zM297 915l-186 283h84l159 -283h-57zM688 915l-188 283h86l157 -283h-55zM492 915l-187 283h86l158 -283h-57zM297 692v113h1659l-379 377h143l389 -394v-79
l-389 -392h-143l379 375h-1659z" />
    <glyph glyph-name="arrowup.alt" horiz-adv-x="2187" 
d="M1286 0v55l279 -153v-86zM1286 195v57l279 -156v-84zM1286 389v57l279 -153v-86zM676 205v84l285 160v-58zM676 8v86l285 158v-55zM676 -186v86l285 157v-57zM1069 10v1454l-375 -379v144l391 391h80l391 -391v-144l-374 381v-1456h-113z" />
    <glyph glyph-name="arrowdown.alt" horiz-adv-x="2187" 
d="M963 1499v-55l-277 153v86zM963 1305v-58l-277 156v84zM963 1110v-57l-277 153v86zM1290 1108l285 186v-84l-285 -159v57zM1290 1303l285 188v-86l-285 -158v56zM1290 1499l285 187v-87l-285 -157v57zM1069 1499h113v-1464l374 379v-144l-391 -391h-80l-393 391v144
l377 -381v1466z" />
    <glyph glyph-name="exclamdown.cap" horiz-adv-x="471" 
d="M289 1214l49 281h119l-49 -281h-119zM76 0l41 240q94 528 172 841h69q-41 -381 -122 -841l-41 -240h-119z" />
    <glyph glyph-name="questiondown.cap" horiz-adv-x="1103" 
d="M825 1495l-49 -281h-119l50 281h118zM498 -20q-186 0 -307 114q-122 114 -89 287q14 78 56 138q41 60 93 94q51 34 113 78t116 87t103 129t62 197h109q-15 -124 -65 -221t-104 -147q-107 -98 -226 -171q-117 -72 -140 -194q-20 -131 68 -210t225 -79t231 85t113 226h117
q-23 -199 -156 -306t-319 -107z" />
    <glyph glyph-name="interrobangdown.cap" horiz-adv-x="1085" 
d="M758 1495l-49 -281h-119l49 281h119zM210 353q-15 -89 39 -163t157 -98l24 148q37 213 107 526q-68 -102 -185 -186q-118 -84 -142 -227zM684 1104q-67 -469 -135 -864l-27 -158q121 8 210 91t108 220h116q-24 -199 -156 -307t-316 -106q-184 0 -303 114
q-118 114 -87 283q31 168 177 270q60 43 123 91q62 48 116 136q53 88 76 213l4 17h94z" />
    <glyph glyph-name="reversequoteleft" horiz-adv-x="360" 
d="M244 1077h-78l162 418h112z" />
    <glyph glyph-name="reversequotedblleft" horiz-adv-x="575" 
d="M459 1077h-80l166 418h110zM244 1077h-78l162 418h112z" />
    <glyph glyph-name="onethirdemdash" horiz-adv-x="858" 
d="M90 473l19 100h655l-19 -100h-655z" />
    <glyph glyph-name="threequarteremdash" horiz-adv-x="1253" 
d="M90 473l19 100h1052l-18 -100h-1053z" />
    <glyph glyph-name="periodcentered.cap" horiz-adv-x="362" 
d="M131 604l49 281h117l-49 -281h-117z" />
    <glyph glyph-name="hyphen.cap" horiz-adv-x="948" 
d="M119 698l18 101h758l-18 -101h-758z" />
    <glyph glyph-name="onethirdemdash.cap" horiz-adv-x="858" 
d="M119 698l18 101h656l-19 -101h-655z" />
    <glyph glyph-name="endash.cap" horiz-adv-x="1036" 
d="M119 698l18 101h846l-18 -101h-846z" />
    <glyph glyph-name="threequarteremdash.cap" horiz-adv-x="1253" 
d="M119 698l18 101h1051l-19 -101h-1050z" />
    <glyph glyph-name="emdash.cap" horiz-adv-x="1458" 
d="M119 698l18 101h1256l-19 -101h-1255z" />
    <glyph glyph-name="figuredash.cap" horiz-adv-x="1355" 
d="M119 698l18 101h1153l-18 -101h-1153z" />
    <glyph glyph-name="uni2015.cap" horiz-adv-x="2072" 
d="M119 698l18 101h1870l-18 -101h-1870z" />
    <glyph glyph-name="zero.LP" horiz-adv-x="1761" 
d="M883 94q245 0 437 164t236 414q33 182 -27 349q-61 167 -209 275t-353 109q-248 0 -442 -166t-238 -420q-49 -297 124 -511t472 -214zM872 -20q-350 0 -556 252t-144 602q50 298 280 490t523 192q235 0 411 -126t250 -323t35 -412q-53 -295 -281 -485t-518 -190z" />
    <glyph glyph-name="one.LP" horiz-adv-x="952" 
d="M285 1128h-23l23 121h10q135 0 213 76t94 170h115l-244 -1384h297l-18 -111h-715l18 111h297l203 1157q-37 -60 -113 -100t-157 -40z" />
    <glyph glyph-name="two.LP" horiz-adv-x="1210" 
d="M752 1413q-158 0 -264 -87t-132 -259q0 -8 -2 -8h-112q23 217 166 338t352 119t332 -122t90 -298q-21 -117 -129 -240q-69 -76 -245 -185q-42 -26 -193 -116t-244 -166q-93 -77 -131 -139t-52 -133l-2 -4h824l-19 -113h-948l20 121q33 176 178 302q146 126 423 291
q159 96 192 122q32 26 68 55t76 78q39 49 50 81q62 168 -50 276q-90 87 -248 87z" />
    <glyph glyph-name="three.LP" horiz-adv-x="1169" 
d="M507 -20q-208 0 -322 131t-87 317h117q-18 -160 73 -252q92 -92 242 -91t255 79t131 221t-68 241t-260 97h-133l16 108h129q158 0 276 76t140 208t-72 217t-248 85t-256 -88t-116 -237q-2 -6 -2 -9h-115q18 199 148 316t343 117t337 -119t91 -301q-20 -115 -103 -200
t-214 -126q125 -53 186 -161t37 -249q-31 -178 -174 -279t-351 -101z" />
    <glyph glyph-name="four.LP" horiz-adv-x="1300" 
d="M236 451h608l151 856zM766 0l59 344h-737l12 109l926 1042h119l-184 -1044h221l-21 -107h-219l-59 -344h-117z" />
    <glyph glyph-name="five.LP" horiz-adv-x="1218" 
d="M532 -20q-204 0 -336 133t-110 346h119q-18 -169 83 -271t259 -102q159 0 277 95t156 263t-55 299t-276 131q-250 0 -405 -227l-107 35l242 813h795l-19 -111h-692l-170 -557q150 154 379 154t350 -166t74 -377q-47 -210 -203 -334t-361 -124z" />
    <glyph glyph-name="six.LP" horiz-adv-x="1269" 
d="M604 86q154 0 277 104t153 274t-78 310q-106 141 -279 141t-296 -105t-152 -277q-29 -171 77 -309t298 -138zM690 1018q226 0 362 -173t95 -407q-37 -200 -187 -328t-362 -130q-246 0 -385 172t-96 405q25 150 133 279l577 659h144l-445 -506q82 29 164 29z" />
    <glyph glyph-name="seven.LP" horiz-adv-x="1181" 
d="M205 0l870 1384h-811l21 111h938l-19 -102l-864 -1393h-135z" />
    <glyph glyph-name="eight.LP" horiz-adv-x="1183" 
d="M664 846q133 0 228 73t117 193q21 120 -59 210q-80 89 -219 89t-230 -74t-112 -186q-20 -133 61 -219t214 -86zM614 743q-156 0 -266 -86t-132 -224q-24 -137 68 -241t253 -104q162 0 266 87t129 226q26 139 -68 241t-250 101zM530 -20q-214 0 -336 134t-90 335
q20 127 108 222t220 142q-193 119 -147 369q25 136 150 235q126 99 307 99t294 -125t84 -293q-20 -117 -92 -199t-176 -119q102 -58 158 -164t34 -233q-31 -176 -164 -290q-135 -113 -350 -113z" />
    <glyph glyph-name="nine.LP" horiz-adv-x="1224" 
d="M674 627q143 0 260 99t143 245q31 180 -67 309t-281 129q-151 0 -265 -99t-142 -260t72 -292t280 -131zM649 526q-219 0 -351 162t-93 371t188 333q150 124 344 124q227 0 363 -165t94 -388q-25 -137 -123 -256l-579 -707h-148l461 553q-74 -27 -156 -27z" />
    <glyph glyph-name="zero.inf" horiz-adv-x="1021" 
d="M460 92q142 0 241 87t124 226t-61 254t-230 115t-244 -87q-101 -87 -126 -229t64 -254q90 -112 232 -112zM544 877q188 -1 303 -149q116 -148 84 -332t-165 -296q-132 -112 -318 -112t-305 146t-86 332t166 298q133 113 321 113z" />
    <glyph glyph-name="one.inf" horiz-adv-x="579" 
d="M115 610h-13l21 113h6q78 0 123 43t53 98h103l-134 -764h168l-16 -100h-438l16 100h162l102 586q-20 -32 -63 -54t-90 -22z" />
    <glyph glyph-name="two.inf" horiz-adv-x="708" 
d="M397 784q-72 0 -123 -46t-57 -122h-100q4 121 87 191q82 70 200 70t191 -71t54 -173t-99 -166q-81 -64 -171 -116t-131 -81q-115 -81 -129 -168v-2h436l-18 -100h-549l16 102q18 98 93 169t206 151q158 95 172 111t36 37t34 69q10 61 -33 103t-115 42z" />
    <glyph glyph-name="three.inf" horiz-adv-x="657" 
d="M248 -12q-115 0 -190 64t-62 190h104q-6 -80 37 -117t111 -37t118 37t62 107t-33 117q-45 48 -123 48h-73l16 101h70q78 0 133 39t65 101q11 62 -33 102t-114 40q-141 0 -168 -149h-100q16 123 91 184t189 61t186 -74q71 -75 50 -179q-23 -129 -150 -183q132 -83 98 -246
q-18 -90 -94 -148t-190 -58z" />
    <glyph glyph-name="four.inf" horiz-adv-x="768" 
d="M145 297h283l70 397zM377 0l35 199h-406l14 98l506 567h107l-101 -567h136l-17 -98h-135l-35 -199h-104z" />
    <glyph glyph-name="five.inf" horiz-adv-x="704" 
d="M281 86q76 0 135 47q60 47 76 129t-29 144t-131 61q-125 0 -199 -113l-90 37l141 473h471l-16 -102h-383l-80 -260q68 61 186 61t189 -92q70 -92 46 -214q-23 -121 -109 -195t-206 -73t-201 77t-67 196h107q-10 -80 37 -128t123 -48z" />
    <glyph glyph-name="six.inf" horiz-adv-x="743" 
d="M306 86q85 0 145 50q59 50 74 134t-37 152t-136 68t-144 -54q-60 -53 -74 -137q-14 -85 36 -149q51 -64 136 -64zM377 582q127 0 201 -98t52 -221q-22 -121 -106 -197q-86 -76 -223 -77t-216 96t-56 230q16 84 80 162l325 387h127l-246 -291q41 8 62 9z" />
    <glyph glyph-name="seven.inf" horiz-adv-x="698" 
d="M80 0l469 764h-430l16 100h547l-16 -92l-465 -772h-121z" />
    <glyph glyph-name="eight.inf" horiz-adv-x="710" 
d="M354 506q63 0 112 37q48 37 58 94t-27 99q-39 42 -105 42t-110 -34t-57 -89q-10 -63 28 -106t101 -43zM283 88q80 0 130 42t62 110t-33 116q-46 48 -120 50q-74 0 -129 -42t-65 -110t32 -117q43 -49 123 -49zM274 -12q-124 0 -196 79t-51 195q23 139 161 207
q-84 74 -63 199q16 90 92 149q75 59 183 59t174 -74q66 -75 51 -173q-27 -133 -138 -183q113 -80 88 -223q-18 -103 -97 -169t-204 -66z" />
    <glyph glyph-name="nine.inf" horiz-adv-x="727" 
d="M351 389q81 0 138 51t71 132q14 82 -33 144q-48 62 -131 62t-140 -49q-56 -49 -70 -130t35 -145t130 -65zM332 299q-125 0 -200 93q-76 93 -54 214t113 196t216 75q125 1 203 -95t56 -225q-16 -82 -74 -154l-328 -403h-131l252 303q-18 -4 -53 -4z" />
    <glyph glyph-name="plus.inf" horiz-adv-x="571" 
d="M39 387l16 90h174l31 172h90l-31 -172h173l-17 -90h-172l-31 -174h-90l31 174h-174z" />
    <glyph glyph-name="minus.inf" horiz-adv-x="571" 
d="M39 387l16 90h437l-17 -90h-436z" />
    <glyph glyph-name="equal.inf" horiz-adv-x="571" 
d="M20 287l17 90h438l-16 -90h-439zM55 481l17 90h438l-16 -90h-439z" />
    <glyph glyph-name="colon.T" 
d="M582 743l49 281h117l-50 -281h-116zM449 0l51 281h116l-49 -281h-118z" />
    <glyph glyph-name="semicolon.T" 
d="M379 -240l164 418h110l-196 -418h-78zM598 743l49 281h119l-49 -281h-119z" />
    <glyph glyph-name="Euro.LP" horiz-adv-x="1814" 
d="M1098 1403q-208 0 -374 -101q-167 -101 -259 -270h883l-43 -98h-885q-65 -203 -29 -373h746l-43 -98h-674q64 -168 210 -269q146 -102 347 -102t369 109t243 297h131q-90 -244 -292 -381t-458 -137t-436 133q-181 133 -245 350h-236l17 98h198q-30 185 29 373h-162l17 98
h182q100 219 307 351q207 133 462 133t449 -157t226 -396h-127q-39 203 -192 321t-361 119z" />
    <glyph glyph-name="dollar.LP" horiz-adv-x="1202" 
d="M711 1411q-127 -3 -215 -67t-107 -166q-18 -102 45 -173t182 -135zM586 88q144 0 242 72t118 193q20 122 -48 203q-69 81 -206 151l-108 -619h2zM578 -20h-13l-33 -189h-104l35 199q-174 31 -281 147q-106 117 -90 291h115q-9 -125 67 -214t207 -116l117 654
q-278 132 -322 281q-20 71 -6 159q25 143 150 233t307 91h2l33 182h104l-35 -193q154 -29 251 -132t83 -259h-112q8 121 -61 193t-179 94l-102 -576q88 -41 144 -77q55 -36 117 -92q126 -118 95 -301t-161 -279t-328 -96z" />
    <glyph glyph-name="cent.LP" horiz-adv-x="1257" 
d="M672 938q-158 0 -288 -106t-160 -282t80 -320t306 -144q154 0 267 86t151 246h115q-45 -211 -196 -325t-343 -113l-16 2l-43 -248h-117l43 262q-193 45 -293 210t-65 367q35 203 189 333t355 138l45 246h117l-45 -254q172 -29 279 -150q106 -122 110 -288h-112
q-9 152 -115 246t-264 94z" />
    <glyph glyph-name="sterling.LP" horiz-adv-x="1490" 
d="M287 53q154 0 239 135q-150 115 -243 115q-125 0 -148 -104q-10 -66 34 -106t118 -40zM946 78q127 0 192 66t93 227l10 57h123l-14 -72q-35 -196 -126 -286t-261 -90t-365 151q-115 -154 -311 -154q-121 0 -193 65t-53 173q17 78 79 124t175 47t270 -116q12 37 17 58
q25 139 -70 360h-285l17 96h227q-84 203 -55 367t159 264q131 101 326 101t311 -104t105 -300h-115q6 145 -78 222t-229 78t-241 -76q-96 -76 -120 -208t60 -344h450l-16 -96h-395q78 -211 53 -352q-14 -74 -41 -127q174 -131 301 -131z" />
    <glyph glyph-name="florin.LP" horiz-adv-x="1093" 
d="M1128 1495h11l-17 -106q-122 1 -188 -53t-133 -222l-121 -287h291l-21 -104h-315l-143 -344q-88 -223 -182 -301t-285 -78h-11l19 109q145 0 209 50q63 50 135 222l143 342h-280l20 104h303l121 289q88 217 187 298t257 81z" />
    <glyph glyph-name="yen.LP" horiz-adv-x="1306" 
d="M270 655l19 99h340l-363 741h127l314 -653l540 653h137l-622 -741h340l-19 -99h-348l-43 -247h348l-18 -99h-348l-53 -309h-117l53 309h-346l16 99h346l43 247h-346z" />
    <glyph glyph-name="Aumlaut" horiz-adv-x="1404" 
d="M858 1337l-452 -807h612zM-18 0l841 1495h119l303 -1495h-121l-84 418h-698l-233 -418h-127zM1137 1210l49 285h117l-50 -285h-116zM406 1210l51 285h114l-49 -285h-116z" />
    <glyph glyph-name="Oumlaut" horiz-adv-x="1757" 
d="M879 90q245 0 437 166t236 416q33 182 -26 349q-60 167 -208 275t-353 109q-248 0 -442 -167t-238 -419q-49 -299 123 -514t471 -215zM868 -20q-350 0 -556 252t-144 602q50 298 280 490t523 192q237 0 413 -126t250 -323t35 -412q-53 -297 -279 -486t-522 -189z
M233 1270l39 225h117l-20 -115q-37 -27 -99 -110h-37zM1647 1270q-37 84 -66 110l21 115h116l-39 -225h-32z" />
    <glyph glyph-name="Uumlaut" horiz-adv-x="1308" 
d="M539 1210l49 285h114l-49 -285h-114zM909 1210l49 285h115l-49 -285h-115zM588 -20q-230 0 -357 148t-86 394l172 973h119l-172 -985q-32 -180 58 -300t294 -120q160 0 275 99t141 253l187 1053h118l-184 -1046q-39 -219 -186 -345q-149 -124 -379 -124z" />
    <glyph glyph-name="aumlaut.smcp" horiz-adv-x="1185" 
d="M700 1067l-356 -641h479zM-16 0l680 1221h118l242 -1221h-117l-61 315h-563l-174 -315h-125zM270 936l49 285h117l-49 -285h-117zM956 936l52 285h114l-49 -285h-117z" />
    <glyph glyph-name="oumlaut.smcp" horiz-adv-x="1472" 
d="M719 90q193 0 347 132t187 329q41 223 -91 401t-374 178q-196 0 -350 -132t-188 -330q-41 -236 95 -407t374 -171zM709 -20q-287 0 -455 208t-119 492q43 244 231 402t429 159q195 0 339 -103q144 -104 205 -266t29 -337q-43 -243 -228 -399t-431 -156zM186 1026l33 195
h117l-17 -84q-47 -35 -98 -111h-35zM1352 1026q-37 80 -66 107l14 88h117l-33 -195h-32z" />
    </font>
</defs>
</svg>
