<?xml version="1.0" standalone="no"?>
<!DOCTYPE svg PUBLIC "-//W3C//DTD SVG 1.1//EN" "http://www.w3.org/Graphics/SVG/1.1/DTD/svg11.dtd" >
<svg xmlns="http://www.w3.org/2000/svg">
<metadata>
Created by FontPrep 20130207 at Sat Apr 25 19:03:49 2015
 By Andrew Poes
Copyright 2013 Adobe Systems Incorporated. All rights reserved.
</metadata>
<defs>
<font id="96ead8507fb0237bef316bbe7a9c2949" horiz-adv-x='1024' >
  <font-face 
    font-family="SharpSansNoTwo-SemiBold"
    font-weight="400"
    font-stretch="normal"
    units-per-em="2048"
    panose-1="0 0 0 0 0 0 0 0 0 0"
    ascent="1536"
    descent="-512"
    x-height="1024"
    cap-height="1495"
    bbox="-272 -535 3160 2241"
    underline-thickness="102"
    underline-position="-102"
    unicode-range="U+0020-FF3F"
  />
<missing-glyph horiz-adv-x="0" 
 />
    <glyph glyph-name="AE" unicode="AE" horiz-adv-x="2007" 
d="M821 1171l-301 -651h455zM1896 1495v-211h-876l104 -428h772v-211h-720l104 -432h616v-213h-796l-76 315h-598l-145 -315h-240l694 1495h1161z" />
    <glyph glyph-name="interrobang" unicode="&#x21;&#x3f;" horiz-adv-x="1114" 
d="M803 1103q0 154 -152 208v-56q0 -193 -14 -426q14 17 56 59t59 63q51 71 51 152zM442 0v281h220v-281h-220zM455 1255v60q-156 -41 -160 -213v-8h-217q-4 190 122 306t342 116t350 -110t134 -296t-139 -294q-57 -44 -115 -88t-98 -124q-41 -80 -41 -196v-21h-162
q-16 451 -16 868z" />
    <glyph glyph-name="interrobangdown" unicode="&#xa1;&#xbf;" horiz-adv-x="1112" 
d="M317 -79q0 -81 42 -133t112 -75v56q0 195 14 428q-16 -19 -58 -61t-58 -63q-52 -71 -52 -152zM680 1024v-281h-219v281h219zM489 639h160q16 -365 17 -870v-62q158 41 161 215v8h217q4 -190 -122 -306t-341 -116q-216 0 -352 110q-135 110 -135 290q0 92 30 161t73 105
t95 79q52 42 95 81q43 38 73 112t29 172v21z" />
    <glyph glyph-name="C_A" unicode="CA" horiz-adv-x="2156" 
d="M1821 520v631l-422 -631h422zM850 -20q-334 0 -556 223t-222 545t223 544t555 224q186 0 350 -88t262 -232l-139 -203q-162 305 -487 305q-225 0 -384 -162t-159 -388t159 -388t384 -161q55 0 96 8l864 1288h246v-1495h-221v315h-559l-201 -303q-98 -32 -211 -32z" />
    <glyph glyph-name="C_O" unicode="CO" horiz-adv-x="2449" 
d="M836 750q0 297 200 510q-100 39 -205 38q-227 0 -386 -162t-159 -388q0 -227 159 -389q159 -161 386 -160q113 0 209 39q-204 215 -204 512zM1618 199q225 -1 385 161t160 388t-160 389q-160 162 -385 161q-106 0 -207 -38q121 -123 170 -295h-235q-47 100 -123 176
q-164 -160 -164 -392t164 -393q72 72 114 164h242q-51 -162 -170 -282q100 -39 209 -39zM831 -20q-317 0 -541 225t-224 543t224 542q224 225 541 226q205 0 392 -109q184 109 395 109q318 0 542 -226t224 -542t-224 -542t-542 -226q-209 0 -393 110q-189 -110 -394 -110z
" />
    <glyph glyph-name="E_A" unicode="EA" horiz-adv-x="2004" 
d="M1667 520v633l-420 -633h420zM115 0v1495h811v-211h-588v-428h588v-211h-588v-432h448l859 1282h245v-1495h-223v315h-557l-209 -315h-786z" />
    <glyph glyph-name="E_C" unicode="EC" horiz-adv-x="2394" 
d="M1622 -20q-305 0 -521 189t-251 476h-512v-432h674v-213h-897v1495h897v-211h-674v-428h512q39 283 255 471t517 189q250 0 454 -155t271 -396h-246q-63 157 -190 245t-303 88q-227 0 -385 -162t-158 -388t158 -388t385 -161q168 0 294 86t193 235h248
q-73 -240 -273 -390t-448 -150z" />
    <glyph glyph-name="E_C_O" unicode="ECO" horiz-adv-x="3221" 
d="M1608 199q113 0 209 39q-205 215 -205 512t200 510q-100 39 -204 38q-227 0 -385 -162t-158 -388q0 -227 158 -388t385 -161zM2394 199q227 1 386 161t159 388t-159 389q-159 162 -386 161q-106 0 -207 -38q121 -127 172 -295h-237q-47 100 -121 174q-164 -160 -164 -390
t162 -393q72 72 115 164h241q-53 -164 -170 -284q96 -37 209 -37zM1608 -20q-291 0 -506 190t-252 475h-512v-432h674v-213h-897v1495h897v-211h-674v-428h512q41 283 255 471t503 189q203 0 393 -109q186 109 393 109q318 0 542 -224t224 -544t-223 -544t-543 -224
q-209 0 -393 110q-188 -110 -393 -110z" />
    <glyph glyph-name="E_G" unicode="EG" horiz-adv-x="2433" 
d="M1608 -20q-291 0 -506 190t-252 475h-512v-432h674v-213h-897v1495h897v-211h-674v-428h512q39 283 255 471t517 189q252 0 457 -155t264 -388h-244q-61 149 -189 237t-302 88q-227 0 -385 -162t-158 -388t158 -388t376 -162t360 120q142 118 181 305h-530v211h764v-86
q0 -205 -94 -379q-94 -173 -270 -281q-177 -108 -402 -108z" />
    <glyph glyph-name="E_M" unicode="EM" horiz-adv-x="3018" 
d="M115 0v1495h811v-211h-588v-428h588v-211h-588v-432h450l854 1282h246v-1153l770 1153h246v-1495h-223v1153l-770 -1153h-244v1151l-766 -1151h-786z" />
    <glyph glyph-name="E_O" unicode="EO" horiz-adv-x="2435" 
d="M1065 748q0 -229 157 -390t385 -161q228 1 386 161q157 160 157 390t-157 391q-158 161 -386 161t-385 -162t-157 -390zM1621 -20q-304 0 -519 190t-254 475h-510v-432h674v-213h-897v1495h897v-211h-674v-428h512q39 281 254 470q215 190 518 190t527 -226
q225 -226 225 -542t-224 -542t-529 -226z" />
    <glyph glyph-name="E_V" unicode="EV" horiz-adv-x="2002" 
d="M115 0v1495h786l766 -1151v1151h221v-1495h-246l-856 1284h-448v-432h588v-213h-588v-426h588v-213h-811z" />
    <glyph glyph-name="E_W" unicode="EW" horiz-adv-x="3024" 
d="M115 0v1495h794l764 -1149v1149h244l770 -1153v1153h223v-1495h-246l-770 1155v-1155h-245l-856 1284h-455v-432h588v-213h-588v-426h588v-213h-811z" />
    <glyph glyph-name="E_Y" unicode="EY" horiz-adv-x="2037" 
d="M1298 0v709l-356 575h-604v-428h633v-211h-633v-432h633v-213h-856v1495h946l350 -567l350 567h246l-485 -786v-709h-224z" />
    <glyph glyph-name="E_X" unicode="EX" horiz-adv-x="2093" 
d="M981 645h-643v-432h627l348 549l-328 522h-647v-428h643v-211zM115 0v1495h989l342 -543l342 543h252l-461 -733l479 -762h-252l-360 569l-359 -569h-972z" />
    <glyph glyph-name="F_O" unicode="FO" horiz-adv-x="2433" 
d="M1063 748q0 -229 157 -390t385 -161q228 1 386 161q157 160 157 390t-157 391q-158 161 -386 161t-385 -162t-157 -390zM1619 -20q-304 0 -519 190t-254 475h-508v-645h-223v1495h897v-211h-674v-428h510q39 281 254 470q215 190 518 190t527 -226q225 -226 225 -542
t-224 -542t-529 -226z" />
    <glyph glyph-name="H_S" unicode="HS" horiz-adv-x="2349" 
d="M1729 -20q-336 0 -519 166q-182 167 -196 497h-676v-643h-223v1495h223v-641h676v641h221v-793q0 -240 124 -376t370 -136q153 0 239 74t86 187t-133 179q-53 28 -80 39t-97 40t-111 49q-127 61 -196 147t-69 221q0 174 123 282t331 108t328 -117q119 -117 117 -332h-215
v14q0 106 -61 172t-168 66t-167 -51t-60 -140t83 -143q84 -53 199 -92q307 -130 378 -277q34 -70 34 -159q0 -197 -148 -337t-413 -140z" />
    <glyph glyph-name="I_S" unicode="IS" horiz-adv-x="1445" 
d="M825 -20q-350 0 -532 184t-182 541v790h221v-793q0 -238 124 -374t369 -138q154 0 240 74t86 186t-133 178q-66 35 -165 75q-99 41 -151 69t-114 76q-123 96 -123 274t123 286q122 108 332 108t336 -114t124 -321h-221v17q0 106 -64 164q-65 57 -172 57t-169 -51
t-62 -142q0 -42 16 -74q31 -63 174 -121q143 -57 200 -85q151 -75 215 -151q91 -106 89 -238q0 -197 -148 -337t-413 -140z" />
    <glyph glyph-name="I_T" unicode="IT" horiz-adv-x="1241" 
d="M115 0v1159h223v-1159h-223zM530 0v1284h-415v211h1054v-211h-415v-1284h-224z" />
    <glyph glyph-name="I_T_I" unicode="ITI" horiz-adv-x="1284" 
d="M946 0v1159h223v-1159h-223zM115 0v1159h223v-1159h-223zM530 0v1284h-415v211h1054v-211h-415v-1284h-224z" />
    <glyph glyph-name="I_T_Y" unicode="ITY" horiz-adv-x="2152" 
d="M115 0v1169h223v-1169h-223zM530 0v1284h-415v211h1061l348 -567l350 567h248l-488 -788v-707h-221v709l-356 575h-303v-1284h-224z" />
    <glyph glyph-name="K_A" unicode="KA" horiz-adv-x="1847" 
d="M1511 645v516l-346 -516h346zM338 0h-223v1495h223v-852l573 852h250l-420 -625l166 -249l582 874h244v-1495h-222v440h-473l291 -440h-258l-168 250l-166 -250h-241l278 420l-182 270l-254 -385v-305z" />
    <glyph glyph-name="L_A" unicode="LA" horiz-adv-x="1550" 
d="M1214 598v555l-370 -555h370zM115 0v1495h223v-1282l852 1282h246v-1495h-222v391h-507l-119 -178h436v-213h-909z" />
    <glyph glyph-name="L_S" unicode="LS" horiz-adv-x="1531" 
d="M115 0v1495h223v-1282h643q123 0 191 60q68 61 67 149q0 88 -44 139t-98 76t-150 58q-180 63 -299 152q-120 89 -120 268t128 290t339 111t337 -115t124 -320h-219v17q0 106 -66 164t-177 59q-111 0 -176 -55q-64 -55 -64 -145t86 -140q102 -64 214 -98q17 -5 67 -26
q130 -53 227 -131q124 -102 123 -286t-128 -312t-360 -128h-868z" />
    <glyph glyph-name="L_T" unicode="LT" horiz-adv-x="1652" 
d="M115 0v1495h223v-1282h422v-213h-645zM934 0v1284h-422v211h1069v-211h-424v-1284h-223z" />
    <glyph glyph-name="L_T_I" unicode="LTI" horiz-adv-x="1685" 
d="M1343 0v1159h222v-1159h-222zM115 0v1495h223v-1282h416v-213h-639zM928 0v1284h-416v211h1053v-211h-416v-1284h-221z" />
    <glyph glyph-name="L_Y" unicode="LY" horiz-adv-x="1726" 
d="M115 0v1495h223v-1282h465v-213h-688zM987 0v709l-485 786h248l348 -567l350 567h248l-488 -788v-707h-221z" />
    <glyph glyph-name="M_A" unicode="MA" horiz-adv-x="2897" 
d="M2560 598v559l-373 -559h373zM1352 0h-246l-768 1153v-1153h-223v1495h245l770 -1157v1157h246l580 -874l581 874h246v-1495h-223v391h-451l261 -391h-252l-164 246l-164 -246h-246l287 430l-479 721v-1151z" />
    <glyph glyph-name="M_S" unicode="MS" horiz-adv-x="2693" 
d="M115 0v1495h221l508 -704l526 704h209v-793q0 -233 128 -372t366 -140q153 0 239 74t86 185q0 67 -47 119q-47 53 -268 144t-296 184t-75 230q0 174 123 282t332 108t327 -117t117 -332h-215v14q0 106 -61 172t-167 66t-168 -51q-60 -51 -61 -142q-1 -42 15 -74
q31 -63 175 -121q143 -57 200 -85q149 -74 216 -151q89 -104 89 -238q0 -197 -148 -337t-413 -140q-350 0 -533 184q-182 184 -182 541v434l-516 -697l-504 686v-1128h-223z" />
    <glyph glyph-name="O_C" unicode="OC" horiz-adv-x="2465" 
d="M1395 750q0 207 -138 360q-135 -156 -135 -362t135 -363q138 158 138 365zM838 199q131 0 247 55q-188 215 -188 496t186 493q-117 55 -245 55q-227 0 -386 -162t-159 -388q0 -227 159 -388t386 -161zM1694 -20q-240 0 -437 126q-195 -127 -419 -126q-317 0 -542 225
q-224 225 -224 543t224 542q224 225 542 226q223 0 419 -125q197 125 439 125t445 -155q204 -155 274 -396h-234q-66 153 -201 243q-134 90 -282 90t-264 -55q186 -213 186 -493t-188 -496q117 -55 263 -55t279 89t199 232h240q-74 -240 -276 -390q-203 -150 -443 -150z" />
    <glyph glyph-name="O_O" unicode="OO" horiz-adv-x="2519" 
d="M1391 748q0 207 -134 360q-129 -152 -129 -360t129 -361q134 154 134 361zM838 197q133 0 252 57q-186 213 -186 496t183 493q-115 57 -249 57q-227 0 -385 -162t-158 -390q0 -229 158 -390t385 -161zM1679 197q229 1 387 161t158 390t-158 391q-158 162 -387 161
q-131 0 -249 -59q186 -209 186 -493t-186 -494q114 -57 249 -57zM1679 -20q-229 0 -422 126q-197 -127 -419 -126q-317 0 -542 225q-224 225 -224 543t224 542q224 225 542 226q225 0 419 -127q197 127 422 127q319 0 543 -226t225 -542q0 -317 -224 -543
q-225 -225 -544 -225z" />
    <glyph glyph-name="R_A" unicode="RA" horiz-adv-x="2052" 
d="M1720 520v633l-420 -633h420zM115 0v1495h465q232 0 380 -139t148 -348q0 -156 -85 -281t-239 -172l142 -219l772 1159h246v-1495h-224v315h-557l-104 -157l100 -158h-457l93 139l-361 574h121q156 0 243 90t87 212q0 121 -84 197t-244 76h-219v-1288h-223z" />
    <glyph glyph-name="S_T" unicode="ST" horiz-adv-x="1886" 
d="M1028 412q0 -180 -127 -306t-356 -126t-362 123q-132 124 -132 352h230v-15q-1 -112 73 -184t190 -72t184 62t69 164q-1 57 -21 98t-82 76q-85 49 -204 89q-119 41 -175 69q-57 28 -114 73q-115 91 -115 269q0 179 128 295t357 116h1244v-211h-424v-1284h-224v1284h-594
q-129 0 -195 -52t-67 -144q0 -92 93 -148q68 -40 185 -80q117 -42 177 -70q175 -84 228 -205q34 -75 34 -173z" />
    <glyph glyph-name="T_Y" unicode="TY" horiz-adv-x="2127" 
d="M496 0v1284h-422v211h1067l348 -565l348 565h248l-486 -788v-707h-223v709l-356 575h-301v-1284h-223z" />
    <glyph glyph-name="Cacute_A" unicode="&#x106;A" horiz-adv-x="2152" 
d="M770 1606l238 340h233l-303 -340h-168zM1817 520v631l-422 -631h422zM846 -20q-334 0 -556 223t-222 545t223 544t555 224q186 0 350 -88t262 -232l-139 -203q-162 305 -488 305q-225 0 -384 -162t-159 -388q0 -227 159 -389q159 -161 384 -160q55 0 97 8l864 1288h246
v-1495h-221v315h-560l-200 -303q-98 -32 -211 -32z" />
    <glyph glyph-name="Ccircumflex_A" unicode="&#x108;A" horiz-adv-x="2152" 
d="M522 1606l244 340h154l243 -340h-186l-135 192l-131 -192h-189zM1817 520v631l-422 -631h422zM846 -20q-334 0 -556 223t-222 545t223 544t555 224q186 0 350 -88t262 -232l-139 -203q-162 305 -488 305q-225 0 -384 -162t-159 -388q0 -227 159 -389q159 -161 384 -160
q55 0 97 8l864 1288h246v-1495h-221v315h-560l-200 -303q-98 -32 -211 -32z" />
    <glyph glyph-name="Ccaron_A" unicode="&#x10c;A" horiz-adv-x="2152" 
d="M770 1606l-244 340h189l131 -193l135 193h186l-243 -340h-154zM1817 520v631l-422 -631h422zM846 -20q-334 0 -556 223t-222 545t223 544t555 224q186 0 350 -88t262 -232l-139 -203q-162 305 -488 305q-225 0 -384 -162t-159 -388q0 -227 159 -389q159 -161 384 -160
q55 0 97 8l864 1288h246v-1495h-221v315h-560l-200 -303q-98 -32 -211 -32z" />
    <glyph glyph-name="Ccedilla_A" unicode="&#xc7;A" horiz-adv-x="2152" 
d="M1817 520v631l-422 -631h422zM842 -485q-168 0 -295 116l141 86q88 -69 152 -69t102 20q37 20 37 51q0 66 -131 66h-94v201q-299 30 -493 246q-193 216 -193 527t223 533t555 224q186 0 350 -88t262 -232l-139 -203q-162 305 -488 305q-225 0 -384 -162t-159 -388
q0 -227 159 -389q159 -161 384 -160q55 0 97 8l864 1288h246v-1495h-221v315h-560l-200 -303q-74 -25 -150 -30v-91q109 2 175 -44q66 -47 65 -129q0 -82 -89 -142t-216 -61z" />
    <glyph glyph-name="Cdotaccent_A" unicode="&#x10a;A" horiz-adv-x="2152" 
d="M739 1614v282h219v-282h-219zM1817 520v631l-422 -631h422zM846 -20q-334 0 -556 223t-222 545t223 544t555 224q186 0 350 -88t262 -232l-139 -203q-162 305 -488 305q-225 0 -384 -162t-159 -388q0 -227 159 -389q159 -161 384 -160q55 0 97 8l864 1288h246v-1495h-221
v315h-560l-200 -303q-98 -32 -211 -32z" />
    <glyph glyph-name="C_Aacute" unicode="C&#xc1;" horiz-adv-x="2152" 
d="M1851 1606l238 340h233l-303 -340h-168zM1817 520v631l-422 -631h422zM846 -20q-334 0 -556 223t-222 545t223 544t555 224q186 0 350 -88t262 -232l-139 -203q-162 305 -488 305q-225 0 -384 -162t-159 -388q0 -227 159 -389q159 -161 384 -160q55 0 97 8l864 1288h246
v-1495h-221v315h-560l-200 -303q-98 -32 -211 -32z" />
    <glyph glyph-name="C_Agrave" unicode="C&#xc0;" horiz-adv-x="2152" 
d="M1833 1606l-303 340h233l238 -340h-168zM1817 520v631l-422 -631h422zM846 -20q-334 0 -556 223t-222 545t223 544t555 224q186 0 350 -88t262 -232l-139 -203q-162 305 -488 305q-225 0 -384 -162t-159 -388q0 -227 159 -389q159 -161 384 -160q55 0 97 8l864 1288h246
v-1495h-221v315h-560l-200 -303q-98 -32 -211 -32z" />
    <glyph glyph-name="C_Acircumflex" unicode="C&#xc2;" horiz-adv-x="2152" 
d="M1597 1606l244 340h154l243 -340h-186l-135 192l-131 -192h-189zM1817 520v631l-422 -631h422zM846 -20q-334 0 -556 223t-222 545t223 544t555 224q186 0 350 -88t262 -232l-139 -203q-162 305 -488 305q-225 0 -384 -162t-159 -388q0 -227 159 -389q159 -161 384 -160
q55 0 97 8l864 1288h246v-1495h-221v315h-560l-200 -303q-98 -32 -211 -32z" />
    <glyph glyph-name="C_Adieresis" unicode="C&#xc4;" horiz-adv-x="2152" 
d="M1642 1614v282h220v-282h-220zM1972 1614v282h219v-282h-219zM1817 520v631l-422 -631h422zM846 -20q-334 0 -556 223t-222 545t223 544t555 224q186 0 350 -88t262 -232l-139 -203q-162 305 -488 305q-225 0 -384 -162t-159 -388q0 -227 159 -389q159 -161 384 -160
q55 0 97 8l864 1288h246v-1495h-221v315h-560l-200 -303q-98 -32 -211 -32z" />
    <glyph glyph-name="C_Atilde" unicode="C&#xc3;" horiz-adv-x="2152" 
d="M1571 1606q0 118 57 190q56 72 140 72t174 -53q82 -53 116 -54q68 0 68 99h145q0 -123 -54 -193t-157 -70q-70 1 -159 53t-121 52q-63 0 -64 -96h-145zM1817 520v631l-422 -631h422zM846 -20q-334 0 -556 223t-222 545t223 544t555 224q186 0 350 -88t262 -232l-139 -203
q-162 305 -488 305q-225 0 -384 -162t-159 -388q0 -227 159 -389q159 -161 384 -160q55 0 97 8l864 1288h246v-1495h-221v315h-560l-200 -303q-98 -32 -211 -32z" />
    <glyph glyph-name="C_Aring" unicode="C&#xc5;" horiz-adv-x="2152" 
d="M1917 1503q37 0 63 26q26 27 27 63q0 36 -27 64q-28 28 -64 28t-63 -28t-27 -65t28 -63q26 -26 63 -25zM1817 520v631l-422 -631h422zM846 -20q-334 0 -556 223t-222 545t223 544t555 224q186 0 350 -88t262 -232l-139 -203q-162 305 -488 305q-225 0 -384 -162
t-159 -388q0 -227 159 -389q159 -161 384 -160q55 0 97 8l821 1227q-61 66 -61 160t66 161q67 68 163 68t164 -68t67 -164q0 -131 -110 -196v-1395h-221v315h-560l-200 -303q-98 -32 -211 -32z" />
    <glyph glyph-name="C_Amacron" unicode="C&#x100;" horiz-adv-x="2152" 
d="M1647 1606v157h540v-157h-540zM1817 520v631l-422 -631h422zM846 -20q-334 0 -556 223t-222 545t223 544t555 224q186 0 350 -88t262 -232l-139 -203q-162 305 -488 305q-225 0 -384 -162t-159 -388q0 -227 159 -389q159 -161 384 -160q55 0 97 8l864 1288h246v-1495
h-221v315h-560l-200 -303q-98 -32 -211 -32z" />
    <glyph glyph-name="C_Abreve" unicode="C&#x102;" horiz-adv-x="2152" 
d="M2251 1937q0 -145 -91 -243t-247 -97t-240 95t-84 245h156q0 -201 174 -204q84 2 129 55t45 149h158zM1817 520v631l-422 -631h422zM846 -20q-334 0 -556 223t-222 545t223 544t555 224q186 0 350 -88t262 -232l-139 -203q-162 305 -488 305q-225 0 -384 -162t-159 -388
q0 -227 159 -389q159 -161 384 -160q55 0 97 8l864 1288h246v-1495h-221v315h-560l-200 -303q-98 -32 -211 -32z" />
    <glyph glyph-name="C_Aogonek" unicode="C&#x104;" horiz-adv-x="2152" 
d="M1817 520v631l-422 -631h422zM1892 -455q-138 -1 -219 61q-80 62 -80 154q0 150 224 277v278h-560l-200 -303q-98 -33 -211 -32q-334 0 -556 223t-222 545t223 544t555 224q186 0 350 -88t262 -232l-139 -203q-162 305 -488 305q-225 0 -384 -162t-159 -388
q0 -227 159 -389q159 -161 384 -160q55 0 97 8l864 1288h246v-1495h-4l4 -2q-164 -102 -212 -144t-48 -85q0 -72 100 -72q61 0 137 63l146 -98q-131 -117 -269 -117z" />
    <glyph glyph-name="C_Aringacute" unicode="C&#x1fa;" horiz-adv-x="2152" 
d="M1915 1505q37 0 63 26q26 27 27 63q0 36 -27 64q-28 28 -64 28t-63 -28t-27 -65t28 -63q26 -26 63 -25zM1847 1876l238 340h233l-303 -340h-168zM1817 520v631l-422 -631h422zM846 -20q-334 0 -556 223t-222 545t223 544t555 224q186 0 350 -88t262 -232l-139 -203
q-162 305 -488 305q-225 0 -384 -162t-159 -388q0 -227 159 -389q159 -161 384 -160q55 0 97 8l821 1227q-63 68 -63 162t66 161q67 68 163 68t164 -68t67 -164q0 -127 -108 -194v-1399h-221v315h-560l-200 -303q-98 -32 -211 -32z" />
    <glyph glyph-name="Cacute_O" unicode="&#x106;O" horiz-adv-x="2449" 
d="M836 750q0 297 200 510q-100 39 -205 38q-227 0 -386 -162t-159 -388q0 -227 159 -389q159 -161 386 -160q113 0 209 39q-204 215 -204 512zM1618 199q225 -1 385 161t160 388t-160 389q-160 162 -385 161q-106 0 -207 -38q121 -123 170 -295h-235q-47 100 -123 176
q-164 -160 -164 -392t164 -393q72 72 114 164h242q-51 -162 -170 -282q100 -39 209 -39zM831 -20q-317 0 -541 225t-224 543t224 542q224 225 541 226q205 0 392 -109q184 109 395 109q318 0 542 -226t224 -542t-224 -542t-542 -226q-209 0 -393 110q-189 -110 -394 -110z
M764 1606l237 340h234l-303 -340h-168z" />
    <glyph glyph-name="Ccaron_O" unicode="&#x10c;O" horiz-adv-x="2449" 
d="M836 750q0 297 200 510q-100 39 -205 38q-227 0 -386 -162t-159 -388q0 -227 159 -389q159 -161 386 -160q113 0 209 39q-204 215 -204 512zM1618 199q225 -1 385 161t160 388t-160 389q-160 162 -385 161q-106 0 -207 -38q121 -123 170 -295h-235q-47 100 -123 176
q-164 -160 -164 -392t164 -393q72 72 114 164h242q-51 -162 -170 -282q100 -39 209 -39zM831 -20q-317 0 -541 225t-224 543t224 542q224 225 541 226q205 0 392 -109q184 109 395 109q318 0 542 -226t224 -542t-224 -542t-542 -226q-209 0 -393 110q-189 -110 -394 -110z
M754 1606l-244 340h188l131 -193l136 193h186l-244 -340h-153z" />
    <glyph glyph-name="Ccircumflex_O" unicode="&#x108;O" horiz-adv-x="2449" 
d="M836 750q0 297 200 510q-100 39 -205 38q-227 0 -386 -162t-159 -388q0 -227 159 -389q159 -161 386 -160q113 0 209 39q-204 215 -204 512zM1618 199q225 -1 385 161t160 388t-160 389q-160 162 -385 161q-106 0 -207 -38q121 -123 170 -295h-235q-47 100 -123 176
q-164 -160 -164 -392t164 -393q72 72 114 164h242q-51 -162 -170 -282q100 -39 209 -39zM831 -20q-317 0 -541 225t-224 543t224 542q224 225 541 226q205 0 392 -109q184 109 395 109q318 0 542 -226t224 -542t-224 -542t-542 -226q-209 0 -393 110q-189 -110 -394 -110z
M512 1606l244 340h153l244 -340h-186l-136 192l-131 -192h-188z" />
    <glyph glyph-name="Ccedilla_O" unicode="&#xc7;O" horiz-adv-x="2449" 
d="M836 750q0 297 200 510q-100 39 -205 38q-227 0 -386 -162t-159 -388q0 -227 159 -389q159 -161 386 -160q113 0 209 39q-204 215 -204 512zM1618 199q225 -1 385 161t160 388t-160 389q-160 162 -385 161q-106 0 -207 -38q121 -123 170 -295h-235q-47 100 -123 176
q-164 -160 -164 -392t164 -393q72 72 114 164h242q-51 -162 -170 -282q100 -39 209 -39zM852 -485q-168 0 -295 116l141 86q88 -69 152 -69t102 20q37 20 37 51q0 66 -131 66h-94v199q-295 26 -497 244q-201 218 -201 528t224 534q224 225 541 226q205 0 392 -109
q184 109 395 109q318 0 542 -226t224 -542t-224 -542t-542 -226q-209 0 -393 110q-145 -86 -307 -104v-95q108 2 174 -44q66 -47 66 -129t-90 -142q-89 -60 -216 -61z" />
    <glyph glyph-name="Cdotaccent_O" unicode="&#x10a;O" horiz-adv-x="2449" 
d="M719 1612v282h219v-282h-219zM836 750q0 297 200 510q-100 39 -205 38q-227 0 -386 -162t-159 -388q0 -227 159 -389q159 -161 386 -160q113 0 209 39q-204 215 -204 512zM1618 199q225 -1 385 161t160 388t-160 389q-160 162 -385 161q-106 0 -207 -38
q121 -123 170 -295h-235q-47 100 -123 176q-164 -160 -164 -392t164 -393q72 72 114 164h242q-51 -162 -170 -282q100 -39 209 -39zM831 -20q-317 0 -541 225t-224 543t224 542q224 225 541 226q205 0 392 -109q184 109 395 109q318 0 542 -226t224 -542t-224 -542
t-542 -226q-209 0 -393 110q-189 -110 -394 -110z" />
    <glyph glyph-name="C_Oacute" unicode="C&#xd3;" horiz-adv-x="2449" 
d="M836 750q0 297 200 510q-100 39 -205 38q-227 0 -386 -162t-159 -388q0 -227 159 -389q159 -161 386 -160q113 0 209 39q-204 215 -204 512zM1618 199q225 -1 385 161t160 388t-160 389q-160 162 -385 161q-106 0 -207 -38q121 -123 170 -295h-235q-47 100 -123 176
q-164 -160 -164 -392t164 -393q72 72 114 164h242q-51 -162 -170 -282q100 -39 209 -39zM831 -20q-317 0 -541 225t-224 543t224 542q224 225 541 226q205 0 392 -109q184 109 395 109q318 0 542 -226t224 -542t-224 -542t-542 -226q-209 0 -393 110q-189 -110 -394 -110z
M1544 1606l238 340h233l-303 -340h-168z" />
    <glyph glyph-name="C_Ograve" unicode="C&#xd2;" horiz-adv-x="2449" 
d="M1552 1606l-303 340h234l237 -340h-168zM836 750q0 297 200 510q-100 39 -205 38q-227 0 -386 -162t-159 -388q0 -227 159 -389q159 -161 386 -160q113 0 209 39q-204 215 -204 512zM1618 199q225 -1 385 161t160 388t-160 389q-160 162 -385 161q-106 0 -207 -38
q121 -123 170 -295h-235q-47 100 -123 176q-164 -160 -164 -392t164 -393q72 72 114 164h242q-51 -162 -170 -282q100 -39 209 -39zM831 -20q-317 0 -541 225t-224 543t224 542q224 225 541 226q205 0 392 -109q184 109 395 109q318 0 542 -226t224 -542t-224 -542
t-542 -226q-209 0 -393 110q-189 -110 -394 -110z" />
    <glyph glyph-name="C_Ocircumflex" unicode="C&#xd4;" horiz-adv-x="2449" 
d="M836 750q0 297 200 510q-100 39 -205 38q-227 0 -386 -162t-159 -388q0 -227 159 -389q159 -161 386 -160q113 0 209 39q-204 215 -204 512zM1618 199q225 -1 385 161t160 388t-160 389q-160 162 -385 161q-106 0 -207 -38q121 -123 170 -295h-235q-47 100 -123 176
q-164 -160 -164 -392t164 -393q72 72 114 164h242q-51 -162 -170 -282q100 -39 209 -39zM831 -20q-317 0 -541 225t-224 543t224 542q224 225 541 226q205 0 392 -109q184 109 395 109q318 0 542 -226t224 -542t-224 -542t-542 -226q-209 0 -393 110q-189 -110 -394 -110z
M1298 1606l244 340h154l243 -340h-186l-135 192l-131 -192h-189z" />
    <glyph glyph-name="C_Odieresis" unicode="C&#xd6;" horiz-adv-x="2449" 
d="M1673 1614v282h219v-282h-219zM1343 1614v282h220v-282h-220zM836 750q0 297 200 510q-100 39 -205 38q-227 0 -386 -162t-159 -388q0 -227 159 -389q159 -161 386 -160q113 0 209 39q-204 215 -204 512zM1618 199q225 -1 385 161t160 388t-160 389q-160 162 -385 161
q-106 0 -207 -38q121 -123 170 -295h-235q-47 100 -123 176q-164 -160 -164 -392t164 -393q72 72 114 164h242q-51 -162 -170 -282q100 -39 209 -39zM831 -20q-317 0 -541 225t-224 543t224 542q224 225 541 226q205 0 392 -109q184 109 395 109q318 0 542 -226t224 -542
t-224 -542t-542 -226q-209 0 -393 110q-189 -110 -394 -110z" />
    <glyph glyph-name="C_Otilde" unicode="C&#xd5;" horiz-adv-x="2449" 
d="M1270 1606q0 118 57 190t141 72t172 -53q82 -53 117 -54q68 0 68 99h145q0 -123 -54 -193t-157 -70q-70 1 -159 53t-121 52q-63 0 -64 -96h-145zM836 750q0 297 200 510q-100 39 -205 38q-227 0 -386 -162t-159 -388q0 -227 159 -389q159 -161 386 -160q113 0 209 39
q-204 215 -204 512zM1618 199q225 -1 385 161t160 388t-160 389q-160 162 -385 161q-106 0 -207 -38q121 -123 170 -295h-235q-47 100 -123 176q-164 -160 -164 -392t164 -393q72 72 114 164h242q-51 -162 -170 -282q100 -39 209 -39zM831 -20q-317 0 -541 225t-224 543
t224 542q224 225 541 226q205 0 392 -109q184 109 395 109q318 0 542 -226t224 -542t-224 -542t-542 -226q-209 0 -393 110q-189 -110 -394 -110z" />
    <glyph glyph-name="C_Obreve" unicode="C&#x14e;" horiz-adv-x="2449" 
d="M1950 1937q0 -145 -91 -243t-247 -97t-240 95t-84 245h156q0 -201 174 -204q84 2 129 55t45 149h158zM836 750q0 297 200 510q-100 39 -205 38q-227 0 -386 -162t-159 -388q0 -227 159 -389q159 -161 386 -160q113 0 209 39q-204 215 -204 512zM1618 199q225 -1 385 161
t160 388t-160 389q-160 162 -385 161q-106 0 -207 -38q121 -123 170 -295h-235q-47 100 -123 176q-164 -160 -164 -392t164 -393q72 72 114 164h242q-51 -162 -170 -282q100 -39 209 -39zM831 -20q-317 0 -541 225t-224 543t224 542q224 225 541 226q205 0 392 -109
q184 109 395 109q318 0 542 -226t224 -542t-224 -542t-542 -226q-209 0 -393 110q-189 -110 -394 -110z" />
    <glyph glyph-name="C_Omacron" unicode="C&#x14c;" horiz-adv-x="2449" 
d="M836 750q0 297 200 510q-100 39 -205 38q-227 0 -386 -162t-159 -388q0 -227 159 -389q159 -161 386 -160q113 0 209 39q-204 215 -204 512zM1618 199q225 -1 385 161t160 388t-160 389q-160 162 -385 161q-106 0 -207 -38q121 -123 170 -295h-235q-47 100 -123 176
q-164 -160 -164 -392t164 -393q72 72 114 164h242q-51 -162 -170 -282q100 -39 209 -39zM831 -20q-317 0 -541 225t-224 543t224 542q224 225 541 226q205 0 392 -109q184 109 395 109q318 0 542 -226t224 -542t-224 -542t-542 -226q-209 0 -393 110q-189 -110 -394 -110z
M1348 1606v157h540v-157h-540z" />
    <glyph glyph-name="C_Ohungarumlaut" unicode="C&#x150;" horiz-adv-x="2449" 
d="M836 750q0 297 200 510q-100 39 -205 38q-227 0 -386 -162t-159 -388q0 -227 159 -389q159 -161 386 -160q113 0 209 39q-204 215 -204 512zM1618 199q225 -1 385 161t160 388t-160 389q-160 162 -385 161q-106 0 -207 -38q121 -123 170 -295h-235q-47 100 -123 176
q-164 -160 -164 -392t164 -393q72 72 114 164h242q-51 -162 -170 -282q100 -39 209 -39zM831 -20q-317 0 -541 225t-224 543t224 542q224 225 541 226q205 0 392 -109q184 109 395 109q318 0 542 -226t224 -542t-224 -542t-542 -226q-209 0 -393 110q-189 -110 -394 -110z
M1716 1606l238 340h221l-303 -340h-156zM1401 1606l235 340h222l-304 -340h-153z" />
    <glyph glyph-name="Eacute_A" unicode="&#xc9;A" horiz-adv-x="2004" 
d="M457 1606l237 340h234l-303 -340h-168zM1667 520v633l-420 -633h420zM115 0v1495h811v-211h-588v-428h588v-211h-588v-432h448l859 1282h245v-1495h-223v315h-557l-209 -315h-786z" />
    <glyph glyph-name="Egrave_A" unicode="&#xc8;A" horiz-adv-x="1978" 
d="M479 1606l-303 340h234l237 -340h-168zM1642 520v633l-419 -633h419zM90 0v1495h811v-211h-588v-428h588v-211h-588v-432h449l858 1282h246v-1495h-224v315h-557l-208 -315h-787z" />
    <glyph glyph-name="Ecircumflex_A" unicode="&#xca;A" horiz-adv-x="1978" 
d="M188 1606l244 340h154l243 -340h-186l-135 192l-131 -192h-189zM1642 520v633l-419 -633h419zM90 0v1495h811v-211h-588v-428h588v-211h-588v-432h449l858 1282h246v-1495h-224v315h-557l-208 -315h-787z" />
    <glyph glyph-name="Edieresis_A" unicode="&#xcb;A" horiz-adv-x="1978" 
d="M1642 520v633l-419 -633h419zM90 0v1495h811v-211h-588v-428h588v-211h-588v-432h449l858 1282h246v-1495h-224v315h-557l-208 -315h-787zM246 1614v282h219v-282h-219zM575 1614v282h220v-282h-220z" />
    <glyph glyph-name="Ecaron_A" unicode="&#x11a;A" horiz-adv-x="1978" 
d="M430 1606l-244 340h189l131 -193l135 193h186l-243 -340h-154zM1642 520v633l-419 -633h419zM90 0v1495h811v-211h-588v-428h588v-211h-588v-432h449l858 1282h246v-1495h-224v315h-557l-208 -315h-787z" />
    <glyph glyph-name="Emacron_A" unicode="&#x112;A" horiz-adv-x="1978" 
d="M242 1606v157h540v-157h-540zM1642 520v633l-419 -633h419zM90 0v1495h811v-211h-588v-428h588v-211h-588v-432h449l858 1282h246v-1495h-224v315h-557l-208 -315h-787z" />
    <glyph glyph-name="Ebreve_A" unicode="&#x114;A" horiz-adv-x="1978" 
d="M850 1937q0 -145 -91 -243t-247 -97t-240 95t-84 245h156q0 -201 174 -204q84 2 129 55t45 149h158zM1642 520v633l-419 -633h419zM90 0v1495h811v-211h-588v-428h588v-211h-588v-432h449l858 1282h246v-1495h-224v315h-557l-208 -315h-787z" />
    <glyph glyph-name="Eogonek_A" unicode="&#x118;A" horiz-adv-x="1978" 
d="M1642 520v633l-419 -633h419zM90 0v1495h811v-211h-588v-428h588v-211h-588v-432h449l858 1282h246v-1495h-224v315h-557l-208 -315h-7l4 -2q-164 -102 -212 -144t-48 -85q0 -72 101 -72q61 0 137 63l145 -98q-131 -117 -269 -117q-138 -1 -218 61t-80 154q0 131 162 240
h-502z" />
    <glyph glyph-name="Edotaccent_A" unicode="&#x116;A" horiz-adv-x="1978" 
d="M420 1614v282h219v-282h-219zM1642 520v633l-419 -633h419zM90 0v1495h811v-211h-588v-428h588v-211h-588v-432h449l858 1282h246v-1495h-224v315h-557l-208 -315h-787z" />
    <glyph glyph-name="E_Aacute" unicode="E&#xc1;" horiz-adv-x="1978" 
d="M1673 1606l238 340h233l-303 -340h-168zM1642 520v633l-419 -633h419zM90 0v1495h811v-211h-588v-428h588v-211h-588v-432h449l858 1282h246v-1495h-224v315h-557l-208 -315h-787z" />
    <glyph glyph-name="E_Agrave" unicode="E&#xc0;" horiz-adv-x="1978" 
d="M1679 1606l-303 340h234l237 -340h-168zM1642 520v633l-419 -633h419zM90 0v1495h811v-211h-588v-428h588v-211h-588v-432h449l858 1282h246v-1495h-224v315h-557l-208 -315h-787z" />
    <glyph glyph-name="E_Acircumflex" unicode="E&#xc2;" horiz-adv-x="1978" 
d="M1642 520v633l-419 -633h419zM90 0v1495h811v-211h-588v-428h588v-211h-588v-432h449l858 1282h246v-1495h-224v315h-557l-208 -315h-787zM1423 1606l244 340h154l243 -340h-186l-135 192l-131 -192h-189z" />
    <glyph glyph-name="E_Adieresis" unicode="E&#xc4;" horiz-adv-x="1978" 
d="M1798 1614v282h219v-282h-219zM1468 1614v282h220v-282h-220zM1642 520v633l-419 -633h419zM90 0v1495h811v-211h-588v-428h588v-211h-588v-432h449l858 1282h246v-1495h-224v315h-557l-208 -315h-787z" />
    <glyph glyph-name="E_Atilde" unicode="E&#xc3;" horiz-adv-x="1978" 
d="M1395 1606q0 118 57 190q56 72 140 72t173 -53q82 -53 117 -54q68 0 68 99h145q0 -123 -54 -193t-157 -70q-70 1 -159 53t-121 52q-63 0 -64 -96h-145zM1642 520v633l-419 -633h419zM90 0v1495h811v-211h-588v-428h588v-211h-588v-432h449l858 1282h246v-1495h-224v315
h-557l-208 -315h-787z" />
    <glyph glyph-name="E_Aring" unicode="E&#xc5;" horiz-adv-x="1978" 
d="M1741 1503q37 0 63 26q26 27 27 63q0 36 -27 64q-28 28 -64 28t-63 -28t-27 -65t28 -63q26 -26 63 -25zM1642 520v633l-419 -633h419zM90 0v1495h811v-211h-588v-428h588v-211h-588v-432h449l815 1217q-66 66 -66 162t67 163q67 68 163 68t164 -68t67 -164
q0 -125 -106 -194v-1397h-224v315h-557l-208 -315h-787z" />
    <glyph glyph-name="E_Amacron" unicode="E&#x100;" horiz-adv-x="1978" 
d="M1479 1606v157h540v-157h-540zM1642 520v633l-419 -633h419zM90 0v1495h811v-211h-588v-428h588v-211h-588v-432h449l858 1282h246v-1495h-224v315h-557l-208 -315h-787z" />
    <glyph glyph-name="E_Abreve" unicode="E&#x102;" horiz-adv-x="1978" 
d="M2079 1937q0 -145 -91 -243t-247 -97t-240 95t-84 245h156q0 -201 174 -204q84 2 129 55t45 149h158zM1642 520v633l-419 -633h419zM90 0v1495h811v-211h-588v-428h588v-211h-588v-432h449l858 1282h246v-1495h-224v315h-557l-208 -315h-787z" />
    <glyph glyph-name="E_Aogonek" unicode="E&#x104;" horiz-adv-x="1978" 
d="M1642 520v633l-419 -633h419zM1718 -455q-138 -1 -219 61q-80 62 -80 154q0 150 223 277v278h-557l-208 -315h-787v1495h811v-211h-588v-428h588v-211h-588v-432h449l858 1282h246v-1495h-6l4 -2q-164 -102 -212 -144t-48 -85q0 -72 100 -72q61 0 137 63l146 -98
q-131 -117 -269 -117z" />
    <glyph glyph-name="E_Aringacute" unicode="E&#x1fa;" horiz-adv-x="1978" 
d="M1741 1505q37 0 63 26q26 27 27 63q0 36 -27 64q-28 28 -64 28t-63 -28t-27 -65t28 -63q26 -26 63 -25zM1686 1876l237 340h234l-304 -340h-167zM1642 520v633l-419 -633h419zM90 0v1495h811v-211h-588v-428h588v-211h-588v-432h449l815 1219q-66 66 -66 162t67 163
q67 68 163 68t164 -68t67 -164q0 -125 -106 -194v-1399h-224v315h-557l-208 -315h-787z" />
    <glyph glyph-name="Eacute_C" unicode="&#xc9;C" horiz-adv-x="2396" 
d="M477 1606l238 340h233l-303 -340h-168zM1622 -20q-305 0 -521 189t-251 476h-512v-432h674v-213h-897v1495h897v-211h-674v-428h512q39 283 255 471t517 189q250 0 454 -155t271 -396h-246q-63 157 -190 245t-303 88q-227 0 -385 -162t-158 -388t158 -388t385 -161
q168 0 294 86t193 235h248q-73 -240 -273 -390t-448 -150z" />
    <glyph glyph-name="Egrave_C" unicode="&#xc8;C" horiz-adv-x="2396" 
d="M512 1606l-303 340h233l238 -340h-168zM1622 -20q-305 0 -521 189t-251 476h-512v-432h674v-213h-897v1495h897v-211h-674v-428h512q39 283 255 471t517 189q250 0 454 -155t271 -396h-246q-63 157 -190 245t-303 88q-227 0 -385 -162t-158 -388t158 -388t385 -161
q168 0 294 86t193 235h248q-73 -240 -273 -390t-448 -150z" />
    <glyph glyph-name="Ecircumflex_C" unicode="&#xca;C" horiz-adv-x="2396" 
d="M260 1606l244 340h153l244 -340h-186l-135 192l-131 -192h-189zM1622 -20q-305 0 -521 189t-251 476h-512v-432h674v-213h-897v1495h897v-211h-674v-428h512q39 283 255 471t517 189q250 0 454 -155t271 -396h-246q-63 157 -190 245t-303 88q-227 0 -385 -162t-158 -388
t158 -388t385 -161q168 0 294 86t193 235h248q-73 -240 -273 -390t-448 -150z" />
    <glyph glyph-name="Edieresis_C" unicode="&#xcb;C" horiz-adv-x="2396" 
d="M301 1614v282h219v-282h-219zM631 1614v282h219v-282h-219zM1622 -20q-305 0 -521 189t-251 476h-512v-432h674v-213h-897v1495h897v-211h-674v-428h512q39 283 255 471t517 189q250 0 454 -155t271 -396h-246q-63 157 -190 245t-303 88q-227 0 -385 -162t-158 -388
t158 -388t385 -161q168 0 294 86t193 235h248q-73 -240 -273 -390t-448 -150z" />
    <glyph glyph-name="Ecaron_C" unicode="&#x11a;C" horiz-adv-x="2396" 
d="M492 1606l-244 340h188l131 -193l135 193h187l-244 -340h-153zM1622 -20q-305 0 -521 189t-251 476h-512v-432h674v-213h-897v1495h897v-211h-674v-428h512q39 283 255 471t517 189q250 0 454 -155t271 -396h-246q-63 157 -190 245t-303 88q-227 0 -385 -162t-158 -388
t158 -388t385 -161q168 0 294 86t193 235h248q-73 -240 -273 -390t-448 -150z" />
    <glyph glyph-name="Emacron_C" unicode="&#x112;C" horiz-adv-x="2396" 
d="M315 1606v157h541v-157h-541zM1622 -20q-305 0 -521 189t-251 476h-512v-432h674v-213h-897v1495h897v-211h-674v-428h512q39 283 255 471t517 189q250 0 454 -155t271 -396h-246q-63 157 -190 245t-303 88q-227 0 -385 -162t-158 -388t158 -388t385 -161q168 0 294 86
t193 235h248q-73 -240 -273 -390t-448 -150z" />
    <glyph glyph-name="Ebreve_C" unicode="&#x114;C" horiz-adv-x="2396" 
d="M909 1935q-1 -145 -91 -243t-246 -97t-240 95t-84 245h155q0 -201 175 -204q84 2 129 55t45 149h157zM1622 -20q-305 0 -521 189t-251 476h-512v-432h674v-213h-897v1495h897v-211h-674v-428h512q39 283 255 471t517 189q250 0 454 -155t271 -396h-246q-63 157 -190 245
t-303 88q-227 0 -385 -162t-158 -388t158 -388t385 -161q168 0 294 86t193 235h248q-73 -240 -273 -390t-448 -150z" />
    <glyph glyph-name="Eogonek_C" unicode="&#x118;C" horiz-adv-x="2396" 
d="M1622 -20q-305 0 -521 189t-251 476h-512v-432h674v-213h-4l4 -2q-164 -102 -212 -144t-48 -85q0 -72 100 -72q61 0 137 63l146 -98q-131 -117 -269 -117q-138 -1 -219 61q-80 62 -80 154q0 131 162 240h-614v1495h897v-211h-674v-428h512q39 283 255 471t517 189
q250 0 454 -155t271 -396h-246q-63 157 -190 245t-303 88q-227 0 -385 -162t-158 -388t158 -388t385 -161q168 0 294 86t193 235h248q-73 -240 -273 -390t-448 -150z" />
    <glyph glyph-name="Edotaccent_C" unicode="&#x116;C" horiz-adv-x="2396" 
d="M475 1614v282h219v-282h-219zM1622 -20q-305 0 -521 189t-251 476h-512v-432h674v-213h-897v1495h897v-211h-674v-428h512q39 283 255 471t517 189q250 0 454 -155t271 -396h-246q-63 157 -190 245t-303 88q-227 0 -385 -162t-158 -388t158 -388t385 -161q168 0 294 86
t193 235h248q-73 -240 -273 -390t-448 -150z" />
    <glyph glyph-name="E_Cacute" unicode="E&#x106;" horiz-adv-x="2396" 
d="M1530 1606l237 340h234l-303 -340h-168zM1622 -20q-305 0 -521 189t-251 476h-512v-432h674v-213h-897v1495h897v-211h-674v-428h512q39 283 255 471t517 189q250 0 454 -155t271 -396h-246q-63 157 -190 245t-303 88q-227 0 -385 -162t-158 -388t158 -388t385 -161
q168 0 294 86t193 235h248q-73 -240 -273 -390t-448 -150z" />
    <glyph glyph-name="E_Ccircumflex" unicode="E&#x108;" horiz-adv-x="2396" 
d="M1622 -20q-305 0 -521 189t-251 476h-512v-432h674v-213h-897v1495h897v-211h-674v-428h512q39 283 255 471t517 189q250 0 454 -155t271 -396h-246q-63 157 -190 245t-303 88q-227 0 -385 -162t-158 -388t158 -388t385 -161q168 0 294 86t193 235h248
q-73 -240 -273 -390t-448 -150zM1300 1606l244 340h154l244 -340h-187l-135 192l-131 -192h-189z" />
    <glyph glyph-name="E_Ccaron" unicode="E&#x10c;" horiz-adv-x="2396" 
d="M1544 1606l-244 340h189l131 -193l135 193h187l-244 -340h-154zM1622 -20q-305 0 -521 189t-251 476h-512v-432h674v-213h-897v1495h897v-211h-674v-428h512q39 283 255 471t517 189q250 0 454 -155t271 -396h-246q-63 157 -190 245t-303 88q-227 0 -385 -162t-158 -388
t158 -388t385 -161q168 0 294 86t193 235h248q-73 -240 -273 -390t-448 -150z" />
    <glyph glyph-name="E_Ccedilla" unicode="E&#xc7;" horiz-adv-x="2396" 
d="M1632 -485q-168 0 -295 116l142 86q89 -69 153 -69t101 20t36 51q0 66 -131 66h-94v199q-276 25 -468 210q-191 185 -226 451h-512v-432h674v-213h-897v1495h897v-211h-674v-428h512q39 283 255 471t517 189q250 0 454 -155t271 -396h-246q-63 157 -190 245t-303 88
q-227 0 -385 -162t-158 -388t158 -388t385 -161q168 0 294 86t193 235h248q-68 -219 -245 -366t-400 -170v-93q108 2 174 -44q66 -47 66 -129t-90 -142q-89 -60 -216 -61z" />
    <glyph glyph-name="E_Cdotaccent" unicode="E&#x10a;" horiz-adv-x="2396" 
d="M1513 1614v282h220v-282h-220zM1622 -20q-305 0 -521 189t-251 476h-512v-432h674v-213h-897v1495h897v-211h-674v-428h512q39 283 255 471t517 189q250 0 454 -155t271 -396h-246q-63 157 -190 245t-303 88q-227 0 -385 -162t-158 -388t158 -388t385 -161q168 0 294 86
t193 235h248q-73 -240 -273 -390t-448 -150z" />
    <glyph glyph-name="Eacute_G" unicode="&#xc9;G" horiz-adv-x="2445" 
d="M481 1606l238 340h233l-303 -340h-168zM1608 -20q-291 0 -506 190t-252 475h-512v-432h674v-213h-897v1495h897v-211h-674v-428h512q39 283 255 471t517 189q252 0 457 -155t264 -388h-244q-61 149 -189 237t-302 88q-227 0 -385 -162t-158 -388t158 -388t376 -162
t360 120q142 118 181 305h-530v211h764v-86q0 -205 -94 -379q-94 -173 -270 -281q-177 -108 -402 -108z" />
    <glyph glyph-name="Egrave_G" unicode="&#xc8;G" horiz-adv-x="2445" 
d="M530 1606l-303 340h234l237 -340h-168zM1608 -20q-291 0 -506 190t-252 475h-512v-432h674v-213h-897v1495h897v-211h-674v-428h512q39 283 255 471t517 189q252 0 457 -155t264 -388h-244q-61 149 -189 237t-302 88q-227 0 -385 -162t-158 -388t158 -388t376 -162
t360 120q142 118 181 305h-530v211h764v-86q0 -205 -94 -379q-94 -173 -270 -281q-177 -108 -402 -108z" />
    <glyph glyph-name="Ecircumflex_G" unicode="&#xca;G" horiz-adv-x="2445" 
d="M1608 -20q-291 0 -506 190t-252 475h-512v-432h674v-213h-897v1495h897v-211h-674v-428h512q39 283 255 471t517 189q252 0 457 -155t264 -388h-244q-61 149 -189 237t-302 88q-227 0 -385 -162t-158 -388t158 -388t376 -162t360 120q142 118 181 305h-530v211h764v-86
q0 -205 -94 -379q-94 -173 -270 -281q-177 -108 -402 -108zM264 1606l244 340h154l243 -340h-186l-135 192l-131 -192h-189z" />
    <glyph glyph-name="Edieresis_G" unicode="&#xcb;G" horiz-adv-x="2445" 
d="M637 1614v282h219v-282h-219zM307 1614v282h219v-282h-219zM1608 -20q-291 0 -506 190t-252 475h-512v-432h674v-213h-897v1495h897v-211h-674v-428h512q39 283 255 471t517 189q252 0 457 -155t264 -388h-244q-61 149 -189 237t-302 88q-227 0 -385 -162t-158 -388
t158 -388t376 -162t360 120q142 118 181 305h-530v211h764v-86q0 -205 -94 -379q-94 -173 -270 -281q-177 -108 -402 -108z" />
    <glyph glyph-name="Ecaron_G" unicode="&#x11a;G" horiz-adv-x="2445" 
d="M489 1606l-243 340h188l131 -193l135 193h187l-244 -340h-154zM1608 -20q-291 0 -506 190t-252 475h-512v-432h674v-213h-897v1495h897v-211h-674v-428h512q39 283 255 471t517 189q252 0 457 -155t264 -388h-244q-61 149 -189 237t-302 88q-227 0 -385 -162t-158 -388
t158 -388t376 -162t360 120q142 118 181 305h-530v211h764v-86q0 -205 -94 -379q-94 -173 -270 -281q-177 -108 -402 -108z" />
    <glyph glyph-name="Emacron_G" unicode="&#x112;G" horiz-adv-x="2445" 
d="M1608 -20q-291 0 -506 190t-252 475h-512v-432h674v-213h-897v1495h897v-211h-674v-428h512q39 283 255 471t517 189q252 0 457 -155t264 -388h-244q-61 149 -189 237t-302 88q-227 0 -385 -162t-158 -388t158 -388t376 -162t360 120q142 118 181 305h-530v211h764v-86
q0 -205 -94 -379q-94 -173 -270 -281q-177 -108 -402 -108zM305 1606v157h541v-157h-541z" />
    <glyph glyph-name="Ebreve_G" unicode="&#x114;G" horiz-adv-x="2445" 
d="M907 1937q0 -145 -91 -243t-247 -97q-155 1 -239 95t-84 245h155q0 -201 174 -204q84 2 130 55q45 53 45 149h157zM1608 -20q-291 0 -506 190t-252 475h-512v-432h674v-213h-897v1495h897v-211h-674v-428h512q39 283 255 471t517 189q252 0 457 -155t264 -388h-244
q-61 149 -189 237t-302 88q-227 0 -385 -162t-158 -388t158 -388t376 -162t360 120q142 118 181 305h-530v211h764v-86q0 -205 -94 -379q-94 -173 -270 -281q-177 -108 -402 -108z" />
    <glyph glyph-name="Eogonek_G" unicode="&#x118;G" horiz-adv-x="2445" 
d="M1608 -20q-291 0 -506 190t-252 475h-512v-432h674v-213h-4l4 -2q-164 -102 -212 -144t-48 -85q0 -72 100 -72q61 0 137 63l146 -98q-131 -117 -269 -117q-138 -1 -219 61q-80 62 -80 154q0 131 162 240h-614v1495h897v-211h-674v-428h512q39 283 255 471t517 189
q252 0 457 -155t264 -388h-244q-61 149 -189 237t-302 88q-227 0 -385 -162t-158 -388t158 -388t376 -162t360 120q142 118 181 305h-530v211h764v-86q0 -205 -94 -379q-94 -173 -270 -281q-177 -108 -402 -108z" />
    <glyph glyph-name="Edotaccent_G" unicode="&#x116;G" horiz-adv-x="2445" 
d="M473 1614v282h219v-282h-219zM1608 -20q-291 0 -506 190t-252 475h-512v-432h674v-213h-897v1495h897v-211h-674v-428h512q39 283 255 471t517 189q252 0 457 -155t264 -388h-244q-61 149 -189 237t-302 88q-227 0 -385 -162t-158 -388t158 -388t376 -162t360 120
q142 118 181 305h-530v211h764v-86q0 -205 -94 -379q-94 -173 -270 -281q-177 -108 -402 -108z" />
    <glyph glyph-name="E_Gcircumflex" unicode="E&#x11c;" horiz-adv-x="2445" 
d="M1608 -20q-291 0 -506 190t-252 475h-512v-432h674v-213h-897v1495h897v-211h-674v-428h512q39 283 255 471t517 189q252 0 457 -155t264 -388h-244q-61 149 -189 237t-302 88q-227 0 -385 -162t-158 -388t158 -388t376 -162t360 120q142 118 181 305h-530v211h764v-86
q0 -205 -94 -379q-94 -173 -270 -281q-177 -108 -402 -108zM1296 1606l244 340h154l243 -340h-186l-135 192l-131 -192h-189z" />
    <glyph glyph-name="E_Gbreve" unicode="E&#x11e;" horiz-adv-x="2445" 
d="M1956 1937q0 -145 -91 -243t-247 -97t-240 95t-84 245h156q0 -201 174 -204q84 2 129 55t45 149h158zM1608 -20q-291 0 -506 190t-252 475h-512v-432h674v-213h-897v1495h897v-211h-674v-428h512q39 283 255 471t517 189q252 0 457 -155t264 -388h-244q-61 149 -189 237
t-302 88q-227 0 -385 -162t-158 -388t158 -388t376 -162t360 120q142 118 181 305h-530v211h764v-86q0 -205 -94 -379q-94 -173 -270 -281q-177 -108 -402 -108z" />
    <glyph glyph-name="E_Gdotaccent" unicode="E&#x120;" horiz-adv-x="2445" 
d="M1518 1614v282h219v-282h-219zM1608 -20q-291 0 -506 190t-252 475h-512v-432h674v-213h-897v1495h897v-211h-674v-428h512q39 283 255 471t517 189q252 0 457 -155t264 -388h-244q-61 149 -189 237t-302 88q-227 0 -385 -162t-158 -388t158 -388t376 -162t360 120
q142 118 181 305h-530v211h764v-86q0 -205 -94 -379q-94 -173 -270 -281q-177 -108 -402 -108z" />
    <glyph glyph-name="E_Gcommaaccent" unicode="E&#x122;" horiz-adv-x="2445" 
d="M1608 -20q-291 0 -506 190t-252 475h-512v-432h674v-213h-897v1495h897v-211h-674v-428h512q39 283 255 471t517 189q252 0 457 -155t264 -388h-244q-61 149 -189 237t-302 88q-227 0 -385 -162t-158 -388t158 -388t376 -162t360 120q142 118 181 305h-530v211h764v-86
q0 -205 -94 -379q-94 -173 -270 -281q-177 -108 -402 -108zM1610 -524h-142l78 418h197z" />
    <glyph glyph-name="Eacute_M" unicode="&#xc9;M" horiz-adv-x="3018" 
d="M446 1606l238 340h234l-304 -340h-168zM115 0v1495h811v-211h-588v-428h588v-211h-588v-432h450l854 1282h246v-1153l770 1153h246v-1495h-223v1153l-770 -1153h-244v1151l-766 -1151h-786z" />
    <glyph glyph-name="Egrave_M" unicode="&#xc8;M" horiz-adv-x="3018" 
d="M492 1606l-304 340h234l237 -340h-167zM115 0v1495h811v-211h-588v-428h588v-211h-588v-432h450l854 1282h246v-1153l770 1153h246v-1495h-223v1153l-770 -1153h-244v1151l-766 -1151h-786z" />
    <glyph glyph-name="Ecircumflex_M" unicode="&#xca;M" horiz-adv-x="3018" 
d="M221 1606l244 340h153l244 -340h-186l-135 192l-131 -192h-189zM115 0v1495h811v-211h-588v-428h588v-211h-588v-432h450l854 1282h246v-1153l770 1153h246v-1495h-223v1153l-770 -1153h-244v1151l-766 -1151h-786z" />
    <glyph glyph-name="Edieresis_M" unicode="&#xcb;M" horiz-adv-x="3018" 
d="M115 0v1495h811v-211h-588v-428h588v-211h-588v-432h450l854 1282h246v-1153l770 1153h246v-1495h-223v1153l-770 -1153h-244v1151l-766 -1151h-786zM272 1614v282h220v-282h-220zM602 1614v282h219v-282h-219z" />
    <glyph glyph-name="Ecaron_M" unicode="&#x11a;M" horiz-adv-x="3018" 
d="M465 1606l-244 340h189l131 -193l135 193h186l-244 -340h-153zM115 0v1495h811v-211h-588v-428h588v-211h-588v-432h450l854 1282h246v-1153l770 1153h246v-1495h-223v1153l-770 -1153h-244v1151l-766 -1151h-786z" />
    <glyph glyph-name="Emacron_M" unicode="&#x112;M" horiz-adv-x="3018" 
d="M115 0v1495h811v-211h-588v-428h588v-211h-588v-432h450l854 1282h246v-1153l770 1153h246v-1495h-223v1153l-770 -1153h-244v1151l-766 -1151h-786zM262 1606v157h541v-157h-541z" />
    <glyph glyph-name="Ebreve_M" unicode="&#x114;M" horiz-adv-x="3018" 
d="M868 1937q0 -145 -90 -243t-247 -97q-156 1 -240 95t-84 245h155q0 -201 175 -204q84 2 129 55t45 149h157zM115 0v1495h811v-211h-588v-428h588v-211h-588v-432h450l854 1282h246v-1153l770 1153h246v-1495h-223v1153l-770 -1153h-244v1151l-766 -1151h-786z" />
    <glyph glyph-name="Eogonek_M" unicode="&#x118;M" horiz-adv-x="3018" 
d="M115 0v1495h811v-211h-588v-428h588v-211h-588v-432h450l854 1282h246v-1153l770 1153h246v-1495h-223v1153l-770 -1153h-244v1151l-766 -1151h-4l4 -2q-164 -102 -212 -144t-48 -85q0 -72 100 -72q61 0 138 63l145 -98q-132 -117 -270 -117q-138 -1 -218 61t-79 154
q0 131 161 240h-503z" />
    <glyph glyph-name="Edotaccent_M" unicode="&#x116;M" horiz-adv-x="3018" 
d="M430 1614v282h219v-282h-219zM115 0v1495h811v-211h-588v-428h588v-211h-588v-432h450l854 1282h246v-1153l770 1153h246v-1495h-223v1153l-770 -1153h-244v1151l-766 -1151h-786z" />
    <glyph glyph-name="Eacute_O" unicode="&#xc9;O" horiz-adv-x="2439" 
d="M487 1606l238 340h233l-303 -340h-168zM1065 748q0 -229 157 -390t385 -161q228 1 386 161q157 160 157 390t-157 391q-158 161 -386 161t-385 -162t-157 -390zM1621 -20q-304 0 -519 190t-254 475h-510v-432h674v-213h-897v1495h897v-211h-674v-428h512q39 281 254 470
q215 190 518 190t527 -226q225 -226 225 -542t-224 -542t-529 -226z" />
    <glyph glyph-name="Egrave_O" unicode="&#xc8;O" horiz-adv-x="2439" 
d="M524 1606l-303 340h234l237 -340h-168zM1065 748q0 -229 157 -390t385 -161q228 1 386 161q157 160 157 390t-157 391q-158 161 -386 161t-385 -162t-157 -390zM1621 -20q-304 0 -519 190t-254 475h-510v-432h674v-213h-897v1495h897v-211h-674v-428h512q39 281 254 470
q215 190 518 190t527 -226q225 -226 225 -542t-224 -542t-529 -226z" />
    <glyph glyph-name="Ecircumflex_O" unicode="&#xca;O" horiz-adv-x="2439" 
d="M262 1606l244 340h153l244 -340h-186l-135 192l-131 -192h-189zM1065 748q0 -229 157 -390t385 -161q228 1 386 161q157 160 157 390t-157 391q-158 161 -386 161t-385 -162t-157 -390zM1621 -20q-304 0 -519 190t-254 475h-510v-432h674v-213h-897v1495h897v-211h-674
v-428h512q39 281 254 470q215 190 518 190t527 -226q225 -226 225 -542t-224 -542t-529 -226z" />
    <glyph glyph-name="Edieresis_O" unicode="&#xcb;O" horiz-adv-x="2439" 
d="M1065 748q0 -229 157 -390t385 -161q228 1 386 161q157 160 157 390t-157 391q-158 161 -386 161t-385 -162t-157 -390zM1621 -20q-304 0 -519 190t-254 475h-510v-432h674v-213h-897v1495h897v-211h-674v-428h512q39 281 254 470q215 190 518 190t527 -226
q225 -226 225 -542t-224 -542t-529 -226zM299 1614v282h219v-282h-219zM629 1614v282h219v-282h-219z" />
    <glyph glyph-name="Ecaron_O" unicode="&#x11a;O" horiz-adv-x="2439" 
d="M498 1606l-244 340h188l131 -193l136 193h186l-244 -340h-153zM1065 748q0 -229 157 -390t385 -161q228 1 386 161q157 160 157 390t-157 391q-158 161 -386 161t-385 -162t-157 -390zM1621 -20q-304 0 -519 190t-254 475h-510v-432h674v-213h-897v1495h897v-211h-674
v-428h512q39 281 254 470q215 190 518 190t527 -226q225 -226 225 -542t-224 -542t-529 -226z" />
    <glyph glyph-name="Emacron_O" unicode="&#x112;O" horiz-adv-x="2439" 
d="M311 1606v157h541v-157h-541zM1065 748q0 -229 157 -390t385 -161q228 1 386 161q157 160 157 390t-157 391q-158 161 -386 161t-385 -162t-157 -390zM1621 -20q-304 0 -519 190t-254 475h-510v-432h674v-213h-897v1495h897v-211h-674v-428h512q39 281 254 470
q215 190 518 190t527 -226q225 -226 225 -542t-224 -542t-529 -226z" />
    <glyph glyph-name="Ebreve_O" unicode="&#x114;O" horiz-adv-x="2439" 
d="M909 1937q-1 -145 -91 -243t-246 -97t-240 95t-84 245h155q0 -201 175 -204q84 2 129 55t45 149h157zM1065 748q0 -229 157 -390t385 -161q228 1 386 161q157 160 157 390t-157 391q-158 161 -386 161t-385 -162t-157 -390zM1621 -20q-304 0 -519 190t-254 475h-510v-432
h674v-213h-897v1495h897v-211h-674v-428h512q39 281 254 470q215 190 518 190t527 -226q225 -226 225 -542t-224 -542t-529 -226z" />
    <glyph glyph-name="Eogonek_O" unicode="&#x118;O" horiz-adv-x="2439" 
d="M1065 748q0 -229 157 -390t385 -161q228 1 386 161q157 160 157 390t-157 391q-158 161 -386 161t-385 -162t-157 -390zM1621 -20q-304 0 -519 190t-254 475h-510v-432h674v-213h-4l4 -2q-164 -102 -212 -144t-48 -85q0 -72 100 -72q61 0 137 63l146 -98
q-131 -117 -269 -117q-138 -1 -219 61q-80 62 -80 154q0 131 162 240h-614v1495h897v-211h-674v-428h512q39 281 254 470q215 190 518 190t527 -226q225 -226 225 -542t-224 -542t-529 -226z" />
    <glyph glyph-name="Edotaccent_O" unicode="&#x116;O" horiz-adv-x="2439" 
d="M477 1614v282h219v-282h-219zM1065 748q0 -229 157 -390t385 -161q228 1 386 161q157 160 157 390t-157 391q-158 161 -386 161t-385 -162t-157 -390zM1621 -20q-304 0 -519 190t-254 475h-510v-432h674v-213h-897v1495h897v-211h-674v-428h512q39 281 254 470
q215 190 518 190t527 -226q225 -226 225 -542t-224 -542t-529 -226z" />
    <glyph glyph-name="E_Oacute" unicode="E&#xd3;" horiz-adv-x="2439" 
d="M1065 748q0 -229 157 -390t385 -161q228 1 386 161q157 160 157 390t-157 391q-158 161 -386 161t-385 -162t-157 -390zM1621 -20q-304 0 -519 190t-254 475h-510v-432h674v-213h-897v1495h897v-211h-674v-428h512q39 281 254 470q215 190 518 190t527 -226
q225 -226 225 -542t-224 -542t-529 -226zM1530 1606l237 340h234l-303 -340h-168z" />
    <glyph glyph-name="E_Ograve" unicode="E&#xd2;" horiz-adv-x="2439" 
d="M1538 1606l-303 340h233l238 -340h-168zM1065 748q0 -229 157 -390t385 -161q228 1 386 161q157 160 157 390t-157 391q-158 161 -386 161t-385 -162t-157 -390zM1621 -20q-304 0 -519 190t-254 475h-510v-432h674v-213h-897v1495h897v-211h-674v-428h512q39 281 254 470
q215 190 518 190t527 -226q225 -226 225 -542t-224 -542t-529 -226z" />
    <glyph glyph-name="E_Ocircumflex" unicode="E&#xd4;" horiz-adv-x="2439" 
d="M1290 1606l244 340h154l243 -340h-186l-135 192l-131 -192h-189zM1065 748q0 -229 157 -390t385 -161q228 1 386 161q157 160 157 390t-157 391q-158 161 -386 161t-385 -162t-157 -390zM1621 -20q-304 0 -519 190t-254 475h-510v-432h674v-213h-897v1495h897v-211h-674
v-428h512q39 281 254 470q215 190 518 190t527 -226q225 -226 225 -542t-224 -542t-529 -226z" />
    <glyph glyph-name="E_Odieresis" unicode="E&#xd6;" horiz-adv-x="2439" 
d="M1667 1614v282h219v-282h-219zM1337 1614v282h219v-282h-219zM1065 748q0 -229 157 -390t385 -161q228 1 386 161q157 160 157 390t-157 391q-158 161 -386 161t-385 -162t-157 -390zM1621 -20q-304 0 -519 190t-254 475h-510v-432h674v-213h-897v1495h897v-211h-674
v-428h512q39 281 254 470q215 190 518 190t527 -226q225 -226 225 -542t-224 -542t-529 -226z" />
    <glyph glyph-name="E_Otilde" unicode="E&#xd5;" horiz-adv-x="2439" 
d="M1262 1606q0 118 57 190t140 72t173 -53q82 -53 117 -54q68 0 68 99h145q0 -123 -54 -193t-157 -70q-70 1 -159 53t-122 52q-63 0 -63 -96h-145zM1065 748q0 -229 157 -390t385 -161q228 1 386 161q157 160 157 390t-157 391q-158 161 -386 161t-385 -162t-157 -390z
M1621 -20q-304 0 -519 190t-254 475h-510v-432h674v-213h-897v1495h897v-211h-674v-428h512q39 281 254 470q215 190 518 190t527 -226q225 -226 225 -542t-224 -542t-529 -226z" />
    <glyph glyph-name="E_Obreve" unicode="E&#x14e;" horiz-adv-x="2439" 
d="M1939 1937q-1 -145 -91 -243t-246 -97t-240 95t-84 245h156q0 -201 174 -204q84 2 129 55t45 149h157zM1065 748q0 -229 157 -390t385 -161q228 1 386 161q157 160 157 390t-157 391q-158 161 -386 161t-385 -162t-157 -390zM1621 -20q-304 0 -519 190t-254 475h-510
v-432h674v-213h-897v1495h897v-211h-674v-428h512q39 281 254 470q215 190 518 190t527 -226q225 -226 225 -542t-224 -542t-529 -226z" />
    <glyph glyph-name="E_Omacron" unicode="E&#x14c;" horiz-adv-x="2439" 
d="M1339 1606v157h541v-157h-541zM1065 748q0 -229 157 -390t385 -161q228 1 386 161q157 160 157 390t-157 391q-158 161 -386 161t-385 -162t-157 -390zM1621 -20q-304 0 -519 190t-254 475h-510v-432h674v-213h-897v1495h897v-211h-674v-428h512q39 281 254 470
q215 190 518 190t527 -226q225 -226 225 -542t-224 -542t-529 -226z" />
    <glyph glyph-name="E_Ohungarumlaut" unicode="E&#x150;" horiz-adv-x="2439" 
d="M1702 1606l237 340h222l-303 -340h-156zM1386 1606l236 340h221l-303 -340h-154zM1065 748q0 -229 157 -390t385 -161q228 1 386 161q157 160 157 390t-157 391q-158 161 -386 161t-385 -162t-157 -390zM1621 -20q-304 0 -519 190t-254 475h-510v-432h674v-213h-897v1495
h897v-211h-674v-428h512q39 281 254 470q215 190 518 190t527 -226q225 -226 225 -542t-224 -542t-529 -226z" />
    <glyph glyph-name="Eacute_V" unicode="&#xc9;V" horiz-adv-x="2002" 
d="M453 1606l237 340h234l-303 -340h-168zM115 0v1495h786l766 -1151v1151h221v-1495h-246l-856 1284h-448v-432h588v-213h-588v-426h588v-213h-811z" />
    <glyph glyph-name="Egrave_V" unicode="&#xc8;V" horiz-adv-x="2002" 
d="M502 1606l-303 340h233l238 -340h-168zM115 0v1495h786l766 -1151v1151h221v-1495h-246l-856 1284h-448v-432h588v-213h-588v-426h588v-213h-811z" />
    <glyph glyph-name="Ecircumflex_V" unicode="&#xca;V" horiz-adv-x="2002" 
d="M199 1606l243 340h154l244 -340h-187l-135 192l-131 -192h-188zM115 0v1495h786l766 -1151v1151h221v-1495h-246l-856 1284h-448v-432h588v-213h-588v-426h588v-213h-811z" />
    <glyph glyph-name="Edieresis_V" unicode="&#xcb;V" horiz-adv-x="2002" 
d="M115 0v1495h786l766 -1151v1151h221v-1495h-246l-856 1284h-448v-432h588v-213h-588v-426h588v-213h-811zM266 1614v282h219v-282h-219zM596 1614v282h219v-282h-219z" />
    <glyph glyph-name="Ecaron_V" unicode="&#x11a;V" horiz-adv-x="2002" 
d="M461 1606l-244 340h189l131 -193l135 193h186l-244 -340h-153zM115 0v1495h786l766 -1151v1151h221v-1495h-246l-856 1284h-448v-432h588v-213h-588v-426h588v-213h-811z" />
    <glyph glyph-name="Emacron_V" unicode="&#x112;V" horiz-adv-x="2002" 
d="M115 0v1495h786l766 -1151v1151h221v-1495h-246l-856 1284h-448v-432h588v-213h-588v-426h588v-213h-811zM264 1606v157h541v-157h-541z" />
    <glyph glyph-name="Ebreve_V" unicode="&#x114;V" horiz-adv-x="2002" 
d="M862 1937q0 -145 -91 -243t-247 -97t-240 95t-83 245h155q0 -201 174 -204q84 2 129 55t46 149h157zM115 0v1495h786l766 -1151v1151h221v-1495h-246l-856 1284h-448v-432h588v-213h-588v-426h588v-213h-811z" />
    <glyph glyph-name="Eogonek_V" unicode="&#x118;V" horiz-adv-x="2002" 
d="M115 0v1495h786l766 -1151v1151h221v-1495h-246l-856 1284h-448v-432h588v-213h-588v-426h588v-213h-4l4 -2q-164 -102 -212 -144t-48 -85q0 -72 100 -72q61 0 137 63l146 -98q-131 -117 -269 -117q-138 -1 -219 61q-80 62 -80 154q0 131 162 240h-528z" />
    <glyph glyph-name="Edotaccent_V" unicode="&#x116;V" horiz-adv-x="2002" 
d="M434 1614v282h219v-282h-219zM115 0v1495h786l766 -1151v1151h221v-1495h-246l-856 1284h-448v-432h588v-213h-588v-426h588v-213h-811z" />
    <glyph glyph-name="Eacute_W" unicode="&#xc9;W" horiz-adv-x="3024" 
d="M444 1606l238 340h233l-303 -340h-168zM115 0v1495h794l764 -1149v1149h244l770 -1153v1153h223v-1495h-246l-770 1155v-1155h-245l-856 1284h-455v-432h588v-213h-588v-426h588v-213h-811z" />
    <glyph glyph-name="Egrave_W" unicode="&#xc8;W" horiz-adv-x="3024" 
d="M473 1606l-303 340h233l238 -340h-168zM115 0v1495h794l764 -1149v1149h244l770 -1153v1153h223v-1495h-246l-770 1155v-1155h-245l-856 1284h-455v-432h588v-213h-588v-426h588v-213h-811z" />
    <glyph glyph-name="Ecircumflex_W" unicode="&#xca;W" horiz-adv-x="3024" 
d="M115 0v1495h794l764 -1149v1149h244l770 -1153v1153h223v-1495h-246l-770 1155v-1155h-245l-856 1284h-455v-432h588v-213h-588v-426h588v-213h-811zM205 1606l244 340h153l244 -340h-187l-135 192l-131 -192h-188z" />
    <glyph glyph-name="Edieresis_W" unicode="&#xcb;W" horiz-adv-x="3024" 
d="M115 0v1495h794l764 -1149v1149h244l770 -1153v1153h223v-1495h-246l-770 1155v-1155h-245l-856 1284h-455v-432h588v-213h-588v-426h588v-213h-811zM276 1614v282h220v-282h-220zM606 1614v282h219v-282h-219z" />
    <glyph glyph-name="Ecaron_W" unicode="&#x11a;W" horiz-adv-x="3024" 
d="M455 1606l-244 340h188l131 -193l136 193h186l-244 -340h-153zM115 0v1495h794l764 -1149v1149h244l770 -1153v1153h223v-1495h-246l-770 1155v-1155h-245l-856 1284h-455v-432h588v-213h-588v-426h588v-213h-811z" />
    <glyph glyph-name="Emacron_W" unicode="&#x112;W" horiz-adv-x="3024" 
d="M276 1606v157h541v-157h-541zM115 0v1495h794l764 -1149v1149h244l770 -1153v1153h223v-1495h-246l-770 1155v-1155h-245l-856 1284h-455v-432h588v-213h-588v-426h588v-213h-811z" />
    <glyph glyph-name="Ebreve_W" unicode="&#x114;W" horiz-adv-x="3024" 
d="M862 1937q0 -145 -91 -243t-247 -97t-240 95t-83 245h155q0 -201 174 -204q84 2 129 55t46 149h157zM115 0v1495h794l764 -1149v1149h244l770 -1153v1153h223v-1495h-246l-770 1155v-1155h-245l-856 1284h-455v-432h588v-213h-588v-426h588v-213h-811z" />
    <glyph glyph-name="Eogonek_W" unicode="&#x118;W" horiz-adv-x="3024" 
d="M115 0v1495h794l764 -1149v1149h244l770 -1153v1153h223v-1495h-246l-770 1155v-1155h-245l-856 1284h-455v-432h588v-213h-588v-426h588v-213h-6l4 -2q-164 -102 -212 -144t-48 -85q0 -72 100 -72q61 0 137 63l146 -98q-131 -117 -269 -117q-138 -1 -219 61
q-80 62 -80 154q0 131 162 240h-526z" />
    <glyph glyph-name="Edotaccent_W" unicode="&#x116;W" horiz-adv-x="3024" 
d="M444 1614v282h220v-282h-220zM115 0v1495h794l764 -1149v1149h244l770 -1153v1153h223v-1495h-246l-770 1155v-1155h-245l-856 1284h-455v-432h588v-213h-588v-426h588v-213h-811z" />
    <glyph glyph-name="Eacute_Y" unicode="&#xc9;Y" horiz-adv-x="2050" 
d="M1298 0v709l-356 575h-604v-428h633v-211h-633v-432h633v-213h-856v1495h946l350 -567l350 567h246l-485 -786v-709h-224zM510 1606l238 340h233l-303 -340h-168z" />
    <glyph glyph-name="Egrave_Y" unicode="&#xc8;Y" horiz-adv-x="2050" 
d="M573 1606l-303 340h234l237 -340h-168zM1298 0v709l-356 575h-604v-428h633v-211h-633v-432h633v-213h-856v1495h946l350 -567l350 567h246l-485 -786v-709h-224z" />
    <glyph glyph-name="Ecircumflex_Y" unicode="&#xca;Y" horiz-adv-x="2050" 
d="M1298 0v709l-356 575h-604v-428h633v-211h-633v-432h633v-213h-856v1495h946l350 -567l350 567h246l-485 -786v-709h-224zM274 1606l244 340h154l243 -340h-186l-135 192l-131 -192h-189z" />
    <glyph glyph-name="Edieresis_Y" unicode="&#xcb;Y" horiz-adv-x="2050" 
d="M1298 0v709l-356 575h-604v-428h633v-211h-633v-432h633v-213h-856v1495h946l350 -567l350 567h246l-485 -786v-709h-224zM340 1614v282h219v-282h-219zM670 1614v282h219v-282h-219z" />
    <glyph glyph-name="Ecaron_Y" unicode="&#x11a;Y" horiz-adv-x="2050" 
d="M553 1606l-244 340h189l131 -193l135 193h186l-243 -340h-154zM1298 0v709l-356 575h-604v-428h633v-211h-633v-432h633v-213h-856v1495h946l350 -567l350 567h246l-485 -786v-709h-224z" />
    <glyph glyph-name="Emacron_Y" unicode="&#x112;Y" horiz-adv-x="2050" 
d="M342 1606v157h541v-157h-541zM1298 0v709l-356 575h-604v-428h633v-211h-633v-432h633v-213h-856v1495h946l350 -567l350 567h246l-485 -786v-709h-224z" />
    <glyph glyph-name="Ebreve_Y" unicode="&#x114;Y" horiz-adv-x="2050" 
d="M948 1937q0 -145 -91 -243t-247 -97t-240 95t-83 245h155q0 -201 174 -204q84 2 129 55t46 149h157zM1298 0v709l-356 575h-604v-428h633v-211h-633v-432h633v-213h-856v1495h946l350 -567l350 567h246l-485 -786v-709h-224z" />
    <glyph glyph-name="Eogonek_Y" unicode="&#x118;Y" horiz-adv-x="2050" 
d="M824 -455q-138 -1 -218 61t-80 154q0 131 162 240h-573v1495h946l350 -567l350 567h246l-485 -786v-709h-224v709l-356 575h-604v-428h633v-211h-633v-432h633v-213h-4l4 -2q-164 -102 -212 -144t-48 -85q0 -72 100 -72q61 0 137 63l146 -98q-132 -117 -270 -117z" />
    <glyph glyph-name="Edotaccent_Y" unicode="&#x116;Y" horiz-adv-x="2050" 
d="M512 1614v282h219v-282h-219zM1298 0v709l-356 575h-604v-428h633v-211h-633v-432h633v-213h-856v1495h946l350 -567l350 567h246l-485 -786v-709h-224z" />
    <glyph glyph-name="E_Yacute" unicode="E&#xdd;" horiz-adv-x="2050" 
d="M1298 0v709l-356 575h-604v-428h633v-211h-633v-432h633v-213h-856v1495h946l350 -567l350 567h246l-485 -786v-709h-224zM1337 1606l238 340h233l-303 -340h-168z" />
    <glyph glyph-name="E_Ygrave" unicode="E&#x1ef2;" horiz-adv-x="2050" 
d="M1362 1606l-303 340h233l238 -340h-168zM1298 0v709l-356 575h-604v-428h633v-211h-633v-432h633v-213h-856v1495h946l350 -567l350 567h246l-485 -786v-709h-224z" />
    <glyph glyph-name="E_Ycircumflex" unicode="E&#x176;" horiz-adv-x="2050" 
d="M1298 0v709l-356 575h-604v-428h633v-211h-633v-432h633v-213h-856v1495h946l350 -567l350 567h246l-485 -786v-709h-224zM1092 1606l243 340h154l244 -340h-187l-135 192l-131 -192h-188z" />
    <glyph glyph-name="E_Ydieresis" unicode="E&#x178;" horiz-adv-x="2050" 
d="M1298 0v709l-356 575h-604v-428h633v-211h-633v-432h633v-213h-856v1495h946l350 -567l350 567h246l-485 -786v-709h-224zM1137 1614v282h219v-282h-219zM1466 1614v282h220v-282h-220z" />
    <glyph glyph-name="Eacute_X" unicode="&#xc9;X" horiz-adv-x="2103" 
d="M545 1606l237 340h234l-303 -340h-168zM981 645h-643v-432h627l348 549l-328 522h-647v-428h643v-211zM115 0v1495h989l342 -543l342 543h252l-461 -733l479 -762h-252l-360 569l-359 -569h-972z" />
    <glyph glyph-name="Egrave_X" unicode="&#xc8;X" horiz-adv-x="2103" 
d="M584 1606l-303 340h233l238 -340h-168zM981 645h-643v-432h627l348 549l-328 522h-647v-428h643v-211zM115 0v1495h989l342 -543l342 543h252l-461 -733l479 -762h-252l-360 569l-359 -569h-972z" />
    <glyph glyph-name="Ecircumflex_X" unicode="&#xca;X" horiz-adv-x="2103" 
d="M981 645h-643v-432h627l348 549l-328 522h-647v-428h643v-211zM115 0v1495h989l342 -543l342 543h252l-461 -733l479 -762h-252l-360 569l-359 -569h-972zM289 1606l243 340h154l244 -340h-187l-135 192l-131 -192h-188z" />
    <glyph glyph-name="Edieresis_X" unicode="&#xcb;X" horiz-adv-x="2103" 
d="M981 645h-643v-432h627l348 549l-328 522h-647v-428h643v-211zM115 0v1495h989l342 -543l342 543h252l-461 -733l479 -762h-252l-360 569l-359 -569h-972zM362 1614v282h220v-282h-220zM692 1614v282h219v-282h-219z" />
    <glyph glyph-name="Ecaron_X" unicode="&#x11a;X" horiz-adv-x="2103" 
d="M981 645h-643v-432h627l348 549l-328 522h-647v-428h643v-211zM115 0v1495h989l342 -543l342 543h252l-461 -733l479 -762h-252l-360 569l-359 -569h-972zM571 1606l-243 340h188l131 -193l135 193h187l-244 -340h-154z" />
    <glyph glyph-name="Emacron_X" unicode="&#x112;X" horiz-adv-x="2103" 
d="M356 1606v157h541v-157h-541zM981 645h-643v-432h627l348 549l-328 522h-647v-428h643v-211zM115 0v1495h989l342 -543l342 543h252l-461 -733l479 -762h-252l-360 569l-359 -569h-972z" />
    <glyph glyph-name="Ebreve_X" unicode="&#x114;X" horiz-adv-x="2103" 
d="M965 1937q0 -145 -91 -243t-247 -97t-240 95t-84 245h156q0 -201 174 -204q84 2 129 55t45 149h158zM981 645h-643v-432h627l348 549l-328 522h-647v-428h643v-211zM115 0v1495h989l342 -543l342 543h252l-461 -733l479 -762h-252l-360 569l-359 -569h-972z" />
    <glyph glyph-name="Eogonek_X" unicode="&#x118;X" horiz-adv-x="2103" 
d="M981 645h-643v-432h627l348 549l-328 522h-647v-428h643v-211zM115 0v1495h989l342 -543l342 543h252l-461 -733l479 -762h-252l-360 569l-359 -569h-4l4 -2q-163 -102 -211 -144t-49 -85q0 -72 101 -72q61 0 137 63l145 -98q-131 -117 -269 -117q-138 -1 -218 61
t-80 154q0 131 162 240h-690z" />
    <glyph glyph-name="Edotaccent_X" unicode="&#x116;X" horiz-adv-x="2103" 
d="M524 1614v282h219v-282h-219zM981 645h-643v-432h627l348 549l-328 522h-647v-428h643v-211zM115 0v1495h989l342 -543l342 543h252l-461 -733l479 -762h-252l-360 569l-359 -569h-972z" />
    <glyph glyph-name="F_Oacute" unicode="F&#xd3;" horiz-adv-x="2437" 
d="M1538 1606l238 340h233l-303 -340h-168zM1063 748q0 -229 157 -390t385 -161q228 1 386 161q157 160 157 390t-157 391q-158 161 -386 161t-385 -162t-157 -390zM1619 -20q-304 0 -519 190t-254 475h-508v-645h-223v1495h897v-211h-674v-428h510q39 281 254 470
q215 190 518 190t527 -226q225 -226 225 -542t-224 -542t-529 -226z" />
    <glyph glyph-name="F_Ograve" unicode="F&#xd2;" horiz-adv-x="2437" 
d="M1556 1606l-303 340h234l237 -340h-168zM1063 748q0 -229 157 -390t385 -161q228 1 386 161q157 160 157 390t-157 391q-158 161 -386 161t-385 -162t-157 -390zM1619 -20q-304 0 -519 190t-254 475h-508v-645h-223v1495h897v-211h-674v-428h510q39 281 254 470
q215 190 518 190t527 -226q225 -226 225 -542t-224 -542t-529 -226z" />
    <glyph glyph-name="F_Ocircumflex" unicode="F&#xd4;" horiz-adv-x="2437" 
d="M1063 748q0 -229 157 -390t385 -161q228 1 386 161q157 160 157 390t-157 391q-158 161 -386 161t-385 -162t-157 -390zM1619 -20q-304 0 -519 190t-254 475h-508v-645h-223v1495h897v-211h-674v-428h510q39 281 254 470q215 190 518 190t527 -226q225 -226 225 -542
t-224 -542t-529 -226zM1288 1606l244 340h154l243 -340h-186l-135 192l-131 -192h-189z" />
    <glyph glyph-name="F_Odieresis" unicode="F&#xd6;" horiz-adv-x="2437" 
d="M1063 748q0 -229 157 -390t385 -161q228 1 386 161q157 160 157 390t-157 391q-158 161 -386 161t-385 -162t-157 -390zM1619 -20q-304 0 -519 190t-254 475h-508v-645h-223v1495h897v-211h-674v-428h510q39 281 254 470q215 190 518 190t527 -226q225 -226 225 -542
t-224 -542t-529 -226zM1331 1614v282h219v-282h-219zM1661 1614v282h219v-282h-219z" />
    <glyph glyph-name="F_Otilde" unicode="F&#xd5;" horiz-adv-x="2437" 
d="M1255 1606q-1 118 57 190t141 72t173 -53q82 -53 117 -54q68 0 67 99h146q0 -123 -54 -193t-157 -70q-70 1 -159 53t-122 52q-63 0 -63 -96h-146zM1063 748q0 -229 157 -390t385 -161q228 1 386 161q157 160 157 390t-157 391q-158 161 -386 161t-385 -162t-157 -390z
M1619 -20q-304 0 -519 190t-254 475h-508v-645h-223v1495h897v-211h-674v-428h510q39 281 254 470q215 190 518 190t527 -226q225 -226 225 -542t-224 -542t-529 -226z" />
    <glyph glyph-name="F_Obreve" unicode="F&#x14e;" horiz-adv-x="2437" 
d="M1939 1937q-1 -145 -91 -243t-246 -97t-240 95t-84 245h156q0 -201 174 -204q84 2 129 55t45 149h157zM1063 748q0 -229 157 -390t385 -161q228 1 386 161q157 160 157 390t-157 391q-158 161 -386 161t-385 -162t-157 -390zM1619 -20q-304 0 -519 190t-254 475h-508
v-645h-223v1495h897v-211h-674v-428h510q39 281 254 470q215 190 518 190t527 -226q225 -226 225 -542t-224 -542t-529 -226z" />
    <glyph glyph-name="F_Omacron" unicode="F&#x14c;" horiz-adv-x="2437" 
d="M1333 1606v157h541v-157h-541zM1063 748q0 -229 157 -390t385 -161q228 1 386 161q157 160 157 390t-157 391q-158 161 -386 161t-385 -162t-157 -390zM1619 -20q-304 0 -519 190t-254 475h-508v-645h-223v1495h897v-211h-674v-428h510q39 281 254 470q215 190 518 190
t527 -226q225 -226 225 -542t-224 -542t-529 -226z" />
    <glyph glyph-name="F_Ohungarumlaut" unicode="F&#x150;" horiz-adv-x="2437" 
d="M1378 1606l236 340h221l-303 -340h-154zM1694 1606l237 340h221l-303 -340h-155zM1063 748q0 -229 157 -390t385 -161q228 1 386 161q157 160 157 390t-157 391q-158 161 -386 161t-385 -162t-157 -390zM1619 -20q-304 0 -519 190t-254 475h-508v-645h-223v1495h897v-211
h-674v-428h510q39 281 254 470q215 190 518 190t527 -226q225 -226 225 -542t-224 -542t-529 -226z" />
    <glyph glyph-name="Hcircumflex_S" unicode="&#x124;S" horiz-adv-x="2353" 
d="M1729 -20q-336 0 -519 166q-182 167 -196 497h-676v-643h-223v1495h223v-641h676v641h221v-793q0 -240 124 -376t370 -136q153 0 239 74t86 187t-133 179q-53 28 -80 39t-97 40t-111 49q-127 61 -196 147t-69 221q0 174 123 282t331 108t328 -117q119 -117 117 -332h-215
v14q0 106 -61 172t-168 66t-167 -51t-60 -140t83 -143q84 -53 199 -92q307 -130 378 -277q34 -70 34 -159q0 -197 -148 -337t-413 -140zM373 1606l243 340h154l244 -340h-187l-135 192l-131 -192h-188z" />
    <glyph glyph-name="H_Sacute" unicode="H&#x15a;" horiz-adv-x="2353" 
d="M1729 -20q-336 0 -519 166q-182 167 -196 497h-676v-643h-223v1495h223v-641h676v641h221v-793q0 -240 124 -376t370 -136q153 0 239 74t86 187t-133 179q-53 28 -80 39t-97 40t-111 49q-127 61 -196 147t-69 221q0 174 123 282t331 108t328 -117q119 -117 117 -332h-215
v14q0 106 -61 172t-168 66t-167 -51t-60 -140t83 -143q84 -53 199 -92q307 -130 378 -277q34 -70 34 -159q0 -197 -148 -337t-413 -140zM1741 1606l237 340h234l-303 -340h-168z" />
    <glyph glyph-name="H_Scircumflex" unicode="H&#x15c;" horiz-adv-x="2353" 
d="M1495 1606l244 340h153l244 -340h-186l-135 192l-132 -192h-188zM1729 -20q-336 0 -519 166q-182 167 -196 497h-676v-643h-223v1495h223v-641h676v641h221v-793q0 -240 124 -376t370 -136q153 0 239 74t86 187t-133 179q-53 28 -80 39t-97 40t-111 49q-127 61 -196 147
t-69 221q0 174 123 282t331 108t328 -117q119 -117 117 -332h-215v14q0 106 -61 172t-168 66t-167 -51t-60 -140t83 -143q84 -53 199 -92q307 -130 378 -277q34 -70 34 -159q0 -197 -148 -337t-413 -140z" />
    <glyph glyph-name="H_Scaron" unicode="H&#x160;" horiz-adv-x="2353" 
d="M1741 1606l-244 340h189l131 -193l135 193h186l-244 -340h-153zM1729 -20q-336 0 -519 166q-182 167 -196 497h-676v-643h-223v1495h223v-641h676v641h221v-793q0 -240 124 -376t370 -136q153 0 239 74t86 187t-133 179q-53 28 -80 39t-97 40t-111 49q-127 61 -196 147
t-69 221q0 174 123 282t331 108t328 -117q119 -117 117 -332h-215v14q0 106 -61 172t-168 66t-167 -51t-60 -140t83 -143q84 -53 199 -92q307 -130 378 -277q34 -70 34 -159q0 -197 -148 -337t-413 -140z" />
    <glyph glyph-name="H_Scedilla" unicode="H&#x15e;" horiz-adv-x="2353" 
d="M338 643v-643h-223v1495h223v-641h676v641h221v-793q0 -240 124 -376t370 -136q153 0 239 74t86 187t-133 179q-53 28 -80 39t-97 40t-111 49q-127 61 -196 147t-69 221q0 174 123 282t331 108t328 -117q119 -117 117 -332h-215v14q0 106 -61 172t-168 66t-167 -51
t-60 -140t83 -143q84 -53 199 -92q307 -130 378 -277q34 -70 34 -159q0 -185 -132 -321t-368 -152v-93q108 2 174 -44q66 -47 66 -129t-90 -142t-216 -61q-168 0 -294 116l141 86q89 -69 153 -69t101 20t37 51q0 66 -131 66h-95v199q-594 47 -622 659h-676z" />
    <glyph glyph-name="H_Scommaaccent" unicode="H&#x218;" horiz-adv-x="2353" 
d="M1737 -524h-142l78 418h197zM1729 -20q-336 0 -519 166q-182 167 -196 497h-676v-643h-223v1495h223v-641h676v641h221v-793q0 -240 124 -376t370 -136q153 0 239 74t86 187t-133 179q-53 28 -80 39t-97 40t-111 49q-127 61 -196 147t-69 221q0 174 123 282t331 108
t328 -117q119 -117 117 -332h-215v14q0 106 -61 172t-168 66t-167 -51t-60 -140t83 -143q84 -53 199 -92q307 -130 378 -277q34 -70 34 -159q0 -197 -148 -337t-413 -140z" />
    <glyph glyph-name="Iacute_S" unicode="&#xcd;S" horiz-adv-x="1439" 
d="M817 -20q-350 0 -532 184t-183 541v790h222v-793q0 -238 124 -374t369 -138q154 0 240 74t86 185q0 67 -60 130q-39 43 -188 104t-201 89q-159 85 -208 194q-30 69 -29 160q0 174 123 282q122 108 332 108t336 -114t124 -321h-221v17q0 106 -65 164t-172 57
q-106 0 -168 -51t-62 -142q0 -42 15 -74q30 -63 175 -121t200 -86q152 -76 215 -150q91 -106 89 -238q0 -197 -148 -337t-413 -140zM147 1606l238 340h233l-303 -340h-168z" />
    <glyph glyph-name="Igrave_S" unicode="&#xcc;S" horiz-adv-x="1439" 
d="M162 1606l-303 340h233l238 -340h-168zM817 -20q-350 0 -532 184t-183 541v790h222v-793q0 -238 124 -374t369 -138q154 0 240 74t86 185q0 67 -60 130q-39 43 -188 104t-201 89q-159 85 -208 194q-30 69 -29 160q0 174 123 282q122 108 332 108t336 -114t124 -321h-221
v17q0 106 -65 164t-172 57q-106 0 -168 -51t-62 -142q0 -42 15 -74q30 -63 175 -121t200 -86q152 -76 215 -150q91 -106 89 -238q0 -197 -148 -337t-413 -140z" />
    <glyph glyph-name="Icircumflex_S" unicode="&#xce;S" horiz-adv-x="1439" 
d="M817 -20q-350 0 -532 184t-183 541v790h222v-793q0 -238 124 -374t369 -138q154 0 240 74t86 185q0 67 -60 130q-39 43 -188 104t-201 89q-159 85 -208 194q-30 69 -29 160q0 174 123 282q122 108 332 108t336 -114t124 -321h-221v17q0 106 -65 164t-172 57
q-106 0 -168 -51t-62 -142q0 -42 15 -74q30 -63 175 -121t200 -86q152 -76 215 -150q91 -106 89 -238q0 -197 -148 -337t-413 -140zM-111 1606l244 340h154l243 -340h-186l-135 192l-131 -192h-189z" />
    <glyph glyph-name="Idieresis_S" unicode="&#xcf;S" horiz-adv-x="1439" 
d="M817 -20q-350 0 -532 184t-183 541v790h222v-793q0 -238 124 -374t369 -138q154 0 240 74t86 185q0 67 -60 130q-39 43 -188 104t-201 89q-159 85 -208 194q-30 69 -29 160q0 174 123 282q122 108 332 108t336 -114t124 -321h-221v17q0 106 -65 164t-172 57
q-106 0 -168 -51t-62 -142q0 -42 15 -74q30 -63 175 -121t200 -86q152 -76 215 -150q91 -106 89 -238q0 -197 -148 -337t-413 -140zM-68 1614v282h220v-282h-220zM262 1614v282h219v-282h-219z" />
    <glyph glyph-name="Itilde_S" unicode="&#x128;S" horiz-adv-x="1439" 
d="M-133 1606q0 118 57 190q56 72 140 72t174 -53q82 -53 116 -54q68 0 68 99h145q0 -123 -54 -193t-157 -70q-70 1 -159 53t-121 52q-63 0 -64 -96h-145zM817 -20q-350 0 -532 184t-183 541v790h222v-793q0 -238 124 -374t369 -138q154 0 240 74t86 185q0 67 -60 130
q-39 43 -188 104t-201 89q-159 85 -208 194q-30 69 -29 160q0 174 123 282q122 108 332 108t336 -114t124 -321h-221v17q0 106 -65 164t-172 57q-106 0 -168 -51t-62 -142q0 -42 15 -74q30 -63 175 -121t200 -86q152 -76 215 -150q91 -106 89 -238q0 -197 -148 -337
t-413 -140z" />
    <glyph glyph-name="Imacron_S" unicode="&#x12a;S" horiz-adv-x="1439" 
d="M-59 1606v157h540v-157h-540zM817 -20q-350 0 -532 184t-183 541v790h222v-793q0 -238 124 -374t369 -138q154 0 240 74t86 185q0 67 -60 130q-39 43 -188 104t-201 89q-159 85 -208 194q-30 69 -29 160q0 174 123 282q122 108 332 108t336 -114t124 -321h-221v17
q0 106 -65 164t-172 57q-106 0 -168 -51t-62 -142q0 -42 15 -74q30 -63 175 -121t200 -86q152 -76 215 -150q91 -106 89 -238q0 -197 -148 -337t-413 -140z" />
    <glyph glyph-name="Ibreve_S" unicode="&#x12c;S" horiz-adv-x="1439" 
d="M543 1937q0 -145 -91 -243t-247 -97t-240 95t-84 245h156q0 -201 174 -204q84 2 129 55t45 149h158zM817 -20q-350 0 -532 184t-183 541v790h222v-793q0 -238 124 -374t369 -138q154 0 240 74t86 185q0 67 -60 130q-39 43 -188 104t-201 89q-159 85 -208 194
q-30 69 -29 160q0 174 123 282q122 108 332 108t336 -114t124 -321h-221v17q0 106 -65 164t-172 57q-106 0 -168 -51t-62 -142q0 -42 15 -74q30 -63 175 -121t200 -86q152 -76 215 -150q91 -106 89 -238q0 -197 -148 -337t-413 -140z" />
    <glyph glyph-name="Idotaccent_S" unicode="&#x130;S" horiz-adv-x="1439" 
d="M102 1614v282h220v-282h-220zM817 -20q-350 0 -532 184t-183 541v790h222v-793q0 -238 124 -374t369 -138q154 0 240 74t86 185q0 67 -60 130q-39 43 -188 104t-201 89q-159 85 -208 194q-30 69 -29 160q0 174 123 282q122 108 332 108t336 -114t124 -321h-221v17
q0 106 -65 164t-172 57q-106 0 -168 -51t-62 -142q0 -42 15 -74q30 -63 175 -121t200 -86q152 -76 215 -150q91 -106 89 -238q0 -197 -148 -337t-413 -140z" />
    <glyph glyph-name="Iogonek_S" unicode="&#x12e;S" horiz-adv-x="1439" 
d="M817 -20q-184 0 -334 55q-143 -90 -187 -130t-44 -81q0 -72 100 -72q61 0 137 64l146 -99q-131 -117 -269 -117t-219 62q-79 62 -79 148t60 158t210 149q-236 182 -236 588v790h222v-793q0 -238 124 -374t369 -138q154 0 240 74t86 185q0 67 -60 130q-39 43 -188 104
t-201 89q-159 85 -208 194q-30 69 -29 160q0 174 123 282q122 108 332 108t336 -114t124 -321h-221v17q0 106 -65 164t-172 57q-106 0 -168 -51t-62 -142q0 -42 15 -74q30 -63 175 -121t200 -86q152 -76 215 -150q91 -106 89 -238q0 -197 -148 -337t-413 -140z" />
    <glyph glyph-name="I_Sacute" unicode="I&#x15a;" horiz-adv-x="1439" 
d="M831 1606l238 340h234l-304 -340h-168zM817 -20q-350 0 -532 184t-183 541v790h222v-793q0 -238 124 -374t369 -138q154 0 240 74t86 185q0 67 -60 130q-39 43 -188 104t-201 89q-159 85 -208 194q-30 69 -29 160q0 174 123 282q122 108 332 108t336 -114t124 -321h-221
v17q0 106 -65 164t-172 57q-106 0 -168 -51t-62 -142q0 -42 15 -74q30 -63 175 -121t200 -86q152 -76 215 -150q91 -106 89 -238q0 -197 -148 -337t-413 -140z" />
    <glyph glyph-name="I_Scircumflex" unicode="I&#x15c;" horiz-adv-x="1439" 
d="M817 -20q-350 0 -532 184t-183 541v790h222v-793q0 -238 124 -374t369 -138q154 0 240 74t86 185q0 67 -60 130q-39 43 -188 104t-201 89q-159 85 -208 194q-30 69 -29 160q0 174 123 282q122 108 332 108t336 -114t124 -321h-221v17q0 106 -65 164t-172 57
q-106 0 -168 -51t-62 -142q0 -42 15 -74q30 -63 175 -121t200 -86q152 -76 215 -150q91 -106 89 -238q0 -197 -148 -337t-413 -140zM584 1606l243 340h154l244 -340h-187l-135 192l-131 -192h-188z" />
    <glyph glyph-name="I_Scaron" unicode="I&#x160;" horiz-adv-x="1439" 
d="M831 1606l-243 340h188l131 -193l135 193h187l-244 -340h-154zM817 -20q-350 0 -532 184t-183 541v790h222v-793q0 -238 124 -374t369 -138q154 0 240 74t86 185q0 67 -60 130q-39 43 -188 104t-201 89q-159 85 -208 194q-30 69 -29 160q0 174 123 282q122 108 332 108
t336 -114t124 -321h-221v17q0 106 -65 164t-172 57q-106 0 -168 -51t-62 -142q0 -42 15 -74q30 -63 175 -121t200 -86q152 -76 215 -150q91 -106 89 -238q0 -197 -148 -337t-413 -140z" />
    <glyph glyph-name="I_Scedilla" unicode="I&#x15e;" horiz-adv-x="1439" 
d="M858 -485q-168 0 -295 116l142 86q88 -69 152 -69t101 20t37 51q0 66 -131 66h-94v197q-328 12 -498 195t-170 528v790h222v-793q0 -238 124 -374t369 -138q154 0 240 74t86 185q0 67 -60 130q-39 43 -188 104t-201 89q-159 85 -208 194q-30 69 -29 160q0 174 123 282
q122 108 332 108t336 -114t124 -321h-221v17q0 106 -65 164t-172 57q-106 0 -168 -51t-62 -142q0 -42 15 -74q30 -63 175 -121t200 -86q152 -76 215 -150q91 -106 89 -238q0 -174 -120 -307t-334 -162v-97q108 2 174 -44q66 -47 66 -129t-90 -142q-89 -60 -216 -61z" />
    <glyph glyph-name="I_Scommaaccent" unicode="I&#x218;" horiz-adv-x="1439" 
d="M907 -524h-141l78 418h196zM817 -20q-350 0 -532 184t-183 541v790h222v-793q0 -238 124 -374t369 -138q154 0 240 74t86 185q0 67 -60 130q-39 43 -188 104t-201 89q-159 85 -208 194q-30 69 -29 160q0 174 123 282q122 108 332 108t336 -114t124 -321h-221v17
q0 106 -65 164t-172 57q-106 0 -168 -51t-62 -142q0 -42 15 -74q30 -63 175 -121t200 -86q152 -76 215 -150q91 -106 89 -238q0 -197 -148 -337t-413 -140z" />
    <glyph glyph-name="I_Tcaron" unicode="I&#x164;" horiz-adv-x="1247" 
d="M569 1606l-243 340h188l131 -193l135 193h187l-244 -340h-154zM115 0v1159h223v-1159h-223zM530 0v1284h-415v211h1054v-211h-415v-1284h-224z" />
    <glyph glyph-name="I_Tcommaaccent" unicode="I&#x162;" horiz-adv-x="1247" 
d="M115 0v1159h223v-1159h-223zM530 0v1284h-415v211h1054v-211h-415v-1284h-224zM631 -524h-142l78 418h197z" />
    <glyph glyph-name="I_Tcaron_I" unicode="I&#x164;I" horiz-adv-x="1284" 
d="M565 1606l-243 340h188l131 -193l135 193h187l-244 -340h-154zM115 0v1159h223v-1159h-223zM946 0v1159h223v-1159h-223zM530 0v1284h-415v211h1054v-211h-415v-1284h-224z" />
    <glyph glyph-name="I_Tcommaaccent_I" unicode="I&#x162;I" horiz-adv-x="1284" 
d="M946 0v1159h223v-1159h-223zM115 0v1159h223v-1159h-223zM530 0v1284h-415v211h1054v-211h-415v-1284h-224zM639 -524h-141l77 418h197z" />
    <glyph glyph-name="Kcommaaccent_A" unicode="&#x136;A" horiz-adv-x="1847" 
d="M637 -524h-141l77 418h197zM1511 645v516l-346 -516h346zM338 0h-223v1495h223v-852l573 852h250l-420 -625l166 -249l582 874h244v-1495h-222v440h-473l291 -440h-258l-168 250l-166 -250h-241l278 420l-182 270l-254 -385v-305z" />
    <glyph glyph-name="K_Aacute" unicode="K&#xc1;" horiz-adv-x="1847" 
d="M1554 1606l238 340h233l-303 -340h-168zM1511 645v516l-346 -516h346zM338 0h-223v1495h223v-852l573 852h250l-420 -625l166 -249l582 874h244v-1495h-222v440h-473l291 -440h-258l-168 250l-166 -250h-241l278 420l-182 270l-254 -385v-305z" />
    <glyph glyph-name="K_Agrave" unicode="K&#xc0;" horiz-adv-x="1847" 
d="M1548 1606l-303 340h234l237 -340h-168zM1511 645v516l-346 -516h346zM338 0h-223v1495h223v-852l573 852h250l-420 -625l166 -249l582 874h244v-1495h-222v440h-473l291 -440h-258l-168 250l-166 -250h-241l278 420l-182 270l-254 -385v-305z" />
    <glyph glyph-name="K_Acircumflex" unicode="K&#xc2;" horiz-adv-x="1847" 
d="M1511 645v516l-346 -516h346zM1294 1606l244 340h154l243 -340h-186l-135 192l-131 -192h-189zM338 0h-223v1495h223v-852l573 852h250l-420 -625l166 -249l582 874h244v-1495h-222v440h-473l291 -440h-258l-168 250l-166 -250h-241l278 420l-182 270l-254 -385v-305z
" />
    <glyph glyph-name="K_Adieresis" unicode="K&#xc4;" horiz-adv-x="1847" 
d="M1669 1614v282h219v-282h-219zM1339 1614v282h220v-282h-220zM1511 645v516l-346 -516h346zM338 0h-223v1495h223v-852l573 852h250l-420 -625l166 -249l582 874h244v-1495h-222v440h-473l291 -440h-258l-168 250l-166 -250h-241l278 420l-182 270l-254 -385v-305z" />
    <glyph glyph-name="K_Atilde" unicode="K&#xc3;" horiz-adv-x="1847" 
d="M1511 645v516l-346 -516h346zM1270 1606q0 118 57 190t141 72t172 -53q82 -53 117 -54q68 0 68 99h145q0 -123 -54 -193t-157 -70q-70 1 -159 53t-121 52q-63 0 -64 -96h-145zM338 0h-223v1495h223v-852l573 852h250l-420 -625l166 -249l582 874h244v-1495h-222v440h-473
l291 -440h-258l-168 250l-166 -250h-241l278 420l-182 270l-254 -385v-305z" />
    <glyph glyph-name="K_Aring" unicode="K&#xc5;" horiz-adv-x="1847" 
d="M1610 1503q38 0 64 26q26 27 26 63t-27 64t-63 28t-64 -28q-26 -28 -26 -65t26 -63t64 -25zM1511 645v516l-346 -516h346zM338 0h-223v1495h223v-852l573 852h250l-420 -625l166 -249l539 809q-66 66 -66 162t67 163q67 68 163 68t164 -68t67 -164q0 -127 -108 -194
v-1397h-222v440h-473l291 -440h-258l-168 250l-166 -250h-241l278 420l-182 270l-254 -385v-305z" />
    <glyph glyph-name="K_Amacron" unicode="K&#x100;" horiz-adv-x="1847" 
d="M1343 1606v157h541v-157h-541zM1511 645v516l-346 -516h346zM338 0h-223v1495h223v-852l573 852h250l-420 -625l166 -249l582 874h244v-1495h-222v440h-473l291 -440h-258l-168 250l-166 -250h-241l278 420l-182 270l-254 -385v-305z" />
    <glyph glyph-name="K_Abreve" unicode="K&#x102;" horiz-adv-x="1847" 
d="M1511 645v516l-346 -516h346zM1944 1937q0 -145 -91 -243t-247 -97t-240 95t-84 245h156q0 -201 174 -204q84 2 129 55t45 149h158zM338 0h-223v1495h223v-852l573 852h250l-420 -625l166 -249l582 874h244v-1495h-222v440h-473l291 -440h-258l-168 250l-166 -250h-241
l278 420l-182 270l-254 -385v-305z" />
    <glyph glyph-name="K_Aogonek" unicode="K&#x104;" horiz-adv-x="1847" 
d="M1511 645v516l-346 -516h346zM338 0h-223v1495h223v-852l573 852h250l-420 -625l166 -249l582 874h244v-1495h-4l4 -2q-164 -102 -212 -144t-48 -85q0 -72 100 -72q61 0 137 63l145 -98q-131 -117 -269 -117q-138 -1 -218 61t-80 154q0 150 223 277v403h-473l291 -440
h-258l-168 250l-166 -250h-241l278 420l-182 270l-254 -385v-305z" />
    <glyph glyph-name="K_Aringacute" unicode="K&#x1fa;" horiz-adv-x="1847" 
d="M1612 1503q38 0 64 26q26 27 26 63t-27 64t-63 28t-64 -28q-26 -28 -26 -65t26 -63t64 -25zM1556 1876l238 340h234l-304 -340h-168zM1511 645v516l-346 -516h346zM338 0h-223v1495h223v-852l573 852h250l-420 -625l166 -249l539 811q-64 68 -64 162t67 161q67 68 163 68
t164 -68t67 -164q0 -131 -110 -196v-1395h-222v440h-473l291 -440h-258l-168 250l-166 -250h-241l278 420l-182 270l-254 -385v-305z" />
    <glyph glyph-name="Lacute_A" unicode="&#x139;A" horiz-adv-x="1550" 
d="M162 1606l237 340h234l-303 -340h-168zM1214 598v555l-370 -555h370zM115 0v1495h223v-1282l852 1282h246v-1495h-222v391h-507l-119 -178h436v-213h-909z" />
    <glyph glyph-name="Lcommaaccent_A" unicode="&#x13b;A" horiz-adv-x="1550" 
d="M565 -524h-141l78 418h196zM1214 598v555l-370 -555h370zM115 0v1495h223v-1282l852 1282h246v-1495h-222v391h-507l-119 -178h436v-213h-909z" />
    <glyph glyph-name="Lslash_A" unicode="&#x141;A" horiz-adv-x="1675" 
d="M1337 598v555l-370 -555h370zM238 1495h223v-514l174 51v-160l-174 -51v-608l852 1282h246v-1495h-222v391h-508l-118 -178h436v-213h-909v756l-160 -45v159l160 45v580z" />
    <glyph glyph-name="L_Aacute" unicode="L&#xc1;" horiz-adv-x="1550" 
d="M1253 1606l238 340h233l-303 -340h-168zM1214 598v555l-370 -555h370zM115 0v1495h223v-1282l852 1282h246v-1495h-222v391h-507l-119 -178h436v-213h-909z" />
    <glyph glyph-name="L_Agrave" unicode="L&#xc0;" horiz-adv-x="1550" 
d="M1251 1606l-303 340h234l237 -340h-168zM1214 598v555l-370 -555h370zM115 0v1495h223v-1282l852 1282h246v-1495h-222v391h-507l-119 -178h436v-213h-909z" />
    <glyph glyph-name="L_Adieresis" unicode="L&#xc4;" horiz-adv-x="1550" 
d="M1214 598v555l-370 -555h370zM115 0v1495h223v-1282l852 1282h246v-1495h-222v391h-507l-119 -178h436v-213h-909zM1053 1614v282h219v-282h-219zM1382 1614v282h220v-282h-220z" />
    <glyph glyph-name="L_Acircumflex" unicode="L&#xc2;" horiz-adv-x="1550" 
d="M1214 598v555l-370 -555h370zM1001 1606l244 340h154l243 -340h-186l-135 192l-131 -192h-189zM115 0v1495h223v-1282l852 1282h246v-1495h-222v391h-507l-119 -178h436v-213h-909z" />
    <glyph glyph-name="L_Atilde" unicode="L&#xc3;" horiz-adv-x="1550" 
d="M969 1606q0 118 57 190q56 72 140 72t173 -53q82 -53 117 -54q68 0 68 99h145q0 -123 -54 -193t-157 -70q-70 1 -159 53t-121 52q-63 0 -64 -96h-145zM1214 598v555l-370 -555h370zM115 0v1495h223v-1282l852 1282h246v-1495h-222v391h-507l-119 -178h436v-213h-909z" />
    <glyph glyph-name="L_Aring" unicode="L&#xc5;" horiz-adv-x="1550" 
d="M1313 1503q37 0 63 26q26 27 27 63q0 36 -27 64q-28 28 -64 28t-63 -28t-27 -65t28 -63q26 -26 63 -25zM1214 598v555l-370 -555h370zM115 0v1495h223v-1282l809 1219q-63 68 -63 162t66 161q67 68 163 68t164 -68t67 -164q0 -127 -108 -194v-1397h-222v391h-507
l-119 -178h436v-213h-909z" />
    <glyph glyph-name="L_Amacron" unicode="L&#x100;" horiz-adv-x="1550" 
d="M1044 1606v157h541v-157h-541zM1214 598v555l-370 -555h370zM115 0v1495h223v-1282l852 1282h246v-1495h-222v391h-507l-119 -178h436v-213h-909z" />
    <glyph glyph-name="L_Abreve" unicode="L&#x102;" horiz-adv-x="1550" 
d="M1651 1937q0 -145 -91 -243t-247 -97t-240 95t-84 245h156q0 -201 174 -204q84 2 129 55t45 149h158zM1214 598v555l-370 -555h370zM115 0v1495h223v-1282l852 1282h246v-1495h-222v391h-507l-119 -178h436v-213h-909z" />
    <glyph glyph-name="L_Aogonek" unicode="L&#x104;" horiz-adv-x="1550" 
d="M1214 598v555l-370 -555h370zM1288 -455q-138 -1 -219 61q-80 62 -80 146t50 150t175 135v354h-507l-119 -178h436v-213h-909v1495h223v-1282l852 1282h246v-1495h-6l4 -2q-164 -102 -212 -144t-48 -85q0 -72 100 -72q61 0 137 63l145 -98q-130 -117 -268 -117z" />
    <glyph glyph-name="L_Aringacute" unicode="L&#x1fa;" horiz-adv-x="1550" 
d="M1313 1503q37 0 63 26q26 27 27 63q0 36 -27 64q-28 28 -64 28t-63 -28t-27 -65t28 -63q26 -26 63 -25zM1266 1876l237 340h234l-303 -340h-168zM1214 598v555l-370 -555h370zM115 0v1495h223v-1282l809 1219q-63 68 -63 162t66 161q67 68 163 68t164 -68t67 -164
q0 -127 -108 -194v-1397h-222v391h-507l-119 -178h436v-213h-909z" />
    <glyph glyph-name="Lacute_S" unicode="&#x139;S" horiz-adv-x="1527" 
d="M160 1606l237 340h234l-303 -340h-168zM113 0v1495h223v-1282h643q123 0 191 60q68 61 67 149q0 88 -44 139t-98 76t-152 59q-177 62 -297 151t-120 268t128 290t339 111t337 -115t124 -320h-219v17q0 106 -66 164t-177 59q-111 0 -176 -55q-64 -55 -64 -145t86 -140
q102 -64 214 -98q17 -5 67 -26q130 -53 227 -131q124 -102 123 -286t-128 -312t-360 -128h-868z" />
    <glyph glyph-name="L_Scedilla" unicode="L&#x15e;" horiz-adv-x="1527" 
d="M113 0v1495h223v-1282h643q123 0 191 60q68 61 67 149q0 88 -44 139t-98 76t-152 59q-177 62 -297 151t-120 268t128 290t339 111t337 -115t124 -320h-219v17q0 106 -66 164t-177 59q-111 0 -176 -55q-64 -55 -64 -145t86 -140q102 -64 214 -98q17 -5 67 -26
q130 -53 227 -131q124 -102 123 -286t-128 -312t-360 -128h-10v-109q109 2 175 -44q66 -47 64 -129q0 -82 -89 -142t-216 -61q-168 0 -295 116l142 86q88 -69 152 -69t102 20q37 20 36 51q0 66 -131 66h-94v215h-704z" />
    <glyph glyph-name="L_Scircumflex" unicode="L&#x15c;" horiz-adv-x="1527" 
d="M113 0v1495h223v-1282h643q123 0 191 60q68 61 67 149q0 88 -44 139t-98 76t-152 59q-177 62 -297 151t-120 268t128 290t339 111t337 -115t124 -320h-219v17q0 106 -66 164t-177 59q-111 0 -176 -55q-64 -55 -64 -145t86 -140q102 -64 214 -98q17 -5 67 -26
q130 -53 227 -131q124 -102 123 -286t-128 -312t-360 -128h-868zM664 1606l243 340h154l244 -340h-187l-135 192l-131 -192h-188z" />
    <glyph glyph-name="L_Scommaaccent" unicode="L&#x218;" horiz-adv-x="1527" 
d="M113 0v1495h223v-1282h643q123 0 191 60q68 61 67 149q0 88 -44 139t-98 76t-152 59q-177 62 -297 151t-120 268t128 290t339 111t337 -115t124 -320h-219v17q0 106 -66 164t-177 59q-111 0 -176 -55q-64 -55 -64 -145t86 -140q102 -64 214 -98q17 -5 67 -26
q130 -53 227 -131q124 -102 123 -286t-128 -312t-360 -128h-868zM948 -524h-141l78 418h196z" />
    <glyph glyph-name="L_Sacute" unicode="L&#x15a;" horiz-adv-x="1527" 
d="M872 1606l238 340h233l-303 -340h-168zM113 0v1495h223v-1282h643q123 0 191 60q68 61 67 149q0 88 -44 139t-98 76t-152 59q-177 62 -297 151t-120 268t128 290t339 111t337 -115t124 -320h-219v17q0 106 -66 164t-177 59q-111 0 -176 -55q-64 -55 -64 -145t86 -140
q102 -64 214 -98q17 -5 67 -26q130 -53 227 -131q124 -102 123 -286t-128 -312t-360 -128h-868z" />
    <glyph glyph-name="L_Scaron" unicode="L&#x160;" horiz-adv-x="1527" 
d="M913 1606l-243 340h188l131 -193l135 193h187l-244 -340h-154zM113 0v1495h223v-1282h643q123 0 191 60q68 61 67 149q0 88 -44 139t-98 76t-152 59q-177 62 -297 151t-120 268t128 290t339 111t337 -115t124 -320h-219v17q0 106 -66 164t-177 59q-111 0 -176 -55
q-64 -55 -64 -145t86 -140q102 -64 214 -98q17 -5 67 -26q130 -53 227 -131q124 -102 123 -286t-128 -312t-360 -128h-868z" />
    <glyph glyph-name="Lcommaaccent_S" unicode="&#x13b;S" horiz-adv-x="1527" 
d="M113 0v1495h223v-1282h643q123 0 191 60q68 61 67 149q0 88 -44 139t-98 76t-152 59q-177 62 -297 151t-120 268t128 290t339 111t337 -115t124 -320h-219v17q0 106 -66 164t-177 59q-111 0 -176 -55q-64 -55 -64 -145t86 -140q102 -64 214 -98q17 -5 67 -26
q130 -53 227 -131q124 -102 123 -286t-128 -312t-360 -128h-868zM541 -524h-142l78 418h197z" />
    <glyph glyph-name="Lacute_M" unicode="&#x139;M" horiz-adv-x="2568" 
d="M158 1606l237 340h234l-303 -340h-168zM115 0v1495h223v-1282h2l852 1282h246v-1153l770 1153h246v-1495h-224v1153l-770 -1153h-243v1153l-625 -940h432v-213h-909z" />
    <glyph glyph-name="L_M" unicode="LM" horiz-adv-x="2568" 
d="M115 0v1495h223v-1282h2l852 1282h246v-1153l770 1153h246v-1495h-224v1153l-770 -1153h-243v1153l-625 -940h432v-213h-909z" />
    <glyph glyph-name="Lcommaaccent_M" unicode="&#x13b;M" horiz-adv-x="2568" 
d="M115 0v1495h223v-1282h2l852 1282h246v-1153l770 1153h246v-1495h-224v1153l-770 -1153h-243v1153l-625 -940h432v-213h-909zM528 -524h-141l78 418h197z" />
    <glyph glyph-name="Lacute_T" unicode="&#x139;T" horiz-adv-x="1652" 
d="M115 0v1495h223v-1282h422v-213h-645zM934 0v1284h-422v211h1069v-211h-424v-1284h-223zM164 1606l237 340h234l-303 -340h-168z" />
    <glyph glyph-name="Lcommaaccent_T" unicode="&#x13b;T" horiz-adv-x="1652" 
d="M432 -524h-141l78 418h196zM115 0v1495h223v-1282h422v-213h-645zM934 0v1284h-422v211h1069v-211h-424v-1284h-223z" />
    <glyph glyph-name="Lslash_T" unicode="&#x141;T" horiz-adv-x="1751" 
d="M213 1495h223v-514l172 51v-160l-172 -51v-608h422v-213h-645v756l-160 -45v159l160 45v580zM1032 0v1284h-422v211h1069v-211h-424v-1284h-223z" />
    <glyph glyph-name="L_Tcaron" unicode="L&#x164;" horiz-adv-x="1652" 
d="M918 1606l-244 340h188l131 -193l135 193h187l-244 -340h-153zM115 0v1495h223v-1282h422v-213h-645zM934 0v1284h-422v211h1069v-211h-424v-1284h-223z" />
    <glyph glyph-name="L_Tcommaaccent" unicode="L&#x162;" horiz-adv-x="1652" 
d="M115 0v1495h223v-1282h422v-213h-645zM934 0v1284h-422v211h1069v-211h-424v-1284h-223zM987 -524h-141l78 418h196z" />
    <glyph glyph-name="Lacute_T_I" unicode="&#x139;TI" horiz-adv-x="1679" 
d="M1343 0v1159h222v-1159h-222zM115 0v1495h223v-1282h416v-213h-639zM928 0v1284h-416v211h1053v-211h-416v-1284h-221zM160 1606l237 340h234l-303 -340h-168z" />
    <glyph glyph-name="Lcommaaccent_T_I" unicode="&#x13b;TI" horiz-adv-x="1679" 
d="M430 -524h-141l78 418h196zM1343 0v1159h222v-1159h-222zM115 0v1495h223v-1282h416v-213h-639zM928 0v1284h-416v211h1053v-211h-416v-1284h-221z" />
    <glyph glyph-name="Lslash_T_I" unicode="&#x141;TI" horiz-adv-x="1792" 
d="M1456 0v1169h221v-1169h-221zM213 1495h223v-514l172 51v-160l-172 -51v-608h422v-213h-645v756l-160 -45v159l160 45v580zM1032 0v1284h-422v211h1069v-211h-424v-1284h-223z" />
    <glyph glyph-name="L_Tcaron_I" unicode="L&#x164;I" horiz-adv-x="1679" 
d="M907 1606l-243 340h188l131 -193l135 193h187l-244 -340h-154zM1343 0v1159h222v-1159h-222zM115 0v1495h223v-1282h416v-213h-639zM928 0v1284h-416v211h1053v-211h-416v-1284h-221z" />
    <glyph glyph-name="L_Tcommaaccent_I" unicode="L&#x162;I" horiz-adv-x="1679" 
d="M1343 0v1159h222v-1159h-222zM115 0v1495h223v-1282h416v-213h-639zM928 0v1284h-416v211h1053v-211h-416v-1284h-221zM981 -524h-141l78 418h196z" />
    <glyph glyph-name="Lacute_Y" unicode="&#x139;Y" horiz-adv-x="1736" 
d="M158 1606l237 340h234l-303 -340h-168zM115 0v1495h223v-1282h465v-213h-688zM987 0v709l-485 786h248l348 -567l350 567h248l-488 -788v-707h-221z" />
    <glyph glyph-name="Lslash_Y" unicode="&#x141;Y" horiz-adv-x="1845" 
d="M223 1495h223v-483l172 51v-160l-172 -51v-639h465v-213h-688v786l-160 -45v160l160 45v549zM1096 0v709l-486 786h248l348 -567l350 567h248l-487 -788v-707h-221z" />
    <glyph glyph-name="Lcommaaccent_Y" unicode="&#x13b;Y" horiz-adv-x="1736" 
d="M115 0v1495h223v-1282h465v-213h-688zM987 0v709l-485 786h248l348 -567l350 567h248l-488 -788v-707h-221zM492 -524h-142l78 418h197z" />
    <glyph glyph-name="L_Yacute" unicode="L&#xdd;" horiz-adv-x="1736" 
d="M115 0v1495h223v-1282h465v-213h-688zM987 0v709l-485 786h248l348 -567l350 567h248l-488 -788v-707h-221zM1006 1606l237 340h234l-303 -340h-168z" />
    <glyph glyph-name="L_Ygrave" unicode="L&#x1ef2;" horiz-adv-x="1736" 
d="M1047 1606l-304 340h234l237 -340h-167zM115 0v1495h223v-1282h465v-213h-688zM987 0v709l-485 786h248l348 -567l350 567h248l-488 -788v-707h-221z" />
    <glyph glyph-name="L_Ydieresis" unicode="L&#x178;" horiz-adv-x="1736" 
d="M115 0v1495h223v-1282h465v-213h-688zM987 0v709l-485 786h248l348 -567l350 567h248l-488 -788v-707h-221zM815 1614v282h219v-282h-219zM1145 1614v282h219v-282h-219z" />
    <glyph glyph-name="L_Ycircumflex" unicode="L&#x176;" horiz-adv-x="1736" 
d="M115 0v1495h223v-1282h465v-213h-688zM987 0v709l-485 786h248l348 -567l350 567h248l-488 -788v-707h-221zM770 1606l244 340h153l244 -340h-186l-135 192l-132 -192h-188z" />
    <glyph glyph-name="M_Aacute" unicode="M&#xc1;" horiz-adv-x="2897" 
d="M2613 1606l238 340h233l-303 -340h-168zM2560 598v559l-373 -559h373zM1352 0h-246l-768 1153v-1153h-223v1495h245l770 -1157v1157h246l580 -874l581 874h246v-1495h-223v391h-451l261 -391h-252l-164 246l-164 -246h-246l287 430l-479 721v-1151z" />
    <glyph glyph-name="M_Agrave" unicode="M&#xc0;" horiz-adv-x="2897" 
d="M2595 1606l-303 340h233l238 -340h-168zM2560 598v559l-373 -559h373zM1352 0h-246l-768 1153v-1153h-223v1495h245l770 -1157v1157h246l580 -874l581 874h246v-1495h-223v391h-451l261 -391h-252l-164 246l-164 -246h-246l287 430l-479 721v-1151z" />
    <glyph glyph-name="M_Acircumflex" unicode="M&#xc2;" horiz-adv-x="2897" 
d="M2560 598v559l-373 -559h373zM1352 0h-246l-768 1153v-1153h-223v1495h245l770 -1157v1157h246l580 -874l581 874h246v-1495h-223v391h-451l261 -391h-252l-164 246l-164 -246h-246l287 430l-479 721v-1151zM2351 1606l244 340h153l244 -340h-186l-135 192l-131 -192
h-189z" />
    <glyph glyph-name="M_Adieresis" unicode="M&#xc4;" horiz-adv-x="2897" 
d="M2722 1614v282h219v-282h-219zM2392 1614v282h219v-282h-219zM2560 598v559l-373 -559h373zM1352 0h-246l-768 1153v-1153h-223v1495h245l770 -1157v1157h246l580 -874l581 874h246v-1495h-223v391h-451l261 -391h-252l-164 246l-164 -246h-246l287 430l-479 721v-1151z
" />
    <glyph glyph-name="M_Atilde" unicode="M&#xc3;" horiz-adv-x="2897" 
d="M2560 598v559l-373 -559h373zM2314 1606q0 118 58 190t140 72q83 0 173 -53q82 -53 117 -54q68 0 67 99h146q-1 -123 -55 -193t-156 -70q-70 1 -160 53t-121 52q-63 0 -63 -96h-146zM1352 0h-246l-768 1153v-1153h-223v1495h245l770 -1157v1157h246l580 -874l581 874h246
v-1495h-223v391h-451l261 -391h-252l-164 246l-164 -246h-246l287 430l-479 721v-1151z" />
    <glyph glyph-name="M_Aring" unicode="M&#xc5;" horiz-adv-x="2897" 
d="M2572 1591q0 -37 26 -63t64 -25q37 0 64 26q27 27 27 63t-27 64t-64 28q-38 0 -64 -28t-26 -65zM2560 598v559l-373 -559h373zM1352 0h-246l-768 1153v-1153h-223v1495h245l770 -1157v1157h246l580 -874l541 811q-63 68 -63 162t66 161q66 68 162 68t164 -68t68 -164
q0 -131 -111 -196v-1395h-223v391h-451l261 -391h-252l-164 246l-164 -246h-246l287 430l-479 721v-1151z" />
    <glyph glyph-name="M_Amacron" unicode="M&#x100;" horiz-adv-x="2897" 
d="M2396 1606v157h541v-157h-541zM2560 598v559l-373 -559h373zM1352 0h-246l-768 1153v-1153h-223v1495h245l770 -1157v1157h246l580 -874l581 874h246v-1495h-223v391h-451l261 -391h-252l-164 246l-164 -246h-246l287 430l-479 721v-1151z" />
    <glyph glyph-name="M_Abreve" unicode="M&#x102;" horiz-adv-x="2897" 
d="M2560 598v559l-373 -559h373zM2994 1937q0 -145 -91 -243t-247 -97t-240 95t-83 245h155q0 -201 174 -204q84 2 129 55t45 149h158zM1352 0h-246l-768 1153v-1153h-223v1495h245l770 -1157v1157h246l580 -874l581 874h246v-1495h-223v391h-451l261 -391h-252l-164 246
l-164 -246h-246l287 430l-479 721v-1151z" />
    <glyph glyph-name="M_Aogonek" unicode="M&#x104;" horiz-adv-x="2897" 
d="M2560 598v559l-373 -559h373zM1352 0h-246l-768 1153v-1153h-223v1495h245l770 -1157v1157h246l580 -874l581 874h246v-1495h-6l4 -2q-164 -102 -212 -144t-48 -85q0 -72 100 -72q61 0 138 63l145 -98q-132 -117 -270 -117q-138 -1 -218 61t-79 154q0 150 223 277v354
h-451l261 -391h-252l-164 246l-164 -246h-246l287 430l-479 721v-1151z" />
    <glyph glyph-name="M_Aringacute" unicode="M&#x1fa;" horiz-adv-x="2897" 
d="M2572 1593q0 -37 26 -63t64 -25q37 0 64 26q27 27 27 63t-27 64t-64 28q-38 0 -64 -28t-26 -65zM2603 1876l238 340h233l-303 -340h-168zM2560 598v559l-373 -559h373zM1352 0h-246l-768 1153v-1153h-223v1495h245l770 -1157v1157h246l580 -874l541 813q-63 68 -63 162
t66 161q66 68 162 68t164 -68t68 -164q0 -131 -111 -196v-1397h-223v391h-451l261 -391h-252l-164 246l-164 -246h-246l287 430l-479 721v-1151z" />
    <glyph glyph-name="M_Scircumflex" unicode="M&#x15c;" horiz-adv-x="2695" 
d="M1843 1606l244 340h154l243 -340h-186l-135 192l-131 -192h-189zM115 0v1495h221l508 -704l526 704h209v-793q0 -233 128 -372t366 -140q153 0 239 74t86 185q0 67 -47 119q-47 53 -268 144t-296 184t-75 230q0 174 123 282t332 108t327 -117t117 -332h-215v14
q0 106 -61 172t-167 66t-168 -51q-60 -51 -61 -142q-1 -42 15 -74q31 -63 175 -121q143 -57 200 -85q149 -74 216 -151q89 -104 89 -238q0 -197 -148 -337t-413 -140q-350 0 -533 184q-182 184 -182 541v434l-516 -697l-504 686v-1128h-223z" />
    <glyph glyph-name="M_Scaron" unicode="M&#x160;" horiz-adv-x="2695" 
d="M2083 1606l-244 340h189l131 -193l135 193h186l-244 -340h-153zM115 0v1495h221l508 -704l526 704h209v-793q0 -233 128 -372t366 -140q153 0 239 74t86 185q0 67 -47 119q-47 53 -268 144t-296 184t-75 230q0 174 123 282t332 108t327 -117t117 -332h-215v14
q0 106 -61 172t-167 66t-168 -51q-60 -51 -61 -142q-1 -42 15 -74q31 -63 175 -121q143 -57 200 -85q149 -74 216 -151q89 -104 89 -238q0 -197 -148 -337t-413 -140q-350 0 -533 184q-182 184 -182 541v434l-516 -697l-504 686v-1128h-223z" />
    <glyph glyph-name="M_Scedilla" unicode="M&#x15e;" horiz-adv-x="2695" 
d="M2099 -485q-168 0 -295 116l142 86q88 -69 152 -69t102 20q37 20 36 51q0 66 -131 66h-94v197q-319 16 -486 198t-167 525v434l-516 -697l-504 686v-1128h-223v1495h221l508 -704l526 704h209v-793q0 -233 128 -372t366 -140q153 0 239 74t86 185q0 67 -47 119
q-47 53 -268 144t-296 184t-75 230q0 174 123 282t332 108t327 -117t117 -332h-215v14q0 106 -61 172t-167 66t-168 -51q-60 -51 -61 -142q-1 -42 15 -74q31 -63 175 -121q143 -57 200 -85q149 -74 216 -151q89 -104 89 -238q0 -177 -124 -313t-345 -158v-95q109 2 175 -44
q66 -47 64 -129q0 -82 -89 -142t-216 -61z" />
    <glyph glyph-name="M_Scommaaccent" unicode="M&#x218;" horiz-adv-x="2695" 
d="M2075 -524h-142l78 418h197zM115 0v1495h221l508 -704l526 704h209v-793q0 -233 128 -372t366 -140q153 0 239 74t86 185q0 67 -47 119q-47 53 -268 144t-296 184t-75 230q0 174 123 282t332 108t327 -117t117 -332h-215v14q0 106 -61 172t-167 66t-168 -51
q-60 -51 -61 -142q-1 -42 15 -74q31 -63 175 -121q143 -57 200 -85q149 -74 216 -151q89 -104 89 -238q0 -197 -148 -337t-413 -140q-350 0 -533 184q-182 184 -182 541v434l-516 -697l-504 686v-1128h-223z" />
    <glyph glyph-name="Oacute_C" unicode="&#xd3;C" horiz-adv-x="2459" 
d="M770 1606l238 340h233l-303 -340h-168zM1389 750q0 207 -138 360q-135 -156 -135 -362t135 -363q138 158 138 365zM831 199q131 0 248 55q-188 215 -188 496t186 493q-117 55 -246 55q-227 0 -386 -162t-159 -388q0 -227 159 -389q159 -160 386 -160zM1688 -20
q-240 0 -437 126q-195 -127 -420 -126q-317 0 -541 225t-224 543t224 542q224 225 541 226q223 0 420 -125q197 125 439 125t445 -155q204 -155 273 -396h-233q-66 153 -201 243q-134 90 -282 90t-265 -55q187 -213 187 -493t-189 -496q117 -55 263 -55t280 89
q133 89 199 232h239q-74 -240 -276 -390t-442 -150z" />
    <glyph glyph-name="Ograve_C" unicode="&#xd2;C" horiz-adv-x="2459" 
d="M766 1606l-303 340h233l238 -340h-168zM1389 750q0 207 -138 360q-135 -156 -135 -362t135 -363q138 158 138 365zM831 199q131 0 248 55q-188 215 -188 496t186 493q-117 55 -246 55q-227 0 -386 -162t-159 -388q0 -227 159 -389q159 -160 386 -160zM1688 -20
q-240 0 -437 126q-195 -127 -420 -126q-317 0 -541 225t-224 543t224 542q224 225 541 226q223 0 420 -125q197 125 439 125t445 -155q204 -155 273 -396h-233q-66 153 -201 243q-134 90 -282 90t-265 -55q187 -213 187 -493t-189 -496q117 -55 263 -55t280 89
q133 89 199 232h239q-74 -240 -276 -390t-442 -150z" />
    <glyph glyph-name="Ocircumflex_C" unicode="&#xd4;C" horiz-adv-x="2459" 
d="M518 1606l244 340h153l244 -340h-186l-135 192l-131 -192h-189zM1389 750q0 207 -138 360q-135 -156 -135 -362t135 -363q138 158 138 365zM831 199q131 0 248 55q-188 215 -188 496t186 493q-117 55 -246 55q-227 0 -386 -162t-159 -388q0 -227 159 -389
q159 -160 386 -160zM1688 -20q-240 0 -437 126q-195 -127 -420 -126q-317 0 -541 225t-224 543t224 542q224 225 541 226q223 0 420 -125q197 125 439 125t445 -155q204 -155 273 -396h-233q-66 153 -201 243q-134 90 -282 90t-265 -55q187 -213 187 -493t-189 -496
q117 -55 263 -55t280 89q133 89 199 232h239q-74 -240 -276 -390t-442 -150z" />
    <glyph glyph-name="Odieresis_C" unicode="&#xd6;C" horiz-adv-x="2459" 
d="M891 1614v282h219v-282h-219zM561 1614v282h219v-282h-219zM1389 750q0 207 -138 360q-135 -156 -135 -362t135 -363q138 158 138 365zM831 199q131 0 248 55q-188 215 -188 496t186 493q-117 55 -246 55q-227 0 -386 -162t-159 -388q0 -227 159 -389q159 -160 386 -160z
M1688 -20q-240 0 -437 126q-195 -127 -420 -126q-317 0 -541 225t-224 543t224 542q224 225 541 226q223 0 420 -125q197 125 439 125t445 -155q204 -155 273 -396h-233q-66 153 -201 243q-134 90 -282 90t-265 -55q187 -213 187 -493t-189 -496q117 -55 263 -55t280 89
q133 89 199 232h239q-74 -240 -276 -390t-442 -150z" />
    <glyph glyph-name="Otilde_C" unicode="&#xd5;C" horiz-adv-x="2459" 
d="M479 1606q-1 118 57 190t141 72t173 -53q82 -53 117 -54q68 0 67 99h146q0 -123 -54 -193t-157 -70q-69 1 -159 53t-122 52q-63 0 -63 -96h-146zM1389 750q0 207 -138 360q-135 -156 -135 -362t135 -363q138 158 138 365zM831 199q131 0 248 55q-188 215 -188 496
t186 493q-117 55 -246 55q-227 0 -386 -162t-159 -388q0 -227 159 -389q159 -160 386 -160zM1688 -20q-240 0 -437 126q-195 -127 -420 -126q-317 0 -541 225t-224 543t224 542q224 225 541 226q223 0 420 -125q197 125 439 125t445 -155q204 -155 273 -396h-233
q-66 153 -201 243q-134 90 -282 90t-265 -55q187 -213 187 -493t-189 -496q117 -55 263 -55t280 89q133 89 199 232h239q-74 -240 -276 -390t-442 -150z" />
    <glyph glyph-name="Obreve_C" unicode="&#x14e;C" horiz-adv-x="2459" 
d="M1171 1937q-1 -145 -91 -243t-246 -97t-240 95t-84 245h156q0 -201 174 -204q84 2 129 55t45 149h157zM1389 750q0 207 -138 360q-135 -156 -135 -362t135 -363q138 158 138 365zM831 199q131 0 248 55q-188 215 -188 496t186 493q-117 55 -246 55q-227 0 -386 -162
t-159 -388q0 -227 159 -389q159 -160 386 -160zM1688 -20q-240 0 -437 126q-195 -127 -420 -126q-317 0 -541 225t-224 543t224 542q224 225 541 226q223 0 420 -125q197 125 439 125t445 -155q204 -155 273 -396h-233q-66 153 -201 243q-134 90 -282 90t-265 -55
q187 -213 187 -493t-189 -496q117 -55 263 -55t280 89q133 89 199 232h239q-74 -240 -276 -390t-442 -150z" />
    <glyph glyph-name="Omacron_C" unicode="&#x14c;C" horiz-adv-x="2459" 
d="M1389 750q0 207 -138 360q-135 -156 -135 -362t135 -363q138 158 138 365zM831 199q131 0 248 55q-188 215 -188 496t186 493q-117 55 -246 55q-227 0 -386 -162t-159 -388q0 -227 159 -389q159 -160 386 -160zM1688 -20q-240 0 -437 126q-195 -127 -420 -126
q-317 0 -541 225t-224 543t224 542q224 225 541 226q223 0 420 -125q197 125 439 125t445 -155q204 -155 273 -396h-233q-66 153 -201 243q-134 90 -282 90t-265 -55q187 -213 187 -493t-189 -496q117 -55 263 -55t280 89q133 89 199 232h239q-74 -240 -276 -390t-442 -150z
M559 1606v157h541v-157h-541z" />
    <glyph glyph-name="Ohungarumlaut_C" unicode="&#x150;C" horiz-adv-x="2459" 
d="M1389 750q0 207 -138 360q-135 -156 -135 -362t135 -363q138 158 138 365zM831 199q131 0 248 55q-188 215 -188 496t186 493q-117 55 -246 55q-227 0 -386 -162t-159 -388q0 -227 159 -389q159 -160 386 -160zM1688 -20q-240 0 -437 126q-195 -127 -420 -126
q-317 0 -541 225t-224 543t224 542q224 225 541 226q223 0 420 -125q197 125 439 125t445 -155q204 -155 273 -396h-233q-66 153 -201 243q-134 90 -282 90t-265 -55q187 -213 187 -493t-189 -496q117 -55 263 -55t280 89q133 89 199 232h239q-74 -240 -276 -390t-442 -150z
M918 1606l237 340h221l-303 -340h-155zM602 1606l236 340h221l-303 -340h-154z" />
    <glyph glyph-name="O_Cacute" unicode="O&#x106;" horiz-adv-x="2459" 
d="M1610 1606l237 340h234l-303 -340h-168zM1389 750q0 207 -138 360q-135 -156 -135 -362t135 -363q138 158 138 365zM831 199q131 0 248 55q-188 215 -188 496t186 493q-117 55 -246 55q-227 0 -386 -162t-159 -388q0 -227 159 -389q159 -160 386 -160zM1688 -20
q-240 0 -437 126q-195 -127 -420 -126q-317 0 -541 225t-224 543t224 542q224 225 541 226q223 0 420 -125q197 125 439 125t445 -155q204 -155 273 -396h-233q-66 153 -201 243q-134 90 -282 90t-265 -55q187 -213 187 -493t-189 -496q117 -55 263 -55t280 89
q133 89 199 232h239q-74 -240 -276 -390t-442 -150z" />
    <glyph glyph-name="O_Ccircumflex" unicode="O&#x108;" horiz-adv-x="2459" 
d="M1362 1606l244 340h153l244 -340h-186l-136 192l-131 -192h-188zM1389 750q0 207 -138 360q-135 -156 -135 -362t135 -363q138 158 138 365zM831 199q131 0 248 55q-188 215 -188 496t186 493q-117 55 -246 55q-227 0 -386 -162t-159 -388q0 -227 159 -389
q159 -160 386 -160zM1688 -20q-240 0 -437 126q-195 -127 -420 -126q-317 0 -541 225t-224 543t224 542q224 225 541 226q223 0 420 -125q197 125 439 125t445 -155q204 -155 273 -396h-233q-66 153 -201 243q-134 90 -282 90t-265 -55q187 -213 187 -493t-189 -496
q117 -55 263 -55t280 89q133 89 199 232h239q-74 -240 -276 -390t-442 -150z" />
    <glyph glyph-name="O_Ccaron" unicode="O&#x10c;" horiz-adv-x="2459" 
d="M1606 1606l-244 340h188l131 -193l136 193h186l-244 -340h-153zM1389 750q0 207 -138 360q-135 -156 -135 -362t135 -363q138 158 138 365zM831 199q131 0 248 55q-188 215 -188 496t186 493q-117 55 -246 55q-227 0 -386 -162t-159 -388q0 -227 159 -389
q159 -160 386 -160zM1688 -20q-240 0 -437 126q-195 -127 -420 -126q-317 0 -541 225t-224 543t224 542q224 225 541 226q223 0 420 -125q197 125 439 125t445 -155q204 -155 273 -396h-233q-66 153 -201 243q-134 90 -282 90t-265 -55q187 -213 187 -493t-189 -496
q117 -55 263 -55t280 89q133 89 199 232h239q-74 -240 -276 -390t-442 -150z" />
    <glyph glyph-name="O_Ccedilla" unicode="O&#xc7;" horiz-adv-x="2459" 
d="M1389 750q0 207 -138 360q-135 -156 -135 -362t135 -363q138 158 138 365zM831 199q131 0 248 55q-188 215 -188 496t186 493q-117 55 -246 55q-227 0 -386 -162t-159 -388q0 -227 159 -389q159 -160 386 -160zM1698 -485q-168 0 -295 116l141 86q88 -69 152 -69t102 20
q37 20 37 51q0 66 -131 66h-94v197q-193 18 -359 124q-195 -127 -420 -126q-317 0 -541 225t-224 543t224 542q224 225 541 226q223 0 420 -125q197 125 439 125t445 -155q204 -155 273 -396h-233q-66 153 -201 243q-134 90 -282 90t-265 -55q187 -213 187 -493t-189 -496
q117 -55 263 -55t280 89q133 89 199 232h239q-66 -217 -240 -363t-403 -171v-95q109 2 175 -44q66 -47 65 -129q0 -82 -89 -142t-216 -61z" />
    <glyph glyph-name="O_Cdotaccent" unicode="O&#x10a;" horiz-adv-x="2459" 
d="M1577 1614v282h219v-282h-219zM1389 750q0 207 -138 360q-135 -156 -135 -362t135 -363q138 158 138 365zM831 199q131 0 248 55q-188 215 -188 496t186 493q-117 55 -246 55q-227 0 -386 -162t-159 -388q0 -227 159 -389q159 -160 386 -160zM1688 -20q-240 0 -437 126
q-195 -127 -420 -126q-317 0 -541 225t-224 543t224 542q224 225 541 226q223 0 420 -125q197 125 439 125t445 -155q204 -155 273 -396h-233q-66 153 -201 243q-134 90 -282 90t-265 -55q187 -213 187 -493t-189 -496q117 -55 263 -55t280 89q133 89 199 232h239
q-74 -240 -276 -390t-442 -150z" />
    <glyph glyph-name="Oacute_O" unicode="&#xd3;O" horiz-adv-x="2506" 
d="M1384 748q0 207 -133 360q-129 -152 -129 -360t129 -361q133 154 133 361zM831 197q133 0 252 57q-186 213 -186 496t184 493q-115 57 -250 57q-227 0 -385 -162t-158 -390q0 -229 158 -391q158 -160 385 -160zM1673 197q229 1 387 161t158 390t-158 391
q-158 162 -387 161q-131 0 -250 -59q187 -209 187 -493t-187 -494q115 -57 250 -57zM1673 -20q-229 0 -422 126q-197 -127 -420 -126q-317 0 -541 225t-224 543t224 542q224 225 541 226q225 0 420 -127q197 127 422 127q319 0 543 -226t225 -542q0 -317 -224 -543
q-225 -225 -544 -225zM762 1606l237 340h234l-303 -340h-168z" />
    <glyph glyph-name="Ograve_O" unicode="&#xd2;O" horiz-adv-x="2506" 
d="M784 1606l-303 340h234l237 -340h-168zM1384 748q0 207 -133 360q-129 -152 -129 -360t129 -361q133 154 133 361zM831 197q133 0 252 57q-186 213 -186 496t184 493q-115 57 -250 57q-227 0 -385 -162t-158 -390q0 -229 158 -391q158 -160 385 -160zM1673 197
q229 1 387 161t158 390t-158 391q-158 162 -387 161q-131 0 -250 -59q187 -209 187 -493t-187 -494q115 -57 250 -57zM1673 -20q-229 0 -422 126q-197 -127 -420 -126q-317 0 -541 225t-224 543t224 542q224 225 541 226q225 0 420 -127q197 127 422 127q319 0 543 -226
t225 -542q0 -317 -224 -543q-225 -225 -544 -225z" />
    <glyph glyph-name="Ocircumflex_O" unicode="&#xd4;O" horiz-adv-x="2506" 
d="M518 1606l244 340h153l244 -340h-186l-135 192l-131 -192h-189zM1384 748q0 207 -133 360q-129 -152 -129 -360t129 -361q133 154 133 361zM831 197q133 0 252 57q-186 213 -186 496t184 493q-115 57 -250 57q-227 0 -385 -162t-158 -390q0 -229 158 -391
q158 -160 385 -160zM1673 197q229 1 387 161t158 390t-158 391q-158 162 -387 161q-131 0 -250 -59q187 -209 187 -493t-187 -494q115 -57 250 -57zM1673 -20q-229 0 -422 126q-197 -127 -420 -126q-317 0 -541 225t-224 543t224 542q224 225 541 226q225 0 420 -127
q197 127 422 127q319 0 543 -226t225 -542q0 -317 -224 -543q-225 -225 -544 -225z" />
    <glyph glyph-name="Odieresis_O" unicode="&#xd6;O" horiz-adv-x="2506" 
d="M893 1614v282h219v-282h-219zM563 1614v282h219v-282h-219zM1384 748q0 207 -133 360q-129 -152 -129 -360t129 -361q133 154 133 361zM831 197q133 0 252 57q-186 213 -186 496t184 493q-115 57 -250 57q-227 0 -385 -162t-158 -390q0 -229 158 -391q158 -160 385 -160z
M1673 197q229 1 387 161t158 390t-158 391q-158 162 -387 161q-131 0 -250 -59q187 -209 187 -493t-187 -494q115 -57 250 -57zM1673 -20q-229 0 -422 126q-197 -127 -420 -126q-317 0 -541 225t-224 543t224 542q224 225 541 226q225 0 420 -127q197 127 422 127
q319 0 543 -226t225 -542q0 -317 -224 -543q-225 -225 -544 -225z" />
    <glyph glyph-name="Otilde_O" unicode="&#xd5;O" horiz-adv-x="2506" 
d="M481 1606q-1 118 57 190t141 72t173 -53q82 -53 117 -54q68 0 67 99h146q0 -123 -54 -193t-157 -70q-69 1 -159 53t-122 52q-63 0 -63 -96h-146zM1384 748q0 207 -133 360q-129 -152 -129 -360t129 -361q133 154 133 361zM831 197q133 0 252 57q-186 213 -186 496
t184 493q-115 57 -250 57q-227 0 -385 -162t-158 -390q0 -229 158 -391q158 -160 385 -160zM1673 197q229 1 387 161t158 390t-158 391q-158 162 -387 161q-131 0 -250 -59q187 -209 187 -493t-187 -494q115 -57 250 -57zM1673 -20q-229 0 -422 126q-197 -127 -420 -126
q-317 0 -541 225t-224 543t224 542q224 225 541 226q225 0 420 -127q197 127 422 127q319 0 543 -226t225 -542q0 -317 -224 -543q-225 -225 -544 -225z" />
    <glyph glyph-name="Omacron_O" unicode="&#x14c;O" horiz-adv-x="2506" 
d="M561 1606v157h541v-157h-541zM1384 748q0 207 -133 360q-129 -152 -129 -360t129 -361q133 154 133 361zM831 197q133 0 252 57q-186 213 -186 496t184 493q-115 57 -250 57q-227 0 -385 -162t-158 -390q0 -229 158 -391q158 -160 385 -160zM1673 197q229 1 387 161
t158 390t-158 391q-158 162 -387 161q-131 0 -250 -59q187 -209 187 -493t-187 -494q115 -57 250 -57zM1673 -20q-229 0 -422 126q-197 -127 -420 -126q-317 0 -541 225t-224 543t224 542q224 225 541 226q225 0 420 -127q197 127 422 127q319 0 543 -226t225 -542
q0 -317 -224 -543q-225 -225 -544 -225z" />
    <glyph glyph-name="Obreve_O" unicode="&#x14e;O" horiz-adv-x="2506" 
d="M1163 1937q0 -145 -91 -243t-247 -97q-155 1 -239 95t-84 245h155q0 -201 174 -204q84 2 130 55q45 53 45 149h157zM1384 748q0 207 -133 360q-129 -152 -129 -360t129 -361q133 154 133 361zM831 197q133 0 252 57q-186 213 -186 496t184 493q-115 57 -250 57
q-227 0 -385 -162t-158 -390q0 -229 158 -391q158 -160 385 -160zM1673 197q229 1 387 161t158 390t-158 391q-158 162 -387 161q-131 0 -250 -59q187 -209 187 -493t-187 -494q115 -57 250 -57zM1673 -20q-229 0 -422 126q-197 -127 -420 -126q-317 0 -541 225t-224 543
t224 542q224 225 541 226q225 0 420 -127q197 127 422 127q319 0 543 -226t225 -542q0 -317 -224 -543q-225 -225 -544 -225z" />
    <glyph glyph-name="Ohungarumlaut_O" unicode="&#x150;O" horiz-adv-x="2506" 
d="M903 1606l238 340h221l-303 -340h-156zM588 1606l235 340h221l-303 -340h-153zM1384 748q0 207 -133 360q-129 -152 -129 -360t129 -361q133 154 133 361zM831 197q133 0 252 57q-186 213 -186 496t184 493q-115 57 -250 57q-227 0 -385 -162t-158 -390q0 -229 158 -391
q158 -160 385 -160zM1673 197q229 1 387 161t158 390t-158 391q-158 162 -387 161q-131 0 -250 -59q187 -209 187 -493t-187 -494q115 -57 250 -57zM1673 -20q-229 0 -422 126q-197 -127 -420 -126q-317 0 -541 225t-224 543t224 542q224 225 541 226q225 0 420 -127
q197 127 422 127q319 0 543 -226t225 -542q0 -317 -224 -543q-225 -225 -544 -225z" />
    <glyph glyph-name="O_Oacute" unicode="O&#xd3;" horiz-adv-x="2506" 
d="M1384 748q0 207 -133 360q-129 -152 -129 -360t129 -361q133 154 133 361zM831 197q133 0 252 57q-186 213 -186 496t184 493q-115 57 -250 57q-227 0 -385 -162t-158 -390q0 -229 158 -391q158 -160 385 -160zM1673 197q229 1 387 161t158 390t-158 391
q-158 162 -387 161q-131 0 -250 -59q187 -209 187 -493t-187 -494q115 -57 250 -57zM1673 -20q-229 0 -422 126q-197 -127 -420 -126q-317 0 -541 225t-224 543t224 542q224 225 541 226q225 0 420 -127q197 127 422 127q319 0 543 -226t225 -542q0 -317 -224 -543
q-225 -225 -544 -225zM1585 1606l238 340h233l-303 -340h-168z" />
    <glyph glyph-name="O_Ograve" unicode="O&#xd2;" horiz-adv-x="2506" 
d="M1616 1606l-303 340h233l238 -340h-168zM1384 748q0 207 -133 360q-129 -152 -129 -360t129 -361q133 154 133 361zM831 197q133 0 252 57q-186 213 -186 496t184 493q-115 57 -250 57q-227 0 -385 -162t-158 -390q0 -229 158 -391q158 -160 385 -160zM1673 197
q229 1 387 161t158 390t-158 391q-158 162 -387 161q-131 0 -250 -59q187 -209 187 -493t-187 -494q115 -57 250 -57zM1673 -20q-229 0 -422 126q-197 -127 -420 -126q-317 0 -541 225t-224 543t224 542q224 225 541 226q225 0 420 -127q197 127 422 127q319 0 543 -226
t225 -542q0 -317 -224 -543q-225 -225 -544 -225z" />
    <glyph glyph-name="O_Ocircumflex" unicode="O&#xd4;" horiz-adv-x="2506" 
d="M1384 748q0 207 -133 360q-129 -152 -129 -360t129 -361q133 154 133 361zM831 197q133 0 252 57q-186 213 -186 496t184 493q-115 57 -250 57q-227 0 -385 -162t-158 -390q0 -229 158 -391q158 -160 385 -160zM1673 197q229 1 387 161t158 390t-158 391
q-158 162 -387 161q-131 0 -250 -59q187 -209 187 -493t-187 -494q115 -57 250 -57zM1673 -20q-229 0 -422 126q-197 -127 -420 -126q-317 0 -541 225t-224 543t224 542q224 225 541 226q225 0 420 -127q197 127 422 127q319 0 543 -226t225 -542q0 -317 -224 -543
q-225 -225 -544 -225zM1360 1606l244 340h153l244 -340h-186l-136 192l-131 -192h-188z" />
    <glyph glyph-name="O_Odieresis" unicode="O&#xd6;" horiz-adv-x="2506" 
d="M1384 748q0 207 -133 360q-129 -152 -129 -360t129 -361q133 154 133 361zM831 197q133 0 252 57q-186 213 -186 496t184 493q-115 57 -250 57q-227 0 -385 -162t-158 -390q0 -229 158 -391q158 -160 385 -160zM1673 197q229 1 387 161t158 390t-158 391
q-158 162 -387 161q-131 0 -250 -59q187 -209 187 -493t-187 -494q115 -57 250 -57zM1673 -20q-229 0 -422 126q-197 -127 -420 -126q-317 0 -541 225t-224 543t224 542q224 225 541 226q225 0 420 -127q197 127 422 127q319 0 543 -226t225 -542q0 -317 -224 -543
q-225 -225 -544 -225zM1403 1614v282h219v-282h-219zM1733 1614v282h219v-282h-219z" />
    <glyph glyph-name="O_Otilde" unicode="O&#xd5;" horiz-adv-x="2506" 
d="M1350 1606q0 118 57 190t141 72t172 -53q82 -53 117 -54q68 0 68 99h145q0 -123 -54 -193t-157 -70q-70 1 -159 53t-121 52q-63 0 -64 -96h-145zM1384 748q0 207 -133 360q-129 -152 -129 -360t129 -361q133 154 133 361zM831 197q133 0 252 57q-186 213 -186 496
t184 493q-115 57 -250 57q-227 0 -385 -162t-158 -390q0 -229 158 -391q158 -160 385 -160zM1673 197q229 1 387 161t158 390t-158 391q-158 162 -387 161q-131 0 -250 -59q187 -209 187 -493t-187 -494q115 -57 250 -57zM1673 -20q-229 0 -422 126q-197 -127 -420 -126
q-317 0 -541 225t-224 543t224 542q224 225 541 226q225 0 420 -127q197 127 422 127q319 0 543 -226t225 -542q0 -317 -224 -543q-225 -225 -544 -225z" />
    <glyph glyph-name="O_Omacron" unicode="O&#x14c;" horiz-adv-x="2506" 
d="M1419 1606v157h541v-157h-541zM1384 748q0 207 -133 360q-129 -152 -129 -360t129 -361q133 154 133 361zM831 197q133 0 252 57q-186 213 -186 496t184 493q-115 57 -250 57q-227 0 -385 -162t-158 -390q0 -229 158 -391q158 -160 385 -160zM1673 197q229 1 387 161
t158 390t-158 391q-158 162 -387 161q-131 0 -250 -59q187 -209 187 -493t-187 -494q115 -57 250 -57zM1673 -20q-229 0 -422 126q-197 -127 -420 -126q-317 0 -541 225t-224 543t224 542q224 225 541 226q225 0 420 -127q197 127 422 127q319 0 543 -226t225 -542
q0 -317 -224 -543q-225 -225 -544 -225z" />
    <glyph glyph-name="O_Obreve" unicode="O&#x14e;" horiz-adv-x="2506" 
d="M2021 1937q-1 -145 -91 -243t-246 -97t-240 95t-84 245h156q0 -201 174 -204q84 2 129 55t45 149h157zM1384 748q0 207 -133 360q-129 -152 -129 -360t129 -361q133 154 133 361zM831 197q133 0 252 57q-186 213 -186 496t184 493q-115 57 -250 57q-227 0 -385 -162
t-158 -390q0 -229 158 -391q158 -160 385 -160zM1673 197q229 1 387 161t158 390t-158 391q-158 162 -387 161q-131 0 -250 -59q187 -209 187 -493t-187 -494q115 -57 250 -57zM1673 -20q-229 0 -422 126q-197 -127 -420 -126q-317 0 -541 225t-224 543t224 542
q224 225 541 226q225 0 420 -127q197 127 422 127q319 0 543 -226t225 -542q0 -317 -224 -543q-225 -225 -544 -225z" />
    <glyph glyph-name="O_Ohungarumlaut" unicode="O&#x150;" horiz-adv-x="2506" 
d="M1444 1606l235 340h222l-304 -340h-153zM1759 1606l238 340h221l-303 -340h-156zM1384 748q0 207 -133 360q-129 -152 -129 -360t129 -361q133 154 133 361zM831 197q133 0 252 57q-186 213 -186 496t184 493q-115 57 -250 57q-227 0 -385 -162t-158 -390
q0 -229 158 -391q158 -160 385 -160zM1673 197q229 1 387 161t158 390t-158 391q-158 162 -387 161q-131 0 -250 -59q187 -209 187 -493t-187 -494q115 -57 250 -57zM1673 -20q-229 0 -422 126q-197 -127 -420 -126q-317 0 -541 225t-224 543t224 542q224 225 541 226
q225 0 420 -127q197 127 422 127q319 0 543 -226t225 -542q0 -317 -224 -543q-225 -225 -544 -225z" />
    <glyph glyph-name="Racute_A" unicode="&#x154;A" horiz-adv-x="2058" 
d="M422 1606l237 340h234l-303 -340h-168zM1720 520v633l-420 -633h420zM115 0v1495h465q232 0 380 -139t148 -348q0 -156 -85 -281t-239 -172l142 -219l772 1159h246v-1495h-224v315h-557l-104 -157l100 -158h-457l93 139l-361 574h121q156 0 243 90t87 212q0 121 -84 197
t-244 76h-219v-1288h-223z" />
    <glyph glyph-name="Rcaron_A" unicode="&#x158;A" horiz-adv-x="2058" 
d="M498 1606l-244 340h188l131 -193l136 193h186l-244 -340h-153zM1720 520v633l-420 -633h420zM115 0v1495h465q232 0 380 -139t148 -348q0 -156 -85 -281t-239 -172l142 -219l772 1159h246v-1495h-224v315h-557l-104 -157l100 -158h-457l93 139l-361 574h121q156 0 243 90
t87 212q0 121 -84 197t-244 76h-219v-1288h-223z" />
    <glyph glyph-name="Rcommaaccent_A" unicode="&#x156;A" horiz-adv-x="2058" 
d="M1720 520v633l-420 -633h420zM115 0v1495h465q232 0 380 -139t148 -348q0 -156 -85 -281t-239 -172l142 -219l772 1159h246v-1495h-224v315h-557l-104 -157l100 -158h-457l93 139l-361 574h121q156 0 243 90t87 212q0 121 -84 197t-244 76h-219v-1288h-223zM616 -524
h-141l78 418h197z" />
    <glyph glyph-name="R_Aacute" unicode="R&#xc1;" horiz-adv-x="2058" 
d="M1765 1606l238 340h233l-303 -340h-168zM1720 520v633l-420 -633h420zM115 0v1495h465q232 0 380 -139t148 -348q0 -156 -85 -281t-239 -172l142 -219l772 1159h246v-1495h-224v315h-557l-104 -157l100 -158h-457l93 139l-361 574h121q156 0 243 90t87 212q0 121 -84 197
t-244 76h-219v-1288h-223z" />
    <glyph glyph-name="R_Agrave" unicode="R&#xc0;" horiz-adv-x="2058" 
d="M1737 1606l-303 340h233l238 -340h-168zM1720 520v633l-420 -633h420zM115 0v1495h465q232 0 380 -139t148 -348q0 -156 -85 -281t-239 -172l142 -219l772 1159h246v-1495h-224v315h-557l-104 -157l100 -158h-457l93 139l-361 574h121q156 0 243 90t87 212q0 121 -84 197
t-244 76h-219v-1288h-223z" />
    <glyph glyph-name="R_Acircumflex" unicode="R&#xc2;" horiz-adv-x="2058" 
d="M1720 520v633l-420 -633h420zM115 0v1495h465q232 0 380 -139t148 -348q0 -156 -85 -281t-239 -172l142 -219l772 1159h246v-1495h-224v315h-557l-104 -157l100 -158h-457l93 139l-361 574h121q156 0 243 90t87 212q0 121 -84 197t-244 76h-219v-1288h-223zM1475 1606
l243 340h154l244 -340h-187l-135 192l-131 -192h-188z" />
    <glyph glyph-name="R_Adieresis" unicode="R&#xc4;" horiz-adv-x="2058" 
d="M1720 520v633l-420 -633h420zM115 0v1495h465q232 0 380 -139t148 -348q0 -156 -85 -281t-239 -172l142 -219l772 1159h246v-1495h-224v315h-557l-104 -157l100 -158h-457l93 139l-361 574h121q156 0 243 90t87 212q0 121 -84 197t-244 76h-219v-1288h-223zM1516 1614
v282h219v-282h-219zM1845 1614v282h219v-282h-219z" />
    <glyph glyph-name="R_Atilde" unicode="R&#xc3;" horiz-adv-x="2058" 
d="M1446 1606q0 118 57 190t141 72t173 -53q82 -53 116 -54q68 0 68 99h145q0 -123 -54 -193t-157 -70q-70 1 -159 53t-121 52q-63 0 -64 -96h-145zM1720 520v633l-420 -633h420zM115 0v1495h465q232 0 380 -139t148 -348q0 -156 -85 -281t-239 -172l142 -219l772 1159h246
v-1495h-224v315h-557l-104 -157l100 -158h-457l93 139l-361 574h121q156 0 243 90t87 212q0 121 -84 197t-244 76h-219v-1288h-223z" />
    <glyph glyph-name="R_Aring" unicode="R&#xc5;" horiz-adv-x="2058" 
d="M1706 1593q0 -37 26 -63t64 -25q37 0 64 26q26 27 26 63t-26 64q-27 28 -64 28q-38 0 -64 -28t-26 -65zM1720 520v633l-420 -633h420zM115 0v1495h465q232 0 380 -139t148 -348q0 -156 -85 -281t-239 -172l142 -219l721 1081q-80 70 -80 171t66 169q67 68 163 68t164 -68
q68 -69 68 -171t-84 -171v-1415h-224v315h-557l-104 -157l100 -158h-457l93 139l-361 574h121q156 0 243 90t87 212q0 121 -84 197t-244 76h-219v-1288h-223z" />
    <glyph glyph-name="R_Amacron" unicode="R&#x100;" horiz-adv-x="2058" 
d="M1532 1606v157h541v-157h-541zM1720 520v633l-420 -633h420zM115 0v1495h465q232 0 380 -139t148 -348q0 -156 -85 -281t-239 -172l142 -219l772 1159h246v-1495h-224v315h-557l-104 -157l100 -158h-457l93 139l-361 574h121q156 0 243 90t87 212q0 121 -84 197t-244 76
h-219v-1288h-223z" />
    <glyph glyph-name="R_Abreve" unicode="R&#x102;" horiz-adv-x="2058" 
d="M2126 1937q0 -145 -91 -243t-247 -97t-240 95t-84 245h156q0 -201 174 -204q84 2 129 55t45 149h158zM1720 520v633l-420 -633h420zM115 0v1495h465q232 0 380 -139t148 -348q0 -156 -85 -281t-239 -172l142 -219l772 1159h246v-1495h-224v315h-557l-104 -157l100 -158
h-457l93 139l-361 574h121q156 0 243 90t87 212q0 121 -84 197t-244 76h-219v-1288h-223z" />
    <glyph glyph-name="R_Aogonek" unicode="R&#x104;" horiz-adv-x="2058" 
d="M1720 520v633l-420 -633h420zM1768 -455q-138 -1 -218 61t-80 147t56 154t194 144v264h-557l-104 -157l100 -158h-457l93 139l-361 574h121q156 0 243 90t87 212q0 121 -84 197t-244 76h-219v-1288h-223v1495h465q232 0 380 -139t148 -348q0 -156 -85 -281t-239 -172
l142 -219l772 1159h246v-1495h-33l4 -2q-164 -102 -212 -144t-48 -85q0 -72 100 -72q61 0 137 63l146 -98q-132 -117 -270 -117z" />
    <glyph glyph-name="R_Aringacute" unicode="R&#x1fa;" horiz-adv-x="2058" 
d="M1714 1593q0 -37 26 -63t64 -25q37 0 64 26q26 27 26 63t-26 64q-27 28 -64 28q-38 0 -64 -28t-26 -65zM1745 1876l237 340h234l-303 -340h-168zM1720 520v633l-420 -633h420zM115 0v1495h465q232 0 380 -139t148 -348q0 -156 -85 -281t-239 -172l142 -219l723 1087
q-74 68 -74 167t66 167q67 68 163 68t164 -68q68 -69 68 -175t-92 -173v-1409h-224v315h-557l-104 -157l100 -158h-457l93 139l-361 574h121q156 0 243 90t87 212q0 121 -84 197t-244 76h-219v-1288h-223z" />
    <glyph glyph-name="Sacute_T" unicode="&#x15a;T" horiz-adv-x="1892" 
d="M1032 412q0 -180 -127 -306t-356 -126t-362 123q-132 124 -132 352h230v-15q-1 -112 73 -184t190 -72t184 62t69 164q-1 57 -21 98t-82 76q-85 49 -201 89q-117 40 -176 68q-59 29 -116 74q-115 91 -115 269q0 179 128 295t357 116h1244v-211h-424v-1284h-224v1284h-593
q-129 0 -196 -52t-67 -145t94 -147q70 -40 185 -81q116 -41 176 -69q175 -84 228 -205q34 -75 34 -173zM496 1606l237 340h234l-303 -340h-168z" />
    <glyph glyph-name="Scircumflex_T" unicode="&#x15c;T" horiz-adv-x="1892" 
d="M276 1606l244 340h154l244 -340h-187l-135 192l-131 -192h-189zM1032 412q0 -180 -127 -306t-356 -126t-362 123q-132 124 -132 352h230v-15q-1 -112 73 -184t190 -72t184 62t69 164q-1 57 -21 98t-82 76q-85 49 -201 89q-117 40 -176 68q-59 29 -116 74
q-115 91 -115 269q0 179 128 295t357 116h1244v-211h-424v-1284h-224v1284h-593q-129 0 -196 -52t-67 -145t94 -147q70 -40 185 -81q116 -41 176 -69q175 -84 228 -205q34 -75 34 -173z" />
    <glyph glyph-name="Scaron_T" unicode="&#x160;T" horiz-adv-x="1892" 
d="M496 1606l-244 340h188l131 -193l136 193h186l-244 -340h-153zM1032 412q0 -180 -127 -306t-356 -126t-362 123q-132 124 -132 352h230v-15q-1 -112 73 -184t190 -72t184 62t69 164q-1 57 -21 98t-82 76q-85 49 -201 89q-117 40 -176 68q-59 29 -116 74q-115 91 -115 269
q0 179 128 295t357 116h1244v-211h-424v-1284h-224v1284h-593q-129 0 -196 -52t-67 -145t94 -147q70 -40 185 -81q116 -41 176 -69q175 -84 228 -205q34 -75 34 -173z" />
    <glyph glyph-name="Scedilla_T" unicode="&#x15e;T" horiz-adv-x="1892" 
d="M551 -485q-168 0 -295 116l141 86q89 -69 153 -69t101 20t37 51q0 66 -131 66h-94v201q-193 24 -301 144t-107 325h230v-15q-1 -112 73 -184t190 -72t184 62t69 164q-1 57 -21 98t-82 76q-85 49 -201 89q-117 40 -176 68q-59 29 -116 74q-115 91 -115 269q0 179 128 295
t357 116h1244v-211h-424v-1284h-224v1284h-593q-129 0 -196 -52t-67 -145t94 -147q70 -40 185 -81q116 -41 176 -69q175 -84 228 -205q34 -75 34 -173q0 -166 -110 -288t-306 -140v-93q109 2 175 -44q65 -47 65 -129t-89 -142t-216 -61z" />
    <glyph glyph-name="Scommaaccent_T" unicode="&#x218;T" horiz-adv-x="1892" 
d="M1032 412q0 -180 -127 -306t-356 -126t-362 123q-132 124 -132 352h230v-15q-1 -112 73 -184t190 -72t184 62t69 164q-1 57 -21 98t-82 76q-85 49 -201 89q-117 40 -176 68q-59 29 -116 74q-115 91 -115 269q0 179 128 295t357 116h1244v-211h-424v-1284h-224v1284h-593
q-129 0 -196 -52t-67 -145t94 -147q70 -40 185 -81q116 -41 176 -69q175 -84 228 -205q34 -75 34 -173zM537 -524h-142l78 418h197z" />
    <glyph glyph-name="S_Tcaron" unicode="S&#x164;" horiz-adv-x="1892" 
d="M1206 1606l-243 340h188l131 -193l135 193h187l-244 -340h-154zM1032 412q0 -180 -127 -306t-356 -126t-362 123q-132 124 -132 352h230v-15q-1 -112 73 -184t190 -72t184 62t69 164q-1 57 -21 98t-82 76q-85 49 -201 89q-117 40 -176 68q-59 29 -116 74
q-115 91 -115 269q0 179 128 295t357 116h1244v-211h-424v-1284h-224v1284h-593q-129 0 -196 -52t-67 -145t94 -147q70 -40 185 -81q116 -41 176 -69q175 -84 228 -205q34 -75 34 -173z" />
    <glyph glyph-name="S_Tcommaaccent" unicode="S&#x162;" horiz-adv-x="1892" 
d="M1032 412q0 -180 -127 -306t-356 -126t-362 123q-132 124 -132 352h230v-15q-1 -112 73 -184t190 -72t184 62t69 164q-1 57 -21 98t-82 76q-85 49 -201 89q-117 40 -176 68q-59 29 -116 74q-115 91 -115 269q0 179 128 295t357 116h1244v-211h-424v-1284h-224v1284h-593
q-129 0 -196 -52t-67 -145t94 -147q70 -40 185 -81q116 -41 176 -69q175 -84 228 -205q34 -75 34 -173zM1274 -524h-141l77 418h197z" />
    <glyph glyph-name="Tcaron_I" unicode="&#x164;I" horiz-adv-x="1245" 
d="M528 1606l-243 340h188l131 -193l135 193h187l-244 -340h-154zM909 0v1169h221v-1169h-221zM494 0v1284h-414v211h1050v-211h-415v-1284h-221z" />
    <glyph glyph-name="Tcommaaccent_I" unicode="&#x162;I" horiz-adv-x="1245" 
d="M909 0v1169h221v-1169h-221zM494 0v1284h-414v211h1050v-211h-415v-1284h-221zM594 -524h-141l77 418h197z" />
    <glyph glyph-name="Tcaron_Y" unicode="&#x164;Y" horiz-adv-x="2127" 
d="M530 1606l-243 340h188l131 -193l135 193h187l-244 -340h-154zM496 0v1284h-422v211h1067l348 -565l348 565h248l-486 -788v-707h-223v709l-356 575h-301v-1284h-223z" />
    <glyph glyph-name="Tcommaaccent_Y" unicode="&#x162;Y" horiz-adv-x="2127" 
d="M496 0v1284h-422v211h1067l348 -565l348 565h248l-486 -788v-707h-223v709l-356 575h-301v-1284h-223zM602 -524h-141l78 418h196z" />
    <glyph glyph-name="T_Yacute" unicode="T&#xdd;" horiz-adv-x="2127" 
d="M496 0v1284h-422v211h1067l348 -565l348 565h248l-486 -788v-707h-223v709l-356 575h-301v-1284h-223zM1411 1606l238 340h233l-303 -340h-168z" />
    <glyph glyph-name="T_Ygrave" unicode="T&#x1ef2;" horiz-adv-x="2127" 
d="M1425 1606l-303 340h234l237 -340h-168zM496 0v1284h-422v211h1067l348 -565l348 565h248l-486 -788v-707h-223v709l-356 575h-301v-1284h-223z" />
    <glyph glyph-name="T_Ycircumflex" unicode="T&#x176;" horiz-adv-x="2127" 
d="M1171 1606l244 340h154l243 -340h-186l-135 192l-131 -192h-189zM496 0v1284h-422v211h1067l348 -565l348 565h248l-486 -788v-707h-223v709l-356 575h-301v-1284h-223z" />
    <glyph glyph-name="T_Ydieresis" unicode="T&#x178;" horiz-adv-x="2127" 
d="M1214 1614v282h220v-282h-220zM1544 1614v282h219v-282h-219zM496 0v1284h-422v211h1067l348 -565l348 565h248l-486 -788v-707h-223v709l-356 575h-301v-1284h-223z" />
    <glyph glyph-name=".notdef" horiz-adv-x="0" 
 />
    <glyph glyph-name=".null" horiz-adv-x="0" 
 />
    <glyph glyph-name="nonmarkingreturn" horiz-adv-x="681" 
 />
    <glyph glyph-name="space" unicode=" " horiz-adv-x="540" 
 />
    <glyph glyph-name="exclam" unicode="!" horiz-adv-x="458" 
d="M121 0v281h219v-281h-219zM121 1255v240h219v-240q0 -481 -49 -860h-121q-49 379 -49 860z" />
    <glyph glyph-name="quotedbl" unicode="&#x22;" horiz-adv-x="641" 
d="M367 1323v172h180v-172q0 -53 -22 -151t-38 -148h-63q-57 180 -57 299zM96 1495h180v-172q0 -53 -22 -151t-37 -148h-63q-57 180 -58 299v172z" />
    <glyph glyph-name="numbersign" unicode="#" horiz-adv-x="1673" 
d="M639 950v-387h387v387h-387zM1026 0v350h-387v-350h-221v350h-346v213h346v387h-346v213h346v332h221v-332h387v332h223v-332h353v-213h-353v-387h353v-213h-353v-350h-223z" />
    <glyph glyph-name="dollar" unicode="$" horiz-adv-x="1204" 
d="M324 1115q0 -77 48 -120t144 -80v404q-90 -15 -141 -71t-51 -133zM907 410q0 84 -51 133t-147 88v-443q96 20 147 79t51 143zM713 1679v-172q184 -29 296 -141t109 -285h-219v17q0 80 -52 136t-138 79v-461q169 -59 296 -153q128 -94 128 -285q0 -158 -117 -278
t-303 -148v-183h-201v181q-209 22 -327 142t-117 323h229v-15q0 -100 58 -165t161 -83v506q-237 80 -329 177q-85 94 -85 247q0 152 116 260t294 131v170h201z" />
    <glyph glyph-name="percent" unicode="%" horiz-adv-x="1720" 
d="M88 1160q0 148 104 252t252 104t252 -104t104 -252t-104 -252t-252 -105q-148 1 -252 105t-104 252zM1120 335q0 -71 49 -121t119 -50t119 50t49 121t-49 121t-119 50t-119 -50t-49 -121zM84 0l1284 1495h281l-1284 -1495h-281zM932 334q0 148 103 254q103 104 251 104
t254 -104q104 -104 104 -253t-104 -253t-253 -104t-252 104t-103 252zM276 1159q0 -72 50 -122t118 -50q70 0 119 50t49 122t-49 122t-119 50t-119 -50t-49 -122z" />
    <glyph glyph-name="ampersand" unicode="&#x26;" horiz-adv-x="1536" 
d="M638 174q158 0 292 90l-475 475q-166 -96 -166 -272q0 -119 95 -206q96 -87 254 -87zM250 1160q0 144 109 250q110 106 289 106t289 -102t110 -257v-29h-228v31q0 70 -49 116t-124 46t-121 -50t-46 -128t46 -144t200 -223l362 -362q117 156 150 334h-248v208h467v-98
q0 -141 -61 -296t-168 -286l274 -276h-303l-127 125q-195 -147 -418 -148q-153 0 -271 43t-184 116q-133 148 -130 329q0 139 70 249q71 110 190 179q-78 123 -78 267z" />
    <glyph glyph-name="quotesingle" unicode="'" horiz-adv-x="370" 
d="M96 1495h180v-172q0 -53 -22 -151t-37 -148h-63q-57 180 -58 299v172z" />
    <glyph glyph-name="parenleft" unicode="(" horiz-adv-x="888" 
d="M72 514q0 356 209 639t536 356v-247q-231 -70 -371 -278t-141 -472q0 -264 140 -472t372 -280v-249q-329 75 -537 361t-208 642z" />
    <glyph glyph-name="parenright" unicode=")" horiz-adv-x="888" 
d="M819 513q-1 -355 -209 -641t-536 -361v249q229 72 370 280t142 472q0 264 -142 472t-370 278v247q328 -77 536 -359t209 -637z" />
    <glyph glyph-name="asterisk" unicode="*" horiz-adv-x="860" 
d="M692 870l-209 172l43 -270h-192l41 270l-213 -172l-94 168l254 97l-254 100l98 166l211 -174l-43 270h192l-43 -270l213 172l97 -168l-258 -96l258 -99z" />
    <glyph glyph-name="plus" unicode="+" horiz-adv-x="935" 
d="M90 653v189h287v282h184v-282h287v-189h-287v-286h-184v286h-287z" />
    <glyph glyph-name="comma" unicode="," horiz-adv-x="419" 
d="M51 -240l78 418h209l-135 -418h-152z" />
    <glyph glyph-name="hyphen" unicode="-" horiz-adv-x="935" 
d="M90 422v190h758v-190h-758z" />
    <glyph glyph-name="period" unicode="." horiz-adv-x="419" 
d="M100 0v281h219v-281h-219z" />
    <glyph glyph-name="slash" unicode="/" horiz-adv-x="1017" 
d="M39 0l709 1495h235l-709 -1495h-235z" />
    <glyph glyph-name="zero" unicode="0" horiz-adv-x="1204" 
d="M600 -20q-238 0 -367 133t-129 354v551q0 219 138 358q138 140 361 140q225 0 361 -140t136 -356v-553q0 -225 -131 -356t-369 -131zM328 475q0 -131 68 -208t203 -77q134 0 207 78t73 205v541q0 137 -72 215t-204 78t-204 -80t-71 -213v-539z" />
    <glyph glyph-name="one" unicode="1" horiz-adv-x="1204" 
d="M90 0v213h399v911q-33 -46 -103 -76t-140 -30h-23v231h10q135 0 200 76t65 170h213v-1282h405v-213h-1026z" />
    <glyph glyph-name="two" unicode="2" horiz-adv-x="1204" 
d="M109 0v213q0 190 180 349q100 88 170 134q71 45 119 76q218 139 253 207t35 117q0 98 -74 162t-199 65q-124 0 -203 -72t-79 -198v-15h-213q-4 219 132 348q136 130 362 130t362 -121q138 -121 138 -305t-195 -346q-97 -78 -237 -168t-208 -150q-69 -62 -94 -110
t-24 -103h770v-213h-995z" />
    <glyph glyph-name="three" unicode="3" horiz-adv-x="1204" 
d="M1110 426q0 -190 -144 -318t-378 -128t-372 126t-132 340h217v-14q0 -120 81 -184t210 -64t213 67t84 179t-83 172q-83 61 -222 62h-158v206h156q135 0 214 60q78 60 78 169q0 110 -78 166q-79 56 -201 56q-122 1 -199 -63t-74 -181v-14h-211q-6 207 129 330t360 123
t358 -112t134 -296q0 -227 -195 -334q213 -104 213 -348z" />
    <glyph glyph-name="four" unicode="4" horiz-adv-x="1204" 
d="M713 526v627l-400 -627h400zM713 0v324h-633v204l614 967h236v-969h196v-202h-196v-324h-217z" />
    <glyph glyph-name="five" unicode="5" horiz-adv-x="1204" 
d="M642 1006q198 0 341 -136t143 -370q0 -236 -154 -378t-380 -142q-227 0 -373 123q-145 124 -145 358h231v-15q0 -120 84 -190t208 -70t214 83t90 223t-87 226q-87 85 -218 85q-209 0 -295 -176l-207 78l119 790h829v-209h-651l-57 -368q110 88 308 88z" />
    <glyph glyph-name="six" unicode="6" horiz-adv-x="1204" 
d="M297 492q0 -126 89 -218t215 -92t216 91t90 219t-90 218q-90 91 -216 91t-215 -91t-89 -218zM1126 488q0 -220 -150 -364t-374 -144q-225 0 -374 146q-148 146 -148 352t110 368l414 649h264l-333 -514q61 14 108 14q205 0 344 -144q139 -143 139 -363z" />
    <glyph glyph-name="seven" unicode="7" horiz-adv-x="1204" 
d="M90 1282v213h1026v-192l-606 -1303h-238l605 1282h-787z" />
    <glyph glyph-name="eight" unicode="8" horiz-adv-x="1204" 
d="M604 883q131 0 202 61q71 62 71 158t-72 160t-198 63q-127 0 -199 -63q-72 -64 -72 -160t68 -158q69 -61 200 -61zM297 434q0 -110 80 -182q80 -74 224 -74t226 74t82 184t-80 184q-80 72 -224 72t-226 -74t-82 -184zM1122 448q0 -220 -139 -344t-384 -124t-380 124
t-135 344q0 221 207 347q-160 111 -160 302t130 305t343 114t345 -115t132 -303t-168 -303q209 -127 209 -347z" />
    <glyph glyph-name="nine" unicode="9" horiz-adv-x="1204" 
d="M297 1006q0 -126 91 -218t217 -92t215 91t89 219t-89 218q-89 91 -215 91t-217 -91t-91 -218zM561 500q-203 0 -342 144t-139 364t149 363q150 145 374 145t374 -146q149 -146 149 -352q0 -205 -112 -369l-412 -649h-264l332 512q-51 -12 -109 -12z" />
    <glyph glyph-name="colon" unicode=":" horiz-adv-x="417" 
d="M100 743v281h219v-281h-219zM100 0v281h219v-281h-219z" />
    <glyph glyph-name="semicolon" unicode=";" horiz-adv-x="419" 
d="M51 -240l78 418h209l-135 -418h-152zM100 743v281h219v-281h-219z" />
    <glyph glyph-name="less" unicode="&#x3c;" horiz-adv-x="935" 
d="M848 371l-758 282v189l758 278v-194l-526 -178l526 -183v-194z" />
    <glyph glyph-name="equal" unicode="=" horiz-adv-x="935" 
d="M90 481v189h758v-189h-758zM90 819v189h758v-189h-758z" />
    <glyph glyph-name="greater" unicode="&#x3e;" horiz-adv-x="935" 
d="M90 371v194l524 183l-524 178v194l758 -278v-189z" />
    <glyph glyph-name="question" unicode="?" horiz-adv-x="1089" 
d="M403 0v281h222v-281h-222zM414 387v21q0 141 37 240q37 98 89 150t104 94t89 95t37 135t-67 142t-175 59q-108 0 -180 -67q-70 -67 -69 -177v-16h-213q-4 205 120 329t338 124t342 -112t129 -292q0 -106 -40 -181t-96 -120t-111 -90q-56 -45 -96 -123t-40 -190v-21h-198z
" />
    <glyph glyph-name="at" unicode="@" horiz-adv-x="1671" 
d="M803 336q80 0 133 58t62 140t-34 138q-44 57 -123 57t-139 -54t-65 -140q-10 -83 38 -141t128 -58zM836 -256q-317 0 -541 225q-223 225 -223 543t226 544t551 226t537 -207t213 -483q0 -184 -90 -307q-89 -123 -249 -123t-236 112q-86 -117 -262 -116q-137 0 -237 101
q-99 101 -81 272t128 267t243 97q133 0 209 -86l6 76h191l-41 -371q-18 -166 98 -166q63 0 100 66t37 176q0 202 -161 356q-162 154 -408 154t-416 -172t-170 -416t167 -416t399 -172t366 154h276q-257 -334 -632 -334z" />
    <glyph glyph-name="A" unicode="A" horiz-adv-x="1425" 
d="M713 1188l-238 -656h475zM49 0l549 1495h229l549 -1495h-231l-117 319h-631l-114 -319h-234z" />
    <glyph glyph-name="B" unicode="B" horiz-adv-x="1230" 
d="M621 1292h-283v-420h291q129 0 195 58t65 157q-1 97 -69 151t-199 54zM645 666h-307v-461h317q131 0 206 62t75 169q0 230 -291 230zM115 0v1495h506q229 0 360 -109q131 -110 131 -308t-176 -296q223 -96 223 -350q0 -204 -136 -318t-368 -114h-540z" />
    <glyph glyph-name="C" unicode="C" horiz-adv-x="1626" 
d="M848 -20q-328 0 -552 224t-224 545t224 543t552 224q252 0 457 -155t270 -396h-240q-65 155 -193 245t-302 90q-227 0 -385 -162t-158 -390t158 -390t385 -161q168 0 295 87t194 236h244q-71 -240 -273 -390t-452 -150z" />
    <glyph glyph-name="D" unicode="D" horiz-adv-x="1384" 
d="M506 1290h-168v-1083h176q254 -1 414 153t160 392t-154 388t-428 150zM115 0v1495h413q356 0 570 -211q214 -210 215 -534q0 -324 -220 -537t-556 -213h-422z" />
    <glyph glyph-name="E" unicode="E" horiz-adv-x="1105" 
d="M115 0v1495h897v-211h-674v-428h674v-211h-674v-432h674v-213h-897z" />
    <glyph glyph-name="F" unicode="F" horiz-adv-x="1058" 
d="M115 0v1495h846v-211h-623v-428h623v-211h-623v-645h-223z" />
    <glyph glyph-name="G" unicode="G" horiz-adv-x="1675" 
d="M1604 748q0 -316 -211 -542t-542 -226t-555 224t-224 545t224 543t552 224q256 0 462 -154t265 -387h-246q-61 149 -187 237t-304 88q-229 0 -386 -162t-157 -390t158 -390t378 -162t360 120q140 118 179 305h-532v210h766v-83z" />
    <glyph glyph-name="H" unicode="H" horiz-adv-x="1349" 
d="M1014 0v645h-676v-645h-223v1495h223v-637h676v637h221v-1495h-221z" />
    <glyph glyph-name="I" unicode="I" horiz-adv-x="481" 
d="M129 0v1495h223v-1495h-223z" />
    <glyph glyph-name="J" unicode="J" horiz-adv-x="993" 
d="M883 410q1 -198 -109 -314t-302 -116t-306 105q-115 105 -115 294l142 4l83 -6q0 -86 54 -139q54 -54 141 -54q86 0 138 62t53 166v1083h221v-1085z" />
    <glyph glyph-name="K" unicode="K" horiz-adv-x="1292" 
d="M338 0h-223v1495h223v-713l594 713h272l-491 -590l544 -905h-253l-449 752l-217 -260v-492z" />
    <glyph glyph-name="L" unicode="L" horiz-adv-x="1036" 
d="M115 0v1495h223v-1282h604v-213h-827z" />
    <glyph glyph-name="M" unicode="M" horiz-adv-x="1693" 
d="M115 0v1495h221l508 -702l524 702h211v-1495h-221v1139l-518 -699l-502 682v-1122h-223z" />
    <glyph glyph-name="N" unicode="N" horiz-adv-x="1460" 
d="M115 0v1495h252l757 -1130v1130h222v-1495h-236l-772 1149v-1149h-223z" />
    <glyph glyph-name="O" unicode="O" horiz-adv-x="1677" 
d="M295 748q0 -229 158 -390t386 -161q228 1 386 161q157 160 157 390t-157 391q-158 161 -386 161t-386 -162t-158 -390zM839 -20q-318 0 -543 225q-224 225 -224 543t224 542q224 226 542 226t543 -226t225 -542t-224 -542t-543 -226z" />
    <glyph glyph-name="P" unicode="P" horiz-adv-x="1226" 
d="M590 1290h-252v-637h252q152 0 243 90q91 89 91 227t-91 229t-243 91zM115 0v1495h491q236 -1 388 -151t153 -373q0 -223 -153 -374t-390 -151h-266v-446h-223z" />
    <glyph glyph-name="Q" unicode="Q" horiz-adv-x="1677" 
d="M295 748q0 -228 158 -390t385 -161q104 0 198 39l140 -177q-160 -80 -338 -79q-317 0 -542 225q-224 225 -224 543t224 542q224 226 542 226t543 -226t225 -525q0 -300 -193 -523l193 -242h-277l-547 694h269l219 -276q113 150 112 330q0 229 -157 391q-158 161 -386 161
t-386 -162t-158 -390z" />
    <glyph glyph-name="R" unicode="R" horiz-adv-x="1196" 
d="M115 0v1495h465q232 0 380 -139t148 -348q0 -156 -85 -281t-239 -172l357 -555h-256l-451 713h121q156 0 243 90t87 212q0 121 -84 197t-244 76h-219v-1288h-223z" />
    <glyph glyph-name="S" unicode="S" horiz-adv-x="1118" 
d="M564 -20q-228 0 -360 124t-132 349h229v-15q0 -114 74 -184q75 -70 191 -70t184 62t67 164q0 124 -136 192q-56 29 -165 71q-108 41 -166 71q-172 88 -221 204q-33 74 -33 168q0 178 128 289t340 111t337 -114t123 -321h-219v17q0 106 -66 164t-177 59q-111 0 -176 -55
q-64 -55 -64 -137t45 -124q27 -26 45 -41t68 -39t123 -51q185 -67 315 -170q129 -103 129 -287q0 -185 -127 -312q-128 -125 -356 -125z" />
    <glyph glyph-name="T" unicode="T" horiz-adv-x="1214" 
d="M498 0v1286h-424v209h1069v-209h-424v-1286h-221z" />
    <glyph glyph-name="U" unicode="U" 
d="M618 -20q-223 0 -365 139t-142 368v1008h223v-1020q0 -119 82 -203t202 -84t205 84q84 84 84 203v1020h221v-1008q0 -229 -144 -368t-366 -139z" />
    <glyph glyph-name="V" unicode="V" horiz-adv-x="1368" 
d="M571 0l-522 1495h232l403 -1165l403 1165h232l-522 -1495h-226z" />
    <glyph glyph-name="W" unicode="W" horiz-adv-x="2142" 
d="M483 0l-432 1495h234l317 -1145l361 1145h217l358 -1145l326 1145h227l-442 -1495h-222l-358 1149l-358 -1149h-228z" />
    <glyph glyph-name="X" unicode="X" horiz-adv-x="1314" 
d="M1022 0l-365 573l-362 -573h-250l481 760l-460 735h249l344 -541l342 541h250l-463 -729l484 -766h-250z" />
    <glyph glyph-name="Y" unicode="Y" horiz-adv-x="1277" 
d="M528 0v709l-485 786h246l350 -573l352 573h246l-487 -788v-707h-222z" />
    <glyph glyph-name="Z" unicode="Z" horiz-adv-x="1183" 
d="M98 0v205l727 1079h-704v211h966v-203l-729 -1079h729v-213h-989z" />
    <glyph glyph-name="bracketleft" unicode="[" horiz-adv-x="737" 
d="M90 -471v1966h559v-211h-338v-1544h338v-211h-559z" />
    <glyph glyph-name="backslash" unicode="\" horiz-adv-x="1017" 
d="M748 0l-709 1495h235l709 -1495h-235z" />
    <glyph glyph-name="bracketright" unicode="]" horiz-adv-x="737" 
d="M90 -471v211h336v1544h-336v211h559v-1966h-559z" />
    <glyph glyph-name="asciicircum" unicode="^" horiz-adv-x="993" 
d="M174 1108l246 346h151l248 -346h-186l-137 197l-134 -197h-188z" />
    <glyph glyph-name="underscore" unicode="_" horiz-adv-x="1038" 
d="M90 -209v189h860v-189h-860z" />
    <glyph glyph-name="grave" unicode="`" horiz-adv-x="993" 
d="M545 1135l-303 340h233l238 -340h-168z" />
    <glyph glyph-name="a" unicode="a" horiz-adv-x="1245" 
d="M287 514q0 -140 93 -236q93 -98 231 -98q139 0 231 98t92 236q0 140 -92 236t-230 96t-232 -96q-93 -96 -93 -236zM580 -20q-205 0 -358 148q-152 148 -152 385t151 384q152 147 361 147q100 0 191 -40t149 -113v133h219v-1024h-219v141q-58 -77 -150 -119t-192 -42z" />
    <glyph glyph-name="b" unicode="b" 
d="M633 180q137 0 230 98t93 236q0 140 -93 236t-230 96t-229 -97t-93 -235q1 -138 93 -236t229 -98zM666 -20q-104 0 -196 42t-148 117v-139h-216v1495h218v-608q57 73 147 115t193 42q210 0 360 -147t150 -384t-152 -385t-356 -148z" />
    <glyph glyph-name="c" unicode="c" horiz-adv-x="1198" 
d="M591 -20q-216 0 -369 152q-152 152 -152 377q0 226 154 381q155 154 372 154t363 -126t169 -328h-221q-20 114 -103 182t-210 68t-218 -96t-91 -234q0 -139 90 -232q90 -94 217 -94t210 71t105 183h221q-23 -202 -172 -330t-365 -128z" />
    <glyph glyph-name="d" unicode="d" horiz-adv-x="1243" 
d="M287 514q0 -140 93 -236q93 -98 231 -98q139 0 231 98t92 236q0 140 -92 236t-230 96t-232 -96q-93 -96 -93 -236zM580 -20q-205 0 -358 148q-152 148 -152 385t151 384q152 147 361 147q100 0 191 -40t149 -113v604h217v-1495h-217v141q-58 -77 -150 -119t-192 -42z" />
    <glyph glyph-name="e" unicode="e" horiz-adv-x="1200" 
d="M605 850q-115 0 -197 -62t-115 -161h612q-27 106 -106 165q-80 58 -194 58zM598 -20q-238 0 -383 152t-145 378q0 225 152 380q153 154 379 154t377 -150t150 -376v-76h-849q18 -120 104 -196t217 -76q213 0 277 174h235q-59 -172 -190 -268t-324 -96z" />
    <glyph glyph-name="f" unicode="f" horiz-adv-x="735" 
d="M59 827v197h174v53q-1 240 89 329t331 89h19v-203q-143 0 -180 -38t-37 -179v-51h217v-197h-217v-827h-222v827h-174z" />
    <glyph glyph-name="g" unicode="g" horiz-adv-x="1247" 
d="M287 514q0 -140 93 -236q93 -98 231 -98q139 0 231 98t92 236q0 140 -92 236t-230 96t-232 -96q-93 -96 -93 -236zM580 -20q-205 0 -358 148q-152 148 -152 385t151 384q152 147 361 147q100 0 190 -43t150 -116v139h219v-1006q1 -229 -141 -371q-142 -143 -355 -143
t-345 106t-177 284h237q68 -188 283 -189q123 0 202 88t79 219v133q-60 -77 -152 -121t-192 -44z" />
    <glyph glyph-name="h" unicode="h" horiz-adv-x="1157" 
d="M106 0v1495h218v-600q114 149 312 149t308 -118t111 -328v-598h-224v578q0 132 -62 204t-180 72t-191 -79t-72 -212v-563h-220z" />
    <glyph glyph-name="i" unicode="i" horiz-adv-x="430" 
d="M104 1176v286h222v-286h-222zM104 0v1024h222v-1024h-222z" />
    <glyph glyph-name="j" unicode="j" horiz-adv-x="430" 
d="M104 1176v286h222v-286h-222zM-115 -471v207q141 0 181 38q39 38 38 175v1075h222v-1077q0 -236 -88 -327t-320 -91h-33z" />
    <glyph glyph-name="k" unicode="k" horiz-adv-x="1103" 
d="M324 0h-218v1495h218v-979l460 508h265l-400 -438l410 -586h-246l-317 455l-172 -189v-266z" />
    <glyph glyph-name="l" unicode="l" horiz-adv-x="432" 
d="M106 0v1495h220v-1495h-220z" />
    <glyph glyph-name="m" unicode="m" horiz-adv-x="1832" 
d="M104 0v1024h218v-123q104 143 301 143q242 0 338 -184q115 184 333 184t328 -114t109 -316v-614h-224v600q0 118 -62 186q-61 68 -171 68t-179 -73t-69 -203v-578h-221v610q-1 112 -61 178t-172 66t-180 -74t-68 -211v-569h-220z" />
    <glyph glyph-name="n" unicode="n" horiz-adv-x="1155" 
d="M104 0v1024h218v-133q114 153 312 153t308 -118t111 -328v-598h-222v580q0 130 -63 202t-180 72t-191 -79t-73 -212v-563h-220z" />
    <glyph glyph-name="o" unicode="o" horiz-adv-x="1204" 
d="M289 512q0 -136 90 -232t222 -96t224 96t93 232q0 135 -92 231q-92 97 -225 97q-132 0 -222 -96t-90 -232zM602 -20q-221 0 -376 154t-154 378q0 223 154 378q155 154 376 154t376 -154t155 -378t-155 -378t-376 -154z" />
    <glyph glyph-name="p" unicode="p" 
d="M956 514q0 140 -93 236t-231 96t-230 -96t-93 -236q1 -140 93 -236q92 -98 230 -98t231 98t93 236zM664 1044q210 0 360 -147t150 -384t-152 -385t-369 -148q-216 0 -331 147v-598h-218v1495h218v-143q57 75 148 119t194 44z" />
    <glyph glyph-name="q" unicode="q" horiz-adv-x="1243" 
d="M287 514q0 -140 93 -236q93 -98 231 -98q139 0 231 98t92 236q0 140 -92 236t-230 96t-232 -96q-93 -96 -93 -236zM590 -20q-215 0 -368 148q-152 148 -152 385t151 384q152 147 361 147q100 0 190 -43t150 -116v139h217v-1495h-217v600q-117 -149 -332 -149z" />
    <glyph glyph-name="r" unicode="r" horiz-adv-x="798" 
d="M104 0v1024h220v-158q84 158 282 158h121v-209h-154q-133 0 -190 -73t-57 -234v-508h-222z" />
    <glyph glyph-name="s" unicode="s" horiz-adv-x="870" 
d="M805 299q-1 -129 -95 -224t-269 -95t-275 89t-100 257h223v-4q2 -76 45 -113t114 -37q72 0 108 34t36 83t-20 66t-34 27q-13 10 -38 18q-25 10 -43 16t-50 17q-172 59 -244 126q-73 66 -73 192t92 210q92 83 254 83t259 -82t98 -233h-215v2q0 133 -140 133q-61 0 -95 -32
t-34 -67q0 -36 10 -53q22 -38 156 -84q49 -17 68 -24q121 -44 191 -110t71 -195z" />
    <glyph glyph-name="t" unicode="t" horiz-adv-x="757" 
d="M61 827v197h175v242l221 120v-362h217v-197h-217v-407q0 -139 38 -176t179 -37v-207h-33q-233 0 -319 89t-86 329v409h-175z" />
    <glyph glyph-name="u" unicode="u" horiz-adv-x="1155" 
d="M521 -20q-199 0 -309 118t-110 330v596h224v-578q0 -130 63 -202t179 -72t190 79t73 210v563h220v-1024h-217v133q-113 -153 -313 -153z" />
    <glyph glyph-name="v" unicode="v" horiz-adv-x="1095" 
d="M440 0l-393 1024h229l275 -741l270 741h226l-388 -1024h-219z" />
    <glyph glyph-name="w" unicode="w" horiz-adv-x="1789" 
d="M403 0l-340 1026l224 -2l235 -729l269 729h213l266 -733l243 733h222l-357 -1024h-211l-272 731l-277 -731h-215z" />
    <glyph glyph-name="x" unicode="x" horiz-adv-x="1122" 
d="M37 0l391 520l-375 504h266l246 -338l248 338h260l-373 -504l396 -520h-269l-266 352l-256 -352h-268z" />
    <glyph glyph-name="y" unicode="y" horiz-adv-x="1138" 
d="M248 -473l219 526l-424 971h236l299 -711l282 711h232l-619 -1497h-225z" />
    <glyph glyph-name="z" unicode="z" horiz-adv-x="1071" 
d="M82 0v201l614 626h-600v197h885v-201l-614 -626h622v-197h-907z" />
    <glyph glyph-name="braceleft" unicode="{" horiz-adv-x="792" 
d="M725 -471h-23q-256 0 -353 96t-97 348v222q0 127 -35 169t-158 42v204q123 0 158 42t35 169v230q0 252 97 348t353 96h23v-203q-162 0 -208 -46t-46 -197v-230q0 -127 -34 -201t-113 -110q80 -37 114 -111t33 -200v-222q0 -151 46 -197t208 -46v-203z" />
    <glyph glyph-name="bar" unicode="|" horiz-adv-x="419" 
d="M100 -471v1966h222v-1966h-222z" />
    <glyph glyph-name="braceright" unicode="}" horiz-adv-x="792" 
d="M70 -471v205q160 0 206 45t48 196v222q0 125 32 201t113 110q-80 36 -113 110t-32 201v230q0 153 -48 197t-206 44v205h22q256 0 353 -96t98 -348v-230q0 -127 35 -169t157 -42v-204q-123 0 -157 -42t-35 -169v-222q1 -252 -97 -348t-354 -96h-22z" />
    <glyph glyph-name="asciitilde" unicode="~" horiz-adv-x="966" 
d="M612 1319q63 0 66 92h143q0 -119 -53 -189q-54 -70 -140 -69t-168 51t-118 49q-59 0 -61 -90h-146q1 117 57 188q105 134 308 19q82 -51 112 -51z" />
    <glyph glyph-name="exclamdown" unicode="&#xa1;" horiz-adv-x="458" 
d="M121 743v281h219v-281h-219zM121 -471v240q0 483 49 862h121q49 -379 49 -862v-240h-219z" />
    <glyph glyph-name="cent" unicode="&#xa2;" horiz-adv-x="1204" 
d="M496 -252v256q-186 37 -303 179t-117 343t117 343t303 178v258h221v-256q169 -33 285 -155t137 -294h-226q-23 114 -103 184t-209 70q-128 0 -217 -94t-89 -232t89 -234q89 -95 217 -95q128 1 208 73t102 189h228q-18 -174 -134 -299t-288 -158v-256h-221z" />
    <glyph glyph-name="sterling" unicode="&#xa3;" horiz-adv-x="1204" 
d="M332 137q80 0 125 62q-86 68 -144 67q-31 0 -49 -18t-18 -47t24 -47t62 -17zM1106 281q0 -303 -268 -301q-126 0 -258 114q-96 -117 -236 -117q-140 1 -214 63q-75 62 -75 164t67 166t174 64t208 -67q-3 99 -71 215q-22 35 -68 104h-261v178h156q-53 111 -53 240
q0 182 121 297q122 115 314 115t308 -104t115 -273h-227q0 82 -52 132t-146 50q-92 0 -150 -60t-58 -163t68 -234h424v-178h-332q80 -174 80 -332q0 -59 -19 -116q80 -72 127 -72q98 0 99 108v177h227v-170z" />
    <glyph glyph-name="currency" unicode="&#xa4;" horiz-adv-x="1583" 
d="M800 414q132 0 224 96t92 231t-92 231t-224 97q-132 0 -222 -95q-90 -94 -90 -232t90 -233t222 -95zM798 209q-159 0 -292 88l-225 -234l-150 148l227 233q-88 133 -88 297t88 297l-231 246l152 146l231 -242q133 86 291 86t286 -84l220 225l149 -147l-217 -224
q92 -139 92 -307t-96 -303l219 -225l-149 -146l-222 226q-126 -80 -285 -80z" />
    <glyph glyph-name="yen" unicode="&#xa5;" horiz-adv-x="1204" 
d="M162 604v180h330v23l-439 688h248l303 -491l301 491h246l-438 -688v-23h329v-180h-329v-190h329v-181h-329v-233h-221v233h-330v181h330v190h-330z" />
    <glyph glyph-name="brokenbar" unicode="&#xa6;" horiz-adv-x="462" 
d="M100 -471v860h222v-860h-222zM100 635v860h222v-860h-222z" />
    <glyph glyph-name="section" unicode="&#xa7;" horiz-adv-x="1187" 
d="M903 709q0 57 -81 94t-204 65t-202 54q-62 -10 -98 -46t-35 -81q0 -63 77 -100q78 -35 209 -65t203 -52q131 37 131 131zM580 162q108 0 172 35q63 35 63 104t-119 102q-48 15 -114 29q-293 64 -413 140q-103 67 -103 192q0 82 53 146t141 91q-100 78 -100 209
q0 132 119 220t313 87t310 -97q118 -96 130 -240h-217q-4 72 -63 118q-58 46 -160 48q-102 0 -162 -34t-59 -101q0 -67 112 -107q47 -16 237 -62t294 -115t104 -192q0 -78 -50 -140t-132 -93q100 -72 100 -204t-126 -226t-333 -93q-206 1 -337 101t-144 266h232
q4 -80 74 -132t178 -52z" />
    <glyph glyph-name="dieresis" unicode="&#xa8;" horiz-adv-x="999" 
d="M221 1143v282h219v-282h-219zM551 1143v282h219v-282h-219z" />
    <glyph glyph-name="copyright" unicode="&#xa9;" horiz-adv-x="1673" 
d="M854 338q-184 0 -303 118t-119 292t120 292t302 119q141 0 253 -89t126 -216h-201q-43 119 -186 119q-92 0 -158 -66q-66 -65 -66 -159t66 -160t148 -66t131 35t65 90h205q-20 -127 -129 -218t-254 -91zM835 160q245 0 413 172t169 416q0 244 -169 416q-170 172 -414 173
q-244 0 -409 -172q-165 -171 -165 -417t165 -417t410 -171zM837 -20q-318 0 -543 225q-224 225 -224 543t224 542q224 226 542 226t543 -226t225 -542t-224 -542t-543 -226z" />
    <glyph glyph-name="ordfeminine" unicode="&#xaa;" horiz-adv-x="790" 
d="M390 1358q-68 0 -112 -44t-44 -113t44 -115q45 -46 112 -46t110 47t43 114t-43 112t-110 45zM356 891q-108 0 -195 82t-87 226t88 226t196 82t179 -73v61h161v-592h-161v66q-73 -78 -181 -78z" />
    <glyph glyph-name="guillemotleft" unicode="&#xab;" horiz-adv-x="964" 
d="M852 221l-354 234v127l354 233v-153l-219 -144l219 -145v-152zM467 221l-354 234v127l354 233v-153l-219 -144l219 -145v-152z" />
    <glyph glyph-name="logicalnot" unicode="&#xac;" horiz-adv-x="1234" 
d="M942 365v491h-885v213h1106v-704h-221z" />
    <glyph glyph-name="uni00AD" unicode="&#xad;" horiz-adv-x="935" 
d="M90 422v190h758v-190h-758z" />
    <glyph glyph-name="registered" unicode="&#xae;" horiz-adv-x="1673" 
d="M537 139v766h327q146 0 236 -77t90 -185q0 -190 -164 -246l160 -258h-217l-207 371h88q61 0 101 33t40 90q0 111 -143 110h-119v-604h-192zM837 -78q245 0 413 173t167 417q0 244 -168 417q-169 173 -413 173t-410 -172t-166 -418t166 -418t411 -172zM838 -256
q-317 0 -542 225q-224 225 -224 543t224 542q224 226 542 226t541 -225q225 -225 225 -543t-224 -542q-224 -226 -542 -226z" />
    <glyph glyph-name="macron" unicode="&#xaf;" horiz-adv-x="993" 
d="M227 1135v157h541v-157h-541z" />
    <glyph glyph-name="degree" unicode="&#xb0;" horiz-adv-x="849" 
d="M426 1071q53 0 91 38t38 91t-38 91t-91 38t-91 -38t-38 -91t38 -91t91 -38zM426 887q-131 0 -223 92t-92 223t92 222q92 92 223 92t222 -92t91 -222q0 -131 -91 -223t-222 -92z" />
    <glyph glyph-name="plusminus" unicode="&#xb1;" horiz-adv-x="935" 
d="M90 250v188h758v-188h-758zM90 868v189h287v284h184v-284h287v-189h-287v-284h-184v284h-287z" />
    <glyph glyph-name="twosuperior" unicode="&#xb2;" horiz-adv-x="684" 
d="M49 631v147q0 98 54 168q55 70 177 147t143 105t21 62q0 32 -26 58q-27 26 -74 25q-106 0 -106 -122v-4h-177q-2 135 76 213t208 78t212 -70t82 -183q0 -70 -39 -130t-83 -93t-116 -76q-152 -90 -153 -147h389v-178h-588z" />
    <glyph glyph-name="threesuperior" unicode="&#xb3;" horiz-adv-x="684" 
d="M340 618q-133 0 -224 62t-91 209h188q0 -98 117 -98q53 -1 87 27t34 74t-39 71t-103 24h-88v170h86q59 0 93 27q34 26 34 68t-30 67t-76 25t-75 -26q-30 -24 -30 -69h-180q0 129 85 194t208 65t207 -68t84 -178t-92 -181q113 -67 113 -189t-88 -198q-87 -76 -220 -76z
" />
    <glyph glyph-name="acute" unicode="&#xb4;" horiz-adv-x="993" 
d="M242 1135l237 340h234l-303 -340h-168z" />
    <glyph glyph-name="mu" unicode="&#xb5;" horiz-adv-x="1148" 
d="M100 -471v1495h224v-545q0 -143 66 -225t178 -82q114 0 188 79t73 210v563h220v-1024h-218v125q-109 -145 -296 -145q-117 0 -216 69v-520h-219z" />
    <glyph glyph-name="paragraph" unicode="&#xb6;" horiz-adv-x="1294" 
d="M690 0v618h-186q-190 0 -318 127q-127 127 -127 311t127 312q127 127 316 127h694v-1495h-192v1290h-123v-1290h-191z" />
    <glyph glyph-name="periodcentered" unicode="&#xb7;" horiz-adv-x="419" 
d="M100 377v280h219v-280h-219z" />
    <glyph glyph-name="cedilla" unicode="&#xb8;" horiz-adv-x="993" 
d="M463 -485q-168 0 -295 116l141 86q89 -69 153 -69t101 20t37 51q0 66 -131 66h-94v215h153v-109q108 2 174 -44q66 -47 66 -129t-89 -142t-216 -61z" />
    <glyph glyph-name="onesuperior" unicode="&#xb9;" horiz-adv-x="606" 
d="M47 631v178h168v416q-43 -59 -135 -60h-12v187h6q78 0 112 43t35 100h185v-686h161v-178h-520z" />
    <glyph glyph-name="ordmasculine" unicode="&#xba;" horiz-adv-x="759" 
d="M381 1047q61 0 104 45q43 44 43 108t-42 109t-105 45t-107 -45t-43 -109t45 -108q44 -45 105 -45zM381 891q-127 0 -217 90t-90 218t90 218t217 90t216 -90t89 -218t-89 -218t-216 -90z" />
    <glyph glyph-name="guillemotright" unicode="&#xbb;" horiz-adv-x="964" 
d="M113 221v154l221 143l-221 146v153l354 -235v-125zM498 221v154l221 143l-221 146v153l354 -235v-125z" />
    <glyph glyph-name="onequarter" unicode="&#xbc;" horiz-adv-x="1703" 
d="M1352 350v232l-162 -232h162zM47 631v178h168v416q-43 -59 -135 -60h-12v187h6q78 0 112 43t35 100h185v-686h161v-178h-520zM1352 0v184h-361v170l357 510h184v-514h125v-166h-125v-184h-180zM199 0l1079 1495h256l-1079 -1495h-256z" />
    <glyph glyph-name="onehalf" unicode="&#xbd;" horiz-adv-x="1759" 
d="M199 0l1079 1495h256l-1079 -1495h-256zM47 631v178h168v416q-43 -59 -135 -60h-12v187h6q78 0 112 43t35 100h185v-686h161v-178h-520zM1118 0v147q0 98 54 168t176 147q122 76 144 106q21 30 21 62q-1 32 -27 58t-73 25q-106 0 -106 -123v-4h-177q-2 135 76 213t208 78
t212 -70t82 -182q0 -70 -39 -130q-39 -59 -83 -93t-116 -76q-152 -90 -153 -148h389v-178h-588z" />
    <glyph glyph-name="threequarters" unicode="&#xbe;" horiz-adv-x="1710" 
d="M1358 350v232l-162 -232h162zM1358 0v184h-361v170l357 510h184v-514h125v-166h-125v-184h-180zM205 0l1079 1495h256l-1079 -1495h-256zM625 892q1 -122 -87 -198t-221 -76t-224 62t-91 209h188q0 -98 117 -98q53 -1 87 27t34 74t-39 71t-102 24h-88v170h86q59 0 93 27
q34 26 34 68t-30 67t-76 25t-76 -26q-30 -24 -29 -69h-181q0 129 85 194t208 65t207 -68t84 -178t-92 -181q113 -67 113 -189z" />
    <glyph glyph-name="questiondown" unicode="&#xbf;" horiz-adv-x="1097" 
d="M467 743v281h219v-281h-219zM676 637v-21q0 -139 -37 -238q-37 -100 -88 -152t-103 -93q-127 -99 -126 -223q0 -90 65 -150q67 -59 175 -59t178 67t71 177v16h215q4 -205 -122 -329t-338 -124t-341 112t-129 292q0 90 29 159t71 107t91 79q49 42 91 82t71 112t28 165v21
h199z" />
    <glyph glyph-name="Agrave" unicode="&#xc0;" horiz-adv-x="1425" 
d="M627 1606l-303 340h233l238 -340h-168zM713 1188l-238 -656h475zM49 0l549 1495h229l549 -1495h-231l-117 319h-631l-114 -319h-234z" />
    <glyph glyph-name="Aacute" unicode="&#xc1;" horiz-adv-x="1425" 
d="M618 1606l238 340h234l-304 -340h-168zM713 1188l-238 -656h475zM49 0l549 1495h229l549 -1495h-231l-117 319h-631l-114 -319h-234z" />
    <glyph glyph-name="Acircumflex" unicode="&#xc2;" horiz-adv-x="1425" 
d="M383 1606l244 340h153l244 -340h-186l-136 192l-131 -192h-188zM713 1188l-238 -656h475zM49 0l549 1495h229l549 -1495h-231l-117 319h-631l-114 -319h-234z" />
    <glyph glyph-name="Atilde" unicode="&#xc3;" horiz-adv-x="1425" 
d="M354 1606q0 118 58 190t140 72q83 0 173 -53q82 -53 117 -54q68 0 67 99h146q-1 -123 -55 -193t-156 -70q-70 1 -159 53t-122 52q-63 0 -63 -96h-146zM713 1188l-238 -656h475zM49 0l549 1495h229l549 -1495h-231l-117 319h-631l-114 -319h-234z" />
    <glyph glyph-name="Adieresis" unicode="&#xc4;" horiz-adv-x="1425" 
d="M434 1614v282h219v-282h-219zM764 1614v282h219v-282h-219zM713 1188l-238 -656h475zM49 0l549 1495h229l549 -1495h-231l-117 319h-631l-114 -319h-234z" />
    <glyph glyph-name="Aring" unicode="&#xc5;" horiz-adv-x="1425" 
d="M616 1591q0 -37 27 -63t64 -25q37 0 63 26q26 27 27 63q0 36 -27 64q-28 28 -64 28t-63 -28t-27 -65zM713 1188l-238 -656h475zM477 1582q0 105 67 173t163 68q95 0 163 -68t68 -168t-82 -172l520 -1415h-231l-117 319h-631l-114 -319h-234l516 1409q-88 68 -88 173z" />
    <glyph glyph-name="Ccedilla" unicode="&#xc7;" horiz-adv-x="1626" 
d="M829 -485q-168 0 -294 116l141 86q88 -69 152 -69t102 20q37 20 37 51q0 66 -131 66h-95v203q-291 37 -480 252q-189 214 -189 522t224 530t552 224q252 0 457 -155t270 -396h-240q-65 155 -193 245t-302 90q-227 0 -385 -162t-158 -390t158 -390t385 -161q168 0 295 87
t194 236h244q-70 -228 -256 -376t-422 -162v-91q109 2 175 -44q66 -47 65 -129q0 -82 -89 -143q-90 -60 -217 -60z" />
    <glyph glyph-name="Egrave" unicode="&#xc8;" horiz-adv-x="1105" 
d="M506 1606l-303 340h233l238 -340h-168zM115 0v1495h897v-211h-674v-428h674v-211h-674v-432h674v-213h-897z" />
    <glyph glyph-name="Eacute" unicode="&#xc9;" horiz-adv-x="1105" 
d="M115 0v1495h897v-211h-674v-428h674v-211h-674v-432h674v-213h-897zM457 1606l237 340h234l-303 -340h-168z" />
    <glyph glyph-name="Ecircumflex" unicode="&#xca;" horiz-adv-x="1105" 
d="M115 0v1495h897v-211h-674v-428h674v-211h-674v-432h674v-213h-897zM246 1606l243 340h154l244 -340h-187l-135 192l-131 -192h-188z" />
    <glyph glyph-name="Edieresis" unicode="&#xcb;" horiz-adv-x="1105" 
d="M115 0v1495h897v-211h-674v-428h674v-211h-674v-432h674v-213h-897zM303 1614v282h219v-282h-219zM633 1614v282h219v-282h-219z" />
    <glyph glyph-name="Igrave" unicode="&#xcc;" horiz-adv-x="481" 
d="M158 1606l-303 340h233l238 -340h-168zM129 0v1495h223v-1495h-223z" />
    <glyph glyph-name="Iacute" unicode="&#xcd;" horiz-adv-x="481" 
d="M152 1606l237 340h234l-304 -340h-167zM129 0v1495h223v-1495h-223z" />
    <glyph glyph-name="Icircumflex" unicode="&#xce;" horiz-adv-x="481" 
d="M-82 1606l244 340h153l244 -340h-186l-135 192l-132 -192h-188zM129 0v1495h223v-1495h-223z" />
    <glyph glyph-name="Idieresis" unicode="&#xcf;" horiz-adv-x="481" 
d="M129 0v1495h223v-1495h-223zM-78 1614v282h219v-282h-219zM340 1614v282h219v-282h-219z" />
    <glyph glyph-name="Eth" unicode="&#xd0;" horiz-adv-x="1460" 
d="M580 1290h-164v-440h385v-199h-385v-444h172q256 -1 417 153t161 392t-156 388t-430 150zM45 651v199h148v645h411q356 0 570 -211q214 -210 215 -534q-1 -324 -221 -537t-556 -213h-419v651h-148z" />
    <glyph glyph-name="Ntilde" unicode="&#xd1;" horiz-adv-x="1460" 
d="M375 1606q0 118 57 190q56 72 140 72t173 -53q82 -53 117 -54q68 0 68 99h145q0 -123 -54 -193t-157 -70q-70 1 -159 53t-121 52q-63 0 -64 -96h-145zM115 0v1495h252l757 -1130v1130h222v-1495h-236l-772 1149v-1149h-223z" />
    <glyph glyph-name="Ograve" unicode="&#xd2;" horiz-adv-x="1677" 
d="M752 1606l-303 340h233l238 -340h-168zM295 748q0 -229 158 -390t386 -161q228 1 386 161q157 160 157 390t-157 391q-158 161 -386 161t-386 -162t-158 -390zM839 -20q-318 0 -543 225q-224 225 -224 543t224 542q224 226 542 226t543 -226t225 -542t-224 -542
t-543 -226z" />
    <glyph glyph-name="Oacute" unicode="&#xd3;" horiz-adv-x="1677" 
d="M295 748q0 -229 158 -390t386 -161q228 1 386 161q157 160 157 390t-157 391q-158 161 -386 161t-386 -162t-158 -390zM839 -20q-318 0 -543 225q-224 225 -224 543t224 542q224 226 542 226t543 -226t225 -542t-224 -542t-543 -226zM739 1606l238 340h233l-303 -340
h-168z" />
    <glyph glyph-name="Ocircumflex" unicode="&#xd4;" horiz-adv-x="1677" 
d="M295 748q0 -229 158 -390t386 -161q228 1 386 161q157 160 157 390t-157 391q-158 161 -386 161t-386 -162t-158 -390zM839 -20q-318 0 -543 225q-224 225 -224 543t224 542q224 226 542 226t543 -226t225 -542t-224 -542t-543 -226zM510 1606l244 340h153l244 -340h-186
l-136 192l-131 -192h-188z" />
    <glyph glyph-name="Otilde" unicode="&#xd5;" horiz-adv-x="1677" 
d="M475 1606q0 118 57 190q56 72 140 72t174 -53q82 -53 117 -54q68 0 67 99h146q0 -123 -54 -193t-157 -70q-69 1 -159 53t-122 52q-63 0 -63 -96h-146zM295 748q0 -229 158 -390t386 -161q228 1 386 161q157 160 157 390t-157 391q-158 161 -386 161t-386 -162t-158 -390z
M839 -20q-318 0 -543 225q-224 225 -224 543t224 542q224 226 542 226t543 -226t225 -542t-224 -542t-543 -226z" />
    <glyph glyph-name="Odieresis" unicode="&#xd6;" horiz-adv-x="1677" 
d="M295 748q0 -229 158 -390t386 -161q228 1 386 161q157 160 157 390t-157 391q-158 161 -386 161t-386 -162t-158 -390zM839 -20q-318 0 -543 225q-224 225 -224 543t224 542q224 226 542 226t543 -226t225 -542t-224 -542t-543 -226zM555 1614v282h219v-282h-219z
M885 1614v282h219v-282h-219z" />
    <glyph glyph-name="multiply" unicode="&#xd7;" horiz-adv-x="935" 
d="M238 383l-132 131l232 231l-232 234l130 129l231 -234l233 234l131 -131l-233 -234l231 -229l-129 -129l-231 229z" />
    <glyph glyph-name="Oslash" unicode="&#xd8;" horiz-adv-x="1699" 
d="M850 197q227 1 385 161t158 374t-129 374l-668 -848q119 -61 254 -61zM307 758q0 -219 131 -373l670 848q-119 68 -258 67q-229 0 -386 -162t-157 -380zM84 748q0 316 224 542q224 225 542 226q211 0 393 -111l72 90h256l-170 -215q215 -225 215 -537q0 -311 -224 -537
t-542 -226q-211 0 -389 106l-68 -86h-258l166 211q-217 221 -217 537z" />
    <glyph glyph-name="Ugrave" unicode="&#xd9;" 
d="M543 1606l-303 340h233l238 -340h-168zM618 -20q-223 0 -365 139t-142 368v1008h223v-1020q0 -119 82 -203t202 -84t205 84q84 84 84 203v1020h221v-1008q0 -229 -144 -368t-366 -139z" />
    <glyph glyph-name="Uacute" unicode="&#xda;" 
d="M618 -20q-223 0 -365 139t-142 368v1008h223v-1020q0 -119 82 -203t202 -84t205 84q84 84 84 203v1020h221v-1008q0 -229 -144 -368t-366 -139zM520 1606l238 340h233l-303 -340h-168z" />
    <glyph glyph-name="Ucircumflex" unicode="&#xdb;" 
d="M618 -20q-223 0 -365 139t-142 368v1008h223v-1020q0 -119 82 -203t202 -84t205 84q84 84 84 203v1020h221v-1008q0 -229 -144 -368t-366 -139zM293 1606l244 340h153l244 -340h-186l-136 192l-131 -192h-188z" />
    <glyph glyph-name="Udieresis" unicode="&#xdc;" 
d="M618 -20q-223 0 -365 139t-142 368v1008h223v-1020q0 -119 82 -203t202 -84t205 84q84 84 84 203v1020h221v-1008q0 -229 -144 -368t-366 -139zM346 1614v282h219v-282h-219zM676 1614v282h219v-282h-219z" />
    <glyph glyph-name="Yacute" unicode="&#xdd;" horiz-adv-x="1277" 
d="M541 1606l237 340h234l-303 -340h-168zM528 0v709l-485 786h246l350 -573l352 573h246l-487 -788v-707h-222z" />
    <glyph glyph-name="Thorn" unicode="&#xde;" horiz-adv-x="1153" 
d="M596 1004h-258v-482h258q118 0 188 68t70 173t-70 173t-188 68zM115 0v1495h223v-285h272q205 0 336 -127t131 -319t-131 -320q-131 -127 -336 -127h-272v-317h-223z" />
    <glyph glyph-name="germandbls" unicode="&#xdf;" horiz-adv-x="1095" 
d="M-109 -471v207q133 0 174 43q40 43 39 172v1110q-4 197 112 317t316 119q200 0 319 -115q120 -115 120 -292q0 -106 -53 -188t-150 -122q116 -41 188 -134t72 -220q0 -195 -126 -320t-331 -124q-96 0 -151 24v199q39 -25 144 -25t172 71t67 173t-78 173t-207 71h-43v200
h43q104 0 171 64t67 158t-60 157t-160 63q-98 0 -160 -58q-62 -60 -63 -169v-1132q0 -236 -84 -329t-305 -93h-33z" />
    <glyph glyph-name="agrave" unicode="&#xe0;" horiz-adv-x="1245" 
d="M522 1135l-303 340h234l237 -340h-168zM287 514q0 -140 93 -236q93 -98 231 -98q139 0 231 98t92 236q0 140 -92 236t-230 96t-232 -96q-93 -96 -93 -236zM580 -20q-205 0 -358 148q-152 148 -152 385t151 384q152 147 361 147q100 0 191 -40t149 -113v133h219v-1024
h-219v141q-58 -77 -150 -119t-192 -42z" />
    <glyph glyph-name="aacute" unicode="&#xe1;" horiz-adv-x="1245" 
d="M479 1135l238 340h233l-303 -340h-168zM287 514q0 -140 93 -236q93 -98 231 -98q139 0 231 98t92 236q0 140 -92 236t-230 96t-232 -96q-93 -96 -93 -236zM580 -20q-205 0 -358 148q-152 148 -152 385t151 384q152 147 361 147q100 0 191 -40t149 -113v133h219v-1024
h-219v141q-58 -77 -150 -119t-192 -42z" />
    <glyph glyph-name="acircumflex" unicode="&#xe2;" horiz-adv-x="1245" 
d="M326 1135l243 340h154l244 -340h-187l-135 192l-131 -192h-188zM287 514q0 -140 93 -236q93 -98 231 -98q139 0 231 98t92 236q0 140 -92 236t-230 96t-232 -96q-93 -96 -93 -236zM580 -20q-205 0 -358 148q-152 148 -152 385t151 384q152 147 361 147q100 0 191 -40
t149 -113v133h219v-1024h-219v141q-58 -77 -150 -119t-192 -42z" />
    <glyph glyph-name="atilde" unicode="&#xe3;" horiz-adv-x="1245" 
d="M283 1135q0 119 57 191q56 72 140 71q84 1 170 -53t120 -54q68 0 68 99h145q0 -123 -54 -193t-157 -70q-70 0 -159 52t-121 53q-63 0 -64 -96h-145zM287 514q0 -140 93 -236q93 -98 231 -98q139 0 231 98t92 236q0 140 -92 236t-230 96t-232 -96q-93 -96 -93 -236z
M580 -20q-205 0 -358 148q-152 148 -152 385t151 384q152 147 361 147q100 0 191 -40t149 -113v133h219v-1024h-219v141q-58 -77 -150 -119t-192 -42z" />
    <glyph glyph-name="adieresis" unicode="&#xe4;" horiz-adv-x="1245" 
d="M362 1143v282h220v-282h-220zM692 1143v282h219v-282h-219zM287 514q0 -140 93 -236q93 -98 231 -98q139 0 231 98t92 236q0 140 -92 236t-230 96t-232 -96q-93 -96 -93 -236zM580 -20q-205 0 -358 148q-152 148 -152 385t151 384q152 147 361 147q100 0 191 -40
t149 -113v133h219v-1024h-219v141q-58 -77 -150 -119t-192 -42z" />
    <glyph glyph-name="aring" unicode="&#xe5;" horiz-adv-x="1245" 
d="M604 1442q-38 0 -64 -28t-26 -64t26 -62t64 -26q37 0 64 26t26 62q0 36 -26 64t-64 28zM604 1120q-96 0 -163 68t-67 163t68 163q66 68 162 67q96 0 164 -68q68 -67 68 -163t-68 -163t-164 -67zM287 514q0 -140 93 -236q93 -98 231 -98q139 0 231 98t92 236
q0 140 -92 236t-230 96t-232 -96q-93 -96 -93 -236zM580 -20q-205 0 -358 148q-152 148 -152 385t151 384q152 147 361 147q100 0 191 -40t149 -113v133h219v-1024h-219v141q-58 -77 -150 -119t-192 -42z" />
    <glyph glyph-name="ae" unicode="&#xe6;" horiz-adv-x="1892" 
d="M1295 850q-115 0 -197 -62t-115 -165h612q-27 109 -106 168q-80 59 -194 59zM449 162q121 0 213 82t106 159v19q-6 41 -6 86v16q-27 -45 -246 -92q-121 -26 -175 -60t-54 -100q0 -110 162 -110zM1290 -20q-133 0 -246 59t-186 162q-53 -97 -166 -159q-112 -62 -276 -62
t-255 78t-92 210q-1 133 89 207t254 115q227 50 256 66q30 16 52 28q40 22 40 70q0 49 -54 84q-54 34 -166 34t-179 -57t-66 -147v-6h-201v4q0 176 120 277t331 101q268 0 370 -153q158 153 381 153t373 -148t150 -376v-82h-846q20 -120 107 -194q86 -74 200 -74t188 49
t105 129h231q-57 -174 -189 -271t-325 -97z" />
    <glyph glyph-name="ccedilla" unicode="&#xe7;" horiz-adv-x="1200" 
d="M610 -485q-168 0 -295 116l142 86q89 -69 153 -69t101 20t37 51q0 66 -132 66h-94v201q-196 27 -324 172t-128 361t154 371q155 154 372 154t363 -126t169 -328h-221q-20 114 -103 182t-210 68t-218 -96t-91 -234q0 -139 90 -232q90 -94 217 -94t210 71t105 183h221
q-20 -182 -146 -307t-306 -147v-93q108 2 174 -44q66 -47 66 -129t-90 -142q-89 -60 -216 -61z" />
    <glyph glyph-name="egrave" unicode="&#xe8;" horiz-adv-x="1200" 
d="M537 1135l-304 340h234l238 -340h-168zM605 850q-115 0 -197 -62t-115 -161h612q-27 106 -106 165q-80 58 -194 58zM598 -20q-238 0 -383 152t-145 378q0 225 152 380q153 154 379 154t377 -150t150 -376v-76h-849q18 -120 104 -196t217 -76q213 0 277 174h235
q-59 -172 -190 -268t-324 -96z" />
    <glyph glyph-name="eacute" unicode="&#xe9;" horiz-adv-x="1200" 
d="M605 850q-115 0 -197 -62t-115 -161h612q-27 106 -106 165q-80 58 -194 58zM598 -20q-238 0 -383 152t-145 378q0 225 152 380q153 154 379 154t377 -150t150 -376v-76h-849q18 -120 104 -196t217 -76q213 0 277 174h235q-59 -172 -190 -268t-324 -96zM494 1135l237 340
h234l-303 -340h-168z" />
    <glyph glyph-name="ecircumflex" unicode="&#xea;" horiz-adv-x="1200" 
d="M605 850q-115 0 -197 -62t-115 -161h612q-27 106 -106 165q-80 58 -194 58zM276 1135l244 340h154l244 -340h-187l-135 192l-131 -192h-189zM598 -20q-238 0 -383 152t-145 378q0 225 152 380q153 154 379 154t377 -150t150 -376v-76h-849q18 -120 104 -196t217 -76
q213 0 277 174h235q-59 -172 -190 -268t-324 -96z" />
    <glyph glyph-name="edieresis" unicode="&#xeb;" horiz-adv-x="1200" 
d="M659 1143v282h220v-282h-220zM330 1143v282h219v-282h-219zM605 850q-115 0 -197 -62t-115 -161h612q-27 106 -106 165q-80 58 -194 58zM598 -20q-238 0 -383 152t-145 378q0 225 152 380q153 154 379 154t377 -150t150 -376v-76h-849q18 -120 104 -196t217 -76
q213 0 277 174h235q-59 -172 -190 -268t-324 -96z" />
    <glyph glyph-name="igrave" unicode="&#xec;" horiz-adv-x="430" 
d="M156 1135l-303 340h233l238 -340h-168zM104 0v1024h222v-1024h-222z" />
    <glyph glyph-name="iacute" unicode="&#xed;" horiz-adv-x="430" 
d="M104 0v1024h222v-1024h-222zM111 1135l237 340h234l-303 -340h-168z" />
    <glyph glyph-name="icircumflex" unicode="&#xee;" horiz-adv-x="430" 
d="M104 0v1024h222v-1024h-222zM-106 1135l243 340h154l244 -340h-187l-135 192l-131 -192h-188z" />
    <glyph glyph-name="idieresis" unicode="&#xef;" horiz-adv-x="430" 
d="M104 0v1024h222v-1024h-222zM-111 1143v282h222v-282h-222zM319 1143v282h220v-282h-220z" />
    <glyph glyph-name="eth" unicode="&#xf0;" horiz-adv-x="1193" 
d="M596 190q125 0 215 92t90 219q0 128 -88 219t-215 91t-217 -90t-90 -220q0 -131 90 -221t215 -90zM1116 508q0 -221 -150 -373q-150 -151 -369 -151q-218 0 -371 148q-152 148 -152 366t143 363q143 144 352 145q137 0 228 -64q-76 119 -203 236l-121 -103h-209l230 191
q-125 106 -304 229h318l129 -109l131 109h207l-240 -201q381 -379 381 -786z" />
    <glyph glyph-name="ntilde" unicode="&#xf1;" horiz-adv-x="1155" 
d="M219 1135q0 119 57 191q56 72 140 71q84 1 170 -53t121 -54q68 0 67 99h146q0 -123 -54 -193t-157 -70q-69 0 -159 52t-122 53q-63 0 -63 -96h-146zM104 0v1024h218v-133q114 153 312 153t308 -118t111 -328v-598h-222v580q0 130 -63 202t-180 72t-191 -79t-73 -212v-563
h-220z" />
    <glyph glyph-name="ograve" unicode="&#xf2;" horiz-adv-x="1202" 
d="M526 1135l-303 340h234l237 -340h-168zM287 512q0 -136 90 -232t222 -96t224 96t92 232q0 135 -92 231q-92 97 -224 97t-222 -96t-90 -232zM600 -20q-221 0 -376 154t-154 378q0 223 154 378q155 154 376 154t376 -154q154 -154 154 -378q0 -223 -154 -378
q-155 -154 -376 -154z" />
    <glyph glyph-name="oacute" unicode="&#xf3;" horiz-adv-x="1202" 
d="M287 512q0 -136 90 -232t222 -96t224 96t92 232q0 135 -92 231q-92 97 -224 97t-222 -96t-90 -232zM600 -20q-221 0 -376 154t-154 378q0 223 154 378q155 154 376 154t376 -154q154 -154 154 -378q0 -223 -154 -378q-155 -154 -376 -154zM500 1135l237 340h234
l-303 -340h-168z" />
    <glyph glyph-name="ocircumflex" unicode="&#xf4;" horiz-adv-x="1202" 
d="M279 1135l243 340h154l244 -340h-187l-135 192l-131 -192h-188zM287 512q0 -136 90 -232t222 -96t224 96t92 232q0 135 -92 231q-92 97 -224 97t-222 -96t-90 -232zM600 -20q-221 0 -376 154t-154 378q0 223 154 378q155 154 376 154t376 -154q154 -154 154 -378
q0 -223 -154 -378q-155 -154 -376 -154z" />
    <glyph glyph-name="otilde" unicode="&#xf5;" horiz-adv-x="1202" 
d="M258 1135q0 119 57 191t141 71q84 1 169 -53q86 -54 120 -54q68 0 68 99h145q0 -123 -54 -193t-156 -70q-70 0 -160 52t-121 53q-63 0 -64 -96h-145zM287 512q0 -136 90 -232t222 -96t224 96t92 232q0 135 -92 231q-92 97 -224 97t-222 -96t-90 -232zM600 -20
q-221 0 -376 154t-154 378q0 223 154 378q155 154 376 154t376 -154q154 -154 154 -378q0 -223 -154 -378q-155 -154 -376 -154z" />
    <glyph glyph-name="odieresis" unicode="&#xf6;" horiz-adv-x="1202" 
d="M287 512q0 -136 90 -232t222 -96t224 96t92 232q0 135 -92 231q-92 97 -224 97t-222 -96t-90 -232zM600 -20q-221 0 -376 154t-154 378q0 223 154 378q155 154 376 154t376 -154q154 -154 154 -378q0 -223 -154 -378q-155 -154 -376 -154zM330 1143v282h219v-282h-219z
M659 1143v282h220v-282h-220z" />
    <glyph glyph-name="divide" unicode="&#xf7;" horiz-adv-x="935" 
d="M377 317v242h186v-242h-186zM377 934v242h186v-242h-186zM90 653v189h758v-189h-758z" />
    <glyph glyph-name="oslash" unicode="&#xf8;" horiz-adv-x="1202" 
d="M600 840q-133 0 -224 -96t-91 -216t53 -202l385 489q-55 25 -123 25zM600 184q133 0 225 96q93 96 93 218q0 120 -58 202l-385 -491q55 -25 125 -25zM600 -20q-139 0 -256 63l-35 -43h-227l123 156q-135 152 -135 366t154 368q155 155 376 154q137 0 254 -63l35 43h227
l-121 -154q137 -154 137 -368t-155 -368q-156 -154 -377 -154z" />
    <glyph glyph-name="ugrave" unicode="&#xf9;" horiz-adv-x="1155" 
d="M502 1135l-303 340h233l238 -340h-168zM521 -20q-199 0 -309 118t-110 330v596h224v-578q0 -130 63 -202t179 -72t190 79t73 210v563h220v-1024h-217v133q-113 -153 -313 -153z" />
    <glyph glyph-name="uacute" unicode="&#xfa;" horiz-adv-x="1155" 
d="M473 1135l238 340h233l-303 -340h-168zM521 -20q-199 0 -309 118t-110 330v596h224v-578q0 -130 63 -202t179 -72t190 79t73 210v563h220v-1024h-217v133q-113 -153 -313 -153z" />
    <glyph glyph-name="ucircumflex" unicode="&#xfb;" horiz-adv-x="1155" 
d="M250 1135l244 340h153l244 -340h-186l-136 192l-131 -192h-188zM521 -20q-199 0 -309 118t-110 330v596h224v-578q0 -130 63 -202t179 -72t190 79t73 210v563h220v-1024h-217v133q-113 -153 -313 -153z" />
    <glyph glyph-name="udieresis" unicode="&#xfc;" horiz-adv-x="1155" 
d="M631 1143v282h219v-282h-219zM301 1143v282h219v-282h-219zM521 -20q-199 0 -309 118t-110 330v596h224v-578q0 -130 63 -202t179 -72t190 79t73 210v563h220v-1024h-217v133q-113 -153 -313 -153z" />
    <glyph glyph-name="yacute" unicode="&#xfd;" horiz-adv-x="1138" 
d="M471 1135l238 340h233l-303 -340h-168zM248 -473l219 526l-424 971h236l299 -711l282 711h232l-619 -1497h-225z" />
    <glyph glyph-name="thorn" unicode="&#xfe;" horiz-adv-x="1236" 
d="M638 180q136 0 228 98t92 238q0 138 -91 234t-229 96t-231 -97t-93 -235t94 -236t230 -98zM660 -20q-213 0 -338 165v-616h-216v1966h216v-616q127 165 341 165t361 -145t147 -383t-149 -387t-362 -149z" />
    <glyph glyph-name="ydieresis" unicode="&#xff;" horiz-adv-x="1138" 
d="M631 1143v282h219v-282h-219zM301 1143v282h219v-282h-219zM248 -473l219 526l-424 971h236l299 -711l282 711h232l-619 -1497h-225z" />
    <glyph glyph-name="Amacron" unicode="&#x100;" horiz-adv-x="1425" 
d="M438 1606v157h541v-157h-541zM713 1188l-238 -656h475zM49 0l549 1495h229l549 -1495h-231l-117 319h-631l-114 -319h-234z" />
    <glyph glyph-name="amacron" unicode="&#x101;" horiz-adv-x="1245" 
d="M381 1135v157h541v-157h-541zM287 514q0 -140 93 -236q93 -98 231 -98q139 0 231 98t92 236q0 140 -92 236t-230 96t-232 -96q-93 -96 -93 -236zM580 -20q-205 0 -358 148q-152 148 -152 385t151 384q152 147 361 147q100 0 191 -40t149 -113v133h219v-1024h-219v141
q-58 -77 -150 -119t-192 -42z" />
    <glyph glyph-name="Abreve" unicode="&#x102;" horiz-adv-x="1425" 
d="M1036 1937q0 -145 -90 -243t-247 -97q-156 1 -240 95t-84 245h155q0 -201 175 -204q84 2 129 55t45 149h157zM713 1188l-238 -656h475zM49 0l549 1495h229l549 -1495h-231l-117 319h-631l-114 -319h-234z" />
    <glyph glyph-name="abreve" unicode="&#x103;" horiz-adv-x="1245" 
d="M954 1464q0 -144 -90 -242t-247 -98q-156 0 -240 94t-84 246h156q0 -201 174 -204q84 2 129 55t45 149h157zM287 514q0 -140 93 -236q93 -98 231 -98q139 0 231 98t92 236q0 140 -92 236t-230 96t-232 -96q-93 -96 -93 -236zM580 -20q-205 0 -358 148q-152 148 -152 385
t151 384q152 147 361 147q100 0 191 -40t149 -113v133h219v-1024h-219v141q-58 -77 -150 -119t-192 -42z" />
    <glyph glyph-name="Aogonek" unicode="&#x104;" horiz-adv-x="1425" 
d="M713 1188l-238 -656h475zM1228 -455q-138 -1 -218 61t-80 154q0 143 205 267l-107 292h-631l-114 -319h-234l549 1495h229l549 -1495h-6l4 -2q-164 -102 -212 -144t-48 -85q0 -72 100 -72q61 0 138 63l145 -98q-131 -117 -269 -117z" />
    <glyph glyph-name="aogonek" unicode="&#x105;" horiz-adv-x="1245" 
d="M287 514q0 -140 93 -236q93 -98 231 -98q139 0 231 98t92 236q0 140 -92 236t-230 96t-232 -96q-93 -96 -93 -236zM1035 -459q-125 0 -195 65t-72 158q-2 135 154 261v116q-58 -77 -150 -119t-192 -42q-205 0 -358 148q-152 148 -152 385t151 384q152 147 361 147
q100 0 191 -40t149 -113v133h219v-1024h-6q-188 -131 -189 -221q0 -37 25 -60t73 -23t107 60l127 -112q-117 -103 -243 -103z" />
    <glyph glyph-name="Cacute" unicode="&#x106;" horiz-adv-x="1626" 
d="M848 -20q-328 0 -552 224t-224 545t224 543t552 224q252 0 457 -155t270 -396h-240q-65 155 -193 245t-302 90q-227 0 -385 -162t-158 -390t158 -390t385 -161q168 0 295 87t194 236h244q-71 -240 -273 -390t-452 -150zM745 1606l238 340h234l-304 -340h-168z" />
    <glyph glyph-name="cacute" unicode="&#x107;" horiz-adv-x="1200" 
d="M591 -20q-216 0 -369 152q-152 152 -152 377q0 226 154 381q155 154 372 154t363 -126t169 -328h-221q-20 114 -103 182t-210 68t-218 -96t-91 -234q0 -139 90 -232q90 -94 217 -94t210 71t105 183h221q-23 -202 -172 -330t-365 -128zM502 1135l237 340h234l-303 -340
h-168z" />
    <glyph glyph-name="Ccircumflex" unicode="&#x108;" horiz-adv-x="1626" 
d="M848 -20q-328 0 -552 224t-224 545t224 543t552 224q252 0 457 -155t270 -396h-240q-65 155 -193 245t-302 90q-227 0 -385 -162t-158 -390t158 -390t385 -161q168 0 295 87t194 236h244q-71 -240 -273 -390t-452 -150zM522 1606l244 340h154l243 -340h-186l-135 192
l-131 -192h-189z" />
    <glyph glyph-name="ccircumflex" unicode="&#x109;" horiz-adv-x="1200" 
d="M591 -20q-216 0 -369 152q-152 152 -152 377q0 226 154 381q155 154 372 154t363 -126t169 -328h-221q-20 114 -103 182t-210 68t-218 -96t-91 -234q0 -139 90 -232q90 -94 217 -94t210 71t105 183h221q-23 -202 -172 -330t-365 -128zM283 1135l243 340h154l244 -340
h-187l-135 192l-131 -192h-188z" />
    <glyph glyph-name="Cdotaccent" unicode="&#x10a;" horiz-adv-x="1626" 
d="M745 1614v282h220v-282h-220zM848 -20q-328 0 -552 224t-224 545t224 543t552 224q252 0 457 -155t270 -396h-240q-65 155 -193 245t-302 90q-227 0 -385 -162t-158 -390t158 -390t385 -161q168 0 295 87t194 236h244q-71 -240 -273 -390t-452 -150z" />
    <glyph glyph-name="cdotaccent" unicode="&#x10b;" horiz-adv-x="1200" 
d="M496 1143v282h219v-282h-219zM591 -20q-216 0 -369 152q-152 152 -152 377q0 226 154 381q155 154 372 154t363 -126t169 -328h-221q-20 114 -103 182t-210 68t-218 -96t-91 -234q0 -139 90 -232q90 -94 217 -94t210 71t105 183h221q-23 -202 -172 -330t-365 -128z" />
    <glyph glyph-name="Ccaron" unicode="&#x10c;" horiz-adv-x="1626" 
d="M760 1606l-244 340h189l131 -193l135 193h186l-244 -340h-153zM848 -20q-328 0 -552 224t-224 545t224 543t552 224q252 0 457 -155t270 -396h-240q-65 155 -193 245t-302 90q-227 0 -385 -162t-158 -390t158 -390t385 -161q168 0 295 87t194 236h244q-71 -240 -273 -390
t-452 -150z" />
    <glyph glyph-name="ccaron" unicode="&#x10d;" horiz-adv-x="1200" 
d="M524 1135l-243 340h188l131 -193l135 193h187l-244 -340h-154zM591 -20q-216 0 -369 152q-152 152 -152 377q0 226 154 381q155 154 372 154t363 -126t169 -328h-221q-20 114 -103 182t-210 68t-218 -96t-91 -234q0 -139 90 -232q90 -94 217 -94t210 71t105 183h221
q-23 -202 -172 -330t-365 -128z" />
    <glyph glyph-name="Dcaron" unicode="&#x10e;" horiz-adv-x="1384" 
d="M496 1606l-244 340h188l131 -193l136 193h186l-244 -340h-153zM506 1290h-168v-1083h176q254 -1 414 153t160 392t-154 388t-428 150zM115 0v1495h413q356 0 570 -211q214 -210 215 -534q0 -324 -220 -537t-556 -213h-422z" />
    <glyph glyph-name="dcaron" unicode="&#x10f;" horiz-adv-x="1355" 
d="M1249 1133l66 362h186l-110 -362h-142zM287 514q0 -140 93 -236q93 -98 231 -98q139 0 231 98t92 236q0 140 -92 236t-230 96t-232 -96q-93 -96 -93 -236zM580 -20q-205 0 -358 148q-152 148 -152 385t151 384q152 147 361 147q100 0 191 -40t149 -113v604h217v-1495
h-217v141q-58 -77 -150 -119t-192 -42z" />
    <glyph glyph-name="Dcroat" unicode="&#x110;" horiz-adv-x="1460" 
d="M580 1290h-164v-440h385v-199h-385v-444h172q256 -1 417 153t161 392t-156 388t-430 150zM45 651v199h148v645h411q356 0 570 -211q214 -210 215 -534q-1 -324 -221 -537t-556 -213h-419v651h-148z" />
    <glyph glyph-name="dcroat" unicode="&#x111;" horiz-adv-x="1263" 
d="M287 514q0 -140 93 -236q93 -98 231 -98q139 0 231 98t92 236q0 140 -92 236t-230 96t-232 -96q-93 -96 -93 -236zM782 1151v160h140v184h217v-184h123v-160h-123v-1151h-217v141q-58 -77 -150 -119t-192 -42q-205 0 -358 148q-152 148 -152 385t151 384q152 147 361 147
q100 0 191 -40t149 -113v260h-140z" />
    <glyph glyph-name="Emacron" unicode="&#x112;" horiz-adv-x="1105" 
d="M297 1606v157h541v-157h-541zM115 0v1495h897v-211h-674v-428h674v-211h-674v-432h674v-213h-897z" />
    <glyph glyph-name="emacron" unicode="&#x113;" horiz-adv-x="1200" 
d="M334 1135v157h540v-157h-540zM605 850q-115 0 -197 -62t-115 -161h612q-27 106 -106 165q-80 58 -194 58zM598 -20q-238 0 -383 152t-145 378q0 225 152 380q153 154 379 154t377 -150t150 -376v-76h-849q18 -120 104 -196t217 -76q213 0 277 174h235q-59 -172 -190 -268
t-324 -96z" />
    <glyph glyph-name="Ebreve" unicode="&#x114;" horiz-adv-x="1105" 
d="M905 1937q0 -145 -91 -243t-247 -97q-155 1 -239 95t-84 245h155q0 -201 174 -204q84 2 129 55t46 149h157zM115 0v1495h897v-211h-674v-428h674v-211h-674v-432h674v-213h-897z" />
    <glyph glyph-name="ebreve" unicode="&#x115;" horiz-adv-x="1200" 
d="M605 850q-115 0 -197 -62t-115 -161h612q-27 106 -106 165q-80 58 -194 58zM936 1464q0 -144 -91 -242t-247 -98t-240 94t-84 246h156q0 -201 174 -204q84 2 129 55t45 149h158zM598 -20q-238 0 -383 152t-145 378q0 225 152 380q153 154 379 154t377 -150t150 -376v-76
h-849q18 -120 104 -196t217 -76q213 0 277 174h235q-59 -172 -190 -268t-324 -96z" />
    <glyph glyph-name="Edotaccent" unicode="&#x116;" horiz-adv-x="1105" 
d="M492 1614v282h219v-282h-219zM115 0v1495h897v-211h-674v-428h674v-211h-674v-432h674v-213h-897z" />
    <glyph glyph-name="edotaccent" unicode="&#x117;" horiz-adv-x="1200" 
d="M500 1143v282h219v-282h-219zM605 850q-115 0 -197 -62t-115 -161h612q-27 106 -106 165q-80 58 -194 58zM598 -20q-238 0 -383 152t-145 378q0 225 152 380q153 154 379 154t377 -150t150 -376v-76h-849q18 -120 104 -196t217 -76q213 0 277 174h235q-59 -172 -190 -268
t-324 -96z" />
    <glyph glyph-name="Eogonek" unicode="&#x118;" horiz-adv-x="1105" 
d="M115 0v1495h897v-211h-674v-428h674v-211h-674v-432h674v-211l10 -4q-164 -102 -212 -144t-48 -85q0 -72 100 -72q61 0 137 63l146 -98q-131 -117 -269 -117q-138 -1 -219 61q-80 62 -79 154q0 131 161 240h-624z" />
    <glyph glyph-name="eogonek" unicode="&#x119;" horiz-adv-x="1200" 
d="M605 850q-115 0 -197 -62t-115 -161h612q-27 106 -106 165q-80 58 -194 58zM648 -444q-138 0 -218 61t-80 154q0 119 135 219q-190 35 -303 179q-112 144 -112 355t152 366q153 154 379 154t377 -150t150 -376v-76h-849q18 -120 104 -196t217 -76q213 0 277 174h235
q-90 -258 -319 -336h2q-164 -102 -212 -144t-48 -85q0 -72 100 -72q61 0 137 64l146 -99q-132 -116 -270 -116z" />
    <glyph glyph-name="Ecaron" unicode="&#x11a;" horiz-adv-x="1105" 
d="M487 1606l-243 340h188l131 -193l135 193h187l-244 -340h-154zM115 0v1495h897v-211h-674v-428h674v-211h-674v-432h674v-213h-897z" />
    <glyph glyph-name="ecaron" unicode="&#x11b;" horiz-adv-x="1200" 
d="M605 850q-115 0 -197 -62t-115 -161h612q-27 106 -106 165q-80 58 -194 58zM530 1135l-243 340h188l131 -193l135 193h187l-244 -340h-154zM598 -20q-238 0 -383 152t-145 378q0 225 152 380q153 154 379 154t377 -150t150 -376v-76h-849q18 -120 104 -196t217 -76
q213 0 277 174h235q-59 -172 -190 -268t-324 -96z" />
    <glyph glyph-name="Gcircumflex" unicode="&#x11c;" horiz-adv-x="1675" 
d="M1604 748q0 -316 -211 -542t-542 -226t-555 224t-224 545t224 543t552 224q256 0 462 -154t265 -387h-246q-61 149 -187 237t-304 88q-229 0 -386 -162t-157 -390t158 -390t378 -162t360 120q140 118 179 305h-532v210h766v-83zM516 1606l244 340h153l244 -340h-186
l-135 192l-131 -192h-189z" />
    <glyph glyph-name="gcircumflex" unicode="&#x11d;" horiz-adv-x="1247" 
d="M303 1135l244 340h153l244 -340h-186l-135 192l-131 -192h-189zM287 514q0 -140 93 -236q93 -98 231 -98q139 0 231 98t92 236q0 140 -92 236t-230 96t-232 -96q-93 -96 -93 -236zM580 -20q-205 0 -358 148q-152 148 -152 385t151 384q152 147 361 147q100 0 190 -43
t150 -116v139h219v-1006q1 -229 -141 -371q-142 -143 -355 -143t-345 106t-177 284h237q68 -188 283 -189q123 0 202 88t79 219v133q-60 -77 -152 -121t-192 -44z" />
    <glyph glyph-name="Gbreve" unicode="&#x11e;" horiz-adv-x="1675" 
d="M1165 1937q-1 -145 -91 -243t-246 -97t-240 95t-84 245h155q0 -201 175 -204q84 2 129 55t45 149h157zM1604 748q0 -316 -211 -542t-542 -226t-555 224t-224 545t224 543t552 224q256 0 462 -154t265 -387h-246q-61 149 -187 237t-304 88q-229 0 -386 -162t-157 -390
t158 -390t378 -162t360 120q140 118 179 305h-532v210h766v-83z" />
    <glyph glyph-name="gbreve" unicode="&#x11f;" horiz-adv-x="1247" 
d="M954 1464q0 -144 -90 -242t-247 -98q-156 0 -240 94t-84 246h156q0 -201 174 -204q84 2 129 55t45 149h157zM287 514q0 -140 93 -236q93 -98 231 -98q139 0 231 98t92 236q0 140 -92 236t-230 96t-232 -96q-93 -96 -93 -236zM580 -20q-205 0 -358 148q-152 148 -152 385
t151 384q152 147 361 147q100 0 190 -43t150 -116v139h219v-1006q1 -229 -141 -371q-142 -143 -355 -143t-345 106t-177 284h237q68 -188 283 -189q123 0 202 88t79 219v133q-60 -77 -152 -121t-192 -44z" />
    <glyph glyph-name="Gdotaccent" unicode="&#x120;" horiz-adv-x="1675" 
d="M733 1614v282h219v-282h-219zM1604 748q0 -316 -211 -542t-542 -226t-555 224t-224 545t224 543t552 224q256 0 462 -154t265 -387h-246q-61 149 -187 237t-304 88q-229 0 -386 -162t-157 -390t158 -390t378 -162t360 120q140 118 179 305h-532v210h766v-83z" />
    <glyph glyph-name="gdotaccent" unicode="&#x121;" horiz-adv-x="1247" 
d="M489 1143v282h220v-282h-220zM287 514q0 -140 93 -236q93 -98 231 -98q139 0 231 98t92 236q0 140 -92 236t-230 96t-232 -96q-93 -96 -93 -236zM580 -20q-205 0 -358 148q-152 148 -152 385t151 384q152 147 361 147q100 0 190 -43t150 -116v139h219v-1006
q1 -229 -141 -371q-142 -143 -355 -143t-345 106t-177 284h237q68 -188 283 -189q123 0 202 88t79 219v133q-60 -77 -152 -121t-192 -44z" />
    <glyph glyph-name="Gcommaaccent" unicode="&#x122;" horiz-adv-x="1675" 
d="M1604 748q0 -316 -211 -542t-542 -226t-555 224t-224 545t224 543t552 224q256 0 462 -154t265 -387h-246q-61 149 -187 237t-304 88q-229 0 -386 -162t-157 -390t158 -390t378 -162t360 120q140 118 179 305h-532v210h766v-83zM825 -524h-141l78 418h196z" />
    <glyph glyph-name="gcommaaccent" unicode="&#x123;" horiz-adv-x="1247" 
d="M674 1126h-142l78 418h197zM287 514q0 -140 93 -236q93 -98 231 -98q139 0 231 98t92 236q0 140 -92 236t-230 96t-232 -96q-93 -96 -93 -236zM580 -20q-205 0 -358 148q-152 148 -152 385t151 384q152 147 361 147q100 0 190 -43t150 -116v139h219v-1006
q1 -229 -141 -371q-142 -143 -355 -143t-345 106t-177 284h237q68 -188 283 -189q123 0 202 88t79 219v133q-60 -77 -152 -121t-192 -44z" />
    <glyph glyph-name="Hcircumflex" unicode="&#x124;" horiz-adv-x="1349" 
d="M352 1606l244 340h154l243 -340h-186l-135 192l-131 -192h-189zM1014 0v645h-676v-645h-223v1495h223v-637h676v637h221v-1495h-221z" />
    <glyph glyph-name="hcircumflex" unicode="&#x125;" horiz-adv-x="1157" 
d="M-109 1595l244 340h154l243 -340h-186l-135 193l-131 -193h-189zM106 0v1495h218v-600q114 149 312 149t308 -118t111 -328v-598h-224v578q0 132 -62 204t-180 72t-191 -79t-72 -212v-563h-220z" />
    <glyph glyph-name="Hbar" unicode="&#x126;" horiz-adv-x="1441" 
d="M381 858h676v234h-676v-234zM33 1092v170h125v233h223v-233h676v233h221v-233h125v-170h-125v-1092h-221v645h-676v-645h-223v1092h-125z" />
    <glyph glyph-name="hbar" unicode="&#x127;" horiz-adv-x="1177" 
d="M8 1159v160h119v176h217v-176h143v-160h-143v-264q114 149 312 149t309 -118t110 -328v-598h-223v578q0 132 -62 204t-180 72t-192 -79q-72 -79 -72 -212v-563h-219v1159h-119z" />
    <glyph glyph-name="Itilde" unicode="&#x128;" horiz-adv-x="471" 
d="M-94 1606q0 118 57 190t141 72t172 -53q82 -53 117 -54q68 0 68 99h145q0 -123 -54 -193t-157 -70q-70 1 -159 53t-121 52q-63 0 -64 -96h-145zM129 0v1495h223v-1495h-223z" />
    <glyph glyph-name="itilde" unicode="&#x129;" horiz-adv-x="430" 
d="M-131 1135q0 119 57 191q56 72 140 71q84 1 170 -53t120 -54q68 0 68 99h145q0 -123 -54 -193t-157 -70q-70 0 -159 52t-121 53q-63 0 -64 -96h-145zM104 0v1024h222v-1024h-222z" />
    <glyph glyph-name="Imacron" unicode="&#x12a;" horiz-adv-x="481" 
d="M-31 1606v157h541v-157h-541zM129 0v1495h223v-1495h-223z" />
    <glyph glyph-name="imacron" unicode="&#x12b;" horiz-adv-x="430" 
d="M-55 1135v157h540v-157h-540zM104 0v1024h222v-1024h-222z" />
    <glyph glyph-name="Ibreve" unicode="&#x12c;" horiz-adv-x="481" 
d="M567 1937q-1 -145 -91 -243t-246 -97t-240 95t-84 245h155q0 -201 175 -204q84 2 129 55t45 149h157zM129 0v1495h223v-1495h-223z" />
    <glyph glyph-name="ibreve" unicode="&#x12d;" horiz-adv-x="430" 
d="M545 1464q0 -144 -91 -242t-247 -98t-240 94t-84 246h156q0 -201 174 -204q84 2 129 55t45 149h158zM104 0v1024h222v-1024h-222z" />
    <glyph glyph-name="Iogonek" unicode="&#x12e;" horiz-adv-x="481" 
d="M249 -459q-126 0 -196 65t-71 158q-2 133 147 254v1477h223v-1495h-4q-188 -131 -188 -221q0 -37 24 -60t73 -23q48 0 108 60l127 -112q-117 -103 -243 -103z" />
    <glyph glyph-name="iogonek" unicode="&#x12f;" horiz-adv-x="430" 
d="M104 1176v286h222v-286h-222zM222 -459q-126 0 -196 65t-71 158q-2 135 149 256v1004h222v-1024h-4q-188 -131 -189 -221q0 -37 25 -60q24 -23 72 -23t108 60l127 -112q-117 -103 -243 -103z" />
    <glyph glyph-name="Idotaccent" unicode="&#x130;" horiz-adv-x="481" 
d="M131 1614v282h219v-282h-219zM129 0v1495h223v-1495h-223z" />
    <glyph glyph-name="dotlessi" unicode="&#x131;" horiz-adv-x="430" 
d="M104 0v1024h222v-1024h-222z" />
    <glyph glyph-name="IJ" unicode="&#x132;" horiz-adv-x="1099" 
d="M104 0v1495h224v-1495h-224zM483 0v215h101q102 0 143 44t41 157v1079h221v-1075q0 -224 -85 -322t-300 -98h-121z" />
    <glyph glyph-name="ij" unicode="&#x133;" horiz-adv-x="806" 
d="M483 1165v287h219v-287h-219zM104 1165v287h222v-287h-222zM104 0v1024h222v-1024h-222zM104 -430v207h160q141 0 180 38t39 175v1034h219v-1036q0 -236 -88 -327t-317 -91h-193z" />
    <glyph glyph-name="Jcircumflex" unicode="&#x134;" horiz-adv-x="993" 
d="M883 410q1 -198 -109 -314t-302 -116t-306 105q-115 105 -115 294l142 4l83 -6q0 -86 54 -139q54 -54 141 -54q86 0 138 62t53 166v1083h221v-1085zM430 1606l244 340h153l244 -340h-186l-135 192l-132 -192h-188z" />
    <glyph glyph-name="jcircumflex" unicode="&#x135;" horiz-adv-x="432" 
d="M-115 -471v207q141 0 181 38q39 38 38 175v1075h224v-1077q0 -240 -88 -329t-322 -89h-33zM-106 1135l243 340h154l244 -340h-187l-135 192l-131 -192h-188z" />
    <glyph glyph-name="Kcommaaccent" unicode="&#x136;" horiz-adv-x="1292" 
d="M633 -524h-141l77 418h197zM338 0h-223v1495h223v-713l594 713h272l-491 -590l544 -905h-253l-449 752l-217 -260v-492z" />
    <glyph glyph-name="kcommaaccent" unicode="&#x137;" horiz-adv-x="1103" 
d="M528 -514h-141l78 418h197zM324 0h-218v1495h218v-979l460 508h265l-400 -438l410 -586h-246l-317 455l-172 -189v-266z" />
    <glyph glyph-name="kgreenlandic" unicode="&#x138;" horiz-adv-x="1097" 
d="M324 0h-218v1024h218v-508l460 508h265l-400 -438l410 -586h-246l-317 455l-172 -189v-266z" />
    <glyph glyph-name="Lacute" unicode="&#x139;" horiz-adv-x="1036" 
d="M133 1606l238 340h233l-303 -340h-168zM115 0v1495h223v-1282h604v-213h-827z" />
    <glyph glyph-name="lacute" unicode="&#x13a;" horiz-adv-x="432" 
d="M106 0v1495h220v-1495h-220zM129 1595l238 340h233l-303 -340h-168z" />
    <glyph glyph-name="Lcommaaccent" unicode="&#x13b;" horiz-adv-x="1036" 
d="M115 0v1495h223v-1282h604v-213h-827zM492 -524h-142l78 418h197z" />
    <glyph glyph-name="lcommaaccent" unicode="&#x13c;" horiz-adv-x="432" 
d="M106 0v1495h220v-1495h-220zM186 -514h-141l78 418h196z" />
    <glyph glyph-name="Lcaron" unicode="&#x13d;" horiz-adv-x="1036" 
d="M115 0v1495h223v-1282h604v-213h-827zM535 1133l65 362h186l-110 -362h-141z" />
    <glyph glyph-name="lcaron" unicode="&#x13e;" horiz-adv-x="538" 
d="M100 0v1495h219v-1495h-219zM432 1133l66 362h186l-111 -362h-141z" />
    <glyph glyph-name="Ldot" unicode="&#x13f;" horiz-adv-x="1044" 
d="M723 598v283h219v-283h-219zM115 0v1495h223v-1282h604v-213h-827z" />
    <glyph glyph-name="ldot" unicode="&#x140;" horiz-adv-x="772" 
d="M477 399v283h219v-283h-219zM106 0v1495h220v-1495h-220z" />
    <glyph glyph-name="Lslash" unicode="&#x141;" horiz-adv-x="1110" 
d="M188 1495h224v-571l258 80v-160l-258 -80v-551h604v-213h-828v694l-157 -47v160l157 47v641z" />
    <glyph glyph-name="lslash" unicode="&#x142;" horiz-adv-x="673" 
d="M223 1495h221v-573l191 55v-160l-191 -55v-762h-221v696l-184 -53v160l184 53v639z" />
    <glyph glyph-name="Nacute" unicode="&#x143;" horiz-adv-x="1460" 
d="M115 0v1495h252l757 -1130v1130h222v-1495h-236l-772 1149v-1149h-223zM655 1606l238 340h233l-303 -340h-168z" />
    <glyph glyph-name="nacute" unicode="&#x144;" horiz-adv-x="1155" 
d="M104 0v1024h218v-133q114 153 312 153t308 -118t111 -328v-598h-222v580q0 130 -63 202t-180 72t-191 -79t-73 -212v-563h-220zM502 1135l237 340h234l-303 -340h-168z" />
    <glyph glyph-name="Ncommaaccent" unicode="&#x145;" horiz-adv-x="1460" 
d="M690 -524h-141l78 418h196zM115 0v1495h252l757 -1130v1130h222v-1495h-236l-772 1149v-1149h-223z" />
    <glyph glyph-name="ncommaaccent" unicode="&#x146;" horiz-adv-x="1155" 
d="M578 -514h-142l78 418h197zM104 0v1024h218v-133q114 153 312 153t308 -118t111 -328v-598h-222v580q0 130 -63 202t-180 72t-191 -79t-73 -212v-563h-220z" />
    <glyph glyph-name="Ncaron" unicode="&#x147;" horiz-adv-x="1460" 
d="M655 1606l-243 340h188l131 -193l135 193h187l-244 -340h-154zM115 0v1495h252l757 -1130v1130h222v-1495h-236l-772 1149v-1149h-223z" />
    <glyph glyph-name="ncaron" unicode="&#x148;" horiz-adv-x="1155" 
d="M506 1135l-244 340h189l131 -193l135 193h186l-244 -340h-153zM104 0v1024h218v-133q114 153 312 153t308 -118t111 -328v-598h-222v580q0 130 -63 202t-180 72t-191 -79t-73 -212v-563h-220z" />
    <glyph glyph-name="Eng" unicode="&#x14a;" horiz-adv-x="1460" 
d="M918 -436v215h26q106 2 143 43t37 153v54l-786 1128v-1157h-223v1495h252l757 -1089v1089h222v-1515q0 -224 -86 -320t-295 -96h-47z" />
    <glyph glyph-name="eng" unicode="&#x14b;" horiz-adv-x="1155" 
d="M610 -471v207q141 0 182 38q40 38 39 175v631q0 130 -63 202t-180 72t-191 -79t-73 -212v-563h-220v1024h218v-133q114 153 312 153t308 -118t111 -328v-651q0 -240 -88 -329t-322 -89h-33z" />
    <glyph glyph-name="Omacron" unicode="&#x14c;" horiz-adv-x="1677" 
d="M295 748q0 -229 158 -390t386 -161q228 1 386 161q157 160 157 390t-157 391q-158 161 -386 161t-386 -162t-158 -390zM839 -20q-318 0 -543 225q-224 225 -224 543t224 542q224 226 542 226t543 -226t225 -542t-224 -542t-543 -226zM557 1606v157h541v-157h-541z" />
    <glyph glyph-name="omacron" unicode="&#x14d;" horiz-adv-x="1202" 
d="M287 512q0 -136 90 -232t222 -96t224 96t92 232q0 135 -92 231q-92 97 -224 97t-222 -96t-90 -232zM600 -20q-221 0 -376 154t-154 378q0 223 154 378q155 154 376 154t376 -154q154 -154 154 -378q0 -223 -154 -378q-155 -154 -376 -154zM332 1135v157h540v-157h-540z
" />
    <glyph glyph-name="Obreve" unicode="&#x14e;" horiz-adv-x="1677" 
d="M1157 1937q0 -145 -91 -243t-247 -97q-155 1 -239 95t-84 245h155q0 -201 174 -204q84 2 129 55t45 149h158zM295 748q0 -229 158 -390t386 -161q228 1 386 161q157 160 157 390t-157 391q-158 161 -386 161t-386 -162t-158 -390zM839 -20q-318 0 -543 225
q-224 225 -224 543t224 542q224 226 542 226t543 -226t225 -542t-224 -542t-543 -226z" />
    <glyph glyph-name="obreve" unicode="&#x14f;" horiz-adv-x="1202" 
d="M932 1464q0 -144 -91 -242t-247 -98t-240 94t-84 246h156q0 -201 174 -204q84 2 129 55t45 149h158zM287 512q0 -136 90 -232t222 -96t224 96t92 232q0 135 -92 231q-92 97 -224 97t-222 -96t-90 -232zM600 -20q-221 0 -376 154t-154 378q0 223 154 378q155 154 376 154
t376 -154q154 -154 154 -378q0 -223 -154 -378q-155 -154 -376 -154z" />
    <glyph glyph-name="Ohungarumlaut" unicode="&#x150;" horiz-adv-x="1677" 
d="M295 748q0 -229 158 -390t386 -161q228 1 386 161q157 160 157 390t-157 391q-158 161 -386 161t-386 -162t-158 -390zM839 -20q-318 0 -543 225q-224 225 -224 543t224 542q224 226 542 226t543 -226t225 -542t-224 -542t-543 -226zM889 1606l237 340h222l-304 -340
h-155zM573 1606l236 340h221l-303 -340h-154z" />
    <glyph glyph-name="ohungarumlaut" unicode="&#x151;" horiz-adv-x="1202" 
d="M287 512q0 -136 90 -232t222 -96t224 96t92 232q0 135 -92 231q-92 97 -224 97t-222 -96t-90 -232zM600 -20q-221 0 -376 154t-154 378q0 223 154 378q155 154 376 154t376 -154q154 -154 154 -378q0 -223 -154 -378q-155 -154 -376 -154zM676 1135l237 340h222
l-304 -340h-155zM360 1135l236 340h221l-303 -340h-154z" />
    <glyph glyph-name="OE" unicode="&#x152;" horiz-adv-x="2373" 
d="M838 199q227 1 386 161t158 388v22q-10 221 -167 375q-157 153 -381 153t-382 -162q-159 -162 -159 -388q0 -227 159 -388t386 -161zM1382 0v223q-213 -243 -537 -243t-549 225q-224 225 -224 543t224 542q224 226 549 226t537 -246v225h897v-211h-673v-428h673v-211
h-673v-432h673v-213h-897z" />
    <glyph glyph-name="oe" unicode="&#x153;" horiz-adv-x="2050" 
d="M1453 850q-114 0 -197 -62t-115 -165h612q-27 109 -106 168q-80 59 -194 59zM600 184q133 0 225 96q93 96 93 233q0 136 -92 231q-92 96 -226 96q-133 0 -224 -96t-91 -231q0 -137 91 -233t224 -96zM600 -20q-221 0 -376 154t-154 378q0 223 154 378q155 155 376 154
q135 0 246 -58t180 -161q152 219 424 219q227 0 377 -148t149 -376v-82h-846q20 -120 108 -194t200 -74q114 0 188 49t105 129h231q-57 -174 -189 -271t-325 -97q-131 0 -243 58t-181 159q-70 -101 -180 -159t-244 -58z" />
    <glyph glyph-name="Racute" unicode="&#x154;" horiz-adv-x="1196" 
d="M115 0v1495h465q232 0 380 -139t148 -348q0 -156 -85 -281t-239 -172l357 -555h-256l-451 713h121q156 0 243 90t87 212q0 121 -84 197t-244 76h-219v-1288h-223zM436 1606l238 340h233l-303 -340h-168z" />
    <glyph glyph-name="racute" unicode="&#x155;" horiz-adv-x="798" 
d="M104 0v1024h220v-158q84 158 282 158h121v-209h-154q-133 0 -190 -73t-57 -234v-508h-222zM334 1135l237 340h234l-303 -340h-168z" />
    <glyph glyph-name="Rcommaaccent" unicode="&#x156;" horiz-adv-x="1196" 
d="M580 -524h-142l78 418h197zM115 0v1495h465q232 0 380 -139t148 -348q0 -156 -85 -281t-239 -172l357 -555h-256l-451 713h121q156 0 243 90t87 212q0 121 -84 197t-244 76h-219v-1288h-223z" />
    <glyph glyph-name="rcommaaccent" unicode="&#x157;" horiz-adv-x="798" 
d="M104 0v1024h220v-158q84 158 282 158h121v-209h-154q-133 0 -190 -73t-57 -234v-508h-222zM195 -514h-142l78 418h197z" />
    <glyph glyph-name="Rcaron" unicode="&#x158;" horiz-adv-x="1196" 
d="M477 1606l-244 340h189l131 -193l135 193h186l-243 -340h-154zM115 0v1495h465q232 0 380 -139t148 -348q0 -156 -85 -281t-239 -172l357 -555h-256l-451 713h121q156 0 243 90t87 212q0 121 -84 197t-244 76h-219v-1288h-223z" />
    <glyph glyph-name="rcaron" unicode="&#x159;" horiz-adv-x="798" 
d="M332 1135l-244 340h188l132 -193l135 193h186l-244 -340h-153zM104 0v1024h220v-158q84 158 282 158h121v-209h-154q-133 0 -190 -73t-57 -234v-508h-222z" />
    <glyph glyph-name="Sacute" unicode="&#x15a;" horiz-adv-x="1118" 
d="M422 1606l237 340h234l-303 -340h-168zM564 -20q-228 0 -360 124t-132 349h229v-15q0 -114 74 -184q75 -70 191 -70t184 62t67 164q0 124 -136 192q-56 29 -165 71q-108 41 -166 71q-172 88 -221 204q-33 74 -33 168q0 178 128 289t340 111t337 -114t123 -321h-219v17
q0 106 -66 164t-177 59q-111 0 -176 -55q-64 -55 -64 -137t45 -124q27 -26 45 -41t68 -39t123 -51q185 -67 315 -170q129 -103 129 -287q0 -185 -127 -312q-128 -125 -356 -125z" />
    <glyph glyph-name="sacute" unicode="&#x15b;" horiz-adv-x="870" 
d="M805 299q-1 -129 -95 -224t-269 -95t-275 89t-100 257h223v-4q2 -76 45 -113t114 -37q72 0 108 34t36 83t-20 66t-34 27q-13 10 -38 18q-25 10 -43 16t-50 17q-172 59 -244 126q-73 66 -73 192t92 210q92 83 254 83t259 -82t98 -233h-215v2q0 133 -140 133q-61 0 -95 -32
t-34 -67q0 -36 10 -53q22 -38 156 -84q49 -17 68 -24q121 -44 191 -110t71 -195zM281 1135l237 340h234l-303 -340h-168z" />
    <glyph glyph-name="Scircumflex" unicode="&#x15c;" horiz-adv-x="1118" 
d="M564 -20q-228 0 -360 124t-132 349h229v-15q0 -114 74 -184q75 -70 191 -70t184 62t67 164q0 124 -136 192q-56 29 -165 71q-108 41 -166 71q-172 88 -221 204q-33 74 -33 168q0 178 128 289t340 111t337 -114t123 -321h-219v17q0 106 -66 164t-177 59q-111 0 -176 -55
q-64 -55 -64 -137t45 -124q27 -26 45 -41t68 -39t123 -51q185 -67 315 -170q129 -103 129 -287q0 -185 -127 -312q-128 -125 -356 -125zM203 1606l243 340h154l244 -340h-187l-135 192l-131 -192h-188z" />
    </font>
</defs>
</svg>
