<?xml version="1.0" standalone="no"?>
<!DOCTYPE svg PUBLIC "-//W3C//DTD SVG 1.1//EN" "http://www.w3.org/Graphics/SVG/1.1/DTD/svg11.dtd" >
<svg xmlns="http://www.w3.org/2000/svg">
<metadata>
Created by FontPrep 20130207 at Sat Apr 25 19:03:33 2015
 By Andrew Poes
Copyright 2013 Adobe Systems Incorporated. All rights reserved.
</metadata>
<defs>
<font id="931c3dc3ac47f4490703af77fa0a081c" horiz-adv-x='1024' >
  <font-face 
    font-family="SharpSansNoTwo-Light"
    font-weight="400"
    font-stretch="normal"
    units-per-em="2048"
    panose-1="0 0 0 0 0 0 0 0 0 0"
    ascent="1536"
    descent="-512"
    x-height="1024"
    cap-height="1495"
    bbox="-170 -575 3217 2191"
    underline-thickness="102"
    underline-position="-102"
    unicode-range="U+0020-FF3F"
  />
<missing-glyph horiz-adv-x="0" 
 />
    <glyph glyph-name="AE" unicode="AE" horiz-adv-x="2164" 
d="M907 1393l-473 -879h662zM1997 1495v-72h-1020l135 -639h885v-71h-869l136 -639h733v-74h-791l-96 444h-713l-239 -444h-86l805 1495h1120z" />
    <glyph glyph-name="interrobang" unicode="&#x21;&#x3f;" horiz-adv-x="1089" 
d="M498 0v281h77v-281h-77zM885 1180q0 102 -88 179t-222 87v-191q0 -115 -10 -565q33 72 91 132t107 96q122 88 122 262zM500 1255v191q-140 -12 -224 -93t-83 -208h-82q0 164 121 267q122 104 308 104t304 -98q119 -98 119 -245q0 -148 -78 -236q-35 -38 -76 -71
q-111 -90 -160 -155q-78 -105 -78 -303v-17h-67q-4 324 -4 864z" />
    <glyph glyph-name="interrobangdown" unicode="&#xa1;&#xbf;" horiz-adv-x="1087" 
d="M586 1024v-281h-78v281h78zM510 -231q0 203 8 567q-48 -108 -156 -195q-42 -33 -80 -69q-84 -79 -83 -205q0 -125 88 -202t223 -87v191zM514 633h66q6 -485 6 -864v-191q139 12 223 93t84 208h80q0 -164 -121 -267q-121 -104 -307 -104t-304 96t-118 248q0 151 78 235
q35 38 75 71q112 91 160 155q80 107 78 303v17z" />
    <glyph glyph-name="C_A" unicode="CA" horiz-adv-x="2383" 
d="M2146 514v866l-657 -866h657zM891 -20q-322 0 -547 224t-225 544t225 543q225 224 547 225q237 0 429 -132t273 -344l-61 -45q-76 199 -251 323t-394 124q-287 0 -489 -204t-202 -490t202 -491q202 -204 489 -204q84 0 178 25l1073 1417h84v-1495h-76v444h-710l-326 -432
q-100 -32 -219 -32z" />
    <glyph glyph-name="C_O" unicode="CO" horiz-adv-x="2574" 
d="M924 748q0 182 78 341q79 159 219 265q-160 88 -340 88q-287 0 -489 -204t-202 -490t202 -491q202 -204 489 -204q186 0 340 88q-139 109 -219 267q-78 158 -78 340zM1694 53q286 0 488 204t202 491q0 286 -202 490t-488 204q-180 0 -340 -88q188 -143 260 -365h-82
q-72 197 -244 322q-133 -97 -210 -245t-77 -318t77 -320t210 -244q164 121 240 312h84q-76 -211 -260 -355q160 -88 342 -88zM881 -20q-317 0 -543 225q-225 225 -225 543t225 542q225 225 543 226q223 0 407 -117q184 117 406 117q317 0 542 -226q226 -226 226 -542
t-226 -542t-542 -226q-219 0 -408 116q-184 -116 -405 -116z" />
    <glyph glyph-name="E_A" unicode="EA" horiz-adv-x="2076" 
d="M1839 514v866l-657 -866h657zM162 0v1495h774v-72h-698v-639h698v-71h-698v-639h520l1075 1421h82v-1495h-76v444h-709l-335 -444h-633z" />
    <glyph glyph-name="E_C" unicode="EC" horiz-adv-x="2469" 
d="M1638 -20q-311 0 -533 213t-237 520h-630v-639h843v-74h-919v1495h919v-72h-843v-639h630q16 304 238 518t532 214q250 0 452 -148t275 -379h-84q-72 201 -247 327q-176 126 -400 126q-276 0 -475 -192t-213 -466h107v-71h-107q14 -275 212 -467t476 -193q217 0 391 123
t252 320h84q-80 -229 -278 -373q-199 -143 -445 -143z" />
    <glyph glyph-name="E_C_O" unicode="ECO" horiz-adv-x="3330" 
d="M1047 713h-101q14 -275 212 -467t476 -193q186 0 340 88q-139 109 -218 267t-79 340t79 341t218 265q-160 88 -340 88q-276 0 -475 -192t-213 -466h101v-71zM2447 53q287 0 489 204t202 491q0 286 -202 490t-489 204q-180 0 -340 -88q186 -143 263 -365h-84
q-72 197 -244 322q-133 -97 -210 -245t-77 -318t77 -320t210 -244q164 121 239 312h84q-76 -211 -260 -355q160 -88 342 -88zM1634 -20q-309 0 -530 213t-236 520h-630v-639h843v-74h-919v1495h919v-72h-843v-639h630q16 304 238 518t528 214q223 0 408 -117
q188 117 405 117q319 0 543 -226t225 -542q0 -316 -224 -542t-544 -226q-219 0 -407 116q-185 -116 -406 -116z" />
    <glyph glyph-name="E_G" unicode="EG" horiz-adv-x="2508" 
d="M1644 -20q-322 0 -541 213q-220 213 -235 520h-630v-639h843v-74h-919v1495h919v-72h-843v-639h630q16 304 238 518t532 214q246 0 444 -140t275 -364h-84q-76 194 -249 312t-390 118q-276 0 -475 -192t-213 -466h107v-71h-107q14 -275 212 -467t480 -192t474 184
q192 186 210 460h-688v74h766v-24q0 -322 -217 -545t-539 -223z" />
    <glyph glyph-name="E_M" unicode="EM" horiz-adv-x="3201" 
d="M162 0v1495h774v-72h-698v-639h698v-71h-698v-639h518l1075 1421h82v-1380l1044 1380h84v-1495h-78v1380l-1044 -1380h-82v1380l-1042 -1380h-633z" />
    <glyph glyph-name="E_O" unicode="EO" horiz-adv-x="2514" 
d="M1638 51q283 0 484 204t200 493q0 288 -200 492t-484 204q-282 0 -480 -192t-212 -468h107v-71h-107q14 -276 212 -469t480 -193zM1638 -20q-313 0 -535 213t-237 520h-628v-639h843v-74h-919v1495h919v-72h-843v-639h628q16 304 238 518t535 214q311 0 537 -226
t226 -542q0 -317 -225 -543q-226 -225 -539 -225z" />
    <glyph glyph-name="E_V" unicode="EV" horiz-adv-x="2076" 
d="M162 0v1495h633l1044 -1382v1382h76v-1495h-84l-1075 1423h-518v-641h698v-71h-698v-637h698v-74h-774z" />
    <glyph glyph-name="E_W" unicode="EW" horiz-adv-x="3205" 
d="M162 0v1495h635l1042 -1382v1382h82l1047 -1384v1384h75v-1495h-84l-1042 1380v-1380h-84l-1075 1423h-520v-641h698v-71h-698v-637h698v-74h-774z" />
    <glyph glyph-name="E_Y" unicode="EY" horiz-adv-x="2068" 
d="M1413 0v713l-461 710h-714v-641h708v-69h-708v-639h708v-74h-784v1495h831l457 -709l457 709h86l-504 -782v-713h-76z" />
    <glyph glyph-name="E_X" unicode="EX" horiz-adv-x="2146" 
d="M979 713h-741v-639h708l490 704l-445 645h-753v-639h741v-71zM162 0v1495h866l455 -657l450 657h90l-495 -719l538 -776h-88l-497 715l-496 -715h-823z" />
    <glyph glyph-name="F_O" unicode="FO" horiz-adv-x="2508" 
d="M1632 51q283 0 484 204t200 493q0 288 -200 492t-484 204t-482 -193t-212 -469h94v-69h-94q14 -276 212 -469t482 -193zM1632 -20q-313 0 -535 213t-237 520h-622v-713h-76v1495h919v-72h-843v-641h622q14 306 236 520t536 214q312 0 538 -226t226 -542q0 -317 -225 -543
q-226 -225 -539 -225z" />
    <glyph glyph-name="H_S" unicode="HS" horiz-adv-x="2535" 
d="M1868 -20q-690 0 -690 722v9h-940v-711h-76v1495h76v-713h940v713h75v-793q0 -651 615 -651q233 0 353 112t120 257t-117 223q-95 63 -217 98q-123 36 -171 53q-142 50 -205 121q-83 95 -83 249q0 153 118 252q118 100 303 100t305 -104t120 -282h-78v11q0 135 -98 221
t-248 86t-248 -81t-98 -224t114 -216q60 -39 114 -59t150 -49q315 -96 386 -245q33 -67 33 -152q-1 -176 -143 -309t-410 -133z" />
    <glyph glyph-name="I_S" unicode="IS" horiz-adv-x="1515" 
d="M848 -20q-690 0 -690 722v793h78v-793q0 -651 612 -651q233 0 354 112t121 254t-97 212t-314 134t-300 152q-84 94 -84 248t119 253q119 100 304 100t305 -104t118 -282h-78v11q0 135 -98 221t-249 86t-248 -81t-97 -214q0 -171 157 -252q74 -38 195 -75q121 -36 187 -66
q175 -78 227 -186q33 -67 33 -152q1 -176 -143 -309t-412 -133z" />
    <glyph glyph-name="I_T" unicode="IT" horiz-adv-x="1304" 
d="M162 0v1278h76v-1278h-76zM643 0v1423h-481v72h1040v-72h-481v-1423h-78z" />
    <glyph glyph-name="I_T_I" unicode="ITI" horiz-adv-x="1363" 
d="M1126 0v1278h76v-1278h-76zM162 0v1278h76v-1278h-76zM643 0v1423h-481v72h1040v-72h-481v-1423h-78z" />
    <glyph glyph-name="I_T_Y" unicode="ITY" horiz-adv-x="2281" 
d="M162 0v1284h76v-1284h-76zM643 0v1423h-481v72h1042l457 -709l457 709h88l-506 -782v-713h-76v713l-461 710h-442v-1423h-78z" />
    <glyph glyph-name="K_A" unicode="KA" horiz-adv-x="1882" 
d="M1645 530v854l-646 -854h646zM238 0h-76v1495h76v-1034l802 1034h93l-471 -606l249 -357l727 963h84v-1495h-77v463h-684l325 -463h-90l-289 410l-309 -410h-88l354 469l-256 362l-370 -485v-346z" />
    <glyph glyph-name="L_A" unicode="LA" horiz-adv-x="1542" 
d="M1305 514v866l-658 -866h658zM162 0v1495h76v-1407l1060 1407h84v-1495h-77v444h-709l-281 -370h693v-74h-846z" />
    <glyph glyph-name="L_S" unicode="LS" horiz-adv-x="1492" 
d="M162 0v1495h76v-1421h692q160 0 264 92t104 227t-73 221q-29 33 -88 64t-99 44t-120 38t-124 40t-108 49t-96 71q-86 96 -85 248q1 151 120 249q119 99 304 99t305 -104t118 -282h-76v11q0 135 -99 221t-250 86t-247 -80t-96 -204t70 -201q28 -31 86 -60t100 -42t131 -41
q309 -96 376 -243q32 -71 31 -167q0 -180 -126 -295t-320 -115h-770z" />
    <glyph glyph-name="L_T" unicode="LT" horiz-adv-x="1589" 
d="M162 0v1495h76v-1421h483v-74h-559zM926 0v1423h-484v72h1045v-72h-483v-1423h-78z" />
    <glyph glyph-name="L_T_I" unicode="LTI" horiz-adv-x="1644" 
d="M1407 0v1278h78v-1278h-78zM162 0v1495h76v-1421h483v-74h-559zM926 0v1423h-484v72h1043v-72h-484v-1423h-75z" />
    <glyph glyph-name="L_Y" unicode="LY" horiz-adv-x="1804" 
d="M162 0v1495h76v-1421h698v-74h-774zM1147 0v715l-508 780h88l457 -709l456 709h89l-504 -778v-717h-78z" />
    <glyph glyph-name="M_A" unicode="MA" horiz-adv-x="3055" 
d="M2818 514v866l-657 -866h657zM1364 0h-82l-1044 1380v-1380h-76v1495h82l1044 -1380v1380h84l719 -952l721 952h82v-1495h-76v444h-653l336 -444h-93l-317 420l-317 -420h-93l363 481l-680 901v-1382z" />
    <glyph glyph-name="M_S" unicode="MS" horiz-adv-x="2906" 
d="M162 0v1495h76l645 -895l669 895h74v-793q0 -651 612 -651q233 0 355 112q121 112 121 254t-98 212t-315 134q-218 64 -300 155t-82 245t119 253q119 100 304 100t305 -104t118 -282h-78v11q0 135 -98 221t-249 86t-248 -81t-97 -205t64 -193t193 -112q44 -15 130 -41
q305 -92 379 -242q33 -67 32 -152q0 -176 -143 -309t-412 -133q-690 0 -690 722v668l-665 -895l-645 889v-1364h-76z" />
    <glyph glyph-name="O_C" unicode="OC" horiz-adv-x="2572" 
d="M1573 748q0 164 -71 306t-193 238q-123 -96 -193 -238t-70 -306t70 -308t193 -239q123 95 193 239t71 308zM881 53q197 0 366 105q-131 108 -206 262t-74 328q-1 174 73 328t205 261q-170 104 -364 105q-287 0 -489 -204t-202 -490t202 -491q202 -204 489 -204zM1745 -20
q-242 0 -434 131q-193 -131 -430 -131q-317 0 -543 225q-225 225 -225 543t225 542q225 225 543 226q231 0 428 -132q193 132 437 132t446 -148t278 -379h-84q-72 201 -249 327t-386 126t-379 -105q131 -106 206 -260q75 -155 75 -329t-74 -328t-205 -262q166 -104 374 -104
t383 122q175 123 251 320h84q-80 -228 -280 -372t-441 -144z" />
    <glyph glyph-name="O_O" unicode="OO" horiz-adv-x="2623" 
d="M1571 748q0 162 -70 304t-190 240q-121 -98 -190 -240t-69 -305t70 -305q68 -142 189 -239q121 99 191 241t69 304zM881 51q201 0 368 107q-129 108 -203 262t-73 328q0 174 74 328t202 261q-168 106 -368 107q-287 0 -488 -204t-201 -492t202 -493q200 -204 487 -204z
M1741 51q289 0 489 204t201 493q0 288 -201 492t-489 204q-197 0 -369 -109q127 -106 202 -261q75 -156 75 -328t-74 -326t-205 -262q168 -107 371 -107zM1741 -20q-240 0 -430 133q-193 -133 -430 -133q-317 0 -543 225q-225 225 -225 543t225 542q225 225 543 226
q236 0 430 -134q195 133 430 134q317 0 543 -226t225 -542q0 -317 -225 -543q-226 -225 -543 -225z" />
    <glyph glyph-name="R_A" unicode="RA" horiz-adv-x="2058" 
d="M1821 514v870l-660 -870h660zM162 0v1495h452q199 0 336 -134q137 -135 137 -317q-1 -182 -115 -312t-290 -150l215 -301l915 1214h84v-1495h-75v444h-711l-168 -221l160 -223h-92l-115 160l-121 -160h-90l164 217l-297 428h57q170 0 287 116q117 117 117 277t-116 273
t-286 112h-372v-1423h-76z" />
    <glyph glyph-name="S_T" unicode="ST" horiz-adv-x="1949" 
d="M549 -20q-197 0 -323 114t-126 303h76v-10q0 -147 106 -243t266 -95q159 0 263 93t104 243q0 192 -162 273q-57 30 -101 44t-169 53t-228 103q-130 83 -130 262t117 277t309 98h1296v-72h-483v-1423h-78v1423h-735q-158 1 -254 -77t-96 -203t71 -203q61 -65 268 -127
q116 -35 167 -53t110 -53q181 -107 178 -318q-1 -181 -125 -295t-321 -114z" />
    <glyph glyph-name="T_Y" unicode="TY" horiz-adv-x="2222" 
d="M586 0v1423h-484v72h1045l457 -704l454 704h88l-504 -782v-713h-75v713l-463 710h-440v-1423h-78z" />
    <glyph glyph-name="Cacute_A" unicode="&#x106;A" horiz-adv-x="2355" 
d="M860 1645l252 301h102l-276 -301h-78zM2120 514v866l-658 -866h658zM864 -20q-322 0 -547 224t-225 544t225 543q225 224 547 225q236 0 428 -132t275 -344l-62 -45q-76 199 -251 323t-394 124q-286 0 -488 -204t-202 -490t202 -491q202 -204 488 -204q84 0 178 25
l1073 1417h84v-1495h-75v444h-711l-326 -432q-100 -32 -219 -32z" />
    <glyph glyph-name="Ccircumflex_A" unicode="&#x108;A" horiz-adv-x="2355" 
d="M586 1645l243 301h66l244 -301h-82l-195 239l-192 -239h-84zM2120 514v866l-658 -866h658zM864 -20q-322 0 -547 224t-225 544t225 543q225 224 547 225q236 0 428 -132t275 -344l-62 -45q-76 199 -251 323t-394 124q-286 0 -488 -204t-202 -490t202 -491
q202 -204 488 -204q84 0 178 25l1073 1417h84v-1495h-75v444h-711l-326 -432q-100 -32 -219 -32z" />
    <glyph glyph-name="Ccaron_A" unicode="&#x10c;A" horiz-adv-x="2355" 
d="M831 1645l-243 301h82l192 -242l195 242h84l-244 -301h-66zM2120 514v866l-658 -866h658zM864 -20q-322 0 -547 224t-225 544t225 543q225 224 547 225q236 0 428 -132t275 -344l-62 -45q-76 199 -251 323t-394 124q-286 0 -488 -204t-202 -490t202 -491
q202 -204 488 -204q84 0 178 25l1073 1417h84v-1495h-75v444h-711l-326 -432q-100 -32 -219 -32z" />
    <glyph glyph-name="Ccedilla_A" unicode="&#xc7;A" horiz-adv-x="2355" 
d="M2120 514v866l-658 -866h658zM897 -453q-162 0 -268 107l61 39q96 -86 194 -86t151 35q55 35 55 86t-54 81t-145 29h-47v144q-315 8 -534 230q-218 222 -218 538t225 541q225 224 547 225q236 0 428 -132t275 -344l-62 -45q-76 199 -251 323t-394 124q-286 0 -488 -204
t-202 -490t202 -491q202 -204 488 -204q84 0 178 25l1073 1417h84v-1495h-75v444h-711l-326 -432q-86 -27 -176 -30v-95q115 0 186 -43q71 -44 71 -118t-76 -126q-74 -52 -191 -53z" />
    <glyph glyph-name="Cdotaccent_A" unicode="&#x10a;A" horiz-adv-x="2355" 
d="M825 1649v286h76v-286h-76zM2120 514v866l-658 -866h658zM864 -20q-322 0 -547 224t-225 544t225 543q225 224 547 225q236 0 428 -132t275 -344l-62 -45q-76 199 -251 323t-394 124q-286 0 -488 -204t-202 -490t202 -491q202 -204 488 -204q84 0 178 25l1073 1417h84
v-1495h-75v444h-711l-326 -432q-100 -32 -219 -32z" />
    <glyph glyph-name="C_Aacute" unicode="C&#xc1;" horiz-adv-x="2355" 
d="M2142 1645l252 301h103l-277 -301h-78zM2120 514v866l-658 -866h658zM864 -20q-322 0 -547 224t-225 544t225 543q225 224 547 225q236 0 428 -132t275 -344l-62 -45q-76 199 -251 323t-394 124q-286 0 -488 -204t-202 -490t202 -491q202 -204 488 -204q84 0 178 25
l1073 1417h84v-1495h-75v444h-711l-326 -432q-100 -32 -219 -32z" />
    <glyph glyph-name="C_Agrave" unicode="C&#xc0;" horiz-adv-x="2355" 
d="M2130 1645l-277 301h103l252 -301h-78zM2120 514v866l-658 -866h658zM864 -20q-322 0 -547 224t-225 544t225 543q225 224 547 225q236 0 428 -132t275 -344l-62 -45q-76 199 -251 323t-394 124q-286 0 -488 -204t-202 -490t202 -491q202 -204 488 -204q84 0 178 25
l1073 1417h84v-1495h-75v444h-711l-326 -432q-100 -32 -219 -32z" />
    <glyph glyph-name="C_Acircumflex" unicode="C&#xc2;" horiz-adv-x="2355" 
d="M1878 1645l244 301h65l244 -301h-82l-195 239l-192 -239h-84zM2120 514v866l-658 -866h658zM864 -20q-322 0 -547 224t-225 544t225 543q225 224 547 225q236 0 428 -132t275 -344l-62 -45q-76 199 -251 323t-394 124q-286 0 -488 -204t-202 -490t202 -491
q202 -204 488 -204q84 0 178 25l1073 1417h84v-1495h-75v444h-711l-326 -432q-100 -32 -219 -32z" />
    <glyph glyph-name="C_Adieresis" unicode="C&#xc4;" horiz-adv-x="2355" 
d="M2015 1649v286h74v-286h-74zM2220 1649v286h74v-286h-74zM2120 514v866l-658 -866h658zM864 -20q-322 0 -547 224t-225 544t225 543q225 224 547 225q236 0 428 -132t275 -344l-62 -45q-76 199 -251 323t-394 124q-286 0 -488 -204t-202 -490t202 -491q202 -204 488 -204
q84 0 178 25l1073 1417h84v-1495h-75v444h-711l-326 -432q-100 -32 -219 -32z" />
    <glyph glyph-name="C_Atilde" unicode="C&#xc3;" horiz-adv-x="2355" 
d="M1800 1645q0 88 50 142t124 54q74 1 189 -69t170 -70q121 0 121 133h65q0 -94 -50 -146q-111 -115 -333 19q-104 66 -156 66t-84 -34q-33 -34 -32 -95h-64zM2120 514v866l-658 -866h658zM864 -20q-322 0 -547 224t-225 544t225 543q225 224 547 225q236 0 428 -132
t275 -344l-62 -45q-76 199 -251 323t-394 124q-286 0 -488 -204t-202 -490t202 -491q202 -204 488 -204q84 0 178 25l1073 1417h84v-1495h-75v444h-711l-326 -432q-100 -32 -219 -32z" />
    <glyph glyph-name="C_Aring" unicode="C&#xc5;" horiz-adv-x="2355" 
d="M2155 1501q50 0 89 37q38 37 38 88t-38 89t-88 38t-88 -39q-36 -39 -36 -89t36 -87t87 -37zM2120 514v866l-658 -866h658zM864 -20q-322 0 -547 224t-225 544t225 543q225 224 547 225q236 0 428 -132t275 -344l-62 -45q-76 199 -251 323t-394 124q-286 0 -488 -204
t-202 -490t202 -491q202 -204 488 -204q84 0 178 25l1043 1376q-49 23 -81 69q-32 45 -32 113t55 123t133 55t134 -54t55 -128q0 -74 -42 -125t-108 -65v-1442h-75v444h-711l-326 -432q-100 -32 -219 -32z" />
    <glyph glyph-name="C_Amacron" unicode="C&#x100;" horiz-adv-x="2355" 
d="M1886 1645v65h541v-65h-541zM2120 514v866l-658 -866h658zM864 -20q-322 0 -547 224t-225 544t225 543q225 224 547 225q236 0 428 -132t275 -344l-62 -45q-76 199 -251 323t-394 124q-286 0 -488 -204t-202 -490t202 -491q202 -204 488 -204q84 0 178 25l1073 1417h84
v-1495h-75v444h-711l-326 -432q-100 -32 -219 -32z" />
    <glyph glyph-name="C_Abreve" unicode="C&#x102;" horiz-adv-x="2355" 
d="M2486 1944q0 -122 -91 -216t-245 -94t-239 91q-86 91 -86 219h67q0 -102 69 -176t192 -72q123 0 195 74t71 174h67zM2120 514v866l-658 -866h658zM864 -20q-322 0 -547 224t-225 544t225 543q225 224 547 225q236 0 428 -132t275 -344l-62 -45q-76 199 -251 323t-394 124
q-286 0 -488 -204t-202 -490t202 -491q202 -204 488 -204q84 0 178 25l1073 1417h84v-1495h-75v444h-711l-326 -432q-100 -32 -219 -32z" />
    <glyph glyph-name="C_Aogonek" unicode="C&#x104;" horiz-adv-x="2355" 
d="M2120 514v866l-658 -866h658zM2141 -412q-125 0 -195 54t-70 133q0 143 244 256v413h-711l-326 -432q-100 -33 -219 -32q-322 0 -547 224t-225 544t225 543q225 224 547 225q236 0 428 -132t275 -344l-62 -45q-76 199 -251 323t-394 124q-286 0 -488 -204t-202 -490
t202 -491q202 -204 488 -204q84 0 178 25l1073 1417h84v-1495h-6l4 -2q-133 -66 -187 -117t-54 -106t48 -88t140 -33t187 90l61 -43q-121 -113 -247 -113z" />
    <glyph glyph-name="C_Aringacute" unicode="C&#x1fa;" horiz-adv-x="2355" 
d="M2138 1884l252 301h102l-276 -301h-78zM2153 1501q50 0 89 37q38 37 38 88t-38 89t-88 38t-88 -39q-36 -39 -36 -89t36 -87t87 -37zM2120 514v866l-658 -866h658zM864 -20q-322 0 -547 224t-225 544t225 543q225 224 547 225q236 0 428 -132t275 -344l-62 -45
q-76 199 -251 323t-394 124q-286 0 -488 -204t-202 -490t202 -491q202 -204 488 -204q84 0 178 25l1041 1374q-49 23 -81 70q-32 46 -32 114t55 123t133 55t134 -54t55 -126q0 -72 -42 -126q-42 -52 -106 -66v-1442h-75v444h-711l-326 -432q-100 -32 -219 -32z" />
    <glyph glyph-name="Cacute_O" unicode="&#x106;O" horiz-adv-x="2531" 
d="M903 748q0 182 79 341t218 265q-160 88 -340 88q-286 0 -488 -204t-202 -490t202 -491q202 -204 488 -204q186 0 340 88q-139 109 -218 267t-79 340zM1673 53q287 0 489 204t201 491q1 286 -201 490t-489 204q-180 0 -340 -88q188 -143 260 -365h-82q-72 197 -243 322
q-133 -97 -210 -245t-77 -318t77 -320t210 -244q164 121 239 312h84q-76 -211 -260 -355q160 -88 342 -88zM860 -20q-317 0 -543 225q-225 225 -225 543t225 542q225 225 543 226q223 0 408 -117q184 117 405 117q317 0 543 -226t225 -542q0 -316 -225 -542t-543 -226
q-219 0 -407 116q-185 -116 -406 -116zM856 1645l252 301h102l-276 -301h-78z" />
    <glyph glyph-name="Ccaron_O" unicode="&#x10c;O" horiz-adv-x="2531" 
d="M903 748q0 182 79 341t218 265q-160 88 -340 88q-286 0 -488 -204t-202 -490t202 -491q202 -204 488 -204q186 0 340 88q-139 109 -218 267t-79 340zM1673 53q287 0 489 204t201 491q1 286 -201 490t-489 204q-180 0 -340 -88q188 -143 260 -365h-82q-72 197 -243 322
q-133 -97 -210 -245t-77 -318t77 -320t210 -244q164 121 239 312h84q-76 -211 -260 -355q160 -88 342 -88zM860 -20q-317 0 -543 225q-225 225 -225 543t225 542q225 225 543 226q223 0 408 -117q184 117 405 117q317 0 543 -226t225 -542q0 -316 -225 -542t-543 -226
q-219 0 -407 116q-185 -116 -406 -116zM823 1645l-243 301h82l192 -242l195 242h84l-244 -301h-66z" />
    <glyph glyph-name="Ccircumflex_O" unicode="&#x108;O" horiz-adv-x="2531" 
d="M903 748q0 182 79 341t218 265q-160 88 -340 88q-286 0 -488 -204t-202 -490t202 -491q202 -204 488 -204q186 0 340 88q-139 109 -218 267t-79 340zM1673 53q287 0 489 204t201 491q1 286 -201 490t-489 204q-180 0 -340 -88q188 -143 260 -365h-82q-72 197 -243 322
q-133 -97 -210 -245t-77 -318t77 -320t210 -244q164 121 239 312h84q-76 -211 -260 -355q160 -88 342 -88zM860 -20q-317 0 -543 225q-225 225 -225 543t225 542q225 225 543 226q223 0 408 -117q184 117 405 117q317 0 543 -226t225 -542q0 -316 -225 -542t-543 -226
q-219 0 -407 116q-185 -116 -406 -116zM584 1645l243 301h66l244 -301h-82l-195 239l-192 -239h-84z" />
    <glyph glyph-name="Ccedilla_O" unicode="&#xc7;O" horiz-adv-x="2531" 
d="M903 748q0 182 79 341t218 265q-160 88 -340 88q-286 0 -488 -204t-202 -490t202 -491q202 -204 488 -204q186 0 340 88q-139 109 -218 267t-79 340zM1673 53q287 0 489 204t201 491q1 286 -201 490t-489 204q-180 0 -340 -88q188 -143 260 -365h-82q-72 197 -243 322
q-133 -97 -210 -245t-77 -318t77 -320t210 -244q164 121 239 312h84q-76 -211 -260 -355q160 -88 342 -88zM893 -453q-162 0 -268 107l61 39q96 -86 194 -86t151 35q54 35 54 86t-54 81t-144 29h-47v144q-311 8 -530 230q-218 222 -218 538t225 540q225 225 543 226
q223 0 408 -117q184 117 405 117q317 0 543 -226t225 -542q0 -316 -225 -542t-543 -226q-219 0 -407 116q-166 -106 -363 -114v-95q115 0 186 -43q71 -44 71 -118t-76 -126q-74 -52 -191 -53z" />
    <glyph glyph-name="Cdotaccent_O" unicode="&#x10a;O" horiz-adv-x="2531" 
d="M817 1647v286h76v-286h-76zM903 748q0 182 79 341t218 265q-160 88 -340 88q-286 0 -488 -204t-202 -490t202 -491q202 -204 488 -204q186 0 340 88q-139 109 -218 267t-79 340zM1673 53q287 0 489 204t201 491q1 286 -201 490t-489 204q-180 0 -340 -88
q188 -143 260 -365h-82q-72 197 -243 322q-133 -97 -210 -245t-77 -318t77 -320t210 -244q164 121 239 312h84q-76 -211 -260 -355q160 -88 342 -88zM860 -20q-317 0 -543 225q-225 225 -225 543t225 542q225 225 543 226q223 0 408 -117q184 117 405 117q317 0 543 -226
t225 -542q0 -316 -225 -542t-543 -226q-219 0 -407 116q-185 -116 -406 -116z" />
    <glyph glyph-name="C_Oacute" unicode="C&#xd3;" horiz-adv-x="2531" 
d="M903 748q0 182 79 341t218 265q-160 88 -340 88q-286 0 -488 -204t-202 -490t202 -491q202 -204 488 -204q186 0 340 88q-139 109 -218 267t-79 340zM1673 53q287 0 489 204t201 491q1 286 -201 490t-489 204q-180 0 -340 -88q188 -143 260 -365h-82q-72 197 -243 322
q-133 -97 -210 -245t-77 -318t77 -320t210 -244q164 121 239 312h84q-76 -211 -260 -355q160 -88 342 -88zM860 -20q-317 0 -543 225q-225 225 -225 543t225 542q225 225 543 226q223 0 408 -117q184 117 405 117q317 0 543 -226t225 -542q0 -316 -225 -542t-543 -226
q-219 0 -407 116q-185 -116 -406 -116zM1657 1645l252 301h102l-276 -301h-78z" />
    <glyph glyph-name="C_Ograve" unicode="C&#xd2;" horiz-adv-x="2531" 
d="M1655 1645l-277 301h103l252 -301h-78zM903 748q0 182 79 341t218 265q-160 88 -340 88q-286 0 -488 -204t-202 -490t202 -491q202 -204 488 -204q186 0 340 88q-139 109 -218 267t-79 340zM1673 53q287 0 489 204t201 491q1 286 -201 490t-489 204q-180 0 -340 -88
q188 -143 260 -365h-82q-72 197 -243 322q-133 -97 -210 -245t-77 -318t77 -320t210 -244q164 121 239 312h84q-76 -211 -260 -355q160 -88 342 -88zM860 -20q-317 0 -543 225q-225 225 -225 543t225 542q225 225 543 226q223 0 408 -117q184 117 405 117q317 0 543 -226
t225 -542q0 -316 -225 -542t-543 -226q-219 0 -407 116q-185 -116 -406 -116z" />
    <glyph glyph-name="C_Ocircumflex" unicode="C&#xd4;" horiz-adv-x="2531" 
d="M903 748q0 182 79 341t218 265q-160 88 -340 88q-286 0 -488 -204t-202 -490t202 -491q202 -204 488 -204q186 0 340 88q-139 109 -218 267t-79 340zM1673 53q287 0 489 204t201 491q1 286 -201 490t-489 204q-180 0 -340 -88q188 -143 260 -365h-82q-72 197 -243 322
q-133 -97 -210 -245t-77 -318t77 -320t210 -244q164 121 239 312h84q-76 -211 -260 -355q160 -88 342 -88zM860 -20q-317 0 -543 225q-225 225 -225 543t225 542q225 225 543 226q223 0 408 -117q184 117 405 117q317 0 543 -226t225 -542q0 -316 -225 -542t-543 -226
q-219 0 -407 116q-185 -116 -406 -116zM1399 1645l243 301h66l244 -301h-82l-195 239l-192 -239h-84z" />
    <glyph glyph-name="C_Odieresis" unicode="C&#xd6;" horiz-adv-x="2531" 
d="M1745 1649v286h74v-286h-74zM1540 1649v286h74v-286h-74zM903 748q0 182 79 341t218 265q-160 88 -340 88q-286 0 -488 -204t-202 -490t202 -491q202 -204 488 -204q186 0 340 88q-139 109 -218 267t-79 340zM1673 53q287 0 489 204t201 491q1 286 -201 490t-489 204
q-180 0 -340 -88q188 -143 260 -365h-82q-72 197 -243 322q-133 -97 -210 -245t-77 -318t77 -320t210 -244q164 121 239 312h84q-76 -211 -260 -355q160 -88 342 -88zM860 -20q-317 0 -543 225q-225 225 -225 543t225 542q225 225 543 226q223 0 408 -117q184 117 405 117
q317 0 543 -226t225 -542q0 -316 -225 -542t-543 -226q-219 0 -407 116q-185 -116 -406 -116z" />
    <glyph glyph-name="C_Otilde" unicode="C&#xd5;" horiz-adv-x="2531" 
d="M1317 1645q0 88 50 142t124 54q75 1 189 -69t169 -70q121 0 121 133h66q0 -94 -50 -146q-112 -116 -333 19q-103 66 -155 66t-85 -34t-33 -95h-63zM903 748q0 182 79 341t218 265q-160 88 -340 88q-286 0 -488 -204t-202 -490t202 -491q202 -204 488 -204q186 0 340 88
q-139 109 -218 267t-79 340zM1673 53q287 0 489 204t201 491q1 286 -201 490t-489 204q-180 0 -340 -88q188 -143 260 -365h-82q-72 197 -243 322q-133 -97 -210 -245t-77 -318t77 -320t210 -244q164 121 239 312h84q-76 -211 -260 -355q160 -88 342 -88zM860 -20
q-317 0 -543 225q-225 225 -225 543t225 542q225 225 543 226q223 0 408 -117q184 117 405 117q317 0 543 -226t225 -542q0 -316 -225 -542t-543 -226q-219 0 -407 116q-185 -116 -406 -116z" />
    <glyph glyph-name="C_Obreve" unicode="C&#x14e;" horiz-adv-x="2531" 
d="M1662 1634q-154 0 -239 91q-86 91 -86 219h68q0 -102 69 -176q70 -74 192 -72q122 0 194 74t71 174h68q0 -123 -91 -217q-92 -93 -246 -93zM903 748q0 182 79 341t218 265q-160 88 -340 88q-286 0 -488 -204t-202 -490t202 -491q202 -204 488 -204q186 0 340 88
q-139 109 -218 267t-79 340zM1673 53q287 0 489 204t201 491q1 286 -201 490t-489 204q-180 0 -340 -88q188 -143 260 -365h-82q-72 197 -243 322q-133 -97 -210 -245t-77 -318t77 -320t210 -244q164 121 239 312h84q-76 -211 -260 -355q160 -88 342 -88zM860 -20
q-317 0 -543 225q-225 225 -225 543t225 542q225 225 543 226q223 0 408 -117q184 117 405 117q317 0 543 -226t225 -542q0 -316 -225 -542t-543 -226q-219 0 -407 116q-185 -116 -406 -116z" />
    <glyph glyph-name="C_Omacron" unicode="C&#x14c;" horiz-adv-x="2531" 
d="M903 748q0 182 79 341t218 265q-160 88 -340 88q-286 0 -488 -204t-202 -490t202 -491q202 -204 488 -204q186 0 340 88q-139 109 -218 267t-79 340zM1673 53q287 0 489 204t201 491q1 286 -201 490t-489 204q-180 0 -340 -88q188 -143 260 -365h-82q-72 197 -243 322
q-133 -97 -210 -245t-77 -318t77 -320t210 -244q164 121 239 312h84q-76 -211 -260 -355q160 -88 342 -88zM860 -20q-317 0 -543 225q-225 225 -225 543t225 542q225 225 543 226q223 0 408 -117q184 117 405 117q317 0 543 -226t225 -542q0 -316 -225 -542t-543 -226
q-219 0 -407 116q-185 -116 -406 -116zM1403 1645v65h541v-65h-541z" />
    <glyph glyph-name="C_Ohungarumlaut" unicode="C&#x150;" horiz-adv-x="2531" 
d="M903 748q0 182 79 341t218 265q-160 88 -340 88q-286 0 -488 -204t-202 -490t202 -491q202 -204 488 -204q186 0 340 88q-139 109 -218 267t-79 340zM1673 53q287 0 489 204t201 491q1 286 -201 490t-489 204q-180 0 -340 -88q188 -143 260 -365h-82q-72 197 -243 322
q-133 -97 -210 -245t-77 -318t77 -320t210 -244q164 121 239 312h84q-76 -211 -260 -355q160 -88 342 -88zM860 -20q-317 0 -543 225q-225 225 -225 543t225 542q225 225 543 226q223 0 408 -117q184 117 405 117q317 0 543 -226t225 -542q0 -316 -225 -542t-543 -226
q-219 0 -407 116q-185 -116 -406 -116zM1749 1645l252 301h98l-276 -301h-74zM1542 1645l252 301h98l-276 -301h-74z" />
    <glyph glyph-name="Eacute_A" unicode="&#xc9;A" horiz-adv-x="2076" 
d="M530 1645l252 301h103l-277 -301h-78zM1839 514v866l-657 -866h657zM162 0v1495h774v-72h-698v-639h698v-71h-698v-639h520l1075 1421h82v-1495h-76v444h-709l-335 -444h-633z" />
    <glyph glyph-name="Egrave_A" unicode="&#xc8;A" horiz-adv-x="2060" 
d="M541 1645l-277 301h103l251 -301h-77zM1823 514v866l-658 -866h658zM145 0v1495h775v-72h-699v-639h699v-71h-699v-639h520l1076 1421h81v-1495h-75v444h-709l-336 -444h-633z" />
    <glyph glyph-name="Ecircumflex_A" unicode="&#xca;A" horiz-adv-x="2060" 
d="M252 1645l244 301h65l244 -301h-82l-195 239l-192 -239h-84zM1823 514v866l-658 -866h658zM145 0v1495h775v-72h-699v-639h699v-71h-699v-639h520l1076 1421h81v-1495h-75v444h-709l-336 -444h-633z" />
    <glyph glyph-name="Edieresis_A" unicode="&#xcb;A" horiz-adv-x="2060" 
d="M1823 514v866l-658 -866h658zM145 0v1495h775v-72h-699v-639h699v-71h-699v-639h520l1076 1421h81v-1495h-75v444h-709l-336 -444h-633zM401 1649v286h74v-286h-74zM606 1649v286h74v-286h-74z" />
    <glyph glyph-name="Ecaron_A" unicode="&#x11a;A" horiz-adv-x="2060" 
d="M487 1645l-243 301h82l192 -242l195 242h84l-244 -301h-66zM1823 514v866l-658 -866h658zM145 0v1495h775v-72h-699v-639h699v-71h-699v-639h520l1076 1421h81v-1495h-75v444h-709l-336 -444h-633z" />
    <glyph glyph-name="Emacron_A" unicode="&#x112;A" horiz-adv-x="2060" 
d="M276 1645v65h541v-65h-541zM1823 514v866l-658 -866h658zM145 0v1495h775v-72h-699v-639h699v-71h-699v-639h520l1076 1421h81v-1495h-75v444h-709l-336 -444h-633z" />
    <glyph glyph-name="Ebreve_A" unicode="&#x114;A" horiz-adv-x="2060" 
d="M520 1634q-154 0 -240 91t-85 219h67q0 -102 69 -176t191 -72q122 0 195 74q72 74 71 174h68q0 -123 -91 -217q-91 -93 -245 -93zM1823 514v866l-658 -866h658zM145 0v1495h775v-72h-699v-639h699v-71h-699v-639h520l1076 1421h81v-1495h-75v444h-709l-336 -444h-633z
" />
    <glyph glyph-name="Eogonek_A" unicode="&#x118;A" horiz-adv-x="2060" 
d="M1823 514v866l-658 -866h658zM145 0v1495h775v-72h-699v-639h699v-71h-699v-639h520l1076 1421h81v-1495h-75v444h-709l-336 -444h-6l4 -2q-133 -66 -187 -117t-54 -106t48 -88t140 -33t186 90l62 -43q-121 -113 -247 -113t-196 54t-69 133q0 125 184 225h-498z" />
    <glyph glyph-name="Edotaccent_A" unicode="&#x116;A" horiz-adv-x="2060" 
d="M516 1649v286h76v-286h-76zM1823 514v866l-658 -866h658zM145 0v1495h775v-72h-699v-639h699v-71h-699v-639h520l1076 1421h81v-1495h-75v444h-709l-336 -444h-633z" />
    <glyph glyph-name="E_Aacute" unicode="E&#xc1;" horiz-adv-x="2060" 
d="M1845 1645l252 301h103l-277 -301h-78zM1823 514v866l-658 -866h658zM145 0v1495h775v-72h-699v-639h699v-71h-699v-639h520l1076 1421h81v-1495h-75v444h-709l-336 -444h-633z" />
    <glyph glyph-name="E_Agrave" unicode="E&#xc0;" horiz-adv-x="2060" 
d="M1837 1645l-276 301h102l252 -301h-78zM1823 514v866l-658 -866h658zM145 0v1495h775v-72h-699v-639h699v-71h-699v-639h520l1076 1421h81v-1495h-75v444h-709l-336 -444h-633z" />
    <glyph glyph-name="E_Acircumflex" unicode="E&#xc2;" horiz-adv-x="2060" 
d="M1823 514v866l-658 -866h658zM145 0v1495h775v-72h-699v-639h699v-71h-699v-639h520l1076 1421h81v-1495h-75v444h-709l-336 -444h-633zM1585 1645l244 301h65l244 -301h-82l-194 239l-193 -239h-84z" />
    <glyph glyph-name="E_Adieresis" unicode="E&#xc4;" horiz-adv-x="2060" 
d="M1927 1649v286h74v-286h-74zM1722 1649v286h74v-286h-74zM1823 514v866l-658 -866h658zM145 0v1495h775v-72h-699v-639h699v-71h-699v-639h520l1076 1421h81v-1495h-75v444h-709l-336 -444h-633z" />
    <glyph glyph-name="E_Atilde" unicode="E&#xc3;" horiz-adv-x="2060" 
d="M1503 1645q0 88 50 142t124 54q74 1 189 -69t170 -70q121 0 121 133h65q0 -94 -50 -146q-111 -115 -333 19q-103 66 -155 66t-85 -34t-32 -95h-64zM1823 514v866l-658 -866h658zM145 0v1495h775v-72h-699v-639h699v-71h-699v-639h520l1076 1421h81v-1495h-75v444h-709
l-336 -444h-633z" />
    <glyph glyph-name="E_Aring" unicode="E&#xc5;" horiz-adv-x="2060" 
d="M1859 1503q50 0 88 37t38 88t-38 89t-88 38t-87 -39t-37 -89t37 -87t87 -37zM1823 514v866l-658 -866h658zM145 0v1495h775v-72h-699v-639h699v-71h-699v-639h520l1045 1380q-51 23 -83 70q-32 46 -32 114t55 123q56 55 134 55t133 -54t55 -128t-42 -125t-108 -65v-1444
h-75v444h-709l-336 -444h-633z" />
    <glyph glyph-name="E_Amacron" unicode="E&#x100;" horiz-adv-x="2060" 
d="M1591 1645v65h541v-65h-541zM1823 514v866l-658 -866h658zM145 0v1495h775v-72h-699v-639h699v-71h-699v-639h520l1076 1421h81v-1495h-75v444h-709l-336 -444h-633z" />
    <glyph glyph-name="E_Abreve" unicode="E&#x102;" horiz-adv-x="2060" 
d="M2195 1944q0 -122 -91 -216q-90 -94 -244 -94t-240 91t-86 219h68q0 -102 68 -176q69 -72 192 -72q122 0 194 74t72 174h67zM1823 514v866l-658 -866h658zM145 0v1495h775v-72h-699v-639h699v-71h-699v-639h520l1076 1421h81v-1495h-75v444h-709l-336 -444h-633z" />
    <glyph glyph-name="E_Aogonek" unicode="E&#x104;" horiz-adv-x="2060" 
d="M1823 514v866l-658 -866h658zM1844 -412q-126 0 -196 54t-69 133q0 143 244 256v413h-709l-336 -444h-633v1495h775v-72h-699v-639h699v-71h-699v-639h520l1076 1421h81v-1495h-6l4 -2q-133 -66 -187 -117t-54 -106t48 -88t140 -33t187 90l61 -43q-121 -113 -247 -113z
" />
    <glyph glyph-name="E_Aringacute" unicode="E&#x1fa;" horiz-adv-x="2060" 
d="M1845 1884l252 301h103l-277 -301h-78zM1859 1503q50 0 88 37t38 88t-38 89t-88 38t-87 -39t-37 -89t37 -87t87 -37zM1823 514v866l-658 -866h658zM145 0v1495h775v-72h-699v-639h699v-71h-699v-639h520l1045 1380q-51 23 -83 70q-32 46 -32 114t55 123q56 55 134 55
t133 -54t55 -128t-42 -125t-108 -65v-1444h-75v444h-709l-336 -444h-633z" />
    <glyph glyph-name="Eacute_C" unicode="&#xc9;C" horiz-adv-x="2469" 
d="M569 1645l252 301h103l-277 -301h-78zM1638 -20q-311 0 -533 213t-237 520h-630v-639h843v-74h-919v1495h919v-72h-843v-639h630q16 304 238 518t532 214q250 0 452 -148t275 -379h-84q-72 201 -247 327q-176 126 -400 126q-276 0 -475 -192t-213 -466h107v-71h-107
q14 -275 212 -467t476 -193q217 0 391 123t252 320h84q-80 -229 -278 -373q-199 -143 -445 -143z" />
    <glyph glyph-name="Egrave_C" unicode="&#xc8;C" horiz-adv-x="2469" 
d="M580 1645l-277 301h103l251 -301h-77zM1638 -20q-311 0 -533 213t-237 520h-630v-639h843v-74h-919v1495h919v-72h-843v-639h630q16 304 238 518t532 214q250 0 452 -148t275 -379h-84q-72 201 -247 327q-176 126 -400 126q-276 0 -475 -192t-213 -466h107v-71h-107
q14 -275 212 -467t476 -193q217 0 391 123t252 320h84q-80 -229 -278 -373q-199 -143 -445 -143z" />
    <glyph glyph-name="Ecircumflex_C" unicode="&#xca;C" horiz-adv-x="2469" 
d="M340 1645l244 301h65l244 -301h-82l-195 239l-192 -239h-84zM1638 -20q-311 0 -533 213t-237 520h-630v-639h843v-74h-919v1495h919v-72h-843v-639h630q16 304 238 518t532 214q250 0 452 -148t275 -379h-84q-72 201 -247 327q-176 126 -400 126q-276 0 -475 -192
t-213 -466h107v-71h-107q14 -275 212 -467t476 -193q217 0 391 123t252 320h84q-80 -229 -278 -373q-199 -143 -445 -143z" />
    <glyph glyph-name="Edieresis_C" unicode="&#xcb;C" horiz-adv-x="2469" 
d="M477 1649v286h74v-286h-74zM682 1649v286h74v-286h-74zM1638 -20q-311 0 -533 213t-237 520h-630v-639h843v-74h-919v1495h919v-72h-843v-639h630q16 304 238 518t532 214q250 0 452 -148t275 -379h-84q-72 201 -247 327q-176 126 -400 126q-276 0 -475 -192t-213 -466
h107v-71h-107q14 -275 212 -467t476 -193q217 0 391 123t252 320h84q-80 -229 -278 -373q-199 -143 -445 -143z" />
    <glyph glyph-name="Ecaron_C" unicode="&#x11a;C" horiz-adv-x="2469" 
d="M582 1645l-244 301h82l192 -242l195 242h84l-244 -301h-65zM1638 -20q-311 0 -533 213t-237 520h-630v-639h843v-74h-919v1495h919v-72h-843v-639h630q16 304 238 518t532 214q250 0 452 -148t275 -379h-84q-72 201 -247 327q-176 126 -400 126q-276 0 -475 -192
t-213 -466h107v-71h-107q14 -275 212 -467t476 -193q217 0 391 123t252 320h84q-80 -229 -278 -373q-199 -143 -445 -143z" />
    <glyph glyph-name="Emacron_C" unicode="&#x112;C" horiz-adv-x="2469" 
d="M391 1645v65h541v-65h-541zM1638 -20q-311 0 -533 213t-237 520h-630v-639h843v-74h-919v1495h919v-72h-843v-639h630q16 304 238 518t532 214q250 0 452 -148t275 -379h-84q-72 201 -247 327q-176 126 -400 126q-276 0 -475 -192t-213 -466h107v-71h-107
q14 -275 212 -467t476 -193q217 0 391 123t252 320h84q-80 -229 -278 -373q-199 -143 -445 -143z" />
    <glyph glyph-name="Ebreve_C" unicode="&#x114;C" horiz-adv-x="2469" 
d="M963 1935q1 -123 -91 -216t-246 -93t-239 91q-86 91 -86 218h68q1 -102 69 -175q68 -72 191 -72t195 74t71 173h68zM1638 -20q-311 0 -533 213t-237 520h-630v-639h843v-74h-919v1495h919v-72h-843v-639h630q16 304 238 518t532 214q250 0 452 -148t275 -379h-84
q-72 201 -247 327q-176 126 -400 126q-276 0 -475 -192t-213 -466h107v-71h-107q14 -275 212 -467t476 -193q217 0 391 123t252 320h84q-80 -229 -278 -373q-199 -143 -445 -143z" />
    <glyph glyph-name="Eogonek_C" unicode="&#x118;C" horiz-adv-x="2469" 
d="M1638 -20q-311 0 -533 213t-237 520h-630v-639h843v-74h-4l4 -2q-133 -66 -187 -117t-54 -106t48 -88t140 -33t186 90l62 -43q-121 -113 -247 -113q-125 0 -195 54t-70 133q0 125 184 225h-786v1495h919v-72h-843v-639h630q16 304 238 518t532 214q250 0 452 -148
t275 -379h-84q-72 201 -247 327q-176 126 -400 126q-276 0 -475 -192t-213 -466h107v-71h-107q14 -275 212 -467t476 -193q217 0 391 123t252 320h84q-80 -229 -278 -373q-199 -143 -445 -143z" />
    <glyph glyph-name="Edotaccent_C" unicode="&#x116;C" horiz-adv-x="2469" 
d="M596 1649v286h76v-286h-76zM1638 -20q-311 0 -533 213t-237 520h-630v-639h843v-74h-919v1495h919v-72h-843v-639h630q16 304 238 518t532 214q250 0 452 -148t275 -379h-84q-72 201 -247 327q-176 126 -400 126q-276 0 -475 -192t-213 -466h107v-71h-107
q14 -275 212 -467t476 -193q217 0 391 123t252 320h84q-80 -229 -278 -373q-199 -143 -445 -143z" />
    <glyph glyph-name="E_Cacute" unicode="E&#x106;" horiz-adv-x="2469" 
d="M1612 1645l252 301h102l-276 -301h-78zM1638 -20q-311 0 -533 213t-237 520h-630v-639h843v-74h-919v1495h919v-72h-843v-639h630q16 304 238 518t532 214q250 0 452 -148t275 -379h-84q-72 201 -247 327q-176 126 -400 126q-276 0 -475 -192t-213 -466h107v-71h-107
q14 -275 212 -467t476 -193q217 0 391 123t252 320h84q-80 -229 -278 -373q-199 -143 -445 -143z" />
    <glyph glyph-name="E_Ccircumflex" unicode="E&#x108;" horiz-adv-x="2469" 
d="M1638 -20q-311 0 -533 213t-237 520h-630v-639h843v-74h-919v1495h919v-72h-843v-639h630q16 304 238 518t532 214q250 0 452 -148t275 -379h-84q-72 201 -247 327q-176 126 -400 126q-276 0 -475 -192t-213 -466h107v-71h-107q14 -275 212 -467t476 -193q217 0 391 123
t252 320h84q-80 -229 -278 -373q-199 -143 -445 -143zM1368 1645l244 301h65l244 -301h-82l-194 239l-193 -239h-84z" />
    <glyph glyph-name="E_Ccaron" unicode="E&#x10c;" horiz-adv-x="2469" 
d="M1612 1645l-244 301h82l192 -242l195 242h84l-244 -301h-65zM1638 -20q-311 0 -533 213t-237 520h-630v-639h843v-74h-919v1495h919v-72h-843v-639h630q16 304 238 518t532 214q250 0 452 -148t275 -379h-84q-72 201 -247 327q-176 126 -400 126q-276 0 -475 -192
t-213 -466h107v-71h-107q14 -275 212 -467t476 -193q217 0 391 123t252 320h84q-80 -229 -278 -373q-199 -143 -445 -143z" />
    <glyph glyph-name="E_Ccedilla" unicode="E&#xc7;" horiz-adv-x="2469" 
d="M1673 -453q-162 0 -268 107l61 39q96 -86 194 -86t151 35q55 35 55 86t-54 81t-145 29h-47v144q-305 6 -521 217t-231 514h-630v-639h843v-74h-919v1495h919v-72h-843v-639h630q16 304 238 518t532 214q250 0 452 -148t275 -379h-84q-72 201 -247 327q-176 126 -400 126
q-276 0 -475 -192t-213 -466h107v-71h-107q14 -275 212 -467t476 -193q217 0 391 123t252 320h84q-76 -216 -261 -358t-417 -156v-95q115 0 186 -43q71 -44 71 -118t-76 -126q-74 -52 -191 -53z" />
    <glyph glyph-name="E_Cdotaccent" unicode="E&#x10a;" horiz-adv-x="2469" 
d="M1604 1649v286h75v-286h-75zM1638 -20q-311 0 -533 213t-237 520h-630v-639h843v-74h-919v1495h919v-72h-843v-639h630q16 304 238 518t532 214q250 0 452 -148t275 -379h-84q-72 201 -247 327q-176 126 -400 126q-276 0 -475 -192t-213 -466h107v-71h-107
q14 -275 212 -467t476 -193q217 0 391 123t252 320h84q-80 -229 -278 -373q-199 -143 -445 -143z" />
    <glyph glyph-name="Eacute_G" unicode="&#xc9;G" horiz-adv-x="2492" 
d="M584 1645l252 301h102l-276 -301h-78zM1644 -20q-322 0 -541 213q-220 213 -235 520h-630v-639h843v-74h-919v1495h919v-72h-843v-639h630q16 304 238 518t532 214q246 0 444 -140t275 -364h-84q-76 194 -249 312t-390 118q-276 0 -475 -192t-213 -466h107v-71h-107
q14 -275 212 -467t480 -192t474 184q192 186 210 460h-688v74h766v-24q0 -322 -217 -545t-539 -223z" />
    <glyph glyph-name="Egrave_G" unicode="&#xc8;G" horiz-adv-x="2492" 
d="M635 1645l-277 301h103l252 -301h-78zM1644 -20q-322 0 -541 213q-220 213 -235 520h-630v-639h843v-74h-919v1495h919v-72h-843v-639h630q16 304 238 518t532 214q246 0 444 -140t275 -364h-84q-76 194 -249 312t-390 118q-276 0 -475 -192t-213 -466h107v-71h-107
q14 -275 212 -467t480 -192t474 184q192 186 210 460h-688v74h766v-24q0 -322 -217 -545t-539 -223z" />
    <glyph glyph-name="Ecircumflex_G" unicode="&#xca;G" horiz-adv-x="2492" 
d="M1644 -20q-322 0 -541 213q-220 213 -235 520h-630v-639h843v-74h-919v1495h919v-72h-843v-639h630q16 304 238 518t532 214q246 0 444 -140t275 -364h-84q-76 194 -249 312t-390 118q-276 0 -475 -192t-213 -466h107v-71h-107q14 -275 212 -467t480 -192t474 184
q192 186 210 460h-688v74h766v-24q0 -322 -217 -545t-539 -223zM373 1645l243 301h66l244 -301h-82l-195 239l-192 -239h-84z" />
    <glyph glyph-name="Edieresis_G" unicode="&#xcb;G" horiz-adv-x="2492" 
d="M694 1649v286h74v-286h-74zM489 1649v286h74v-286h-74zM1644 -20q-322 0 -541 213q-220 213 -235 520h-630v-639h843v-74h-919v1495h919v-72h-843v-639h630q16 304 238 518t532 214q246 0 444 -140t275 -364h-84q-76 194 -249 312t-390 118q-276 0 -475 -192t-213 -466
h107v-71h-107q14 -275 212 -467t480 -192t474 184q192 186 210 460h-688v74h766v-24q0 -322 -217 -545t-539 -223z" />
    <glyph glyph-name="Ecaron_G" unicode="&#x11a;G" horiz-adv-x="2492" 
d="M600 1645l-244 301h82l193 -242l194 242h84l-243 -301h-66zM1644 -20q-322 0 -541 213q-220 213 -235 520h-630v-639h843v-74h-919v1495h919v-72h-843v-639h630q16 304 238 518t532 214q246 0 444 -140t275 -364h-84q-76 194 -249 312t-390 118q-276 0 -475 -192
t-213 -466h107v-71h-107q14 -275 212 -467t480 -192t474 184q192 186 210 460h-688v74h766v-24q0 -322 -217 -545t-539 -223z" />
    <glyph glyph-name="Emacron_G" unicode="&#x112;G" horiz-adv-x="2492" 
d="M1644 -20q-322 0 -541 213q-220 213 -235 520h-630v-639h843v-74h-919v1495h919v-72h-843v-639h630q16 304 238 518t532 214q246 0 444 -140t275 -364h-84q-76 194 -249 312t-390 118q-276 0 -475 -192t-213 -466h107v-71h-107q14 -275 212 -467t480 -192t474 184
q192 186 210 460h-688v74h766v-24q0 -322 -217 -545t-539 -223zM381 1645v65h541v-65h-541z" />
    <glyph glyph-name="Ebreve_G" unicode="&#x114;G" horiz-adv-x="2492" 
d="M632 1634q-154 0 -239 91q-86 91 -86 219h68q0 -102 68 -176q69 -72 192 -72t195 74t71 174h68q0 -123 -91 -217q-92 -93 -246 -93zM1644 -20q-322 0 -541 213q-220 213 -235 520h-630v-639h843v-74h-919v1495h919v-72h-843v-639h630q16 304 238 518t532 214
q246 0 444 -140t275 -364h-84q-76 194 -249 312t-390 118q-276 0 -475 -192t-213 -466h107v-71h-107q14 -275 212 -467t480 -192t474 184q192 186 210 460h-688v74h766v-24q0 -322 -217 -545t-539 -223z" />
    <glyph glyph-name="Eogonek_G" unicode="&#x118;G" horiz-adv-x="2492" 
d="M1644 -20q-322 0 -541 213q-220 213 -235 520h-630v-639h843v-74h-4l4 -2q-133 -66 -187 -117t-54 -106t48 -88t140 -33t186 90l62 -43q-121 -113 -247 -113q-125 0 -195 54t-70 133q0 125 184 225h-786v1495h919v-72h-843v-639h630q16 304 238 518t532 214
q246 0 444 -140t275 -364h-84q-76 194 -249 312t-390 118q-276 0 -475 -192t-213 -466h107v-71h-107q14 -275 212 -467t480 -192t474 184q192 186 210 460h-688v74h766v-24q0 -322 -217 -545t-539 -223z" />
    <glyph glyph-name="Edotaccent_G" unicode="&#x116;G" horiz-adv-x="2492" 
d="M600 1649v286h76v-286h-76zM1644 -20q-322 0 -541 213q-220 213 -235 520h-630v-639h843v-74h-919v1495h919v-72h-843v-639h630q16 304 238 518t532 214q246 0 444 -140t275 -364h-84q-76 194 -249 312t-390 118q-276 0 -475 -192t-213 -466h107v-71h-107
q14 -275 212 -467t480 -192t474 184q192 186 210 460h-688v74h766v-24q0 -322 -217 -545t-539 -223z" />
    <glyph glyph-name="E_Gcircumflex" unicode="E&#x11c;" horiz-adv-x="2492" 
d="M1644 -20q-322 0 -541 213q-220 213 -235 520h-630v-639h843v-74h-919v1495h919v-72h-843v-639h630q16 304 238 518t532 214q246 0 444 -140t275 -364h-84q-76 194 -249 312t-390 118q-276 0 -475 -192t-213 -466h107v-71h-107q14 -275 212 -467t480 -192t474 184
q192 186 210 460h-688v74h766v-24q0 -322 -217 -545t-539 -223zM1362 1645l244 301h65l244 -301h-82l-195 239l-192 -239h-84z" />
    <glyph glyph-name="E_Gbreve" unicode="E&#x11e;" horiz-adv-x="2492" 
d="M1636 1634q-154 0 -240 91t-85 219h67q0 -102 69 -176t191 -72q122 0 195 74q72 74 72 174h67q0 -123 -91 -217q-91 -93 -245 -93zM1644 -20q-322 0 -541 213q-220 213 -235 520h-630v-639h843v-74h-919v1495h919v-72h-843v-639h630q16 304 238 518t532 214
q246 0 444 -140t275 -364h-84q-76 194 -249 312t-390 118q-276 0 -475 -192t-213 -466h107v-71h-107q14 -275 212 -467t480 -192t474 184q192 186 210 460h-688v74h766v-24q0 -322 -217 -545t-539 -223z" />
    <glyph glyph-name="E_Gdotaccent" unicode="E&#x120;" horiz-adv-x="2492" 
d="M1610 1649v286h76v-286h-76zM1644 -20q-322 0 -541 213q-220 213 -235 520h-630v-639h843v-74h-919v1495h919v-72h-843v-639h630q16 304 238 518t532 214q246 0 444 -140t275 -364h-84q-76 194 -249 312t-390 118q-276 0 -475 -192t-213 -466h107v-71h-107
q14 -275 212 -467t480 -192t474 184q192 186 210 460h-688v74h766v-24q0 -322 -217 -545t-539 -223z" />
    <glyph glyph-name="E_Gcommaaccent" unicode="E&#x122;" horiz-adv-x="2492" 
d="M1644 -20q-322 0 -541 213q-220 213 -235 520h-630v-639h843v-74h-919v1495h919v-72h-843v-639h630q16 304 238 518t532 214q246 0 444 -140t275 -364h-84q-76 194 -249 312t-390 118q-276 0 -475 -192t-213 -466h107v-71h-107q14 -275 212 -467t480 -192t474 184
q192 186 210 460h-688v74h766v-24q0 -322 -217 -545t-539 -223zM1597 -561h-57l96 418h76z" />
    <glyph glyph-name="Eacute_M" unicode="&#xc9;M" horiz-adv-x="3201" 
d="M524 1645l252 301h103l-277 -301h-78zM162 0v1495h774v-72h-698v-639h698v-71h-698v-639h518l1075 1421h82v-1380l1044 1380h84v-1495h-78v1380l-1044 -1380h-82v1380l-1042 -1380h-633z" />
    <glyph glyph-name="Egrave_M" unicode="&#xc8;M" horiz-adv-x="3201" 
d="M559 1645l-276 301h102l252 -301h-78zM162 0v1495h774v-72h-698v-639h698v-71h-698v-639h518l1075 1421h82v-1380l1044 1380h84v-1495h-78v1380l-1044 -1380h-82v1380l-1042 -1380h-633z" />
    <glyph glyph-name="Ecircumflex_M" unicode="&#xca;M" horiz-adv-x="3201" 
d="M301 1645l244 301h65l244 -301h-82l-194 239l-193 -239h-84zM162 0v1495h774v-72h-698v-639h698v-71h-698v-639h518l1075 1421h82v-1380l1044 1380h84v-1495h-78v1380l-1044 -1380h-82v1380l-1042 -1380h-633z" />
    <glyph glyph-name="Edieresis_M" unicode="&#xcb;M" horiz-adv-x="3201" 
d="M162 0v1495h774v-72h-698v-639h698v-71h-698v-639h518l1075 1421h82v-1380l1044 1380h84v-1495h-78v1380l-1044 -1380h-82v1380l-1042 -1380h-633zM432 1649v286h74v-286h-74zM637 1649v286h74v-286h-74z" />
    <glyph glyph-name="Ecaron_M" unicode="&#x11a;M" horiz-adv-x="3201" 
d="M524 1645l-243 301h81l193 -242l195 242h84l-244 -301h-66zM162 0v1495h774v-72h-698v-639h698v-71h-698v-639h518l1075 1421h82v-1380l1044 1380h84v-1495h-78v1380l-1044 -1380h-82v1380l-1042 -1380h-633z" />
    <glyph glyph-name="Emacron_M" unicode="&#x112;M" horiz-adv-x="3201" 
d="M162 0v1495h774v-72h-698v-639h698v-71h-698v-639h518l1075 1421h82v-1380l1044 1380h84v-1495h-78v1380l-1044 -1380h-82v1380l-1042 -1380h-633zM297 1645v65h541v-65h-541z" />
    <glyph glyph-name="Ebreve_M" unicode="&#x114;M" horiz-adv-x="3201" 
d="M552 1634q-154 0 -239 91q-86 91 -86 219h68q0 -102 69 -176q70 -74 192 -72q122 0 194 74t71 174h68q0 -123 -91 -217q-92 -93 -246 -93zM162 0v1495h774v-72h-698v-639h698v-71h-698v-639h518l1075 1421h82v-1380l1044 1380h84v-1495h-78v1380l-1044 -1380h-82v1380
l-1042 -1380h-633z" />
    <glyph glyph-name="Eogonek_M" unicode="&#x118;M" horiz-adv-x="3201" 
d="M162 0v1495h774v-72h-698v-639h698v-71h-698v-639h518l1075 1421h82v-1380l1044 1380h84v-1495h-78v1380l-1044 -1380h-82v1380l-1042 -1380h-7l5 -2q-133 -66 -187 -117t-55 -106q0 -55 48 -88t140 -33t187 90l61 -43q-121 -113 -247 -113t-196 54t-69 133
q0 125 184 225h-497z" />
    <glyph glyph-name="Edotaccent_M" unicode="&#x116;M" horiz-adv-x="3201" 
d="M526 1649v286h76v-286h-76zM162 0v1495h774v-72h-698v-639h698v-71h-698v-639h518l1075 1421h82v-1380l1044 1380h84v-1495h-78v1380l-1044 -1380h-82v1380l-1042 -1380h-633z" />
    <glyph glyph-name="Eacute_O" unicode="&#xc9;O" horiz-adv-x="2494" 
d="M600 1645l252 301h102l-276 -301h-78zM1638 51q283 0 484 204t200 493q0 288 -200 492t-484 204q-282 0 -480 -192t-212 -468h107v-71h-107q14 -276 212 -469t480 -193zM1638 -20q-313 0 -535 213t-237 520h-628v-639h843v-74h-919v1495h919v-72h-843v-639h628
q16 304 238 518t535 214q311 0 537 -226t226 -542q0 -317 -225 -543q-226 -225 -539 -225z" />
    <glyph glyph-name="Egrave_O" unicode="&#xc8;O" horiz-adv-x="2494" 
d="M629 1645l-277 301h103l252 -301h-78zM1638 51q283 0 484 204t200 493q0 288 -200 492t-484 204q-282 0 -480 -192t-212 -468h107v-71h-107q14 -276 212 -469t480 -193zM1638 -20q-313 0 -535 213t-237 520h-628v-639h843v-74h-919v1495h919v-72h-843v-639h628
q16 304 238 518t535 214q311 0 537 -226t226 -542q0 -317 -225 -543q-226 -225 -539 -225z" />
    <glyph glyph-name="Ecircumflex_O" unicode="&#xca;O" horiz-adv-x="2494" 
d="M352 1645l244 301h66l243 -301h-82l-194 239l-193 -239h-84zM1638 51q283 0 484 204t200 493q0 288 -200 492t-484 204q-282 0 -480 -192t-212 -468h107v-71h-107q14 -276 212 -469t480 -193zM1638 -20q-313 0 -535 213t-237 520h-628v-639h843v-74h-919v1495h919v-72
h-843v-639h628q16 304 238 518t535 214q311 0 537 -226t226 -542q0 -317 -225 -543q-226 -225 -539 -225z" />
    <glyph glyph-name="Edieresis_O" unicode="&#xcb;O" horiz-adv-x="2494" 
d="M1638 51q283 0 484 204t200 493q0 288 -200 492t-484 204q-282 0 -480 -192t-212 -468h107v-71h-107q14 -276 212 -469t480 -193zM1638 -20q-313 0 -535 213t-237 520h-628v-639h843v-74h-919v1495h919v-72h-843v-639h628q16 304 238 518t535 214q311 0 537 -226
t226 -542q0 -317 -225 -543q-226 -225 -539 -225zM494 1649v286h73v-286h-73zM698 1649v286h74v-286h-74z" />
    <glyph glyph-name="Ecaron_O" unicode="&#x11a;O" horiz-adv-x="2494" 
d="M596 1645l-244 301h82l193 -242l194 242h84l-243 -301h-66zM1638 51q283 0 484 204t200 493q0 288 -200 492t-484 204q-282 0 -480 -192t-212 -468h107v-71h-107q14 -276 212 -469t480 -193zM1638 -20q-313 0 -535 213t-237 520h-628v-639h843v-74h-919v1495h919v-72
h-843v-639h628q16 304 238 518t535 214q311 0 537 -226t226 -542q0 -317 -225 -543q-226 -225 -539 -225z" />
    <glyph glyph-name="Emacron_O" unicode="&#x112;O" horiz-adv-x="2494" 
d="M362 1645v65h541v-65h-541zM1638 51q283 0 484 204t200 493q0 288 -200 492t-484 204q-282 0 -480 -192t-212 -468h107v-71h-107q14 -276 212 -469t480 -193zM1638 -20q-313 0 -535 213t-237 520h-628v-639h843v-74h-919v1495h919v-72h-843v-639h628q16 304 238 518
t535 214q311 0 537 -226t226 -542q0 -317 -225 -543q-226 -225 -539 -225z" />
    <glyph glyph-name="Ebreve_O" unicode="&#x114;O" horiz-adv-x="2494" 
d="M965 1944q1 -122 -91 -216t-246 -94t-239 91q-86 91 -86 219h68q0 -102 68 -176q69 -72 192 -72t195 74t71 174h68zM1638 51q283 0 484 204t200 493q0 288 -200 492t-484 204q-282 0 -480 -192t-212 -468h107v-71h-107q14 -276 212 -469t480 -193zM1638 -20
q-313 0 -535 213t-237 520h-628v-639h843v-74h-919v1495h919v-72h-843v-639h628q16 304 238 518t535 214q311 0 537 -226t226 -542q0 -317 -225 -543q-226 -225 -539 -225z" />
    <glyph glyph-name="Eogonek_O" unicode="&#x118;O" horiz-adv-x="2494" 
d="M1638 51q283 0 484 204t200 493q0 288 -200 492t-484 204q-282 0 -480 -192t-212 -468h107v-71h-107q14 -276 212 -469t480 -193zM1638 -20q-313 0 -535 213t-237 520h-628v-639h843v-74h-4l4 -2q-133 -66 -187 -117t-54 -106t48 -88t140 -33t186 90l62 -43
q-121 -113 -247 -113q-125 0 -195 54t-70 133q0 125 184 225h-786v1495h919v-72h-843v-639h628q16 304 238 518t535 214q311 0 537 -226t226 -542q0 -317 -225 -543q-226 -225 -539 -225z" />
    <glyph glyph-name="Edotaccent_O" unicode="&#x116;O" horiz-adv-x="2494" 
d="M618 1649v286h76v-286h-76zM1638 51q283 0 484 204t200 493q0 288 -200 492t-484 204q-282 0 -480 -192t-212 -468h107v-71h-107q14 -276 212 -469t480 -193zM1638 -20q-313 0 -535 213t-237 520h-628v-639h843v-74h-919v1495h919v-72h-843v-639h628q16 304 238 518
t535 214q311 0 537 -226t226 -542q0 -317 -225 -543q-226 -225 -539 -225z" />
    <glyph glyph-name="E_Oacute" unicode="E&#xd3;" horiz-adv-x="2494" 
d="M1638 51q283 0 484 204t200 493q0 288 -200 492t-484 204q-282 0 -480 -192t-212 -468h107v-71h-107q14 -276 212 -469t480 -193zM1638 -20q-313 0 -535 213t-237 520h-628v-639h843v-74h-919v1495h919v-72h-843v-639h628q16 304 238 518t535 214q311 0 537 -226
t226 -542q0 -317 -225 -543q-226 -225 -539 -225zM1610 1645l252 301h102l-276 -301h-78z" />
    <glyph glyph-name="E_Ograve" unicode="E&#xd2;" horiz-adv-x="2494" 
d="M1620 1645l-277 301h103l252 -301h-78zM1638 51q283 0 484 204t200 493q0 288 -200 492t-484 204q-282 0 -480 -192t-212 -468h107v-71h-107q14 -276 212 -469t480 -193zM1638 -20q-313 0 -535 213t-237 520h-628v-639h843v-74h-919v1495h919v-72h-843v-639h628
q16 304 238 518t535 214q311 0 537 -226t226 -542q0 -317 -225 -543q-226 -225 -539 -225z" />
    <glyph glyph-name="E_Ocircumflex" unicode="E&#xd4;" horiz-adv-x="2494" 
d="M1362 1645l244 301h65l244 -301h-82l-195 239l-192 -239h-84zM1638 51q283 0 484 204t200 493q0 288 -200 492t-484 204q-282 0 -480 -192t-212 -468h107v-71h-107q14 -276 212 -469t480 -193zM1638 -20q-313 0 -535 213t-237 520h-628v-639h843v-74h-919v1495h919v-72
h-843v-639h628q16 304 238 518t535 214q311 0 537 -226t226 -542q0 -317 -225 -543q-226 -225 -539 -225z" />
    <glyph glyph-name="E_Odieresis" unicode="E&#xd6;" horiz-adv-x="2494" 
d="M1706 1649v286h74v-286h-74zM1501 1649v286h74v-286h-74zM1638 51q283 0 484 204t200 493q0 288 -200 492t-484 204q-282 0 -480 -192t-212 -468h107v-71h-107q14 -276 212 -469t480 -193zM1638 -20q-313 0 -535 213t-237 520h-628v-639h843v-74h-919v1495h919v-72h-843
v-639h628q16 304 238 518t535 214q311 0 537 -226t226 -542q0 -317 -225 -543q-226 -225 -539 -225z" />
    <glyph glyph-name="E_Otilde" unicode="E&#xd5;" horiz-adv-x="2494" 
d="M1284 1645q0 88 50 142t124 54q74 1 189 -69t170 -70q121 0 120 133h66q0 -94 -50 -146q-111 -115 -333 19q-104 66 -156 66t-84 -34q-33 -34 -32 -95h-64zM1638 51q283 0 484 204t200 493q0 288 -200 492t-484 204q-282 0 -480 -192t-212 -468h107v-71h-107
q14 -276 212 -469t480 -193zM1638 -20q-313 0 -535 213t-237 520h-628v-639h843v-74h-919v1495h919v-72h-843v-639h628q16 304 238 518t535 214q311 0 537 -226t226 -542q0 -317 -225 -543q-226 -225 -539 -225z" />
    <glyph glyph-name="E_Obreve" unicode="E&#x14e;" horiz-adv-x="2494" 
d="M1974 1944q0 -122 -91 -216t-245 -94t-239 91q-86 91 -86 219h67q0 -102 69 -176t192 -72q123 0 195 74t71 174h67zM1638 51q283 0 484 204t200 493q0 288 -200 492t-484 204q-282 0 -480 -192t-212 -468h107v-71h-107q14 -276 212 -469t480 -193zM1638 -20
q-313 0 -535 213t-237 520h-628v-639h843v-74h-919v1495h919v-72h-843v-639h628q16 304 238 518t535 214q311 0 537 -226t226 -542q0 -317 -225 -543q-226 -225 -539 -225z" />
    <glyph glyph-name="E_Omacron" unicode="E&#x14c;" horiz-adv-x="2494" 
d="M1368 1645v65h541v-65h-541zM1638 51q283 0 484 204t200 493q0 288 -200 492t-484 204q-282 0 -480 -192t-212 -468h107v-71h-107q14 -276 212 -469t480 -193zM1638 -20q-313 0 -535 213t-237 520h-628v-639h843v-74h-919v1495h919v-72h-843v-639h628q16 304 238 518
t535 214q311 0 537 -226t226 -542q0 -317 -225 -543q-226 -225 -539 -225z" />
    <glyph glyph-name="E_Ohungarumlaut" unicode="E&#x150;" horiz-adv-x="2494" 
d="M1743 1645l252 301h98l-276 -301h-74zM1536 1645l252 301h98l-276 -301h-74zM1638 51q283 0 484 204t200 493q0 288 -200 492t-484 204q-282 0 -480 -192t-212 -468h107v-71h-107q14 -276 212 -469t480 -193zM1638 -20q-313 0 -535 213t-237 520h-628v-639h843v-74h-919
v1495h919v-72h-843v-639h628q16 304 238 518t535 214q311 0 537 -226t226 -542q0 -317 -225 -543q-226 -225 -539 -225z" />
    <glyph glyph-name="Eacute_V" unicode="&#xc9;V" horiz-adv-x="2076" 
d="M473 1645l252 301h102l-276 -301h-78zM162 0v1495h633l1044 -1382v1382h76v-1495h-84l-1075 1423h-518v-641h698v-71h-698v-637h698v-74h-774z" />
    <glyph glyph-name="Egrave_V" unicode="&#xc8;V" horiz-adv-x="2076" 
d="M602 1645l-276 301h102l252 -301h-78zM162 0v1495h633l1044 -1382v1382h76v-1495h-84l-1075 1423h-518v-641h698v-71h-698v-637h698v-74h-774z" />
    <glyph glyph-name="Ecircumflex_V" unicode="&#xca;V" horiz-adv-x="2076" 
d="M203 1645l243 301h66l244 -301h-82l-195 239l-192 -239h-84zM162 0v1495h633l1044 -1382v1382h76v-1495h-84l-1075 1423h-518v-641h698v-71h-698v-637h698v-74h-774z" />
    <glyph glyph-name="Edieresis_V" unicode="&#xcb;V" horiz-adv-x="2076" 
d="M162 0v1495h633l1044 -1382v1382h76v-1495h-84l-1075 1423h-518v-641h698v-71h-698v-637h698v-74h-774zM375 1649v286h74v-286h-74zM580 1649v286h73v-286h-73z" />
    <glyph glyph-name="Ecaron_V" unicode="&#x11a;V" horiz-adv-x="2076" 
d="M469 1645l-244 301h82l193 -242l194 242h84l-243 -301h-66zM162 0v1495h633l1044 -1382v1382h76v-1495h-84l-1075 1423h-518v-641h698v-71h-698v-637h698v-74h-774z" />
    <glyph glyph-name="Emacron_V" unicode="&#x112;V" horiz-adv-x="2076" 
d="M162 0v1495h633l1044 -1382v1382h76v-1495h-84l-1075 1423h-518v-641h698v-71h-698v-637h698v-74h-774zM213 1645v65h541v-65h-541z" />
    <glyph glyph-name="Ebreve_V" unicode="&#x114;V" horiz-adv-x="2076" 
d="M834 1944q0 -122 -92 -216t-244 -94q-154 0 -240 91t-86 219h68q0 -102 68 -176q69 -72 192 -72q122 0 194 74t72 174h68zM162 0v1495h633l1044 -1382v1382h76v-1495h-84l-1075 1423h-518v-641h698v-71h-698v-637h698v-74h-774z" />
    <glyph glyph-name="Eogonek_V" unicode="&#x118;V" horiz-adv-x="2076" 
d="M162 0v1495h633l1044 -1382v1382h76v-1495h-84l-1075 1423h-518v-641h698v-71h-698v-637h698v-74h-6l4 -2q-134 -66 -188 -117t-54 -106t48 -88t140 -33t187 90l61 -43q-121 -113 -247 -113q-125 0 -195 54t-70 133q0 125 185 225h-639z" />
    <glyph glyph-name="Edotaccent_V" unicode="&#x116;V" horiz-adv-x="2076" 
d="M459 1649v286h76v-286h-76zM162 0v1495h633l1044 -1382v1382h76v-1495h-84l-1075 1423h-518v-641h698v-71h-698v-637h698v-74h-774z" />
    <glyph glyph-name="Eacute_W" unicode="&#xc9;W" horiz-adv-x="3205" 
d="M471 1645l252 301h102l-276 -301h-78zM162 0v1495h635l1042 -1382v1382h82l1047 -1384v1384h75v-1495h-84l-1042 1380v-1380h-84l-1075 1423h-520v-641h698v-71h-698v-637h698v-74h-774z" />
    <glyph glyph-name="Egrave_W" unicode="&#xc8;W" horiz-adv-x="3205" 
d="M479 1645l-276 301h102l252 -301h-78zM162 0v1495h635l1042 -1382v1382h82l1047 -1384v1384h75v-1495h-84l-1042 1380v-1380h-84l-1075 1423h-520v-641h698v-71h-698v-637h698v-74h-774z" />
    <glyph glyph-name="Ecircumflex_W" unicode="&#xca;W" horiz-adv-x="3205" 
d="M162 0v1495h635l1042 -1382v1382h82l1047 -1384v1384h75v-1495h-84l-1042 1380v-1380h-84l-1075 1423h-520v-641h698v-71h-698v-637h698v-74h-774zM213 1645l244 301h65l244 -301h-82l-195 239l-192 -239h-84z" />
    <glyph glyph-name="Edieresis_W" unicode="&#xcb;W" horiz-adv-x="3205" 
d="M162 0v1495h635l1042 -1382v1382h82l1047 -1384v1384h75v-1495h-84l-1042 1380v-1380h-84l-1075 1423h-520v-641h698v-71h-698v-637h698v-74h-774zM358 1649v286h74v-286h-74zM563 1649v286h74v-286h-74z" />
    <glyph glyph-name="Ecaron_W" unicode="&#x11a;W" horiz-adv-x="3205" 
d="M455 1645l-244 301h82l192 -242l195 242h84l-244 -301h-65zM162 0v1495h635l1042 -1382v1382h82l1047 -1384v1384h75v-1495h-84l-1042 1380v-1380h-84l-1075 1423h-520v-641h698v-71h-698v-637h698v-74h-774z" />
    <glyph glyph-name="Emacron_W" unicode="&#x112;W" horiz-adv-x="3205" 
d="M223 1645v65h541v-65h-541zM162 0v1495h635l1042 -1382v1382h82l1047 -1384v1384h75v-1495h-84l-1042 1380v-1380h-84l-1075 1423h-520v-641h698v-71h-698v-637h698v-74h-774z" />
    <glyph glyph-name="Ebreve_W" unicode="&#x114;W" horiz-adv-x="3205" 
d="M829 1944q0 -122 -91 -216q-90 -94 -244 -94t-240 91t-86 219h68q0 -102 68 -176q69 -72 192 -72q122 0 194 74t72 174h67zM162 0v1495h635l1042 -1382v1382h82l1047 -1384v1384h75v-1495h-84l-1042 1380v-1380h-84l-1075 1423h-520v-641h698v-71h-698v-637h698v-74h-774
z" />
    <glyph glyph-name="Eogonek_W" unicode="&#x118;W" horiz-adv-x="3205" 
d="M162 0v1495h635l1042 -1382v1382h82l1047 -1384v1384h75v-1495h-84l-1042 1380v-1380h-84l-1075 1423h-520v-641h698v-71h-698v-637h698v-74h-6l4 -2q-134 -66 -188 -117t-54 -106t48 -88t140 -33t187 90l61 -43q-121 -113 -247 -113q-125 0 -195 54t-70 133
q0 125 185 225h-639z" />
    <glyph glyph-name="Edotaccent_W" unicode="&#x116;W" horiz-adv-x="3205" 
d="M463 1649v286h76v-286h-76zM162 0v1495h635l1042 -1382v1382h82l1047 -1384v1384h75v-1495h-84l-1042 1380v-1380h-84l-1075 1423h-520v-641h698v-71h-698v-637h698v-74h-774z" />
    <glyph glyph-name="Eacute_Y" unicode="&#xc9;Y" horiz-adv-x="2068" 
d="M1413 0v713l-461 710h-714v-641h708v-69h-708v-639h708v-74h-784v1495h831l457 -709l457 709h86l-504 -782v-713h-76zM559 1645l252 301h102l-276 -301h-78z" />
    <glyph glyph-name="Egrave_Y" unicode="&#xc8;Y" horiz-adv-x="2068" 
d="M588 1645l-277 301h103l252 -301h-78zM1413 0v713l-461 710h-714v-641h708v-69h-708v-639h708v-74h-784v1495h831l457 -709l457 709h86l-504 -782v-713h-76z" />
    <glyph glyph-name="Ecircumflex_Y" unicode="&#xca;Y" horiz-adv-x="2068" 
d="M1413 0v713l-461 710h-714v-641h708v-69h-708v-639h708v-74h-784v1495h831l457 -709l457 709h86l-504 -782v-713h-76zM328 1645l243 301h66l244 -301h-82l-195 239l-192 -239h-84z" />
    <glyph glyph-name="Edieresis_Y" unicode="&#xcb;Y" horiz-adv-x="2068" 
d="M1413 0v713l-461 710h-714v-641h708v-69h-708v-639h708v-74h-784v1495h831l457 -709l457 709h86l-504 -782v-713h-76zM459 1649v286h73v-286h-73zM664 1649v286h73v-286h-73z" />
    <glyph glyph-name="Ecaron_Y" unicode="&#x11a;Y" horiz-adv-x="2068" 
d="M559 1645l-244 301h82l193 -242l194 242h84l-243 -301h-66zM1413 0v713l-461 710h-714v-641h708v-69h-708v-639h708v-74h-784v1495h831l457 -709l457 709h86l-504 -782v-713h-76z" />
    <glyph glyph-name="Emacron_Y" unicode="&#x112;Y" horiz-adv-x="2068" 
d="M313 1645v65h541v-65h-541zM1413 0v713l-461 710h-714v-641h708v-69h-708v-639h708v-74h-784v1495h831l457 -709l457 709h86l-504 -782v-713h-76z" />
    <glyph glyph-name="Ebreve_Y" unicode="&#x114;Y" horiz-adv-x="2068" 
d="M590 1634q-154 0 -240 91t-86 219h68q0 -102 68 -176q69 -72 192 -72q122 0 194 74t72 174h68q0 -123 -91 -217q-91 -93 -245 -93zM1413 0v713l-461 710h-714v-641h708v-69h-708v-639h708v-74h-784v1495h831l457 -709l457 709h86l-504 -782v-713h-76z" />
    <glyph glyph-name="Eogonek_Y" unicode="&#x118;Y" horiz-adv-x="2068" 
d="M892 -412q-126 0 -196 54t-69 133q0 125 184 225h-649v1495h831l457 -709l457 709h86l-504 -782v-713h-76v713l-461 710h-714v-641h708v-69h-708v-639h708v-74h-6l4 -2q-133 -66 -187 -117q-55 -51 -55 -106t48 -88t141 -33q92 0 186 90l62 -43q-121 -113 -247 -113z" />
    <glyph glyph-name="Edotaccent_Y" unicode="&#x116;Y" horiz-adv-x="2068" 
d="M559 1649v286h76v-286h-76zM1413 0v713l-461 710h-714v-641h708v-69h-708v-639h708v-74h-784v1495h831l457 -709l457 709h86l-504 -782v-713h-76z" />
    <glyph glyph-name="E_Yacute" unicode="E&#xdd;" horiz-adv-x="2068" 
d="M1413 0v713l-461 710h-714v-641h708v-69h-708v-639h708v-74h-784v1495h831l457 -709l457 709h86l-504 -782v-713h-76zM1436 1645l252 301h102l-277 -301h-77z" />
    <glyph glyph-name="E_Ygrave" unicode="E&#x1ef2;" horiz-adv-x="2068" 
d="M1427 1645l-276 301h102l252 -301h-78zM1413 0v713l-461 710h-714v-641h708v-69h-708v-639h708v-74h-784v1495h831l457 -709l457 709h86l-504 -782v-713h-76z" />
    <glyph glyph-name="E_Ycircumflex" unicode="E&#x176;" horiz-adv-x="2068" 
d="M1413 0v713l-461 710h-714v-641h708v-69h-708v-639h708v-74h-784v1495h831l457 -709l457 709h86l-504 -782v-713h-76zM1176 1645l243 301h66l244 -301h-82l-195 239l-192 -239h-84z" />
    <glyph glyph-name="E_Ydieresis" unicode="E&#x178;" horiz-adv-x="2068" 
d="M1413 0v713l-461 710h-714v-641h708v-69h-708v-639h708v-74h-784v1495h831l457 -709l457 709h86l-504 -782v-713h-76zM1313 1649v286h73v-286h-73zM1518 1649v286h73v-286h-73z" />
    <glyph glyph-name="Eacute_X" unicode="&#xc9;X" horiz-adv-x="2146" 
d="M575 1645l252 301h103l-277 -301h-78zM979 713h-741v-639h708l490 704l-445 645h-753v-639h741v-71zM162 0v1495h866l455 -657l450 657h90l-495 -719l538 -776h-88l-497 715l-496 -715h-823z" />
    <glyph glyph-name="Egrave_X" unicode="&#xc8;X" horiz-adv-x="2146" 
d="M621 1645l-277 301h102l252 -301h-77zM979 713h-741v-639h708l490 704l-445 645h-753v-639h741v-71zM162 0v1495h866l455 -657l450 657h90l-495 -719l538 -776h-88l-497 715l-496 -715h-823z" />
    <glyph glyph-name="Ecircumflex_X" unicode="&#xca;X" horiz-adv-x="2146" 
d="M979 713h-741v-639h708l490 704l-445 645h-753v-639h741v-71zM162 0v1495h866l455 -657l450 657h90l-495 -719l538 -776h-88l-497 715l-496 -715h-823zM340 1645l244 301h65l244 -301h-82l-195 239l-192 -239h-84z" />
    <glyph glyph-name="Edieresis_X" unicode="&#xcb;X" horiz-adv-x="2146" 
d="M979 713h-741v-639h708l490 704l-445 645h-753v-639h741v-71zM162 0v1495h866l455 -657l450 657h90l-495 -719l538 -776h-88l-497 715l-496 -715h-823zM475 1649v286h74v-286h-74zM680 1649v286h74v-286h-74z" />
    <glyph glyph-name="Ecaron_X" unicode="&#x11a;X" horiz-adv-x="2146" 
d="M979 713h-741v-639h708l490 704l-445 645h-753v-639h741v-71zM162 0v1495h866l455 -657l450 657h90l-495 -719l538 -776h-88l-497 715l-496 -715h-823zM586 1645l-244 301h82l192 -242l195 242h84l-244 -301h-65z" />
    <glyph glyph-name="Emacron_X" unicode="&#x112;X" horiz-adv-x="2146" 
d="M338 1645v65h541v-65h-541zM979 713h-741v-639h708l490 704l-445 645h-753v-639h741v-71zM162 0v1495h866l455 -657l450 657h90l-495 -719l538 -776h-88l-497 715l-496 -715h-823z" />
    <glyph glyph-name="Ebreve_X" unicode="&#x114;X" horiz-adv-x="2146" 
d="M608 1634q-154 0 -240 91t-85 219h67q0 -102 69 -176t191 -72q122 0 195 74q72 74 72 174h67q0 -123 -91 -217q-91 -93 -245 -93zM979 713h-741v-639h708l490 704l-445 645h-753v-639h741v-71zM162 0v1495h866l455 -657l450 657h90l-495 -719l538 -776h-88l-497 715
l-496 -715h-823z" />
    <glyph glyph-name="Eogonek_X" unicode="&#x118;X" horiz-adv-x="2146" 
d="M979 713h-741v-639h708l490 704l-445 645h-753v-639h741v-71zM162 0v1495h866l455 -657l450 657h90l-495 -719l538 -776h-88l-497 715l-496 -715h-6l4 -2q-133 -66 -187 -117t-54 -106t48 -88t140 -33t186 90l62 -43q-122 -113 -248 -113t-196 54t-68 133q0 125 184 225
h-688z" />
    <glyph glyph-name="Edotaccent_X" unicode="&#x116;X" horiz-adv-x="2146" 
d="M582 1649v286h75v-286h-75zM979 713h-741v-639h708l490 704l-445 645h-753v-639h741v-71zM162 0v1495h866l455 -657l450 657h90l-495 -719l538 -776h-88l-497 715l-496 -715h-823z" />
    <glyph glyph-name="F_Oacute" unicode="F&#xd3;" horiz-adv-x="2486" 
d="M1614 1645l252 301h102l-276 -301h-78zM1632 51q283 0 484 204t200 493q0 288 -200 492t-484 204t-482 -193t-212 -469h94v-69h-94q14 -276 212 -469t482 -193zM1632 -20q-313 0 -535 213t-237 520h-622v-713h-76v1495h919v-72h-843v-641h622q14 306 236 520t536 214
q312 0 538 -226t226 -542q0 -317 -225 -543q-226 -225 -539 -225z" />
    <glyph glyph-name="F_Ograve" unicode="F&#xd2;" horiz-adv-x="2486" 
d="M1626 1645l-276 301h102l252 -301h-78zM1632 51q283 0 484 204t200 493q0 288 -200 492t-484 204t-482 -193t-212 -469h94v-69h-94q14 -276 212 -469t482 -193zM1632 -20q-313 0 -535 213t-237 520h-622v-713h-76v1495h919v-72h-843v-641h622q14 306 236 520t536 214
q312 0 538 -226t226 -542q0 -317 -225 -543q-226 -225 -539 -225z" />
    <glyph glyph-name="F_Ocircumflex" unicode="F&#xd4;" horiz-adv-x="2486" 
d="M1632 51q283 0 484 204t200 493q0 288 -200 492t-484 204t-482 -193t-212 -469h94v-69h-94q14 -276 212 -469t482 -193zM1632 -20q-313 0 -535 213t-237 520h-622v-713h-76v1495h919v-72h-843v-641h622q14 306 236 520t536 214q312 0 538 -226t226 -542q0 -317 -225 -543
q-226 -225 -539 -225zM1356 1645l243 301h66l244 -301h-82l-195 239l-192 -239h-84z" />
    <glyph glyph-name="F_Odieresis" unicode="F&#xd6;" horiz-adv-x="2486" 
d="M1632 51q283 0 484 204t200 493q0 288 -200 492t-484 204t-482 -193t-212 -469h94v-69h-94q14 -276 212 -469t482 -193zM1632 -20q-313 0 -535 213t-237 520h-622v-713h-76v1495h919v-72h-843v-641h622q14 306 236 520t536 214q312 0 538 -226t226 -542q0 -317 -225 -543
q-226 -225 -539 -225zM1497 1649v286h74v-286h-74zM1702 1649v286h74v-286h-74z" />
    <glyph glyph-name="F_Otilde" unicode="F&#xd5;" horiz-adv-x="2486" 
d="M1268 1645q0 88 50 142t124 54q74 1 188 -69t170 -70q121 0 121 133h66q-1 -94 -51 -146q-112 -115 -332 19q-104 66 -156 66t-84 -34q-33 -34 -33 -95h-63zM1632 51q283 0 484 204t200 493q0 288 -200 492t-484 204t-482 -193t-212 -469h94v-69h-94q14 -276 212 -469
t482 -193zM1632 -20q-313 0 -535 213t-237 520h-622v-713h-76v1495h919v-72h-843v-641h622q14 306 236 520t536 214q312 0 538 -226t226 -542q0 -317 -225 -543q-226 -225 -539 -225z" />
    <glyph glyph-name="F_Obreve" unicode="F&#x14e;" horiz-adv-x="2486" 
d="M1624 1634q-154 0 -240 91t-86 219h68q0 -102 69 -176t191 -72q122 0 195 74q72 74 71 174h68q0 -123 -91 -217q-91 -93 -245 -93zM1632 51q283 0 484 204t200 493q0 288 -200 492t-484 204t-482 -193t-212 -469h94v-69h-94q14 -276 212 -469t482 -193zM1632 -20
q-313 0 -535 213t-237 520h-622v-713h-76v1495h919v-72h-843v-641h622q14 306 236 520t536 214q312 0 538 -226t226 -542q0 -317 -225 -543q-226 -225 -539 -225z" />
    <glyph glyph-name="F_Omacron" unicode="F&#x14c;" horiz-adv-x="2486" 
d="M1360 1645v65h541v-65h-541zM1632 51q283 0 484 204t200 493q0 288 -200 492t-484 204t-482 -193t-212 -469h94v-69h-94q14 -276 212 -469t482 -193zM1632 -20q-313 0 -535 213t-237 520h-622v-713h-76v1495h919v-72h-843v-641h622q14 306 236 520t536 214
q312 0 538 -226t226 -542q0 -317 -225 -543q-226 -225 -539 -225z" />
    <glyph glyph-name="F_Ohungarumlaut" unicode="F&#x150;" horiz-adv-x="2508" 
d="M1714 1645l252 301h98l-276 -301h-74zM1507 1645l252 301h99l-277 -301h-74zM1632 51q283 0 484 204t200 493q0 288 -200 492t-484 204t-482 -193t-212 -469h94v-69h-94q14 -276 212 -469t482 -193zM1632 -20q-313 0 -535 213t-237 520h-622v-713h-76v1495h919v-72h-843
v-641h622q14 306 236 520t536 214q312 0 538 -226t226 -542q0 -317 -225 -543q-226 -225 -539 -225z" />
    <glyph glyph-name="Hcircumflex_S" unicode="&#x124;S" horiz-adv-x="2523" 
d="M1868 -20q-690 0 -690 722v9h-940v-711h-76v1495h76v-713h940v713h75v-793q0 -651 615 -651q233 0 353 112t120 257t-117 223q-95 63 -217 98q-123 36 -171 53q-142 50 -205 121q-83 95 -83 249q0 153 118 252q118 100 303 100t305 -104t120 -282h-78v11q0 135 -98 221
t-248 86t-248 -81t-98 -224t114 -216q60 -39 114 -59t150 -49q315 -96 386 -245q33 -67 33 -152q-1 -176 -143 -309t-410 -133zM440 1645l244 301h66l243 -301h-82l-194 239l-193 -239h-84z" />
    <glyph glyph-name="H_Sacute" unicode="H&#x15a;" horiz-adv-x="2523" 
d="M1868 -20q-690 0 -690 722v9h-940v-711h-76v1495h76v-713h940v713h75v-793q0 -651 615 -651q233 0 353 112t120 257t-117 223q-95 63 -217 98q-123 36 -171 53q-142 50 -205 121q-83 95 -83 249q0 153 118 252q118 100 303 100t305 -104t120 -282h-78v11q0 135 -98 221
t-248 86t-248 -81t-98 -224t114 -216q60 -39 114 -59t150 -49q315 -96 386 -245q33 -67 33 -152q-1 -176 -143 -309t-410 -133zM1952 1645l252 301h102l-276 -301h-78z" />
    <glyph glyph-name="H_Scircumflex" unicode="H&#x15c;" horiz-adv-x="2523" 
d="M1692 1645l243 301h66l244 -301h-82l-195 239l-192 -239h-84zM1868 -20q-690 0 -690 722v9h-940v-711h-76v1495h76v-713h940v713h75v-793q0 -651 615 -651q233 0 353 112t120 257t-117 223q-95 63 -217 98q-123 36 -171 53q-142 50 -205 121q-83 95 -83 249
q0 153 118 252q118 100 303 100t305 -104t120 -282h-78v11q0 135 -98 221t-248 86t-248 -81t-98 -224t114 -216q60 -39 114 -59t150 -49q315 -96 386 -245q33 -67 33 -152q-1 -176 -143 -309t-410 -133z" />
    <glyph glyph-name="H_Scaron" unicode="H&#x160;" horiz-adv-x="2523" 
d="M1935 1645l-243 301h82l192 -242l195 242h84l-244 -301h-66zM1868 -20q-690 0 -690 722v9h-940v-711h-76v1495h76v-713h940v713h75v-793q0 -651 615 -651q233 0 353 112t120 257t-117 223q-95 63 -217 98q-123 36 -171 53q-142 50 -205 121q-83 95 -83 249q0 153 118 252
q118 100 303 100t305 -104t120 -282h-78v11q0 135 -98 221t-248 86t-248 -81t-98 -224t114 -216q60 -39 114 -59t150 -49q315 -96 386 -245q33 -67 33 -152q-1 -176 -143 -309t-410 -133z" />
    <glyph glyph-name="H_Scedilla" unicode="H&#x15e;" horiz-adv-x="2523" 
d="M1890 -453q-162 0 -268 107l61 39q95 -86 193 -86t153 35q54 35 54 86t-54 81t-145 29h-47v144q-346 8 -503 193t-156 527v9h-940v-711h-76v1495h76v-713h940v713h75v-793q0 -651 615 -651q233 0 353 112t120 257t-117 223q-95 63 -217 98q-123 36 -171 53
q-142 50 -205 121q-83 95 -83 249q0 153 118 252q118 100 303 100t305 -104t120 -282h-78v11q0 135 -98 221t-248 86t-248 -81t-98 -224t114 -216q60 -39 114 -59t150 -49q315 -96 386 -245q33 -67 33 -152q0 -170 -134 -302t-386 -140v-93q115 0 185 -43q70 -44 71 -118
q0 -74 -75 -126t-192 -53z" />
    <glyph glyph-name="H_Scommaaccent" unicode="H&#x218;" horiz-adv-x="2523" 
d="M1837 -561h-57l96 418h76zM1868 -20q-690 0 -690 722v9h-940v-711h-76v1495h76v-713h940v713h75v-793q0 -651 615 -651q233 0 353 112t120 257t-117 223q-95 63 -217 98q-123 36 -171 53q-142 50 -205 121q-83 95 -83 249q0 153 118 252q118 100 303 100t305 -104
t120 -282h-78v11q0 135 -98 221t-248 86t-248 -81t-98 -224t114 -216q60 -39 114 -59t150 -49q315 -96 386 -245q33 -67 33 -152q-1 -176 -143 -309t-410 -133z" />
    <glyph glyph-name="Iacute_S" unicode="&#xcd;S" horiz-adv-x="1495" 
d="M842 -20q-690 0 -690 722v793h77v-793q0 -651 613 -651q233 0 354 112t121 254t-97 212t-315 134t-301 155q-82 91 -82 245t119 253q119 100 304 100t305 -104t118 -282h-78v11q0 135 -98 221t-249 86t-248 -81t-97 -214q0 -171 157 -252q74 -38 195 -75q121 -36 187 -66
q175 -78 227 -186q33 -67 33 -152q1 -176 -143 -309t-412 -133zM188 1645l252 301h103l-277 -301h-78z" />
    <glyph glyph-name="Igrave_S" unicode="&#xcc;S" horiz-adv-x="1495" 
d="M184 1645l-276 301h102l252 -301h-78zM842 -20q-690 0 -690 722v793h77v-793q0 -651 613 -651q233 0 354 112t121 254t-97 212t-315 134t-301 155q-82 91 -82 245t119 253q119 100 304 100t305 -104t118 -282h-78v11q0 135 -98 221t-249 86t-248 -81t-97 -214
q0 -171 157 -252q74 -38 195 -75q121 -36 187 -66q175 -78 227 -186q33 -67 33 -152q1 -176 -143 -309t-412 -133z" />
    <glyph glyph-name="Icircumflex_S" unicode="&#xce;S" horiz-adv-x="1495" 
d="M842 -20q-690 0 -690 722v793h77v-793q0 -651 613 -651q233 0 354 112t121 254t-97 212t-315 134t-301 155q-82 91 -82 245t119 253q119 100 304 100t305 -104t118 -282h-78v11q0 135 -98 221t-249 86t-248 -81t-97 -214q0 -171 157 -252q74 -38 195 -75q121 -36 187 -66
q175 -78 227 -186q33 -67 33 -152q1 -176 -143 -309t-412 -133zM-88 1645l244 301h65l244 -301h-82l-195 239l-192 -239h-84z" />
    <glyph glyph-name="Idieresis_S" unicode="&#xcf;S" horiz-adv-x="1495" 
d="M842 -20q-690 0 -690 722v793h77v-793q0 -651 613 -651q233 0 354 112t121 254t-97 212t-315 134t-301 155q-82 91 -82 245t119 253q119 100 304 100t305 -104t118 -282h-78v11q0 135 -98 221t-249 86t-248 -81t-97 -214q0 -171 157 -252q74 -38 195 -75q121 -36 187 -66
q175 -78 227 -186q33 -67 33 -152q1 -176 -143 -309t-412 -133zM49 1649v286h74v-286h-74zM254 1649v286h74v-286h-74z" />
    <glyph glyph-name="Itilde_S" unicode="&#x128;S" horiz-adv-x="1495" 
d="M-166 1645q0 88 50 142t124 54q74 1 189 -69t170 -70q121 0 120 133h66q0 -94 -50 -146q-111 -115 -333 19q-104 66 -156 66t-84 -34q-33 -34 -32 -95h-64zM842 -20q-690 0 -690 722v793h77v-793q0 -651 613 -651q233 0 354 112t121 254t-97 212t-315 134t-301 155
q-82 91 -82 245t119 253q119 100 304 100t305 -104t118 -282h-78v11q0 135 -98 221t-249 86t-248 -81t-97 -214q0 -171 157 -252q74 -38 195 -75q121 -36 187 -66q175 -78 227 -186q33 -67 33 -152q1 -176 -143 -309t-412 -133z" />
    <glyph glyph-name="Imacron_S" unicode="&#x12a;S" horiz-adv-x="1495" 
d="M-78 1645v65h541v-65h-541zM842 -20q-690 0 -690 722v793h77v-793q0 -651 613 -651q233 0 354 112t121 254t-97 212t-315 134t-301 155q-82 91 -82 245t119 253q119 100 304 100t305 -104t118 -282h-78v11q0 135 -98 221t-249 86t-248 -81t-97 -214q0 -171 157 -252
q74 -38 195 -75q121 -36 187 -66q175 -78 227 -186q33 -67 33 -152q1 -176 -143 -309t-412 -133z" />
    <glyph glyph-name="Ibreve_S" unicode="&#x12c;S" horiz-adv-x="1495" 
d="M524 1944q0 -122 -91 -216t-245 -94t-239 91q-86 91 -86 219h67q0 -102 69 -176t192 -72q123 0 195 74t71 174h67zM842 -20q-690 0 -690 722v793h77v-793q0 -651 613 -651q233 0 354 112t121 254t-97 212t-315 134t-301 155q-82 91 -82 245t119 253q119 100 304 100
t305 -104t118 -282h-78v11q0 135 -98 221t-249 86t-248 -81t-97 -214q0 -171 157 -252q74 -38 195 -75q121 -36 187 -66q175 -78 227 -186q33 -67 33 -152q1 -176 -143 -309t-412 -133z" />
    <glyph glyph-name="Idotaccent_S" unicode="&#x130;S" horiz-adv-x="1495" 
d="M152 1649v286h75v-286h-75zM842 -20q-690 0 -690 722v793h77v-793q0 -651 613 -651q233 0 354 112t121 254t-97 212t-315 134t-301 155q-82 91 -82 245t119 253q119 100 304 100t305 -104t118 -282h-78v11q0 135 -98 221t-249 86t-248 -81t-97 -214q0 -171 157 -252
q74 -38 195 -75q121 -36 187 -66q175 -78 227 -186q33 -67 33 -152q1 -176 -143 -309t-412 -133z" />
    <glyph glyph-name="Iogonek_S" unicode="&#x12e;S" horiz-adv-x="1495" 
d="M1397 422q1 -176 -143 -309t-404 -133t-418 94q-115 -60 -164 -108t-49 -102t48 -87t140 -33t187 90l61 -43q-121 -113 -247 -113t-196 54t-69 133q0 137 230 250q-221 174 -221 587v793h77v-793q0 -651 613 -651q233 0 354 112t121 254t-97 212t-315 134t-301 155
q-82 91 -82 245t119 253q119 100 304 100t305 -104t118 -282h-78v11q0 135 -98 221t-249 86t-248 -81t-97 -214q0 -171 157 -252q74 -38 195 -75q121 -36 187 -66q175 -78 227 -186q33 -67 33 -152z" />
    <glyph glyph-name="I_Sacute" unicode="I&#x15a;" horiz-adv-x="1495" 
d="M915 1645l252 301h103l-277 -301h-78zM842 -20q-690 0 -690 722v793h77v-793q0 -651 613 -651q233 0 354 112t121 254t-97 212t-315 134t-301 155q-82 91 -82 245t119 253q119 100 304 100t305 -104t118 -282h-78v11q0 135 -98 221t-249 86t-248 -81t-97 -214
q0 -171 157 -252q74 -38 195 -75q121 -36 187 -66q175 -78 227 -186q33 -67 33 -152q1 -176 -143 -309t-412 -133z" />
    <glyph glyph-name="I_Scircumflex" unicode="I&#x15c;" horiz-adv-x="1495" 
d="M842 -20q-690 0 -690 722v793h77v-793q0 -651 613 -651q233 0 354 112t121 254t-97 212t-315 134t-301 155q-82 91 -82 245t119 253q119 100 304 100t305 -104t118 -282h-78v11q0 135 -98 221t-249 86t-248 -81t-97 -214q0 -171 157 -252q74 -38 195 -75q121 -36 187 -66
q175 -78 227 -186q33 -67 33 -152q1 -176 -143 -309t-412 -133zM670 1645l243 301h66l244 -301h-82l-195 239l-192 -239h-84z" />
    <glyph glyph-name="I_Scaron" unicode="I&#x160;" horiz-adv-x="1495" 
d="M913 1645l-243 301h82l192 -242l195 242h84l-244 -301h-66zM842 -20q-690 0 -690 722v793h77v-793q0 -651 613 -651q233 0 354 112t121 254t-97 212t-315 134t-301 155q-82 91 -82 245t119 253q119 100 304 100t305 -104t118 -282h-78v11q0 135 -98 221t-249 86t-248 -81
t-97 -214q0 -171 157 -252q74 -38 195 -75q121 -36 187 -66q175 -78 227 -186q33 -67 33 -152q1 -176 -143 -309t-412 -133z" />
    <glyph glyph-name="I_Scedilla" unicode="I&#x15e;" horiz-adv-x="1495" 
d="M975 -453q-162 0 -268 107l61 39q96 -86 194 -86t151 35q54 35 54 86t-54 81t-144 29h-47v146q-53 -4 -80 -4q-690 0 -690 722v793h77v-793q0 -651 613 -651q233 0 354 112t121 254t-97 212t-315 134t-301 155q-82 91 -82 245t119 253q119 100 304 100t305 -104t118 -282
h-78v11q0 135 -98 221t-249 86t-248 -81t-97 -214q0 -171 157 -252q74 -38 195 -75q121 -36 187 -66q175 -78 227 -186q33 -67 33 -152q-1 -150 -107 -272t-305 -158v-105q115 0 185 -43q70 -44 71 -118q-1 -74 -75 -126t-191 -53z" />
    <glyph glyph-name="I_Scommaaccent" unicode="I&#x218;" horiz-adv-x="1495" 
d="M911 -561h-57l96 418h76zM842 -20q-690 0 -690 722v793h77v-793q0 -651 613 -651q233 0 354 112t121 254t-97 212t-315 134t-301 155q-82 91 -82 245t119 253q119 100 304 100t305 -104t118 -282h-78v11q0 135 -98 221t-249 86t-248 -81t-97 -214q0 -171 157 -252
q74 -38 195 -75q121 -36 187 -66q175 -78 227 -186q33 -67 33 -152q1 -176 -143 -309t-412 -133z" />
    <glyph glyph-name="I_Tcaron" unicode="I&#x164;" horiz-adv-x="1304" 
d="M653 1645l-243 301h82l192 -242l195 242h84l-244 -301h-66zM162 0v1278h76v-1278h-76zM643 0v1423h-481v72h1040v-72h-481v-1423h-78z" />
    <glyph glyph-name="I_Tcommaaccent" unicode="I&#x162;" horiz-adv-x="1304" 
d="M162 0v1278h76v-1278h-76zM643 0v1423h-481v72h1040v-72h-481v-1423h-78zM639 -561h-57l96 418h76z" />
    <glyph glyph-name="I_Tcaron_I" unicode="I&#x164;I" horiz-adv-x="1363" 
d="M651 1645l-243 301h81l193 -242l195 242h84l-244 -301h-66zM162 0v1278h76v-1278h-76zM1126 0v1278h76v-1278h-76zM643 0v1423h-481v72h1040v-72h-481v-1423h-78z" />
    <glyph glyph-name="I_Tcommaaccent_I" unicode="I&#x162;I" horiz-adv-x="1363" 
d="M1126 0v1278h76v-1278h-76zM162 0v1278h76v-1278h-76zM643 0v1423h-481v72h1040v-72h-481v-1423h-78zM637 -561h-57l96 418h76z" />
    <glyph glyph-name="Kcommaaccent_A" unicode="&#x136;A" horiz-adv-x="1882" 
d="M635 -561h-57l96 418h76zM1645 530v854l-646 -854h646zM238 0h-76v1495h76v-1034l802 1034h93l-471 -606l249 -357l727 963h84v-1495h-77v463h-684l325 -463h-90l-289 410l-309 -410h-88l354 469l-256 362l-370 -485v-346z" />
    <glyph glyph-name="K_Aacute" unicode="K&#xc1;" horiz-adv-x="1882" 
d="M1665 1645l252 301h102l-276 -301h-78zM1645 530v854l-646 -854h646zM238 0h-76v1495h76v-1034l802 1034h93l-471 -606l249 -357l727 963h84v-1495h-77v463h-684l325 -463h-90l-289 410l-309 -410h-88l354 469l-256 362l-370 -485v-346z" />
    <glyph glyph-name="K_Agrave" unicode="K&#xc0;" horiz-adv-x="1882" 
d="M1661 1645l-277 301h103l252 -301h-78zM1645 530v854l-646 -854h646zM238 0h-76v1495h76v-1034l802 1034h93l-471 -606l249 -357l727 963h84v-1495h-77v463h-684l325 -463h-90l-289 410l-309 -410h-88l354 469l-256 362l-370 -485v-346z" />
    <glyph glyph-name="K_Acircumflex" unicode="K&#xc2;" horiz-adv-x="1882" 
d="M1411 1645l244 301h65l244 -301h-82l-194 239l-193 -239h-84zM1645 530v854l-646 -854h646zM238 0h-76v1495h76v-1034l802 1034h93l-471 -606l249 -357l727 963h84v-1495h-77v463h-684l325 -463h-90l-289 410l-309 -410h-88l354 469l-256 362l-370 -485v-346z" />
    <glyph glyph-name="K_Adieresis" unicode="K&#xc4;" horiz-adv-x="1882" 
d="M1751 1649v286h74v-286h-74zM1546 1649v286h74v-286h-74zM1645 530v854l-646 -854h646zM238 0h-76v1495h76v-1034l802 1034h93l-471 -606l249 -357l727 963h84v-1495h-77v463h-684l325 -463h-90l-289 410l-309 -410h-88l354 469l-256 362l-370 -485v-346z" />
    <glyph glyph-name="K_Atilde" unicode="K&#xc3;" horiz-adv-x="1882" 
d="M1327 1645q0 88 50 142t124 54q74 1 189 -69t170 -70q121 0 120 133h66q0 -94 -50 -146q-111 -115 -333 19q-103 66 -155 66t-85 -34t-32 -95h-64zM1645 530v854l-646 -854h646zM238 0h-76v1495h76v-1034l802 1034h93l-471 -606l249 -357l727 963h84v-1495h-77v463h-684
l325 -463h-90l-289 410l-309 -410h-88l354 469l-256 362l-370 -485v-346z" />
    <glyph glyph-name="K_Aring" unicode="K&#xc5;" horiz-adv-x="1882" 
d="M1684 1503q50 0 89 37q37 37 37 88t-37 89q-39 38 -89 38t-87 -39t-37 -89t38 -87q36 -37 86 -37zM1645 530v854l-646 -854h646zM1608 1456q-111 52 -111 182q0 68 55 123t133 55q77 0 133 -54t56 -128t-43 -125t-109 -65v-1444h-77v463h-684l325 -463h-90l-289 410
l-309 -410h-88l354 469l-256 362l-370 -485v-346h-76v1495h76v-1034l802 1034h93l-471 -606l249 -357z" />
    <glyph glyph-name="K_Amacron" unicode="K&#x100;" horiz-adv-x="1882" 
d="M1417 1645v65h541v-65h-541zM1645 530v854l-646 -854h646zM238 0h-76v1495h76v-1034l802 1034h93l-471 -606l249 -357l727 963h84v-1495h-77v463h-684l325 -463h-90l-289 410l-309 -410h-88l354 469l-256 362l-370 -485v-346z" />
    <glyph glyph-name="K_Abreve" unicode="K&#x102;" horiz-adv-x="1882" 
d="M2015 1944q0 -122 -91 -216q-90 -94 -244 -94t-240 91t-86 219h67q0 -102 69 -176t192 -72q122 0 194 74t72 174h67zM1645 530v854l-646 -854h646zM238 0h-76v1495h76v-1034l802 1034h93l-471 -606l249 -357l727 963h84v-1495h-77v463h-684l325 -463h-90l-289 410
l-309 -410h-88l354 469l-256 362l-370 -485v-346z" />
    <glyph glyph-name="K_Aogonek" unicode="K&#x104;" horiz-adv-x="1882" 
d="M1645 530v854l-646 -854h646zM238 0h-76v1495h76v-1034l802 1034h93l-471 -606l249 -357l727 963h84v-1495h-6l4 -2q-133 -66 -187 -117t-54 -106t48 -88t140 -33t186 90l62 -43q-121 -113 -247 -113t-196 54t-69 133q0 143 242 254v434h-684l325 -463h-90l-289 410
l-309 -410h-88l354 469l-256 362l-370 -485v-346z" />
    <glyph glyph-name="K_Aringacute" unicode="K&#x1fa;" horiz-adv-x="1882" 
d="M1669 1884l252 301h102l-276 -301h-78zM1682 1503q50 0 88 37t38 88t-38 89t-88 38t-87 -39t-37 -89t38 -87q36 -37 86 -37zM1645 530v854l-646 -854h646zM238 0h-76v1495h76v-1034l802 1034h93l-471 -606l249 -357l697 922q-49 23 -81 70q-32 46 -32 114t55 123t133 55
q77 0 133 -54t56 -128t-42 -125t-108 -65v-1444h-77v463h-684l325 -463h-90l-289 410l-309 -410h-88l354 469l-256 362l-370 -485v-346z" />
    <glyph glyph-name="Lacute_A" unicode="&#x139;A" horiz-adv-x="1542" 
d="M190 1645l252 301h103l-277 -301h-78zM1305 514v866l-658 -866h658zM162 0v1495h76v-1407l1060 1407h84v-1495h-77v444h-709l-281 -370h693v-74h-846z" />
    <glyph glyph-name="Lcommaaccent_A" unicode="&#x13b;A" horiz-adv-x="1542" 
d="M539 -561h-58l97 418h75zM1305 514v866l-658 -866h658zM162 0v1495h76v-1407l1060 1407h84v-1495h-77v444h-709l-281 -370h693v-74h-846z" />
    <glyph glyph-name="Lslash_A" unicode="&#x141;A" horiz-adv-x="1626" 
d="M1386 514v866l-657 -866h657zM244 1495h75v-678l216 64v-58l-216 -63v-672l1061 1407h84v-1495h-78v444h-708l-281 -370h693v-74h-846v737l-201 -57v57l201 58v700z" />
    <glyph glyph-name="L_Aacute" unicode="L&#xc1;" horiz-adv-x="1542" 
d="M1323 1645l252 301h102l-276 -301h-78zM1305 514v866l-658 -866h658zM162 0v1495h76v-1407l1060 1407h84v-1495h-77v444h-709l-281 -370h693v-74h-846z" />
    <glyph glyph-name="L_Agrave" unicode="L&#xc0;" horiz-adv-x="1542" 
d="M1327 1645l-276 301h102l252 -301h-78zM1305 514v866l-658 -866h658zM162 0v1495h76v-1407l1060 1407h84v-1495h-77v444h-709l-281 -370h693v-74h-846z" />
    <glyph glyph-name="L_Adieresis" unicode="L&#xc4;" horiz-adv-x="1542" 
d="M1305 514v866l-658 -866h658zM162 0v1495h76v-1407l1060 1407h84v-1495h-77v444h-709l-281 -370h693v-74h-846zM1204 1649v286h74v-286h-74zM1409 1649v286h74v-286h-74z" />
    <glyph glyph-name="L_Acircumflex" unicode="L&#xc2;" horiz-adv-x="1542" 
d="M1071 1645l244 301h65l244 -301h-82l-194 239l-193 -239h-84zM1305 514v866l-658 -866h658zM162 0v1495h76v-1405l1060 1405h84v-1495h-77v444h-709l-281 -370h693v-74h-846z" />
    <glyph glyph-name="L_Atilde" unicode="L&#xc3;" horiz-adv-x="1542" 
d="M985 1645q0 88 50 142t124 54q74 1 189 -69t170 -70q121 0 120 133h66q0 -94 -50 -146q-111 -115 -333 19q-103 66 -155 66t-85 -34t-32 -95h-64zM1305 514v866l-658 -866h658zM162 0v1495h76v-1407l1060 1407h84v-1495h-77v444h-709l-281 -370h693v-74h-846z" />
    <glyph glyph-name="L_Aring" unicode="L&#xc5;" horiz-adv-x="1542" 
d="M1342 1503q50 0 89 37q37 37 37 88t-37 89q-39 38 -89 38t-87 -39t-37 -89t38 -87q36 -37 86 -37zM1305 514v866l-658 -866h658zM162 0v1495h76v-1407l1030 1366q-49 23 -81 70q-32 46 -32 114t55 123t133 55q77 0 133 -54t56 -128t-42 -125t-108 -65v-1444h-77v444h-709
l-281 -370h693v-74h-846z" />
    <glyph glyph-name="L_Amacron" unicode="L&#x100;" horiz-adv-x="1542" 
d="M1073 1645v65h541v-65h-541zM1305 514v866l-658 -866h658zM162 0v1495h76v-1407l1060 1407h84v-1495h-77v444h-709l-281 -370h693v-74h-846z" />
    <glyph glyph-name="L_Abreve" unicode="L&#x102;" horiz-adv-x="1542" 
d="M1677 1944q0 -122 -91 -216q-90 -94 -244 -94t-240 91t-86 219h67q0 -102 69 -176t192 -72q122 0 194 74t72 174h67zM1305 514v866l-658 -866h658zM162 0v1495h76v-1407l1060 1407h84v-1495h-77v444h-709l-281 -370h693v-74h-846z" />
    <glyph glyph-name="L_Aogonek" unicode="L&#x104;" horiz-adv-x="1542" 
d="M1305 514v866l-658 -866h658zM1328 -412q-126 0 -196 54t-69 133q0 143 242 254v415h-709l-281 -370h693v-74h-846v1495h76v-1407l1060 1407h84v-1495h-6l4 -2q-133 -66 -187 -117t-54 -106t48 -88t140 -33t186 90l62 -43q-121 -113 -247 -113z" />
    <glyph glyph-name="L_Aringacute" unicode="L&#x1fa;" horiz-adv-x="1542" 
d="M1327 1884l252 301h102l-276 -301h-78zM1361 1501q50 0 88 37t38 88t-38 89t-88 38t-87 -39t-37 -89t37 -87t87 -37zM1305 514v866l-658 -866h658zM162 0v1495h76v-1407l1034 1372q-98 53 -98 164q0 80 55 135t133 55t133 -54t55 -130t-48 -129t-120 -63v-1438h-77v444
h-709l-281 -370h693v-74h-846z" />
    <glyph glyph-name="Lacute_S" unicode="&#x139;S" horiz-adv-x="1482" 
d="M190 1645l252 301h103l-277 -301h-78zM162 0v1495h76v-1421h692q160 0 264 92t104 227t-73 221q-29 33 -88 64t-99 44t-120 38t-124 40t-108 49t-96 71q-86 96 -85 248q1 151 120 249q119 99 304 99t305 -104t118 -282h-76v11q0 135 -99 221t-250 86t-247 -80t-96 -204
t70 -201q28 -31 86 -60t100 -42t131 -41q309 -96 376 -243q32 -71 31 -167q0 -180 -126 -295t-320 -115h-770z" />
    <glyph glyph-name="L_Scedilla" unicode="L&#x15e;" horiz-adv-x="1482" 
d="M162 0v1495h76v-1421h692q160 0 264 92t104 227t-73 221q-29 33 -88 64t-99 44t-120 38t-124 40t-108 49t-96 71q-86 96 -85 248q1 151 120 249q119 99 304 99t305 -104t118 -282h-76v11q0 135 -99 221t-250 86t-247 -80t-96 -204t70 -201q28 -31 86 -60t100 -42t131 -41
q309 -96 376 -243q32 -71 31 -167q0 -178 -123 -292t-313 -118v-109q116 0 186 -43q70 -44 70 -118t-75 -126t-191 -53q-162 0 -268 107l61 39q95 -86 193 -86t152 35t54 86t-54 81t-144 29h-47v158h-717z" />
    <glyph glyph-name="L_Scircumflex" unicode="L&#x15c;" horiz-adv-x="1482" 
d="M162 0v1495h76v-1421h692q160 0 264 92t104 227t-73 221q-29 33 -88 64t-99 44t-120 38t-124 40t-108 49t-96 71q-86 96 -85 248q1 151 120 249q119 99 304 99t305 -104t118 -282h-76v11q0 135 -99 221t-250 86t-247 -80t-96 -204t70 -201q28 -31 86 -60t100 -42t131 -41
q309 -96 376 -243q32 -71 31 -167q0 -180 -126 -295t-320 -115h-770zM653 1645l244 301h66l243 -301h-82l-194 239l-193 -239h-84z" />
    <glyph glyph-name="L_Scommaaccent" unicode="L&#x218;" horiz-adv-x="1482" 
d="M162 0v1495h76v-1421h692q160 0 264 92t104 227t-73 221q-29 33 -88 64t-99 44t-120 38t-124 40t-108 49t-96 71q-86 96 -85 248q1 151 120 249q119 99 304 99t305 -104t118 -282h-76v11q0 135 -99 221t-250 86t-247 -80t-96 -204t70 -201q28 -31 86 -60t100 -42t131 -41
q309 -96 376 -243q32 -71 31 -167q0 -180 -126 -295t-320 -115h-770zM889 -561h-58l97 418h76z" />
    <glyph glyph-name="L_Sacute" unicode="L&#x15a;" horiz-adv-x="1482" 
d="M901 1645l252 301h102l-276 -301h-78zM162 0v1495h76v-1421h692q160 0 264 92t104 227t-73 221q-29 33 -88 64t-99 44t-120 38t-124 40t-108 49t-96 71q-86 96 -85 248q1 151 120 249q119 99 304 99t305 -104t118 -282h-76v11q0 135 -99 221t-250 86t-247 -80t-96 -204
t70 -201q28 -31 86 -60t100 -42t131 -41q309 -96 376 -243q32 -71 31 -167q0 -180 -126 -295t-320 -115h-770z" />
    <glyph glyph-name="L_Scaron" unicode="L&#x160;" horiz-adv-x="1482" 
d="M901 1645l-244 301h82l193 -242l194 242h84l-243 -301h-66zM162 0v1495h76v-1421h692q160 0 264 92t104 227t-73 221q-29 33 -88 64t-99 44t-120 38t-124 40t-108 49t-96 71q-86 96 -85 248q1 151 120 249q119 99 304 99t305 -104t118 -282h-76v11q0 135 -99 221t-250 86
t-247 -80t-96 -204t70 -201q28 -31 86 -60t100 -42t131 -41q309 -96 376 -243q32 -71 31 -167q0 -180 -126 -295t-320 -115h-770z" />
    <glyph glyph-name="Lcommaaccent_S" unicode="&#x13b;S" horiz-adv-x="1482" 
d="M162 0v1495h76v-1421h692q160 0 264 92t104 227t-73 221q-29 33 -88 64t-99 44t-120 38t-124 40t-108 49t-96 71q-86 96 -85 248q1 151 120 249q119 99 304 99t305 -104t118 -282h-76v11q0 135 -99 221t-250 86t-247 -80t-96 -204t70 -201q28 -31 86 -60t100 -42t131 -41
q309 -96 376 -243q32 -71 31 -167q0 -180 -126 -295t-320 -115h-770zM502 -561h-58l97 418h75z" />
    <glyph glyph-name="Lacute_M" unicode="&#x139;M" horiz-adv-x="2670" 
d="M184 1645l252 301h103l-277 -301h-78zM162 0v1495h76v-1409l1062 1409h82v-1380l1045 1380h84v-1495h-78v1380l-1044 -1380h-82v1380l-990 -1306h691v-74h-846z" />
    <glyph glyph-name="L_M" unicode="LM" horiz-adv-x="2670" 
d="M162 0v1495h76v-1409l1062 1409h82v-1380l1045 1380h84v-1495h-78v1380l-1044 -1380h-82v1380l-990 -1306h691v-74h-846z" />
    <glyph glyph-name="Lcommaaccent_M" unicode="&#x13b;M" horiz-adv-x="2670" 
d="M162 0v1495h76v-1409l1062 1409h82v-1380l1045 1380h84v-1495h-78v1380l-1044 -1380h-82v1380l-990 -1306h691v-74h-846zM508 -561h-57l96 418h76z" />
    <glyph glyph-name="Lacute_T" unicode="&#x139;T" horiz-adv-x="1589" 
d="M162 0v1495h76v-1421h483v-74h-559zM926 0v1423h-484v72h1045v-72h-483v-1423h-78zM180 1645l252 301h103l-277 -301h-78z" />
    <glyph glyph-name="Lcommaaccent_T" unicode="&#x13b;T" horiz-adv-x="1589" 
d="M381 -561h-57l96 418h76zM162 0v1495h76v-1421h483v-74h-559zM926 0v1423h-484v72h1045v-72h-483v-1423h-78z" />
    <glyph glyph-name="Lslash_T" unicode="&#x141;T" horiz-adv-x="1683" 
d="M254 1495h76v-674l205 60v-58l-205 -59v-690h483v-74h-559v741l-211 -61v57l211 62v696zM1018 0v1423h-483v72h1044v-72h-483v-1423h-78z" />
    <glyph glyph-name="L_Tcaron" unicode="L&#x164;" horiz-adv-x="1589" 
d="M897 1645l-244 301h82l193 -242l194 242h84l-243 -301h-66zM162 0v1495h76v-1421h483v-74h-559zM926 0v1423h-484v72h1045v-72h-483v-1423h-78z" />
    <glyph glyph-name="L_Tcommaaccent" unicode="L&#x162;" horiz-adv-x="1589" 
d="M162 0v1495h76v-1421h483v-74h-559zM926 0v1423h-484v72h1045v-72h-483v-1423h-78zM879 -561h-58l97 418h75z" />
    <glyph glyph-name="Lacute_T_I" unicode="&#x139;TI" horiz-adv-x="1644" 
d="M1407 0v1278h78v-1278h-78zM162 0v1495h76v-1421h483v-74h-559zM926 0v1423h-484v72h1043v-72h-484v-1423h-75zM188 1645l252 301h103l-277 -301h-78z" />
    <glyph glyph-name="Lcommaaccent_T_I" unicode="&#x13b;TI" horiz-adv-x="1644" 
d="M397 -561h-57l96 418h76zM1407 0v1278h78v-1278h-78zM162 0v1495h76v-1421h483v-74h-559zM926 0v1423h-484v72h1043v-72h-484v-1423h-75z" />
    <glyph glyph-name="Lslash_T_I" unicode="&#x141;TI" horiz-adv-x="1740" 
d="M1493 0v1284h76v-1284h-76zM254 1495h76v-674l205 60v-58l-205 -59v-690h483v-74h-559v741l-211 -61v57l211 62v696zM1018 0v1423h-483v72h1044v-72h-483v-1423h-78z" />
    <glyph glyph-name="L_Tcaron_I" unicode="L&#x164;I" horiz-adv-x="1644" 
d="M897 1645l-244 301h82l193 -242l194 242h84l-243 -301h-66zM1407 0v1278h78v-1278h-78zM162 0v1495h76v-1421h483v-74h-559zM926 0v1423h-484v72h1043v-72h-484v-1423h-75z" />
    <glyph glyph-name="L_Tcommaaccent_I" unicode="L&#x162;I" horiz-adv-x="1644" 
d="M1407 0v1278h78v-1278h-78zM162 0v1495h76v-1421h483v-74h-559zM926 0v1423h-484v72h1043v-72h-484v-1423h-75zM883 -561h-58l97 418h75z" />
    <glyph glyph-name="Lacute_Y" unicode="&#x139;Y" horiz-adv-x="1804" 
d="M190 1645l252 301h103l-277 -301h-78zM162 0v1495h76v-1421h698v-74h-774zM1147 0v715l-508 780h88l457 -709l456 709h89l-504 -778v-717h-78z" />
    <glyph glyph-name="Lslash_Y" unicode="&#x141;Y" horiz-adv-x="1916" 
d="M1260 0v715l-508 780h88l456 -709l457 709h88l-504 -778v-717h-77zM274 1495h76v-672l215 64v-58l-215 -63v-692h699v-74h-775v745l-200 -57v57l200 58v692z" />
    <glyph glyph-name="Lcommaaccent_Y" unicode="&#x13b;Y" horiz-adv-x="1804" 
d="M162 0v1495h76v-1421h698v-74h-774zM1147 0v715l-508 780h88l457 -709l456 709h89l-504 -778v-717h-78zM516 -561h-57l96 418h76z" />
    <glyph glyph-name="L_Yacute" unicode="L&#xdd;" horiz-adv-x="1804" 
d="M162 0v1495h76v-1421h698v-74h-774zM1147 0v715l-508 780h88l457 -709l456 709h89l-504 -778v-717h-78zM1143 1645l252 301h102l-276 -301h-78z" />
    <glyph glyph-name="L_Ygrave" unicode="L&#x1ef2;" horiz-adv-x="1804" 
d="M1165 1645l-276 301h102l252 -301h-78zM162 0v1495h76v-1421h698v-74h-774zM1147 0v715l-508 780h88l457 -709l456 709h89l-504 -778v-717h-78z" />
    <glyph glyph-name="L_Ydieresis" unicode="L&#x178;" horiz-adv-x="1804" 
d="M162 0v1495h76v-1421h698v-74h-774zM1147 0v715l-508 780h88l457 -709l456 709h89l-504 -778v-717h-78zM1040 1649v286h74v-286h-74zM1245 1649v286h74v-286h-74z" />
    <glyph glyph-name="L_Ycircumflex" unicode="L&#x176;" horiz-adv-x="1804" 
d="M162 0v1495h76v-1421h698v-74h-774zM1147 0v715l-508 780h88l457 -709l456 709h89l-504 -778v-717h-78zM903 1645l244 301h65l244 -301h-82l-194 239l-193 -239h-84z" />
    <glyph glyph-name="M_Aacute" unicode="M&#xc1;" horiz-adv-x="3055" 
d="M2845 1645l252 301h102l-277 -301h-77zM2818 514v866l-657 -866h657zM1364 0h-82l-1044 1380v-1380h-76v1495h82l1044 -1380v1380h84l719 -952l721 952h82v-1495h-76v444h-653l336 -444h-93l-317 420l-317 -420h-93l363 481l-680 901v-1382z" />
    <glyph glyph-name="M_Agrave" unicode="M&#xc0;" horiz-adv-x="3055" 
d="M2830 1645l-276 301h102l252 -301h-78zM2818 514v866l-657 -866h657zM1364 0h-82l-1044 1380v-1380h-76v1495h82l1044 -1380v1380h84l719 -952l721 952h82v-1495h-76v444h-653l336 -444h-93l-317 420l-317 -420h-93l363 481l-680 901v-1382z" />
    <glyph glyph-name="M_Acircumflex" unicode="M&#xc2;" horiz-adv-x="3055" 
d="M2818 514v866l-657 -866h657zM1364 0h-82l-1044 1380v-1380h-76v1495h82l1044 -1380v1380h84l719 -952l721 952h82v-1495h-76v444h-653l336 -444h-93l-317 420l-317 -420h-93l363 481l-680 901v-1382zM2587 1645l243 301h66l244 -301h-82l-195 239l-192 -239h-84z" />
    <glyph glyph-name="M_Adieresis" unicode="M&#xc4;" horiz-adv-x="3055" 
d="M2925 1649v286h73v-286h-73zM2720 1649v286h73v-286h-73zM2818 514v866l-657 -866h657zM1364 0h-82l-1044 1380v-1380h-76v1495h82l1044 -1380v1380h84l719 -952l721 952h82v-1495h-76v444h-653l336 -444h-93l-317 420l-317 -420h-93l363 481l-680 901v-1382z" />
    <glyph glyph-name="M_Atilde" unicode="M&#xc3;" horiz-adv-x="3055" 
d="M2499 1645q0 88 50 142t124 54q75 1 189 -69t169 -70q121 0 121 133h65q0 -94 -50 -146q-111 -115 -333 19q-104 66 -155 66t-84 -34t-33 -95h-63zM2818 514v866l-657 -866h657zM1364 0h-82l-1044 1380v-1380h-76v1495h82l1044 -1380v1380h84l719 -952l721 952h82v-1495
h-76v444h-653l336 -444h-93l-317 420l-317 -420h-93l363 481l-680 901v-1382z" />
    <glyph glyph-name="M_Aring" unicode="M&#xc5;" horiz-adv-x="3055" 
d="M2858 1501q50 0 88 37t38 88t-38 89t-88 38t-87 -39t-37 -89t37 -87t87 -37zM2818 514v866l-657 -866h657zM1364 0h-82l-1044 1380v-1380h-76v1495h82l1044 -1380v1380h84l719 -952l690 911q-111 52 -111 182q0 68 56 123q55 55 133 55t133 -54t55 -128t-44 -126
t-109 -66v-1440h-76v444h-653l336 -444h-93l-317 420l-317 -420h-93l363 481l-680 901v-1382z" />
    <glyph glyph-name="M_Amacron" unicode="M&#x100;" horiz-adv-x="3055" 
d="M2587 1645v65h540v-65h-540zM2818 514v866l-657 -866h657zM1364 0h-82l-1044 1380v-1380h-76v1495h82l1044 -1380v1380h84l719 -952l721 952h82v-1495h-76v444h-653l336 -444h-93l-317 420l-317 -420h-93l363 481l-680 901v-1382z" />
    <glyph glyph-name="M_Abreve" unicode="M&#x102;" horiz-adv-x="3055" 
d="M2852 1634q-154 0 -239 91q-86 91 -86 219h68q0 -102 68 -176q69 -72 192 -72t195 74t71 174h68q0 -123 -91 -217q-92 -93 -246 -93zM2818 514v866l-657 -866h657zM1364 0h-82l-1044 1380v-1380h-76v1495h82l1044 -1380v1380h84l719 -952l721 952h82v-1495h-76v444h-653
l336 -444h-93l-317 420l-317 -420h-93l363 481l-680 901v-1382z" />
    <glyph glyph-name="M_Aogonek" unicode="M&#x104;" horiz-adv-x="3055" 
d="M2818 514v866l-657 -866h657zM1364 0h-82l-1044 1380v-1380h-76v1495h82l1044 -1380v1380h84l719 -952l721 952h82v-1495h-4l4 -2q-134 -66 -188 -117t-54 -106t48 -88t140 -33t187 90l61 -43q-121 -113 -247 -113q-125 0 -195 54t-70 133q0 143 242 254v415h-653
l336 -444h-93l-317 420l-317 -420h-93l363 481l-680 901v-1382z" />
    <glyph glyph-name="M_Aringacute" unicode="M&#x1fa;" horiz-adv-x="3055" 
d="M2841 1884l251 301h103l-277 -301h-77zM2858 1501q50 0 88 37t38 88t-38 89t-88 38t-87 -39t-37 -89t37 -87t87 -37zM2818 514v866l-657 -866h657zM1364 0h-82l-1044 1380v-1380h-76v1495h82l1044 -1380v1380h84l719 -952l690 911q-111 52 -111 182q0 68 56 123
q55 55 133 55t133 -54t55 -128t-44 -126t-109 -66v-1440h-76v444h-653l336 -444h-93l-317 420l-317 -420h-93l363 481l-680 901v-1382z" />
    <glyph glyph-name="M_Scircumflex" unicode="M&#x15c;" horiz-adv-x="2893" 
d="M2066 1645l244 301h66l243 -301h-82l-194 239l-193 -239h-84zM162 0v1495h76l645 -895l669 895h74v-793q0 -651 612 -651q233 0 355 112q121 112 121 254t-98 212t-315 134q-218 64 -300 155t-82 245t119 253q119 100 304 100t305 -104t118 -282h-78v11q0 135 -98 221
t-249 86t-248 -81t-97 -205t64 -193t193 -112q44 -15 130 -41q305 -92 379 -242q33 -67 32 -152q0 -176 -143 -309t-412 -133q-690 0 -690 722v668l-665 -895l-645 889v-1364h-76z" />
    <glyph glyph-name="M_Scaron" unicode="M&#x160;" horiz-adv-x="2893" 
d="M2312 1645l-244 301h82l193 -242l194 242h84l-243 -301h-66zM162 0v1495h76l645 -895l669 895h74v-793q0 -651 612 -651q233 0 355 112q121 112 121 254t-98 212t-315 134q-218 64 -300 155t-82 245t119 253q119 100 304 100t305 -104t118 -282h-78v11q0 135 -98 221
t-249 86t-248 -81t-97 -205t64 -193t193 -112q44 -15 130 -41q305 -92 379 -242q33 -67 32 -152q0 -176 -143 -309t-412 -133q-690 0 -690 722v668l-665 -895l-645 889v-1364h-76z" />
    <glyph glyph-name="M_Scedilla" unicode="M&#x15e;" horiz-adv-x="2893" 
d="M2286 -453q-162 0 -269 107l62 39q95 -86 193 -86t152 35t54 86t-54 81t-145 29h-47v142q-684 2 -684 722v668l-665 -895l-645 889v-1364h-76v1495h76l645 -895l669 895h74v-793q0 -651 612 -651q233 0 355 112q121 112 121 254t-98 212t-315 134q-218 64 -300 155
t-82 245t119 253q119 100 304 100t305 -104t118 -282h-78v11q0 135 -98 221t-249 86t-248 -81t-97 -205t64 -193t193 -112q44 -15 130 -41q305 -92 379 -242q33 -67 32 -152q0 -166 -128 -296t-369 -144v-95q116 0 186 -43q70 -44 70 -118t-74 -126t-192 -53z" />
    <glyph glyph-name="M_Scommaaccent" unicode="M&#x218;" horiz-adv-x="2893" 
d="M2216 -561h-57l96 418h76zM162 0v1495h76l645 -895l669 895h74v-793q0 -651 612 -651q233 0 355 112q121 112 121 254t-98 212t-315 134q-218 64 -300 155t-82 245t119 253q119 100 304 100t305 -104t118 -282h-78v11q0 135 -98 221t-249 86t-248 -81t-97 -205t64 -193
t193 -112q44 -15 130 -41q305 -92 379 -242q33 -67 32 -152q0 -176 -143 -309t-412 -133q-690 0 -690 722v668l-665 -895l-645 889v-1364h-76z" />
    <glyph glyph-name="Oacute_C" unicode="&#xd3;C" horiz-adv-x="2549" 
d="M840 1645l252 301h102l-276 -301h-78zM1552 748q0 164 -70 306q-71 142 -194 238q-122 -96 -192 -238t-70 -306t70 -308t192 -239q124 95 194 239t70 308zM860 53q197 0 367 105q-131 108 -206 262t-75 328t74 328t205 261q-170 104 -365 105q-286 0 -488 -204t-202 -490
t202 -491q202 -204 488 -204zM1724 -20q-242 0 -434 131q-193 -131 -430 -131q-317 0 -543 225q-225 225 -225 543t225 542q225 225 543 226q231 0 428 -132q194 132 438 132t446 -148t277 -379h-84q-72 201 -248 327q-177 126 -387 126t-378 -105q131 -106 206 -260
q74 -155 74 -329t-74 -328t-204 -262q166 -104 374 -104t382 122q175 123 251 320h84q-80 -229 -279 -373q-200 -143 -442 -143z" />
    <glyph glyph-name="Ograve_C" unicode="&#xd2;C" horiz-adv-x="2549" 
d="M834 1645l-277 301h102l252 -301h-77zM1552 748q0 164 -70 306q-71 142 -194 238q-122 -96 -192 -238t-70 -306t70 -308t192 -239q124 95 194 239t70 308zM860 53q197 0 367 105q-131 108 -206 262t-75 328t74 328t205 261q-170 104 -365 105q-286 0 -488 -204t-202 -490
t202 -491q202 -204 488 -204zM1724 -20q-242 0 -434 131q-193 -131 -430 -131q-317 0 -543 225q-225 225 -225 543t225 542q225 225 543 226q231 0 428 -132q194 132 438 132t446 -148t277 -379h-84q-72 201 -248 327q-177 126 -387 126t-378 -105q131 -106 206 -260
q74 -155 74 -329t-74 -328t-204 -262q166 -104 374 -104t382 122q175 123 251 320h84q-80 -229 -279 -373q-200 -143 -442 -143z" />
    <glyph glyph-name="Ocircumflex_C" unicode="&#xd4;C" horiz-adv-x="2549" 
d="M584 1645l243 301h66l244 -301h-82l-195 239l-192 -239h-84zM1552 748q0 164 -70 306q-71 142 -194 238q-122 -96 -192 -238t-70 -306t70 -308t192 -239q124 95 194 239t70 308zM860 53q197 0 367 105q-131 108 -206 262t-75 328t74 328t205 261q-170 104 -365 105
q-286 0 -488 -204t-202 -490t202 -491q202 -204 488 -204zM1724 -20q-242 0 -434 131q-193 -131 -430 -131q-317 0 -543 225q-225 225 -225 543t225 542q225 225 543 226q231 0 428 -132q194 132 438 132t446 -148t277 -379h-84q-72 201 -248 327q-177 126 -387 126
t-378 -105q131 -106 206 -260q74 -155 74 -329t-74 -328t-204 -262q166 -104 374 -104t382 122q175 123 251 320h84q-80 -229 -279 -373q-200 -143 -442 -143z" />
    <glyph glyph-name="Odieresis_C" unicode="&#xd6;C" horiz-adv-x="2549" 
d="M926 1649v286h73v-286h-73zM721 1649v286h74v-286h-74zM1552 748q0 164 -70 306q-71 142 -194 238q-122 -96 -192 -238t-70 -306t70 -308t192 -239q124 95 194 239t70 308zM860 53q197 0 367 105q-131 108 -206 262t-75 328t74 328t205 261q-170 104 -365 105
q-286 0 -488 -204t-202 -490t202 -491q202 -204 488 -204zM1724 -20q-242 0 -434 131q-193 -131 -430 -131q-317 0 -543 225q-225 225 -225 543t225 542q225 225 543 226q231 0 428 -132q194 132 438 132t446 -148t277 -379h-84q-72 201 -248 327q-177 126 -387 126
t-378 -105q131 -106 206 -260q74 -155 74 -329t-74 -328t-204 -262q166 -104 374 -104t382 122q175 123 251 320h84q-80 -229 -279 -373q-200 -143 -442 -143z" />
    <glyph glyph-name="Otilde_C" unicode="&#xd5;C" horiz-adv-x="2549" 
d="M498 1645q0 88 50 142t124 54q74 1 188 -69t170 -70q121 0 121 133h66q-1 -94 -51 -146q-112 -115 -332 19q-104 66 -156 66t-84 -34q-33 -34 -33 -95h-63zM1552 748q0 164 -70 306q-71 142 -194 238q-122 -96 -192 -238t-70 -306t70 -308t192 -239q124 95 194 239
t70 308zM860 53q197 0 367 105q-131 108 -206 262t-75 328t74 328t205 261q-170 104 -365 105q-286 0 -488 -204t-202 -490t202 -491q202 -204 488 -204zM1724 -20q-242 0 -434 131q-193 -131 -430 -131q-317 0 -543 225q-225 225 -225 543t225 542q225 225 543 226
q231 0 428 -132q194 132 438 132t446 -148t277 -379h-84q-72 201 -248 327q-177 126 -387 126t-378 -105q131 -106 206 -260q74 -155 74 -329t-74 -328t-204 -262q166 -104 374 -104t382 122q175 123 251 320h84q-80 -229 -279 -373q-200 -143 -442 -143z" />
    <glyph glyph-name="Obreve_C" unicode="&#x14e;C" horiz-adv-x="2549" 
d="M862 1634q-154 0 -240 91t-85 219h67q0 -102 69 -176t191 -72q122 0 195 74q72 74 71 174h68q0 -123 -91 -217q-91 -93 -245 -93zM1552 748q0 164 -70 306q-71 142 -194 238q-122 -96 -192 -238t-70 -306t70 -308t192 -239q124 95 194 239t70 308zM860 53q197 0 367 105
q-131 108 -206 262t-75 328t74 328t205 261q-170 104 -365 105q-286 0 -488 -204t-202 -490t202 -491q202 -204 488 -204zM1724 -20q-242 0 -434 131q-193 -131 -430 -131q-317 0 -543 225q-225 225 -225 543t225 542q225 225 543 226q231 0 428 -132q194 132 438 132
t446 -148t277 -379h-84q-72 201 -248 327q-177 126 -387 126t-378 -105q131 -106 206 -260q74 -155 74 -329t-74 -328t-204 -262q166 -104 374 -104t382 122q175 123 251 320h84q-80 -229 -279 -373q-200 -143 -442 -143z" />
    <glyph glyph-name="Omacron_C" unicode="&#x14c;C" horiz-adv-x="2549" 
d="M1552 748q0 164 -70 306q-71 142 -194 238q-122 -96 -192 -238t-70 -306t70 -308t192 -239q124 95 194 239t70 308zM860 53q197 0 367 105q-131 108 -206 262t-75 328t74 328t205 261q-170 104 -365 105q-286 0 -488 -204t-202 -490t202 -491q202 -204 488 -204z
M1724 -20q-242 0 -434 131q-193 -131 -430 -131q-317 0 -543 225q-225 225 -225 543t225 542q225 225 543 226q231 0 428 -132q194 132 438 132t446 -148t277 -379h-84q-72 201 -248 327q-177 126 -387 126t-378 -105q131 -106 206 -260q74 -155 74 -329t-74 -328t-204 -262
q166 -104 374 -104t382 122q175 123 251 320h84q-80 -229 -279 -373q-200 -143 -442 -143zM592 1645v65h541v-65h-541z" />
    <glyph glyph-name="Ohungarumlaut_C" unicode="&#x150;C" horiz-adv-x="2549" 
d="M1552 748q0 164 -70 306q-71 142 -194 238q-122 -96 -192 -238t-70 -306t70 -308t192 -239q124 95 194 239t70 308zM860 53q197 0 367 105q-131 108 -206 262t-75 328t74 328t205 261q-170 104 -365 105q-286 0 -488 -204t-202 -490t202 -491q202 -204 488 -204z
M1724 -20q-242 0 -434 131q-193 -131 -430 -131q-317 0 -543 225q-225 225 -225 543t225 542q225 225 543 226q231 0 428 -132q194 132 438 132t446 -148t277 -379h-84q-72 201 -248 327q-177 126 -387 126t-378 -105q131 -106 206 -260q74 -155 74 -329t-74 -328t-204 -262
q166 -104 374 -104t382 122q175 123 251 320h84q-80 -229 -279 -373q-200 -143 -442 -143zM922 1645l252 301h98l-277 -301h-73zM715 1645l252 301h98l-277 -301h-73z" />
    <glyph glyph-name="O_Cacute" unicode="O&#x106;" horiz-adv-x="2549" 
d="M1702 1645l252 301h102l-276 -301h-78zM1552 748q0 164 -70 306q-71 142 -194 238q-122 -96 -192 -238t-70 -306t70 -308t192 -239q124 95 194 239t70 308zM860 53q197 0 367 105q-131 108 -206 262t-75 328t74 328t205 261q-170 104 -365 105q-286 0 -488 -204
t-202 -490t202 -491q202 -204 488 -204zM1724 -20q-242 0 -434 131q-193 -131 -430 -131q-317 0 -543 225q-225 225 -225 543t225 542q225 225 543 226q231 0 428 -132q194 132 438 132t446 -148t277 -379h-84q-72 201 -248 327q-177 126 -387 126t-378 -105
q131 -106 206 -260q74 -155 74 -329t-74 -328t-204 -262q166 -104 374 -104t382 122q175 123 251 320h84q-80 -229 -279 -373q-200 -143 -442 -143z" />
    <glyph glyph-name="O_Ccircumflex" unicode="O&#x108;" horiz-adv-x="2549" 
d="M1446 1645l244 301h65l244 -301h-82l-195 239l-192 -239h-84zM1552 748q0 164 -70 306q-71 142 -194 238q-122 -96 -192 -238t-70 -306t70 -308t192 -239q124 95 194 239t70 308zM860 53q197 0 367 105q-131 108 -206 262t-75 328t74 328t205 261q-170 104 -365 105
q-286 0 -488 -204t-202 -490t202 -491q202 -204 488 -204zM1724 -20q-242 0 -434 131q-193 -131 -430 -131q-317 0 -543 225q-225 225 -225 543t225 542q225 225 543 226q231 0 428 -132q194 132 438 132t446 -148t277 -379h-84q-72 201 -248 327q-177 126 -387 126
t-378 -105q131 -106 206 -260q74 -155 74 -329t-74 -328t-204 -262q166 -104 374 -104t382 122q175 123 251 320h84q-80 -229 -279 -373q-200 -143 -442 -143z" />
    <glyph glyph-name="O_Ccaron" unicode="O&#x10c;" horiz-adv-x="2549" 
d="M1694 1645l-244 301h82l192 -242l195 242h84l-244 -301h-65zM1552 748q0 164 -70 306q-71 142 -194 238q-122 -96 -192 -238t-70 -306t70 -308t192 -239q124 95 194 239t70 308zM860 53q197 0 367 105q-131 108 -206 262t-75 328t74 328t205 261q-170 104 -365 105
q-286 0 -488 -204t-202 -490t202 -491q202 -204 488 -204zM1724 -20q-242 0 -434 131q-193 -131 -430 -131q-317 0 -543 225q-225 225 -225 543t225 542q225 225 543 226q231 0 428 -132q194 132 438 132t446 -148t277 -379h-84q-72 201 -248 327q-177 126 -387 126
t-378 -105q131 -106 206 -260q74 -155 74 -329t-74 -328t-204 -262q166 -104 374 -104t382 122q175 123 251 320h84q-80 -229 -279 -373q-200 -143 -442 -143z" />
    <glyph glyph-name="O_Ccedilla" unicode="O&#xc7;" horiz-adv-x="2549" 
d="M1552 748q0 164 -70 306q-71 142 -194 238q-122 -96 -192 -238t-70 -306t70 -308t192 -239q124 95 194 239t70 308zM860 53q197 0 367 105q-131 108 -206 262t-75 328t74 328t205 261q-170 104 -365 105q-286 0 -488 -204t-202 -490t202 -491q202 -204 488 -204z
M1772 -453q-162 0 -269 107l62 39q95 -86 193 -86t152 35t54 86t-54 81t-145 29h-47v142q-236 0 -428 131q-193 -131 -430 -131q-317 0 -543 225q-225 225 -225 543t225 542q225 225 543 226q231 0 428 -132q194 132 438 132t446 -148t277 -379h-84q-72 201 -248 327
q-177 126 -387 126t-378 -105q131 -106 206 -260q74 -155 74 -329t-74 -328t-204 -262q166 -104 374 -104t382 122q175 123 251 320h84q-76 -212 -256 -354t-407 -160v-95q116 0 186 -43q70 -44 70 -118t-74 -126t-192 -53z" />
    <glyph glyph-name="O_Cdotaccent" unicode="O&#x10a;" horiz-adv-x="2549" 
d="M1686 1649v286h75v-286h-75zM1552 748q0 164 -70 306q-71 142 -194 238q-122 -96 -192 -238t-70 -306t70 -308t192 -239q124 95 194 239t70 308zM860 53q197 0 367 105q-131 108 -206 262t-75 328t74 328t205 261q-170 104 -365 105q-286 0 -488 -204t-202 -490t202 -491
q202 -204 488 -204zM1724 -20q-242 0 -434 131q-193 -131 -430 -131q-317 0 -543 225q-225 225 -225 543t225 542q225 225 543 226q231 0 428 -132q194 132 438 132t446 -148t277 -379h-84q-72 201 -248 327q-177 126 -387 126t-378 -105q131 -106 206 -260q74 -155 74 -329
t-74 -328t-204 -262q166 -104 374 -104t382 122q175 123 251 320h84q-80 -229 -279 -373q-200 -143 -442 -143z" />
    <glyph glyph-name="Oacute_O" unicode="&#xd3;O" horiz-adv-x="2578" 
d="M1550 748q0 162 -69 304q-70 142 -191 240q-122 -98 -190 -240t-68 -305t69 -305t189 -239q120 99 190 241t70 304zM860 51q201 0 369 107q-129 108 -203 262t-74 328t74 328t203 261q-168 106 -369 107q-288 0 -488 -204t-200 -492t200 -493q200 -204 488 -204zM1720 51
q289 0 490 204t200 493q0 288 -200 492t-490 204q-197 0 -368 -109q128 -106 202 -261q74 -156 74 -328t-74 -326t-204 -262q167 -107 370 -107zM1720 -20q-240 0 -430 133q-193 -133 -430 -133q-317 0 -543 225q-225 225 -225 543t225 542q225 225 543 226q236 0 430 -134
q195 133 430 134q316 0 542 -226t226 -542q0 -317 -225 -543q-226 -225 -543 -225zM854 1645l252 301h102l-276 -301h-78z" />
    <glyph glyph-name="Ograve_O" unicode="&#xd2;O" horiz-adv-x="2578" 
d="M858 1645l-276 301h102l252 -301h-78zM1550 748q0 162 -69 304q-70 142 -191 240q-122 -98 -190 -240t-68 -305t69 -305t189 -239q120 99 190 241t70 304zM860 51q201 0 369 107q-129 108 -203 262t-74 328t74 328t203 261q-168 106 -369 107q-288 0 -488 -204t-200 -492
t200 -493q200 -204 488 -204zM1720 51q289 0 490 204t200 493q0 288 -200 492t-490 204q-197 0 -368 -109q128 -106 202 -261q74 -156 74 -328t-74 -326t-204 -262q167 -107 370 -107zM1720 -20q-240 0 -430 133q-193 -133 -430 -133q-317 0 -543 225q-225 225 -225 543
t225 542q225 225 543 226q236 0 430 -134q195 133 430 134q316 0 542 -226t226 -542q0 -317 -225 -543q-226 -225 -543 -225z" />
    <glyph glyph-name="Ocircumflex_O" unicode="&#xd4;O" horiz-adv-x="2578" 
d="M586 1645l243 301h66l244 -301h-82l-195 239l-192 -239h-84zM1550 748q0 162 -69 304q-70 142 -191 240q-122 -98 -190 -240t-68 -305t69 -305t189 -239q120 99 190 241t70 304zM860 51q201 0 369 107q-129 108 -203 262t-74 328t74 328t203 261q-168 106 -369 107
q-288 0 -488 -204t-200 -492t200 -493q200 -204 488 -204zM1720 51q289 0 490 204t200 493q0 288 -200 492t-490 204q-197 0 -368 -109q128 -106 202 -261q74 -156 74 -328t-74 -326t-204 -262q167 -107 370 -107zM1720 -20q-240 0 -430 133q-193 -133 -430 -133
q-317 0 -543 225q-225 225 -225 543t225 542q225 225 543 226q236 0 430 -134q195 133 430 134q316 0 542 -226t226 -542q0 -317 -225 -543q-226 -225 -543 -225z" />
    <glyph glyph-name="Odieresis_O" unicode="&#xd6;O" horiz-adv-x="2578" 
d="M926 1649v286h73v-286h-73zM721 1649v286h74v-286h-74zM1550 748q0 162 -69 304q-70 142 -191 240q-122 -98 -190 -240t-68 -305t69 -305t189 -239q120 99 190 241t70 304zM860 51q201 0 369 107q-129 108 -203 262t-74 328t74 328t203 261q-168 106 -369 107
q-288 0 -488 -204t-200 -492t200 -493q200 -204 488 -204zM1720 51q289 0 490 204t200 493q0 288 -200 492t-490 204q-197 0 -368 -109q128 -106 202 -261q74 -156 74 -328t-74 -326t-204 -262q167 -107 370 -107zM1720 -20q-240 0 -430 133q-193 -133 -430 -133
q-317 0 -543 225q-225 225 -225 543t225 542q225 225 543 226q236 0 430 -134q195 133 430 134q316 0 542 -226t226 -542q0 -317 -225 -543q-226 -225 -543 -225z" />
    <glyph glyph-name="Otilde_O" unicode="&#xd5;O" horiz-adv-x="2578" 
d="M502 1645q0 88 50 142t124 54q74 1 188 -69t170 -70q121 0 121 133h66q-1 -94 -51 -146q-112 -115 -332 19q-104 66 -156 66t-84 -34q-33 -34 -33 -95h-63zM1550 748q0 162 -69 304q-70 142 -191 240q-122 -98 -190 -240t-68 -305t69 -305t189 -239q120 99 190 241
t70 304zM860 51q201 0 369 107q-129 108 -203 262t-74 328t74 328t203 261q-168 106 -369 107q-288 0 -488 -204t-200 -492t200 -493q200 -204 488 -204zM1720 51q289 0 490 204t200 493q0 288 -200 492t-490 204q-197 0 -368 -109q128 -106 202 -261q74 -156 74 -328
t-74 -326t-204 -262q167 -107 370 -107zM1720 -20q-240 0 -430 133q-193 -133 -430 -133q-317 0 -543 225q-225 225 -225 543t225 542q225 225 543 226q236 0 430 -134q195 133 430 134q316 0 542 -226t226 -542q0 -317 -225 -543q-226 -225 -543 -225z" />
    <glyph glyph-name="Omacron_O" unicode="&#x14c;O" horiz-adv-x="2578" 
d="M590 1645v65h540v-65h-540zM1550 748q0 162 -69 304q-70 142 -191 240q-122 -98 -190 -240t-68 -305t69 -305t189 -239q120 99 190 241t70 304zM860 51q201 0 369 107q-129 108 -203 262t-74 328t74 328t203 261q-168 106 -369 107q-288 0 -488 -204t-200 -492t200 -493
q200 -204 488 -204zM1720 51q289 0 490 204t200 493q0 288 -200 492t-490 204q-197 0 -368 -109q128 -106 202 -261q74 -156 74 -328t-74 -326t-204 -262q167 -107 370 -107zM1720 -20q-240 0 -430 133q-193 -133 -430 -133q-317 0 -543 225q-225 225 -225 543t225 542
q225 225 543 226q236 0 430 -134q195 133 430 134q316 0 542 -226t226 -542q0 -317 -225 -543q-226 -225 -543 -225z" />
    <glyph glyph-name="Obreve_O" unicode="&#x14e;O" horiz-adv-x="2578" 
d="M856 1634q-154 0 -240 91t-86 219h68q0 -102 69 -176t191 -72q122 0 195 74q72 74 71 174h68q0 -123 -91 -217q-91 -93 -245 -93zM1550 748q0 162 -69 304q-70 142 -191 240q-122 -98 -190 -240t-68 -305t69 -305t189 -239q120 99 190 241t70 304zM860 51q201 0 369 107
q-129 108 -203 262t-74 328t74 328t203 261q-168 106 -369 107q-288 0 -488 -204t-200 -492t200 -493q200 -204 488 -204zM1720 51q289 0 490 204t200 493q0 288 -200 492t-490 204q-197 0 -368 -109q128 -106 202 -261q74 -156 74 -328t-74 -326t-204 -262
q167 -107 370 -107zM1720 -20q-240 0 -430 133q-193 -133 -430 -133q-317 0 -543 225q-225 225 -225 543t225 542q225 225 543 226q236 0 430 -134q195 133 430 134q316 0 542 -226t226 -542q0 -317 -225 -543q-226 -225 -543 -225z" />
    <glyph glyph-name="Ohungarumlaut_O" unicode="&#x150;O" horiz-adv-x="2578" 
d="M932 1645l252 301h98l-276 -301h-74zM725 1645l252 301h98l-276 -301h-74zM1550 748q0 162 -69 304q-70 142 -191 240q-122 -98 -190 -240t-68 -305t69 -305t189 -239q120 99 190 241t70 304zM860 51q201 0 369 107q-129 108 -203 262t-74 328t74 328t203 261
q-168 106 -369 107q-288 0 -488 -204t-200 -492t200 -493q200 -204 488 -204zM1720 51q289 0 490 204t200 493q0 288 -200 492t-490 204q-197 0 -368 -109q128 -106 202 -261q74 -156 74 -328t-74 -326t-204 -262q167 -107 370 -107zM1720 -20q-240 0 -430 133
q-193 -133 -430 -133q-317 0 -543 225q-225 225 -225 543t225 542q225 225 543 226q236 0 430 -134q195 133 430 134q316 0 542 -226t226 -542q0 -317 -225 -543q-226 -225 -543 -225z" />
    <glyph glyph-name="O_Oacute" unicode="O&#xd3;" horiz-adv-x="2578" 
d="M1550 748q0 162 -69 304q-70 142 -191 240q-122 -98 -190 -240t-68 -305t69 -305t189 -239q120 99 190 241t70 304zM860 51q201 0 369 107q-129 108 -203 262t-74 328t74 328t203 261q-168 106 -369 107q-288 0 -488 -204t-200 -492t200 -493q200 -204 488 -204zM1720 51
q289 0 490 204t200 493q0 288 -200 492t-490 204q-197 0 -368 -109q128 -106 202 -261q74 -156 74 -328t-74 -326t-204 -262q167 -107 370 -107zM1720 -20q-240 0 -430 133q-193 -133 -430 -133q-317 0 -543 225q-225 225 -225 543t225 542q225 225 543 226q236 0 430 -134
q195 133 430 134q316 0 542 -226t226 -542q0 -317 -225 -543q-226 -225 -543 -225zM1686 1645l251 301h103l-277 -301h-77z" />
    <glyph glyph-name="O_Ograve" unicode="O&#xd2;" horiz-adv-x="2578" 
d="M1710 1645l-276 301h102l252 -301h-78zM1550 748q0 162 -69 304q-70 142 -191 240q-122 -98 -190 -240t-68 -305t69 -305t189 -239q120 99 190 241t70 304zM860 51q201 0 369 107q-129 108 -203 262t-74 328t74 328t203 261q-168 106 -369 107q-288 0 -488 -204
t-200 -492t200 -493q200 -204 488 -204zM1720 51q289 0 490 204t200 493q0 288 -200 492t-490 204q-197 0 -368 -109q128 -106 202 -261q74 -156 74 -328t-74 -326t-204 -262q167 -107 370 -107zM1720 -20q-240 0 -430 133q-193 -133 -430 -133q-317 0 -543 225
q-225 225 -225 543t225 542q225 225 543 226q236 0 430 -134q195 133 430 134q316 0 542 -226t226 -542q0 -317 -225 -543q-226 -225 -543 -225z" />
    <glyph glyph-name="O_Ocircumflex" unicode="O&#xd4;" horiz-adv-x="2578" 
d="M1550 748q0 162 -69 304q-70 142 -191 240q-122 -98 -190 -240t-68 -305t69 -305t189 -239q120 99 190 241t70 304zM860 51q201 0 369 107q-129 108 -203 262t-74 328t74 328t203 261q-168 106 -369 107q-288 0 -488 -204t-200 -492t200 -493q200 -204 488 -204zM1720 51
q289 0 490 204t200 493q0 288 -200 492t-490 204q-197 0 -368 -109q128 -106 202 -261q74 -156 74 -328t-74 -326t-204 -262q167 -107 370 -107zM1720 -20q-240 0 -430 133q-193 -133 -430 -133q-317 0 -543 225q-225 225 -225 543t225 542q225 225 543 226q236 0 430 -134
q195 133 430 134q316 0 542 -226t226 -542q0 -317 -225 -543q-226 -225 -543 -225zM1454 1645l244 301h65l244 -301h-82l-194 239l-193 -239h-84z" />
    <glyph glyph-name="O_Odieresis" unicode="O&#xd6;" horiz-adv-x="2578" 
d="M1550 748q0 162 -69 304q-70 142 -191 240q-122 -98 -190 -240t-68 -305t69 -305t189 -239q120 99 190 241t70 304zM860 51q201 0 369 107q-129 108 -203 262t-74 328t74 328t203 261q-168 106 -369 107q-288 0 -488 -204t-200 -492t200 -493q200 -204 488 -204zM1720 51
q289 0 490 204t200 493q0 288 -200 492t-490 204q-197 0 -368 -109q128 -106 202 -261q74 -156 74 -328t-74 -326t-204 -262q167 -107 370 -107zM1720 -20q-240 0 -430 133q-193 -133 -430 -133q-317 0 -543 225q-225 225 -225 543t225 542q225 225 543 226q236 0 430 -134
q195 133 430 134q316 0 542 -226t226 -542q0 -317 -225 -543q-226 -225 -543 -225zM1587 1649v286h74v-286h-74zM1792 1649v286h74v-286h-74z" />
    <glyph glyph-name="O_Otilde" unicode="O&#xd5;" horiz-adv-x="2578" 
d="M1386 1645q0 88 50 142t125 54q75 1 189 -69t169 -70q121 0 121 133h65q0 -94 -50 -146q-111 -115 -333 19q-104 66 -155 66t-84 -34t-33 -95h-64zM1550 748q0 162 -69 304q-70 142 -191 240q-122 -98 -190 -240t-68 -305t69 -305t189 -239q120 99 190 241t70 304z
M860 51q201 0 369 107q-129 108 -203 262t-74 328t74 328t203 261q-168 106 -369 107q-288 0 -488 -204t-200 -492t200 -493q200 -204 488 -204zM1720 51q289 0 490 204t200 493q0 288 -200 492t-490 204q-197 0 -368 -109q128 -106 202 -261q74 -156 74 -328t-74 -326
t-204 -262q167 -107 370 -107zM1720 -20q-240 0 -430 133q-193 -133 -430 -133q-317 0 -543 225q-225 225 -225 543t225 542q225 225 543 226q236 0 430 -134q195 133 430 134q316 0 542 -226t226 -542q0 -317 -225 -543q-226 -225 -543 -225z" />
    <glyph glyph-name="O_Omacron" unicode="O&#x14c;" horiz-adv-x="2578" 
d="M1466 1645v65h541v-65h-541zM1550 748q0 162 -69 304q-70 142 -191 240q-122 -98 -190 -240t-68 -305t69 -305t189 -239q120 99 190 241t70 304zM860 51q201 0 369 107q-129 108 -203 262t-74 328t74 328t203 261q-168 106 -369 107q-288 0 -488 -204t-200 -492t200 -493
q200 -204 488 -204zM1720 51q289 0 490 204t200 493q0 288 -200 492t-490 204q-197 0 -368 -109q128 -106 202 -261q74 -156 74 -328t-74 -326t-204 -262q167 -107 370 -107zM1720 -20q-240 0 -430 133q-193 -133 -430 -133q-317 0 -543 225q-225 225 -225 543t225 542
q225 225 543 226q236 0 430 -134q195 133 430 134q316 0 542 -226t226 -542q0 -317 -225 -543q-226 -225 -543 -225z" />
    <glyph glyph-name="O_Obreve" unicode="O&#x14e;" horiz-adv-x="2578" 
d="M2066 1944q0 -122 -91 -216t-245 -94t-239 91q-86 91 -86 219h68q0 -102 68 -176q69 -72 192 -72t195 74t71 174h67zM1550 748q0 162 -69 304q-70 142 -191 240q-122 -98 -190 -240t-68 -305t69 -305t189 -239q120 99 190 241t70 304zM860 51q201 0 369 107
q-129 108 -203 262t-74 328t74 328t203 261q-168 106 -369 107q-288 0 -488 -204t-200 -492t200 -493q200 -204 488 -204zM1720 51q289 0 490 204t200 493q0 288 -200 492t-490 204q-197 0 -368 -109q128 -106 202 -261q74 -156 74 -328t-74 -326t-204 -262
q167 -107 370 -107zM1720 -20q-240 0 -430 133q-193 -133 -430 -133q-317 0 -543 225q-225 225 -225 543t225 542q225 225 543 226q236 0 430 -134q195 133 430 134q316 0 542 -226t226 -542q0 -317 -225 -543q-226 -225 -543 -225z" />
    <glyph glyph-name="O_Ohungarumlaut" unicode="O&#x150;" horiz-adv-x="2578" 
d="M1786 1645l252 301h98l-276 -301h-74zM1579 1645l252 301h98l-276 -301h-74zM1550 748q0 162 -69 304q-70 142 -191 240q-122 -98 -190 -240t-68 -305t69 -305t189 -239q120 99 190 241t70 304zM860 51q201 0 369 107q-129 108 -203 262t-74 328t74 328t203 261
q-168 106 -369 107q-288 0 -488 -204t-200 -492t200 -493q200 -204 488 -204zM1720 51q289 0 490 204t200 493q0 288 -200 492t-490 204q-197 0 -368 -109q128 -106 202 -261q74 -156 74 -328t-74 -326t-204 -262q167 -107 370 -107zM1720 -20q-240 0 -430 133
q-193 -133 -430 -133q-317 0 -543 225q-225 225 -225 543t225 542q225 225 543 226q236 0 430 -134q195 133 430 134q316 0 542 -226t226 -542q0 -317 -225 -543q-226 -225 -543 -225z" />
    <glyph glyph-name="Racute_A" unicode="&#x154;A" horiz-adv-x="2058" 
d="M492 1645l251 301h103l-277 -301h-77zM1821 514v870l-660 -870h660zM162 0v1495h452q199 0 336 -134q137 -135 137 -317q-1 -182 -115 -312t-290 -150l215 -301l915 1214h84v-1495h-75v444h-711l-168 -221l160 -223h-92l-115 160l-121 -160h-90l164 217l-297 428h57
q170 0 287 116q117 117 117 277t-116 273t-286 112h-372v-1423h-76z" />
    <glyph glyph-name="Rcaron_A" unicode="&#x158;A" horiz-adv-x="2058" 
d="M555 1645l-244 301h82l193 -242l194 242h84l-243 -301h-66zM1821 514v870l-660 -870h660zM162 0v1495h452q199 0 336 -134q137 -135 137 -317q-1 -182 -115 -312t-290 -150l215 -301l915 1214h84v-1495h-75v444h-711l-168 -221l160 -223h-92l-115 160l-121 -160h-90
l164 217l-297 428h57q170 0 287 116q117 117 117 277t-116 273t-286 112h-372v-1423h-76z" />
    <glyph glyph-name="Rcommaaccent_A" unicode="&#x156;A" horiz-adv-x="2058" 
d="M1821 514v870l-660 -870h660zM162 0v1495h452q199 0 336 -134q137 -135 137 -317q-1 -182 -115 -312t-290 -150l215 -301l915 1214h84v-1495h-75v444h-711l-168 -221l160 -223h-92l-115 160l-121 -160h-90l164 217l-297 428h57q170 0 287 116q117 117 117 277t-116 273
t-286 112h-372v-1423h-76zM555 -561h-57l96 418h76z" />
    <glyph glyph-name="R_Aacute" unicode="R&#xc1;" horiz-adv-x="2058" 
d="M1839 1645l252 301h102l-276 -301h-78zM1821 514v870l-660 -870h660zM162 0v1495h452q199 0 336 -134q137 -135 137 -317q-1 -182 -115 -312t-290 -150l215 -301l915 1214h84v-1495h-75v444h-711l-168 -221l160 -223h-92l-115 160l-121 -160h-90l164 217l-297 428h57
q170 0 287 116q117 117 117 277t-116 273t-286 112h-372v-1423h-76z" />
    <glyph glyph-name="R_Agrave" unicode="R&#xc0;" horiz-adv-x="2058" 
d="M1827 1645l-277 301h103l252 -301h-78zM1821 514v870l-660 -870h660zM162 0v1495h452q199 0 336 -134q137 -135 137 -317q-1 -182 -115 -312t-290 -150l215 -301l915 1214h84v-1495h-75v444h-711l-168 -221l160 -223h-92l-115 160l-121 -160h-90l164 217l-297 428h57
q170 0 287 116q117 117 117 277t-116 273t-286 112h-372v-1423h-76z" />
    <glyph glyph-name="R_Acircumflex" unicode="R&#xc2;" horiz-adv-x="2058" 
d="M1821 514v870l-660 -870h660zM162 0v1495h452q199 0 336 -134q137 -135 137 -317q-1 -182 -115 -312t-290 -150l215 -301l915 1214h84v-1495h-75v444h-711l-168 -221l160 -223h-92l-115 160l-121 -160h-90l164 217l-297 428h57q170 0 287 116q117 117 117 277t-116 273
t-286 112h-372v-1423h-76zM1563 1645l243 301h66l244 -301h-82l-195 239l-192 -239h-84z" />
    <glyph glyph-name="R_Adieresis" unicode="R&#xc4;" horiz-adv-x="2058" 
d="M1821 514v870l-660 -870h660zM162 0v1495h452q199 0 336 -134q137 -135 137 -317q-1 -182 -115 -312t-290 -150l215 -301l915 1214h84v-1495h-75v444h-711l-168 -221l160 -223h-92l-115 160l-121 -160h-90l164 217l-297 428h57q170 0 287 116q117 117 117 277t-116 273
t-286 112h-372v-1423h-76zM1698 1649v286h74v-286h-74zM1903 1649v286h73v-286h-73z" />
    <glyph glyph-name="R_Atilde" unicode="R&#xc3;" horiz-adv-x="2058" 
d="M1483 1645q0 88 50 142t124 54q75 1 189 -69t169 -70q121 0 121 133h66q0 -94 -50 -146q-112 -115 -333 19q-103 66 -155 66t-85 -34t-33 -95h-63zM1821 514v870l-660 -870h660zM162 0v1495h452q199 0 336 -134q137 -135 137 -317q-1 -182 -115 -312t-290 -150l215 -301
l915 1214h84v-1495h-75v444h-711l-168 -221l160 -223h-92l-115 160l-121 -160h-90l164 217l-297 428h57q170 0 287 116q117 117 117 277t-116 273t-286 112h-372v-1423h-76z" />
    <glyph glyph-name="R_Aring" unicode="R&#xc5;" horiz-adv-x="2058" 
d="M1842 1501q50 0 88 37t38 88t-38 89t-88 38t-87 -39t-37 -89t37 -87t87 -37zM1821 514v870l-660 -870h660zM162 0v1495h452q199 0 336 -134q137 -135 137 -317q-1 -182 -115 -312t-290 -150l215 -301l881 1167q-53 20 -88 70t-35 118t55 123t133 55t133 -54
q56 -54 56 -126t-38 -122t-98 -66v-1446h-75v444h-711l-168 -221l160 -223h-92l-115 160l-121 -160h-90l164 217l-297 428h57q170 0 287 116q117 117 117 277t-116 273t-286 112h-372v-1423h-76z" />
    <glyph glyph-name="R_Amacron" unicode="R&#x100;" horiz-adv-x="2058" 
d="M1575 1645v65h541v-65h-541zM1821 514v870l-660 -870h660zM162 0v1495h452q199 0 336 -134q137 -135 137 -317q-1 -182 -115 -312t-290 -150l215 -301l915 1214h84v-1495h-75v444h-711l-168 -221l160 -223h-92l-115 160l-121 -160h-90l164 217l-297 428h57q170 0 287 116
q117 117 117 277t-116 273t-286 112h-372v-1423h-76z" />
    <glyph glyph-name="R_Abreve" unicode="R&#x102;" horiz-adv-x="2058" 
d="M1836 1634q-154 0 -239 91q-86 91 -86 219h68q0 -102 69 -176q70 -74 192 -72q122 0 194 74t71 174h68q0 -123 -91 -217q-92 -93 -246 -93zM1821 514v870l-660 -870h660zM162 0v1495h452q199 0 336 -134q137 -135 137 -317q-1 -182 -115 -312t-290 -150l215 -301
l915 1214h84v-1495h-75v444h-711l-168 -221l160 -223h-92l-115 160l-121 -160h-90l164 217l-297 428h57q170 0 287 116q117 117 117 277t-116 273t-286 112h-372v-1423h-76z" />
    <glyph glyph-name="R_Aogonek" unicode="R&#x104;" horiz-adv-x="2058" 
d="M1821 514v870l-660 -870h660zM1823 -412q-125 0 -195 54t-69 133q0 145 258 262l4 -4v411h-711l-168 -221l160 -223h-92l-115 160l-121 -160h-90l164 217l-297 428h57q170 0 287 116q117 117 117 277t-116 273t-286 112h-372v-1423h-76v1495h452q199 0 336 -134
q137 -135 137 -317q-1 -182 -115 -312t-290 -150l215 -301l915 1214h84v-1495h-24l4 -2q-133 -66 -187 -117q-55 -51 -55 -106t48 -88t140 -33t187 90l62 -43q-122 -113 -248 -113z" />
    <glyph glyph-name="R_Aringacute" unicode="R&#x1fa;" horiz-adv-x="2058" 
d="M1829 1884l252 301h102l-276 -301h-78zM1846 1501q50 0 88 37t38 88t-38 89t-88 38t-87 -39t-37 -89t37 -87t87 -37zM1821 514v870l-660 -870h660zM162 0v1495h452q199 0 336 -134q137 -135 137 -317q-1 -182 -115 -312t-290 -150l215 -301l881 1169q-51 23 -85 70
q-34 48 -34 116t55 123t133 55t133 -54q56 -54 56 -126t-39 -122q-39 -52 -101 -68v-1444h-75v444h-711l-168 -221l160 -223h-92l-115 160l-121 -160h-90l164 217l-297 428h57q170 0 287 116q117 117 117 277t-116 273t-286 112h-372v-1423h-76z" />
    <glyph glyph-name="Sacute_T" unicode="&#x15a;T" horiz-adv-x="1941" 
d="M539 -20q-197 0 -323 114t-126 303h76v-10q0 -147 106 -243t266 -95q160 0 263 93q104 93 104 243q0 192 -163 273q-58 30 -101 44t-168 53t-228 103q-132 85 -131 263t117 276q117 98 310 98h1296v-72h-483v-1423h-78v1423h-735q-158 1 -254 -77q-97 -78 -97 -202
t72 -204q60 -64 266 -127q117 -35 168 -53q50 -18 110 -53q181 -107 179 -318q-1 -181 -125 -295t-321 -114zM508 1645l252 301h102l-276 -301h-78z" />
    <glyph glyph-name="Scircumflex_T" unicode="&#x15c;T" horiz-adv-x="1941" 
d="M297 1645l244 301h65l244 -301h-82l-195 239l-192 -239h-84zM539 -20q-197 0 -323 114t-126 303h76v-10q0 -147 106 -243t266 -95q160 0 263 93q104 93 104 243q0 192 -163 273q-58 30 -101 44t-168 53t-228 103q-132 85 -131 263t117 276q117 98 310 98h1296v-72h-483
v-1423h-78v1423h-735q-158 1 -254 -77q-97 -78 -97 -202t72 -204q60 -64 266 -127q117 -35 168 -53q50 -18 110 -53q181 -107 179 -318q-1 -181 -125 -295t-321 -114z" />
    <glyph glyph-name="Scaron_T" unicode="&#x160;T" horiz-adv-x="1941" 
d="M535 1645l-244 301h82l192 -242l195 242h84l-244 -301h-65zM539 -20q-197 0 -323 114t-126 303h76v-10q0 -147 106 -243t266 -95q160 0 263 93q104 93 104 243q0 192 -163 273q-58 30 -101 44t-168 53t-228 103q-132 85 -131 263t117 276q117 98 310 98h1296v-72h-483
v-1423h-78v1423h-735q-158 1 -254 -77q-97 -78 -97 -202t72 -204q60 -64 266 -127q117 -35 168 -53q50 -18 110 -53q181 -107 179 -318q-1 -181 -125 -295t-321 -114z" />
    <glyph glyph-name="Scedilla_T" unicode="&#x15e;T" horiz-adv-x="1941" 
d="M561 -453q-162 0 -268 107l61 39q96 -86 194 -86t151 35q55 35 55 86t-54 81t-145 29h-47v144q-186 10 -302 122t-116 293h76v-10q0 -147 106 -243t266 -95q160 0 263 93q104 93 104 243q0 192 -163 273q-58 30 -101 44t-168 53t-228 103q-132 85 -131 263t117 276
q117 98 310 98h1296v-72h-483v-1423h-78v1423h-735q-158 1 -254 -77q-97 -78 -97 -202t72 -204q60 -64 266 -127q117 -35 168 -53q50 -18 110 -53t96 -75q85 -94 84 -255q-1 -160 -117 -273t-298 -122v-95q115 0 186 -43q71 -44 71 -118t-76 -126q-74 -52 -191 -53z" />
    <glyph glyph-name="Scommaaccent_T" unicode="&#x218;T" horiz-adv-x="1941" 
d="M539 -20q-197 0 -323 114t-126 303h76v-10q0 -147 106 -243t266 -95q160 0 263 93q104 93 104 243q0 192 -163 273q-58 30 -101 44t-168 53t-228 103q-132 85 -131 263t117 276q117 98 310 98h1296v-72h-483v-1423h-78v1423h-735q-158 1 -254 -77q-97 -78 -97 -202
t72 -204q60 -64 266 -127q117 -35 168 -53q50 -18 110 -53q181 -107 179 -318q-1 -181 -125 -295t-321 -114zM489 -561h-57l96 418h76z" />
    <glyph glyph-name="S_Tcaron" unicode="S&#x164;" horiz-adv-x="1941" 
d="M1280 1645l-244 301h82l193 -242l194 242h84l-243 -301h-66zM539 -20q-197 0 -323 114t-126 303h76v-10q0 -147 106 -243t266 -95q160 0 263 93q104 93 104 243q0 192 -163 273q-58 30 -101 44t-168 53t-228 103q-132 85 -131 263t117 276q117 98 310 98h1296v-72h-483
v-1423h-78v1423h-735q-158 1 -254 -77q-97 -78 -97 -202t72 -204q60 -64 266 -127q117 -35 168 -53q50 -18 110 -53q181 -107 179 -318q-1 -181 -125 -295t-321 -114z" />
    <glyph glyph-name="S_Tcommaaccent" unicode="S&#x162;" horiz-adv-x="1941" 
d="M539 -20q-197 0 -323 114t-126 303h76v-10q0 -147 106 -243t266 -95q160 0 263 93q104 93 104 243q0 192 -163 273q-58 30 -101 44t-168 53t-228 103q-132 85 -131 263t117 276q117 98 310 98h1296v-72h-483v-1423h-78v1423h-735q-158 1 -254 -77q-97 -78 -97 -202
t72 -204q60 -64 266 -127q117 -35 168 -53q50 -18 110 -53q181 -107 179 -318q-1 -181 -125 -295t-321 -114zM1266 -561h-58l97 418h75z" />
    <glyph glyph-name="Tcaron_I" unicode="&#x164;I" horiz-adv-x="1304" 
d="M590 1645l-244 301h82l193 -242l194 242h84l-244 -301h-65zM1067 0v1284h76v-1284h-76zM584 0v1423h-482v72h1041v-72h-481v-1423h-78z" />
    <glyph glyph-name="Tcommaaccent_I" unicode="&#x162;I" horiz-adv-x="1304" 
d="M1067 0v1284h76v-1284h-76zM584 0v1423h-482v72h1041v-72h-481v-1423h-78zM573 -561h-57l96 418h76z" />
    <glyph glyph-name="Tcaron_Y" unicode="&#x164;Y" horiz-adv-x="2224" 
d="M592 1645l-244 301h82l193 -242l194 242h84l-244 -301h-65zM586 0v1423h-484v72h1045l457 -704l454 704h88l-504 -782v-713h-75v713l-463 710h-440v-1423h-78z" />
    <glyph glyph-name="Tcommaaccent_Y" unicode="&#x162;Y" horiz-adv-x="2224" 
d="M586 0v1423h-484v72h1045l457 -704l454 704h88l-504 -782v-713h-75v713l-463 710h-440v-1423h-78zM578 -561h-58l96 418h76z" />
    <glyph glyph-name="T_Yacute" unicode="T&#xdd;" horiz-adv-x="2224" 
d="M586 0v1423h-484v72h1045l457 -704l454 704h88l-504 -782v-713h-75v713l-463 710h-440v-1423h-78zM1573 1645l252 301h102l-276 -301h-78z" />
    <glyph glyph-name="T_Ygrave" unicode="T&#x1ef2;" horiz-adv-x="2224" 
d="M1585 1645l-276 301h102l252 -301h-78zM586 0v1423h-484v72h1045l457 -704l454 704h88l-504 -782v-713h-75v713l-463 710h-440v-1423h-78z" />
    <glyph glyph-name="T_Ycircumflex" unicode="T&#x176;" horiz-adv-x="2224" 
d="M1329 1645l244 301h65l244 -301h-82l-194 239l-193 -239h-84zM586 0v1423h-484v72h1045l457 -704l454 704h88l-504 -782v-713h-75v713l-463 710h-440v-1423h-78z" />
    <glyph glyph-name="T_Ydieresis" unicode="T&#x178;" horiz-adv-x="2224" 
d="M1466 1649v286h74v-286h-74zM1671 1649v286h74v-286h-74zM586 0v1423h-484v72h1045l457 -704l454 704h88l-504 -782v-713h-75v713l-463 710h-440v-1423h-78z" />
    <glyph glyph-name=".notdef" horiz-adv-x="0" 
 />
    <glyph glyph-name=".null" horiz-adv-x="0" 
 />
    <glyph glyph-name="nonmarkingreturn" horiz-adv-x="681" 
 />
    <glyph glyph-name="space" unicode=" " horiz-adv-x="561" 
 />
    <glyph glyph-name="exclam" unicode="!" horiz-adv-x="501" 
d="M215 0v281h78v-281h-78zM215 1255v240h78v-240q0 -467 -14 -835h-50q-14 369 -14 835z" />
    <glyph glyph-name="quotedbl" unicode="&#x22;" horiz-adv-x="552" 
d="M342 1323v172h70v-172q0 -166 -21 -299h-29q-20 133 -20 299zM143 1495h70v-172q0 -166 -20 -299h-29q-20 133 -21 299v172z" />
    <glyph glyph-name="numbersign" unicode="#" horiz-adv-x="1716" 
d="M618 991v-467h469v467h-469zM1087 0v453h-469v-453h-75v453h-437v71h437v467h-437v72h437v432h75v-432h469v432h76v-432h447v-72h-447v-467h447v-71h-447v-453h-76z" />
    <glyph glyph-name="dollar" unicode="$" 
d="M205 1143q0 -133 97 -196q97 -64 253 -111v610q-150 -8 -250 -89t-100 -214zM1014 387q0 179 -167 268q-55 31 -101 46t-117 38v-690q165 5 275 99t110 239zM631 1720v-207q186 -12 310 -113t122 -257h-78v6q0 121 -101 203t-255 94v-631q92 -29 139 -45t120 -54
q74 -38 110 -77t65 -103t29 -145q0 -174 -132 -289t-329 -122v-226h-78v228q-193 14 -325 126t-132 281h78v-4q0 -135 115 -227t266 -107v709q-266 81 -346 167t-80 234t122 246t302 106v207h78z" />
    <glyph glyph-name="percent" unicode="%" horiz-adv-x="1763" 
d="M176 1182q0 139 98 236q98 98 236 98t238 -98q98 -98 98 -235q0 -139 -98 -237t-236 -98t-238 97q-98 98 -98 237zM1290 580q-108 0 -186 -79t-78 -189t79 -190t187 -79q108 0 186 80q78 79 78 189t-78 189q-79 79 -188 79zM209 0l1284 1495h100l-1284 -1495h-100z
M956 311q0 139 98 237t236 97q140 0 238 -97q98 -98 98 -236t-98 -236t-238 -98t-236 96q-98 98 -98 237zM246 1182q0 -111 79 -190t187 -79t186 79t78 190q0 112 -78 190t-186 78t-188 -78q-78 -78 -78 -190z" />
    <glyph glyph-name="ampersand" unicode="&#x26;" horiz-adv-x="1564" 
d="M685 45q239 0 429 176l-532 535q-100 100 -117 118q-276 -137 -277 -411q0 -160 129 -289t368 -129zM111 446q0 172 82 292t225 190q-106 135 -107 266q1 131 101 226q100 96 262 96t260 -86t98 -222v-26h-76v26q0 108 -80 176t-203 68q-124 0 -204 -77t-80 -175t53 -176
t195 -219l530 -529q193 221 213 494h-344v70h418v-25q0 -143 -63 -301t-177 -283l232 -231h-103l-180 178q-209 -198 -483 -198t-421 147q-148 147 -148 319z" />
    <glyph glyph-name="quotesingle" unicode="'" horiz-adv-x="354" 
d="M143 1495h70v-172q0 -166 -20 -299h-29q-20 133 -21 299v172z" />
    <glyph glyph-name="parenleft" unicode="(" horiz-adv-x="985" 
d="M123 506q0 358 219 634t557 355v-82q-305 -80 -501 -331q-196 -250 -196 -574t196 -577t501 -332v-82q-338 80 -557 356q-219 275 -219 633z" />
    <glyph glyph-name="parenright" unicode=")" horiz-adv-x="980" 
d="M864 524q0 -358 -219 -634t-557 -357v82q303 80 499 333q195 252 195 576t-195 575q-196 251 -499 331v81q338 -80 557 -355q219 -274 219 -632z" />
    <glyph glyph-name="asterisk" unicode="*" horiz-adv-x="901" 
d="M741 924l-274 182l20 -338h-73l20 338l-282 -186l-37 65l305 150l-305 151l39 64l280 -187l-20 330h73l-20 -332l274 185l39 -64l-297 -147l297 -148z" />
    <glyph glyph-name="plus" unicode="+" horiz-adv-x="978" 
d="M111 715v65h346v344h65v-344h346v-65h-346v-348h-65v348h-346z" />
    <glyph glyph-name="comma" unicode="," horiz-adv-x="366" 
d="M70 -240l96 418h84l-117 -418h-63z" />
    <glyph glyph-name="hyphen" unicode="-" horiz-adv-x="978" 
d="M111 485v68h757v-68h-757z" />
    <glyph glyph-name="period" unicode="." horiz-adv-x="366" 
d="M145 0v281h78v-281h-78z" />
    <glyph glyph-name="slash" unicode="/" horiz-adv-x="909" 
d="M59 0l709 1495h82l-709 -1495h-82z" />
    <glyph glyph-name="zero" unicode="0" 
d="M602 -20q-211 0 -334 128t-123 351v567q0 221 126 355q126 135 331 135t332 -134t125 -356v-580q0 -222 -123 -344t-334 -122zM602 49q174 1 278 105t103 292v580q0 196 -103 308q-102 112 -276 112t-278 -115t-105 -305v-565q-1 -193 103 -303t278 -109z" />
    <glyph glyph-name="one" unicode="1" 
d="M111 0v72h448v1241q-23 -59 -96 -101q-74 -41 -154 -41h-22v78h10q135 0 200 76t64 170h74v-1423h459v-72h-983z" />
    <glyph glyph-name="two" unicode="2" 
d="M125 0v82q0 156 144 294q77 73 132 117q55 45 161 119t164 117q176 134 227 243q32 67 32 138q0 146 -102 242q-103 96 -275 96t-284 -96t-111 -285v-10h-76q-2 227 130 343t340 116t333 -114t125 -289t-144 -315q-75 -73 -135 -120t-166 -119q-322 -222 -382 -347
q-31 -62 -31 -130v-8h872v-74h-954z" />
    <glyph glyph-name="three" unicode="3" 
d="M1067 391q0 -187 -133 -299t-347 -112t-335 120t-115 324h72v-4q-2 -172 99 -272q102 -100 280 -100q178 -1 290 92t114 253t-118 251q-119 91 -299 91h-133v72h133q174 0 285 86q111 85 111 235q1 150 -101 235t-274 85t-271 -96t-96 -262v-7h-73q-6 197 113 315
q120 118 329 118t328 -106t118 -284q0 -131 -74 -222t-208 -132q141 -41 223 -137t82 -244z" />
    <glyph glyph-name="four" unicode="4" 
d="M817 455v913l-624 -913h624zM817 0v385h-702l-9 72l711 1038h76v-1040h219v-70h-219v-385h-76z" />
    <glyph glyph-name="five" unicode="5" 
d="M592 -20q-219 0 -349 126t-130 357h80v-4q-1 -193 111 -301t289 -107q177 0 297 119q120 118 120 312t-119 310t-293 115q-119 0 -222 -55t-157 -158l-80 25l125 776h737v-72h-675l-99 -608q135 164 361 164t362 -136q137 -137 137 -359t-138 -363t-357 -141z" />
    <glyph glyph-name="six" unicode="6" 
d="M602 49q174 0 292 122t118 292t-120 291q-120 120 -290 120t-290 -120t-120 -291q0 -170 118 -292t292 -122zM603 -20q-208 0 -347 140t-139 343q0 160 88 287l491 745h92l-403 -608q104 57 223 57q205 0 342 -139t137 -343t-138 -343t-346 -139z" />
    <glyph glyph-name="seven" unicode="7" 
d="M117 1421v74h970v-68l-655 -1427h-84l658 1421h-889z" />
    <glyph glyph-name="eight" unicode="8" 
d="M602 831q158 1 253 89t95 220t-96 220t-253 88t-251 -88t-94 -220t94 -220t252 -89zM603 49q185 1 297 103t112 254t-111 256t-299 104t-299 -104t-111 -256t114 -254q112 -102 297 -103zM603 -20q-222 0 -354 120t-132 306q0 139 80 244t223 153q-113 43 -175 132
t-63 204q0 161 117 269t302 108t303 -109t118 -268q0 -113 -64 -202t-174 -134q144 -47 224 -151t79 -244q0 -184 -131 -306t-353 -122z" />
    <glyph glyph-name="nine" unicode="9" 
d="M602 621q168 1 289 121t121 290t-121 292t-289 122t-289 -122t-121 -291t121 -291q121 -121 289 -121zM594 551q-199 0 -338 140t-139 342t141 342q141 141 345 141t344 -142t140 -342q0 -156 -88 -287l-491 -745h-92l401 606q-104 -55 -223 -55z" />
    <glyph glyph-name="colon" unicode=":" horiz-adv-x="366" 
d="M145 743v281h76v-281h-76zM145 0v281h76v-281h-76z" />
    <glyph glyph-name="semicolon" unicode=";" horiz-adv-x="366" 
d="M70 -240l96 418h84l-117 -418h-63zM145 743v281h76v-281h-76z" />
    <glyph glyph-name="less" unicode="&#x3c;" horiz-adv-x="978" 
d="M868 416l-757 303v67l757 295v-73l-673 -256l673 -265v-71z" />
    <glyph glyph-name="equal" unicode="=" horiz-adv-x="978" 
d="M111 547v67h757v-67h-757zM111 872v68h757v-68h-757z" />
    <glyph glyph-name="greater" unicode="&#x3e;" horiz-adv-x="978" 
d="M111 416v71l673 265l-673 256v73l757 -295v-67z" />
    <glyph glyph-name="question" unicode="?" horiz-adv-x="1089" 
d="M479 0v281h78v-281h-78zM481 391v17q0 123 30 215t74 141t96 96t96 81t74 93t30 137q1 121 -99 199t-248 78t-248 -87q-99 -87 -100 -224v-13h-75q-2 176 117 284q120 108 304 108t305 -96q120 -96 119 -249q0 -188 -143 -297q-59 -45 -117 -95t-101 -143
q-42 -93 -42 -228v-17h-72z" />
    <glyph glyph-name="at" unicode="@" horiz-adv-x="1773" 
d="M911 825q-115 0 -199 -82t-100 -212t54 -219t187 -89t187 88t83 214t-42 213t-170 87zM887 -256q-317 0 -541 224q-223 224 -223 542t231 544q230 226 550 226t534 -205t215 -485q0 -172 -83 -302t-222 -130q-186 0 -224 176q-36 -78 -108 -129t-190 -51t-213 99t-78 271
q23 176 125 272q103 95 241 95q92 0 158 -49t88 -123l18 162h72l-41 -371q-29 -283 156 -283q100 1 164 105t63 256q0 254 -193 439q-194 185 -482 185t-496 -206t-207 -495q-1 -290 199 -495t487 -204q168 0 307 72t231 200h99q-106 -154 -272 -247t-365 -93z" />
    <glyph glyph-name="A" unicode="A" horiz-adv-x="1415" 
d="M709 1391l-336 -863h671zM84 0l584 1495h80l583 -1495h-80l-180 459h-727l-178 -459h-82z" />
    <glyph glyph-name="B" unicode="B" horiz-adv-x="1325" 
d="M754 1425h-516v-618h538q137 0 228 89q90 89 90 220t-98 220t-242 89zM782 737h-544v-667h542q150 0 248 96t98 237t-97 237t-247 97zM162 0v1495h596q176 0 296 -109t120 -270q0 -119 -65 -210t-175 -130q125 -39 199 -139t73 -236q0 -173 -120 -287t-302 -114h-622z
" />
    <glyph glyph-name="C" unicode="C" horiz-adv-x="1714" 
d="M881 -20q-317 0 -543 225q-225 225 -225 543t225 542q225 225 543 226q253 0 455 -148t276 -379h-84q-72 201 -248 328t-399 127q-287 0 -488 -204t-201 -492t202 -493q200 -204 487 -204q219 0 392 123t251 322h84q-80 -228 -278 -372t-449 -144z" />
    <glyph glyph-name="D" unicode="D" horiz-adv-x="1464" 
d="M575 1423h-337v-1351h340q294 0 494 194t200 482q0 286 -200 480t-497 195zM162 0v1495h418q328 0 550 -216q222 -215 222 -533t-224 -532t-546 -214h-420z" />
    <glyph glyph-name="E" unicode="E" horiz-adv-x="1212" 
d="M162 0v1495h919v-72h-843v-639h843v-71h-843v-639h843v-74h-919z" />
    <glyph glyph-name="F" unicode="F" horiz-adv-x="1122" 
d="M162 0v1495h846v-72h-770v-641h770v-69h-770v-713h-76z" />
    <glyph glyph-name="G" unicode="G" horiz-adv-x="1757" 
d="M889 -20q-328 0 -552 225t-224 543t224 542q224 225 544 226q251 0 449 -140t274 -362h-84q-76 194 -248 312t-391 118q-289 0 -489 -204t-200 -492t200 -493q200 -204 489 -204q289 1 479 187t209 460h-690v72h768v-22q0 -322 -215 -545t-543 -223z" />
    <glyph glyph-name="H" unicode="H" horiz-adv-x="1415" 
d="M1178 0v713h-940v-713h-76v1495h76v-711h940v711h75v-1495h-75z" />
    <glyph glyph-name="I" unicode="I" horiz-adv-x="438" 
d="M180 0v1495h78v-1495h-78z" />
    <glyph glyph-name="J" unicode="J" horiz-adv-x="976" 
d="M458 -20q-157 0 -262 98t-106 250l25 2h55q0 -121 85 -200t205 -79t202 89t81 222v1133h78v-1133q0 -168 -103 -275t-260 -107z" />
    <glyph glyph-name="K" unicode="K" horiz-adv-x="1337" 
d="M240 0h-78v1495h78v-965l856 965h96l-533 -602l613 -893h-90l-578 840l-364 -412v-428z" />
    <glyph glyph-name="L" unicode="L" horiz-adv-x="1089" 
d="M162 0v1495h76v-1421h751v-74h-827z" />
    <glyph glyph-name="M" unicode="M" horiz-adv-x="1785" 
d="M162 0v1495h76l645 -895l669 895h74v-1495h-78v1368l-665 -895l-645 889v-1362h-76z" />
    <glyph glyph-name="N" unicode="N" horiz-adv-x="1525" 
d="M162 0v1495h82l1044 -1376v1376h76v-1495h-80l-1046 1376v-1376h-76z" />
    <glyph glyph-name="O" unicode="O" horiz-adv-x="1763" 
d="M882 51q288 0 488 204t201 493q0 288 -201 492q-200 204 -488 204t-489 -204t-201 -492t202 -493q200 -204 488 -204zM881 -20q-317 0 -543 225q-225 225 -225 543t225 542q224 226 542 226t543 -226t225 -542t-224 -542q-226 -226 -543 -226z" />
    <glyph glyph-name="P" unicode="P" horiz-adv-x="1259" 
d="M594 1423h-356v-860h356q217 0 346 121t129 310t-129 309t-346 120zM162 0v1495h436q248 0 398 -140q150 -139 151 -359q0 -220 -151 -362t-398 -142h-360v-492h-76z" />
    <glyph glyph-name="Q" unicode="Q" horiz-adv-x="1763" 
d="M1571 750q0 286 -201 490q-200 204 -488 204t-489 -204t-201 -492t202 -493q200 -204 487 -204q180 0 344 101l51 -58q-184 -115 -395 -114q-317 0 -543 225q-225 225 -225 543t225 542q224 226 542 226t543 -226t225 -546t-235 -545l176 -199h-98l-514 586h96l293 -332
q205 209 205 496z" />
    <glyph glyph-name="R" unicode="R" horiz-adv-x="1202" 
d="M162 0v1495h452q199 0 337 -134q139 -135 139 -317t-116 -311t-294 -147l416 -586h-92l-453 645h57q170 0 287 116q117 117 117 277t-116 273t-286 112h-372v-1423h-76z" />
    <glyph glyph-name="S" unicode="S" horiz-adv-x="1124" 
d="M1012 387q0 -179 -126 -293t-323 -114t-323 114t-127 301h77v-8q0 -150 106 -244t266 -94q161 0 265 93q105 93 105 251t-117 239q-96 65 -227 104q-132 38 -192 64q-176 76 -225 187q-32 70 -32 166q0 164 118 263q118 100 303 100t305 -104t120 -282h-78v11
q0 135 -98 221t-249 86t-248 -81t-97 -225t113 -218q59 -39 114 -62q56 -22 152 -52t160 -58q173 -77 225 -197q33 -72 33 -168z" />
    <glyph glyph-name="T" unicode="T" horiz-adv-x="1249" 
d="M586 0v1423h-484v72h1045v-72h-485v-1423h-76z" />
    <glyph glyph-name="U" unicode="U" horiz-adv-x="1329" 
d="M664 -20q-215 0 -362 147q-146 147 -146 358v1010h75v-1010q0 -182 126 -308q127 -126 307 -126t307 126t127 308v1010h76v-1008q0 -213 -148 -360t-362 -147z" />
    <glyph glyph-name="V" unicode="V" horiz-adv-x="1394" 
d="M657 0l-575 1495h82l532 -1389l535 1389h82l-578 -1495h-78z" />
    <glyph glyph-name="W" unicode="W" horiz-adv-x="2201" 
d="M543 0l-447 1495h84l404 -1374l477 1374h74l477 -1376l411 1376h80l-452 -1495h-78l-475 1372l-477 -1372h-78z" />
    <glyph glyph-name="X" unicode="X" horiz-adv-x="1331" 
d="M1163 0l-499 717l-496 -717h-88l541 774l-496 721h86l457 -657l450 657h90l-497 -717l540 -778h-88z" />
    <glyph glyph-name="Y" unicode="Y" horiz-adv-x="1241" 
d="M584 0v713l-508 782h88l457 -709l456 709h88l-506 -782v-713h-75z" />
    <glyph glyph-name="Z" unicode="Z" horiz-adv-x="1224" 
d="M113 0v72l901 1351h-858v72h950v-70l-903 -1351h909v-74h-999z" />
    <glyph glyph-name="bracketleft" unicode="[" horiz-adv-x="780" 
d="M111 -471v1966h559v-72h-484v-1822h484v-72h-559z" />
    <glyph glyph-name="backslash" unicode="\" horiz-adv-x="909" 
d="M768 0l-709 1495h82l709 -1495h-82z" />
    <glyph glyph-name="bracketright" unicode="]" horiz-adv-x="780" 
d="M111 -471v70h483v1824h-483v72h559v-1966h-559z" />
    <glyph glyph-name="asciicircum" unicode="^" horiz-adv-x="1038" 
d="M231 1024l261 338h49l266 -338h-82l-209 266l-201 -266h-84z" />
    <glyph glyph-name="underscore" unicode="_" horiz-adv-x="1046" 
d="M111 -88v68h825v-68h-825z" />
    <glyph glyph-name="grave" unicode="`" horiz-adv-x="1038" 
d="M606 1174l-276 301h102l252 -301h-78z" />
    <glyph glyph-name="a" unicode="a" horiz-adv-x="1312" 
d="M182 512q0 -193 132 -328t324 -135t324 135t132 328t-132 328t-324 135t-324 -135t-132 -328zM635 -20q-221 0 -376 156t-155 376q0 221 154 377t377 155q145 0 271 -78t181 -214v272h74v-1024h-74v272q-55 -136 -181 -214t-271 -78z" />
    <glyph glyph-name="b" unicode="b" horiz-adv-x="1316" 
d="M678 49q190 0 322 135t133 328q-1 193 -133 328t-322 135t-324 -135t-133 -328q-1 -193 133 -328t324 -135zM682 -20q-145 0 -270 76t-183 212v-268h-71v1495h71v-739q57 135 183 212t270 76q221 0 375 -156q153 -156 153 -376q0 -221 -153 -377q-154 -155 -375 -155z
" />
    <glyph glyph-name="c" unicode="c" horiz-adv-x="1263" 
d="M627 -20q-215 0 -369 154t-154 377q0 224 156 379q156 154 372 154t357 -122t172 -320h-78q-27 166 -148 269t-305 103t-316 -134q-132 -135 -132 -329t131 -328t315 -134q184 -1 307 103q122 104 150 270h76q-29 -194 -174 -318t-360 -124z" />
    <glyph glyph-name="d" unicode="d" horiz-adv-x="1316" 
d="M182 512q0 -193 132 -328t324 -135t324 135t132 328t-132 328t-324 135t-324 -135t-132 -328zM635 -20q-221 0 -376 156t-155 376q0 221 154 377t377 155q143 0 268 -76t182 -212v739h74v-1495h-72v272q-55 -136 -181 -214t-271 -78z" />
    <glyph glyph-name="e" unicode="e" horiz-adv-x="1265" 
d="M645 977q-184 0 -314 -118t-151 -294h905q-14 180 -135 296t-305 116zM635 -20q-229 0 -380 154t-151 377q0 224 155 379q155 154 382 154t375 -148t147 -374v-26h-985q4 -188 133 -318t326 -131q155 0 271 84t157 225h82q-45 -174 -185 -275t-327 -101z" />
    <glyph glyph-name="f" unicode="f" horiz-adv-x="684" 
d="M70 956v68h174v117q0 211 70 283t278 71h8v-72q-176 0 -228 -51t-53 -233v-115h281v-68h-281v-956h-75v956h-174z" />
    <glyph glyph-name="g" unicode="g" horiz-adv-x="1308" 
d="M182 512q0 -193 132 -328t324 -135t324 135t132 328t-132 328t-324 135t-324 -135t-132 -328zM635 -20q-221 0 -376 156t-155 376q0 221 154 377t377 155q145 0 271 -78t181 -214v272h74v-1004q0 -233 -140 -373t-366 -141q-408 0 -501 373h79q82 -305 422 -305
q193 0 313 122t119 324v252q-55 -136 -181 -214t-271 -78z" />
    <glyph glyph-name="h" unicode="h" horiz-adv-x="1249" 
d="M158 0v1495h71v-707q49 113 160 185t252 71q209 0 335 -126t126 -343v-575h-74v578q0 182 -106 290t-282 109q-176 0 -292 -115q-117 -115 -117 -284v-578h-73z" />
    <glyph glyph-name="i" unicode="i" horiz-adv-x="378" 
d="M152 1192v303h75v-303h-75zM152 0v1024h75v-1024h-75z" />
    <glyph glyph-name="j" unicode="j" horiz-adv-x="380" 
d="M154 1192v303h75v-303h-75zM-129 -467v74q174 0 228 51t55 231v1135h75v-1137q-1 -211 -73 -283t-275 -71h-10z" />
    <glyph glyph-name="k" unicode="k" horiz-adv-x="1050" 
d="M231 0h-73v1495h73v-1116l617 645h96l-409 -426l446 -598h-88l-412 551l-250 -264v-287z" />
    <glyph glyph-name="l" unicode="l" horiz-adv-x="389" 
d="M158 0v1495h73v-1495h-73z" />
    <glyph glyph-name="m" unicode="m" horiz-adv-x="2054" 
d="M152 0v1024h73v-225q47 111 151 179t250 66q148 0 255 -74q106 -75 145 -206q41 123 157 202t267 78q207 0 332 -126t125 -330v-588h-74v592q1 170 -105 276t-276 106t-282 -102q-112 -104 -111 -274v-598h-74v610q0 166 -100 266q-101 100 -271 99q-170 0 -278 -110
t-109 -285v-580h-75z" />
    <glyph glyph-name="n" unicode="n" horiz-adv-x="1245" 
d="M152 0v1024h73v-236q49 113 160 185t252 71q207 0 334 -126t127 -343v-575h-76v578q0 182 -106 290t-280 107q-175 0 -292 -114t-117 -283v-578h-75z" />
    <glyph glyph-name="o" unicode="o" horiz-adv-x="1275" 
d="M637 49q190 0 322 135t133 328q0 193 -132 328t-323 135t-323 -135t-132 -328t132 -328t323 -135zM637 -20q-221 0 -376 154t-155 378q0 223 155 378q155 154 376 154t377 -154t156 -378q0 -223 -156 -378q-156 -154 -377 -154z" />
    <glyph glyph-name="p" unicode="p" horiz-adv-x="1310" 
d="M672 49q192 0 324 135t132 328t-132 328t-324 135t-324 -135q-133 -135 -133 -328t133 -328q132 -135 324 -135zM676 -20q-147 0 -270 74t-181 208v-733h-73v1495h73v-264q57 133 183 209t268 75q223 0 377 -156q153 -156 153 -376q0 -221 -154 -377q-155 -155 -376 -155
z" />
    <glyph glyph-name="q" unicode="q" horiz-adv-x="1312" 
d="M182 512q0 -193 132 -328t324 -135t324 135t132 328t-132 328t-324 135t-324 -135t-132 -328zM635 -20q-221 0 -376 156t-155 376q0 221 154 377t377 155q145 0 271 -78t181 -214v272h72v-1495h-74v735q-55 -136 -179 -210t-271 -74z" />
    <glyph glyph-name="r" unicode="r" horiz-adv-x="770" 
d="M152 0v1024h73v-264q43 120 145 192t240 72h66v-72h-66q-174 0 -278 -112t-105 -303v-537h-75z" />
    <glyph glyph-name="s" unicode="s" horiz-adv-x="827" 
d="M418 -20q-147 0 -231 81q-83 82 -83 224h78q2 -111 62 -174t174 -63q113 0 172 62q59 64 59 153t-60 139t-146 90t-146 70q-60 31 -78 49q-18 19 -42 48q-42 51 -42 146q0 96 74 168q74 71 204 71q129 0 205 -70t76 -179h-73q-1 84 -55 135t-151 51t-151 -52t-55 -130
q0 -101 104 -164q51 -31 151 -76t158 -91t80 -94t21 -108q0 -114 -79 -200t-226 -86z" />
    <glyph glyph-name="t" unicode="t" horiz-adv-x="686" 
d="M59 956v68h181v236l73 53v-289h281v-68h-281v-600q1 -180 55 -233t226 -53v-70h-10q-205 0 -275 71t-69 283v602h-181z" />
    <glyph glyph-name="u" unicode="u" horiz-adv-x="1245" 
d="M612 -20q-213 0 -339 124t-126 345v575h76v-578q-1 -182 105 -290t282 -107q176 0 293 114t117 283v578h74v-1024h-72v242q-47 -114 -158 -188t-252 -74z" />
    <glyph glyph-name="v" unicode="v" horiz-adv-x="1040" 
d="M481 0l-401 1024h82l358 -922l361 922h80l-404 -1024h-76z" />
    <glyph glyph-name="w" unicode="w" horiz-adv-x="1689" 
d="M412 0l-326 1024h80l285 -901l364 901h68l348 -909l295 909h80l-340 -1024h-68l-352 915l-369 -915h-65z" />
    <glyph glyph-name="x" unicode="x" horiz-adv-x="1075" 
d="M70 0l419 524l-397 500h90l355 -444l356 444h90l-401 -500l422 -524h-93l-376 467l-371 -467h-94z" />
    <glyph glyph-name="y" unicode="y" horiz-adv-x="1144" 
d="M303 -473l244 530l-467 967h84l422 -881l397 881h82l-680 -1497h-82z" />
    <glyph glyph-name="z" unicode="z" horiz-adv-x="1101" 
d="M100 0v72l801 882h-772v70h866v-72l-800 -882h806v-70h-901z" />
    <glyph glyph-name="braceleft" unicode="{" horiz-adv-x="835" 
d="M745 -471h-22q-256 0 -353 96t-98 348v277q0 129 -34 176q-35 47 -158 47v76q123 0 158 46t34 175v281q0 252 98 348t353 96h22v-70q-237 1 -317 -77t-80 -299v-281q0 -113 -29 -173t-100 -85q74 -23 102 -84t27 -174v-277q0 -221 80 -299t317 -77v-70z" />
    <glyph glyph-name="bar" unicode="|" horiz-adv-x="364" 
d="M145 -471v1966h76v-1966h-76z" />
    <glyph glyph-name="braceright" unicode="}" horiz-adv-x="835" 
d="M90 -471v72q238 1 318 77t79 297v277q0 113 27 174t102 84q-72 25 -100 85t-29 173v281q0 221 -79 298q-80 77 -318 76v72h23q256 0 353 -96t97 -348v-281q0 -129 35 -175t158 -46v-76q-123 0 -158 -47t-35 -176v-277q0 -252 -97 -348t-353 -96h-23z" />
    <glyph glyph-name="asciitilde" unicode="~" horiz-adv-x="894" 
d="M305 1315q68 1 166 -59t143 -60q96 0 115 107h62q-7 -82 -53 -129q-46 -48 -118 -48t-149 50l-37 20q-74 49 -127 49q-84 0 -102 -106h-72q10 80 57 128t115 48z" />
    <glyph glyph-name="exclamdown" unicode="&#xa1;" horiz-adv-x="501" 
d="M215 743v281h78v-281h-78zM215 -471v240q0 467 14 835h47q16 -420 17 -835v-240h-78z" />
    <glyph glyph-name="cent" unicode="&#xa2;" 
d="M567 -266v248q-197 12 -319 150t-123 379q0 241 122 380t320 151v248h76v-248q164 -10 279 -109t145 -271h-76q-35 152 -137 232t-246 81q-180 0 -294 -122t-114 -343t114 -341q112 -120 276 -120t267 81q101 81 136 232h78q-31 -174 -147 -272t-281 -108v-248h-76z" />
    <glyph glyph-name="sterling" unicode="&#xa3;" 
d="M313 41q139 0 195 119q-126 92 -194 92t-100 -30t-32 -77t34 -75t97 -29zM186 678v63h197q-51 80 -76 126t-50 124q-26 78 -26 154q1 164 107 267q106 104 275 104t277 -88t126 -234h-84q-20 120 -104 186t-218 66q-133 0 -217 -85t-84 -218q-1 -60 9 -91q10 -32 15 -50
q23 -87 132 -261h407v-63h-370q106 -195 106 -352q0 -74 -22 -142q59 -46 92 -68q99 -68 182 -67q131 0 131 148v82h76v-82q0 -217 -211 -217q-91 0 -203 71q-37 25 -94 70q-80 -141 -246 -141q-96 0 -149 46t-53 122t52 122t142 47q90 0 225 -92q10 47 11 99
q0 160 -119 354h-236z" />
    <glyph glyph-name="currency" unicode="&#xa4;" horiz-adv-x="1583" 
d="M803 279q190 0 322 135q132 136 132 328t-132 327t-322 135q-189 0 -323 -135t-134 -328t134 -327t323 -135zM801 209q-199 0 -346 127l-193 -199l-49 47l193 199q-136 151 -136 357t136 358l-191 198l47 47l191 -200q147 131 347 131t347 -125l176 184l49 -45l-178 -186
q141 -152 141 -362t-141 -361l174 -180l-45 -49l-178 182q-145 -123 -344 -123z" />
    <glyph glyph-name="yen" unicode="&#xa5;" 
d="M215 752v65h356v8l-434 670h88l383 -598l385 598h88l-432 -668v-10h350v-65h-350v-271h350v-65h-350v-416h-78v416h-356v65h356v271h-356z" />
    <glyph glyph-name="brokenbar" unicode="&#xa6;" horiz-adv-x="393" 
d="M145 -471v860h76v-860h-76zM145 635v860h76v-860h-76z" />
    <glyph glyph-name="section" unicode="&#xa7;" horiz-adv-x="1241" 
d="M209 814q0 -94 69 -136q108 -69 359 -111q127 -25 209 -51q86 27 131 79q45 51 44 103t-19 87t-91 70q-72 34 -153 50q-80 16 -188 36t-183 50q-84 -20 -131 -73q-47 -52 -47 -104zM596 -20q-200 0 -310 96t-110 241h78q0 -123 92 -199t252 -75q160 0 268 60t107 182
q0 122 -155 172q-82 26 -209 50q-125 23 -193 41q-190 52 -246 131q-35 48 -35 119t49 133t138 93q-119 70 -119 203t114 211q115 78 307 78t298 -94t106 -232h-74q0 116 -87 190t-243 74t-251 -57q-97 -57 -97 -167t90 -156t240 -74t216 -44q66 -18 136 -50
q136 -62 136 -189q0 -74 -47 -137t-129 -95q129 -65 129 -203t-125 -221q-126 -81 -326 -81z" />
    <glyph glyph-name="dieresis" unicode="&#xa8;" horiz-adv-x="1042" 
d="M365 1178v286h73v-286h-73zM569 1178v286h74v-286h-74z" />
    <glyph glyph-name="copyright" unicode="&#xa9;" horiz-adv-x="1779" 
d="M881 342q-172 0 -291 118t-119 286t119 285q119 118 291 118q131 0 239 -78t137 -197h-79q-35 90 -116 146q-82 56 -202 57q-120 0 -216 -97q-96 -96 -97 -234q0 -138 97 -234t217 -96t201 56t116 146h79q-31 -116 -137 -196t-239 -80zM868 49q289 0 491 205t202 494
q0 290 -202 494t-491 204q-288 0 -490 -205t-202 -493t202 -494q202 -205 490 -205zM868 -20q-317 0 -542 225q-226 225 -226 543t226 542q226 226 542 226t542 -226t226 -542q0 -317 -225 -543q-226 -225 -543 -225z" />
    <glyph glyph-name="ordfeminine" unicode="&#xaa;" horiz-adv-x="870" 
d="M451 950q104 0 174 72t69 176q0 104 -69 177q-70 73 -174 73q-103 0 -177 -72t-74 -176t74 -177q73 -73 177 -73zM440 891q-121 0 -211 88t-90 220t90 220t211 88q80 0 147 -38t103 -103v129h62v-592h-62v129q-34 -66 -102 -104t-148 -37z" />
    <glyph glyph-name="guillemotleft" unicode="&#xab;" horiz-adv-x="894" 
d="M444 244l-301 241v52l301 241v-67l-249 -201l249 -201v-65zM754 244l-303 241v52l303 241v-67l-252 -201l252 -201v-65z" />
    <glyph glyph-name="logicalnot" unicode="&#xac;" horiz-adv-x="1234" 
d="M1067 410v530h-987v74h1063v-604h-76z" />
    <glyph glyph-name="uni00AD" unicode="&#xad;" horiz-adv-x="978" 
d="M111 485v68h757v-68h-757z" />
    <glyph glyph-name="registered" unicode="&#xae;" horiz-adv-x="1779" 
d="M631 137v766h309q116 1 190 -67t74 -165t-53 -167t-143 -84l196 -283h-88l-225 336h37q88 0 144 54q56 53 56 135t-56 130t-140 48h-232v-703h-69zM891 -186q289 0 491 204t201 494q0 289 -202 494q-203 204 -491 204t-490 -204t-202 -494q0 -289 202 -494
q202 -204 491 -204zM891 -256q-317 0 -543 225q-225 225 -225 543t225 542q224 226 542 226t544 -225t225 -543q0 -318 -225 -543q-226 -225 -543 -225z" />
    <glyph glyph-name="macron" unicode="&#xaf;" horiz-adv-x="1038" 
d="M250 1174v65h541v-65h-541z" />
    <glyph glyph-name="degree" unicode="&#xb0;" horiz-adv-x="892" 
d="M446 1190q53 0 92 38q38 38 37 91q0 53 -37 91q-38 38 -92 38t-91 -38q-38 -38 -38 -91t38 -91t91 -38zM446 1126q-80 0 -137 58t-57 138q0 81 57 137q57 57 137 57t138 -56t57 -138q1 -80 -57 -138t-138 -58z" />
    <glyph glyph-name="plusminus" unicode="&#xb1;" horiz-adv-x="978" 
d="M111 274v68h757v-68h-757zM111 907v68h346v342h65v-342h346v-68h-346v-348h-65v348h-346z" />
    <glyph glyph-name="twosuperior" unicode="&#xb2;" horiz-adv-x="716" 
d="M90 631v67q0 86 62 158t164 142t141 101q39 30 73 79q35 48 35 110t-54 110t-142 48q-87 0 -149 -52t-62 -139v-2h-66q-2 117 78 186t199 69t193 -66t73 -162q1 -96 -63 -165t-162 -135t-138 -99q-42 -33 -76 -82t-34 -97v-6h477v-65h-549z" />
    <glyph glyph-name="threesuperior" unicode="&#xb3;" horiz-adv-x="692" 
d="M341 618q-122 0 -200 62t-78 176h70q0 -80 58 -127q57 -47 147 -47t150 52t61 134q-1 82 -61 130t-154 49h-82v65h82q90 0 144 47t54 121t-55 120t-143 46t-138 -45t-51 -127h-65q0 111 70 172t188 61t190 -61t72 -164q0 -147 -137 -203q156 -53 155 -211
q0 -110 -78 -180t-199 -70z" />
    <glyph glyph-name="acute" unicode="&#xb4;" horiz-adv-x="1038" 
d="M330 1174l252 301h102l-276 -301h-78z" />
    <glyph glyph-name="mu" unicode="&#xb5;" horiz-adv-x="1251" 
d="M152 -471v1495h75v-573q0 -176 114 -289t283 -113q168 0 284 114t116 283v578h74v-1024h-72v238q-49 -115 -158 -187q-109 -71 -245 -71t-238 62t-158 163v-676h-75z" />
    <glyph glyph-name="paragraph" unicode="&#xb6;" horiz-adv-x="1120" 
d="M711 0v618h-187q-190 0 -317 127t-127 311t127 312q127 127 315 127h455v-1495h-72v1427h-123v-1427h-71z" />
    <glyph glyph-name="periodcentered" unicode="&#xb7;" horiz-adv-x="366" 
d="M145 371v280h78v-280h-78z" />
    <glyph glyph-name="cedilla" unicode="&#xb8;" horiz-adv-x="1038" 
d="M520 -453q-162 0 -268 107l61 39q95 -86 193 -86t152 35t54 86t-54 81t-144 29h-47v162h63v-113q115 0 186 -43q70 -44 70 -118t-74 -126t-192 -53z" />
    <glyph glyph-name="onesuperior" unicode="&#xb9;" horiz-adv-x="569" 
d="M84 631v65h174v666q-14 -32 -56 -56t-87 -24h-15v72h6q78 0 116 43t38 98h68v-799h168v-65h-412z" />
    <glyph glyph-name="ordmasculine" unicode="&#xba;" horiz-adv-x="892" 
d="M446 952q102 0 174 72q70 72 70 175t-70 176q-72 73 -174 73t-174 -74t-72 -176t72 -174t174 -72zM447 1507q127 0 217 -90t90 -218t-90 -218t-217 -90q-128 0 -218 90t-90 218t90 218t218 90z" />
    <glyph glyph-name="guillemotright" unicode="&#xbb;" horiz-adv-x="894" 
d="M143 244v65l248 201l-248 203v67l301 -241v-54zM451 244v65l249 201l-249 203v67l303 -241v-54z" />
    <glyph glyph-name="onequarter" unicode="&#xbc;" horiz-adv-x="1544" 
d="M1251 262v494l-346 -494h346zM84 631v65h174v666q-14 -32 -56 -56t-87 -24h-15v72h6q78 0 116 43t38 98h68v-799h168v-65h-412zM207 0l1079 1495h90l-1079 -1495h-90zM1251 0v199h-422v63l420 602h70v-602h127v-63h-127v-199h-68z" />
    <glyph glyph-name="onehalf" unicode="&#xbd;" horiz-adv-x="1671" 
d="M207 0l1079 1495h90l-1079 -1495h-90zM84 631v65h174v666q-14 -32 -56 -56t-87 -24h-15v72h6q78 0 116 43t38 98h68v-799h168v-65h-412zM1040 0v68q0 86 62 158t164 142t141 100t74 79t35 111t-54 109q-54 48 -143 48q-87 0 -149 -52t-62 -138v-2h-66q-2 117 78 185
t199 69q119 0 193 -66t73 -162q0 -96 -63 -165t-161 -135q-99 -66 -139 -99t-75 -82t-35 -96v-6h477v-66h-549z" />
    <glyph glyph-name="threequarters" unicode="&#xbe;" horiz-adv-x="1671" 
d="M1376 262v494l-346 -494h346zM1376 0v199h-422v63l420 602h70v-602h127v-63h-127v-199h-68zM334 0l1079 1495h90l-1079 -1495h-90zM341 618q-122 0 -200 62t-78 176h70q0 -80 58 -127q57 -47 147 -47t150 52t61 134q-1 82 -61 130t-154 49h-82v65h82q90 0 144 47t54 121
t-55 120t-143 46t-138 -45t-51 -127h-65q0 111 70 172t188 61t190 -61t72 -164q0 -147 -137 -203q156 -53 155 -211q0 -110 -78 -180t-199 -70z" />
    <glyph glyph-name="questiondown" unicode="&#xbf;" horiz-adv-x="1091" 
d="M524 743v281h78v-281h-78zM600 633v-17q0 -123 -30 -215t-74 -141t-96 -96t-96 -81t-74 -93t-29 -137q0 -121 99 -199t247 -78t247 87t99 224v13h78q0 -176 -121 -284t-304 -108t-303 96t-120 245q0 150 80 239q35 39 78 73q43 33 87 71q160 137 158 384v17h74z" />
    <glyph glyph-name="Agrave" unicode="&#xc0;" horiz-adv-x="1415" 
d="M664 1645l-277 301h102l252 -301h-77zM709 1391l-336 -863h671zM84 0l584 1495h80l583 -1495h-80l-180 459h-727l-178 -459h-82z" />
    <glyph glyph-name="Aacute" unicode="&#xc1;" horiz-adv-x="1415" 
d="M662 1645l251 301h103l-277 -301h-77zM709 1391l-336 -863h671zM84 0l584 1495h80l583 -1495h-80l-180 459h-727l-178 -459h-82z" />
    <glyph glyph-name="Acircumflex" unicode="&#xc2;" horiz-adv-x="1415" 
d="M424 1645l244 301h65l244 -301h-82l-195 239l-192 -239h-84zM709 1391l-336 -863h671zM84 0l584 1495h80l583 -1495h-80l-180 459h-727l-178 -459h-82z" />
    <glyph glyph-name="Atilde" unicode="&#xc3;" horiz-adv-x="1415" 
d="M342 1645q0 88 50 142t124 54q74 1 189 -69t169 -70q121 0 121 133h66q0 -94 -50 -146q-112 -116 -333 19q-104 66 -156 66t-84 -34q-33 -34 -32 -95h-64zM709 1391l-336 -863h671zM84 0l584 1495h80l583 -1495h-80l-180 459h-727l-178 -459h-82z" />
    <glyph glyph-name="Adieresis" unicode="&#xc4;" horiz-adv-x="1415" 
d="M565 1649v286h74v-286h-74zM770 1649v286h74v-286h-74zM709 1391l-336 -863h671zM84 0l584 1495h80l583 -1495h-80l-180 459h-727l-178 -459h-82z" />
    <glyph glyph-name="Aring" unicode="&#xc5;" horiz-adv-x="1415" 
d="M703 1499q50 0 89 37q38 37 38 88t-38 89t-88 38t-88 -39q-36 -39 -36 -89t36 -87t87 -37zM709 1391l-336 -863h671zM516 1631q0 71 55 126t133 55t134 -54t55 -124q0 -70 -36 -120q-36 -48 -91 -68l565 -1446h-80l-180 459h-727l-178 -459h-82l563 1444q-57 16 -94 66
t-37 121z" />
    <glyph glyph-name="Ccedilla" unicode="&#xc7;" horiz-adv-x="1714" 
d="M891 -453q-162 0 -268 107l61 39q96 -86 194 -86t151 35q54 35 54 86t-54 81t-144 29h-47v144q-303 16 -514 237t-211 533t225 538q225 225 543 226q253 0 455 -148t276 -379h-84q-72 201 -248 328t-399 127q-287 0 -488 -204t-201 -492t202 -493q200 -204 487 -204
q219 0 392 123t251 322h84q-78 -226 -271 -368t-436 -148v-93q115 0 185 -43q70 -44 71 -118q-1 -74 -75 -126t-191 -53z" />
    <glyph glyph-name="Egrave" unicode="&#xc8;" horiz-adv-x="1212" 
d="M604 1645l-276 301h102l252 -301h-78zM162 0v1495h919v-72h-843v-639h843v-71h-843v-639h843v-74h-919z" />
    <glyph glyph-name="Eacute" unicode="&#xc9;" horiz-adv-x="1212" 
d="M162 0v1495h919v-72h-843v-639h843v-71h-843v-639h843v-74h-919zM551 1645l252 301h102l-276 -301h-78z" />
    <glyph glyph-name="Ecircumflex" unicode="&#xca;" horiz-adv-x="1212" 
d="M162 0v1495h919v-72h-843v-639h843v-71h-843v-639h843v-74h-919zM340 1645l244 301h65l244 -301h-82l-195 239l-192 -239h-84z" />
    <glyph glyph-name="Edieresis" unicode="&#xcb;" horiz-adv-x="1212" 
d="M162 0v1495h919v-72h-843v-639h843v-71h-843v-639h843v-74h-919zM481 1649v286h74v-286h-74zM686 1649v286h74v-286h-74z" />
    <glyph glyph-name="Igrave" unicode="&#xcc;" horiz-adv-x="438" 
d="M182 1645l-276 301h102l252 -301h-78zM180 0v1495h78v-1495h-78z" />
    <glyph glyph-name="Iacute" unicode="&#xcd;" horiz-adv-x="438" 
d="M178 1645l252 301h102l-276 -301h-78zM180 0v1495h78v-1495h-78z" />
    <glyph glyph-name="Icircumflex" unicode="&#xce;" horiz-adv-x="438" 
d="M-59 1645l243 301h66l244 -301h-82l-195 239l-192 -239h-84zM180 0v1495h78v-1495h-78z" />
    <glyph glyph-name="Idieresis" unicode="&#xcf;" horiz-adv-x="438" 
d="M180 0v1495h78v-1495h-78zM-23 1649v286h72v-286h-72zM389 1649v286h72v-286h-72z" />
    <glyph glyph-name="Eth" unicode="&#xd0;" horiz-adv-x="1497" 
d="M606 1423h-336v-624h508v-72h-508v-655h338q293 0 495 194t202 480t-201 482t-498 195zM45 727v72h150v696h417q328 0 549 -216q221 -215 221 -533t-223 -532t-545 -214h-419v727h-150z" />
    <glyph glyph-name="Ntilde" unicode="&#xd1;" horiz-adv-x="1525" 
d="M408 1645q0 88 50 142t124 54q74 1 188 -69t170 -70q121 0 121 133h65q0 -94 -50 -146q-111 -115 -333 19q-104 66 -155 66t-84 -34t-33 -95h-63zM162 0v1495h82l1044 -1376v1376h76v-1495h-80l-1046 1376v-1376h-76z" />
    <glyph glyph-name="Ograve" unicode="&#xd2;" horiz-adv-x="1763" 
d="M838 1645l-277 301h103l251 -301h-77zM882 51q288 0 488 204t201 493q0 288 -201 492q-200 204 -488 204t-489 -204t-201 -492t202 -493q200 -204 488 -204zM881 -20q-317 0 -543 225q-225 225 -225 543t225 542q224 226 542 226t543 -226t225 -542t-224 -542
q-226 -226 -543 -226z" />
    <glyph glyph-name="Oacute" unicode="&#xd3;" horiz-adv-x="1763" 
d="M882 51q288 0 488 204t201 493q0 288 -201 492q-200 204 -488 204t-489 -204t-201 -492t202 -493q200 -204 488 -204zM881 -20q-317 0 -543 225q-225 225 -225 543t225 542q224 226 542 226t543 -226t225 -542t-224 -542q-226 -226 -543 -226zM819 1645l252 301h103
l-277 -301h-78z" />
    <glyph glyph-name="Ocircumflex" unicode="&#xd4;" horiz-adv-x="1763" 
d="M882 51q288 0 488 204t201 493q0 288 -201 492q-200 204 -488 204t-489 -204t-201 -492t202 -493q200 -204 488 -204zM881 -20q-317 0 -543 225q-225 225 -225 543t225 542q224 226 542 226t543 -226t225 -542t-224 -542q-226 -226 -543 -226zM596 1645l244 301h65
l244 -301h-82l-195 239l-192 -239h-84z" />
    <glyph glyph-name="Otilde" unicode="&#xd5;" horiz-adv-x="1763" 
d="M512 1645q0 88 50 142t124 54q74 1 188 -69t170 -70q121 0 121 133h66q0 -94 -50 -146q-112 -116 -333 19q-104 66 -156 66t-84 -34q-33 -34 -33 -95h-63zM882 51q288 0 488 204t201 493q0 288 -201 492q-200 204 -488 204t-489 -204t-201 -492t202 -493
q200 -204 488 -204zM881 -20q-317 0 -543 225q-225 225 -225 543t225 542q224 226 542 226t543 -226t225 -542t-224 -542q-226 -226 -543 -226z" />
    <glyph glyph-name="Odieresis" unicode="&#xd6;" horiz-adv-x="1763" 
d="M882 51q288 0 488 204t201 493q0 288 -201 492q-200 204 -488 204t-489 -204t-201 -492t202 -493q200 -204 488 -204zM881 -20q-317 0 -543 225q-225 225 -225 543t225 542q224 226 542 226t543 -226t225 -542t-224 -542q-226 -226 -543 -226zM737 1649v286h74v-286h-74z
M942 1649v286h74v-286h-74z" />
    <glyph glyph-name="multiply" unicode="&#xd7;" horiz-adv-x="978" 
d="M217 426l-47 47l274 275l-274 274l47 47l275 -274l272 272l47 -47l-272 -272l272 -273l-47 -47l-272 272z" />
    <glyph glyph-name="Oslash" unicode="&#xd8;" horiz-adv-x="1763" 
d="M881 51q289 0 489 204t201 493q0 158 -66 298t-182 236l-821 -1116q174 -115 379 -115zM193 748q1 -160 67 -300t180 -237l824 1116q-176 117 -383 117q-287 0 -487 -204t-201 -492zM1649 748q1 -316 -225 -542t-543 -226q-229 0 -424 126l-78 -106h-92l110 150
q-133 108 -209 264t-75 334q0 317 225 542t543 226q233 0 426 -130l79 109h93l-113 -154q131 -109 207 -263t76 -330z" />
    <glyph glyph-name="Ugrave" unicode="&#xd9;" horiz-adv-x="1329" 
d="M635 1645l-277 301h103l252 -301h-78zM664 -20q-215 0 -362 147q-146 147 -146 358v1010h75v-1010q0 -182 126 -308q127 -126 307 -126t307 126t127 308v1010h76v-1008q0 -213 -148 -360t-362 -147z" />
    <glyph glyph-name="Uacute" unicode="&#xda;" horiz-adv-x="1329" 
d="M664 -20q-215 0 -362 147q-146 147 -146 358v1010h75v-1010q0 -182 126 -308q127 -126 307 -126t307 126t127 308v1010h76v-1008q0 -213 -148 -360t-362 -147zM600 1645l252 301h102l-276 -301h-78z" />
    <glyph glyph-name="Ucircumflex" unicode="&#xdb;" horiz-adv-x="1329" 
d="M664 -20q-215 0 -362 147q-146 147 -146 358v1010h75v-1010q0 -182 126 -308q127 -126 307 -126t307 126t127 308v1010h76v-1008q0 -213 -148 -360t-362 -147zM383 1645l244 301h65l244 -301h-82l-195 239l-192 -239h-84z" />
    <glyph glyph-name="Udieresis" unicode="&#xdc;" horiz-adv-x="1329" 
d="M664 -20q-215 0 -362 147q-146 147 -146 358v1010h75v-1010q0 -182 126 -308q127 -126 307 -126t307 126t127 308v1010h76v-1008q0 -213 -148 -360t-362 -147zM524 1649v286h74v-286h-74zM729 1649v286h74v-286h-74z" />
    <glyph glyph-name="Yacute" unicode="&#xdd;" horiz-adv-x="1241" 
d="M571 1645l252 301h103l-277 -301h-78zM584 0v713l-508 782h88l457 -709l456 709h88l-506 -782v-713h-75z" />
    <glyph glyph-name="Thorn" unicode="&#xde;" horiz-adv-x="1173" 
d="M569 1108h-342v-700h342q180 0 287 98q106 98 106 253t-106 252q-107 97 -287 97zM152 0v1495h75v-315h346q211 0 340 -117t129 -303t-128 -305t-341 -119h-346v-336h-75z" />
    <glyph glyph-name="germandbls" unicode="&#xdf;" horiz-adv-x="1122" 
d="M-109 -471v72q141 0 202 72q60 73 61 223v1230q-2 168 107 278q110 110 278 110q167 0 277 -110q110 -108 110 -269q0 -117 -60 -206t-161 -132q143 -37 227 -141t84 -248q0 -182 -117 -302t-299 -120q-125 0 -219 53l12 70q88 -53 218 -53q129 0 229 102t100 248
t-105 247q-105 100 -272 101h-33v69h33q113 0 200 90q87 91 87 221t-90 222t-220 92t-222 -88t-93 -225v-1235q0 -188 -77 -280t-242 -91h-15z" />
    <glyph glyph-name="agrave" unicode="&#xe0;" horiz-adv-x="1312" 
d="M606 1174l-276 301h102l252 -301h-78zM182 512q0 -193 132 -328t324 -135t324 135t132 328t-132 328t-324 135t-324 -135t-132 -328zM635 -20q-221 0 -376 156t-155 376q0 221 154 377t377 155q145 0 271 -78t181 -214v272h74v-1024h-74v272q-55 -136 -181 -214t-271 -78
z" />
    <glyph glyph-name="aacute" unicode="&#xe1;" horiz-adv-x="1312" 
d="M584 1174l252 301h102l-276 -301h-78zM182 512q0 -193 132 -328t324 -135t324 135t132 328t-132 328t-324 135t-324 -135t-132 -328zM635 -20q-221 0 -376 156t-155 376q0 221 154 377t377 155q145 0 271 -78t181 -214v272h74v-1024h-74v272q-55 -136 -181 -214t-271 -78
z" />
    <glyph glyph-name="acircumflex" unicode="&#xe2;" horiz-adv-x="1312" 
d="M375 1174l243 301h66l244 -301h-82l-195 239l-192 -239h-84zM182 512q0 -193 132 -328t324 -135t324 135t132 328t-132 328t-324 135t-324 -135t-132 -328zM635 -20q-221 0 -376 156t-155 376q0 221 154 377t377 155q145 0 271 -78t181 -214v272h74v-1024h-74v272
q-55 -136 -181 -214t-271 -78z" />
    <glyph glyph-name="atilde" unicode="&#xe3;" horiz-adv-x="1312" 
d="M311 1174q0 88 50 142q51 54 125 54t188 -70t170 -69q121 0 121 133h65q0 -94 -50 -146q-111 -115 -333 19q-104 66 -155 66t-84 -34t-33 -95h-64zM182 512q0 -193 132 -328t324 -135t324 135t132 328t-132 328t-324 135t-324 -135t-132 -328zM635 -20q-221 0 -376 156
t-155 376q0 221 154 377t377 155q145 0 271 -78t181 -214v272h74v-1024h-74v272q-55 -136 -181 -214t-271 -78z" />
    <glyph glyph-name="adieresis" unicode="&#xe4;" horiz-adv-x="1312" 
d="M510 1178v286h74v-286h-74zM715 1178v286h73v-286h-73zM182 512q0 -193 132 -328t324 -135t324 135t132 328t-132 328t-324 135t-324 -135t-132 -328zM635 -20q-221 0 -376 156t-155 376q0 221 154 377t377 155q145 0 271 -78t181 -214v272h74v-1024h-74v272
q-55 -136 -181 -214t-271 -78z" />
    <glyph glyph-name="aring" unicode="&#xe5;" horiz-adv-x="1312" 
d="M642 1219q50 1 88 37t38 87t-38 89t-88 38t-87 -38t-37 -90q0 -50 37 -86t87 -37zM643 1155q-78 0 -133 55t-55 133q0 77 55 133t133 56t133 -54t55 -134t-55 -134q-55 -55 -133 -55zM182 512q0 -193 132 -328t324 -135t324 135t132 328t-132 328t-324 135t-324 -135
t-132 -328zM635 -20q-221 0 -376 156t-155 376q0 221 154 377t377 155q145 0 271 -78t181 -214v272h74v-1024h-74v272q-55 -136 -181 -214t-271 -78z" />
    <glyph glyph-name="ae" unicode="&#xe6;" horiz-adv-x="2019" 
d="M190 264q0 -104 67 -162t215 -59q148 0 258 83t161 193q-33 93 -33 175t10 124q-48 -58 -176 -82q-46 -8 -188 -37q-144 -28 -229 -80q-85 -51 -85 -155zM1399 977q-185 0 -315 -118t-150 -294h905q-14 180 -135 296t-305 116zM1407 -20q-170 0 -292 72t-191 196
q-55 -109 -176 -189q-121 -79 -293 -79t-256 76t-85 207q-1 132 107 200t305 106q197 37 252 60q104 47 107 131q0 102 -83 162t-245 59q-162 0 -257 -80t-95 -211v-6h-72v4q0 162 116 259t296 97t280 -61t123 -172q72 109 190 171t257 62q227 0 374 -148t148 -374v-26h-985
q4 -188 134 -318t325 -131q155 0 271 84t157 225h82q-45 -174 -185 -275t-309 -101z" />
    <glyph glyph-name="ccedilla" unicode="&#xe7;" horiz-adv-x="1263" 
d="M647 -453q-162 0 -268 107l61 39q96 -86 194 -86t151 35q55 35 55 86t-54 81t-145 29h-47v144q-215 16 -352 166q-138 150 -138 369q0 218 156 373q156 154 372 154t357 -122t172 -320h-78q-27 166 -148 269t-305 103t-316 -134q-132 -135 -132 -329t131 -328t315 -134
q184 -1 307 103q122 104 150 270h76q-29 -193 -169 -316t-335 -126v-93q115 0 186 -43q71 -44 71 -118t-76 -126q-74 -52 -191 -53z" />
    <glyph glyph-name="egrave" unicode="&#xe8;" horiz-adv-x="1265" 
d="M600 1174l-276 301h102l252 -301h-78zM645 977q-184 0 -314 -118t-151 -294h905q-14 180 -135 296t-305 116zM635 -20q-229 0 -380 154t-151 377q0 224 155 379q155 154 382 154t375 -148t147 -374v-26h-985q4 -188 133 -318t326 -131q155 0 271 84t157 225h82
q-45 -174 -185 -275t-327 -101z" />
    <glyph glyph-name="eacute" unicode="&#xe9;" horiz-adv-x="1265" 
d="M645 977q-184 0 -314 -118t-151 -294h905q-14 180 -135 296t-305 116zM635 -20q-229 0 -380 154t-151 377q0 224 155 379q155 154 382 154t375 -148t147 -374v-26h-985q4 -188 133 -318t326 -131q155 0 271 84t157 225h82q-45 -174 -185 -275t-327 -101zM580 1174
l251 301h103l-277 -301h-77z" />
    <glyph glyph-name="ecircumflex" unicode="&#xea;" horiz-adv-x="1265" 
d="M360 1174l244 301h66l243 -301h-82l-194 239l-193 -239h-84zM645 977q-184 0 -314 -118t-151 -294h905q-14 180 -135 296t-305 116zM635 -20q-229 0 -380 154t-151 377q0 224 155 379q155 154 382 154t375 -148t147 -374v-26h-985q4 -188 133 -318t326 -131q155 0 271 84
t157 225h82q-45 -174 -185 -275t-327 -101z" />
    <glyph glyph-name="edieresis" unicode="&#xeb;" horiz-adv-x="1265" 
d="M705 1178v286h73v-286h-73zM500 1178v286h73v-286h-73zM645 977q-184 0 -314 -118t-151 -294h905q-14 180 -135 296t-305 116zM635 -20q-229 0 -380 154t-151 377q0 224 155 379q155 154 382 154t375 -148t147 -374v-26h-985q4 -188 133 -318t326 -131q155 0 271 84
t157 225h82q-45 -174 -185 -275t-327 -101z" />
    <glyph glyph-name="igrave" unicode="&#xec;" horiz-adv-x="378" 
d="M158 1174l-277 301h103l252 -301h-78zM152 0v1024h75v-1024h-75z" />
    <glyph glyph-name="iacute" unicode="&#xed;" horiz-adv-x="378" 
d="M152 0v1024h75v-1024h-75zM152 1174l251 301h103l-277 -301h-77z" />
    <glyph glyph-name="icircumflex" unicode="&#xee;" horiz-adv-x="378" 
d="M152 0v1024h75v-1024h-75zM-88 1174l244 301h65l244 -301h-82l-195 239l-192 -239h-84z" />
    <glyph glyph-name="idieresis" unicode="&#xef;" horiz-adv-x="378" 
d="M152 0v1024h75v-1024h-75zM-37 1178v286h74v-286h-74zM344 1178v286h72v-286h-72z" />
    <glyph glyph-name="eth" unicode="&#xf0;" horiz-adv-x="1267" 
d="M635 53q186 0 316 132q130 133 130 319t-130 319t-316 133q-187 0 -319 -132t-132 -319t132 -320q133 -132 319 -132zM1159 504q-1 -217 -153 -369q-152 -151 -372 -151t-373 152t-153 369t152 369t367 152q252 0 385 -195q-100 221 -373 459l-231 -135h-101l291 170
q-123 102 -213 170h115q102 -80 159 -133l226 133h100l-285 -168q459 -416 459 -823z" />
    <glyph glyph-name="ntilde" unicode="&#xf1;" horiz-adv-x="1245" 
d="M262 1174q0 88 50 142t124 54t189 -70t170 -69q121 0 120 133h66q0 -94 -50 -146q-111 -115 -333 19q-104 66 -156 66t-84 -34q-33 -34 -32 -95h-64zM152 0v1024h73v-236q49 113 160 185t252 71q207 0 334 -126t127 -343v-575h-76v578q0 182 -106 290t-280 107
q-175 0 -292 -114t-117 -283v-578h-75z" />
    <glyph glyph-name="ograve" unicode="&#xf2;" horiz-adv-x="1273" 
d="M600 1174l-276 301h102l252 -301h-78zM637 49q190 0 322 135t133 328q0 193 -132 328t-323 135t-323 -135t-132 -328t132 -328t323 -135zM637 -20q-221 0 -376 154t-155 378q0 223 155 378q155 154 376 154t377 -154t156 -378q0 -223 -156 -378q-156 -154 -377 -154z" />
    <glyph glyph-name="oacute" unicode="&#xf3;" horiz-adv-x="1273" 
d="M637 49q190 0 322 135t133 328q0 193 -132 328t-323 135t-323 -135t-132 -328t132 -328t323 -135zM637 -20q-221 0 -376 154t-155 378q0 223 155 378q155 154 376 154t377 -154t156 -378q0 -223 -156 -378q-156 -154 -377 -154zM586 1174l252 301h102l-276 -301h-78z" />
    <glyph glyph-name="ocircumflex" unicode="&#xf4;" horiz-adv-x="1273" 
d="M354 1174l244 301h66l243 -301h-82l-194 239l-193 -239h-84zM637 49q190 0 322 135t133 328q0 193 -132 328t-323 135t-323 -135t-132 -328t132 -328t323 -135zM637 -20q-221 0 -376 154t-155 378q0 223 155 378q155 154 376 154t377 -154t156 -378q0 -223 -156 -378
q-156 -154 -377 -154z" />
    <glyph glyph-name="otilde" unicode="&#xf5;" horiz-adv-x="1273" 
d="M276 1174q0 88 50 142t125 54t189 -70t169 -69q121 0 121 133h65q0 -94 -50 -146q-111 -115 -333 19q-104 66 -155 66t-84 -34t-33 -95h-64zM637 49q190 0 322 135t133 328q0 193 -132 328t-323 135t-323 -135t-132 -328t132 -328t323 -135zM637 -20q-221 0 -376 154
t-155 378q0 223 155 378q155 154 376 154t377 -154t156 -378q0 -223 -156 -378q-156 -154 -377 -154z" />
    <glyph glyph-name="odieresis" unicode="&#xf6;" horiz-adv-x="1273" 
d="M637 49q190 0 322 135t133 328q0 193 -132 328t-323 135t-323 -135t-132 -328t132 -328t323 -135zM637 -20q-221 0 -376 154t-155 378q0 223 155 378q155 154 376 154t377 -154t156 -378q0 -223 -156 -378q-156 -154 -377 -154zM498 1178v286h73v-286h-73zM702 1178v286
h74v-286h-74z" />
    <glyph glyph-name="divide" unicode="&#xf7;" horiz-adv-x="978" 
d="M457 340v252h65v-252h-65zM457 901v250h65v-250h-65zM111 715v65h757v-65h-757z" />
    <glyph glyph-name="oslash" unicode="&#xf8;" horiz-adv-x="1273" 
d="M637 49q190 0 322 135q133 135 133 336t-154 340l-545 -739q111 -72 244 -72zM637 975q-191 0 -323 -135t-132 -339t156 -339l545 739q-113 74 -246 74zM637 -20q-152 0 -287 81l-45 -61h-86l76 102q-191 158 -191 396t156 392q156 155 377 154q156 0 289 -83l47 63h86
l-78 -104q188 -162 188 -396t-155 -390q-156 -154 -377 -154z" />
    <glyph glyph-name="ugrave" unicode="&#xf9;" horiz-adv-x="1245" 
d="M602 1174l-276 301h102l252 -301h-78zM612 -20q-213 0 -339 124t-126 345v575h76v-578q-1 -182 105 -290t282 -107q176 0 293 114t117 283v578h74v-1024h-72v242q-47 -114 -158 -188t-252 -74z" />
    <glyph glyph-name="uacute" unicode="&#xfa;" horiz-adv-x="1245" 
d="M559 1174l252 301h102l-276 -301h-78zM612 -20q-213 0 -339 124t-126 345v575h76v-578q-1 -182 105 -290t282 -107q176 0 293 114t117 283v578h74v-1024h-72v242q-47 -114 -158 -188t-252 -74z" />
    <glyph glyph-name="ucircumflex" unicode="&#xfb;" horiz-adv-x="1245" 
d="M340 1174l244 301h65l244 -301h-82l-195 239l-192 -239h-84zM612 -20q-213 0 -339 124t-126 345v575h76v-578q-1 -182 105 -290t282 -107q176 0 293 114t117 283v578h74v-1024h-72v242q-47 -114 -158 -188t-252 -74z" />
    <glyph glyph-name="udieresis" unicode="&#xfc;" horiz-adv-x="1245" 
d="M690 1178v286h74v-286h-74zM485 1178v286h74v-286h-74zM612 -20q-213 0 -339 124t-126 345v575h76v-578q-1 -182 105 -290t282 -107q176 0 293 114t117 283v578h74v-1024h-72v242q-47 -114 -158 -188t-252 -74z" />
    <glyph glyph-name="yacute" unicode="&#xfd;" horiz-adv-x="1144" 
d="M524 1174l252 301h103l-277 -301h-78zM303 -473l244 530l-467 967h84l422 -881l397 881h82l-680 -1497h-82z" />
    <glyph glyph-name="thorn" unicode="&#xfe;" horiz-adv-x="1318" 
d="M682 51q192 0 323 135q132 135 132 328t-131 326t-324 133t-326 -134q-133 -133 -133 -325t133 -328q134 -135 326 -135zM682 -20q-147 0 -267 74t-184 202v-727h-73v1966h73v-729q66 129 187 204t266 74q223 0 376 -154q152 -154 152 -377q0 -222 -153 -378
q-154 -155 -377 -155z" />
    <glyph glyph-name="ydieresis" unicode="&#xff;" horiz-adv-x="1144" 
d="M641 1178v286h74v-286h-74zM436 1178v286h74v-286h-74zM303 -473l244 530l-467 967h84l422 -881l397 881h82l-680 -1497h-82z" />
    <glyph glyph-name="Amacron" unicode="&#x100;" horiz-adv-x="1415" 
d="M436 1645v65h541v-65h-541zM709 1391l-336 -863h671zM84 0l584 1495h80l583 -1495h-80l-180 459h-727l-178 -459h-82z" />
    <glyph glyph-name="amacron" unicode="&#x101;" horiz-adv-x="1312" 
d="M403 1174v65h541v-65h-541zM182 512q0 -193 132 -328t324 -135t324 135t132 328t-132 328t-324 135t-324 -135t-132 -328zM635 -20q-221 0 -376 156t-155 376q0 221 154 377t377 155q145 0 271 -78t181 -214v272h74v-1024h-74v272q-55 -136 -181 -214t-271 -78z" />
    <glyph glyph-name="Abreve" unicode="&#x102;" horiz-adv-x="1415" 
d="M1034 1944q0 -122 -91 -216t-245 -94t-239 91q-86 91 -86 219h67q0 -102 69 -176t192 -72q123 0 195 74t71 174h67zM709 1391l-336 -863h671zM84 0l584 1495h80l583 -1495h-80l-180 459h-727l-178 -459h-82z" />
    <glyph glyph-name="abreve" unicode="&#x103;" horiz-adv-x="1312" 
d="M979 1464q1 -123 -91 -216t-246 -93t-239 91q-86 91 -86 218h68q0 -102 69 -175q70 -73 192 -73t194 74t71 174h68zM182 512q0 -193 132 -328t324 -135t324 135t132 328t-132 328t-324 135t-324 -135t-132 -328zM635 -20q-221 0 -376 156t-155 376q0 221 154 377t377 155
q145 0 271 -78t181 -214v272h74v-1024h-74v272q-55 -136 -181 -214t-271 -78z" />
    <glyph glyph-name="Aogonek" unicode="&#x104;" horiz-adv-x="1415" 
d="M709 1391l-336 -863h671zM1279 -412q-126 0 -196 54t-69 133q0 139 227 248l-170 436h-727l-178 -459h-82l584 1495h80l583 -1495h-4l4 -2q-133 -66 -187 -117t-54 -106t48 -88t140 -33t186 90l62 -43q-121 -113 -247 -113z" />
    <glyph glyph-name="aogonek" unicode="&#x105;" horiz-adv-x="1312" 
d="M182 512q0 -193 132 -328t324 -135t324 135t132 328t-132 328t-324 135t-324 -135t-132 -328zM1132 -449q-102 -1 -158 55t-56 136q0 125 169 281v249q-55 -135 -181 -214t-271 -78q-221 0 -376 156t-155 376q0 221 154 377t377 155q145 0 271 -78t181 -214v272h74v-1024
h2q-176 -139 -176 -254q0 -57 39 -93q40 -36 114 -36t158 80l48 -51q-112 -95 -214 -95z" />
    <glyph glyph-name="Cacute" unicode="&#x106;" horiz-adv-x="1714" 
d="M881 -20q-317 0 -543 225q-225 225 -225 543t225 542q225 225 543 226q253 0 455 -148t276 -379h-84q-72 201 -248 328t-399 127q-287 0 -488 -204t-201 -492t202 -493q200 -204 487 -204q219 0 392 123t251 322h84q-80 -228 -278 -372t-449 -144zM834 1645l251 301h103
l-277 -301h-77z" />
    <glyph glyph-name="cacute" unicode="&#x107;" horiz-adv-x="1263" 
d="M627 -20q-215 0 -369 154t-154 377q0 224 156 379q156 154 372 154t357 -122t172 -320h-78q-27 166 -148 269t-305 103t-316 -134q-132 -135 -132 -329t131 -328t315 -134q184 -1 307 103q122 104 150 270h76q-29 -194 -174 -318t-360 -124zM582 1174l252 301h102
l-277 -301h-77z" />
    <glyph glyph-name="Ccircumflex" unicode="&#x108;" horiz-adv-x="1714" 
d="M881 -20q-317 0 -543 225q-225 225 -225 543t225 542q225 225 543 226q253 0 455 -148t276 -379h-84q-72 201 -248 328t-399 127q-287 0 -488 -204t-201 -492t202 -493q200 -204 487 -204q219 0 392 123t251 322h84q-80 -228 -278 -372t-449 -144zM602 1645l244 301h65
l244 -301h-82l-194 239l-193 -239h-84z" />
    <glyph glyph-name="ccircumflex" unicode="&#x109;" horiz-adv-x="1263" 
d="M627 -20q-215 0 -369 154t-154 377q0 224 156 379q156 154 372 154t357 -122t172 -320h-78q-27 166 -148 269t-305 103t-316 -134q-132 -135 -132 -329t131 -328t315 -134q184 -1 307 103q122 104 150 270h76q-29 -194 -174 -318t-360 -124zM362 1174l244 301h66
l243 -301h-81l-195 239l-193 -239h-84z" />
    <glyph glyph-name="Cdotaccent" unicode="&#x10a;" horiz-adv-x="1714" 
d="M856 1649v286h76v-286h-76zM881 -20q-317 0 -543 225q-225 225 -225 543t225 542q225 225 543 226q253 0 455 -148t276 -379h-84q-72 201 -248 328t-399 127q-287 0 -488 -204t-201 -492t202 -493q200 -204 487 -204q219 0 392 123t251 322h84q-80 -228 -278 -372
t-449 -144z" />
    <glyph glyph-name="cdotaccent" unicode="&#x10b;" horiz-adv-x="1263" 
d="M598 1178v286h76v-286h-76zM627 -20q-215 0 -369 154t-154 377q0 224 156 379q156 154 372 154t357 -122t172 -320h-78q-27 166 -148 269t-305 103t-316 -134q-132 -135 -132 -329t131 -328t315 -134q184 -1 307 103q122 104 150 270h76q-29 -194 -174 -318t-360 -124z
" />
    <glyph glyph-name="Ccaron" unicode="&#x10c;" horiz-adv-x="1714" 
d="M834 1645l-244 301h82l192 -242l195 242h84l-244 -301h-65zM881 -20q-317 0 -543 225q-225 225 -225 543t225 542q225 225 543 226q253 0 455 -148t276 -379h-84q-72 201 -248 328t-399 127q-287 0 -488 -204t-201 -492t202 -493q200 -204 487 -204q219 0 392 123
t251 322h84q-80 -228 -278 -372t-449 -144z" />
    <glyph glyph-name="ccaron" unicode="&#x10d;" horiz-adv-x="1263" 
d="M596 1174l-244 301h82l193 -242l194 242h84l-243 -301h-66zM627 -20q-215 0 -369 154t-154 377q0 224 156 379q156 154 372 154t357 -122t172 -320h-78q-27 166 -148 269t-305 103t-316 -134q-132 -135 -132 -329t131 -328t315 -134q184 -1 307 103q122 104 150 270h76
q-29 -194 -174 -318t-360 -124z" />
    <glyph glyph-name="Dcaron" unicode="&#x10e;" horiz-adv-x="1464" 
d="M588 1645l-244 301h82l192 -242l195 242h84l-244 -301h-65zM575 1423h-337v-1351h340q294 0 494 194t200 482q0 286 -200 480t-497 195zM162 0v1495h418q328 0 550 -216q222 -215 222 -533t-224 -532t-546 -214h-420z" />
    <glyph glyph-name="dcaron" unicode="&#x10f;" horiz-adv-x="1368" 
d="M1288 1163l119 332h76l-135 -332h-60zM182 512q0 -193 132 -328t324 -135t324 135t132 328t-132 328t-324 135t-324 -135t-132 -328zM635 -20q-221 0 -376 156t-155 376q0 221 154 377t377 155q143 0 268 -76t182 -212v739h74v-1495h-72v272q-55 -136 -181 -214t-271 -78
z" />
    <glyph glyph-name="Dcroat" unicode="&#x110;" horiz-adv-x="1497" 
d="M606 1423h-336v-624h508v-72h-508v-655h338q293 0 495 194t202 480t-201 482t-498 195zM45 727v72h150v696h417q328 0 549 -216q221 -215 221 -533t-223 -532t-545 -214h-419v727h-150z" />
    <glyph glyph-name="dcroat" unicode="&#x111;" horiz-adv-x="1329" 
d="M182 512q0 -193 132 -328t324 -135t324 135t132 328t-132 328t-324 135t-324 -135t-132 -328zM778 1184v67h307v244h74v-244h117v-67h-117v-1184h-72v272q-55 -135 -181 -214t-271 -78q-221 0 -376 156t-155 376q0 221 154 377t377 155q143 0 268 -76t182 -212v428h-307z
" />
    <glyph glyph-name="Emacron" unicode="&#x112;" horiz-adv-x="1212" 
d="M348 1645v65h541v-65h-541zM162 0v1495h919v-72h-843v-639h843v-71h-843v-639h843v-74h-919z" />
    <glyph glyph-name="emacron" unicode="&#x113;" horiz-adv-x="1265" 
d="M375 1174v65h540v-65h-540zM645 977q-184 0 -314 -118t-151 -294h905q-14 180 -135 296t-305 116zM635 -20q-229 0 -380 154t-151 377q0 224 155 379q155 154 382 154t375 -148t147 -374v-26h-985q4 -188 133 -318t326 -131q155 0 271 84t157 225h82q-45 -174 -185 -275
t-327 -101z" />
    <glyph glyph-name="Ebreve" unicode="&#x114;" horiz-adv-x="1212" 
d="M956 1944q0 -122 -91 -216t-245 -94t-239 91q-86 91 -86 219h67q0 -102 69 -176t192 -72q123 0 195 74t71 174h67zM162 0v1495h919v-72h-843v-639h843v-71h-843v-639h843v-74h-919z" />
    <glyph glyph-name="ebreve" unicode="&#x115;" horiz-adv-x="1265" 
d="M973 1464q1 -123 -91 -216t-246 -93t-239 91q-86 91 -86 218h68q1 -102 69 -175t191 -73t195 74t71 174h68zM645 977q-184 0 -314 -118t-151 -294h905q-14 180 -135 296t-305 116zM635 -20q-229 0 -380 154t-151 377q0 224 155 379q155 154 382 154t375 -148t147 -374
v-26h-985q4 -188 133 -318t326 -131q155 0 271 84t157 225h82q-45 -174 -185 -275t-327 -101z" />
    <glyph glyph-name="Edotaccent" unicode="&#x116;" horiz-adv-x="1212" 
d="M598 1649v286h76v-286h-76zM162 0v1495h919v-72h-843v-639h843v-71h-843v-639h843v-74h-919z" />
    <glyph glyph-name="edotaccent" unicode="&#x117;" horiz-adv-x="1265" 
d="M604 1178v286h76v-286h-76zM645 977q-184 0 -314 -118t-151 -294h905q-14 180 -135 296t-305 116zM635 -20q-229 0 -380 154t-151 377q0 224 155 379q155 154 382 154t375 -148t147 -374v-26h-985q4 -188 133 -318t326 -131q155 0 271 84t157 225h82q-45 -174 -185 -275
t-327 -101z" />
    <glyph glyph-name="Eogonek" unicode="&#x118;" horiz-adv-x="1212" 
d="M162 0v1495h919v-72h-843v-639h843v-71h-843v-639h843v-74h-4l4 -2q-133 -66 -187 -117t-54 -106t48 -88t140 -33t186 90l62 -43q-121 -113 -247 -113q-125 0 -195 54t-70 133q0 125 184 225h-786z" />
    <glyph glyph-name="eogonek" unicode="&#x119;" horiz-adv-x="1265" 
d="M645 977q-184 0 -314 -118t-151 -294h905q-14 180 -135 296t-305 116zM635 -20q-229 0 -380 154t-151 377q0 224 155 379q155 154 382 154t375 -148t147 -374v-26h-985q4 -188 133 -318t326 -131q155 0 271 84t157 225h82q-33 -120 -109 -206t-186 -130l6 -4
q-133 -66 -187 -116q-55 -50 -55 -106t48 -89t141 -33q92 0 186 90l62 -43q-121 -113 -262 -112q-111 0 -181 53t-69 133q0 100 121 187h-27z" />
    <glyph glyph-name="Ecaron" unicode="&#x11a;" horiz-adv-x="1212" 
d="M584 1645l-244 301h82l192 -242l195 242h84l-244 -301h-65zM162 0v1495h919v-72h-843v-639h843v-71h-843v-639h843v-74h-919z" />
    <glyph glyph-name="ecaron" unicode="&#x11b;" horiz-adv-x="1265" 
d="M610 1174l-243 301h82l192 -242l195 242h84l-244 -301h-66zM645 977q-184 0 -314 -118t-151 -294h905q-14 180 -135 296t-305 116zM635 -20q-229 0 -380 154t-151 377q0 224 155 379q155 154 382 154t375 -148t147 -374v-26h-985q4 -188 133 -318t326 -131q155 0 271 84
t157 225h82q-45 -174 -185 -275t-327 -101z" />
    <glyph glyph-name="Gcircumflex" unicode="&#x11c;" horiz-adv-x="1757" 
d="M889 -20q-328 0 -552 225t-224 543t224 542q224 225 544 226q251 0 449 -140t274 -362h-84q-76 194 -248 312t-391 118q-289 0 -489 -204t-200 -492t200 -493q200 -204 489 -204q289 1 479 187t209 460h-690v72h768v-22q0 -322 -215 -545t-543 -223zM600 1645l244 301h65
l244 -301h-82l-194 239l-193 -239h-84z" />
    <glyph glyph-name="gcircumflex" unicode="&#x11d;" horiz-adv-x="1308" 
d="M367 1174l243 301h66l244 -301h-82l-195 239l-192 -239h-84zM182 512q0 -193 132 -328t324 -135t324 135t132 328t-132 328t-324 135t-324 -135t-132 -328zM635 -20q-221 0 -376 156t-155 376q0 221 154 377t377 155q145 0 271 -78t181 -214v272h74v-1004
q0 -233 -140 -373t-366 -141q-408 0 -501 373h79q82 -305 422 -305q193 0 313 122t119 324v252q-55 -136 -181 -214t-271 -78z" />
    <glyph glyph-name="Gbreve" unicode="&#x11e;" horiz-adv-x="1757" 
d="M1206 1944q0 -122 -91 -216t-245 -94t-239 91q-86 91 -86 219h67q0 -102 69 -176t192 -72q123 0 195 74t71 174h67zM889 -20q-328 0 -552 225t-224 543t224 542q224 225 544 226q251 0 449 -140t274 -362h-84q-76 194 -248 312t-391 118q-289 0 -489 -204t-200 -492
t200 -493q200 -204 489 -204q289 1 479 187t209 460h-690v72h768v-22q0 -322 -215 -545t-543 -223z" />
    <glyph glyph-name="gbreve" unicode="&#x11f;" horiz-adv-x="1308" 
d="M975 1464q1 -123 -91 -216t-246 -93t-239 91q-86 91 -86 218h68q0 -102 69 -175q70 -73 192 -73t194 74t71 174h68zM182 512q0 -193 132 -328t324 -135t324 135t132 328t-132 328t-324 135t-324 -135t-132 -328zM635 -20q-221 0 -376 156t-155 376q0 221 154 377t377 155
q145 0 271 -78t181 -214v272h74v-1004q0 -233 -140 -373t-366 -141q-408 0 -501 373h79q82 -305 422 -305q193 0 313 122t119 324v252q-55 -136 -181 -214t-271 -78z" />
    <glyph glyph-name="Gdotaccent" unicode="&#x120;" horiz-adv-x="1757" 
d="M836 1649v286h75v-286h-75zM889 -20q-328 0 -552 225t-224 543t224 542q224 225 544 226q251 0 449 -140t274 -362h-84q-76 194 -248 312t-391 118q-289 0 -489 -204t-200 -492t200 -493q200 -204 489 -204q289 1 479 187t209 460h-690v72h768v-22q0 -322 -215 -545
t-543 -223z" />
    <glyph glyph-name="gdotaccent" unicode="&#x121;" horiz-adv-x="1308" 
d="M580 1178v286h75v-286h-75zM182 512q0 -193 132 -328t324 -135t324 135t132 328t-132 328t-324 135t-324 -135t-132 -328zM635 -20q-221 0 -376 156t-155 376q0 221 154 377t377 155q145 0 271 -78t181 -214v272h74v-1004q0 -233 -140 -373t-366 -141q-408 0 -501 373h79
q82 -305 422 -305q193 0 313 122t119 324v252q-55 -136 -181 -214t-271 -78z" />
    <glyph glyph-name="Gcommaaccent" unicode="&#x122;" horiz-adv-x="1757" 
d="M889 -20q-328 0 -552 225t-224 543t224 542q224 225 544 226q251 0 449 -140t274 -362h-84q-76 194 -248 312t-391 118q-289 0 -489 -204t-200 -492t200 -493q200 -204 489 -204q289 1 479 187t209 460h-690v72h768v-22q0 -322 -215 -545t-543 -223zM813 -561h-57l96 418
h76z" />
    <glyph glyph-name="gcommaaccent" unicode="&#x123;" horiz-adv-x="1308" 
d="M649 1126h-57l96 418h76zM182 512q0 -193 132 -328t324 -135t324 135t132 328t-132 328t-324 135t-324 -135t-132 -328zM635 -20q-221 0 -376 156t-155 376q0 221 154 377t377 155q145 0 271 -78t181 -214v272h74v-1004q0 -233 -140 -373t-366 -141q-408 0 -501 373h79
q82 -305 422 -305q193 0 313 122t119 324v252q-55 -136 -181 -214t-271 -78z" />
    <glyph glyph-name="Hcircumflex" unicode="&#x124;" horiz-adv-x="1415" 
d="M428 1645l244 301h65l244 -301h-82l-194 239l-193 -239h-84zM1174 0v713h-941v-713h-75v1495h75v-711h941v711h75v-1495h-75z" />
    <glyph glyph-name="hcircumflex" unicode="&#x125;" horiz-adv-x="1249" 
d="M-84 1610l244 301h65l244 -301h-82l-194 239l-193 -239h-84zM158 0v1495h71v-707q49 113 160 185t252 71q209 0 335 -126t126 -343v-575h-74v578q0 182 -106 290t-282 109q-176 0 -292 -115q-117 -115 -117 -284v-578h-73z" />
    <glyph glyph-name="Hbar" unicode="&#x126;" horiz-adv-x="1470" 
d="M262 784h940v326h-940v-326zM35 1110v61h151v324h76v-324h940v324h76v-324h135v-61h-135v-1110h-76v713h-940v-713h-76v1110h-151z" />
    <glyph glyph-name="hbar" unicode="&#x127;" horiz-adv-x="1261" 
d="M23 1225v67h147v203h72v-203h280v-67h-280v-437q49 113 159 185q111 72 252 71q209 0 335 -126t126 -343v-575h-74v578q0 182 -106 290t-282 109q-176 0 -292 -115q-117 -115 -116 -284v-578h-74v1225h-147z" />
    <glyph glyph-name="Itilde" unicode="&#x128;" horiz-adv-x="438" 
d="M-121 1645q0 88 50 142t124 54q74 1 189 -69t170 -70q121 0 120 133h66q0 -94 -50 -146q-111 -115 -333 19q-103 66 -155 66t-85 -34t-32 -95h-64zM180 0v1495h78v-1495h-78z" />
    <glyph glyph-name="itilde" unicode="&#x129;" horiz-adv-x="378" 
d="M-168 1174q0 88 50 142t124 54t189 -70t170 -69q121 0 120 133h66q0 -94 -50 -146q-112 -116 -333 19q-104 66 -156 66t-84 -34q-33 -34 -32 -95h-64zM152 0v1024h75v-1024h-75z" />
    <glyph glyph-name="Imacron" unicode="&#x12a;" horiz-adv-x="438" 
d="M-51 1645v65h540v-65h-540zM180 0v1495h78v-1495h-78z" />
    <glyph glyph-name="imacron" unicode="&#x12b;" horiz-adv-x="378" 
d="M-80 1174v65h541v-65h-541zM152 0v1024h75v-1024h-75z" />
    <glyph glyph-name="Ibreve" unicode="&#x12c;" horiz-adv-x="438" 
d="M210 1634q-154 0 -239 91q-86 91 -86 219h68q0 -102 69 -176q70 -74 192 -72q122 0 194 74t71 174h68q0 -123 -91 -217q-92 -93 -246 -93zM180 0v1495h78v-1495h-78z" />
    <glyph glyph-name="ibreve" unicode="&#x12d;" horiz-adv-x="378" 
d="M186 1155q-154 0 -239 91q-86 91 -86 218h67q0 -102 69 -175t192 -73t195 74t71 174h67q0 -123 -91 -216t-245 -93zM152 0v1024h75v-1024h-75z" />
    <glyph glyph-name="Iogonek" unicode="&#x12e;" horiz-adv-x="438" 
d="M227 -451q-102 -1 -158 55t-57 136q0 129 168 278v1477h78v-1495h-4l4 -2q-176 -139 -176 -254q0 -57 39 -93t113 -36t159 80l47 -51q-111 -95 -213 -95z" />
    <glyph glyph-name="iogonek" unicode="&#x12f;" horiz-adv-x="378" 
d="M152 1192v303h75v-303h-75zM199 -449q-103 -1 -159 55t-56 136q0 129 168 278v1004h75v-1024h2q-176 -139 -176 -254q0 -57 39 -93t114 -36t159 80l47 -51q-111 -95 -213 -95z" />
    <glyph glyph-name="Idotaccent" unicode="&#x130;" horiz-adv-x="438" 
d="M182 1649v286h76v-286h-76zM180 0v1495h78v-1495h-78z" />
    <glyph glyph-name="dotlessi" unicode="&#x131;" horiz-adv-x="378" 
d="M152 0v1024h75v-1024h-75z" />
    <glyph glyph-name="IJ" unicode="&#x132;" horiz-adv-x="1085" 
d="M145 0v1495h76v-1495h-76zM436 0v72h129q137 0 216 84t79 223v1116h76v-1118q0 -173 -96 -275t-271 -102h-133z" />
    <glyph glyph-name="ij" unicode="&#x133;" horiz-adv-x="727" 
d="M500 1192v303h75v-303h-75zM152 1192v303h75v-303h-75zM152 0v1024h75v-1024h-75zM152 -344v74h90q166 0 212 49t46 207v1038h75v-1040q1 -190 -65 -259t-258 -69h-100z" />
    <glyph glyph-name="Jcircumflex" unicode="&#x134;" horiz-adv-x="1013" 
d="M495 -20q-157 0 -263 98q-105 98 -105 250l25 2h55q0 -121 85 -200t205 -79q119 0 201 89t82 222v1133h78v-1133q0 -168 -103 -275t-260 -107zM535 1645l243 301h66l243 -301h-81l-195 239l-193 -239h-83z" />
    <glyph glyph-name="jcircumflex" unicode="&#x135;" horiz-adv-x="380" 
d="M-129 -467v74q174 0 228 51t55 231v1135h75v-1137q1 -211 -71 -283t-277 -71h-10zM-86 1174l244 301h65l244 -301h-82l-195 239l-192 -239h-84z" />
    <glyph glyph-name="Kcommaaccent" unicode="&#x136;" horiz-adv-x="1337" 
d="M604 -561h-57l96 418h76zM240 0h-78v1495h78v-965l856 965h96l-533 -602l613 -893h-90l-578 840l-364 -412v-428z" />
    <glyph glyph-name="kcommaaccent" unicode="&#x137;" horiz-adv-x="1050" 
d="M463 -528h-57l96 417h76zM231 0h-73v1495h73v-1116l617 645h96l-409 -426l446 -598h-88l-412 551l-250 -264v-287z" />
    <glyph glyph-name="kgreenlandic" unicode="&#x138;" horiz-adv-x="1046" 
d="M227 0h-73v1024h73v-645l617 645h96l-410 -426l447 -598h-88l-412 551l-250 -264v-287z" />
    <glyph glyph-name="Lacute" unicode="&#x139;" horiz-adv-x="1089" 
d="M156 1645l252 301h102l-277 -301h-77zM162 0v1495h76v-1421h751v-74h-827z" />
    <glyph glyph-name="lacute" unicode="&#x13a;" horiz-adv-x="389" 
d="M156 0v1495h73v-1495h-73zM172 1610l252 301h102l-276 -301h-78z" />
    <glyph glyph-name="Lcommaaccent" unicode="&#x13b;" horiz-adv-x="1089" 
d="M162 0v1495h76v-1421h751v-74h-827zM489 -561h-57l96 418h76z" />
    <glyph glyph-name="lcommaaccent" unicode="&#x13c;" horiz-adv-x="389" 
d="M156 0v1495h73v-1495h-73zM137 -528h-57l96 417h76z" />
    <glyph glyph-name="Lcaron" unicode="&#x13d;" horiz-adv-x="1089" 
d="M162 0v1495h76v-1421h751v-74h-827zM555 1163l119 332h76l-136 -332h-59z" />
    <glyph glyph-name="lcaron" unicode="&#x13e;" horiz-adv-x="436" 
d="M152 0v1495h73v-1495h-73zM358 1163l119 332h76l-135 -332h-60z" />
    <glyph glyph-name="Ldot" unicode="&#x13f;" horiz-adv-x="1120" 
d="M913 590v287h76v-287h-76zM162 0v1495h76v-1421h751v-74h-827z" />
    <glyph glyph-name="ldot" unicode="&#x140;" horiz-adv-x="636" 
d="M467 434v287h76v-287h-76zM156 0v1495h73v-1495h-73z" />
    <glyph glyph-name="Lslash" unicode="&#x141;" horiz-adv-x="1150" 
d="M221 1495h76v-668l395 117v-59l-395 -117v-694h752v-74h-828v745l-201 -57v57l201 60v690z" />
    <glyph glyph-name="lslash" unicode="&#x142;" horiz-adv-x="542" 
d="M233 1495h76v-657l211 106v-63l-211 -107v-774h-76v735l-210 -104v63l210 105v696z" />
    <glyph glyph-name="Nacute" unicode="&#x143;" horiz-adv-x="1525" 
d="M162 0v1495h82l1044 -1376v1376h76v-1495h-80l-1046 1376v-1376h-76zM735 1645l252 301h103l-277 -301h-78z" />
    <glyph glyph-name="nacute" unicode="&#x144;" horiz-adv-x="1245" 
d="M152 0v1024h73v-236q49 113 160 185t252 71q207 0 334 -126t127 -343v-575h-76v578q0 182 -106 290t-280 107q-175 0 -292 -114t-117 -283v-578h-75zM586 1174l252 301h102l-276 -301h-78z" />
    <glyph glyph-name="Ncommaaccent" unicode="&#x145;" horiz-adv-x="1525" 
d="M676 -561h-58l97 418h76zM162 0v1495h82l1044 -1376v1376h76v-1495h-80l-1046 1376v-1376h-76z" />
    <glyph glyph-name="ncommaaccent" unicode="&#x146;" horiz-adv-x="1245" 
d="M580 -528h-58l96 417h76zM152 0v1024h73v-236q49 113 160 185t252 71q207 0 334 -126t127 -343v-575h-76v578q0 182 -106 290t-280 107q-175 0 -292 -114t-117 -283v-578h-75z" />
    <glyph glyph-name="Ncaron" unicode="&#x147;" horiz-adv-x="1525" 
d="M735 1645l-243 301h81l193 -242l195 242h83l-243 -301h-66zM162 0v1495h82l1044 -1376v1376h76v-1495h-80l-1046 1376v-1376h-76z" />
    <glyph glyph-name="ncaron" unicode="&#x148;" horiz-adv-x="1245" 
d="M594 1174l-244 301h82l193 -242l194 242h84l-244 -301h-65zM152 0v1024h73v-236q49 113 160 185t252 71q207 0 334 -126t127 -343v-575h-76v578q0 182 -106 290t-280 107q-175 0 -292 -114t-117 -283v-578h-75z" />
    <glyph glyph-name="Eng" unicode="&#x14a;" horiz-adv-x="1525" 
d="M915 -422v72h154q109 0 165 59t54 168v123l-1050 1378v-1378h-76v1495h82l1044 -1368v1368h76v-1620q0 -141 -73 -219t-216 -78h-160z" />
    <glyph glyph-name="eng" unicode="&#x14b;" horiz-adv-x="1245" 
d="M739 -467v74q174 0 229 51q54 51 54 231v689q0 182 -106 290t-280 107q-175 0 -292 -114t-117 -283v-578h-75v1024h73v-236q49 113 160 185t252 71q207 0 334 -126t127 -343v-688q0 -211 -72 -283t-276 -71h-11z" />
    <glyph glyph-name="Omacron" unicode="&#x14c;" horiz-adv-x="1763" 
d="M882 51q288 0 488 204t201 493q0 288 -201 492q-200 204 -488 204t-489 -204t-201 -492t202 -493q200 -204 488 -204zM881 -20q-317 0 -543 225q-225 225 -225 543t225 542q224 226 542 226t543 -226t225 -542t-224 -542q-226 -226 -543 -226zM604 1645v65h541v-65h-541z
" />
    <glyph glyph-name="omacron" unicode="&#x14d;" horiz-adv-x="1273" 
d="M637 49q190 0 322 135t133 328q0 193 -132 328t-323 135t-323 -135t-132 -328t132 -328t323 -135zM637 -20q-221 0 -376 154t-155 378q0 223 155 378q155 154 376 154t377 -154t156 -378q0 -223 -156 -378q-156 -154 -377 -154zM365 1174v65h540v-65h-540z" />
    <glyph glyph-name="Obreve" unicode="&#x14e;" horiz-adv-x="1763" 
d="M1204 1946q0 -122 -92 -216t-244 -94q-154 0 -240 91t-85 219h67q0 -102 69 -176t191 -72q122 0 195 74q72 74 72 174h67zM882 51q288 0 488 204t201 493q0 288 -201 492q-200 204 -488 204t-489 -204t-201 -492t202 -493q200 -204 488 -204zM881 -20q-317 0 -543 225
q-225 225 -225 543t225 542q224 226 542 226t543 -226t225 -542t-224 -542q-226 -226 -543 -226z" />
    <glyph glyph-name="obreve" unicode="&#x14f;" horiz-adv-x="1273" 
d="M965 1464q1 -123 -91 -216t-246 -93t-239 91q-86 91 -86 218h68q1 -102 69 -175t191 -73t195 74t71 174h68zM637 49q190 0 322 135t133 328q0 193 -132 328t-323 135t-323 -135t-132 -328t132 -328t323 -135zM637 -20q-221 0 -376 154t-155 378q0 223 155 378
q155 154 376 154t377 -154t156 -378q0 -223 -156 -378q-156 -154 -377 -154z" />
    <glyph glyph-name="Ohungarumlaut" unicode="&#x150;" horiz-adv-x="1763" 
d="M882 51q288 0 488 204t201 493q0 288 -201 492q-200 204 -488 204t-489 -204t-201 -492t202 -493q200 -204 488 -204zM881 -20q-317 0 -543 225q-225 225 -225 543t225 542q224 226 542 226t543 -226t225 -542t-224 -542q-226 -226 -543 -226zM922 1645l252 301h98
l-277 -301h-73zM715 1645l252 301h98l-277 -301h-73z" />
    <glyph glyph-name="ohungarumlaut" unicode="&#x151;" horiz-adv-x="1273" 
d="M637 49q190 0 322 135t133 328q0 193 -132 328t-323 135t-323 -135t-132 -328t132 -328t323 -135zM637 -20q-221 0 -376 154t-155 378q0 223 155 378q155 154 376 154t377 -154t156 -378q0 -223 -156 -378q-156 -154 -377 -154zM700 1174l252 301h99l-277 -301h-74z
M494 1174l251 301h99l-277 -301h-73z" />
    <glyph glyph-name="OE" unicode="&#x152;" horiz-adv-x="2635" 
d="M881 53q287 0 489 204t201 491q0 286 -202 490q-203 204 -489 204t-488 -204t-202 -490t202 -491q202 -204 489 -204zM1571 0v428q-89 -203 -273 -326t-417 -122q-317 0 -543 225q-225 225 -225 543t225 542q225 225 543 226q233 0 416 -123t274 -328v430h921v-72h-845
v-639h845v-71h-845v-639h845v-74h-921z" />
    </font>
</defs>
</svg>
